%TF.GenerationSoftware,KiCad,Pcbnew,(5.1.12)-1*%
%TF.CreationDate,2024-01-28T09:01:29+01:00*%
%TF.ProjectId,EREBUS,45524542-5553-42e6-9b69-6361645f7063,rev?*%
%TF.SameCoordinates,PX6d01460PY60e4b00*%
%TF.FileFunction,Copper,L2,Bot*%
%TF.FilePolarity,Positive*%
%FSLAX46Y46*%
G04 Gerber Fmt 4.6, Leading zero omitted, Abs format (unit mm)*
G04 Created by KiCad (PCBNEW (5.1.12)-1) date 2024-01-28 09:01:29*
%MOMM*%
%LPD*%
G01*
G04 APERTURE LIST*
%TA.AperFunction,ComponentPad*%
%ADD10C,1.422400*%
%TD*%
%TA.AperFunction,ComponentPad*%
%ADD11R,1.422400X1.422400*%
%TD*%
%TA.AperFunction,ComponentPad*%
%ADD12C,1.600000*%
%TD*%
%TA.AperFunction,ComponentPad*%
%ADD13R,1.600000X1.600000*%
%TD*%
%TA.AperFunction,ComponentPad*%
%ADD14C,1.700000*%
%TD*%
%TA.AperFunction,ViaPad*%
%ADD15C,1.000000*%
%TD*%
%TA.AperFunction,ViaPad*%
%ADD16C,1.800000*%
%TD*%
%TA.AperFunction,ViaPad*%
%ADD17C,1.300000*%
%TD*%
%TA.AperFunction,Conductor*%
%ADD18C,0.800000*%
%TD*%
%TA.AperFunction,Conductor*%
%ADD19C,0.400000*%
%TD*%
%TA.AperFunction,Conductor*%
%ADD20C,0.350000*%
%TD*%
%TA.AperFunction,Conductor*%
%ADD21C,0.254000*%
%TD*%
%TA.AperFunction,Conductor*%
%ADD22C,0.100000*%
%TD*%
G04 APERTURE END LIST*
D10*
%TO.P,U2,29*%
%TO.N,/A8*%
X71755000Y37465000D03*
%TO.P,U2,27*%
%TO.N,/A11*%
X71755000Y34925000D03*
%TO.P,U2,25*%
%TO.N,/ROM_OE*%
X71755000Y32385000D03*
%TO.P,U2,23*%
%TO.N,/ROM_CE*%
X71755000Y29845000D03*
%TO.P,U2,28*%
%TO.N,/A9*%
X69215000Y34925000D03*
%TO.P,U2,26*%
%TO.N,Net-(U2-Pad26)*%
X69215000Y32385000D03*
%TO.P,U2,24*%
%TO.N,/A10*%
X69215000Y29845000D03*
%TO.P,U2,22*%
%TO.N,/D7*%
X69215000Y27305000D03*
%TO.P,U2,20*%
%TO.N,/D5*%
X69215000Y24765000D03*
%TO.P,U2,18*%
%TO.N,/D3*%
X66675000Y24765000D03*
%TO.P,U2,16*%
%TO.N,GND*%
X64135000Y24765000D03*
%TO.P,U2,14*%
%TO.N,/D1*%
X61595000Y24765000D03*
%TO.P,U2,21*%
%TO.N,/D6*%
X71755000Y27305000D03*
%TO.P,U2,19*%
%TO.N,/D4*%
X66675000Y27305000D03*
%TO.P,U2,17*%
%TO.N,Net-(U2-Pad17)*%
X64135000Y27305000D03*
%TO.P,U2,15*%
%TO.N,/D2*%
X61595000Y27305000D03*
%TO.P,U2,13*%
%TO.N,/D0*%
X59055000Y27305000D03*
%TO.P,U2,11*%
%TO.N,/A0*%
X59055000Y29845000D03*
%TO.P,U2,9*%
%TO.N,/A2*%
X59055000Y32385000D03*
%TO.P,U2,7*%
%TO.N,/A4*%
X59055000Y34925000D03*
%TO.P,U2,5*%
%TO.N,/A6*%
X59055000Y37465000D03*
%TO.P,U2,12*%
%TO.N,Net-(U2-Pad12)*%
X61595000Y29845000D03*
%TO.P,U2,10*%
%TO.N,/A1*%
X61595000Y32385000D03*
%TO.P,U2,8*%
%TO.N,/A3*%
X61595000Y34925000D03*
%TO.P,U2,6*%
%TO.N,/A5*%
X61595000Y37465000D03*
%TO.P,U2,30*%
%TO.N,/A13*%
X69215000Y40005000D03*
%TO.P,U2,32*%
%TO.N,VCC*%
X66675000Y40005000D03*
%TO.P,U2,4*%
%TO.N,/A7*%
X61595000Y40005000D03*
%TO.P,U2,2*%
%TO.N,/A15M*%
X64135000Y40005000D03*
%TO.P,U2,31*%
%TO.N,/A14M*%
X69215000Y37465000D03*
%TO.P,U2,3*%
%TO.N,/A12*%
X64135000Y37465000D03*
D11*
%TO.P,U2,1*%
%TO.N,Net-(U2-Pad1)*%
X66675000Y37465000D03*
%TD*%
D10*
%TO.P,U1,39*%
%TO.N,/D2*%
X22225000Y37465000D03*
%TO.P,U1,37*%
%TO.N,/D3*%
X22225000Y34925000D03*
%TO.P,U1,35*%
%TO.N,VCC*%
X22225000Y32385000D03*
%TO.P,U1,33*%
%TO.N,/D6*%
X22225000Y29845000D03*
%TO.P,U1,31*%
%TO.N,/D7*%
X22225000Y27305000D03*
%TO.P,U1,40*%
%TO.N,/D1*%
X19685000Y40005000D03*
%TO.P,U1,38*%
%TO.N,Net-(U1-Pad38)*%
X19685000Y34925000D03*
%TO.P,U1,36*%
%TO.N,/D4*%
X19685000Y32385000D03*
%TO.P,U1,34*%
%TO.N,/D5*%
X19685000Y29845000D03*
%TO.P,U1,32*%
%TO.N,Net-(U1-Pad32)*%
X19685000Y27305000D03*
%TO.P,U1,30*%
%TO.N,GND*%
X19685000Y24765000D03*
%TO.P,U1,28*%
%TO.N,/MISO*%
X19685000Y22225000D03*
%TO.P,U1,26*%
%TO.N,/CS*%
X17145000Y22225000D03*
%TO.P,U1,24*%
%TO.N,/A15M*%
X14605000Y22225000D03*
%TO.P,U1,22*%
%TO.N,GND*%
X12065000Y22225000D03*
%TO.P,U1,20*%
%TO.N,/A14*%
X9525000Y22225000D03*
%TO.P,U1,18*%
%TO.N,/PHI2*%
X6985000Y22225000D03*
%TO.P,U1,29*%
%TO.N,/MOSI*%
X22225000Y24765000D03*
%TO.P,U1,27*%
%TO.N,/SCK*%
X17145000Y24765000D03*
%TO.P,U1,25*%
%TO.N,/A2*%
X14605000Y24765000D03*
%TO.P,U1,23*%
%TO.N,VCC*%
X12065000Y24765000D03*
%TO.P,U1,21*%
%TO.N,/~IOCTRL*%
X9525000Y24765000D03*
%TO.P,U1,19*%
%TO.N,/~RESET*%
X6985000Y24765000D03*
%TO.P,U1,17*%
%TO.N,/~IO*%
X4445000Y24765000D03*
%TO.P,U1,15*%
%TO.N,VCC*%
X4445000Y27305000D03*
%TO.P,U1,13*%
%TO.N,Net-(U1-Pad13)*%
X4445000Y29845000D03*
%TO.P,U1,11*%
%TO.N,/R_~W*%
X4445000Y32385000D03*
%TO.P,U1,9*%
%TO.N,/A0*%
X4445000Y34925000D03*
%TO.P,U1,7*%
%TO.N,Net-(U1-Pad7)*%
X4445000Y37465000D03*
%TO.P,U1,16*%
%TO.N,/A15*%
X6985000Y27305000D03*
%TO.P,U1,14*%
%TO.N,/ROM_CE*%
X6985000Y29845000D03*
%TO.P,U1,12*%
%TO.N,/A14M*%
X6985000Y32385000D03*
%TO.P,U1,10*%
%TO.N,GND*%
X6985000Y34925000D03*
%TO.P,U1,8*%
%TO.N,/A1*%
X6985000Y37465000D03*
%TO.P,U1,42*%
%TO.N,GND*%
X17145000Y40005000D03*
%TO.P,U1,44*%
%TO.N,/A5*%
X14605000Y40005000D03*
%TO.P,U1,6*%
%TO.N,/ROM_OE*%
X6985000Y40005000D03*
%TO.P,U1,4*%
%TO.N,/A4*%
X9525000Y40005000D03*
%TO.P,U1,2*%
%TO.N,/A6*%
X12065000Y40005000D03*
%TO.P,U1,41*%
%TO.N,/D0*%
X19685000Y37465000D03*
%TO.P,U1,43*%
%TO.N,Net-(U1-Pad43)*%
X17145000Y37465000D03*
%TO.P,U1,5*%
%TO.N,/A3*%
X9525000Y37465000D03*
%TO.P,U1,3*%
%TO.N,VCC*%
X12065000Y37465000D03*
D11*
%TO.P,U1,1*%
%TO.N,/A7*%
X14605000Y37465000D03*
%TD*%
D12*
%TO.P,C3,2*%
%TO.N,GND*%
X61500000Y10160000D03*
D13*
%TO.P,C3,1*%
%TO.N,+3V3*%
X63500000Y10160000D03*
%TD*%
D14*
%TO.P,J1,34*%
%TO.N,GND*%
X17780000Y3175000D03*
%TO.P,J1,32*%
%TO.N,/A11*%
X20320000Y3175000D03*
%TO.P,J1,30*%
%TO.N,/A12*%
X22860000Y3175000D03*
%TO.P,J1,28*%
%TO.N,/A13*%
X25400000Y3175000D03*
%TO.P,J1,26*%
%TO.N,/A14*%
X27940000Y3175000D03*
%TO.P,J1,24*%
%TO.N,/A15*%
X30480000Y3175000D03*
%TO.P,J1,22*%
%TO.N,/D7*%
X33020000Y3175000D03*
%TO.P,J1,20*%
%TO.N,/A4*%
X35560000Y3175000D03*
%TO.P,J1,18*%
%TO.N,/D4*%
X38100000Y3175000D03*
%TO.P,J1,16*%
%TO.N,/D3*%
X40640000Y3175000D03*
%TO.P,J1,14*%
%TO.N,/D6*%
X43180000Y3175000D03*
%TO.P,J1,12*%
%TO.N,/D1*%
X45720000Y3175000D03*
%TO.P,J1,10*%
%TO.N,/D0*%
X48260000Y3175000D03*
%TO.P,J1,8*%
%TO.N,/~IRQ*%
X50800000Y3175000D03*
%TO.P,J1,6*%
%TO.N,/~IOCTRL*%
X53340000Y3175000D03*
%TO.P,J1,4*%
%TO.N,/~RESET*%
X55880000Y3175000D03*
%TO.P,J1,2*%
%TO.N,GND*%
X58420000Y3175000D03*
%TO.P,J1,33*%
%TO.N,VCC*%
X17780000Y5715000D03*
%TO.P,J1,31*%
%TO.N,/A10*%
X20320000Y5715000D03*
%TO.P,J1,29*%
%TO.N,/A9*%
X22860000Y5715000D03*
%TO.P,J1,27*%
%TO.N,/A8*%
X25400000Y5715000D03*
%TO.P,J1,25*%
%TO.N,/A7*%
X27940000Y5715000D03*
%TO.P,J1,23*%
%TO.N,/A6*%
X30480000Y5715000D03*
%TO.P,J1,21*%
%TO.N,/A5*%
X33020000Y5715000D03*
%TO.P,J1,19*%
%TO.N,/D5*%
X35560000Y5715000D03*
%TO.P,J1,17*%
%TO.N,/A2*%
X38100000Y5715000D03*
%TO.P,J1,15*%
%TO.N,/A1*%
X40640000Y5715000D03*
%TO.P,J1,13*%
%TO.N,/A0*%
X43180000Y5715000D03*
%TO.P,J1,11*%
%TO.N,/A3*%
X45720000Y5715000D03*
%TO.P,J1,9*%
%TO.N,/D2*%
X48260000Y5715000D03*
%TO.P,J1,7*%
%TO.N,/R_~W*%
X50800000Y5715000D03*
%TO.P,J1,5*%
%TO.N,/~IO*%
X53340000Y5715000D03*
%TO.P,J1,3*%
%TO.N,/PHI2*%
X55880000Y5715000D03*
%TO.P,J1,1*%
%TO.N,/~MAP*%
%TA.AperFunction,ComponentPad*%
G36*
G01*
X57820000Y6565000D02*
X59020000Y6565000D01*
G75*
G02*
X59270000Y6315000I0J-250000D01*
G01*
X59270000Y5115000D01*
G75*
G02*
X59020000Y4865000I-250000J0D01*
G01*
X57820000Y4865000D01*
G75*
G02*
X57570000Y5115000I0J250000D01*
G01*
X57570000Y6315000D01*
G75*
G02*
X57820000Y6565000I250000J0D01*
G01*
G37*
%TD.AperFunction*%
%TD*%
D12*
%TO.P,C2,2*%
%TO.N,VCC*%
X4445000Y15795000D03*
%TO.P,C2,1*%
%TO.N,GND*%
X4445000Y10795000D03*
%TD*%
%TO.P,C1,2*%
%TO.N,GND*%
X62230000Y15780000D03*
D13*
%TO.P,C1,1*%
%TO.N,VCC*%
X62230000Y17780000D03*
%TD*%
D15*
%TO.N,GND*%
X28704300Y30880800D03*
D16*
X23495000Y18415000D03*
X45593000Y21717000D03*
X51435000Y16510000D03*
X50546000Y27305000D03*
D17*
X17272000Y32385000D03*
D16*
X17272000Y9144000D03*
%TO.N,VCC*%
X66675000Y43815000D03*
D17*
X12065000Y31115000D03*
D16*
X3175000Y40640000D03*
X3302000Y45974000D03*
D15*
%TO.N,/D0*%
X54610000Y27305000D03*
%TO.N,/D1*%
X58547000Y40005000D03*
%TO.N,/D2*%
X53340000Y27305000D03*
%TO.N,/D3*%
X38989000Y7874000D03*
%TO.N,/D4*%
X52439500Y25261500D03*
%TO.N,/D5*%
X30226000Y16637000D03*
%TO.N,/D6*%
X35990800Y9525000D03*
%TO.N,/D7*%
X28448000Y16891000D03*
%TO.N,/A2*%
X26035000Y29210000D03*
%TO.N,/A4*%
X52324000Y37084000D03*
X24003000Y31750000D03*
%TO.N,/A6*%
X40259000Y8763000D03*
X24003000Y34798000D03*
%TO.N,/A8*%
X25400000Y13589000D03*
X59055000Y14605000D03*
%TO.N,/A10*%
X15875000Y15875000D03*
X55499000Y17653000D03*
D17*
%TO.N,/A14*%
X19050000Y17145000D03*
D15*
%TO.N,/A15*%
X18796000Y7620000D03*
%TO.N,/~IOCTRL*%
X15367000Y11938000D03*
%TO.N,Net-(J2-Pad5)*%
X42418000Y28702000D03*
X43053000Y33020000D03*
%TO.N,/MISO*%
X42545000Y20320000D03*
X34417000Y23495000D03*
%TO.N,/A15M*%
X13335000Y41275000D03*
D16*
%TO.N,+3V3*%
X53340000Y17780000D03*
D15*
%TO.N,Net-(J2-Pad1)*%
X34925000Y33655000D03*
X45085000Y26670000D03*
%TO.N,Net-(R4-Pad2)*%
X41275000Y23495000D03*
X48006000Y24892000D03*
%TO.N,Net-(R2-Pad1)*%
X38735000Y24765000D03*
X32385000Y24130000D03*
%TO.N,Net-(R3-Pad1)*%
X44958000Y24003000D03*
X33147000Y22733000D03*
%TD*%
D18*
%TO.N,GND*%
X19685000Y24765000D02*
X21590000Y22860000D01*
X21590000Y20320000D02*
X23495000Y18415000D01*
X21590000Y22860000D02*
X21590000Y20320000D01*
X60452000Y4191000D02*
X59436000Y3175000D01*
X59436000Y3175000D02*
X58420000Y3175000D01*
X60452000Y6350000D02*
X60452000Y4191000D01*
X59182000Y7620000D02*
X60452000Y6350000D01*
X55880000Y7620000D02*
X59182000Y7620000D01*
X51435000Y12065000D02*
X55880000Y7620000D01*
X51435000Y16510000D02*
X51435000Y12065000D01*
X45593000Y21717000D02*
X47117000Y21717000D01*
X50546000Y25146000D02*
X50546000Y27305000D01*
X47117000Y21717000D02*
X50546000Y25146000D01*
D19*
X17145000Y40005000D02*
X17145000Y39878000D01*
X17145000Y39878000D02*
X18415000Y38608000D01*
X18415000Y38608000D02*
X18415000Y36068000D01*
X17272000Y34925000D02*
X17272000Y32385000D01*
X18415000Y36068000D02*
X17272000Y34925000D01*
X6985000Y34925000D02*
X8001000Y34925000D01*
X8001000Y34925000D02*
X9398000Y33528000D01*
X9398000Y33528000D02*
X9398000Y27813000D01*
X9398000Y27813000D02*
X10795000Y26416000D01*
X10795000Y23495000D02*
X12065000Y22225000D01*
X10795000Y26416000D02*
X10795000Y23495000D01*
D18*
X17272000Y9144000D02*
X17272000Y12065000D01*
X12065000Y17272000D02*
X12065000Y22225000D01*
X17272000Y12065000D02*
X12065000Y17272000D01*
X17780000Y3175000D02*
X15240000Y3175000D01*
X7620000Y10795000D02*
X4445000Y10795000D01*
X15240000Y3175000D02*
X7620000Y10795000D01*
%TO.N,VCC*%
X4445000Y15795000D02*
X5795000Y15795000D01*
X15875000Y5715000D02*
X17780000Y5715000D01*
X5795000Y15795000D02*
X15875000Y5715000D01*
X12065000Y28575000D02*
X12065000Y24765000D01*
X12065000Y31115000D02*
X12065000Y28575000D01*
X4445000Y15795000D02*
X4445000Y21534640D01*
X3175000Y38989000D02*
X3175000Y40640000D01*
X2794000Y38608000D02*
X3175000Y38989000D01*
X25908000Y43815000D02*
X66675000Y43815000D01*
X23749000Y45974000D02*
X25908000Y43815000D01*
X3302000Y45974000D02*
X23749000Y45974000D01*
X2794000Y23185640D02*
X4445000Y21534640D01*
X4445000Y27305000D02*
X2921000Y27305000D01*
X2921000Y27305000D02*
X2794000Y27178000D01*
X2794000Y27178000D02*
X2794000Y23185640D01*
X74295000Y22733000D02*
X69342000Y17780000D01*
X74295000Y40513000D02*
X74295000Y22733000D01*
X69342000Y17780000D02*
X62230000Y17780000D01*
X70993000Y43815000D02*
X74295000Y40513000D01*
X66675000Y43815000D02*
X70993000Y43815000D01*
X2794000Y27178000D02*
X2794000Y36068000D01*
X2794000Y36068000D02*
X2794000Y38608000D01*
X12065000Y35052000D02*
X12065000Y31115000D01*
X12065000Y37465000D02*
X12065000Y35052000D01*
D19*
X9652000Y35052000D02*
X12065000Y35052000D01*
X8509000Y36195000D02*
X9652000Y35052000D01*
X2921000Y36195000D02*
X8509000Y36195000D01*
X2794000Y36068000D02*
X2921000Y36195000D01*
D20*
%TO.N,/D0*%
X46990000Y4445000D02*
X48260000Y3175000D01*
X45215500Y4445000D02*
X46990000Y4445000D01*
X44494600Y5165900D02*
X45215500Y4445000D01*
X44494600Y14687400D02*
X44494600Y5165900D01*
X50908100Y21100900D02*
X44494600Y14687400D01*
X53739900Y21100900D02*
X50908100Y21100900D01*
X59055000Y26416000D02*
X53739900Y21100900D01*
X59055000Y27305000D02*
X59055000Y26416000D01*
X20955000Y38735000D02*
X19685000Y37465000D01*
X45309300Y38735000D02*
X20955000Y38735000D01*
X54610000Y29434300D02*
X45309300Y38735000D01*
X54610000Y27305000D02*
X54610000Y29434300D01*
%TO.N,/D1*%
X59182000Y23749000D02*
X60579000Y23749000D01*
X60579000Y23749000D02*
X61595000Y24765000D01*
X54610000Y19177000D02*
X59182000Y23749000D01*
X52197000Y19177000D02*
X54610000Y19177000D01*
X49530000Y16510000D02*
X52197000Y19177000D01*
X49530000Y2702300D02*
X49530000Y16510000D01*
X48748400Y1920700D02*
X49530000Y2702300D01*
X46974300Y1920700D02*
X48748400Y1920700D01*
X45720000Y3175000D02*
X46974300Y1920700D01*
X59817000Y38735000D02*
X58547000Y40005000D01*
X62103000Y38735000D02*
X59817000Y38735000D01*
X62865000Y37973000D02*
X62103000Y38735000D01*
X62865000Y36195000D02*
X62865000Y37973000D01*
X65405000Y26543000D02*
X65405000Y33655000D01*
X65405000Y33655000D02*
X62865000Y36195000D01*
X64897000Y26035000D02*
X65405000Y26543000D01*
X62865000Y26035000D02*
X64897000Y26035000D01*
X61595000Y24765000D02*
X62865000Y26035000D01*
%TO.N,/D2*%
X48260000Y5715000D02*
X48260000Y16510000D01*
X43790100Y37465000D02*
X22225000Y37465000D01*
X53340000Y27915100D02*
X43790100Y37465000D01*
X53340000Y27305000D02*
X53340000Y27915100D01*
X54165500Y19875500D02*
X61595000Y27305000D01*
X51625500Y19875500D02*
X54165500Y19875500D01*
X48260000Y16510000D02*
X51625500Y19875500D01*
%TO.N,/D3*%
X66675000Y23368000D02*
X66675000Y24765000D01*
X65278000Y21971000D02*
X66675000Y23368000D01*
X59817000Y21971000D02*
X65278000Y21971000D01*
X56769000Y18923000D02*
X59817000Y21971000D01*
X56769000Y13970000D02*
X56769000Y18923000D01*
X58420000Y12319000D02*
X56769000Y13970000D01*
X64516000Y12319000D02*
X58420000Y12319000D01*
X65405000Y11430000D02*
X64516000Y12319000D01*
X65405000Y3810000D02*
X65405000Y11430000D01*
X62929600Y1334600D02*
X65405000Y3810000D01*
X42480400Y1334600D02*
X62929600Y1334600D01*
X40640000Y3175000D02*
X42480400Y1334600D01*
X27559000Y29591000D02*
X22225000Y34925000D01*
X27559000Y24003000D02*
X27559000Y29591000D01*
X31877000Y19685000D02*
X27559000Y24003000D01*
X36195000Y19685000D02*
X31877000Y19685000D01*
X39370000Y16510000D02*
X36195000Y19685000D01*
X39370000Y8255000D02*
X39370000Y16510000D01*
X38989000Y7874000D02*
X39370000Y8255000D01*
%TO.N,/D4*%
X39360700Y4435700D02*
X38100000Y3175000D01*
X40005000Y7366000D02*
X39360700Y6721700D01*
X41021000Y7366000D02*
X40005000Y7366000D01*
X41973500Y8318500D02*
X41021000Y7366000D01*
X39360700Y6721700D02*
X39360700Y4435700D01*
X52439500Y23991500D02*
X52439500Y25261500D01*
X41973500Y15049500D02*
X41973500Y8318500D01*
X51435000Y22987000D02*
X49911000Y22987000D01*
X49911000Y22987000D02*
X41973500Y15049500D01*
X51435000Y22987000D02*
X52439500Y23991500D01*
X41973500Y16319500D02*
X41973500Y15049500D01*
X37338000Y20955000D02*
X41973500Y16319500D01*
X32639000Y20955000D02*
X37338000Y20955000D01*
X30088600Y23505400D02*
X32639000Y20955000D01*
X30088600Y31993600D02*
X30088600Y23505400D01*
X25887200Y36195000D02*
X30088600Y31993600D01*
X21709350Y36195000D02*
X25887200Y36195000D01*
X20955000Y35440650D02*
X21709350Y36195000D01*
X20955000Y33655000D02*
X20955000Y35440650D01*
X19685000Y32385000D02*
X20955000Y33655000D01*
%TO.N,/D5*%
X35109600Y6165400D02*
X35560000Y5715000D01*
X30226000Y16637000D02*
X24665650Y22197350D01*
X20955000Y28575000D02*
X19685000Y29845000D01*
X24665650Y22197350D02*
X24665650Y26443650D01*
X24665650Y26443650D02*
X22534300Y28575000D01*
X22534300Y28575000D02*
X20955000Y28575000D01*
X30226000Y16625200D02*
X35109600Y11741600D01*
X30226000Y16637000D02*
X30226000Y16625200D01*
X35109600Y11741600D02*
X35109600Y6165400D01*
%TO.N,/D6*%
X22365800Y29845000D02*
X22225000Y29845000D01*
X25279900Y26930900D02*
X22365800Y29845000D01*
X29965100Y17913900D02*
X25279900Y22599100D01*
X25279900Y22599100D02*
X25279900Y26930900D01*
X34296900Y17913900D02*
X29965100Y17913900D01*
X35990800Y16220000D02*
X34296900Y17913900D01*
X35990800Y9525000D02*
X35990800Y16220000D01*
%TO.N,/D7*%
X28448000Y16891000D02*
X34290000Y11049000D01*
X34290000Y11049000D02*
X34290000Y4445000D01*
X34290000Y4445000D02*
X33020000Y3175000D01*
X28448000Y16891000D02*
X23876000Y21463000D01*
X23876000Y21463000D02*
X23876000Y25654000D01*
X23876000Y25654000D02*
X22225000Y27305000D01*
%TO.N,/A0*%
X57658000Y29845000D02*
X59055000Y29845000D01*
X57023000Y29210000D02*
X57658000Y29845000D01*
X53149500Y21653500D02*
X57023000Y25527000D01*
X57023000Y25527000D02*
X57023000Y29210000D01*
X43180000Y5715000D02*
X43935900Y6470900D01*
X50609500Y21653500D02*
X43935900Y14979900D01*
X53149500Y21653500D02*
X50609500Y21653500D01*
X43935900Y6470900D02*
X43935900Y14979900D01*
%TO.N,/A1*%
X60325000Y33655000D02*
X61595000Y32385000D01*
X5397500Y39052500D02*
X6985000Y37465000D01*
X5397500Y41465500D02*
X5397500Y39052500D01*
X6985000Y43053000D02*
X5397500Y41465500D01*
X22098000Y43053000D02*
X6985000Y43053000D01*
X24257000Y40894000D02*
X22098000Y43053000D01*
X50800000Y40894000D02*
X24257000Y40894000D01*
X55499000Y36195000D02*
X50800000Y40894000D01*
X59944000Y36195000D02*
X55499000Y36195000D01*
X60325000Y35814000D02*
X59944000Y36195000D01*
X60325000Y33655000D02*
X60325000Y35814000D01*
X56134000Y32512000D02*
X57277000Y33655000D01*
X56134000Y25781000D02*
X56134000Y32512000D01*
X52641500Y22288500D02*
X56134000Y25781000D01*
X57277000Y33655000D02*
X60325000Y33655000D01*
X40640000Y5715000D02*
X43180000Y8255000D01*
X50101500Y22288500D02*
X43180000Y15367000D01*
X52641500Y22288500D02*
X50101500Y22288500D01*
X43180000Y8255000D02*
X43180000Y15367000D01*
%TO.N,/A2*%
X26994000Y28251000D02*
X26035000Y29210000D01*
X26994000Y23298000D02*
X26994000Y28251000D01*
X31242000Y19050000D02*
X26994000Y23298000D01*
X35560000Y19050000D02*
X31242000Y19050000D01*
X38005800Y16604200D02*
X35560000Y19050000D01*
X38005800Y5809200D02*
X38005800Y16604200D01*
X38100000Y5715000D02*
X38005800Y5809200D01*
%TO.N,/A3*%
X45720000Y14986000D02*
X45720000Y5715000D01*
X51244500Y20510500D02*
X45720000Y14986000D01*
X54022100Y20510500D02*
X51244500Y20510500D01*
X60325000Y26813400D02*
X54022100Y20510500D01*
X60325000Y28194000D02*
X60325000Y26813400D01*
X60706000Y28575000D02*
X60325000Y28194000D01*
X62865000Y28575000D02*
X60706000Y28575000D01*
X64135000Y29845000D02*
X62865000Y28575000D01*
X64135000Y33909000D02*
X64135000Y29845000D01*
X63119000Y34925000D02*
X64135000Y33909000D01*
X61595000Y34925000D02*
X63119000Y34925000D01*
%TO.N,/A4*%
X9525000Y40005000D02*
X9525000Y41402000D01*
X9525000Y41402000D02*
X10287000Y42164000D01*
X10287000Y42164000D02*
X18415000Y42164000D01*
X23749000Y40005000D02*
X21590000Y42164000D01*
X18415000Y42164000D02*
X21590000Y42164000D01*
X30791150Y18484850D02*
X26041350Y23234650D01*
X35121850Y18484850D02*
X30791150Y18484850D01*
X36872000Y16734700D02*
X35121850Y18484850D01*
X36872000Y4487000D02*
X36872000Y16734700D01*
X26041350Y23234650D02*
X26041350Y27565350D01*
X35560000Y3175000D02*
X36872000Y4487000D01*
X24009350Y31743650D02*
X24009350Y29597350D01*
X24003000Y31750000D02*
X24009350Y31743650D01*
X26041350Y27565350D02*
X24009350Y29597350D01*
X54483000Y34925000D02*
X57785000Y34925000D01*
X52324000Y37084000D02*
X54483000Y34925000D01*
X59055000Y34925000D02*
X57785000Y34925000D01*
X49403000Y40005000D02*
X49276000Y40005000D01*
X52324000Y37084000D02*
X49403000Y40005000D01*
X49276000Y40005000D02*
X23749000Y40005000D01*
%TO.N,/A5*%
X15875000Y38735000D02*
X14605000Y40005000D01*
X15875000Y28575000D02*
X15875000Y38735000D01*
X18415000Y26035000D02*
X15875000Y28575000D01*
X18415000Y20955000D02*
X18415000Y26035000D01*
X22860000Y16510000D02*
X27305000Y16510000D01*
X22860000Y16510000D02*
X18415000Y20955000D01*
X33020000Y10795000D02*
X33020000Y5715000D01*
X27305000Y16510000D02*
X33020000Y10795000D01*
%TO.N,/A6*%
X40259000Y8890000D02*
X40386000Y8763000D01*
X40259000Y16764000D02*
X40259000Y8890000D01*
X36703000Y20320000D02*
X40259000Y16764000D01*
X32046010Y20320000D02*
X36703000Y20320000D01*
X28321000Y24045010D02*
X32046010Y20320000D01*
X28321000Y29972000D02*
X28321000Y24045010D01*
X27178000Y31115000D02*
X28321000Y29972000D01*
X27178000Y32131000D02*
X27178000Y31115000D01*
X24511000Y34798000D02*
X27178000Y32131000D01*
X24003000Y34798000D02*
X24511000Y34798000D01*
%TO.N,/A7*%
X14605000Y27559000D02*
X14605000Y37465000D01*
X15875000Y26289000D02*
X14605000Y27559000D01*
X15875000Y20955000D02*
X15875000Y26289000D01*
X16510000Y20320000D02*
X15875000Y20955000D01*
X17780000Y20320000D02*
X16510000Y20320000D01*
X22225000Y15875000D02*
X26035000Y15875000D01*
X22225000Y15875000D02*
X17780000Y20320000D01*
X27940000Y13970000D02*
X27940000Y5715000D01*
X26035000Y15875000D02*
X27940000Y13970000D01*
%TO.N,/A8*%
X25400000Y5715000D02*
X25400000Y13589000D01*
X59055000Y18669000D02*
X59055000Y14605000D01*
X60452000Y20066000D02*
X59055000Y18669000D01*
X68961000Y20066000D02*
X60452000Y20066000D01*
X73279000Y24384000D02*
X68961000Y20066000D01*
X73279000Y35941000D02*
X73279000Y24384000D01*
X71755000Y37465000D02*
X73279000Y35941000D01*
%TO.N,/A9*%
X24130000Y4445000D02*
X22860000Y5715000D01*
X25891600Y4445000D02*
X24130000Y4445000D01*
X26670000Y3666600D02*
X25891600Y4445000D01*
X69215000Y34925000D02*
X70485000Y33655000D01*
X68072000Y21336000D02*
X60325000Y21336000D01*
X26670000Y2700700D02*
X26670000Y3666600D01*
X70485000Y33655000D02*
X70485000Y23749000D01*
X58801000Y13335000D02*
X64770000Y13335000D01*
X70485000Y23749000D02*
X68072000Y21336000D01*
X63604400Y739400D02*
X28631300Y739400D01*
X60325000Y21336000D02*
X57531000Y18542000D01*
X57531000Y18542000D02*
X57531000Y14605000D01*
X64770000Y13335000D02*
X66040000Y12065000D01*
X57531000Y14605000D02*
X58801000Y13335000D01*
X66040000Y12065000D02*
X66040000Y3175000D01*
X66040000Y3175000D02*
X63604400Y739400D01*
X28631300Y739400D02*
X26670000Y2700700D01*
%TO.N,/A10*%
X20320000Y11430000D02*
X20320000Y5715000D01*
X15875000Y15875000D02*
X20320000Y11430000D01*
X67945000Y28575000D02*
X69215000Y29845000D01*
X67945000Y26670000D02*
X67945000Y28575000D01*
X66040000Y26035000D02*
X67310000Y26035000D01*
X65405000Y25400000D02*
X66040000Y26035000D01*
X65405000Y23622000D02*
X65405000Y25400000D01*
X64516000Y22733000D02*
X65405000Y23622000D01*
X59436000Y22733000D02*
X64516000Y22733000D01*
X67310000Y26035000D02*
X67945000Y26670000D01*
X55499000Y18796000D02*
X59436000Y22733000D01*
X55499000Y17653000D02*
X55499000Y18796000D01*
%TO.N,/A12*%
X22010001Y2325001D02*
X22860000Y3175000D01*
X20955000Y1270000D02*
X22010001Y2325001D01*
X8255000Y1270000D02*
X20955000Y1270000D01*
X1504800Y8020200D02*
X8255000Y1270000D01*
X61976000Y41910000D02*
X24257000Y41910000D01*
X62865000Y41021000D02*
X61976000Y41910000D01*
X62865000Y38750832D02*
X62865000Y41021000D01*
X64135000Y37480832D02*
X62865000Y38750832D01*
X64135000Y37465000D02*
X64135000Y37480832D01*
X22352000Y43815000D02*
X3683000Y43815000D01*
X3683000Y43815000D02*
X1504800Y41636800D01*
X1504800Y41636800D02*
X1504800Y8020200D01*
X24257000Y41910000D02*
X22352000Y43815000D01*
%TO.N,/A13*%
X25400000Y1905000D02*
X25400000Y3175000D01*
X24130000Y635000D02*
X25400000Y1905000D01*
X7620000Y635000D02*
X24130000Y635000D01*
X948500Y42477500D02*
X948500Y7306500D01*
X2921000Y44450000D02*
X948500Y42477500D01*
X69215000Y41275000D02*
X68580000Y41910000D01*
X948500Y7306500D02*
X7620000Y635000D01*
X69215000Y40005000D02*
X69215000Y41275000D01*
X68580000Y41910000D02*
X64008000Y41910000D01*
X64008000Y41910000D02*
X63119000Y42799000D01*
X24765000Y42799000D02*
X23114000Y44450000D01*
X63119000Y42799000D02*
X24765000Y42799000D01*
X23114000Y44450000D02*
X2921000Y44450000D01*
%TO.N,/A14*%
X26670000Y4445000D02*
X27940000Y3175000D01*
X26670000Y13970000D02*
X26670000Y4445000D01*
X26035000Y14605000D02*
X26670000Y13970000D01*
X21590000Y14605000D02*
X26035000Y14605000D01*
X19050000Y17145000D02*
X21590000Y14605000D01*
%TO.N,/A15*%
X5715000Y26035000D02*
X6985000Y27305000D01*
X5715000Y18161000D02*
X5715000Y26035000D01*
X16256000Y7620000D02*
X5715000Y18161000D01*
X18796000Y7620000D02*
X16256000Y7620000D01*
%TO.N,/~IOCTRL*%
X8255000Y23495000D02*
X9525000Y24765000D01*
X15367000Y11938000D02*
X15367000Y12065000D01*
X15367000Y12065000D02*
X8255000Y19177000D01*
X8255000Y19177000D02*
X8255000Y23495000D01*
%TO.N,Net-(J2-Pad5)*%
X42418000Y28702000D02*
X42418000Y32385000D01*
X42418000Y32385000D02*
X43053000Y33020000D01*
%TO.N,/MISO*%
X41148000Y21717000D02*
X42545000Y20320000D01*
X37338000Y23495000D02*
X39116000Y21717000D01*
X34417000Y23495000D02*
X37338000Y23495000D01*
X39116000Y21717000D02*
X41148000Y21717000D01*
%TO.N,/A15M*%
X13335000Y23495000D02*
X14605000Y22225000D01*
X13335000Y41275000D02*
X13335000Y23495000D01*
D18*
%TO.N,+3V3*%
X53340000Y15367000D02*
X53340000Y17780000D01*
X60452000Y8255000D02*
X53340000Y15367000D01*
X62865000Y8255000D02*
X60452000Y8255000D01*
X63500000Y8890000D02*
X62865000Y8255000D01*
X63500000Y10160000D02*
X63500000Y8890000D01*
D20*
%TO.N,Net-(J2-Pad1)*%
X35424999Y34154999D02*
X43679999Y34154999D01*
X34925000Y33655000D02*
X35424999Y34154999D01*
X45085000Y32749998D02*
X45085000Y26670000D01*
X43679999Y34154999D02*
X45085000Y32749998D01*
%TO.N,Net-(R4-Pad2)*%
X42672000Y24892000D02*
X41275000Y23495000D01*
X48006000Y24892000D02*
X42672000Y24892000D01*
%TO.N,Net-(R2-Pad1)*%
X33020000Y24765000D02*
X32385000Y24130000D01*
X38735000Y24765000D02*
X33020000Y24765000D01*
%TO.N,Net-(R3-Pad1)*%
X44958000Y24003000D02*
X44196000Y24003000D01*
X44196000Y24003000D02*
X43942000Y23749000D01*
X43942000Y23749000D02*
X43942000Y19939000D01*
X43942000Y19939000D02*
X43307000Y19304000D01*
X43307000Y19304000D02*
X40513000Y19304000D01*
X34036000Y21844000D02*
X33147000Y22733000D01*
X37973000Y21844000D02*
X34036000Y21844000D01*
X40513000Y19304000D02*
X37973000Y21844000D01*
%TD*%
D21*
%TO.N,GND*%
X75540000Y660000D02*
X64670512Y660000D01*
X66584618Y2574105D01*
X66615528Y2599472D01*
X66716749Y2722811D01*
X66790659Y2861087D01*
X66791963Y2863526D01*
X66838280Y3016212D01*
X66853919Y3175000D01*
X66850000Y3214791D01*
X66850000Y12025213D01*
X66853919Y12065001D01*
X66845294Y12152571D01*
X66838280Y12223788D01*
X66791963Y12376473D01*
X66737809Y12477788D01*
X66716749Y12517190D01*
X66640893Y12609620D01*
X66615528Y12640528D01*
X66584619Y12665894D01*
X65370899Y13879613D01*
X65345528Y13910528D01*
X65222189Y14011749D01*
X65081473Y14086963D01*
X64928788Y14133280D01*
X64809791Y14145000D01*
X64809788Y14145000D01*
X64770000Y14148919D01*
X64730212Y14145000D01*
X60092977Y14145000D01*
X60146383Y14273933D01*
X60190000Y14493212D01*
X60190000Y14716788D01*
X60175975Y14787298D01*
X61416903Y14787298D01*
X61488486Y14543329D01*
X61743996Y14422429D01*
X62018184Y14353700D01*
X62300512Y14339783D01*
X62580130Y14381213D01*
X62846292Y14476397D01*
X62971514Y14543329D01*
X63043097Y14787298D01*
X62230000Y15600395D01*
X61416903Y14787298D01*
X60175975Y14787298D01*
X60146383Y14936067D01*
X60060824Y15142624D01*
X59936612Y15328520D01*
X59865000Y15400132D01*
X59865000Y18333488D01*
X60787513Y19256000D01*
X68921212Y19256000D01*
X68961000Y19252081D01*
X69000788Y19256000D01*
X69000791Y19256000D01*
X69119788Y19267720D01*
X69272473Y19314037D01*
X69413189Y19389251D01*
X69536528Y19490472D01*
X69561900Y19521388D01*
X73260001Y23219488D01*
X73260001Y23161712D01*
X68913290Y18815000D01*
X63622287Y18815000D01*
X63619502Y18824180D01*
X63560537Y18934494D01*
X63481185Y19031185D01*
X63384494Y19110537D01*
X63274180Y19169502D01*
X63154482Y19205812D01*
X63030000Y19218072D01*
X61430000Y19218072D01*
X61305518Y19205812D01*
X61185820Y19169502D01*
X61075506Y19110537D01*
X60978815Y19031185D01*
X60899463Y18934494D01*
X60840498Y18824180D01*
X60804188Y18704482D01*
X60791928Y18580000D01*
X60791928Y16980000D01*
X60804188Y16855518D01*
X60840498Y16735820D01*
X60899463Y16625506D01*
X60978815Y16528815D01*
X60991758Y16518193D01*
X60872429Y16266004D01*
X60803700Y15991816D01*
X60789783Y15709488D01*
X60831213Y15429870D01*
X60926397Y15163708D01*
X60993329Y15038486D01*
X61237298Y14966903D01*
X62050395Y15780000D01*
X62036253Y15794142D01*
X62215858Y15973747D01*
X62230000Y15959605D01*
X62244143Y15973747D01*
X62423748Y15794142D01*
X62409605Y15780000D01*
X63222702Y14966903D01*
X63466671Y15038486D01*
X63587571Y15293996D01*
X63656300Y15568184D01*
X63670217Y15850512D01*
X63628787Y16130130D01*
X63533603Y16396292D01*
X63468384Y16518309D01*
X63481185Y16528815D01*
X63560537Y16625506D01*
X63619502Y16735820D01*
X63622287Y16745000D01*
X69291172Y16745000D01*
X69342000Y16739994D01*
X69392828Y16745000D01*
X69392838Y16745000D01*
X69544895Y16759976D01*
X69739993Y16819159D01*
X69919797Y16915266D01*
X70077396Y17044604D01*
X70109807Y17084097D01*
X74990908Y21965197D01*
X75030396Y21997604D01*
X75124638Y22112438D01*
X75159734Y22155202D01*
X75230982Y22288499D01*
X75255841Y22335007D01*
X75315024Y22530105D01*
X75330000Y22682162D01*
X75330000Y22682165D01*
X75335007Y22733000D01*
X75330000Y22783835D01*
X75330000Y40462173D01*
X75335006Y40513001D01*
X75330000Y40563829D01*
X75330000Y40563838D01*
X75315024Y40715895D01*
X75255841Y40910993D01*
X75180051Y41052787D01*
X75159734Y41090798D01*
X75062803Y41208908D01*
X75030396Y41248396D01*
X74990908Y41280803D01*
X71760807Y44510903D01*
X71728396Y44550396D01*
X71570797Y44679734D01*
X71390993Y44775841D01*
X71195895Y44835024D01*
X71043838Y44850000D01*
X71043828Y44850000D01*
X70993000Y44855006D01*
X70942172Y44850000D01*
X67810817Y44850000D01*
X67653505Y45007312D01*
X67402095Y45175299D01*
X67122743Y45291011D01*
X66826184Y45350000D01*
X66523816Y45350000D01*
X66227257Y45291011D01*
X65947905Y45175299D01*
X65696495Y45007312D01*
X65539183Y44850000D01*
X26336711Y44850000D01*
X24516807Y46669903D01*
X24484396Y46709396D01*
X24326797Y46838734D01*
X24146993Y46934841D01*
X23951895Y46994024D01*
X23799838Y47009000D01*
X23799828Y47009000D01*
X23749000Y47014006D01*
X23698172Y47009000D01*
X4437817Y47009000D01*
X4280505Y47166312D01*
X4029095Y47334299D01*
X3749743Y47450011D01*
X3453184Y47509000D01*
X3150816Y47509000D01*
X2854257Y47450011D01*
X2574905Y47334299D01*
X2323495Y47166312D01*
X2109688Y46952505D01*
X1941701Y46701095D01*
X1825989Y46421743D01*
X1767000Y46125184D01*
X1767000Y45822816D01*
X1825989Y45526257D01*
X1941701Y45246905D01*
X2109688Y44995495D01*
X2215335Y44889848D01*
X660000Y43334512D01*
X660000Y48870000D01*
X75540001Y48870000D01*
X75540000Y660000D01*
%TA.AperFunction,Conductor*%
D22*
G36*
X75540000Y660000D02*
G01*
X64670512Y660000D01*
X66584618Y2574105D01*
X66615528Y2599472D01*
X66716749Y2722811D01*
X66790659Y2861087D01*
X66791963Y2863526D01*
X66838280Y3016212D01*
X66853919Y3175000D01*
X66850000Y3214791D01*
X66850000Y12025213D01*
X66853919Y12065001D01*
X66845294Y12152571D01*
X66838280Y12223788D01*
X66791963Y12376473D01*
X66737809Y12477788D01*
X66716749Y12517190D01*
X66640893Y12609620D01*
X66615528Y12640528D01*
X66584619Y12665894D01*
X65370899Y13879613D01*
X65345528Y13910528D01*
X65222189Y14011749D01*
X65081473Y14086963D01*
X64928788Y14133280D01*
X64809791Y14145000D01*
X64809788Y14145000D01*
X64770000Y14148919D01*
X64730212Y14145000D01*
X60092977Y14145000D01*
X60146383Y14273933D01*
X60190000Y14493212D01*
X60190000Y14716788D01*
X60175975Y14787298D01*
X61416903Y14787298D01*
X61488486Y14543329D01*
X61743996Y14422429D01*
X62018184Y14353700D01*
X62300512Y14339783D01*
X62580130Y14381213D01*
X62846292Y14476397D01*
X62971514Y14543329D01*
X63043097Y14787298D01*
X62230000Y15600395D01*
X61416903Y14787298D01*
X60175975Y14787298D01*
X60146383Y14936067D01*
X60060824Y15142624D01*
X59936612Y15328520D01*
X59865000Y15400132D01*
X59865000Y18333488D01*
X60787513Y19256000D01*
X68921212Y19256000D01*
X68961000Y19252081D01*
X69000788Y19256000D01*
X69000791Y19256000D01*
X69119788Y19267720D01*
X69272473Y19314037D01*
X69413189Y19389251D01*
X69536528Y19490472D01*
X69561900Y19521388D01*
X73260001Y23219488D01*
X73260001Y23161712D01*
X68913290Y18815000D01*
X63622287Y18815000D01*
X63619502Y18824180D01*
X63560537Y18934494D01*
X63481185Y19031185D01*
X63384494Y19110537D01*
X63274180Y19169502D01*
X63154482Y19205812D01*
X63030000Y19218072D01*
X61430000Y19218072D01*
X61305518Y19205812D01*
X61185820Y19169502D01*
X61075506Y19110537D01*
X60978815Y19031185D01*
X60899463Y18934494D01*
X60840498Y18824180D01*
X60804188Y18704482D01*
X60791928Y18580000D01*
X60791928Y16980000D01*
X60804188Y16855518D01*
X60840498Y16735820D01*
X60899463Y16625506D01*
X60978815Y16528815D01*
X60991758Y16518193D01*
X60872429Y16266004D01*
X60803700Y15991816D01*
X60789783Y15709488D01*
X60831213Y15429870D01*
X60926397Y15163708D01*
X60993329Y15038486D01*
X61237298Y14966903D01*
X62050395Y15780000D01*
X62036253Y15794142D01*
X62215858Y15973747D01*
X62230000Y15959605D01*
X62244143Y15973747D01*
X62423748Y15794142D01*
X62409605Y15780000D01*
X63222702Y14966903D01*
X63466671Y15038486D01*
X63587571Y15293996D01*
X63656300Y15568184D01*
X63670217Y15850512D01*
X63628787Y16130130D01*
X63533603Y16396292D01*
X63468384Y16518309D01*
X63481185Y16528815D01*
X63560537Y16625506D01*
X63619502Y16735820D01*
X63622287Y16745000D01*
X69291172Y16745000D01*
X69342000Y16739994D01*
X69392828Y16745000D01*
X69392838Y16745000D01*
X69544895Y16759976D01*
X69739993Y16819159D01*
X69919797Y16915266D01*
X70077396Y17044604D01*
X70109807Y17084097D01*
X74990908Y21965197D01*
X75030396Y21997604D01*
X75124638Y22112438D01*
X75159734Y22155202D01*
X75230982Y22288499D01*
X75255841Y22335007D01*
X75315024Y22530105D01*
X75330000Y22682162D01*
X75330000Y22682165D01*
X75335007Y22733000D01*
X75330000Y22783835D01*
X75330000Y40462173D01*
X75335006Y40513001D01*
X75330000Y40563829D01*
X75330000Y40563838D01*
X75315024Y40715895D01*
X75255841Y40910993D01*
X75180051Y41052787D01*
X75159734Y41090798D01*
X75062803Y41208908D01*
X75030396Y41248396D01*
X74990908Y41280803D01*
X71760807Y44510903D01*
X71728396Y44550396D01*
X71570797Y44679734D01*
X71390993Y44775841D01*
X71195895Y44835024D01*
X71043838Y44850000D01*
X71043828Y44850000D01*
X70993000Y44855006D01*
X70942172Y44850000D01*
X67810817Y44850000D01*
X67653505Y45007312D01*
X67402095Y45175299D01*
X67122743Y45291011D01*
X66826184Y45350000D01*
X66523816Y45350000D01*
X66227257Y45291011D01*
X65947905Y45175299D01*
X65696495Y45007312D01*
X65539183Y44850000D01*
X26336711Y44850000D01*
X24516807Y46669903D01*
X24484396Y46709396D01*
X24326797Y46838734D01*
X24146993Y46934841D01*
X23951895Y46994024D01*
X23799838Y47009000D01*
X23799828Y47009000D01*
X23749000Y47014006D01*
X23698172Y47009000D01*
X4437817Y47009000D01*
X4280505Y47166312D01*
X4029095Y47334299D01*
X3749743Y47450011D01*
X3453184Y47509000D01*
X3150816Y47509000D01*
X2854257Y47450011D01*
X2574905Y47334299D01*
X2323495Y47166312D01*
X2109688Y46952505D01*
X1941701Y46701095D01*
X1825989Y46421743D01*
X1767000Y46125184D01*
X1767000Y45822816D01*
X1825989Y45526257D01*
X1941701Y45246905D01*
X2109688Y44995495D01*
X2215335Y44889848D01*
X660000Y43334512D01*
X660000Y48870000D01*
X75540001Y48870000D01*
X75540000Y660000D01*
G37*
%TD.AperFunction*%
D21*
X3410001Y21105928D02*
X3410000Y16789396D01*
X3330363Y16709759D01*
X3173320Y16474727D01*
X3065147Y16213574D01*
X3010000Y15936335D01*
X3010000Y15653665D01*
X3065147Y15376426D01*
X3173320Y15115273D01*
X3330363Y14880241D01*
X3530241Y14680363D01*
X3765273Y14523320D01*
X4026426Y14415147D01*
X4303665Y14360000D01*
X4586335Y14360000D01*
X4863574Y14415147D01*
X5124727Y14523320D01*
X5359759Y14680363D01*
X5402843Y14723447D01*
X15107197Y5019092D01*
X15139604Y4979604D01*
X15179092Y4947197D01*
X15297202Y4850266D01*
X15393309Y4798896D01*
X15477007Y4754159D01*
X15672105Y4694976D01*
X15824162Y4680000D01*
X15824165Y4680000D01*
X15875000Y4674993D01*
X15925835Y4680000D01*
X16714893Y4680000D01*
X16833368Y4561525D01*
X17006729Y4445689D01*
X16931208Y4203397D01*
X17780000Y3354605D01*
X18628792Y4203397D01*
X18553271Y4445689D01*
X18726632Y4561525D01*
X18933475Y4768368D01*
X19050000Y4942760D01*
X19166525Y4768368D01*
X19373368Y4561525D01*
X19547760Y4445000D01*
X19373368Y4328475D01*
X19166525Y4121632D01*
X19050689Y3948271D01*
X18808397Y4023792D01*
X17959605Y3175000D01*
X18808397Y2326208D01*
X19050689Y2401729D01*
X19166525Y2228368D01*
X19314893Y2080000D01*
X18608032Y2080000D01*
X18628792Y2146603D01*
X17780000Y2995395D01*
X16931208Y2146603D01*
X16951968Y2080000D01*
X8590513Y2080000D01*
X7564044Y3106469D01*
X16289389Y3106469D01*
X16331401Y2816981D01*
X16429081Y2541253D01*
X16502528Y2403843D01*
X16751603Y2326208D01*
X17600395Y3175000D01*
X16751603Y4023792D01*
X16502528Y3946157D01*
X16376629Y3682117D01*
X16304661Y3398589D01*
X16289389Y3106469D01*
X7564044Y3106469D01*
X2314800Y8355712D01*
X2314800Y9802298D01*
X3631903Y9802298D01*
X3703486Y9558329D01*
X3958996Y9437429D01*
X4233184Y9368700D01*
X4515512Y9354783D01*
X4795130Y9396213D01*
X5061292Y9491397D01*
X5186514Y9558329D01*
X5258097Y9802298D01*
X4445000Y10615395D01*
X3631903Y9802298D01*
X2314800Y9802298D01*
X2314800Y10724488D01*
X3004783Y10724488D01*
X3046213Y10444870D01*
X3141397Y10178708D01*
X3208329Y10053486D01*
X3452298Y9981903D01*
X4265395Y10795000D01*
X4624605Y10795000D01*
X5437702Y9981903D01*
X5681671Y10053486D01*
X5802571Y10308996D01*
X5871300Y10583184D01*
X5885217Y10865512D01*
X5843787Y11145130D01*
X5748603Y11411292D01*
X5681671Y11536514D01*
X5437702Y11608097D01*
X4624605Y10795000D01*
X4265395Y10795000D01*
X3452298Y11608097D01*
X3208329Y11536514D01*
X3087429Y11281004D01*
X3018700Y11006816D01*
X3004783Y10724488D01*
X2314800Y10724488D01*
X2314800Y11787702D01*
X3631903Y11787702D01*
X4445000Y10974605D01*
X5258097Y11787702D01*
X5186514Y12031671D01*
X4931004Y12152571D01*
X4656816Y12221300D01*
X4374488Y12235217D01*
X4094870Y12193787D01*
X3828708Y12098603D01*
X3703486Y12031671D01*
X3631903Y11787702D01*
X2314800Y11787702D01*
X2314800Y22201130D01*
X3410001Y21105928D01*
%TA.AperFunction,Conductor*%
D22*
G36*
X3410001Y21105928D02*
G01*
X3410000Y16789396D01*
X3330363Y16709759D01*
X3173320Y16474727D01*
X3065147Y16213574D01*
X3010000Y15936335D01*
X3010000Y15653665D01*
X3065147Y15376426D01*
X3173320Y15115273D01*
X3330363Y14880241D01*
X3530241Y14680363D01*
X3765273Y14523320D01*
X4026426Y14415147D01*
X4303665Y14360000D01*
X4586335Y14360000D01*
X4863574Y14415147D01*
X5124727Y14523320D01*
X5359759Y14680363D01*
X5402843Y14723447D01*
X15107197Y5019092D01*
X15139604Y4979604D01*
X15179092Y4947197D01*
X15297202Y4850266D01*
X15393309Y4798896D01*
X15477007Y4754159D01*
X15672105Y4694976D01*
X15824162Y4680000D01*
X15824165Y4680000D01*
X15875000Y4674993D01*
X15925835Y4680000D01*
X16714893Y4680000D01*
X16833368Y4561525D01*
X17006729Y4445689D01*
X16931208Y4203397D01*
X17780000Y3354605D01*
X18628792Y4203397D01*
X18553271Y4445689D01*
X18726632Y4561525D01*
X18933475Y4768368D01*
X19050000Y4942760D01*
X19166525Y4768368D01*
X19373368Y4561525D01*
X19547760Y4445000D01*
X19373368Y4328475D01*
X19166525Y4121632D01*
X19050689Y3948271D01*
X18808397Y4023792D01*
X17959605Y3175000D01*
X18808397Y2326208D01*
X19050689Y2401729D01*
X19166525Y2228368D01*
X19314893Y2080000D01*
X18608032Y2080000D01*
X18628792Y2146603D01*
X17780000Y2995395D01*
X16931208Y2146603D01*
X16951968Y2080000D01*
X8590513Y2080000D01*
X7564044Y3106469D01*
X16289389Y3106469D01*
X16331401Y2816981D01*
X16429081Y2541253D01*
X16502528Y2403843D01*
X16751603Y2326208D01*
X17600395Y3175000D01*
X16751603Y4023792D01*
X16502528Y3946157D01*
X16376629Y3682117D01*
X16304661Y3398589D01*
X16289389Y3106469D01*
X7564044Y3106469D01*
X2314800Y8355712D01*
X2314800Y9802298D01*
X3631903Y9802298D01*
X3703486Y9558329D01*
X3958996Y9437429D01*
X4233184Y9368700D01*
X4515512Y9354783D01*
X4795130Y9396213D01*
X5061292Y9491397D01*
X5186514Y9558329D01*
X5258097Y9802298D01*
X4445000Y10615395D01*
X3631903Y9802298D01*
X2314800Y9802298D01*
X2314800Y10724488D01*
X3004783Y10724488D01*
X3046213Y10444870D01*
X3141397Y10178708D01*
X3208329Y10053486D01*
X3452298Y9981903D01*
X4265395Y10795000D01*
X4624605Y10795000D01*
X5437702Y9981903D01*
X5681671Y10053486D01*
X5802571Y10308996D01*
X5871300Y10583184D01*
X5885217Y10865512D01*
X5843787Y11145130D01*
X5748603Y11411292D01*
X5681671Y11536514D01*
X5437702Y11608097D01*
X4624605Y10795000D01*
X4265395Y10795000D01*
X3452298Y11608097D01*
X3208329Y11536514D01*
X3087429Y11281004D01*
X3018700Y11006816D01*
X3004783Y10724488D01*
X2314800Y10724488D01*
X2314800Y11787702D01*
X3631903Y11787702D01*
X4445000Y10974605D01*
X5258097Y11787702D01*
X5186514Y12031671D01*
X4931004Y12152571D01*
X4656816Y12221300D01*
X4374488Y12235217D01*
X4094870Y12193787D01*
X3828708Y12098603D01*
X3703486Y12031671D01*
X3631903Y11787702D01*
X2314800Y11787702D01*
X2314800Y22201130D01*
X3410001Y21105928D01*
G37*
%TD.AperFunction*%
D21*
X51805000Y17628816D02*
X51863989Y17332257D01*
X51979701Y17052905D01*
X52147688Y16801495D01*
X52305001Y16644182D01*
X52305000Y15417828D01*
X52299994Y15367000D01*
X52305000Y15316172D01*
X52305000Y15316163D01*
X52319976Y15164106D01*
X52379159Y14969008D01*
X52475266Y14789203D01*
X52604604Y14631604D01*
X52644097Y14599193D01*
X59684197Y7559092D01*
X59716604Y7519604D01*
X59756092Y7487197D01*
X59874202Y7390266D01*
X59961788Y7343451D01*
X60054007Y7294159D01*
X60249105Y7234976D01*
X60401162Y7220000D01*
X60401165Y7220000D01*
X60452000Y7214993D01*
X60502835Y7220000D01*
X62814172Y7220000D01*
X62865000Y7214994D01*
X62915828Y7220000D01*
X62915838Y7220000D01*
X63067895Y7234976D01*
X63262993Y7294159D01*
X63442797Y7390266D01*
X63600396Y7519604D01*
X63632807Y7559097D01*
X64195903Y8122193D01*
X64235396Y8154604D01*
X64317789Y8255000D01*
X64364734Y8312202D01*
X64460841Y8492006D01*
X64492848Y8597520D01*
X64520024Y8687105D01*
X64527746Y8765513D01*
X64544180Y8770498D01*
X64595001Y8797663D01*
X64595000Y4145513D01*
X62594088Y2144600D01*
X59499000Y2144600D01*
X59564504Y2210104D01*
X59448399Y2326209D01*
X59697472Y2403843D01*
X59823371Y2667883D01*
X59895339Y2951411D01*
X59910611Y3243531D01*
X59868599Y3533019D01*
X59770919Y3808747D01*
X59697472Y3946157D01*
X59448397Y4023792D01*
X58599605Y3175000D01*
X58613748Y3160857D01*
X58434143Y2981252D01*
X58420000Y2995395D01*
X58405858Y2981252D01*
X58226253Y3160857D01*
X58240395Y3175000D01*
X57391603Y4023792D01*
X57149311Y3948271D01*
X57033475Y4121632D01*
X56826632Y4328475D01*
X56652240Y4445000D01*
X56826632Y4561525D01*
X57013715Y4748608D01*
X57081595Y4621614D01*
X57192038Y4487038D01*
X57326614Y4376595D01*
X57480150Y4294528D01*
X57589293Y4261420D01*
X57571208Y4203397D01*
X58420000Y3354605D01*
X59268792Y4203397D01*
X59250707Y4261420D01*
X59359850Y4294528D01*
X59513386Y4376595D01*
X59647962Y4487038D01*
X59758405Y4621614D01*
X59840472Y4775150D01*
X59891008Y4941746D01*
X59908072Y5115000D01*
X59908072Y6315000D01*
X59891008Y6488254D01*
X59840472Y6654850D01*
X59758405Y6808386D01*
X59647962Y6942962D01*
X59513386Y7053405D01*
X59359850Y7135472D01*
X59193254Y7186008D01*
X59020000Y7203072D01*
X57820000Y7203072D01*
X57646746Y7186008D01*
X57480150Y7135472D01*
X57326614Y7053405D01*
X57192038Y6942962D01*
X57081595Y6808386D01*
X57013715Y6681392D01*
X56826632Y6868475D01*
X56583411Y7030990D01*
X56313158Y7142932D01*
X56026260Y7200000D01*
X55733740Y7200000D01*
X55446842Y7142932D01*
X55176589Y7030990D01*
X54933368Y6868475D01*
X54726525Y6661632D01*
X54610000Y6487240D01*
X54493475Y6661632D01*
X54286632Y6868475D01*
X54043411Y7030990D01*
X53773158Y7142932D01*
X53486260Y7200000D01*
X53193740Y7200000D01*
X52906842Y7142932D01*
X52636589Y7030990D01*
X52393368Y6868475D01*
X52186525Y6661632D01*
X52070000Y6487240D01*
X51953475Y6661632D01*
X51746632Y6868475D01*
X51503411Y7030990D01*
X51233158Y7142932D01*
X50946260Y7200000D01*
X50653740Y7200000D01*
X50366842Y7142932D01*
X50340000Y7131814D01*
X50340000Y16174488D01*
X51805000Y17639487D01*
X51805000Y17628816D01*
%TA.AperFunction,Conductor*%
D22*
G36*
X51805000Y17628816D02*
G01*
X51863989Y17332257D01*
X51979701Y17052905D01*
X52147688Y16801495D01*
X52305001Y16644182D01*
X52305000Y15417828D01*
X52299994Y15367000D01*
X52305000Y15316172D01*
X52305000Y15316163D01*
X52319976Y15164106D01*
X52379159Y14969008D01*
X52475266Y14789203D01*
X52604604Y14631604D01*
X52644097Y14599193D01*
X59684197Y7559092D01*
X59716604Y7519604D01*
X59756092Y7487197D01*
X59874202Y7390266D01*
X59961788Y7343451D01*
X60054007Y7294159D01*
X60249105Y7234976D01*
X60401162Y7220000D01*
X60401165Y7220000D01*
X60452000Y7214993D01*
X60502835Y7220000D01*
X62814172Y7220000D01*
X62865000Y7214994D01*
X62915828Y7220000D01*
X62915838Y7220000D01*
X63067895Y7234976D01*
X63262993Y7294159D01*
X63442797Y7390266D01*
X63600396Y7519604D01*
X63632807Y7559097D01*
X64195903Y8122193D01*
X64235396Y8154604D01*
X64317789Y8255000D01*
X64364734Y8312202D01*
X64460841Y8492006D01*
X64492848Y8597520D01*
X64520024Y8687105D01*
X64527746Y8765513D01*
X64544180Y8770498D01*
X64595001Y8797663D01*
X64595000Y4145513D01*
X62594088Y2144600D01*
X59499000Y2144600D01*
X59564504Y2210104D01*
X59448399Y2326209D01*
X59697472Y2403843D01*
X59823371Y2667883D01*
X59895339Y2951411D01*
X59910611Y3243531D01*
X59868599Y3533019D01*
X59770919Y3808747D01*
X59697472Y3946157D01*
X59448397Y4023792D01*
X58599605Y3175000D01*
X58613748Y3160857D01*
X58434143Y2981252D01*
X58420000Y2995395D01*
X58405858Y2981252D01*
X58226253Y3160857D01*
X58240395Y3175000D01*
X57391603Y4023792D01*
X57149311Y3948271D01*
X57033475Y4121632D01*
X56826632Y4328475D01*
X56652240Y4445000D01*
X56826632Y4561525D01*
X57013715Y4748608D01*
X57081595Y4621614D01*
X57192038Y4487038D01*
X57326614Y4376595D01*
X57480150Y4294528D01*
X57589293Y4261420D01*
X57571208Y4203397D01*
X58420000Y3354605D01*
X59268792Y4203397D01*
X59250707Y4261420D01*
X59359850Y4294528D01*
X59513386Y4376595D01*
X59647962Y4487038D01*
X59758405Y4621614D01*
X59840472Y4775150D01*
X59891008Y4941746D01*
X59908072Y5115000D01*
X59908072Y6315000D01*
X59891008Y6488254D01*
X59840472Y6654850D01*
X59758405Y6808386D01*
X59647962Y6942962D01*
X59513386Y7053405D01*
X59359850Y7135472D01*
X59193254Y7186008D01*
X59020000Y7203072D01*
X57820000Y7203072D01*
X57646746Y7186008D01*
X57480150Y7135472D01*
X57326614Y7053405D01*
X57192038Y6942962D01*
X57081595Y6808386D01*
X57013715Y6681392D01*
X56826632Y6868475D01*
X56583411Y7030990D01*
X56313158Y7142932D01*
X56026260Y7200000D01*
X55733740Y7200000D01*
X55446842Y7142932D01*
X55176589Y7030990D01*
X54933368Y6868475D01*
X54726525Y6661632D01*
X54610000Y6487240D01*
X54493475Y6661632D01*
X54286632Y6868475D01*
X54043411Y7030990D01*
X53773158Y7142932D01*
X53486260Y7200000D01*
X53193740Y7200000D01*
X52906842Y7142932D01*
X52636589Y7030990D01*
X52393368Y6868475D01*
X52186525Y6661632D01*
X52070000Y6487240D01*
X51953475Y6661632D01*
X51746632Y6868475D01*
X51503411Y7030990D01*
X51233158Y7142932D01*
X50946260Y7200000D01*
X50653740Y7200000D01*
X50366842Y7142932D01*
X50340000Y7131814D01*
X50340000Y16174488D01*
X51805000Y17639487D01*
X51805000Y17628816D01*
G37*
%TD.AperFunction*%
D21*
X10872013Y24127335D02*
X11019338Y23906847D01*
X11206847Y23719338D01*
X11427335Y23572013D01*
X11615600Y23494031D01*
X11479720Y23444542D01*
X11376152Y23389183D01*
X11315332Y23154273D01*
X12065000Y22404605D01*
X12079143Y22418747D01*
X12258748Y22239142D01*
X12244605Y22225000D01*
X12994273Y21475332D01*
X13229183Y21536152D01*
X13337206Y21767934D01*
X13412013Y21587335D01*
X13559338Y21366847D01*
X13746847Y21179338D01*
X13967335Y21032013D01*
X14212328Y20930533D01*
X14472411Y20878800D01*
X14737589Y20878800D01*
X14997672Y20930533D01*
X15061266Y20956874D01*
X15061081Y20955000D01*
X15065000Y20915212D01*
X15065000Y20915210D01*
X15076720Y20796213D01*
X15123037Y20643528D01*
X15158049Y20578025D01*
X15198251Y20502811D01*
X15219932Y20476393D01*
X15299472Y20379472D01*
X15330387Y20354101D01*
X15909105Y19775382D01*
X15934472Y19744472D01*
X16019170Y19674963D01*
X16057811Y19643251D01*
X16198526Y19568037D01*
X16211749Y19564026D01*
X16351212Y19521720D01*
X16470209Y19510000D01*
X16470212Y19510000D01*
X16510000Y19506081D01*
X16549788Y19510000D01*
X17444488Y19510000D01*
X18603542Y18350946D01*
X18441324Y18283753D01*
X18230860Y18143125D01*
X18051875Y17964140D01*
X17911247Y17753676D01*
X17814381Y17519821D01*
X17765000Y17271561D01*
X17765000Y17018439D01*
X17814381Y16770179D01*
X17911247Y16536324D01*
X18051875Y16325860D01*
X18230860Y16146875D01*
X18441324Y16006247D01*
X18675179Y15909381D01*
X18923439Y15860000D01*
X19176561Y15860000D01*
X19187343Y15862145D01*
X20989105Y14060382D01*
X21014472Y14029472D01*
X21137811Y13928251D01*
X21278527Y13853037D01*
X21431212Y13806720D01*
X21550209Y13795000D01*
X21550211Y13795000D01*
X21589999Y13791081D01*
X21629787Y13795000D01*
X24283740Y13795000D01*
X24265000Y13700788D01*
X24265000Y13477212D01*
X24308617Y13257933D01*
X24394176Y13051376D01*
X24518388Y12865480D01*
X24590001Y12793867D01*
X24590000Y6959770D01*
X24453368Y6868475D01*
X24246525Y6661632D01*
X24130000Y6487240D01*
X24013475Y6661632D01*
X23806632Y6868475D01*
X23563411Y7030990D01*
X23293158Y7142932D01*
X23006260Y7200000D01*
X22713740Y7200000D01*
X22426842Y7142932D01*
X22156589Y7030990D01*
X21913368Y6868475D01*
X21706525Y6661632D01*
X21590000Y6487240D01*
X21473475Y6661632D01*
X21266632Y6868475D01*
X21130000Y6959770D01*
X21130000Y11390213D01*
X21133919Y11430001D01*
X21128422Y11485812D01*
X21118280Y11588788D01*
X21071963Y11741473D01*
X20996750Y11882188D01*
X20996749Y11882190D01*
X20920893Y11974620D01*
X20895528Y12005528D01*
X20864619Y12030894D01*
X17010000Y15885512D01*
X17010000Y15986788D01*
X16966383Y16206067D01*
X16880824Y16412624D01*
X16756612Y16598520D01*
X16598520Y16756612D01*
X16412624Y16880824D01*
X16206067Y16966383D01*
X15986788Y17010000D01*
X15763212Y17010000D01*
X15543933Y16966383D01*
X15337376Y16880824D01*
X15151480Y16756612D01*
X14993388Y16598520D01*
X14869176Y16412624D01*
X14783617Y16206067D01*
X14740000Y15986788D01*
X14740000Y15763212D01*
X14783617Y15543933D01*
X14869176Y15337376D01*
X14993388Y15151480D01*
X15151480Y14993388D01*
X15337376Y14869176D01*
X15543933Y14783617D01*
X15763212Y14740000D01*
X15864488Y14740000D01*
X19510000Y11094487D01*
X19510001Y8507973D01*
X19333624Y8625824D01*
X19127067Y8711383D01*
X18907788Y8755000D01*
X18684212Y8755000D01*
X18464933Y8711383D01*
X18258376Y8625824D01*
X18072480Y8501612D01*
X18000868Y8430000D01*
X16591513Y8430000D01*
X6525000Y18496512D01*
X6525000Y20958421D01*
X6592328Y20930533D01*
X6852411Y20878800D01*
X7117589Y20878800D01*
X7377672Y20930533D01*
X7445000Y20958422D01*
X7445000Y19216788D01*
X7441081Y19177000D01*
X7445000Y19137212D01*
X7445000Y19137210D01*
X7456720Y19018213D01*
X7503037Y18865528D01*
X7530045Y18815000D01*
X7578251Y18724811D01*
X7609703Y18686487D01*
X7679472Y18601472D01*
X7710388Y18576100D01*
X14232780Y12053707D01*
X14232000Y12049788D01*
X14232000Y11826212D01*
X14275617Y11606933D01*
X14361176Y11400376D01*
X14485388Y11214480D01*
X14643480Y11056388D01*
X14829376Y10932176D01*
X15035933Y10846617D01*
X15255212Y10803000D01*
X15478788Y10803000D01*
X15698067Y10846617D01*
X15904624Y10932176D01*
X16090520Y11056388D01*
X16248612Y11214480D01*
X16372824Y11400376D01*
X16458383Y11606933D01*
X16502000Y11826212D01*
X16502000Y12049788D01*
X16458383Y12269067D01*
X16372824Y12475624D01*
X16248612Y12661520D01*
X16090520Y12819612D01*
X15904624Y12943824D01*
X15698067Y13029383D01*
X15510900Y13066612D01*
X9065000Y19512512D01*
X9065000Y20958421D01*
X9132328Y20930533D01*
X9392411Y20878800D01*
X9657589Y20878800D01*
X9917672Y20930533D01*
X10162665Y21032013D01*
X10383153Y21179338D01*
X10499542Y21295727D01*
X11315332Y21295727D01*
X11376152Y21060817D01*
X11616509Y20948798D01*
X11874102Y20885824D01*
X12139030Y20874313D01*
X12401113Y20914709D01*
X12650280Y21005458D01*
X12753848Y21060817D01*
X12814668Y21295727D01*
X12065000Y22045395D01*
X11315332Y21295727D01*
X10499542Y21295727D01*
X10570662Y21366847D01*
X10717987Y21587335D01*
X10795969Y21775600D01*
X10845458Y21639720D01*
X10900817Y21536152D01*
X11135727Y21475332D01*
X11885395Y22225000D01*
X11135727Y22974668D01*
X10900817Y22913848D01*
X10792794Y22682066D01*
X10717987Y22862665D01*
X10570662Y23083153D01*
X10383153Y23270662D01*
X10162665Y23417987D01*
X9976740Y23495000D01*
X10162665Y23572013D01*
X10383153Y23719338D01*
X10570662Y23906847D01*
X10717987Y24127335D01*
X10795000Y24313260D01*
X10872013Y24127335D01*
%TA.AperFunction,Conductor*%
D22*
G36*
X10872013Y24127335D02*
G01*
X11019338Y23906847D01*
X11206847Y23719338D01*
X11427335Y23572013D01*
X11615600Y23494031D01*
X11479720Y23444542D01*
X11376152Y23389183D01*
X11315332Y23154273D01*
X12065000Y22404605D01*
X12079143Y22418747D01*
X12258748Y22239142D01*
X12244605Y22225000D01*
X12994273Y21475332D01*
X13229183Y21536152D01*
X13337206Y21767934D01*
X13412013Y21587335D01*
X13559338Y21366847D01*
X13746847Y21179338D01*
X13967335Y21032013D01*
X14212328Y20930533D01*
X14472411Y20878800D01*
X14737589Y20878800D01*
X14997672Y20930533D01*
X15061266Y20956874D01*
X15061081Y20955000D01*
X15065000Y20915212D01*
X15065000Y20915210D01*
X15076720Y20796213D01*
X15123037Y20643528D01*
X15158049Y20578025D01*
X15198251Y20502811D01*
X15219932Y20476393D01*
X15299472Y20379472D01*
X15330387Y20354101D01*
X15909105Y19775382D01*
X15934472Y19744472D01*
X16019170Y19674963D01*
X16057811Y19643251D01*
X16198526Y19568037D01*
X16211749Y19564026D01*
X16351212Y19521720D01*
X16470209Y19510000D01*
X16470212Y19510000D01*
X16510000Y19506081D01*
X16549788Y19510000D01*
X17444488Y19510000D01*
X18603542Y18350946D01*
X18441324Y18283753D01*
X18230860Y18143125D01*
X18051875Y17964140D01*
X17911247Y17753676D01*
X17814381Y17519821D01*
X17765000Y17271561D01*
X17765000Y17018439D01*
X17814381Y16770179D01*
X17911247Y16536324D01*
X18051875Y16325860D01*
X18230860Y16146875D01*
X18441324Y16006247D01*
X18675179Y15909381D01*
X18923439Y15860000D01*
X19176561Y15860000D01*
X19187343Y15862145D01*
X20989105Y14060382D01*
X21014472Y14029472D01*
X21137811Y13928251D01*
X21278527Y13853037D01*
X21431212Y13806720D01*
X21550209Y13795000D01*
X21550211Y13795000D01*
X21589999Y13791081D01*
X21629787Y13795000D01*
X24283740Y13795000D01*
X24265000Y13700788D01*
X24265000Y13477212D01*
X24308617Y13257933D01*
X24394176Y13051376D01*
X24518388Y12865480D01*
X24590001Y12793867D01*
X24590000Y6959770D01*
X24453368Y6868475D01*
X24246525Y6661632D01*
X24130000Y6487240D01*
X24013475Y6661632D01*
X23806632Y6868475D01*
X23563411Y7030990D01*
X23293158Y7142932D01*
X23006260Y7200000D01*
X22713740Y7200000D01*
X22426842Y7142932D01*
X22156589Y7030990D01*
X21913368Y6868475D01*
X21706525Y6661632D01*
X21590000Y6487240D01*
X21473475Y6661632D01*
X21266632Y6868475D01*
X21130000Y6959770D01*
X21130000Y11390213D01*
X21133919Y11430001D01*
X21128422Y11485812D01*
X21118280Y11588788D01*
X21071963Y11741473D01*
X20996750Y11882188D01*
X20996749Y11882190D01*
X20920893Y11974620D01*
X20895528Y12005528D01*
X20864619Y12030894D01*
X17010000Y15885512D01*
X17010000Y15986788D01*
X16966383Y16206067D01*
X16880824Y16412624D01*
X16756612Y16598520D01*
X16598520Y16756612D01*
X16412624Y16880824D01*
X16206067Y16966383D01*
X15986788Y17010000D01*
X15763212Y17010000D01*
X15543933Y16966383D01*
X15337376Y16880824D01*
X15151480Y16756612D01*
X14993388Y16598520D01*
X14869176Y16412624D01*
X14783617Y16206067D01*
X14740000Y15986788D01*
X14740000Y15763212D01*
X14783617Y15543933D01*
X14869176Y15337376D01*
X14993388Y15151480D01*
X15151480Y14993388D01*
X15337376Y14869176D01*
X15543933Y14783617D01*
X15763212Y14740000D01*
X15864488Y14740000D01*
X19510000Y11094487D01*
X19510001Y8507973D01*
X19333624Y8625824D01*
X19127067Y8711383D01*
X18907788Y8755000D01*
X18684212Y8755000D01*
X18464933Y8711383D01*
X18258376Y8625824D01*
X18072480Y8501612D01*
X18000868Y8430000D01*
X16591513Y8430000D01*
X6525000Y18496512D01*
X6525000Y20958421D01*
X6592328Y20930533D01*
X6852411Y20878800D01*
X7117589Y20878800D01*
X7377672Y20930533D01*
X7445000Y20958422D01*
X7445000Y19216788D01*
X7441081Y19177000D01*
X7445000Y19137212D01*
X7445000Y19137210D01*
X7456720Y19018213D01*
X7503037Y18865528D01*
X7530045Y18815000D01*
X7578251Y18724811D01*
X7609703Y18686487D01*
X7679472Y18601472D01*
X7710388Y18576100D01*
X14232780Y12053707D01*
X14232000Y12049788D01*
X14232000Y11826212D01*
X14275617Y11606933D01*
X14361176Y11400376D01*
X14485388Y11214480D01*
X14643480Y11056388D01*
X14829376Y10932176D01*
X15035933Y10846617D01*
X15255212Y10803000D01*
X15478788Y10803000D01*
X15698067Y10846617D01*
X15904624Y10932176D01*
X16090520Y11056388D01*
X16248612Y11214480D01*
X16372824Y11400376D01*
X16458383Y11606933D01*
X16502000Y11826212D01*
X16502000Y12049788D01*
X16458383Y12269067D01*
X16372824Y12475624D01*
X16248612Y12661520D01*
X16090520Y12819612D01*
X15904624Y12943824D01*
X15698067Y13029383D01*
X15510900Y13066612D01*
X9065000Y19512512D01*
X9065000Y20958421D01*
X9132328Y20930533D01*
X9392411Y20878800D01*
X9657589Y20878800D01*
X9917672Y20930533D01*
X10162665Y21032013D01*
X10383153Y21179338D01*
X10499542Y21295727D01*
X11315332Y21295727D01*
X11376152Y21060817D01*
X11616509Y20948798D01*
X11874102Y20885824D01*
X12139030Y20874313D01*
X12401113Y20914709D01*
X12650280Y21005458D01*
X12753848Y21060817D01*
X12814668Y21295727D01*
X12065000Y22045395D01*
X11315332Y21295727D01*
X10499542Y21295727D01*
X10570662Y21366847D01*
X10717987Y21587335D01*
X10795969Y21775600D01*
X10845458Y21639720D01*
X10900817Y21536152D01*
X11135727Y21475332D01*
X11885395Y22225000D01*
X11135727Y22974668D01*
X10900817Y22913848D01*
X10792794Y22682066D01*
X10717987Y22862665D01*
X10570662Y23083153D01*
X10383153Y23270662D01*
X10162665Y23417987D01*
X9976740Y23495000D01*
X10162665Y23572013D01*
X10383153Y23719338D01*
X10570662Y23906847D01*
X10717987Y24127335D01*
X10795000Y24313260D01*
X10872013Y24127335D01*
G37*
%TD.AperFunction*%
D21*
X60883708Y11463603D02*
X60758486Y11396671D01*
X60686903Y11152702D01*
X61500000Y10339605D01*
X61514143Y10353747D01*
X61693748Y10174142D01*
X61679605Y10160000D01*
X61693748Y10145857D01*
X61514143Y9966252D01*
X61500000Y9980395D01*
X61485858Y9966252D01*
X61306253Y10145857D01*
X61320395Y10160000D01*
X60507298Y10973097D01*
X60263329Y10901514D01*
X60142429Y10646004D01*
X60073700Y10371816D01*
X60060790Y10109921D01*
X58661711Y11509000D01*
X61010651Y11509000D01*
X60883708Y11463603D01*
%TA.AperFunction,Conductor*%
D22*
G36*
X60883708Y11463603D02*
G01*
X60758486Y11396671D01*
X60686903Y11152702D01*
X61500000Y10339605D01*
X61514143Y10353747D01*
X61693748Y10174142D01*
X61679605Y10160000D01*
X61693748Y10145857D01*
X61514143Y9966252D01*
X61500000Y9980395D01*
X61485858Y9966252D01*
X61306253Y10145857D01*
X61320395Y10160000D01*
X60507298Y10973097D01*
X60263329Y10901514D01*
X60142429Y10646004D01*
X60073700Y10371816D01*
X60060790Y10109921D01*
X58661711Y11509000D01*
X61010651Y11509000D01*
X60883708Y11463603D01*
G37*
%TD.AperFunction*%
D21*
X52314490Y27795097D02*
X52248617Y27636067D01*
X52205000Y27416788D01*
X52205000Y27193212D01*
X52248617Y26973933D01*
X52334176Y26767376D01*
X52458388Y26581480D01*
X52616480Y26423388D01*
X52701411Y26366639D01*
X52551288Y26396500D01*
X52327712Y26396500D01*
X52108433Y26352883D01*
X51901876Y26267324D01*
X51715980Y26143112D01*
X51557888Y25985020D01*
X51433676Y25799124D01*
X51348117Y25592567D01*
X51304500Y25373288D01*
X51304500Y25149712D01*
X51348117Y24930433D01*
X51433676Y24723876D01*
X51557888Y24537980D01*
X51629500Y24466368D01*
X51629500Y24327013D01*
X51099488Y23797000D01*
X49950787Y23797000D01*
X49910999Y23800919D01*
X49871211Y23797000D01*
X49871209Y23797000D01*
X49752212Y23785280D01*
X49599527Y23738963D01*
X49589376Y23733537D01*
X49458810Y23663749D01*
X49417687Y23630000D01*
X49335472Y23562528D01*
X49310107Y23531620D01*
X42605141Y16826653D01*
X42594942Y16839081D01*
X42549028Y16895028D01*
X42518119Y16920394D01*
X40944513Y18494000D01*
X43267212Y18494000D01*
X43307000Y18490081D01*
X43346788Y18494000D01*
X43346791Y18494000D01*
X43465788Y18505720D01*
X43618473Y18552037D01*
X43759189Y18627251D01*
X43882528Y18728472D01*
X43907899Y18759387D01*
X44486618Y19338105D01*
X44517528Y19363472D01*
X44618749Y19486811D01*
X44639810Y19526213D01*
X44693963Y19627526D01*
X44711398Y19685001D01*
X44740280Y19780212D01*
X44752000Y19899209D01*
X44752000Y19899212D01*
X44755919Y19939000D01*
X44752000Y19978788D01*
X44752000Y22886740D01*
X44846212Y22868000D01*
X45069788Y22868000D01*
X45289067Y22911617D01*
X45495624Y22997176D01*
X45681520Y23121388D01*
X45839612Y23279480D01*
X45963824Y23465376D01*
X46049383Y23671933D01*
X46093000Y23891212D01*
X46093000Y24082000D01*
X47210868Y24082000D01*
X47282480Y24010388D01*
X47468376Y23886176D01*
X47674933Y23800617D01*
X47894212Y23757000D01*
X48117788Y23757000D01*
X48337067Y23800617D01*
X48543624Y23886176D01*
X48729520Y24010388D01*
X48887612Y24168480D01*
X49011824Y24354376D01*
X49097383Y24560933D01*
X49141000Y24780212D01*
X49141000Y25003788D01*
X49097383Y25223067D01*
X49011824Y25429624D01*
X48887612Y25615520D01*
X48729520Y25773612D01*
X48543624Y25897824D01*
X48337067Y25983383D01*
X48117788Y26027000D01*
X47894212Y26027000D01*
X47674933Y25983383D01*
X47468376Y25897824D01*
X47282480Y25773612D01*
X47210868Y25702000D01*
X45679231Y25702000D01*
X45808520Y25788388D01*
X45966612Y25946480D01*
X46090824Y26132376D01*
X46176383Y26338933D01*
X46220000Y26558212D01*
X46220000Y26781788D01*
X46176383Y27001067D01*
X46090824Y27207624D01*
X45966612Y27393520D01*
X45895000Y27465132D01*
X45895000Y32710211D01*
X45898919Y32749999D01*
X45893231Y32807749D01*
X45883280Y32908786D01*
X45836963Y33061471D01*
X45761749Y33202187D01*
X45660528Y33325526D01*
X45629619Y33350892D01*
X44280898Y34699612D01*
X44255527Y34730527D01*
X44132188Y34831748D01*
X43991472Y34906962D01*
X43838787Y34953279D01*
X43719790Y34964999D01*
X43719787Y34964999D01*
X43679999Y34968918D01*
X43640211Y34964999D01*
X35464786Y34964999D01*
X35424998Y34968918D01*
X35385210Y34964999D01*
X35385208Y34964999D01*
X35266211Y34953279D01*
X35113526Y34906962D01*
X35048023Y34871950D01*
X34972809Y34831748D01*
X34938092Y34803256D01*
X34921940Y34790000D01*
X34813212Y34790000D01*
X34593933Y34746383D01*
X34387376Y34660824D01*
X34201480Y34536612D01*
X34043388Y34378520D01*
X33919176Y34192624D01*
X33833617Y33986067D01*
X33790000Y33766788D01*
X33790000Y33543212D01*
X33833617Y33323933D01*
X33919176Y33117376D01*
X34043388Y32931480D01*
X34201480Y32773388D01*
X34387376Y32649176D01*
X34593933Y32563617D01*
X34813212Y32520000D01*
X35036788Y32520000D01*
X35256067Y32563617D01*
X35462624Y32649176D01*
X35648520Y32773388D01*
X35806612Y32931480D01*
X35930824Y33117376D01*
X36016383Y33323933D01*
X36020573Y33344999D01*
X41960410Y33344999D01*
X41918000Y33131788D01*
X41918000Y33030512D01*
X41873383Y32985895D01*
X41842473Y32960528D01*
X41817108Y32929620D01*
X41741251Y32837189D01*
X41694648Y32749999D01*
X41666038Y32696473D01*
X41619722Y32543789D01*
X41619721Y32543787D01*
X41604081Y32385000D01*
X41608001Y32345202D01*
X41608000Y29497132D01*
X41536388Y29425520D01*
X41412176Y29239624D01*
X41326617Y29033067D01*
X41283000Y28813788D01*
X41283000Y28590212D01*
X41326617Y28370933D01*
X41412176Y28164376D01*
X41536388Y27978480D01*
X41694480Y27820388D01*
X41880376Y27696176D01*
X42086933Y27610617D01*
X42306212Y27567000D01*
X42529788Y27567000D01*
X42749067Y27610617D01*
X42955624Y27696176D01*
X43141520Y27820388D01*
X43299612Y27978480D01*
X43423824Y28164376D01*
X43509383Y28370933D01*
X43553000Y28590212D01*
X43553000Y28813788D01*
X43509383Y29033067D01*
X43423824Y29239624D01*
X43299612Y29425520D01*
X43228000Y29497132D01*
X43228000Y31897574D01*
X43384067Y31928617D01*
X43590624Y32014176D01*
X43776520Y32138388D01*
X43934612Y32296480D01*
X44058824Y32482376D01*
X44102256Y32587229D01*
X44275000Y32414485D01*
X44275001Y27465133D01*
X44203388Y27393520D01*
X44079176Y27207624D01*
X43993617Y27001067D01*
X43950000Y26781788D01*
X43950000Y26558212D01*
X43993617Y26338933D01*
X44079176Y26132376D01*
X44203388Y25946480D01*
X44361480Y25788388D01*
X44490769Y25702000D01*
X42711787Y25702000D01*
X42671999Y25705919D01*
X42632211Y25702000D01*
X42632209Y25702000D01*
X42513212Y25690280D01*
X42360527Y25643963D01*
X42319834Y25622212D01*
X42219810Y25568749D01*
X42178687Y25535000D01*
X42096472Y25467528D01*
X42071105Y25436618D01*
X41264488Y24630000D01*
X41163212Y24630000D01*
X40943933Y24586383D01*
X40737376Y24500824D01*
X40551480Y24376612D01*
X40393388Y24218520D01*
X40269176Y24032624D01*
X40183617Y23826067D01*
X40140000Y23606788D01*
X40140000Y23383212D01*
X40183617Y23163933D01*
X40269176Y22957376D01*
X40393388Y22771480D01*
X40551480Y22613388D01*
X40680769Y22527000D01*
X39451513Y22527000D01*
X38234864Y23743648D01*
X38403933Y23673617D01*
X38623212Y23630000D01*
X38846788Y23630000D01*
X39066067Y23673617D01*
X39272624Y23759176D01*
X39458520Y23883388D01*
X39616612Y24041480D01*
X39740824Y24227376D01*
X39826383Y24433933D01*
X39870000Y24653212D01*
X39870000Y24876788D01*
X39826383Y25096067D01*
X39740824Y25302624D01*
X39616612Y25488520D01*
X39458520Y25646612D01*
X39272624Y25770824D01*
X39066067Y25856383D01*
X38846788Y25900000D01*
X38623212Y25900000D01*
X38403933Y25856383D01*
X38197376Y25770824D01*
X38011480Y25646612D01*
X37939868Y25575000D01*
X33059788Y25575000D01*
X33020000Y25578919D01*
X32980212Y25575000D01*
X32980209Y25575000D01*
X32861212Y25563280D01*
X32744063Y25527743D01*
X32708526Y25516963D01*
X32590447Y25453848D01*
X32567811Y25441749D01*
X32444472Y25340528D01*
X32419107Y25309620D01*
X32374487Y25265000D01*
X32273212Y25265000D01*
X32053933Y25221383D01*
X31847376Y25135824D01*
X31661480Y25011612D01*
X31503388Y24853520D01*
X31379176Y24667624D01*
X31293617Y24461067D01*
X31250000Y24241788D01*
X31250000Y24018212D01*
X31293617Y23798933D01*
X31379176Y23592376D01*
X31503388Y23406480D01*
X31661480Y23248388D01*
X31847376Y23124176D01*
X32050812Y23039910D01*
X32012000Y22844788D01*
X32012000Y22727513D01*
X30898600Y23840912D01*
X30898600Y31953812D01*
X30902519Y31993600D01*
X30898600Y32033391D01*
X30886880Y32152388D01*
X30840563Y32305073D01*
X30789824Y32400000D01*
X30765349Y32445790D01*
X30689493Y32538220D01*
X30664128Y32569128D01*
X30633219Y32594494D01*
X30518519Y32709194D01*
X30721426Y32625147D01*
X30998665Y32570000D01*
X31281335Y32570000D01*
X31558574Y32625147D01*
X31819727Y32733320D01*
X32054759Y32890363D01*
X32254637Y33090241D01*
X32411680Y33325273D01*
X32519853Y33586426D01*
X32575000Y33863665D01*
X32575000Y34146335D01*
X32519853Y34423574D01*
X32411680Y34684727D01*
X32254637Y34919759D01*
X32054759Y35119637D01*
X31819727Y35276680D01*
X31558574Y35384853D01*
X31281335Y35440000D01*
X30998665Y35440000D01*
X30721426Y35384853D01*
X30460273Y35276680D01*
X30225241Y35119637D01*
X30025363Y34919759D01*
X29868320Y34684727D01*
X29760147Y34423574D01*
X29705000Y34146335D01*
X29705000Y33863665D01*
X29760147Y33586426D01*
X29844194Y33383519D01*
X26572712Y36655000D01*
X43454588Y36655000D01*
X52314490Y27795097D01*
%TA.AperFunction,Conductor*%
D22*
G36*
X52314490Y27795097D02*
G01*
X52248617Y27636067D01*
X52205000Y27416788D01*
X52205000Y27193212D01*
X52248617Y26973933D01*
X52334176Y26767376D01*
X52458388Y26581480D01*
X52616480Y26423388D01*
X52701411Y26366639D01*
X52551288Y26396500D01*
X52327712Y26396500D01*
X52108433Y26352883D01*
X51901876Y26267324D01*
X51715980Y26143112D01*
X51557888Y25985020D01*
X51433676Y25799124D01*
X51348117Y25592567D01*
X51304500Y25373288D01*
X51304500Y25149712D01*
X51348117Y24930433D01*
X51433676Y24723876D01*
X51557888Y24537980D01*
X51629500Y24466368D01*
X51629500Y24327013D01*
X51099488Y23797000D01*
X49950787Y23797000D01*
X49910999Y23800919D01*
X49871211Y23797000D01*
X49871209Y23797000D01*
X49752212Y23785280D01*
X49599527Y23738963D01*
X49589376Y23733537D01*
X49458810Y23663749D01*
X49417687Y23630000D01*
X49335472Y23562528D01*
X49310107Y23531620D01*
X42605141Y16826653D01*
X42594942Y16839081D01*
X42549028Y16895028D01*
X42518119Y16920394D01*
X40944513Y18494000D01*
X43267212Y18494000D01*
X43307000Y18490081D01*
X43346788Y18494000D01*
X43346791Y18494000D01*
X43465788Y18505720D01*
X43618473Y18552037D01*
X43759189Y18627251D01*
X43882528Y18728472D01*
X43907899Y18759387D01*
X44486618Y19338105D01*
X44517528Y19363472D01*
X44618749Y19486811D01*
X44639810Y19526213D01*
X44693963Y19627526D01*
X44711398Y19685001D01*
X44740280Y19780212D01*
X44752000Y19899209D01*
X44752000Y19899212D01*
X44755919Y19939000D01*
X44752000Y19978788D01*
X44752000Y22886740D01*
X44846212Y22868000D01*
X45069788Y22868000D01*
X45289067Y22911617D01*
X45495624Y22997176D01*
X45681520Y23121388D01*
X45839612Y23279480D01*
X45963824Y23465376D01*
X46049383Y23671933D01*
X46093000Y23891212D01*
X46093000Y24082000D01*
X47210868Y24082000D01*
X47282480Y24010388D01*
X47468376Y23886176D01*
X47674933Y23800617D01*
X47894212Y23757000D01*
X48117788Y23757000D01*
X48337067Y23800617D01*
X48543624Y23886176D01*
X48729520Y24010388D01*
X48887612Y24168480D01*
X49011824Y24354376D01*
X49097383Y24560933D01*
X49141000Y24780212D01*
X49141000Y25003788D01*
X49097383Y25223067D01*
X49011824Y25429624D01*
X48887612Y25615520D01*
X48729520Y25773612D01*
X48543624Y25897824D01*
X48337067Y25983383D01*
X48117788Y26027000D01*
X47894212Y26027000D01*
X47674933Y25983383D01*
X47468376Y25897824D01*
X47282480Y25773612D01*
X47210868Y25702000D01*
X45679231Y25702000D01*
X45808520Y25788388D01*
X45966612Y25946480D01*
X46090824Y26132376D01*
X46176383Y26338933D01*
X46220000Y26558212D01*
X46220000Y26781788D01*
X46176383Y27001067D01*
X46090824Y27207624D01*
X45966612Y27393520D01*
X45895000Y27465132D01*
X45895000Y32710211D01*
X45898919Y32749999D01*
X45893231Y32807749D01*
X45883280Y32908786D01*
X45836963Y33061471D01*
X45761749Y33202187D01*
X45660528Y33325526D01*
X45629619Y33350892D01*
X44280898Y34699612D01*
X44255527Y34730527D01*
X44132188Y34831748D01*
X43991472Y34906962D01*
X43838787Y34953279D01*
X43719790Y34964999D01*
X43719787Y34964999D01*
X43679999Y34968918D01*
X43640211Y34964999D01*
X35464786Y34964999D01*
X35424998Y34968918D01*
X35385210Y34964999D01*
X35385208Y34964999D01*
X35266211Y34953279D01*
X35113526Y34906962D01*
X35048023Y34871950D01*
X34972809Y34831748D01*
X34938092Y34803256D01*
X34921940Y34790000D01*
X34813212Y34790000D01*
X34593933Y34746383D01*
X34387376Y34660824D01*
X34201480Y34536612D01*
X34043388Y34378520D01*
X33919176Y34192624D01*
X33833617Y33986067D01*
X33790000Y33766788D01*
X33790000Y33543212D01*
X33833617Y33323933D01*
X33919176Y33117376D01*
X34043388Y32931480D01*
X34201480Y32773388D01*
X34387376Y32649176D01*
X34593933Y32563617D01*
X34813212Y32520000D01*
X35036788Y32520000D01*
X35256067Y32563617D01*
X35462624Y32649176D01*
X35648520Y32773388D01*
X35806612Y32931480D01*
X35930824Y33117376D01*
X36016383Y33323933D01*
X36020573Y33344999D01*
X41960410Y33344999D01*
X41918000Y33131788D01*
X41918000Y33030512D01*
X41873383Y32985895D01*
X41842473Y32960528D01*
X41817108Y32929620D01*
X41741251Y32837189D01*
X41694648Y32749999D01*
X41666038Y32696473D01*
X41619722Y32543789D01*
X41619721Y32543787D01*
X41604081Y32385000D01*
X41608001Y32345202D01*
X41608000Y29497132D01*
X41536388Y29425520D01*
X41412176Y29239624D01*
X41326617Y29033067D01*
X41283000Y28813788D01*
X41283000Y28590212D01*
X41326617Y28370933D01*
X41412176Y28164376D01*
X41536388Y27978480D01*
X41694480Y27820388D01*
X41880376Y27696176D01*
X42086933Y27610617D01*
X42306212Y27567000D01*
X42529788Y27567000D01*
X42749067Y27610617D01*
X42955624Y27696176D01*
X43141520Y27820388D01*
X43299612Y27978480D01*
X43423824Y28164376D01*
X43509383Y28370933D01*
X43553000Y28590212D01*
X43553000Y28813788D01*
X43509383Y29033067D01*
X43423824Y29239624D01*
X43299612Y29425520D01*
X43228000Y29497132D01*
X43228000Y31897574D01*
X43384067Y31928617D01*
X43590624Y32014176D01*
X43776520Y32138388D01*
X43934612Y32296480D01*
X44058824Y32482376D01*
X44102256Y32587229D01*
X44275000Y32414485D01*
X44275001Y27465133D01*
X44203388Y27393520D01*
X44079176Y27207624D01*
X43993617Y27001067D01*
X43950000Y26781788D01*
X43950000Y26558212D01*
X43993617Y26338933D01*
X44079176Y26132376D01*
X44203388Y25946480D01*
X44361480Y25788388D01*
X44490769Y25702000D01*
X42711787Y25702000D01*
X42671999Y25705919D01*
X42632211Y25702000D01*
X42632209Y25702000D01*
X42513212Y25690280D01*
X42360527Y25643963D01*
X42319834Y25622212D01*
X42219810Y25568749D01*
X42178687Y25535000D01*
X42096472Y25467528D01*
X42071105Y25436618D01*
X41264488Y24630000D01*
X41163212Y24630000D01*
X40943933Y24586383D01*
X40737376Y24500824D01*
X40551480Y24376612D01*
X40393388Y24218520D01*
X40269176Y24032624D01*
X40183617Y23826067D01*
X40140000Y23606788D01*
X40140000Y23383212D01*
X40183617Y23163933D01*
X40269176Y22957376D01*
X40393388Y22771480D01*
X40551480Y22613388D01*
X40680769Y22527000D01*
X39451513Y22527000D01*
X38234864Y23743648D01*
X38403933Y23673617D01*
X38623212Y23630000D01*
X38846788Y23630000D01*
X39066067Y23673617D01*
X39272624Y23759176D01*
X39458520Y23883388D01*
X39616612Y24041480D01*
X39740824Y24227376D01*
X39826383Y24433933D01*
X39870000Y24653212D01*
X39870000Y24876788D01*
X39826383Y25096067D01*
X39740824Y25302624D01*
X39616612Y25488520D01*
X39458520Y25646612D01*
X39272624Y25770824D01*
X39066067Y25856383D01*
X38846788Y25900000D01*
X38623212Y25900000D01*
X38403933Y25856383D01*
X38197376Y25770824D01*
X38011480Y25646612D01*
X37939868Y25575000D01*
X33059788Y25575000D01*
X33020000Y25578919D01*
X32980212Y25575000D01*
X32980209Y25575000D01*
X32861212Y25563280D01*
X32744063Y25527743D01*
X32708526Y25516963D01*
X32590447Y25453848D01*
X32567811Y25441749D01*
X32444472Y25340528D01*
X32419107Y25309620D01*
X32374487Y25265000D01*
X32273212Y25265000D01*
X32053933Y25221383D01*
X31847376Y25135824D01*
X31661480Y25011612D01*
X31503388Y24853520D01*
X31379176Y24667624D01*
X31293617Y24461067D01*
X31250000Y24241788D01*
X31250000Y24018212D01*
X31293617Y23798933D01*
X31379176Y23592376D01*
X31503388Y23406480D01*
X31661480Y23248388D01*
X31847376Y23124176D01*
X32050812Y23039910D01*
X32012000Y22844788D01*
X32012000Y22727513D01*
X30898600Y23840912D01*
X30898600Y31953812D01*
X30902519Y31993600D01*
X30898600Y32033391D01*
X30886880Y32152388D01*
X30840563Y32305073D01*
X30789824Y32400000D01*
X30765349Y32445790D01*
X30689493Y32538220D01*
X30664128Y32569128D01*
X30633219Y32594494D01*
X30518519Y32709194D01*
X30721426Y32625147D01*
X30998665Y32570000D01*
X31281335Y32570000D01*
X31558574Y32625147D01*
X31819727Y32733320D01*
X32054759Y32890363D01*
X32254637Y33090241D01*
X32411680Y33325273D01*
X32519853Y33586426D01*
X32575000Y33863665D01*
X32575000Y34146335D01*
X32519853Y34423574D01*
X32411680Y34684727D01*
X32254637Y34919759D01*
X32054759Y35119637D01*
X31819727Y35276680D01*
X31558574Y35384853D01*
X31281335Y35440000D01*
X30998665Y35440000D01*
X30721426Y35384853D01*
X30460273Y35276680D01*
X30225241Y35119637D01*
X30025363Y34919759D01*
X29868320Y34684727D01*
X29760147Y34423574D01*
X29705000Y34146335D01*
X29705000Y33863665D01*
X29760147Y33586426D01*
X29844194Y33383519D01*
X26572712Y36655000D01*
X43454588Y36655000D01*
X52314490Y27795097D01*
G37*
%TD.AperFunction*%
D21*
X21032013Y26667335D02*
X21179338Y26446847D01*
X21366847Y26259338D01*
X21587335Y26112013D01*
X21773260Y26035000D01*
X21587335Y25957987D01*
X21366847Y25810662D01*
X21179338Y25623153D01*
X21032013Y25402665D01*
X20954031Y25214400D01*
X20904542Y25350280D01*
X20849183Y25453848D01*
X20614273Y25514668D01*
X19864605Y24765000D01*
X20614273Y24015332D01*
X20849183Y24076152D01*
X20957206Y24307934D01*
X21032013Y24127335D01*
X21179338Y23906847D01*
X21366847Y23719338D01*
X21587335Y23572013D01*
X21832328Y23470533D01*
X22092411Y23418800D01*
X22357589Y23418800D01*
X22617672Y23470533D01*
X22862665Y23572013D01*
X23066001Y23707877D01*
X23066000Y21502788D01*
X23062081Y21463000D01*
X23066000Y21423212D01*
X23066000Y21423210D01*
X23077720Y21304213D01*
X23124037Y21151528D01*
X23159047Y21086028D01*
X23199251Y21010811D01*
X23210792Y20996749D01*
X23300472Y20887472D01*
X23331388Y20862100D01*
X26873487Y17320000D01*
X23195513Y17320000D01*
X19636712Y20878800D01*
X19817589Y20878800D01*
X20077672Y20930533D01*
X20322665Y21032013D01*
X20543153Y21179338D01*
X20730662Y21366847D01*
X20877987Y21587335D01*
X20979467Y21832328D01*
X21031200Y22092411D01*
X21031200Y22357589D01*
X20979467Y22617672D01*
X20877987Y22862665D01*
X20730662Y23083153D01*
X20543153Y23270662D01*
X20322665Y23417987D01*
X20134400Y23495969D01*
X20270280Y23545458D01*
X20373848Y23600817D01*
X20434668Y23835727D01*
X19685000Y24585395D01*
X19670858Y24571252D01*
X19491253Y24750857D01*
X19505395Y24765000D01*
X19491253Y24779142D01*
X19670858Y24958747D01*
X19685000Y24944605D01*
X20434668Y25694273D01*
X20373848Y25929183D01*
X20142066Y26037206D01*
X20322665Y26112013D01*
X20543153Y26259338D01*
X20730662Y26446847D01*
X20877987Y26667335D01*
X20955000Y26853260D01*
X21032013Y26667335D01*
%TA.AperFunction,Conductor*%
D22*
G36*
X21032013Y26667335D02*
G01*
X21179338Y26446847D01*
X21366847Y26259338D01*
X21587335Y26112013D01*
X21773260Y26035000D01*
X21587335Y25957987D01*
X21366847Y25810662D01*
X21179338Y25623153D01*
X21032013Y25402665D01*
X20954031Y25214400D01*
X20904542Y25350280D01*
X20849183Y25453848D01*
X20614273Y25514668D01*
X19864605Y24765000D01*
X20614273Y24015332D01*
X20849183Y24076152D01*
X20957206Y24307934D01*
X21032013Y24127335D01*
X21179338Y23906847D01*
X21366847Y23719338D01*
X21587335Y23572013D01*
X21832328Y23470533D01*
X22092411Y23418800D01*
X22357589Y23418800D01*
X22617672Y23470533D01*
X22862665Y23572013D01*
X23066001Y23707877D01*
X23066000Y21502788D01*
X23062081Y21463000D01*
X23066000Y21423212D01*
X23066000Y21423210D01*
X23077720Y21304213D01*
X23124037Y21151528D01*
X23159047Y21086028D01*
X23199251Y21010811D01*
X23210792Y20996749D01*
X23300472Y20887472D01*
X23331388Y20862100D01*
X26873487Y17320000D01*
X23195513Y17320000D01*
X19636712Y20878800D01*
X19817589Y20878800D01*
X20077672Y20930533D01*
X20322665Y21032013D01*
X20543153Y21179338D01*
X20730662Y21366847D01*
X20877987Y21587335D01*
X20979467Y21832328D01*
X21031200Y22092411D01*
X21031200Y22357589D01*
X20979467Y22617672D01*
X20877987Y22862665D01*
X20730662Y23083153D01*
X20543153Y23270662D01*
X20322665Y23417987D01*
X20134400Y23495969D01*
X20270280Y23545458D01*
X20373848Y23600817D01*
X20434668Y23835727D01*
X19685000Y24585395D01*
X19670858Y24571252D01*
X19491253Y24750857D01*
X19505395Y24765000D01*
X19491253Y24779142D01*
X19670858Y24958747D01*
X19685000Y24944605D01*
X20434668Y25694273D01*
X20373848Y25929183D01*
X20142066Y26037206D01*
X20322665Y26112013D01*
X20543153Y26259338D01*
X20730662Y26446847D01*
X20877987Y26667335D01*
X20955000Y26853260D01*
X21032013Y26667335D01*
G37*
%TD.AperFunction*%
D21*
X64328748Y24779142D02*
X64314605Y24765000D01*
X64328748Y24750857D01*
X64149143Y24571252D01*
X64135000Y24585395D01*
X63385332Y23835727D01*
X63446152Y23600817D01*
X63570209Y23543000D01*
X62162622Y23543000D01*
X62232665Y23572013D01*
X62453153Y23719338D01*
X62640662Y23906847D01*
X62787987Y24127335D01*
X62865969Y24315600D01*
X62915458Y24179720D01*
X62970817Y24076152D01*
X63205727Y24015332D01*
X63955395Y24765000D01*
X63941253Y24779142D01*
X64120858Y24958747D01*
X64135000Y24944605D01*
X64149143Y24958747D01*
X64328748Y24779142D01*
%TA.AperFunction,Conductor*%
D22*
G36*
X64328748Y24779142D02*
G01*
X64314605Y24765000D01*
X64328748Y24750857D01*
X64149143Y24571252D01*
X64135000Y24585395D01*
X63385332Y23835727D01*
X63446152Y23600817D01*
X63570209Y23543000D01*
X62162622Y23543000D01*
X62232665Y23572013D01*
X62453153Y23719338D01*
X62640662Y23906847D01*
X62787987Y24127335D01*
X62865969Y24315600D01*
X62915458Y24179720D01*
X62970817Y24076152D01*
X63205727Y24015332D01*
X63955395Y24765000D01*
X63941253Y24779142D01*
X64120858Y24958747D01*
X64135000Y24944605D01*
X64149143Y24958747D01*
X64328748Y24779142D01*
G37*
%TD.AperFunction*%
D21*
X29278600Y31658087D02*
X29278601Y24232921D01*
X29131000Y24380522D01*
X29131000Y29932213D01*
X29134919Y29972001D01*
X29131000Y30011791D01*
X29119280Y30130788D01*
X29072963Y30283473D01*
X29004655Y30411269D01*
X28997749Y30424190D01*
X28930343Y30506324D01*
X28896528Y30547528D01*
X28865619Y30572894D01*
X27988000Y31450512D01*
X27988000Y32091209D01*
X27991919Y32131000D01*
X27976280Y32289788D01*
X27929963Y32442474D01*
X27854749Y32583189D01*
X27820315Y32625147D01*
X27753528Y32706528D01*
X27722619Y32731894D01*
X25111900Y35342613D01*
X25086528Y35373528D01*
X25072549Y35385000D01*
X25551688Y35385000D01*
X29278600Y31658087D01*
%TA.AperFunction,Conductor*%
D22*
G36*
X29278600Y31658087D02*
G01*
X29278601Y24232921D01*
X29131000Y24380522D01*
X29131000Y29932213D01*
X29134919Y29972001D01*
X29131000Y30011791D01*
X29119280Y30130788D01*
X29072963Y30283473D01*
X29004655Y30411269D01*
X28997749Y30424190D01*
X28930343Y30506324D01*
X28896528Y30547528D01*
X28865619Y30572894D01*
X27988000Y31450512D01*
X27988000Y32091209D01*
X27991919Y32131000D01*
X27976280Y32289788D01*
X27929963Y32442474D01*
X27854749Y32583189D01*
X27820315Y32625147D01*
X27753528Y32706528D01*
X27722619Y32731894D01*
X25111900Y35342613D01*
X25086528Y35373528D01*
X25072549Y35385000D01*
X25551688Y35385000D01*
X29278600Y31658087D01*
G37*
%TD.AperFunction*%
D21*
X9032558Y34490574D02*
X9058709Y34458709D01*
X9177538Y34361189D01*
X9185854Y34354364D01*
X9330913Y34276828D01*
X9488311Y34229082D01*
X9651999Y34212960D01*
X9693018Y34217000D01*
X11030000Y34217000D01*
X11030001Y31878954D01*
X10926247Y31723676D01*
X10829381Y31489821D01*
X10780000Y31241561D01*
X10780000Y30988439D01*
X10829381Y30740179D01*
X10926247Y30506324D01*
X11030000Y30351047D01*
X11030001Y28625847D01*
X11030000Y28625837D01*
X11030001Y25633816D01*
X11019338Y25623153D01*
X10872013Y25402665D01*
X10795000Y25216740D01*
X10717987Y25402665D01*
X10570662Y25623153D01*
X10383153Y25810662D01*
X10162665Y25957987D01*
X9917672Y26059467D01*
X9657589Y26111200D01*
X9392411Y26111200D01*
X9132328Y26059467D01*
X8887335Y25957987D01*
X8666847Y25810662D01*
X8479338Y25623153D01*
X8332013Y25402665D01*
X8255000Y25216740D01*
X8177987Y25402665D01*
X8030662Y25623153D01*
X7843153Y25810662D01*
X7622665Y25957987D01*
X7436740Y26035000D01*
X7622665Y26112013D01*
X7843153Y26259338D01*
X8030662Y26446847D01*
X8177987Y26667335D01*
X8279467Y26912328D01*
X8331200Y27172411D01*
X8331200Y27437589D01*
X8279467Y27697672D01*
X8177987Y27942665D01*
X8030662Y28163153D01*
X7843153Y28350662D01*
X7622665Y28497987D01*
X7436740Y28575000D01*
X7622665Y28652013D01*
X7843153Y28799338D01*
X8030662Y28986847D01*
X8177987Y29207335D01*
X8279467Y29452328D01*
X8331200Y29712411D01*
X8331200Y29977589D01*
X8279467Y30237672D01*
X8177987Y30482665D01*
X8030662Y30703153D01*
X7843153Y30890662D01*
X7622665Y31037987D01*
X7436740Y31115000D01*
X7622665Y31192013D01*
X7843153Y31339338D01*
X8030662Y31526847D01*
X8177987Y31747335D01*
X8279467Y31992328D01*
X8331200Y32252411D01*
X8331200Y32517589D01*
X8279467Y32777672D01*
X8177987Y33022665D01*
X8030662Y33243153D01*
X7843153Y33430662D01*
X7622665Y33577987D01*
X7434400Y33655969D01*
X7570280Y33705458D01*
X7673848Y33760817D01*
X7734668Y33995727D01*
X6985000Y34745395D01*
X6235332Y33995727D01*
X6296152Y33760817D01*
X6527934Y33652794D01*
X6347335Y33577987D01*
X6126847Y33430662D01*
X5939338Y33243153D01*
X5792013Y33022665D01*
X5715000Y32836740D01*
X5637987Y33022665D01*
X5490662Y33243153D01*
X5303153Y33430662D01*
X5082665Y33577987D01*
X4896740Y33655000D01*
X5082665Y33732013D01*
X5303153Y33879338D01*
X5490662Y34066847D01*
X5637987Y34287335D01*
X5715969Y34475600D01*
X5765458Y34339720D01*
X5820817Y34236152D01*
X6055727Y34175332D01*
X6805395Y34925000D01*
X6791253Y34939142D01*
X6970858Y35118747D01*
X6985000Y35104605D01*
X6999143Y35118747D01*
X7178748Y34939142D01*
X7164605Y34925000D01*
X7914273Y34175332D01*
X8149183Y34236152D01*
X8261202Y34476509D01*
X8324176Y34734102D01*
X8335687Y34999030D01*
X8301354Y35221779D01*
X9032558Y34490574D01*
%TA.AperFunction,Conductor*%
D22*
G36*
X9032558Y34490574D02*
G01*
X9058709Y34458709D01*
X9177538Y34361189D01*
X9185854Y34354364D01*
X9330913Y34276828D01*
X9488311Y34229082D01*
X9651999Y34212960D01*
X9693018Y34217000D01*
X11030000Y34217000D01*
X11030001Y31878954D01*
X10926247Y31723676D01*
X10829381Y31489821D01*
X10780000Y31241561D01*
X10780000Y30988439D01*
X10829381Y30740179D01*
X10926247Y30506324D01*
X11030000Y30351047D01*
X11030001Y28625847D01*
X11030000Y28625837D01*
X11030001Y25633816D01*
X11019338Y25623153D01*
X10872013Y25402665D01*
X10795000Y25216740D01*
X10717987Y25402665D01*
X10570662Y25623153D01*
X10383153Y25810662D01*
X10162665Y25957987D01*
X9917672Y26059467D01*
X9657589Y26111200D01*
X9392411Y26111200D01*
X9132328Y26059467D01*
X8887335Y25957987D01*
X8666847Y25810662D01*
X8479338Y25623153D01*
X8332013Y25402665D01*
X8255000Y25216740D01*
X8177987Y25402665D01*
X8030662Y25623153D01*
X7843153Y25810662D01*
X7622665Y25957987D01*
X7436740Y26035000D01*
X7622665Y26112013D01*
X7843153Y26259338D01*
X8030662Y26446847D01*
X8177987Y26667335D01*
X8279467Y26912328D01*
X8331200Y27172411D01*
X8331200Y27437589D01*
X8279467Y27697672D01*
X8177987Y27942665D01*
X8030662Y28163153D01*
X7843153Y28350662D01*
X7622665Y28497987D01*
X7436740Y28575000D01*
X7622665Y28652013D01*
X7843153Y28799338D01*
X8030662Y28986847D01*
X8177987Y29207335D01*
X8279467Y29452328D01*
X8331200Y29712411D01*
X8331200Y29977589D01*
X8279467Y30237672D01*
X8177987Y30482665D01*
X8030662Y30703153D01*
X7843153Y30890662D01*
X7622665Y31037987D01*
X7436740Y31115000D01*
X7622665Y31192013D01*
X7843153Y31339338D01*
X8030662Y31526847D01*
X8177987Y31747335D01*
X8279467Y31992328D01*
X8331200Y32252411D01*
X8331200Y32517589D01*
X8279467Y32777672D01*
X8177987Y33022665D01*
X8030662Y33243153D01*
X7843153Y33430662D01*
X7622665Y33577987D01*
X7434400Y33655969D01*
X7570280Y33705458D01*
X7673848Y33760817D01*
X7734668Y33995727D01*
X6985000Y34745395D01*
X6235332Y33995727D01*
X6296152Y33760817D01*
X6527934Y33652794D01*
X6347335Y33577987D01*
X6126847Y33430662D01*
X5939338Y33243153D01*
X5792013Y33022665D01*
X5715000Y32836740D01*
X5637987Y33022665D01*
X5490662Y33243153D01*
X5303153Y33430662D01*
X5082665Y33577987D01*
X4896740Y33655000D01*
X5082665Y33732013D01*
X5303153Y33879338D01*
X5490662Y34066847D01*
X5637987Y34287335D01*
X5715969Y34475600D01*
X5765458Y34339720D01*
X5820817Y34236152D01*
X6055727Y34175332D01*
X6805395Y34925000D01*
X6791253Y34939142D01*
X6970858Y35118747D01*
X6985000Y35104605D01*
X6999143Y35118747D01*
X7178748Y34939142D01*
X7164605Y34925000D01*
X7914273Y34175332D01*
X8149183Y34236152D01*
X8261202Y34476509D01*
X8324176Y34734102D01*
X8335687Y34999030D01*
X8301354Y35221779D01*
X9032558Y34490574D01*
G37*
%TD.AperFunction*%
D21*
X18492013Y36827335D02*
X18639338Y36606847D01*
X18826847Y36419338D01*
X19047335Y36272013D01*
X19233260Y36195000D01*
X19047335Y36117987D01*
X18826847Y35970662D01*
X18639338Y35783153D01*
X18492013Y35562665D01*
X18390533Y35317672D01*
X18338800Y35057589D01*
X18338800Y34792411D01*
X18390533Y34532328D01*
X18492013Y34287335D01*
X18639338Y34066847D01*
X18826847Y33879338D01*
X19047335Y33732013D01*
X19233260Y33655000D01*
X19047335Y33577987D01*
X18826847Y33430662D01*
X18639338Y33243153D01*
X18492013Y33022665D01*
X18390533Y32777672D01*
X18338800Y32517589D01*
X18338800Y32252411D01*
X18390533Y31992328D01*
X18492013Y31747335D01*
X18639338Y31526847D01*
X18826847Y31339338D01*
X19047335Y31192013D01*
X19233260Y31115000D01*
X19047335Y31037987D01*
X18826847Y30890662D01*
X18639338Y30703153D01*
X18492013Y30482665D01*
X18390533Y30237672D01*
X18338800Y29977589D01*
X18338800Y29712411D01*
X18390533Y29452328D01*
X18492013Y29207335D01*
X18639338Y28986847D01*
X18826847Y28799338D01*
X19047335Y28652013D01*
X19233260Y28575000D01*
X19047335Y28497987D01*
X18826847Y28350662D01*
X18639338Y28163153D01*
X18492013Y27942665D01*
X18390533Y27697672D01*
X18338800Y27437589D01*
X18338800Y27256713D01*
X16685000Y28910512D01*
X16685000Y36198421D01*
X16752328Y36170533D01*
X17012411Y36118800D01*
X17277589Y36118800D01*
X17537672Y36170533D01*
X17782665Y36272013D01*
X18003153Y36419338D01*
X18190662Y36606847D01*
X18337987Y36827335D01*
X18415000Y37013260D01*
X18492013Y36827335D01*
%TA.AperFunction,Conductor*%
D22*
G36*
X18492013Y36827335D02*
G01*
X18639338Y36606847D01*
X18826847Y36419338D01*
X19047335Y36272013D01*
X19233260Y36195000D01*
X19047335Y36117987D01*
X18826847Y35970662D01*
X18639338Y35783153D01*
X18492013Y35562665D01*
X18390533Y35317672D01*
X18338800Y35057589D01*
X18338800Y34792411D01*
X18390533Y34532328D01*
X18492013Y34287335D01*
X18639338Y34066847D01*
X18826847Y33879338D01*
X19047335Y33732013D01*
X19233260Y33655000D01*
X19047335Y33577987D01*
X18826847Y33430662D01*
X18639338Y33243153D01*
X18492013Y33022665D01*
X18390533Y32777672D01*
X18338800Y32517589D01*
X18338800Y32252411D01*
X18390533Y31992328D01*
X18492013Y31747335D01*
X18639338Y31526847D01*
X18826847Y31339338D01*
X19047335Y31192013D01*
X19233260Y31115000D01*
X19047335Y31037987D01*
X18826847Y30890662D01*
X18639338Y30703153D01*
X18492013Y30482665D01*
X18390533Y30237672D01*
X18338800Y29977589D01*
X18338800Y29712411D01*
X18390533Y29452328D01*
X18492013Y29207335D01*
X18639338Y28986847D01*
X18826847Y28799338D01*
X19047335Y28652013D01*
X19233260Y28575000D01*
X19047335Y28497987D01*
X18826847Y28350662D01*
X18639338Y28163153D01*
X18492013Y27942665D01*
X18390533Y27697672D01*
X18338800Y27437589D01*
X18338800Y27256713D01*
X16685000Y28910512D01*
X16685000Y36198421D01*
X16752328Y36170533D01*
X17012411Y36118800D01*
X17277589Y36118800D01*
X17537672Y36170533D01*
X17782665Y36272013D01*
X18003153Y36419338D01*
X18190662Y36606847D01*
X18337987Y36827335D01*
X18415000Y37013260D01*
X18492013Y36827335D01*
G37*
%TD.AperFunction*%
D21*
X16808887Y41315291D02*
X16559720Y41224542D01*
X16456152Y41169183D01*
X16395332Y40934273D01*
X17145000Y40184605D01*
X17894668Y40934273D01*
X17833848Y41169183D01*
X17593491Y41281202D01*
X17335898Y41344176D01*
X17109797Y41354000D01*
X21254488Y41354000D01*
X23063487Y39545000D01*
X20994787Y39545000D01*
X20954999Y39548919D01*
X20953126Y39548734D01*
X20979467Y39612328D01*
X21031200Y39872411D01*
X21031200Y40137589D01*
X20979467Y40397672D01*
X20877987Y40642665D01*
X20730662Y40863153D01*
X20543153Y41050662D01*
X20322665Y41197987D01*
X20077672Y41299467D01*
X19817589Y41351200D01*
X19552411Y41351200D01*
X19292328Y41299467D01*
X19047335Y41197987D01*
X18826847Y41050662D01*
X18639338Y40863153D01*
X18492013Y40642665D01*
X18414031Y40454400D01*
X18364542Y40590280D01*
X18309183Y40693848D01*
X18074273Y40754668D01*
X17324605Y40005000D01*
X18074273Y39255332D01*
X18309183Y39316152D01*
X18417206Y39547934D01*
X18492013Y39367335D01*
X18639338Y39146847D01*
X18826847Y38959338D01*
X19047335Y38812013D01*
X19233260Y38735000D01*
X19047335Y38657987D01*
X18826847Y38510662D01*
X18639338Y38323153D01*
X18492013Y38102665D01*
X18415000Y37916740D01*
X18337987Y38102665D01*
X18190662Y38323153D01*
X18003153Y38510662D01*
X17782665Y38657987D01*
X17594400Y38735969D01*
X17730280Y38785458D01*
X17833848Y38840817D01*
X17894668Y39075727D01*
X17145000Y39825395D01*
X17130858Y39811252D01*
X16951253Y39990857D01*
X16965395Y40005000D01*
X16215727Y40754668D01*
X15980817Y40693848D01*
X15872794Y40462066D01*
X15797987Y40642665D01*
X15650662Y40863153D01*
X15463153Y41050662D01*
X15242665Y41197987D01*
X14997672Y41299467D01*
X14737589Y41351200D01*
X14472411Y41351200D01*
X14470000Y41350720D01*
X14470000Y41354000D01*
X17060025Y41354000D01*
X16808887Y41315291D01*
%TA.AperFunction,Conductor*%
D22*
G36*
X16808887Y41315291D02*
G01*
X16559720Y41224542D01*
X16456152Y41169183D01*
X16395332Y40934273D01*
X17145000Y40184605D01*
X17894668Y40934273D01*
X17833848Y41169183D01*
X17593491Y41281202D01*
X17335898Y41344176D01*
X17109797Y41354000D01*
X21254488Y41354000D01*
X23063487Y39545000D01*
X20994787Y39545000D01*
X20954999Y39548919D01*
X20953126Y39548734D01*
X20979467Y39612328D01*
X21031200Y39872411D01*
X21031200Y40137589D01*
X20979467Y40397672D01*
X20877987Y40642665D01*
X20730662Y40863153D01*
X20543153Y41050662D01*
X20322665Y41197987D01*
X20077672Y41299467D01*
X19817589Y41351200D01*
X19552411Y41351200D01*
X19292328Y41299467D01*
X19047335Y41197987D01*
X18826847Y41050662D01*
X18639338Y40863153D01*
X18492013Y40642665D01*
X18414031Y40454400D01*
X18364542Y40590280D01*
X18309183Y40693848D01*
X18074273Y40754668D01*
X17324605Y40005000D01*
X18074273Y39255332D01*
X18309183Y39316152D01*
X18417206Y39547934D01*
X18492013Y39367335D01*
X18639338Y39146847D01*
X18826847Y38959338D01*
X19047335Y38812013D01*
X19233260Y38735000D01*
X19047335Y38657987D01*
X18826847Y38510662D01*
X18639338Y38323153D01*
X18492013Y38102665D01*
X18415000Y37916740D01*
X18337987Y38102665D01*
X18190662Y38323153D01*
X18003153Y38510662D01*
X17782665Y38657987D01*
X17594400Y38735969D01*
X17730280Y38785458D01*
X17833848Y38840817D01*
X17894668Y39075727D01*
X17145000Y39825395D01*
X17130858Y39811252D01*
X16951253Y39990857D01*
X16965395Y40005000D01*
X16215727Y40754668D01*
X15980817Y40693848D01*
X15872794Y40462066D01*
X15797987Y40642665D01*
X15650662Y40863153D01*
X15463153Y41050662D01*
X15242665Y41197987D01*
X14997672Y41299467D01*
X14737589Y41351200D01*
X14472411Y41351200D01*
X14470000Y41350720D01*
X14470000Y41354000D01*
X17060025Y41354000D01*
X16808887Y41315291D01*
G37*
%TD.AperFunction*%
%TD*%
M02*
