M48
; DRILL file {KiCad (5.1.12)-1} date 01/28/24 09:01:30
; FORMAT={-:-/ absolute / inch / decimal}
; #@! TF.CreationDate,2024-01-28T09:01:30+01:00
; #@! TF.GenerationSoftware,Kicad,Pcbnew,(5.1.12)-1
; #@! TF.FileFunction,Plated,1,2,PTH
FMAT,2
INCH
T1C0.0197
T2C0.0236
T3C0.0315
T4C0.0354
T5C0.0394
%
G90
G05
T1
X0.475Y1.225
X0.68Y1.275
X0.75Y0.675
T2
X0.525Y1.625
X0.605Y0.47
X0.625Y0.625
X0.74Y0.3
X0.945Y1.37
X0.945Y1.25
X1.0Y0.535
X1.025Y1.15
X1.12Y0.665
X1.1301Y1.2158
X1.19Y0.655
X1.275Y0.95
X1.305Y0.895
X1.355Y0.925
X1.375Y1.325
X1.417Y0.375
X1.525Y0.975
X1.535Y0.31
X1.585Y0.345
X1.625Y0.925
X1.67Y1.13
X1.675Y0.8
X1.695Y1.3
X1.77Y0.945
X1.775Y1.05
X1.89Y0.98
X2.06Y1.46
X2.0645Y0.9945
X2.1Y1.075
X2.15Y1.075
X2.185Y0.695
X2.305Y1.575
X2.325Y0.575
T3
X0.175Y1.475
X0.175Y1.375
X0.175Y1.275
X0.175Y1.175
X0.175Y1.075
X0.175Y0.975
X0.175Y0.6219
X0.175Y0.425
X0.275Y1.575
X0.275Y1.475
X0.275Y1.375
X0.275Y1.275
X0.275Y1.175
X0.275Y1.075
X0.275Y0.975
X0.275Y0.875
X0.375Y1.575
X0.375Y1.475
X0.375Y0.975
X0.375Y0.875
X0.475Y1.575
X0.475Y1.475
X0.475Y0.975
X0.475Y0.875
X0.575Y1.575
X0.575Y1.475
X0.575Y0.975
X0.575Y0.875
X0.675Y1.575
X0.675Y1.475
X0.675Y0.975
X0.675Y0.875
X0.775Y1.575
X0.775Y1.475
X0.775Y1.375
X0.775Y1.275
X0.775Y1.175
X0.775Y1.075
X0.775Y0.975
X0.775Y0.875
X0.875Y1.475
X0.875Y1.375
X0.875Y1.275
X0.875Y1.175
X0.875Y1.075
X0.875Y0.975
X2.325Y1.475
X2.325Y1.375
X2.325Y1.275
X2.325Y1.175
X2.325Y1.075
X2.4213Y0.4
X2.425Y1.575
X2.425Y1.475
X2.425Y1.375
X2.425Y1.275
X2.425Y1.175
X2.425Y1.075
X2.425Y0.975
X2.45Y0.7
X2.45Y0.6213
X2.5Y0.4
X2.525Y1.575
X2.525Y1.475
X2.525Y1.075
X2.525Y0.975
X2.625Y1.575
X2.625Y1.475
X2.625Y1.075
X2.625Y0.975
X2.725Y1.575
X2.725Y1.475
X2.725Y1.375
X2.725Y1.275
X2.725Y1.175
X2.725Y1.075
X2.725Y0.975
X2.825Y1.475
X2.825Y1.375
X2.825Y1.275
X2.825Y1.175
X2.825Y1.075
T4
X0.125Y1.6
X0.13Y1.81
X0.68Y0.36
X0.925Y0.725
X1.795Y0.855
X1.99Y1.075
X2.025Y0.65
X2.1Y0.7
X2.625Y1.725
T5
X0.7Y0.225
X0.7Y0.125
X0.8Y0.225
X0.8Y0.125
X0.9Y0.225
X0.9Y0.125
X1.0Y0.225
X1.0Y0.125
X1.1Y0.225
X1.1Y0.125
X1.2Y0.225
X1.2Y0.125
X1.3Y0.225
X1.3Y0.125
X1.4Y0.225
X1.4Y0.125
X1.5Y0.225
X1.5Y0.125
X1.6Y0.225
X1.6Y0.125
X1.7Y0.225
X1.7Y0.125
X1.8Y0.225
X1.8Y0.125
X1.9Y0.225
X1.9Y0.125
X2.0Y0.225
X2.0Y0.125
X2.1Y0.225
X2.1Y0.125
X2.2Y0.225
X2.2Y0.125
X2.3Y0.225
X2.3Y0.125
T0
M30
