%TF.GenerationSoftware,KiCad,Pcbnew,(5.1.12)-1*%
%TF.CreationDate,2024-01-28T09:01:29+01:00*%
%TF.ProjectId,EREBUS,45524542-5553-42e6-9b69-6361645f7063,rev?*%
%TF.SameCoordinates,PX6d01460PY60e4b00*%
%TF.FileFunction,Copper,L1,Top*%
%TF.FilePolarity,Positive*%
%FSLAX46Y46*%
G04 Gerber Fmt 4.6, Leading zero omitted, Abs format (unit mm)*
G04 Created by KiCad (PCBNEW (5.1.12)-1) date 2024-01-28 09:01:29*
%MOMM*%
%LPD*%
G01*
G04 APERTURE LIST*
%TA.AperFunction,SMDPad,CuDef*%
%ADD10R,1.500000X2.800000*%
%TD*%
%TA.AperFunction,SMDPad,CuDef*%
%ADD11R,0.700000X1.500000*%
%TD*%
%TA.AperFunction,SMDPad,CuDef*%
%ADD12R,1.000000X1.500000*%
%TD*%
%TA.AperFunction,ComponentPad*%
%ADD13C,1.422400*%
%TD*%
%TA.AperFunction,ComponentPad*%
%ADD14R,1.422400X1.422400*%
%TD*%
%TA.AperFunction,SMDPad,CuDef*%
%ADD15R,1.500000X2.000000*%
%TD*%
%TA.AperFunction,SMDPad,CuDef*%
%ADD16R,3.800000X2.000000*%
%TD*%
%TA.AperFunction,ComponentPad*%
%ADD17C,1.600000*%
%TD*%
%TA.AperFunction,ComponentPad*%
%ADD18R,1.600000X1.600000*%
%TD*%
%TA.AperFunction,ComponentPad*%
%ADD19C,1.700000*%
%TD*%
%TA.AperFunction,ViaPad*%
%ADD20C,1.000000*%
%TD*%
%TA.AperFunction,ViaPad*%
%ADD21C,1.800000*%
%TD*%
%TA.AperFunction,ViaPad*%
%ADD22C,1.300000*%
%TD*%
%TA.AperFunction,Conductor*%
%ADD23C,0.350000*%
%TD*%
%TA.AperFunction,Conductor*%
%ADD24C,0.800000*%
%TD*%
%TA.AperFunction,Conductor*%
%ADD25C,0.400000*%
%TD*%
%TA.AperFunction,Conductor*%
%ADD26C,0.600000*%
%TD*%
%TA.AperFunction,Conductor*%
%ADD27C,0.254000*%
%TD*%
%TA.AperFunction,Conductor*%
%ADD28C,0.100000*%
%TD*%
G04 APERTURE END LIST*
D10*
%TO.P,J2,12*%
%TO.N,GND*%
X54290000Y33005000D03*
%TO.P,J2,13*%
X54290000Y47371000D03*
X26990000Y47371000D03*
%TO.P,J2,12*%
X29190000Y33005000D03*
D11*
%TO.P,J2,11*%
%TO.N,Net-(J2-Pad11)*%
X52895000Y31205000D03*
%TO.P,J2,10*%
%TO.N,Net-(J2-Pad10)*%
X51695000Y31205000D03*
D12*
%TO.P,J2,9*%
%TO.N,Net-(J2-Pad9)*%
X31265000Y31205000D03*
%TO.P,J2,8*%
%TO.N,Net-(J2-Pad8)*%
X50395000Y31205000D03*
%TO.P,J2,7*%
%TO.N,Net-(J2-Pad7)*%
X48695000Y31205000D03*
%TO.P,J2,6*%
%TO.N,GND*%
X46265000Y31205000D03*
%TO.P,J2,5*%
%TO.N,Net-(J2-Pad5)*%
X43765000Y31205000D03*
%TO.P,J2,4*%
%TO.N,+3V3*%
X41265000Y31205000D03*
%TO.P,J2,3*%
%TO.N,GND*%
X38765000Y31205000D03*
%TO.P,J2,2*%
%TO.N,Net-(J2-Pad2)*%
X36265000Y31205000D03*
%TO.P,J2,1*%
%TO.N,Net-(J2-Pad1)*%
X33765000Y31205000D03*
%TD*%
D13*
%TO.P,U2,29*%
%TO.N,/A8*%
X71755000Y37465000D03*
%TO.P,U2,27*%
%TO.N,/A11*%
X71755000Y34925000D03*
%TO.P,U2,25*%
%TO.N,/ROM_OE*%
X71755000Y32385000D03*
%TO.P,U2,23*%
%TO.N,/ROM_CE*%
X71755000Y29845000D03*
%TO.P,U2,28*%
%TO.N,/A9*%
X69215000Y34925000D03*
%TO.P,U2,26*%
%TO.N,Net-(U2-Pad26)*%
X69215000Y32385000D03*
%TO.P,U2,24*%
%TO.N,/A10*%
X69215000Y29845000D03*
%TO.P,U2,22*%
%TO.N,/D7*%
X69215000Y27305000D03*
%TO.P,U2,20*%
%TO.N,/D5*%
X69215000Y24765000D03*
%TO.P,U2,18*%
%TO.N,/D3*%
X66675000Y24765000D03*
%TO.P,U2,16*%
%TO.N,GND*%
X64135000Y24765000D03*
%TO.P,U2,14*%
%TO.N,/D1*%
X61595000Y24765000D03*
%TO.P,U2,21*%
%TO.N,/D6*%
X71755000Y27305000D03*
%TO.P,U2,19*%
%TO.N,/D4*%
X66675000Y27305000D03*
%TO.P,U2,17*%
%TO.N,Net-(U2-Pad17)*%
X64135000Y27305000D03*
%TO.P,U2,15*%
%TO.N,/D2*%
X61595000Y27305000D03*
%TO.P,U2,13*%
%TO.N,/D0*%
X59055000Y27305000D03*
%TO.P,U2,11*%
%TO.N,/A0*%
X59055000Y29845000D03*
%TO.P,U2,9*%
%TO.N,/A2*%
X59055000Y32385000D03*
%TO.P,U2,7*%
%TO.N,/A4*%
X59055000Y34925000D03*
%TO.P,U2,5*%
%TO.N,/A6*%
X59055000Y37465000D03*
%TO.P,U2,12*%
%TO.N,Net-(U2-Pad12)*%
X61595000Y29845000D03*
%TO.P,U2,10*%
%TO.N,/A1*%
X61595000Y32385000D03*
%TO.P,U2,8*%
%TO.N,/A3*%
X61595000Y34925000D03*
%TO.P,U2,6*%
%TO.N,/A5*%
X61595000Y37465000D03*
%TO.P,U2,30*%
%TO.N,/A13*%
X69215000Y40005000D03*
%TO.P,U2,32*%
%TO.N,VCC*%
X66675000Y40005000D03*
%TO.P,U2,4*%
%TO.N,/A7*%
X61595000Y40005000D03*
%TO.P,U2,2*%
%TO.N,/A15M*%
X64135000Y40005000D03*
%TO.P,U2,31*%
%TO.N,/A14M*%
X69215000Y37465000D03*
%TO.P,U2,3*%
%TO.N,/A12*%
X64135000Y37465000D03*
D14*
%TO.P,U2,1*%
%TO.N,Net-(U2-Pad1)*%
X66675000Y37465000D03*
%TD*%
D13*
%TO.P,U1,39*%
%TO.N,/D2*%
X22225000Y37465000D03*
%TO.P,U1,37*%
%TO.N,/D3*%
X22225000Y34925000D03*
%TO.P,U1,35*%
%TO.N,VCC*%
X22225000Y32385000D03*
%TO.P,U1,33*%
%TO.N,/D6*%
X22225000Y29845000D03*
%TO.P,U1,31*%
%TO.N,/D7*%
X22225000Y27305000D03*
%TO.P,U1,40*%
%TO.N,/D1*%
X19685000Y40005000D03*
%TO.P,U1,38*%
%TO.N,Net-(U1-Pad38)*%
X19685000Y34925000D03*
%TO.P,U1,36*%
%TO.N,/D4*%
X19685000Y32385000D03*
%TO.P,U1,34*%
%TO.N,/D5*%
X19685000Y29845000D03*
%TO.P,U1,32*%
%TO.N,Net-(U1-Pad32)*%
X19685000Y27305000D03*
%TO.P,U1,30*%
%TO.N,GND*%
X19685000Y24765000D03*
%TO.P,U1,28*%
%TO.N,/MISO*%
X19685000Y22225000D03*
%TO.P,U1,26*%
%TO.N,/CS*%
X17145000Y22225000D03*
%TO.P,U1,24*%
%TO.N,/A15M*%
X14605000Y22225000D03*
%TO.P,U1,22*%
%TO.N,GND*%
X12065000Y22225000D03*
%TO.P,U1,20*%
%TO.N,/A14*%
X9525000Y22225000D03*
%TO.P,U1,18*%
%TO.N,/PHI2*%
X6985000Y22225000D03*
%TO.P,U1,29*%
%TO.N,/MOSI*%
X22225000Y24765000D03*
%TO.P,U1,27*%
%TO.N,/SCK*%
X17145000Y24765000D03*
%TO.P,U1,25*%
%TO.N,/A2*%
X14605000Y24765000D03*
%TO.P,U1,23*%
%TO.N,VCC*%
X12065000Y24765000D03*
%TO.P,U1,21*%
%TO.N,/~IOCTRL*%
X9525000Y24765000D03*
%TO.P,U1,19*%
%TO.N,/~RESET*%
X6985000Y24765000D03*
%TO.P,U1,17*%
%TO.N,/~IO*%
X4445000Y24765000D03*
%TO.P,U1,15*%
%TO.N,VCC*%
X4445000Y27305000D03*
%TO.P,U1,13*%
%TO.N,Net-(U1-Pad13)*%
X4445000Y29845000D03*
%TO.P,U1,11*%
%TO.N,/R_~W*%
X4445000Y32385000D03*
%TO.P,U1,9*%
%TO.N,/A0*%
X4445000Y34925000D03*
%TO.P,U1,7*%
%TO.N,Net-(U1-Pad7)*%
X4445000Y37465000D03*
%TO.P,U1,16*%
%TO.N,/A15*%
X6985000Y27305000D03*
%TO.P,U1,14*%
%TO.N,/ROM_CE*%
X6985000Y29845000D03*
%TO.P,U1,12*%
%TO.N,/A14M*%
X6985000Y32385000D03*
%TO.P,U1,10*%
%TO.N,GND*%
X6985000Y34925000D03*
%TO.P,U1,8*%
%TO.N,/A1*%
X6985000Y37465000D03*
%TO.P,U1,42*%
%TO.N,GND*%
X17145000Y40005000D03*
%TO.P,U1,44*%
%TO.N,/A5*%
X14605000Y40005000D03*
%TO.P,U1,6*%
%TO.N,/ROM_OE*%
X6985000Y40005000D03*
%TO.P,U1,4*%
%TO.N,/A4*%
X9525000Y40005000D03*
%TO.P,U1,2*%
%TO.N,/A6*%
X12065000Y40005000D03*
%TO.P,U1,41*%
%TO.N,/D0*%
X19685000Y37465000D03*
%TO.P,U1,43*%
%TO.N,Net-(U1-Pad43)*%
X17145000Y37465000D03*
%TO.P,U1,5*%
%TO.N,/A3*%
X9525000Y37465000D03*
%TO.P,U1,3*%
%TO.N,VCC*%
X12065000Y37465000D03*
D14*
%TO.P,U1,1*%
%TO.N,/A7*%
X14605000Y37465000D03*
%TD*%
%TO.P,U4,14*%
%TO.N,+3V3*%
%TA.AperFunction,SMDPad,CuDef*%
G36*
G01*
X36345000Y25630000D02*
X36045000Y25630000D01*
G75*
G02*
X35895000Y25780000I0J150000D01*
G01*
X35895000Y27430000D01*
G75*
G02*
X36045000Y27580000I150000J0D01*
G01*
X36345000Y27580000D01*
G75*
G02*
X36495000Y27430000I0J-150000D01*
G01*
X36495000Y25780000D01*
G75*
G02*
X36345000Y25630000I-150000J0D01*
G01*
G37*
%TD.AperFunction*%
%TO.P,U4,13*%
%TO.N,GND*%
%TA.AperFunction,SMDPad,CuDef*%
G36*
G01*
X37615000Y25630000D02*
X37315000Y25630000D01*
G75*
G02*
X37165000Y25780000I0J150000D01*
G01*
X37165000Y27430000D01*
G75*
G02*
X37315000Y27580000I150000J0D01*
G01*
X37615000Y27580000D01*
G75*
G02*
X37765000Y27430000I0J-150000D01*
G01*
X37765000Y25780000D01*
G75*
G02*
X37615000Y25630000I-150000J0D01*
G01*
G37*
%TD.AperFunction*%
%TO.P,U4,12*%
%TO.N,Net-(R2-Pad1)*%
%TA.AperFunction,SMDPad,CuDef*%
G36*
G01*
X38885000Y25630000D02*
X38585000Y25630000D01*
G75*
G02*
X38435000Y25780000I0J150000D01*
G01*
X38435000Y27430000D01*
G75*
G02*
X38585000Y27580000I150000J0D01*
G01*
X38885000Y27580000D01*
G75*
G02*
X39035000Y27430000I0J-150000D01*
G01*
X39035000Y25780000D01*
G75*
G02*
X38885000Y25630000I-150000J0D01*
G01*
G37*
%TD.AperFunction*%
%TO.P,U4,11*%
%TO.N,Net-(J2-Pad5)*%
%TA.AperFunction,SMDPad,CuDef*%
G36*
G01*
X40155000Y25630000D02*
X39855000Y25630000D01*
G75*
G02*
X39705000Y25780000I0J150000D01*
G01*
X39705000Y27430000D01*
G75*
G02*
X39855000Y27580000I150000J0D01*
G01*
X40155000Y27580000D01*
G75*
G02*
X40305000Y27430000I0J-150000D01*
G01*
X40305000Y25780000D01*
G75*
G02*
X40155000Y25630000I-150000J0D01*
G01*
G37*
%TD.AperFunction*%
%TO.P,U4,10*%
%TO.N,GND*%
%TA.AperFunction,SMDPad,CuDef*%
G36*
G01*
X41425000Y25630000D02*
X41125000Y25630000D01*
G75*
G02*
X40975000Y25780000I0J150000D01*
G01*
X40975000Y27430000D01*
G75*
G02*
X41125000Y27580000I150000J0D01*
G01*
X41425000Y27580000D01*
G75*
G02*
X41575000Y27430000I0J-150000D01*
G01*
X41575000Y25780000D01*
G75*
G02*
X41425000Y25630000I-150000J0D01*
G01*
G37*
%TD.AperFunction*%
%TO.P,U4,9*%
%TO.N,Net-(R3-Pad1)*%
%TA.AperFunction,SMDPad,CuDef*%
G36*
G01*
X42695000Y25630000D02*
X42395000Y25630000D01*
G75*
G02*
X42245000Y25780000I0J150000D01*
G01*
X42245000Y27430000D01*
G75*
G02*
X42395000Y27580000I150000J0D01*
G01*
X42695000Y27580000D01*
G75*
G02*
X42845000Y27430000I0J-150000D01*
G01*
X42845000Y25780000D01*
G75*
G02*
X42695000Y25630000I-150000J0D01*
G01*
G37*
%TD.AperFunction*%
%TO.P,U4,8*%
%TO.N,Net-(J2-Pad1)*%
%TA.AperFunction,SMDPad,CuDef*%
G36*
G01*
X43965000Y25630000D02*
X43665000Y25630000D01*
G75*
G02*
X43515000Y25780000I0J150000D01*
G01*
X43515000Y27430000D01*
G75*
G02*
X43665000Y27580000I150000J0D01*
G01*
X43965000Y27580000D01*
G75*
G02*
X44115000Y27430000I0J-150000D01*
G01*
X44115000Y25780000D01*
G75*
G02*
X43965000Y25630000I-150000J0D01*
G01*
G37*
%TD.AperFunction*%
%TO.P,U4,7*%
%TO.N,GND*%
%TA.AperFunction,SMDPad,CuDef*%
G36*
G01*
X43965000Y20680000D02*
X43665000Y20680000D01*
G75*
G02*
X43515000Y20830000I0J150000D01*
G01*
X43515000Y22480000D01*
G75*
G02*
X43665000Y22630000I150000J0D01*
G01*
X43965000Y22630000D01*
G75*
G02*
X44115000Y22480000I0J-150000D01*
G01*
X44115000Y20830000D01*
G75*
G02*
X43965000Y20680000I-150000J0D01*
G01*
G37*
%TD.AperFunction*%
%TO.P,U4,6*%
%TO.N,/MISO*%
%TA.AperFunction,SMDPad,CuDef*%
G36*
G01*
X42695000Y20680000D02*
X42395000Y20680000D01*
G75*
G02*
X42245000Y20830000I0J150000D01*
G01*
X42245000Y22480000D01*
G75*
G02*
X42395000Y22630000I150000J0D01*
G01*
X42695000Y22630000D01*
G75*
G02*
X42845000Y22480000I0J-150000D01*
G01*
X42845000Y20830000D01*
G75*
G02*
X42695000Y20680000I-150000J0D01*
G01*
G37*
%TD.AperFunction*%
%TO.P,U4,5*%
%TO.N,Net-(R4-Pad2)*%
%TA.AperFunction,SMDPad,CuDef*%
G36*
G01*
X41425000Y20680000D02*
X41125000Y20680000D01*
G75*
G02*
X40975000Y20830000I0J150000D01*
G01*
X40975000Y22480000D01*
G75*
G02*
X41125000Y22630000I150000J0D01*
G01*
X41425000Y22630000D01*
G75*
G02*
X41575000Y22480000I0J-150000D01*
G01*
X41575000Y20830000D01*
G75*
G02*
X41425000Y20680000I-150000J0D01*
G01*
G37*
%TD.AperFunction*%
%TO.P,U4,4*%
%TO.N,GND*%
%TA.AperFunction,SMDPad,CuDef*%
G36*
G01*
X40155000Y20680000D02*
X39855000Y20680000D01*
G75*
G02*
X39705000Y20830000I0J150000D01*
G01*
X39705000Y22480000D01*
G75*
G02*
X39855000Y22630000I150000J0D01*
G01*
X40155000Y22630000D01*
G75*
G02*
X40305000Y22480000I0J-150000D01*
G01*
X40305000Y20830000D01*
G75*
G02*
X40155000Y20680000I-150000J0D01*
G01*
G37*
%TD.AperFunction*%
%TO.P,U4,3*%
%TO.N,Net-(J2-Pad2)*%
%TA.AperFunction,SMDPad,CuDef*%
G36*
G01*
X38885000Y20680000D02*
X38585000Y20680000D01*
G75*
G02*
X38435000Y20830000I0J150000D01*
G01*
X38435000Y22480000D01*
G75*
G02*
X38585000Y22630000I150000J0D01*
G01*
X38885000Y22630000D01*
G75*
G02*
X39035000Y22480000I0J-150000D01*
G01*
X39035000Y20830000D01*
G75*
G02*
X38885000Y20680000I-150000J0D01*
G01*
G37*
%TD.AperFunction*%
%TO.P,U4,2*%
%TO.N,Net-(R1-Pad1)*%
%TA.AperFunction,SMDPad,CuDef*%
G36*
G01*
X37615000Y20680000D02*
X37315000Y20680000D01*
G75*
G02*
X37165000Y20830000I0J150000D01*
G01*
X37165000Y22480000D01*
G75*
G02*
X37315000Y22630000I150000J0D01*
G01*
X37615000Y22630000D01*
G75*
G02*
X37765000Y22480000I0J-150000D01*
G01*
X37765000Y20830000D01*
G75*
G02*
X37615000Y20680000I-150000J0D01*
G01*
G37*
%TD.AperFunction*%
%TO.P,U4,1*%
%TO.N,GND*%
%TA.AperFunction,SMDPad,CuDef*%
G36*
G01*
X36345000Y20680000D02*
X36045000Y20680000D01*
G75*
G02*
X35895000Y20830000I0J150000D01*
G01*
X35895000Y22480000D01*
G75*
G02*
X36045000Y22630000I150000J0D01*
G01*
X36345000Y22630000D01*
G75*
G02*
X36495000Y22480000I0J-150000D01*
G01*
X36495000Y20830000D01*
G75*
G02*
X36345000Y20680000I-150000J0D01*
G01*
G37*
%TD.AperFunction*%
%TD*%
%TO.P,R4,2*%
%TO.N,Net-(R4-Pad2)*%
%TA.AperFunction,SMDPad,CuDef*%
G36*
G01*
X48190998Y27182500D02*
X49091002Y27182500D01*
G75*
G02*
X49341000Y26932502I0J-249998D01*
G01*
X49341000Y26407498D01*
G75*
G02*
X49091002Y26157500I-249998J0D01*
G01*
X48190998Y26157500D01*
G75*
G02*
X47941000Y26407498I0J249998D01*
G01*
X47941000Y26932502D01*
G75*
G02*
X48190998Y27182500I249998J0D01*
G01*
G37*
%TD.AperFunction*%
%TO.P,R4,1*%
%TO.N,Net-(J2-Pad7)*%
%TA.AperFunction,SMDPad,CuDef*%
G36*
G01*
X48190998Y29007500D02*
X49091002Y29007500D01*
G75*
G02*
X49341000Y28757502I0J-249998D01*
G01*
X49341000Y28232498D01*
G75*
G02*
X49091002Y27982500I-249998J0D01*
G01*
X48190998Y27982500D01*
G75*
G02*
X47941000Y28232498I0J249998D01*
G01*
X47941000Y28757502D01*
G75*
G02*
X48190998Y29007500I249998J0D01*
G01*
G37*
%TD.AperFunction*%
%TD*%
%TO.P,R3,2*%
%TO.N,/CS*%
%TA.AperFunction,SMDPad,CuDef*%
G36*
G01*
X29168000Y21405002D02*
X29168000Y20504998D01*
G75*
G02*
X28918002Y20255000I-249998J0D01*
G01*
X28392998Y20255000D01*
G75*
G02*
X28143000Y20504998I0J249998D01*
G01*
X28143000Y21405002D01*
G75*
G02*
X28392998Y21655000I249998J0D01*
G01*
X28918002Y21655000D01*
G75*
G02*
X29168000Y21405002I0J-249998D01*
G01*
G37*
%TD.AperFunction*%
%TO.P,R3,1*%
%TO.N,Net-(R3-Pad1)*%
%TA.AperFunction,SMDPad,CuDef*%
G36*
G01*
X30993000Y21405002D02*
X30993000Y20504998D01*
G75*
G02*
X30743002Y20255000I-249998J0D01*
G01*
X30217998Y20255000D01*
G75*
G02*
X29968000Y20504998I0J249998D01*
G01*
X29968000Y21405002D01*
G75*
G02*
X30217998Y21655000I249998J0D01*
G01*
X30743002Y21655000D01*
G75*
G02*
X30993000Y21405002I0J-249998D01*
G01*
G37*
%TD.AperFunction*%
%TD*%
%TO.P,R2,2*%
%TO.N,/SCK*%
%TA.AperFunction,SMDPad,CuDef*%
G36*
G01*
X29168000Y24580002D02*
X29168000Y23679998D01*
G75*
G02*
X28918002Y23430000I-249998J0D01*
G01*
X28392998Y23430000D01*
G75*
G02*
X28143000Y23679998I0J249998D01*
G01*
X28143000Y24580002D01*
G75*
G02*
X28392998Y24830000I249998J0D01*
G01*
X28918002Y24830000D01*
G75*
G02*
X29168000Y24580002I0J-249998D01*
G01*
G37*
%TD.AperFunction*%
%TO.P,R2,1*%
%TO.N,Net-(R2-Pad1)*%
%TA.AperFunction,SMDPad,CuDef*%
G36*
G01*
X30993000Y24580002D02*
X30993000Y23679998D01*
G75*
G02*
X30743002Y23430000I-249998J0D01*
G01*
X30217998Y23430000D01*
G75*
G02*
X29968000Y23679998I0J249998D01*
G01*
X29968000Y24580002D01*
G75*
G02*
X30217998Y24830000I249998J0D01*
G01*
X30743002Y24830000D01*
G75*
G02*
X30993000Y24580002I0J-249998D01*
G01*
G37*
%TD.AperFunction*%
%TD*%
%TO.P,R1,2*%
%TO.N,/MOSI*%
%TA.AperFunction,SMDPad,CuDef*%
G36*
G01*
X29088000Y27755002D02*
X29088000Y26854998D01*
G75*
G02*
X28838002Y26605000I-249998J0D01*
G01*
X28312998Y26605000D01*
G75*
G02*
X28063000Y26854998I0J249998D01*
G01*
X28063000Y27755002D01*
G75*
G02*
X28312998Y28005000I249998J0D01*
G01*
X28838002Y28005000D01*
G75*
G02*
X29088000Y27755002I0J-249998D01*
G01*
G37*
%TD.AperFunction*%
%TO.P,R1,1*%
%TO.N,Net-(R1-Pad1)*%
%TA.AperFunction,SMDPad,CuDef*%
G36*
G01*
X30913000Y27755002D02*
X30913000Y26854998D01*
G75*
G02*
X30663002Y26605000I-249998J0D01*
G01*
X30137998Y26605000D01*
G75*
G02*
X29888000Y26854998I0J249998D01*
G01*
X29888000Y27755002D01*
G75*
G02*
X30137998Y28005000I249998J0D01*
G01*
X30663002Y28005000D01*
G75*
G02*
X30913000Y27755002I0J-249998D01*
G01*
G37*
%TD.AperFunction*%
%TD*%
D15*
%TO.P,U3,1*%
%TO.N,GND*%
X68185000Y10845000D03*
%TO.P,U3,3*%
%TO.N,VCC*%
X72785000Y10845000D03*
%TO.P,U3,2*%
%TO.N,+3V3*%
X70485000Y10845000D03*
D16*
X70485000Y17145000D03*
%TD*%
D17*
%TO.P,C3,2*%
%TO.N,GND*%
X61500000Y10160000D03*
D18*
%TO.P,C3,1*%
%TO.N,+3V3*%
X63500000Y10160000D03*
%TD*%
D19*
%TO.P,J1,34*%
%TO.N,GND*%
X17780000Y3175000D03*
%TO.P,J1,32*%
%TO.N,/A11*%
X20320000Y3175000D03*
%TO.P,J1,30*%
%TO.N,/A12*%
X22860000Y3175000D03*
%TO.P,J1,28*%
%TO.N,/A13*%
X25400000Y3175000D03*
%TO.P,J1,26*%
%TO.N,/A14*%
X27940000Y3175000D03*
%TO.P,J1,24*%
%TO.N,/A15*%
X30480000Y3175000D03*
%TO.P,J1,22*%
%TO.N,/D7*%
X33020000Y3175000D03*
%TO.P,J1,20*%
%TO.N,/A4*%
X35560000Y3175000D03*
%TO.P,J1,18*%
%TO.N,/D4*%
X38100000Y3175000D03*
%TO.P,J1,16*%
%TO.N,/D3*%
X40640000Y3175000D03*
%TO.P,J1,14*%
%TO.N,/D6*%
X43180000Y3175000D03*
%TO.P,J1,12*%
%TO.N,/D1*%
X45720000Y3175000D03*
%TO.P,J1,10*%
%TO.N,/D0*%
X48260000Y3175000D03*
%TO.P,J1,8*%
%TO.N,/~IRQ*%
X50800000Y3175000D03*
%TO.P,J1,6*%
%TO.N,/~IOCTRL*%
X53340000Y3175000D03*
%TO.P,J1,4*%
%TO.N,/~RESET*%
X55880000Y3175000D03*
%TO.P,J1,2*%
%TO.N,GND*%
X58420000Y3175000D03*
%TO.P,J1,33*%
%TO.N,VCC*%
X17780000Y5715000D03*
%TO.P,J1,31*%
%TO.N,/A10*%
X20320000Y5715000D03*
%TO.P,J1,29*%
%TO.N,/A9*%
X22860000Y5715000D03*
%TO.P,J1,27*%
%TO.N,/A8*%
X25400000Y5715000D03*
%TO.P,J1,25*%
%TO.N,/A7*%
X27940000Y5715000D03*
%TO.P,J1,23*%
%TO.N,/A6*%
X30480000Y5715000D03*
%TO.P,J1,21*%
%TO.N,/A5*%
X33020000Y5715000D03*
%TO.P,J1,19*%
%TO.N,/D5*%
X35560000Y5715000D03*
%TO.P,J1,17*%
%TO.N,/A2*%
X38100000Y5715000D03*
%TO.P,J1,15*%
%TO.N,/A1*%
X40640000Y5715000D03*
%TO.P,J1,13*%
%TO.N,/A0*%
X43180000Y5715000D03*
%TO.P,J1,11*%
%TO.N,/A3*%
X45720000Y5715000D03*
%TO.P,J1,9*%
%TO.N,/D2*%
X48260000Y5715000D03*
%TO.P,J1,7*%
%TO.N,/R_~W*%
X50800000Y5715000D03*
%TO.P,J1,5*%
%TO.N,/~IO*%
X53340000Y5715000D03*
%TO.P,J1,3*%
%TO.N,/PHI2*%
X55880000Y5715000D03*
%TO.P,J1,1*%
%TO.N,/~MAP*%
%TA.AperFunction,ComponentPad*%
G36*
G01*
X57820000Y6565000D02*
X59020000Y6565000D01*
G75*
G02*
X59270000Y6315000I0J-250000D01*
G01*
X59270000Y5115000D01*
G75*
G02*
X59020000Y4865000I-250000J0D01*
G01*
X57820000Y4865000D01*
G75*
G02*
X57570000Y5115000I0J250000D01*
G01*
X57570000Y6315000D01*
G75*
G02*
X57820000Y6565000I250000J0D01*
G01*
G37*
%TD.AperFunction*%
%TD*%
D17*
%TO.P,C2,2*%
%TO.N,VCC*%
X4445000Y15795000D03*
%TO.P,C2,1*%
%TO.N,GND*%
X4445000Y10795000D03*
%TD*%
%TO.P,C1,2*%
%TO.N,GND*%
X62230000Y15780000D03*
D18*
%TO.P,C1,1*%
%TO.N,VCC*%
X62230000Y17780000D03*
%TD*%
D20*
%TO.N,GND*%
X28704300Y30880800D03*
D21*
X23495000Y18415000D03*
X45593000Y21717000D03*
X51435000Y16510000D03*
X50546000Y27305000D03*
D22*
X17272000Y32385000D03*
D21*
X17272000Y9144000D03*
%TO.N,VCC*%
X66675000Y43815000D03*
D22*
X12065000Y31115000D03*
D21*
X3175000Y40640000D03*
X3302000Y45974000D03*
D20*
%TO.N,/D0*%
X54610000Y27305000D03*
%TO.N,/D1*%
X58547000Y40005000D03*
%TO.N,/D2*%
X53340000Y27305000D03*
%TO.N,/D3*%
X38989000Y7874000D03*
%TO.N,/D4*%
X52439500Y25261500D03*
%TO.N,/D5*%
X30226000Y16637000D03*
%TO.N,/D6*%
X35990800Y9525000D03*
%TO.N,/D7*%
X28448000Y16891000D03*
%TO.N,/A2*%
X26035000Y29210000D03*
%TO.N,/A4*%
X52324000Y37084000D03*
X24003000Y31750000D03*
%TO.N,/A6*%
X40259000Y8763000D03*
X24003000Y34798000D03*
%TO.N,/A8*%
X25400000Y13589000D03*
X59055000Y14605000D03*
%TO.N,/A10*%
X15875000Y15875000D03*
X55499000Y17653000D03*
D22*
%TO.N,/A14*%
X19050000Y17145000D03*
D20*
%TO.N,/A15*%
X18796000Y7620000D03*
%TO.N,/~IOCTRL*%
X15367000Y11938000D03*
%TO.N,Net-(J2-Pad5)*%
X42418000Y28702000D03*
X43053000Y33020000D03*
%TO.N,/MISO*%
X42545000Y20320000D03*
X34417000Y23495000D03*
%TO.N,/A15M*%
X13335000Y41275000D03*
D21*
%TO.N,+3V3*%
X53340000Y17780000D03*
D20*
%TO.N,Net-(J2-Pad1)*%
X34925000Y33655000D03*
X45085000Y26670000D03*
%TO.N,Net-(R4-Pad2)*%
X41275000Y23495000D03*
X48006000Y24892000D03*
%TO.N,Net-(R2-Pad1)*%
X38735000Y24765000D03*
X32385000Y24130000D03*
%TO.N,Net-(R3-Pad1)*%
X44958000Y24003000D03*
X33147000Y22733000D03*
%TD*%
D23*
%TO.N,GND*%
X28704300Y30880800D02*
X29053200Y31229700D01*
X29053200Y31229700D02*
X29190000Y31229700D01*
X29190000Y33005000D02*
X29190000Y31229700D01*
X36195000Y21655000D02*
X36195000Y21141900D01*
X36195000Y21141900D02*
X37064100Y20272800D01*
X37064100Y20272800D02*
X39132300Y20272800D01*
X39132300Y20272800D02*
X40005000Y21145500D01*
X40005000Y21145500D02*
X40005000Y21655000D01*
X54018600Y32733600D02*
X54290000Y33005000D01*
X43815000Y21655000D02*
X43815000Y23622000D01*
X43815000Y23622000D02*
X43180000Y24257000D01*
X43180000Y24257000D02*
X41783000Y24257000D01*
X41275000Y24765000D02*
X41275000Y26605000D01*
X41783000Y24257000D02*
X41275000Y24765000D01*
X40005000Y23495000D02*
X41275000Y24765000D01*
X40005000Y21655000D02*
X40005000Y23495000D01*
X37465000Y26605000D02*
X37465000Y24638000D01*
X38608000Y23495000D02*
X40005000Y23495000D01*
X37465000Y24638000D02*
X38608000Y23495000D01*
D24*
X15875000Y18415000D02*
X12065000Y22225000D01*
X23495000Y18415000D02*
X15875000Y18415000D01*
X45531000Y21655000D02*
X45593000Y21717000D01*
X43815000Y21655000D02*
X45531000Y21655000D01*
X46228000Y21717000D02*
X51435000Y16510000D01*
X45593000Y21717000D02*
X46228000Y21717000D01*
X50546000Y27305000D02*
X50546000Y27559000D01*
X50546000Y27559000D02*
X52451000Y29464000D01*
X52451000Y29464000D02*
X53721000Y29464000D01*
X54290000Y30033000D02*
X54290000Y33005000D01*
X53721000Y29464000D02*
X54290000Y30033000D01*
D25*
X17272000Y32385000D02*
X12446000Y32385000D01*
X9906000Y34925000D02*
X6985000Y34925000D01*
X12446000Y32385000D02*
X9906000Y34925000D01*
D24*
X17780000Y3175000D02*
X14859000Y3175000D01*
X14859000Y3175000D02*
X12446000Y5588000D01*
X12446000Y5588000D02*
X12446000Y7620000D01*
X12446000Y5588000D02*
X12446000Y8255000D01*
X13335000Y9144000D02*
X17272000Y9144000D01*
X12446000Y8255000D02*
X13335000Y9144000D01*
X23495000Y18415000D02*
X25400000Y18415000D01*
X25400000Y18415000D02*
X26302010Y19317010D01*
X26302010Y19317010D02*
X32779010Y19317010D01*
X35117000Y21655000D02*
X36195000Y21655000D01*
X32779010Y19317010D02*
X35117000Y21655000D01*
%TO.N,VCC*%
X72785000Y12940000D02*
X72785000Y10845000D01*
X73660000Y13815000D02*
X72785000Y12940000D01*
X73660000Y18669000D02*
X73660000Y13815000D01*
X72517000Y19812000D02*
X73660000Y18669000D01*
X68326000Y19812000D02*
X72517000Y19812000D01*
X66294000Y17780000D02*
X68326000Y19812000D01*
X62230000Y17780000D02*
X66294000Y17780000D01*
X66675000Y43815000D02*
X66675000Y40005000D01*
D25*
X22225000Y32385000D02*
X20955000Y31115000D01*
X20955000Y31115000D02*
X12065000Y31115000D01*
D24*
X3175000Y45847000D02*
X3302000Y45974000D01*
X3175000Y40640000D02*
X3175000Y45847000D01*
D23*
%TO.N,/~RESET*%
X54610000Y7620000D02*
X54610000Y4445000D01*
X51562000Y10668000D02*
X54610000Y7620000D01*
X54610000Y4445000D02*
X55880000Y3175000D01*
X46482000Y10668000D02*
X51562000Y10668000D01*
X30988000Y11938000D02*
X32512000Y13462000D01*
X24511000Y11938000D02*
X30988000Y11938000D01*
X22848900Y13600100D02*
X24511000Y11938000D01*
X32512000Y13462000D02*
X43688000Y13462000D01*
X13704900Y13600100D02*
X22848900Y13600100D01*
X5715000Y21590000D02*
X13704900Y13600100D01*
X5715000Y23495000D02*
X5715000Y21590000D01*
X43688000Y13462000D02*
X46482000Y10668000D01*
X6985000Y24765000D02*
X5715000Y23495000D01*
%TO.N,/D0*%
X54610000Y27305000D02*
X59055000Y27305000D01*
%TO.N,/D1*%
X58547000Y40005000D02*
X19685000Y40005000D01*
%TO.N,/D2*%
X54610000Y28575000D02*
X53340000Y27305000D01*
X60325000Y28575000D02*
X54610000Y28575000D01*
X61595000Y27305000D02*
X60325000Y28575000D01*
%TO.N,/D3*%
X39370000Y4445000D02*
X40640000Y3175000D01*
X39370000Y7493000D02*
X39370000Y4445000D01*
X38989000Y7874000D02*
X39370000Y7493000D01*
%TO.N,/D4*%
X65405000Y26035000D02*
X66675000Y27305000D01*
X60720500Y26035000D02*
X65405000Y26035000D01*
X59947000Y25261500D02*
X60720500Y26035000D01*
X52439500Y25261500D02*
X59947000Y25261500D01*
%TO.N,/D5*%
X65405000Y20955000D02*
X69215000Y24765000D01*
X58420000Y18415000D02*
X60960000Y20955000D01*
X58420000Y17018000D02*
X58420000Y18415000D01*
X60960000Y20955000D02*
X65405000Y20955000D01*
X57404000Y16002000D02*
X58420000Y17018000D01*
X57404000Y14351000D02*
X57404000Y16002000D01*
X56515000Y13462000D02*
X57404000Y14351000D01*
X48133000Y13462000D02*
X56515000Y13462000D01*
X44958000Y16637000D02*
X48133000Y13462000D01*
X30226000Y16637000D02*
X44958000Y16637000D01*
%TO.N,/D6*%
X71755000Y27305000D02*
X71755000Y24918800D01*
X71755000Y24918800D02*
X65791600Y18955400D01*
X65791600Y18955400D02*
X61244600Y18955400D01*
X57149400Y2703800D02*
X55746800Y1301200D01*
X55746800Y1301200D02*
X45053800Y1301200D01*
X45053800Y1301200D02*
X43180000Y3175000D01*
X60197100Y17907900D02*
X60197100Y12572100D01*
X60197100Y12572100D02*
X57149400Y9524400D01*
X57149400Y9524400D02*
X57149400Y2703800D01*
X61244600Y18955400D02*
X60197100Y17907900D01*
X41865400Y4489600D02*
X43180000Y3175000D01*
X41865400Y8934600D02*
X41865400Y4489600D01*
X36244800Y9779000D02*
X35990800Y9525000D01*
X41021000Y9779000D02*
X36244800Y9779000D01*
X41021000Y9779000D02*
X41865400Y8934600D01*
%TO.N,/D7*%
X67945000Y26035000D02*
X69215000Y27305000D01*
X66361700Y26035000D02*
X67945000Y26035000D01*
X65405000Y25078300D02*
X66361700Y26035000D01*
X65405000Y22860000D02*
X65405000Y25078300D01*
X64516000Y21971000D02*
X65405000Y22860000D01*
X60706000Y21971000D02*
X64516000Y21971000D01*
X57785000Y19050000D02*
X60706000Y21971000D01*
X56578500Y16319500D02*
X57785000Y17526000D01*
X56578500Y14922500D02*
X56578500Y16319500D01*
X57785000Y17526000D02*
X57785000Y19050000D01*
X28448000Y16891000D02*
X29337000Y17780000D01*
X55880000Y14224000D02*
X56578500Y14922500D01*
X48641000Y14224000D02*
X55880000Y14224000D01*
X31496000Y17272000D02*
X30988000Y17780000D01*
X29337000Y17780000D02*
X30988000Y17780000D01*
X45593000Y17272000D02*
X31496000Y17272000D01*
X45593000Y17272000D02*
X48641000Y14224000D01*
%TO.N,/A0*%
X3175000Y34925000D02*
X4445000Y34925000D01*
X7691415Y15946415D02*
X7675585Y15946415D01*
X34417000Y10922000D02*
X32766000Y9271000D01*
X41656000Y10922000D02*
X34417000Y10922000D01*
X43180000Y9398000D02*
X41656000Y10922000D01*
X43180000Y5715000D02*
X43180000Y9398000D01*
X21772585Y10485415D02*
X22987000Y9271000D01*
X13152415Y10485415D02*
X21772585Y10485415D01*
X32766000Y9271000D02*
X22987000Y9271000D01*
X13152415Y10485415D02*
X7691415Y15946415D01*
X2159000Y21463000D02*
X2159000Y33909000D01*
X2159000Y33909000D02*
X3175000Y34925000D01*
X7675585Y15946415D02*
X2159000Y21463000D01*
%TO.N,/A2*%
X55385700Y35481700D02*
X58482400Y32385000D01*
X58482400Y32385000D02*
X59055000Y32385000D01*
X26035000Y29210000D02*
X26035000Y27438000D01*
X26035000Y27438000D02*
X24632000Y26035000D01*
X15875000Y26035000D02*
X14605000Y24765000D01*
X20574000Y26035000D02*
X15875000Y26035000D01*
X24632000Y26035000D02*
X20574000Y26035000D01*
X20574000Y26035000D02*
X16793300Y26035000D01*
X26035000Y29210000D02*
X26035000Y30607000D01*
X26035000Y30607000D02*
X27305000Y31877000D01*
X27305000Y31877000D02*
X27305000Y34925000D01*
X27305000Y34925000D02*
X28448000Y36068000D01*
X50516400Y36068000D02*
X51102700Y35481700D01*
X28448000Y36068000D02*
X50516400Y36068000D01*
X51102700Y35481700D02*
X55385700Y35481700D01*
%TO.N,/A3*%
X60364000Y36156000D02*
X61595000Y34925000D01*
X58000000Y36156000D02*
X60364000Y36156000D01*
X55971010Y38184990D02*
X58000000Y36156000D01*
X26754990Y38184990D02*
X55971010Y38184990D01*
X24973000Y36403000D02*
X26754990Y38184990D01*
X24973000Y34209000D02*
X24973000Y36403000D01*
X24419000Y33655000D02*
X24973000Y34209000D01*
X13335000Y33655000D02*
X24419000Y33655000D01*
X9525000Y37465000D02*
X13335000Y33655000D01*
%TO.N,/A4*%
X25654000Y33401000D02*
X25654000Y35941000D01*
X25654000Y33401000D02*
X24003000Y31750000D01*
X25654000Y35941000D02*
X27178000Y37465000D01*
X51308000Y37465000D02*
X51689000Y37084000D01*
X27178000Y37465000D02*
X51308000Y37465000D01*
X52324000Y37084000D02*
X51689000Y37084000D01*
%TO.N,/A5*%
X14605000Y40005000D02*
X15693300Y41093300D01*
X15693300Y41093300D02*
X62090100Y41093300D01*
X62090100Y41093300D02*
X62683300Y40500100D01*
X62683300Y40500100D02*
X62683300Y38553300D01*
X62683300Y38553300D02*
X61595000Y37465000D01*
%TO.N,/A6*%
X31178500Y8191500D02*
X30480000Y7493000D01*
X30480000Y7493000D02*
X30480000Y5715000D01*
X37973000Y8763000D02*
X37401500Y8191500D01*
X40386000Y8763000D02*
X37973000Y8763000D01*
X37401500Y8191500D02*
X31178500Y8191500D01*
X59055000Y37465000D02*
X58166000Y37465000D01*
X58166000Y37465000D02*
X56896000Y38735000D01*
X24003000Y36294000D02*
X23925500Y36371500D01*
X24003000Y34798000D02*
X24003000Y36294000D01*
X27178000Y38735000D02*
X26289000Y38735000D01*
X30099000Y38735000D02*
X26289000Y38735000D01*
X23925500Y36371500D02*
X24765000Y37211000D01*
X26289000Y38735000D02*
X24765000Y37211000D01*
X56896000Y38735000D02*
X30099000Y38735000D01*
X30099000Y38735000D02*
X27178000Y38735000D01*
X12065000Y39177000D02*
X12065000Y40005000D01*
X13262000Y37980000D02*
X12065000Y39177000D01*
X13262000Y36849000D02*
X13262000Y37980000D01*
X13916000Y36195000D02*
X13262000Y36849000D01*
X23749000Y36195000D02*
X13916000Y36195000D01*
X23925500Y36371500D02*
X23749000Y36195000D01*
%TO.N,/A7*%
X61087000Y39497000D02*
X61595000Y40005000D01*
X60706000Y39116000D02*
X61087000Y39497000D01*
X57912000Y39116000D02*
X60706000Y39116000D01*
X57658000Y39370000D02*
X57912000Y39116000D01*
X21971000Y39370000D02*
X57658000Y39370000D01*
X21336000Y38735000D02*
X21971000Y39370000D01*
X15875000Y38735000D02*
X21336000Y38735000D01*
X14605000Y37465000D02*
X15875000Y38735000D01*
%TO.N,/A8*%
X30099000Y13589000D02*
X31750000Y15240000D01*
X25400000Y13589000D02*
X30099000Y13589000D01*
X59055000Y14605000D02*
X59055000Y13589000D01*
X59055000Y13589000D02*
X57404000Y11938000D01*
X47625000Y11938000D02*
X44323000Y15240000D01*
X57404000Y11938000D02*
X47625000Y11938000D01*
X31750000Y15240000D02*
X44323000Y15240000D01*
%TO.N,/A10*%
X24765000Y15875000D02*
X22987000Y15875000D01*
X27432000Y18542000D02*
X24765000Y15875000D01*
X22987000Y15875000D02*
X15875000Y15875000D01*
X55499000Y15621000D02*
X54991000Y15113000D01*
X54991000Y15113000D02*
X49149000Y15113000D01*
X55499000Y17653000D02*
X55499000Y15621000D01*
X32258000Y18034000D02*
X31750000Y18542000D01*
X46228000Y18034000D02*
X32258000Y18034000D01*
X31750000Y18542000D02*
X27432000Y18542000D01*
X49149000Y15113000D02*
X46228000Y18034000D01*
%TO.N,/A11*%
X20320000Y3175000D02*
X22744100Y750900D01*
X22744100Y750900D02*
X65836100Y750900D01*
X65836100Y750900D02*
X74468800Y9383600D01*
X74468800Y9383600D02*
X74468800Y32211200D01*
X74468800Y32211200D02*
X71755000Y34925000D01*
%TO.N,/A14*%
X13970000Y17145000D02*
X19050000Y17145000D01*
X9525000Y21590000D02*
X11049000Y20066000D01*
X9525000Y22225000D02*
X9525000Y21590000D01*
X11049000Y20066000D02*
X13970000Y17145000D01*
X10795000Y20320000D02*
X11049000Y20066000D01*
%TO.N,/A15*%
X29908500Y3746500D02*
X30480000Y3175000D01*
X29210000Y4445000D02*
X29908500Y3746500D01*
X29210000Y7112000D02*
X29210000Y4445000D01*
X28702000Y7620000D02*
X29210000Y7112000D01*
X18796000Y7620000D02*
X28702000Y7620000D01*
%TO.N,/~IOCTRL*%
X32004000Y10668000D02*
X33528000Y12192000D01*
X33528000Y12192000D02*
X42672000Y12192000D01*
X42672000Y12192000D02*
X45593000Y9271000D01*
X45593000Y9271000D02*
X50419000Y9271000D01*
X50419000Y9271000D02*
X52070000Y7620000D01*
X52070000Y7620000D02*
X52070000Y4445000D01*
X52070000Y4445000D02*
X53340000Y3175000D01*
X22479000Y11938000D02*
X23749000Y10668000D01*
X15367000Y11938000D02*
X22479000Y11938000D01*
X23749000Y10668000D02*
X32004000Y10668000D01*
%TO.N,/R_~W*%
X49784000Y8636000D02*
X50800000Y7620000D01*
X42164000Y11557000D02*
X45085000Y8636000D01*
X34036000Y11557000D02*
X42164000Y11557000D01*
X50800000Y7620000D02*
X50800000Y5715000D01*
X32385000Y9906000D02*
X34036000Y11557000D01*
X23368000Y9906000D02*
X32385000Y9906000D01*
X13716000Y11049000D02*
X22225000Y11049000D01*
X22225000Y11049000D02*
X23368000Y9906000D01*
X2857500Y21907500D02*
X13716000Y11049000D01*
X2857500Y32067500D02*
X2857500Y21907500D01*
X45085000Y8636000D02*
X49784000Y8636000D01*
X3175000Y32385000D02*
X2857500Y32067500D01*
X4445000Y32385000D02*
X3175000Y32385000D01*
%TO.N,/~IO*%
X4445000Y21590000D02*
X4445000Y24765000D01*
X43053000Y12827000D02*
X33147000Y12827000D01*
X45974000Y9906000D02*
X43053000Y12827000D01*
X51054000Y9906000D02*
X45974000Y9906000D01*
X13208000Y12827000D02*
X4445000Y21590000D01*
X53340000Y7620000D02*
X51054000Y9906000D01*
X33147000Y12827000D02*
X31623000Y11303000D01*
X53340000Y5715000D02*
X53340000Y7620000D01*
X22733000Y12827000D02*
X24257000Y11303000D01*
X13208000Y12827000D02*
X22733000Y12827000D01*
X31623000Y11303000D02*
X24257000Y11303000D01*
%TO.N,/PHI2*%
X55880000Y7620000D02*
X55880000Y5715000D01*
X52197000Y11303000D02*
X55880000Y7620000D01*
X47117000Y11303000D02*
X52197000Y11303000D01*
X44323000Y14097000D02*
X47117000Y11303000D01*
X32004000Y14097000D02*
X44323000Y14097000D01*
X24892000Y12573000D02*
X30480000Y12573000D01*
X23114000Y14351000D02*
X24892000Y12573000D01*
X14224000Y14351000D02*
X23114000Y14351000D01*
X6985000Y21590000D02*
X14224000Y14351000D01*
X30480000Y12573000D02*
X32004000Y14097000D01*
X6985000Y22225000D02*
X6985000Y21590000D01*
D25*
%TO.N,Net-(J2-Pad7)*%
X48641000Y31151000D02*
X48695000Y31205000D01*
X48641000Y28495000D02*
X48641000Y31151000D01*
D23*
%TO.N,Net-(J2-Pad5)*%
X40005000Y26605000D02*
X40005000Y28067000D01*
X40005000Y28067000D02*
X40259000Y28321000D01*
X42037000Y28321000D02*
X42418000Y28702000D01*
X40259000Y28321000D02*
X42037000Y28321000D01*
X43765000Y32308000D02*
X43765000Y31205000D01*
X43053000Y33020000D02*
X43765000Y32308000D01*
%TO.N,Net-(J2-Pad2)*%
X38735000Y21655000D02*
X38735000Y22176800D01*
X36265000Y31205000D02*
X36265000Y29915000D01*
X36265000Y29915000D02*
X34925000Y28575000D01*
X38735000Y22102478D02*
X38735000Y21655000D01*
X34925000Y25912478D02*
X38735000Y22102478D01*
X34925000Y28575000D02*
X34925000Y25912478D01*
%TO.N,/MISO*%
X42545000Y20320000D02*
X42545000Y21655000D01*
X24130000Y22225000D02*
X19685000Y22225000D01*
X27746400Y25841400D02*
X24130000Y22225000D01*
X32306600Y25841400D02*
X27746400Y25841400D01*
X34417000Y23731000D02*
X32306600Y25841400D01*
X34417000Y23495000D02*
X34417000Y23731000D01*
%TO.N,/CS*%
X28655500Y20955000D02*
X27305000Y20955000D01*
X17145000Y20955000D02*
X17780000Y20320000D01*
X17145000Y22225000D02*
X17145000Y20955000D01*
X17780000Y20320000D02*
X26670000Y20320000D01*
X26670000Y20320000D02*
X27305000Y20955000D01*
%TO.N,/A15M*%
X62474800Y41665200D02*
X64135000Y40005000D01*
X14686100Y41665200D02*
X62474800Y41665200D01*
X14295900Y41275000D02*
X14686100Y41665200D01*
X13335000Y41275000D02*
X14295900Y41275000D01*
D25*
%TO.N,/ROM_CE*%
X6985000Y29845000D02*
X7620000Y29845000D01*
D23*
X6985000Y29845000D02*
X7239000Y29845000D01*
X7239000Y29845000D02*
X8255000Y28829000D01*
X8255000Y21590000D02*
X9715500Y20129500D01*
X8255000Y28829000D02*
X8255000Y21590000D01*
X9715500Y20129500D02*
X9525000Y20320000D01*
X14890300Y14954700D02*
X9715500Y20129500D01*
X30130300Y14954700D02*
X14890300Y14954700D01*
X70485000Y28575000D02*
X70485000Y24438600D01*
X31050600Y15875000D02*
X30130300Y14954700D01*
X70485000Y24438600D02*
X65644300Y19597900D01*
X65644300Y19597900D02*
X60872900Y19597900D01*
X60872900Y19597900D02*
X59055000Y17780000D01*
X59055000Y16510000D02*
X58166000Y15621000D01*
X59055000Y17780000D02*
X59055000Y16510000D01*
X58166000Y13716000D02*
X57150000Y12700000D01*
X58166000Y15621000D02*
X58166000Y13716000D01*
X57150000Y12700000D02*
X47879000Y12700000D01*
X47879000Y12700000D02*
X44704000Y15875000D01*
X71755000Y29845000D02*
X70485000Y28575000D01*
X44704000Y15875000D02*
X31050600Y15875000D01*
%TO.N,/MOSI*%
X27305000Y27305000D02*
X24765000Y24765000D01*
X28575500Y27305000D02*
X27305000Y27305000D01*
X22225000Y24765000D02*
X24765000Y24765000D01*
%TO.N,/SCK*%
X28655500Y24130000D02*
X27940000Y24130000D01*
X18415000Y23495000D02*
X17145000Y24765000D01*
X18415000Y21590000D02*
X19050000Y20955000D01*
X18415000Y21590000D02*
X18415000Y23495000D01*
X19050000Y20955000D02*
X24765000Y20955000D01*
X27940000Y24130000D02*
X24765000Y20955000D01*
%TO.N,/A14M*%
X9652000Y29718000D02*
X6985000Y32385000D01*
X14859000Y29718000D02*
X9652000Y29718000D01*
X16002000Y28575000D02*
X14859000Y29718000D01*
X26446900Y32258000D02*
X22763900Y28575000D01*
X26446900Y35717900D02*
X26446900Y32258000D01*
X27432000Y36703000D02*
X26446900Y35717900D01*
X50927000Y36703000D02*
X27432000Y36703000D01*
X51598000Y36032000D02*
X50927000Y36703000D01*
X55717600Y36032000D02*
X51598000Y36032000D01*
X57947300Y33802300D02*
X55717600Y36032000D01*
X65552300Y33802300D02*
X57947300Y33802300D01*
X22763900Y28575000D02*
X16002000Y28575000D01*
X69215000Y37465000D02*
X65552300Y33802300D01*
%TO.N,/ROM_OE*%
X58983585Y43743585D02*
X8183585Y43743585D01*
X60960000Y45720000D02*
X58983585Y43743585D01*
X69215000Y45720000D02*
X60960000Y45720000D01*
X70485000Y44450000D02*
X69215000Y45720000D01*
X70485000Y33655000D02*
X70485000Y44450000D01*
X71755000Y32385000D02*
X70485000Y33655000D01*
X6985000Y42545000D02*
X8183585Y43743585D01*
X6985000Y40005000D02*
X6985000Y42545000D01*
D24*
%TO.N,+3V3*%
X70485000Y10845000D02*
X70485000Y9525000D01*
X70485000Y9525000D02*
X69215000Y8255000D01*
X65405000Y8255000D02*
X63500000Y10160000D01*
X69215000Y8255000D02*
X65405000Y8255000D01*
D23*
X41265000Y30470000D02*
X41265000Y30079700D01*
D24*
X41265000Y31205000D02*
X41265000Y30470000D01*
X41265000Y31205000D02*
X41265000Y30079700D01*
X41275000Y31195000D02*
X41265000Y31205000D01*
X41275000Y29845000D02*
X41275000Y31195000D01*
D26*
X36195000Y26605000D02*
X36195000Y27940000D01*
X36195000Y27940000D02*
X37465000Y29210000D01*
X40640000Y29210000D02*
X41275000Y29845000D01*
X37465000Y29210000D02*
X40640000Y29210000D01*
D24*
X70485000Y10845000D02*
X70485000Y17145000D01*
X53340000Y20320000D02*
X53340000Y17780000D01*
X50546000Y23114000D02*
X53340000Y20320000D01*
X48006000Y23114000D02*
X50546000Y23114000D01*
X46355000Y24765000D02*
X48006000Y23114000D01*
X46355000Y27940000D02*
X46355000Y24765000D01*
X44450000Y29845000D02*
X46355000Y27940000D01*
X41275000Y29845000D02*
X44450000Y29845000D01*
D23*
%TO.N,Net-(J2-Pad1)*%
X33765000Y32495000D02*
X34925000Y33655000D01*
X33765000Y31205000D02*
X33765000Y32495000D01*
X43880000Y26670000D02*
X43815000Y26605000D01*
X45085000Y26670000D02*
X43880000Y26670000D01*
%TO.N,Net-(R4-Pad2)*%
X41275000Y21655000D02*
X41275000Y23495000D01*
X48641000Y25527000D02*
X48641000Y26670000D01*
X48006000Y24892000D02*
X48641000Y25527000D01*
%TO.N,Net-(R2-Pad1)*%
X38735000Y26605000D02*
X38735000Y24765000D01*
X32385000Y24130000D02*
X30480500Y24130000D01*
%TO.N,Net-(R3-Pad1)*%
X42545000Y26605000D02*
X42545000Y25781000D01*
X44323000Y24003000D02*
X44958000Y24003000D01*
X42545000Y25781000D02*
X44323000Y24003000D01*
X30480500Y20955000D02*
X32512000Y20955000D01*
X33147000Y21590000D02*
X33147000Y22733000D01*
X32512000Y20955000D02*
X33147000Y21590000D01*
%TO.N,Net-(R1-Pad1)*%
X30400500Y27305000D02*
X32318000Y27305000D01*
X32318000Y27305000D02*
X37465000Y22158000D01*
X37465000Y22158000D02*
X37465000Y21655000D01*
%TD*%
D27*
%TO.N,GND*%
X25601928Y48771000D02*
X25605000Y47656750D01*
X25763750Y47498000D01*
X26863000Y47498000D01*
X26863000Y47518000D01*
X27117000Y47518000D01*
X27117000Y47498000D01*
X28216250Y47498000D01*
X28375000Y47656750D01*
X28378072Y48771000D01*
X28368322Y48870000D01*
X52911678Y48870000D01*
X52901928Y48771000D01*
X52905000Y47656750D01*
X53063750Y47498000D01*
X54163000Y47498000D01*
X54163000Y47518000D01*
X54417000Y47518000D01*
X54417000Y47498000D01*
X55516250Y47498000D01*
X55675000Y47656750D01*
X55678072Y48771000D01*
X55668322Y48870000D01*
X75540001Y48870000D01*
X75540000Y660000D01*
X66890712Y660000D01*
X75013419Y8782706D01*
X75044328Y8808072D01*
X75145549Y8931411D01*
X75220763Y9072127D01*
X75267080Y9224812D01*
X75278800Y9343809D01*
X75278800Y9343811D01*
X75282719Y9383599D01*
X75278800Y9423387D01*
X75278800Y32171412D01*
X75282719Y32211200D01*
X75278528Y32253753D01*
X75267080Y32369988D01*
X75220763Y32522673D01*
X75145549Y32663389D01*
X75044328Y32786728D01*
X75013418Y32812095D01*
X73089902Y34735610D01*
X73101200Y34792411D01*
X73101200Y35057589D01*
X73049467Y35317672D01*
X72947987Y35562665D01*
X72800662Y35783153D01*
X72613153Y35970662D01*
X72392665Y36117987D01*
X72206740Y36195000D01*
X72392665Y36272013D01*
X72613153Y36419338D01*
X72800662Y36606847D01*
X72947987Y36827335D01*
X73049467Y37072328D01*
X73101200Y37332411D01*
X73101200Y37597589D01*
X73049467Y37857672D01*
X72947987Y38102665D01*
X72800662Y38323153D01*
X72613153Y38510662D01*
X72392665Y38657987D01*
X72147672Y38759467D01*
X71887589Y38811200D01*
X71622411Y38811200D01*
X71362328Y38759467D01*
X71295000Y38731579D01*
X71295000Y44410213D01*
X71298919Y44450001D01*
X71294433Y44495548D01*
X71283280Y44608788D01*
X71236963Y44761473D01*
X71170317Y44886160D01*
X71161749Y44902190D01*
X71096032Y44982266D01*
X71060528Y45025528D01*
X71029618Y45050895D01*
X69815899Y46264613D01*
X69790528Y46295528D01*
X69667189Y46396749D01*
X69526473Y46471963D01*
X69373788Y46518280D01*
X69254791Y46530000D01*
X69254788Y46530000D01*
X69215000Y46533919D01*
X69175212Y46530000D01*
X60999788Y46530000D01*
X60960000Y46533919D01*
X60920212Y46530000D01*
X60920209Y46530000D01*
X60801212Y46518280D01*
X60648527Y46471963D01*
X60583024Y46436951D01*
X60507810Y46396749D01*
X60443796Y46344214D01*
X60384472Y46295528D01*
X60359105Y46264618D01*
X58648073Y44553585D01*
X8223372Y44553585D01*
X8183584Y44557504D01*
X8143796Y44553585D01*
X8143794Y44553585D01*
X8024797Y44541865D01*
X7872112Y44495548D01*
X7806609Y44460536D01*
X7731395Y44420334D01*
X7675795Y44374704D01*
X7608057Y44319113D01*
X7582692Y44288205D01*
X6440383Y43145895D01*
X6409473Y43120528D01*
X6365409Y43066836D01*
X6308251Y42997189D01*
X6233038Y42856473D01*
X6186721Y42703787D01*
X6171081Y42545000D01*
X6175001Y42505202D01*
X6175000Y41082837D01*
X6126847Y41050662D01*
X5939338Y40863153D01*
X5792013Y40642665D01*
X5690533Y40397672D01*
X5638800Y40137589D01*
X5638800Y39872411D01*
X5690533Y39612328D01*
X5792013Y39367335D01*
X5939338Y39146847D01*
X6126847Y38959338D01*
X6347335Y38812013D01*
X6533260Y38735000D01*
X6347335Y38657987D01*
X6126847Y38510662D01*
X5939338Y38323153D01*
X5792013Y38102665D01*
X5715000Y37916740D01*
X5637987Y38102665D01*
X5490662Y38323153D01*
X5303153Y38510662D01*
X5082665Y38657987D01*
X4837672Y38759467D01*
X4577589Y38811200D01*
X4312411Y38811200D01*
X4052328Y38759467D01*
X3807335Y38657987D01*
X3586847Y38510662D01*
X3399338Y38323153D01*
X3252013Y38102665D01*
X3150533Y37857672D01*
X3098800Y37597589D01*
X3098800Y37332411D01*
X3150533Y37072328D01*
X3252013Y36827335D01*
X3399338Y36606847D01*
X3586847Y36419338D01*
X3807335Y36272013D01*
X3993260Y36195000D01*
X3807335Y36117987D01*
X3586847Y35970662D01*
X3399338Y35783153D01*
X3367163Y35735000D01*
X3214788Y35735000D01*
X3175000Y35738919D01*
X3135212Y35735000D01*
X3135209Y35735000D01*
X3016212Y35723280D01*
X2863527Y35676963D01*
X2815025Y35651038D01*
X2722810Y35601749D01*
X2696079Y35579811D01*
X2599472Y35500528D01*
X2574100Y35469612D01*
X1614383Y34509895D01*
X1583473Y34484528D01*
X1558108Y34453620D01*
X1482251Y34361189D01*
X1412412Y34230528D01*
X1407038Y34220473D01*
X1372674Y34107189D01*
X1360721Y34067787D01*
X1345081Y33909000D01*
X1349001Y33869202D01*
X1349000Y21502788D01*
X1345081Y21463000D01*
X1349000Y21423212D01*
X1349000Y21423210D01*
X1360720Y21304213D01*
X1407037Y21151528D01*
X1427210Y21113787D01*
X1482251Y21010811D01*
X1493792Y20996749D01*
X1583472Y20887472D01*
X1614388Y20862100D01*
X7074690Y15401797D01*
X7100057Y15370887D01*
X7151682Y15328520D01*
X7219251Y15273067D01*
X12551520Y9940797D01*
X12576887Y9909887D01*
X12625830Y9869721D01*
X12700225Y9808666D01*
X12755727Y9779000D01*
X12840942Y9733452D01*
X12993627Y9687135D01*
X13112624Y9675415D01*
X13112626Y9675415D01*
X13152414Y9671496D01*
X13192202Y9675415D01*
X21437073Y9675415D01*
X22386105Y8726382D01*
X22411472Y8695472D01*
X22471708Y8646038D01*
X22534810Y8594251D01*
X22580778Y8569681D01*
X22675527Y8519037D01*
X22828212Y8472720D01*
X22947209Y8461000D01*
X22947211Y8461000D01*
X22986999Y8457081D01*
X23026787Y8461000D01*
X30302487Y8461000D01*
X29935387Y8093899D01*
X29904472Y8068528D01*
X29836570Y7985788D01*
X29803251Y7945189D01*
X29784592Y7910280D01*
X29728037Y7804472D01*
X29712909Y7754603D01*
X29302900Y8164612D01*
X29277528Y8195528D01*
X29154189Y8296749D01*
X29013473Y8371963D01*
X28860788Y8418280D01*
X28741791Y8430000D01*
X28741788Y8430000D01*
X28702000Y8433919D01*
X28662212Y8430000D01*
X19591132Y8430000D01*
X19519520Y8501612D01*
X19333624Y8625824D01*
X19127067Y8711383D01*
X18907788Y8755000D01*
X18684212Y8755000D01*
X18464933Y8711383D01*
X18258376Y8625824D01*
X18072480Y8501612D01*
X17914388Y8343520D01*
X17790176Y8157624D01*
X17704617Y7951067D01*
X17661000Y7731788D01*
X17661000Y7508212D01*
X17704617Y7288933D01*
X17741454Y7200000D01*
X17633740Y7200000D01*
X17346842Y7142932D01*
X17076589Y7030990D01*
X16833368Y6868475D01*
X16626525Y6661632D01*
X16464010Y6418411D01*
X16352068Y6148158D01*
X16295000Y5861260D01*
X16295000Y5568740D01*
X16352068Y5281842D01*
X16464010Y5011589D01*
X16626525Y4768368D01*
X16833368Y4561525D01*
X17006729Y4445689D01*
X16931208Y4203397D01*
X17780000Y3354605D01*
X18628792Y4203397D01*
X18553271Y4445689D01*
X18726632Y4561525D01*
X18933475Y4768368D01*
X19050000Y4942760D01*
X19166525Y4768368D01*
X19373368Y4561525D01*
X19547760Y4445000D01*
X19373368Y4328475D01*
X19166525Y4121632D01*
X19050689Y3948271D01*
X18808397Y4023792D01*
X17959605Y3175000D01*
X18808397Y2326208D01*
X19050689Y2401729D01*
X19166525Y2228368D01*
X19373368Y2021525D01*
X19616589Y1859010D01*
X19886842Y1747068D01*
X20173740Y1690000D01*
X20466260Y1690000D01*
X20627429Y1722059D01*
X21689487Y660000D01*
X660000Y660000D01*
X660000Y2146603D01*
X16931208Y2146603D01*
X17008843Y1897528D01*
X17272883Y1771629D01*
X17556411Y1699661D01*
X17848531Y1684389D01*
X18138019Y1726401D01*
X18413747Y1824081D01*
X18551157Y1897528D01*
X18628792Y2146603D01*
X17780000Y2995395D01*
X16931208Y2146603D01*
X660000Y2146603D01*
X660000Y3106469D01*
X16289389Y3106469D01*
X16331401Y2816981D01*
X16429081Y2541253D01*
X16502528Y2403843D01*
X16751603Y2326208D01*
X17600395Y3175000D01*
X16751603Y4023792D01*
X16502528Y3946157D01*
X16376629Y3682117D01*
X16304661Y3398589D01*
X16289389Y3106469D01*
X660000Y3106469D01*
X660000Y9802298D01*
X3631903Y9802298D01*
X3703486Y9558329D01*
X3958996Y9437429D01*
X4233184Y9368700D01*
X4515512Y9354783D01*
X4795130Y9396213D01*
X5061292Y9491397D01*
X5186514Y9558329D01*
X5258097Y9802298D01*
X4445000Y10615395D01*
X3631903Y9802298D01*
X660000Y9802298D01*
X660000Y10724488D01*
X3004783Y10724488D01*
X3046213Y10444870D01*
X3141397Y10178708D01*
X3208329Y10053486D01*
X3452298Y9981903D01*
X4265395Y10795000D01*
X4624605Y10795000D01*
X5437702Y9981903D01*
X5681671Y10053486D01*
X5802571Y10308996D01*
X5871300Y10583184D01*
X5885217Y10865512D01*
X5843787Y11145130D01*
X5748603Y11411292D01*
X5681671Y11536514D01*
X5437702Y11608097D01*
X4624605Y10795000D01*
X4265395Y10795000D01*
X3452298Y11608097D01*
X3208329Y11536514D01*
X3087429Y11281004D01*
X3018700Y11006816D01*
X3004783Y10724488D01*
X660000Y10724488D01*
X660000Y11787702D01*
X3631903Y11787702D01*
X4445000Y10974605D01*
X5258097Y11787702D01*
X5186514Y12031671D01*
X4931004Y12152571D01*
X4656816Y12221300D01*
X4374488Y12235217D01*
X4094870Y12193787D01*
X3828708Y12098603D01*
X3703486Y12031671D01*
X3631903Y11787702D01*
X660000Y11787702D01*
X660000Y15936335D01*
X3010000Y15936335D01*
X3010000Y15653665D01*
X3065147Y15376426D01*
X3173320Y15115273D01*
X3330363Y14880241D01*
X3530241Y14680363D01*
X3765273Y14523320D01*
X4026426Y14415147D01*
X4303665Y14360000D01*
X4586335Y14360000D01*
X4863574Y14415147D01*
X5124727Y14523320D01*
X5359759Y14680363D01*
X5559637Y14880241D01*
X5716680Y15115273D01*
X5824853Y15376426D01*
X5880000Y15653665D01*
X5880000Y15936335D01*
X5824853Y16213574D01*
X5716680Y16474727D01*
X5559637Y16709759D01*
X5359759Y16909637D01*
X5124727Y17066680D01*
X4863574Y17174853D01*
X4586335Y17230000D01*
X4303665Y17230000D01*
X4026426Y17174853D01*
X3765273Y17066680D01*
X3530241Y16909637D01*
X3330363Y16709759D01*
X3173320Y16474727D01*
X3065147Y16213574D01*
X3010000Y15936335D01*
X660000Y15936335D01*
X660000Y40791184D01*
X1640000Y40791184D01*
X1640000Y40488816D01*
X1698989Y40192257D01*
X1814701Y39912905D01*
X1982688Y39661495D01*
X2196495Y39447688D01*
X2447905Y39279701D01*
X2727257Y39163989D01*
X3023816Y39105000D01*
X3326184Y39105000D01*
X3622743Y39163989D01*
X3902095Y39279701D01*
X4153505Y39447688D01*
X4367312Y39661495D01*
X4535299Y39912905D01*
X4651011Y40192257D01*
X4710000Y40488816D01*
X4710000Y40791184D01*
X4651011Y41087743D01*
X4535299Y41367095D01*
X4367312Y41618505D01*
X4210000Y41775817D01*
X4210000Y44734578D01*
X4280505Y44781688D01*
X4494312Y44995495D01*
X4662299Y45246905D01*
X4778011Y45526257D01*
X4837000Y45822816D01*
X4837000Y45971000D01*
X25601928Y45971000D01*
X25614188Y45846518D01*
X25650498Y45726820D01*
X25709463Y45616506D01*
X25788815Y45519815D01*
X25885506Y45440463D01*
X25995820Y45381498D01*
X26115518Y45345188D01*
X26240000Y45332928D01*
X26704250Y45336000D01*
X26863000Y45494750D01*
X26863000Y47244000D01*
X27117000Y47244000D01*
X27117000Y45494750D01*
X27275750Y45336000D01*
X27740000Y45332928D01*
X27864482Y45345188D01*
X27984180Y45381498D01*
X28094494Y45440463D01*
X28191185Y45519815D01*
X28270537Y45616506D01*
X28329502Y45726820D01*
X28365812Y45846518D01*
X28378072Y45971000D01*
X52901928Y45971000D01*
X52914188Y45846518D01*
X52950498Y45726820D01*
X53009463Y45616506D01*
X53088815Y45519815D01*
X53185506Y45440463D01*
X53295820Y45381498D01*
X53415518Y45345188D01*
X53540000Y45332928D01*
X54004250Y45336000D01*
X54163000Y45494750D01*
X54163000Y47244000D01*
X54417000Y47244000D01*
X54417000Y45494750D01*
X54575750Y45336000D01*
X55040000Y45332928D01*
X55164482Y45345188D01*
X55284180Y45381498D01*
X55394494Y45440463D01*
X55491185Y45519815D01*
X55570537Y45616506D01*
X55629502Y45726820D01*
X55665812Y45846518D01*
X55678072Y45971000D01*
X55675000Y47085250D01*
X55516250Y47244000D01*
X54417000Y47244000D01*
X54163000Y47244000D01*
X53063750Y47244000D01*
X52905000Y47085250D01*
X52901928Y45971000D01*
X28378072Y45971000D01*
X28375000Y47085250D01*
X28216250Y47244000D01*
X27117000Y47244000D01*
X26863000Y47244000D01*
X25763750Y47244000D01*
X25605000Y47085250D01*
X25601928Y45971000D01*
X4837000Y45971000D01*
X4837000Y46125184D01*
X4778011Y46421743D01*
X4662299Y46701095D01*
X4494312Y46952505D01*
X4280505Y47166312D01*
X4029095Y47334299D01*
X3749743Y47450011D01*
X3453184Y47509000D01*
X3150816Y47509000D01*
X2854257Y47450011D01*
X2574905Y47334299D01*
X2323495Y47166312D01*
X2109688Y46952505D01*
X1941701Y46701095D01*
X1825989Y46421743D01*
X1767000Y46125184D01*
X1767000Y45822816D01*
X1825989Y45526257D01*
X1941701Y45246905D01*
X2109688Y44995495D01*
X2140001Y44965182D01*
X2140000Y41775817D01*
X1982688Y41618505D01*
X1814701Y41367095D01*
X1698989Y41087743D01*
X1640000Y40791184D01*
X660000Y40791184D01*
X660000Y48870000D01*
X25611678Y48870000D01*
X25601928Y48771000D01*
%TA.AperFunction,Conductor*%
D28*
G36*
X25601928Y48771000D02*
G01*
X25605000Y47656750D01*
X25763750Y47498000D01*
X26863000Y47498000D01*
X26863000Y47518000D01*
X27117000Y47518000D01*
X27117000Y47498000D01*
X28216250Y47498000D01*
X28375000Y47656750D01*
X28378072Y48771000D01*
X28368322Y48870000D01*
X52911678Y48870000D01*
X52901928Y48771000D01*
X52905000Y47656750D01*
X53063750Y47498000D01*
X54163000Y47498000D01*
X54163000Y47518000D01*
X54417000Y47518000D01*
X54417000Y47498000D01*
X55516250Y47498000D01*
X55675000Y47656750D01*
X55678072Y48771000D01*
X55668322Y48870000D01*
X75540001Y48870000D01*
X75540000Y660000D01*
X66890712Y660000D01*
X75013419Y8782706D01*
X75044328Y8808072D01*
X75145549Y8931411D01*
X75220763Y9072127D01*
X75267080Y9224812D01*
X75278800Y9343809D01*
X75278800Y9343811D01*
X75282719Y9383599D01*
X75278800Y9423387D01*
X75278800Y32171412D01*
X75282719Y32211200D01*
X75278528Y32253753D01*
X75267080Y32369988D01*
X75220763Y32522673D01*
X75145549Y32663389D01*
X75044328Y32786728D01*
X75013418Y32812095D01*
X73089902Y34735610D01*
X73101200Y34792411D01*
X73101200Y35057589D01*
X73049467Y35317672D01*
X72947987Y35562665D01*
X72800662Y35783153D01*
X72613153Y35970662D01*
X72392665Y36117987D01*
X72206740Y36195000D01*
X72392665Y36272013D01*
X72613153Y36419338D01*
X72800662Y36606847D01*
X72947987Y36827335D01*
X73049467Y37072328D01*
X73101200Y37332411D01*
X73101200Y37597589D01*
X73049467Y37857672D01*
X72947987Y38102665D01*
X72800662Y38323153D01*
X72613153Y38510662D01*
X72392665Y38657987D01*
X72147672Y38759467D01*
X71887589Y38811200D01*
X71622411Y38811200D01*
X71362328Y38759467D01*
X71295000Y38731579D01*
X71295000Y44410213D01*
X71298919Y44450001D01*
X71294433Y44495548D01*
X71283280Y44608788D01*
X71236963Y44761473D01*
X71170317Y44886160D01*
X71161749Y44902190D01*
X71096032Y44982266D01*
X71060528Y45025528D01*
X71029618Y45050895D01*
X69815899Y46264613D01*
X69790528Y46295528D01*
X69667189Y46396749D01*
X69526473Y46471963D01*
X69373788Y46518280D01*
X69254791Y46530000D01*
X69254788Y46530000D01*
X69215000Y46533919D01*
X69175212Y46530000D01*
X60999788Y46530000D01*
X60960000Y46533919D01*
X60920212Y46530000D01*
X60920209Y46530000D01*
X60801212Y46518280D01*
X60648527Y46471963D01*
X60583024Y46436951D01*
X60507810Y46396749D01*
X60443796Y46344214D01*
X60384472Y46295528D01*
X60359105Y46264618D01*
X58648073Y44553585D01*
X8223372Y44553585D01*
X8183584Y44557504D01*
X8143796Y44553585D01*
X8143794Y44553585D01*
X8024797Y44541865D01*
X7872112Y44495548D01*
X7806609Y44460536D01*
X7731395Y44420334D01*
X7675795Y44374704D01*
X7608057Y44319113D01*
X7582692Y44288205D01*
X6440383Y43145895D01*
X6409473Y43120528D01*
X6365409Y43066836D01*
X6308251Y42997189D01*
X6233038Y42856473D01*
X6186721Y42703787D01*
X6171081Y42545000D01*
X6175001Y42505202D01*
X6175000Y41082837D01*
X6126847Y41050662D01*
X5939338Y40863153D01*
X5792013Y40642665D01*
X5690533Y40397672D01*
X5638800Y40137589D01*
X5638800Y39872411D01*
X5690533Y39612328D01*
X5792013Y39367335D01*
X5939338Y39146847D01*
X6126847Y38959338D01*
X6347335Y38812013D01*
X6533260Y38735000D01*
X6347335Y38657987D01*
X6126847Y38510662D01*
X5939338Y38323153D01*
X5792013Y38102665D01*
X5715000Y37916740D01*
X5637987Y38102665D01*
X5490662Y38323153D01*
X5303153Y38510662D01*
X5082665Y38657987D01*
X4837672Y38759467D01*
X4577589Y38811200D01*
X4312411Y38811200D01*
X4052328Y38759467D01*
X3807335Y38657987D01*
X3586847Y38510662D01*
X3399338Y38323153D01*
X3252013Y38102665D01*
X3150533Y37857672D01*
X3098800Y37597589D01*
X3098800Y37332411D01*
X3150533Y37072328D01*
X3252013Y36827335D01*
X3399338Y36606847D01*
X3586847Y36419338D01*
X3807335Y36272013D01*
X3993260Y36195000D01*
X3807335Y36117987D01*
X3586847Y35970662D01*
X3399338Y35783153D01*
X3367163Y35735000D01*
X3214788Y35735000D01*
X3175000Y35738919D01*
X3135212Y35735000D01*
X3135209Y35735000D01*
X3016212Y35723280D01*
X2863527Y35676963D01*
X2815025Y35651038D01*
X2722810Y35601749D01*
X2696079Y35579811D01*
X2599472Y35500528D01*
X2574100Y35469612D01*
X1614383Y34509895D01*
X1583473Y34484528D01*
X1558108Y34453620D01*
X1482251Y34361189D01*
X1412412Y34230528D01*
X1407038Y34220473D01*
X1372674Y34107189D01*
X1360721Y34067787D01*
X1345081Y33909000D01*
X1349001Y33869202D01*
X1349000Y21502788D01*
X1345081Y21463000D01*
X1349000Y21423212D01*
X1349000Y21423210D01*
X1360720Y21304213D01*
X1407037Y21151528D01*
X1427210Y21113787D01*
X1482251Y21010811D01*
X1493792Y20996749D01*
X1583472Y20887472D01*
X1614388Y20862100D01*
X7074690Y15401797D01*
X7100057Y15370887D01*
X7151682Y15328520D01*
X7219251Y15273067D01*
X12551520Y9940797D01*
X12576887Y9909887D01*
X12625830Y9869721D01*
X12700225Y9808666D01*
X12755727Y9779000D01*
X12840942Y9733452D01*
X12993627Y9687135D01*
X13112624Y9675415D01*
X13112626Y9675415D01*
X13152414Y9671496D01*
X13192202Y9675415D01*
X21437073Y9675415D01*
X22386105Y8726382D01*
X22411472Y8695472D01*
X22471708Y8646038D01*
X22534810Y8594251D01*
X22580778Y8569681D01*
X22675527Y8519037D01*
X22828212Y8472720D01*
X22947209Y8461000D01*
X22947211Y8461000D01*
X22986999Y8457081D01*
X23026787Y8461000D01*
X30302487Y8461000D01*
X29935387Y8093899D01*
X29904472Y8068528D01*
X29836570Y7985788D01*
X29803251Y7945189D01*
X29784592Y7910280D01*
X29728037Y7804472D01*
X29712909Y7754603D01*
X29302900Y8164612D01*
X29277528Y8195528D01*
X29154189Y8296749D01*
X29013473Y8371963D01*
X28860788Y8418280D01*
X28741791Y8430000D01*
X28741788Y8430000D01*
X28702000Y8433919D01*
X28662212Y8430000D01*
X19591132Y8430000D01*
X19519520Y8501612D01*
X19333624Y8625824D01*
X19127067Y8711383D01*
X18907788Y8755000D01*
X18684212Y8755000D01*
X18464933Y8711383D01*
X18258376Y8625824D01*
X18072480Y8501612D01*
X17914388Y8343520D01*
X17790176Y8157624D01*
X17704617Y7951067D01*
X17661000Y7731788D01*
X17661000Y7508212D01*
X17704617Y7288933D01*
X17741454Y7200000D01*
X17633740Y7200000D01*
X17346842Y7142932D01*
X17076589Y7030990D01*
X16833368Y6868475D01*
X16626525Y6661632D01*
X16464010Y6418411D01*
X16352068Y6148158D01*
X16295000Y5861260D01*
X16295000Y5568740D01*
X16352068Y5281842D01*
X16464010Y5011589D01*
X16626525Y4768368D01*
X16833368Y4561525D01*
X17006729Y4445689D01*
X16931208Y4203397D01*
X17780000Y3354605D01*
X18628792Y4203397D01*
X18553271Y4445689D01*
X18726632Y4561525D01*
X18933475Y4768368D01*
X19050000Y4942760D01*
X19166525Y4768368D01*
X19373368Y4561525D01*
X19547760Y4445000D01*
X19373368Y4328475D01*
X19166525Y4121632D01*
X19050689Y3948271D01*
X18808397Y4023792D01*
X17959605Y3175000D01*
X18808397Y2326208D01*
X19050689Y2401729D01*
X19166525Y2228368D01*
X19373368Y2021525D01*
X19616589Y1859010D01*
X19886842Y1747068D01*
X20173740Y1690000D01*
X20466260Y1690000D01*
X20627429Y1722059D01*
X21689487Y660000D01*
X660000Y660000D01*
X660000Y2146603D01*
X16931208Y2146603D01*
X17008843Y1897528D01*
X17272883Y1771629D01*
X17556411Y1699661D01*
X17848531Y1684389D01*
X18138019Y1726401D01*
X18413747Y1824081D01*
X18551157Y1897528D01*
X18628792Y2146603D01*
X17780000Y2995395D01*
X16931208Y2146603D01*
X660000Y2146603D01*
X660000Y3106469D01*
X16289389Y3106469D01*
X16331401Y2816981D01*
X16429081Y2541253D01*
X16502528Y2403843D01*
X16751603Y2326208D01*
X17600395Y3175000D01*
X16751603Y4023792D01*
X16502528Y3946157D01*
X16376629Y3682117D01*
X16304661Y3398589D01*
X16289389Y3106469D01*
X660000Y3106469D01*
X660000Y9802298D01*
X3631903Y9802298D01*
X3703486Y9558329D01*
X3958996Y9437429D01*
X4233184Y9368700D01*
X4515512Y9354783D01*
X4795130Y9396213D01*
X5061292Y9491397D01*
X5186514Y9558329D01*
X5258097Y9802298D01*
X4445000Y10615395D01*
X3631903Y9802298D01*
X660000Y9802298D01*
X660000Y10724488D01*
X3004783Y10724488D01*
X3046213Y10444870D01*
X3141397Y10178708D01*
X3208329Y10053486D01*
X3452298Y9981903D01*
X4265395Y10795000D01*
X4624605Y10795000D01*
X5437702Y9981903D01*
X5681671Y10053486D01*
X5802571Y10308996D01*
X5871300Y10583184D01*
X5885217Y10865512D01*
X5843787Y11145130D01*
X5748603Y11411292D01*
X5681671Y11536514D01*
X5437702Y11608097D01*
X4624605Y10795000D01*
X4265395Y10795000D01*
X3452298Y11608097D01*
X3208329Y11536514D01*
X3087429Y11281004D01*
X3018700Y11006816D01*
X3004783Y10724488D01*
X660000Y10724488D01*
X660000Y11787702D01*
X3631903Y11787702D01*
X4445000Y10974605D01*
X5258097Y11787702D01*
X5186514Y12031671D01*
X4931004Y12152571D01*
X4656816Y12221300D01*
X4374488Y12235217D01*
X4094870Y12193787D01*
X3828708Y12098603D01*
X3703486Y12031671D01*
X3631903Y11787702D01*
X660000Y11787702D01*
X660000Y15936335D01*
X3010000Y15936335D01*
X3010000Y15653665D01*
X3065147Y15376426D01*
X3173320Y15115273D01*
X3330363Y14880241D01*
X3530241Y14680363D01*
X3765273Y14523320D01*
X4026426Y14415147D01*
X4303665Y14360000D01*
X4586335Y14360000D01*
X4863574Y14415147D01*
X5124727Y14523320D01*
X5359759Y14680363D01*
X5559637Y14880241D01*
X5716680Y15115273D01*
X5824853Y15376426D01*
X5880000Y15653665D01*
X5880000Y15936335D01*
X5824853Y16213574D01*
X5716680Y16474727D01*
X5559637Y16709759D01*
X5359759Y16909637D01*
X5124727Y17066680D01*
X4863574Y17174853D01*
X4586335Y17230000D01*
X4303665Y17230000D01*
X4026426Y17174853D01*
X3765273Y17066680D01*
X3530241Y16909637D01*
X3330363Y16709759D01*
X3173320Y16474727D01*
X3065147Y16213574D01*
X3010000Y15936335D01*
X660000Y15936335D01*
X660000Y40791184D01*
X1640000Y40791184D01*
X1640000Y40488816D01*
X1698989Y40192257D01*
X1814701Y39912905D01*
X1982688Y39661495D01*
X2196495Y39447688D01*
X2447905Y39279701D01*
X2727257Y39163989D01*
X3023816Y39105000D01*
X3326184Y39105000D01*
X3622743Y39163989D01*
X3902095Y39279701D01*
X4153505Y39447688D01*
X4367312Y39661495D01*
X4535299Y39912905D01*
X4651011Y40192257D01*
X4710000Y40488816D01*
X4710000Y40791184D01*
X4651011Y41087743D01*
X4535299Y41367095D01*
X4367312Y41618505D01*
X4210000Y41775817D01*
X4210000Y44734578D01*
X4280505Y44781688D01*
X4494312Y44995495D01*
X4662299Y45246905D01*
X4778011Y45526257D01*
X4837000Y45822816D01*
X4837000Y45971000D01*
X25601928Y45971000D01*
X25614188Y45846518D01*
X25650498Y45726820D01*
X25709463Y45616506D01*
X25788815Y45519815D01*
X25885506Y45440463D01*
X25995820Y45381498D01*
X26115518Y45345188D01*
X26240000Y45332928D01*
X26704250Y45336000D01*
X26863000Y45494750D01*
X26863000Y47244000D01*
X27117000Y47244000D01*
X27117000Y45494750D01*
X27275750Y45336000D01*
X27740000Y45332928D01*
X27864482Y45345188D01*
X27984180Y45381498D01*
X28094494Y45440463D01*
X28191185Y45519815D01*
X28270537Y45616506D01*
X28329502Y45726820D01*
X28365812Y45846518D01*
X28378072Y45971000D01*
X52901928Y45971000D01*
X52914188Y45846518D01*
X52950498Y45726820D01*
X53009463Y45616506D01*
X53088815Y45519815D01*
X53185506Y45440463D01*
X53295820Y45381498D01*
X53415518Y45345188D01*
X53540000Y45332928D01*
X54004250Y45336000D01*
X54163000Y45494750D01*
X54163000Y47244000D01*
X54417000Y47244000D01*
X54417000Y45494750D01*
X54575750Y45336000D01*
X55040000Y45332928D01*
X55164482Y45345188D01*
X55284180Y45381498D01*
X55394494Y45440463D01*
X55491185Y45519815D01*
X55570537Y45616506D01*
X55629502Y45726820D01*
X55665812Y45846518D01*
X55678072Y45971000D01*
X55675000Y47085250D01*
X55516250Y47244000D01*
X54417000Y47244000D01*
X54163000Y47244000D01*
X53063750Y47244000D01*
X52905000Y47085250D01*
X52901928Y45971000D01*
X28378072Y45971000D01*
X28375000Y47085250D01*
X28216250Y47244000D01*
X27117000Y47244000D01*
X26863000Y47244000D01*
X25763750Y47244000D01*
X25605000Y47085250D01*
X25601928Y45971000D01*
X4837000Y45971000D01*
X4837000Y46125184D01*
X4778011Y46421743D01*
X4662299Y46701095D01*
X4494312Y46952505D01*
X4280505Y47166312D01*
X4029095Y47334299D01*
X3749743Y47450011D01*
X3453184Y47509000D01*
X3150816Y47509000D01*
X2854257Y47450011D01*
X2574905Y47334299D01*
X2323495Y47166312D01*
X2109688Y46952505D01*
X1941701Y46701095D01*
X1825989Y46421743D01*
X1767000Y46125184D01*
X1767000Y45822816D01*
X1825989Y45526257D01*
X1941701Y45246905D01*
X2109688Y44995495D01*
X2140001Y44965182D01*
X2140000Y41775817D01*
X1982688Y41618505D01*
X1814701Y41367095D01*
X1698989Y41087743D01*
X1640000Y40791184D01*
X660000Y40791184D01*
X660000Y48870000D01*
X25611678Y48870000D01*
X25601928Y48771000D01*
G37*
%TD.AperFunction*%
D27*
X67946928Y16145000D02*
X67959188Y16020518D01*
X67995498Y15900820D01*
X68054463Y15790506D01*
X68133815Y15693815D01*
X68230506Y15614463D01*
X68340820Y15555498D01*
X68460518Y15519188D01*
X68585000Y15506928D01*
X69450001Y15506928D01*
X69450000Y12412683D01*
X69380506Y12375537D01*
X69335000Y12338191D01*
X69289494Y12375537D01*
X69179180Y12434502D01*
X69059482Y12470812D01*
X68935000Y12483072D01*
X68470750Y12480000D01*
X68312000Y12321250D01*
X68312000Y10972000D01*
X68332000Y10972000D01*
X68332000Y10718000D01*
X68312000Y10718000D01*
X68312000Y10698000D01*
X68058000Y10698000D01*
X68058000Y10718000D01*
X66958750Y10718000D01*
X66800000Y10559250D01*
X66796928Y9845000D01*
X66809188Y9720518D01*
X66845498Y9600820D01*
X66904463Y9490506D01*
X66983815Y9393815D01*
X67080506Y9314463D01*
X67126272Y9290000D01*
X65833711Y9290000D01*
X64938072Y10185638D01*
X64938072Y10960000D01*
X64925812Y11084482D01*
X64889502Y11204180D01*
X64830537Y11314494D01*
X64751185Y11411185D01*
X64654494Y11490537D01*
X64544180Y11549502D01*
X64424482Y11585812D01*
X64300000Y11598072D01*
X62700000Y11598072D01*
X62575518Y11585812D01*
X62455820Y11549502D01*
X62345506Y11490537D01*
X62248815Y11411185D01*
X62238193Y11398242D01*
X61986004Y11517571D01*
X61711816Y11586300D01*
X61429488Y11600217D01*
X61149870Y11558787D01*
X60883708Y11463603D01*
X60758486Y11396671D01*
X60686903Y11152702D01*
X61500000Y10339605D01*
X61514143Y10353747D01*
X61693748Y10174142D01*
X61679605Y10160000D01*
X61693748Y10145857D01*
X61514143Y9966252D01*
X61500000Y9980395D01*
X60686903Y9167298D01*
X60758486Y8923329D01*
X61013996Y8802429D01*
X61288184Y8733700D01*
X61570512Y8719783D01*
X61850130Y8761213D01*
X62116292Y8856397D01*
X62238309Y8921616D01*
X62248815Y8908815D01*
X62345506Y8829463D01*
X62455820Y8770498D01*
X62575518Y8734188D01*
X62700000Y8721928D01*
X63474362Y8721928D01*
X64637197Y7559092D01*
X64669604Y7519604D01*
X64709092Y7487197D01*
X64827202Y7390266D01*
X64923309Y7338896D01*
X65007007Y7294159D01*
X65202105Y7234976D01*
X65354162Y7220000D01*
X65354165Y7220000D01*
X65405000Y7214993D01*
X65455835Y7220000D01*
X69164172Y7220000D01*
X69215000Y7214994D01*
X69265828Y7220000D01*
X69265838Y7220000D01*
X69417895Y7234976D01*
X69612993Y7294159D01*
X69792797Y7390266D01*
X69950396Y7519604D01*
X69982807Y7559097D01*
X71180908Y8757197D01*
X71220396Y8789604D01*
X71275212Y8856397D01*
X71349734Y8947202D01*
X71401104Y9043309D01*
X71445841Y9127007D01*
X71485910Y9259095D01*
X71589494Y9314463D01*
X71635000Y9351809D01*
X71680506Y9314463D01*
X71790820Y9255498D01*
X71910518Y9219188D01*
X72035000Y9206928D01*
X73146615Y9206928D01*
X65500588Y1560900D01*
X57152013Y1560900D01*
X57610775Y2019662D01*
X57648843Y1897528D01*
X57912883Y1771629D01*
X58196411Y1699661D01*
X58488531Y1684389D01*
X58778019Y1726401D01*
X59053747Y1824081D01*
X59191157Y1897528D01*
X59268792Y2146603D01*
X58420000Y2995395D01*
X58405858Y2981252D01*
X58226253Y3160857D01*
X58240395Y3175000D01*
X58599605Y3175000D01*
X59448397Y2326208D01*
X59697472Y2403843D01*
X59823371Y2667883D01*
X59895339Y2951411D01*
X59910611Y3243531D01*
X59868599Y3533019D01*
X59770919Y3808747D01*
X59697472Y3946157D01*
X59448397Y4023792D01*
X58599605Y3175000D01*
X58240395Y3175000D01*
X58226253Y3189142D01*
X58405858Y3368747D01*
X58420000Y3354605D01*
X59268792Y4203397D01*
X59250707Y4261420D01*
X59359850Y4294528D01*
X59513386Y4376595D01*
X59647962Y4487038D01*
X59758405Y4621614D01*
X59840472Y4775150D01*
X59891008Y4941746D01*
X59908072Y5115000D01*
X59908072Y6315000D01*
X59891008Y6488254D01*
X59840472Y6654850D01*
X59758405Y6808386D01*
X59647962Y6942962D01*
X59513386Y7053405D01*
X59359850Y7135472D01*
X59193254Y7186008D01*
X59020000Y7203072D01*
X57959400Y7203072D01*
X57959400Y9188888D01*
X58860000Y10089488D01*
X60059783Y10089488D01*
X60101213Y9809870D01*
X60196397Y9543708D01*
X60263329Y9418486D01*
X60507298Y9346903D01*
X61320395Y10160000D01*
X60507298Y10973097D01*
X60263329Y10901514D01*
X60142429Y10646004D01*
X60073700Y10371816D01*
X60059783Y10089488D01*
X58860000Y10089488D01*
X60615512Y11845000D01*
X66796928Y11845000D01*
X66800000Y11130750D01*
X66958750Y10972000D01*
X68058000Y10972000D01*
X68058000Y12321250D01*
X67899250Y12480000D01*
X67435000Y12483072D01*
X67310518Y12470812D01*
X67190820Y12434502D01*
X67080506Y12375537D01*
X66983815Y12296185D01*
X66904463Y12199494D01*
X66845498Y12089180D01*
X66809188Y11969482D01*
X66796928Y11845000D01*
X60615512Y11845000D01*
X60741718Y11971205D01*
X60772628Y11996572D01*
X60873849Y12119911D01*
X60894151Y12157893D01*
X60949063Y12260626D01*
X60976413Y12350788D01*
X60995380Y12413312D01*
X61007100Y12532309D01*
X61007100Y12532312D01*
X61011019Y12572100D01*
X61007100Y12611888D01*
X61007100Y14787298D01*
X61416903Y14787298D01*
X61488486Y14543329D01*
X61743996Y14422429D01*
X62018184Y14353700D01*
X62300512Y14339783D01*
X62580130Y14381213D01*
X62846292Y14476397D01*
X62971514Y14543329D01*
X63043097Y14787298D01*
X62230000Y15600395D01*
X61416903Y14787298D01*
X61007100Y14787298D01*
X61007100Y15034445D01*
X61237298Y14966903D01*
X62050395Y15780000D01*
X62036253Y15794142D01*
X62215858Y15973747D01*
X62230000Y15959605D01*
X62244143Y15973747D01*
X62423748Y15794142D01*
X62409605Y15780000D01*
X63222702Y14966903D01*
X63466671Y15038486D01*
X63587571Y15293996D01*
X63656300Y15568184D01*
X63670217Y15850512D01*
X63628787Y16130130D01*
X63533603Y16396292D01*
X63468384Y16518309D01*
X63481185Y16528815D01*
X63560537Y16625506D01*
X63619502Y16735820D01*
X63622287Y16745000D01*
X66243172Y16745000D01*
X66294000Y16739994D01*
X66344828Y16745000D01*
X66344838Y16745000D01*
X66496895Y16759976D01*
X66691993Y16819159D01*
X66871797Y16915266D01*
X67029396Y17044604D01*
X67061807Y17084097D01*
X67946928Y17969218D01*
X67946928Y16145000D01*
%TA.AperFunction,Conductor*%
D28*
G36*
X67946928Y16145000D02*
G01*
X67959188Y16020518D01*
X67995498Y15900820D01*
X68054463Y15790506D01*
X68133815Y15693815D01*
X68230506Y15614463D01*
X68340820Y15555498D01*
X68460518Y15519188D01*
X68585000Y15506928D01*
X69450001Y15506928D01*
X69450000Y12412683D01*
X69380506Y12375537D01*
X69335000Y12338191D01*
X69289494Y12375537D01*
X69179180Y12434502D01*
X69059482Y12470812D01*
X68935000Y12483072D01*
X68470750Y12480000D01*
X68312000Y12321250D01*
X68312000Y10972000D01*
X68332000Y10972000D01*
X68332000Y10718000D01*
X68312000Y10718000D01*
X68312000Y10698000D01*
X68058000Y10698000D01*
X68058000Y10718000D01*
X66958750Y10718000D01*
X66800000Y10559250D01*
X66796928Y9845000D01*
X66809188Y9720518D01*
X66845498Y9600820D01*
X66904463Y9490506D01*
X66983815Y9393815D01*
X67080506Y9314463D01*
X67126272Y9290000D01*
X65833711Y9290000D01*
X64938072Y10185638D01*
X64938072Y10960000D01*
X64925812Y11084482D01*
X64889502Y11204180D01*
X64830537Y11314494D01*
X64751185Y11411185D01*
X64654494Y11490537D01*
X64544180Y11549502D01*
X64424482Y11585812D01*
X64300000Y11598072D01*
X62700000Y11598072D01*
X62575518Y11585812D01*
X62455820Y11549502D01*
X62345506Y11490537D01*
X62248815Y11411185D01*
X62238193Y11398242D01*
X61986004Y11517571D01*
X61711816Y11586300D01*
X61429488Y11600217D01*
X61149870Y11558787D01*
X60883708Y11463603D01*
X60758486Y11396671D01*
X60686903Y11152702D01*
X61500000Y10339605D01*
X61514143Y10353747D01*
X61693748Y10174142D01*
X61679605Y10160000D01*
X61693748Y10145857D01*
X61514143Y9966252D01*
X61500000Y9980395D01*
X60686903Y9167298D01*
X60758486Y8923329D01*
X61013996Y8802429D01*
X61288184Y8733700D01*
X61570512Y8719783D01*
X61850130Y8761213D01*
X62116292Y8856397D01*
X62238309Y8921616D01*
X62248815Y8908815D01*
X62345506Y8829463D01*
X62455820Y8770498D01*
X62575518Y8734188D01*
X62700000Y8721928D01*
X63474362Y8721928D01*
X64637197Y7559092D01*
X64669604Y7519604D01*
X64709092Y7487197D01*
X64827202Y7390266D01*
X64923309Y7338896D01*
X65007007Y7294159D01*
X65202105Y7234976D01*
X65354162Y7220000D01*
X65354165Y7220000D01*
X65405000Y7214993D01*
X65455835Y7220000D01*
X69164172Y7220000D01*
X69215000Y7214994D01*
X69265828Y7220000D01*
X69265838Y7220000D01*
X69417895Y7234976D01*
X69612993Y7294159D01*
X69792797Y7390266D01*
X69950396Y7519604D01*
X69982807Y7559097D01*
X71180908Y8757197D01*
X71220396Y8789604D01*
X71275212Y8856397D01*
X71349734Y8947202D01*
X71401104Y9043309D01*
X71445841Y9127007D01*
X71485910Y9259095D01*
X71589494Y9314463D01*
X71635000Y9351809D01*
X71680506Y9314463D01*
X71790820Y9255498D01*
X71910518Y9219188D01*
X72035000Y9206928D01*
X73146615Y9206928D01*
X65500588Y1560900D01*
X57152013Y1560900D01*
X57610775Y2019662D01*
X57648843Y1897528D01*
X57912883Y1771629D01*
X58196411Y1699661D01*
X58488531Y1684389D01*
X58778019Y1726401D01*
X59053747Y1824081D01*
X59191157Y1897528D01*
X59268792Y2146603D01*
X58420000Y2995395D01*
X58405858Y2981252D01*
X58226253Y3160857D01*
X58240395Y3175000D01*
X58599605Y3175000D01*
X59448397Y2326208D01*
X59697472Y2403843D01*
X59823371Y2667883D01*
X59895339Y2951411D01*
X59910611Y3243531D01*
X59868599Y3533019D01*
X59770919Y3808747D01*
X59697472Y3946157D01*
X59448397Y4023792D01*
X58599605Y3175000D01*
X58240395Y3175000D01*
X58226253Y3189142D01*
X58405858Y3368747D01*
X58420000Y3354605D01*
X59268792Y4203397D01*
X59250707Y4261420D01*
X59359850Y4294528D01*
X59513386Y4376595D01*
X59647962Y4487038D01*
X59758405Y4621614D01*
X59840472Y4775150D01*
X59891008Y4941746D01*
X59908072Y5115000D01*
X59908072Y6315000D01*
X59891008Y6488254D01*
X59840472Y6654850D01*
X59758405Y6808386D01*
X59647962Y6942962D01*
X59513386Y7053405D01*
X59359850Y7135472D01*
X59193254Y7186008D01*
X59020000Y7203072D01*
X57959400Y7203072D01*
X57959400Y9188888D01*
X58860000Y10089488D01*
X60059783Y10089488D01*
X60101213Y9809870D01*
X60196397Y9543708D01*
X60263329Y9418486D01*
X60507298Y9346903D01*
X61320395Y10160000D01*
X60507298Y10973097D01*
X60263329Y10901514D01*
X60142429Y10646004D01*
X60073700Y10371816D01*
X60059783Y10089488D01*
X58860000Y10089488D01*
X60615512Y11845000D01*
X66796928Y11845000D01*
X66800000Y11130750D01*
X66958750Y10972000D01*
X68058000Y10972000D01*
X68058000Y12321250D01*
X67899250Y12480000D01*
X67435000Y12483072D01*
X67310518Y12470812D01*
X67190820Y12434502D01*
X67080506Y12375537D01*
X66983815Y12296185D01*
X66904463Y12199494D01*
X66845498Y12089180D01*
X66809188Y11969482D01*
X66796928Y11845000D01*
X60615512Y11845000D01*
X60741718Y11971205D01*
X60772628Y11996572D01*
X60873849Y12119911D01*
X60894151Y12157893D01*
X60949063Y12260626D01*
X60976413Y12350788D01*
X60995380Y12413312D01*
X61007100Y12532309D01*
X61007100Y12532312D01*
X61011019Y12572100D01*
X61007100Y12611888D01*
X61007100Y14787298D01*
X61416903Y14787298D01*
X61488486Y14543329D01*
X61743996Y14422429D01*
X62018184Y14353700D01*
X62300512Y14339783D01*
X62580130Y14381213D01*
X62846292Y14476397D01*
X62971514Y14543329D01*
X63043097Y14787298D01*
X62230000Y15600395D01*
X61416903Y14787298D01*
X61007100Y14787298D01*
X61007100Y15034445D01*
X61237298Y14966903D01*
X62050395Y15780000D01*
X62036253Y15794142D01*
X62215858Y15973747D01*
X62230000Y15959605D01*
X62244143Y15973747D01*
X62423748Y15794142D01*
X62409605Y15780000D01*
X63222702Y14966903D01*
X63466671Y15038486D01*
X63587571Y15293996D01*
X63656300Y15568184D01*
X63670217Y15850512D01*
X63628787Y16130130D01*
X63533603Y16396292D01*
X63468384Y16518309D01*
X63481185Y16528815D01*
X63560537Y16625506D01*
X63619502Y16735820D01*
X63622287Y16745000D01*
X66243172Y16745000D01*
X66294000Y16739994D01*
X66344828Y16745000D01*
X66344838Y16745000D01*
X66496895Y16759976D01*
X66691993Y16819159D01*
X66871797Y16915266D01*
X67029396Y17044604D01*
X67061807Y17084097D01*
X67946928Y17969218D01*
X67946928Y16145000D01*
G37*
%TD.AperFunction*%
D27*
X41402000Y26732000D02*
X41422000Y26732000D01*
X41422000Y26478000D01*
X41402000Y26478000D01*
X41402000Y25153750D01*
X41560750Y24995000D01*
X41575000Y24991928D01*
X41699482Y25004188D01*
X41819180Y25040498D01*
X41929494Y25099463D01*
X41959064Y25123730D01*
X42093418Y25051916D01*
X42143879Y25036609D01*
X43722105Y23458382D01*
X43747472Y23427472D01*
X43807709Y23378037D01*
X43870811Y23326251D01*
X44011526Y23251037D01*
X44020259Y23248388D01*
X44069271Y23233521D01*
X43942000Y23106250D01*
X43942000Y21782000D01*
X44591250Y21782000D01*
X44750000Y21940750D01*
X44753072Y22630000D01*
X44740812Y22754482D01*
X44704502Y22874180D01*
X44691339Y22898806D01*
X44846212Y22868000D01*
X45069788Y22868000D01*
X45289067Y22911617D01*
X45495624Y22997176D01*
X45681520Y23121388D01*
X45839612Y23279480D01*
X45963824Y23465376D01*
X46030337Y23625953D01*
X47238196Y22418093D01*
X47270604Y22378604D01*
X47310092Y22346197D01*
X47428202Y22249266D01*
X47608006Y22153159D01*
X47640161Y22143405D01*
X47803105Y22093976D01*
X47955162Y22079000D01*
X47955165Y22079000D01*
X48006000Y22073993D01*
X48056835Y22079000D01*
X50117290Y22079000D01*
X52305000Y19891289D01*
X52305001Y18915818D01*
X52147688Y18758505D01*
X51979701Y18507095D01*
X51863989Y18227743D01*
X51805000Y17931184D01*
X51805000Y17628816D01*
X51863989Y17332257D01*
X51979701Y17052905D01*
X52147688Y16801495D01*
X52361495Y16587688D01*
X52612905Y16419701D01*
X52892257Y16303989D01*
X53188816Y16245000D01*
X53491184Y16245000D01*
X53787743Y16303989D01*
X54067095Y16419701D01*
X54318505Y16587688D01*
X54532312Y16801495D01*
X54617652Y16929216D01*
X54689000Y16857868D01*
X54689001Y15956513D01*
X54655488Y15923000D01*
X49484513Y15923000D01*
X46828900Y18578612D01*
X46803528Y18609528D01*
X46680189Y18710749D01*
X46539473Y18785963D01*
X46386788Y18832280D01*
X46267791Y18844000D01*
X46267788Y18844000D01*
X46228000Y18847919D01*
X46188212Y18844000D01*
X32593512Y18844000D01*
X32350900Y19086612D01*
X32325528Y19117528D01*
X32202189Y19218749D01*
X32061473Y19293963D01*
X31908788Y19340280D01*
X31789791Y19352000D01*
X31789788Y19352000D01*
X31750000Y19355919D01*
X31710212Y19352000D01*
X27471791Y19352000D01*
X27432000Y19355919D01*
X27273212Y19340280D01*
X27120526Y19293963D01*
X26998838Y19228919D01*
X26979811Y19218749D01*
X26856472Y19117528D01*
X26831105Y19086618D01*
X24429488Y16685000D01*
X20250337Y16685000D01*
X20285619Y16770179D01*
X20335000Y17018439D01*
X20335000Y17271561D01*
X20285619Y17519821D01*
X20188753Y17753676D01*
X20048125Y17964140D01*
X19869140Y18143125D01*
X19658676Y18283753D01*
X19424821Y18380619D01*
X19176561Y18430000D01*
X18923439Y18430000D01*
X18675179Y18380619D01*
X18441324Y18283753D01*
X18230860Y18143125D01*
X18051875Y17964140D01*
X18045768Y17955000D01*
X14305513Y17955000D01*
X11649896Y20610616D01*
X11649892Y20610621D01*
X10964786Y21295727D01*
X11315332Y21295727D01*
X11376152Y21060817D01*
X11616509Y20948798D01*
X11874102Y20885824D01*
X12139030Y20874313D01*
X12401113Y20914709D01*
X12650280Y21005458D01*
X12753848Y21060817D01*
X12814668Y21295727D01*
X12065000Y22045395D01*
X11315332Y21295727D01*
X10964786Y21295727D01*
X10700039Y21560474D01*
X10717987Y21587335D01*
X10795969Y21775600D01*
X10845458Y21639720D01*
X10900817Y21536152D01*
X11135727Y21475332D01*
X11885395Y22225000D01*
X11135727Y22974668D01*
X10900817Y22913848D01*
X10792794Y22682066D01*
X10717987Y22862665D01*
X10570662Y23083153D01*
X10383153Y23270662D01*
X10162665Y23417987D01*
X9976740Y23495000D01*
X10162665Y23572013D01*
X10383153Y23719338D01*
X10570662Y23906847D01*
X10717987Y24127335D01*
X10795000Y24313260D01*
X10872013Y24127335D01*
X11019338Y23906847D01*
X11206847Y23719338D01*
X11427335Y23572013D01*
X11615600Y23494031D01*
X11479720Y23444542D01*
X11376152Y23389183D01*
X11315332Y23154273D01*
X12065000Y22404605D01*
X12814668Y23154273D01*
X12753848Y23389183D01*
X12522066Y23497206D01*
X12702665Y23572013D01*
X12923153Y23719338D01*
X13110662Y23906847D01*
X13257987Y24127335D01*
X13335000Y24313260D01*
X13412013Y24127335D01*
X13559338Y23906847D01*
X13746847Y23719338D01*
X13967335Y23572013D01*
X14153260Y23495000D01*
X13967335Y23417987D01*
X13746847Y23270662D01*
X13559338Y23083153D01*
X13412013Y22862665D01*
X13334031Y22674400D01*
X13284542Y22810280D01*
X13229183Y22913848D01*
X12994273Y22974668D01*
X12244605Y22225000D01*
X12994273Y21475332D01*
X13229183Y21536152D01*
X13337206Y21767934D01*
X13412013Y21587335D01*
X13559338Y21366847D01*
X13746847Y21179338D01*
X13967335Y21032013D01*
X14212328Y20930533D01*
X14472411Y20878800D01*
X14737589Y20878800D01*
X14997672Y20930533D01*
X15242665Y21032013D01*
X15463153Y21179338D01*
X15650662Y21366847D01*
X15797987Y21587335D01*
X15875000Y21773260D01*
X15952013Y21587335D01*
X16099338Y21366847D01*
X16286847Y21179338D01*
X16335001Y21147163D01*
X16335001Y20994798D01*
X16331081Y20955000D01*
X16343194Y20832024D01*
X16346721Y20796212D01*
X16370449Y20717993D01*
X16393038Y20643527D01*
X16468251Y20502811D01*
X16519000Y20440974D01*
X16569473Y20379472D01*
X16600381Y20354107D01*
X17179105Y19775382D01*
X17204472Y19744472D01*
X17327811Y19643251D01*
X17468526Y19568037D01*
X17504063Y19557257D01*
X17621212Y19521720D01*
X17740209Y19510000D01*
X17740212Y19510000D01*
X17780000Y19506081D01*
X17819788Y19510000D01*
X26630212Y19510000D01*
X26670000Y19506081D01*
X26709788Y19510000D01*
X26709791Y19510000D01*
X26828788Y19521720D01*
X26981473Y19568037D01*
X27122189Y19643251D01*
X27245528Y19744472D01*
X27270899Y19775387D01*
X27603227Y20107715D01*
X27654595Y20011613D01*
X27765038Y19877038D01*
X27899613Y19766595D01*
X28053148Y19684528D01*
X28219744Y19633992D01*
X28392998Y19616928D01*
X28918002Y19616928D01*
X29091256Y19633992D01*
X29257852Y19684528D01*
X29411387Y19766595D01*
X29545962Y19877038D01*
X29568000Y19903891D01*
X29590038Y19877038D01*
X29724613Y19766595D01*
X29878148Y19684528D01*
X30044744Y19633992D01*
X30217998Y19616928D01*
X30743002Y19616928D01*
X30916256Y19633992D01*
X31082852Y19684528D01*
X31236387Y19766595D01*
X31370962Y19877038D01*
X31481405Y20011613D01*
X31552703Y20145000D01*
X32472212Y20145000D01*
X32512000Y20141081D01*
X32551788Y20145000D01*
X32551791Y20145000D01*
X32670788Y20156720D01*
X32823473Y20203037D01*
X32964189Y20278251D01*
X33087528Y20379472D01*
X33112899Y20410387D01*
X33382512Y20680000D01*
X35256928Y20680000D01*
X35269188Y20555518D01*
X35305498Y20435820D01*
X35364463Y20325506D01*
X35443815Y20228815D01*
X35540506Y20149463D01*
X35650820Y20090498D01*
X35770518Y20054188D01*
X35895000Y20041928D01*
X35909250Y20045000D01*
X36068000Y20203750D01*
X36068000Y21528000D01*
X35418750Y21528000D01*
X35260000Y21369250D01*
X35256928Y20680000D01*
X33382512Y20680000D01*
X33691619Y20989106D01*
X33722528Y21014472D01*
X33823749Y21137811D01*
X33867166Y21219038D01*
X33898963Y21278526D01*
X33909743Y21314063D01*
X33945280Y21431212D01*
X33957000Y21550209D01*
X33957000Y21550212D01*
X33960919Y21590000D01*
X33957000Y21629788D01*
X33957000Y21937868D01*
X34028612Y22009480D01*
X34152824Y22195376D01*
X34227423Y22375473D01*
X34305212Y22360000D01*
X34528788Y22360000D01*
X34748067Y22403617D01*
X34954624Y22489176D01*
X35140520Y22613388D01*
X35267830Y22740698D01*
X35256928Y22630000D01*
X35260000Y21940750D01*
X35418750Y21782000D01*
X36068000Y21782000D01*
X36068000Y21802000D01*
X36322000Y21802000D01*
X36322000Y21782000D01*
X36342000Y21782000D01*
X36342000Y21528000D01*
X36322000Y21528000D01*
X36322000Y20203750D01*
X36480750Y20045000D01*
X36495000Y20041928D01*
X36619482Y20054188D01*
X36739180Y20090498D01*
X36849494Y20149463D01*
X36879064Y20173730D01*
X37013418Y20101916D01*
X37161255Y20057071D01*
X37315000Y20041928D01*
X37615000Y20041928D01*
X37768745Y20057071D01*
X37916582Y20101916D01*
X38052829Y20174742D01*
X38100000Y20213454D01*
X38147171Y20174742D01*
X38283418Y20101916D01*
X38431255Y20057071D01*
X38585000Y20041928D01*
X38885000Y20041928D01*
X39038745Y20057071D01*
X39186582Y20101916D01*
X39320936Y20173730D01*
X39350506Y20149463D01*
X39460820Y20090498D01*
X39580518Y20054188D01*
X39705000Y20041928D01*
X39719250Y20045000D01*
X39878000Y20203750D01*
X39878000Y21528000D01*
X39858000Y21528000D01*
X39858000Y21782000D01*
X39878000Y21782000D01*
X39878000Y23106250D01*
X40132000Y23106250D01*
X40132000Y21782000D01*
X40152000Y21782000D01*
X40152000Y21528000D01*
X40132000Y21528000D01*
X40132000Y20203750D01*
X40290750Y20045000D01*
X40305000Y20041928D01*
X40429482Y20054188D01*
X40549180Y20090498D01*
X40659494Y20149463D01*
X40689064Y20173730D01*
X40823418Y20101916D01*
X40971255Y20057071D01*
X41125000Y20041928D01*
X41425000Y20041928D01*
X41442728Y20043674D01*
X41453617Y19988933D01*
X41539176Y19782376D01*
X41663388Y19596480D01*
X41821480Y19438388D01*
X42007376Y19314176D01*
X42213933Y19228617D01*
X42433212Y19185000D01*
X42656788Y19185000D01*
X42876067Y19228617D01*
X43082624Y19314176D01*
X43268520Y19438388D01*
X43426612Y19596480D01*
X43550824Y19782376D01*
X43636383Y19988933D01*
X43676906Y20192656D01*
X43688000Y20203750D01*
X43688000Y21528000D01*
X43942000Y21528000D01*
X43942000Y20203750D01*
X44100750Y20045000D01*
X44115000Y20041928D01*
X44239482Y20054188D01*
X44359180Y20090498D01*
X44469494Y20149463D01*
X44566185Y20228815D01*
X44645537Y20325506D01*
X44704502Y20435820D01*
X44740812Y20555518D01*
X44753072Y20680000D01*
X44750000Y21369250D01*
X44591250Y21528000D01*
X43942000Y21528000D01*
X43688000Y21528000D01*
X43668000Y21528000D01*
X43668000Y21782000D01*
X43688000Y21782000D01*
X43688000Y23106250D01*
X43529250Y23265000D01*
X43515000Y23268072D01*
X43390518Y23255812D01*
X43270820Y23219502D01*
X43160506Y23160537D01*
X43130936Y23136270D01*
X42996582Y23208084D01*
X42848745Y23252929D01*
X42695000Y23268072D01*
X42395000Y23268072D01*
X42386939Y23267278D01*
X42410000Y23383212D01*
X42410000Y23606788D01*
X42366383Y23826067D01*
X42280824Y24032624D01*
X42156612Y24218520D01*
X41998520Y24376612D01*
X41812624Y24500824D01*
X41606067Y24586383D01*
X41386788Y24630000D01*
X41163212Y24630000D01*
X40943933Y24586383D01*
X40737376Y24500824D01*
X40551480Y24376612D01*
X40393388Y24218520D01*
X40269176Y24032624D01*
X40183617Y23826067D01*
X40140000Y23606788D01*
X40140000Y23383212D01*
X40183617Y23163933D01*
X40185394Y23159644D01*
X40132000Y23106250D01*
X39878000Y23106250D01*
X39719250Y23265000D01*
X39705000Y23268072D01*
X39580518Y23255812D01*
X39460820Y23219502D01*
X39350506Y23160537D01*
X39320936Y23136270D01*
X39186582Y23208084D01*
X39038745Y23252929D01*
X38885000Y23268072D01*
X38714919Y23268072D01*
X38242510Y23740481D01*
X38403933Y23673617D01*
X38623212Y23630000D01*
X38846788Y23630000D01*
X39066067Y23673617D01*
X39272624Y23759176D01*
X39458520Y23883388D01*
X39616612Y24041480D01*
X39740824Y24227376D01*
X39826383Y24433933D01*
X39870000Y24653212D01*
X39870000Y24876788D01*
X39846939Y24992722D01*
X39855000Y24991928D01*
X40155000Y24991928D01*
X40308745Y25007071D01*
X40456582Y25051916D01*
X40590936Y25123730D01*
X40620506Y25099463D01*
X40730820Y25040498D01*
X40850518Y25004188D01*
X40975000Y24991928D01*
X40989250Y24995000D01*
X41148000Y25153750D01*
X41148000Y26478000D01*
X41128000Y26478000D01*
X41128000Y26732000D01*
X41148000Y26732000D01*
X41148000Y26752000D01*
X41402000Y26752000D01*
X41402000Y26732000D01*
%TA.AperFunction,Conductor*%
D28*
G36*
X41402000Y26732000D02*
G01*
X41422000Y26732000D01*
X41422000Y26478000D01*
X41402000Y26478000D01*
X41402000Y25153750D01*
X41560750Y24995000D01*
X41575000Y24991928D01*
X41699482Y25004188D01*
X41819180Y25040498D01*
X41929494Y25099463D01*
X41959064Y25123730D01*
X42093418Y25051916D01*
X42143879Y25036609D01*
X43722105Y23458382D01*
X43747472Y23427472D01*
X43807709Y23378037D01*
X43870811Y23326251D01*
X44011526Y23251037D01*
X44020259Y23248388D01*
X44069271Y23233521D01*
X43942000Y23106250D01*
X43942000Y21782000D01*
X44591250Y21782000D01*
X44750000Y21940750D01*
X44753072Y22630000D01*
X44740812Y22754482D01*
X44704502Y22874180D01*
X44691339Y22898806D01*
X44846212Y22868000D01*
X45069788Y22868000D01*
X45289067Y22911617D01*
X45495624Y22997176D01*
X45681520Y23121388D01*
X45839612Y23279480D01*
X45963824Y23465376D01*
X46030337Y23625953D01*
X47238196Y22418093D01*
X47270604Y22378604D01*
X47310092Y22346197D01*
X47428202Y22249266D01*
X47608006Y22153159D01*
X47640161Y22143405D01*
X47803105Y22093976D01*
X47955162Y22079000D01*
X47955165Y22079000D01*
X48006000Y22073993D01*
X48056835Y22079000D01*
X50117290Y22079000D01*
X52305000Y19891289D01*
X52305001Y18915818D01*
X52147688Y18758505D01*
X51979701Y18507095D01*
X51863989Y18227743D01*
X51805000Y17931184D01*
X51805000Y17628816D01*
X51863989Y17332257D01*
X51979701Y17052905D01*
X52147688Y16801495D01*
X52361495Y16587688D01*
X52612905Y16419701D01*
X52892257Y16303989D01*
X53188816Y16245000D01*
X53491184Y16245000D01*
X53787743Y16303989D01*
X54067095Y16419701D01*
X54318505Y16587688D01*
X54532312Y16801495D01*
X54617652Y16929216D01*
X54689000Y16857868D01*
X54689001Y15956513D01*
X54655488Y15923000D01*
X49484513Y15923000D01*
X46828900Y18578612D01*
X46803528Y18609528D01*
X46680189Y18710749D01*
X46539473Y18785963D01*
X46386788Y18832280D01*
X46267791Y18844000D01*
X46267788Y18844000D01*
X46228000Y18847919D01*
X46188212Y18844000D01*
X32593512Y18844000D01*
X32350900Y19086612D01*
X32325528Y19117528D01*
X32202189Y19218749D01*
X32061473Y19293963D01*
X31908788Y19340280D01*
X31789791Y19352000D01*
X31789788Y19352000D01*
X31750000Y19355919D01*
X31710212Y19352000D01*
X27471791Y19352000D01*
X27432000Y19355919D01*
X27273212Y19340280D01*
X27120526Y19293963D01*
X26998838Y19228919D01*
X26979811Y19218749D01*
X26856472Y19117528D01*
X26831105Y19086618D01*
X24429488Y16685000D01*
X20250337Y16685000D01*
X20285619Y16770179D01*
X20335000Y17018439D01*
X20335000Y17271561D01*
X20285619Y17519821D01*
X20188753Y17753676D01*
X20048125Y17964140D01*
X19869140Y18143125D01*
X19658676Y18283753D01*
X19424821Y18380619D01*
X19176561Y18430000D01*
X18923439Y18430000D01*
X18675179Y18380619D01*
X18441324Y18283753D01*
X18230860Y18143125D01*
X18051875Y17964140D01*
X18045768Y17955000D01*
X14305513Y17955000D01*
X11649896Y20610616D01*
X11649892Y20610621D01*
X10964786Y21295727D01*
X11315332Y21295727D01*
X11376152Y21060817D01*
X11616509Y20948798D01*
X11874102Y20885824D01*
X12139030Y20874313D01*
X12401113Y20914709D01*
X12650280Y21005458D01*
X12753848Y21060817D01*
X12814668Y21295727D01*
X12065000Y22045395D01*
X11315332Y21295727D01*
X10964786Y21295727D01*
X10700039Y21560474D01*
X10717987Y21587335D01*
X10795969Y21775600D01*
X10845458Y21639720D01*
X10900817Y21536152D01*
X11135727Y21475332D01*
X11885395Y22225000D01*
X11135727Y22974668D01*
X10900817Y22913848D01*
X10792794Y22682066D01*
X10717987Y22862665D01*
X10570662Y23083153D01*
X10383153Y23270662D01*
X10162665Y23417987D01*
X9976740Y23495000D01*
X10162665Y23572013D01*
X10383153Y23719338D01*
X10570662Y23906847D01*
X10717987Y24127335D01*
X10795000Y24313260D01*
X10872013Y24127335D01*
X11019338Y23906847D01*
X11206847Y23719338D01*
X11427335Y23572013D01*
X11615600Y23494031D01*
X11479720Y23444542D01*
X11376152Y23389183D01*
X11315332Y23154273D01*
X12065000Y22404605D01*
X12814668Y23154273D01*
X12753848Y23389183D01*
X12522066Y23497206D01*
X12702665Y23572013D01*
X12923153Y23719338D01*
X13110662Y23906847D01*
X13257987Y24127335D01*
X13335000Y24313260D01*
X13412013Y24127335D01*
X13559338Y23906847D01*
X13746847Y23719338D01*
X13967335Y23572013D01*
X14153260Y23495000D01*
X13967335Y23417987D01*
X13746847Y23270662D01*
X13559338Y23083153D01*
X13412013Y22862665D01*
X13334031Y22674400D01*
X13284542Y22810280D01*
X13229183Y22913848D01*
X12994273Y22974668D01*
X12244605Y22225000D01*
X12994273Y21475332D01*
X13229183Y21536152D01*
X13337206Y21767934D01*
X13412013Y21587335D01*
X13559338Y21366847D01*
X13746847Y21179338D01*
X13967335Y21032013D01*
X14212328Y20930533D01*
X14472411Y20878800D01*
X14737589Y20878800D01*
X14997672Y20930533D01*
X15242665Y21032013D01*
X15463153Y21179338D01*
X15650662Y21366847D01*
X15797987Y21587335D01*
X15875000Y21773260D01*
X15952013Y21587335D01*
X16099338Y21366847D01*
X16286847Y21179338D01*
X16335001Y21147163D01*
X16335001Y20994798D01*
X16331081Y20955000D01*
X16343194Y20832024D01*
X16346721Y20796212D01*
X16370449Y20717993D01*
X16393038Y20643527D01*
X16468251Y20502811D01*
X16519000Y20440974D01*
X16569473Y20379472D01*
X16600381Y20354107D01*
X17179105Y19775382D01*
X17204472Y19744472D01*
X17327811Y19643251D01*
X17468526Y19568037D01*
X17504063Y19557257D01*
X17621212Y19521720D01*
X17740209Y19510000D01*
X17740212Y19510000D01*
X17780000Y19506081D01*
X17819788Y19510000D01*
X26630212Y19510000D01*
X26670000Y19506081D01*
X26709788Y19510000D01*
X26709791Y19510000D01*
X26828788Y19521720D01*
X26981473Y19568037D01*
X27122189Y19643251D01*
X27245528Y19744472D01*
X27270899Y19775387D01*
X27603227Y20107715D01*
X27654595Y20011613D01*
X27765038Y19877038D01*
X27899613Y19766595D01*
X28053148Y19684528D01*
X28219744Y19633992D01*
X28392998Y19616928D01*
X28918002Y19616928D01*
X29091256Y19633992D01*
X29257852Y19684528D01*
X29411387Y19766595D01*
X29545962Y19877038D01*
X29568000Y19903891D01*
X29590038Y19877038D01*
X29724613Y19766595D01*
X29878148Y19684528D01*
X30044744Y19633992D01*
X30217998Y19616928D01*
X30743002Y19616928D01*
X30916256Y19633992D01*
X31082852Y19684528D01*
X31236387Y19766595D01*
X31370962Y19877038D01*
X31481405Y20011613D01*
X31552703Y20145000D01*
X32472212Y20145000D01*
X32512000Y20141081D01*
X32551788Y20145000D01*
X32551791Y20145000D01*
X32670788Y20156720D01*
X32823473Y20203037D01*
X32964189Y20278251D01*
X33087528Y20379472D01*
X33112899Y20410387D01*
X33382512Y20680000D01*
X35256928Y20680000D01*
X35269188Y20555518D01*
X35305498Y20435820D01*
X35364463Y20325506D01*
X35443815Y20228815D01*
X35540506Y20149463D01*
X35650820Y20090498D01*
X35770518Y20054188D01*
X35895000Y20041928D01*
X35909250Y20045000D01*
X36068000Y20203750D01*
X36068000Y21528000D01*
X35418750Y21528000D01*
X35260000Y21369250D01*
X35256928Y20680000D01*
X33382512Y20680000D01*
X33691619Y20989106D01*
X33722528Y21014472D01*
X33823749Y21137811D01*
X33867166Y21219038D01*
X33898963Y21278526D01*
X33909743Y21314063D01*
X33945280Y21431212D01*
X33957000Y21550209D01*
X33957000Y21550212D01*
X33960919Y21590000D01*
X33957000Y21629788D01*
X33957000Y21937868D01*
X34028612Y22009480D01*
X34152824Y22195376D01*
X34227423Y22375473D01*
X34305212Y22360000D01*
X34528788Y22360000D01*
X34748067Y22403617D01*
X34954624Y22489176D01*
X35140520Y22613388D01*
X35267830Y22740698D01*
X35256928Y22630000D01*
X35260000Y21940750D01*
X35418750Y21782000D01*
X36068000Y21782000D01*
X36068000Y21802000D01*
X36322000Y21802000D01*
X36322000Y21782000D01*
X36342000Y21782000D01*
X36342000Y21528000D01*
X36322000Y21528000D01*
X36322000Y20203750D01*
X36480750Y20045000D01*
X36495000Y20041928D01*
X36619482Y20054188D01*
X36739180Y20090498D01*
X36849494Y20149463D01*
X36879064Y20173730D01*
X37013418Y20101916D01*
X37161255Y20057071D01*
X37315000Y20041928D01*
X37615000Y20041928D01*
X37768745Y20057071D01*
X37916582Y20101916D01*
X38052829Y20174742D01*
X38100000Y20213454D01*
X38147171Y20174742D01*
X38283418Y20101916D01*
X38431255Y20057071D01*
X38585000Y20041928D01*
X38885000Y20041928D01*
X39038745Y20057071D01*
X39186582Y20101916D01*
X39320936Y20173730D01*
X39350506Y20149463D01*
X39460820Y20090498D01*
X39580518Y20054188D01*
X39705000Y20041928D01*
X39719250Y20045000D01*
X39878000Y20203750D01*
X39878000Y21528000D01*
X39858000Y21528000D01*
X39858000Y21782000D01*
X39878000Y21782000D01*
X39878000Y23106250D01*
X40132000Y23106250D01*
X40132000Y21782000D01*
X40152000Y21782000D01*
X40152000Y21528000D01*
X40132000Y21528000D01*
X40132000Y20203750D01*
X40290750Y20045000D01*
X40305000Y20041928D01*
X40429482Y20054188D01*
X40549180Y20090498D01*
X40659494Y20149463D01*
X40689064Y20173730D01*
X40823418Y20101916D01*
X40971255Y20057071D01*
X41125000Y20041928D01*
X41425000Y20041928D01*
X41442728Y20043674D01*
X41453617Y19988933D01*
X41539176Y19782376D01*
X41663388Y19596480D01*
X41821480Y19438388D01*
X42007376Y19314176D01*
X42213933Y19228617D01*
X42433212Y19185000D01*
X42656788Y19185000D01*
X42876067Y19228617D01*
X43082624Y19314176D01*
X43268520Y19438388D01*
X43426612Y19596480D01*
X43550824Y19782376D01*
X43636383Y19988933D01*
X43676906Y20192656D01*
X43688000Y20203750D01*
X43688000Y21528000D01*
X43942000Y21528000D01*
X43942000Y20203750D01*
X44100750Y20045000D01*
X44115000Y20041928D01*
X44239482Y20054188D01*
X44359180Y20090498D01*
X44469494Y20149463D01*
X44566185Y20228815D01*
X44645537Y20325506D01*
X44704502Y20435820D01*
X44740812Y20555518D01*
X44753072Y20680000D01*
X44750000Y21369250D01*
X44591250Y21528000D01*
X43942000Y21528000D01*
X43688000Y21528000D01*
X43668000Y21528000D01*
X43668000Y21782000D01*
X43688000Y21782000D01*
X43688000Y23106250D01*
X43529250Y23265000D01*
X43515000Y23268072D01*
X43390518Y23255812D01*
X43270820Y23219502D01*
X43160506Y23160537D01*
X43130936Y23136270D01*
X42996582Y23208084D01*
X42848745Y23252929D01*
X42695000Y23268072D01*
X42395000Y23268072D01*
X42386939Y23267278D01*
X42410000Y23383212D01*
X42410000Y23606788D01*
X42366383Y23826067D01*
X42280824Y24032624D01*
X42156612Y24218520D01*
X41998520Y24376612D01*
X41812624Y24500824D01*
X41606067Y24586383D01*
X41386788Y24630000D01*
X41163212Y24630000D01*
X40943933Y24586383D01*
X40737376Y24500824D01*
X40551480Y24376612D01*
X40393388Y24218520D01*
X40269176Y24032624D01*
X40183617Y23826067D01*
X40140000Y23606788D01*
X40140000Y23383212D01*
X40183617Y23163933D01*
X40185394Y23159644D01*
X40132000Y23106250D01*
X39878000Y23106250D01*
X39719250Y23265000D01*
X39705000Y23268072D01*
X39580518Y23255812D01*
X39460820Y23219502D01*
X39350506Y23160537D01*
X39320936Y23136270D01*
X39186582Y23208084D01*
X39038745Y23252929D01*
X38885000Y23268072D01*
X38714919Y23268072D01*
X38242510Y23740481D01*
X38403933Y23673617D01*
X38623212Y23630000D01*
X38846788Y23630000D01*
X39066067Y23673617D01*
X39272624Y23759176D01*
X39458520Y23883388D01*
X39616612Y24041480D01*
X39740824Y24227376D01*
X39826383Y24433933D01*
X39870000Y24653212D01*
X39870000Y24876788D01*
X39846939Y24992722D01*
X39855000Y24991928D01*
X40155000Y24991928D01*
X40308745Y25007071D01*
X40456582Y25051916D01*
X40590936Y25123730D01*
X40620506Y25099463D01*
X40730820Y25040498D01*
X40850518Y25004188D01*
X40975000Y24991928D01*
X40989250Y24995000D01*
X41148000Y25153750D01*
X41148000Y26478000D01*
X41128000Y26478000D01*
X41128000Y26732000D01*
X41148000Y26732000D01*
X41148000Y26752000D01*
X41402000Y26752000D01*
X41402000Y26732000D01*
G37*
%TD.AperFunction*%
D27*
X30225241Y35119637D02*
X30119674Y35014070D01*
X30064482Y35030812D01*
X29940000Y35043072D01*
X29475750Y35040000D01*
X29317000Y34881250D01*
X29317000Y33132000D01*
X29337000Y33132000D01*
X29337000Y32878000D01*
X29317000Y32878000D01*
X29317000Y31128750D01*
X29475750Y30970000D01*
X29940000Y30966928D01*
X30064482Y30979188D01*
X30126928Y30998131D01*
X30126928Y30455000D01*
X30139188Y30330518D01*
X30175498Y30210820D01*
X30234463Y30100506D01*
X30313815Y30003815D01*
X30410506Y29924463D01*
X30520820Y29865498D01*
X30640518Y29829188D01*
X30765000Y29816928D01*
X31765000Y29816928D01*
X31889482Y29829188D01*
X32009180Y29865498D01*
X32119494Y29924463D01*
X32216185Y30003815D01*
X32295537Y30100506D01*
X32354502Y30210820D01*
X32390812Y30330518D01*
X32403072Y30455000D01*
X32403072Y31955000D01*
X32626928Y31955000D01*
X32626928Y30455000D01*
X32639188Y30330518D01*
X32675498Y30210820D01*
X32734463Y30100506D01*
X32813815Y30003815D01*
X32910506Y29924463D01*
X33020820Y29865498D01*
X33140518Y29829188D01*
X33265000Y29816928D01*
X34265000Y29816928D01*
X34389482Y29829188D01*
X34509180Y29865498D01*
X34619494Y29924463D01*
X34716185Y30003815D01*
X34795537Y30100506D01*
X34854502Y30210820D01*
X34890812Y30330518D01*
X34903072Y30455000D01*
X34903072Y31955000D01*
X34890812Y32079482D01*
X34854502Y32199180D01*
X34795537Y32309494D01*
X34763745Y32348233D01*
X34935513Y32520000D01*
X35036788Y32520000D01*
X35256067Y32563617D01*
X35462624Y32649176D01*
X35648520Y32773388D01*
X35806612Y32931480D01*
X35930824Y33117376D01*
X36016383Y33323933D01*
X36060000Y33543212D01*
X36060000Y33766788D01*
X36016383Y33986067D01*
X35930824Y34192624D01*
X35806612Y34378520D01*
X35648520Y34536612D01*
X35462624Y34660824D01*
X35256067Y34746383D01*
X35036788Y34790000D01*
X34813212Y34790000D01*
X34593933Y34746383D01*
X34387376Y34660824D01*
X34201480Y34536612D01*
X34043388Y34378520D01*
X33919176Y34192624D01*
X33833617Y33986067D01*
X33790000Y33766788D01*
X33790000Y33665513D01*
X33220383Y33095895D01*
X33189473Y33070528D01*
X33164108Y33039620D01*
X33088251Y32947189D01*
X33023193Y32825472D01*
X33013038Y32806473D01*
X32969634Y32663389D01*
X32966721Y32653787D01*
X32952352Y32507905D01*
X32910506Y32485537D01*
X32813815Y32406185D01*
X32734463Y32309494D01*
X32675498Y32199180D01*
X32639188Y32079482D01*
X32626928Y31955000D01*
X32403072Y31955000D01*
X32390812Y32079482D01*
X32354502Y32199180D01*
X32295537Y32309494D01*
X32216185Y32406185D01*
X32119494Y32485537D01*
X32009180Y32544502D01*
X31889482Y32580812D01*
X31765000Y32593072D01*
X31397324Y32593072D01*
X31558574Y32625147D01*
X31819727Y32733320D01*
X32054759Y32890363D01*
X32254637Y33090241D01*
X32411680Y33325273D01*
X32519853Y33586426D01*
X32575000Y33863665D01*
X32575000Y34146335D01*
X32519853Y34423574D01*
X32411680Y34684727D01*
X32254637Y34919759D01*
X32054759Y35119637D01*
X31847684Y35258000D01*
X50180888Y35258000D01*
X50501805Y34937083D01*
X50527172Y34906172D01*
X50650511Y34804951D01*
X50791227Y34729737D01*
X50943912Y34683420D01*
X51062909Y34671700D01*
X51062911Y34671700D01*
X51102699Y34667781D01*
X51142487Y34671700D01*
X51160287Y34671700D01*
X51089866Y34566308D01*
X51000539Y34350652D01*
X50955000Y34121712D01*
X50955000Y33888288D01*
X51000539Y33659348D01*
X51089866Y33443692D01*
X51219550Y33249606D01*
X51384606Y33084550D01*
X51578692Y32954866D01*
X51794348Y32865539D01*
X52023288Y32820000D01*
X52256712Y32820000D01*
X52485652Y32865539D01*
X52701308Y32954866D01*
X52895394Y33084550D01*
X53003297Y33192453D01*
X53063750Y33132000D01*
X54163000Y33132000D01*
X54163000Y33152000D01*
X54417000Y33152000D01*
X54417000Y33132000D01*
X55516250Y33132000D01*
X55675000Y33290750D01*
X55677079Y34044809D01*
X57782435Y31939452D01*
X57862013Y31747335D01*
X58009338Y31526847D01*
X58196847Y31339338D01*
X58417335Y31192013D01*
X58603260Y31115000D01*
X58417335Y31037987D01*
X58196847Y30890662D01*
X58009338Y30703153D01*
X57862013Y30482665D01*
X57760533Y30237672D01*
X57708800Y29977589D01*
X57708800Y29712411D01*
X57760533Y29452328D01*
X57788421Y29385000D01*
X54649787Y29385000D01*
X54609999Y29388919D01*
X54570211Y29385000D01*
X54570209Y29385000D01*
X54451212Y29373280D01*
X54298527Y29326963D01*
X54253493Y29302892D01*
X54157810Y29251749D01*
X54114657Y29216334D01*
X54034472Y29150528D01*
X54009107Y29119620D01*
X53329488Y28440000D01*
X53228212Y28440000D01*
X53008933Y28396383D01*
X52802376Y28310824D01*
X52616480Y28186612D01*
X52458388Y28028520D01*
X52334176Y27842624D01*
X52248617Y27636067D01*
X52205000Y27416788D01*
X52205000Y27193212D01*
X52248617Y26973933D01*
X52334176Y26767376D01*
X52458388Y26581480D01*
X52616480Y26423388D01*
X52701411Y26366639D01*
X52551288Y26396500D01*
X52327712Y26396500D01*
X52108433Y26352883D01*
X51901876Y26267324D01*
X51715980Y26143112D01*
X51557888Y25985020D01*
X51433676Y25799124D01*
X51348117Y25592567D01*
X51304500Y25373288D01*
X51304500Y25149712D01*
X51348117Y24930433D01*
X51433676Y24723876D01*
X51557888Y24537980D01*
X51715980Y24379888D01*
X51901876Y24255676D01*
X52108433Y24170117D01*
X52327712Y24126500D01*
X52551288Y24126500D01*
X52770567Y24170117D01*
X52977124Y24255676D01*
X53163020Y24379888D01*
X53234632Y24451500D01*
X59907212Y24451500D01*
X59947000Y24447581D01*
X59986788Y24451500D01*
X59986791Y24451500D01*
X60105788Y24463220D01*
X60258473Y24509537D01*
X60271822Y24516672D01*
X60300533Y24372328D01*
X60402013Y24127335D01*
X60549338Y23906847D01*
X60736847Y23719338D01*
X60957335Y23572013D01*
X61202328Y23470533D01*
X61462411Y23418800D01*
X61727589Y23418800D01*
X61987672Y23470533D01*
X62232665Y23572013D01*
X62453153Y23719338D01*
X62640662Y23906847D01*
X62787987Y24127335D01*
X62865969Y24315600D01*
X62915458Y24179720D01*
X62970817Y24076152D01*
X63205727Y24015332D01*
X63955395Y24765000D01*
X63941253Y24779142D01*
X64120858Y24958747D01*
X64135000Y24944605D01*
X64149143Y24958747D01*
X64328748Y24779142D01*
X64314605Y24765000D01*
X64328748Y24750857D01*
X64149143Y24571252D01*
X64135000Y24585395D01*
X63385332Y23835727D01*
X63446152Y23600817D01*
X63686509Y23488798D01*
X63944102Y23425824D01*
X64209030Y23414313D01*
X64471113Y23454709D01*
X64595000Y23499830D01*
X64595000Y23195513D01*
X64180488Y22781000D01*
X60745788Y22781000D01*
X60706000Y22784919D01*
X60666212Y22781000D01*
X60666209Y22781000D01*
X60547212Y22769280D01*
X60394527Y22722963D01*
X60253811Y22647749D01*
X60130472Y22546528D01*
X60105107Y22515620D01*
X57240383Y19650895D01*
X57209473Y19625528D01*
X57175888Y19584604D01*
X57108251Y19502189D01*
X57041625Y19377538D01*
X57033038Y19361473D01*
X56989538Y19218072D01*
X56986721Y19208787D01*
X56971081Y19050000D01*
X56975001Y19010202D01*
X56975000Y17861513D01*
X56628860Y17515373D01*
X56634000Y17541212D01*
X56634000Y17764788D01*
X56590383Y17984067D01*
X56504824Y18190624D01*
X56380612Y18376520D01*
X56222520Y18534612D01*
X56036624Y18658824D01*
X55830067Y18744383D01*
X55610788Y18788000D01*
X55387212Y18788000D01*
X55167933Y18744383D01*
X54961376Y18658824D01*
X54775480Y18534612D01*
X54714260Y18473392D01*
X54700299Y18507095D01*
X54532312Y18758505D01*
X54375000Y18915817D01*
X54375000Y20269165D01*
X54380007Y20320000D01*
X54375000Y20370838D01*
X54360024Y20522895D01*
X54300841Y20717993D01*
X54239890Y20832024D01*
X54204734Y20897798D01*
X54107803Y21015908D01*
X54075396Y21055396D01*
X54035908Y21087803D01*
X51313807Y23809903D01*
X51281396Y23849396D01*
X51123797Y23978734D01*
X50943993Y24074841D01*
X50748895Y24134024D01*
X50596838Y24149000D01*
X50596828Y24149000D01*
X50546000Y24154006D01*
X50495172Y24149000D01*
X48868132Y24149000D01*
X48887612Y24168480D01*
X49011824Y24354376D01*
X49097383Y24560933D01*
X49141000Y24780212D01*
X49141000Y24881487D01*
X49185619Y24926106D01*
X49216528Y24951472D01*
X49317749Y25074811D01*
X49351524Y25138000D01*
X49392963Y25215526D01*
X49408235Y25265872D01*
X49439280Y25368212D01*
X49451000Y25487209D01*
X49451000Y25487212D01*
X49454919Y25527000D01*
X49451000Y25566788D01*
X49451000Y25597797D01*
X49584387Y25669095D01*
X49718962Y25779538D01*
X49829405Y25914113D01*
X49911472Y26067648D01*
X49962008Y26234244D01*
X49979072Y26407498D01*
X49979072Y26932502D01*
X49962008Y27105756D01*
X49911472Y27272352D01*
X49829405Y27425887D01*
X49718962Y27560462D01*
X49692109Y27582500D01*
X49718962Y27604538D01*
X49829405Y27739113D01*
X49911472Y27892648D01*
X49962008Y28059244D01*
X49979072Y28232498D01*
X49979072Y28757502D01*
X49962008Y28930756D01*
X49911472Y29097352D01*
X49829405Y29250887D01*
X49718962Y29385462D01*
X49584387Y29495905D01*
X49476000Y29553840D01*
X49476000Y29885179D01*
X49545000Y29922061D01*
X49650820Y29865498D01*
X49770518Y29829188D01*
X49895000Y29816928D01*
X50895000Y29816928D01*
X51019482Y29829188D01*
X51120000Y29859680D01*
X51220518Y29829188D01*
X51345000Y29816928D01*
X52045000Y29816928D01*
X52169482Y29829188D01*
X52289180Y29865498D01*
X52295000Y29868609D01*
X52300820Y29865498D01*
X52420518Y29829188D01*
X52545000Y29816928D01*
X53245000Y29816928D01*
X53369482Y29829188D01*
X53489180Y29865498D01*
X53599494Y29924463D01*
X53696185Y30003815D01*
X53775537Y30100506D01*
X53834502Y30210820D01*
X53870812Y30330518D01*
X53883072Y30455000D01*
X53883072Y30969198D01*
X54004250Y30970000D01*
X54163000Y31128750D01*
X54163000Y32878000D01*
X54417000Y32878000D01*
X54417000Y31128750D01*
X54575750Y30970000D01*
X55040000Y30966928D01*
X55164482Y30979188D01*
X55284180Y31015498D01*
X55394494Y31074463D01*
X55491185Y31153815D01*
X55570537Y31250506D01*
X55629502Y31360820D01*
X55665812Y31480518D01*
X55678072Y31605000D01*
X55675000Y32719250D01*
X55516250Y32878000D01*
X54417000Y32878000D01*
X54163000Y32878000D01*
X53063750Y32878000D01*
X52905000Y32719250D01*
X52904652Y32593072D01*
X52545000Y32593072D01*
X52420518Y32580812D01*
X52300820Y32544502D01*
X52295000Y32541391D01*
X52289180Y32544502D01*
X52169482Y32580812D01*
X52045000Y32593072D01*
X51345000Y32593072D01*
X51220518Y32580812D01*
X51120000Y32550320D01*
X51019482Y32580812D01*
X50895000Y32593072D01*
X49895000Y32593072D01*
X49770518Y32580812D01*
X49650820Y32544502D01*
X49545000Y32487939D01*
X49439180Y32544502D01*
X49319482Y32580812D01*
X49195000Y32593072D01*
X48195000Y32593072D01*
X48070518Y32580812D01*
X47950820Y32544502D01*
X47840506Y32485537D01*
X47743815Y32406185D01*
X47664463Y32309494D01*
X47605498Y32199180D01*
X47569188Y32079482D01*
X47556928Y31955000D01*
X47556928Y30455000D01*
X47569188Y30330518D01*
X47605498Y30210820D01*
X47664463Y30100506D01*
X47743815Y30003815D01*
X47806001Y29952781D01*
X47806000Y29553840D01*
X47697613Y29495905D01*
X47563038Y29385462D01*
X47452595Y29250887D01*
X47370528Y29097352D01*
X47319992Y28930756D01*
X47302928Y28757502D01*
X47302928Y28362152D01*
X47253844Y28453982D01*
X47219734Y28517798D01*
X47122803Y28635908D01*
X47090396Y28675396D01*
X47050908Y28707803D01*
X45939283Y29819427D01*
X45979250Y29820000D01*
X46138000Y29978750D01*
X46138000Y31078000D01*
X46392000Y31078000D01*
X46392000Y29978750D01*
X46550750Y29820000D01*
X46765000Y29816928D01*
X46889482Y29829188D01*
X47009180Y29865498D01*
X47119494Y29924463D01*
X47216185Y30003815D01*
X47295537Y30100506D01*
X47354502Y30210820D01*
X47390812Y30330518D01*
X47403072Y30455000D01*
X47400000Y30919250D01*
X47241250Y31078000D01*
X46392000Y31078000D01*
X46138000Y31078000D01*
X45288750Y31078000D01*
X45130000Y30919250D01*
X45128069Y30627443D01*
X45027797Y30709734D01*
X44903072Y30776401D01*
X44903072Y31955000D01*
X45126928Y31955000D01*
X45130000Y31490750D01*
X45288750Y31332000D01*
X46138000Y31332000D01*
X46138000Y32431250D01*
X46392000Y32431250D01*
X46392000Y31332000D01*
X47241250Y31332000D01*
X47400000Y31490750D01*
X47403072Y31955000D01*
X47390812Y32079482D01*
X47354502Y32199180D01*
X47295537Y32309494D01*
X47216185Y32406185D01*
X47119494Y32485537D01*
X47009180Y32544502D01*
X46889482Y32580812D01*
X46765000Y32593072D01*
X46550750Y32590000D01*
X46392000Y32431250D01*
X46138000Y32431250D01*
X45979250Y32590000D01*
X45765000Y32593072D01*
X45640518Y32580812D01*
X45520820Y32544502D01*
X45410506Y32485537D01*
X45313815Y32406185D01*
X45234463Y32309494D01*
X45175498Y32199180D01*
X45139188Y32079482D01*
X45126928Y31955000D01*
X44903072Y31955000D01*
X44890812Y32079482D01*
X44854502Y32199180D01*
X44795537Y32309494D01*
X44716185Y32406185D01*
X44619494Y32485537D01*
X44545613Y32525028D01*
X44516963Y32619473D01*
X44469363Y32708527D01*
X44441749Y32760190D01*
X44375115Y32841383D01*
X44340528Y32883528D01*
X44309619Y32908894D01*
X44188000Y33030513D01*
X44188000Y33131788D01*
X44144383Y33351067D01*
X44058824Y33557624D01*
X43934612Y33743520D01*
X43776520Y33901612D01*
X43590624Y34025824D01*
X43384067Y34111383D01*
X43164788Y34155000D01*
X42941212Y34155000D01*
X42721933Y34111383D01*
X42515376Y34025824D01*
X42329480Y33901612D01*
X42171388Y33743520D01*
X42047176Y33557624D01*
X41961617Y33351067D01*
X41918000Y33131788D01*
X41918000Y32908212D01*
X41961617Y32688933D01*
X42024930Y32536084D01*
X42009180Y32544502D01*
X41889482Y32580812D01*
X41765000Y32593072D01*
X40765000Y32593072D01*
X40640518Y32580812D01*
X40520820Y32544502D01*
X40410506Y32485537D01*
X40313815Y32406185D01*
X40234463Y32309494D01*
X40175498Y32199180D01*
X40139188Y32079482D01*
X40126928Y31955000D01*
X40126928Y30455000D01*
X40139188Y30330518D01*
X40175498Y30210820D01*
X40210680Y30145000D01*
X39819320Y30145000D01*
X39854502Y30210820D01*
X39890812Y30330518D01*
X39903072Y30455000D01*
X39900000Y30919250D01*
X39741250Y31078000D01*
X38892000Y31078000D01*
X38892000Y31058000D01*
X38638000Y31058000D01*
X38638000Y31078000D01*
X37788750Y31078000D01*
X37630000Y30919250D01*
X37626928Y30455000D01*
X37639188Y30330518D01*
X37675498Y30210820D01*
X37710680Y30145000D01*
X37510931Y30145000D01*
X37464999Y30149524D01*
X37313777Y30134630D01*
X37354502Y30210820D01*
X37390812Y30330518D01*
X37403072Y30455000D01*
X37403072Y31955000D01*
X37626928Y31955000D01*
X37630000Y31490750D01*
X37788750Y31332000D01*
X38638000Y31332000D01*
X38638000Y32431250D01*
X38892000Y32431250D01*
X38892000Y31332000D01*
X39741250Y31332000D01*
X39900000Y31490750D01*
X39903072Y31955000D01*
X39890812Y32079482D01*
X39854502Y32199180D01*
X39795537Y32309494D01*
X39716185Y32406185D01*
X39619494Y32485537D01*
X39509180Y32544502D01*
X39389482Y32580812D01*
X39265000Y32593072D01*
X39050750Y32590000D01*
X38892000Y32431250D01*
X38638000Y32431250D01*
X38479250Y32590000D01*
X38265000Y32593072D01*
X38140518Y32580812D01*
X38020820Y32544502D01*
X37910506Y32485537D01*
X37813815Y32406185D01*
X37734463Y32309494D01*
X37675498Y32199180D01*
X37639188Y32079482D01*
X37626928Y31955000D01*
X37403072Y31955000D01*
X37390812Y32079482D01*
X37354502Y32199180D01*
X37295537Y32309494D01*
X37216185Y32406185D01*
X37119494Y32485537D01*
X37009180Y32544502D01*
X36889482Y32580812D01*
X36765000Y32593072D01*
X35765000Y32593072D01*
X35640518Y32580812D01*
X35520820Y32544502D01*
X35410506Y32485537D01*
X35313815Y32406185D01*
X35234463Y32309494D01*
X35175498Y32199180D01*
X35139188Y32079482D01*
X35126928Y31955000D01*
X35126928Y30455000D01*
X35139188Y30330518D01*
X35175498Y30210820D01*
X35234463Y30100506D01*
X35266255Y30061767D01*
X34380387Y29175899D01*
X34349472Y29150528D01*
X34285817Y29072963D01*
X34248251Y29027189D01*
X34227191Y28987788D01*
X34173037Y28886472D01*
X34126720Y28733787D01*
X34116742Y28632473D01*
X34111081Y28575000D01*
X34115000Y28535212D01*
X34115001Y26653512D01*
X32918900Y27849612D01*
X32893528Y27880528D01*
X32770189Y27981749D01*
X32629473Y28056963D01*
X32476788Y28103280D01*
X32357791Y28115000D01*
X32357788Y28115000D01*
X32318000Y28118919D01*
X32278212Y28115000D01*
X31472703Y28115000D01*
X31401405Y28248387D01*
X31290962Y28382962D01*
X31156387Y28493405D01*
X31002852Y28575472D01*
X30836256Y28626008D01*
X30663002Y28643072D01*
X30137998Y28643072D01*
X29964744Y28626008D01*
X29798148Y28575472D01*
X29644613Y28493405D01*
X29510038Y28382962D01*
X29488000Y28356109D01*
X29465962Y28382962D01*
X29331387Y28493405D01*
X29177852Y28575472D01*
X29011256Y28626008D01*
X28838002Y28643072D01*
X28312998Y28643072D01*
X28139744Y28626008D01*
X27973148Y28575472D01*
X27819613Y28493405D01*
X27685038Y28382962D01*
X27574595Y28248387D01*
X27503297Y28115000D01*
X27344787Y28115000D01*
X27304999Y28118919D01*
X27265211Y28115000D01*
X27265209Y28115000D01*
X27146212Y28103280D01*
X26993527Y28056963D01*
X26852811Y27981749D01*
X26845000Y27975339D01*
X26845000Y28414868D01*
X26916612Y28486480D01*
X27040824Y28672376D01*
X27126383Y28878933D01*
X27170000Y29098212D01*
X27170000Y29321788D01*
X27126383Y29541067D01*
X27040824Y29747624D01*
X26916612Y29933520D01*
X26845000Y30005132D01*
X26845000Y30271488D01*
X27849619Y31276106D01*
X27880528Y31301472D01*
X27881553Y31302721D01*
X27909463Y31250506D01*
X27988815Y31153815D01*
X28085506Y31074463D01*
X28195820Y31015498D01*
X28315518Y30979188D01*
X28440000Y30966928D01*
X28904250Y30970000D01*
X29063000Y31128750D01*
X29063000Y32878000D01*
X29043000Y32878000D01*
X29043000Y33132000D01*
X29063000Y33132000D01*
X29063000Y34881250D01*
X28904250Y35040000D01*
X28567739Y35042227D01*
X28783513Y35258000D01*
X30432316Y35258000D01*
X30225241Y35119637D01*
%TA.AperFunction,Conductor*%
D28*
G36*
X30225241Y35119637D02*
G01*
X30119674Y35014070D01*
X30064482Y35030812D01*
X29940000Y35043072D01*
X29475750Y35040000D01*
X29317000Y34881250D01*
X29317000Y33132000D01*
X29337000Y33132000D01*
X29337000Y32878000D01*
X29317000Y32878000D01*
X29317000Y31128750D01*
X29475750Y30970000D01*
X29940000Y30966928D01*
X30064482Y30979188D01*
X30126928Y30998131D01*
X30126928Y30455000D01*
X30139188Y30330518D01*
X30175498Y30210820D01*
X30234463Y30100506D01*
X30313815Y30003815D01*
X30410506Y29924463D01*
X30520820Y29865498D01*
X30640518Y29829188D01*
X30765000Y29816928D01*
X31765000Y29816928D01*
X31889482Y29829188D01*
X32009180Y29865498D01*
X32119494Y29924463D01*
X32216185Y30003815D01*
X32295537Y30100506D01*
X32354502Y30210820D01*
X32390812Y30330518D01*
X32403072Y30455000D01*
X32403072Y31955000D01*
X32626928Y31955000D01*
X32626928Y30455000D01*
X32639188Y30330518D01*
X32675498Y30210820D01*
X32734463Y30100506D01*
X32813815Y30003815D01*
X32910506Y29924463D01*
X33020820Y29865498D01*
X33140518Y29829188D01*
X33265000Y29816928D01*
X34265000Y29816928D01*
X34389482Y29829188D01*
X34509180Y29865498D01*
X34619494Y29924463D01*
X34716185Y30003815D01*
X34795537Y30100506D01*
X34854502Y30210820D01*
X34890812Y30330518D01*
X34903072Y30455000D01*
X34903072Y31955000D01*
X34890812Y32079482D01*
X34854502Y32199180D01*
X34795537Y32309494D01*
X34763745Y32348233D01*
X34935513Y32520000D01*
X35036788Y32520000D01*
X35256067Y32563617D01*
X35462624Y32649176D01*
X35648520Y32773388D01*
X35806612Y32931480D01*
X35930824Y33117376D01*
X36016383Y33323933D01*
X36060000Y33543212D01*
X36060000Y33766788D01*
X36016383Y33986067D01*
X35930824Y34192624D01*
X35806612Y34378520D01*
X35648520Y34536612D01*
X35462624Y34660824D01*
X35256067Y34746383D01*
X35036788Y34790000D01*
X34813212Y34790000D01*
X34593933Y34746383D01*
X34387376Y34660824D01*
X34201480Y34536612D01*
X34043388Y34378520D01*
X33919176Y34192624D01*
X33833617Y33986067D01*
X33790000Y33766788D01*
X33790000Y33665513D01*
X33220383Y33095895D01*
X33189473Y33070528D01*
X33164108Y33039620D01*
X33088251Y32947189D01*
X33023193Y32825472D01*
X33013038Y32806473D01*
X32969634Y32663389D01*
X32966721Y32653787D01*
X32952352Y32507905D01*
X32910506Y32485537D01*
X32813815Y32406185D01*
X32734463Y32309494D01*
X32675498Y32199180D01*
X32639188Y32079482D01*
X32626928Y31955000D01*
X32403072Y31955000D01*
X32390812Y32079482D01*
X32354502Y32199180D01*
X32295537Y32309494D01*
X32216185Y32406185D01*
X32119494Y32485537D01*
X32009180Y32544502D01*
X31889482Y32580812D01*
X31765000Y32593072D01*
X31397324Y32593072D01*
X31558574Y32625147D01*
X31819727Y32733320D01*
X32054759Y32890363D01*
X32254637Y33090241D01*
X32411680Y33325273D01*
X32519853Y33586426D01*
X32575000Y33863665D01*
X32575000Y34146335D01*
X32519853Y34423574D01*
X32411680Y34684727D01*
X32254637Y34919759D01*
X32054759Y35119637D01*
X31847684Y35258000D01*
X50180888Y35258000D01*
X50501805Y34937083D01*
X50527172Y34906172D01*
X50650511Y34804951D01*
X50791227Y34729737D01*
X50943912Y34683420D01*
X51062909Y34671700D01*
X51062911Y34671700D01*
X51102699Y34667781D01*
X51142487Y34671700D01*
X51160287Y34671700D01*
X51089866Y34566308D01*
X51000539Y34350652D01*
X50955000Y34121712D01*
X50955000Y33888288D01*
X51000539Y33659348D01*
X51089866Y33443692D01*
X51219550Y33249606D01*
X51384606Y33084550D01*
X51578692Y32954866D01*
X51794348Y32865539D01*
X52023288Y32820000D01*
X52256712Y32820000D01*
X52485652Y32865539D01*
X52701308Y32954866D01*
X52895394Y33084550D01*
X53003297Y33192453D01*
X53063750Y33132000D01*
X54163000Y33132000D01*
X54163000Y33152000D01*
X54417000Y33152000D01*
X54417000Y33132000D01*
X55516250Y33132000D01*
X55675000Y33290750D01*
X55677079Y34044809D01*
X57782435Y31939452D01*
X57862013Y31747335D01*
X58009338Y31526847D01*
X58196847Y31339338D01*
X58417335Y31192013D01*
X58603260Y31115000D01*
X58417335Y31037987D01*
X58196847Y30890662D01*
X58009338Y30703153D01*
X57862013Y30482665D01*
X57760533Y30237672D01*
X57708800Y29977589D01*
X57708800Y29712411D01*
X57760533Y29452328D01*
X57788421Y29385000D01*
X54649787Y29385000D01*
X54609999Y29388919D01*
X54570211Y29385000D01*
X54570209Y29385000D01*
X54451212Y29373280D01*
X54298527Y29326963D01*
X54253493Y29302892D01*
X54157810Y29251749D01*
X54114657Y29216334D01*
X54034472Y29150528D01*
X54009107Y29119620D01*
X53329488Y28440000D01*
X53228212Y28440000D01*
X53008933Y28396383D01*
X52802376Y28310824D01*
X52616480Y28186612D01*
X52458388Y28028520D01*
X52334176Y27842624D01*
X52248617Y27636067D01*
X52205000Y27416788D01*
X52205000Y27193212D01*
X52248617Y26973933D01*
X52334176Y26767376D01*
X52458388Y26581480D01*
X52616480Y26423388D01*
X52701411Y26366639D01*
X52551288Y26396500D01*
X52327712Y26396500D01*
X52108433Y26352883D01*
X51901876Y26267324D01*
X51715980Y26143112D01*
X51557888Y25985020D01*
X51433676Y25799124D01*
X51348117Y25592567D01*
X51304500Y25373288D01*
X51304500Y25149712D01*
X51348117Y24930433D01*
X51433676Y24723876D01*
X51557888Y24537980D01*
X51715980Y24379888D01*
X51901876Y24255676D01*
X52108433Y24170117D01*
X52327712Y24126500D01*
X52551288Y24126500D01*
X52770567Y24170117D01*
X52977124Y24255676D01*
X53163020Y24379888D01*
X53234632Y24451500D01*
X59907212Y24451500D01*
X59947000Y24447581D01*
X59986788Y24451500D01*
X59986791Y24451500D01*
X60105788Y24463220D01*
X60258473Y24509537D01*
X60271822Y24516672D01*
X60300533Y24372328D01*
X60402013Y24127335D01*
X60549338Y23906847D01*
X60736847Y23719338D01*
X60957335Y23572013D01*
X61202328Y23470533D01*
X61462411Y23418800D01*
X61727589Y23418800D01*
X61987672Y23470533D01*
X62232665Y23572013D01*
X62453153Y23719338D01*
X62640662Y23906847D01*
X62787987Y24127335D01*
X62865969Y24315600D01*
X62915458Y24179720D01*
X62970817Y24076152D01*
X63205727Y24015332D01*
X63955395Y24765000D01*
X63941253Y24779142D01*
X64120858Y24958747D01*
X64135000Y24944605D01*
X64149143Y24958747D01*
X64328748Y24779142D01*
X64314605Y24765000D01*
X64328748Y24750857D01*
X64149143Y24571252D01*
X64135000Y24585395D01*
X63385332Y23835727D01*
X63446152Y23600817D01*
X63686509Y23488798D01*
X63944102Y23425824D01*
X64209030Y23414313D01*
X64471113Y23454709D01*
X64595000Y23499830D01*
X64595000Y23195513D01*
X64180488Y22781000D01*
X60745788Y22781000D01*
X60706000Y22784919D01*
X60666212Y22781000D01*
X60666209Y22781000D01*
X60547212Y22769280D01*
X60394527Y22722963D01*
X60253811Y22647749D01*
X60130472Y22546528D01*
X60105107Y22515620D01*
X57240383Y19650895D01*
X57209473Y19625528D01*
X57175888Y19584604D01*
X57108251Y19502189D01*
X57041625Y19377538D01*
X57033038Y19361473D01*
X56989538Y19218072D01*
X56986721Y19208787D01*
X56971081Y19050000D01*
X56975001Y19010202D01*
X56975000Y17861513D01*
X56628860Y17515373D01*
X56634000Y17541212D01*
X56634000Y17764788D01*
X56590383Y17984067D01*
X56504824Y18190624D01*
X56380612Y18376520D01*
X56222520Y18534612D01*
X56036624Y18658824D01*
X55830067Y18744383D01*
X55610788Y18788000D01*
X55387212Y18788000D01*
X55167933Y18744383D01*
X54961376Y18658824D01*
X54775480Y18534612D01*
X54714260Y18473392D01*
X54700299Y18507095D01*
X54532312Y18758505D01*
X54375000Y18915817D01*
X54375000Y20269165D01*
X54380007Y20320000D01*
X54375000Y20370838D01*
X54360024Y20522895D01*
X54300841Y20717993D01*
X54239890Y20832024D01*
X54204734Y20897798D01*
X54107803Y21015908D01*
X54075396Y21055396D01*
X54035908Y21087803D01*
X51313807Y23809903D01*
X51281396Y23849396D01*
X51123797Y23978734D01*
X50943993Y24074841D01*
X50748895Y24134024D01*
X50596838Y24149000D01*
X50596828Y24149000D01*
X50546000Y24154006D01*
X50495172Y24149000D01*
X48868132Y24149000D01*
X48887612Y24168480D01*
X49011824Y24354376D01*
X49097383Y24560933D01*
X49141000Y24780212D01*
X49141000Y24881487D01*
X49185619Y24926106D01*
X49216528Y24951472D01*
X49317749Y25074811D01*
X49351524Y25138000D01*
X49392963Y25215526D01*
X49408235Y25265872D01*
X49439280Y25368212D01*
X49451000Y25487209D01*
X49451000Y25487212D01*
X49454919Y25527000D01*
X49451000Y25566788D01*
X49451000Y25597797D01*
X49584387Y25669095D01*
X49718962Y25779538D01*
X49829405Y25914113D01*
X49911472Y26067648D01*
X49962008Y26234244D01*
X49979072Y26407498D01*
X49979072Y26932502D01*
X49962008Y27105756D01*
X49911472Y27272352D01*
X49829405Y27425887D01*
X49718962Y27560462D01*
X49692109Y27582500D01*
X49718962Y27604538D01*
X49829405Y27739113D01*
X49911472Y27892648D01*
X49962008Y28059244D01*
X49979072Y28232498D01*
X49979072Y28757502D01*
X49962008Y28930756D01*
X49911472Y29097352D01*
X49829405Y29250887D01*
X49718962Y29385462D01*
X49584387Y29495905D01*
X49476000Y29553840D01*
X49476000Y29885179D01*
X49545000Y29922061D01*
X49650820Y29865498D01*
X49770518Y29829188D01*
X49895000Y29816928D01*
X50895000Y29816928D01*
X51019482Y29829188D01*
X51120000Y29859680D01*
X51220518Y29829188D01*
X51345000Y29816928D01*
X52045000Y29816928D01*
X52169482Y29829188D01*
X52289180Y29865498D01*
X52295000Y29868609D01*
X52300820Y29865498D01*
X52420518Y29829188D01*
X52545000Y29816928D01*
X53245000Y29816928D01*
X53369482Y29829188D01*
X53489180Y29865498D01*
X53599494Y29924463D01*
X53696185Y30003815D01*
X53775537Y30100506D01*
X53834502Y30210820D01*
X53870812Y30330518D01*
X53883072Y30455000D01*
X53883072Y30969198D01*
X54004250Y30970000D01*
X54163000Y31128750D01*
X54163000Y32878000D01*
X54417000Y32878000D01*
X54417000Y31128750D01*
X54575750Y30970000D01*
X55040000Y30966928D01*
X55164482Y30979188D01*
X55284180Y31015498D01*
X55394494Y31074463D01*
X55491185Y31153815D01*
X55570537Y31250506D01*
X55629502Y31360820D01*
X55665812Y31480518D01*
X55678072Y31605000D01*
X55675000Y32719250D01*
X55516250Y32878000D01*
X54417000Y32878000D01*
X54163000Y32878000D01*
X53063750Y32878000D01*
X52905000Y32719250D01*
X52904652Y32593072D01*
X52545000Y32593072D01*
X52420518Y32580812D01*
X52300820Y32544502D01*
X52295000Y32541391D01*
X52289180Y32544502D01*
X52169482Y32580812D01*
X52045000Y32593072D01*
X51345000Y32593072D01*
X51220518Y32580812D01*
X51120000Y32550320D01*
X51019482Y32580812D01*
X50895000Y32593072D01*
X49895000Y32593072D01*
X49770518Y32580812D01*
X49650820Y32544502D01*
X49545000Y32487939D01*
X49439180Y32544502D01*
X49319482Y32580812D01*
X49195000Y32593072D01*
X48195000Y32593072D01*
X48070518Y32580812D01*
X47950820Y32544502D01*
X47840506Y32485537D01*
X47743815Y32406185D01*
X47664463Y32309494D01*
X47605498Y32199180D01*
X47569188Y32079482D01*
X47556928Y31955000D01*
X47556928Y30455000D01*
X47569188Y30330518D01*
X47605498Y30210820D01*
X47664463Y30100506D01*
X47743815Y30003815D01*
X47806001Y29952781D01*
X47806000Y29553840D01*
X47697613Y29495905D01*
X47563038Y29385462D01*
X47452595Y29250887D01*
X47370528Y29097352D01*
X47319992Y28930756D01*
X47302928Y28757502D01*
X47302928Y28362152D01*
X47253844Y28453982D01*
X47219734Y28517798D01*
X47122803Y28635908D01*
X47090396Y28675396D01*
X47050908Y28707803D01*
X45939283Y29819427D01*
X45979250Y29820000D01*
X46138000Y29978750D01*
X46138000Y31078000D01*
X46392000Y31078000D01*
X46392000Y29978750D01*
X46550750Y29820000D01*
X46765000Y29816928D01*
X46889482Y29829188D01*
X47009180Y29865498D01*
X47119494Y29924463D01*
X47216185Y30003815D01*
X47295537Y30100506D01*
X47354502Y30210820D01*
X47390812Y30330518D01*
X47403072Y30455000D01*
X47400000Y30919250D01*
X47241250Y31078000D01*
X46392000Y31078000D01*
X46138000Y31078000D01*
X45288750Y31078000D01*
X45130000Y30919250D01*
X45128069Y30627443D01*
X45027797Y30709734D01*
X44903072Y30776401D01*
X44903072Y31955000D01*
X45126928Y31955000D01*
X45130000Y31490750D01*
X45288750Y31332000D01*
X46138000Y31332000D01*
X46138000Y32431250D01*
X46392000Y32431250D01*
X46392000Y31332000D01*
X47241250Y31332000D01*
X47400000Y31490750D01*
X47403072Y31955000D01*
X47390812Y32079482D01*
X47354502Y32199180D01*
X47295537Y32309494D01*
X47216185Y32406185D01*
X47119494Y32485537D01*
X47009180Y32544502D01*
X46889482Y32580812D01*
X46765000Y32593072D01*
X46550750Y32590000D01*
X46392000Y32431250D01*
X46138000Y32431250D01*
X45979250Y32590000D01*
X45765000Y32593072D01*
X45640518Y32580812D01*
X45520820Y32544502D01*
X45410506Y32485537D01*
X45313815Y32406185D01*
X45234463Y32309494D01*
X45175498Y32199180D01*
X45139188Y32079482D01*
X45126928Y31955000D01*
X44903072Y31955000D01*
X44890812Y32079482D01*
X44854502Y32199180D01*
X44795537Y32309494D01*
X44716185Y32406185D01*
X44619494Y32485537D01*
X44545613Y32525028D01*
X44516963Y32619473D01*
X44469363Y32708527D01*
X44441749Y32760190D01*
X44375115Y32841383D01*
X44340528Y32883528D01*
X44309619Y32908894D01*
X44188000Y33030513D01*
X44188000Y33131788D01*
X44144383Y33351067D01*
X44058824Y33557624D01*
X43934612Y33743520D01*
X43776520Y33901612D01*
X43590624Y34025824D01*
X43384067Y34111383D01*
X43164788Y34155000D01*
X42941212Y34155000D01*
X42721933Y34111383D01*
X42515376Y34025824D01*
X42329480Y33901612D01*
X42171388Y33743520D01*
X42047176Y33557624D01*
X41961617Y33351067D01*
X41918000Y33131788D01*
X41918000Y32908212D01*
X41961617Y32688933D01*
X42024930Y32536084D01*
X42009180Y32544502D01*
X41889482Y32580812D01*
X41765000Y32593072D01*
X40765000Y32593072D01*
X40640518Y32580812D01*
X40520820Y32544502D01*
X40410506Y32485537D01*
X40313815Y32406185D01*
X40234463Y32309494D01*
X40175498Y32199180D01*
X40139188Y32079482D01*
X40126928Y31955000D01*
X40126928Y30455000D01*
X40139188Y30330518D01*
X40175498Y30210820D01*
X40210680Y30145000D01*
X39819320Y30145000D01*
X39854502Y30210820D01*
X39890812Y30330518D01*
X39903072Y30455000D01*
X39900000Y30919250D01*
X39741250Y31078000D01*
X38892000Y31078000D01*
X38892000Y31058000D01*
X38638000Y31058000D01*
X38638000Y31078000D01*
X37788750Y31078000D01*
X37630000Y30919250D01*
X37626928Y30455000D01*
X37639188Y30330518D01*
X37675498Y30210820D01*
X37710680Y30145000D01*
X37510931Y30145000D01*
X37464999Y30149524D01*
X37313777Y30134630D01*
X37354502Y30210820D01*
X37390812Y30330518D01*
X37403072Y30455000D01*
X37403072Y31955000D01*
X37626928Y31955000D01*
X37630000Y31490750D01*
X37788750Y31332000D01*
X38638000Y31332000D01*
X38638000Y32431250D01*
X38892000Y32431250D01*
X38892000Y31332000D01*
X39741250Y31332000D01*
X39900000Y31490750D01*
X39903072Y31955000D01*
X39890812Y32079482D01*
X39854502Y32199180D01*
X39795537Y32309494D01*
X39716185Y32406185D01*
X39619494Y32485537D01*
X39509180Y32544502D01*
X39389482Y32580812D01*
X39265000Y32593072D01*
X39050750Y32590000D01*
X38892000Y32431250D01*
X38638000Y32431250D01*
X38479250Y32590000D01*
X38265000Y32593072D01*
X38140518Y32580812D01*
X38020820Y32544502D01*
X37910506Y32485537D01*
X37813815Y32406185D01*
X37734463Y32309494D01*
X37675498Y32199180D01*
X37639188Y32079482D01*
X37626928Y31955000D01*
X37403072Y31955000D01*
X37390812Y32079482D01*
X37354502Y32199180D01*
X37295537Y32309494D01*
X37216185Y32406185D01*
X37119494Y32485537D01*
X37009180Y32544502D01*
X36889482Y32580812D01*
X36765000Y32593072D01*
X35765000Y32593072D01*
X35640518Y32580812D01*
X35520820Y32544502D01*
X35410506Y32485537D01*
X35313815Y32406185D01*
X35234463Y32309494D01*
X35175498Y32199180D01*
X35139188Y32079482D01*
X35126928Y31955000D01*
X35126928Y30455000D01*
X35139188Y30330518D01*
X35175498Y30210820D01*
X35234463Y30100506D01*
X35266255Y30061767D01*
X34380387Y29175899D01*
X34349472Y29150528D01*
X34285817Y29072963D01*
X34248251Y29027189D01*
X34227191Y28987788D01*
X34173037Y28886472D01*
X34126720Y28733787D01*
X34116742Y28632473D01*
X34111081Y28575000D01*
X34115000Y28535212D01*
X34115001Y26653512D01*
X32918900Y27849612D01*
X32893528Y27880528D01*
X32770189Y27981749D01*
X32629473Y28056963D01*
X32476788Y28103280D01*
X32357791Y28115000D01*
X32357788Y28115000D01*
X32318000Y28118919D01*
X32278212Y28115000D01*
X31472703Y28115000D01*
X31401405Y28248387D01*
X31290962Y28382962D01*
X31156387Y28493405D01*
X31002852Y28575472D01*
X30836256Y28626008D01*
X30663002Y28643072D01*
X30137998Y28643072D01*
X29964744Y28626008D01*
X29798148Y28575472D01*
X29644613Y28493405D01*
X29510038Y28382962D01*
X29488000Y28356109D01*
X29465962Y28382962D01*
X29331387Y28493405D01*
X29177852Y28575472D01*
X29011256Y28626008D01*
X28838002Y28643072D01*
X28312998Y28643072D01*
X28139744Y28626008D01*
X27973148Y28575472D01*
X27819613Y28493405D01*
X27685038Y28382962D01*
X27574595Y28248387D01*
X27503297Y28115000D01*
X27344787Y28115000D01*
X27304999Y28118919D01*
X27265211Y28115000D01*
X27265209Y28115000D01*
X27146212Y28103280D01*
X26993527Y28056963D01*
X26852811Y27981749D01*
X26845000Y27975339D01*
X26845000Y28414868D01*
X26916612Y28486480D01*
X27040824Y28672376D01*
X27126383Y28878933D01*
X27170000Y29098212D01*
X27170000Y29321788D01*
X27126383Y29541067D01*
X27040824Y29747624D01*
X26916612Y29933520D01*
X26845000Y30005132D01*
X26845000Y30271488D01*
X27849619Y31276106D01*
X27880528Y31301472D01*
X27881553Y31302721D01*
X27909463Y31250506D01*
X27988815Y31153815D01*
X28085506Y31074463D01*
X28195820Y31015498D01*
X28315518Y30979188D01*
X28440000Y30966928D01*
X28904250Y30970000D01*
X29063000Y31128750D01*
X29063000Y32878000D01*
X29043000Y32878000D01*
X29043000Y33132000D01*
X29063000Y33132000D01*
X29063000Y34881250D01*
X28904250Y35040000D01*
X28567739Y35042227D01*
X28783513Y35258000D01*
X30432316Y35258000D01*
X30225241Y35119637D01*
G37*
%TD.AperFunction*%
D27*
X19878748Y24779142D02*
X19864605Y24765000D01*
X20614273Y24015332D01*
X20849183Y24076152D01*
X20957206Y24307934D01*
X21032013Y24127335D01*
X21179338Y23906847D01*
X21366847Y23719338D01*
X21587335Y23572013D01*
X21832328Y23470533D01*
X22092411Y23418800D01*
X22357589Y23418800D01*
X22617672Y23470533D01*
X22862665Y23572013D01*
X23083153Y23719338D01*
X23270662Y23906847D01*
X23302837Y23955000D01*
X24714488Y23955000D01*
X23794488Y23035000D01*
X20762837Y23035000D01*
X20730662Y23083153D01*
X20543153Y23270662D01*
X20322665Y23417987D01*
X20134400Y23495969D01*
X20270280Y23545458D01*
X20373848Y23600817D01*
X20434668Y23835727D01*
X19685000Y24585395D01*
X19670858Y24571252D01*
X19491253Y24750857D01*
X19505395Y24765000D01*
X19491253Y24779142D01*
X19670858Y24958747D01*
X19685000Y24944605D01*
X19699143Y24958747D01*
X19878748Y24779142D01*
%TA.AperFunction,Conductor*%
D28*
G36*
X19878748Y24779142D02*
G01*
X19864605Y24765000D01*
X20614273Y24015332D01*
X20849183Y24076152D01*
X20957206Y24307934D01*
X21032013Y24127335D01*
X21179338Y23906847D01*
X21366847Y23719338D01*
X21587335Y23572013D01*
X21832328Y23470533D01*
X22092411Y23418800D01*
X22357589Y23418800D01*
X22617672Y23470533D01*
X22862665Y23572013D01*
X23083153Y23719338D01*
X23270662Y23906847D01*
X23302837Y23955000D01*
X24714488Y23955000D01*
X23794488Y23035000D01*
X20762837Y23035000D01*
X20730662Y23083153D01*
X20543153Y23270662D01*
X20322665Y23417987D01*
X20134400Y23495969D01*
X20270280Y23545458D01*
X20373848Y23600817D01*
X20434668Y23835727D01*
X19685000Y24585395D01*
X19670858Y24571252D01*
X19491253Y24750857D01*
X19505395Y24765000D01*
X19491253Y24779142D01*
X19670858Y24958747D01*
X19685000Y24944605D01*
X19699143Y24958747D01*
X19878748Y24779142D01*
G37*
%TD.AperFunction*%
D27*
X37592000Y26732000D02*
X37612000Y26732000D01*
X37612000Y26478000D01*
X37592000Y26478000D01*
X37592000Y25153750D01*
X37645394Y25100356D01*
X37643617Y25096067D01*
X37600000Y24876788D01*
X37600000Y24653212D01*
X37643617Y24433933D01*
X37710481Y24272510D01*
X36951929Y25031061D01*
X37040518Y25004188D01*
X37165000Y24991928D01*
X37179250Y24995000D01*
X37338000Y25153750D01*
X37338000Y26478000D01*
X37318000Y26478000D01*
X37318000Y26732000D01*
X37338000Y26732000D01*
X37338000Y26752000D01*
X37592000Y26752000D01*
X37592000Y26732000D01*
%TA.AperFunction,Conductor*%
D28*
G36*
X37592000Y26732000D02*
G01*
X37612000Y26732000D01*
X37612000Y26478000D01*
X37592000Y26478000D01*
X37592000Y25153750D01*
X37645394Y25100356D01*
X37643617Y25096067D01*
X37600000Y24876788D01*
X37600000Y24653212D01*
X37643617Y24433933D01*
X37710481Y24272510D01*
X36951929Y25031061D01*
X37040518Y25004188D01*
X37165000Y24991928D01*
X37179250Y24995000D01*
X37338000Y25153750D01*
X37338000Y26478000D01*
X37318000Y26478000D01*
X37318000Y26732000D01*
X37338000Y26732000D01*
X37338000Y26752000D01*
X37592000Y26752000D01*
X37592000Y26732000D01*
G37*
%TD.AperFunction*%
D27*
X8332013Y36827335D02*
X8479338Y36606847D01*
X8666847Y36419338D01*
X8887335Y36272013D01*
X9132328Y36170533D01*
X9392411Y36118800D01*
X9657589Y36118800D01*
X9714390Y36130098D01*
X12734105Y33110382D01*
X12759472Y33079472D01*
X12873499Y32985893D01*
X12882811Y32978251D01*
X13023526Y32903037D01*
X13059063Y32892257D01*
X13176212Y32856720D01*
X13295209Y32845000D01*
X13295212Y32845000D01*
X13335000Y32841081D01*
X13374788Y32845000D01*
X18418421Y32845000D01*
X18390533Y32777672D01*
X18338800Y32517589D01*
X18338800Y32252411D01*
X18390533Y31992328D01*
X18408066Y31950000D01*
X13047265Y31950000D01*
X12884140Y32113125D01*
X12673676Y32253753D01*
X12439821Y32350619D01*
X12191561Y32400000D01*
X11938439Y32400000D01*
X11690179Y32350619D01*
X11456324Y32253753D01*
X11245860Y32113125D01*
X11066875Y31934140D01*
X10926247Y31723676D01*
X10829381Y31489821D01*
X10780000Y31241561D01*
X10780000Y30988439D01*
X10829381Y30740179D01*
X10917268Y30528000D01*
X9987513Y30528000D01*
X8319902Y32195610D01*
X8331200Y32252411D01*
X8331200Y32517589D01*
X8279467Y32777672D01*
X8177987Y33022665D01*
X8030662Y33243153D01*
X7843153Y33430662D01*
X7622665Y33577987D01*
X7434400Y33655969D01*
X7570280Y33705458D01*
X7673848Y33760817D01*
X7734668Y33995727D01*
X6985000Y34745395D01*
X6235332Y33995727D01*
X6296152Y33760817D01*
X6527934Y33652794D01*
X6347335Y33577987D01*
X6126847Y33430662D01*
X5939338Y33243153D01*
X5792013Y33022665D01*
X5715000Y32836740D01*
X5637987Y33022665D01*
X5490662Y33243153D01*
X5303153Y33430662D01*
X5082665Y33577987D01*
X4896740Y33655000D01*
X5082665Y33732013D01*
X5303153Y33879338D01*
X5490662Y34066847D01*
X5637987Y34287335D01*
X5715969Y34475600D01*
X5765458Y34339720D01*
X5820817Y34236152D01*
X6055727Y34175332D01*
X6805395Y34925000D01*
X7164605Y34925000D01*
X7914273Y34175332D01*
X8149183Y34236152D01*
X8261202Y34476509D01*
X8324176Y34734102D01*
X8335687Y34999030D01*
X8295291Y35261113D01*
X8204542Y35510280D01*
X8149183Y35613848D01*
X7914273Y35674668D01*
X7164605Y34925000D01*
X6805395Y34925000D01*
X6055727Y35674668D01*
X5820817Y35613848D01*
X5712794Y35382066D01*
X5637987Y35562665D01*
X5490662Y35783153D01*
X5303153Y35970662D01*
X5082665Y36117987D01*
X4896740Y36195000D01*
X5082665Y36272013D01*
X5303153Y36419338D01*
X5490662Y36606847D01*
X5637987Y36827335D01*
X5715000Y37013260D01*
X5792013Y36827335D01*
X5939338Y36606847D01*
X6126847Y36419338D01*
X6347335Y36272013D01*
X6535600Y36194031D01*
X6399720Y36144542D01*
X6296152Y36089183D01*
X6235332Y35854273D01*
X6985000Y35104605D01*
X7734668Y35854273D01*
X7673848Y36089183D01*
X7442066Y36197206D01*
X7622665Y36272013D01*
X7843153Y36419338D01*
X8030662Y36606847D01*
X8177987Y36827335D01*
X8255000Y37013260D01*
X8332013Y36827335D01*
%TA.AperFunction,Conductor*%
D28*
G36*
X8332013Y36827335D02*
G01*
X8479338Y36606847D01*
X8666847Y36419338D01*
X8887335Y36272013D01*
X9132328Y36170533D01*
X9392411Y36118800D01*
X9657589Y36118800D01*
X9714390Y36130098D01*
X12734105Y33110382D01*
X12759472Y33079472D01*
X12873499Y32985893D01*
X12882811Y32978251D01*
X13023526Y32903037D01*
X13059063Y32892257D01*
X13176212Y32856720D01*
X13295209Y32845000D01*
X13295212Y32845000D01*
X13335000Y32841081D01*
X13374788Y32845000D01*
X18418421Y32845000D01*
X18390533Y32777672D01*
X18338800Y32517589D01*
X18338800Y32252411D01*
X18390533Y31992328D01*
X18408066Y31950000D01*
X13047265Y31950000D01*
X12884140Y32113125D01*
X12673676Y32253753D01*
X12439821Y32350619D01*
X12191561Y32400000D01*
X11938439Y32400000D01*
X11690179Y32350619D01*
X11456324Y32253753D01*
X11245860Y32113125D01*
X11066875Y31934140D01*
X10926247Y31723676D01*
X10829381Y31489821D01*
X10780000Y31241561D01*
X10780000Y30988439D01*
X10829381Y30740179D01*
X10917268Y30528000D01*
X9987513Y30528000D01*
X8319902Y32195610D01*
X8331200Y32252411D01*
X8331200Y32517589D01*
X8279467Y32777672D01*
X8177987Y33022665D01*
X8030662Y33243153D01*
X7843153Y33430662D01*
X7622665Y33577987D01*
X7434400Y33655969D01*
X7570280Y33705458D01*
X7673848Y33760817D01*
X7734668Y33995727D01*
X6985000Y34745395D01*
X6235332Y33995727D01*
X6296152Y33760817D01*
X6527934Y33652794D01*
X6347335Y33577987D01*
X6126847Y33430662D01*
X5939338Y33243153D01*
X5792013Y33022665D01*
X5715000Y32836740D01*
X5637987Y33022665D01*
X5490662Y33243153D01*
X5303153Y33430662D01*
X5082665Y33577987D01*
X4896740Y33655000D01*
X5082665Y33732013D01*
X5303153Y33879338D01*
X5490662Y34066847D01*
X5637987Y34287335D01*
X5715969Y34475600D01*
X5765458Y34339720D01*
X5820817Y34236152D01*
X6055727Y34175332D01*
X6805395Y34925000D01*
X7164605Y34925000D01*
X7914273Y34175332D01*
X8149183Y34236152D01*
X8261202Y34476509D01*
X8324176Y34734102D01*
X8335687Y34999030D01*
X8295291Y35261113D01*
X8204542Y35510280D01*
X8149183Y35613848D01*
X7914273Y35674668D01*
X7164605Y34925000D01*
X6805395Y34925000D01*
X6055727Y35674668D01*
X5820817Y35613848D01*
X5712794Y35382066D01*
X5637987Y35562665D01*
X5490662Y35783153D01*
X5303153Y35970662D01*
X5082665Y36117987D01*
X4896740Y36195000D01*
X5082665Y36272013D01*
X5303153Y36419338D01*
X5490662Y36606847D01*
X5637987Y36827335D01*
X5715000Y37013260D01*
X5792013Y36827335D01*
X5939338Y36606847D01*
X6126847Y36419338D01*
X6347335Y36272013D01*
X6535600Y36194031D01*
X6399720Y36144542D01*
X6296152Y36089183D01*
X6235332Y35854273D01*
X6985000Y35104605D01*
X7734668Y35854273D01*
X7673848Y36089183D01*
X7442066Y36197206D01*
X7622665Y36272013D01*
X7843153Y36419338D01*
X8030662Y36606847D01*
X8177987Y36827335D01*
X8255000Y37013260D01*
X8332013Y36827335D01*
G37*
%TD.AperFunction*%
D27*
X17338748Y40019142D02*
X17324605Y40005000D01*
X17338748Y39990857D01*
X17159143Y39811252D01*
X17145000Y39825395D01*
X17130858Y39811252D01*
X16951253Y39990857D01*
X16965395Y40005000D01*
X16951253Y40019142D01*
X17130858Y40198747D01*
X17145000Y40184605D01*
X17159143Y40198747D01*
X17338748Y40019142D01*
%TA.AperFunction,Conductor*%
D28*
G36*
X17338748Y40019142D02*
G01*
X17324605Y40005000D01*
X17338748Y39990857D01*
X17159143Y39811252D01*
X17145000Y39825395D01*
X17130858Y39811252D01*
X16951253Y39990857D01*
X16965395Y40005000D01*
X16951253Y40019142D01*
X17130858Y40198747D01*
X17145000Y40184605D01*
X17159143Y40198747D01*
X17338748Y40019142D01*
G37*
%TD.AperFunction*%
%TD*%
M02*
