%TF.GenerationSoftware,KiCad,Pcbnew,(5.1.12)-1*%
%TF.CreationDate,2024-01-28T09:01:29+01:00*%
%TF.ProjectId,EREBUS,45524542-5553-42e6-9b69-6361645f7063,rev?*%
%TF.SameCoordinates,PX6d01460PY60e4b00*%
%TF.FileFunction,Legend,Bot*%
%TF.FilePolarity,Positive*%
%FSLAX46Y46*%
G04 Gerber Fmt 4.6, Leading zero omitted, Abs format (unit mm)*
G04 Created by KiCad (PCBNEW (5.1.12)-1) date 2024-01-28 09:01:29*
%MOMM*%
%LPD*%
G01*
G04 APERTURE LIST*
%ADD10C,0.150000*%
G04 APERTURE END LIST*
D10*
X12666071Y48331429D02*
X12999404Y48331429D01*
X12999404Y47807620D02*
X12999404Y48807620D01*
X12523214Y48807620D01*
X12142261Y47807620D02*
X12142261Y48474286D01*
X12142261Y48283810D02*
X12094642Y48379048D01*
X12047023Y48426667D01*
X11951785Y48474286D01*
X11856547Y48474286D01*
X11142261Y47855239D02*
X11237500Y47807620D01*
X11427976Y47807620D01*
X11523214Y47855239D01*
X11570833Y47950477D01*
X11570833Y48331429D01*
X11523214Y48426667D01*
X11427976Y48474286D01*
X11237500Y48474286D01*
X11142261Y48426667D01*
X11094642Y48331429D01*
X11094642Y48236191D01*
X11570833Y48140953D01*
X10237500Y47807620D02*
X10237500Y48807620D01*
X10237500Y47855239D02*
X10332738Y47807620D01*
X10523214Y47807620D01*
X10618452Y47855239D01*
X10666071Y47902858D01*
X10713690Y47998096D01*
X10713690Y48283810D01*
X10666071Y48379048D01*
X10618452Y48426667D01*
X10523214Y48474286D01*
X10332738Y48474286D01*
X10237500Y48426667D01*
X9999404Y47712381D02*
X9237500Y47712381D01*
X9094642Y48807620D02*
X8427976Y48807620D01*
X8856547Y47807620D01*
X8094642Y48712381D02*
X8047023Y48760000D01*
X7951785Y48807620D01*
X7713690Y48807620D01*
X7618452Y48760000D01*
X7570833Y48712381D01*
X7523214Y48617143D01*
X7523214Y48521905D01*
X7570833Y48379048D01*
X8142261Y47807620D01*
X7523214Y47807620D01*
X5808928Y47807620D02*
X6380357Y47807620D01*
X6094642Y47807620D02*
X6094642Y48807620D01*
X6189880Y48664762D01*
X6285119Y48569524D01*
X6380357Y48521905D01*
X5427976Y48712381D02*
X5380357Y48760000D01*
X5285119Y48807620D01*
X5047023Y48807620D01*
X4951785Y48760000D01*
X4904166Y48712381D01*
X4856547Y48617143D01*
X4856547Y48521905D01*
X4904166Y48379048D01*
X5475595Y47807620D01*
X4856547Y47807620D01*
X3713690Y48855239D02*
X4570833Y47569524D01*
X3427976Y48712381D02*
X3380357Y48760000D01*
X3285119Y48807620D01*
X3047023Y48807620D01*
X2951785Y48760000D01*
X2904166Y48712381D01*
X2856547Y48617143D01*
X2856547Y48521905D01*
X2904166Y48379048D01*
X3475595Y47807620D01*
X2856547Y47807620D01*
X1904166Y47807620D02*
X2475595Y47807620D01*
X2189880Y47807620D02*
X2189880Y48807620D01*
X2285119Y48664762D01*
X2380357Y48569524D01*
X2475595Y48521905D01*
M02*
