%TF.GenerationSoftware,KiCad,Pcbnew,(5.1.12)-1*%
%TF.CreationDate,2022-04-06T13:04:15+02:00*%
%TF.ProjectId,ACIA_USB,41434941-5f55-4534-922e-6b696361645f,1.0*%
%TF.SameCoordinates,PX6d01460PY60e4b00*%
%TF.FileFunction,Copper,L1,Top*%
%TF.FilePolarity,Positive*%
%FSLAX46Y46*%
G04 Gerber Fmt 4.6, Leading zero omitted, Abs format (unit mm)*
G04 Created by KiCad (PCBNEW (5.1.12)-1) date 2022-04-06 13:04:15*
%MOMM*%
%LPD*%
G01*
G04 APERTURE LIST*
%TA.AperFunction,ComponentPad*%
%ADD10C,1.600000*%
%TD*%
%TA.AperFunction,ComponentPad*%
%ADD11C,1.500000*%
%TD*%
%TA.AperFunction,ComponentPad*%
%ADD12C,4.000000*%
%TD*%
%TA.AperFunction,ComponentPad*%
%ADD13R,1.600000X1.600000*%
%TD*%
%TA.AperFunction,ComponentPad*%
%ADD14O,1.600000X1.600000*%
%TD*%
%TA.AperFunction,ComponentPad*%
%ADD15O,1.600000X2.400000*%
%TD*%
%TA.AperFunction,ComponentPad*%
%ADD16R,1.600000X2.400000*%
%TD*%
%TA.AperFunction,ComponentPad*%
%ADD17O,2.400000X1.600000*%
%TD*%
%TA.AperFunction,ComponentPad*%
%ADD18R,2.400000X1.600000*%
%TD*%
%TA.AperFunction,ComponentPad*%
%ADD19C,1.700000*%
%TD*%
%TA.AperFunction,ViaPad*%
%ADD20C,1.300000*%
%TD*%
%TA.AperFunction,Conductor*%
%ADD21C,0.800000*%
%TD*%
%TA.AperFunction,Conductor*%
%ADD22C,0.600000*%
%TD*%
%TA.AperFunction,Conductor*%
%ADD23C,0.400000*%
%TD*%
%TA.AperFunction,Conductor*%
%ADD24C,0.254000*%
%TD*%
%TA.AperFunction,Conductor*%
%ADD25C,0.100000*%
%TD*%
G04 APERTURE END LIST*
D10*
%TO.P,C7,2*%
%TO.N,GND*%
X50165000Y15320000D03*
%TO.P,C7,1*%
%TO.N,VCC*%
X50165000Y20320000D03*
%TD*%
%TO.P,C5,2*%
%TO.N,GND*%
%TA.AperFunction,SMDPad,CuDef*%
G36*
G01*
X55750000Y20795000D02*
X55750000Y19845000D01*
G75*
G02*
X55500000Y19595000I-250000J0D01*
G01*
X55000000Y19595000D01*
G75*
G02*
X54750000Y19845000I0J250000D01*
G01*
X54750000Y20795000D01*
G75*
G02*
X55000000Y21045000I250000J0D01*
G01*
X55500000Y21045000D01*
G75*
G02*
X55750000Y20795000I0J-250000D01*
G01*
G37*
%TD.AperFunction*%
%TO.P,C5,1*%
%TO.N,Net-(C5-Pad1)*%
%TA.AperFunction,SMDPad,CuDef*%
G36*
G01*
X57650000Y20795000D02*
X57650000Y19845000D01*
G75*
G02*
X57400000Y19595000I-250000J0D01*
G01*
X56900000Y19595000D01*
G75*
G02*
X56650000Y19845000I0J250000D01*
G01*
X56650000Y20795000D01*
G75*
G02*
X56900000Y21045000I250000J0D01*
G01*
X57400000Y21045000D01*
G75*
G02*
X57650000Y20795000I0J-250000D01*
G01*
G37*
%TD.AperFunction*%
%TD*%
%TO.P,U4,16*%
%TO.N,VCC*%
%TA.AperFunction,SMDPad,CuDef*%
G36*
G01*
X51078000Y23645000D02*
X51078000Y23345000D01*
G75*
G02*
X50928000Y23195000I-150000J0D01*
G01*
X49278000Y23195000D01*
G75*
G02*
X49128000Y23345000I0J150000D01*
G01*
X49128000Y23645000D01*
G75*
G02*
X49278000Y23795000I150000J0D01*
G01*
X50928000Y23795000D01*
G75*
G02*
X51078000Y23645000I0J-150000D01*
G01*
G37*
%TD.AperFunction*%
%TO.P,U4,15*%
%TO.N,Net-(U4-Pad15)*%
%TA.AperFunction,SMDPad,CuDef*%
G36*
G01*
X51078000Y24915000D02*
X51078000Y24615000D01*
G75*
G02*
X50928000Y24465000I-150000J0D01*
G01*
X49278000Y24465000D01*
G75*
G02*
X49128000Y24615000I0J150000D01*
G01*
X49128000Y24915000D01*
G75*
G02*
X49278000Y25065000I150000J0D01*
G01*
X50928000Y25065000D01*
G75*
G02*
X51078000Y24915000I0J-150000D01*
G01*
G37*
%TD.AperFunction*%
%TO.P,U4,14*%
%TO.N,Net-(U4-Pad14)*%
%TA.AperFunction,SMDPad,CuDef*%
G36*
G01*
X51078000Y26185000D02*
X51078000Y25885000D01*
G75*
G02*
X50928000Y25735000I-150000J0D01*
G01*
X49278000Y25735000D01*
G75*
G02*
X49128000Y25885000I0J150000D01*
G01*
X49128000Y26185000D01*
G75*
G02*
X49278000Y26335000I150000J0D01*
G01*
X50928000Y26335000D01*
G75*
G02*
X51078000Y26185000I0J-150000D01*
G01*
G37*
%TD.AperFunction*%
%TO.P,U4,13*%
%TO.N,Net-(U4-Pad13)*%
%TA.AperFunction,SMDPad,CuDef*%
G36*
G01*
X51078000Y27455000D02*
X51078000Y27155000D01*
G75*
G02*
X50928000Y27005000I-150000J0D01*
G01*
X49278000Y27005000D01*
G75*
G02*
X49128000Y27155000I0J150000D01*
G01*
X49128000Y27455000D01*
G75*
G02*
X49278000Y27605000I150000J0D01*
G01*
X50928000Y27605000D01*
G75*
G02*
X51078000Y27455000I0J-150000D01*
G01*
G37*
%TD.AperFunction*%
%TO.P,U4,12*%
%TO.N,Net-(U4-Pad12)*%
%TA.AperFunction,SMDPad,CuDef*%
G36*
G01*
X51078000Y28725000D02*
X51078000Y28425000D01*
G75*
G02*
X50928000Y28275000I-150000J0D01*
G01*
X49278000Y28275000D01*
G75*
G02*
X49128000Y28425000I0J150000D01*
G01*
X49128000Y28725000D01*
G75*
G02*
X49278000Y28875000I150000J0D01*
G01*
X50928000Y28875000D01*
G75*
G02*
X51078000Y28725000I0J-150000D01*
G01*
G37*
%TD.AperFunction*%
%TO.P,U4,11*%
%TO.N,Net-(U4-Pad11)*%
%TA.AperFunction,SMDPad,CuDef*%
G36*
G01*
X51078000Y29995000D02*
X51078000Y29695000D01*
G75*
G02*
X50928000Y29545000I-150000J0D01*
G01*
X49278000Y29545000D01*
G75*
G02*
X49128000Y29695000I0J150000D01*
G01*
X49128000Y29995000D01*
G75*
G02*
X49278000Y30145000I150000J0D01*
G01*
X50928000Y30145000D01*
G75*
G02*
X51078000Y29995000I0J-150000D01*
G01*
G37*
%TD.AperFunction*%
%TO.P,U4,10*%
%TO.N,Net-(U4-Pad10)*%
%TA.AperFunction,SMDPad,CuDef*%
G36*
G01*
X51078000Y31265000D02*
X51078000Y30965000D01*
G75*
G02*
X50928000Y30815000I-150000J0D01*
G01*
X49278000Y30815000D01*
G75*
G02*
X49128000Y30965000I0J150000D01*
G01*
X49128000Y31265000D01*
G75*
G02*
X49278000Y31415000I150000J0D01*
G01*
X50928000Y31415000D01*
G75*
G02*
X51078000Y31265000I0J-150000D01*
G01*
G37*
%TD.AperFunction*%
%TO.P,U4,9*%
%TO.N,Net-(U4-Pad9)*%
%TA.AperFunction,SMDPad,CuDef*%
G36*
G01*
X51078000Y32535000D02*
X51078000Y32235000D01*
G75*
G02*
X50928000Y32085000I-150000J0D01*
G01*
X49278000Y32085000D01*
G75*
G02*
X49128000Y32235000I0J150000D01*
G01*
X49128000Y32535000D01*
G75*
G02*
X49278000Y32685000I150000J0D01*
G01*
X50928000Y32685000D01*
G75*
G02*
X51078000Y32535000I0J-150000D01*
G01*
G37*
%TD.AperFunction*%
%TO.P,U4,8*%
%TO.N,Net-(C6-Pad2)*%
%TA.AperFunction,SMDPad,CuDef*%
G36*
G01*
X56028000Y32535000D02*
X56028000Y32235000D01*
G75*
G02*
X55878000Y32085000I-150000J0D01*
G01*
X54228000Y32085000D01*
G75*
G02*
X54078000Y32235000I0J150000D01*
G01*
X54078000Y32535000D01*
G75*
G02*
X54228000Y32685000I150000J0D01*
G01*
X55878000Y32685000D01*
G75*
G02*
X56028000Y32535000I0J-150000D01*
G01*
G37*
%TD.AperFunction*%
%TO.P,U4,7*%
%TO.N,Net-(C4-Pad2)*%
%TA.AperFunction,SMDPad,CuDef*%
G36*
G01*
X56028000Y31265000D02*
X56028000Y30965000D01*
G75*
G02*
X55878000Y30815000I-150000J0D01*
G01*
X54228000Y30815000D01*
G75*
G02*
X54078000Y30965000I0J150000D01*
G01*
X54078000Y31265000D01*
G75*
G02*
X54228000Y31415000I150000J0D01*
G01*
X55878000Y31415000D01*
G75*
G02*
X56028000Y31265000I0J-150000D01*
G01*
G37*
%TD.AperFunction*%
%TO.P,U4,6*%
%TO.N,Net-(J2-Pad2)*%
%TA.AperFunction,SMDPad,CuDef*%
G36*
G01*
X56028000Y29995000D02*
X56028000Y29695000D01*
G75*
G02*
X55878000Y29545000I-150000J0D01*
G01*
X54228000Y29545000D01*
G75*
G02*
X54078000Y29695000I0J150000D01*
G01*
X54078000Y29995000D01*
G75*
G02*
X54228000Y30145000I150000J0D01*
G01*
X55878000Y30145000D01*
G75*
G02*
X56028000Y29995000I0J-150000D01*
G01*
G37*
%TD.AperFunction*%
%TO.P,U4,5*%
%TO.N,Net-(J2-Pad3)*%
%TA.AperFunction,SMDPad,CuDef*%
G36*
G01*
X56028000Y28725000D02*
X56028000Y28425000D01*
G75*
G02*
X55878000Y28275000I-150000J0D01*
G01*
X54228000Y28275000D01*
G75*
G02*
X54078000Y28425000I0J150000D01*
G01*
X54078000Y28725000D01*
G75*
G02*
X54228000Y28875000I150000J0D01*
G01*
X55878000Y28875000D01*
G75*
G02*
X56028000Y28725000I0J-150000D01*
G01*
G37*
%TD.AperFunction*%
%TO.P,U4,4*%
%TO.N,Net-(C5-Pad1)*%
%TA.AperFunction,SMDPad,CuDef*%
G36*
G01*
X56028000Y27455000D02*
X56028000Y27155000D01*
G75*
G02*
X55878000Y27005000I-150000J0D01*
G01*
X54228000Y27005000D01*
G75*
G02*
X54078000Y27155000I0J150000D01*
G01*
X54078000Y27455000D01*
G75*
G02*
X54228000Y27605000I150000J0D01*
G01*
X55878000Y27605000D01*
G75*
G02*
X56028000Y27455000I0J-150000D01*
G01*
G37*
%TD.AperFunction*%
%TO.P,U4,3*%
%TO.N,Net-(U1-Pad10)*%
%TA.AperFunction,SMDPad,CuDef*%
G36*
G01*
X56028000Y26185000D02*
X56028000Y25885000D01*
G75*
G02*
X55878000Y25735000I-150000J0D01*
G01*
X54228000Y25735000D01*
G75*
G02*
X54078000Y25885000I0J150000D01*
G01*
X54078000Y26185000D01*
G75*
G02*
X54228000Y26335000I150000J0D01*
G01*
X55878000Y26335000D01*
G75*
G02*
X56028000Y26185000I0J-150000D01*
G01*
G37*
%TD.AperFunction*%
%TO.P,U4,2*%
%TO.N,Net-(U1-Pad12)*%
%TA.AperFunction,SMDPad,CuDef*%
G36*
G01*
X56028000Y24915000D02*
X56028000Y24615000D01*
G75*
G02*
X55878000Y24465000I-150000J0D01*
G01*
X54228000Y24465000D01*
G75*
G02*
X54078000Y24615000I0J150000D01*
G01*
X54078000Y24915000D01*
G75*
G02*
X54228000Y25065000I150000J0D01*
G01*
X55878000Y25065000D01*
G75*
G02*
X56028000Y24915000I0J-150000D01*
G01*
G37*
%TD.AperFunction*%
%TO.P,U4,1*%
%TO.N,GND*%
%TA.AperFunction,SMDPad,CuDef*%
G36*
G01*
X56028000Y23645000D02*
X56028000Y23345000D01*
G75*
G02*
X55878000Y23195000I-150000J0D01*
G01*
X54228000Y23195000D01*
G75*
G02*
X54078000Y23345000I0J150000D01*
G01*
X54078000Y23645000D01*
G75*
G02*
X54228000Y23795000I150000J0D01*
G01*
X55878000Y23795000D01*
G75*
G02*
X56028000Y23645000I0J-150000D01*
G01*
G37*
%TD.AperFunction*%
%TD*%
D11*
%TO.P,Y2,2*%
%TO.N,Net-(C6-Pad2)*%
X52886000Y37973000D03*
%TO.P,Y2,1*%
%TO.N,Net-(C4-Pad2)*%
X48006000Y37973000D03*
%TD*%
D12*
%TO.P,J2,5*%
%TO.N,GND*%
X65058000Y37135000D03*
X65058000Y25135000D03*
D10*
%TO.P,J2,4*%
X62198000Y32385000D03*
%TO.P,J2,3*%
%TO.N,Net-(J2-Pad3)*%
X62198000Y29885000D03*
%TO.P,J2,2*%
%TO.N,Net-(J2-Pad2)*%
X60198000Y29885000D03*
D13*
%TO.P,J2,1*%
%TO.N,Net-(J2-Pad1)*%
X60198000Y32385000D03*
%TD*%
D10*
%TO.P,C6,2*%
%TO.N,Net-(C6-Pad2)*%
X52832000Y42291000D03*
%TO.P,C6,1*%
%TO.N,GND*%
X52832000Y44878000D03*
%TD*%
%TO.P,C4,2*%
%TO.N,Net-(C4-Pad2)*%
X48006000Y42291000D03*
%TO.P,C4,1*%
%TO.N,GND*%
X48006000Y44791000D03*
%TD*%
D14*
%TO.P,R1,2*%
%TO.N,Net-(C8-Pad2)*%
X19685000Y45720000D03*
D10*
%TO.P,R1,1*%
%TO.N,Net-(R1-Pad1)*%
X19685000Y35560000D03*
%TD*%
D11*
%TO.P,Y1,2*%
%TO.N,Net-(R1-Pad1)*%
X17145000Y38280000D03*
%TO.P,Y1,1*%
%TO.N,Net-(C8-Pad2)*%
X17145000Y43180000D03*
%TD*%
D10*
%TO.P,C8,2*%
%TO.N,Net-(C8-Pad2)*%
X22860000Y41950000D03*
%TO.P,C8,1*%
%TO.N,GND*%
X22860000Y44450000D03*
%TD*%
D15*
%TO.P,U2,14*%
%TO.N,VCC*%
X3810000Y32385000D03*
%TO.P,U2,7*%
%TO.N,GND*%
X19050000Y24765000D03*
%TO.P,U2,13*%
%TO.N,N/C*%
X6350000Y32385000D03*
%TO.P,U2,6*%
%TO.N,Net-(U2-Pad6)*%
X16510000Y24765000D03*
%TO.P,U2,12*%
%TO.N,N/C*%
X8890000Y32385000D03*
%TO.P,U2,5*%
%TO.N,/A6*%
X13970000Y24765000D03*
%TO.P,U2,11*%
%TO.N,N/C*%
X11430000Y32385000D03*
%TO.P,U2,4*%
%TO.N,Net-(U2-Pad4)*%
X11430000Y24765000D03*
%TO.P,U2,10*%
%TO.N,N/C*%
X13970000Y32385000D03*
%TO.P,U2,3*%
%TO.N,/~IO*%
X8890000Y24765000D03*
%TO.P,U2,9*%
%TO.N,/A5*%
X16510000Y32385000D03*
%TO.P,U2,2*%
%TO.N,Net-(U2-Pad2)*%
X6350000Y24765000D03*
%TO.P,U2,8*%
%TO.N,Net-(U2-Pad8)*%
X19050000Y32385000D03*
D16*
%TO.P,U2,1*%
%TO.N,/A7*%
X3810000Y24765000D03*
%TD*%
D17*
%TO.P,U1,28*%
%TO.N,/R_~W*%
X41910000Y44450000D03*
%TO.P,U1,14*%
%TO.N,/A1*%
X26670000Y11430000D03*
%TO.P,U1,27*%
%TO.N,/PHI2*%
X41910000Y41910000D03*
%TO.P,U1,13*%
%TO.N,/A0*%
X26670000Y13970000D03*
%TO.P,U1,26*%
%TO.N,Net-(U1-Pad26)*%
X41910000Y39370000D03*
%TO.P,U1,12*%
%TO.N,Net-(U1-Pad12)*%
X26670000Y16510000D03*
%TO.P,U1,25*%
%TO.N,/D7*%
X41910000Y36830000D03*
%TO.P,U1,11*%
%TO.N,Net-(U1-Pad11)*%
X26670000Y19050000D03*
%TO.P,U1,24*%
%TO.N,/D6*%
X41910000Y34290000D03*
%TO.P,U1,10*%
%TO.N,Net-(U1-Pad10)*%
X26670000Y21590000D03*
%TO.P,U1,23*%
%TO.N,/D5*%
X41910000Y31750000D03*
%TO.P,U1,9*%
%TO.N,GND*%
X26670000Y24130000D03*
%TO.P,U1,22*%
%TO.N,/D4*%
X41910000Y29210000D03*
%TO.P,U1,8*%
%TO.N,Net-(U1-Pad8)*%
X26670000Y26670000D03*
%TO.P,U1,21*%
%TO.N,/D3*%
X41910000Y26670000D03*
%TO.P,U1,7*%
%TO.N,Net-(R1-Pad1)*%
X26670000Y29210000D03*
%TO.P,U1,20*%
%TO.N,/D2*%
X41910000Y24130000D03*
%TO.P,U1,6*%
%TO.N,Net-(C8-Pad2)*%
X26670000Y31750000D03*
%TO.P,U1,19*%
%TO.N,/D1*%
X41910000Y21590000D03*
%TO.P,U1,5*%
%TO.N,Net-(U1-Pad5)*%
X26670000Y34290000D03*
%TO.P,U1,18*%
%TO.N,/D0*%
X41910000Y19050000D03*
%TO.P,U1,4*%
%TO.N,/~RESET*%
X26670000Y36830000D03*
%TO.P,U1,17*%
%TO.N,Net-(U1-Pad11)*%
X41910000Y16510000D03*
%TO.P,U1,3*%
%TO.N,Net-(D1-Pad1)*%
X26670000Y39370000D03*
%TO.P,U1,16*%
%TO.N,Net-(U1-Pad11)*%
X41910000Y13970000D03*
%TO.P,U1,2*%
%TO.N,VCC*%
X26670000Y41910000D03*
%TO.P,U1,15*%
X41910000Y11430000D03*
D18*
%TO.P,U1,1*%
%TO.N,GND*%
X26670000Y44450000D03*
%TD*%
D19*
%TO.P,J1,34*%
%TO.N,GND*%
X17780000Y3175000D03*
%TO.P,J1,32*%
%TO.N,/A11*%
X20320000Y3175000D03*
%TO.P,J1,30*%
%TO.N,/A12*%
X22860000Y3175000D03*
%TO.P,J1,28*%
%TO.N,/A13*%
X25400000Y3175000D03*
%TO.P,J1,26*%
%TO.N,/A14*%
X27940000Y3175000D03*
%TO.P,J1,24*%
%TO.N,/A15*%
X30480000Y3175000D03*
%TO.P,J1,22*%
%TO.N,/D7*%
X33020000Y3175000D03*
%TO.P,J1,20*%
%TO.N,/A4*%
X35560000Y3175000D03*
%TO.P,J1,18*%
%TO.N,/D4*%
X38100000Y3175000D03*
%TO.P,J1,16*%
%TO.N,/D3*%
X40640000Y3175000D03*
%TO.P,J1,14*%
%TO.N,/D6*%
X43180000Y3175000D03*
%TO.P,J1,12*%
%TO.N,/D1*%
X45720000Y3175000D03*
%TO.P,J1,10*%
%TO.N,/D0*%
X48260000Y3175000D03*
%TO.P,J1,8*%
%TO.N,/~IRQ*%
X50800000Y3175000D03*
%TO.P,J1,6*%
%TO.N,/~IOCTRL*%
X53340000Y3175000D03*
%TO.P,J1,4*%
%TO.N,/~RESET*%
X55880000Y3175000D03*
%TO.P,J1,2*%
%TO.N,/~ROMDIS*%
X58420000Y3175000D03*
%TO.P,J1,33*%
%TO.N,VCC*%
X17780000Y5715000D03*
%TO.P,J1,31*%
%TO.N,/A10*%
X20320000Y5715000D03*
%TO.P,J1,29*%
%TO.N,/A9*%
X22860000Y5715000D03*
%TO.P,J1,27*%
%TO.N,/A8*%
X25400000Y5715000D03*
%TO.P,J1,25*%
%TO.N,/A7*%
X27940000Y5715000D03*
%TO.P,J1,23*%
%TO.N,/A6*%
X30480000Y5715000D03*
%TO.P,J1,21*%
%TO.N,/A5*%
X33020000Y5715000D03*
%TO.P,J1,19*%
%TO.N,/D5*%
X35560000Y5715000D03*
%TO.P,J1,17*%
%TO.N,/A2*%
X38100000Y5715000D03*
%TO.P,J1,15*%
%TO.N,/A1*%
X40640000Y5715000D03*
%TO.P,J1,13*%
%TO.N,/A0*%
X43180000Y5715000D03*
%TO.P,J1,11*%
%TO.N,/A3*%
X45720000Y5715000D03*
%TO.P,J1,9*%
%TO.N,/D2*%
X48260000Y5715000D03*
%TO.P,J1,7*%
%TO.N,/R_~W*%
X50800000Y5715000D03*
%TO.P,J1,5*%
%TO.N,/~IO*%
X53340000Y5715000D03*
%TO.P,J1,3*%
%TO.N,/PHI2*%
X55880000Y5715000D03*
%TO.P,J1,1*%
%TO.N,/~MAP*%
%TA.AperFunction,ComponentPad*%
G36*
G01*
X57820000Y6565000D02*
X59020000Y6565000D01*
G75*
G02*
X59270000Y6315000I0J-250000D01*
G01*
X59270000Y5115000D01*
G75*
G02*
X59020000Y4865000I-250000J0D01*
G01*
X57820000Y4865000D01*
G75*
G02*
X57570000Y5115000I0J250000D01*
G01*
X57570000Y6315000D01*
G75*
G02*
X57820000Y6565000I250000J0D01*
G01*
G37*
%TD.AperFunction*%
%TD*%
D14*
%TO.P,D1,2*%
%TO.N,/~IOCTRL*%
X53340000Y9525000D03*
D13*
%TO.P,D1,1*%
%TO.N,Net-(D1-Pad1)*%
X45720000Y9525000D03*
%TD*%
D10*
%TO.P,C3,2*%
%TO.N,VCC*%
X22860000Y17700000D03*
%TO.P,C3,1*%
%TO.N,GND*%
X22860000Y12700000D03*
%TD*%
%TO.P,C2,2*%
%TO.N,VCC*%
X22860000Y31750000D03*
%TO.P,C2,1*%
%TO.N,GND*%
X22860000Y26750000D03*
%TD*%
D15*
%TO.P,U3,14*%
%TO.N,VCC*%
X3810000Y20320000D03*
%TO.P,U3,7*%
%TO.N,GND*%
X19050000Y12700000D03*
%TO.P,U3,13*%
%TO.N,N/C*%
X6350000Y20320000D03*
%TO.P,U3,6*%
%TO.N,/A3*%
X16510000Y12700000D03*
%TO.P,U3,12*%
%TO.N,VCC*%
X8890000Y20320000D03*
%TO.P,U3,5*%
%TO.N,/A2*%
X13970000Y12700000D03*
%TO.P,U3,11*%
%TO.N,Net-(U2-Pad4)*%
X11430000Y20320000D03*
%TO.P,U3,4*%
%TO.N,/A4*%
X11430000Y12700000D03*
%TO.P,U3,10*%
%TO.N,N/C*%
X13970000Y20320000D03*
%TO.P,U3,3*%
%TO.N,Net-(U2-Pad8)*%
X8890000Y12700000D03*
%TO.P,U3,9*%
%TO.N,N/C*%
X16510000Y20320000D03*
%TO.P,U3,2*%
%TO.N,Net-(U2-Pad6)*%
X6350000Y12700000D03*
%TO.P,U3,8*%
%TO.N,Net-(D1-Pad1)*%
X19050000Y20320000D03*
D16*
%TO.P,U3,1*%
%TO.N,Net-(U2-Pad2)*%
X3810000Y12700000D03*
%TD*%
D10*
%TO.P,C1,2*%
%TO.N,GND*%
X60865000Y13970000D03*
D13*
%TO.P,C1,1*%
%TO.N,VCC*%
X62865000Y13970000D03*
%TD*%
D20*
%TO.N,/~RESET*%
X46355000Y30480000D03*
%TO.N,/D6*%
X37465000Y25400000D03*
%TO.N,/A0*%
X43180000Y8890000D03*
%TO.N,/A1*%
X36830000Y13335000D03*
%TO.N,/A5*%
X29210000Y27940000D03*
%TO.N,/A6*%
X29210000Y22860000D03*
%TO.N,Net-(D1-Pad1)*%
X38735000Y20320000D03*
%TO.N,Net-(U1-Pad11)*%
X37465000Y18415000D03*
%TD*%
D21*
%TO.N,GND*%
X26670000Y24130000D02*
X24130000Y24130000D01*
X22860000Y25400000D02*
X22860000Y26750000D01*
X24130000Y24130000D02*
X22860000Y25400000D01*
X22860000Y12700000D02*
X19050000Y12700000D01*
D22*
X55250000Y23298000D02*
X55053000Y23495000D01*
X55250000Y20320000D02*
X55250000Y23298000D01*
D21*
X50165000Y15320000D02*
X52785000Y15320000D01*
X55250000Y17785000D02*
X55250000Y20320000D01*
X52785000Y15320000D02*
X55250000Y17785000D01*
%TO.N,VCC*%
X17780000Y5715000D02*
X5080000Y5715000D01*
X5080000Y5715000D02*
X1905000Y8890000D01*
X8890000Y20320000D02*
X8890000Y18415000D01*
X8890000Y18415000D02*
X8255000Y17780000D01*
X8255000Y17780000D02*
X4445000Y17780000D01*
X3810000Y18415000D02*
X3810000Y20320000D01*
X4445000Y17780000D02*
X3810000Y18415000D01*
X3810000Y32385000D02*
X2540000Y32385000D01*
X2540000Y32385000D02*
X1905000Y31750000D01*
X1905000Y8890000D02*
X1905000Y20320000D01*
X3810000Y20320000D02*
X1905000Y20320000D01*
X1905000Y31750000D02*
X1905000Y20320000D01*
X30480000Y41910000D02*
X26670000Y41910000D01*
X35560000Y46990000D02*
X30480000Y41910000D01*
X43815000Y11430000D02*
X41910000Y11430000D01*
X44450000Y12065000D02*
X43815000Y11430000D01*
X47625000Y46990000D02*
X66675000Y46990000D01*
X66675000Y46990000D02*
X70485000Y43180000D01*
X50165000Y12065000D02*
X44450000Y12065000D01*
X45085000Y37465000D02*
X45085000Y46990000D01*
X47625000Y34925000D02*
X45085000Y37465000D01*
X45085000Y46990000D02*
X35560000Y46990000D01*
X47625000Y46990000D02*
X45085000Y46990000D01*
X52705000Y12065000D02*
X62230000Y12065000D01*
X52705000Y12065000D02*
X50165000Y12065000D01*
X62865000Y12700000D02*
X62865000Y13970000D01*
X62230000Y12065000D02*
X62865000Y12700000D01*
X67945000Y13970000D02*
X70485000Y16510000D01*
X62865000Y13970000D02*
X67945000Y13970000D01*
X70485000Y43180000D02*
X70485000Y16510000D01*
X47625000Y25400000D02*
X47625000Y34925000D01*
X48260000Y20320000D02*
X50165000Y20320000D01*
X47625000Y20955000D02*
X48260000Y20320000D01*
D22*
X50103000Y23495000D02*
X47625000Y23495000D01*
D21*
X47625000Y23495000D02*
X47625000Y20955000D01*
X47625000Y25400000D02*
X47625000Y23495000D01*
D23*
%TO.N,/~RESET*%
X38100000Y35560000D02*
X36830000Y36830000D01*
X45085000Y35560000D02*
X38100000Y35560000D01*
X46355000Y34290000D02*
X45085000Y35560000D01*
X36830000Y36830000D02*
X26670000Y36830000D01*
X46355000Y30480000D02*
X46355000Y34290000D01*
%TO.N,/D6*%
X37465000Y25400000D02*
X37465000Y31750000D01*
X40005000Y34290000D02*
X41910000Y34290000D01*
X37465000Y31750000D02*
X40005000Y34290000D01*
%TO.N,/A0*%
X25400000Y9525000D02*
X24765000Y10160000D01*
X26035000Y13970000D02*
X26670000Y13970000D01*
X38735000Y9525000D02*
X25400000Y9525000D01*
X24765000Y12700000D02*
X26035000Y13970000D01*
X39370000Y8890000D02*
X38735000Y9525000D01*
X24765000Y10160000D02*
X24765000Y12700000D01*
X43180000Y8890000D02*
X39370000Y8890000D01*
%TO.N,/A1*%
X32385000Y11430000D02*
X26670000Y11430000D01*
X34290000Y13335000D02*
X32385000Y11430000D01*
X36830000Y13335000D02*
X34290000Y13335000D01*
%TO.N,/A2*%
X13970000Y12700000D02*
X13970000Y11430000D01*
X38100000Y5715000D02*
X38100000Y6985000D01*
X38100000Y6985000D02*
X36830000Y8255000D01*
X36830000Y8255000D02*
X16510000Y8255000D01*
X13970000Y10795000D02*
X13970000Y12700000D01*
X16510000Y8255000D02*
X13970000Y10795000D01*
%TO.N,/A3*%
X16510000Y12700000D02*
X16510000Y10160000D01*
X16510000Y10160000D02*
X17780000Y8890000D01*
X43815000Y7620000D02*
X39370000Y7620000D01*
X39370000Y7620000D02*
X38100000Y8890000D01*
X17780000Y8890000D02*
X38100000Y8890000D01*
X43815000Y7620000D02*
X45720000Y5715000D01*
%TO.N,/A4*%
X11430000Y12700000D02*
X11430000Y11430000D01*
X11430000Y11430000D02*
X15240000Y7620000D01*
X15240000Y7620000D02*
X33020000Y7620000D01*
X33020000Y7620000D02*
X34290000Y6350000D01*
X34290000Y4445000D02*
X35560000Y3175000D01*
X34290000Y6350000D02*
X34290000Y4445000D01*
%TO.N,/A5*%
X16510000Y30480000D02*
X16510000Y32385000D01*
X18415000Y28575000D02*
X16510000Y30480000D01*
X23495000Y28575000D02*
X18415000Y28575000D01*
X24130000Y27940000D02*
X23495000Y28575000D01*
X29210000Y27940000D02*
X24130000Y27940000D01*
%TO.N,/A6*%
X13970000Y23495000D02*
X13970000Y24765000D01*
X14605000Y22860000D02*
X13970000Y23495000D01*
X29210000Y22860000D02*
X14605000Y22860000D01*
%TO.N,Net-(C4-Pad2)*%
X55053000Y31115000D02*
X53467000Y31115000D01*
X53467000Y31115000D02*
X52578000Y32004000D01*
X52578000Y32004000D02*
X52578000Y33909000D01*
X52578000Y33909000D02*
X51435000Y35052000D01*
X51435000Y35052000D02*
X49276000Y35052000D01*
X48006000Y36322000D02*
X48006000Y37973000D01*
X49276000Y35052000D02*
X48006000Y36322000D01*
%TO.N,Net-(C6-Pad2)*%
X55053000Y32385000D02*
X55053000Y33212000D01*
X52886000Y35379000D02*
X52886000Y37973000D01*
X55053000Y33212000D02*
X52886000Y35379000D01*
%TO.N,Net-(D1-Pad1)*%
X38735000Y20320000D02*
X19050000Y20320000D01*
%TO.N,/~IO*%
X9525000Y27305000D02*
X8890000Y26670000D01*
X11430000Y27305000D02*
X9525000Y27305000D01*
X12700000Y26035000D02*
X11430000Y27305000D01*
X12700000Y17780000D02*
X12700000Y26035000D01*
X53340000Y5715000D02*
X53340000Y6985000D01*
X37465000Y15240000D02*
X24765000Y15240000D01*
X53340000Y6985000D02*
X52705000Y7620000D01*
X40005000Y10160000D02*
X39370000Y10795000D01*
X52705000Y7620000D02*
X50800000Y7620000D01*
X47625000Y10795000D02*
X44450000Y10795000D01*
X50800000Y7620000D02*
X47625000Y10795000D01*
X43815000Y10160000D02*
X40005000Y10160000D01*
X8890000Y26670000D02*
X8890000Y24765000D01*
X39370000Y10795000D02*
X39370000Y13335000D01*
X14605000Y15875000D02*
X12700000Y17780000D01*
X24765000Y15240000D02*
X24130000Y15875000D01*
X39370000Y13335000D02*
X37465000Y15240000D01*
X44450000Y10795000D02*
X43815000Y10160000D01*
X24130000Y15875000D02*
X14605000Y15875000D01*
%TO.N,Net-(U2-Pad8)*%
X19050000Y33020000D02*
X19050000Y32385000D01*
X17780000Y34290000D02*
X19050000Y33020000D01*
X8890000Y12700000D02*
X8890000Y15240000D01*
X7620000Y26670000D02*
X9207500Y28257500D01*
X8890000Y15240000D02*
X10160000Y16510000D01*
X12700000Y33655000D02*
X13335000Y34290000D01*
X10160000Y16510000D02*
X10160000Y21590000D01*
X12700000Y29845000D02*
X12700000Y33655000D01*
X10160000Y21590000D02*
X9525000Y22225000D01*
X13335000Y34290000D02*
X17780000Y34290000D01*
X9525000Y22225000D02*
X8255000Y22225000D01*
X8255000Y22225000D02*
X7620000Y22860000D01*
X9207500Y28257500D02*
X11112500Y28257500D01*
X7620000Y22860000D02*
X7620000Y26670000D01*
X11112500Y28257500D02*
X12700000Y29845000D01*
%TO.N,Net-(C5-Pad1)*%
X57150000Y20320000D02*
X57150000Y26670000D01*
X56515000Y27305000D02*
X55053000Y27305000D01*
X57150000Y26670000D02*
X56515000Y27305000D01*
%TO.N,Net-(U1-Pad12)*%
X53340000Y24765000D02*
X55053000Y24765000D01*
X52705000Y24130000D02*
X53340000Y24765000D01*
X51435000Y17780000D02*
X52705000Y19050000D01*
X52705000Y19050000D02*
X52705000Y24130000D01*
X38735000Y16510000D02*
X40005000Y17780000D01*
X40005000Y17780000D02*
X51435000Y17780000D01*
X26670000Y16510000D02*
X38735000Y16510000D01*
D22*
%TO.N,Net-(U1-Pad11)*%
X37465000Y18415000D02*
X36830000Y19050000D01*
X36830000Y19050000D02*
X26670000Y19050000D01*
D23*
%TO.N,Net-(U1-Pad10)*%
X35560000Y21590000D02*
X26670000Y21590000D01*
X45085000Y22860000D02*
X36830000Y22860000D01*
X46355000Y21590000D02*
X45085000Y22860000D01*
X46355000Y19685000D02*
X46355000Y21590000D01*
X36830000Y22860000D02*
X35560000Y21590000D01*
X50800000Y18415000D02*
X47625000Y18415000D01*
X47625000Y18415000D02*
X46355000Y19685000D01*
X52070000Y19685000D02*
X50800000Y18415000D01*
X52070000Y24765000D02*
X52070000Y19685000D01*
X53340000Y26035000D02*
X52070000Y24765000D01*
X55053000Y26035000D02*
X53340000Y26035000D01*
%TO.N,Net-(J2-Pad2)*%
X55093000Y29885000D02*
X55053000Y29845000D01*
X60198000Y29885000D02*
X55093000Y29885000D01*
%TO.N,Net-(J2-Pad3)*%
X55053000Y28575000D02*
X57531000Y28575000D01*
X57531000Y28575000D02*
X58166000Y27940000D01*
X58166000Y27940000D02*
X61341000Y27940000D01*
X62198000Y28797000D02*
X62198000Y29885000D01*
X61341000Y27940000D02*
X62198000Y28797000D01*
D22*
%TO.N,Net-(C8-Pad2)*%
X26670000Y31750000D02*
X26035000Y31750000D01*
X26035000Y31750000D02*
X24765000Y33020000D01*
X24765000Y33020000D02*
X24765000Y38100000D01*
X22860000Y40005000D02*
X22860000Y41950000D01*
X24765000Y38100000D02*
X22860000Y40005000D01*
%TO.N,Net-(R1-Pad1)*%
X19685000Y35560000D02*
X20955000Y34290000D01*
X20955000Y34290000D02*
X20955000Y31115000D01*
X20955000Y31115000D02*
X22225000Y29845000D01*
X22225000Y29845000D02*
X24130000Y29845000D01*
X24130000Y29845000D02*
X24765000Y29210000D01*
X24765000Y29210000D02*
X26670000Y29210000D01*
%TD*%
D24*
%TO.N,GND*%
X75540000Y660000D02*
X660000Y660000D01*
X660000Y2146603D01*
X16931208Y2146603D01*
X17008843Y1897528D01*
X17272883Y1771629D01*
X17556411Y1699661D01*
X17848531Y1684389D01*
X18138019Y1726401D01*
X18413747Y1824081D01*
X18551157Y1897528D01*
X18628792Y2146603D01*
X17780000Y2995395D01*
X16931208Y2146603D01*
X660000Y2146603D01*
X660000Y3106469D01*
X16289389Y3106469D01*
X16331401Y2816981D01*
X16429081Y2541253D01*
X16502528Y2403843D01*
X16751603Y2326208D01*
X17600395Y3175000D01*
X16751603Y4023792D01*
X16502528Y3946157D01*
X16376629Y3682117D01*
X16304661Y3398589D01*
X16289389Y3106469D01*
X660000Y3106469D01*
X660000Y20320000D01*
X864993Y20320000D01*
X870001Y20269152D01*
X870000Y8940828D01*
X864994Y8890000D01*
X870000Y8839172D01*
X870000Y8839163D01*
X884976Y8687106D01*
X944159Y8492008D01*
X1040266Y8312203D01*
X1169604Y8154604D01*
X1209097Y8122193D01*
X4312197Y5019092D01*
X4344604Y4979604D01*
X4384092Y4947197D01*
X4502202Y4850266D01*
X4598309Y4798896D01*
X4682007Y4754159D01*
X4877105Y4694976D01*
X5029162Y4680000D01*
X5029171Y4680000D01*
X5079999Y4674994D01*
X5130827Y4680000D01*
X16714893Y4680000D01*
X16833368Y4561525D01*
X17006729Y4445689D01*
X16931208Y4203397D01*
X17780000Y3354605D01*
X18628792Y4203397D01*
X18553271Y4445689D01*
X18726632Y4561525D01*
X18933475Y4768368D01*
X19050000Y4942760D01*
X19166525Y4768368D01*
X19373368Y4561525D01*
X19547760Y4445000D01*
X19373368Y4328475D01*
X19166525Y4121632D01*
X19050689Y3948271D01*
X18808397Y4023792D01*
X17959605Y3175000D01*
X18808397Y2326208D01*
X19050689Y2401729D01*
X19166525Y2228368D01*
X19373368Y2021525D01*
X19616589Y1859010D01*
X19886842Y1747068D01*
X20173740Y1690000D01*
X20466260Y1690000D01*
X20753158Y1747068D01*
X21023411Y1859010D01*
X21266632Y2021525D01*
X21473475Y2228368D01*
X21590000Y2402760D01*
X21706525Y2228368D01*
X21913368Y2021525D01*
X22156589Y1859010D01*
X22426842Y1747068D01*
X22713740Y1690000D01*
X23006260Y1690000D01*
X23293158Y1747068D01*
X23563411Y1859010D01*
X23806632Y2021525D01*
X24013475Y2228368D01*
X24130000Y2402760D01*
X24246525Y2228368D01*
X24453368Y2021525D01*
X24696589Y1859010D01*
X24966842Y1747068D01*
X25253740Y1690000D01*
X25546260Y1690000D01*
X25833158Y1747068D01*
X26103411Y1859010D01*
X26346632Y2021525D01*
X26553475Y2228368D01*
X26670000Y2402760D01*
X26786525Y2228368D01*
X26993368Y2021525D01*
X27236589Y1859010D01*
X27506842Y1747068D01*
X27793740Y1690000D01*
X28086260Y1690000D01*
X28373158Y1747068D01*
X28643411Y1859010D01*
X28886632Y2021525D01*
X29093475Y2228368D01*
X29210000Y2402760D01*
X29326525Y2228368D01*
X29533368Y2021525D01*
X29776589Y1859010D01*
X30046842Y1747068D01*
X30333740Y1690000D01*
X30626260Y1690000D01*
X30913158Y1747068D01*
X31183411Y1859010D01*
X31426632Y2021525D01*
X31633475Y2228368D01*
X31750000Y2402760D01*
X31866525Y2228368D01*
X32073368Y2021525D01*
X32316589Y1859010D01*
X32586842Y1747068D01*
X32873740Y1690000D01*
X33166260Y1690000D01*
X33453158Y1747068D01*
X33723411Y1859010D01*
X33966632Y2021525D01*
X34173475Y2228368D01*
X34290000Y2402760D01*
X34406525Y2228368D01*
X34613368Y2021525D01*
X34856589Y1859010D01*
X35126842Y1747068D01*
X35413740Y1690000D01*
X35706260Y1690000D01*
X35993158Y1747068D01*
X36263411Y1859010D01*
X36506632Y2021525D01*
X36713475Y2228368D01*
X36830000Y2402760D01*
X36946525Y2228368D01*
X37153368Y2021525D01*
X37396589Y1859010D01*
X37666842Y1747068D01*
X37953740Y1690000D01*
X38246260Y1690000D01*
X38533158Y1747068D01*
X38803411Y1859010D01*
X39046632Y2021525D01*
X39253475Y2228368D01*
X39370000Y2402760D01*
X39486525Y2228368D01*
X39693368Y2021525D01*
X39936589Y1859010D01*
X40206842Y1747068D01*
X40493740Y1690000D01*
X40786260Y1690000D01*
X41073158Y1747068D01*
X41343411Y1859010D01*
X41586632Y2021525D01*
X41793475Y2228368D01*
X41910000Y2402760D01*
X42026525Y2228368D01*
X42233368Y2021525D01*
X42476589Y1859010D01*
X42746842Y1747068D01*
X43033740Y1690000D01*
X43326260Y1690000D01*
X43613158Y1747068D01*
X43883411Y1859010D01*
X44126632Y2021525D01*
X44333475Y2228368D01*
X44450000Y2402760D01*
X44566525Y2228368D01*
X44773368Y2021525D01*
X45016589Y1859010D01*
X45286842Y1747068D01*
X45573740Y1690000D01*
X45866260Y1690000D01*
X46153158Y1747068D01*
X46423411Y1859010D01*
X46666632Y2021525D01*
X46873475Y2228368D01*
X46990000Y2402760D01*
X47106525Y2228368D01*
X47313368Y2021525D01*
X47556589Y1859010D01*
X47826842Y1747068D01*
X48113740Y1690000D01*
X48406260Y1690000D01*
X48693158Y1747068D01*
X48963411Y1859010D01*
X49206632Y2021525D01*
X49413475Y2228368D01*
X49530000Y2402760D01*
X49646525Y2228368D01*
X49853368Y2021525D01*
X50096589Y1859010D01*
X50366842Y1747068D01*
X50653740Y1690000D01*
X50946260Y1690000D01*
X51233158Y1747068D01*
X51503411Y1859010D01*
X51746632Y2021525D01*
X51953475Y2228368D01*
X52070000Y2402760D01*
X52186525Y2228368D01*
X52393368Y2021525D01*
X52636589Y1859010D01*
X52906842Y1747068D01*
X53193740Y1690000D01*
X53486260Y1690000D01*
X53773158Y1747068D01*
X54043411Y1859010D01*
X54286632Y2021525D01*
X54493475Y2228368D01*
X54610000Y2402760D01*
X54726525Y2228368D01*
X54933368Y2021525D01*
X55176589Y1859010D01*
X55446842Y1747068D01*
X55733740Y1690000D01*
X56026260Y1690000D01*
X56313158Y1747068D01*
X56583411Y1859010D01*
X56826632Y2021525D01*
X57033475Y2228368D01*
X57150000Y2402760D01*
X57266525Y2228368D01*
X57473368Y2021525D01*
X57716589Y1859010D01*
X57986842Y1747068D01*
X58273740Y1690000D01*
X58566260Y1690000D01*
X58853158Y1747068D01*
X59123411Y1859010D01*
X59366632Y2021525D01*
X59573475Y2228368D01*
X59735990Y2471589D01*
X59847932Y2741842D01*
X59905000Y3028740D01*
X59905000Y3321260D01*
X59847932Y3608158D01*
X59735990Y3878411D01*
X59573475Y4121632D01*
X59386392Y4308715D01*
X59513386Y4376595D01*
X59647962Y4487038D01*
X59758405Y4621614D01*
X59840472Y4775150D01*
X59891008Y4941746D01*
X59908072Y5115000D01*
X59908072Y6315000D01*
X59891008Y6488254D01*
X59840472Y6654850D01*
X59758405Y6808386D01*
X59647962Y6942962D01*
X59513386Y7053405D01*
X59359850Y7135472D01*
X59193254Y7186008D01*
X59020000Y7203072D01*
X57820000Y7203072D01*
X57646746Y7186008D01*
X57480150Y7135472D01*
X57326614Y7053405D01*
X57192038Y6942962D01*
X57081595Y6808386D01*
X57013715Y6681392D01*
X56826632Y6868475D01*
X56583411Y7030990D01*
X56313158Y7142932D01*
X56026260Y7200000D01*
X55733740Y7200000D01*
X55446842Y7142932D01*
X55176589Y7030990D01*
X54933368Y6868475D01*
X54726525Y6661632D01*
X54610000Y6487240D01*
X54493475Y6661632D01*
X54286632Y6868475D01*
X54175000Y6943065D01*
X54175000Y6943982D01*
X54179040Y6985000D01*
X54162918Y7148688D01*
X54150678Y7189040D01*
X54115172Y7306087D01*
X54037636Y7451146D01*
X53933291Y7578291D01*
X53901431Y7604438D01*
X53415867Y8090000D01*
X53481335Y8090000D01*
X53758574Y8145147D01*
X54019727Y8253320D01*
X54254759Y8410363D01*
X54454637Y8610241D01*
X54611680Y8845273D01*
X54719853Y9106426D01*
X54775000Y9383665D01*
X54775000Y9666335D01*
X54719853Y9943574D01*
X54611680Y10204727D01*
X54454637Y10439759D01*
X54254759Y10639637D01*
X54019727Y10796680D01*
X53758574Y10904853D01*
X53481335Y10960000D01*
X53198665Y10960000D01*
X52921426Y10904853D01*
X52660273Y10796680D01*
X52425241Y10639637D01*
X52225363Y10439759D01*
X52068320Y10204727D01*
X51960147Y9943574D01*
X51905000Y9666335D01*
X51905000Y9383665D01*
X51960147Y9106426D01*
X52068320Y8845273D01*
X52225363Y8610241D01*
X52380604Y8455000D01*
X51145868Y8455000D01*
X48570867Y11030000D01*
X62179172Y11030000D01*
X62230000Y11024994D01*
X62280828Y11030000D01*
X62280838Y11030000D01*
X62432895Y11044976D01*
X62627993Y11104159D01*
X62807797Y11200266D01*
X62965396Y11329604D01*
X62997807Y11369097D01*
X63560903Y11932193D01*
X63600396Y11964604D01*
X63698142Y12083708D01*
X63729734Y12122202D01*
X63825841Y12302006D01*
X63852789Y12390841D01*
X63885024Y12497105D01*
X63892746Y12575513D01*
X63909180Y12580498D01*
X64019494Y12639463D01*
X64116185Y12718815D01*
X64195537Y12815506D01*
X64254502Y12925820D01*
X64257287Y12935000D01*
X67894172Y12935000D01*
X67945000Y12929994D01*
X67995828Y12935000D01*
X67995838Y12935000D01*
X68147895Y12949976D01*
X68342993Y13009159D01*
X68522797Y13105266D01*
X68680396Y13234604D01*
X68712807Y13274097D01*
X71180908Y15742197D01*
X71220396Y15774604D01*
X71268559Y15833291D01*
X71349734Y15932202D01*
X71406652Y16038689D01*
X71445841Y16112007D01*
X71505024Y16307105D01*
X71520000Y16459162D01*
X71520000Y16459171D01*
X71525006Y16509999D01*
X71520000Y16560827D01*
X71520000Y43129165D01*
X71525007Y43180000D01*
X71520000Y43230838D01*
X71505024Y43382895D01*
X71445841Y43577993D01*
X71366730Y43726000D01*
X71349734Y43757798D01*
X71252803Y43875908D01*
X71220396Y43915396D01*
X71180908Y43947803D01*
X67442807Y47685903D01*
X67410396Y47725396D01*
X67252797Y47854734D01*
X67072993Y47950841D01*
X66877895Y48010024D01*
X66725838Y48025000D01*
X66725828Y48025000D01*
X66675000Y48030006D01*
X66624172Y48025000D01*
X45135838Y48025000D01*
X45085000Y48030007D01*
X45034162Y48025000D01*
X35610835Y48025000D01*
X35560000Y48030007D01*
X35509164Y48025000D01*
X35509162Y48025000D01*
X35357105Y48010024D01*
X35162007Y47950841D01*
X35078309Y47906104D01*
X34982202Y47854734D01*
X34864092Y47757803D01*
X34824604Y47725396D01*
X34792197Y47685908D01*
X30051290Y42945000D01*
X28070853Y42945000D01*
X27976518Y43022419D01*
X27994482Y43024188D01*
X28114180Y43060498D01*
X28224494Y43119463D01*
X28321185Y43198815D01*
X28400537Y43295506D01*
X28459502Y43405820D01*
X28495812Y43525518D01*
X28508072Y43650000D01*
X28505000Y44164250D01*
X28346250Y44323000D01*
X26797000Y44323000D01*
X26797000Y44303000D01*
X26543000Y44303000D01*
X26543000Y44323000D01*
X24993750Y44323000D01*
X24835000Y44164250D01*
X24831928Y43650000D01*
X24844188Y43525518D01*
X24880498Y43405820D01*
X24939463Y43295506D01*
X25018815Y43198815D01*
X25115506Y43119463D01*
X25225820Y43060498D01*
X25345518Y43024188D01*
X25363482Y43022419D01*
X25250392Y42929608D01*
X25071068Y42711101D01*
X24937818Y42461808D01*
X24855764Y42191309D01*
X24828057Y41910000D01*
X24855764Y41628691D01*
X24937818Y41358192D01*
X25071068Y41108899D01*
X25250392Y40890392D01*
X25468899Y40711068D01*
X25601858Y40640000D01*
X25468899Y40568932D01*
X25250392Y40389608D01*
X25071068Y40171101D01*
X24937818Y39921808D01*
X24855764Y39651309D01*
X24828057Y39370000D01*
X24829233Y39358056D01*
X23795000Y40392289D01*
X23795000Y40855604D01*
X23974637Y41035241D01*
X24131680Y41270273D01*
X24239853Y41531426D01*
X24295000Y41808665D01*
X24295000Y42091335D01*
X24239853Y42368574D01*
X24131680Y42629727D01*
X23974637Y42864759D01*
X23774759Y43064637D01*
X23574131Y43198692D01*
X23601514Y43213329D01*
X23673097Y43457298D01*
X22860000Y44270395D01*
X22046903Y43457298D01*
X22118486Y43213329D01*
X22147341Y43199676D01*
X21945241Y43064637D01*
X21745363Y42864759D01*
X21588320Y42629727D01*
X21480147Y42368574D01*
X21425000Y42091335D01*
X21425000Y41808665D01*
X21480147Y41531426D01*
X21588320Y41270273D01*
X21745363Y41035241D01*
X21925000Y40855604D01*
X21925000Y40050932D01*
X21920476Y40005000D01*
X21925000Y39959069D01*
X21938529Y39821709D01*
X21991993Y39645461D01*
X22078814Y39483029D01*
X22195656Y39340656D01*
X22231341Y39311370D01*
X23830001Y37712710D01*
X23830000Y33065932D01*
X23825476Y33020000D01*
X23830000Y32974069D01*
X23843529Y32836709D01*
X23861313Y32778083D01*
X23774759Y32864637D01*
X23539727Y33021680D01*
X23278574Y33129853D01*
X23001335Y33185000D01*
X22718665Y33185000D01*
X22441426Y33129853D01*
X22180273Y33021680D01*
X21945241Y32864637D01*
X21890000Y32809396D01*
X21890000Y34244069D01*
X21894524Y34290001D01*
X21876471Y34473293D01*
X21842326Y34585854D01*
X21823007Y34649540D01*
X21736186Y34811972D01*
X21619344Y34954344D01*
X21583665Y34983625D01*
X21120000Y35447290D01*
X21120000Y35701335D01*
X21064853Y35978574D01*
X20956680Y36239727D01*
X20799637Y36474759D01*
X20599759Y36674637D01*
X20364727Y36831680D01*
X20103574Y36939853D01*
X19826335Y36995000D01*
X19543665Y36995000D01*
X19266426Y36939853D01*
X19005273Y36831680D01*
X18770241Y36674637D01*
X18570363Y36474759D01*
X18413320Y36239727D01*
X18305147Y35978574D01*
X18250000Y35701335D01*
X18250000Y35418665D01*
X18305147Y35141426D01*
X18413320Y34880273D01*
X18499355Y34751512D01*
X18399446Y34851421D01*
X18373291Y34883291D01*
X18246146Y34987636D01*
X18101087Y35065172D01*
X17943689Y35112918D01*
X17821019Y35125000D01*
X17821018Y35125000D01*
X17780000Y35129040D01*
X17738982Y35125000D01*
X13376018Y35125000D01*
X13335000Y35129040D01*
X13293982Y35125000D01*
X13293981Y35125000D01*
X13171311Y35112918D01*
X13099390Y35091101D01*
X13013913Y35065172D01*
X12868854Y34987636D01*
X12777732Y34912854D01*
X12741709Y34883291D01*
X12715562Y34851431D01*
X12138573Y34274441D01*
X12106710Y34248291D01*
X12080562Y34216429D01*
X12002364Y34121145D01*
X11996148Y34109516D01*
X11981807Y34117182D01*
X11711308Y34199236D01*
X11430000Y34226943D01*
X11148691Y34199236D01*
X10878192Y34117182D01*
X10628899Y33983932D01*
X10410392Y33804607D01*
X10231068Y33586100D01*
X10160000Y33453142D01*
X10088932Y33586101D01*
X9909607Y33804608D01*
X9691100Y33983932D01*
X9441807Y34117182D01*
X9171308Y34199236D01*
X8890000Y34226943D01*
X8608691Y34199236D01*
X8338192Y34117182D01*
X8088899Y33983932D01*
X7870392Y33804607D01*
X7691068Y33586100D01*
X7620000Y33453142D01*
X7548932Y33586101D01*
X7369607Y33804608D01*
X7151100Y33983932D01*
X6901807Y34117182D01*
X6631308Y34199236D01*
X6350000Y34226943D01*
X6068691Y34199236D01*
X5798192Y34117182D01*
X5548899Y33983932D01*
X5330392Y33804607D01*
X5151068Y33586100D01*
X5080000Y33453142D01*
X5008932Y33586101D01*
X4829607Y33804608D01*
X4611100Y33983932D01*
X4361807Y34117182D01*
X4091308Y34199236D01*
X3810000Y34226943D01*
X3528691Y34199236D01*
X3258192Y34117182D01*
X3008899Y33983932D01*
X2790392Y33804607D01*
X2611068Y33586100D01*
X2524126Y33423444D01*
X2489165Y33420000D01*
X2489162Y33420000D01*
X2337105Y33405024D01*
X2187415Y33359615D01*
X2142006Y33345841D01*
X1962202Y33249734D01*
X1916224Y33212000D01*
X1804604Y33120396D01*
X1772193Y33080903D01*
X1209097Y32517807D01*
X1169604Y32485396D01*
X1040266Y32327797D01*
X944159Y32147992D01*
X884976Y31952894D01*
X870000Y31800837D01*
X870000Y31800828D01*
X864994Y31750000D01*
X870000Y31699172D01*
X870001Y20370848D01*
X864993Y20320000D01*
X660000Y20320000D01*
X660000Y38416411D01*
X15760000Y38416411D01*
X15760000Y38143589D01*
X15813225Y37876011D01*
X15917629Y37623957D01*
X16069201Y37397114D01*
X16262114Y37204201D01*
X16488957Y37052629D01*
X16741011Y36948225D01*
X17008589Y36895000D01*
X17281411Y36895000D01*
X17548989Y36948225D01*
X17801043Y37052629D01*
X18027886Y37204201D01*
X18220799Y37397114D01*
X18372371Y37623957D01*
X18476775Y37876011D01*
X18530000Y38143589D01*
X18530000Y38416411D01*
X18476775Y38683989D01*
X18372371Y38936043D01*
X18220799Y39162886D01*
X18027886Y39355799D01*
X17801043Y39507371D01*
X17548989Y39611775D01*
X17281411Y39665000D01*
X17008589Y39665000D01*
X16741011Y39611775D01*
X16488957Y39507371D01*
X16262114Y39355799D01*
X16069201Y39162886D01*
X15917629Y38936043D01*
X15813225Y38683989D01*
X15760000Y38416411D01*
X660000Y38416411D01*
X660000Y43316411D01*
X15760000Y43316411D01*
X15760000Y43043589D01*
X15813225Y42776011D01*
X15917629Y42523957D01*
X16069201Y42297114D01*
X16262114Y42104201D01*
X16488957Y41952629D01*
X16741011Y41848225D01*
X17008589Y41795000D01*
X17281411Y41795000D01*
X17548989Y41848225D01*
X17801043Y41952629D01*
X18027886Y42104201D01*
X18220799Y42297114D01*
X18372371Y42523957D01*
X18476775Y42776011D01*
X18530000Y43043589D01*
X18530000Y43316411D01*
X18476775Y43583989D01*
X18372371Y43836043D01*
X18220799Y44062886D01*
X18027886Y44255799D01*
X17801043Y44407371D01*
X17548989Y44511775D01*
X17281411Y44565000D01*
X17008589Y44565000D01*
X16741011Y44511775D01*
X16488957Y44407371D01*
X16262114Y44255799D01*
X16069201Y44062886D01*
X15917629Y43836043D01*
X15813225Y43583989D01*
X15760000Y43316411D01*
X660000Y43316411D01*
X660000Y45861335D01*
X18250000Y45861335D01*
X18250000Y45578665D01*
X18305147Y45301426D01*
X18413320Y45040273D01*
X18570363Y44805241D01*
X18770241Y44605363D01*
X19005273Y44448320D01*
X19266426Y44340147D01*
X19543665Y44285000D01*
X19826335Y44285000D01*
X20103574Y44340147D01*
X20198551Y44379488D01*
X21419783Y44379488D01*
X21461213Y44099870D01*
X21556397Y43833708D01*
X21623329Y43708486D01*
X21867298Y43636903D01*
X22680395Y44450000D01*
X23039605Y44450000D01*
X23852702Y43636903D01*
X24096671Y43708486D01*
X24217571Y43963996D01*
X24286300Y44238184D01*
X24300217Y44520512D01*
X24258787Y44800130D01*
X24163603Y45066292D01*
X24096671Y45191514D01*
X23897340Y45250000D01*
X24831928Y45250000D01*
X24835000Y44735750D01*
X24993750Y44577000D01*
X26543000Y44577000D01*
X26543000Y45726250D01*
X26797000Y45726250D01*
X26797000Y44577000D01*
X28346250Y44577000D01*
X28505000Y44735750D01*
X28508072Y45250000D01*
X28495812Y45374482D01*
X28459502Y45494180D01*
X28400537Y45604494D01*
X28321185Y45701185D01*
X28224494Y45780537D01*
X28114180Y45839502D01*
X27994482Y45875812D01*
X27870000Y45888072D01*
X26955750Y45885000D01*
X26797000Y45726250D01*
X26543000Y45726250D01*
X26384250Y45885000D01*
X25470000Y45888072D01*
X25345518Y45875812D01*
X25225820Y45839502D01*
X25115506Y45780537D01*
X25018815Y45701185D01*
X24939463Y45604494D01*
X24880498Y45494180D01*
X24844188Y45374482D01*
X24831928Y45250000D01*
X23897340Y45250000D01*
X23852702Y45263097D01*
X23039605Y44450000D01*
X22680395Y44450000D01*
X21867298Y45263097D01*
X21623329Y45191514D01*
X21502429Y44936004D01*
X21433700Y44661816D01*
X21419783Y44379488D01*
X20198551Y44379488D01*
X20364727Y44448320D01*
X20599759Y44605363D01*
X20799637Y44805241D01*
X20956680Y45040273D01*
X21064853Y45301426D01*
X21092954Y45442702D01*
X22046903Y45442702D01*
X22860000Y44629605D01*
X23673097Y45442702D01*
X23601514Y45686671D01*
X23346004Y45807571D01*
X23071816Y45876300D01*
X22789488Y45890217D01*
X22509870Y45848787D01*
X22243708Y45753603D01*
X22118486Y45686671D01*
X22046903Y45442702D01*
X21092954Y45442702D01*
X21120000Y45578665D01*
X21120000Y45861335D01*
X21064853Y46138574D01*
X20956680Y46399727D01*
X20799637Y46634759D01*
X20599759Y46834637D01*
X20364727Y46991680D01*
X20103574Y47099853D01*
X19826335Y47155000D01*
X19543665Y47155000D01*
X19266426Y47099853D01*
X19005273Y46991680D01*
X18770241Y46834637D01*
X18570363Y46634759D01*
X18413320Y46399727D01*
X18305147Y46138574D01*
X18250000Y45861335D01*
X660000Y45861335D01*
X660000Y48870000D01*
X75540001Y48870000D01*
X75540000Y660000D01*
%TA.AperFunction,Conductor*%
D25*
G36*
X75540000Y660000D02*
G01*
X660000Y660000D01*
X660000Y2146603D01*
X16931208Y2146603D01*
X17008843Y1897528D01*
X17272883Y1771629D01*
X17556411Y1699661D01*
X17848531Y1684389D01*
X18138019Y1726401D01*
X18413747Y1824081D01*
X18551157Y1897528D01*
X18628792Y2146603D01*
X17780000Y2995395D01*
X16931208Y2146603D01*
X660000Y2146603D01*
X660000Y3106469D01*
X16289389Y3106469D01*
X16331401Y2816981D01*
X16429081Y2541253D01*
X16502528Y2403843D01*
X16751603Y2326208D01*
X17600395Y3175000D01*
X16751603Y4023792D01*
X16502528Y3946157D01*
X16376629Y3682117D01*
X16304661Y3398589D01*
X16289389Y3106469D01*
X660000Y3106469D01*
X660000Y20320000D01*
X864993Y20320000D01*
X870001Y20269152D01*
X870000Y8940828D01*
X864994Y8890000D01*
X870000Y8839172D01*
X870000Y8839163D01*
X884976Y8687106D01*
X944159Y8492008D01*
X1040266Y8312203D01*
X1169604Y8154604D01*
X1209097Y8122193D01*
X4312197Y5019092D01*
X4344604Y4979604D01*
X4384092Y4947197D01*
X4502202Y4850266D01*
X4598309Y4798896D01*
X4682007Y4754159D01*
X4877105Y4694976D01*
X5029162Y4680000D01*
X5029171Y4680000D01*
X5079999Y4674994D01*
X5130827Y4680000D01*
X16714893Y4680000D01*
X16833368Y4561525D01*
X17006729Y4445689D01*
X16931208Y4203397D01*
X17780000Y3354605D01*
X18628792Y4203397D01*
X18553271Y4445689D01*
X18726632Y4561525D01*
X18933475Y4768368D01*
X19050000Y4942760D01*
X19166525Y4768368D01*
X19373368Y4561525D01*
X19547760Y4445000D01*
X19373368Y4328475D01*
X19166525Y4121632D01*
X19050689Y3948271D01*
X18808397Y4023792D01*
X17959605Y3175000D01*
X18808397Y2326208D01*
X19050689Y2401729D01*
X19166525Y2228368D01*
X19373368Y2021525D01*
X19616589Y1859010D01*
X19886842Y1747068D01*
X20173740Y1690000D01*
X20466260Y1690000D01*
X20753158Y1747068D01*
X21023411Y1859010D01*
X21266632Y2021525D01*
X21473475Y2228368D01*
X21590000Y2402760D01*
X21706525Y2228368D01*
X21913368Y2021525D01*
X22156589Y1859010D01*
X22426842Y1747068D01*
X22713740Y1690000D01*
X23006260Y1690000D01*
X23293158Y1747068D01*
X23563411Y1859010D01*
X23806632Y2021525D01*
X24013475Y2228368D01*
X24130000Y2402760D01*
X24246525Y2228368D01*
X24453368Y2021525D01*
X24696589Y1859010D01*
X24966842Y1747068D01*
X25253740Y1690000D01*
X25546260Y1690000D01*
X25833158Y1747068D01*
X26103411Y1859010D01*
X26346632Y2021525D01*
X26553475Y2228368D01*
X26670000Y2402760D01*
X26786525Y2228368D01*
X26993368Y2021525D01*
X27236589Y1859010D01*
X27506842Y1747068D01*
X27793740Y1690000D01*
X28086260Y1690000D01*
X28373158Y1747068D01*
X28643411Y1859010D01*
X28886632Y2021525D01*
X29093475Y2228368D01*
X29210000Y2402760D01*
X29326525Y2228368D01*
X29533368Y2021525D01*
X29776589Y1859010D01*
X30046842Y1747068D01*
X30333740Y1690000D01*
X30626260Y1690000D01*
X30913158Y1747068D01*
X31183411Y1859010D01*
X31426632Y2021525D01*
X31633475Y2228368D01*
X31750000Y2402760D01*
X31866525Y2228368D01*
X32073368Y2021525D01*
X32316589Y1859010D01*
X32586842Y1747068D01*
X32873740Y1690000D01*
X33166260Y1690000D01*
X33453158Y1747068D01*
X33723411Y1859010D01*
X33966632Y2021525D01*
X34173475Y2228368D01*
X34290000Y2402760D01*
X34406525Y2228368D01*
X34613368Y2021525D01*
X34856589Y1859010D01*
X35126842Y1747068D01*
X35413740Y1690000D01*
X35706260Y1690000D01*
X35993158Y1747068D01*
X36263411Y1859010D01*
X36506632Y2021525D01*
X36713475Y2228368D01*
X36830000Y2402760D01*
X36946525Y2228368D01*
X37153368Y2021525D01*
X37396589Y1859010D01*
X37666842Y1747068D01*
X37953740Y1690000D01*
X38246260Y1690000D01*
X38533158Y1747068D01*
X38803411Y1859010D01*
X39046632Y2021525D01*
X39253475Y2228368D01*
X39370000Y2402760D01*
X39486525Y2228368D01*
X39693368Y2021525D01*
X39936589Y1859010D01*
X40206842Y1747068D01*
X40493740Y1690000D01*
X40786260Y1690000D01*
X41073158Y1747068D01*
X41343411Y1859010D01*
X41586632Y2021525D01*
X41793475Y2228368D01*
X41910000Y2402760D01*
X42026525Y2228368D01*
X42233368Y2021525D01*
X42476589Y1859010D01*
X42746842Y1747068D01*
X43033740Y1690000D01*
X43326260Y1690000D01*
X43613158Y1747068D01*
X43883411Y1859010D01*
X44126632Y2021525D01*
X44333475Y2228368D01*
X44450000Y2402760D01*
X44566525Y2228368D01*
X44773368Y2021525D01*
X45016589Y1859010D01*
X45286842Y1747068D01*
X45573740Y1690000D01*
X45866260Y1690000D01*
X46153158Y1747068D01*
X46423411Y1859010D01*
X46666632Y2021525D01*
X46873475Y2228368D01*
X46990000Y2402760D01*
X47106525Y2228368D01*
X47313368Y2021525D01*
X47556589Y1859010D01*
X47826842Y1747068D01*
X48113740Y1690000D01*
X48406260Y1690000D01*
X48693158Y1747068D01*
X48963411Y1859010D01*
X49206632Y2021525D01*
X49413475Y2228368D01*
X49530000Y2402760D01*
X49646525Y2228368D01*
X49853368Y2021525D01*
X50096589Y1859010D01*
X50366842Y1747068D01*
X50653740Y1690000D01*
X50946260Y1690000D01*
X51233158Y1747068D01*
X51503411Y1859010D01*
X51746632Y2021525D01*
X51953475Y2228368D01*
X52070000Y2402760D01*
X52186525Y2228368D01*
X52393368Y2021525D01*
X52636589Y1859010D01*
X52906842Y1747068D01*
X53193740Y1690000D01*
X53486260Y1690000D01*
X53773158Y1747068D01*
X54043411Y1859010D01*
X54286632Y2021525D01*
X54493475Y2228368D01*
X54610000Y2402760D01*
X54726525Y2228368D01*
X54933368Y2021525D01*
X55176589Y1859010D01*
X55446842Y1747068D01*
X55733740Y1690000D01*
X56026260Y1690000D01*
X56313158Y1747068D01*
X56583411Y1859010D01*
X56826632Y2021525D01*
X57033475Y2228368D01*
X57150000Y2402760D01*
X57266525Y2228368D01*
X57473368Y2021525D01*
X57716589Y1859010D01*
X57986842Y1747068D01*
X58273740Y1690000D01*
X58566260Y1690000D01*
X58853158Y1747068D01*
X59123411Y1859010D01*
X59366632Y2021525D01*
X59573475Y2228368D01*
X59735990Y2471589D01*
X59847932Y2741842D01*
X59905000Y3028740D01*
X59905000Y3321260D01*
X59847932Y3608158D01*
X59735990Y3878411D01*
X59573475Y4121632D01*
X59386392Y4308715D01*
X59513386Y4376595D01*
X59647962Y4487038D01*
X59758405Y4621614D01*
X59840472Y4775150D01*
X59891008Y4941746D01*
X59908072Y5115000D01*
X59908072Y6315000D01*
X59891008Y6488254D01*
X59840472Y6654850D01*
X59758405Y6808386D01*
X59647962Y6942962D01*
X59513386Y7053405D01*
X59359850Y7135472D01*
X59193254Y7186008D01*
X59020000Y7203072D01*
X57820000Y7203072D01*
X57646746Y7186008D01*
X57480150Y7135472D01*
X57326614Y7053405D01*
X57192038Y6942962D01*
X57081595Y6808386D01*
X57013715Y6681392D01*
X56826632Y6868475D01*
X56583411Y7030990D01*
X56313158Y7142932D01*
X56026260Y7200000D01*
X55733740Y7200000D01*
X55446842Y7142932D01*
X55176589Y7030990D01*
X54933368Y6868475D01*
X54726525Y6661632D01*
X54610000Y6487240D01*
X54493475Y6661632D01*
X54286632Y6868475D01*
X54175000Y6943065D01*
X54175000Y6943982D01*
X54179040Y6985000D01*
X54162918Y7148688D01*
X54150678Y7189040D01*
X54115172Y7306087D01*
X54037636Y7451146D01*
X53933291Y7578291D01*
X53901431Y7604438D01*
X53415867Y8090000D01*
X53481335Y8090000D01*
X53758574Y8145147D01*
X54019727Y8253320D01*
X54254759Y8410363D01*
X54454637Y8610241D01*
X54611680Y8845273D01*
X54719853Y9106426D01*
X54775000Y9383665D01*
X54775000Y9666335D01*
X54719853Y9943574D01*
X54611680Y10204727D01*
X54454637Y10439759D01*
X54254759Y10639637D01*
X54019727Y10796680D01*
X53758574Y10904853D01*
X53481335Y10960000D01*
X53198665Y10960000D01*
X52921426Y10904853D01*
X52660273Y10796680D01*
X52425241Y10639637D01*
X52225363Y10439759D01*
X52068320Y10204727D01*
X51960147Y9943574D01*
X51905000Y9666335D01*
X51905000Y9383665D01*
X51960147Y9106426D01*
X52068320Y8845273D01*
X52225363Y8610241D01*
X52380604Y8455000D01*
X51145868Y8455000D01*
X48570867Y11030000D01*
X62179172Y11030000D01*
X62230000Y11024994D01*
X62280828Y11030000D01*
X62280838Y11030000D01*
X62432895Y11044976D01*
X62627993Y11104159D01*
X62807797Y11200266D01*
X62965396Y11329604D01*
X62997807Y11369097D01*
X63560903Y11932193D01*
X63600396Y11964604D01*
X63698142Y12083708D01*
X63729734Y12122202D01*
X63825841Y12302006D01*
X63852789Y12390841D01*
X63885024Y12497105D01*
X63892746Y12575513D01*
X63909180Y12580498D01*
X64019494Y12639463D01*
X64116185Y12718815D01*
X64195537Y12815506D01*
X64254502Y12925820D01*
X64257287Y12935000D01*
X67894172Y12935000D01*
X67945000Y12929994D01*
X67995828Y12935000D01*
X67995838Y12935000D01*
X68147895Y12949976D01*
X68342993Y13009159D01*
X68522797Y13105266D01*
X68680396Y13234604D01*
X68712807Y13274097D01*
X71180908Y15742197D01*
X71220396Y15774604D01*
X71268559Y15833291D01*
X71349734Y15932202D01*
X71406652Y16038689D01*
X71445841Y16112007D01*
X71505024Y16307105D01*
X71520000Y16459162D01*
X71520000Y16459171D01*
X71525006Y16509999D01*
X71520000Y16560827D01*
X71520000Y43129165D01*
X71525007Y43180000D01*
X71520000Y43230838D01*
X71505024Y43382895D01*
X71445841Y43577993D01*
X71366730Y43726000D01*
X71349734Y43757798D01*
X71252803Y43875908D01*
X71220396Y43915396D01*
X71180908Y43947803D01*
X67442807Y47685903D01*
X67410396Y47725396D01*
X67252797Y47854734D01*
X67072993Y47950841D01*
X66877895Y48010024D01*
X66725838Y48025000D01*
X66725828Y48025000D01*
X66675000Y48030006D01*
X66624172Y48025000D01*
X45135838Y48025000D01*
X45085000Y48030007D01*
X45034162Y48025000D01*
X35610835Y48025000D01*
X35560000Y48030007D01*
X35509164Y48025000D01*
X35509162Y48025000D01*
X35357105Y48010024D01*
X35162007Y47950841D01*
X35078309Y47906104D01*
X34982202Y47854734D01*
X34864092Y47757803D01*
X34824604Y47725396D01*
X34792197Y47685908D01*
X30051290Y42945000D01*
X28070853Y42945000D01*
X27976518Y43022419D01*
X27994482Y43024188D01*
X28114180Y43060498D01*
X28224494Y43119463D01*
X28321185Y43198815D01*
X28400537Y43295506D01*
X28459502Y43405820D01*
X28495812Y43525518D01*
X28508072Y43650000D01*
X28505000Y44164250D01*
X28346250Y44323000D01*
X26797000Y44323000D01*
X26797000Y44303000D01*
X26543000Y44303000D01*
X26543000Y44323000D01*
X24993750Y44323000D01*
X24835000Y44164250D01*
X24831928Y43650000D01*
X24844188Y43525518D01*
X24880498Y43405820D01*
X24939463Y43295506D01*
X25018815Y43198815D01*
X25115506Y43119463D01*
X25225820Y43060498D01*
X25345518Y43024188D01*
X25363482Y43022419D01*
X25250392Y42929608D01*
X25071068Y42711101D01*
X24937818Y42461808D01*
X24855764Y42191309D01*
X24828057Y41910000D01*
X24855764Y41628691D01*
X24937818Y41358192D01*
X25071068Y41108899D01*
X25250392Y40890392D01*
X25468899Y40711068D01*
X25601858Y40640000D01*
X25468899Y40568932D01*
X25250392Y40389608D01*
X25071068Y40171101D01*
X24937818Y39921808D01*
X24855764Y39651309D01*
X24828057Y39370000D01*
X24829233Y39358056D01*
X23795000Y40392289D01*
X23795000Y40855604D01*
X23974637Y41035241D01*
X24131680Y41270273D01*
X24239853Y41531426D01*
X24295000Y41808665D01*
X24295000Y42091335D01*
X24239853Y42368574D01*
X24131680Y42629727D01*
X23974637Y42864759D01*
X23774759Y43064637D01*
X23574131Y43198692D01*
X23601514Y43213329D01*
X23673097Y43457298D01*
X22860000Y44270395D01*
X22046903Y43457298D01*
X22118486Y43213329D01*
X22147341Y43199676D01*
X21945241Y43064637D01*
X21745363Y42864759D01*
X21588320Y42629727D01*
X21480147Y42368574D01*
X21425000Y42091335D01*
X21425000Y41808665D01*
X21480147Y41531426D01*
X21588320Y41270273D01*
X21745363Y41035241D01*
X21925000Y40855604D01*
X21925000Y40050932D01*
X21920476Y40005000D01*
X21925000Y39959069D01*
X21938529Y39821709D01*
X21991993Y39645461D01*
X22078814Y39483029D01*
X22195656Y39340656D01*
X22231341Y39311370D01*
X23830001Y37712710D01*
X23830000Y33065932D01*
X23825476Y33020000D01*
X23830000Y32974069D01*
X23843529Y32836709D01*
X23861313Y32778083D01*
X23774759Y32864637D01*
X23539727Y33021680D01*
X23278574Y33129853D01*
X23001335Y33185000D01*
X22718665Y33185000D01*
X22441426Y33129853D01*
X22180273Y33021680D01*
X21945241Y32864637D01*
X21890000Y32809396D01*
X21890000Y34244069D01*
X21894524Y34290001D01*
X21876471Y34473293D01*
X21842326Y34585854D01*
X21823007Y34649540D01*
X21736186Y34811972D01*
X21619344Y34954344D01*
X21583665Y34983625D01*
X21120000Y35447290D01*
X21120000Y35701335D01*
X21064853Y35978574D01*
X20956680Y36239727D01*
X20799637Y36474759D01*
X20599759Y36674637D01*
X20364727Y36831680D01*
X20103574Y36939853D01*
X19826335Y36995000D01*
X19543665Y36995000D01*
X19266426Y36939853D01*
X19005273Y36831680D01*
X18770241Y36674637D01*
X18570363Y36474759D01*
X18413320Y36239727D01*
X18305147Y35978574D01*
X18250000Y35701335D01*
X18250000Y35418665D01*
X18305147Y35141426D01*
X18413320Y34880273D01*
X18499355Y34751512D01*
X18399446Y34851421D01*
X18373291Y34883291D01*
X18246146Y34987636D01*
X18101087Y35065172D01*
X17943689Y35112918D01*
X17821019Y35125000D01*
X17821018Y35125000D01*
X17780000Y35129040D01*
X17738982Y35125000D01*
X13376018Y35125000D01*
X13335000Y35129040D01*
X13293982Y35125000D01*
X13293981Y35125000D01*
X13171311Y35112918D01*
X13099390Y35091101D01*
X13013913Y35065172D01*
X12868854Y34987636D01*
X12777732Y34912854D01*
X12741709Y34883291D01*
X12715562Y34851431D01*
X12138573Y34274441D01*
X12106710Y34248291D01*
X12080562Y34216429D01*
X12002364Y34121145D01*
X11996148Y34109516D01*
X11981807Y34117182D01*
X11711308Y34199236D01*
X11430000Y34226943D01*
X11148691Y34199236D01*
X10878192Y34117182D01*
X10628899Y33983932D01*
X10410392Y33804607D01*
X10231068Y33586100D01*
X10160000Y33453142D01*
X10088932Y33586101D01*
X9909607Y33804608D01*
X9691100Y33983932D01*
X9441807Y34117182D01*
X9171308Y34199236D01*
X8890000Y34226943D01*
X8608691Y34199236D01*
X8338192Y34117182D01*
X8088899Y33983932D01*
X7870392Y33804607D01*
X7691068Y33586100D01*
X7620000Y33453142D01*
X7548932Y33586101D01*
X7369607Y33804608D01*
X7151100Y33983932D01*
X6901807Y34117182D01*
X6631308Y34199236D01*
X6350000Y34226943D01*
X6068691Y34199236D01*
X5798192Y34117182D01*
X5548899Y33983932D01*
X5330392Y33804607D01*
X5151068Y33586100D01*
X5080000Y33453142D01*
X5008932Y33586101D01*
X4829607Y33804608D01*
X4611100Y33983932D01*
X4361807Y34117182D01*
X4091308Y34199236D01*
X3810000Y34226943D01*
X3528691Y34199236D01*
X3258192Y34117182D01*
X3008899Y33983932D01*
X2790392Y33804607D01*
X2611068Y33586100D01*
X2524126Y33423444D01*
X2489165Y33420000D01*
X2489162Y33420000D01*
X2337105Y33405024D01*
X2187415Y33359615D01*
X2142006Y33345841D01*
X1962202Y33249734D01*
X1916224Y33212000D01*
X1804604Y33120396D01*
X1772193Y33080903D01*
X1209097Y32517807D01*
X1169604Y32485396D01*
X1040266Y32327797D01*
X944159Y32147992D01*
X884976Y31952894D01*
X870000Y31800837D01*
X870000Y31800828D01*
X864994Y31750000D01*
X870000Y31699172D01*
X870001Y20370848D01*
X864993Y20320000D01*
X660000Y20320000D01*
X660000Y38416411D01*
X15760000Y38416411D01*
X15760000Y38143589D01*
X15813225Y37876011D01*
X15917629Y37623957D01*
X16069201Y37397114D01*
X16262114Y37204201D01*
X16488957Y37052629D01*
X16741011Y36948225D01*
X17008589Y36895000D01*
X17281411Y36895000D01*
X17548989Y36948225D01*
X17801043Y37052629D01*
X18027886Y37204201D01*
X18220799Y37397114D01*
X18372371Y37623957D01*
X18476775Y37876011D01*
X18530000Y38143589D01*
X18530000Y38416411D01*
X18476775Y38683989D01*
X18372371Y38936043D01*
X18220799Y39162886D01*
X18027886Y39355799D01*
X17801043Y39507371D01*
X17548989Y39611775D01*
X17281411Y39665000D01*
X17008589Y39665000D01*
X16741011Y39611775D01*
X16488957Y39507371D01*
X16262114Y39355799D01*
X16069201Y39162886D01*
X15917629Y38936043D01*
X15813225Y38683989D01*
X15760000Y38416411D01*
X660000Y38416411D01*
X660000Y43316411D01*
X15760000Y43316411D01*
X15760000Y43043589D01*
X15813225Y42776011D01*
X15917629Y42523957D01*
X16069201Y42297114D01*
X16262114Y42104201D01*
X16488957Y41952629D01*
X16741011Y41848225D01*
X17008589Y41795000D01*
X17281411Y41795000D01*
X17548989Y41848225D01*
X17801043Y41952629D01*
X18027886Y42104201D01*
X18220799Y42297114D01*
X18372371Y42523957D01*
X18476775Y42776011D01*
X18530000Y43043589D01*
X18530000Y43316411D01*
X18476775Y43583989D01*
X18372371Y43836043D01*
X18220799Y44062886D01*
X18027886Y44255799D01*
X17801043Y44407371D01*
X17548989Y44511775D01*
X17281411Y44565000D01*
X17008589Y44565000D01*
X16741011Y44511775D01*
X16488957Y44407371D01*
X16262114Y44255799D01*
X16069201Y44062886D01*
X15917629Y43836043D01*
X15813225Y43583989D01*
X15760000Y43316411D01*
X660000Y43316411D01*
X660000Y45861335D01*
X18250000Y45861335D01*
X18250000Y45578665D01*
X18305147Y45301426D01*
X18413320Y45040273D01*
X18570363Y44805241D01*
X18770241Y44605363D01*
X19005273Y44448320D01*
X19266426Y44340147D01*
X19543665Y44285000D01*
X19826335Y44285000D01*
X20103574Y44340147D01*
X20198551Y44379488D01*
X21419783Y44379488D01*
X21461213Y44099870D01*
X21556397Y43833708D01*
X21623329Y43708486D01*
X21867298Y43636903D01*
X22680395Y44450000D01*
X23039605Y44450000D01*
X23852702Y43636903D01*
X24096671Y43708486D01*
X24217571Y43963996D01*
X24286300Y44238184D01*
X24300217Y44520512D01*
X24258787Y44800130D01*
X24163603Y45066292D01*
X24096671Y45191514D01*
X23897340Y45250000D01*
X24831928Y45250000D01*
X24835000Y44735750D01*
X24993750Y44577000D01*
X26543000Y44577000D01*
X26543000Y45726250D01*
X26797000Y45726250D01*
X26797000Y44577000D01*
X28346250Y44577000D01*
X28505000Y44735750D01*
X28508072Y45250000D01*
X28495812Y45374482D01*
X28459502Y45494180D01*
X28400537Y45604494D01*
X28321185Y45701185D01*
X28224494Y45780537D01*
X28114180Y45839502D01*
X27994482Y45875812D01*
X27870000Y45888072D01*
X26955750Y45885000D01*
X26797000Y45726250D01*
X26543000Y45726250D01*
X26384250Y45885000D01*
X25470000Y45888072D01*
X25345518Y45875812D01*
X25225820Y45839502D01*
X25115506Y45780537D01*
X25018815Y45701185D01*
X24939463Y45604494D01*
X24880498Y45494180D01*
X24844188Y45374482D01*
X24831928Y45250000D01*
X23897340Y45250000D01*
X23852702Y45263097D01*
X23039605Y44450000D01*
X22680395Y44450000D01*
X21867298Y45263097D01*
X21623329Y45191514D01*
X21502429Y44936004D01*
X21433700Y44661816D01*
X21419783Y44379488D01*
X20198551Y44379488D01*
X20364727Y44448320D01*
X20599759Y44605363D01*
X20799637Y44805241D01*
X20956680Y45040273D01*
X21064853Y45301426D01*
X21092954Y45442702D01*
X22046903Y45442702D01*
X22860000Y44629605D01*
X23673097Y45442702D01*
X23601514Y45686671D01*
X23346004Y45807571D01*
X23071816Y45876300D01*
X22789488Y45890217D01*
X22509870Y45848787D01*
X22243708Y45753603D01*
X22118486Y45686671D01*
X22046903Y45442702D01*
X21092954Y45442702D01*
X21120000Y45578665D01*
X21120000Y45861335D01*
X21064853Y46138574D01*
X20956680Y46399727D01*
X20799637Y46634759D01*
X20599759Y46834637D01*
X20364727Y46991680D01*
X20103574Y47099853D01*
X19826335Y47155000D01*
X19543665Y47155000D01*
X19266426Y47099853D01*
X19005273Y46991680D01*
X18770241Y46834637D01*
X18570363Y46634759D01*
X18413320Y46399727D01*
X18305147Y46138574D01*
X18250000Y45861335D01*
X660000Y45861335D01*
X660000Y48870000D01*
X75540001Y48870000D01*
X75540000Y660000D01*
G37*
%TD.AperFunction*%
D24*
X11865000Y17821019D02*
X11860960Y17780000D01*
X11865000Y17738982D01*
X11877082Y17616312D01*
X11924828Y17458914D01*
X12002364Y17313855D01*
X12106709Y17186709D01*
X12138579Y17160554D01*
X13985563Y15313568D01*
X14011709Y15281709D01*
X14043568Y15255563D01*
X14043570Y15255561D01*
X14138854Y15177364D01*
X14283913Y15099828D01*
X14441311Y15052082D01*
X14605000Y15035960D01*
X14646018Y15040000D01*
X23784132Y15040000D01*
X24145562Y14678569D01*
X24171709Y14646709D01*
X24203568Y14620563D01*
X24203570Y14620561D01*
X24292234Y14547797D01*
X24298854Y14542364D01*
X24443913Y14464828D01*
X24601311Y14417082D01*
X24723981Y14405000D01*
X24723982Y14405000D01*
X24765000Y14400960D01*
X24806018Y14405000D01*
X24902385Y14405000D01*
X24855764Y14251309D01*
X24828057Y13970000D01*
X24830395Y13946262D01*
X24203574Y13319441D01*
X24171802Y13293366D01*
X24163603Y13316292D01*
X24096671Y13441514D01*
X23852702Y13513097D01*
X23039605Y12700000D01*
X23852702Y11886903D01*
X23930001Y11909583D01*
X23930000Y10201019D01*
X23925960Y10160000D01*
X23930000Y10118982D01*
X23942082Y9996312D01*
X23989828Y9838914D01*
X24050717Y9725000D01*
X18125868Y9725000D01*
X17345000Y10505867D01*
X17345000Y11128888D01*
X17529608Y11280392D01*
X17708932Y11498899D01*
X17777265Y11626741D01*
X17927399Y11397161D01*
X18125105Y11195500D01*
X18358354Y11036285D01*
X18618182Y10925633D01*
X18700961Y10908096D01*
X18923000Y11030085D01*
X18923000Y12573000D01*
X19177000Y12573000D01*
X19177000Y11030085D01*
X19399039Y10908096D01*
X19481818Y10925633D01*
X19741646Y11036285D01*
X19974895Y11195500D01*
X20172601Y11397161D01*
X20327166Y11633517D01*
X20356874Y11707298D01*
X22046903Y11707298D01*
X22118486Y11463329D01*
X22373996Y11342429D01*
X22648184Y11273700D01*
X22930512Y11259783D01*
X23210130Y11301213D01*
X23476292Y11396397D01*
X23601514Y11463329D01*
X23673097Y11707298D01*
X22860000Y12520395D01*
X22046903Y11707298D01*
X20356874Y11707298D01*
X20432650Y11895486D01*
X20485000Y12173000D01*
X20485000Y12573000D01*
X19177000Y12573000D01*
X18923000Y12573000D01*
X18903000Y12573000D01*
X18903000Y12629488D01*
X21419783Y12629488D01*
X21461213Y12349870D01*
X21556397Y12083708D01*
X21623329Y11958486D01*
X21867298Y11886903D01*
X22680395Y12700000D01*
X21867298Y13513097D01*
X21623329Y13441514D01*
X21502429Y13186004D01*
X21433700Y12911816D01*
X21419783Y12629488D01*
X18903000Y12629488D01*
X18903000Y12827000D01*
X18923000Y12827000D01*
X18923000Y14369915D01*
X19177000Y14369915D01*
X19177000Y12827000D01*
X20485000Y12827000D01*
X20485000Y13227000D01*
X20432650Y13504514D01*
X20356875Y13692702D01*
X22046903Y13692702D01*
X22860000Y12879605D01*
X23673097Y13692702D01*
X23601514Y13936671D01*
X23346004Y14057571D01*
X23071816Y14126300D01*
X22789488Y14140217D01*
X22509870Y14098787D01*
X22243708Y14003603D01*
X22118486Y13936671D01*
X22046903Y13692702D01*
X20356875Y13692702D01*
X20327166Y13766483D01*
X20172601Y14002839D01*
X19974895Y14204500D01*
X19741646Y14363715D01*
X19481818Y14474367D01*
X19399039Y14491904D01*
X19177000Y14369915D01*
X18923000Y14369915D01*
X18700961Y14491904D01*
X18618182Y14474367D01*
X18358354Y14363715D01*
X18125105Y14204500D01*
X17927399Y14002839D01*
X17777265Y13773259D01*
X17708932Y13901101D01*
X17529607Y14119608D01*
X17311100Y14298932D01*
X17061807Y14432182D01*
X16791308Y14514236D01*
X16510000Y14541943D01*
X16228691Y14514236D01*
X15958192Y14432182D01*
X15708899Y14298932D01*
X15490392Y14119607D01*
X15311068Y13901100D01*
X15240000Y13768142D01*
X15168932Y13901101D01*
X14989607Y14119608D01*
X14771100Y14298932D01*
X14521807Y14432182D01*
X14251308Y14514236D01*
X13970000Y14541943D01*
X13688691Y14514236D01*
X13418192Y14432182D01*
X13168899Y14298932D01*
X12950392Y14119607D01*
X12771068Y13901100D01*
X12700000Y13768142D01*
X12628932Y13901101D01*
X12449607Y14119608D01*
X12231100Y14298932D01*
X11981807Y14432182D01*
X11711308Y14514236D01*
X11430000Y14541943D01*
X11148691Y14514236D01*
X10878192Y14432182D01*
X10628899Y14298932D01*
X10410392Y14119607D01*
X10231068Y13901100D01*
X10160000Y13768142D01*
X10088932Y13901101D01*
X9909607Y14119608D01*
X9725000Y14271111D01*
X9725000Y14894133D01*
X10721430Y15890562D01*
X10753291Y15916709D01*
X10857636Y16043854D01*
X10935172Y16188913D01*
X10982918Y16346311D01*
X10995000Y16468981D01*
X10995000Y16468983D01*
X10999040Y16509999D01*
X10995000Y16551015D01*
X10995000Y18552385D01*
X11148692Y18505764D01*
X11430000Y18478057D01*
X11711309Y18505764D01*
X11865000Y18552385D01*
X11865000Y17821019D01*
%TA.AperFunction,Conductor*%
D25*
G36*
X11865000Y17821019D02*
G01*
X11860960Y17780000D01*
X11865000Y17738982D01*
X11877082Y17616312D01*
X11924828Y17458914D01*
X12002364Y17313855D01*
X12106709Y17186709D01*
X12138579Y17160554D01*
X13985563Y15313568D01*
X14011709Y15281709D01*
X14043568Y15255563D01*
X14043570Y15255561D01*
X14138854Y15177364D01*
X14283913Y15099828D01*
X14441311Y15052082D01*
X14605000Y15035960D01*
X14646018Y15040000D01*
X23784132Y15040000D01*
X24145562Y14678569D01*
X24171709Y14646709D01*
X24203568Y14620563D01*
X24203570Y14620561D01*
X24292234Y14547797D01*
X24298854Y14542364D01*
X24443913Y14464828D01*
X24601311Y14417082D01*
X24723981Y14405000D01*
X24723982Y14405000D01*
X24765000Y14400960D01*
X24806018Y14405000D01*
X24902385Y14405000D01*
X24855764Y14251309D01*
X24828057Y13970000D01*
X24830395Y13946262D01*
X24203574Y13319441D01*
X24171802Y13293366D01*
X24163603Y13316292D01*
X24096671Y13441514D01*
X23852702Y13513097D01*
X23039605Y12700000D01*
X23852702Y11886903D01*
X23930001Y11909583D01*
X23930000Y10201019D01*
X23925960Y10160000D01*
X23930000Y10118982D01*
X23942082Y9996312D01*
X23989828Y9838914D01*
X24050717Y9725000D01*
X18125868Y9725000D01*
X17345000Y10505867D01*
X17345000Y11128888D01*
X17529608Y11280392D01*
X17708932Y11498899D01*
X17777265Y11626741D01*
X17927399Y11397161D01*
X18125105Y11195500D01*
X18358354Y11036285D01*
X18618182Y10925633D01*
X18700961Y10908096D01*
X18923000Y11030085D01*
X18923000Y12573000D01*
X19177000Y12573000D01*
X19177000Y11030085D01*
X19399039Y10908096D01*
X19481818Y10925633D01*
X19741646Y11036285D01*
X19974895Y11195500D01*
X20172601Y11397161D01*
X20327166Y11633517D01*
X20356874Y11707298D01*
X22046903Y11707298D01*
X22118486Y11463329D01*
X22373996Y11342429D01*
X22648184Y11273700D01*
X22930512Y11259783D01*
X23210130Y11301213D01*
X23476292Y11396397D01*
X23601514Y11463329D01*
X23673097Y11707298D01*
X22860000Y12520395D01*
X22046903Y11707298D01*
X20356874Y11707298D01*
X20432650Y11895486D01*
X20485000Y12173000D01*
X20485000Y12573000D01*
X19177000Y12573000D01*
X18923000Y12573000D01*
X18903000Y12573000D01*
X18903000Y12629488D01*
X21419783Y12629488D01*
X21461213Y12349870D01*
X21556397Y12083708D01*
X21623329Y11958486D01*
X21867298Y11886903D01*
X22680395Y12700000D01*
X21867298Y13513097D01*
X21623329Y13441514D01*
X21502429Y13186004D01*
X21433700Y12911816D01*
X21419783Y12629488D01*
X18903000Y12629488D01*
X18903000Y12827000D01*
X18923000Y12827000D01*
X18923000Y14369915D01*
X19177000Y14369915D01*
X19177000Y12827000D01*
X20485000Y12827000D01*
X20485000Y13227000D01*
X20432650Y13504514D01*
X20356875Y13692702D01*
X22046903Y13692702D01*
X22860000Y12879605D01*
X23673097Y13692702D01*
X23601514Y13936671D01*
X23346004Y14057571D01*
X23071816Y14126300D01*
X22789488Y14140217D01*
X22509870Y14098787D01*
X22243708Y14003603D01*
X22118486Y13936671D01*
X22046903Y13692702D01*
X20356875Y13692702D01*
X20327166Y13766483D01*
X20172601Y14002839D01*
X19974895Y14204500D01*
X19741646Y14363715D01*
X19481818Y14474367D01*
X19399039Y14491904D01*
X19177000Y14369915D01*
X18923000Y14369915D01*
X18700961Y14491904D01*
X18618182Y14474367D01*
X18358354Y14363715D01*
X18125105Y14204500D01*
X17927399Y14002839D01*
X17777265Y13773259D01*
X17708932Y13901101D01*
X17529607Y14119608D01*
X17311100Y14298932D01*
X17061807Y14432182D01*
X16791308Y14514236D01*
X16510000Y14541943D01*
X16228691Y14514236D01*
X15958192Y14432182D01*
X15708899Y14298932D01*
X15490392Y14119607D01*
X15311068Y13901100D01*
X15240000Y13768142D01*
X15168932Y13901101D01*
X14989607Y14119608D01*
X14771100Y14298932D01*
X14521807Y14432182D01*
X14251308Y14514236D01*
X13970000Y14541943D01*
X13688691Y14514236D01*
X13418192Y14432182D01*
X13168899Y14298932D01*
X12950392Y14119607D01*
X12771068Y13901100D01*
X12700000Y13768142D01*
X12628932Y13901101D01*
X12449607Y14119608D01*
X12231100Y14298932D01*
X11981807Y14432182D01*
X11711308Y14514236D01*
X11430000Y14541943D01*
X11148691Y14514236D01*
X10878192Y14432182D01*
X10628899Y14298932D01*
X10410392Y14119607D01*
X10231068Y13901100D01*
X10160000Y13768142D01*
X10088932Y13901101D01*
X9909607Y14119608D01*
X9725000Y14271111D01*
X9725000Y14894133D01*
X10721430Y15890562D01*
X10753291Y15916709D01*
X10857636Y16043854D01*
X10935172Y16188913D01*
X10982918Y16346311D01*
X10995000Y16468981D01*
X10995000Y16468983D01*
X10999040Y16509999D01*
X10995000Y16551015D01*
X10995000Y18552385D01*
X11148692Y18505764D01*
X11430000Y18478057D01*
X11711309Y18505764D01*
X11865000Y18552385D01*
X11865000Y17821019D01*
G37*
%TD.AperFunction*%
D24*
X47192903Y45783702D02*
X48006000Y44970605D01*
X48819097Y45783702D01*
X48768836Y45955000D01*
X52043637Y45955000D01*
X52018903Y45870702D01*
X52832000Y45057605D01*
X53645097Y45870702D01*
X53620363Y45955000D01*
X66246290Y45955000D01*
X69450000Y42751289D01*
X69450001Y16938712D01*
X67516290Y15005000D01*
X64257287Y15005000D01*
X64254502Y15014180D01*
X64195537Y15124494D01*
X64116185Y15221185D01*
X64019494Y15300537D01*
X63909180Y15359502D01*
X63789482Y15395812D01*
X63665000Y15408072D01*
X62065000Y15408072D01*
X61940518Y15395812D01*
X61820820Y15359502D01*
X61710506Y15300537D01*
X61613815Y15221185D01*
X61603193Y15208242D01*
X61351004Y15327571D01*
X61076816Y15396300D01*
X60794488Y15410217D01*
X60514870Y15368787D01*
X60248708Y15273603D01*
X60123486Y15206671D01*
X60051903Y14962702D01*
X60865000Y14149605D01*
X60879143Y14163747D01*
X61058748Y13984142D01*
X61044605Y13970000D01*
X61058748Y13955857D01*
X60879143Y13776252D01*
X60865000Y13790395D01*
X60850858Y13776252D01*
X60671253Y13955857D01*
X60685395Y13970000D01*
X59872298Y14783097D01*
X59628329Y14711514D01*
X59507429Y14456004D01*
X59438700Y14181816D01*
X59424783Y13899488D01*
X59466213Y13619870D01*
X59561397Y13353708D01*
X59628329Y13228486D01*
X59872296Y13156903D01*
X59815393Y13100000D01*
X44500835Y13100000D01*
X44450000Y13105007D01*
X44399165Y13100000D01*
X44399162Y13100000D01*
X44247105Y13085024D01*
X44116873Y13045518D01*
X44052006Y13025841D01*
X43872202Y12929734D01*
X43811121Y12879605D01*
X43714604Y12800396D01*
X43682193Y12760903D01*
X43386290Y12465000D01*
X43310853Y12465000D01*
X43111101Y12628932D01*
X42978142Y12700000D01*
X43111101Y12771068D01*
X43329608Y12950392D01*
X43508932Y13168899D01*
X43642182Y13418192D01*
X43724236Y13688691D01*
X43751943Y13970000D01*
X43724236Y14251309D01*
X43701186Y14327298D01*
X49351903Y14327298D01*
X49423486Y14083329D01*
X49678996Y13962429D01*
X49953184Y13893700D01*
X50235512Y13879783D01*
X50515130Y13921213D01*
X50781292Y14016397D01*
X50906514Y14083329D01*
X50978097Y14327298D01*
X50165000Y15140395D01*
X49351903Y14327298D01*
X43701186Y14327298D01*
X43642182Y14521808D01*
X43508932Y14771101D01*
X43329608Y14989608D01*
X43111101Y15168932D01*
X42978142Y15240000D01*
X42995892Y15249488D01*
X48724783Y15249488D01*
X48766213Y14969870D01*
X48861397Y14703708D01*
X48928329Y14578486D01*
X49172298Y14506903D01*
X49985395Y15320000D01*
X50344605Y15320000D01*
X51157702Y14506903D01*
X51401671Y14578486D01*
X51522571Y14833996D01*
X51591300Y15108184D01*
X51605217Y15390512D01*
X51563787Y15670130D01*
X51468603Y15936292D01*
X51401671Y16061514D01*
X51157702Y16133097D01*
X50344605Y15320000D01*
X49985395Y15320000D01*
X49172298Y16133097D01*
X48928329Y16061514D01*
X48807429Y15806004D01*
X48738700Y15531816D01*
X48724783Y15249488D01*
X42995892Y15249488D01*
X43111101Y15311068D01*
X43329608Y15490392D01*
X43508932Y15708899D01*
X43642182Y15958192D01*
X43724236Y16228691D01*
X43732510Y16312702D01*
X49351903Y16312702D01*
X50165000Y15499605D01*
X50978097Y16312702D01*
X50906514Y16556671D01*
X50651004Y16677571D01*
X50376816Y16746300D01*
X50094488Y16760217D01*
X49814870Y16718787D01*
X49548708Y16623603D01*
X49423486Y16556671D01*
X49351903Y16312702D01*
X43732510Y16312702D01*
X43751943Y16510000D01*
X43724236Y16791309D01*
X43677615Y16945000D01*
X51393982Y16945000D01*
X51435000Y16940960D01*
X51476018Y16945000D01*
X51476019Y16945000D01*
X51598689Y16957082D01*
X51756087Y17004828D01*
X51901146Y17082364D01*
X52028291Y17186709D01*
X52054446Y17218579D01*
X53266428Y18430560D01*
X53298291Y18456709D01*
X53402636Y18583854D01*
X53480172Y18728913D01*
X53527918Y18886311D01*
X53540000Y19008981D01*
X53540000Y19008983D01*
X53544040Y19049999D01*
X53540000Y19091015D01*
X53540000Y19595000D01*
X54111928Y19595000D01*
X54124188Y19470518D01*
X54160498Y19350820D01*
X54219463Y19240506D01*
X54298815Y19143815D01*
X54395506Y19064463D01*
X54505820Y19005498D01*
X54625518Y18969188D01*
X54750000Y18956928D01*
X54964250Y18960000D01*
X55123000Y19118750D01*
X55123000Y20193000D01*
X54273750Y20193000D01*
X54115000Y20034250D01*
X54111928Y19595000D01*
X53540000Y19595000D01*
X53540000Y21045000D01*
X54111928Y21045000D01*
X54115000Y20605750D01*
X54273750Y20447000D01*
X55123000Y20447000D01*
X55123000Y21521250D01*
X54964250Y21680000D01*
X54750000Y21683072D01*
X54625518Y21670812D01*
X54505820Y21634502D01*
X54395506Y21575537D01*
X54298815Y21496185D01*
X54219463Y21399494D01*
X54160498Y21289180D01*
X54124188Y21169482D01*
X54111928Y21045000D01*
X53540000Y21045000D01*
X53540000Y22854468D01*
X53547463Y22840506D01*
X53626815Y22743815D01*
X53723506Y22664463D01*
X53833820Y22605498D01*
X53953518Y22569188D01*
X54078000Y22556928D01*
X54767250Y22560000D01*
X54926000Y22718750D01*
X54926000Y23368000D01*
X54906000Y23368000D01*
X54906000Y23622000D01*
X54926000Y23622000D01*
X54926000Y23642000D01*
X55180000Y23642000D01*
X55180000Y23622000D01*
X55200000Y23622000D01*
X55200000Y23368000D01*
X55180000Y23368000D01*
X55180000Y22718750D01*
X55338750Y22560000D01*
X56028000Y22556928D01*
X56152482Y22569188D01*
X56272180Y22605498D01*
X56315000Y22628386D01*
X56315000Y21458220D01*
X56272038Y21422962D01*
X56266658Y21416406D01*
X56201185Y21496185D01*
X56104494Y21575537D01*
X55994180Y21634502D01*
X55874482Y21670812D01*
X55750000Y21683072D01*
X55535750Y21680000D01*
X55377000Y21521250D01*
X55377000Y20447000D01*
X55397000Y20447000D01*
X55397000Y20193000D01*
X55377000Y20193000D01*
X55377000Y19118750D01*
X55535750Y18960000D01*
X55750000Y18956928D01*
X55874482Y18969188D01*
X55994180Y19005498D01*
X56104494Y19064463D01*
X56201185Y19143815D01*
X56266658Y19223594D01*
X56272038Y19217038D01*
X56406614Y19106595D01*
X56560150Y19024528D01*
X56726746Y18973992D01*
X56900000Y18956928D01*
X57400000Y18956928D01*
X57573254Y18973992D01*
X57739850Y19024528D01*
X57893386Y19106595D01*
X58027962Y19217038D01*
X58138405Y19351614D01*
X58220472Y19505150D01*
X58271008Y19671746D01*
X58288072Y19845000D01*
X58288072Y20795000D01*
X58271008Y20968254D01*
X58220472Y21134850D01*
X58138405Y21288386D01*
X58027962Y21422962D01*
X57985000Y21458220D01*
X57985000Y23287501D01*
X63390106Y23287501D01*
X63606228Y22920742D01*
X64066105Y22680062D01*
X64564098Y22533725D01*
X65081071Y22487352D01*
X65597159Y22542727D01*
X66092526Y22697721D01*
X66509772Y22920742D01*
X66725894Y23287501D01*
X65058000Y24955395D01*
X63390106Y23287501D01*
X57985000Y23287501D01*
X57985000Y25111929D01*
X62410352Y25111929D01*
X62465727Y24595841D01*
X62620721Y24100474D01*
X62843742Y23683228D01*
X63210501Y23467106D01*
X64878395Y25135000D01*
X65237605Y25135000D01*
X66905499Y23467106D01*
X67272258Y23683228D01*
X67512938Y24143105D01*
X67659275Y24641098D01*
X67705648Y25158071D01*
X67650273Y25674159D01*
X67495279Y26169526D01*
X67272258Y26586772D01*
X66905499Y26802894D01*
X65237605Y25135000D01*
X64878395Y25135000D01*
X63210501Y26802894D01*
X62843742Y26586772D01*
X62603062Y26126895D01*
X62456725Y25628902D01*
X62410352Y25111929D01*
X57985000Y25111929D01*
X57985000Y26628982D01*
X57989040Y26670000D01*
X57972918Y26833688D01*
X57965569Y26857917D01*
X57927778Y26982499D01*
X63390106Y26982499D01*
X65058000Y25314605D01*
X66725894Y26982499D01*
X66509772Y27349258D01*
X66049895Y27589938D01*
X65551902Y27736275D01*
X65034929Y27782648D01*
X64518841Y27727273D01*
X64023474Y27572279D01*
X63606228Y27349258D01*
X63390106Y26982499D01*
X57927778Y26982499D01*
X57925172Y26991087D01*
X57847636Y27136146D01*
X57824097Y27164828D01*
X57807831Y27184649D01*
X57844913Y27164828D01*
X58002311Y27117082D01*
X58124981Y27105000D01*
X58124982Y27105000D01*
X58166000Y27100960D01*
X58207018Y27105000D01*
X61299982Y27105000D01*
X61341000Y27100960D01*
X61382018Y27105000D01*
X61382019Y27105000D01*
X61504689Y27117082D01*
X61662087Y27164828D01*
X61807146Y27242364D01*
X61934291Y27346709D01*
X61960446Y27378579D01*
X62759427Y28177560D01*
X62791291Y28203709D01*
X62895636Y28330854D01*
X62973172Y28475913D01*
X63020918Y28633311D01*
X63028898Y28714329D01*
X63112759Y28770363D01*
X63312637Y28970241D01*
X63469680Y29205273D01*
X63577853Y29466426D01*
X63633000Y29743665D01*
X63633000Y30026335D01*
X63577853Y30303574D01*
X63469680Y30564727D01*
X63312637Y30799759D01*
X63112759Y30999637D01*
X62912131Y31133692D01*
X62939514Y31148329D01*
X63011097Y31392298D01*
X62198000Y32205395D01*
X62183858Y32191252D01*
X62004253Y32370857D01*
X62018395Y32385000D01*
X62377605Y32385000D01*
X63190702Y31571903D01*
X63434671Y31643486D01*
X63555571Y31898996D01*
X63624300Y32173184D01*
X63638217Y32455512D01*
X63596787Y32735130D01*
X63501603Y33001292D01*
X63434671Y33126514D01*
X63190702Y33198097D01*
X62377605Y32385000D01*
X62018395Y32385000D01*
X62004253Y32399142D01*
X62183858Y32578747D01*
X62198000Y32564605D01*
X63011097Y33377702D01*
X62939514Y33621671D01*
X62684004Y33742571D01*
X62409816Y33811300D01*
X62127488Y33825217D01*
X61847870Y33783787D01*
X61581708Y33688603D01*
X61459691Y33623384D01*
X61449185Y33636185D01*
X61352494Y33715537D01*
X61242180Y33774502D01*
X61122482Y33810812D01*
X60998000Y33823072D01*
X59398000Y33823072D01*
X59273518Y33810812D01*
X59153820Y33774502D01*
X59043506Y33715537D01*
X58946815Y33636185D01*
X58867463Y33539494D01*
X58808498Y33429180D01*
X58772188Y33309482D01*
X58759928Y33185000D01*
X58759928Y31585000D01*
X58772188Y31460518D01*
X58808498Y31340820D01*
X58867463Y31230506D01*
X58946815Y31133815D01*
X59043506Y31054463D01*
X59153820Y30995498D01*
X59249943Y30966339D01*
X59083363Y30799759D01*
X59030070Y30720000D01*
X56623248Y30720000D01*
X56650929Y30811255D01*
X56666072Y30965000D01*
X56666072Y31265000D01*
X56650929Y31418745D01*
X56606084Y31566582D01*
X56533258Y31702829D01*
X56494546Y31750000D01*
X56533258Y31797171D01*
X56606084Y31933418D01*
X56650929Y32081255D01*
X56666072Y32235000D01*
X56666072Y32535000D01*
X56650929Y32688745D01*
X56606084Y32836582D01*
X56533258Y32972829D01*
X56435251Y33092251D01*
X56315829Y33190258D01*
X56179582Y33263084D01*
X56031745Y33307929D01*
X55881131Y33322764D01*
X55875918Y33375689D01*
X55828172Y33533087D01*
X55750636Y33678146D01*
X55672439Y33773430D01*
X55672437Y33773432D01*
X55646291Y33805291D01*
X55614432Y33831437D01*
X54158367Y35287501D01*
X63390106Y35287501D01*
X63606228Y34920742D01*
X64066105Y34680062D01*
X64564098Y34533725D01*
X65081071Y34487352D01*
X65597159Y34542727D01*
X66092526Y34697721D01*
X66509772Y34920742D01*
X66725894Y35287501D01*
X65058000Y36955395D01*
X63390106Y35287501D01*
X54158367Y35287501D01*
X53721000Y35724867D01*
X53721000Y36865205D01*
X53768886Y36897201D01*
X53961799Y37090114D01*
X53976375Y37111929D01*
X62410352Y37111929D01*
X62465727Y36595841D01*
X62620721Y36100474D01*
X62843742Y35683228D01*
X63210501Y35467106D01*
X64878395Y37135000D01*
X65237605Y37135000D01*
X66905499Y35467106D01*
X67272258Y35683228D01*
X67512938Y36143105D01*
X67659275Y36641098D01*
X67705648Y37158071D01*
X67650273Y37674159D01*
X67495279Y38169526D01*
X67272258Y38586772D01*
X66905499Y38802894D01*
X65237605Y37135000D01*
X64878395Y37135000D01*
X63210501Y38802894D01*
X62843742Y38586772D01*
X62603062Y38126895D01*
X62456725Y37628902D01*
X62410352Y37111929D01*
X53976375Y37111929D01*
X54113371Y37316957D01*
X54217775Y37569011D01*
X54271000Y37836589D01*
X54271000Y38109411D01*
X54217775Y38376989D01*
X54113371Y38629043D01*
X53961799Y38855886D01*
X53835186Y38982499D01*
X63390106Y38982499D01*
X65058000Y37314605D01*
X66725894Y38982499D01*
X66509772Y39349258D01*
X66049895Y39589938D01*
X65551902Y39736275D01*
X65034929Y39782648D01*
X64518841Y39727273D01*
X64023474Y39572279D01*
X63606228Y39349258D01*
X63390106Y38982499D01*
X53835186Y38982499D01*
X53768886Y39048799D01*
X53542043Y39200371D01*
X53289989Y39304775D01*
X53022411Y39358000D01*
X52749589Y39358000D01*
X52482011Y39304775D01*
X52229957Y39200371D01*
X52003114Y39048799D01*
X51810201Y38855886D01*
X51658629Y38629043D01*
X51554225Y38376989D01*
X51501000Y38109411D01*
X51501000Y37836589D01*
X51554225Y37569011D01*
X51658629Y37316957D01*
X51810201Y37090114D01*
X52003114Y36897201D01*
X52051001Y36865204D01*
X52051000Y35617620D01*
X52028291Y35645291D01*
X51901146Y35749636D01*
X51756087Y35827172D01*
X51598689Y35874918D01*
X51476019Y35887000D01*
X51476018Y35887000D01*
X51435000Y35891040D01*
X51393982Y35887000D01*
X49621868Y35887000D01*
X48841000Y36667867D01*
X48841000Y36865205D01*
X48888886Y36897201D01*
X49081799Y37090114D01*
X49233371Y37316957D01*
X49337775Y37569011D01*
X49391000Y37836589D01*
X49391000Y38109411D01*
X49337775Y38376989D01*
X49233371Y38629043D01*
X49081799Y38855886D01*
X48888886Y39048799D01*
X48662043Y39200371D01*
X48409989Y39304775D01*
X48142411Y39358000D01*
X47869589Y39358000D01*
X47602011Y39304775D01*
X47349957Y39200371D01*
X47123114Y39048799D01*
X46930201Y38855886D01*
X46778629Y38629043D01*
X46674225Y38376989D01*
X46621000Y38109411D01*
X46621000Y37836589D01*
X46674225Y37569011D01*
X46778629Y37316957D01*
X46930201Y37090114D01*
X47123114Y36897201D01*
X47171000Y36865204D01*
X47171000Y36842710D01*
X46120000Y37893710D01*
X46120000Y42432335D01*
X46571000Y42432335D01*
X46571000Y42149665D01*
X46626147Y41872426D01*
X46734320Y41611273D01*
X46891363Y41376241D01*
X47091241Y41176363D01*
X47326273Y41019320D01*
X47587426Y40911147D01*
X47864665Y40856000D01*
X48147335Y40856000D01*
X48424574Y40911147D01*
X48685727Y41019320D01*
X48920759Y41176363D01*
X49120637Y41376241D01*
X49277680Y41611273D01*
X49385853Y41872426D01*
X49441000Y42149665D01*
X49441000Y42432335D01*
X51397000Y42432335D01*
X51397000Y42149665D01*
X51452147Y41872426D01*
X51560320Y41611273D01*
X51717363Y41376241D01*
X51917241Y41176363D01*
X52152273Y41019320D01*
X52413426Y40911147D01*
X52690665Y40856000D01*
X52973335Y40856000D01*
X53250574Y40911147D01*
X53511727Y41019320D01*
X53746759Y41176363D01*
X53946637Y41376241D01*
X54103680Y41611273D01*
X54211853Y41872426D01*
X54267000Y42149665D01*
X54267000Y42432335D01*
X54211853Y42709574D01*
X54103680Y42970727D01*
X53946637Y43205759D01*
X53746759Y43405637D01*
X53511727Y43562680D01*
X53463638Y43582599D01*
X53573514Y43641329D01*
X53645097Y43885298D01*
X52832000Y44698395D01*
X52018903Y43885298D01*
X52090486Y43641329D01*
X52207957Y43585745D01*
X52152273Y43562680D01*
X51917241Y43405637D01*
X51717363Y43205759D01*
X51560320Y42970727D01*
X51452147Y42709574D01*
X51397000Y42432335D01*
X49441000Y42432335D01*
X49385853Y42709574D01*
X49277680Y42970727D01*
X49120637Y43205759D01*
X48920759Y43405637D01*
X48720131Y43539692D01*
X48747514Y43554329D01*
X48819097Y43798298D01*
X48006000Y44611395D01*
X47192903Y43798298D01*
X47264486Y43554329D01*
X47293341Y43540676D01*
X47091241Y43405637D01*
X46891363Y43205759D01*
X46734320Y42970727D01*
X46626147Y42709574D01*
X46571000Y42432335D01*
X46120000Y42432335D01*
X46120000Y44720488D01*
X46565783Y44720488D01*
X46607213Y44440870D01*
X46702397Y44174708D01*
X46769329Y44049486D01*
X47013298Y43977903D01*
X47826395Y44791000D01*
X48185605Y44791000D01*
X48998702Y43977903D01*
X49242671Y44049486D01*
X49363571Y44304996D01*
X49432300Y44579184D01*
X49443553Y44807488D01*
X51391783Y44807488D01*
X51433213Y44527870D01*
X51528397Y44261708D01*
X51595329Y44136486D01*
X51839298Y44064903D01*
X52652395Y44878000D01*
X53011605Y44878000D01*
X53824702Y44064903D01*
X54068671Y44136486D01*
X54189571Y44391996D01*
X54258300Y44666184D01*
X54272217Y44948512D01*
X54230787Y45228130D01*
X54135603Y45494292D01*
X54068671Y45619514D01*
X53824702Y45691097D01*
X53011605Y44878000D01*
X52652395Y44878000D01*
X51839298Y45691097D01*
X51595329Y45619514D01*
X51474429Y45364004D01*
X51405700Y45089816D01*
X51391783Y44807488D01*
X49443553Y44807488D01*
X49446217Y44861512D01*
X49404787Y45141130D01*
X49309603Y45407292D01*
X49242671Y45532514D01*
X48998702Y45604097D01*
X48185605Y44791000D01*
X47826395Y44791000D01*
X47013298Y45604097D01*
X46769329Y45532514D01*
X46648429Y45277004D01*
X46579700Y45002816D01*
X46565783Y44720488D01*
X46120000Y44720488D01*
X46120000Y45955000D01*
X47243164Y45955000D01*
X47192903Y45783702D01*
%TA.AperFunction,Conductor*%
D25*
G36*
X47192903Y45783702D02*
G01*
X48006000Y44970605D01*
X48819097Y45783702D01*
X48768836Y45955000D01*
X52043637Y45955000D01*
X52018903Y45870702D01*
X52832000Y45057605D01*
X53645097Y45870702D01*
X53620363Y45955000D01*
X66246290Y45955000D01*
X69450000Y42751289D01*
X69450001Y16938712D01*
X67516290Y15005000D01*
X64257287Y15005000D01*
X64254502Y15014180D01*
X64195537Y15124494D01*
X64116185Y15221185D01*
X64019494Y15300537D01*
X63909180Y15359502D01*
X63789482Y15395812D01*
X63665000Y15408072D01*
X62065000Y15408072D01*
X61940518Y15395812D01*
X61820820Y15359502D01*
X61710506Y15300537D01*
X61613815Y15221185D01*
X61603193Y15208242D01*
X61351004Y15327571D01*
X61076816Y15396300D01*
X60794488Y15410217D01*
X60514870Y15368787D01*
X60248708Y15273603D01*
X60123486Y15206671D01*
X60051903Y14962702D01*
X60865000Y14149605D01*
X60879143Y14163747D01*
X61058748Y13984142D01*
X61044605Y13970000D01*
X61058748Y13955857D01*
X60879143Y13776252D01*
X60865000Y13790395D01*
X60850858Y13776252D01*
X60671253Y13955857D01*
X60685395Y13970000D01*
X59872298Y14783097D01*
X59628329Y14711514D01*
X59507429Y14456004D01*
X59438700Y14181816D01*
X59424783Y13899488D01*
X59466213Y13619870D01*
X59561397Y13353708D01*
X59628329Y13228486D01*
X59872296Y13156903D01*
X59815393Y13100000D01*
X44500835Y13100000D01*
X44450000Y13105007D01*
X44399165Y13100000D01*
X44399162Y13100000D01*
X44247105Y13085024D01*
X44116873Y13045518D01*
X44052006Y13025841D01*
X43872202Y12929734D01*
X43811121Y12879605D01*
X43714604Y12800396D01*
X43682193Y12760903D01*
X43386290Y12465000D01*
X43310853Y12465000D01*
X43111101Y12628932D01*
X42978142Y12700000D01*
X43111101Y12771068D01*
X43329608Y12950392D01*
X43508932Y13168899D01*
X43642182Y13418192D01*
X43724236Y13688691D01*
X43751943Y13970000D01*
X43724236Y14251309D01*
X43701186Y14327298D01*
X49351903Y14327298D01*
X49423486Y14083329D01*
X49678996Y13962429D01*
X49953184Y13893700D01*
X50235512Y13879783D01*
X50515130Y13921213D01*
X50781292Y14016397D01*
X50906514Y14083329D01*
X50978097Y14327298D01*
X50165000Y15140395D01*
X49351903Y14327298D01*
X43701186Y14327298D01*
X43642182Y14521808D01*
X43508932Y14771101D01*
X43329608Y14989608D01*
X43111101Y15168932D01*
X42978142Y15240000D01*
X42995892Y15249488D01*
X48724783Y15249488D01*
X48766213Y14969870D01*
X48861397Y14703708D01*
X48928329Y14578486D01*
X49172298Y14506903D01*
X49985395Y15320000D01*
X50344605Y15320000D01*
X51157702Y14506903D01*
X51401671Y14578486D01*
X51522571Y14833996D01*
X51591300Y15108184D01*
X51605217Y15390512D01*
X51563787Y15670130D01*
X51468603Y15936292D01*
X51401671Y16061514D01*
X51157702Y16133097D01*
X50344605Y15320000D01*
X49985395Y15320000D01*
X49172298Y16133097D01*
X48928329Y16061514D01*
X48807429Y15806004D01*
X48738700Y15531816D01*
X48724783Y15249488D01*
X42995892Y15249488D01*
X43111101Y15311068D01*
X43329608Y15490392D01*
X43508932Y15708899D01*
X43642182Y15958192D01*
X43724236Y16228691D01*
X43732510Y16312702D01*
X49351903Y16312702D01*
X50165000Y15499605D01*
X50978097Y16312702D01*
X50906514Y16556671D01*
X50651004Y16677571D01*
X50376816Y16746300D01*
X50094488Y16760217D01*
X49814870Y16718787D01*
X49548708Y16623603D01*
X49423486Y16556671D01*
X49351903Y16312702D01*
X43732510Y16312702D01*
X43751943Y16510000D01*
X43724236Y16791309D01*
X43677615Y16945000D01*
X51393982Y16945000D01*
X51435000Y16940960D01*
X51476018Y16945000D01*
X51476019Y16945000D01*
X51598689Y16957082D01*
X51756087Y17004828D01*
X51901146Y17082364D01*
X52028291Y17186709D01*
X52054446Y17218579D01*
X53266428Y18430560D01*
X53298291Y18456709D01*
X53402636Y18583854D01*
X53480172Y18728913D01*
X53527918Y18886311D01*
X53540000Y19008981D01*
X53540000Y19008983D01*
X53544040Y19049999D01*
X53540000Y19091015D01*
X53540000Y19595000D01*
X54111928Y19595000D01*
X54124188Y19470518D01*
X54160498Y19350820D01*
X54219463Y19240506D01*
X54298815Y19143815D01*
X54395506Y19064463D01*
X54505820Y19005498D01*
X54625518Y18969188D01*
X54750000Y18956928D01*
X54964250Y18960000D01*
X55123000Y19118750D01*
X55123000Y20193000D01*
X54273750Y20193000D01*
X54115000Y20034250D01*
X54111928Y19595000D01*
X53540000Y19595000D01*
X53540000Y21045000D01*
X54111928Y21045000D01*
X54115000Y20605750D01*
X54273750Y20447000D01*
X55123000Y20447000D01*
X55123000Y21521250D01*
X54964250Y21680000D01*
X54750000Y21683072D01*
X54625518Y21670812D01*
X54505820Y21634502D01*
X54395506Y21575537D01*
X54298815Y21496185D01*
X54219463Y21399494D01*
X54160498Y21289180D01*
X54124188Y21169482D01*
X54111928Y21045000D01*
X53540000Y21045000D01*
X53540000Y22854468D01*
X53547463Y22840506D01*
X53626815Y22743815D01*
X53723506Y22664463D01*
X53833820Y22605498D01*
X53953518Y22569188D01*
X54078000Y22556928D01*
X54767250Y22560000D01*
X54926000Y22718750D01*
X54926000Y23368000D01*
X54906000Y23368000D01*
X54906000Y23622000D01*
X54926000Y23622000D01*
X54926000Y23642000D01*
X55180000Y23642000D01*
X55180000Y23622000D01*
X55200000Y23622000D01*
X55200000Y23368000D01*
X55180000Y23368000D01*
X55180000Y22718750D01*
X55338750Y22560000D01*
X56028000Y22556928D01*
X56152482Y22569188D01*
X56272180Y22605498D01*
X56315000Y22628386D01*
X56315000Y21458220D01*
X56272038Y21422962D01*
X56266658Y21416406D01*
X56201185Y21496185D01*
X56104494Y21575537D01*
X55994180Y21634502D01*
X55874482Y21670812D01*
X55750000Y21683072D01*
X55535750Y21680000D01*
X55377000Y21521250D01*
X55377000Y20447000D01*
X55397000Y20447000D01*
X55397000Y20193000D01*
X55377000Y20193000D01*
X55377000Y19118750D01*
X55535750Y18960000D01*
X55750000Y18956928D01*
X55874482Y18969188D01*
X55994180Y19005498D01*
X56104494Y19064463D01*
X56201185Y19143815D01*
X56266658Y19223594D01*
X56272038Y19217038D01*
X56406614Y19106595D01*
X56560150Y19024528D01*
X56726746Y18973992D01*
X56900000Y18956928D01*
X57400000Y18956928D01*
X57573254Y18973992D01*
X57739850Y19024528D01*
X57893386Y19106595D01*
X58027962Y19217038D01*
X58138405Y19351614D01*
X58220472Y19505150D01*
X58271008Y19671746D01*
X58288072Y19845000D01*
X58288072Y20795000D01*
X58271008Y20968254D01*
X58220472Y21134850D01*
X58138405Y21288386D01*
X58027962Y21422962D01*
X57985000Y21458220D01*
X57985000Y23287501D01*
X63390106Y23287501D01*
X63606228Y22920742D01*
X64066105Y22680062D01*
X64564098Y22533725D01*
X65081071Y22487352D01*
X65597159Y22542727D01*
X66092526Y22697721D01*
X66509772Y22920742D01*
X66725894Y23287501D01*
X65058000Y24955395D01*
X63390106Y23287501D01*
X57985000Y23287501D01*
X57985000Y25111929D01*
X62410352Y25111929D01*
X62465727Y24595841D01*
X62620721Y24100474D01*
X62843742Y23683228D01*
X63210501Y23467106D01*
X64878395Y25135000D01*
X65237605Y25135000D01*
X66905499Y23467106D01*
X67272258Y23683228D01*
X67512938Y24143105D01*
X67659275Y24641098D01*
X67705648Y25158071D01*
X67650273Y25674159D01*
X67495279Y26169526D01*
X67272258Y26586772D01*
X66905499Y26802894D01*
X65237605Y25135000D01*
X64878395Y25135000D01*
X63210501Y26802894D01*
X62843742Y26586772D01*
X62603062Y26126895D01*
X62456725Y25628902D01*
X62410352Y25111929D01*
X57985000Y25111929D01*
X57985000Y26628982D01*
X57989040Y26670000D01*
X57972918Y26833688D01*
X57965569Y26857917D01*
X57927778Y26982499D01*
X63390106Y26982499D01*
X65058000Y25314605D01*
X66725894Y26982499D01*
X66509772Y27349258D01*
X66049895Y27589938D01*
X65551902Y27736275D01*
X65034929Y27782648D01*
X64518841Y27727273D01*
X64023474Y27572279D01*
X63606228Y27349258D01*
X63390106Y26982499D01*
X57927778Y26982499D01*
X57925172Y26991087D01*
X57847636Y27136146D01*
X57824097Y27164828D01*
X57807831Y27184649D01*
X57844913Y27164828D01*
X58002311Y27117082D01*
X58124981Y27105000D01*
X58124982Y27105000D01*
X58166000Y27100960D01*
X58207018Y27105000D01*
X61299982Y27105000D01*
X61341000Y27100960D01*
X61382018Y27105000D01*
X61382019Y27105000D01*
X61504689Y27117082D01*
X61662087Y27164828D01*
X61807146Y27242364D01*
X61934291Y27346709D01*
X61960446Y27378579D01*
X62759427Y28177560D01*
X62791291Y28203709D01*
X62895636Y28330854D01*
X62973172Y28475913D01*
X63020918Y28633311D01*
X63028898Y28714329D01*
X63112759Y28770363D01*
X63312637Y28970241D01*
X63469680Y29205273D01*
X63577853Y29466426D01*
X63633000Y29743665D01*
X63633000Y30026335D01*
X63577853Y30303574D01*
X63469680Y30564727D01*
X63312637Y30799759D01*
X63112759Y30999637D01*
X62912131Y31133692D01*
X62939514Y31148329D01*
X63011097Y31392298D01*
X62198000Y32205395D01*
X62183858Y32191252D01*
X62004253Y32370857D01*
X62018395Y32385000D01*
X62377605Y32385000D01*
X63190702Y31571903D01*
X63434671Y31643486D01*
X63555571Y31898996D01*
X63624300Y32173184D01*
X63638217Y32455512D01*
X63596787Y32735130D01*
X63501603Y33001292D01*
X63434671Y33126514D01*
X63190702Y33198097D01*
X62377605Y32385000D01*
X62018395Y32385000D01*
X62004253Y32399142D01*
X62183858Y32578747D01*
X62198000Y32564605D01*
X63011097Y33377702D01*
X62939514Y33621671D01*
X62684004Y33742571D01*
X62409816Y33811300D01*
X62127488Y33825217D01*
X61847870Y33783787D01*
X61581708Y33688603D01*
X61459691Y33623384D01*
X61449185Y33636185D01*
X61352494Y33715537D01*
X61242180Y33774502D01*
X61122482Y33810812D01*
X60998000Y33823072D01*
X59398000Y33823072D01*
X59273518Y33810812D01*
X59153820Y33774502D01*
X59043506Y33715537D01*
X58946815Y33636185D01*
X58867463Y33539494D01*
X58808498Y33429180D01*
X58772188Y33309482D01*
X58759928Y33185000D01*
X58759928Y31585000D01*
X58772188Y31460518D01*
X58808498Y31340820D01*
X58867463Y31230506D01*
X58946815Y31133815D01*
X59043506Y31054463D01*
X59153820Y30995498D01*
X59249943Y30966339D01*
X59083363Y30799759D01*
X59030070Y30720000D01*
X56623248Y30720000D01*
X56650929Y30811255D01*
X56666072Y30965000D01*
X56666072Y31265000D01*
X56650929Y31418745D01*
X56606084Y31566582D01*
X56533258Y31702829D01*
X56494546Y31750000D01*
X56533258Y31797171D01*
X56606084Y31933418D01*
X56650929Y32081255D01*
X56666072Y32235000D01*
X56666072Y32535000D01*
X56650929Y32688745D01*
X56606084Y32836582D01*
X56533258Y32972829D01*
X56435251Y33092251D01*
X56315829Y33190258D01*
X56179582Y33263084D01*
X56031745Y33307929D01*
X55881131Y33322764D01*
X55875918Y33375689D01*
X55828172Y33533087D01*
X55750636Y33678146D01*
X55672439Y33773430D01*
X55672437Y33773432D01*
X55646291Y33805291D01*
X55614432Y33831437D01*
X54158367Y35287501D01*
X63390106Y35287501D01*
X63606228Y34920742D01*
X64066105Y34680062D01*
X64564098Y34533725D01*
X65081071Y34487352D01*
X65597159Y34542727D01*
X66092526Y34697721D01*
X66509772Y34920742D01*
X66725894Y35287501D01*
X65058000Y36955395D01*
X63390106Y35287501D01*
X54158367Y35287501D01*
X53721000Y35724867D01*
X53721000Y36865205D01*
X53768886Y36897201D01*
X53961799Y37090114D01*
X53976375Y37111929D01*
X62410352Y37111929D01*
X62465727Y36595841D01*
X62620721Y36100474D01*
X62843742Y35683228D01*
X63210501Y35467106D01*
X64878395Y37135000D01*
X65237605Y37135000D01*
X66905499Y35467106D01*
X67272258Y35683228D01*
X67512938Y36143105D01*
X67659275Y36641098D01*
X67705648Y37158071D01*
X67650273Y37674159D01*
X67495279Y38169526D01*
X67272258Y38586772D01*
X66905499Y38802894D01*
X65237605Y37135000D01*
X64878395Y37135000D01*
X63210501Y38802894D01*
X62843742Y38586772D01*
X62603062Y38126895D01*
X62456725Y37628902D01*
X62410352Y37111929D01*
X53976375Y37111929D01*
X54113371Y37316957D01*
X54217775Y37569011D01*
X54271000Y37836589D01*
X54271000Y38109411D01*
X54217775Y38376989D01*
X54113371Y38629043D01*
X53961799Y38855886D01*
X53835186Y38982499D01*
X63390106Y38982499D01*
X65058000Y37314605D01*
X66725894Y38982499D01*
X66509772Y39349258D01*
X66049895Y39589938D01*
X65551902Y39736275D01*
X65034929Y39782648D01*
X64518841Y39727273D01*
X64023474Y39572279D01*
X63606228Y39349258D01*
X63390106Y38982499D01*
X53835186Y38982499D01*
X53768886Y39048799D01*
X53542043Y39200371D01*
X53289989Y39304775D01*
X53022411Y39358000D01*
X52749589Y39358000D01*
X52482011Y39304775D01*
X52229957Y39200371D01*
X52003114Y39048799D01*
X51810201Y38855886D01*
X51658629Y38629043D01*
X51554225Y38376989D01*
X51501000Y38109411D01*
X51501000Y37836589D01*
X51554225Y37569011D01*
X51658629Y37316957D01*
X51810201Y37090114D01*
X52003114Y36897201D01*
X52051001Y36865204D01*
X52051000Y35617620D01*
X52028291Y35645291D01*
X51901146Y35749636D01*
X51756087Y35827172D01*
X51598689Y35874918D01*
X51476019Y35887000D01*
X51476018Y35887000D01*
X51435000Y35891040D01*
X51393982Y35887000D01*
X49621868Y35887000D01*
X48841000Y36667867D01*
X48841000Y36865205D01*
X48888886Y36897201D01*
X49081799Y37090114D01*
X49233371Y37316957D01*
X49337775Y37569011D01*
X49391000Y37836589D01*
X49391000Y38109411D01*
X49337775Y38376989D01*
X49233371Y38629043D01*
X49081799Y38855886D01*
X48888886Y39048799D01*
X48662043Y39200371D01*
X48409989Y39304775D01*
X48142411Y39358000D01*
X47869589Y39358000D01*
X47602011Y39304775D01*
X47349957Y39200371D01*
X47123114Y39048799D01*
X46930201Y38855886D01*
X46778629Y38629043D01*
X46674225Y38376989D01*
X46621000Y38109411D01*
X46621000Y37836589D01*
X46674225Y37569011D01*
X46778629Y37316957D01*
X46930201Y37090114D01*
X47123114Y36897201D01*
X47171000Y36865204D01*
X47171000Y36842710D01*
X46120000Y37893710D01*
X46120000Y42432335D01*
X46571000Y42432335D01*
X46571000Y42149665D01*
X46626147Y41872426D01*
X46734320Y41611273D01*
X46891363Y41376241D01*
X47091241Y41176363D01*
X47326273Y41019320D01*
X47587426Y40911147D01*
X47864665Y40856000D01*
X48147335Y40856000D01*
X48424574Y40911147D01*
X48685727Y41019320D01*
X48920759Y41176363D01*
X49120637Y41376241D01*
X49277680Y41611273D01*
X49385853Y41872426D01*
X49441000Y42149665D01*
X49441000Y42432335D01*
X51397000Y42432335D01*
X51397000Y42149665D01*
X51452147Y41872426D01*
X51560320Y41611273D01*
X51717363Y41376241D01*
X51917241Y41176363D01*
X52152273Y41019320D01*
X52413426Y40911147D01*
X52690665Y40856000D01*
X52973335Y40856000D01*
X53250574Y40911147D01*
X53511727Y41019320D01*
X53746759Y41176363D01*
X53946637Y41376241D01*
X54103680Y41611273D01*
X54211853Y41872426D01*
X54267000Y42149665D01*
X54267000Y42432335D01*
X54211853Y42709574D01*
X54103680Y42970727D01*
X53946637Y43205759D01*
X53746759Y43405637D01*
X53511727Y43562680D01*
X53463638Y43582599D01*
X53573514Y43641329D01*
X53645097Y43885298D01*
X52832000Y44698395D01*
X52018903Y43885298D01*
X52090486Y43641329D01*
X52207957Y43585745D01*
X52152273Y43562680D01*
X51917241Y43405637D01*
X51717363Y43205759D01*
X51560320Y42970727D01*
X51452147Y42709574D01*
X51397000Y42432335D01*
X49441000Y42432335D01*
X49385853Y42709574D01*
X49277680Y42970727D01*
X49120637Y43205759D01*
X48920759Y43405637D01*
X48720131Y43539692D01*
X48747514Y43554329D01*
X48819097Y43798298D01*
X48006000Y44611395D01*
X47192903Y43798298D01*
X47264486Y43554329D01*
X47293341Y43540676D01*
X47091241Y43405637D01*
X46891363Y43205759D01*
X46734320Y42970727D01*
X46626147Y42709574D01*
X46571000Y42432335D01*
X46120000Y42432335D01*
X46120000Y44720488D01*
X46565783Y44720488D01*
X46607213Y44440870D01*
X46702397Y44174708D01*
X46769329Y44049486D01*
X47013298Y43977903D01*
X47826395Y44791000D01*
X48185605Y44791000D01*
X48998702Y43977903D01*
X49242671Y44049486D01*
X49363571Y44304996D01*
X49432300Y44579184D01*
X49443553Y44807488D01*
X51391783Y44807488D01*
X51433213Y44527870D01*
X51528397Y44261708D01*
X51595329Y44136486D01*
X51839298Y44064903D01*
X52652395Y44878000D01*
X53011605Y44878000D01*
X53824702Y44064903D01*
X54068671Y44136486D01*
X54189571Y44391996D01*
X54258300Y44666184D01*
X54272217Y44948512D01*
X54230787Y45228130D01*
X54135603Y45494292D01*
X54068671Y45619514D01*
X53824702Y45691097D01*
X53011605Y44878000D01*
X52652395Y44878000D01*
X51839298Y45691097D01*
X51595329Y45619514D01*
X51474429Y45364004D01*
X51405700Y45089816D01*
X51391783Y44807488D01*
X49443553Y44807488D01*
X49446217Y44861512D01*
X49404787Y45141130D01*
X49309603Y45407292D01*
X49242671Y45532514D01*
X48998702Y45604097D01*
X48185605Y44791000D01*
X47826395Y44791000D01*
X47013298Y45604097D01*
X46769329Y45532514D01*
X46648429Y45277004D01*
X46579700Y45002816D01*
X46565783Y44720488D01*
X46120000Y44720488D01*
X46120000Y45955000D01*
X47243164Y45955000D01*
X47192903Y45783702D01*
G37*
%TD.AperFunction*%
D24*
X37480558Y34998574D02*
X37506709Y34966709D01*
X37633854Y34862364D01*
X37778913Y34784828D01*
X37936311Y34737082D01*
X38058981Y34725000D01*
X38058983Y34725000D01*
X38099999Y34720960D01*
X38141015Y34725000D01*
X39259132Y34725000D01*
X36903574Y32369441D01*
X36871710Y32343291D01*
X36845562Y32311429D01*
X36767364Y32216145D01*
X36689828Y32071086D01*
X36642082Y31913688D01*
X36625960Y31750000D01*
X36630001Y31708972D01*
X36630000Y26382265D01*
X36466875Y26219140D01*
X36326247Y26008676D01*
X36229381Y25774821D01*
X36180000Y25526561D01*
X36180000Y25273439D01*
X36229381Y25025179D01*
X36326247Y24791324D01*
X36466875Y24580860D01*
X36645860Y24401875D01*
X36856324Y24261247D01*
X37090179Y24164381D01*
X37338439Y24115000D01*
X37591561Y24115000D01*
X37839821Y24164381D01*
X38073676Y24261247D01*
X38284140Y24401875D01*
X38463125Y24580860D01*
X38603753Y24791324D01*
X38700619Y25025179D01*
X38750000Y25273439D01*
X38750000Y25526561D01*
X38700619Y25774821D01*
X38603753Y26008676D01*
X38463125Y26219140D01*
X38300000Y26382265D01*
X38300000Y31404133D01*
X40344288Y33448420D01*
X40490392Y33270392D01*
X40708899Y33091068D01*
X40841858Y33020000D01*
X40708899Y32948932D01*
X40490392Y32769608D01*
X40311068Y32551101D01*
X40177818Y32301808D01*
X40095764Y32031309D01*
X40068057Y31750000D01*
X40095764Y31468691D01*
X40177818Y31198192D01*
X40311068Y30948899D01*
X40490392Y30730392D01*
X40708899Y30551068D01*
X40841858Y30480000D01*
X40708899Y30408932D01*
X40490392Y30229608D01*
X40311068Y30011101D01*
X40177818Y29761808D01*
X40095764Y29491309D01*
X40068057Y29210000D01*
X40095764Y28928691D01*
X40177818Y28658192D01*
X40311068Y28408899D01*
X40490392Y28190392D01*
X40708899Y28011068D01*
X40841858Y27940000D01*
X40708899Y27868932D01*
X40490392Y27689608D01*
X40311068Y27471101D01*
X40177818Y27221808D01*
X40095764Y26951309D01*
X40068057Y26670000D01*
X40095764Y26388691D01*
X40177818Y26118192D01*
X40311068Y25868899D01*
X40490392Y25650392D01*
X40708899Y25471068D01*
X40841858Y25400000D01*
X40708899Y25328932D01*
X40490392Y25149608D01*
X40311068Y24931101D01*
X40177818Y24681808D01*
X40095764Y24411309D01*
X40068057Y24130000D01*
X40095764Y23848691D01*
X40142385Y23695000D01*
X36871015Y23695000D01*
X36829999Y23699040D01*
X36788983Y23695000D01*
X36788981Y23695000D01*
X36666311Y23682918D01*
X36508913Y23635172D01*
X36363854Y23557636D01*
X36236709Y23453291D01*
X36210558Y23421426D01*
X35214133Y22425000D01*
X30420692Y22425000D01*
X30445619Y22485179D01*
X30495000Y22733439D01*
X30495000Y22986561D01*
X30445619Y23234821D01*
X30348753Y23468676D01*
X30208125Y23679140D01*
X30029140Y23858125D01*
X29818676Y23998753D01*
X29584821Y24095619D01*
X29336561Y24145000D01*
X29083439Y24145000D01*
X28835179Y24095619D01*
X28601324Y23998753D01*
X28411817Y23872128D01*
X28339915Y24003000D01*
X26797000Y24003000D01*
X26797000Y23983000D01*
X26543000Y23983000D01*
X26543000Y24003000D01*
X25000085Y24003000D01*
X24878096Y23780961D01*
X24895633Y23698182D01*
X24896988Y23695000D01*
X20324866Y23695000D01*
X20327166Y23698517D01*
X20432650Y23960486D01*
X20485000Y24238000D01*
X20485000Y24638000D01*
X19177000Y24638000D01*
X19177000Y24618000D01*
X18923000Y24618000D01*
X18923000Y24638000D01*
X18903000Y24638000D01*
X18903000Y24892000D01*
X18923000Y24892000D01*
X18923000Y26434915D01*
X19177000Y26434915D01*
X19177000Y24892000D01*
X20485000Y24892000D01*
X20485000Y25292000D01*
X20432650Y25569514D01*
X20357038Y25757298D01*
X22046903Y25757298D01*
X22118486Y25513329D01*
X22373996Y25392429D01*
X22648184Y25323700D01*
X22930512Y25309783D01*
X23210130Y25351213D01*
X23476292Y25446397D01*
X23601514Y25513329D01*
X23673097Y25757298D01*
X22860000Y26570395D01*
X22046903Y25757298D01*
X20357038Y25757298D01*
X20327166Y25831483D01*
X20172601Y26067839D01*
X19974895Y26269500D01*
X19741646Y26428715D01*
X19481818Y26539367D01*
X19399039Y26556904D01*
X19177000Y26434915D01*
X18923000Y26434915D01*
X18700961Y26556904D01*
X18618182Y26539367D01*
X18358354Y26428715D01*
X18125105Y26269500D01*
X17927399Y26067839D01*
X17777265Y25838259D01*
X17708932Y25966101D01*
X17529607Y26184608D01*
X17311100Y26363932D01*
X17061807Y26497182D01*
X16791308Y26579236D01*
X16510000Y26606943D01*
X16228691Y26579236D01*
X15958192Y26497182D01*
X15708899Y26363932D01*
X15490392Y26184607D01*
X15311068Y25966100D01*
X15240000Y25833142D01*
X15168932Y25966101D01*
X14989607Y26184608D01*
X14771100Y26363932D01*
X14521807Y26497182D01*
X14251308Y26579236D01*
X13970000Y26606943D01*
X13688691Y26579236D01*
X13418192Y26497182D01*
X13403852Y26489517D01*
X13397636Y26501146D01*
X13293291Y26628291D01*
X13261426Y26654442D01*
X12049446Y27866421D01*
X12023291Y27898291D01*
X11974335Y27938468D01*
X13261430Y29225562D01*
X13293291Y29251709D01*
X13397636Y29378854D01*
X13475172Y29523913D01*
X13522918Y29681311D01*
X13535000Y29803981D01*
X13535000Y29803982D01*
X13539040Y29844999D01*
X13535000Y29886018D01*
X13535000Y30617385D01*
X13688692Y30570764D01*
X13970000Y30543057D01*
X14251309Y30570764D01*
X14521808Y30652818D01*
X14771101Y30786068D01*
X14989608Y30965392D01*
X15168932Y31183899D01*
X15240000Y31316858D01*
X15311068Y31183899D01*
X15490393Y30965392D01*
X15675000Y30813889D01*
X15675000Y30521019D01*
X15670960Y30480000D01*
X15675000Y30438982D01*
X15687082Y30316312D01*
X15734828Y30158914D01*
X15812364Y30013855D01*
X15916709Y29886709D01*
X15948579Y29860554D01*
X17795563Y28013568D01*
X17821709Y27981709D01*
X17853568Y27955563D01*
X17853570Y27955561D01*
X17948854Y27877364D01*
X18093913Y27799828D01*
X18251311Y27752082D01*
X18415000Y27735960D01*
X18456018Y27740000D01*
X21811653Y27740000D01*
X21751023Y27679370D01*
X21867296Y27563097D01*
X21623329Y27491514D01*
X21502429Y27236004D01*
X21433700Y26961816D01*
X21419783Y26679488D01*
X21461213Y26399870D01*
X21556397Y26133708D01*
X21623329Y26008486D01*
X21867298Y25936903D01*
X22680395Y26750000D01*
X22666253Y26764142D01*
X22845858Y26943747D01*
X22860000Y26929605D01*
X22874143Y26943747D01*
X23053748Y26764142D01*
X23039605Y26750000D01*
X23852702Y25936903D01*
X24096671Y26008486D01*
X24217571Y26263996D01*
X24286300Y26538184D01*
X24300217Y26820512D01*
X24258787Y27100130D01*
X24257045Y27105000D01*
X24902385Y27105000D01*
X24855764Y26951309D01*
X24828057Y26670000D01*
X24855764Y26388691D01*
X24937818Y26118192D01*
X25071068Y25868899D01*
X25250392Y25650392D01*
X25468899Y25471068D01*
X25596741Y25402735D01*
X25367161Y25252601D01*
X25165500Y25054895D01*
X25006285Y24821646D01*
X24895633Y24561818D01*
X24878096Y24479039D01*
X25000085Y24257000D01*
X26543000Y24257000D01*
X26543000Y24277000D01*
X26797000Y24277000D01*
X26797000Y24257000D01*
X28339915Y24257000D01*
X28461904Y24479039D01*
X28444367Y24561818D01*
X28333715Y24821646D01*
X28174500Y25054895D01*
X27972839Y25252601D01*
X27743259Y25402735D01*
X27871101Y25471068D01*
X28089608Y25650392D01*
X28268932Y25868899D01*
X28402182Y26118192D01*
X28484236Y26388691D01*
X28511943Y26670000D01*
X28491809Y26874423D01*
X28601324Y26801247D01*
X28835179Y26704381D01*
X29083439Y26655000D01*
X29336561Y26655000D01*
X29584821Y26704381D01*
X29818676Y26801247D01*
X30029140Y26941875D01*
X30208125Y27120860D01*
X30348753Y27331324D01*
X30445619Y27565179D01*
X30495000Y27813439D01*
X30495000Y28066561D01*
X30445619Y28314821D01*
X30348753Y28548676D01*
X30208125Y28759140D01*
X30029140Y28938125D01*
X29818676Y29078753D01*
X29584821Y29175619D01*
X29336561Y29225000D01*
X29083439Y29225000D01*
X28835179Y29175619D01*
X28601324Y29078753D01*
X28491809Y29005577D01*
X28511943Y29210000D01*
X28484236Y29491309D01*
X28402182Y29761808D01*
X28268932Y30011101D01*
X28089608Y30229608D01*
X27871101Y30408932D01*
X27738142Y30480000D01*
X27871101Y30551068D01*
X28089608Y30730392D01*
X28268932Y30948899D01*
X28402182Y31198192D01*
X28484236Y31468691D01*
X28511943Y31750000D01*
X28484236Y32031309D01*
X28402182Y32301808D01*
X28268932Y32551101D01*
X28089608Y32769608D01*
X27871101Y32948932D01*
X27738142Y33020000D01*
X27871101Y33091068D01*
X28089608Y33270392D01*
X28268932Y33488899D01*
X28402182Y33738192D01*
X28484236Y34008691D01*
X28511943Y34290000D01*
X28484236Y34571309D01*
X28402182Y34841808D01*
X28268932Y35091101D01*
X28089608Y35309608D01*
X27871101Y35488932D01*
X27738142Y35560000D01*
X27871101Y35631068D01*
X28089608Y35810392D01*
X28241112Y35995000D01*
X36484133Y35995000D01*
X37480558Y34998574D01*
%TA.AperFunction,Conductor*%
D25*
G36*
X37480558Y34998574D02*
G01*
X37506709Y34966709D01*
X37633854Y34862364D01*
X37778913Y34784828D01*
X37936311Y34737082D01*
X38058981Y34725000D01*
X38058983Y34725000D01*
X38099999Y34720960D01*
X38141015Y34725000D01*
X39259132Y34725000D01*
X36903574Y32369441D01*
X36871710Y32343291D01*
X36845562Y32311429D01*
X36767364Y32216145D01*
X36689828Y32071086D01*
X36642082Y31913688D01*
X36625960Y31750000D01*
X36630001Y31708972D01*
X36630000Y26382265D01*
X36466875Y26219140D01*
X36326247Y26008676D01*
X36229381Y25774821D01*
X36180000Y25526561D01*
X36180000Y25273439D01*
X36229381Y25025179D01*
X36326247Y24791324D01*
X36466875Y24580860D01*
X36645860Y24401875D01*
X36856324Y24261247D01*
X37090179Y24164381D01*
X37338439Y24115000D01*
X37591561Y24115000D01*
X37839821Y24164381D01*
X38073676Y24261247D01*
X38284140Y24401875D01*
X38463125Y24580860D01*
X38603753Y24791324D01*
X38700619Y25025179D01*
X38750000Y25273439D01*
X38750000Y25526561D01*
X38700619Y25774821D01*
X38603753Y26008676D01*
X38463125Y26219140D01*
X38300000Y26382265D01*
X38300000Y31404133D01*
X40344288Y33448420D01*
X40490392Y33270392D01*
X40708899Y33091068D01*
X40841858Y33020000D01*
X40708899Y32948932D01*
X40490392Y32769608D01*
X40311068Y32551101D01*
X40177818Y32301808D01*
X40095764Y32031309D01*
X40068057Y31750000D01*
X40095764Y31468691D01*
X40177818Y31198192D01*
X40311068Y30948899D01*
X40490392Y30730392D01*
X40708899Y30551068D01*
X40841858Y30480000D01*
X40708899Y30408932D01*
X40490392Y30229608D01*
X40311068Y30011101D01*
X40177818Y29761808D01*
X40095764Y29491309D01*
X40068057Y29210000D01*
X40095764Y28928691D01*
X40177818Y28658192D01*
X40311068Y28408899D01*
X40490392Y28190392D01*
X40708899Y28011068D01*
X40841858Y27940000D01*
X40708899Y27868932D01*
X40490392Y27689608D01*
X40311068Y27471101D01*
X40177818Y27221808D01*
X40095764Y26951309D01*
X40068057Y26670000D01*
X40095764Y26388691D01*
X40177818Y26118192D01*
X40311068Y25868899D01*
X40490392Y25650392D01*
X40708899Y25471068D01*
X40841858Y25400000D01*
X40708899Y25328932D01*
X40490392Y25149608D01*
X40311068Y24931101D01*
X40177818Y24681808D01*
X40095764Y24411309D01*
X40068057Y24130000D01*
X40095764Y23848691D01*
X40142385Y23695000D01*
X36871015Y23695000D01*
X36829999Y23699040D01*
X36788983Y23695000D01*
X36788981Y23695000D01*
X36666311Y23682918D01*
X36508913Y23635172D01*
X36363854Y23557636D01*
X36236709Y23453291D01*
X36210558Y23421426D01*
X35214133Y22425000D01*
X30420692Y22425000D01*
X30445619Y22485179D01*
X30495000Y22733439D01*
X30495000Y22986561D01*
X30445619Y23234821D01*
X30348753Y23468676D01*
X30208125Y23679140D01*
X30029140Y23858125D01*
X29818676Y23998753D01*
X29584821Y24095619D01*
X29336561Y24145000D01*
X29083439Y24145000D01*
X28835179Y24095619D01*
X28601324Y23998753D01*
X28411817Y23872128D01*
X28339915Y24003000D01*
X26797000Y24003000D01*
X26797000Y23983000D01*
X26543000Y23983000D01*
X26543000Y24003000D01*
X25000085Y24003000D01*
X24878096Y23780961D01*
X24895633Y23698182D01*
X24896988Y23695000D01*
X20324866Y23695000D01*
X20327166Y23698517D01*
X20432650Y23960486D01*
X20485000Y24238000D01*
X20485000Y24638000D01*
X19177000Y24638000D01*
X19177000Y24618000D01*
X18923000Y24618000D01*
X18923000Y24638000D01*
X18903000Y24638000D01*
X18903000Y24892000D01*
X18923000Y24892000D01*
X18923000Y26434915D01*
X19177000Y26434915D01*
X19177000Y24892000D01*
X20485000Y24892000D01*
X20485000Y25292000D01*
X20432650Y25569514D01*
X20357038Y25757298D01*
X22046903Y25757298D01*
X22118486Y25513329D01*
X22373996Y25392429D01*
X22648184Y25323700D01*
X22930512Y25309783D01*
X23210130Y25351213D01*
X23476292Y25446397D01*
X23601514Y25513329D01*
X23673097Y25757298D01*
X22860000Y26570395D01*
X22046903Y25757298D01*
X20357038Y25757298D01*
X20327166Y25831483D01*
X20172601Y26067839D01*
X19974895Y26269500D01*
X19741646Y26428715D01*
X19481818Y26539367D01*
X19399039Y26556904D01*
X19177000Y26434915D01*
X18923000Y26434915D01*
X18700961Y26556904D01*
X18618182Y26539367D01*
X18358354Y26428715D01*
X18125105Y26269500D01*
X17927399Y26067839D01*
X17777265Y25838259D01*
X17708932Y25966101D01*
X17529607Y26184608D01*
X17311100Y26363932D01*
X17061807Y26497182D01*
X16791308Y26579236D01*
X16510000Y26606943D01*
X16228691Y26579236D01*
X15958192Y26497182D01*
X15708899Y26363932D01*
X15490392Y26184607D01*
X15311068Y25966100D01*
X15240000Y25833142D01*
X15168932Y25966101D01*
X14989607Y26184608D01*
X14771100Y26363932D01*
X14521807Y26497182D01*
X14251308Y26579236D01*
X13970000Y26606943D01*
X13688691Y26579236D01*
X13418192Y26497182D01*
X13403852Y26489517D01*
X13397636Y26501146D01*
X13293291Y26628291D01*
X13261426Y26654442D01*
X12049446Y27866421D01*
X12023291Y27898291D01*
X11974335Y27938468D01*
X13261430Y29225562D01*
X13293291Y29251709D01*
X13397636Y29378854D01*
X13475172Y29523913D01*
X13522918Y29681311D01*
X13535000Y29803981D01*
X13535000Y29803982D01*
X13539040Y29844999D01*
X13535000Y29886018D01*
X13535000Y30617385D01*
X13688692Y30570764D01*
X13970000Y30543057D01*
X14251309Y30570764D01*
X14521808Y30652818D01*
X14771101Y30786068D01*
X14989608Y30965392D01*
X15168932Y31183899D01*
X15240000Y31316858D01*
X15311068Y31183899D01*
X15490393Y30965392D01*
X15675000Y30813889D01*
X15675000Y30521019D01*
X15670960Y30480000D01*
X15675000Y30438982D01*
X15687082Y30316312D01*
X15734828Y30158914D01*
X15812364Y30013855D01*
X15916709Y29886709D01*
X15948579Y29860554D01*
X17795563Y28013568D01*
X17821709Y27981709D01*
X17853568Y27955563D01*
X17853570Y27955561D01*
X17948854Y27877364D01*
X18093913Y27799828D01*
X18251311Y27752082D01*
X18415000Y27735960D01*
X18456018Y27740000D01*
X21811653Y27740000D01*
X21751023Y27679370D01*
X21867296Y27563097D01*
X21623329Y27491514D01*
X21502429Y27236004D01*
X21433700Y26961816D01*
X21419783Y26679488D01*
X21461213Y26399870D01*
X21556397Y26133708D01*
X21623329Y26008486D01*
X21867298Y25936903D01*
X22680395Y26750000D01*
X22666253Y26764142D01*
X22845858Y26943747D01*
X22860000Y26929605D01*
X22874143Y26943747D01*
X23053748Y26764142D01*
X23039605Y26750000D01*
X23852702Y25936903D01*
X24096671Y26008486D01*
X24217571Y26263996D01*
X24286300Y26538184D01*
X24300217Y26820512D01*
X24258787Y27100130D01*
X24257045Y27105000D01*
X24902385Y27105000D01*
X24855764Y26951309D01*
X24828057Y26670000D01*
X24855764Y26388691D01*
X24937818Y26118192D01*
X25071068Y25868899D01*
X25250392Y25650392D01*
X25468899Y25471068D01*
X25596741Y25402735D01*
X25367161Y25252601D01*
X25165500Y25054895D01*
X25006285Y24821646D01*
X24895633Y24561818D01*
X24878096Y24479039D01*
X25000085Y24257000D01*
X26543000Y24257000D01*
X26543000Y24277000D01*
X26797000Y24277000D01*
X26797000Y24257000D01*
X28339915Y24257000D01*
X28461904Y24479039D01*
X28444367Y24561818D01*
X28333715Y24821646D01*
X28174500Y25054895D01*
X27972839Y25252601D01*
X27743259Y25402735D01*
X27871101Y25471068D01*
X28089608Y25650392D01*
X28268932Y25868899D01*
X28402182Y26118192D01*
X28484236Y26388691D01*
X28511943Y26670000D01*
X28491809Y26874423D01*
X28601324Y26801247D01*
X28835179Y26704381D01*
X29083439Y26655000D01*
X29336561Y26655000D01*
X29584821Y26704381D01*
X29818676Y26801247D01*
X30029140Y26941875D01*
X30208125Y27120860D01*
X30348753Y27331324D01*
X30445619Y27565179D01*
X30495000Y27813439D01*
X30495000Y28066561D01*
X30445619Y28314821D01*
X30348753Y28548676D01*
X30208125Y28759140D01*
X30029140Y28938125D01*
X29818676Y29078753D01*
X29584821Y29175619D01*
X29336561Y29225000D01*
X29083439Y29225000D01*
X28835179Y29175619D01*
X28601324Y29078753D01*
X28491809Y29005577D01*
X28511943Y29210000D01*
X28484236Y29491309D01*
X28402182Y29761808D01*
X28268932Y30011101D01*
X28089608Y30229608D01*
X27871101Y30408932D01*
X27738142Y30480000D01*
X27871101Y30551068D01*
X28089608Y30730392D01*
X28268932Y30948899D01*
X28402182Y31198192D01*
X28484236Y31468691D01*
X28511943Y31750000D01*
X28484236Y32031309D01*
X28402182Y32301808D01*
X28268932Y32551101D01*
X28089608Y32769608D01*
X27871101Y32948932D01*
X27738142Y33020000D01*
X27871101Y33091068D01*
X28089608Y33270392D01*
X28268932Y33488899D01*
X28402182Y33738192D01*
X28484236Y34008691D01*
X28511943Y34290000D01*
X28484236Y34571309D01*
X28402182Y34841808D01*
X28268932Y35091101D01*
X28089608Y35309608D01*
X27871101Y35488932D01*
X27738142Y35560000D01*
X27871101Y35631068D01*
X28089608Y35810392D01*
X28241112Y35995000D01*
X36484133Y35995000D01*
X37480558Y34998574D01*
G37*
%TD.AperFunction*%
%TD*%
M02*
