M48
; DRILL file {KiCad (5.1.12)-1} date 04/06/22 13:04:17
; FORMAT={-:-/ absolute / inch / decimal}
; #@! TF.CreationDate,2022-04-06T13:04:17+02:00
; #@! TF.GenerationSoftware,Kicad,Pcbnew,(5.1.12)-1
; #@! TF.FileFunction,Plated,1,2,PTH
FMAT,2
INCH
T1C0.0197
T2C0.0315
T3C0.0374
T4C0.0394
T5C0.0669
%
G90
G05
T1
X1.15Y1.1
X1.15Y0.9
X1.45Y0.525
X1.475Y1.0
X1.475Y0.725
X1.525Y0.8
X1.7Y0.35
X1.825Y1.2
T2
X0.15Y1.275
X0.15Y0.975
X0.15Y0.8
X0.15Y0.5
X0.25Y1.275
X0.25Y0.975
X0.25Y0.8
X0.25Y0.5
X0.35Y1.275
X0.35Y0.975
X0.35Y0.8
X0.35Y0.5
X0.45Y1.275
X0.45Y0.975
X0.45Y0.8
X0.45Y0.5
X0.55Y1.275
X0.55Y0.975
X0.55Y0.8
X0.55Y0.5
X0.65Y1.275
X0.65Y0.975
X0.65Y0.8
X0.65Y0.5
X0.675Y1.7
X0.675Y1.5071
X0.75Y1.275
X0.75Y0.975
X0.75Y0.8
X0.75Y0.5
X0.775Y1.8
X0.775Y1.4
X0.9Y1.75
X0.9Y1.6516
X0.9Y1.25
X0.9Y1.0531
X0.9Y0.6969
X0.9Y0.5
X1.05Y1.75
X1.05Y1.65
X1.05Y1.55
X1.05Y1.45
X1.05Y1.35
X1.05Y1.25
X1.05Y1.15
X1.05Y1.05
X1.05Y0.95
X1.05Y0.85
X1.05Y0.75
X1.05Y0.65
X1.05Y0.55
X1.05Y0.45
X1.65Y1.75
X1.65Y1.65
X1.65Y1.55
X1.65Y1.45
X1.65Y1.35
X1.65Y1.25
X1.65Y1.15
X1.65Y1.05
X1.65Y0.95
X1.65Y0.85
X1.65Y0.75
X1.65Y0.65
X1.65Y0.55
X1.65Y0.45
X1.8Y0.375
X1.89Y1.7634
X1.89Y1.665
X1.89Y1.495
X1.975Y0.8
X1.975Y0.6031
X2.08Y1.7669
X2.08Y1.665
X2.0821Y1.495
X2.1Y0.375
X2.3963Y0.55
X2.475Y0.55
T3
X2.37Y1.275
X2.37Y1.1766
X2.4487Y1.275
X2.4487Y1.1766
T4
X0.7Y0.225
X0.7Y0.125
X0.8Y0.225
X0.8Y0.125
X0.9Y0.225
X0.9Y0.125
X1.0Y0.225
X1.0Y0.125
X1.1Y0.225
X1.1Y0.125
X1.2Y0.225
X1.2Y0.125
X1.3Y0.225
X1.3Y0.125
X1.4Y0.225
X1.4Y0.125
X1.5Y0.225
X1.5Y0.125
X1.6Y0.225
X1.6Y0.125
X1.7Y0.225
X1.7Y0.125
X1.8Y0.225
X1.8Y0.125
X1.9Y0.225
X1.9Y0.125
X2.0Y0.225
X2.0Y0.125
X2.1Y0.225
X2.1Y0.125
X2.2Y0.225
X2.2Y0.125
X2.3Y0.225
X2.3Y0.125
T5
G00X2.5495Y1.462
M15
G01X2.5731Y1.462
M16
G05
G00X2.5495Y0.9896
M15
G01X2.5731Y0.9896
M16
G05
T0
M30
