%TF.GenerationSoftware,KiCad,Pcbnew,(5.1.12)-1*%
%TF.CreationDate,2022-04-06T13:04:15+02:00*%
%TF.ProjectId,ACIA_USB,41434941-5f55-4534-922e-6b696361645f,1.0*%
%TF.SameCoordinates,PX6d01460PY60e4b00*%
%TF.FileFunction,Copper,L2,Bot*%
%TF.FilePolarity,Positive*%
%FSLAX46Y46*%
G04 Gerber Fmt 4.6, Leading zero omitted, Abs format (unit mm)*
G04 Created by KiCad (PCBNEW (5.1.12)-1) date 2022-04-06 13:04:15*
%MOMM*%
%LPD*%
G01*
G04 APERTURE LIST*
%TA.AperFunction,ComponentPad*%
%ADD10C,1.600000*%
%TD*%
%TA.AperFunction,ComponentPad*%
%ADD11C,1.500000*%
%TD*%
%TA.AperFunction,ComponentPad*%
%ADD12C,4.000000*%
%TD*%
%TA.AperFunction,ComponentPad*%
%ADD13R,1.600000X1.600000*%
%TD*%
%TA.AperFunction,ComponentPad*%
%ADD14O,1.600000X1.600000*%
%TD*%
%TA.AperFunction,ComponentPad*%
%ADD15O,1.600000X2.400000*%
%TD*%
%TA.AperFunction,ComponentPad*%
%ADD16R,1.600000X2.400000*%
%TD*%
%TA.AperFunction,ComponentPad*%
%ADD17O,2.400000X1.600000*%
%TD*%
%TA.AperFunction,ComponentPad*%
%ADD18R,2.400000X1.600000*%
%TD*%
%TA.AperFunction,ComponentPad*%
%ADD19C,1.700000*%
%TD*%
%TA.AperFunction,ViaPad*%
%ADD20C,1.300000*%
%TD*%
%TA.AperFunction,Conductor*%
%ADD21C,0.800000*%
%TD*%
%TA.AperFunction,Conductor*%
%ADD22C,0.400000*%
%TD*%
%TA.AperFunction,Conductor*%
%ADD23C,0.600000*%
%TD*%
%TA.AperFunction,Conductor*%
%ADD24C,0.254000*%
%TD*%
%TA.AperFunction,Conductor*%
%ADD25C,0.100000*%
%TD*%
G04 APERTURE END LIST*
D10*
%TO.P,C7,2*%
%TO.N,GND*%
X50165000Y15320000D03*
%TO.P,C7,1*%
%TO.N,VCC*%
X50165000Y20320000D03*
%TD*%
D11*
%TO.P,Y2,2*%
%TO.N,Net-(C6-Pad2)*%
X52886000Y37973000D03*
%TO.P,Y2,1*%
%TO.N,Net-(C4-Pad2)*%
X48006000Y37973000D03*
%TD*%
D12*
%TO.P,J2,5*%
%TO.N,GND*%
X65058000Y37135000D03*
X65058000Y25135000D03*
D10*
%TO.P,J2,4*%
X62198000Y32385000D03*
%TO.P,J2,3*%
%TO.N,Net-(J2-Pad3)*%
X62198000Y29885000D03*
%TO.P,J2,2*%
%TO.N,Net-(J2-Pad2)*%
X60198000Y29885000D03*
D13*
%TO.P,J2,1*%
%TO.N,Net-(J2-Pad1)*%
X60198000Y32385000D03*
%TD*%
D10*
%TO.P,C6,2*%
%TO.N,Net-(C6-Pad2)*%
X52832000Y42291000D03*
%TO.P,C6,1*%
%TO.N,GND*%
X52832000Y44878000D03*
%TD*%
%TO.P,C4,2*%
%TO.N,Net-(C4-Pad2)*%
X48006000Y42291000D03*
%TO.P,C4,1*%
%TO.N,GND*%
X48006000Y44791000D03*
%TD*%
D14*
%TO.P,R1,2*%
%TO.N,Net-(C8-Pad2)*%
X19685000Y45720000D03*
D10*
%TO.P,R1,1*%
%TO.N,Net-(R1-Pad1)*%
X19685000Y35560000D03*
%TD*%
D11*
%TO.P,Y1,2*%
%TO.N,Net-(R1-Pad1)*%
X17145000Y38280000D03*
%TO.P,Y1,1*%
%TO.N,Net-(C8-Pad2)*%
X17145000Y43180000D03*
%TD*%
D10*
%TO.P,C8,2*%
%TO.N,Net-(C8-Pad2)*%
X22860000Y41950000D03*
%TO.P,C8,1*%
%TO.N,GND*%
X22860000Y44450000D03*
%TD*%
D15*
%TO.P,U2,14*%
%TO.N,VCC*%
X3810000Y32385000D03*
%TO.P,U2,7*%
%TO.N,GND*%
X19050000Y24765000D03*
%TO.P,U2,13*%
%TO.N,N/C*%
X6350000Y32385000D03*
%TO.P,U2,6*%
%TO.N,Net-(U2-Pad6)*%
X16510000Y24765000D03*
%TO.P,U2,12*%
%TO.N,N/C*%
X8890000Y32385000D03*
%TO.P,U2,5*%
%TO.N,/A6*%
X13970000Y24765000D03*
%TO.P,U2,11*%
%TO.N,N/C*%
X11430000Y32385000D03*
%TO.P,U2,4*%
%TO.N,Net-(U2-Pad4)*%
X11430000Y24765000D03*
%TO.P,U2,10*%
%TO.N,N/C*%
X13970000Y32385000D03*
%TO.P,U2,3*%
%TO.N,/~IO*%
X8890000Y24765000D03*
%TO.P,U2,9*%
%TO.N,/A5*%
X16510000Y32385000D03*
%TO.P,U2,2*%
%TO.N,Net-(U2-Pad2)*%
X6350000Y24765000D03*
%TO.P,U2,8*%
%TO.N,Net-(U2-Pad8)*%
X19050000Y32385000D03*
D16*
%TO.P,U2,1*%
%TO.N,/A7*%
X3810000Y24765000D03*
%TD*%
D17*
%TO.P,U1,28*%
%TO.N,/R_~W*%
X41910000Y44450000D03*
%TO.P,U1,14*%
%TO.N,/A1*%
X26670000Y11430000D03*
%TO.P,U1,27*%
%TO.N,/PHI2*%
X41910000Y41910000D03*
%TO.P,U1,13*%
%TO.N,/A0*%
X26670000Y13970000D03*
%TO.P,U1,26*%
%TO.N,Net-(U1-Pad26)*%
X41910000Y39370000D03*
%TO.P,U1,12*%
%TO.N,Net-(U1-Pad12)*%
X26670000Y16510000D03*
%TO.P,U1,25*%
%TO.N,/D7*%
X41910000Y36830000D03*
%TO.P,U1,11*%
%TO.N,Net-(U1-Pad11)*%
X26670000Y19050000D03*
%TO.P,U1,24*%
%TO.N,/D6*%
X41910000Y34290000D03*
%TO.P,U1,10*%
%TO.N,Net-(U1-Pad10)*%
X26670000Y21590000D03*
%TO.P,U1,23*%
%TO.N,/D5*%
X41910000Y31750000D03*
%TO.P,U1,9*%
%TO.N,GND*%
X26670000Y24130000D03*
%TO.P,U1,22*%
%TO.N,/D4*%
X41910000Y29210000D03*
%TO.P,U1,8*%
%TO.N,Net-(U1-Pad8)*%
X26670000Y26670000D03*
%TO.P,U1,21*%
%TO.N,/D3*%
X41910000Y26670000D03*
%TO.P,U1,7*%
%TO.N,Net-(R1-Pad1)*%
X26670000Y29210000D03*
%TO.P,U1,20*%
%TO.N,/D2*%
X41910000Y24130000D03*
%TO.P,U1,6*%
%TO.N,Net-(C8-Pad2)*%
X26670000Y31750000D03*
%TO.P,U1,19*%
%TO.N,/D1*%
X41910000Y21590000D03*
%TO.P,U1,5*%
%TO.N,Net-(U1-Pad5)*%
X26670000Y34290000D03*
%TO.P,U1,18*%
%TO.N,/D0*%
X41910000Y19050000D03*
%TO.P,U1,4*%
%TO.N,/~RESET*%
X26670000Y36830000D03*
%TO.P,U1,17*%
%TO.N,Net-(U1-Pad11)*%
X41910000Y16510000D03*
%TO.P,U1,3*%
%TO.N,Net-(D1-Pad1)*%
X26670000Y39370000D03*
%TO.P,U1,16*%
%TO.N,Net-(U1-Pad11)*%
X41910000Y13970000D03*
%TO.P,U1,2*%
%TO.N,VCC*%
X26670000Y41910000D03*
%TO.P,U1,15*%
X41910000Y11430000D03*
D18*
%TO.P,U1,1*%
%TO.N,GND*%
X26670000Y44450000D03*
%TD*%
D19*
%TO.P,J1,34*%
%TO.N,GND*%
X17780000Y3175000D03*
%TO.P,J1,32*%
%TO.N,/A11*%
X20320000Y3175000D03*
%TO.P,J1,30*%
%TO.N,/A12*%
X22860000Y3175000D03*
%TO.P,J1,28*%
%TO.N,/A13*%
X25400000Y3175000D03*
%TO.P,J1,26*%
%TO.N,/A14*%
X27940000Y3175000D03*
%TO.P,J1,24*%
%TO.N,/A15*%
X30480000Y3175000D03*
%TO.P,J1,22*%
%TO.N,/D7*%
X33020000Y3175000D03*
%TO.P,J1,20*%
%TO.N,/A4*%
X35560000Y3175000D03*
%TO.P,J1,18*%
%TO.N,/D4*%
X38100000Y3175000D03*
%TO.P,J1,16*%
%TO.N,/D3*%
X40640000Y3175000D03*
%TO.P,J1,14*%
%TO.N,/D6*%
X43180000Y3175000D03*
%TO.P,J1,12*%
%TO.N,/D1*%
X45720000Y3175000D03*
%TO.P,J1,10*%
%TO.N,/D0*%
X48260000Y3175000D03*
%TO.P,J1,8*%
%TO.N,/~IRQ*%
X50800000Y3175000D03*
%TO.P,J1,6*%
%TO.N,/~IOCTRL*%
X53340000Y3175000D03*
%TO.P,J1,4*%
%TO.N,/~RESET*%
X55880000Y3175000D03*
%TO.P,J1,2*%
%TO.N,/~ROMDIS*%
X58420000Y3175000D03*
%TO.P,J1,33*%
%TO.N,VCC*%
X17780000Y5715000D03*
%TO.P,J1,31*%
%TO.N,/A10*%
X20320000Y5715000D03*
%TO.P,J1,29*%
%TO.N,/A9*%
X22860000Y5715000D03*
%TO.P,J1,27*%
%TO.N,/A8*%
X25400000Y5715000D03*
%TO.P,J1,25*%
%TO.N,/A7*%
X27940000Y5715000D03*
%TO.P,J1,23*%
%TO.N,/A6*%
X30480000Y5715000D03*
%TO.P,J1,21*%
%TO.N,/A5*%
X33020000Y5715000D03*
%TO.P,J1,19*%
%TO.N,/D5*%
X35560000Y5715000D03*
%TO.P,J1,17*%
%TO.N,/A2*%
X38100000Y5715000D03*
%TO.P,J1,15*%
%TO.N,/A1*%
X40640000Y5715000D03*
%TO.P,J1,13*%
%TO.N,/A0*%
X43180000Y5715000D03*
%TO.P,J1,11*%
%TO.N,/A3*%
X45720000Y5715000D03*
%TO.P,J1,9*%
%TO.N,/D2*%
X48260000Y5715000D03*
%TO.P,J1,7*%
%TO.N,/R_~W*%
X50800000Y5715000D03*
%TO.P,J1,5*%
%TO.N,/~IO*%
X53340000Y5715000D03*
%TO.P,J1,3*%
%TO.N,/PHI2*%
X55880000Y5715000D03*
%TO.P,J1,1*%
%TO.N,/~MAP*%
%TA.AperFunction,ComponentPad*%
G36*
G01*
X57820000Y6565000D02*
X59020000Y6565000D01*
G75*
G02*
X59270000Y6315000I0J-250000D01*
G01*
X59270000Y5115000D01*
G75*
G02*
X59020000Y4865000I-250000J0D01*
G01*
X57820000Y4865000D01*
G75*
G02*
X57570000Y5115000I0J250000D01*
G01*
X57570000Y6315000D01*
G75*
G02*
X57820000Y6565000I250000J0D01*
G01*
G37*
%TD.AperFunction*%
%TD*%
D14*
%TO.P,D1,2*%
%TO.N,/~IOCTRL*%
X53340000Y9525000D03*
D13*
%TO.P,D1,1*%
%TO.N,Net-(D1-Pad1)*%
X45720000Y9525000D03*
%TD*%
D10*
%TO.P,C3,2*%
%TO.N,VCC*%
X22860000Y17700000D03*
%TO.P,C3,1*%
%TO.N,GND*%
X22860000Y12700000D03*
%TD*%
%TO.P,C2,2*%
%TO.N,VCC*%
X22860000Y31750000D03*
%TO.P,C2,1*%
%TO.N,GND*%
X22860000Y26750000D03*
%TD*%
D15*
%TO.P,U3,14*%
%TO.N,VCC*%
X3810000Y20320000D03*
%TO.P,U3,7*%
%TO.N,GND*%
X19050000Y12700000D03*
%TO.P,U3,13*%
%TO.N,N/C*%
X6350000Y20320000D03*
%TO.P,U3,6*%
%TO.N,/A3*%
X16510000Y12700000D03*
%TO.P,U3,12*%
%TO.N,VCC*%
X8890000Y20320000D03*
%TO.P,U3,5*%
%TO.N,/A2*%
X13970000Y12700000D03*
%TO.P,U3,11*%
%TO.N,Net-(U2-Pad4)*%
X11430000Y20320000D03*
%TO.P,U3,4*%
%TO.N,/A4*%
X11430000Y12700000D03*
%TO.P,U3,10*%
%TO.N,N/C*%
X13970000Y20320000D03*
%TO.P,U3,3*%
%TO.N,Net-(U2-Pad8)*%
X8890000Y12700000D03*
%TO.P,U3,9*%
%TO.N,N/C*%
X16510000Y20320000D03*
%TO.P,U3,2*%
%TO.N,Net-(U2-Pad6)*%
X6350000Y12700000D03*
%TO.P,U3,8*%
%TO.N,Net-(D1-Pad1)*%
X19050000Y20320000D03*
D16*
%TO.P,U3,1*%
%TO.N,Net-(U2-Pad2)*%
X3810000Y12700000D03*
%TD*%
D10*
%TO.P,C1,2*%
%TO.N,GND*%
X60865000Y13970000D03*
D13*
%TO.P,C1,1*%
%TO.N,VCC*%
X62865000Y13970000D03*
%TD*%
D20*
%TO.N,/~RESET*%
X46355000Y30480000D03*
%TO.N,/D6*%
X37465000Y25400000D03*
%TO.N,/A0*%
X43180000Y8890000D03*
%TO.N,/A1*%
X36830000Y13335000D03*
%TO.N,/A5*%
X29210000Y27940000D03*
%TO.N,/A6*%
X29210000Y22860000D03*
%TO.N,Net-(D1-Pad1)*%
X38735000Y20320000D03*
%TO.N,Net-(U1-Pad11)*%
X37465000Y18415000D03*
%TD*%
D21*
%TO.N,VCC*%
X22860000Y17700000D02*
X10240000Y17700000D01*
X8890000Y19050000D02*
X8890000Y20320000D01*
X10240000Y17700000D02*
X8890000Y19050000D01*
X3810000Y32385000D02*
X3810000Y31115000D01*
X3810000Y31115000D02*
X5080000Y29845000D01*
X20955000Y29845000D02*
X22860000Y31750000D01*
X5080000Y29845000D02*
X20955000Y29845000D01*
X26670000Y41910000D02*
X26035000Y41910000D01*
X22860000Y38735000D02*
X22860000Y31750000D01*
X26035000Y41910000D02*
X22860000Y38735000D01*
D22*
%TO.N,/~RESET*%
X57150000Y4445000D02*
X55880000Y3175000D01*
X57150000Y15240000D02*
X57150000Y4445000D01*
X53340000Y19050000D02*
X57150000Y15240000D01*
X53340000Y24765000D02*
X53340000Y19050000D01*
X52705000Y25400000D02*
X53340000Y24765000D01*
X47625000Y25400000D02*
X52705000Y25400000D01*
X46355000Y26670000D02*
X47625000Y25400000D01*
X46355000Y30480000D02*
X46355000Y26670000D01*
%TO.N,/D0*%
X46990000Y4445000D02*
X48260000Y3175000D01*
X44450000Y19050000D02*
X45085000Y18415000D01*
X41910000Y19050000D02*
X44450000Y19050000D01*
X46990000Y12065000D02*
X45085000Y13970000D01*
X46990000Y4445000D02*
X46990000Y12065000D01*
X45085000Y18415000D02*
X45085000Y13970000D01*
%TO.N,/D1*%
X44450000Y4445000D02*
X45720000Y3175000D01*
X43815000Y12700000D02*
X44450000Y12065000D01*
X40640000Y12700000D02*
X43815000Y12700000D01*
X36195000Y17145000D02*
X40640000Y12700000D01*
X36195000Y20955000D02*
X36195000Y17145000D01*
X36830000Y21590000D02*
X36195000Y20955000D01*
X44450000Y12065000D02*
X44450000Y4445000D01*
X41910000Y21590000D02*
X36830000Y21590000D01*
%TO.N,/D2*%
X43815000Y24130000D02*
X41910000Y24130000D01*
X45720000Y22225000D02*
X43815000Y24130000D01*
X45720000Y14605000D02*
X45720000Y22225000D01*
X48260000Y12065000D02*
X45720000Y14605000D01*
X48260000Y5715000D02*
X48260000Y12065000D01*
%TO.N,/D3*%
X39370000Y4445000D02*
X40640000Y3175000D01*
X39370000Y6985000D02*
X39370000Y4445000D01*
X37465000Y10795000D02*
X37465000Y8890000D01*
X34925000Y25400000D02*
X34925000Y13335000D01*
X34925000Y13335000D02*
X37465000Y10795000D01*
X36195000Y26670000D02*
X34925000Y25400000D01*
X37465000Y8890000D02*
X39370000Y6985000D01*
X41910000Y26670000D02*
X36195000Y26670000D01*
%TO.N,/D4*%
X36195000Y29210000D02*
X41910000Y29210000D01*
X34290000Y27305000D02*
X36195000Y29210000D01*
X34290000Y12065000D02*
X34290000Y27305000D01*
X36830000Y9525000D02*
X34290000Y12065000D01*
X36830000Y4445000D02*
X36830000Y9525000D01*
X38100000Y3175000D02*
X36830000Y4445000D01*
%TO.N,/D5*%
X35560000Y5715000D02*
X35560000Y9525000D01*
X35560000Y9525000D02*
X33020000Y12065000D01*
X33020000Y12065000D02*
X33020000Y29210000D01*
X35560000Y31750000D02*
X41910000Y31750000D01*
X33020000Y29210000D02*
X35560000Y31750000D01*
%TO.N,/D6*%
X35560000Y23495000D02*
X37465000Y25400000D01*
X35560000Y16510000D02*
X35560000Y23495000D01*
X39370000Y12700000D02*
X35560000Y16510000D01*
X39370000Y10795000D02*
X39370000Y12700000D01*
X41910000Y8255000D02*
X39370000Y10795000D01*
X41910000Y4445000D02*
X41910000Y8255000D01*
X43180000Y3175000D02*
X41910000Y4445000D01*
%TO.N,/D7*%
X34290000Y36830000D02*
X41910000Y36830000D01*
X31750000Y34290000D02*
X34290000Y36830000D01*
X34290000Y9525000D02*
X31750000Y12065000D01*
X34290000Y4445000D02*
X34290000Y9525000D01*
X31750000Y12065000D02*
X31750000Y34290000D01*
X33020000Y3175000D02*
X34290000Y4445000D01*
%TO.N,/A0*%
X43180000Y8890000D02*
X43180000Y5715000D01*
%TO.N,/A1*%
X40640000Y7620000D02*
X40640000Y5715000D01*
X38100000Y10160000D02*
X40640000Y7620000D01*
X38100000Y12065000D02*
X38100000Y10160000D01*
X36830000Y13335000D02*
X38100000Y12065000D01*
%TO.N,/A5*%
X29210000Y27940000D02*
X29210000Y25400000D01*
X29210000Y25400000D02*
X30480000Y24130000D01*
X30480000Y11430000D02*
X33020000Y8890000D01*
X30480000Y24130000D02*
X30480000Y11430000D01*
X33020000Y8890000D02*
X33020000Y5715000D01*
%TO.N,/A6*%
X29210000Y10160000D02*
X30480000Y8890000D01*
X29210000Y22860000D02*
X29210000Y10160000D01*
X30480000Y5715000D02*
X30480000Y8890000D01*
%TO.N,/A7*%
X3810000Y23495000D02*
X3810000Y24765000D01*
X5080000Y22225000D02*
X3810000Y23495000D01*
X27940000Y5715000D02*
X27940000Y6985000D01*
X27940000Y6985000D02*
X27305000Y7620000D01*
X10160000Y14605000D02*
X10160000Y11430000D01*
X27305000Y7620000D02*
X22860000Y7620000D01*
X22860000Y7620000D02*
X20955000Y9525000D01*
X20955000Y9525000D02*
X20955000Y14605000D01*
X20955000Y14605000D02*
X19685000Y15875000D01*
X19685000Y15875000D02*
X11430000Y15875000D01*
X11430000Y15875000D02*
X10160000Y14605000D01*
X10160000Y11430000D02*
X8890000Y10160000D01*
X8890000Y10160000D02*
X5715000Y10160000D01*
X5715000Y10160000D02*
X5080000Y10795000D01*
X5080000Y10795000D02*
X5080000Y22225000D01*
D23*
%TO.N,Net-(C4-Pad2)*%
X48006000Y42291000D02*
X48006000Y37973000D01*
%TO.N,Net-(C6-Pad2)*%
X52832000Y38027000D02*
X52886000Y37973000D01*
X52832000Y42291000D02*
X52832000Y38027000D01*
D22*
%TO.N,/~IOCTRL*%
X53340000Y9525000D02*
X53340000Y8890000D01*
X53340000Y8890000D02*
X54610000Y7620000D01*
X54610000Y4445000D02*
X53340000Y3175000D01*
X54610000Y7620000D02*
X54610000Y4445000D01*
%TO.N,Net-(D1-Pad1)*%
X21590000Y22860000D02*
X19050000Y20320000D01*
X24765000Y37465000D02*
X26670000Y39370000D01*
X23495000Y22860000D02*
X24765000Y24130000D01*
X24765000Y24130000D02*
X24765000Y37465000D01*
X23495000Y22860000D02*
X21590000Y22860000D01*
X38735000Y20320000D02*
X38735000Y19050000D01*
X38735000Y19050000D02*
X40005000Y17780000D01*
X40005000Y17780000D02*
X43180000Y17780000D01*
X43180000Y17780000D02*
X43815000Y17145000D01*
X43815000Y17145000D02*
X43815000Y13970000D01*
X43815000Y13970000D02*
X45720000Y12065000D01*
X45720000Y12065000D02*
X45720000Y9525000D01*
%TO.N,/R_~W*%
X40005000Y44450000D02*
X41910000Y44450000D01*
X39370000Y43815000D02*
X40005000Y44450000D01*
X39370000Y41910000D02*
X39370000Y43815000D01*
X44450000Y24765000D02*
X44450000Y40005000D01*
X40640000Y40640000D02*
X39370000Y41910000D01*
X46355000Y22860000D02*
X44450000Y24765000D01*
X44450000Y40005000D02*
X43815000Y40640000D01*
X46355000Y15240000D02*
X46355000Y22860000D01*
X43815000Y40640000D02*
X40640000Y40640000D01*
X50800000Y10795000D02*
X46355000Y15240000D01*
X50800000Y5715000D02*
X50800000Y10795000D01*
%TO.N,/PHI2*%
X44450000Y41910000D02*
X41910000Y41910000D01*
X45085000Y41275000D02*
X44450000Y41910000D01*
X47625000Y15240000D02*
X47625000Y22860000D01*
X51435000Y11430000D02*
X47625000Y15240000D01*
X53975000Y11430000D02*
X51435000Y11430000D01*
X47625000Y22860000D02*
X45085000Y25400000D01*
X55880000Y9525000D02*
X53975000Y11430000D01*
X45085000Y25400000D02*
X45085000Y41275000D01*
X55880000Y5715000D02*
X55880000Y9525000D01*
%TO.N,Net-(U2-Pad6)*%
X6350000Y12700000D02*
X6350000Y16510000D01*
X6350000Y16510000D02*
X7620000Y17780000D01*
X7620000Y17780000D02*
X7620000Y26670000D01*
X7620000Y26670000D02*
X8255000Y27305000D01*
X8255000Y27305000D02*
X15875000Y27305000D01*
X16510000Y26670000D02*
X16510000Y24765000D01*
X15875000Y27305000D02*
X16510000Y26670000D01*
%TO.N,Net-(U2-Pad2)*%
X6350000Y24765000D02*
X6350000Y26035000D01*
X6350000Y26035000D02*
X5080000Y27305000D01*
X5080000Y27305000D02*
X2540000Y27305000D01*
X2540000Y27305000D02*
X1905000Y26670000D01*
X1905000Y14605000D02*
X3810000Y12700000D01*
X1905000Y26670000D02*
X1905000Y14605000D01*
D23*
%TO.N,Net-(U1-Pad11)*%
X41910000Y16510000D02*
X41910000Y13970000D01*
X39370000Y16510000D02*
X37465000Y18415000D01*
X41910000Y16510000D02*
X39370000Y16510000D01*
D22*
%TO.N,Net-(U2-Pad4)*%
X11430000Y24765000D02*
X11430000Y20320000D01*
D23*
%TO.N,Net-(C8-Pad2)*%
X17145000Y43180000D02*
X19050000Y43180000D01*
X19685000Y43815000D02*
X19685000Y45720000D01*
X19050000Y43180000D02*
X19685000Y43815000D01*
X22860000Y41950000D02*
X20915000Y41950000D01*
X19685000Y43180000D02*
X17145000Y43180000D01*
X20915000Y41950000D02*
X19685000Y43180000D01*
X19685000Y45720000D02*
X19685000Y43180000D01*
%TO.N,Net-(R1-Pad1)*%
X17145000Y38280000D02*
X18235000Y38280000D01*
X19685000Y36830000D02*
X19685000Y35560000D01*
X18235000Y38280000D02*
X19685000Y36830000D01*
%TD*%
D24*
%TO.N,GND*%
X75540000Y660000D02*
X660000Y660000D01*
X660000Y2146603D01*
X16931208Y2146603D01*
X17008843Y1897528D01*
X17272883Y1771629D01*
X17556411Y1699661D01*
X17848531Y1684389D01*
X18138019Y1726401D01*
X18413747Y1824081D01*
X18551157Y1897528D01*
X18628792Y2146603D01*
X17780000Y2995395D01*
X16931208Y2146603D01*
X660000Y2146603D01*
X660000Y3106469D01*
X16289389Y3106469D01*
X16331401Y2816981D01*
X16429081Y2541253D01*
X16502528Y2403843D01*
X16751603Y2326208D01*
X17600395Y3175000D01*
X16751603Y4023792D01*
X16502528Y3946157D01*
X16376629Y3682117D01*
X16304661Y3398589D01*
X16289389Y3106469D01*
X660000Y3106469D01*
X660000Y26670000D01*
X1065960Y26670000D01*
X1070000Y26628981D01*
X1070001Y14646029D01*
X1065960Y14605000D01*
X1082082Y14441312D01*
X1129828Y14283914D01*
X1207364Y14138855D01*
X1217668Y14126300D01*
X1311710Y14011709D01*
X1343574Y13985559D01*
X2371928Y12957204D01*
X2371928Y11500000D01*
X2384188Y11375518D01*
X2420498Y11255820D01*
X2479463Y11145506D01*
X2558815Y11048815D01*
X2655506Y10969463D01*
X2765820Y10910498D01*
X2885518Y10874188D01*
X3010000Y10861928D01*
X4245000Y10861928D01*
X4245000Y10836019D01*
X4240960Y10795000D01*
X4245000Y10753982D01*
X4257082Y10631312D01*
X4304828Y10473914D01*
X4382364Y10328855D01*
X4486709Y10201709D01*
X4518578Y10175555D01*
X5095562Y9598569D01*
X5121709Y9566709D01*
X5153568Y9540563D01*
X5153570Y9540561D01*
X5248854Y9462364D01*
X5393913Y9384828D01*
X5551311Y9337082D01*
X5673981Y9325000D01*
X5673982Y9325000D01*
X5715000Y9320960D01*
X5756018Y9325000D01*
X8848982Y9325000D01*
X8890000Y9320960D01*
X8931018Y9325000D01*
X8931019Y9325000D01*
X9053689Y9337082D01*
X9211087Y9384828D01*
X9356146Y9462364D01*
X9483291Y9566709D01*
X9509446Y9598579D01*
X10721426Y10810558D01*
X10753291Y10836709D01*
X10857636Y10963854D01*
X10863852Y10975483D01*
X10878193Y10967818D01*
X11148692Y10885764D01*
X11430000Y10858057D01*
X11711309Y10885764D01*
X11981808Y10967818D01*
X12231101Y11101068D01*
X12449608Y11280392D01*
X12628932Y11498899D01*
X12700000Y11631858D01*
X12771068Y11498899D01*
X12950393Y11280392D01*
X13168900Y11101068D01*
X13418193Y10967818D01*
X13688692Y10885764D01*
X13970000Y10858057D01*
X14251309Y10885764D01*
X14521808Y10967818D01*
X14771101Y11101068D01*
X14989608Y11280392D01*
X15168932Y11498899D01*
X15240000Y11631858D01*
X15311068Y11498899D01*
X15490393Y11280392D01*
X15708900Y11101068D01*
X15958193Y10967818D01*
X16228692Y10885764D01*
X16510000Y10858057D01*
X16791309Y10885764D01*
X17061808Y10967818D01*
X17311101Y11101068D01*
X17529608Y11280392D01*
X17708932Y11498899D01*
X17777265Y11626741D01*
X17927399Y11397161D01*
X18125105Y11195500D01*
X18358354Y11036285D01*
X18618182Y10925633D01*
X18700961Y10908096D01*
X18923000Y11030085D01*
X18923000Y12573000D01*
X18903000Y12573000D01*
X18903000Y12827000D01*
X18923000Y12827000D01*
X18923000Y14369915D01*
X18700961Y14491904D01*
X18618182Y14474367D01*
X18358354Y14363715D01*
X18125105Y14204500D01*
X17927399Y14002839D01*
X17777265Y13773259D01*
X17708932Y13901101D01*
X17529607Y14119608D01*
X17311100Y14298932D01*
X17061807Y14432182D01*
X16791308Y14514236D01*
X16510000Y14541943D01*
X16228691Y14514236D01*
X15958192Y14432182D01*
X15708899Y14298932D01*
X15490392Y14119607D01*
X15311068Y13901100D01*
X15240000Y13768142D01*
X15168932Y13901101D01*
X14989607Y14119608D01*
X14771100Y14298932D01*
X14521807Y14432182D01*
X14251308Y14514236D01*
X13970000Y14541943D01*
X13688691Y14514236D01*
X13418192Y14432182D01*
X13168899Y14298932D01*
X12950392Y14119607D01*
X12771068Y13901100D01*
X12700000Y13768142D01*
X12628932Y13901101D01*
X12449607Y14119608D01*
X12231100Y14298932D01*
X11981807Y14432182D01*
X11711308Y14514236D01*
X11430000Y14541943D01*
X11261183Y14525316D01*
X11775868Y15040000D01*
X19339133Y15040000D01*
X20120001Y14259131D01*
X20120001Y14056491D01*
X19974895Y14204500D01*
X19741646Y14363715D01*
X19481818Y14474367D01*
X19399039Y14491904D01*
X19177000Y14369915D01*
X19177000Y12827000D01*
X19197000Y12827000D01*
X19197000Y12573000D01*
X19177000Y12573000D01*
X19177000Y11030085D01*
X19399039Y10908096D01*
X19481818Y10925633D01*
X19741646Y11036285D01*
X19974895Y11195500D01*
X20120000Y11343508D01*
X20120000Y9566019D01*
X20115960Y9525000D01*
X20120000Y9483982D01*
X20132082Y9361312D01*
X20179828Y9203914D01*
X20257364Y9058855D01*
X20361709Y8931709D01*
X20393579Y8905554D01*
X22235468Y7063663D01*
X22156589Y7030990D01*
X21913368Y6868475D01*
X21706525Y6661632D01*
X21590000Y6487240D01*
X21473475Y6661632D01*
X21266632Y6868475D01*
X21023411Y7030990D01*
X20753158Y7142932D01*
X20466260Y7200000D01*
X20173740Y7200000D01*
X19886842Y7142932D01*
X19616589Y7030990D01*
X19373368Y6868475D01*
X19166525Y6661632D01*
X19050000Y6487240D01*
X18933475Y6661632D01*
X18726632Y6868475D01*
X18483411Y7030990D01*
X18213158Y7142932D01*
X17926260Y7200000D01*
X17633740Y7200000D01*
X17346842Y7142932D01*
X17076589Y7030990D01*
X16833368Y6868475D01*
X16626525Y6661632D01*
X16464010Y6418411D01*
X16352068Y6148158D01*
X16295000Y5861260D01*
X16295000Y5568740D01*
X16352068Y5281842D01*
X16464010Y5011589D01*
X16626525Y4768368D01*
X16833368Y4561525D01*
X17006729Y4445689D01*
X16931208Y4203397D01*
X17780000Y3354605D01*
X18628792Y4203397D01*
X18553271Y4445689D01*
X18726632Y4561525D01*
X18933475Y4768368D01*
X19050000Y4942760D01*
X19166525Y4768368D01*
X19373368Y4561525D01*
X19547760Y4445000D01*
X19373368Y4328475D01*
X19166525Y4121632D01*
X19050689Y3948271D01*
X18808397Y4023792D01*
X17959605Y3175000D01*
X18808397Y2326208D01*
X19050689Y2401729D01*
X19166525Y2228368D01*
X19373368Y2021525D01*
X19616589Y1859010D01*
X19886842Y1747068D01*
X20173740Y1690000D01*
X20466260Y1690000D01*
X20753158Y1747068D01*
X21023411Y1859010D01*
X21266632Y2021525D01*
X21473475Y2228368D01*
X21590000Y2402760D01*
X21706525Y2228368D01*
X21913368Y2021525D01*
X22156589Y1859010D01*
X22426842Y1747068D01*
X22713740Y1690000D01*
X23006260Y1690000D01*
X23293158Y1747068D01*
X23563411Y1859010D01*
X23806632Y2021525D01*
X24013475Y2228368D01*
X24130000Y2402760D01*
X24246525Y2228368D01*
X24453368Y2021525D01*
X24696589Y1859010D01*
X24966842Y1747068D01*
X25253740Y1690000D01*
X25546260Y1690000D01*
X25833158Y1747068D01*
X26103411Y1859010D01*
X26346632Y2021525D01*
X26553475Y2228368D01*
X26670000Y2402760D01*
X26786525Y2228368D01*
X26993368Y2021525D01*
X27236589Y1859010D01*
X27506842Y1747068D01*
X27793740Y1690000D01*
X28086260Y1690000D01*
X28373158Y1747068D01*
X28643411Y1859010D01*
X28886632Y2021525D01*
X29093475Y2228368D01*
X29210000Y2402760D01*
X29326525Y2228368D01*
X29533368Y2021525D01*
X29776589Y1859010D01*
X30046842Y1747068D01*
X30333740Y1690000D01*
X30626260Y1690000D01*
X30913158Y1747068D01*
X31183411Y1859010D01*
X31426632Y2021525D01*
X31633475Y2228368D01*
X31750000Y2402760D01*
X31866525Y2228368D01*
X32073368Y2021525D01*
X32316589Y1859010D01*
X32586842Y1747068D01*
X32873740Y1690000D01*
X33166260Y1690000D01*
X33453158Y1747068D01*
X33723411Y1859010D01*
X33966632Y2021525D01*
X34173475Y2228368D01*
X34290000Y2402760D01*
X34406525Y2228368D01*
X34613368Y2021525D01*
X34856589Y1859010D01*
X35126842Y1747068D01*
X35413740Y1690000D01*
X35706260Y1690000D01*
X35993158Y1747068D01*
X36263411Y1859010D01*
X36506632Y2021525D01*
X36713475Y2228368D01*
X36830000Y2402760D01*
X36946525Y2228368D01*
X37153368Y2021525D01*
X37396589Y1859010D01*
X37666842Y1747068D01*
X37953740Y1690000D01*
X38246260Y1690000D01*
X38533158Y1747068D01*
X38803411Y1859010D01*
X39046632Y2021525D01*
X39253475Y2228368D01*
X39370000Y2402760D01*
X39486525Y2228368D01*
X39693368Y2021525D01*
X39936589Y1859010D01*
X40206842Y1747068D01*
X40493740Y1690000D01*
X40786260Y1690000D01*
X41073158Y1747068D01*
X41343411Y1859010D01*
X41586632Y2021525D01*
X41793475Y2228368D01*
X41910000Y2402760D01*
X42026525Y2228368D01*
X42233368Y2021525D01*
X42476589Y1859010D01*
X42746842Y1747068D01*
X43033740Y1690000D01*
X43326260Y1690000D01*
X43613158Y1747068D01*
X43883411Y1859010D01*
X44126632Y2021525D01*
X44333475Y2228368D01*
X44450000Y2402760D01*
X44566525Y2228368D01*
X44773368Y2021525D01*
X45016589Y1859010D01*
X45286842Y1747068D01*
X45573740Y1690000D01*
X45866260Y1690000D01*
X46153158Y1747068D01*
X46423411Y1859010D01*
X46666632Y2021525D01*
X46873475Y2228368D01*
X46990000Y2402760D01*
X47106525Y2228368D01*
X47313368Y2021525D01*
X47556589Y1859010D01*
X47826842Y1747068D01*
X48113740Y1690000D01*
X48406260Y1690000D01*
X48693158Y1747068D01*
X48963411Y1859010D01*
X49206632Y2021525D01*
X49413475Y2228368D01*
X49530000Y2402760D01*
X49646525Y2228368D01*
X49853368Y2021525D01*
X50096589Y1859010D01*
X50366842Y1747068D01*
X50653740Y1690000D01*
X50946260Y1690000D01*
X51233158Y1747068D01*
X51503411Y1859010D01*
X51746632Y2021525D01*
X51953475Y2228368D01*
X52070000Y2402760D01*
X52186525Y2228368D01*
X52393368Y2021525D01*
X52636589Y1859010D01*
X52906842Y1747068D01*
X53193740Y1690000D01*
X53486260Y1690000D01*
X53773158Y1747068D01*
X54043411Y1859010D01*
X54286632Y2021525D01*
X54493475Y2228368D01*
X54610000Y2402760D01*
X54726525Y2228368D01*
X54933368Y2021525D01*
X55176589Y1859010D01*
X55446842Y1747068D01*
X55733740Y1690000D01*
X56026260Y1690000D01*
X56313158Y1747068D01*
X56583411Y1859010D01*
X56826632Y2021525D01*
X57033475Y2228368D01*
X57150000Y2402760D01*
X57266525Y2228368D01*
X57473368Y2021525D01*
X57716589Y1859010D01*
X57986842Y1747068D01*
X58273740Y1690000D01*
X58566260Y1690000D01*
X58853158Y1747068D01*
X59123411Y1859010D01*
X59366632Y2021525D01*
X59573475Y2228368D01*
X59735990Y2471589D01*
X59847932Y2741842D01*
X59905000Y3028740D01*
X59905000Y3321260D01*
X59847932Y3608158D01*
X59735990Y3878411D01*
X59573475Y4121632D01*
X59386392Y4308715D01*
X59513386Y4376595D01*
X59647962Y4487038D01*
X59758405Y4621614D01*
X59840472Y4775150D01*
X59891008Y4941746D01*
X59908072Y5115000D01*
X59908072Y6315000D01*
X59891008Y6488254D01*
X59840472Y6654850D01*
X59758405Y6808386D01*
X59647962Y6942962D01*
X59513386Y7053405D01*
X59359850Y7135472D01*
X59193254Y7186008D01*
X59020000Y7203072D01*
X57985000Y7203072D01*
X57985000Y13899488D01*
X59424783Y13899488D01*
X59466213Y13619870D01*
X59561397Y13353708D01*
X59628329Y13228486D01*
X59872298Y13156903D01*
X60685395Y13970000D01*
X59872298Y14783097D01*
X59628329Y14711514D01*
X59507429Y14456004D01*
X59438700Y14181816D01*
X59424783Y13899488D01*
X57985000Y13899488D01*
X57985000Y14962702D01*
X60051903Y14962702D01*
X60865000Y14149605D01*
X60879143Y14163747D01*
X61058748Y13984142D01*
X61044605Y13970000D01*
X61058748Y13955857D01*
X60879143Y13776252D01*
X60865000Y13790395D01*
X60051903Y12977298D01*
X60123486Y12733329D01*
X60378996Y12612429D01*
X60653184Y12543700D01*
X60935512Y12529783D01*
X61215130Y12571213D01*
X61481292Y12666397D01*
X61603309Y12731616D01*
X61613815Y12718815D01*
X61710506Y12639463D01*
X61820820Y12580498D01*
X61940518Y12544188D01*
X62065000Y12531928D01*
X63665000Y12531928D01*
X63789482Y12544188D01*
X63909180Y12580498D01*
X64019494Y12639463D01*
X64116185Y12718815D01*
X64195537Y12815506D01*
X64254502Y12925820D01*
X64290812Y13045518D01*
X64303072Y13170000D01*
X64303072Y14770000D01*
X64290812Y14894482D01*
X64254502Y15014180D01*
X64195537Y15124494D01*
X64116185Y15221185D01*
X64019494Y15300537D01*
X63909180Y15359502D01*
X63789482Y15395812D01*
X63665000Y15408072D01*
X62065000Y15408072D01*
X61940518Y15395812D01*
X61820820Y15359502D01*
X61710506Y15300537D01*
X61613815Y15221185D01*
X61603193Y15208242D01*
X61351004Y15327571D01*
X61076816Y15396300D01*
X60794488Y15410217D01*
X60514870Y15368787D01*
X60248708Y15273603D01*
X60123486Y15206671D01*
X60051903Y14962702D01*
X57985000Y14962702D01*
X57985000Y15198982D01*
X57989040Y15240000D01*
X57977270Y15359502D01*
X57972918Y15403689D01*
X57925172Y15561087D01*
X57847636Y15706146D01*
X57743291Y15833291D01*
X57711433Y15859436D01*
X54175000Y19395867D01*
X54175000Y23287501D01*
X63390106Y23287501D01*
X63606228Y22920742D01*
X64066105Y22680062D01*
X64564098Y22533725D01*
X65081071Y22487352D01*
X65597159Y22542727D01*
X66092526Y22697721D01*
X66509772Y22920742D01*
X66725894Y23287501D01*
X65058000Y24955395D01*
X63390106Y23287501D01*
X54175000Y23287501D01*
X54175000Y24723982D01*
X54179040Y24765000D01*
X54171794Y24838571D01*
X54162918Y24928689D01*
X54115172Y25086087D01*
X54101360Y25111929D01*
X62410352Y25111929D01*
X62465727Y24595841D01*
X62620721Y24100474D01*
X62843742Y23683228D01*
X63210501Y23467106D01*
X64878395Y25135000D01*
X65237605Y25135000D01*
X66905499Y23467106D01*
X67272258Y23683228D01*
X67512938Y24143105D01*
X67659275Y24641098D01*
X67705648Y25158071D01*
X67650273Y25674159D01*
X67495279Y26169526D01*
X67272258Y26586772D01*
X66905499Y26802894D01*
X65237605Y25135000D01*
X64878395Y25135000D01*
X63210501Y26802894D01*
X62843742Y26586772D01*
X62603062Y26126895D01*
X62456725Y25628902D01*
X62410352Y25111929D01*
X54101360Y25111929D01*
X54037636Y25231146D01*
X53987695Y25292000D01*
X53959439Y25326430D01*
X53959437Y25326432D01*
X53933291Y25358291D01*
X53901432Y25384436D01*
X53324445Y25961422D01*
X53298291Y25993291D01*
X53171146Y26097636D01*
X53026087Y26175172D01*
X52868689Y26222918D01*
X52746019Y26235000D01*
X52746018Y26235000D01*
X52705000Y26239040D01*
X52663982Y26235000D01*
X47970868Y26235000D01*
X47223369Y26982499D01*
X63390106Y26982499D01*
X65058000Y25314605D01*
X66725894Y26982499D01*
X66509772Y27349258D01*
X66049895Y27589938D01*
X65551902Y27736275D01*
X65034929Y27782648D01*
X64518841Y27727273D01*
X64023474Y27572279D01*
X63606228Y27349258D01*
X63390106Y26982499D01*
X47223369Y26982499D01*
X47190000Y27015867D01*
X47190000Y29497735D01*
X47353125Y29660860D01*
X47493753Y29871324D01*
X47590619Y30105179D01*
X47640000Y30353439D01*
X47640000Y30606561D01*
X47590619Y30854821D01*
X47493753Y31088676D01*
X47353125Y31299140D01*
X47174140Y31478125D01*
X46963676Y31618753D01*
X46729821Y31715619D01*
X46481561Y31765000D01*
X46228439Y31765000D01*
X45980179Y31715619D01*
X45920000Y31690692D01*
X45920000Y33185000D01*
X58759928Y33185000D01*
X58759928Y31585000D01*
X58772188Y31460518D01*
X58808498Y31340820D01*
X58867463Y31230506D01*
X58946815Y31133815D01*
X59043506Y31054463D01*
X59153820Y30995498D01*
X59249943Y30966339D01*
X59083363Y30799759D01*
X58926320Y30564727D01*
X58818147Y30303574D01*
X58763000Y30026335D01*
X58763000Y29743665D01*
X58818147Y29466426D01*
X58926320Y29205273D01*
X59083363Y28970241D01*
X59283241Y28770363D01*
X59518273Y28613320D01*
X59779426Y28505147D01*
X60056665Y28450000D01*
X60339335Y28450000D01*
X60616574Y28505147D01*
X60877727Y28613320D01*
X61112759Y28770363D01*
X61198000Y28855604D01*
X61283241Y28770363D01*
X61518273Y28613320D01*
X61779426Y28505147D01*
X62056665Y28450000D01*
X62339335Y28450000D01*
X62616574Y28505147D01*
X62877727Y28613320D01*
X63112759Y28770363D01*
X63312637Y28970241D01*
X63469680Y29205273D01*
X63577853Y29466426D01*
X63633000Y29743665D01*
X63633000Y30026335D01*
X63577853Y30303574D01*
X63469680Y30564727D01*
X63312637Y30799759D01*
X63112759Y30999637D01*
X62912131Y31133692D01*
X62939514Y31148329D01*
X63011097Y31392298D01*
X62198000Y32205395D01*
X62183858Y32191252D01*
X62004253Y32370857D01*
X62018395Y32385000D01*
X62377605Y32385000D01*
X63190702Y31571903D01*
X63434671Y31643486D01*
X63555571Y31898996D01*
X63624300Y32173184D01*
X63638217Y32455512D01*
X63596787Y32735130D01*
X63501603Y33001292D01*
X63434671Y33126514D01*
X63190702Y33198097D01*
X62377605Y32385000D01*
X62018395Y32385000D01*
X62004253Y32399142D01*
X62183858Y32578747D01*
X62198000Y32564605D01*
X63011097Y33377702D01*
X62939514Y33621671D01*
X62684004Y33742571D01*
X62409816Y33811300D01*
X62127488Y33825217D01*
X61847870Y33783787D01*
X61581708Y33688603D01*
X61459691Y33623384D01*
X61449185Y33636185D01*
X61352494Y33715537D01*
X61242180Y33774502D01*
X61122482Y33810812D01*
X60998000Y33823072D01*
X59398000Y33823072D01*
X59273518Y33810812D01*
X59153820Y33774502D01*
X59043506Y33715537D01*
X58946815Y33636185D01*
X58867463Y33539494D01*
X58808498Y33429180D01*
X58772188Y33309482D01*
X58759928Y33185000D01*
X45920000Y33185000D01*
X45920000Y35287501D01*
X63390106Y35287501D01*
X63606228Y34920742D01*
X64066105Y34680062D01*
X64564098Y34533725D01*
X65081071Y34487352D01*
X65597159Y34542727D01*
X66092526Y34697721D01*
X66509772Y34920742D01*
X66725894Y35287501D01*
X65058000Y36955395D01*
X63390106Y35287501D01*
X45920000Y35287501D01*
X45920000Y41233982D01*
X45924040Y41275000D01*
X45907918Y41438688D01*
X45895678Y41479040D01*
X45860172Y41596087D01*
X45782636Y41741146D01*
X45678291Y41868291D01*
X45646431Y41894438D01*
X45108533Y42432335D01*
X46571000Y42432335D01*
X46571000Y42149665D01*
X46626147Y41872426D01*
X46734320Y41611273D01*
X46891363Y41376241D01*
X47071000Y41196604D01*
X47071001Y38996686D01*
X46930201Y38855886D01*
X46778629Y38629043D01*
X46674225Y38376989D01*
X46621000Y38109411D01*
X46621000Y37836589D01*
X46674225Y37569011D01*
X46778629Y37316957D01*
X46930201Y37090114D01*
X47123114Y36897201D01*
X47349957Y36745629D01*
X47602011Y36641225D01*
X47869589Y36588000D01*
X48142411Y36588000D01*
X48409989Y36641225D01*
X48662043Y36745629D01*
X48888886Y36897201D01*
X49081799Y37090114D01*
X49233371Y37316957D01*
X49337775Y37569011D01*
X49391000Y37836589D01*
X49391000Y38109411D01*
X49337775Y38376989D01*
X49233371Y38629043D01*
X49081799Y38855886D01*
X48941000Y38996685D01*
X48941000Y41196604D01*
X49120637Y41376241D01*
X49277680Y41611273D01*
X49385853Y41872426D01*
X49441000Y42149665D01*
X49441000Y42432335D01*
X51397000Y42432335D01*
X51397000Y42149665D01*
X51452147Y41872426D01*
X51560320Y41611273D01*
X51717363Y41376241D01*
X51897000Y41196604D01*
X51897001Y38942686D01*
X51810201Y38855886D01*
X51658629Y38629043D01*
X51554225Y38376989D01*
X51501000Y38109411D01*
X51501000Y37836589D01*
X51554225Y37569011D01*
X51658629Y37316957D01*
X51810201Y37090114D01*
X52003114Y36897201D01*
X52229957Y36745629D01*
X52482011Y36641225D01*
X52749589Y36588000D01*
X53022411Y36588000D01*
X53289989Y36641225D01*
X53542043Y36745629D01*
X53768886Y36897201D01*
X53961799Y37090114D01*
X53976375Y37111929D01*
X62410352Y37111929D01*
X62465727Y36595841D01*
X62620721Y36100474D01*
X62843742Y35683228D01*
X63210501Y35467106D01*
X64878395Y37135000D01*
X65237605Y37135000D01*
X66905499Y35467106D01*
X67272258Y35683228D01*
X67512938Y36143105D01*
X67659275Y36641098D01*
X67705648Y37158071D01*
X67650273Y37674159D01*
X67495279Y38169526D01*
X67272258Y38586772D01*
X66905499Y38802894D01*
X65237605Y37135000D01*
X64878395Y37135000D01*
X63210501Y38802894D01*
X62843742Y38586772D01*
X62603062Y38126895D01*
X62456725Y37628902D01*
X62410352Y37111929D01*
X53976375Y37111929D01*
X54113371Y37316957D01*
X54217775Y37569011D01*
X54271000Y37836589D01*
X54271000Y38109411D01*
X54217775Y38376989D01*
X54113371Y38629043D01*
X53961799Y38855886D01*
X53835186Y38982499D01*
X63390106Y38982499D01*
X65058000Y37314605D01*
X66725894Y38982499D01*
X66509772Y39349258D01*
X66049895Y39589938D01*
X65551902Y39736275D01*
X65034929Y39782648D01*
X64518841Y39727273D01*
X64023474Y39572279D01*
X63606228Y39349258D01*
X63390106Y38982499D01*
X53835186Y38982499D01*
X53768886Y39048799D01*
X53767000Y39050059D01*
X53767000Y41196604D01*
X53946637Y41376241D01*
X54103680Y41611273D01*
X54211853Y41872426D01*
X54267000Y42149665D01*
X54267000Y42432335D01*
X54211853Y42709574D01*
X54103680Y42970727D01*
X53946637Y43205759D01*
X53746759Y43405637D01*
X53511727Y43562680D01*
X53463638Y43582599D01*
X53573514Y43641329D01*
X53645097Y43885298D01*
X52832000Y44698395D01*
X52018903Y43885298D01*
X52090486Y43641329D01*
X52207957Y43585745D01*
X52152273Y43562680D01*
X51917241Y43405637D01*
X51717363Y43205759D01*
X51560320Y42970727D01*
X51452147Y42709574D01*
X51397000Y42432335D01*
X49441000Y42432335D01*
X49385853Y42709574D01*
X49277680Y42970727D01*
X49120637Y43205759D01*
X48920759Y43405637D01*
X48720131Y43539692D01*
X48747514Y43554329D01*
X48819097Y43798298D01*
X48006000Y44611395D01*
X47192903Y43798298D01*
X47264486Y43554329D01*
X47293341Y43540676D01*
X47091241Y43405637D01*
X46891363Y43205759D01*
X46734320Y42970727D01*
X46626147Y42709574D01*
X46571000Y42432335D01*
X45108533Y42432335D01*
X45069445Y42471422D01*
X45043291Y42503291D01*
X44916146Y42607636D01*
X44771087Y42685172D01*
X44613689Y42732918D01*
X44491019Y42745000D01*
X44491018Y42745000D01*
X44450000Y42749040D01*
X44408982Y42745000D01*
X43481112Y42745000D01*
X43329608Y42929608D01*
X43111101Y43108932D01*
X42978142Y43180000D01*
X43111101Y43251068D01*
X43329608Y43430392D01*
X43508932Y43648899D01*
X43642182Y43898192D01*
X43724236Y44168691D01*
X43751943Y44450000D01*
X43725302Y44720488D01*
X46565783Y44720488D01*
X46607213Y44440870D01*
X46702397Y44174708D01*
X46769329Y44049486D01*
X47013298Y43977903D01*
X47826395Y44791000D01*
X48185605Y44791000D01*
X48998702Y43977903D01*
X49242671Y44049486D01*
X49363571Y44304996D01*
X49432300Y44579184D01*
X49443553Y44807488D01*
X51391783Y44807488D01*
X51433213Y44527870D01*
X51528397Y44261708D01*
X51595329Y44136486D01*
X51839298Y44064903D01*
X52652395Y44878000D01*
X53011605Y44878000D01*
X53824702Y44064903D01*
X54068671Y44136486D01*
X54189571Y44391996D01*
X54258300Y44666184D01*
X54272217Y44948512D01*
X54230787Y45228130D01*
X54135603Y45494292D01*
X54068671Y45619514D01*
X53824702Y45691097D01*
X53011605Y44878000D01*
X52652395Y44878000D01*
X51839298Y45691097D01*
X51595329Y45619514D01*
X51474429Y45364004D01*
X51405700Y45089816D01*
X51391783Y44807488D01*
X49443553Y44807488D01*
X49446217Y44861512D01*
X49404787Y45141130D01*
X49309603Y45407292D01*
X49242671Y45532514D01*
X48998702Y45604097D01*
X48185605Y44791000D01*
X47826395Y44791000D01*
X47013298Y45604097D01*
X46769329Y45532514D01*
X46648429Y45277004D01*
X46579700Y45002816D01*
X46565783Y44720488D01*
X43725302Y44720488D01*
X43724236Y44731309D01*
X43642182Y45001808D01*
X43508932Y45251101D01*
X43329608Y45469608D01*
X43111101Y45648932D01*
X42861808Y45782182D01*
X42856798Y45783702D01*
X47192903Y45783702D01*
X48006000Y44970605D01*
X48819097Y45783702D01*
X48793571Y45870702D01*
X52018903Y45870702D01*
X52832000Y45057605D01*
X53645097Y45870702D01*
X53573514Y46114671D01*
X53318004Y46235571D01*
X53043816Y46304300D01*
X52761488Y46318217D01*
X52481870Y46276787D01*
X52215708Y46181603D01*
X52090486Y46114671D01*
X52018903Y45870702D01*
X48793571Y45870702D01*
X48747514Y46027671D01*
X48492004Y46148571D01*
X48217816Y46217300D01*
X47935488Y46231217D01*
X47655870Y46189787D01*
X47389708Y46094603D01*
X47264486Y46027671D01*
X47192903Y45783702D01*
X42856798Y45783702D01*
X42591309Y45864236D01*
X42380492Y45885000D01*
X41439508Y45885000D01*
X41228691Y45864236D01*
X40958192Y45782182D01*
X40708899Y45648932D01*
X40490392Y45469608D01*
X40338888Y45285000D01*
X40046018Y45285000D01*
X40005000Y45289040D01*
X39963982Y45285000D01*
X39963981Y45285000D01*
X39841311Y45272918D01*
X39683913Y45225172D01*
X39538854Y45147636D01*
X39411709Y45043291D01*
X39385562Y45011431D01*
X38808573Y44434441D01*
X38776710Y44408291D01*
X38750562Y44376429D01*
X38672364Y44281145D01*
X38594828Y44136086D01*
X38547082Y43978688D01*
X38530960Y43815000D01*
X38535001Y43773972D01*
X38535000Y41951019D01*
X38530960Y41910000D01*
X38535000Y41868982D01*
X38547082Y41746312D01*
X38594828Y41588914D01*
X38672364Y41443855D01*
X38776709Y41316709D01*
X38808579Y41290554D01*
X40020558Y40078574D01*
X40046709Y40046709D01*
X40173854Y39942364D01*
X40185483Y39936148D01*
X40177818Y39921808D01*
X40095764Y39651309D01*
X40068057Y39370000D01*
X40095764Y39088691D01*
X40177818Y38818192D01*
X40311068Y38568899D01*
X40490392Y38350392D01*
X40708899Y38171068D01*
X40841858Y38100000D01*
X40708899Y38028932D01*
X40490392Y37849608D01*
X40338888Y37665000D01*
X34331007Y37665000D01*
X34289999Y37669039D01*
X34248991Y37665000D01*
X34248981Y37665000D01*
X34126311Y37652918D01*
X33968913Y37605172D01*
X33823854Y37527636D01*
X33696709Y37423291D01*
X33670559Y37391427D01*
X31188574Y34909441D01*
X31156710Y34883291D01*
X31130562Y34851429D01*
X31052364Y34756145D01*
X30974828Y34611086D01*
X30927082Y34453688D01*
X30910960Y34290000D01*
X30915001Y34248971D01*
X30915001Y24875867D01*
X30045000Y25745867D01*
X30045000Y26957735D01*
X30208125Y27120860D01*
X30348753Y27331324D01*
X30445619Y27565179D01*
X30495000Y27813439D01*
X30495000Y28066561D01*
X30445619Y28314821D01*
X30348753Y28548676D01*
X30208125Y28759140D01*
X30029140Y28938125D01*
X29818676Y29078753D01*
X29584821Y29175619D01*
X29336561Y29225000D01*
X29083439Y29225000D01*
X28835179Y29175619D01*
X28601324Y29078753D01*
X28491809Y29005577D01*
X28511943Y29210000D01*
X28484236Y29491309D01*
X28402182Y29761808D01*
X28268932Y30011101D01*
X28089608Y30229608D01*
X27871101Y30408932D01*
X27738142Y30480000D01*
X27871101Y30551068D01*
X28089608Y30730392D01*
X28268932Y30948899D01*
X28402182Y31198192D01*
X28484236Y31468691D01*
X28511943Y31750000D01*
X28484236Y32031309D01*
X28402182Y32301808D01*
X28268932Y32551101D01*
X28089608Y32769608D01*
X27871101Y32948932D01*
X27738142Y33020000D01*
X27871101Y33091068D01*
X28089608Y33270392D01*
X28268932Y33488899D01*
X28402182Y33738192D01*
X28484236Y34008691D01*
X28511943Y34290000D01*
X28484236Y34571309D01*
X28402182Y34841808D01*
X28268932Y35091101D01*
X28089608Y35309608D01*
X27871101Y35488932D01*
X27738142Y35560000D01*
X27871101Y35631068D01*
X28089608Y35810392D01*
X28268932Y36028899D01*
X28402182Y36278192D01*
X28484236Y36548691D01*
X28511943Y36830000D01*
X28484236Y37111309D01*
X28402182Y37381808D01*
X28268932Y37631101D01*
X28089608Y37849608D01*
X27871101Y38028932D01*
X27738142Y38100000D01*
X27871101Y38171068D01*
X28089608Y38350392D01*
X28268932Y38568899D01*
X28402182Y38818192D01*
X28484236Y39088691D01*
X28511943Y39370000D01*
X28484236Y39651309D01*
X28402182Y39921808D01*
X28268932Y40171101D01*
X28089608Y40389608D01*
X27871101Y40568932D01*
X27738142Y40640000D01*
X27871101Y40711068D01*
X28089608Y40890392D01*
X28268932Y41108899D01*
X28402182Y41358192D01*
X28484236Y41628691D01*
X28511943Y41910000D01*
X28484236Y42191309D01*
X28402182Y42461808D01*
X28268932Y42711101D01*
X28089608Y42929608D01*
X27976518Y43022419D01*
X27994482Y43024188D01*
X28114180Y43060498D01*
X28224494Y43119463D01*
X28321185Y43198815D01*
X28400537Y43295506D01*
X28459502Y43405820D01*
X28495812Y43525518D01*
X28508072Y43650000D01*
X28505000Y44164250D01*
X28346250Y44323000D01*
X26797000Y44323000D01*
X26797000Y44303000D01*
X26543000Y44303000D01*
X26543000Y44323000D01*
X24993750Y44323000D01*
X24835000Y44164250D01*
X24831928Y43650000D01*
X24844188Y43525518D01*
X24880498Y43405820D01*
X24939463Y43295506D01*
X25018815Y43198815D01*
X25115506Y43119463D01*
X25225820Y43060498D01*
X25345518Y43024188D01*
X25363482Y43022419D01*
X25250392Y42929608D01*
X25071068Y42711101D01*
X24937818Y42461808D01*
X24857142Y42195853D01*
X24251558Y41590268D01*
X24295000Y41808665D01*
X24295000Y42091335D01*
X24239853Y42368574D01*
X24131680Y42629727D01*
X23974637Y42864759D01*
X23774759Y43064637D01*
X23574131Y43198692D01*
X23601514Y43213329D01*
X23673097Y43457298D01*
X22860000Y44270395D01*
X22046903Y43457298D01*
X22118486Y43213329D01*
X22147341Y43199676D01*
X21945241Y43064637D01*
X21765604Y42885000D01*
X21302289Y42885000D01*
X20620000Y43567289D01*
X20620000Y43769069D01*
X20624524Y43815000D01*
X20620000Y43860935D01*
X20620000Y44379488D01*
X21419783Y44379488D01*
X21461213Y44099870D01*
X21556397Y43833708D01*
X21623329Y43708486D01*
X21867298Y43636903D01*
X22680395Y44450000D01*
X23039605Y44450000D01*
X23852702Y43636903D01*
X24096671Y43708486D01*
X24217571Y43963996D01*
X24286300Y44238184D01*
X24300217Y44520512D01*
X24258787Y44800130D01*
X24163603Y45066292D01*
X24096671Y45191514D01*
X23897340Y45250000D01*
X24831928Y45250000D01*
X24835000Y44735750D01*
X24993750Y44577000D01*
X26543000Y44577000D01*
X26543000Y45726250D01*
X26797000Y45726250D01*
X26797000Y44577000D01*
X28346250Y44577000D01*
X28505000Y44735750D01*
X28508072Y45250000D01*
X28495812Y45374482D01*
X28459502Y45494180D01*
X28400537Y45604494D01*
X28321185Y45701185D01*
X28224494Y45780537D01*
X28114180Y45839502D01*
X27994482Y45875812D01*
X27870000Y45888072D01*
X26955750Y45885000D01*
X26797000Y45726250D01*
X26543000Y45726250D01*
X26384250Y45885000D01*
X25470000Y45888072D01*
X25345518Y45875812D01*
X25225820Y45839502D01*
X25115506Y45780537D01*
X25018815Y45701185D01*
X24939463Y45604494D01*
X24880498Y45494180D01*
X24844188Y45374482D01*
X24831928Y45250000D01*
X23897340Y45250000D01*
X23852702Y45263097D01*
X23039605Y44450000D01*
X22680395Y44450000D01*
X21867298Y45263097D01*
X21623329Y45191514D01*
X21502429Y44936004D01*
X21433700Y44661816D01*
X21419783Y44379488D01*
X20620000Y44379488D01*
X20620000Y44625604D01*
X20799637Y44805241D01*
X20956680Y45040273D01*
X21064853Y45301426D01*
X21092954Y45442702D01*
X22046903Y45442702D01*
X22860000Y44629605D01*
X23673097Y45442702D01*
X23601514Y45686671D01*
X23346004Y45807571D01*
X23071816Y45876300D01*
X22789488Y45890217D01*
X22509870Y45848787D01*
X22243708Y45753603D01*
X22118486Y45686671D01*
X22046903Y45442702D01*
X21092954Y45442702D01*
X21120000Y45578665D01*
X21120000Y45861335D01*
X21064853Y46138574D01*
X20956680Y46399727D01*
X20799637Y46634759D01*
X20599759Y46834637D01*
X20364727Y46991680D01*
X20103574Y47099853D01*
X19826335Y47155000D01*
X19543665Y47155000D01*
X19266426Y47099853D01*
X19005273Y46991680D01*
X18770241Y46834637D01*
X18570363Y46634759D01*
X18413320Y46399727D01*
X18305147Y46138574D01*
X18250000Y45861335D01*
X18250000Y45578665D01*
X18305147Y45301426D01*
X18413320Y45040273D01*
X18570363Y44805241D01*
X18750000Y44625604D01*
X18750000Y44202289D01*
X18662711Y44115000D01*
X18168685Y44115000D01*
X18027886Y44255799D01*
X17801043Y44407371D01*
X17548989Y44511775D01*
X17281411Y44565000D01*
X17008589Y44565000D01*
X16741011Y44511775D01*
X16488957Y44407371D01*
X16262114Y44255799D01*
X16069201Y44062886D01*
X15917629Y43836043D01*
X15813225Y43583989D01*
X15760000Y43316411D01*
X15760000Y43043589D01*
X15813225Y42776011D01*
X15917629Y42523957D01*
X16069201Y42297114D01*
X16262114Y42104201D01*
X16488957Y41952629D01*
X16741011Y41848225D01*
X17008589Y41795000D01*
X17281411Y41795000D01*
X17548989Y41848225D01*
X17801043Y41952629D01*
X18027886Y42104201D01*
X18168685Y42245000D01*
X19004068Y42245000D01*
X19050000Y42240476D01*
X19095932Y42245000D01*
X19297711Y42245000D01*
X20221370Y41321341D01*
X20250656Y41285656D01*
X20393028Y41168814D01*
X20498880Y41112235D01*
X20555459Y41081993D01*
X20731708Y41028528D01*
X20915000Y41010476D01*
X20960935Y41015000D01*
X21765604Y41015000D01*
X21945241Y40835363D01*
X22180273Y40678320D01*
X22441426Y40570147D01*
X22718665Y40515000D01*
X23001335Y40515000D01*
X23219732Y40558442D01*
X22164097Y39502807D01*
X22124604Y39470396D01*
X21995266Y39312797D01*
X21899159Y39132992D01*
X21839976Y38937894D01*
X21825000Y38785837D01*
X21825000Y38785828D01*
X21819994Y38735000D01*
X21825000Y38684172D01*
X21825001Y32744397D01*
X21745363Y32664759D01*
X21588320Y32429727D01*
X21480147Y32168574D01*
X21425000Y31891335D01*
X21425000Y31778711D01*
X20526290Y30880000D01*
X19965558Y30880000D01*
X20069608Y30965392D01*
X20248932Y31183899D01*
X20382182Y31433192D01*
X20464236Y31703691D01*
X20485000Y31914509D01*
X20485000Y32855492D01*
X20464236Y33066309D01*
X20382182Y33336808D01*
X20248932Y33586101D01*
X20069607Y33804608D01*
X19851100Y33983932D01*
X19601807Y34117182D01*
X19576034Y34125000D01*
X19826335Y34125000D01*
X20103574Y34180147D01*
X20364727Y34288320D01*
X20599759Y34445363D01*
X20799637Y34645241D01*
X20956680Y34880273D01*
X21064853Y35141426D01*
X21120000Y35418665D01*
X21120000Y35701335D01*
X21064853Y35978574D01*
X20956680Y36239727D01*
X20799637Y36474759D01*
X20620000Y36654396D01*
X20620000Y36784065D01*
X20624524Y36830000D01*
X20606472Y37013292D01*
X20553007Y37189541D01*
X20522765Y37246120D01*
X20466186Y37351972D01*
X20349344Y37494344D01*
X20313660Y37523629D01*
X18928630Y38908659D01*
X18899344Y38944344D01*
X18756972Y39061186D01*
X18594540Y39148007D01*
X18418292Y39201471D01*
X18280932Y39215000D01*
X18235000Y39219524D01*
X18189068Y39215000D01*
X18168685Y39215000D01*
X18027886Y39355799D01*
X17801043Y39507371D01*
X17548989Y39611775D01*
X17281411Y39665000D01*
X17008589Y39665000D01*
X16741011Y39611775D01*
X16488957Y39507371D01*
X16262114Y39355799D01*
X16069201Y39162886D01*
X15917629Y38936043D01*
X15813225Y38683989D01*
X15760000Y38416411D01*
X15760000Y38143589D01*
X15813225Y37876011D01*
X15917629Y37623957D01*
X16069201Y37397114D01*
X16262114Y37204201D01*
X16488957Y37052629D01*
X16741011Y36948225D01*
X17008589Y36895000D01*
X17281411Y36895000D01*
X17548989Y36948225D01*
X17801043Y37052629D01*
X18004282Y37188429D01*
X18644158Y36548553D01*
X18570363Y36474759D01*
X18413320Y36239727D01*
X18305147Y35978574D01*
X18250000Y35701335D01*
X18250000Y35418665D01*
X18305147Y35141426D01*
X18413320Y34880273D01*
X18570363Y34645241D01*
X18770241Y34445363D01*
X19005273Y34288320D01*
X19185723Y34213575D01*
X19050000Y34226943D01*
X18768691Y34199236D01*
X18498192Y34117182D01*
X18248899Y33983932D01*
X18030392Y33804607D01*
X17851068Y33586100D01*
X17780000Y33453142D01*
X17708932Y33586101D01*
X17529607Y33804608D01*
X17311100Y33983932D01*
X17061807Y34117182D01*
X16791308Y34199236D01*
X16510000Y34226943D01*
X16228691Y34199236D01*
X15958192Y34117182D01*
X15708899Y33983932D01*
X15490392Y33804607D01*
X15311068Y33586100D01*
X15240000Y33453142D01*
X15168932Y33586101D01*
X14989607Y33804608D01*
X14771100Y33983932D01*
X14521807Y34117182D01*
X14251308Y34199236D01*
X13970000Y34226943D01*
X13688691Y34199236D01*
X13418192Y34117182D01*
X13168899Y33983932D01*
X12950392Y33804607D01*
X12771068Y33586100D01*
X12700000Y33453142D01*
X12628932Y33586101D01*
X12449607Y33804608D01*
X12231100Y33983932D01*
X11981807Y34117182D01*
X11711308Y34199236D01*
X11430000Y34226943D01*
X11148691Y34199236D01*
X10878192Y34117182D01*
X10628899Y33983932D01*
X10410392Y33804607D01*
X10231068Y33586100D01*
X10160000Y33453142D01*
X10088932Y33586101D01*
X9909607Y33804608D01*
X9691100Y33983932D01*
X9441807Y34117182D01*
X9171308Y34199236D01*
X8890000Y34226943D01*
X8608691Y34199236D01*
X8338192Y34117182D01*
X8088899Y33983932D01*
X7870392Y33804607D01*
X7691068Y33586100D01*
X7620000Y33453142D01*
X7548932Y33586101D01*
X7369607Y33804608D01*
X7151100Y33983932D01*
X6901807Y34117182D01*
X6631308Y34199236D01*
X6350000Y34226943D01*
X6068691Y34199236D01*
X5798192Y34117182D01*
X5548899Y33983932D01*
X5330392Y33804607D01*
X5151068Y33586100D01*
X5080000Y33453142D01*
X5008932Y33586101D01*
X4829607Y33804608D01*
X4611100Y33983932D01*
X4361807Y34117182D01*
X4091308Y34199236D01*
X3810000Y34226943D01*
X3528691Y34199236D01*
X3258192Y34117182D01*
X3008899Y33983932D01*
X2790392Y33804607D01*
X2611068Y33586100D01*
X2477818Y33336807D01*
X2395764Y33066308D01*
X2375000Y32855491D01*
X2375000Y31914508D01*
X2395764Y31703691D01*
X2477818Y31433192D01*
X2611068Y31183899D01*
X2783956Y30973235D01*
X2789977Y30912105D01*
X2849160Y30717007D01*
X2945266Y30537203D01*
X3039157Y30422797D01*
X3074605Y30379604D01*
X3114092Y30347198D01*
X4312197Y29149092D01*
X4344604Y29109604D01*
X4384092Y29077197D01*
X4502202Y28980266D01*
X4581043Y28938125D01*
X4682007Y28884159D01*
X4877105Y28824976D01*
X5029162Y28810000D01*
X5029171Y28810000D01*
X5079999Y28804994D01*
X5130827Y28810000D01*
X20904172Y28810000D01*
X20955000Y28804994D01*
X21005828Y28810000D01*
X21005838Y28810000D01*
X21157895Y28824976D01*
X21352993Y28884159D01*
X21532797Y28980266D01*
X21690396Y29109604D01*
X21722807Y29149097D01*
X22888711Y30315000D01*
X23001335Y30315000D01*
X23278574Y30370147D01*
X23539727Y30478320D01*
X23774759Y30635363D01*
X23930000Y30790604D01*
X23930000Y27540417D01*
X23852702Y27563097D01*
X23039605Y26750000D01*
X23852702Y25936903D01*
X23930000Y25959583D01*
X23930000Y24475868D01*
X23149133Y23695000D01*
X21631007Y23695000D01*
X21589999Y23699039D01*
X21548991Y23695000D01*
X21548981Y23695000D01*
X21426311Y23682918D01*
X21268913Y23635172D01*
X21123854Y23557636D01*
X20996709Y23453291D01*
X20970561Y23421429D01*
X19601429Y22052297D01*
X19331308Y22134236D01*
X19050000Y22161943D01*
X18768691Y22134236D01*
X18498192Y22052182D01*
X18248899Y21918932D01*
X18030392Y21739607D01*
X17851068Y21521100D01*
X17780000Y21388142D01*
X17708932Y21521101D01*
X17529607Y21739608D01*
X17311100Y21918932D01*
X17061807Y22052182D01*
X16791308Y22134236D01*
X16510000Y22161943D01*
X16228691Y22134236D01*
X15958192Y22052182D01*
X15708899Y21918932D01*
X15490392Y21739607D01*
X15311068Y21521100D01*
X15240000Y21388142D01*
X15168932Y21521101D01*
X14989607Y21739608D01*
X14771100Y21918932D01*
X14521807Y22052182D01*
X14251308Y22134236D01*
X13970000Y22161943D01*
X13688691Y22134236D01*
X13418192Y22052182D01*
X13168899Y21918932D01*
X12950392Y21739607D01*
X12771068Y21521100D01*
X12700000Y21388142D01*
X12628932Y21521101D01*
X12449607Y21739608D01*
X12265000Y21891111D01*
X12265000Y23193888D01*
X12449608Y23345392D01*
X12628932Y23563899D01*
X12700000Y23696858D01*
X12771068Y23563899D01*
X12950393Y23345392D01*
X13168900Y23166068D01*
X13418193Y23032818D01*
X13688692Y22950764D01*
X13970000Y22923057D01*
X14251309Y22950764D01*
X14521808Y23032818D01*
X14771101Y23166068D01*
X14989608Y23345392D01*
X15168932Y23563899D01*
X15240000Y23696858D01*
X15311068Y23563899D01*
X15490393Y23345392D01*
X15708900Y23166068D01*
X15958193Y23032818D01*
X16228692Y22950764D01*
X16510000Y22923057D01*
X16791309Y22950764D01*
X17061808Y23032818D01*
X17311101Y23166068D01*
X17529608Y23345392D01*
X17708932Y23563899D01*
X17777265Y23691741D01*
X17927399Y23462161D01*
X18125105Y23260500D01*
X18358354Y23101285D01*
X18618182Y22990633D01*
X18700961Y22973096D01*
X18923000Y23095085D01*
X18923000Y24638000D01*
X19177000Y24638000D01*
X19177000Y23095085D01*
X19399039Y22973096D01*
X19481818Y22990633D01*
X19741646Y23101285D01*
X19974895Y23260500D01*
X20172601Y23462161D01*
X20327166Y23698517D01*
X20432650Y23960486D01*
X20485000Y24238000D01*
X20485000Y24638000D01*
X19177000Y24638000D01*
X18923000Y24638000D01*
X18903000Y24638000D01*
X18903000Y24892000D01*
X18923000Y24892000D01*
X18923000Y26434915D01*
X19177000Y26434915D01*
X19177000Y24892000D01*
X20485000Y24892000D01*
X20485000Y25292000D01*
X20432650Y25569514D01*
X20357038Y25757298D01*
X22046903Y25757298D01*
X22118486Y25513329D01*
X22373996Y25392429D01*
X22648184Y25323700D01*
X22930512Y25309783D01*
X23210130Y25351213D01*
X23476292Y25446397D01*
X23601514Y25513329D01*
X23673097Y25757298D01*
X22860000Y26570395D01*
X22046903Y25757298D01*
X20357038Y25757298D01*
X20327166Y25831483D01*
X20172601Y26067839D01*
X19974895Y26269500D01*
X19741646Y26428715D01*
X19481818Y26539367D01*
X19399039Y26556904D01*
X19177000Y26434915D01*
X18923000Y26434915D01*
X18700961Y26556904D01*
X18618182Y26539367D01*
X18358354Y26428715D01*
X18125105Y26269500D01*
X17927399Y26067839D01*
X17777265Y25838259D01*
X17708932Y25966101D01*
X17529607Y26184608D01*
X17345000Y26336111D01*
X17345000Y26628982D01*
X17349040Y26670000D01*
X17348106Y26679488D01*
X21419783Y26679488D01*
X21461213Y26399870D01*
X21556397Y26133708D01*
X21623329Y26008486D01*
X21867298Y25936903D01*
X22680395Y26750000D01*
X21867298Y27563097D01*
X21623329Y27491514D01*
X21502429Y27236004D01*
X21433700Y26961816D01*
X21419783Y26679488D01*
X17348106Y26679488D01*
X17332918Y26833688D01*
X17320678Y26874040D01*
X17285172Y26991087D01*
X17207636Y27136146D01*
X17203396Y27141312D01*
X17129439Y27231430D01*
X17129437Y27231432D01*
X17103291Y27263291D01*
X17071432Y27289436D01*
X16618166Y27742702D01*
X22046903Y27742702D01*
X22860000Y26929605D01*
X23673097Y27742702D01*
X23601514Y27986671D01*
X23346004Y28107571D01*
X23071816Y28176300D01*
X22789488Y28190217D01*
X22509870Y28148787D01*
X22243708Y28053603D01*
X22118486Y27986671D01*
X22046903Y27742702D01*
X16618166Y27742702D01*
X16494445Y27866422D01*
X16468291Y27898291D01*
X16341146Y28002636D01*
X16196087Y28080172D01*
X16038689Y28127918D01*
X15916019Y28140000D01*
X15916018Y28140000D01*
X15875000Y28144040D01*
X15833982Y28140000D01*
X8296018Y28140000D01*
X8255000Y28144040D01*
X8213982Y28140000D01*
X8213981Y28140000D01*
X8091311Y28127918D01*
X7947310Y28084236D01*
X7933913Y28080172D01*
X7788854Y28002636D01*
X7762514Y27981019D01*
X7661709Y27898291D01*
X7635562Y27866431D01*
X7058573Y27289441D01*
X7026710Y27263291D01*
X7000562Y27231429D01*
X6922364Y27136145D01*
X6844828Y26991086D01*
X6797082Y26833688D01*
X6791263Y26774605D01*
X5699446Y27866421D01*
X5673291Y27898291D01*
X5546146Y28002636D01*
X5401087Y28080172D01*
X5243689Y28127918D01*
X5121019Y28140000D01*
X5121018Y28140000D01*
X5080000Y28144040D01*
X5038982Y28140000D01*
X2581018Y28140000D01*
X2540000Y28144040D01*
X2498982Y28140000D01*
X2498981Y28140000D01*
X2376311Y28127918D01*
X2232310Y28084236D01*
X2218913Y28080172D01*
X2073854Y28002636D01*
X2047514Y27981019D01*
X1946709Y27898291D01*
X1920562Y27866431D01*
X1343578Y27289445D01*
X1311709Y27263291D01*
X1211604Y27141312D01*
X1207364Y27136145D01*
X1129828Y26991086D01*
X1082082Y26833688D01*
X1065960Y26670000D01*
X660000Y26670000D01*
X660000Y48870000D01*
X75540001Y48870000D01*
X75540000Y660000D01*
%TA.AperFunction,Conductor*%
D25*
G36*
X75540000Y660000D02*
G01*
X660000Y660000D01*
X660000Y2146603D01*
X16931208Y2146603D01*
X17008843Y1897528D01*
X17272883Y1771629D01*
X17556411Y1699661D01*
X17848531Y1684389D01*
X18138019Y1726401D01*
X18413747Y1824081D01*
X18551157Y1897528D01*
X18628792Y2146603D01*
X17780000Y2995395D01*
X16931208Y2146603D01*
X660000Y2146603D01*
X660000Y3106469D01*
X16289389Y3106469D01*
X16331401Y2816981D01*
X16429081Y2541253D01*
X16502528Y2403843D01*
X16751603Y2326208D01*
X17600395Y3175000D01*
X16751603Y4023792D01*
X16502528Y3946157D01*
X16376629Y3682117D01*
X16304661Y3398589D01*
X16289389Y3106469D01*
X660000Y3106469D01*
X660000Y26670000D01*
X1065960Y26670000D01*
X1070000Y26628981D01*
X1070001Y14646029D01*
X1065960Y14605000D01*
X1082082Y14441312D01*
X1129828Y14283914D01*
X1207364Y14138855D01*
X1217668Y14126300D01*
X1311710Y14011709D01*
X1343574Y13985559D01*
X2371928Y12957204D01*
X2371928Y11500000D01*
X2384188Y11375518D01*
X2420498Y11255820D01*
X2479463Y11145506D01*
X2558815Y11048815D01*
X2655506Y10969463D01*
X2765820Y10910498D01*
X2885518Y10874188D01*
X3010000Y10861928D01*
X4245000Y10861928D01*
X4245000Y10836019D01*
X4240960Y10795000D01*
X4245000Y10753982D01*
X4257082Y10631312D01*
X4304828Y10473914D01*
X4382364Y10328855D01*
X4486709Y10201709D01*
X4518578Y10175555D01*
X5095562Y9598569D01*
X5121709Y9566709D01*
X5153568Y9540563D01*
X5153570Y9540561D01*
X5248854Y9462364D01*
X5393913Y9384828D01*
X5551311Y9337082D01*
X5673981Y9325000D01*
X5673982Y9325000D01*
X5715000Y9320960D01*
X5756018Y9325000D01*
X8848982Y9325000D01*
X8890000Y9320960D01*
X8931018Y9325000D01*
X8931019Y9325000D01*
X9053689Y9337082D01*
X9211087Y9384828D01*
X9356146Y9462364D01*
X9483291Y9566709D01*
X9509446Y9598579D01*
X10721426Y10810558D01*
X10753291Y10836709D01*
X10857636Y10963854D01*
X10863852Y10975483D01*
X10878193Y10967818D01*
X11148692Y10885764D01*
X11430000Y10858057D01*
X11711309Y10885764D01*
X11981808Y10967818D01*
X12231101Y11101068D01*
X12449608Y11280392D01*
X12628932Y11498899D01*
X12700000Y11631858D01*
X12771068Y11498899D01*
X12950393Y11280392D01*
X13168900Y11101068D01*
X13418193Y10967818D01*
X13688692Y10885764D01*
X13970000Y10858057D01*
X14251309Y10885764D01*
X14521808Y10967818D01*
X14771101Y11101068D01*
X14989608Y11280392D01*
X15168932Y11498899D01*
X15240000Y11631858D01*
X15311068Y11498899D01*
X15490393Y11280392D01*
X15708900Y11101068D01*
X15958193Y10967818D01*
X16228692Y10885764D01*
X16510000Y10858057D01*
X16791309Y10885764D01*
X17061808Y10967818D01*
X17311101Y11101068D01*
X17529608Y11280392D01*
X17708932Y11498899D01*
X17777265Y11626741D01*
X17927399Y11397161D01*
X18125105Y11195500D01*
X18358354Y11036285D01*
X18618182Y10925633D01*
X18700961Y10908096D01*
X18923000Y11030085D01*
X18923000Y12573000D01*
X18903000Y12573000D01*
X18903000Y12827000D01*
X18923000Y12827000D01*
X18923000Y14369915D01*
X18700961Y14491904D01*
X18618182Y14474367D01*
X18358354Y14363715D01*
X18125105Y14204500D01*
X17927399Y14002839D01*
X17777265Y13773259D01*
X17708932Y13901101D01*
X17529607Y14119608D01*
X17311100Y14298932D01*
X17061807Y14432182D01*
X16791308Y14514236D01*
X16510000Y14541943D01*
X16228691Y14514236D01*
X15958192Y14432182D01*
X15708899Y14298932D01*
X15490392Y14119607D01*
X15311068Y13901100D01*
X15240000Y13768142D01*
X15168932Y13901101D01*
X14989607Y14119608D01*
X14771100Y14298932D01*
X14521807Y14432182D01*
X14251308Y14514236D01*
X13970000Y14541943D01*
X13688691Y14514236D01*
X13418192Y14432182D01*
X13168899Y14298932D01*
X12950392Y14119607D01*
X12771068Y13901100D01*
X12700000Y13768142D01*
X12628932Y13901101D01*
X12449607Y14119608D01*
X12231100Y14298932D01*
X11981807Y14432182D01*
X11711308Y14514236D01*
X11430000Y14541943D01*
X11261183Y14525316D01*
X11775868Y15040000D01*
X19339133Y15040000D01*
X20120001Y14259131D01*
X20120001Y14056491D01*
X19974895Y14204500D01*
X19741646Y14363715D01*
X19481818Y14474367D01*
X19399039Y14491904D01*
X19177000Y14369915D01*
X19177000Y12827000D01*
X19197000Y12827000D01*
X19197000Y12573000D01*
X19177000Y12573000D01*
X19177000Y11030085D01*
X19399039Y10908096D01*
X19481818Y10925633D01*
X19741646Y11036285D01*
X19974895Y11195500D01*
X20120000Y11343508D01*
X20120000Y9566019D01*
X20115960Y9525000D01*
X20120000Y9483982D01*
X20132082Y9361312D01*
X20179828Y9203914D01*
X20257364Y9058855D01*
X20361709Y8931709D01*
X20393579Y8905554D01*
X22235468Y7063663D01*
X22156589Y7030990D01*
X21913368Y6868475D01*
X21706525Y6661632D01*
X21590000Y6487240D01*
X21473475Y6661632D01*
X21266632Y6868475D01*
X21023411Y7030990D01*
X20753158Y7142932D01*
X20466260Y7200000D01*
X20173740Y7200000D01*
X19886842Y7142932D01*
X19616589Y7030990D01*
X19373368Y6868475D01*
X19166525Y6661632D01*
X19050000Y6487240D01*
X18933475Y6661632D01*
X18726632Y6868475D01*
X18483411Y7030990D01*
X18213158Y7142932D01*
X17926260Y7200000D01*
X17633740Y7200000D01*
X17346842Y7142932D01*
X17076589Y7030990D01*
X16833368Y6868475D01*
X16626525Y6661632D01*
X16464010Y6418411D01*
X16352068Y6148158D01*
X16295000Y5861260D01*
X16295000Y5568740D01*
X16352068Y5281842D01*
X16464010Y5011589D01*
X16626525Y4768368D01*
X16833368Y4561525D01*
X17006729Y4445689D01*
X16931208Y4203397D01*
X17780000Y3354605D01*
X18628792Y4203397D01*
X18553271Y4445689D01*
X18726632Y4561525D01*
X18933475Y4768368D01*
X19050000Y4942760D01*
X19166525Y4768368D01*
X19373368Y4561525D01*
X19547760Y4445000D01*
X19373368Y4328475D01*
X19166525Y4121632D01*
X19050689Y3948271D01*
X18808397Y4023792D01*
X17959605Y3175000D01*
X18808397Y2326208D01*
X19050689Y2401729D01*
X19166525Y2228368D01*
X19373368Y2021525D01*
X19616589Y1859010D01*
X19886842Y1747068D01*
X20173740Y1690000D01*
X20466260Y1690000D01*
X20753158Y1747068D01*
X21023411Y1859010D01*
X21266632Y2021525D01*
X21473475Y2228368D01*
X21590000Y2402760D01*
X21706525Y2228368D01*
X21913368Y2021525D01*
X22156589Y1859010D01*
X22426842Y1747068D01*
X22713740Y1690000D01*
X23006260Y1690000D01*
X23293158Y1747068D01*
X23563411Y1859010D01*
X23806632Y2021525D01*
X24013475Y2228368D01*
X24130000Y2402760D01*
X24246525Y2228368D01*
X24453368Y2021525D01*
X24696589Y1859010D01*
X24966842Y1747068D01*
X25253740Y1690000D01*
X25546260Y1690000D01*
X25833158Y1747068D01*
X26103411Y1859010D01*
X26346632Y2021525D01*
X26553475Y2228368D01*
X26670000Y2402760D01*
X26786525Y2228368D01*
X26993368Y2021525D01*
X27236589Y1859010D01*
X27506842Y1747068D01*
X27793740Y1690000D01*
X28086260Y1690000D01*
X28373158Y1747068D01*
X28643411Y1859010D01*
X28886632Y2021525D01*
X29093475Y2228368D01*
X29210000Y2402760D01*
X29326525Y2228368D01*
X29533368Y2021525D01*
X29776589Y1859010D01*
X30046842Y1747068D01*
X30333740Y1690000D01*
X30626260Y1690000D01*
X30913158Y1747068D01*
X31183411Y1859010D01*
X31426632Y2021525D01*
X31633475Y2228368D01*
X31750000Y2402760D01*
X31866525Y2228368D01*
X32073368Y2021525D01*
X32316589Y1859010D01*
X32586842Y1747068D01*
X32873740Y1690000D01*
X33166260Y1690000D01*
X33453158Y1747068D01*
X33723411Y1859010D01*
X33966632Y2021525D01*
X34173475Y2228368D01*
X34290000Y2402760D01*
X34406525Y2228368D01*
X34613368Y2021525D01*
X34856589Y1859010D01*
X35126842Y1747068D01*
X35413740Y1690000D01*
X35706260Y1690000D01*
X35993158Y1747068D01*
X36263411Y1859010D01*
X36506632Y2021525D01*
X36713475Y2228368D01*
X36830000Y2402760D01*
X36946525Y2228368D01*
X37153368Y2021525D01*
X37396589Y1859010D01*
X37666842Y1747068D01*
X37953740Y1690000D01*
X38246260Y1690000D01*
X38533158Y1747068D01*
X38803411Y1859010D01*
X39046632Y2021525D01*
X39253475Y2228368D01*
X39370000Y2402760D01*
X39486525Y2228368D01*
X39693368Y2021525D01*
X39936589Y1859010D01*
X40206842Y1747068D01*
X40493740Y1690000D01*
X40786260Y1690000D01*
X41073158Y1747068D01*
X41343411Y1859010D01*
X41586632Y2021525D01*
X41793475Y2228368D01*
X41910000Y2402760D01*
X42026525Y2228368D01*
X42233368Y2021525D01*
X42476589Y1859010D01*
X42746842Y1747068D01*
X43033740Y1690000D01*
X43326260Y1690000D01*
X43613158Y1747068D01*
X43883411Y1859010D01*
X44126632Y2021525D01*
X44333475Y2228368D01*
X44450000Y2402760D01*
X44566525Y2228368D01*
X44773368Y2021525D01*
X45016589Y1859010D01*
X45286842Y1747068D01*
X45573740Y1690000D01*
X45866260Y1690000D01*
X46153158Y1747068D01*
X46423411Y1859010D01*
X46666632Y2021525D01*
X46873475Y2228368D01*
X46990000Y2402760D01*
X47106525Y2228368D01*
X47313368Y2021525D01*
X47556589Y1859010D01*
X47826842Y1747068D01*
X48113740Y1690000D01*
X48406260Y1690000D01*
X48693158Y1747068D01*
X48963411Y1859010D01*
X49206632Y2021525D01*
X49413475Y2228368D01*
X49530000Y2402760D01*
X49646525Y2228368D01*
X49853368Y2021525D01*
X50096589Y1859010D01*
X50366842Y1747068D01*
X50653740Y1690000D01*
X50946260Y1690000D01*
X51233158Y1747068D01*
X51503411Y1859010D01*
X51746632Y2021525D01*
X51953475Y2228368D01*
X52070000Y2402760D01*
X52186525Y2228368D01*
X52393368Y2021525D01*
X52636589Y1859010D01*
X52906842Y1747068D01*
X53193740Y1690000D01*
X53486260Y1690000D01*
X53773158Y1747068D01*
X54043411Y1859010D01*
X54286632Y2021525D01*
X54493475Y2228368D01*
X54610000Y2402760D01*
X54726525Y2228368D01*
X54933368Y2021525D01*
X55176589Y1859010D01*
X55446842Y1747068D01*
X55733740Y1690000D01*
X56026260Y1690000D01*
X56313158Y1747068D01*
X56583411Y1859010D01*
X56826632Y2021525D01*
X57033475Y2228368D01*
X57150000Y2402760D01*
X57266525Y2228368D01*
X57473368Y2021525D01*
X57716589Y1859010D01*
X57986842Y1747068D01*
X58273740Y1690000D01*
X58566260Y1690000D01*
X58853158Y1747068D01*
X59123411Y1859010D01*
X59366632Y2021525D01*
X59573475Y2228368D01*
X59735990Y2471589D01*
X59847932Y2741842D01*
X59905000Y3028740D01*
X59905000Y3321260D01*
X59847932Y3608158D01*
X59735990Y3878411D01*
X59573475Y4121632D01*
X59386392Y4308715D01*
X59513386Y4376595D01*
X59647962Y4487038D01*
X59758405Y4621614D01*
X59840472Y4775150D01*
X59891008Y4941746D01*
X59908072Y5115000D01*
X59908072Y6315000D01*
X59891008Y6488254D01*
X59840472Y6654850D01*
X59758405Y6808386D01*
X59647962Y6942962D01*
X59513386Y7053405D01*
X59359850Y7135472D01*
X59193254Y7186008D01*
X59020000Y7203072D01*
X57985000Y7203072D01*
X57985000Y13899488D01*
X59424783Y13899488D01*
X59466213Y13619870D01*
X59561397Y13353708D01*
X59628329Y13228486D01*
X59872298Y13156903D01*
X60685395Y13970000D01*
X59872298Y14783097D01*
X59628329Y14711514D01*
X59507429Y14456004D01*
X59438700Y14181816D01*
X59424783Y13899488D01*
X57985000Y13899488D01*
X57985000Y14962702D01*
X60051903Y14962702D01*
X60865000Y14149605D01*
X60879143Y14163747D01*
X61058748Y13984142D01*
X61044605Y13970000D01*
X61058748Y13955857D01*
X60879143Y13776252D01*
X60865000Y13790395D01*
X60051903Y12977298D01*
X60123486Y12733329D01*
X60378996Y12612429D01*
X60653184Y12543700D01*
X60935512Y12529783D01*
X61215130Y12571213D01*
X61481292Y12666397D01*
X61603309Y12731616D01*
X61613815Y12718815D01*
X61710506Y12639463D01*
X61820820Y12580498D01*
X61940518Y12544188D01*
X62065000Y12531928D01*
X63665000Y12531928D01*
X63789482Y12544188D01*
X63909180Y12580498D01*
X64019494Y12639463D01*
X64116185Y12718815D01*
X64195537Y12815506D01*
X64254502Y12925820D01*
X64290812Y13045518D01*
X64303072Y13170000D01*
X64303072Y14770000D01*
X64290812Y14894482D01*
X64254502Y15014180D01*
X64195537Y15124494D01*
X64116185Y15221185D01*
X64019494Y15300537D01*
X63909180Y15359502D01*
X63789482Y15395812D01*
X63665000Y15408072D01*
X62065000Y15408072D01*
X61940518Y15395812D01*
X61820820Y15359502D01*
X61710506Y15300537D01*
X61613815Y15221185D01*
X61603193Y15208242D01*
X61351004Y15327571D01*
X61076816Y15396300D01*
X60794488Y15410217D01*
X60514870Y15368787D01*
X60248708Y15273603D01*
X60123486Y15206671D01*
X60051903Y14962702D01*
X57985000Y14962702D01*
X57985000Y15198982D01*
X57989040Y15240000D01*
X57977270Y15359502D01*
X57972918Y15403689D01*
X57925172Y15561087D01*
X57847636Y15706146D01*
X57743291Y15833291D01*
X57711433Y15859436D01*
X54175000Y19395867D01*
X54175000Y23287501D01*
X63390106Y23287501D01*
X63606228Y22920742D01*
X64066105Y22680062D01*
X64564098Y22533725D01*
X65081071Y22487352D01*
X65597159Y22542727D01*
X66092526Y22697721D01*
X66509772Y22920742D01*
X66725894Y23287501D01*
X65058000Y24955395D01*
X63390106Y23287501D01*
X54175000Y23287501D01*
X54175000Y24723982D01*
X54179040Y24765000D01*
X54171794Y24838571D01*
X54162918Y24928689D01*
X54115172Y25086087D01*
X54101360Y25111929D01*
X62410352Y25111929D01*
X62465727Y24595841D01*
X62620721Y24100474D01*
X62843742Y23683228D01*
X63210501Y23467106D01*
X64878395Y25135000D01*
X65237605Y25135000D01*
X66905499Y23467106D01*
X67272258Y23683228D01*
X67512938Y24143105D01*
X67659275Y24641098D01*
X67705648Y25158071D01*
X67650273Y25674159D01*
X67495279Y26169526D01*
X67272258Y26586772D01*
X66905499Y26802894D01*
X65237605Y25135000D01*
X64878395Y25135000D01*
X63210501Y26802894D01*
X62843742Y26586772D01*
X62603062Y26126895D01*
X62456725Y25628902D01*
X62410352Y25111929D01*
X54101360Y25111929D01*
X54037636Y25231146D01*
X53987695Y25292000D01*
X53959439Y25326430D01*
X53959437Y25326432D01*
X53933291Y25358291D01*
X53901432Y25384436D01*
X53324445Y25961422D01*
X53298291Y25993291D01*
X53171146Y26097636D01*
X53026087Y26175172D01*
X52868689Y26222918D01*
X52746019Y26235000D01*
X52746018Y26235000D01*
X52705000Y26239040D01*
X52663982Y26235000D01*
X47970868Y26235000D01*
X47223369Y26982499D01*
X63390106Y26982499D01*
X65058000Y25314605D01*
X66725894Y26982499D01*
X66509772Y27349258D01*
X66049895Y27589938D01*
X65551902Y27736275D01*
X65034929Y27782648D01*
X64518841Y27727273D01*
X64023474Y27572279D01*
X63606228Y27349258D01*
X63390106Y26982499D01*
X47223369Y26982499D01*
X47190000Y27015867D01*
X47190000Y29497735D01*
X47353125Y29660860D01*
X47493753Y29871324D01*
X47590619Y30105179D01*
X47640000Y30353439D01*
X47640000Y30606561D01*
X47590619Y30854821D01*
X47493753Y31088676D01*
X47353125Y31299140D01*
X47174140Y31478125D01*
X46963676Y31618753D01*
X46729821Y31715619D01*
X46481561Y31765000D01*
X46228439Y31765000D01*
X45980179Y31715619D01*
X45920000Y31690692D01*
X45920000Y33185000D01*
X58759928Y33185000D01*
X58759928Y31585000D01*
X58772188Y31460518D01*
X58808498Y31340820D01*
X58867463Y31230506D01*
X58946815Y31133815D01*
X59043506Y31054463D01*
X59153820Y30995498D01*
X59249943Y30966339D01*
X59083363Y30799759D01*
X58926320Y30564727D01*
X58818147Y30303574D01*
X58763000Y30026335D01*
X58763000Y29743665D01*
X58818147Y29466426D01*
X58926320Y29205273D01*
X59083363Y28970241D01*
X59283241Y28770363D01*
X59518273Y28613320D01*
X59779426Y28505147D01*
X60056665Y28450000D01*
X60339335Y28450000D01*
X60616574Y28505147D01*
X60877727Y28613320D01*
X61112759Y28770363D01*
X61198000Y28855604D01*
X61283241Y28770363D01*
X61518273Y28613320D01*
X61779426Y28505147D01*
X62056665Y28450000D01*
X62339335Y28450000D01*
X62616574Y28505147D01*
X62877727Y28613320D01*
X63112759Y28770363D01*
X63312637Y28970241D01*
X63469680Y29205273D01*
X63577853Y29466426D01*
X63633000Y29743665D01*
X63633000Y30026335D01*
X63577853Y30303574D01*
X63469680Y30564727D01*
X63312637Y30799759D01*
X63112759Y30999637D01*
X62912131Y31133692D01*
X62939514Y31148329D01*
X63011097Y31392298D01*
X62198000Y32205395D01*
X62183858Y32191252D01*
X62004253Y32370857D01*
X62018395Y32385000D01*
X62377605Y32385000D01*
X63190702Y31571903D01*
X63434671Y31643486D01*
X63555571Y31898996D01*
X63624300Y32173184D01*
X63638217Y32455512D01*
X63596787Y32735130D01*
X63501603Y33001292D01*
X63434671Y33126514D01*
X63190702Y33198097D01*
X62377605Y32385000D01*
X62018395Y32385000D01*
X62004253Y32399142D01*
X62183858Y32578747D01*
X62198000Y32564605D01*
X63011097Y33377702D01*
X62939514Y33621671D01*
X62684004Y33742571D01*
X62409816Y33811300D01*
X62127488Y33825217D01*
X61847870Y33783787D01*
X61581708Y33688603D01*
X61459691Y33623384D01*
X61449185Y33636185D01*
X61352494Y33715537D01*
X61242180Y33774502D01*
X61122482Y33810812D01*
X60998000Y33823072D01*
X59398000Y33823072D01*
X59273518Y33810812D01*
X59153820Y33774502D01*
X59043506Y33715537D01*
X58946815Y33636185D01*
X58867463Y33539494D01*
X58808498Y33429180D01*
X58772188Y33309482D01*
X58759928Y33185000D01*
X45920000Y33185000D01*
X45920000Y35287501D01*
X63390106Y35287501D01*
X63606228Y34920742D01*
X64066105Y34680062D01*
X64564098Y34533725D01*
X65081071Y34487352D01*
X65597159Y34542727D01*
X66092526Y34697721D01*
X66509772Y34920742D01*
X66725894Y35287501D01*
X65058000Y36955395D01*
X63390106Y35287501D01*
X45920000Y35287501D01*
X45920000Y41233982D01*
X45924040Y41275000D01*
X45907918Y41438688D01*
X45895678Y41479040D01*
X45860172Y41596087D01*
X45782636Y41741146D01*
X45678291Y41868291D01*
X45646431Y41894438D01*
X45108533Y42432335D01*
X46571000Y42432335D01*
X46571000Y42149665D01*
X46626147Y41872426D01*
X46734320Y41611273D01*
X46891363Y41376241D01*
X47071000Y41196604D01*
X47071001Y38996686D01*
X46930201Y38855886D01*
X46778629Y38629043D01*
X46674225Y38376989D01*
X46621000Y38109411D01*
X46621000Y37836589D01*
X46674225Y37569011D01*
X46778629Y37316957D01*
X46930201Y37090114D01*
X47123114Y36897201D01*
X47349957Y36745629D01*
X47602011Y36641225D01*
X47869589Y36588000D01*
X48142411Y36588000D01*
X48409989Y36641225D01*
X48662043Y36745629D01*
X48888886Y36897201D01*
X49081799Y37090114D01*
X49233371Y37316957D01*
X49337775Y37569011D01*
X49391000Y37836589D01*
X49391000Y38109411D01*
X49337775Y38376989D01*
X49233371Y38629043D01*
X49081799Y38855886D01*
X48941000Y38996685D01*
X48941000Y41196604D01*
X49120637Y41376241D01*
X49277680Y41611273D01*
X49385853Y41872426D01*
X49441000Y42149665D01*
X49441000Y42432335D01*
X51397000Y42432335D01*
X51397000Y42149665D01*
X51452147Y41872426D01*
X51560320Y41611273D01*
X51717363Y41376241D01*
X51897000Y41196604D01*
X51897001Y38942686D01*
X51810201Y38855886D01*
X51658629Y38629043D01*
X51554225Y38376989D01*
X51501000Y38109411D01*
X51501000Y37836589D01*
X51554225Y37569011D01*
X51658629Y37316957D01*
X51810201Y37090114D01*
X52003114Y36897201D01*
X52229957Y36745629D01*
X52482011Y36641225D01*
X52749589Y36588000D01*
X53022411Y36588000D01*
X53289989Y36641225D01*
X53542043Y36745629D01*
X53768886Y36897201D01*
X53961799Y37090114D01*
X53976375Y37111929D01*
X62410352Y37111929D01*
X62465727Y36595841D01*
X62620721Y36100474D01*
X62843742Y35683228D01*
X63210501Y35467106D01*
X64878395Y37135000D01*
X65237605Y37135000D01*
X66905499Y35467106D01*
X67272258Y35683228D01*
X67512938Y36143105D01*
X67659275Y36641098D01*
X67705648Y37158071D01*
X67650273Y37674159D01*
X67495279Y38169526D01*
X67272258Y38586772D01*
X66905499Y38802894D01*
X65237605Y37135000D01*
X64878395Y37135000D01*
X63210501Y38802894D01*
X62843742Y38586772D01*
X62603062Y38126895D01*
X62456725Y37628902D01*
X62410352Y37111929D01*
X53976375Y37111929D01*
X54113371Y37316957D01*
X54217775Y37569011D01*
X54271000Y37836589D01*
X54271000Y38109411D01*
X54217775Y38376989D01*
X54113371Y38629043D01*
X53961799Y38855886D01*
X53835186Y38982499D01*
X63390106Y38982499D01*
X65058000Y37314605D01*
X66725894Y38982499D01*
X66509772Y39349258D01*
X66049895Y39589938D01*
X65551902Y39736275D01*
X65034929Y39782648D01*
X64518841Y39727273D01*
X64023474Y39572279D01*
X63606228Y39349258D01*
X63390106Y38982499D01*
X53835186Y38982499D01*
X53768886Y39048799D01*
X53767000Y39050059D01*
X53767000Y41196604D01*
X53946637Y41376241D01*
X54103680Y41611273D01*
X54211853Y41872426D01*
X54267000Y42149665D01*
X54267000Y42432335D01*
X54211853Y42709574D01*
X54103680Y42970727D01*
X53946637Y43205759D01*
X53746759Y43405637D01*
X53511727Y43562680D01*
X53463638Y43582599D01*
X53573514Y43641329D01*
X53645097Y43885298D01*
X52832000Y44698395D01*
X52018903Y43885298D01*
X52090486Y43641329D01*
X52207957Y43585745D01*
X52152273Y43562680D01*
X51917241Y43405637D01*
X51717363Y43205759D01*
X51560320Y42970727D01*
X51452147Y42709574D01*
X51397000Y42432335D01*
X49441000Y42432335D01*
X49385853Y42709574D01*
X49277680Y42970727D01*
X49120637Y43205759D01*
X48920759Y43405637D01*
X48720131Y43539692D01*
X48747514Y43554329D01*
X48819097Y43798298D01*
X48006000Y44611395D01*
X47192903Y43798298D01*
X47264486Y43554329D01*
X47293341Y43540676D01*
X47091241Y43405637D01*
X46891363Y43205759D01*
X46734320Y42970727D01*
X46626147Y42709574D01*
X46571000Y42432335D01*
X45108533Y42432335D01*
X45069445Y42471422D01*
X45043291Y42503291D01*
X44916146Y42607636D01*
X44771087Y42685172D01*
X44613689Y42732918D01*
X44491019Y42745000D01*
X44491018Y42745000D01*
X44450000Y42749040D01*
X44408982Y42745000D01*
X43481112Y42745000D01*
X43329608Y42929608D01*
X43111101Y43108932D01*
X42978142Y43180000D01*
X43111101Y43251068D01*
X43329608Y43430392D01*
X43508932Y43648899D01*
X43642182Y43898192D01*
X43724236Y44168691D01*
X43751943Y44450000D01*
X43725302Y44720488D01*
X46565783Y44720488D01*
X46607213Y44440870D01*
X46702397Y44174708D01*
X46769329Y44049486D01*
X47013298Y43977903D01*
X47826395Y44791000D01*
X48185605Y44791000D01*
X48998702Y43977903D01*
X49242671Y44049486D01*
X49363571Y44304996D01*
X49432300Y44579184D01*
X49443553Y44807488D01*
X51391783Y44807488D01*
X51433213Y44527870D01*
X51528397Y44261708D01*
X51595329Y44136486D01*
X51839298Y44064903D01*
X52652395Y44878000D01*
X53011605Y44878000D01*
X53824702Y44064903D01*
X54068671Y44136486D01*
X54189571Y44391996D01*
X54258300Y44666184D01*
X54272217Y44948512D01*
X54230787Y45228130D01*
X54135603Y45494292D01*
X54068671Y45619514D01*
X53824702Y45691097D01*
X53011605Y44878000D01*
X52652395Y44878000D01*
X51839298Y45691097D01*
X51595329Y45619514D01*
X51474429Y45364004D01*
X51405700Y45089816D01*
X51391783Y44807488D01*
X49443553Y44807488D01*
X49446217Y44861512D01*
X49404787Y45141130D01*
X49309603Y45407292D01*
X49242671Y45532514D01*
X48998702Y45604097D01*
X48185605Y44791000D01*
X47826395Y44791000D01*
X47013298Y45604097D01*
X46769329Y45532514D01*
X46648429Y45277004D01*
X46579700Y45002816D01*
X46565783Y44720488D01*
X43725302Y44720488D01*
X43724236Y44731309D01*
X43642182Y45001808D01*
X43508932Y45251101D01*
X43329608Y45469608D01*
X43111101Y45648932D01*
X42861808Y45782182D01*
X42856798Y45783702D01*
X47192903Y45783702D01*
X48006000Y44970605D01*
X48819097Y45783702D01*
X48793571Y45870702D01*
X52018903Y45870702D01*
X52832000Y45057605D01*
X53645097Y45870702D01*
X53573514Y46114671D01*
X53318004Y46235571D01*
X53043816Y46304300D01*
X52761488Y46318217D01*
X52481870Y46276787D01*
X52215708Y46181603D01*
X52090486Y46114671D01*
X52018903Y45870702D01*
X48793571Y45870702D01*
X48747514Y46027671D01*
X48492004Y46148571D01*
X48217816Y46217300D01*
X47935488Y46231217D01*
X47655870Y46189787D01*
X47389708Y46094603D01*
X47264486Y46027671D01*
X47192903Y45783702D01*
X42856798Y45783702D01*
X42591309Y45864236D01*
X42380492Y45885000D01*
X41439508Y45885000D01*
X41228691Y45864236D01*
X40958192Y45782182D01*
X40708899Y45648932D01*
X40490392Y45469608D01*
X40338888Y45285000D01*
X40046018Y45285000D01*
X40005000Y45289040D01*
X39963982Y45285000D01*
X39963981Y45285000D01*
X39841311Y45272918D01*
X39683913Y45225172D01*
X39538854Y45147636D01*
X39411709Y45043291D01*
X39385562Y45011431D01*
X38808573Y44434441D01*
X38776710Y44408291D01*
X38750562Y44376429D01*
X38672364Y44281145D01*
X38594828Y44136086D01*
X38547082Y43978688D01*
X38530960Y43815000D01*
X38535001Y43773972D01*
X38535000Y41951019D01*
X38530960Y41910000D01*
X38535000Y41868982D01*
X38547082Y41746312D01*
X38594828Y41588914D01*
X38672364Y41443855D01*
X38776709Y41316709D01*
X38808579Y41290554D01*
X40020558Y40078574D01*
X40046709Y40046709D01*
X40173854Y39942364D01*
X40185483Y39936148D01*
X40177818Y39921808D01*
X40095764Y39651309D01*
X40068057Y39370000D01*
X40095764Y39088691D01*
X40177818Y38818192D01*
X40311068Y38568899D01*
X40490392Y38350392D01*
X40708899Y38171068D01*
X40841858Y38100000D01*
X40708899Y38028932D01*
X40490392Y37849608D01*
X40338888Y37665000D01*
X34331007Y37665000D01*
X34289999Y37669039D01*
X34248991Y37665000D01*
X34248981Y37665000D01*
X34126311Y37652918D01*
X33968913Y37605172D01*
X33823854Y37527636D01*
X33696709Y37423291D01*
X33670559Y37391427D01*
X31188574Y34909441D01*
X31156710Y34883291D01*
X31130562Y34851429D01*
X31052364Y34756145D01*
X30974828Y34611086D01*
X30927082Y34453688D01*
X30910960Y34290000D01*
X30915001Y34248971D01*
X30915001Y24875867D01*
X30045000Y25745867D01*
X30045000Y26957735D01*
X30208125Y27120860D01*
X30348753Y27331324D01*
X30445619Y27565179D01*
X30495000Y27813439D01*
X30495000Y28066561D01*
X30445619Y28314821D01*
X30348753Y28548676D01*
X30208125Y28759140D01*
X30029140Y28938125D01*
X29818676Y29078753D01*
X29584821Y29175619D01*
X29336561Y29225000D01*
X29083439Y29225000D01*
X28835179Y29175619D01*
X28601324Y29078753D01*
X28491809Y29005577D01*
X28511943Y29210000D01*
X28484236Y29491309D01*
X28402182Y29761808D01*
X28268932Y30011101D01*
X28089608Y30229608D01*
X27871101Y30408932D01*
X27738142Y30480000D01*
X27871101Y30551068D01*
X28089608Y30730392D01*
X28268932Y30948899D01*
X28402182Y31198192D01*
X28484236Y31468691D01*
X28511943Y31750000D01*
X28484236Y32031309D01*
X28402182Y32301808D01*
X28268932Y32551101D01*
X28089608Y32769608D01*
X27871101Y32948932D01*
X27738142Y33020000D01*
X27871101Y33091068D01*
X28089608Y33270392D01*
X28268932Y33488899D01*
X28402182Y33738192D01*
X28484236Y34008691D01*
X28511943Y34290000D01*
X28484236Y34571309D01*
X28402182Y34841808D01*
X28268932Y35091101D01*
X28089608Y35309608D01*
X27871101Y35488932D01*
X27738142Y35560000D01*
X27871101Y35631068D01*
X28089608Y35810392D01*
X28268932Y36028899D01*
X28402182Y36278192D01*
X28484236Y36548691D01*
X28511943Y36830000D01*
X28484236Y37111309D01*
X28402182Y37381808D01*
X28268932Y37631101D01*
X28089608Y37849608D01*
X27871101Y38028932D01*
X27738142Y38100000D01*
X27871101Y38171068D01*
X28089608Y38350392D01*
X28268932Y38568899D01*
X28402182Y38818192D01*
X28484236Y39088691D01*
X28511943Y39370000D01*
X28484236Y39651309D01*
X28402182Y39921808D01*
X28268932Y40171101D01*
X28089608Y40389608D01*
X27871101Y40568932D01*
X27738142Y40640000D01*
X27871101Y40711068D01*
X28089608Y40890392D01*
X28268932Y41108899D01*
X28402182Y41358192D01*
X28484236Y41628691D01*
X28511943Y41910000D01*
X28484236Y42191309D01*
X28402182Y42461808D01*
X28268932Y42711101D01*
X28089608Y42929608D01*
X27976518Y43022419D01*
X27994482Y43024188D01*
X28114180Y43060498D01*
X28224494Y43119463D01*
X28321185Y43198815D01*
X28400537Y43295506D01*
X28459502Y43405820D01*
X28495812Y43525518D01*
X28508072Y43650000D01*
X28505000Y44164250D01*
X28346250Y44323000D01*
X26797000Y44323000D01*
X26797000Y44303000D01*
X26543000Y44303000D01*
X26543000Y44323000D01*
X24993750Y44323000D01*
X24835000Y44164250D01*
X24831928Y43650000D01*
X24844188Y43525518D01*
X24880498Y43405820D01*
X24939463Y43295506D01*
X25018815Y43198815D01*
X25115506Y43119463D01*
X25225820Y43060498D01*
X25345518Y43024188D01*
X25363482Y43022419D01*
X25250392Y42929608D01*
X25071068Y42711101D01*
X24937818Y42461808D01*
X24857142Y42195853D01*
X24251558Y41590268D01*
X24295000Y41808665D01*
X24295000Y42091335D01*
X24239853Y42368574D01*
X24131680Y42629727D01*
X23974637Y42864759D01*
X23774759Y43064637D01*
X23574131Y43198692D01*
X23601514Y43213329D01*
X23673097Y43457298D01*
X22860000Y44270395D01*
X22046903Y43457298D01*
X22118486Y43213329D01*
X22147341Y43199676D01*
X21945241Y43064637D01*
X21765604Y42885000D01*
X21302289Y42885000D01*
X20620000Y43567289D01*
X20620000Y43769069D01*
X20624524Y43815000D01*
X20620000Y43860935D01*
X20620000Y44379488D01*
X21419783Y44379488D01*
X21461213Y44099870D01*
X21556397Y43833708D01*
X21623329Y43708486D01*
X21867298Y43636903D01*
X22680395Y44450000D01*
X23039605Y44450000D01*
X23852702Y43636903D01*
X24096671Y43708486D01*
X24217571Y43963996D01*
X24286300Y44238184D01*
X24300217Y44520512D01*
X24258787Y44800130D01*
X24163603Y45066292D01*
X24096671Y45191514D01*
X23897340Y45250000D01*
X24831928Y45250000D01*
X24835000Y44735750D01*
X24993750Y44577000D01*
X26543000Y44577000D01*
X26543000Y45726250D01*
X26797000Y45726250D01*
X26797000Y44577000D01*
X28346250Y44577000D01*
X28505000Y44735750D01*
X28508072Y45250000D01*
X28495812Y45374482D01*
X28459502Y45494180D01*
X28400537Y45604494D01*
X28321185Y45701185D01*
X28224494Y45780537D01*
X28114180Y45839502D01*
X27994482Y45875812D01*
X27870000Y45888072D01*
X26955750Y45885000D01*
X26797000Y45726250D01*
X26543000Y45726250D01*
X26384250Y45885000D01*
X25470000Y45888072D01*
X25345518Y45875812D01*
X25225820Y45839502D01*
X25115506Y45780537D01*
X25018815Y45701185D01*
X24939463Y45604494D01*
X24880498Y45494180D01*
X24844188Y45374482D01*
X24831928Y45250000D01*
X23897340Y45250000D01*
X23852702Y45263097D01*
X23039605Y44450000D01*
X22680395Y44450000D01*
X21867298Y45263097D01*
X21623329Y45191514D01*
X21502429Y44936004D01*
X21433700Y44661816D01*
X21419783Y44379488D01*
X20620000Y44379488D01*
X20620000Y44625604D01*
X20799637Y44805241D01*
X20956680Y45040273D01*
X21064853Y45301426D01*
X21092954Y45442702D01*
X22046903Y45442702D01*
X22860000Y44629605D01*
X23673097Y45442702D01*
X23601514Y45686671D01*
X23346004Y45807571D01*
X23071816Y45876300D01*
X22789488Y45890217D01*
X22509870Y45848787D01*
X22243708Y45753603D01*
X22118486Y45686671D01*
X22046903Y45442702D01*
X21092954Y45442702D01*
X21120000Y45578665D01*
X21120000Y45861335D01*
X21064853Y46138574D01*
X20956680Y46399727D01*
X20799637Y46634759D01*
X20599759Y46834637D01*
X20364727Y46991680D01*
X20103574Y47099853D01*
X19826335Y47155000D01*
X19543665Y47155000D01*
X19266426Y47099853D01*
X19005273Y46991680D01*
X18770241Y46834637D01*
X18570363Y46634759D01*
X18413320Y46399727D01*
X18305147Y46138574D01*
X18250000Y45861335D01*
X18250000Y45578665D01*
X18305147Y45301426D01*
X18413320Y45040273D01*
X18570363Y44805241D01*
X18750000Y44625604D01*
X18750000Y44202289D01*
X18662711Y44115000D01*
X18168685Y44115000D01*
X18027886Y44255799D01*
X17801043Y44407371D01*
X17548989Y44511775D01*
X17281411Y44565000D01*
X17008589Y44565000D01*
X16741011Y44511775D01*
X16488957Y44407371D01*
X16262114Y44255799D01*
X16069201Y44062886D01*
X15917629Y43836043D01*
X15813225Y43583989D01*
X15760000Y43316411D01*
X15760000Y43043589D01*
X15813225Y42776011D01*
X15917629Y42523957D01*
X16069201Y42297114D01*
X16262114Y42104201D01*
X16488957Y41952629D01*
X16741011Y41848225D01*
X17008589Y41795000D01*
X17281411Y41795000D01*
X17548989Y41848225D01*
X17801043Y41952629D01*
X18027886Y42104201D01*
X18168685Y42245000D01*
X19004068Y42245000D01*
X19050000Y42240476D01*
X19095932Y42245000D01*
X19297711Y42245000D01*
X20221370Y41321341D01*
X20250656Y41285656D01*
X20393028Y41168814D01*
X20498880Y41112235D01*
X20555459Y41081993D01*
X20731708Y41028528D01*
X20915000Y41010476D01*
X20960935Y41015000D01*
X21765604Y41015000D01*
X21945241Y40835363D01*
X22180273Y40678320D01*
X22441426Y40570147D01*
X22718665Y40515000D01*
X23001335Y40515000D01*
X23219732Y40558442D01*
X22164097Y39502807D01*
X22124604Y39470396D01*
X21995266Y39312797D01*
X21899159Y39132992D01*
X21839976Y38937894D01*
X21825000Y38785837D01*
X21825000Y38785828D01*
X21819994Y38735000D01*
X21825000Y38684172D01*
X21825001Y32744397D01*
X21745363Y32664759D01*
X21588320Y32429727D01*
X21480147Y32168574D01*
X21425000Y31891335D01*
X21425000Y31778711D01*
X20526290Y30880000D01*
X19965558Y30880000D01*
X20069608Y30965392D01*
X20248932Y31183899D01*
X20382182Y31433192D01*
X20464236Y31703691D01*
X20485000Y31914509D01*
X20485000Y32855492D01*
X20464236Y33066309D01*
X20382182Y33336808D01*
X20248932Y33586101D01*
X20069607Y33804608D01*
X19851100Y33983932D01*
X19601807Y34117182D01*
X19576034Y34125000D01*
X19826335Y34125000D01*
X20103574Y34180147D01*
X20364727Y34288320D01*
X20599759Y34445363D01*
X20799637Y34645241D01*
X20956680Y34880273D01*
X21064853Y35141426D01*
X21120000Y35418665D01*
X21120000Y35701335D01*
X21064853Y35978574D01*
X20956680Y36239727D01*
X20799637Y36474759D01*
X20620000Y36654396D01*
X20620000Y36784065D01*
X20624524Y36830000D01*
X20606472Y37013292D01*
X20553007Y37189541D01*
X20522765Y37246120D01*
X20466186Y37351972D01*
X20349344Y37494344D01*
X20313660Y37523629D01*
X18928630Y38908659D01*
X18899344Y38944344D01*
X18756972Y39061186D01*
X18594540Y39148007D01*
X18418292Y39201471D01*
X18280932Y39215000D01*
X18235000Y39219524D01*
X18189068Y39215000D01*
X18168685Y39215000D01*
X18027886Y39355799D01*
X17801043Y39507371D01*
X17548989Y39611775D01*
X17281411Y39665000D01*
X17008589Y39665000D01*
X16741011Y39611775D01*
X16488957Y39507371D01*
X16262114Y39355799D01*
X16069201Y39162886D01*
X15917629Y38936043D01*
X15813225Y38683989D01*
X15760000Y38416411D01*
X15760000Y38143589D01*
X15813225Y37876011D01*
X15917629Y37623957D01*
X16069201Y37397114D01*
X16262114Y37204201D01*
X16488957Y37052629D01*
X16741011Y36948225D01*
X17008589Y36895000D01*
X17281411Y36895000D01*
X17548989Y36948225D01*
X17801043Y37052629D01*
X18004282Y37188429D01*
X18644158Y36548553D01*
X18570363Y36474759D01*
X18413320Y36239727D01*
X18305147Y35978574D01*
X18250000Y35701335D01*
X18250000Y35418665D01*
X18305147Y35141426D01*
X18413320Y34880273D01*
X18570363Y34645241D01*
X18770241Y34445363D01*
X19005273Y34288320D01*
X19185723Y34213575D01*
X19050000Y34226943D01*
X18768691Y34199236D01*
X18498192Y34117182D01*
X18248899Y33983932D01*
X18030392Y33804607D01*
X17851068Y33586100D01*
X17780000Y33453142D01*
X17708932Y33586101D01*
X17529607Y33804608D01*
X17311100Y33983932D01*
X17061807Y34117182D01*
X16791308Y34199236D01*
X16510000Y34226943D01*
X16228691Y34199236D01*
X15958192Y34117182D01*
X15708899Y33983932D01*
X15490392Y33804607D01*
X15311068Y33586100D01*
X15240000Y33453142D01*
X15168932Y33586101D01*
X14989607Y33804608D01*
X14771100Y33983932D01*
X14521807Y34117182D01*
X14251308Y34199236D01*
X13970000Y34226943D01*
X13688691Y34199236D01*
X13418192Y34117182D01*
X13168899Y33983932D01*
X12950392Y33804607D01*
X12771068Y33586100D01*
X12700000Y33453142D01*
X12628932Y33586101D01*
X12449607Y33804608D01*
X12231100Y33983932D01*
X11981807Y34117182D01*
X11711308Y34199236D01*
X11430000Y34226943D01*
X11148691Y34199236D01*
X10878192Y34117182D01*
X10628899Y33983932D01*
X10410392Y33804607D01*
X10231068Y33586100D01*
X10160000Y33453142D01*
X10088932Y33586101D01*
X9909607Y33804608D01*
X9691100Y33983932D01*
X9441807Y34117182D01*
X9171308Y34199236D01*
X8890000Y34226943D01*
X8608691Y34199236D01*
X8338192Y34117182D01*
X8088899Y33983932D01*
X7870392Y33804607D01*
X7691068Y33586100D01*
X7620000Y33453142D01*
X7548932Y33586101D01*
X7369607Y33804608D01*
X7151100Y33983932D01*
X6901807Y34117182D01*
X6631308Y34199236D01*
X6350000Y34226943D01*
X6068691Y34199236D01*
X5798192Y34117182D01*
X5548899Y33983932D01*
X5330392Y33804607D01*
X5151068Y33586100D01*
X5080000Y33453142D01*
X5008932Y33586101D01*
X4829607Y33804608D01*
X4611100Y33983932D01*
X4361807Y34117182D01*
X4091308Y34199236D01*
X3810000Y34226943D01*
X3528691Y34199236D01*
X3258192Y34117182D01*
X3008899Y33983932D01*
X2790392Y33804607D01*
X2611068Y33586100D01*
X2477818Y33336807D01*
X2395764Y33066308D01*
X2375000Y32855491D01*
X2375000Y31914508D01*
X2395764Y31703691D01*
X2477818Y31433192D01*
X2611068Y31183899D01*
X2783956Y30973235D01*
X2789977Y30912105D01*
X2849160Y30717007D01*
X2945266Y30537203D01*
X3039157Y30422797D01*
X3074605Y30379604D01*
X3114092Y30347198D01*
X4312197Y29149092D01*
X4344604Y29109604D01*
X4384092Y29077197D01*
X4502202Y28980266D01*
X4581043Y28938125D01*
X4682007Y28884159D01*
X4877105Y28824976D01*
X5029162Y28810000D01*
X5029171Y28810000D01*
X5079999Y28804994D01*
X5130827Y28810000D01*
X20904172Y28810000D01*
X20955000Y28804994D01*
X21005828Y28810000D01*
X21005838Y28810000D01*
X21157895Y28824976D01*
X21352993Y28884159D01*
X21532797Y28980266D01*
X21690396Y29109604D01*
X21722807Y29149097D01*
X22888711Y30315000D01*
X23001335Y30315000D01*
X23278574Y30370147D01*
X23539727Y30478320D01*
X23774759Y30635363D01*
X23930000Y30790604D01*
X23930000Y27540417D01*
X23852702Y27563097D01*
X23039605Y26750000D01*
X23852702Y25936903D01*
X23930000Y25959583D01*
X23930000Y24475868D01*
X23149133Y23695000D01*
X21631007Y23695000D01*
X21589999Y23699039D01*
X21548991Y23695000D01*
X21548981Y23695000D01*
X21426311Y23682918D01*
X21268913Y23635172D01*
X21123854Y23557636D01*
X20996709Y23453291D01*
X20970561Y23421429D01*
X19601429Y22052297D01*
X19331308Y22134236D01*
X19050000Y22161943D01*
X18768691Y22134236D01*
X18498192Y22052182D01*
X18248899Y21918932D01*
X18030392Y21739607D01*
X17851068Y21521100D01*
X17780000Y21388142D01*
X17708932Y21521101D01*
X17529607Y21739608D01*
X17311100Y21918932D01*
X17061807Y22052182D01*
X16791308Y22134236D01*
X16510000Y22161943D01*
X16228691Y22134236D01*
X15958192Y22052182D01*
X15708899Y21918932D01*
X15490392Y21739607D01*
X15311068Y21521100D01*
X15240000Y21388142D01*
X15168932Y21521101D01*
X14989607Y21739608D01*
X14771100Y21918932D01*
X14521807Y22052182D01*
X14251308Y22134236D01*
X13970000Y22161943D01*
X13688691Y22134236D01*
X13418192Y22052182D01*
X13168899Y21918932D01*
X12950392Y21739607D01*
X12771068Y21521100D01*
X12700000Y21388142D01*
X12628932Y21521101D01*
X12449607Y21739608D01*
X12265000Y21891111D01*
X12265000Y23193888D01*
X12449608Y23345392D01*
X12628932Y23563899D01*
X12700000Y23696858D01*
X12771068Y23563899D01*
X12950393Y23345392D01*
X13168900Y23166068D01*
X13418193Y23032818D01*
X13688692Y22950764D01*
X13970000Y22923057D01*
X14251309Y22950764D01*
X14521808Y23032818D01*
X14771101Y23166068D01*
X14989608Y23345392D01*
X15168932Y23563899D01*
X15240000Y23696858D01*
X15311068Y23563899D01*
X15490393Y23345392D01*
X15708900Y23166068D01*
X15958193Y23032818D01*
X16228692Y22950764D01*
X16510000Y22923057D01*
X16791309Y22950764D01*
X17061808Y23032818D01*
X17311101Y23166068D01*
X17529608Y23345392D01*
X17708932Y23563899D01*
X17777265Y23691741D01*
X17927399Y23462161D01*
X18125105Y23260500D01*
X18358354Y23101285D01*
X18618182Y22990633D01*
X18700961Y22973096D01*
X18923000Y23095085D01*
X18923000Y24638000D01*
X19177000Y24638000D01*
X19177000Y23095085D01*
X19399039Y22973096D01*
X19481818Y22990633D01*
X19741646Y23101285D01*
X19974895Y23260500D01*
X20172601Y23462161D01*
X20327166Y23698517D01*
X20432650Y23960486D01*
X20485000Y24238000D01*
X20485000Y24638000D01*
X19177000Y24638000D01*
X18923000Y24638000D01*
X18903000Y24638000D01*
X18903000Y24892000D01*
X18923000Y24892000D01*
X18923000Y26434915D01*
X19177000Y26434915D01*
X19177000Y24892000D01*
X20485000Y24892000D01*
X20485000Y25292000D01*
X20432650Y25569514D01*
X20357038Y25757298D01*
X22046903Y25757298D01*
X22118486Y25513329D01*
X22373996Y25392429D01*
X22648184Y25323700D01*
X22930512Y25309783D01*
X23210130Y25351213D01*
X23476292Y25446397D01*
X23601514Y25513329D01*
X23673097Y25757298D01*
X22860000Y26570395D01*
X22046903Y25757298D01*
X20357038Y25757298D01*
X20327166Y25831483D01*
X20172601Y26067839D01*
X19974895Y26269500D01*
X19741646Y26428715D01*
X19481818Y26539367D01*
X19399039Y26556904D01*
X19177000Y26434915D01*
X18923000Y26434915D01*
X18700961Y26556904D01*
X18618182Y26539367D01*
X18358354Y26428715D01*
X18125105Y26269500D01*
X17927399Y26067839D01*
X17777265Y25838259D01*
X17708932Y25966101D01*
X17529607Y26184608D01*
X17345000Y26336111D01*
X17345000Y26628982D01*
X17349040Y26670000D01*
X17348106Y26679488D01*
X21419783Y26679488D01*
X21461213Y26399870D01*
X21556397Y26133708D01*
X21623329Y26008486D01*
X21867298Y25936903D01*
X22680395Y26750000D01*
X21867298Y27563097D01*
X21623329Y27491514D01*
X21502429Y27236004D01*
X21433700Y26961816D01*
X21419783Y26679488D01*
X17348106Y26679488D01*
X17332918Y26833688D01*
X17320678Y26874040D01*
X17285172Y26991087D01*
X17207636Y27136146D01*
X17203396Y27141312D01*
X17129439Y27231430D01*
X17129437Y27231432D01*
X17103291Y27263291D01*
X17071432Y27289436D01*
X16618166Y27742702D01*
X22046903Y27742702D01*
X22860000Y26929605D01*
X23673097Y27742702D01*
X23601514Y27986671D01*
X23346004Y28107571D01*
X23071816Y28176300D01*
X22789488Y28190217D01*
X22509870Y28148787D01*
X22243708Y28053603D01*
X22118486Y27986671D01*
X22046903Y27742702D01*
X16618166Y27742702D01*
X16494445Y27866422D01*
X16468291Y27898291D01*
X16341146Y28002636D01*
X16196087Y28080172D01*
X16038689Y28127918D01*
X15916019Y28140000D01*
X15916018Y28140000D01*
X15875000Y28144040D01*
X15833982Y28140000D01*
X8296018Y28140000D01*
X8255000Y28144040D01*
X8213982Y28140000D01*
X8213981Y28140000D01*
X8091311Y28127918D01*
X7947310Y28084236D01*
X7933913Y28080172D01*
X7788854Y28002636D01*
X7762514Y27981019D01*
X7661709Y27898291D01*
X7635562Y27866431D01*
X7058573Y27289441D01*
X7026710Y27263291D01*
X7000562Y27231429D01*
X6922364Y27136145D01*
X6844828Y26991086D01*
X6797082Y26833688D01*
X6791263Y26774605D01*
X5699446Y27866421D01*
X5673291Y27898291D01*
X5546146Y28002636D01*
X5401087Y28080172D01*
X5243689Y28127918D01*
X5121019Y28140000D01*
X5121018Y28140000D01*
X5080000Y28144040D01*
X5038982Y28140000D01*
X2581018Y28140000D01*
X2540000Y28144040D01*
X2498982Y28140000D01*
X2498981Y28140000D01*
X2376311Y28127918D01*
X2232310Y28084236D01*
X2218913Y28080172D01*
X2073854Y28002636D01*
X2047514Y27981019D01*
X1946709Y27898291D01*
X1920562Y27866431D01*
X1343578Y27289445D01*
X1311709Y27263291D01*
X1211604Y27141312D01*
X1207364Y27136145D01*
X1129828Y26991086D01*
X1082082Y26833688D01*
X1065960Y26670000D01*
X660000Y26670000D01*
X660000Y48870000D01*
X75540001Y48870000D01*
X75540000Y660000D01*
G37*
%TD.AperFunction*%
D24*
X25165500Y23205105D02*
X25367161Y23007399D01*
X25596741Y22857265D01*
X25468899Y22788932D01*
X25250392Y22609608D01*
X25071068Y22391101D01*
X24937818Y22141808D01*
X24855764Y21871309D01*
X24828057Y21590000D01*
X24855764Y21308691D01*
X24937818Y21038192D01*
X25071068Y20788899D01*
X25250392Y20570392D01*
X25468899Y20391068D01*
X25601858Y20320000D01*
X25468899Y20248932D01*
X25250392Y20069608D01*
X25071068Y19851101D01*
X24937818Y19601808D01*
X24855764Y19331309D01*
X24828057Y19050000D01*
X24855764Y18768691D01*
X24937818Y18498192D01*
X25071068Y18248899D01*
X25250392Y18030392D01*
X25468899Y17851068D01*
X25601858Y17780000D01*
X25468899Y17708932D01*
X25250392Y17529608D01*
X25071068Y17311101D01*
X24937818Y17061808D01*
X24855764Y16791309D01*
X24828057Y16510000D01*
X24855764Y16228691D01*
X24937818Y15958192D01*
X25071068Y15708899D01*
X25250392Y15490392D01*
X25468899Y15311068D01*
X25601858Y15240000D01*
X25468899Y15168932D01*
X25250392Y14989608D01*
X25071068Y14771101D01*
X24937818Y14521808D01*
X24855764Y14251309D01*
X24828057Y13970000D01*
X24855764Y13688691D01*
X24937818Y13418192D01*
X25071068Y13168899D01*
X25250392Y12950392D01*
X25468899Y12771068D01*
X25601858Y12700000D01*
X25468899Y12628932D01*
X25250392Y12449608D01*
X25071068Y12231101D01*
X24937818Y11981808D01*
X24855764Y11711309D01*
X24828057Y11430000D01*
X24855764Y11148691D01*
X24937818Y10878192D01*
X25071068Y10628899D01*
X25250392Y10410392D01*
X25468899Y10231068D01*
X25718192Y10097818D01*
X25988691Y10015764D01*
X26199508Y9995000D01*
X27140492Y9995000D01*
X27351309Y10015764D01*
X27621808Y10097818D01*
X27871101Y10231068D01*
X28089608Y10410392D01*
X28268932Y10628899D01*
X28375001Y10827340D01*
X28375001Y10201029D01*
X28370960Y10160000D01*
X28387082Y9996312D01*
X28434828Y9838914D01*
X28512364Y9693855D01*
X28534949Y9666335D01*
X28616710Y9566709D01*
X28648574Y9540559D01*
X29645001Y8544131D01*
X29645000Y6943065D01*
X29533368Y6868475D01*
X29326525Y6661632D01*
X29210000Y6487240D01*
X29093475Y6661632D01*
X28886632Y6868475D01*
X28775000Y6943065D01*
X28775000Y6943982D01*
X28779040Y6985000D01*
X28762918Y7148688D01*
X28761351Y7153856D01*
X28715172Y7306087D01*
X28637636Y7451146D01*
X28533291Y7578291D01*
X28501431Y7604438D01*
X27924445Y8181422D01*
X27898291Y8213291D01*
X27771146Y8317636D01*
X27626087Y8395172D01*
X27468689Y8442918D01*
X27346019Y8455000D01*
X27346018Y8455000D01*
X27305000Y8459040D01*
X27263982Y8455000D01*
X23205869Y8455000D01*
X21790000Y9870867D01*
X21790000Y11707298D01*
X22046903Y11707298D01*
X22118486Y11463329D01*
X22373996Y11342429D01*
X22648184Y11273700D01*
X22930512Y11259783D01*
X23210130Y11301213D01*
X23476292Y11396397D01*
X23601514Y11463329D01*
X23673097Y11707298D01*
X22860000Y12520395D01*
X22046903Y11707298D01*
X21790000Y11707298D01*
X21790000Y11909583D01*
X21867298Y11886903D01*
X22680395Y12700000D01*
X23039605Y12700000D01*
X23852702Y11886903D01*
X24096671Y11958486D01*
X24217571Y12213996D01*
X24286300Y12488184D01*
X24300217Y12770512D01*
X24258787Y13050130D01*
X24163603Y13316292D01*
X24096671Y13441514D01*
X23852702Y13513097D01*
X23039605Y12700000D01*
X22680395Y12700000D01*
X21867298Y13513097D01*
X21790000Y13490417D01*
X21790000Y13692702D01*
X22046903Y13692702D01*
X22860000Y12879605D01*
X23673097Y13692702D01*
X23601514Y13936671D01*
X23346004Y14057571D01*
X23071816Y14126300D01*
X22789488Y14140217D01*
X22509870Y14098787D01*
X22243708Y14003603D01*
X22118486Y13936671D01*
X22046903Y13692702D01*
X21790000Y13692702D01*
X21790000Y14563985D01*
X21794040Y14605001D01*
X21787871Y14667636D01*
X21777918Y14768689D01*
X21730172Y14926087D01*
X21652636Y15071146D01*
X21548291Y15198291D01*
X21516426Y15224442D01*
X20304446Y16436421D01*
X20278291Y16468291D01*
X20151146Y16572636D01*
X20006087Y16650172D01*
X19957205Y16665000D01*
X21865604Y16665000D01*
X21945241Y16585363D01*
X22180273Y16428320D01*
X22441426Y16320147D01*
X22718665Y16265000D01*
X23001335Y16265000D01*
X23278574Y16320147D01*
X23539727Y16428320D01*
X23774759Y16585363D01*
X23974637Y16785241D01*
X24131680Y17020273D01*
X24239853Y17281426D01*
X24295000Y17558665D01*
X24295000Y17841335D01*
X24239853Y18118574D01*
X24131680Y18379727D01*
X23974637Y18614759D01*
X23774759Y18814637D01*
X23539727Y18971680D01*
X23278574Y19079853D01*
X23001335Y19135000D01*
X22718665Y19135000D01*
X22441426Y19079853D01*
X22180273Y18971680D01*
X21945241Y18814637D01*
X21865604Y18735000D01*
X19868077Y18735000D01*
X20069608Y18900392D01*
X20248932Y19118899D01*
X20382182Y19368192D01*
X20464236Y19638691D01*
X20485000Y19849509D01*
X20485000Y20574133D01*
X21935868Y22025000D01*
X23453982Y22025000D01*
X23495000Y22020960D01*
X23536018Y22025000D01*
X23536019Y22025000D01*
X23658689Y22037082D01*
X23816087Y22084828D01*
X23961146Y22162364D01*
X24088291Y22266709D01*
X24114446Y22298579D01*
X25106868Y23291000D01*
X25165500Y23205105D01*
%TA.AperFunction,Conductor*%
D25*
G36*
X25165500Y23205105D02*
G01*
X25367161Y23007399D01*
X25596741Y22857265D01*
X25468899Y22788932D01*
X25250392Y22609608D01*
X25071068Y22391101D01*
X24937818Y22141808D01*
X24855764Y21871309D01*
X24828057Y21590000D01*
X24855764Y21308691D01*
X24937818Y21038192D01*
X25071068Y20788899D01*
X25250392Y20570392D01*
X25468899Y20391068D01*
X25601858Y20320000D01*
X25468899Y20248932D01*
X25250392Y20069608D01*
X25071068Y19851101D01*
X24937818Y19601808D01*
X24855764Y19331309D01*
X24828057Y19050000D01*
X24855764Y18768691D01*
X24937818Y18498192D01*
X25071068Y18248899D01*
X25250392Y18030392D01*
X25468899Y17851068D01*
X25601858Y17780000D01*
X25468899Y17708932D01*
X25250392Y17529608D01*
X25071068Y17311101D01*
X24937818Y17061808D01*
X24855764Y16791309D01*
X24828057Y16510000D01*
X24855764Y16228691D01*
X24937818Y15958192D01*
X25071068Y15708899D01*
X25250392Y15490392D01*
X25468899Y15311068D01*
X25601858Y15240000D01*
X25468899Y15168932D01*
X25250392Y14989608D01*
X25071068Y14771101D01*
X24937818Y14521808D01*
X24855764Y14251309D01*
X24828057Y13970000D01*
X24855764Y13688691D01*
X24937818Y13418192D01*
X25071068Y13168899D01*
X25250392Y12950392D01*
X25468899Y12771068D01*
X25601858Y12700000D01*
X25468899Y12628932D01*
X25250392Y12449608D01*
X25071068Y12231101D01*
X24937818Y11981808D01*
X24855764Y11711309D01*
X24828057Y11430000D01*
X24855764Y11148691D01*
X24937818Y10878192D01*
X25071068Y10628899D01*
X25250392Y10410392D01*
X25468899Y10231068D01*
X25718192Y10097818D01*
X25988691Y10015764D01*
X26199508Y9995000D01*
X27140492Y9995000D01*
X27351309Y10015764D01*
X27621808Y10097818D01*
X27871101Y10231068D01*
X28089608Y10410392D01*
X28268932Y10628899D01*
X28375001Y10827340D01*
X28375001Y10201029D01*
X28370960Y10160000D01*
X28387082Y9996312D01*
X28434828Y9838914D01*
X28512364Y9693855D01*
X28534949Y9666335D01*
X28616710Y9566709D01*
X28648574Y9540559D01*
X29645001Y8544131D01*
X29645000Y6943065D01*
X29533368Y6868475D01*
X29326525Y6661632D01*
X29210000Y6487240D01*
X29093475Y6661632D01*
X28886632Y6868475D01*
X28775000Y6943065D01*
X28775000Y6943982D01*
X28779040Y6985000D01*
X28762918Y7148688D01*
X28761351Y7153856D01*
X28715172Y7306087D01*
X28637636Y7451146D01*
X28533291Y7578291D01*
X28501431Y7604438D01*
X27924445Y8181422D01*
X27898291Y8213291D01*
X27771146Y8317636D01*
X27626087Y8395172D01*
X27468689Y8442918D01*
X27346019Y8455000D01*
X27346018Y8455000D01*
X27305000Y8459040D01*
X27263982Y8455000D01*
X23205869Y8455000D01*
X21790000Y9870867D01*
X21790000Y11707298D01*
X22046903Y11707298D01*
X22118486Y11463329D01*
X22373996Y11342429D01*
X22648184Y11273700D01*
X22930512Y11259783D01*
X23210130Y11301213D01*
X23476292Y11396397D01*
X23601514Y11463329D01*
X23673097Y11707298D01*
X22860000Y12520395D01*
X22046903Y11707298D01*
X21790000Y11707298D01*
X21790000Y11909583D01*
X21867298Y11886903D01*
X22680395Y12700000D01*
X23039605Y12700000D01*
X23852702Y11886903D01*
X24096671Y11958486D01*
X24217571Y12213996D01*
X24286300Y12488184D01*
X24300217Y12770512D01*
X24258787Y13050130D01*
X24163603Y13316292D01*
X24096671Y13441514D01*
X23852702Y13513097D01*
X23039605Y12700000D01*
X22680395Y12700000D01*
X21867298Y13513097D01*
X21790000Y13490417D01*
X21790000Y13692702D01*
X22046903Y13692702D01*
X22860000Y12879605D01*
X23673097Y13692702D01*
X23601514Y13936671D01*
X23346004Y14057571D01*
X23071816Y14126300D01*
X22789488Y14140217D01*
X22509870Y14098787D01*
X22243708Y14003603D01*
X22118486Y13936671D01*
X22046903Y13692702D01*
X21790000Y13692702D01*
X21790000Y14563985D01*
X21794040Y14605001D01*
X21787871Y14667636D01*
X21777918Y14768689D01*
X21730172Y14926087D01*
X21652636Y15071146D01*
X21548291Y15198291D01*
X21516426Y15224442D01*
X20304446Y16436421D01*
X20278291Y16468291D01*
X20151146Y16572636D01*
X20006087Y16650172D01*
X19957205Y16665000D01*
X21865604Y16665000D01*
X21945241Y16585363D01*
X22180273Y16428320D01*
X22441426Y16320147D01*
X22718665Y16265000D01*
X23001335Y16265000D01*
X23278574Y16320147D01*
X23539727Y16428320D01*
X23774759Y16585363D01*
X23974637Y16785241D01*
X24131680Y17020273D01*
X24239853Y17281426D01*
X24295000Y17558665D01*
X24295000Y17841335D01*
X24239853Y18118574D01*
X24131680Y18379727D01*
X23974637Y18614759D01*
X23774759Y18814637D01*
X23539727Y18971680D01*
X23278574Y19079853D01*
X23001335Y19135000D01*
X22718665Y19135000D01*
X22441426Y19079853D01*
X22180273Y18971680D01*
X21945241Y18814637D01*
X21865604Y18735000D01*
X19868077Y18735000D01*
X20069608Y18900392D01*
X20248932Y19118899D01*
X20382182Y19368192D01*
X20464236Y19638691D01*
X20485000Y19849509D01*
X20485000Y20574133D01*
X21935868Y22025000D01*
X23453982Y22025000D01*
X23495000Y22020960D01*
X23536018Y22025000D01*
X23536019Y22025000D01*
X23658689Y22037082D01*
X23816087Y22084828D01*
X23961146Y22162364D01*
X24088291Y22266709D01*
X24114446Y22298579D01*
X25106868Y23291000D01*
X25165500Y23205105D01*
G37*
%TD.AperFunction*%
D24*
X47005558Y24838574D02*
X47031709Y24806709D01*
X47158854Y24702364D01*
X47303913Y24624828D01*
X47461311Y24577082D01*
X47583981Y24565000D01*
X47583983Y24565000D01*
X47624999Y24560960D01*
X47666015Y24565000D01*
X52359132Y24565000D01*
X52505000Y24419132D01*
X52505001Y19091028D01*
X52500960Y19050000D01*
X52517082Y18886312D01*
X52564828Y18728914D01*
X52642364Y18583855D01*
X52658056Y18564734D01*
X52746710Y18456709D01*
X52778574Y18430559D01*
X56315000Y14894131D01*
X56315000Y10270868D01*
X54594446Y11991421D01*
X54568291Y12023291D01*
X54441146Y12127636D01*
X54296087Y12205172D01*
X54138689Y12252918D01*
X54016019Y12265000D01*
X54016018Y12265000D01*
X53975000Y12269040D01*
X53933982Y12265000D01*
X51780869Y12265000D01*
X50162485Y13883383D01*
X50235512Y13879783D01*
X50515130Y13921213D01*
X50781292Y14016397D01*
X50906514Y14083329D01*
X50978097Y14327298D01*
X50165000Y15140395D01*
X50150858Y15126252D01*
X49971253Y15305857D01*
X49985395Y15320000D01*
X50344605Y15320000D01*
X51157702Y14506903D01*
X51401671Y14578486D01*
X51522571Y14833996D01*
X51591300Y15108184D01*
X51605217Y15390512D01*
X51563787Y15670130D01*
X51468603Y15936292D01*
X51401671Y16061514D01*
X51157702Y16133097D01*
X50344605Y15320000D01*
X49985395Y15320000D01*
X49172298Y16133097D01*
X48928329Y16061514D01*
X48807429Y15806004D01*
X48738700Y15531816D01*
X48728146Y15317721D01*
X48460000Y15585867D01*
X48460000Y16312702D01*
X49351903Y16312702D01*
X50165000Y15499605D01*
X50978097Y16312702D01*
X50906514Y16556671D01*
X50651004Y16677571D01*
X50376816Y16746300D01*
X50094488Y16760217D01*
X49814870Y16718787D01*
X49548708Y16623603D01*
X49423486Y16556671D01*
X49351903Y16312702D01*
X48460000Y16312702D01*
X48460000Y20461335D01*
X48730000Y20461335D01*
X48730000Y20178665D01*
X48785147Y19901426D01*
X48893320Y19640273D01*
X49050363Y19405241D01*
X49250241Y19205363D01*
X49485273Y19048320D01*
X49746426Y18940147D01*
X50023665Y18885000D01*
X50306335Y18885000D01*
X50583574Y18940147D01*
X50844727Y19048320D01*
X51079759Y19205363D01*
X51279637Y19405241D01*
X51436680Y19640273D01*
X51544853Y19901426D01*
X51600000Y20178665D01*
X51600000Y20461335D01*
X51544853Y20738574D01*
X51436680Y20999727D01*
X51279637Y21234759D01*
X51079759Y21434637D01*
X50844727Y21591680D01*
X50583574Y21699853D01*
X50306335Y21755000D01*
X50023665Y21755000D01*
X49746426Y21699853D01*
X49485273Y21591680D01*
X49250241Y21434637D01*
X49050363Y21234759D01*
X48893320Y20999727D01*
X48785147Y20738574D01*
X48730000Y20461335D01*
X48460000Y20461335D01*
X48460000Y22818993D01*
X48464039Y22860001D01*
X48460000Y22901009D01*
X48460000Y22901019D01*
X48447918Y23023689D01*
X48400172Y23181087D01*
X48322636Y23326146D01*
X48218291Y23453291D01*
X48186427Y23479441D01*
X45920000Y25745867D01*
X45920000Y25924133D01*
X47005558Y24838574D01*
%TA.AperFunction,Conductor*%
D25*
G36*
X47005558Y24838574D02*
G01*
X47031709Y24806709D01*
X47158854Y24702364D01*
X47303913Y24624828D01*
X47461311Y24577082D01*
X47583981Y24565000D01*
X47583983Y24565000D01*
X47624999Y24560960D01*
X47666015Y24565000D01*
X52359132Y24565000D01*
X52505000Y24419132D01*
X52505001Y19091028D01*
X52500960Y19050000D01*
X52517082Y18886312D01*
X52564828Y18728914D01*
X52642364Y18583855D01*
X52658056Y18564734D01*
X52746710Y18456709D01*
X52778574Y18430559D01*
X56315000Y14894131D01*
X56315000Y10270868D01*
X54594446Y11991421D01*
X54568291Y12023291D01*
X54441146Y12127636D01*
X54296087Y12205172D01*
X54138689Y12252918D01*
X54016019Y12265000D01*
X54016018Y12265000D01*
X53975000Y12269040D01*
X53933982Y12265000D01*
X51780869Y12265000D01*
X50162485Y13883383D01*
X50235512Y13879783D01*
X50515130Y13921213D01*
X50781292Y14016397D01*
X50906514Y14083329D01*
X50978097Y14327298D01*
X50165000Y15140395D01*
X50150858Y15126252D01*
X49971253Y15305857D01*
X49985395Y15320000D01*
X50344605Y15320000D01*
X51157702Y14506903D01*
X51401671Y14578486D01*
X51522571Y14833996D01*
X51591300Y15108184D01*
X51605217Y15390512D01*
X51563787Y15670130D01*
X51468603Y15936292D01*
X51401671Y16061514D01*
X51157702Y16133097D01*
X50344605Y15320000D01*
X49985395Y15320000D01*
X49172298Y16133097D01*
X48928329Y16061514D01*
X48807429Y15806004D01*
X48738700Y15531816D01*
X48728146Y15317721D01*
X48460000Y15585867D01*
X48460000Y16312702D01*
X49351903Y16312702D01*
X50165000Y15499605D01*
X50978097Y16312702D01*
X50906514Y16556671D01*
X50651004Y16677571D01*
X50376816Y16746300D01*
X50094488Y16760217D01*
X49814870Y16718787D01*
X49548708Y16623603D01*
X49423486Y16556671D01*
X49351903Y16312702D01*
X48460000Y16312702D01*
X48460000Y20461335D01*
X48730000Y20461335D01*
X48730000Y20178665D01*
X48785147Y19901426D01*
X48893320Y19640273D01*
X49050363Y19405241D01*
X49250241Y19205363D01*
X49485273Y19048320D01*
X49746426Y18940147D01*
X50023665Y18885000D01*
X50306335Y18885000D01*
X50583574Y18940147D01*
X50844727Y19048320D01*
X51079759Y19205363D01*
X51279637Y19405241D01*
X51436680Y19640273D01*
X51544853Y19901426D01*
X51600000Y20178665D01*
X51600000Y20461335D01*
X51544853Y20738574D01*
X51436680Y20999727D01*
X51279637Y21234759D01*
X51079759Y21434637D01*
X50844727Y21591680D01*
X50583574Y21699853D01*
X50306335Y21755000D01*
X50023665Y21755000D01*
X49746426Y21699853D01*
X49485273Y21591680D01*
X49250241Y21434637D01*
X49050363Y21234759D01*
X48893320Y20999727D01*
X48785147Y20738574D01*
X48730000Y20461335D01*
X48460000Y20461335D01*
X48460000Y22818993D01*
X48464039Y22860001D01*
X48460000Y22901009D01*
X48460000Y22901019D01*
X48447918Y23023689D01*
X48400172Y23181087D01*
X48322636Y23326146D01*
X48218291Y23453291D01*
X48186427Y23479441D01*
X45920000Y25745867D01*
X45920000Y25924133D01*
X47005558Y24838574D01*
G37*
%TD.AperFunction*%
D24*
X28375001Y25441028D02*
X28370960Y25400000D01*
X28387082Y25236312D01*
X28434828Y25078914D01*
X28512364Y24933855D01*
X28535904Y24905172D01*
X28616710Y24806709D01*
X28648574Y24780559D01*
X29284132Y24145000D01*
X29083439Y24145000D01*
X28835179Y24095619D01*
X28601324Y23998753D01*
X28411817Y23872128D01*
X28339915Y24003000D01*
X26797000Y24003000D01*
X26797000Y23983000D01*
X26543000Y23983000D01*
X26543000Y24003000D01*
X26523000Y24003000D01*
X26523000Y24257000D01*
X26543000Y24257000D01*
X26543000Y24277000D01*
X26797000Y24277000D01*
X26797000Y24257000D01*
X28339915Y24257000D01*
X28461904Y24479039D01*
X28444367Y24561818D01*
X28333715Y24821646D01*
X28174500Y25054895D01*
X27972839Y25252601D01*
X27743259Y25402735D01*
X27871101Y25471068D01*
X28089608Y25650392D01*
X28268932Y25868899D01*
X28375001Y26067339D01*
X28375001Y25441028D01*
%TA.AperFunction,Conductor*%
D25*
G36*
X28375001Y25441028D02*
G01*
X28370960Y25400000D01*
X28387082Y25236312D01*
X28434828Y25078914D01*
X28512364Y24933855D01*
X28535904Y24905172D01*
X28616710Y24806709D01*
X28648574Y24780559D01*
X29284132Y24145000D01*
X29083439Y24145000D01*
X28835179Y24095619D01*
X28601324Y23998753D01*
X28411817Y23872128D01*
X28339915Y24003000D01*
X26797000Y24003000D01*
X26797000Y23983000D01*
X26543000Y23983000D01*
X26543000Y24003000D01*
X26523000Y24003000D01*
X26523000Y24257000D01*
X26543000Y24257000D01*
X26543000Y24277000D01*
X26797000Y24277000D01*
X26797000Y24257000D01*
X28339915Y24257000D01*
X28461904Y24479039D01*
X28444367Y24561818D01*
X28333715Y24821646D01*
X28174500Y25054895D01*
X27972839Y25252601D01*
X27743259Y25402735D01*
X27871101Y25471068D01*
X28089608Y25650392D01*
X28268932Y25868899D01*
X28375001Y26067339D01*
X28375001Y25441028D01*
G37*
%TD.AperFunction*%
%TD*%
M02*
