M48
; DRILL file {KiCad (5.1.12)-1} date 01/17/23 22:16:08
; FORMAT={-:-/ absolute / inch / decimal}
; #@! TF.CreationDate,2023-01-17T22:16:08+01:00
; #@! TF.GenerationSoftware,Kicad,Pcbnew,(5.1.12)-1
; #@! TF.FileFunction,Plated,1,2,PTH
FMAT,2
INCH
T1C0.0315
T2C0.0390
T3C0.0394
T4C0.0512
T5C0.1260
%
G90
G05
T1
X0.35Y0.37
X0.5469Y0.37
T2
X2.68Y0.765
X2.8572Y0.765
T3
X0.4088Y0.545
X0.445Y0.21
X0.4633Y0.65
X0.5178Y0.545
X0.545Y0.21
X0.5724Y0.65
X0.6269Y0.545
X0.645Y0.21
X0.6814Y0.65
X0.7359Y0.545
X0.745Y0.21
X0.7905Y0.65
X0.845Y0.545
X0.845Y0.21
X0.945Y0.21
X1.045Y0.21
X1.645Y0.535
X1.645Y0.435
X1.645Y0.21
X1.645Y0.11
X1.745Y0.535
X1.745Y0.435
X1.745Y0.21
X1.745Y0.11
X1.845Y0.535
X1.845Y0.435
X1.845Y0.21
X1.845Y0.11
X1.945Y0.535
X1.945Y0.435
X1.945Y0.21
X1.945Y0.11
X2.045Y0.535
X2.045Y0.435
X2.045Y0.21
X2.045Y0.11
X2.145Y0.535
X2.145Y0.435
X2.145Y0.21
X2.145Y0.11
X2.245Y0.535
X2.245Y0.435
X2.245Y0.21
X2.245Y0.11
T4
X2.6308Y0.667
X2.9068Y0.667
T5
X0.135Y0.6
X0.17Y0.285
X1.119Y0.6
X2.52Y0.185
T0
M30
