%TF.GenerationSoftware,KiCad,Pcbnew,(5.1.12)-1*%
%TF.CreationDate,2023-01-17T22:16:04+01:00*%
%TF.ProjectId,Connectors,436f6e6e-6563-4746-9f72-732e6b696361,rev?*%
%TF.SameCoordinates,PX7065700PY5b33698*%
%TF.FileFunction,Copper,L2,Bot*%
%TF.FilePolarity,Positive*%
%FSLAX46Y46*%
G04 Gerber Fmt 4.6, Leading zero omitted, Abs format (unit mm)*
G04 Created by KiCad (PCBNEW (5.1.12)-1) date 2023-01-17 22:16:04*
%MOMM*%
%LPD*%
G01*
G04 APERTURE LIST*
%TA.AperFunction,ComponentPad*%
%ADD10O,2.500000X2.100000*%
%TD*%
%TA.AperFunction,ComponentPad*%
%ADD11C,1.750000*%
%TD*%
%TA.AperFunction,ComponentPad*%
%ADD12C,1.600000*%
%TD*%
%TA.AperFunction,ComponentPad*%
%ADD13C,4.000000*%
%TD*%
%TA.AperFunction,ComponentPad*%
%ADD14R,1.700000X1.700000*%
%TD*%
%TA.AperFunction,ComponentPad*%
%ADD15C,1.700000*%
%TD*%
%TA.AperFunction,ComponentPad*%
%ADD16O,1.700000X1.700000*%
%TD*%
%TA.AperFunction,ComponentPad*%
%ADD17C,5.600000*%
%TD*%
%TA.AperFunction,Conductor*%
%ADD18C,0.400000*%
%TD*%
%TA.AperFunction,Conductor*%
%ADD19C,0.600000*%
%TD*%
%TA.AperFunction,Conductor*%
%ADD20C,0.500000*%
%TD*%
%TA.AperFunction,Conductor*%
%ADD21C,0.254000*%
%TD*%
%TA.AperFunction,Conductor*%
%ADD22C,0.100000*%
%TD*%
G04 APERTURE END LIST*
D10*
%TO.P,SW1,*%
%TO.N,*%
X66822000Y16941000D03*
D11*
%TO.P,SW1,1*%
%TO.N,GND*%
X68072000Y19431000D03*
%TO.P,SW1,2*%
%TO.N,Net-(J13-Pad5)*%
X72572000Y19431000D03*
D10*
%TO.P,SW1,*%
%TO.N,*%
X73832000Y16941000D03*
%TD*%
D12*
%TO.P,C1,2*%
%TO.N,GND*%
X13890000Y9398000D03*
%TO.P,C1,1*%
%TO.N,VCC*%
X8890000Y9398000D03*
%TD*%
D13*
%TO.P,J15,0*%
%TO.N,N/C*%
X3429000Y15240000D03*
X28423000Y15240000D03*
D12*
%TO.P,J15,9*%
%TO.N,Net-(J15-Pad9)*%
X11768000Y16510000D03*
%TO.P,J15,8*%
%TO.N,GND*%
X14538000Y16510000D03*
%TO.P,J15,7*%
%TO.N,Net-(J14-Pad4)*%
X17308000Y16510000D03*
%TO.P,J15,6*%
%TO.N,Net-(J14-Pad6)*%
X20078000Y16510000D03*
%TO.P,J15,5*%
%TO.N,Net-(J15-Pad5)*%
X10383000Y13843000D03*
%TO.P,J15,4*%
%TO.N,VCC*%
X13153000Y13843000D03*
%TO.P,J15,3*%
%TO.N,Net-(J14-Pad3)*%
X15923000Y13843000D03*
%TO.P,J15,2*%
%TO.N,Net-(J14-Pad5)*%
X18693000Y13843000D03*
D14*
%TO.P,J15,1*%
%TO.N,Net-(J14-Pad7)*%
X21463000Y13843000D03*
%TD*%
D15*
%TO.P,J16,14*%
%TO.N,GND*%
X57023000Y13589000D03*
%TO.P,J16,12*%
%TO.N,Net-(J13-Pad4)*%
X54483000Y13589000D03*
%TO.P,J16,10*%
%TO.N,Net-(J16-Pad10)*%
X51943000Y13589000D03*
%TO.P,J16,8*%
%TO.N,Net-(J13-Pad8)*%
X49403000Y13589000D03*
%TO.P,J16,6*%
%TO.N,Net-(J13-Pad10)*%
X46863000Y13589000D03*
%TO.P,J16,4*%
%TO.N,Net-(J13-Pad12)*%
X44323000Y13589000D03*
%TO.P,J16,2*%
%TO.N,Net-(J13-Pad14)*%
X41783000Y13589000D03*
%TO.P,J16,13*%
%TO.N,Net-(J13-Pad1)*%
X57023000Y11049000D03*
%TO.P,J16,11*%
%TO.N,Net-(J13-Pad3)*%
X54483000Y11049000D03*
%TO.P,J16,9*%
%TO.N,Net-(J16-Pad9)*%
X51943000Y11049000D03*
%TO.P,J16,7*%
%TO.N,Net-(J13-Pad7)*%
X49403000Y11049000D03*
%TO.P,J16,5*%
%TO.N,Net-(J13-Pad9)*%
X46863000Y11049000D03*
%TO.P,J16,3*%
%TO.N,Net-(J13-Pad11)*%
X44323000Y11049000D03*
%TO.P,J16,1*%
%TO.N,GND*%
%TA.AperFunction,ComponentPad*%
G36*
G01*
X42383000Y10199000D02*
X41183000Y10199000D01*
G75*
G02*
X40933000Y10449000I0J250000D01*
G01*
X40933000Y11649000D01*
G75*
G02*
X41183000Y11899000I250000J0D01*
G01*
X42383000Y11899000D01*
G75*
G02*
X42633000Y11649000I0J-250000D01*
G01*
X42633000Y10449000D01*
G75*
G02*
X42383000Y10199000I-250000J0D01*
G01*
G37*
%TD.AperFunction*%
%TD*%
D16*
%TO.P,J14,7*%
%TO.N,Net-(J14-Pad7)*%
X26543000Y5334000D03*
%TO.P,J14,6*%
%TO.N,Net-(J14-Pad6)*%
X24003000Y5334000D03*
%TO.P,J14,5*%
%TO.N,Net-(J14-Pad5)*%
X21463000Y5334000D03*
%TO.P,J14,4*%
%TO.N,Net-(J14-Pad4)*%
X18923000Y5334000D03*
%TO.P,J14,3*%
%TO.N,Net-(J14-Pad3)*%
X16383000Y5334000D03*
%TO.P,J14,2*%
%TO.N,GND*%
X13843000Y5334000D03*
D14*
%TO.P,J14,1*%
%TO.N,VCC*%
X11303000Y5334000D03*
%TD*%
D16*
%TO.P,J13,14*%
%TO.N,Net-(J13-Pad14)*%
X41783000Y5334000D03*
%TO.P,J13,13*%
%TO.N,GND*%
X41783000Y2794000D03*
%TO.P,J13,12*%
%TO.N,Net-(J13-Pad12)*%
X44323000Y5334000D03*
%TO.P,J13,11*%
%TO.N,Net-(J13-Pad11)*%
X44323000Y2794000D03*
%TO.P,J13,10*%
%TO.N,Net-(J13-Pad10)*%
X46863000Y5334000D03*
%TO.P,J13,9*%
%TO.N,Net-(J13-Pad9)*%
X46863000Y2794000D03*
%TO.P,J13,8*%
%TO.N,Net-(J13-Pad8)*%
X49403000Y5334000D03*
%TO.P,J13,7*%
%TO.N,Net-(J13-Pad7)*%
X49403000Y2794000D03*
%TO.P,J13,6*%
%TO.N,Net-(J13-Pad6)*%
X51943000Y5334000D03*
%TO.P,J13,5*%
%TO.N,Net-(J13-Pad5)*%
X51943000Y2794000D03*
%TO.P,J13,4*%
%TO.N,Net-(J13-Pad4)*%
X54483000Y5334000D03*
%TO.P,J13,3*%
%TO.N,Net-(J13-Pad3)*%
X54483000Y2794000D03*
%TO.P,J13,2*%
%TO.N,GND*%
X57023000Y5334000D03*
D14*
%TO.P,J13,1*%
%TO.N,Net-(J13-Pad1)*%
X57023000Y2794000D03*
%TD*%
D17*
%TO.P,H2,1*%
%TO.N,N/C*%
X64008000Y4699000D03*
%TD*%
%TO.P,H1,1*%
%TO.N,N/C*%
X4318000Y7239000D03*
%TD*%
D18*
%TO.N,Net-(J13-Pad14)*%
X41783000Y7493000D02*
X41783000Y5334000D01*
X40386000Y8890000D02*
X41783000Y7493000D01*
X40386000Y12192000D02*
X40386000Y8890000D01*
X41783000Y13589000D02*
X40386000Y12192000D01*
%TO.N,Net-(J13-Pad12)*%
X44323000Y7493000D02*
X44323000Y5334000D01*
X43053000Y8763000D02*
X44323000Y7493000D01*
X43053000Y12319000D02*
X43053000Y8763000D01*
X44323000Y13589000D02*
X43053000Y12319000D01*
%TO.N,Net-(J13-Pad11)*%
X45593000Y4064000D02*
X44323000Y2794000D01*
X45593000Y7493000D02*
X45593000Y4064000D01*
X44323000Y8763000D02*
X45593000Y7493000D01*
X44323000Y11049000D02*
X44323000Y8763000D01*
%TO.N,Net-(J13-Pad10)*%
X46863000Y7493000D02*
X46863000Y5334000D01*
X45593000Y8763000D02*
X46863000Y7493000D01*
X45593000Y12192000D02*
X45593000Y8763000D01*
X46863000Y13462000D02*
X45593000Y12192000D01*
X46863000Y13589000D02*
X46863000Y13462000D01*
%TO.N,Net-(J13-Pad9)*%
X48133000Y4064000D02*
X46863000Y2794000D01*
X48133000Y7493000D02*
X48133000Y4064000D01*
X46863000Y8763000D02*
X48133000Y7493000D01*
X46863000Y11049000D02*
X46863000Y8763000D01*
%TO.N,Net-(J13-Pad8)*%
X49403000Y7493000D02*
X49403000Y5334000D01*
X48133000Y8763000D02*
X49403000Y7493000D01*
X48133000Y12319000D02*
X48133000Y8763000D01*
X49403000Y13589000D02*
X48133000Y12319000D01*
%TO.N,Net-(J13-Pad7)*%
X50673000Y4064000D02*
X49403000Y2794000D01*
X50673000Y7493000D02*
X50673000Y4064000D01*
X49403000Y8763000D02*
X50673000Y7493000D01*
X49403000Y11049000D02*
X49403000Y8763000D01*
%TO.N,Net-(J13-Pad5)*%
X51943000Y2794000D02*
X51943000Y1905000D01*
X51943000Y1905000D02*
X52705000Y1143000D01*
X52705000Y1143000D02*
X58674000Y1143000D01*
X58674000Y1143000D02*
X59817000Y2286000D01*
X59817000Y2286000D02*
X59817000Y9652000D01*
X59817000Y9652000D02*
X62103000Y11938000D01*
X62103000Y11938000D02*
X69342000Y11938000D01*
X69342000Y11938000D02*
X70612000Y13208000D01*
X70612000Y17471000D02*
X72572000Y19431000D01*
X70612000Y13208000D02*
X70612000Y17471000D01*
%TO.N,Net-(J13-Pad4)*%
X54483000Y7620000D02*
X54483000Y5334000D01*
X53213000Y8890000D02*
X54483000Y7620000D01*
X53213000Y12319000D02*
X53213000Y8890000D01*
X54483000Y13589000D02*
X53213000Y12319000D01*
%TO.N,Net-(J13-Pad3)*%
X55733001Y4044001D02*
X54483000Y2794000D01*
X55733001Y7639999D02*
X55733001Y4044001D01*
X54483000Y8890000D02*
X55733001Y7639999D01*
X54483000Y11049000D02*
X54483000Y8890000D01*
%TO.N,Net-(J13-Pad1)*%
X57023000Y11049000D02*
X57023000Y9398000D01*
X57023000Y9398000D02*
X58547000Y7874000D01*
X58547000Y4318000D02*
X57023000Y2794000D01*
X58547000Y7874000D02*
X58547000Y4318000D01*
D19*
%TO.N,Net-(J14-Pad7)*%
X21463000Y13843000D02*
X23495000Y13843000D01*
X26543000Y10795000D02*
X26543000Y5334000D01*
X23495000Y13843000D02*
X26543000Y10795000D01*
%TO.N,Net-(J14-Pad6)*%
X20078000Y16510000D02*
X20078000Y12307000D01*
X24003000Y8382000D02*
X24003000Y5334000D01*
X20078000Y12307000D02*
X24003000Y8382000D01*
%TO.N,Net-(J14-Pad5)*%
X18693000Y13843000D02*
X18693000Y11787000D01*
X21463000Y9017000D02*
X21463000Y5334000D01*
X18693000Y11787000D02*
X21463000Y9017000D01*
%TO.N,Net-(J14-Pad4)*%
X18923000Y9652000D02*
X18923000Y5334000D01*
X17308000Y11267000D02*
X18923000Y9652000D01*
X17308000Y16510000D02*
X17308000Y11267000D01*
%TO.N,Net-(J14-Pad3)*%
X16383000Y5334000D02*
X16383000Y10033000D01*
X15923000Y10493000D02*
X15923000Y13843000D01*
X16383000Y10033000D02*
X15923000Y10493000D01*
D20*
%TO.N,GND*%
X42037000Y2667000D02*
X42037000Y2921000D01*
D18*
X41783000Y11049000D02*
X41783000Y8763000D01*
X41783000Y8763000D02*
X43053000Y7493000D01*
X43053000Y4064000D02*
X41783000Y2794000D01*
X43053000Y7493000D02*
X43053000Y4064000D01*
X57023000Y7620000D02*
X57023000Y5334000D01*
X55753000Y8890000D02*
X57023000Y7620000D01*
X55753000Y12319000D02*
X55753000Y8890000D01*
X57023000Y13589000D02*
X55753000Y12319000D01*
D19*
X14538000Y16510000D02*
X14538000Y10855000D01*
X13843000Y10160000D02*
X13843000Y5334000D01*
X14538000Y10855000D02*
X13843000Y10160000D01*
%TO.N,VCC*%
X11176000Y9398000D02*
X11303000Y9525000D01*
X8890000Y9398000D02*
X11176000Y9398000D01*
X11303000Y5334000D02*
X11303000Y9525000D01*
X13153000Y11375000D02*
X13153000Y13843000D01*
X11303000Y9525000D02*
X13153000Y11375000D01*
%TD*%
D21*
%TO.N,GND*%
X76048001Y660000D02*
X59371867Y660000D01*
X60378428Y1666560D01*
X60410291Y1692709D01*
X60514636Y1819854D01*
X60592172Y1964913D01*
X60639918Y2122311D01*
X60652000Y2244981D01*
X60652000Y2244982D01*
X60656040Y2285999D01*
X60652000Y2327018D01*
X60652000Y3963525D01*
X60705006Y3697048D01*
X60963943Y3071918D01*
X61339862Y2509315D01*
X61818315Y2030862D01*
X62380918Y1654943D01*
X63006048Y1396006D01*
X63669682Y1264000D01*
X64346318Y1264000D01*
X65009952Y1396006D01*
X65635082Y1654943D01*
X66197685Y2030862D01*
X66676138Y2509315D01*
X67052057Y3071918D01*
X67310994Y3697048D01*
X67443000Y4360682D01*
X67443000Y5037318D01*
X67310994Y5700952D01*
X67052057Y6326082D01*
X66676138Y6888685D01*
X66197685Y7367138D01*
X65635082Y7743057D01*
X65009952Y8001994D01*
X64346318Y8134000D01*
X63669682Y8134000D01*
X63006048Y8001994D01*
X62380918Y7743057D01*
X61818315Y7367138D01*
X61339862Y6888685D01*
X60963943Y6326082D01*
X60705006Y5700952D01*
X60652000Y5434475D01*
X60652000Y9306133D01*
X62448868Y11103000D01*
X69300982Y11103000D01*
X69342000Y11098960D01*
X69383018Y11103000D01*
X69383019Y11103000D01*
X69505689Y11115082D01*
X69663087Y11162828D01*
X69808146Y11240364D01*
X69935291Y11344709D01*
X69961446Y11376579D01*
X71173428Y12588560D01*
X71205291Y12614709D01*
X71309636Y12741854D01*
X71387172Y12886913D01*
X71434918Y13044311D01*
X71447000Y13166981D01*
X71447000Y13166983D01*
X71451040Y13207999D01*
X71447000Y13249015D01*
X71447000Y17125133D01*
X72272800Y17950932D01*
X72279885Y17949523D01*
X72224196Y17881665D01*
X72067732Y17588941D01*
X71971381Y17271318D01*
X71938848Y16941000D01*
X71971381Y16610682D01*
X72067732Y16293059D01*
X72224196Y16000335D01*
X72434761Y15743761D01*
X72691335Y15533196D01*
X72984059Y15376732D01*
X73301682Y15280381D01*
X73549230Y15256000D01*
X74114770Y15256000D01*
X74362318Y15280381D01*
X74679941Y15376732D01*
X74972665Y15533196D01*
X75229239Y15743761D01*
X75439804Y16000335D01*
X75596268Y16293059D01*
X75692619Y16610682D01*
X75725152Y16941000D01*
X75692619Y17271318D01*
X75596268Y17588941D01*
X75439804Y17881665D01*
X75229239Y18138239D01*
X74972665Y18348804D01*
X74679941Y18505268D01*
X74362318Y18601619D01*
X74114770Y18626000D01*
X73850177Y18626000D01*
X73910144Y18715747D01*
X74023971Y18990549D01*
X74082000Y19282278D01*
X74082000Y19579722D01*
X74023971Y19871451D01*
X73910144Y20146253D01*
X73744893Y20393569D01*
X73534569Y20603893D01*
X73287253Y20769144D01*
X73012451Y20882971D01*
X72720722Y20941000D01*
X72423278Y20941000D01*
X72131549Y20882971D01*
X71856747Y20769144D01*
X71609431Y20603893D01*
X71399107Y20393569D01*
X71233856Y20146253D01*
X71120029Y19871451D01*
X71062000Y19579722D01*
X71062000Y19282278D01*
X71091932Y19131800D01*
X70050574Y18090441D01*
X70018710Y18064291D01*
X69937907Y17965832D01*
X69914364Y17937145D01*
X69836828Y17792086D01*
X69789082Y17634688D01*
X69772960Y17471000D01*
X69777001Y17429972D01*
X69777000Y13553868D01*
X68996133Y12773000D01*
X62144018Y12773000D01*
X62102999Y12777040D01*
X62061981Y12773000D01*
X61939311Y12760918D01*
X61781913Y12713172D01*
X61636854Y12635636D01*
X61509709Y12531291D01*
X61483561Y12499429D01*
X59255574Y10271441D01*
X59223710Y10245291D01*
X59197562Y10213429D01*
X59119364Y10118145D01*
X59041828Y9973086D01*
X58994082Y9815688D01*
X58977960Y9652000D01*
X58982001Y9610972D01*
X58982001Y8619867D01*
X57858000Y9743867D01*
X57858000Y9820935D01*
X57969632Y9895525D01*
X58176475Y10102368D01*
X58338990Y10345589D01*
X58450932Y10615842D01*
X58508000Y10902740D01*
X58508000Y11195260D01*
X58450932Y11482158D01*
X58338990Y11752411D01*
X58176475Y11995632D01*
X57969632Y12202475D01*
X57796271Y12318311D01*
X57871792Y12560603D01*
X57023000Y13409395D01*
X56174208Y12560603D01*
X56249729Y12318311D01*
X56076368Y12202475D01*
X55869525Y11995632D01*
X55753000Y11821240D01*
X55636475Y11995632D01*
X55429632Y12202475D01*
X55255240Y12319000D01*
X55429632Y12435525D01*
X55636475Y12642368D01*
X55752311Y12815729D01*
X55994603Y12740208D01*
X56843395Y13589000D01*
X57202605Y13589000D01*
X58051397Y12740208D01*
X58300472Y12817843D01*
X58426371Y13081883D01*
X58498339Y13365411D01*
X58513611Y13657531D01*
X58471599Y13947019D01*
X58373919Y14222747D01*
X58300472Y14360157D01*
X58051397Y14437792D01*
X57202605Y13589000D01*
X56843395Y13589000D01*
X55994603Y14437792D01*
X55752311Y14362271D01*
X55636475Y14535632D01*
X55554710Y14617397D01*
X56174208Y14617397D01*
X57023000Y13768605D01*
X57871792Y14617397D01*
X57794157Y14866472D01*
X57530117Y14992371D01*
X57246589Y15064339D01*
X56954469Y15079611D01*
X56664981Y15037599D01*
X56389253Y14939919D01*
X56251843Y14866472D01*
X56174208Y14617397D01*
X55554710Y14617397D01*
X55429632Y14742475D01*
X55186411Y14904990D01*
X54916158Y15016932D01*
X54629260Y15074000D01*
X54336740Y15074000D01*
X54049842Y15016932D01*
X53779589Y14904990D01*
X53536368Y14742475D01*
X53329525Y14535632D01*
X53213000Y14361240D01*
X53096475Y14535632D01*
X52889632Y14742475D01*
X52646411Y14904990D01*
X52376158Y15016932D01*
X52089260Y15074000D01*
X51796740Y15074000D01*
X51509842Y15016932D01*
X51239589Y14904990D01*
X50996368Y14742475D01*
X50789525Y14535632D01*
X50673000Y14361240D01*
X50556475Y14535632D01*
X50349632Y14742475D01*
X50106411Y14904990D01*
X49836158Y15016932D01*
X49549260Y15074000D01*
X49256740Y15074000D01*
X48969842Y15016932D01*
X48699589Y14904990D01*
X48456368Y14742475D01*
X48249525Y14535632D01*
X48133000Y14361240D01*
X48016475Y14535632D01*
X47809632Y14742475D01*
X47566411Y14904990D01*
X47296158Y15016932D01*
X47009260Y15074000D01*
X46716740Y15074000D01*
X46429842Y15016932D01*
X46159589Y14904990D01*
X45916368Y14742475D01*
X45709525Y14535632D01*
X45593000Y14361240D01*
X45476475Y14535632D01*
X45269632Y14742475D01*
X45026411Y14904990D01*
X44756158Y15016932D01*
X44469260Y15074000D01*
X44176740Y15074000D01*
X43889842Y15016932D01*
X43619589Y14904990D01*
X43376368Y14742475D01*
X43169525Y14535632D01*
X43053000Y14361240D01*
X42936475Y14535632D01*
X42729632Y14742475D01*
X42486411Y14904990D01*
X42216158Y15016932D01*
X41929260Y15074000D01*
X41636740Y15074000D01*
X41349842Y15016932D01*
X41079589Y14904990D01*
X40836368Y14742475D01*
X40629525Y14535632D01*
X40467010Y14292411D01*
X40355068Y14022158D01*
X40298000Y13735260D01*
X40298000Y13442740D01*
X40324193Y13311060D01*
X39824579Y12811446D01*
X39792709Y12785291D01*
X39695254Y12666540D01*
X39688364Y12658145D01*
X39610828Y12513086D01*
X39563082Y12355688D01*
X39546960Y12192000D01*
X39551000Y12150981D01*
X39551001Y8931028D01*
X39546960Y8890000D01*
X39563082Y8726312D01*
X39610828Y8568914D01*
X39688364Y8423855D01*
X39688365Y8423854D01*
X39792710Y8296709D01*
X39824574Y8270559D01*
X40948000Y7147132D01*
X40948000Y6562065D01*
X40836368Y6487475D01*
X40629525Y6280632D01*
X40467010Y6037411D01*
X40355068Y5767158D01*
X40298000Y5480260D01*
X40298000Y5187740D01*
X40355068Y4900842D01*
X40467010Y4630589D01*
X40629525Y4387368D01*
X40836368Y4180525D01*
X41012406Y4062900D01*
X40782731Y3891588D01*
X40587822Y3675355D01*
X40438843Y3425252D01*
X40341519Y3150891D01*
X40462186Y2921000D01*
X41656000Y2921000D01*
X41656000Y2941000D01*
X41910000Y2941000D01*
X41910000Y2921000D01*
X41930000Y2921000D01*
X41930000Y2667000D01*
X41910000Y2667000D01*
X41910000Y1473845D01*
X42139890Y1352524D01*
X42287099Y1397175D01*
X42549920Y1522359D01*
X42783269Y1696412D01*
X42978178Y1912645D01*
X43047805Y2029534D01*
X43169525Y1847368D01*
X43376368Y1640525D01*
X43619589Y1478010D01*
X43889842Y1366068D01*
X44176740Y1309000D01*
X44469260Y1309000D01*
X44756158Y1366068D01*
X45026411Y1478010D01*
X45269632Y1640525D01*
X45476475Y1847368D01*
X45593000Y2021760D01*
X45709525Y1847368D01*
X45916368Y1640525D01*
X46159589Y1478010D01*
X46429842Y1366068D01*
X46716740Y1309000D01*
X47009260Y1309000D01*
X47296158Y1366068D01*
X47566411Y1478010D01*
X47809632Y1640525D01*
X48016475Y1847368D01*
X48133000Y2021760D01*
X48249525Y1847368D01*
X48456368Y1640525D01*
X48699589Y1478010D01*
X48969842Y1366068D01*
X49256740Y1309000D01*
X49549260Y1309000D01*
X49836158Y1366068D01*
X50106411Y1478010D01*
X50349632Y1640525D01*
X50556475Y1847368D01*
X50673000Y2021760D01*
X50789525Y1847368D01*
X50996368Y1640525D01*
X51216016Y1493761D01*
X51241032Y1446960D01*
X51245365Y1438854D01*
X51349710Y1311709D01*
X51381574Y1285559D01*
X52007131Y660000D01*
X660000Y660000D01*
X660000Y2437109D01*
X40341519Y2437109D01*
X40438843Y2162748D01*
X40587822Y1912645D01*
X40782731Y1696412D01*
X41016080Y1522359D01*
X41278901Y1397175D01*
X41426110Y1352524D01*
X41656000Y1473845D01*
X41656000Y2667000D01*
X40462186Y2667000D01*
X40341519Y2437109D01*
X660000Y2437109D01*
X660000Y7577318D01*
X883000Y7577318D01*
X883000Y6900682D01*
X1015006Y6237048D01*
X1273943Y5611918D01*
X1649862Y5049315D01*
X2128315Y4570862D01*
X2690918Y4194943D01*
X3316048Y3936006D01*
X3979682Y3804000D01*
X4656318Y3804000D01*
X5319952Y3936006D01*
X5945082Y4194943D01*
X6507685Y4570862D01*
X6986138Y5049315D01*
X7362057Y5611918D01*
X7620994Y6237048D01*
X7753000Y6900682D01*
X7753000Y7577318D01*
X7620994Y8240952D01*
X7362057Y8866082D01*
X6986138Y9428685D01*
X6875488Y9539335D01*
X7455000Y9539335D01*
X7455000Y9256665D01*
X7510147Y8979426D01*
X7618320Y8718273D01*
X7775363Y8483241D01*
X7975241Y8283363D01*
X8210273Y8126320D01*
X8471426Y8018147D01*
X8748665Y7963000D01*
X9031335Y7963000D01*
X9308574Y8018147D01*
X9569727Y8126320D01*
X9804759Y8283363D01*
X9984396Y8463000D01*
X10368001Y8463000D01*
X10368000Y6813701D01*
X10328518Y6809812D01*
X10208820Y6773502D01*
X10098506Y6714537D01*
X10001815Y6635185D01*
X9922463Y6538494D01*
X9863498Y6428180D01*
X9827188Y6308482D01*
X9814928Y6184000D01*
X9814928Y4484000D01*
X9827188Y4359518D01*
X9863498Y4239820D01*
X9922463Y4129506D01*
X10001815Y4032815D01*
X10098506Y3953463D01*
X10208820Y3894498D01*
X10328518Y3858188D01*
X10453000Y3845928D01*
X12153000Y3845928D01*
X12277482Y3858188D01*
X12397180Y3894498D01*
X12507494Y3953463D01*
X12604185Y4032815D01*
X12683537Y4129506D01*
X12742502Y4239820D01*
X12766966Y4320466D01*
X12842731Y4236412D01*
X13076080Y4062359D01*
X13338901Y3937175D01*
X13486110Y3892524D01*
X13716000Y4013845D01*
X13716000Y5207000D01*
X13696000Y5207000D01*
X13696000Y5461000D01*
X13716000Y5461000D01*
X13716000Y6654155D01*
X13486110Y6775476D01*
X13338901Y6730825D01*
X13076080Y6605641D01*
X12842731Y6431588D01*
X12766966Y6347534D01*
X12742502Y6428180D01*
X12683537Y6538494D01*
X12604185Y6635185D01*
X12507494Y6714537D01*
X12397180Y6773502D01*
X12277482Y6809812D01*
X12238000Y6813701D01*
X12238000Y8405298D01*
X13076903Y8405298D01*
X13148486Y8161329D01*
X13403996Y8040429D01*
X13678184Y7971700D01*
X13960512Y7957783D01*
X14240130Y7999213D01*
X14506292Y8094397D01*
X14631514Y8161329D01*
X14703097Y8405298D01*
X13890000Y9218395D01*
X13076903Y8405298D01*
X12238000Y8405298D01*
X12238000Y9137711D01*
X12450924Y9350635D01*
X12449783Y9327488D01*
X12491213Y9047870D01*
X12586397Y8781708D01*
X12653329Y8656486D01*
X12897298Y8584903D01*
X13710395Y9398000D01*
X13696253Y9412142D01*
X13875858Y9591747D01*
X13890000Y9577605D01*
X14703097Y10390702D01*
X14631514Y10634671D01*
X14376004Y10755571D01*
X14101816Y10824300D01*
X13918044Y10833359D01*
X13934186Y10853028D01*
X14021007Y11015460D01*
X14064347Y11158334D01*
X14074471Y11191707D01*
X14092524Y11374999D01*
X14088000Y11420931D01*
X14088000Y12748604D01*
X14267637Y12928241D01*
X14424680Y13163273D01*
X14532853Y13424426D01*
X14538000Y13450301D01*
X14543147Y13424426D01*
X14651320Y13163273D01*
X14808363Y12928241D01*
X14988001Y12748603D01*
X14988000Y10538932D01*
X14983476Y10493000D01*
X14988000Y10447069D01*
X15001529Y10309709D01*
X15045974Y10163191D01*
X14882702Y10211097D01*
X14069605Y9398000D01*
X14882702Y8584903D01*
X15126671Y8656486D01*
X15247571Y8911996D01*
X15316300Y9186184D01*
X15330217Y9468512D01*
X15288787Y9748130D01*
X15260544Y9827107D01*
X15294341Y9799370D01*
X15448001Y9645710D01*
X15448000Y6495247D01*
X15436368Y6487475D01*
X15229525Y6280632D01*
X15107805Y6098466D01*
X15038178Y6215355D01*
X14843269Y6431588D01*
X14609920Y6605641D01*
X14347099Y6730825D01*
X14199890Y6775476D01*
X13970000Y6654155D01*
X13970000Y5461000D01*
X13990000Y5461000D01*
X13990000Y5207000D01*
X13970000Y5207000D01*
X13970000Y4013845D01*
X14199890Y3892524D01*
X14347099Y3937175D01*
X14609920Y4062359D01*
X14843269Y4236412D01*
X15038178Y4452645D01*
X15107805Y4569534D01*
X15229525Y4387368D01*
X15436368Y4180525D01*
X15679589Y4018010D01*
X15949842Y3906068D01*
X16236740Y3849000D01*
X16529260Y3849000D01*
X16816158Y3906068D01*
X17086411Y4018010D01*
X17329632Y4180525D01*
X17536475Y4387368D01*
X17653000Y4561760D01*
X17769525Y4387368D01*
X17976368Y4180525D01*
X18219589Y4018010D01*
X18489842Y3906068D01*
X18776740Y3849000D01*
X19069260Y3849000D01*
X19356158Y3906068D01*
X19626411Y4018010D01*
X19869632Y4180525D01*
X20076475Y4387368D01*
X20193000Y4561760D01*
X20309525Y4387368D01*
X20516368Y4180525D01*
X20759589Y4018010D01*
X21029842Y3906068D01*
X21316740Y3849000D01*
X21609260Y3849000D01*
X21896158Y3906068D01*
X22166411Y4018010D01*
X22409632Y4180525D01*
X22616475Y4387368D01*
X22733000Y4561760D01*
X22849525Y4387368D01*
X23056368Y4180525D01*
X23299589Y4018010D01*
X23569842Y3906068D01*
X23856740Y3849000D01*
X24149260Y3849000D01*
X24436158Y3906068D01*
X24706411Y4018010D01*
X24949632Y4180525D01*
X25156475Y4387368D01*
X25273000Y4561760D01*
X25389525Y4387368D01*
X25596368Y4180525D01*
X25839589Y4018010D01*
X26109842Y3906068D01*
X26396740Y3849000D01*
X26689260Y3849000D01*
X26976158Y3906068D01*
X27246411Y4018010D01*
X27489632Y4180525D01*
X27696475Y4387368D01*
X27858990Y4630589D01*
X27970932Y4900842D01*
X28028000Y5187740D01*
X28028000Y5480260D01*
X27970932Y5767158D01*
X27858990Y6037411D01*
X27696475Y6280632D01*
X27489632Y6487475D01*
X27478000Y6495247D01*
X27478000Y10749068D01*
X27482524Y10795000D01*
X27464471Y10978292D01*
X27456122Y11005814D01*
X27411007Y11154540D01*
X27324186Y11316972D01*
X27207344Y11459344D01*
X27171660Y11488629D01*
X24188630Y14471659D01*
X24159344Y14507344D01*
X24016972Y14624186D01*
X23854540Y14711007D01*
X23678292Y14764471D01*
X23540932Y14778000D01*
X23495000Y14782524D01*
X23449068Y14778000D01*
X22942701Y14778000D01*
X22938812Y14817482D01*
X22902502Y14937180D01*
X22843537Y15047494D01*
X22764185Y15144185D01*
X22667494Y15223537D01*
X22557180Y15282502D01*
X22437482Y15318812D01*
X22313000Y15331072D01*
X21013000Y15331072D01*
X21013000Y15415604D01*
X21096921Y15499525D01*
X25788000Y15499525D01*
X25788000Y14980475D01*
X25889261Y14471399D01*
X26087893Y13991859D01*
X26376262Y13560285D01*
X26743285Y13193262D01*
X27174859Y12904893D01*
X27654399Y12706261D01*
X28163475Y12605000D01*
X28682525Y12605000D01*
X29191601Y12706261D01*
X29671141Y12904893D01*
X30102715Y13193262D01*
X30469738Y13560285D01*
X30758107Y13991859D01*
X30956739Y14471399D01*
X31058000Y14980475D01*
X31058000Y15499525D01*
X30956739Y16008601D01*
X30758107Y16488141D01*
X30469738Y16919715D01*
X30448453Y16941000D01*
X64928848Y16941000D01*
X64961381Y16610682D01*
X65057732Y16293059D01*
X65214196Y16000335D01*
X65424761Y15743761D01*
X65681335Y15533196D01*
X65974059Y15376732D01*
X66291682Y15280381D01*
X66539230Y15256000D01*
X67104770Y15256000D01*
X67352318Y15280381D01*
X67669941Y15376732D01*
X67962665Y15533196D01*
X68219239Y15743761D01*
X68429804Y16000335D01*
X68586268Y16293059D01*
X68682619Y16610682D01*
X68715152Y16941000D01*
X68682619Y17271318D01*
X68586268Y17588941D01*
X68429804Y17881665D01*
X68374572Y17948966D01*
X68433963Y17957499D01*
X68714474Y18056428D01*
X68857975Y18133132D01*
X68938635Y18384760D01*
X68072000Y19251395D01*
X68057858Y19237252D01*
X67878253Y19416857D01*
X67892395Y19431000D01*
X68251605Y19431000D01*
X69118240Y18564365D01*
X69369868Y18645025D01*
X69498267Y18913329D01*
X69571855Y19201526D01*
X69587804Y19498543D01*
X69545501Y19792963D01*
X69446572Y20073474D01*
X69369868Y20216975D01*
X69118240Y20297635D01*
X68251605Y19431000D01*
X67892395Y19431000D01*
X67025760Y20297635D01*
X66774132Y20216975D01*
X66645733Y19948671D01*
X66572145Y19660474D01*
X66556196Y19363457D01*
X66598499Y19069037D01*
X66697428Y18788526D01*
X66774132Y18645025D01*
X66833483Y18626000D01*
X66539230Y18626000D01*
X66291682Y18601619D01*
X65974059Y18505268D01*
X65681335Y18348804D01*
X65424761Y18138239D01*
X65214196Y17881665D01*
X65057732Y17588941D01*
X64961381Y17271318D01*
X64928848Y16941000D01*
X30448453Y16941000D01*
X30102715Y17286738D01*
X29671141Y17575107D01*
X29191601Y17773739D01*
X28682525Y17875000D01*
X28163475Y17875000D01*
X27654399Y17773739D01*
X27174859Y17575107D01*
X26743285Y17286738D01*
X26376262Y16919715D01*
X26087893Y16488141D01*
X25889261Y16008601D01*
X25788000Y15499525D01*
X21096921Y15499525D01*
X21192637Y15595241D01*
X21349680Y15830273D01*
X21457853Y16091426D01*
X21513000Y16368665D01*
X21513000Y16651335D01*
X21457853Y16928574D01*
X21349680Y17189727D01*
X21192637Y17424759D01*
X20992759Y17624637D01*
X20757727Y17781680D01*
X20496574Y17889853D01*
X20219335Y17945000D01*
X19936665Y17945000D01*
X19659426Y17889853D01*
X19398273Y17781680D01*
X19163241Y17624637D01*
X18963363Y17424759D01*
X18806320Y17189727D01*
X18698147Y16928574D01*
X18693000Y16902699D01*
X18687853Y16928574D01*
X18579680Y17189727D01*
X18422637Y17424759D01*
X18222759Y17624637D01*
X17987727Y17781680D01*
X17726574Y17889853D01*
X17449335Y17945000D01*
X17166665Y17945000D01*
X16889426Y17889853D01*
X16628273Y17781680D01*
X16393241Y17624637D01*
X16193363Y17424759D01*
X16036320Y17189727D01*
X15928147Y16928574D01*
X15922487Y16900118D01*
X15841603Y17126292D01*
X15774671Y17251514D01*
X15530702Y17323097D01*
X14717605Y16510000D01*
X15530702Y15696903D01*
X15774671Y15768486D01*
X15895571Y16023996D01*
X15921212Y16126289D01*
X15928147Y16091426D01*
X16036320Y15830273D01*
X16193363Y15595241D01*
X16373000Y15415604D01*
X16373000Y15209836D01*
X16341574Y15222853D01*
X16064335Y15278000D01*
X15781665Y15278000D01*
X15504426Y15222853D01*
X15243273Y15114680D01*
X15008241Y14957637D01*
X14808363Y14757759D01*
X14651320Y14522727D01*
X14543147Y14261574D01*
X14538000Y14235699D01*
X14532853Y14261574D01*
X14424680Y14522727D01*
X14267637Y14757759D01*
X14067759Y14957637D01*
X13832727Y15114680D01*
X13571574Y15222853D01*
X13294335Y15278000D01*
X13011665Y15278000D01*
X12734426Y15222853D01*
X12473273Y15114680D01*
X12238241Y14957637D01*
X12038363Y14757759D01*
X11881320Y14522727D01*
X11773147Y14261574D01*
X11768000Y14235699D01*
X11762853Y14261574D01*
X11654680Y14522727D01*
X11497637Y14757759D01*
X11297759Y14957637D01*
X11062727Y15114680D01*
X10801574Y15222853D01*
X10524335Y15278000D01*
X10241665Y15278000D01*
X9964426Y15222853D01*
X9703273Y15114680D01*
X9468241Y14957637D01*
X9268363Y14757759D01*
X9111320Y14522727D01*
X9003147Y14261574D01*
X8948000Y13984335D01*
X8948000Y13701665D01*
X9003147Y13424426D01*
X9111320Y13163273D01*
X9268363Y12928241D01*
X9468241Y12728363D01*
X9703273Y12571320D01*
X9964426Y12463147D01*
X10241665Y12408000D01*
X10524335Y12408000D01*
X10801574Y12463147D01*
X11062727Y12571320D01*
X11297759Y12728363D01*
X11497637Y12928241D01*
X11654680Y13163273D01*
X11762853Y13424426D01*
X11768000Y13450301D01*
X11773147Y13424426D01*
X11881320Y13163273D01*
X12038363Y12928241D01*
X12218001Y12748603D01*
X12218000Y11762290D01*
X10788711Y10333000D01*
X9984396Y10333000D01*
X9804759Y10512637D01*
X9569727Y10669680D01*
X9308574Y10777853D01*
X9031335Y10833000D01*
X8748665Y10833000D01*
X8471426Y10777853D01*
X8210273Y10669680D01*
X7975241Y10512637D01*
X7775363Y10312759D01*
X7618320Y10077727D01*
X7510147Y9816574D01*
X7455000Y9539335D01*
X6875488Y9539335D01*
X6507685Y9907138D01*
X5945082Y10283057D01*
X5319952Y10541994D01*
X4656318Y10674000D01*
X3979682Y10674000D01*
X3316048Y10541994D01*
X2690918Y10283057D01*
X2128315Y9907138D01*
X1649862Y9428685D01*
X1273943Y8866082D01*
X1015006Y8240952D01*
X883000Y7577318D01*
X660000Y7577318D01*
X660000Y15499525D01*
X794000Y15499525D01*
X794000Y14980475D01*
X895261Y14471399D01*
X1093893Y13991859D01*
X1382262Y13560285D01*
X1749285Y13193262D01*
X2180859Y12904893D01*
X2660399Y12706261D01*
X3169475Y12605000D01*
X3688525Y12605000D01*
X4197601Y12706261D01*
X4677141Y12904893D01*
X5108715Y13193262D01*
X5475738Y13560285D01*
X5764107Y13991859D01*
X5962739Y14471399D01*
X6064000Y14980475D01*
X6064000Y15499525D01*
X5962739Y16008601D01*
X5764107Y16488141D01*
X5655065Y16651335D01*
X10333000Y16651335D01*
X10333000Y16368665D01*
X10388147Y16091426D01*
X10496320Y15830273D01*
X10653363Y15595241D01*
X10853241Y15395363D01*
X11088273Y15238320D01*
X11349426Y15130147D01*
X11626665Y15075000D01*
X11909335Y15075000D01*
X12186574Y15130147D01*
X12447727Y15238320D01*
X12682759Y15395363D01*
X12804694Y15517298D01*
X13724903Y15517298D01*
X13796486Y15273329D01*
X14051996Y15152429D01*
X14326184Y15083700D01*
X14608512Y15069783D01*
X14888130Y15111213D01*
X15154292Y15206397D01*
X15279514Y15273329D01*
X15351097Y15517298D01*
X14538000Y16330395D01*
X13724903Y15517298D01*
X12804694Y15517298D01*
X12882637Y15595241D01*
X13039680Y15830273D01*
X13147853Y16091426D01*
X13153513Y16119882D01*
X13234397Y15893708D01*
X13301329Y15768486D01*
X13545298Y15696903D01*
X14358395Y16510000D01*
X13545298Y17323097D01*
X13301329Y17251514D01*
X13180429Y16996004D01*
X13154788Y16893711D01*
X13147853Y16928574D01*
X13039680Y17189727D01*
X12882637Y17424759D01*
X12804694Y17502702D01*
X13724903Y17502702D01*
X14538000Y16689605D01*
X15351097Y17502702D01*
X15279514Y17746671D01*
X15024004Y17867571D01*
X14749816Y17936300D01*
X14467488Y17950217D01*
X14187870Y17908787D01*
X13921708Y17813603D01*
X13796486Y17746671D01*
X13724903Y17502702D01*
X12804694Y17502702D01*
X12682759Y17624637D01*
X12447727Y17781680D01*
X12186574Y17889853D01*
X11909335Y17945000D01*
X11626665Y17945000D01*
X11349426Y17889853D01*
X11088273Y17781680D01*
X10853241Y17624637D01*
X10653363Y17424759D01*
X10496320Y17189727D01*
X10388147Y16928574D01*
X10333000Y16651335D01*
X5655065Y16651335D01*
X5475738Y16919715D01*
X5108715Y17286738D01*
X4677141Y17575107D01*
X4197601Y17773739D01*
X3688525Y17875000D01*
X3169475Y17875000D01*
X2660399Y17773739D01*
X2180859Y17575107D01*
X1749285Y17286738D01*
X1382262Y16919715D01*
X1093893Y16488141D01*
X895261Y16008601D01*
X794000Y15499525D01*
X660000Y15499525D01*
X660000Y20477240D01*
X67205365Y20477240D01*
X68072000Y19610605D01*
X68938635Y20477240D01*
X68857975Y20728868D01*
X68589671Y20857267D01*
X68301474Y20930855D01*
X68004457Y20946804D01*
X67710037Y20904501D01*
X67429526Y20805572D01*
X67286025Y20728868D01*
X67205365Y20477240D01*
X660000Y20477240D01*
X660000Y23724000D01*
X76048000Y23724000D01*
X76048001Y660000D01*
%TA.AperFunction,Conductor*%
D22*
G36*
X76048001Y660000D02*
G01*
X59371867Y660000D01*
X60378428Y1666560D01*
X60410291Y1692709D01*
X60514636Y1819854D01*
X60592172Y1964913D01*
X60639918Y2122311D01*
X60652000Y2244981D01*
X60652000Y2244982D01*
X60656040Y2285999D01*
X60652000Y2327018D01*
X60652000Y3963525D01*
X60705006Y3697048D01*
X60963943Y3071918D01*
X61339862Y2509315D01*
X61818315Y2030862D01*
X62380918Y1654943D01*
X63006048Y1396006D01*
X63669682Y1264000D01*
X64346318Y1264000D01*
X65009952Y1396006D01*
X65635082Y1654943D01*
X66197685Y2030862D01*
X66676138Y2509315D01*
X67052057Y3071918D01*
X67310994Y3697048D01*
X67443000Y4360682D01*
X67443000Y5037318D01*
X67310994Y5700952D01*
X67052057Y6326082D01*
X66676138Y6888685D01*
X66197685Y7367138D01*
X65635082Y7743057D01*
X65009952Y8001994D01*
X64346318Y8134000D01*
X63669682Y8134000D01*
X63006048Y8001994D01*
X62380918Y7743057D01*
X61818315Y7367138D01*
X61339862Y6888685D01*
X60963943Y6326082D01*
X60705006Y5700952D01*
X60652000Y5434475D01*
X60652000Y9306133D01*
X62448868Y11103000D01*
X69300982Y11103000D01*
X69342000Y11098960D01*
X69383018Y11103000D01*
X69383019Y11103000D01*
X69505689Y11115082D01*
X69663087Y11162828D01*
X69808146Y11240364D01*
X69935291Y11344709D01*
X69961446Y11376579D01*
X71173428Y12588560D01*
X71205291Y12614709D01*
X71309636Y12741854D01*
X71387172Y12886913D01*
X71434918Y13044311D01*
X71447000Y13166981D01*
X71447000Y13166983D01*
X71451040Y13207999D01*
X71447000Y13249015D01*
X71447000Y17125133D01*
X72272800Y17950932D01*
X72279885Y17949523D01*
X72224196Y17881665D01*
X72067732Y17588941D01*
X71971381Y17271318D01*
X71938848Y16941000D01*
X71971381Y16610682D01*
X72067732Y16293059D01*
X72224196Y16000335D01*
X72434761Y15743761D01*
X72691335Y15533196D01*
X72984059Y15376732D01*
X73301682Y15280381D01*
X73549230Y15256000D01*
X74114770Y15256000D01*
X74362318Y15280381D01*
X74679941Y15376732D01*
X74972665Y15533196D01*
X75229239Y15743761D01*
X75439804Y16000335D01*
X75596268Y16293059D01*
X75692619Y16610682D01*
X75725152Y16941000D01*
X75692619Y17271318D01*
X75596268Y17588941D01*
X75439804Y17881665D01*
X75229239Y18138239D01*
X74972665Y18348804D01*
X74679941Y18505268D01*
X74362318Y18601619D01*
X74114770Y18626000D01*
X73850177Y18626000D01*
X73910144Y18715747D01*
X74023971Y18990549D01*
X74082000Y19282278D01*
X74082000Y19579722D01*
X74023971Y19871451D01*
X73910144Y20146253D01*
X73744893Y20393569D01*
X73534569Y20603893D01*
X73287253Y20769144D01*
X73012451Y20882971D01*
X72720722Y20941000D01*
X72423278Y20941000D01*
X72131549Y20882971D01*
X71856747Y20769144D01*
X71609431Y20603893D01*
X71399107Y20393569D01*
X71233856Y20146253D01*
X71120029Y19871451D01*
X71062000Y19579722D01*
X71062000Y19282278D01*
X71091932Y19131800D01*
X70050574Y18090441D01*
X70018710Y18064291D01*
X69937907Y17965832D01*
X69914364Y17937145D01*
X69836828Y17792086D01*
X69789082Y17634688D01*
X69772960Y17471000D01*
X69777001Y17429972D01*
X69777000Y13553868D01*
X68996133Y12773000D01*
X62144018Y12773000D01*
X62102999Y12777040D01*
X62061981Y12773000D01*
X61939311Y12760918D01*
X61781913Y12713172D01*
X61636854Y12635636D01*
X61509709Y12531291D01*
X61483561Y12499429D01*
X59255574Y10271441D01*
X59223710Y10245291D01*
X59197562Y10213429D01*
X59119364Y10118145D01*
X59041828Y9973086D01*
X58994082Y9815688D01*
X58977960Y9652000D01*
X58982001Y9610972D01*
X58982001Y8619867D01*
X57858000Y9743867D01*
X57858000Y9820935D01*
X57969632Y9895525D01*
X58176475Y10102368D01*
X58338990Y10345589D01*
X58450932Y10615842D01*
X58508000Y10902740D01*
X58508000Y11195260D01*
X58450932Y11482158D01*
X58338990Y11752411D01*
X58176475Y11995632D01*
X57969632Y12202475D01*
X57796271Y12318311D01*
X57871792Y12560603D01*
X57023000Y13409395D01*
X56174208Y12560603D01*
X56249729Y12318311D01*
X56076368Y12202475D01*
X55869525Y11995632D01*
X55753000Y11821240D01*
X55636475Y11995632D01*
X55429632Y12202475D01*
X55255240Y12319000D01*
X55429632Y12435525D01*
X55636475Y12642368D01*
X55752311Y12815729D01*
X55994603Y12740208D01*
X56843395Y13589000D01*
X57202605Y13589000D01*
X58051397Y12740208D01*
X58300472Y12817843D01*
X58426371Y13081883D01*
X58498339Y13365411D01*
X58513611Y13657531D01*
X58471599Y13947019D01*
X58373919Y14222747D01*
X58300472Y14360157D01*
X58051397Y14437792D01*
X57202605Y13589000D01*
X56843395Y13589000D01*
X55994603Y14437792D01*
X55752311Y14362271D01*
X55636475Y14535632D01*
X55554710Y14617397D01*
X56174208Y14617397D01*
X57023000Y13768605D01*
X57871792Y14617397D01*
X57794157Y14866472D01*
X57530117Y14992371D01*
X57246589Y15064339D01*
X56954469Y15079611D01*
X56664981Y15037599D01*
X56389253Y14939919D01*
X56251843Y14866472D01*
X56174208Y14617397D01*
X55554710Y14617397D01*
X55429632Y14742475D01*
X55186411Y14904990D01*
X54916158Y15016932D01*
X54629260Y15074000D01*
X54336740Y15074000D01*
X54049842Y15016932D01*
X53779589Y14904990D01*
X53536368Y14742475D01*
X53329525Y14535632D01*
X53213000Y14361240D01*
X53096475Y14535632D01*
X52889632Y14742475D01*
X52646411Y14904990D01*
X52376158Y15016932D01*
X52089260Y15074000D01*
X51796740Y15074000D01*
X51509842Y15016932D01*
X51239589Y14904990D01*
X50996368Y14742475D01*
X50789525Y14535632D01*
X50673000Y14361240D01*
X50556475Y14535632D01*
X50349632Y14742475D01*
X50106411Y14904990D01*
X49836158Y15016932D01*
X49549260Y15074000D01*
X49256740Y15074000D01*
X48969842Y15016932D01*
X48699589Y14904990D01*
X48456368Y14742475D01*
X48249525Y14535632D01*
X48133000Y14361240D01*
X48016475Y14535632D01*
X47809632Y14742475D01*
X47566411Y14904990D01*
X47296158Y15016932D01*
X47009260Y15074000D01*
X46716740Y15074000D01*
X46429842Y15016932D01*
X46159589Y14904990D01*
X45916368Y14742475D01*
X45709525Y14535632D01*
X45593000Y14361240D01*
X45476475Y14535632D01*
X45269632Y14742475D01*
X45026411Y14904990D01*
X44756158Y15016932D01*
X44469260Y15074000D01*
X44176740Y15074000D01*
X43889842Y15016932D01*
X43619589Y14904990D01*
X43376368Y14742475D01*
X43169525Y14535632D01*
X43053000Y14361240D01*
X42936475Y14535632D01*
X42729632Y14742475D01*
X42486411Y14904990D01*
X42216158Y15016932D01*
X41929260Y15074000D01*
X41636740Y15074000D01*
X41349842Y15016932D01*
X41079589Y14904990D01*
X40836368Y14742475D01*
X40629525Y14535632D01*
X40467010Y14292411D01*
X40355068Y14022158D01*
X40298000Y13735260D01*
X40298000Y13442740D01*
X40324193Y13311060D01*
X39824579Y12811446D01*
X39792709Y12785291D01*
X39695254Y12666540D01*
X39688364Y12658145D01*
X39610828Y12513086D01*
X39563082Y12355688D01*
X39546960Y12192000D01*
X39551000Y12150981D01*
X39551001Y8931028D01*
X39546960Y8890000D01*
X39563082Y8726312D01*
X39610828Y8568914D01*
X39688364Y8423855D01*
X39688365Y8423854D01*
X39792710Y8296709D01*
X39824574Y8270559D01*
X40948000Y7147132D01*
X40948000Y6562065D01*
X40836368Y6487475D01*
X40629525Y6280632D01*
X40467010Y6037411D01*
X40355068Y5767158D01*
X40298000Y5480260D01*
X40298000Y5187740D01*
X40355068Y4900842D01*
X40467010Y4630589D01*
X40629525Y4387368D01*
X40836368Y4180525D01*
X41012406Y4062900D01*
X40782731Y3891588D01*
X40587822Y3675355D01*
X40438843Y3425252D01*
X40341519Y3150891D01*
X40462186Y2921000D01*
X41656000Y2921000D01*
X41656000Y2941000D01*
X41910000Y2941000D01*
X41910000Y2921000D01*
X41930000Y2921000D01*
X41930000Y2667000D01*
X41910000Y2667000D01*
X41910000Y1473845D01*
X42139890Y1352524D01*
X42287099Y1397175D01*
X42549920Y1522359D01*
X42783269Y1696412D01*
X42978178Y1912645D01*
X43047805Y2029534D01*
X43169525Y1847368D01*
X43376368Y1640525D01*
X43619589Y1478010D01*
X43889842Y1366068D01*
X44176740Y1309000D01*
X44469260Y1309000D01*
X44756158Y1366068D01*
X45026411Y1478010D01*
X45269632Y1640525D01*
X45476475Y1847368D01*
X45593000Y2021760D01*
X45709525Y1847368D01*
X45916368Y1640525D01*
X46159589Y1478010D01*
X46429842Y1366068D01*
X46716740Y1309000D01*
X47009260Y1309000D01*
X47296158Y1366068D01*
X47566411Y1478010D01*
X47809632Y1640525D01*
X48016475Y1847368D01*
X48133000Y2021760D01*
X48249525Y1847368D01*
X48456368Y1640525D01*
X48699589Y1478010D01*
X48969842Y1366068D01*
X49256740Y1309000D01*
X49549260Y1309000D01*
X49836158Y1366068D01*
X50106411Y1478010D01*
X50349632Y1640525D01*
X50556475Y1847368D01*
X50673000Y2021760D01*
X50789525Y1847368D01*
X50996368Y1640525D01*
X51216016Y1493761D01*
X51241032Y1446960D01*
X51245365Y1438854D01*
X51349710Y1311709D01*
X51381574Y1285559D01*
X52007131Y660000D01*
X660000Y660000D01*
X660000Y2437109D01*
X40341519Y2437109D01*
X40438843Y2162748D01*
X40587822Y1912645D01*
X40782731Y1696412D01*
X41016080Y1522359D01*
X41278901Y1397175D01*
X41426110Y1352524D01*
X41656000Y1473845D01*
X41656000Y2667000D01*
X40462186Y2667000D01*
X40341519Y2437109D01*
X660000Y2437109D01*
X660000Y7577318D01*
X883000Y7577318D01*
X883000Y6900682D01*
X1015006Y6237048D01*
X1273943Y5611918D01*
X1649862Y5049315D01*
X2128315Y4570862D01*
X2690918Y4194943D01*
X3316048Y3936006D01*
X3979682Y3804000D01*
X4656318Y3804000D01*
X5319952Y3936006D01*
X5945082Y4194943D01*
X6507685Y4570862D01*
X6986138Y5049315D01*
X7362057Y5611918D01*
X7620994Y6237048D01*
X7753000Y6900682D01*
X7753000Y7577318D01*
X7620994Y8240952D01*
X7362057Y8866082D01*
X6986138Y9428685D01*
X6875488Y9539335D01*
X7455000Y9539335D01*
X7455000Y9256665D01*
X7510147Y8979426D01*
X7618320Y8718273D01*
X7775363Y8483241D01*
X7975241Y8283363D01*
X8210273Y8126320D01*
X8471426Y8018147D01*
X8748665Y7963000D01*
X9031335Y7963000D01*
X9308574Y8018147D01*
X9569727Y8126320D01*
X9804759Y8283363D01*
X9984396Y8463000D01*
X10368001Y8463000D01*
X10368000Y6813701D01*
X10328518Y6809812D01*
X10208820Y6773502D01*
X10098506Y6714537D01*
X10001815Y6635185D01*
X9922463Y6538494D01*
X9863498Y6428180D01*
X9827188Y6308482D01*
X9814928Y6184000D01*
X9814928Y4484000D01*
X9827188Y4359518D01*
X9863498Y4239820D01*
X9922463Y4129506D01*
X10001815Y4032815D01*
X10098506Y3953463D01*
X10208820Y3894498D01*
X10328518Y3858188D01*
X10453000Y3845928D01*
X12153000Y3845928D01*
X12277482Y3858188D01*
X12397180Y3894498D01*
X12507494Y3953463D01*
X12604185Y4032815D01*
X12683537Y4129506D01*
X12742502Y4239820D01*
X12766966Y4320466D01*
X12842731Y4236412D01*
X13076080Y4062359D01*
X13338901Y3937175D01*
X13486110Y3892524D01*
X13716000Y4013845D01*
X13716000Y5207000D01*
X13696000Y5207000D01*
X13696000Y5461000D01*
X13716000Y5461000D01*
X13716000Y6654155D01*
X13486110Y6775476D01*
X13338901Y6730825D01*
X13076080Y6605641D01*
X12842731Y6431588D01*
X12766966Y6347534D01*
X12742502Y6428180D01*
X12683537Y6538494D01*
X12604185Y6635185D01*
X12507494Y6714537D01*
X12397180Y6773502D01*
X12277482Y6809812D01*
X12238000Y6813701D01*
X12238000Y8405298D01*
X13076903Y8405298D01*
X13148486Y8161329D01*
X13403996Y8040429D01*
X13678184Y7971700D01*
X13960512Y7957783D01*
X14240130Y7999213D01*
X14506292Y8094397D01*
X14631514Y8161329D01*
X14703097Y8405298D01*
X13890000Y9218395D01*
X13076903Y8405298D01*
X12238000Y8405298D01*
X12238000Y9137711D01*
X12450924Y9350635D01*
X12449783Y9327488D01*
X12491213Y9047870D01*
X12586397Y8781708D01*
X12653329Y8656486D01*
X12897298Y8584903D01*
X13710395Y9398000D01*
X13696253Y9412142D01*
X13875858Y9591747D01*
X13890000Y9577605D01*
X14703097Y10390702D01*
X14631514Y10634671D01*
X14376004Y10755571D01*
X14101816Y10824300D01*
X13918044Y10833359D01*
X13934186Y10853028D01*
X14021007Y11015460D01*
X14064347Y11158334D01*
X14074471Y11191707D01*
X14092524Y11374999D01*
X14088000Y11420931D01*
X14088000Y12748604D01*
X14267637Y12928241D01*
X14424680Y13163273D01*
X14532853Y13424426D01*
X14538000Y13450301D01*
X14543147Y13424426D01*
X14651320Y13163273D01*
X14808363Y12928241D01*
X14988001Y12748603D01*
X14988000Y10538932D01*
X14983476Y10493000D01*
X14988000Y10447069D01*
X15001529Y10309709D01*
X15045974Y10163191D01*
X14882702Y10211097D01*
X14069605Y9398000D01*
X14882702Y8584903D01*
X15126671Y8656486D01*
X15247571Y8911996D01*
X15316300Y9186184D01*
X15330217Y9468512D01*
X15288787Y9748130D01*
X15260544Y9827107D01*
X15294341Y9799370D01*
X15448001Y9645710D01*
X15448000Y6495247D01*
X15436368Y6487475D01*
X15229525Y6280632D01*
X15107805Y6098466D01*
X15038178Y6215355D01*
X14843269Y6431588D01*
X14609920Y6605641D01*
X14347099Y6730825D01*
X14199890Y6775476D01*
X13970000Y6654155D01*
X13970000Y5461000D01*
X13990000Y5461000D01*
X13990000Y5207000D01*
X13970000Y5207000D01*
X13970000Y4013845D01*
X14199890Y3892524D01*
X14347099Y3937175D01*
X14609920Y4062359D01*
X14843269Y4236412D01*
X15038178Y4452645D01*
X15107805Y4569534D01*
X15229525Y4387368D01*
X15436368Y4180525D01*
X15679589Y4018010D01*
X15949842Y3906068D01*
X16236740Y3849000D01*
X16529260Y3849000D01*
X16816158Y3906068D01*
X17086411Y4018010D01*
X17329632Y4180525D01*
X17536475Y4387368D01*
X17653000Y4561760D01*
X17769525Y4387368D01*
X17976368Y4180525D01*
X18219589Y4018010D01*
X18489842Y3906068D01*
X18776740Y3849000D01*
X19069260Y3849000D01*
X19356158Y3906068D01*
X19626411Y4018010D01*
X19869632Y4180525D01*
X20076475Y4387368D01*
X20193000Y4561760D01*
X20309525Y4387368D01*
X20516368Y4180525D01*
X20759589Y4018010D01*
X21029842Y3906068D01*
X21316740Y3849000D01*
X21609260Y3849000D01*
X21896158Y3906068D01*
X22166411Y4018010D01*
X22409632Y4180525D01*
X22616475Y4387368D01*
X22733000Y4561760D01*
X22849525Y4387368D01*
X23056368Y4180525D01*
X23299589Y4018010D01*
X23569842Y3906068D01*
X23856740Y3849000D01*
X24149260Y3849000D01*
X24436158Y3906068D01*
X24706411Y4018010D01*
X24949632Y4180525D01*
X25156475Y4387368D01*
X25273000Y4561760D01*
X25389525Y4387368D01*
X25596368Y4180525D01*
X25839589Y4018010D01*
X26109842Y3906068D01*
X26396740Y3849000D01*
X26689260Y3849000D01*
X26976158Y3906068D01*
X27246411Y4018010D01*
X27489632Y4180525D01*
X27696475Y4387368D01*
X27858990Y4630589D01*
X27970932Y4900842D01*
X28028000Y5187740D01*
X28028000Y5480260D01*
X27970932Y5767158D01*
X27858990Y6037411D01*
X27696475Y6280632D01*
X27489632Y6487475D01*
X27478000Y6495247D01*
X27478000Y10749068D01*
X27482524Y10795000D01*
X27464471Y10978292D01*
X27456122Y11005814D01*
X27411007Y11154540D01*
X27324186Y11316972D01*
X27207344Y11459344D01*
X27171660Y11488629D01*
X24188630Y14471659D01*
X24159344Y14507344D01*
X24016972Y14624186D01*
X23854540Y14711007D01*
X23678292Y14764471D01*
X23540932Y14778000D01*
X23495000Y14782524D01*
X23449068Y14778000D01*
X22942701Y14778000D01*
X22938812Y14817482D01*
X22902502Y14937180D01*
X22843537Y15047494D01*
X22764185Y15144185D01*
X22667494Y15223537D01*
X22557180Y15282502D01*
X22437482Y15318812D01*
X22313000Y15331072D01*
X21013000Y15331072D01*
X21013000Y15415604D01*
X21096921Y15499525D01*
X25788000Y15499525D01*
X25788000Y14980475D01*
X25889261Y14471399D01*
X26087893Y13991859D01*
X26376262Y13560285D01*
X26743285Y13193262D01*
X27174859Y12904893D01*
X27654399Y12706261D01*
X28163475Y12605000D01*
X28682525Y12605000D01*
X29191601Y12706261D01*
X29671141Y12904893D01*
X30102715Y13193262D01*
X30469738Y13560285D01*
X30758107Y13991859D01*
X30956739Y14471399D01*
X31058000Y14980475D01*
X31058000Y15499525D01*
X30956739Y16008601D01*
X30758107Y16488141D01*
X30469738Y16919715D01*
X30448453Y16941000D01*
X64928848Y16941000D01*
X64961381Y16610682D01*
X65057732Y16293059D01*
X65214196Y16000335D01*
X65424761Y15743761D01*
X65681335Y15533196D01*
X65974059Y15376732D01*
X66291682Y15280381D01*
X66539230Y15256000D01*
X67104770Y15256000D01*
X67352318Y15280381D01*
X67669941Y15376732D01*
X67962665Y15533196D01*
X68219239Y15743761D01*
X68429804Y16000335D01*
X68586268Y16293059D01*
X68682619Y16610682D01*
X68715152Y16941000D01*
X68682619Y17271318D01*
X68586268Y17588941D01*
X68429804Y17881665D01*
X68374572Y17948966D01*
X68433963Y17957499D01*
X68714474Y18056428D01*
X68857975Y18133132D01*
X68938635Y18384760D01*
X68072000Y19251395D01*
X68057858Y19237252D01*
X67878253Y19416857D01*
X67892395Y19431000D01*
X68251605Y19431000D01*
X69118240Y18564365D01*
X69369868Y18645025D01*
X69498267Y18913329D01*
X69571855Y19201526D01*
X69587804Y19498543D01*
X69545501Y19792963D01*
X69446572Y20073474D01*
X69369868Y20216975D01*
X69118240Y20297635D01*
X68251605Y19431000D01*
X67892395Y19431000D01*
X67025760Y20297635D01*
X66774132Y20216975D01*
X66645733Y19948671D01*
X66572145Y19660474D01*
X66556196Y19363457D01*
X66598499Y19069037D01*
X66697428Y18788526D01*
X66774132Y18645025D01*
X66833483Y18626000D01*
X66539230Y18626000D01*
X66291682Y18601619D01*
X65974059Y18505268D01*
X65681335Y18348804D01*
X65424761Y18138239D01*
X65214196Y17881665D01*
X65057732Y17588941D01*
X64961381Y17271318D01*
X64928848Y16941000D01*
X30448453Y16941000D01*
X30102715Y17286738D01*
X29671141Y17575107D01*
X29191601Y17773739D01*
X28682525Y17875000D01*
X28163475Y17875000D01*
X27654399Y17773739D01*
X27174859Y17575107D01*
X26743285Y17286738D01*
X26376262Y16919715D01*
X26087893Y16488141D01*
X25889261Y16008601D01*
X25788000Y15499525D01*
X21096921Y15499525D01*
X21192637Y15595241D01*
X21349680Y15830273D01*
X21457853Y16091426D01*
X21513000Y16368665D01*
X21513000Y16651335D01*
X21457853Y16928574D01*
X21349680Y17189727D01*
X21192637Y17424759D01*
X20992759Y17624637D01*
X20757727Y17781680D01*
X20496574Y17889853D01*
X20219335Y17945000D01*
X19936665Y17945000D01*
X19659426Y17889853D01*
X19398273Y17781680D01*
X19163241Y17624637D01*
X18963363Y17424759D01*
X18806320Y17189727D01*
X18698147Y16928574D01*
X18693000Y16902699D01*
X18687853Y16928574D01*
X18579680Y17189727D01*
X18422637Y17424759D01*
X18222759Y17624637D01*
X17987727Y17781680D01*
X17726574Y17889853D01*
X17449335Y17945000D01*
X17166665Y17945000D01*
X16889426Y17889853D01*
X16628273Y17781680D01*
X16393241Y17624637D01*
X16193363Y17424759D01*
X16036320Y17189727D01*
X15928147Y16928574D01*
X15922487Y16900118D01*
X15841603Y17126292D01*
X15774671Y17251514D01*
X15530702Y17323097D01*
X14717605Y16510000D01*
X15530702Y15696903D01*
X15774671Y15768486D01*
X15895571Y16023996D01*
X15921212Y16126289D01*
X15928147Y16091426D01*
X16036320Y15830273D01*
X16193363Y15595241D01*
X16373000Y15415604D01*
X16373000Y15209836D01*
X16341574Y15222853D01*
X16064335Y15278000D01*
X15781665Y15278000D01*
X15504426Y15222853D01*
X15243273Y15114680D01*
X15008241Y14957637D01*
X14808363Y14757759D01*
X14651320Y14522727D01*
X14543147Y14261574D01*
X14538000Y14235699D01*
X14532853Y14261574D01*
X14424680Y14522727D01*
X14267637Y14757759D01*
X14067759Y14957637D01*
X13832727Y15114680D01*
X13571574Y15222853D01*
X13294335Y15278000D01*
X13011665Y15278000D01*
X12734426Y15222853D01*
X12473273Y15114680D01*
X12238241Y14957637D01*
X12038363Y14757759D01*
X11881320Y14522727D01*
X11773147Y14261574D01*
X11768000Y14235699D01*
X11762853Y14261574D01*
X11654680Y14522727D01*
X11497637Y14757759D01*
X11297759Y14957637D01*
X11062727Y15114680D01*
X10801574Y15222853D01*
X10524335Y15278000D01*
X10241665Y15278000D01*
X9964426Y15222853D01*
X9703273Y15114680D01*
X9468241Y14957637D01*
X9268363Y14757759D01*
X9111320Y14522727D01*
X9003147Y14261574D01*
X8948000Y13984335D01*
X8948000Y13701665D01*
X9003147Y13424426D01*
X9111320Y13163273D01*
X9268363Y12928241D01*
X9468241Y12728363D01*
X9703273Y12571320D01*
X9964426Y12463147D01*
X10241665Y12408000D01*
X10524335Y12408000D01*
X10801574Y12463147D01*
X11062727Y12571320D01*
X11297759Y12728363D01*
X11497637Y12928241D01*
X11654680Y13163273D01*
X11762853Y13424426D01*
X11768000Y13450301D01*
X11773147Y13424426D01*
X11881320Y13163273D01*
X12038363Y12928241D01*
X12218001Y12748603D01*
X12218000Y11762290D01*
X10788711Y10333000D01*
X9984396Y10333000D01*
X9804759Y10512637D01*
X9569727Y10669680D01*
X9308574Y10777853D01*
X9031335Y10833000D01*
X8748665Y10833000D01*
X8471426Y10777853D01*
X8210273Y10669680D01*
X7975241Y10512637D01*
X7775363Y10312759D01*
X7618320Y10077727D01*
X7510147Y9816574D01*
X7455000Y9539335D01*
X6875488Y9539335D01*
X6507685Y9907138D01*
X5945082Y10283057D01*
X5319952Y10541994D01*
X4656318Y10674000D01*
X3979682Y10674000D01*
X3316048Y10541994D01*
X2690918Y10283057D01*
X2128315Y9907138D01*
X1649862Y9428685D01*
X1273943Y8866082D01*
X1015006Y8240952D01*
X883000Y7577318D01*
X660000Y7577318D01*
X660000Y15499525D01*
X794000Y15499525D01*
X794000Y14980475D01*
X895261Y14471399D01*
X1093893Y13991859D01*
X1382262Y13560285D01*
X1749285Y13193262D01*
X2180859Y12904893D01*
X2660399Y12706261D01*
X3169475Y12605000D01*
X3688525Y12605000D01*
X4197601Y12706261D01*
X4677141Y12904893D01*
X5108715Y13193262D01*
X5475738Y13560285D01*
X5764107Y13991859D01*
X5962739Y14471399D01*
X6064000Y14980475D01*
X6064000Y15499525D01*
X5962739Y16008601D01*
X5764107Y16488141D01*
X5655065Y16651335D01*
X10333000Y16651335D01*
X10333000Y16368665D01*
X10388147Y16091426D01*
X10496320Y15830273D01*
X10653363Y15595241D01*
X10853241Y15395363D01*
X11088273Y15238320D01*
X11349426Y15130147D01*
X11626665Y15075000D01*
X11909335Y15075000D01*
X12186574Y15130147D01*
X12447727Y15238320D01*
X12682759Y15395363D01*
X12804694Y15517298D01*
X13724903Y15517298D01*
X13796486Y15273329D01*
X14051996Y15152429D01*
X14326184Y15083700D01*
X14608512Y15069783D01*
X14888130Y15111213D01*
X15154292Y15206397D01*
X15279514Y15273329D01*
X15351097Y15517298D01*
X14538000Y16330395D01*
X13724903Y15517298D01*
X12804694Y15517298D01*
X12882637Y15595241D01*
X13039680Y15830273D01*
X13147853Y16091426D01*
X13153513Y16119882D01*
X13234397Y15893708D01*
X13301329Y15768486D01*
X13545298Y15696903D01*
X14358395Y16510000D01*
X13545298Y17323097D01*
X13301329Y17251514D01*
X13180429Y16996004D01*
X13154788Y16893711D01*
X13147853Y16928574D01*
X13039680Y17189727D01*
X12882637Y17424759D01*
X12804694Y17502702D01*
X13724903Y17502702D01*
X14538000Y16689605D01*
X15351097Y17502702D01*
X15279514Y17746671D01*
X15024004Y17867571D01*
X14749816Y17936300D01*
X14467488Y17950217D01*
X14187870Y17908787D01*
X13921708Y17813603D01*
X13796486Y17746671D01*
X13724903Y17502702D01*
X12804694Y17502702D01*
X12682759Y17624637D01*
X12447727Y17781680D01*
X12186574Y17889853D01*
X11909335Y17945000D01*
X11626665Y17945000D01*
X11349426Y17889853D01*
X11088273Y17781680D01*
X10853241Y17624637D01*
X10653363Y17424759D01*
X10496320Y17189727D01*
X10388147Y16928574D01*
X10333000Y16651335D01*
X5655065Y16651335D01*
X5475738Y16919715D01*
X5108715Y17286738D01*
X4677141Y17575107D01*
X4197601Y17773739D01*
X3688525Y17875000D01*
X3169475Y17875000D01*
X2660399Y17773739D01*
X2180859Y17575107D01*
X1749285Y17286738D01*
X1382262Y16919715D01*
X1093893Y16488141D01*
X895261Y16008601D01*
X794000Y15499525D01*
X660000Y15499525D01*
X660000Y20477240D01*
X67205365Y20477240D01*
X68072000Y19610605D01*
X68938635Y20477240D01*
X68857975Y20728868D01*
X68589671Y20857267D01*
X68301474Y20930855D01*
X68004457Y20946804D01*
X67710037Y20904501D01*
X67429526Y20805572D01*
X67286025Y20728868D01*
X67205365Y20477240D01*
X660000Y20477240D01*
X660000Y23724000D01*
X76048000Y23724000D01*
X76048001Y660000D01*
G37*
%TD.AperFunction*%
D21*
X43169525Y4387368D02*
X43376368Y4180525D01*
X43550760Y4064000D01*
X43376368Y3947475D01*
X43169525Y3740632D01*
X43047805Y3558466D01*
X42978178Y3675355D01*
X42783269Y3891588D01*
X42553594Y4062900D01*
X42729632Y4180525D01*
X42936475Y4387368D01*
X43053000Y4561760D01*
X43169525Y4387368D01*
%TA.AperFunction,Conductor*%
D22*
G36*
X43169525Y4387368D02*
G01*
X43376368Y4180525D01*
X43550760Y4064000D01*
X43376368Y3947475D01*
X43169525Y3740632D01*
X43047805Y3558466D01*
X42978178Y3675355D01*
X42783269Y3891588D01*
X42553594Y4062900D01*
X42729632Y4180525D01*
X42936475Y4387368D01*
X43053000Y4561760D01*
X43169525Y4387368D01*
G37*
%TD.AperFunction*%
D21*
X55869525Y10102368D02*
X56076368Y9895525D01*
X56188001Y9820934D01*
X56188001Y9439028D01*
X56183960Y9398000D01*
X56200082Y9234312D01*
X56247828Y9076914D01*
X56325364Y8931855D01*
X56341662Y8911996D01*
X56429710Y8804709D01*
X56461574Y8778559D01*
X57712000Y7528132D01*
X57712000Y6642755D01*
X57527099Y6730825D01*
X57379890Y6775476D01*
X57150000Y6654155D01*
X57150000Y5461000D01*
X57170000Y5461000D01*
X57170000Y5207000D01*
X57150000Y5207000D01*
X57150000Y5187000D01*
X56896000Y5187000D01*
X56896000Y5207000D01*
X56876000Y5207000D01*
X56876000Y5461000D01*
X56896000Y5461000D01*
X56896000Y6654155D01*
X56666110Y6775476D01*
X56568001Y6745718D01*
X56568001Y7598992D01*
X56572040Y7640000D01*
X56568001Y7681008D01*
X56568001Y7681018D01*
X56555919Y7803688D01*
X56508173Y7961086D01*
X56430637Y8106145D01*
X56326292Y8233290D01*
X56294429Y8259439D01*
X55318000Y9235867D01*
X55318000Y9820935D01*
X55429632Y9895525D01*
X55636475Y10102368D01*
X55753000Y10276760D01*
X55869525Y10102368D01*
%TA.AperFunction,Conductor*%
D22*
G36*
X55869525Y10102368D02*
G01*
X56076368Y9895525D01*
X56188001Y9820934D01*
X56188001Y9439028D01*
X56183960Y9398000D01*
X56200082Y9234312D01*
X56247828Y9076914D01*
X56325364Y8931855D01*
X56341662Y8911996D01*
X56429710Y8804709D01*
X56461574Y8778559D01*
X57712000Y7528132D01*
X57712000Y6642755D01*
X57527099Y6730825D01*
X57379890Y6775476D01*
X57150000Y6654155D01*
X57150000Y5461000D01*
X57170000Y5461000D01*
X57170000Y5207000D01*
X57150000Y5207000D01*
X57150000Y5187000D01*
X56896000Y5187000D01*
X56896000Y5207000D01*
X56876000Y5207000D01*
X56876000Y5461000D01*
X56896000Y5461000D01*
X56896000Y6654155D01*
X56666110Y6775476D01*
X56568001Y6745718D01*
X56568001Y7598992D01*
X56572040Y7640000D01*
X56568001Y7681008D01*
X56568001Y7681018D01*
X56555919Y7803688D01*
X56508173Y7961086D01*
X56430637Y8106145D01*
X56326292Y8233290D01*
X56294429Y8259439D01*
X55318000Y9235867D01*
X55318000Y9820935D01*
X55429632Y9895525D01*
X55636475Y10102368D01*
X55753000Y10276760D01*
X55869525Y10102368D01*
G37*
%TD.AperFunction*%
D21*
X41910000Y11176000D02*
X41930000Y11176000D01*
X41930000Y10922000D01*
X41910000Y10922000D01*
X41910000Y9722750D01*
X42068750Y9564000D01*
X42218001Y9563187D01*
X42218001Y8804028D01*
X42213960Y8763000D01*
X42230082Y8599312D01*
X42277828Y8441914D01*
X42345175Y8315918D01*
X42355365Y8296854D01*
X42459710Y8169709D01*
X42491574Y8143559D01*
X43488000Y7147132D01*
X43488000Y6562065D01*
X43376368Y6487475D01*
X43169525Y6280632D01*
X43053000Y6106240D01*
X42936475Y6280632D01*
X42729632Y6487475D01*
X42618000Y6562065D01*
X42618000Y7451993D01*
X42622039Y7493001D01*
X42618000Y7534009D01*
X42618000Y7534019D01*
X42605918Y7656689D01*
X42558172Y7814087D01*
X42480636Y7959146D01*
X42376291Y8086291D01*
X42344428Y8112440D01*
X41221000Y9235867D01*
X41221000Y9562496D01*
X41497250Y9564000D01*
X41656000Y9722750D01*
X41656000Y10922000D01*
X41636000Y10922000D01*
X41636000Y11176000D01*
X41656000Y11176000D01*
X41656000Y11196000D01*
X41910000Y11196000D01*
X41910000Y11176000D01*
%TA.AperFunction,Conductor*%
D22*
G36*
X41910000Y11176000D02*
G01*
X41930000Y11176000D01*
X41930000Y10922000D01*
X41910000Y10922000D01*
X41910000Y9722750D01*
X42068750Y9564000D01*
X42218001Y9563187D01*
X42218001Y8804028D01*
X42213960Y8763000D01*
X42230082Y8599312D01*
X42277828Y8441914D01*
X42345175Y8315918D01*
X42355365Y8296854D01*
X42459710Y8169709D01*
X42491574Y8143559D01*
X43488000Y7147132D01*
X43488000Y6562065D01*
X43376368Y6487475D01*
X43169525Y6280632D01*
X43053000Y6106240D01*
X42936475Y6280632D01*
X42729632Y6487475D01*
X42618000Y6562065D01*
X42618000Y7451993D01*
X42622039Y7493001D01*
X42618000Y7534009D01*
X42618000Y7534019D01*
X42605918Y7656689D01*
X42558172Y7814087D01*
X42480636Y7959146D01*
X42376291Y8086291D01*
X42344428Y8112440D01*
X41221000Y9235867D01*
X41221000Y9562496D01*
X41497250Y9564000D01*
X41656000Y9722750D01*
X41656000Y10922000D01*
X41636000Y10922000D01*
X41636000Y11176000D01*
X41656000Y11176000D01*
X41656000Y11196000D01*
X41910000Y11196000D01*
X41910000Y11176000D01*
G37*
%TD.AperFunction*%
%TD*%
M02*
