%TF.GenerationSoftware,KiCad,Pcbnew,(5.1.12)-1*%
%TF.CreationDate,2023-01-17T22:16:04+01:00*%
%TF.ProjectId,Connectors,436f6e6e-6563-4746-9f72-732e6b696361,rev?*%
%TF.SameCoordinates,PX7065700PY5b33698*%
%TF.FileFunction,Soldermask,Bot*%
%TF.FilePolarity,Negative*%
%FSLAX46Y46*%
G04 Gerber Fmt 4.6, Leading zero omitted, Abs format (unit mm)*
G04 Created by KiCad (PCBNEW (5.1.12)-1) date 2023-01-17 22:16:04*
%MOMM*%
%LPD*%
G01*
G04 APERTURE LIST*
%ADD10O,2.500000X2.100000*%
%ADD11C,1.750000*%
%ADD12C,1.600000*%
%ADD13C,4.000000*%
%ADD14R,1.700000X1.700000*%
%ADD15C,1.700000*%
%ADD16O,1.700000X1.700000*%
%ADD17C,5.600000*%
G04 APERTURE END LIST*
D10*
%TO.C,SW1*%
X66822000Y16941000D03*
D11*
X68072000Y19431000D03*
X72572000Y19431000D03*
D10*
X73832000Y16941000D03*
%TD*%
D12*
%TO.C,C1*%
X13890000Y9398000D03*
X8890000Y9398000D03*
%TD*%
D13*
%TO.C,J15*%
X3429000Y15240000D03*
X28423000Y15240000D03*
D12*
X11768000Y16510000D03*
X14538000Y16510000D03*
X17308000Y16510000D03*
X20078000Y16510000D03*
X10383000Y13843000D03*
X13153000Y13843000D03*
X15923000Y13843000D03*
X18693000Y13843000D03*
D14*
X21463000Y13843000D03*
%TD*%
D15*
%TO.C,J16*%
X57023000Y13589000D03*
X54483000Y13589000D03*
X51943000Y13589000D03*
X49403000Y13589000D03*
X46863000Y13589000D03*
X44323000Y13589000D03*
X41783000Y13589000D03*
X57023000Y11049000D03*
X54483000Y11049000D03*
X51943000Y11049000D03*
X49403000Y11049000D03*
X46863000Y11049000D03*
X44323000Y11049000D03*
G36*
G01*
X42383000Y10199000D02*
X41183000Y10199000D01*
G75*
G02*
X40933000Y10449000I0J250000D01*
G01*
X40933000Y11649000D01*
G75*
G02*
X41183000Y11899000I250000J0D01*
G01*
X42383000Y11899000D01*
G75*
G02*
X42633000Y11649000I0J-250000D01*
G01*
X42633000Y10449000D01*
G75*
G02*
X42383000Y10199000I-250000J0D01*
G01*
G37*
%TD*%
D16*
%TO.C,J14*%
X26543000Y5334000D03*
X24003000Y5334000D03*
X21463000Y5334000D03*
X18923000Y5334000D03*
X16383000Y5334000D03*
X13843000Y5334000D03*
D14*
X11303000Y5334000D03*
%TD*%
D16*
%TO.C,J13*%
X41783000Y5334000D03*
X41783000Y2794000D03*
X44323000Y5334000D03*
X44323000Y2794000D03*
X46863000Y5334000D03*
X46863000Y2794000D03*
X49403000Y5334000D03*
X49403000Y2794000D03*
X51943000Y5334000D03*
X51943000Y2794000D03*
X54483000Y5334000D03*
X54483000Y2794000D03*
X57023000Y5334000D03*
D14*
X57023000Y2794000D03*
%TD*%
D17*
%TO.C,H2*%
X64008000Y4699000D03*
%TD*%
%TO.C,H1*%
X4318000Y7239000D03*
%TD*%
M02*
