%TF.GenerationSoftware,KiCad,Pcbnew,(5.1.12)-1*%
%TF.CreationDate,2023-01-17T22:16:04+01:00*%
%TF.ProjectId,Connectors,436f6e6e-6563-4746-9f72-732e6b696361,rev?*%
%TF.SameCoordinates,PX7065700PY5b33698*%
%TF.FileFunction,Legend,Top*%
%TF.FilePolarity,Positive*%
%FSLAX46Y46*%
G04 Gerber Fmt 4.6, Leading zero omitted, Abs format (unit mm)*
G04 Created by KiCad (PCBNEW (5.1.12)-1) date 2023-01-17 22:16:04*
%MOMM*%
%LPD*%
G01*
G04 APERTURE LIST*
%ADD10C,0.300000*%
%ADD11C,0.120000*%
%ADD12C,0.150000*%
%ADD13C,0.200000*%
G04 APERTURE END LIST*
D10*
X2351619Y2873239D02*
X2732571Y2873239D01*
X2923047Y2778000D01*
X3113523Y2587524D01*
X3208761Y2206572D01*
X3208761Y1539905D01*
X3113523Y1158953D01*
X2923047Y968477D01*
X2732571Y873239D01*
X2351619Y873239D01*
X2161142Y968477D01*
X1970666Y1158953D01*
X1875428Y1539905D01*
X1875428Y2206572D01*
X1970666Y2587524D01*
X2161142Y2778000D01*
X2351619Y2873239D01*
X5208761Y873239D02*
X4542095Y1825620D01*
X4065904Y873239D02*
X4065904Y2873239D01*
X4827809Y2873239D01*
X5018285Y2778000D01*
X5113523Y2682762D01*
X5208761Y2492286D01*
X5208761Y2206572D01*
X5113523Y2016096D01*
X5018285Y1920858D01*
X4827809Y1825620D01*
X4065904Y1825620D01*
X6065904Y873239D02*
X6065904Y2873239D01*
X8161142Y1063715D02*
X8065904Y968477D01*
X7780190Y873239D01*
X7589714Y873239D01*
X7304000Y968477D01*
X7113523Y1158953D01*
X7018285Y1349429D01*
X6923047Y1730381D01*
X6923047Y2016096D01*
X7018285Y2397048D01*
X7113523Y2587524D01*
X7304000Y2778000D01*
X7589714Y2873239D01*
X7780190Y2873239D01*
X8065904Y2778000D01*
X8161142Y2682762D01*
X10256380Y2873239D02*
X11399238Y2873239D01*
X10827809Y873239D02*
X10827809Y2873239D01*
X12065904Y1920858D02*
X12732571Y1920858D01*
X13018285Y873239D02*
X12065904Y873239D01*
X12065904Y2873239D01*
X13018285Y2873239D01*
X14827809Y873239D02*
X13875428Y873239D01*
X13875428Y2873239D01*
X15494476Y1920858D02*
X16161142Y1920858D01*
X16446857Y873239D02*
X15494476Y873239D01*
X15494476Y2873239D01*
X16446857Y2873239D01*
X17208761Y968477D02*
X17494476Y873239D01*
X17970666Y873239D01*
X18161142Y968477D01*
X18256380Y1063715D01*
X18351619Y1254191D01*
X18351619Y1444667D01*
X18256380Y1635143D01*
X18161142Y1730381D01*
X17970666Y1825620D01*
X17589714Y1920858D01*
X17399238Y2016096D01*
X17304000Y2111334D01*
X17208761Y2301810D01*
X17208761Y2492286D01*
X17304000Y2682762D01*
X17399238Y2778000D01*
X17589714Y2873239D01*
X18065904Y2873239D01*
X18351619Y2778000D01*
X18923047Y2873239D02*
X20065904Y2873239D01*
X19494476Y873239D02*
X19494476Y2873239D01*
X21875428Y873239D02*
X21208761Y1825620D01*
X20732571Y873239D02*
X20732571Y2873239D01*
X21494476Y2873239D01*
X21684952Y2778000D01*
X21780190Y2682762D01*
X21875428Y2492286D01*
X21875428Y2206572D01*
X21780190Y2016096D01*
X21684952Y1920858D01*
X21494476Y1825620D01*
X20732571Y1825620D01*
X22637333Y1444667D02*
X23589714Y1444667D01*
X22446857Y873239D02*
X23113523Y2873239D01*
X23780190Y873239D01*
X24161142Y2873239D02*
X25304000Y2873239D01*
X24732571Y873239D02*
X24732571Y2873239D01*
X27494476Y873239D02*
X27494476Y2873239D01*
X28446857Y873239D02*
X28446857Y2873239D01*
X30923047Y1920858D02*
X31589714Y1920858D01*
X31875428Y873239D02*
X30923047Y873239D01*
X30923047Y2873239D01*
X31875428Y2873239D01*
X32542095Y2873239D02*
X33875428Y873239D01*
X33875428Y2873239D02*
X32542095Y873239D01*
X34637333Y873239D02*
X34637333Y2873239D01*
X35399238Y2873239D01*
X35589714Y2778000D01*
X35684952Y2682762D01*
X35780190Y2492286D01*
X35780190Y2206572D01*
X35684952Y2016096D01*
X35589714Y1920858D01*
X35399238Y1825620D01*
X34637333Y1825620D01*
X36637333Y1063715D02*
X36732571Y968477D01*
X36637333Y873239D01*
X36542095Y968477D01*
X36637333Y1063715D01*
X36637333Y873239D01*
D11*
%TO.C,SW1*%
X68622000Y18461000D02*
X72022000Y18461000D01*
X66982000Y18461000D02*
X67522000Y18461000D01*
X74182000Y15631000D02*
X74182000Y15121000D01*
X73662000Y15121000D02*
X74182000Y15121000D01*
X73662000Y15631000D02*
X73662000Y15121000D01*
X73122000Y18461000D02*
X73662000Y18461000D01*
X66462000Y15631000D02*
X66462000Y15121000D01*
X66982000Y15631000D02*
X66982000Y15121000D01*
X73662000Y18461000D02*
X73662000Y18231000D01*
X66462000Y22131000D02*
X66462000Y18231000D01*
X66462000Y15121000D02*
X66982000Y15121000D01*
X74182000Y22131000D02*
X74182000Y18231000D01*
X66462000Y22131000D02*
X74182000Y22131000D01*
X66982000Y18461000D02*
X66982000Y18231000D01*
%TO.C,C1*%
X8770000Y10768000D02*
X14010000Y10768000D01*
X8770000Y8028000D02*
X14010000Y8028000D01*
X8770000Y10768000D02*
X8770000Y10453000D01*
X8770000Y8343000D02*
X8770000Y8028000D01*
X14010000Y10768000D02*
X14010000Y10453000D01*
X14010000Y8343000D02*
X14010000Y8028000D01*
%TO.C,J15*%
X31408000Y23849000D02*
X31408000Y12827000D01*
X31408000Y12827000D02*
X438000Y12827000D01*
X438000Y12827000D02*
X438000Y23849000D01*
X21713000Y11585662D02*
X21213000Y11585662D01*
X21213000Y11585662D02*
X21463000Y12018675D01*
X21463000Y12018675D02*
X21713000Y11585662D01*
%TO.C,J16*%
X42283000Y8699000D02*
X41783000Y9699000D01*
X41283000Y8699000D02*
X42283000Y8699000D01*
X41783000Y9699000D02*
X41283000Y8699000D01*
X62233000Y15319000D02*
X36573000Y15319000D01*
X62233000Y24439000D02*
X62233000Y15319000D01*
X36573000Y24439000D02*
X62233000Y24439000D01*
X36573000Y15319000D02*
X36573000Y24439000D01*
X51453000Y15319000D02*
X51453000Y24439000D01*
X47353000Y15319000D02*
X47353000Y24439000D01*
%TO.C,SW1*%
D12*
X68988666Y16613239D02*
X69131523Y16565620D01*
X69369619Y16565620D01*
X69464857Y16613239D01*
X69512476Y16660858D01*
X69560095Y16756096D01*
X69560095Y16851334D01*
X69512476Y16946572D01*
X69464857Y16994191D01*
X69369619Y17041810D01*
X69179142Y17089429D01*
X69083904Y17137048D01*
X69036285Y17184667D01*
X68988666Y17279905D01*
X68988666Y17375143D01*
X69036285Y17470381D01*
X69083904Y17518000D01*
X69179142Y17565620D01*
X69417238Y17565620D01*
X69560095Y17518000D01*
X69893428Y17565620D02*
X70131523Y16565620D01*
X70322000Y17279905D01*
X70512476Y16565620D01*
X70750571Y17565620D01*
X71655333Y16565620D02*
X71083904Y16565620D01*
X71369619Y16565620D02*
X71369619Y17565620D01*
X71274380Y17422762D01*
X71179142Y17327524D01*
X71083904Y17279905D01*
D13*
X68807190Y12492905D02*
X68807190Y13792905D01*
X69550047Y12492905D01*
X69550047Y13792905D01*
X70169095Y12492905D02*
X70169095Y13792905D01*
X70602428Y12864334D01*
X71035761Y13792905D01*
X71035761Y12492905D01*
X71654809Y12492905D02*
X71654809Y13792905D01*
%TO.C,C1*%
D12*
X8723333Y11326858D02*
X8675714Y11279239D01*
X8532857Y11231620D01*
X8437619Y11231620D01*
X8294761Y11279239D01*
X8199523Y11374477D01*
X8151904Y11469715D01*
X8104285Y11660191D01*
X8104285Y11803048D01*
X8151904Y11993524D01*
X8199523Y12088762D01*
X8294761Y12184000D01*
X8437619Y12231620D01*
X8532857Y12231620D01*
X8675714Y12184000D01*
X8723333Y12136381D01*
X9675714Y11231620D02*
X9104285Y11231620D01*
X9390000Y11231620D02*
X9390000Y12231620D01*
X9294761Y12088762D01*
X9199523Y11993524D01*
X9104285Y11945905D01*
X11025380Y11231620D02*
X10453952Y11231620D01*
X10739666Y11231620D02*
X10739666Y12231620D01*
X10644428Y12088762D01*
X10549190Y11993524D01*
X10453952Y11945905D01*
X11644428Y12231620D02*
X11739666Y12231620D01*
X11834904Y12184000D01*
X11882523Y12136381D01*
X11930142Y12041143D01*
X11977761Y11850667D01*
X11977761Y11612572D01*
X11930142Y11422096D01*
X11882523Y11326858D01*
X11834904Y11279239D01*
X11739666Y11231620D01*
X11644428Y11231620D01*
X11549190Y11279239D01*
X11501571Y11326858D01*
X11453952Y11422096D01*
X11406333Y11612572D01*
X11406333Y11850667D01*
X11453952Y12041143D01*
X11501571Y12136381D01*
X11549190Y12184000D01*
X11644428Y12231620D01*
X12596809Y12231620D02*
X12692047Y12231620D01*
X12787285Y12184000D01*
X12834904Y12136381D01*
X12882523Y12041143D01*
X12930142Y11850667D01*
X12930142Y11612572D01*
X12882523Y11422096D01*
X12834904Y11326858D01*
X12787285Y11279239D01*
X12692047Y11231620D01*
X12596809Y11231620D01*
X12501571Y11279239D01*
X12453952Y11326858D01*
X12406333Y11422096D01*
X12358714Y11612572D01*
X12358714Y11850667D01*
X12406333Y12041143D01*
X12453952Y12136381D01*
X12501571Y12184000D01*
X12596809Y12231620D01*
X13358714Y11898286D02*
X13358714Y11231620D01*
X13358714Y11803048D02*
X13406333Y11850667D01*
X13501571Y11898286D01*
X13644428Y11898286D01*
X13739666Y11850667D01*
X13787285Y11755429D01*
X13787285Y11231620D01*
X14596809Y11755429D02*
X14263476Y11755429D01*
X14263476Y11231620D02*
X14263476Y12231620D01*
X14739666Y12231620D01*
%TO.C,J15*%
X968476Y12358620D02*
X968476Y11644334D01*
X920857Y11501477D01*
X825619Y11406239D01*
X682761Y11358620D01*
X587523Y11358620D01*
X1968476Y11358620D02*
X1397047Y11358620D01*
X1682761Y11358620D02*
X1682761Y12358620D01*
X1587523Y12215762D01*
X1492285Y12120524D01*
X1397047Y12072905D01*
X2873238Y12358620D02*
X2397047Y12358620D01*
X2349428Y11882429D01*
X2397047Y11930048D01*
X2492285Y11977667D01*
X2730380Y11977667D01*
X2825619Y11930048D01*
X2873238Y11882429D01*
X2920857Y11787191D01*
X2920857Y11549096D01*
X2873238Y11453858D01*
X2825619Y11406239D01*
X2730380Y11358620D01*
X2492285Y11358620D01*
X2397047Y11406239D01*
X2349428Y11453858D01*
D13*
X23095476Y10841905D02*
X23095476Y12141905D01*
X23590714Y12141905D01*
X23714523Y12080000D01*
X23776428Y12018096D01*
X23838333Y11894286D01*
X23838333Y11708572D01*
X23776428Y11584762D01*
X23714523Y11522858D01*
X23590714Y11460953D01*
X23095476Y11460953D01*
X24333571Y11213334D02*
X24952619Y11213334D01*
X24209761Y10841905D02*
X24643095Y12141905D01*
X25076428Y10841905D01*
X25509761Y10841905D02*
X25509761Y12141905D01*
X25819285Y12141905D01*
X26005000Y12080000D01*
X26128809Y11956191D01*
X26190714Y11832381D01*
X26252619Y11584762D01*
X26252619Y11399048D01*
X26190714Y11151429D01*
X26128809Y11027620D01*
X26005000Y10903810D01*
X25819285Y10841905D01*
X25509761Y10841905D01*
X26500238Y10718096D02*
X27490714Y10718096D01*
X28419285Y10841905D02*
X27800238Y10841905D01*
X27800238Y12141905D01*
X28852619Y11522858D02*
X29285952Y11522858D01*
X29471666Y10841905D02*
X28852619Y10841905D01*
X28852619Y12141905D01*
X29471666Y12141905D01*
X30462142Y11522858D02*
X30028809Y11522858D01*
X30028809Y10841905D02*
X30028809Y12141905D01*
X30647857Y12141905D01*
X30957380Y12141905D02*
X31700238Y12141905D01*
X31328809Y10841905D02*
X31328809Y12141905D01*
%TO.C,J16*%
D12*
X36909476Y13247620D02*
X36909476Y12533334D01*
X36861857Y12390477D01*
X36766619Y12295239D01*
X36623761Y12247620D01*
X36528523Y12247620D01*
X37909476Y12247620D02*
X37338047Y12247620D01*
X37623761Y12247620D02*
X37623761Y13247620D01*
X37528523Y13104762D01*
X37433285Y13009524D01*
X37338047Y12961905D01*
X38766619Y13247620D02*
X38576142Y13247620D01*
X38480904Y13200000D01*
X38433285Y13152381D01*
X38338047Y13009524D01*
X38290428Y12819048D01*
X38290428Y12438096D01*
X38338047Y12342858D01*
X38385666Y12295239D01*
X38480904Y12247620D01*
X38671380Y12247620D01*
X38766619Y12295239D01*
X38814238Y12342858D01*
X38861857Y12438096D01*
X38861857Y12676191D01*
X38814238Y12771429D01*
X38766619Y12819048D01*
X38671380Y12866667D01*
X38480904Y12866667D01*
X38385666Y12819048D01*
X38338047Y12771429D01*
X38290428Y12676191D01*
D13*
X43805404Y7857405D02*
X43805404Y9157405D01*
X44238738Y8228834D01*
X44672071Y9157405D01*
X44672071Y7857405D01*
X45291119Y7857405D02*
X45291119Y9157405D01*
X45910166Y7857405D02*
X45910166Y9157405D01*
X46219690Y9157405D01*
X46405404Y9095500D01*
X46529214Y8971691D01*
X46591119Y8847881D01*
X46653023Y8600262D01*
X46653023Y8414548D01*
X46591119Y8166929D01*
X46529214Y8043120D01*
X46405404Y7919310D01*
X46219690Y7857405D01*
X45910166Y7857405D01*
X47210166Y7857405D02*
X47210166Y9157405D01*
X48757785Y9219310D02*
X47643500Y7547881D01*
X49191119Y7857405D02*
X49191119Y9157405D01*
X49624452Y8228834D01*
X50057785Y9157405D01*
X50057785Y7857405D01*
X50924452Y9157405D02*
X51172071Y9157405D01*
X51295880Y9095500D01*
X51419690Y8971691D01*
X51481595Y8724072D01*
X51481595Y8290739D01*
X51419690Y8043120D01*
X51295880Y7919310D01*
X51172071Y7857405D01*
X50924452Y7857405D01*
X50800642Y7919310D01*
X50676833Y8043120D01*
X50614928Y8290739D01*
X50614928Y8724072D01*
X50676833Y8971691D01*
X50800642Y9095500D01*
X50924452Y9157405D01*
X52038738Y7857405D02*
X52038738Y9157405D01*
X52348261Y9157405D01*
X52533976Y9095500D01*
X52657785Y8971691D01*
X52719690Y8847881D01*
X52781595Y8600262D01*
X52781595Y8414548D01*
X52719690Y8166929D01*
X52657785Y8043120D01*
X52533976Y7919310D01*
X52348261Y7857405D01*
X52038738Y7857405D01*
X53338738Y8538358D02*
X53772071Y8538358D01*
X53957785Y7857405D02*
X53338738Y7857405D01*
X53338738Y9157405D01*
X53957785Y9157405D01*
X54514928Y7857405D02*
X54514928Y9157405D01*
X54948261Y8228834D01*
X55381595Y9157405D01*
X55381595Y7857405D01*
%TD*%
M02*
