G04 #@! TF.GenerationSoftware,KiCad,Pcbnew,(5.1.12)-1*
G04 #@! TF.CreationDate,2023-01-29T13:19:21+01:00*
G04 #@! TF.ProjectId,Keyboard,4b657962-6f61-4726-942e-6b696361645f,rev?*
G04 #@! TF.SameCoordinates,PX5baf6f8PY4eb9cf0*
G04 #@! TF.FileFunction,Copper,L2,Bot*
G04 #@! TF.FilePolarity,Positive*
%FSLAX46Y46*%
G04 Gerber Fmt 4.6, Leading zero omitted, Abs format (unit mm)*
G04 Created by KiCad (PCBNEW (5.1.12)-1) date 2023-01-29 13:19:21*
%MOMM*%
%LPD*%
G01*
G04 APERTURE LIST*
G04 #@! TA.AperFunction,Profile*
%ADD10C,0.381000*%
G04 #@! TD*
G04 #@! TA.AperFunction,ComponentPad*
%ADD11O,3.000000X2.000000*%
G04 #@! TD*
G04 #@! TA.AperFunction,ComponentPad*
%ADD12C,2.700000*%
G04 #@! TD*
G04 #@! TA.AperFunction,WasherPad*
%ADD13C,4.000000*%
G04 #@! TD*
G04 #@! TA.AperFunction,ComponentPad*
%ADD14O,7.000000X5.600000*%
G04 #@! TD*
G04 #@! TA.AperFunction,ComponentPad*
%ADD15C,5.600000*%
G04 #@! TD*
G04 #@! TA.AperFunction,ComponentPad*
%ADD16O,1.700000X1.700000*%
G04 #@! TD*
G04 #@! TA.AperFunction,ComponentPad*
%ADD17R,1.700000X1.700000*%
G04 #@! TD*
G04 #@! TA.AperFunction,ComponentPad*
%ADD18O,1.800000X1.800000*%
G04 #@! TD*
G04 #@! TA.AperFunction,ComponentPad*
%ADD19R,1.800000X1.800000*%
G04 #@! TD*
G04 #@! TA.AperFunction,ViaPad*
%ADD20C,2.000000*%
G04 #@! TD*
G04 #@! TA.AperFunction,Conductor*
%ADD21C,0.700000*%
G04 #@! TD*
G04 #@! TA.AperFunction,Conductor*
%ADD22C,0.500000*%
G04 #@! TD*
G04 APERTURE END LIST*
D10*
X0Y-2540000D02*
G75*
G02*
X4445000Y1905000I4445000J0D01*
G01*
X4445000Y-105918000D02*
G75*
G02*
X0Y-101473000I0J4445000D01*
G01*
X0Y-101473000D02*
X0Y-2540000D01*
X267716000Y-105918000D02*
X4445000Y-105918000D01*
X272161000Y-101473000D02*
X272161000Y-2540000D01*
X4445000Y1905000D02*
X267716000Y1905000D01*
X272161000Y-101473000D02*
G75*
G02*
X267716000Y-105918000I-4445000J0D01*
G01*
X267716000Y1905000D02*
G75*
G02*
X272161000Y-2540000I0J-4445000D01*
G01*
D11*
X3302000Y-18161000D03*
X3302000Y-9144000D03*
X26416000Y-8255000D03*
X26416000Y-254000D03*
D12*
X155448000Y-89789000D03*
X149098000Y-92329000D03*
D13*
X152908000Y-94869000D03*
D12*
X75438000Y-89789000D03*
X69088000Y-92329000D03*
D13*
X72898000Y-94869000D03*
D14*
X5080000Y-100838000D03*
X267081000Y-100838000D03*
D12*
X115443000Y-89789000D03*
X109093000Y-92329000D03*
D13*
X112903000Y-94869000D03*
D15*
X138303000Y-94869000D03*
X87503000Y-94869000D03*
D16*
X73660000Y-5207000D03*
X73660000Y-7747000D03*
X71120000Y-5207000D03*
X71120000Y-7747000D03*
X68580000Y-5207000D03*
X68580000Y-7747000D03*
X66040000Y-5207000D03*
X66040000Y-7747000D03*
X63500000Y-5207000D03*
X63500000Y-7747000D03*
X60960000Y-5207000D03*
X60960000Y-7747000D03*
X58420000Y-5207000D03*
D17*
X58420000Y-7747000D03*
D14*
X267081000Y-3175000D03*
X5080000Y-3175000D03*
D12*
X253238000Y-16129000D03*
X246888000Y-18669000D03*
D13*
X250698000Y-21209000D03*
D12*
X222885000Y-89789000D03*
X216535000Y-92329000D03*
D13*
X220345000Y-94869000D03*
D12*
X20955000Y-71374000D03*
X14605000Y-73914000D03*
D13*
X18415000Y-76454000D03*
D12*
X17145000Y-52832000D03*
X10795000Y-55372000D03*
D13*
X14605000Y-57912000D03*
D12*
X237109000Y-71374000D03*
X230759000Y-73914000D03*
D13*
X234569000Y-76454000D03*
D12*
X251714000Y-52832000D03*
X245364000Y-55372000D03*
D13*
X249174000Y-57912000D03*
D12*
X222123000Y-52832000D03*
X215773000Y-55372000D03*
D13*
X219583000Y-57912000D03*
D12*
X258445000Y-34544000D03*
X252095000Y-37084000D03*
D13*
X255905000Y-39624000D03*
D12*
X225171000Y-16129000D03*
X218821000Y-18669000D03*
D13*
X222631000Y-21209000D03*
D12*
X51435000Y-34544000D03*
X45085000Y-37084000D03*
D13*
X48895000Y-39624000D03*
D12*
X217170000Y-34544000D03*
X210820000Y-37084000D03*
D13*
X214630000Y-39624000D03*
D12*
X202184000Y-89789000D03*
X195834000Y-92329000D03*
D13*
X199644000Y-94869000D03*
D12*
X78613000Y-71374000D03*
X72263000Y-73914000D03*
D13*
X76073000Y-76454000D03*
D12*
X74803000Y-52832000D03*
X68453000Y-55372000D03*
D13*
X72263000Y-57912000D03*
D12*
X59436000Y-16129000D03*
X53086000Y-18669000D03*
D13*
X56896000Y-21209000D03*
D12*
X56388000Y-52832000D03*
X50038000Y-55372000D03*
D13*
X53848000Y-57912000D03*
D12*
X235585000Y-34544000D03*
X229235000Y-37084000D03*
D13*
X233045000Y-39624000D03*
D12*
X47117000Y-89789000D03*
X40767000Y-92329000D03*
D13*
X44577000Y-94869000D03*
D12*
X41021000Y-16129000D03*
X34671000Y-18669000D03*
D13*
X38481000Y-21209000D03*
D12*
X33020000Y-34544000D03*
X26670000Y-37084000D03*
D13*
X30480000Y-39624000D03*
D12*
X60198000Y-71374000D03*
X53848000Y-73914000D03*
D13*
X57658000Y-76454000D03*
D12*
X37973000Y-52832000D03*
X31623000Y-55372000D03*
D13*
X35433000Y-57912000D03*
D12*
X28702000Y-89789000D03*
X22352000Y-92329000D03*
D13*
X26162000Y-94869000D03*
D12*
X41783000Y-71374000D03*
X35433000Y-73914000D03*
D13*
X39243000Y-76454000D03*
D12*
X14605000Y-34544000D03*
X8255000Y-37084000D03*
D13*
X12065000Y-39624000D03*
D12*
X22606000Y-16129000D03*
X16256000Y-18669000D03*
D13*
X20066000Y-21209000D03*
D12*
X207518000Y-71374000D03*
X201168000Y-73914000D03*
D13*
X204978000Y-76454000D03*
D12*
X69850000Y-34544000D03*
X63500000Y-37084000D03*
D13*
X67310000Y-39624000D03*
D12*
X198755000Y-34544000D03*
X192405000Y-37084000D03*
D13*
X196215000Y-39624000D03*
D12*
X183769000Y-89789000D03*
X177419000Y-92329000D03*
D13*
X181229000Y-94869000D03*
D12*
X206756000Y-16129000D03*
X200406000Y-18669000D03*
D13*
X204216000Y-21209000D03*
D12*
X77851000Y-16129000D03*
X71501000Y-18669000D03*
D13*
X75311000Y-21209000D03*
D12*
X93218000Y-52832000D03*
X86868000Y-55372000D03*
D13*
X90678000Y-57912000D03*
D12*
X97028000Y-71374000D03*
X90678000Y-73914000D03*
D13*
X94488000Y-76454000D03*
D12*
X111633000Y-52832000D03*
X105283000Y-55372000D03*
D13*
X109093000Y-57912000D03*
D12*
X188341000Y-16129000D03*
X181991000Y-18669000D03*
D13*
X185801000Y-21209000D03*
D12*
X180340000Y-34544000D03*
X173990000Y-37084000D03*
D13*
X177800000Y-39624000D03*
D12*
X189103000Y-71374000D03*
X182753000Y-73914000D03*
D13*
X186563000Y-76454000D03*
D12*
X203708000Y-52832000D03*
X197358000Y-55372000D03*
D13*
X201168000Y-57912000D03*
D12*
X115443000Y-71374000D03*
X109093000Y-73914000D03*
D13*
X112903000Y-76454000D03*
D12*
X88265000Y-34544000D03*
X81915000Y-37084000D03*
D13*
X85725000Y-39624000D03*
D12*
X96266000Y-16129000D03*
X89916000Y-18669000D03*
D13*
X93726000Y-21209000D03*
D12*
X185293000Y-52832000D03*
X178943000Y-55372000D03*
D13*
X182753000Y-57912000D03*
D12*
X130048000Y-52832000D03*
X123698000Y-55372000D03*
D13*
X127508000Y-57912000D03*
D12*
X161925000Y-34544000D03*
X155575000Y-37084000D03*
D13*
X159385000Y-39624000D03*
D12*
X170688000Y-71374000D03*
X164338000Y-73914000D03*
D13*
X168148000Y-76454000D03*
D12*
X169926000Y-16129000D03*
X163576000Y-18669000D03*
D13*
X167386000Y-21209000D03*
D12*
X114681000Y-16129000D03*
X108331000Y-18669000D03*
D13*
X112141000Y-21209000D03*
D12*
X106680000Y-34544000D03*
X100330000Y-37084000D03*
D13*
X104140000Y-39624000D03*
D12*
X133858000Y-71374000D03*
X127508000Y-73914000D03*
D13*
X131318000Y-76454000D03*
D12*
X125095000Y-34544000D03*
X118745000Y-37084000D03*
D13*
X122555000Y-39624000D03*
D12*
X151511000Y-16129000D03*
X145161000Y-18669000D03*
D13*
X148971000Y-21209000D03*
D12*
X143510000Y-34544000D03*
X137160000Y-37084000D03*
D13*
X140970000Y-39624000D03*
D12*
X166878000Y-52832000D03*
X160528000Y-55372000D03*
D13*
X164338000Y-57912000D03*
D12*
X152273000Y-71374000D03*
X145923000Y-73914000D03*
D13*
X149733000Y-76454000D03*
D12*
X148463000Y-52832000D03*
X142113000Y-55372000D03*
D13*
X145923000Y-57912000D03*
D12*
X133096000Y-16129000D03*
X126746000Y-18669000D03*
D13*
X130556000Y-21209000D03*
D18*
X96520000Y-2667000D03*
X114300000Y-10287000D03*
X99060000Y-2667000D03*
X111760000Y-10287000D03*
X101600000Y-2667000D03*
X109220000Y-10287000D03*
X104140000Y-2667000D03*
X106680000Y-10287000D03*
X106680000Y-2667000D03*
X104140000Y-10287000D03*
X109220000Y-2667000D03*
X101600000Y-10287000D03*
X111760000Y-2667000D03*
X99060000Y-10287000D03*
X114300000Y-2667000D03*
D19*
X96520000Y-10287000D03*
D20*
X62992000Y-57404000D03*
X47752000Y-12827000D03*
X139700000Y-14605000D03*
X118237000Y-62992000D03*
X33020000Y-30353000D03*
X113284000Y-34544000D03*
X148463000Y-48641000D03*
X64770000Y-48895000D03*
X21336000Y-30480000D03*
X41783000Y-67183000D03*
X121285000Y-16129000D03*
X18669000Y-48641000D03*
X213487000Y-16129000D03*
X242316000Y-32131000D03*
X176530000Y-16002000D03*
X166878000Y-48768000D03*
X107061000Y-85725000D03*
X207518000Y-67183000D03*
X191897000Y-52832000D03*
X195072000Y-12065000D03*
X158242000Y-16129000D03*
X96266000Y-30353000D03*
X77343000Y-30353000D03*
X84455000Y-7493000D03*
X91821000Y-4699000D03*
X120777000Y-30353000D03*
X137160000Y-30480000D03*
X123444000Y-95250000D03*
X100838000Y-93218000D03*
X123698000Y-67183000D03*
X164338000Y-67183000D03*
X176657000Y-20447000D03*
X168529000Y-37084000D03*
X81915000Y-48768000D03*
X99949000Y-67056000D03*
X66167000Y-16637000D03*
X99949000Y-55372000D03*
X81534000Y-55372000D03*
X63500000Y-30353000D03*
X172085000Y-92329000D03*
X196723000Y-30353000D03*
X211455000Y-85598000D03*
X50038000Y-5461000D03*
X83439000Y-66929000D03*
X52324000Y-8128000D03*
X10795000Y-48641000D03*
X18542000Y-12192000D03*
X48387000Y-72644000D03*
X48387000Y-85217000D03*
X242316000Y-45593000D03*
X55245000Y-10287000D03*
X56388000Y-67056000D03*
X190373000Y-92456000D03*
X44704000Y-50927000D03*
D21*
X89535000Y-2667000D02*
X96520000Y-2667000D01*
X87884000Y-4318000D02*
X89535000Y-2667000D01*
X87884000Y-7493000D02*
X87884000Y-4318000D01*
X85217000Y-10160000D02*
X87884000Y-7493000D01*
X80137000Y-10160000D02*
X85217000Y-10160000D01*
X77724000Y-7747000D02*
X80137000Y-10160000D01*
X73660000Y-7747000D02*
X77724000Y-7747000D01*
X22606000Y-16129000D02*
X29845000Y-16129000D01*
X29845000Y-16129000D02*
X33147000Y-12827000D01*
X33147000Y-12827000D02*
X47752000Y-12827000D01*
X104140000Y-2667000D02*
X104140000Y-4445000D01*
X104140000Y-6731000D02*
X129286000Y-6731000D01*
X133096000Y-10541000D02*
X133096000Y-16129000D01*
X129286000Y-6731000D02*
X133096000Y-10541000D01*
X62992000Y-57404000D02*
X62992000Y-54356000D01*
X62992000Y-54356000D02*
X65151000Y-52197000D01*
X65151000Y-52197000D02*
X70612000Y-52197000D01*
X70612000Y-52197000D02*
X73914000Y-55499000D01*
X73914000Y-55499000D02*
X78613000Y-55499000D01*
X78613000Y-55499000D02*
X81534000Y-52578000D01*
X81534000Y-52578000D02*
X89408000Y-52578000D01*
X89408000Y-52578000D02*
X97028000Y-60198000D01*
X103759000Y-6731000D02*
X102870000Y-7620000D01*
X102870000Y-7620000D02*
X96012000Y-7620000D01*
X96012000Y-7620000D02*
X94234000Y-9398000D01*
X94234000Y-14097000D02*
X96266000Y-16129000D01*
X94234000Y-9398000D02*
X94234000Y-14097000D01*
X136398000Y-73914000D02*
X133858000Y-71374000D01*
X136398000Y-77978000D02*
X136398000Y-73914000D01*
X121920000Y-77343000D02*
X125730000Y-81153000D01*
X125730000Y-81153000D02*
X133223000Y-81153000D01*
X133223000Y-81153000D02*
X136398000Y-77978000D01*
X104140000Y-2667000D02*
X104140000Y-6731000D01*
X104140000Y-6731000D02*
X103759000Y-6731000D01*
X138176000Y-16129000D02*
X139700000Y-14605000D01*
X133096000Y-16129000D02*
X138176000Y-16129000D01*
X59055000Y-61341000D02*
X62992000Y-57404000D01*
X57023000Y-61341000D02*
X59055000Y-61341000D01*
X53213000Y-65151000D02*
X57023000Y-61341000D01*
X53213000Y-68580000D02*
X53213000Y-65151000D01*
X56007000Y-71374000D02*
X53213000Y-68580000D01*
X60198000Y-71374000D02*
X56007000Y-71374000D01*
X97155000Y-62992000D02*
X97028000Y-63119000D01*
X118237000Y-62992000D02*
X97155000Y-62992000D01*
X97028000Y-63119000D02*
X97028000Y-71374000D01*
X97028000Y-60198000D02*
X97028000Y-63119000D01*
X118237000Y-68199000D02*
X121920000Y-71882000D01*
X118237000Y-62992000D02*
X118237000Y-68199000D01*
X121920000Y-71882000D02*
X121920000Y-77343000D01*
X52578000Y-12827000D02*
X47752000Y-12827000D01*
X55880000Y-16129000D02*
X52578000Y-12827000D01*
X59436000Y-16129000D02*
X55880000Y-16129000D01*
X93218000Y-34798000D02*
X92964000Y-34544000D01*
X88265000Y-34544000D02*
X92964000Y-34544000D01*
X33020000Y-34544000D02*
X14605000Y-34544000D01*
X33020000Y-34544000D02*
X33020000Y-30353000D01*
X74803000Y-52832000D02*
X79502000Y-52832000D01*
X79502000Y-52832000D02*
X81026000Y-51308000D01*
X81026000Y-51308000D02*
X86614000Y-51308000D01*
X88900000Y-49022000D02*
X93218000Y-49022000D01*
X86614000Y-51308000D02*
X88900000Y-49022000D01*
X93218000Y-52832000D02*
X93218000Y-49022000D01*
X106680000Y-34544000D02*
X113284000Y-34544000D01*
X148463000Y-48641000D02*
X148463000Y-52832000D01*
X101600000Y-2667000D02*
X101600000Y-5461000D01*
X101600000Y-5461000D02*
X100457000Y-6604000D01*
X100457000Y-6604000D02*
X95504000Y-6604000D01*
X95504000Y-6604000D02*
X93091000Y-9017000D01*
X93091000Y-9017000D02*
X93091000Y-16256000D01*
X93091000Y-16256000D02*
X97917000Y-21082000D01*
X92964000Y-34544000D02*
X106680000Y-34544000D01*
X97917000Y-21082000D02*
X97917000Y-23495000D01*
X93218000Y-28194000D02*
X93218000Y-35814000D01*
X97917000Y-23495000D02*
X93218000Y-28194000D01*
X93218000Y-35814000D02*
X93218000Y-34798000D01*
X93218000Y-49022000D02*
X93218000Y-35814000D01*
X70866000Y-48895000D02*
X74803000Y-52832000D01*
X64770000Y-48895000D02*
X70866000Y-48895000D01*
X78613000Y-71374000D02*
X81153000Y-71374000D01*
X81153000Y-71374000D02*
X83439000Y-73660000D01*
X83439000Y-73660000D02*
X83439000Y-79248000D01*
X83439000Y-79248000D02*
X86614000Y-82423000D01*
X86614000Y-82423000D02*
X116205000Y-82423000D01*
X116205000Y-82423000D02*
X119126000Y-79502000D01*
X119126000Y-75057000D02*
X115443000Y-71374000D01*
X119126000Y-79502000D02*
X119126000Y-75057000D01*
X41783000Y-71374000D02*
X41783000Y-71501000D01*
X41783000Y-71501000D02*
X52578000Y-82296000D01*
X80391000Y-82296000D02*
X83439000Y-79248000D01*
X52578000Y-82296000D02*
X80391000Y-82296000D01*
X41021000Y-16129000D02*
X32639000Y-16129000D01*
X21336000Y-27432000D02*
X21336000Y-30480000D01*
X32639000Y-16129000D02*
X21336000Y-27432000D01*
X41783000Y-67183000D02*
X41783000Y-71374000D01*
X99060000Y-2667000D02*
X99060000Y-4699000D01*
X99060000Y-4699000D02*
X98171000Y-5588000D01*
X98171000Y-5588000D02*
X94361000Y-5588000D01*
X121285000Y-16129000D02*
X114681000Y-16129000D01*
X91630500Y-8318500D02*
X91630500Y-13398500D01*
X94361000Y-5588000D02*
X91630500Y-8318500D01*
X88900000Y-16129000D02*
X77851000Y-16129000D01*
X91630500Y-13398500D02*
X88900000Y-16129000D01*
X18669000Y-51308000D02*
X17145000Y-52832000D01*
X18669000Y-48641000D02*
X18669000Y-51308000D01*
X116205000Y-82423000D02*
X119634000Y-85852000D01*
X114681000Y-16129000D02*
X114681000Y-16510000D01*
X114681000Y-16510000D02*
X132969000Y-34798000D01*
X132969000Y-34798000D02*
X132969000Y-45720000D01*
X132969000Y-45720000D02*
X139192000Y-51943000D01*
X139192000Y-51943000D02*
X139192000Y-78486000D01*
X131826000Y-85852000D02*
X119634000Y-85852000D01*
X139192000Y-78486000D02*
X131826000Y-85852000D01*
X119634000Y-85852000D02*
X119507000Y-85979000D01*
X119507000Y-85979000D02*
X119507000Y-91313000D01*
X119507000Y-91313000D02*
X118364000Y-92456000D01*
X118364000Y-92456000D02*
X114681000Y-92456000D01*
X114681000Y-92456000D02*
X111760000Y-89535000D01*
X111760000Y-89535000D02*
X107569000Y-89535000D01*
X107569000Y-89535000D02*
X106045000Y-91059000D01*
X106045000Y-91059000D02*
X106045000Y-99568000D01*
X106045000Y-99568000D02*
X108331000Y-101854000D01*
X108331000Y-101854000D02*
X153416000Y-101854000D01*
X157289500Y-97980500D02*
X157289500Y-94932500D01*
X153416000Y-101854000D02*
X157289500Y-97980500D01*
X157289500Y-94932500D02*
X152908000Y-90551000D01*
X152908000Y-90551000D02*
X152908000Y-82550000D01*
X152908000Y-82550000D02*
X156210000Y-79248000D01*
X156210000Y-72771000D02*
X154813000Y-71374000D01*
X156210000Y-79248000D02*
X156210000Y-72771000D01*
X154813000Y-71374000D02*
X152273000Y-71374000D01*
X222123000Y-52832000D02*
X203708000Y-52832000D01*
X261112000Y-37211000D02*
X258445000Y-34544000D01*
X257556000Y-45339000D02*
X261112000Y-41783000D01*
X247269000Y-45339000D02*
X257556000Y-45339000D01*
X239776000Y-52832000D02*
X247269000Y-45339000D01*
X261112000Y-41783000D02*
X261112000Y-37211000D01*
X222123000Y-52832000D02*
X239776000Y-52832000D01*
D22*
X106680000Y-2667000D02*
X106680000Y-3810000D01*
X106680000Y-3810000D02*
X108331000Y-5461000D01*
X108331000Y-5461000D02*
X164338000Y-5461000D01*
X169926000Y-11049000D02*
X169926000Y-16129000D01*
X164338000Y-5461000D02*
X169926000Y-11049000D01*
D21*
X206756000Y-16129000D02*
X213487000Y-16129000D01*
X244729000Y-34544000D02*
X258445000Y-34544000D01*
X242316000Y-32131000D02*
X244729000Y-34544000D01*
X187198000Y-18542000D02*
X184785000Y-16129000D01*
X195834000Y-18542000D02*
X187198000Y-18542000D01*
X198247000Y-16129000D02*
X195834000Y-18542000D01*
X206756000Y-16129000D02*
X198247000Y-16129000D01*
X176657000Y-16129000D02*
X176530000Y-16002000D01*
X184785000Y-16129000D02*
X176657000Y-16129000D01*
X176657000Y-16129000D02*
X169926000Y-16129000D01*
X166878000Y-48768000D02*
X166878000Y-52832000D01*
X189103000Y-71374000D02*
X189992000Y-71374000D01*
X191897000Y-73279000D02*
X191897000Y-89789000D01*
X189992000Y-71374000D02*
X191897000Y-73279000D01*
X191897000Y-89789000D02*
X202184000Y-89789000D01*
X183769000Y-89789000D02*
X191897000Y-89789000D01*
X50673000Y-89789000D02*
X50673000Y-96520000D01*
X47117000Y-89789000D02*
X50673000Y-89789000D01*
X50673000Y-96520000D02*
X47117000Y-100076000D01*
X47117000Y-100076000D02*
X38989000Y-100076000D01*
X31686500Y-97980500D02*
X31686500Y-92773500D01*
X31686500Y-92773500D02*
X28702000Y-89789000D01*
X36893500Y-97980500D02*
X38989000Y-100076000D01*
X31686500Y-97980500D02*
X36893500Y-97980500D01*
X183769000Y-89789000D02*
X183769000Y-89281000D01*
X183769000Y-89281000D02*
X180975000Y-86487000D01*
X170688000Y-71374000D02*
X171831000Y-71374000D01*
X176403000Y-75946000D02*
X176403000Y-86487000D01*
X171831000Y-71374000D02*
X176403000Y-75946000D01*
X180975000Y-86487000D02*
X176403000Y-86487000D01*
X115443000Y-87503000D02*
X115443000Y-89789000D01*
X113665000Y-85725000D02*
X115443000Y-87503000D01*
X107061000Y-85725000D02*
X113665000Y-85725000D01*
X107061000Y-85725000D02*
X105664000Y-85725000D01*
X104521000Y-86868000D02*
X104521000Y-89789000D01*
X105664000Y-85725000D02*
X104521000Y-86868000D01*
X164211000Y-86487000D02*
X176403000Y-86487000D01*
X160909000Y-89789000D02*
X164211000Y-86487000D01*
X160909000Y-98425000D02*
X160909000Y-89789000D01*
X156210000Y-103124000D02*
X160909000Y-98425000D01*
X107315000Y-103124000D02*
X156210000Y-103124000D01*
X104521000Y-100330000D02*
X107315000Y-103124000D01*
X104521000Y-89789000D02*
X104521000Y-100330000D01*
X24765000Y-72517000D02*
X23622000Y-71374000D01*
X18161000Y-96266000D02*
X18161000Y-86360000D01*
X23622000Y-71374000D02*
X20955000Y-71374000D01*
X24765000Y-79756000D02*
X24765000Y-72517000D01*
X22479000Y-100584000D02*
X18161000Y-96266000D01*
X29083000Y-100584000D02*
X22479000Y-100584000D01*
X18161000Y-86360000D02*
X24765000Y-79756000D01*
X31686500Y-97980500D02*
X29083000Y-100584000D01*
X53594000Y-86868000D02*
X50673000Y-89789000D01*
X75438000Y-89789000D02*
X75438000Y-86868000D01*
X75438000Y-86868000D02*
X53594000Y-86868000D01*
X104521000Y-86868000D02*
X75438000Y-86868000D01*
X155448000Y-89789000D02*
X160909000Y-89789000D01*
X143510000Y-34544000D02*
X161925000Y-34544000D01*
X198755000Y-34544000D02*
X203835000Y-34544000D01*
X171069000Y-34544000D02*
X180340000Y-34544000D01*
X161925000Y-34544000D02*
X171069000Y-34544000D01*
X203835000Y-34544000D02*
X203835000Y-28956000D01*
X203835000Y-28956000D02*
X217043000Y-15748000D01*
X217043000Y-15748000D02*
X221615000Y-15748000D01*
X227076000Y-21209000D02*
X227076000Y-34544000D01*
X221615000Y-15748000D02*
X227076000Y-21209000D01*
X227076000Y-34544000D02*
X235585000Y-34544000D01*
X217170000Y-34544000D02*
X227076000Y-34544000D01*
X235585000Y-30734000D02*
X235585000Y-34544000D01*
X238506000Y-27813000D02*
X235585000Y-30734000D01*
X254635000Y-27813000D02*
X238506000Y-27813000D01*
X257048000Y-25400000D02*
X254635000Y-27813000D01*
X257048000Y-18034000D02*
X257048000Y-25400000D01*
X255143000Y-16129000D02*
X257048000Y-18034000D01*
X253238000Y-16129000D02*
X255143000Y-16129000D01*
X222885000Y-89789000D02*
X237363000Y-89789000D01*
X237363000Y-89789000D02*
X258064000Y-69088000D01*
X258064000Y-69088000D02*
X258064000Y-53340000D01*
X258064000Y-53340000D02*
X255016000Y-50292000D01*
X255016000Y-50292000D02*
X249301000Y-50292000D01*
X249301000Y-50292000D02*
X248285000Y-51308000D01*
X248285000Y-51308000D02*
X248285000Y-52705000D01*
X248285000Y-52705000D02*
X252603000Y-57023000D01*
X252603000Y-57023000D02*
X252603000Y-60452000D01*
X252603000Y-60452000D02*
X250698000Y-62357000D01*
X250698000Y-62357000D02*
X245364000Y-62357000D01*
X245364000Y-62357000D02*
X241681000Y-58674000D01*
X241681000Y-58674000D02*
X241681000Y-52832000D01*
X241681000Y-52832000D02*
X247269000Y-47244000D01*
X247269000Y-47244000D02*
X258572000Y-47244000D01*
X258572000Y-47244000D02*
X263271000Y-42545000D01*
X263271000Y-31623000D02*
X257048000Y-25400000D01*
X263271000Y-42545000D02*
X263271000Y-31623000D01*
X203835000Y-40767000D02*
X203835000Y-34544000D01*
X200533000Y-44069000D02*
X203835000Y-40767000D01*
X193421000Y-44069000D02*
X200533000Y-44069000D01*
X183896000Y-34544000D02*
X193421000Y-44069000D01*
X180340000Y-34544000D02*
X183896000Y-34544000D01*
D22*
X171069000Y-20701000D02*
X171069000Y-34544000D01*
X163449000Y-13081000D02*
X171069000Y-20701000D01*
X144716500Y-13081000D02*
X163449000Y-13081000D01*
X139382500Y-18415000D02*
X144716500Y-13081000D01*
X131445000Y-18415000D02*
X139382500Y-18415000D01*
X126111000Y-13081000D02*
X131445000Y-18415000D01*
X108458000Y-13081000D02*
X126111000Y-13081000D01*
X106680000Y-11303000D02*
X108458000Y-13081000D01*
X106680000Y-10287000D02*
X106680000Y-11303000D01*
D21*
X237109000Y-71374000D02*
X207518000Y-71374000D01*
X237109000Y-71374000D02*
X250698000Y-71374000D01*
X250698000Y-71374000D02*
X255524000Y-66548000D01*
X255524000Y-56642000D02*
X251714000Y-52832000D01*
X255524000Y-66548000D02*
X255524000Y-56642000D01*
X225171000Y-16129000D02*
X225171000Y-15494000D01*
X225171000Y-15494000D02*
X221742000Y-12065000D01*
X188341000Y-15494000D02*
X188341000Y-16129000D01*
X191770000Y-12065000D02*
X188341000Y-15494000D01*
X207518000Y-71374000D02*
X207518000Y-67183000D01*
X191897000Y-52832000D02*
X185293000Y-52832000D01*
X195072000Y-12065000D02*
X191770000Y-12065000D01*
X221742000Y-12065000D02*
X195072000Y-12065000D01*
X158242000Y-16129000D02*
X151511000Y-16129000D01*
X111633000Y-52832000D02*
X130048000Y-52832000D01*
X37973000Y-52832000D02*
X56388000Y-52832000D01*
X125095000Y-34544000D02*
X126746000Y-34544000D01*
X130048000Y-37846000D02*
X130048000Y-52832000D01*
X126746000Y-34544000D02*
X130048000Y-37846000D01*
X69850000Y-34544000D02*
X69850000Y-34798000D01*
X69850000Y-34798000D02*
X72263000Y-37211000D01*
X72263000Y-37211000D02*
X72263000Y-43053000D01*
X54610000Y-34544000D02*
X51435000Y-34544000D01*
X56388000Y-36322000D02*
X54610000Y-34544000D01*
D22*
X99060000Y-10287000D02*
X99060000Y-12065000D01*
X99060000Y-12065000D02*
X102108000Y-15113000D01*
X102108000Y-15113000D02*
X109855000Y-15113000D01*
X125095000Y-30353000D02*
X125095000Y-34544000D01*
X109855000Y-15113000D02*
X125095000Y-30353000D01*
D21*
X56451500Y-45910500D02*
X56388000Y-45847000D01*
X69405500Y-45910500D02*
X56451500Y-45910500D01*
X56388000Y-45847000D02*
X56388000Y-36322000D01*
X56388000Y-52832000D02*
X56388000Y-45847000D01*
X72263000Y-43053000D02*
X69405500Y-45910500D01*
X96266000Y-30353000D02*
X98425000Y-30353000D01*
X102108000Y-26670000D02*
X102108000Y-15113000D01*
X98425000Y-30353000D02*
X102108000Y-26670000D01*
X74041000Y-30353000D02*
X69850000Y-34544000D01*
X77343000Y-30353000D02*
X74041000Y-30353000D01*
X109220000Y-10287000D02*
X111760000Y-10287000D01*
X111760000Y-10287000D02*
X114300000Y-10287000D01*
X71120000Y-5207000D02*
X71120000Y-3683000D01*
X71120000Y-3683000D02*
X71882000Y-2921000D01*
X79883000Y-2921000D02*
X84455000Y-7493000D01*
X71882000Y-2921000D02*
X79883000Y-2921000D01*
D22*
X86487000Y-11938000D02*
X89535000Y-8890000D01*
X68453000Y-11938000D02*
X86487000Y-11938000D01*
X66040000Y-9525000D02*
X68453000Y-11938000D01*
X66040000Y-7747000D02*
X66040000Y-9525000D01*
X89535000Y-8890000D02*
X89535000Y-6985000D01*
X89535000Y-6985000D02*
X91821000Y-4699000D01*
D21*
X142113000Y-55372000D02*
X142113000Y-63373000D01*
X145923000Y-67183000D02*
X145923000Y-73914000D01*
X142113000Y-63373000D02*
X145923000Y-67183000D01*
X137160000Y-37084000D02*
X137160000Y-44958000D01*
X142113000Y-49911000D02*
X142113000Y-55372000D01*
X137160000Y-44958000D02*
X142113000Y-49911000D01*
X126746000Y-18669000D02*
X126746000Y-25019000D01*
X145161000Y-18669000D02*
X142494000Y-18669000D01*
X142494000Y-18669000D02*
X137160000Y-24003000D01*
X136906000Y-28575000D02*
X137160000Y-28321000D01*
X126746000Y-25019000D02*
X130302000Y-28575000D01*
X130302000Y-28575000D02*
X136906000Y-28575000D01*
X137160000Y-24003000D02*
X137160000Y-28321000D01*
X145923000Y-82931000D02*
X145923000Y-73914000D01*
X142113000Y-49911000D02*
X142240000Y-49911000D01*
X142240000Y-49911000D02*
X145796000Y-46355000D01*
X151511000Y-46355000D02*
X160528000Y-55372000D01*
X145796000Y-46355000D02*
X151511000Y-46355000D01*
X118745000Y-32385000D02*
X120777000Y-30353000D01*
X118745000Y-37084000D02*
X118745000Y-32385000D01*
X137160000Y-30480000D02*
X137160000Y-37084000D01*
X137160000Y-28321000D02*
X137160000Y-30480000D01*
X149098000Y-86106000D02*
X145923000Y-82931000D01*
X149098000Y-92329000D02*
X149098000Y-86106000D01*
X142494000Y-86360000D02*
X145923000Y-82931000D01*
X135763000Y-86360000D02*
X142494000Y-86360000D01*
X123444000Y-95250000D02*
X126873000Y-95250000D01*
X126873000Y-95250000D02*
X135763000Y-86360000D01*
X109093000Y-98552000D02*
X109093000Y-92329000D01*
X110109000Y-99568000D02*
X109093000Y-98552000D01*
X119126000Y-99568000D02*
X110109000Y-99568000D01*
X123444000Y-95250000D02*
X119126000Y-99568000D01*
X100838000Y-93218000D02*
X100838000Y-98933000D01*
X100838000Y-98933000D02*
X96901000Y-102870000D01*
X96901000Y-102870000D02*
X70866000Y-102870000D01*
X69088000Y-101092000D02*
X69088000Y-92329000D01*
X70866000Y-102870000D02*
X69088000Y-101092000D01*
X178943000Y-55372000D02*
X175133000Y-55372000D01*
X175133000Y-55372000D02*
X164338000Y-66167000D01*
X110617000Y-55372000D02*
X123698000Y-55372000D01*
X163576000Y-18669000D02*
X163576000Y-24130000D01*
X163576000Y-24130000D02*
X159766000Y-27940000D01*
X159766000Y-27940000D02*
X144018000Y-27940000D01*
X144018000Y-27940000D02*
X140716000Y-31242000D01*
X140716000Y-31242000D02*
X140716000Y-35052000D01*
X142748000Y-37084000D02*
X155575000Y-37084000D01*
X140716000Y-35052000D02*
X142748000Y-37084000D01*
X106807000Y-51562000D02*
X106807000Y-45720000D01*
X106807000Y-45720000D02*
X107188000Y-45339000D01*
X106807000Y-51562000D02*
X110617000Y-55372000D01*
X100330000Y-43688000D02*
X100330000Y-37084000D01*
X101981000Y-45339000D02*
X100330000Y-43688000D01*
X107188000Y-45339000D02*
X101981000Y-45339000D01*
X123698000Y-70104000D02*
X127508000Y-73914000D01*
X155575000Y-43434000D02*
X155575000Y-37084000D01*
X158369000Y-46228000D02*
X155575000Y-43434000D01*
X170815000Y-46228000D02*
X158369000Y-46228000D01*
X175133000Y-50546000D02*
X170815000Y-46228000D01*
X175133000Y-55372000D02*
X175133000Y-50546000D01*
X123698000Y-55372000D02*
X123698000Y-67183000D01*
X123698000Y-67183000D02*
X123698000Y-70104000D01*
X164338000Y-67183000D02*
X164338000Y-73914000D01*
X164338000Y-66167000D02*
X164338000Y-67183000D01*
X113284000Y-45339000D02*
X107188000Y-45339000D01*
X115316000Y-43307000D02*
X113284000Y-45339000D01*
X115316000Y-29845000D02*
X115316000Y-43307000D01*
X108331000Y-22860000D02*
X115316000Y-29845000D01*
X108331000Y-18669000D02*
X108331000Y-22860000D01*
X89916000Y-18669000D02*
X86614000Y-18669000D01*
X81915000Y-23368000D02*
X81915000Y-37084000D01*
X86614000Y-18669000D02*
X81915000Y-23368000D01*
X173990000Y-37084000D02*
X173990000Y-44831000D01*
X182753000Y-68961000D02*
X182753000Y-73914000D01*
X178435000Y-18669000D02*
X176657000Y-20447000D01*
X181991000Y-18669000D02*
X178435000Y-18669000D01*
X168529000Y-37084000D02*
X173990000Y-37084000D01*
X81915000Y-37084000D02*
X81915000Y-48768000D01*
X99949000Y-67056000D02*
X106172000Y-67056000D01*
X109093000Y-69977000D02*
X109093000Y-73914000D01*
X106172000Y-67056000D02*
X109093000Y-69977000D01*
X66167000Y-15240000D02*
X60960000Y-10033000D01*
X66167000Y-16637000D02*
X66167000Y-15240000D01*
X60960000Y-10033000D02*
X60960000Y-7747000D01*
X177038000Y-47879000D02*
X193548000Y-47879000D01*
X173990000Y-44831000D02*
X177038000Y-47879000D01*
X197358000Y-51689000D02*
X197358000Y-55372000D01*
X193548000Y-47879000D02*
X197358000Y-51689000D01*
X197358000Y-55372000D02*
X197358000Y-58928000D01*
X191325500Y-64960500D02*
X186753500Y-64960500D01*
X197358000Y-58928000D02*
X191325500Y-64960500D01*
X186753500Y-64960500D02*
X182753000Y-68961000D01*
X105283000Y-55372000D02*
X99949000Y-55372000D01*
X63500000Y-26670000D02*
X71501000Y-18669000D01*
X192405000Y-37084000D02*
X192405000Y-34671000D01*
X200406000Y-26670000D02*
X200406000Y-18669000D01*
X177419000Y-92329000D02*
X177419000Y-97282000D01*
X177419000Y-97282000D02*
X180721000Y-100584000D01*
X180721000Y-100584000D02*
X204216000Y-100584000D01*
X86868000Y-55372000D02*
X81534000Y-55372000D01*
X63500000Y-30353000D02*
X63500000Y-26670000D01*
X63500000Y-37084000D02*
X63500000Y-30353000D01*
X172085000Y-92329000D02*
X177419000Y-92329000D01*
X196659500Y-30416500D02*
X196723000Y-30353000D01*
X192405000Y-34671000D02*
X196659500Y-30416500D01*
X196659500Y-30416500D02*
X200406000Y-26670000D01*
X86868000Y-58928000D02*
X86868000Y-55372000D01*
X83439000Y-62357000D02*
X86868000Y-58928000D01*
X83439000Y-66929000D02*
X83439000Y-62357000D01*
X86868000Y-73914000D02*
X90678000Y-73914000D01*
X83439000Y-70485000D02*
X86868000Y-73914000D01*
X83439000Y-66929000D02*
X83439000Y-70485000D01*
X211455000Y-93345000D02*
X207962500Y-96837500D01*
X211455000Y-85598000D02*
X211455000Y-93345000D01*
X204216000Y-100584000D02*
X207962500Y-96837500D01*
X206756000Y-85598000D02*
X201168000Y-80010000D01*
X201168000Y-80010000D02*
X201168000Y-73914000D01*
X211455000Y-85598000D02*
X206756000Y-85598000D01*
X60960000Y-3683000D02*
X60960000Y-5207000D01*
X59944000Y-2667000D02*
X60960000Y-3683000D01*
X52832000Y-2667000D02*
X59944000Y-2667000D01*
X50038000Y-5461000D02*
X52832000Y-2667000D01*
X216535000Y-92329000D02*
X216535000Y-83947000D01*
X226568000Y-73914000D02*
X230759000Y-73914000D01*
X216535000Y-83947000D02*
X226568000Y-73914000D01*
X14605000Y-73914000D02*
X14605000Y-69850000D01*
X10795000Y-66040000D02*
X10795000Y-55372000D01*
X14605000Y-69850000D02*
X10795000Y-66040000D01*
X10795000Y-48641000D02*
X10795000Y-55372000D01*
X216535000Y-99060000D02*
X216535000Y-92329000D01*
X211074000Y-104521000D02*
X216535000Y-99060000D01*
X21336000Y-104521000D02*
X211074000Y-104521000D01*
X14605000Y-97790000D02*
X21336000Y-104521000D01*
X14605000Y-73914000D02*
X14605000Y-97790000D01*
X30861000Y-10160000D02*
X28829000Y-12192000D01*
X44958000Y-10160000D02*
X30861000Y-10160000D01*
X28829000Y-12192000D02*
X18542000Y-12192000D01*
X46990000Y-8128000D02*
X44958000Y-10160000D01*
X52324000Y-8128000D02*
X46990000Y-8128000D01*
X35433000Y-73914000D02*
X35433000Y-68453000D01*
X31623000Y-64643000D02*
X31623000Y-55372000D01*
X35433000Y-68453000D02*
X31623000Y-64643000D01*
X8255000Y-37084000D02*
X8255000Y-43180000D01*
X8255000Y-43180000D02*
X10541000Y-45466000D01*
X21717000Y-45466000D02*
X31623000Y-55372000D01*
X10541000Y-45466000D02*
X21717000Y-45466000D01*
X35433000Y-73914000D02*
X35433000Y-78613000D01*
X35433000Y-78613000D02*
X30988000Y-83058000D01*
X30988000Y-83058000D02*
X26035000Y-83058000D01*
X22352000Y-86741000D02*
X22352000Y-92329000D01*
X26035000Y-83058000D02*
X22352000Y-86741000D01*
X246888000Y-13081000D02*
X246888000Y-18669000D01*
X68580000Y-2794000D02*
X68580000Y-5207000D01*
X234061000Y-254000D02*
X246888000Y-13081000D01*
X71120000Y-254000D02*
X234061000Y-254000D01*
X68580000Y-2794000D02*
X71120000Y-254000D01*
X245364000Y-51181000D02*
X245364000Y-55372000D01*
X247904000Y-48641000D02*
X245364000Y-51181000D01*
X264922000Y-43307000D02*
X259588000Y-48641000D01*
X259461000Y-13081000D02*
X264922000Y-18542000D01*
X259588000Y-48641000D02*
X247904000Y-48641000D01*
X264922000Y-18542000D02*
X264922000Y-43307000D01*
X246888000Y-13081000D02*
X259461000Y-13081000D01*
X16256000Y-11430000D02*
X16256000Y-18669000D01*
X17526000Y-10160000D02*
X16256000Y-11430000D01*
X28575000Y-10160000D02*
X17526000Y-10160000D01*
X29845000Y-8890000D02*
X28575000Y-10160000D01*
X43815000Y-8890000D02*
X29845000Y-8890000D01*
X47371000Y-5334000D02*
X43815000Y-8890000D01*
X47371000Y-3302000D02*
X47371000Y-5334000D01*
X49403000Y-1270000D02*
X47371000Y-3302000D01*
X67056000Y-1270000D02*
X49403000Y-1270000D01*
X68580000Y-2794000D02*
X67056000Y-1270000D01*
X16256000Y-25781000D02*
X8255000Y-33782000D01*
X16256000Y-18669000D02*
X16256000Y-25781000D01*
X8255000Y-33782000D02*
X8255000Y-37084000D01*
X229235000Y-37084000D02*
X229235000Y-43815000D01*
X229235000Y-43815000D02*
X231013000Y-45593000D01*
X243586000Y-45593000D02*
X252095000Y-37084000D01*
X49784000Y-55118000D02*
X50038000Y-55372000D01*
X36195000Y-55118000D02*
X49784000Y-55118000D01*
X34671000Y-18669000D02*
X34671000Y-27051000D01*
X37973000Y-30353000D02*
X37973000Y-42291000D01*
X37973000Y-42291000D02*
X34671000Y-45593000D01*
X31623000Y-45720000D02*
X31496000Y-45593000D01*
X31623000Y-50546000D02*
X31623000Y-45720000D01*
X34671000Y-45593000D02*
X31496000Y-45593000D01*
X31623000Y-50546000D02*
X36195000Y-55118000D01*
X28194000Y-45593000D02*
X26670000Y-44069000D01*
X31496000Y-45593000D02*
X28194000Y-45593000D01*
X26670000Y-37084000D02*
X26670000Y-44069000D01*
X48387000Y-85217000D02*
X42672000Y-85217000D01*
X40767000Y-87122000D02*
X40767000Y-92329000D01*
X42672000Y-85217000D02*
X40767000Y-87122000D01*
X242189000Y-45593000D02*
X242316000Y-45593000D01*
X231013000Y-45593000D02*
X242189000Y-45593000D01*
X242189000Y-45593000D02*
X243586000Y-45593000D01*
X34925000Y-27305000D02*
X37973000Y-30353000D01*
X34671000Y-27051000D02*
X34925000Y-27305000D01*
X49657000Y-73914000D02*
X48387000Y-72644000D01*
X53848000Y-73914000D02*
X49657000Y-73914000D01*
X48387000Y-66167000D02*
X50038000Y-64516000D01*
X48387000Y-72644000D02*
X48387000Y-66167000D01*
X50038000Y-55372000D02*
X50038000Y-64516000D01*
X28702000Y-27305000D02*
X34925000Y-27305000D01*
X23241000Y-32766000D02*
X28702000Y-27305000D01*
X55245000Y-10287000D02*
X46863000Y-10287000D01*
X46863000Y-10287000D02*
X45847000Y-11303000D01*
X45847000Y-11303000D02*
X32131000Y-11303000D01*
X32131000Y-11303000D02*
X30099000Y-13335000D01*
X30099000Y-13335000D02*
X21082000Y-13335000D01*
X21082000Y-13335000D02*
X19812000Y-14605000D01*
X19812000Y-14605000D02*
X19812000Y-16637000D01*
X19812000Y-16637000D02*
X23622000Y-20447000D01*
X23622000Y-20447000D02*
X23622000Y-22479000D01*
X23622000Y-22479000D02*
X19177000Y-26924000D01*
X19177000Y-26924000D02*
X19177000Y-31115000D01*
X19177000Y-31115000D02*
X20828000Y-32766000D01*
X20828000Y-32766000D02*
X23241000Y-32766000D01*
X45085000Y-26670000D02*
X53086000Y-18669000D01*
X68453000Y-70104000D02*
X72263000Y-73914000D01*
X210820000Y-37084000D02*
X210820000Y-44069000D01*
X210820000Y-44069000D02*
X208026000Y-46863000D01*
X208026000Y-46863000D02*
X203454000Y-46863000D01*
X203454000Y-46863000D02*
X200787000Y-49530000D01*
X200787000Y-49530000D02*
X200787000Y-53213000D01*
X202946000Y-55372000D02*
X215773000Y-55372000D01*
X200787000Y-53213000D02*
X202946000Y-55372000D01*
X56388000Y-67056000D02*
X68453000Y-67056000D01*
X68453000Y-67056000D02*
X68453000Y-70104000D01*
X68453000Y-55372000D02*
X68453000Y-67056000D01*
X218821000Y-18669000D02*
X218821000Y-20320000D01*
X210820000Y-28321000D02*
X210820000Y-37084000D01*
X218821000Y-20320000D02*
X210820000Y-28321000D01*
X195707000Y-92456000D02*
X195834000Y-92329000D01*
X190373000Y-92456000D02*
X195707000Y-92456000D01*
X45085000Y-29972000D02*
X45085000Y-26670000D01*
X45085000Y-37084000D02*
X45085000Y-29972000D01*
X44704000Y-37465000D02*
X45085000Y-37084000D01*
X44704000Y-50927000D02*
X44704000Y-37465000D01*
X194056000Y-94107000D02*
X195834000Y-92329000D01*
X194056000Y-96901000D02*
X194056000Y-94107000D01*
X196088000Y-98933000D02*
X194056000Y-96901000D01*
X202692000Y-98933000D02*
X196088000Y-98933000D01*
X205740000Y-95885000D02*
X202692000Y-98933000D01*
X205740000Y-87884000D02*
X205740000Y-95885000D01*
X197612000Y-66294000D02*
X197612000Y-79756000D01*
X199390000Y-64516000D02*
X197612000Y-66294000D01*
X211836000Y-64516000D02*
X199390000Y-64516000D01*
X215773000Y-60579000D02*
X211836000Y-64516000D01*
X197612000Y-79756000D02*
X205740000Y-87884000D01*
X215773000Y-55372000D02*
X215773000Y-60579000D01*
D22*
X51054000Y-29972000D02*
X45085000Y-29972000D01*
X54991000Y-26035000D02*
X51054000Y-29972000D01*
X60833000Y-26035000D02*
X54991000Y-26035000D01*
X68072000Y-18796000D02*
X60833000Y-26035000D01*
X68072000Y-14986000D02*
X68072000Y-18796000D01*
X63500000Y-10414000D02*
X68072000Y-14986000D01*
X63500000Y-7747000D02*
X63500000Y-10414000D01*
M02*
