M48
; DRILL file {KiCad (5.1.12)-1} date 01/29/23 13:19:23
; FORMAT={-:-/ absolute / inch / decimal}
; #@! TF.CreationDate,2023-01-29T13:19:23+01:00
; #@! TF.GenerationSoftware,Kicad,Pcbnew,(5.1.12)-1
; #@! TF.FileFunction,Plated,1,2,PTH
FMAT,2
INCH
T1C0.0236
T2C0.0315
T3C0.0394
T4C0.0433
T5C0.0591
T6C0.1260
%
G90
G05
T1
X0.425Y-1.915
X0.73Y-0.48
X0.735Y-1.915
X0.84Y-1.2
X1.3Y-1.195
X1.645Y-2.645
X1.76Y-2.005
X1.88Y-0.505
X1.905Y-2.86
X1.905Y-3.355
X1.97Y-0.215
X2.06Y-0.32
X2.175Y-0.405
X2.22Y-2.64
X2.48Y-2.26
X2.5Y-1.195
X2.55Y-1.925
X2.605Y-0.655
X3.045Y-1.195
X3.21Y-2.18
X3.225Y-1.92
X3.285Y-2.635
X3.325Y-0.295
X3.615Y-0.185
X3.79Y-1.195
X3.935Y-2.18
X3.935Y-2.64
X3.97Y-3.67
X4.215Y-3.375
X4.46Y-1.36
X4.655Y-2.48
X4.755Y-1.195
X4.775Y-0.635
X4.86Y-3.75
X4.87Y-2.645
X5.4Y-1.2
X5.5Y-0.575
X5.845Y-1.915
X6.23Y-0.635
X6.47Y-2.645
X6.57Y-1.92
X6.635Y-1.46
X6.775Y-3.635
X6.95Y-0.63
X6.955Y-0.805
X7.495Y-3.64
X7.555Y-2.08
X7.68Y-0.475
X7.745Y-1.195
X8.17Y-2.645
X8.325Y-3.37
X8.405Y-0.635
X9.54Y-1.265
X9.54Y-1.795
T2
X3.8Y-0.105
X3.8Y-0.405
X3.9Y-0.105
X3.9Y-0.405
X4.0Y-0.105
X4.0Y-0.405
X4.1Y-0.105
X4.1Y-0.405
X4.2Y-0.105
X4.2Y-0.405
X4.3Y-0.105
X4.3Y-0.405
X4.4Y-0.105
X4.4Y-0.405
X4.5Y-0.105
X4.5Y-0.405
T3
X2.3Y-0.205
X2.3Y-0.305
X2.4Y-0.205
X2.4Y-0.305
X2.5Y-0.205
X2.5Y-0.305
X2.6Y-0.205
X2.6Y-0.305
X2.7Y-0.205
X2.7Y-0.305
X2.8Y-0.205
X2.8Y-0.305
X2.9Y-0.205
X2.9Y-0.305
T4
X0.325Y-1.46
X0.425Y-2.18
X0.575Y-1.36
X0.575Y-2.91
X0.64Y-0.735
X0.675Y-2.08
X0.825Y-2.81
X0.88Y-3.635
X0.89Y-0.635
X1.05Y-1.46
X1.13Y-3.535
X1.245Y-2.18
X1.3Y-1.36
X1.365Y-0.735
X1.395Y-2.91
X1.495Y-2.08
X1.605Y-3.635
X1.615Y-0.635
X1.645Y-2.81
X1.775Y-1.46
X1.855Y-3.535
X1.97Y-2.18
X2.025Y-1.36
X2.09Y-0.735
X2.12Y-2.91
X2.22Y-2.08
X2.34Y-0.635
X2.37Y-2.81
X2.5Y-1.46
X2.695Y-2.18
X2.72Y-3.635
X2.75Y-1.36
X2.815Y-0.735
X2.845Y-2.91
X2.945Y-2.08
X2.97Y-3.535
X3.065Y-0.635
X3.095Y-2.81
X3.225Y-1.46
X3.42Y-2.18
X3.475Y-1.36
X3.54Y-0.735
X3.57Y-2.91
X3.67Y-2.08
X3.79Y-0.635
X3.82Y-2.81
X3.95Y-1.46
X4.145Y-2.18
X4.2Y-1.36
X4.265Y-0.735
X4.295Y-2.91
X4.295Y-3.635
X4.395Y-2.08
X4.515Y-0.635
X4.545Y-2.81
X4.545Y-3.535
X4.675Y-1.46
X4.87Y-2.18
X4.925Y-1.36
X4.99Y-0.735
X5.02Y-2.91
X5.12Y-2.08
X5.24Y-0.635
X5.27Y-2.81
X5.4Y-1.46
X5.595Y-2.18
X5.65Y-1.36
X5.715Y-0.735
X5.745Y-2.91
X5.845Y-2.08
X5.87Y-3.635
X5.965Y-0.635
X5.995Y-2.81
X6.12Y-3.535
X6.125Y-1.46
X6.32Y-2.18
X6.375Y-1.36
X6.44Y-0.735
X6.47Y-2.91
X6.57Y-2.08
X6.69Y-0.635
X6.72Y-2.81
X6.85Y-1.46
X6.985Y-3.635
X7.045Y-2.18
X7.1Y-1.36
X7.165Y-0.735
X7.195Y-2.91
X7.235Y-3.535
X7.295Y-2.08
X7.415Y-0.635
X7.445Y-2.81
X7.575Y-1.46
X7.71Y-3.635
X7.77Y-2.18
X7.825Y-1.36
X7.89Y-0.735
X7.92Y-2.91
X7.96Y-3.535
X8.02Y-2.08
X8.14Y-0.635
X8.17Y-2.81
X8.3Y-1.46
X8.495Y-2.18
X8.525Y-3.635
X8.55Y-1.36
X8.615Y-0.735
X8.745Y-2.08
X8.775Y-3.535
X8.865Y-0.635
X9.025Y-1.46
X9.085Y-2.91
X9.275Y-1.36
X9.335Y-2.81
X9.66Y-2.18
X9.72Y-0.735
X9.91Y-2.08
X9.925Y-1.46
X9.97Y-0.635
X10.175Y-1.36
T6
X3.445Y-3.735
X5.445Y-3.735
T5
G00X0.1103Y-0.36
M15
G01X0.1497Y-0.36
M16
G05
G00X0.1103Y-0.715
M15
G01X0.1497Y-0.715
M16
G05
G00X1.0203Y-0.01
M15
G01X1.0597Y-0.01
M16
G05
G00X1.0203Y-0.325
M15
G01X1.0597Y-0.325
M16
G05
T6
G00X0.1744Y-0.125
M15
G01X0.2256Y-0.125
M16
G05
G00X0.1744Y-3.97
M15
G01X0.2256Y-3.97
M16
G05
G00X10.4894Y-0.125
M15
G01X10.5406Y-0.125
M16
G05
G00X10.4894Y-3.97
M15
G01X10.5406Y-3.97
M16
G05
T0
M30
