G04 #@! TF.GenerationSoftware,KiCad,Pcbnew,(5.1.12)-1*
G04 #@! TF.CreationDate,2023-01-29T13:19:21+01:00*
G04 #@! TF.ProjectId,Keyboard,4b657962-6f61-4726-942e-6b696361645f,rev?*
G04 #@! TF.SameCoordinates,PX5baf6f8PY4eb9cf0*
G04 #@! TF.FileFunction,Legend,Top*
G04 #@! TF.FilePolarity,Positive*
%FSLAX46Y46*%
G04 Gerber Fmt 4.6, Leading zero omitted, Abs format (unit mm)*
G04 Created by KiCad (PCBNEW (5.1.12)-1) date 2023-01-29 13:19:21*
%MOMM*%
%LPD*%
G01*
G04 APERTURE LIST*
%ADD10C,0.304800*%
G04 #@! TA.AperFunction,Profile*
%ADD11C,0.381000*%
G04 #@! TD*
%ADD12C,0.400000*%
%ADD13C,0.120000*%
%ADD14C,0.150000*%
G04 APERTURE END LIST*
D10*
X191207571Y-5061857D02*
X190699571Y-5061857D01*
X190699571Y-6126238D02*
X190699571Y-4094238D01*
X191425285Y-4094238D01*
X192005857Y-6126238D02*
X192005857Y-4771571D01*
X192005857Y-5158619D02*
X192078428Y-4965095D01*
X192151000Y-4868333D01*
X192296142Y-4771571D01*
X192441285Y-4771571D01*
X193529857Y-6029476D02*
X193384714Y-6126238D01*
X193094428Y-6126238D01*
X192949285Y-6029476D01*
X192876714Y-5835952D01*
X192876714Y-5061857D01*
X192949285Y-4868333D01*
X193094428Y-4771571D01*
X193384714Y-4771571D01*
X193529857Y-4868333D01*
X193602428Y-5061857D01*
X193602428Y-5255380D01*
X192876714Y-5448904D01*
X194908714Y-6126238D02*
X194908714Y-4094238D01*
X194908714Y-6029476D02*
X194763571Y-6126238D01*
X194473285Y-6126238D01*
X194328142Y-6029476D01*
X194255571Y-5932714D01*
X194183000Y-5739190D01*
X194183000Y-5158619D01*
X194255571Y-4965095D01*
X194328142Y-4868333D01*
X194473285Y-4771571D01*
X194763571Y-4771571D01*
X194908714Y-4868333D01*
X195271571Y-6319761D02*
X196432714Y-6319761D01*
X196650428Y-4094238D02*
X197666428Y-4094238D01*
X197013285Y-6126238D01*
X198174428Y-4287761D02*
X198247000Y-4191000D01*
X198392142Y-4094238D01*
X198755000Y-4094238D01*
X198900142Y-4191000D01*
X198972714Y-4287761D01*
X199045285Y-4481285D01*
X199045285Y-4674809D01*
X198972714Y-4965095D01*
X198101857Y-6126238D01*
X199045285Y-6126238D01*
X202819000Y-6126238D02*
X201948142Y-6126238D01*
X202383571Y-6126238D02*
X202383571Y-4094238D01*
X202238428Y-4384523D01*
X202093285Y-4578047D01*
X201948142Y-4674809D01*
X203762428Y-4094238D02*
X203907571Y-4094238D01*
X204052714Y-4191000D01*
X204125285Y-4287761D01*
X204197857Y-4481285D01*
X204270428Y-4868333D01*
X204270428Y-5352142D01*
X204197857Y-5739190D01*
X204125285Y-5932714D01*
X204052714Y-6029476D01*
X203907571Y-6126238D01*
X203762428Y-6126238D01*
X203617285Y-6029476D01*
X203544714Y-5932714D01*
X203472142Y-5739190D01*
X203399571Y-5352142D01*
X203399571Y-4868333D01*
X203472142Y-4481285D01*
X203544714Y-4287761D01*
X203617285Y-4191000D01*
X203762428Y-4094238D01*
X206012142Y-3997476D02*
X204705857Y-6610047D01*
X206447571Y-4287761D02*
X206520142Y-4191000D01*
X206665285Y-4094238D01*
X207028142Y-4094238D01*
X207173285Y-4191000D01*
X207245857Y-4287761D01*
X207318428Y-4481285D01*
X207318428Y-4674809D01*
X207245857Y-4965095D01*
X206375000Y-6126238D01*
X207318428Y-6126238D01*
X208261857Y-4094238D02*
X208407000Y-4094238D01*
X208552142Y-4191000D01*
X208624714Y-4287761D01*
X208697285Y-4481285D01*
X208769857Y-4868333D01*
X208769857Y-5352142D01*
X208697285Y-5739190D01*
X208624714Y-5932714D01*
X208552142Y-6029476D01*
X208407000Y-6126238D01*
X208261857Y-6126238D01*
X208116714Y-6029476D01*
X208044142Y-5932714D01*
X207971571Y-5739190D01*
X207899000Y-5352142D01*
X207899000Y-4868333D01*
X207971571Y-4481285D01*
X208044142Y-4287761D01*
X208116714Y-4191000D01*
X208261857Y-4094238D01*
X209350428Y-4287761D02*
X209423000Y-4191000D01*
X209568142Y-4094238D01*
X209931000Y-4094238D01*
X210076142Y-4191000D01*
X210148714Y-4287761D01*
X210221285Y-4481285D01*
X210221285Y-4674809D01*
X210148714Y-4965095D01*
X209277857Y-6126238D01*
X210221285Y-6126238D01*
X210801857Y-4287761D02*
X210874428Y-4191000D01*
X211019571Y-4094238D01*
X211382428Y-4094238D01*
X211527571Y-4191000D01*
X211600142Y-4287761D01*
X211672714Y-4481285D01*
X211672714Y-4674809D01*
X211600142Y-4965095D01*
X210729285Y-6126238D01*
X211672714Y-6126238D01*
X214357857Y-6126238D02*
X213849857Y-5158619D01*
X213487000Y-6126238D02*
X213487000Y-4094238D01*
X214067571Y-4094238D01*
X214212714Y-4191000D01*
X214285285Y-4287761D01*
X214357857Y-4481285D01*
X214357857Y-4771571D01*
X214285285Y-4965095D01*
X214212714Y-5061857D01*
X214067571Y-5158619D01*
X213487000Y-5158619D01*
X215591571Y-6029476D02*
X215446428Y-6126238D01*
X215156142Y-6126238D01*
X215011000Y-6029476D01*
X214938428Y-5835952D01*
X214938428Y-5061857D01*
X215011000Y-4868333D01*
X215156142Y-4771571D01*
X215446428Y-4771571D01*
X215591571Y-4868333D01*
X215664142Y-5061857D01*
X215664142Y-5255380D01*
X214938428Y-5448904D01*
X216172142Y-4771571D02*
X216535000Y-6126238D01*
X216897857Y-4771571D01*
X218567000Y-4287761D02*
X218639571Y-4191000D01*
X218784714Y-4094238D01*
X219147571Y-4094238D01*
X219292714Y-4191000D01*
X219365285Y-4287761D01*
X219437857Y-4481285D01*
X219437857Y-4674809D01*
X219365285Y-4965095D01*
X218494428Y-6126238D01*
X219437857Y-6126238D01*
X220091000Y-5932714D02*
X220163571Y-6029476D01*
X220091000Y-6126238D01*
X220018428Y-6029476D01*
X220091000Y-5932714D01*
X220091000Y-6126238D01*
X221107000Y-4094238D02*
X221252142Y-4094238D01*
X221397285Y-4191000D01*
X221469857Y-4287761D01*
X221542428Y-4481285D01*
X221615000Y-4868333D01*
X221615000Y-5352142D01*
X221542428Y-5739190D01*
X221469857Y-5932714D01*
X221397285Y-6029476D01*
X221252142Y-6126238D01*
X221107000Y-6126238D01*
X220961857Y-6029476D01*
X220889285Y-5932714D01*
X220816714Y-5739190D01*
X220744142Y-5352142D01*
X220744142Y-4868333D01*
X220816714Y-4481285D01*
X220889285Y-4287761D01*
X220961857Y-4191000D01*
X221107000Y-4094238D01*
D11*
X0Y-2540000D02*
G75*
G02*
X4445000Y1905000I4445000J0D01*
G01*
X4445000Y-105918000D02*
G75*
G02*
X0Y-101473000I0J4445000D01*
G01*
X0Y-101473000D02*
X0Y-2540000D01*
X267716000Y-105918000D02*
X4445000Y-105918000D01*
X272161000Y-101473000D02*
X272161000Y-2540000D01*
X4445000Y1905000D02*
X267716000Y1905000D01*
D12*
X132067107Y-3564142D02*
X133781392Y-3564142D01*
X132549250Y-6564142D02*
X132924250Y-3564142D01*
X134602821Y-4992714D02*
X135602821Y-4992714D01*
X135834964Y-6564142D02*
X134406392Y-6564142D01*
X134781392Y-3564142D01*
X136209964Y-3564142D01*
X138549250Y-6564142D02*
X137120678Y-6564142D01*
X137495678Y-3564142D01*
X139745678Y-4992714D02*
X140745678Y-4992714D01*
X140977821Y-6564142D02*
X139549250Y-6564142D01*
X139924250Y-3564142D01*
X141352821Y-3564142D01*
X142138535Y-6421285D02*
X142549250Y-6564142D01*
X143263535Y-6564142D01*
X143567107Y-6421285D01*
X143727821Y-6278428D01*
X143906392Y-5992714D01*
X143942107Y-5707000D01*
X143834964Y-5421285D01*
X143709964Y-5278428D01*
X143442107Y-5135571D01*
X142888535Y-4992714D01*
X142620678Y-4849857D01*
X142495678Y-4707000D01*
X142388535Y-4421285D01*
X142424250Y-4135571D01*
X142602821Y-3849857D01*
X142763535Y-3707000D01*
X143067107Y-3564142D01*
X143781392Y-3564142D01*
X144192107Y-3707000D01*
X145067107Y-3564142D02*
X146781392Y-3564142D01*
X145549250Y-6564142D02*
X145924250Y-3564142D01*
X149120678Y-6564142D02*
X148299250Y-5135571D01*
X147406392Y-6564142D02*
X147781392Y-3564142D01*
X148924250Y-3564142D01*
X149192107Y-3707000D01*
X149317107Y-3849857D01*
X149424250Y-4135571D01*
X149370678Y-4564142D01*
X149192107Y-4849857D01*
X149031392Y-4992714D01*
X148727821Y-5135571D01*
X147584964Y-5135571D01*
X150370678Y-5707000D02*
X151799250Y-5707000D01*
X149977821Y-6564142D02*
X151352821Y-3564142D01*
X151977821Y-6564142D01*
X152924250Y-3564142D02*
X154638535Y-3564142D01*
X153406392Y-6564142D02*
X153781392Y-3564142D01*
X155406392Y-5421285D02*
X157692107Y-5421285D01*
X158977821Y-6564142D02*
X159352821Y-3564142D01*
X160406392Y-6564142D02*
X160781392Y-3564142D01*
X164120678Y-6564142D02*
X164495678Y-3564142D01*
X165834964Y-6564142D02*
X164763535Y-4849857D01*
X166209964Y-3564142D02*
X164281392Y-5278428D01*
X168281392Y-6421285D02*
X167977821Y-6564142D01*
X167406392Y-6564142D01*
X167138535Y-6421285D01*
X167031392Y-6135571D01*
X167174250Y-4992714D01*
X167352821Y-4707000D01*
X167656392Y-4564142D01*
X168227821Y-4564142D01*
X168495678Y-4707000D01*
X168602821Y-4992714D01*
X168567107Y-5278428D01*
X167102821Y-5564142D01*
X169656392Y-4564142D02*
X170120678Y-6564142D01*
X171084964Y-4564142D02*
X170120678Y-6564142D01*
X169745678Y-7278428D01*
X169584964Y-7421285D01*
X169281392Y-7564142D01*
X171977821Y-6564142D02*
X172352821Y-3564142D01*
X172209964Y-4707000D02*
X172513535Y-4564142D01*
X173084964Y-4564142D01*
X173352821Y-4707000D01*
X173477821Y-4849857D01*
X173584964Y-5135571D01*
X173477821Y-5992714D01*
X173299250Y-6278428D01*
X173138535Y-6421285D01*
X172834964Y-6564142D01*
X172263535Y-6564142D01*
X171995678Y-6421285D01*
X175120678Y-6564142D02*
X174852821Y-6421285D01*
X174727821Y-6278428D01*
X174620678Y-5992714D01*
X174727821Y-5135571D01*
X174906392Y-4849857D01*
X175067107Y-4707000D01*
X175370678Y-4564142D01*
X175799250Y-4564142D01*
X176067107Y-4707000D01*
X176192107Y-4849857D01*
X176299250Y-5135571D01*
X176192107Y-5992714D01*
X176013535Y-6278428D01*
X175852821Y-6421285D01*
X175549250Y-6564142D01*
X175120678Y-6564142D01*
X178692107Y-6564142D02*
X178888535Y-4992714D01*
X178781392Y-4707000D01*
X178513535Y-4564142D01*
X177942107Y-4564142D01*
X177638535Y-4707000D01*
X178709964Y-6421285D02*
X178406392Y-6564142D01*
X177692107Y-6564142D01*
X177424250Y-6421285D01*
X177317107Y-6135571D01*
X177352821Y-5849857D01*
X177531392Y-5564142D01*
X177834964Y-5421285D01*
X178549250Y-5421285D01*
X178852821Y-5278428D01*
X180120678Y-6564142D02*
X180370678Y-4564142D01*
X180299250Y-5135571D02*
X180477821Y-4849857D01*
X180638535Y-4707000D01*
X180942107Y-4564142D01*
X181227821Y-4564142D01*
X183263535Y-6564142D02*
X183638535Y-3564142D01*
X183281392Y-6421285D02*
X182977821Y-6564142D01*
X182406392Y-6564142D01*
X182138535Y-6421285D01*
X182013535Y-6278428D01*
X181906392Y-5992714D01*
X182013535Y-5135571D01*
X182192107Y-4849857D01*
X182352821Y-4707000D01*
X182656392Y-4564142D01*
X183227821Y-4564142D01*
X183495678Y-4707000D01*
D11*
X272161000Y-101473000D02*
G75*
G02*
X267716000Y-105918000I-4445000J0D01*
G01*
X267716000Y1905000D02*
G75*
G02*
X272161000Y-2540000I0J-4445000D01*
G01*
D13*
X145923000Y-101854000D02*
X145923000Y-87884000D01*
X159893000Y-101854000D02*
X145923000Y-101854000D01*
X159893000Y-87884000D02*
X159893000Y-101854000D01*
X145923000Y-87884000D02*
X159893000Y-87884000D01*
X65913000Y-101854000D02*
X65913000Y-87884000D01*
X79883000Y-101854000D02*
X65913000Y-101854000D01*
X79883000Y-87884000D02*
X79883000Y-101854000D01*
X65913000Y-87884000D02*
X79883000Y-87884000D01*
X105918000Y-87884000D02*
X119888000Y-87884000D01*
X119888000Y-87884000D02*
X119888000Y-101854000D01*
X119888000Y-101854000D02*
X105918000Y-101854000D01*
X105918000Y-101854000D02*
X105918000Y-87884000D01*
X57090000Y-9077000D02*
X57090000Y-7747000D01*
X58420000Y-9077000D02*
X57090000Y-9077000D01*
X57090000Y-6477000D02*
X57090000Y-3877000D01*
X59690000Y-6477000D02*
X57090000Y-6477000D01*
X59690000Y-9077000D02*
X59690000Y-6477000D01*
X57090000Y-3877000D02*
X74990000Y-3877000D01*
X59690000Y-9077000D02*
X74990000Y-9077000D01*
X74990000Y-9077000D02*
X74990000Y-3877000D01*
X243713000Y-28194000D02*
X243713000Y-14224000D01*
X257683000Y-28194000D02*
X243713000Y-28194000D01*
X257683000Y-14224000D02*
X257683000Y-28194000D01*
X243713000Y-14224000D02*
X257683000Y-14224000D01*
X213360000Y-87884000D02*
X227330000Y-87884000D01*
X227330000Y-87884000D02*
X227330000Y-101854000D01*
X227330000Y-101854000D02*
X213360000Y-101854000D01*
X213360000Y-101854000D02*
X213360000Y-87884000D01*
X11430000Y-69469000D02*
X25400000Y-69469000D01*
X25400000Y-69469000D02*
X25400000Y-83439000D01*
X25400000Y-83439000D02*
X11430000Y-83439000D01*
X11430000Y-83439000D02*
X11430000Y-69469000D01*
X7620000Y-50927000D02*
X21590000Y-50927000D01*
X21590000Y-50927000D02*
X21590000Y-64897000D01*
X21590000Y-64897000D02*
X7620000Y-64897000D01*
X7620000Y-64897000D02*
X7620000Y-50927000D01*
X227584000Y-83439000D02*
X227584000Y-69469000D01*
X241554000Y-83439000D02*
X227584000Y-83439000D01*
X241554000Y-69469000D02*
X241554000Y-83439000D01*
X227584000Y-69469000D02*
X241554000Y-69469000D01*
X242189000Y-64897000D02*
X242189000Y-50927000D01*
X256159000Y-64897000D02*
X242189000Y-64897000D01*
X256159000Y-50927000D02*
X256159000Y-64897000D01*
X242189000Y-50927000D02*
X256159000Y-50927000D01*
X212598000Y-50927000D02*
X226568000Y-50927000D01*
X226568000Y-50927000D02*
X226568000Y-64897000D01*
X226568000Y-64897000D02*
X212598000Y-64897000D01*
X212598000Y-64897000D02*
X212598000Y-50927000D01*
X248920000Y-46609000D02*
X248920000Y-32639000D01*
X262890000Y-46609000D02*
X248920000Y-46609000D01*
X262890000Y-32639000D02*
X262890000Y-46609000D01*
X248920000Y-32639000D02*
X262890000Y-32639000D01*
X215646000Y-14224000D02*
X229616000Y-14224000D01*
X229616000Y-14224000D02*
X229616000Y-28194000D01*
X229616000Y-28194000D02*
X215646000Y-28194000D01*
X215646000Y-28194000D02*
X215646000Y-14224000D01*
X41910000Y-32639000D02*
X55880000Y-32639000D01*
X55880000Y-32639000D02*
X55880000Y-46609000D01*
X55880000Y-46609000D02*
X41910000Y-46609000D01*
X41910000Y-46609000D02*
X41910000Y-32639000D01*
X207645000Y-32639000D02*
X221615000Y-32639000D01*
X221615000Y-32639000D02*
X221615000Y-46609000D01*
X221615000Y-46609000D02*
X207645000Y-46609000D01*
X207645000Y-46609000D02*
X207645000Y-32639000D01*
X192659000Y-87884000D02*
X206629000Y-87884000D01*
X206629000Y-87884000D02*
X206629000Y-101854000D01*
X206629000Y-101854000D02*
X192659000Y-101854000D01*
X192659000Y-101854000D02*
X192659000Y-87884000D01*
X69088000Y-69469000D02*
X83058000Y-69469000D01*
X83058000Y-69469000D02*
X83058000Y-83439000D01*
X83058000Y-83439000D02*
X69088000Y-83439000D01*
X69088000Y-83439000D02*
X69088000Y-69469000D01*
X65278000Y-50927000D02*
X79248000Y-50927000D01*
X79248000Y-50927000D02*
X79248000Y-64897000D01*
X79248000Y-64897000D02*
X65278000Y-64897000D01*
X65278000Y-64897000D02*
X65278000Y-50927000D01*
X49911000Y-14224000D02*
X63881000Y-14224000D01*
X63881000Y-14224000D02*
X63881000Y-28194000D01*
X63881000Y-28194000D02*
X49911000Y-28194000D01*
X49911000Y-28194000D02*
X49911000Y-14224000D01*
X46863000Y-50927000D02*
X60833000Y-50927000D01*
X60833000Y-50927000D02*
X60833000Y-64897000D01*
X60833000Y-64897000D02*
X46863000Y-64897000D01*
X46863000Y-64897000D02*
X46863000Y-50927000D01*
X226060000Y-32639000D02*
X240030000Y-32639000D01*
X240030000Y-32639000D02*
X240030000Y-46609000D01*
X240030000Y-46609000D02*
X226060000Y-46609000D01*
X226060000Y-46609000D02*
X226060000Y-32639000D01*
X37592000Y-87884000D02*
X51562000Y-87884000D01*
X51562000Y-87884000D02*
X51562000Y-101854000D01*
X51562000Y-101854000D02*
X37592000Y-101854000D01*
X37592000Y-101854000D02*
X37592000Y-87884000D01*
X31496000Y-14224000D02*
X45466000Y-14224000D01*
X45466000Y-14224000D02*
X45466000Y-28194000D01*
X45466000Y-28194000D02*
X31496000Y-28194000D01*
X31496000Y-28194000D02*
X31496000Y-14224000D01*
X23495000Y-32639000D02*
X37465000Y-32639000D01*
X37465000Y-32639000D02*
X37465000Y-46609000D01*
X37465000Y-46609000D02*
X23495000Y-46609000D01*
X23495000Y-46609000D02*
X23495000Y-32639000D01*
X50673000Y-69469000D02*
X64643000Y-69469000D01*
X64643000Y-69469000D02*
X64643000Y-83439000D01*
X64643000Y-83439000D02*
X50673000Y-83439000D01*
X50673000Y-83439000D02*
X50673000Y-69469000D01*
X28448000Y-50927000D02*
X42418000Y-50927000D01*
X42418000Y-50927000D02*
X42418000Y-64897000D01*
X42418000Y-64897000D02*
X28448000Y-64897000D01*
X28448000Y-64897000D02*
X28448000Y-50927000D01*
X19177000Y-87884000D02*
X33147000Y-87884000D01*
X33147000Y-87884000D02*
X33147000Y-101854000D01*
X33147000Y-101854000D02*
X19177000Y-101854000D01*
X19177000Y-101854000D02*
X19177000Y-87884000D01*
X32258000Y-69469000D02*
X46228000Y-69469000D01*
X46228000Y-69469000D02*
X46228000Y-83439000D01*
X46228000Y-83439000D02*
X32258000Y-83439000D01*
X32258000Y-83439000D02*
X32258000Y-69469000D01*
X5080000Y-32639000D02*
X19050000Y-32639000D01*
X19050000Y-32639000D02*
X19050000Y-46609000D01*
X19050000Y-46609000D02*
X5080000Y-46609000D01*
X5080000Y-46609000D02*
X5080000Y-32639000D01*
X13081000Y-14224000D02*
X27051000Y-14224000D01*
X27051000Y-14224000D02*
X27051000Y-28194000D01*
X27051000Y-28194000D02*
X13081000Y-28194000D01*
X13081000Y-28194000D02*
X13081000Y-14224000D01*
X197993000Y-69469000D02*
X211963000Y-69469000D01*
X211963000Y-69469000D02*
X211963000Y-83439000D01*
X211963000Y-83439000D02*
X197993000Y-83439000D01*
X197993000Y-83439000D02*
X197993000Y-69469000D01*
X60325000Y-32639000D02*
X74295000Y-32639000D01*
X74295000Y-32639000D02*
X74295000Y-46609000D01*
X74295000Y-46609000D02*
X60325000Y-46609000D01*
X60325000Y-46609000D02*
X60325000Y-32639000D01*
X189230000Y-32639000D02*
X203200000Y-32639000D01*
X203200000Y-32639000D02*
X203200000Y-46609000D01*
X203200000Y-46609000D02*
X189230000Y-46609000D01*
X189230000Y-46609000D02*
X189230000Y-32639000D01*
X174244000Y-87884000D02*
X188214000Y-87884000D01*
X188214000Y-87884000D02*
X188214000Y-101854000D01*
X188214000Y-101854000D02*
X174244000Y-101854000D01*
X174244000Y-101854000D02*
X174244000Y-87884000D01*
X197231000Y-14224000D02*
X211201000Y-14224000D01*
X211201000Y-14224000D02*
X211201000Y-28194000D01*
X211201000Y-28194000D02*
X197231000Y-28194000D01*
X197231000Y-28194000D02*
X197231000Y-14224000D01*
X68326000Y-14224000D02*
X82296000Y-14224000D01*
X82296000Y-14224000D02*
X82296000Y-28194000D01*
X82296000Y-28194000D02*
X68326000Y-28194000D01*
X68326000Y-28194000D02*
X68326000Y-14224000D01*
X83693000Y-50927000D02*
X97663000Y-50927000D01*
X97663000Y-50927000D02*
X97663000Y-64897000D01*
X97663000Y-64897000D02*
X83693000Y-64897000D01*
X83693000Y-64897000D02*
X83693000Y-50927000D01*
X87503000Y-69469000D02*
X101473000Y-69469000D01*
X101473000Y-69469000D02*
X101473000Y-83439000D01*
X101473000Y-83439000D02*
X87503000Y-83439000D01*
X87503000Y-83439000D02*
X87503000Y-69469000D01*
X102108000Y-50927000D02*
X116078000Y-50927000D01*
X116078000Y-50927000D02*
X116078000Y-64897000D01*
X116078000Y-64897000D02*
X102108000Y-64897000D01*
X102108000Y-64897000D02*
X102108000Y-50927000D01*
X178816000Y-14224000D02*
X192786000Y-14224000D01*
X192786000Y-14224000D02*
X192786000Y-28194000D01*
X192786000Y-28194000D02*
X178816000Y-28194000D01*
X178816000Y-28194000D02*
X178816000Y-14224000D01*
X170815000Y-32639000D02*
X184785000Y-32639000D01*
X184785000Y-32639000D02*
X184785000Y-46609000D01*
X184785000Y-46609000D02*
X170815000Y-46609000D01*
X170815000Y-46609000D02*
X170815000Y-32639000D01*
X179578000Y-69469000D02*
X193548000Y-69469000D01*
X193548000Y-69469000D02*
X193548000Y-83439000D01*
X193548000Y-83439000D02*
X179578000Y-83439000D01*
X179578000Y-83439000D02*
X179578000Y-69469000D01*
X194183000Y-50927000D02*
X208153000Y-50927000D01*
X208153000Y-50927000D02*
X208153000Y-64897000D01*
X208153000Y-64897000D02*
X194183000Y-64897000D01*
X194183000Y-64897000D02*
X194183000Y-50927000D01*
X105918000Y-69469000D02*
X119888000Y-69469000D01*
X119888000Y-69469000D02*
X119888000Y-83439000D01*
X119888000Y-83439000D02*
X105918000Y-83439000D01*
X105918000Y-83439000D02*
X105918000Y-69469000D01*
X78740000Y-32639000D02*
X92710000Y-32639000D01*
X92710000Y-32639000D02*
X92710000Y-46609000D01*
X92710000Y-46609000D02*
X78740000Y-46609000D01*
X78740000Y-46609000D02*
X78740000Y-32639000D01*
X86741000Y-14224000D02*
X100711000Y-14224000D01*
X100711000Y-14224000D02*
X100711000Y-28194000D01*
X100711000Y-28194000D02*
X86741000Y-28194000D01*
X86741000Y-28194000D02*
X86741000Y-14224000D01*
X175768000Y-50927000D02*
X189738000Y-50927000D01*
X189738000Y-50927000D02*
X189738000Y-64897000D01*
X189738000Y-64897000D02*
X175768000Y-64897000D01*
X175768000Y-64897000D02*
X175768000Y-50927000D01*
X120523000Y-50927000D02*
X134493000Y-50927000D01*
X134493000Y-50927000D02*
X134493000Y-64897000D01*
X134493000Y-64897000D02*
X120523000Y-64897000D01*
X120523000Y-64897000D02*
X120523000Y-50927000D01*
X152400000Y-32639000D02*
X166370000Y-32639000D01*
X166370000Y-32639000D02*
X166370000Y-46609000D01*
X166370000Y-46609000D02*
X152400000Y-46609000D01*
X152400000Y-46609000D02*
X152400000Y-32639000D01*
X161163000Y-69469000D02*
X175133000Y-69469000D01*
X175133000Y-69469000D02*
X175133000Y-83439000D01*
X175133000Y-83439000D02*
X161163000Y-83439000D01*
X161163000Y-83439000D02*
X161163000Y-69469000D01*
X160401000Y-14224000D02*
X174371000Y-14224000D01*
X174371000Y-14224000D02*
X174371000Y-28194000D01*
X174371000Y-28194000D02*
X160401000Y-28194000D01*
X160401000Y-28194000D02*
X160401000Y-14224000D01*
X105156000Y-14224000D02*
X119126000Y-14224000D01*
X119126000Y-14224000D02*
X119126000Y-28194000D01*
X119126000Y-28194000D02*
X105156000Y-28194000D01*
X105156000Y-28194000D02*
X105156000Y-14224000D01*
X97155000Y-32639000D02*
X111125000Y-32639000D01*
X111125000Y-32639000D02*
X111125000Y-46609000D01*
X111125000Y-46609000D02*
X97155000Y-46609000D01*
X97155000Y-46609000D02*
X97155000Y-32639000D01*
X124333000Y-69469000D02*
X138303000Y-69469000D01*
X138303000Y-69469000D02*
X138303000Y-83439000D01*
X138303000Y-83439000D02*
X124333000Y-83439000D01*
X124333000Y-83439000D02*
X124333000Y-69469000D01*
X115570000Y-32639000D02*
X129540000Y-32639000D01*
X129540000Y-32639000D02*
X129540000Y-46609000D01*
X129540000Y-46609000D02*
X115570000Y-46609000D01*
X115570000Y-46609000D02*
X115570000Y-32639000D01*
X141986000Y-14224000D02*
X155956000Y-14224000D01*
X155956000Y-14224000D02*
X155956000Y-28194000D01*
X155956000Y-28194000D02*
X141986000Y-28194000D01*
X141986000Y-28194000D02*
X141986000Y-14224000D01*
X133985000Y-32639000D02*
X147955000Y-32639000D01*
X147955000Y-32639000D02*
X147955000Y-46609000D01*
X147955000Y-46609000D02*
X133985000Y-46609000D01*
X133985000Y-46609000D02*
X133985000Y-32639000D01*
X157353000Y-50927000D02*
X171323000Y-50927000D01*
X171323000Y-50927000D02*
X171323000Y-64897000D01*
X171323000Y-64897000D02*
X157353000Y-64897000D01*
X157353000Y-64897000D02*
X157353000Y-50927000D01*
X142748000Y-69469000D02*
X156718000Y-69469000D01*
X156718000Y-69469000D02*
X156718000Y-83439000D01*
X156718000Y-83439000D02*
X142748000Y-83439000D01*
X142748000Y-83439000D02*
X142748000Y-69469000D01*
X138938000Y-50927000D02*
X152908000Y-50927000D01*
X152908000Y-50927000D02*
X152908000Y-64897000D01*
X152908000Y-64897000D02*
X138938000Y-64897000D01*
X138938000Y-64897000D02*
X138938000Y-50927000D01*
X123571000Y-14224000D02*
X137541000Y-14224000D01*
X137541000Y-14224000D02*
X137541000Y-28194000D01*
X137541000Y-28194000D02*
X123571000Y-28194000D01*
X123571000Y-28194000D02*
X123571000Y-14224000D01*
X95190000Y-7477000D02*
X95190000Y-9127000D01*
X95190000Y-9127000D02*
X115630000Y-9127000D01*
X115630000Y-9127000D02*
X115630000Y-3827000D01*
X115630000Y-3827000D02*
X95190000Y-3827000D01*
X95190000Y-3827000D02*
X95190000Y-5477000D01*
X95190000Y-5477000D02*
G75*
G02*
X95190000Y-7477000I0J-1000000D01*
G01*
D14*
X151098476Y-87399761D02*
X151241333Y-87447380D01*
X151479428Y-87447380D01*
X151574666Y-87399761D01*
X151622285Y-87352142D01*
X151669904Y-87256904D01*
X151669904Y-87161666D01*
X151622285Y-87066428D01*
X151574666Y-87018809D01*
X151479428Y-86971190D01*
X151288952Y-86923571D01*
X151193714Y-86875952D01*
X151146095Y-86828333D01*
X151098476Y-86733095D01*
X151098476Y-86637857D01*
X151146095Y-86542619D01*
X151193714Y-86495000D01*
X151288952Y-86447380D01*
X151527047Y-86447380D01*
X151669904Y-86495000D01*
X152003238Y-86447380D02*
X152241333Y-87447380D01*
X152431809Y-86733095D01*
X152622285Y-87447380D01*
X152860380Y-86447380D01*
X153669904Y-86447380D02*
X153479428Y-86447380D01*
X153384190Y-86495000D01*
X153336571Y-86542619D01*
X153241333Y-86685476D01*
X153193714Y-86875952D01*
X153193714Y-87256904D01*
X153241333Y-87352142D01*
X153288952Y-87399761D01*
X153384190Y-87447380D01*
X153574666Y-87447380D01*
X153669904Y-87399761D01*
X153717523Y-87352142D01*
X153765142Y-87256904D01*
X153765142Y-87018809D01*
X153717523Y-86923571D01*
X153669904Y-86875952D01*
X153574666Y-86828333D01*
X153384190Y-86828333D01*
X153288952Y-86875952D01*
X153241333Y-86923571D01*
X153193714Y-87018809D01*
X154384190Y-86447380D02*
X154479428Y-86447380D01*
X154574666Y-86495000D01*
X154622285Y-86542619D01*
X154669904Y-86637857D01*
X154717523Y-86828333D01*
X154717523Y-87066428D01*
X154669904Y-87256904D01*
X154622285Y-87352142D01*
X154574666Y-87399761D01*
X154479428Y-87447380D01*
X154384190Y-87447380D01*
X154288952Y-87399761D01*
X154241333Y-87352142D01*
X154193714Y-87256904D01*
X154146095Y-87066428D01*
X154146095Y-86828333D01*
X154193714Y-86637857D01*
X154241333Y-86542619D01*
X154288952Y-86495000D01*
X154384190Y-86447380D01*
X71088476Y-87399761D02*
X71231333Y-87447380D01*
X71469428Y-87447380D01*
X71564666Y-87399761D01*
X71612285Y-87352142D01*
X71659904Y-87256904D01*
X71659904Y-87161666D01*
X71612285Y-87066428D01*
X71564666Y-87018809D01*
X71469428Y-86971190D01*
X71278952Y-86923571D01*
X71183714Y-86875952D01*
X71136095Y-86828333D01*
X71088476Y-86733095D01*
X71088476Y-86637857D01*
X71136095Y-86542619D01*
X71183714Y-86495000D01*
X71278952Y-86447380D01*
X71517047Y-86447380D01*
X71659904Y-86495000D01*
X71993238Y-86447380D02*
X72231333Y-87447380D01*
X72421809Y-86733095D01*
X72612285Y-87447380D01*
X72850380Y-86447380D01*
X73707523Y-86447380D02*
X73231333Y-86447380D01*
X73183714Y-86923571D01*
X73231333Y-86875952D01*
X73326571Y-86828333D01*
X73564666Y-86828333D01*
X73659904Y-86875952D01*
X73707523Y-86923571D01*
X73755142Y-87018809D01*
X73755142Y-87256904D01*
X73707523Y-87352142D01*
X73659904Y-87399761D01*
X73564666Y-87447380D01*
X73326571Y-87447380D01*
X73231333Y-87399761D01*
X73183714Y-87352142D01*
X74231333Y-87447380D02*
X74421809Y-87447380D01*
X74517047Y-87399761D01*
X74564666Y-87352142D01*
X74659904Y-87209285D01*
X74707523Y-87018809D01*
X74707523Y-86637857D01*
X74659904Y-86542619D01*
X74612285Y-86495000D01*
X74517047Y-86447380D01*
X74326571Y-86447380D01*
X74231333Y-86495000D01*
X74183714Y-86542619D01*
X74136095Y-86637857D01*
X74136095Y-86875952D01*
X74183714Y-86971190D01*
X74231333Y-87018809D01*
X74326571Y-87066428D01*
X74517047Y-87066428D01*
X74612285Y-87018809D01*
X74659904Y-86971190D01*
X74707523Y-86875952D01*
X111569666Y-87399761D02*
X111712523Y-87447380D01*
X111950619Y-87447380D01*
X112045857Y-87399761D01*
X112093476Y-87352142D01*
X112141095Y-87256904D01*
X112141095Y-87161666D01*
X112093476Y-87066428D01*
X112045857Y-87018809D01*
X111950619Y-86971190D01*
X111760142Y-86923571D01*
X111664904Y-86875952D01*
X111617285Y-86828333D01*
X111569666Y-86733095D01*
X111569666Y-86637857D01*
X111617285Y-86542619D01*
X111664904Y-86495000D01*
X111760142Y-86447380D01*
X111998238Y-86447380D01*
X112141095Y-86495000D01*
X112474428Y-86447380D02*
X112712523Y-87447380D01*
X112903000Y-86733095D01*
X113093476Y-87447380D01*
X113331571Y-86447380D01*
X114188714Y-86447380D02*
X113712523Y-86447380D01*
X113664904Y-86923571D01*
X113712523Y-86875952D01*
X113807761Y-86828333D01*
X114045857Y-86828333D01*
X114141095Y-86875952D01*
X114188714Y-86923571D01*
X114236333Y-87018809D01*
X114236333Y-87256904D01*
X114188714Y-87352142D01*
X114141095Y-87399761D01*
X114045857Y-87447380D01*
X113807761Y-87447380D01*
X113712523Y-87399761D01*
X113664904Y-87352142D01*
X137541095Y-91521380D02*
X137541095Y-90521380D01*
X137541095Y-90997571D02*
X138112523Y-90997571D01*
X138112523Y-91521380D02*
X138112523Y-90521380D01*
X139017285Y-90521380D02*
X138826809Y-90521380D01*
X138731571Y-90569000D01*
X138683952Y-90616619D01*
X138588714Y-90759476D01*
X138541095Y-90949952D01*
X138541095Y-91330904D01*
X138588714Y-91426142D01*
X138636333Y-91473761D01*
X138731571Y-91521380D01*
X138922047Y-91521380D01*
X139017285Y-91473761D01*
X139064904Y-91426142D01*
X139112523Y-91330904D01*
X139112523Y-91092809D01*
X139064904Y-90997571D01*
X139017285Y-90949952D01*
X138922047Y-90902333D01*
X138731571Y-90902333D01*
X138636333Y-90949952D01*
X138588714Y-90997571D01*
X138541095Y-91092809D01*
X86741095Y-91521380D02*
X86741095Y-90521380D01*
X86741095Y-90997571D02*
X87312523Y-90997571D01*
X87312523Y-91521380D02*
X87312523Y-90521380D01*
X88264904Y-90521380D02*
X87788714Y-90521380D01*
X87741095Y-90997571D01*
X87788714Y-90949952D01*
X87883952Y-90902333D01*
X88122047Y-90902333D01*
X88217285Y-90949952D01*
X88264904Y-90997571D01*
X88312523Y-91092809D01*
X88312523Y-91330904D01*
X88264904Y-91426142D01*
X88217285Y-91473761D01*
X88122047Y-91521380D01*
X87883952Y-91521380D01*
X87788714Y-91473761D01*
X87741095Y-91426142D01*
X55542380Y-6810333D02*
X56256666Y-6810333D01*
X56399523Y-6857952D01*
X56494761Y-6953190D01*
X56542380Y-7096047D01*
X56542380Y-7191285D01*
X56542380Y-5810333D02*
X56542380Y-6381761D01*
X56542380Y-6096047D02*
X55542380Y-6096047D01*
X55685238Y-6191285D01*
X55780476Y-6286523D01*
X55828095Y-6381761D01*
X248888476Y-13739761D02*
X249031333Y-13787380D01*
X249269428Y-13787380D01*
X249364666Y-13739761D01*
X249412285Y-13692142D01*
X249459904Y-13596904D01*
X249459904Y-13501666D01*
X249412285Y-13406428D01*
X249364666Y-13358809D01*
X249269428Y-13311190D01*
X249078952Y-13263571D01*
X248983714Y-13215952D01*
X248936095Y-13168333D01*
X248888476Y-13073095D01*
X248888476Y-12977857D01*
X248936095Y-12882619D01*
X248983714Y-12835000D01*
X249078952Y-12787380D01*
X249317047Y-12787380D01*
X249459904Y-12835000D01*
X249793238Y-12787380D02*
X250031333Y-13787380D01*
X250221809Y-13073095D01*
X250412285Y-13787380D01*
X250650380Y-12787380D01*
X251459904Y-13120714D02*
X251459904Y-13787380D01*
X251221809Y-12739761D02*
X250983714Y-13454047D01*
X251602761Y-13454047D01*
X252507523Y-13787380D02*
X251936095Y-13787380D01*
X252221809Y-13787380D02*
X252221809Y-12787380D01*
X252126571Y-12930238D01*
X252031333Y-13025476D01*
X251936095Y-13073095D01*
X218535476Y-87399761D02*
X218678333Y-87447380D01*
X218916428Y-87447380D01*
X219011666Y-87399761D01*
X219059285Y-87352142D01*
X219106904Y-87256904D01*
X219106904Y-87161666D01*
X219059285Y-87066428D01*
X219011666Y-87018809D01*
X218916428Y-86971190D01*
X218725952Y-86923571D01*
X218630714Y-86875952D01*
X218583095Y-86828333D01*
X218535476Y-86733095D01*
X218535476Y-86637857D01*
X218583095Y-86542619D01*
X218630714Y-86495000D01*
X218725952Y-86447380D01*
X218964047Y-86447380D01*
X219106904Y-86495000D01*
X219440238Y-86447380D02*
X219678333Y-87447380D01*
X219868809Y-86733095D01*
X220059285Y-87447380D01*
X220297380Y-86447380D01*
X220583095Y-86447380D02*
X221202142Y-86447380D01*
X220868809Y-86828333D01*
X221011666Y-86828333D01*
X221106904Y-86875952D01*
X221154523Y-86923571D01*
X221202142Y-87018809D01*
X221202142Y-87256904D01*
X221154523Y-87352142D01*
X221106904Y-87399761D01*
X221011666Y-87447380D01*
X220725952Y-87447380D01*
X220630714Y-87399761D01*
X220583095Y-87352142D01*
X222106904Y-86447380D02*
X221630714Y-86447380D01*
X221583095Y-86923571D01*
X221630714Y-86875952D01*
X221725952Y-86828333D01*
X221964047Y-86828333D01*
X222059285Y-86875952D01*
X222106904Y-86923571D01*
X222154523Y-87018809D01*
X222154523Y-87256904D01*
X222106904Y-87352142D01*
X222059285Y-87399761D01*
X221964047Y-87447380D01*
X221725952Y-87447380D01*
X221630714Y-87399761D01*
X221583095Y-87352142D01*
X16605476Y-68984761D02*
X16748333Y-69032380D01*
X16986428Y-69032380D01*
X17081666Y-68984761D01*
X17129285Y-68937142D01*
X17176904Y-68841904D01*
X17176904Y-68746666D01*
X17129285Y-68651428D01*
X17081666Y-68603809D01*
X16986428Y-68556190D01*
X16795952Y-68508571D01*
X16700714Y-68460952D01*
X16653095Y-68413333D01*
X16605476Y-68318095D01*
X16605476Y-68222857D01*
X16653095Y-68127619D01*
X16700714Y-68080000D01*
X16795952Y-68032380D01*
X17034047Y-68032380D01*
X17176904Y-68080000D01*
X17510238Y-68032380D02*
X17748333Y-69032380D01*
X17938809Y-68318095D01*
X18129285Y-69032380D01*
X18367380Y-68032380D01*
X18653095Y-68032380D02*
X19272142Y-68032380D01*
X18938809Y-68413333D01*
X19081666Y-68413333D01*
X19176904Y-68460952D01*
X19224523Y-68508571D01*
X19272142Y-68603809D01*
X19272142Y-68841904D01*
X19224523Y-68937142D01*
X19176904Y-68984761D01*
X19081666Y-69032380D01*
X18795952Y-69032380D01*
X18700714Y-68984761D01*
X18653095Y-68937142D01*
X20129285Y-68365714D02*
X20129285Y-69032380D01*
X19891190Y-67984761D02*
X19653095Y-68699047D01*
X20272142Y-68699047D01*
X12795476Y-50442761D02*
X12938333Y-50490380D01*
X13176428Y-50490380D01*
X13271666Y-50442761D01*
X13319285Y-50395142D01*
X13366904Y-50299904D01*
X13366904Y-50204666D01*
X13319285Y-50109428D01*
X13271666Y-50061809D01*
X13176428Y-50014190D01*
X12985952Y-49966571D01*
X12890714Y-49918952D01*
X12843095Y-49871333D01*
X12795476Y-49776095D01*
X12795476Y-49680857D01*
X12843095Y-49585619D01*
X12890714Y-49538000D01*
X12985952Y-49490380D01*
X13224047Y-49490380D01*
X13366904Y-49538000D01*
X13700238Y-49490380D02*
X13938333Y-50490380D01*
X14128809Y-49776095D01*
X14319285Y-50490380D01*
X14557380Y-49490380D01*
X14843095Y-49490380D02*
X15462142Y-49490380D01*
X15128809Y-49871333D01*
X15271666Y-49871333D01*
X15366904Y-49918952D01*
X15414523Y-49966571D01*
X15462142Y-50061809D01*
X15462142Y-50299904D01*
X15414523Y-50395142D01*
X15366904Y-50442761D01*
X15271666Y-50490380D01*
X14985952Y-50490380D01*
X14890714Y-50442761D01*
X14843095Y-50395142D01*
X15795476Y-49490380D02*
X16414523Y-49490380D01*
X16081190Y-49871333D01*
X16224047Y-49871333D01*
X16319285Y-49918952D01*
X16366904Y-49966571D01*
X16414523Y-50061809D01*
X16414523Y-50299904D01*
X16366904Y-50395142D01*
X16319285Y-50442761D01*
X16224047Y-50490380D01*
X15938333Y-50490380D01*
X15843095Y-50442761D01*
X15795476Y-50395142D01*
X232759476Y-68984761D02*
X232902333Y-69032380D01*
X233140428Y-69032380D01*
X233235666Y-68984761D01*
X233283285Y-68937142D01*
X233330904Y-68841904D01*
X233330904Y-68746666D01*
X233283285Y-68651428D01*
X233235666Y-68603809D01*
X233140428Y-68556190D01*
X232949952Y-68508571D01*
X232854714Y-68460952D01*
X232807095Y-68413333D01*
X232759476Y-68318095D01*
X232759476Y-68222857D01*
X232807095Y-68127619D01*
X232854714Y-68080000D01*
X232949952Y-68032380D01*
X233188047Y-68032380D01*
X233330904Y-68080000D01*
X233664238Y-68032380D02*
X233902333Y-69032380D01*
X234092809Y-68318095D01*
X234283285Y-69032380D01*
X234521380Y-68032380D01*
X234807095Y-68032380D02*
X235426142Y-68032380D01*
X235092809Y-68413333D01*
X235235666Y-68413333D01*
X235330904Y-68460952D01*
X235378523Y-68508571D01*
X235426142Y-68603809D01*
X235426142Y-68841904D01*
X235378523Y-68937142D01*
X235330904Y-68984761D01*
X235235666Y-69032380D01*
X234949952Y-69032380D01*
X234854714Y-68984761D01*
X234807095Y-68937142D01*
X236283285Y-68032380D02*
X236092809Y-68032380D01*
X235997571Y-68080000D01*
X235949952Y-68127619D01*
X235854714Y-68270476D01*
X235807095Y-68460952D01*
X235807095Y-68841904D01*
X235854714Y-68937142D01*
X235902333Y-68984761D01*
X235997571Y-69032380D01*
X236188047Y-69032380D01*
X236283285Y-68984761D01*
X236330904Y-68937142D01*
X236378523Y-68841904D01*
X236378523Y-68603809D01*
X236330904Y-68508571D01*
X236283285Y-68460952D01*
X236188047Y-68413333D01*
X235997571Y-68413333D01*
X235902333Y-68460952D01*
X235854714Y-68508571D01*
X235807095Y-68603809D01*
X247364476Y-50442761D02*
X247507333Y-50490380D01*
X247745428Y-50490380D01*
X247840666Y-50442761D01*
X247888285Y-50395142D01*
X247935904Y-50299904D01*
X247935904Y-50204666D01*
X247888285Y-50109428D01*
X247840666Y-50061809D01*
X247745428Y-50014190D01*
X247554952Y-49966571D01*
X247459714Y-49918952D01*
X247412095Y-49871333D01*
X247364476Y-49776095D01*
X247364476Y-49680857D01*
X247412095Y-49585619D01*
X247459714Y-49538000D01*
X247554952Y-49490380D01*
X247793047Y-49490380D01*
X247935904Y-49538000D01*
X248269238Y-49490380D02*
X248507333Y-50490380D01*
X248697809Y-49776095D01*
X248888285Y-50490380D01*
X249126380Y-49490380D01*
X249935904Y-49823714D02*
X249935904Y-50490380D01*
X249697809Y-49442761D02*
X249459714Y-50157047D01*
X250078761Y-50157047D01*
X250364476Y-49490380D02*
X250983523Y-49490380D01*
X250650190Y-49871333D01*
X250793047Y-49871333D01*
X250888285Y-49918952D01*
X250935904Y-49966571D01*
X250983523Y-50061809D01*
X250983523Y-50299904D01*
X250935904Y-50395142D01*
X250888285Y-50442761D01*
X250793047Y-50490380D01*
X250507333Y-50490380D01*
X250412095Y-50442761D01*
X250364476Y-50395142D01*
X217773476Y-50442761D02*
X217916333Y-50490380D01*
X218154428Y-50490380D01*
X218249666Y-50442761D01*
X218297285Y-50395142D01*
X218344904Y-50299904D01*
X218344904Y-50204666D01*
X218297285Y-50109428D01*
X218249666Y-50061809D01*
X218154428Y-50014190D01*
X217963952Y-49966571D01*
X217868714Y-49918952D01*
X217821095Y-49871333D01*
X217773476Y-49776095D01*
X217773476Y-49680857D01*
X217821095Y-49585619D01*
X217868714Y-49538000D01*
X217963952Y-49490380D01*
X218202047Y-49490380D01*
X218344904Y-49538000D01*
X218678238Y-49490380D02*
X218916333Y-50490380D01*
X219106809Y-49776095D01*
X219297285Y-50490380D01*
X219535380Y-49490380D01*
X220392523Y-49490380D02*
X219916333Y-49490380D01*
X219868714Y-49966571D01*
X219916333Y-49918952D01*
X220011571Y-49871333D01*
X220249666Y-49871333D01*
X220344904Y-49918952D01*
X220392523Y-49966571D01*
X220440142Y-50061809D01*
X220440142Y-50299904D01*
X220392523Y-50395142D01*
X220344904Y-50442761D01*
X220249666Y-50490380D01*
X220011571Y-50490380D01*
X219916333Y-50442761D01*
X219868714Y-50395142D01*
X221011571Y-49918952D02*
X220916333Y-49871333D01*
X220868714Y-49823714D01*
X220821095Y-49728476D01*
X220821095Y-49680857D01*
X220868714Y-49585619D01*
X220916333Y-49538000D01*
X221011571Y-49490380D01*
X221202047Y-49490380D01*
X221297285Y-49538000D01*
X221344904Y-49585619D01*
X221392523Y-49680857D01*
X221392523Y-49728476D01*
X221344904Y-49823714D01*
X221297285Y-49871333D01*
X221202047Y-49918952D01*
X221011571Y-49918952D01*
X220916333Y-49966571D01*
X220868714Y-50014190D01*
X220821095Y-50109428D01*
X220821095Y-50299904D01*
X220868714Y-50395142D01*
X220916333Y-50442761D01*
X221011571Y-50490380D01*
X221202047Y-50490380D01*
X221297285Y-50442761D01*
X221344904Y-50395142D01*
X221392523Y-50299904D01*
X221392523Y-50109428D01*
X221344904Y-50014190D01*
X221297285Y-49966571D01*
X221202047Y-49918952D01*
X254095476Y-32154761D02*
X254238333Y-32202380D01*
X254476428Y-32202380D01*
X254571666Y-32154761D01*
X254619285Y-32107142D01*
X254666904Y-32011904D01*
X254666904Y-31916666D01*
X254619285Y-31821428D01*
X254571666Y-31773809D01*
X254476428Y-31726190D01*
X254285952Y-31678571D01*
X254190714Y-31630952D01*
X254143095Y-31583333D01*
X254095476Y-31488095D01*
X254095476Y-31392857D01*
X254143095Y-31297619D01*
X254190714Y-31250000D01*
X254285952Y-31202380D01*
X254524047Y-31202380D01*
X254666904Y-31250000D01*
X255000238Y-31202380D02*
X255238333Y-32202380D01*
X255428809Y-31488095D01*
X255619285Y-32202380D01*
X255857380Y-31202380D01*
X256666904Y-31535714D02*
X256666904Y-32202380D01*
X256428809Y-31154761D02*
X256190714Y-31869047D01*
X256809761Y-31869047D01*
X257095476Y-31202380D02*
X257762142Y-31202380D01*
X257333571Y-32202380D01*
X220821476Y-13739761D02*
X220964333Y-13787380D01*
X221202428Y-13787380D01*
X221297666Y-13739761D01*
X221345285Y-13692142D01*
X221392904Y-13596904D01*
X221392904Y-13501666D01*
X221345285Y-13406428D01*
X221297666Y-13358809D01*
X221202428Y-13311190D01*
X221011952Y-13263571D01*
X220916714Y-13215952D01*
X220869095Y-13168333D01*
X220821476Y-13073095D01*
X220821476Y-12977857D01*
X220869095Y-12882619D01*
X220916714Y-12835000D01*
X221011952Y-12787380D01*
X221250047Y-12787380D01*
X221392904Y-12835000D01*
X221726238Y-12787380D02*
X221964333Y-13787380D01*
X222154809Y-13073095D01*
X222345285Y-13787380D01*
X222583380Y-12787380D01*
X223440523Y-12787380D02*
X222964333Y-12787380D01*
X222916714Y-13263571D01*
X222964333Y-13215952D01*
X223059571Y-13168333D01*
X223297666Y-13168333D01*
X223392904Y-13215952D01*
X223440523Y-13263571D01*
X223488142Y-13358809D01*
X223488142Y-13596904D01*
X223440523Y-13692142D01*
X223392904Y-13739761D01*
X223297666Y-13787380D01*
X223059571Y-13787380D01*
X222964333Y-13739761D01*
X222916714Y-13692142D01*
X223821476Y-12787380D02*
X224488142Y-12787380D01*
X224059571Y-13787380D01*
X47085476Y-32154761D02*
X47228333Y-32202380D01*
X47466428Y-32202380D01*
X47561666Y-32154761D01*
X47609285Y-32107142D01*
X47656904Y-32011904D01*
X47656904Y-31916666D01*
X47609285Y-31821428D01*
X47561666Y-31773809D01*
X47466428Y-31726190D01*
X47275952Y-31678571D01*
X47180714Y-31630952D01*
X47133095Y-31583333D01*
X47085476Y-31488095D01*
X47085476Y-31392857D01*
X47133095Y-31297619D01*
X47180714Y-31250000D01*
X47275952Y-31202380D01*
X47514047Y-31202380D01*
X47656904Y-31250000D01*
X47990238Y-31202380D02*
X48228333Y-32202380D01*
X48418809Y-31488095D01*
X48609285Y-32202380D01*
X48847380Y-31202380D01*
X49704523Y-31202380D02*
X49228333Y-31202380D01*
X49180714Y-31678571D01*
X49228333Y-31630952D01*
X49323571Y-31583333D01*
X49561666Y-31583333D01*
X49656904Y-31630952D01*
X49704523Y-31678571D01*
X49752142Y-31773809D01*
X49752142Y-32011904D01*
X49704523Y-32107142D01*
X49656904Y-32154761D01*
X49561666Y-32202380D01*
X49323571Y-32202380D01*
X49228333Y-32154761D01*
X49180714Y-32107142D01*
X50609285Y-31202380D02*
X50418809Y-31202380D01*
X50323571Y-31250000D01*
X50275952Y-31297619D01*
X50180714Y-31440476D01*
X50133095Y-31630952D01*
X50133095Y-32011904D01*
X50180714Y-32107142D01*
X50228333Y-32154761D01*
X50323571Y-32202380D01*
X50514047Y-32202380D01*
X50609285Y-32154761D01*
X50656904Y-32107142D01*
X50704523Y-32011904D01*
X50704523Y-31773809D01*
X50656904Y-31678571D01*
X50609285Y-31630952D01*
X50514047Y-31583333D01*
X50323571Y-31583333D01*
X50228333Y-31630952D01*
X50180714Y-31678571D01*
X50133095Y-31773809D01*
X212820476Y-32154761D02*
X212963333Y-32202380D01*
X213201428Y-32202380D01*
X213296666Y-32154761D01*
X213344285Y-32107142D01*
X213391904Y-32011904D01*
X213391904Y-31916666D01*
X213344285Y-31821428D01*
X213296666Y-31773809D01*
X213201428Y-31726190D01*
X213010952Y-31678571D01*
X212915714Y-31630952D01*
X212868095Y-31583333D01*
X212820476Y-31488095D01*
X212820476Y-31392857D01*
X212868095Y-31297619D01*
X212915714Y-31250000D01*
X213010952Y-31202380D01*
X213249047Y-31202380D01*
X213391904Y-31250000D01*
X213725238Y-31202380D02*
X213963333Y-32202380D01*
X214153809Y-31488095D01*
X214344285Y-32202380D01*
X214582380Y-31202380D01*
X215439523Y-31202380D02*
X214963333Y-31202380D01*
X214915714Y-31678571D01*
X214963333Y-31630952D01*
X215058571Y-31583333D01*
X215296666Y-31583333D01*
X215391904Y-31630952D01*
X215439523Y-31678571D01*
X215487142Y-31773809D01*
X215487142Y-32011904D01*
X215439523Y-32107142D01*
X215391904Y-32154761D01*
X215296666Y-32202380D01*
X215058571Y-32202380D01*
X214963333Y-32154761D01*
X214915714Y-32107142D01*
X216391904Y-31202380D02*
X215915714Y-31202380D01*
X215868095Y-31678571D01*
X215915714Y-31630952D01*
X216010952Y-31583333D01*
X216249047Y-31583333D01*
X216344285Y-31630952D01*
X216391904Y-31678571D01*
X216439523Y-31773809D01*
X216439523Y-32011904D01*
X216391904Y-32107142D01*
X216344285Y-32154761D01*
X216249047Y-32202380D01*
X216010952Y-32202380D01*
X215915714Y-32154761D01*
X215868095Y-32107142D01*
X197834476Y-87399761D02*
X197977333Y-87447380D01*
X198215428Y-87447380D01*
X198310666Y-87399761D01*
X198358285Y-87352142D01*
X198405904Y-87256904D01*
X198405904Y-87161666D01*
X198358285Y-87066428D01*
X198310666Y-87018809D01*
X198215428Y-86971190D01*
X198024952Y-86923571D01*
X197929714Y-86875952D01*
X197882095Y-86828333D01*
X197834476Y-86733095D01*
X197834476Y-86637857D01*
X197882095Y-86542619D01*
X197929714Y-86495000D01*
X198024952Y-86447380D01*
X198263047Y-86447380D01*
X198405904Y-86495000D01*
X198739238Y-86447380D02*
X198977333Y-87447380D01*
X199167809Y-86733095D01*
X199358285Y-87447380D01*
X199596380Y-86447380D01*
X200453523Y-86447380D02*
X199977333Y-86447380D01*
X199929714Y-86923571D01*
X199977333Y-86875952D01*
X200072571Y-86828333D01*
X200310666Y-86828333D01*
X200405904Y-86875952D01*
X200453523Y-86923571D01*
X200501142Y-87018809D01*
X200501142Y-87256904D01*
X200453523Y-87352142D01*
X200405904Y-87399761D01*
X200310666Y-87447380D01*
X200072571Y-87447380D01*
X199977333Y-87399761D01*
X199929714Y-87352142D01*
X201358285Y-86780714D02*
X201358285Y-87447380D01*
X201120190Y-86399761D02*
X200882095Y-87114047D01*
X201501142Y-87114047D01*
X74263476Y-68984761D02*
X74406333Y-69032380D01*
X74644428Y-69032380D01*
X74739666Y-68984761D01*
X74787285Y-68937142D01*
X74834904Y-68841904D01*
X74834904Y-68746666D01*
X74787285Y-68651428D01*
X74739666Y-68603809D01*
X74644428Y-68556190D01*
X74453952Y-68508571D01*
X74358714Y-68460952D01*
X74311095Y-68413333D01*
X74263476Y-68318095D01*
X74263476Y-68222857D01*
X74311095Y-68127619D01*
X74358714Y-68080000D01*
X74453952Y-68032380D01*
X74692047Y-68032380D01*
X74834904Y-68080000D01*
X75168238Y-68032380D02*
X75406333Y-69032380D01*
X75596809Y-68318095D01*
X75787285Y-69032380D01*
X76025380Y-68032380D01*
X76882523Y-68032380D02*
X76406333Y-68032380D01*
X76358714Y-68508571D01*
X76406333Y-68460952D01*
X76501571Y-68413333D01*
X76739666Y-68413333D01*
X76834904Y-68460952D01*
X76882523Y-68508571D01*
X76930142Y-68603809D01*
X76930142Y-68841904D01*
X76882523Y-68937142D01*
X76834904Y-68984761D01*
X76739666Y-69032380D01*
X76501571Y-69032380D01*
X76406333Y-68984761D01*
X76358714Y-68937142D01*
X77263476Y-68032380D02*
X77882523Y-68032380D01*
X77549190Y-68413333D01*
X77692047Y-68413333D01*
X77787285Y-68460952D01*
X77834904Y-68508571D01*
X77882523Y-68603809D01*
X77882523Y-68841904D01*
X77834904Y-68937142D01*
X77787285Y-68984761D01*
X77692047Y-69032380D01*
X77406333Y-69032380D01*
X77311095Y-68984761D01*
X77263476Y-68937142D01*
X70453476Y-50442761D02*
X70596333Y-50490380D01*
X70834428Y-50490380D01*
X70929666Y-50442761D01*
X70977285Y-50395142D01*
X71024904Y-50299904D01*
X71024904Y-50204666D01*
X70977285Y-50109428D01*
X70929666Y-50061809D01*
X70834428Y-50014190D01*
X70643952Y-49966571D01*
X70548714Y-49918952D01*
X70501095Y-49871333D01*
X70453476Y-49776095D01*
X70453476Y-49680857D01*
X70501095Y-49585619D01*
X70548714Y-49538000D01*
X70643952Y-49490380D01*
X70882047Y-49490380D01*
X71024904Y-49538000D01*
X71358238Y-49490380D02*
X71596333Y-50490380D01*
X71786809Y-49776095D01*
X71977285Y-50490380D01*
X72215380Y-49490380D01*
X73072523Y-49490380D02*
X72596333Y-49490380D01*
X72548714Y-49966571D01*
X72596333Y-49918952D01*
X72691571Y-49871333D01*
X72929666Y-49871333D01*
X73024904Y-49918952D01*
X73072523Y-49966571D01*
X73120142Y-50061809D01*
X73120142Y-50299904D01*
X73072523Y-50395142D01*
X73024904Y-50442761D01*
X72929666Y-50490380D01*
X72691571Y-50490380D01*
X72596333Y-50442761D01*
X72548714Y-50395142D01*
X73501095Y-49585619D02*
X73548714Y-49538000D01*
X73643952Y-49490380D01*
X73882047Y-49490380D01*
X73977285Y-49538000D01*
X74024904Y-49585619D01*
X74072523Y-49680857D01*
X74072523Y-49776095D01*
X74024904Y-49918952D01*
X73453476Y-50490380D01*
X74072523Y-50490380D01*
X55086476Y-13739761D02*
X55229333Y-13787380D01*
X55467428Y-13787380D01*
X55562666Y-13739761D01*
X55610285Y-13692142D01*
X55657904Y-13596904D01*
X55657904Y-13501666D01*
X55610285Y-13406428D01*
X55562666Y-13358809D01*
X55467428Y-13311190D01*
X55276952Y-13263571D01*
X55181714Y-13215952D01*
X55134095Y-13168333D01*
X55086476Y-13073095D01*
X55086476Y-12977857D01*
X55134095Y-12882619D01*
X55181714Y-12835000D01*
X55276952Y-12787380D01*
X55515047Y-12787380D01*
X55657904Y-12835000D01*
X55991238Y-12787380D02*
X56229333Y-13787380D01*
X56419809Y-13073095D01*
X56610285Y-13787380D01*
X56848380Y-12787380D01*
X57705523Y-12787380D02*
X57229333Y-12787380D01*
X57181714Y-13263571D01*
X57229333Y-13215952D01*
X57324571Y-13168333D01*
X57562666Y-13168333D01*
X57657904Y-13215952D01*
X57705523Y-13263571D01*
X57753142Y-13358809D01*
X57753142Y-13596904D01*
X57705523Y-13692142D01*
X57657904Y-13739761D01*
X57562666Y-13787380D01*
X57324571Y-13787380D01*
X57229333Y-13739761D01*
X57181714Y-13692142D01*
X58705523Y-13787380D02*
X58134095Y-13787380D01*
X58419809Y-13787380D02*
X58419809Y-12787380D01*
X58324571Y-12930238D01*
X58229333Y-13025476D01*
X58134095Y-13073095D01*
X52038476Y-50442761D02*
X52181333Y-50490380D01*
X52419428Y-50490380D01*
X52514666Y-50442761D01*
X52562285Y-50395142D01*
X52609904Y-50299904D01*
X52609904Y-50204666D01*
X52562285Y-50109428D01*
X52514666Y-50061809D01*
X52419428Y-50014190D01*
X52228952Y-49966571D01*
X52133714Y-49918952D01*
X52086095Y-49871333D01*
X52038476Y-49776095D01*
X52038476Y-49680857D01*
X52086095Y-49585619D01*
X52133714Y-49538000D01*
X52228952Y-49490380D01*
X52467047Y-49490380D01*
X52609904Y-49538000D01*
X52943238Y-49490380D02*
X53181333Y-50490380D01*
X53371809Y-49776095D01*
X53562285Y-50490380D01*
X53800380Y-49490380D01*
X54657523Y-49490380D02*
X54181333Y-49490380D01*
X54133714Y-49966571D01*
X54181333Y-49918952D01*
X54276571Y-49871333D01*
X54514666Y-49871333D01*
X54609904Y-49918952D01*
X54657523Y-49966571D01*
X54705142Y-50061809D01*
X54705142Y-50299904D01*
X54657523Y-50395142D01*
X54609904Y-50442761D01*
X54514666Y-50490380D01*
X54276571Y-50490380D01*
X54181333Y-50442761D01*
X54133714Y-50395142D01*
X55324190Y-49490380D02*
X55419428Y-49490380D01*
X55514666Y-49538000D01*
X55562285Y-49585619D01*
X55609904Y-49680857D01*
X55657523Y-49871333D01*
X55657523Y-50109428D01*
X55609904Y-50299904D01*
X55562285Y-50395142D01*
X55514666Y-50442761D01*
X55419428Y-50490380D01*
X55324190Y-50490380D01*
X55228952Y-50442761D01*
X55181333Y-50395142D01*
X55133714Y-50299904D01*
X55086095Y-50109428D01*
X55086095Y-49871333D01*
X55133714Y-49680857D01*
X55181333Y-49585619D01*
X55228952Y-49538000D01*
X55324190Y-49490380D01*
X231235476Y-32154761D02*
X231378333Y-32202380D01*
X231616428Y-32202380D01*
X231711666Y-32154761D01*
X231759285Y-32107142D01*
X231806904Y-32011904D01*
X231806904Y-31916666D01*
X231759285Y-31821428D01*
X231711666Y-31773809D01*
X231616428Y-31726190D01*
X231425952Y-31678571D01*
X231330714Y-31630952D01*
X231283095Y-31583333D01*
X231235476Y-31488095D01*
X231235476Y-31392857D01*
X231283095Y-31297619D01*
X231330714Y-31250000D01*
X231425952Y-31202380D01*
X231664047Y-31202380D01*
X231806904Y-31250000D01*
X232140238Y-31202380D02*
X232378333Y-32202380D01*
X232568809Y-31488095D01*
X232759285Y-32202380D01*
X232997380Y-31202380D01*
X233806904Y-31535714D02*
X233806904Y-32202380D01*
X233568809Y-31154761D02*
X233330714Y-31869047D01*
X233949761Y-31869047D01*
X234378333Y-32202380D02*
X234568809Y-32202380D01*
X234664047Y-32154761D01*
X234711666Y-32107142D01*
X234806904Y-31964285D01*
X234854523Y-31773809D01*
X234854523Y-31392857D01*
X234806904Y-31297619D01*
X234759285Y-31250000D01*
X234664047Y-31202380D01*
X234473571Y-31202380D01*
X234378333Y-31250000D01*
X234330714Y-31297619D01*
X234283095Y-31392857D01*
X234283095Y-31630952D01*
X234330714Y-31726190D01*
X234378333Y-31773809D01*
X234473571Y-31821428D01*
X234664047Y-31821428D01*
X234759285Y-31773809D01*
X234806904Y-31726190D01*
X234854523Y-31630952D01*
X42767476Y-87399761D02*
X42910333Y-87447380D01*
X43148428Y-87447380D01*
X43243666Y-87399761D01*
X43291285Y-87352142D01*
X43338904Y-87256904D01*
X43338904Y-87161666D01*
X43291285Y-87066428D01*
X43243666Y-87018809D01*
X43148428Y-86971190D01*
X42957952Y-86923571D01*
X42862714Y-86875952D01*
X42815095Y-86828333D01*
X42767476Y-86733095D01*
X42767476Y-86637857D01*
X42815095Y-86542619D01*
X42862714Y-86495000D01*
X42957952Y-86447380D01*
X43196047Y-86447380D01*
X43338904Y-86495000D01*
X43672238Y-86447380D02*
X43910333Y-87447380D01*
X44100809Y-86733095D01*
X44291285Y-87447380D01*
X44529380Y-86447380D01*
X45338904Y-86780714D02*
X45338904Y-87447380D01*
X45100809Y-86399761D02*
X44862714Y-87114047D01*
X45481761Y-87114047D01*
X46005571Y-86875952D02*
X45910333Y-86828333D01*
X45862714Y-86780714D01*
X45815095Y-86685476D01*
X45815095Y-86637857D01*
X45862714Y-86542619D01*
X45910333Y-86495000D01*
X46005571Y-86447380D01*
X46196047Y-86447380D01*
X46291285Y-86495000D01*
X46338904Y-86542619D01*
X46386523Y-86637857D01*
X46386523Y-86685476D01*
X46338904Y-86780714D01*
X46291285Y-86828333D01*
X46196047Y-86875952D01*
X46005571Y-86875952D01*
X45910333Y-86923571D01*
X45862714Y-86971190D01*
X45815095Y-87066428D01*
X45815095Y-87256904D01*
X45862714Y-87352142D01*
X45910333Y-87399761D01*
X46005571Y-87447380D01*
X46196047Y-87447380D01*
X46291285Y-87399761D01*
X46338904Y-87352142D01*
X46386523Y-87256904D01*
X46386523Y-87066428D01*
X46338904Y-86971190D01*
X46291285Y-86923571D01*
X46196047Y-86875952D01*
X36671476Y-13739761D02*
X36814333Y-13787380D01*
X37052428Y-13787380D01*
X37147666Y-13739761D01*
X37195285Y-13692142D01*
X37242904Y-13596904D01*
X37242904Y-13501666D01*
X37195285Y-13406428D01*
X37147666Y-13358809D01*
X37052428Y-13311190D01*
X36861952Y-13263571D01*
X36766714Y-13215952D01*
X36719095Y-13168333D01*
X36671476Y-13073095D01*
X36671476Y-12977857D01*
X36719095Y-12882619D01*
X36766714Y-12835000D01*
X36861952Y-12787380D01*
X37100047Y-12787380D01*
X37242904Y-12835000D01*
X37576238Y-12787380D02*
X37814333Y-13787380D01*
X38004809Y-13073095D01*
X38195285Y-13787380D01*
X38433380Y-12787380D01*
X39242904Y-13120714D02*
X39242904Y-13787380D01*
X39004809Y-12739761D02*
X38766714Y-13454047D01*
X39385761Y-13454047D01*
X40195285Y-12787380D02*
X40004809Y-12787380D01*
X39909571Y-12835000D01*
X39861952Y-12882619D01*
X39766714Y-13025476D01*
X39719095Y-13215952D01*
X39719095Y-13596904D01*
X39766714Y-13692142D01*
X39814333Y-13739761D01*
X39909571Y-13787380D01*
X40100047Y-13787380D01*
X40195285Y-13739761D01*
X40242904Y-13692142D01*
X40290523Y-13596904D01*
X40290523Y-13358809D01*
X40242904Y-13263571D01*
X40195285Y-13215952D01*
X40100047Y-13168333D01*
X39909571Y-13168333D01*
X39814333Y-13215952D01*
X39766714Y-13263571D01*
X39719095Y-13358809D01*
X28670476Y-32154761D02*
X28813333Y-32202380D01*
X29051428Y-32202380D01*
X29146666Y-32154761D01*
X29194285Y-32107142D01*
X29241904Y-32011904D01*
X29241904Y-31916666D01*
X29194285Y-31821428D01*
X29146666Y-31773809D01*
X29051428Y-31726190D01*
X28860952Y-31678571D01*
X28765714Y-31630952D01*
X28718095Y-31583333D01*
X28670476Y-31488095D01*
X28670476Y-31392857D01*
X28718095Y-31297619D01*
X28765714Y-31250000D01*
X28860952Y-31202380D01*
X29099047Y-31202380D01*
X29241904Y-31250000D01*
X29575238Y-31202380D02*
X29813333Y-32202380D01*
X30003809Y-31488095D01*
X30194285Y-32202380D01*
X30432380Y-31202380D01*
X31241904Y-31535714D02*
X31241904Y-32202380D01*
X31003809Y-31154761D02*
X30765714Y-31869047D01*
X31384761Y-31869047D01*
X32241904Y-31202380D02*
X31765714Y-31202380D01*
X31718095Y-31678571D01*
X31765714Y-31630952D01*
X31860952Y-31583333D01*
X32099047Y-31583333D01*
X32194285Y-31630952D01*
X32241904Y-31678571D01*
X32289523Y-31773809D01*
X32289523Y-32011904D01*
X32241904Y-32107142D01*
X32194285Y-32154761D01*
X32099047Y-32202380D01*
X31860952Y-32202380D01*
X31765714Y-32154761D01*
X31718095Y-32107142D01*
X55848476Y-68984761D02*
X55991333Y-69032380D01*
X56229428Y-69032380D01*
X56324666Y-68984761D01*
X56372285Y-68937142D01*
X56419904Y-68841904D01*
X56419904Y-68746666D01*
X56372285Y-68651428D01*
X56324666Y-68603809D01*
X56229428Y-68556190D01*
X56038952Y-68508571D01*
X55943714Y-68460952D01*
X55896095Y-68413333D01*
X55848476Y-68318095D01*
X55848476Y-68222857D01*
X55896095Y-68127619D01*
X55943714Y-68080000D01*
X56038952Y-68032380D01*
X56277047Y-68032380D01*
X56419904Y-68080000D01*
X56753238Y-68032380D02*
X56991333Y-69032380D01*
X57181809Y-68318095D01*
X57372285Y-69032380D01*
X57610380Y-68032380D01*
X58419904Y-68365714D02*
X58419904Y-69032380D01*
X58181809Y-67984761D02*
X57943714Y-68699047D01*
X58562761Y-68699047D01*
X59372285Y-68365714D02*
X59372285Y-69032380D01*
X59134190Y-67984761D02*
X58896095Y-68699047D01*
X59515142Y-68699047D01*
X33623476Y-50442761D02*
X33766333Y-50490380D01*
X34004428Y-50490380D01*
X34099666Y-50442761D01*
X34147285Y-50395142D01*
X34194904Y-50299904D01*
X34194904Y-50204666D01*
X34147285Y-50109428D01*
X34099666Y-50061809D01*
X34004428Y-50014190D01*
X33813952Y-49966571D01*
X33718714Y-49918952D01*
X33671095Y-49871333D01*
X33623476Y-49776095D01*
X33623476Y-49680857D01*
X33671095Y-49585619D01*
X33718714Y-49538000D01*
X33813952Y-49490380D01*
X34052047Y-49490380D01*
X34194904Y-49538000D01*
X34528238Y-49490380D02*
X34766333Y-50490380D01*
X34956809Y-49776095D01*
X35147285Y-50490380D01*
X35385380Y-49490380D01*
X36194904Y-49823714D02*
X36194904Y-50490380D01*
X35956809Y-49442761D02*
X35718714Y-50157047D01*
X36337761Y-50157047D01*
X36671095Y-49585619D02*
X36718714Y-49538000D01*
X36813952Y-49490380D01*
X37052047Y-49490380D01*
X37147285Y-49538000D01*
X37194904Y-49585619D01*
X37242523Y-49680857D01*
X37242523Y-49776095D01*
X37194904Y-49918952D01*
X36623476Y-50490380D01*
X37242523Y-50490380D01*
X24352476Y-87399761D02*
X24495333Y-87447380D01*
X24733428Y-87447380D01*
X24828666Y-87399761D01*
X24876285Y-87352142D01*
X24923904Y-87256904D01*
X24923904Y-87161666D01*
X24876285Y-87066428D01*
X24828666Y-87018809D01*
X24733428Y-86971190D01*
X24542952Y-86923571D01*
X24447714Y-86875952D01*
X24400095Y-86828333D01*
X24352476Y-86733095D01*
X24352476Y-86637857D01*
X24400095Y-86542619D01*
X24447714Y-86495000D01*
X24542952Y-86447380D01*
X24781047Y-86447380D01*
X24923904Y-86495000D01*
X25257238Y-86447380D02*
X25495333Y-87447380D01*
X25685809Y-86733095D01*
X25876285Y-87447380D01*
X26114380Y-86447380D01*
X26923904Y-86780714D02*
X26923904Y-87447380D01*
X26685809Y-86399761D02*
X26447714Y-87114047D01*
X27066761Y-87114047D01*
X27638190Y-86447380D02*
X27733428Y-86447380D01*
X27828666Y-86495000D01*
X27876285Y-86542619D01*
X27923904Y-86637857D01*
X27971523Y-86828333D01*
X27971523Y-87066428D01*
X27923904Y-87256904D01*
X27876285Y-87352142D01*
X27828666Y-87399761D01*
X27733428Y-87447380D01*
X27638190Y-87447380D01*
X27542952Y-87399761D01*
X27495333Y-87352142D01*
X27447714Y-87256904D01*
X27400095Y-87066428D01*
X27400095Y-86828333D01*
X27447714Y-86637857D01*
X27495333Y-86542619D01*
X27542952Y-86495000D01*
X27638190Y-86447380D01*
X37433476Y-68984761D02*
X37576333Y-69032380D01*
X37814428Y-69032380D01*
X37909666Y-68984761D01*
X37957285Y-68937142D01*
X38004904Y-68841904D01*
X38004904Y-68746666D01*
X37957285Y-68651428D01*
X37909666Y-68603809D01*
X37814428Y-68556190D01*
X37623952Y-68508571D01*
X37528714Y-68460952D01*
X37481095Y-68413333D01*
X37433476Y-68318095D01*
X37433476Y-68222857D01*
X37481095Y-68127619D01*
X37528714Y-68080000D01*
X37623952Y-68032380D01*
X37862047Y-68032380D01*
X38004904Y-68080000D01*
X38338238Y-68032380D02*
X38576333Y-69032380D01*
X38766809Y-68318095D01*
X38957285Y-69032380D01*
X39195380Y-68032380D01*
X39481095Y-68032380D02*
X40100142Y-68032380D01*
X39766809Y-68413333D01*
X39909666Y-68413333D01*
X40004904Y-68460952D01*
X40052523Y-68508571D01*
X40100142Y-68603809D01*
X40100142Y-68841904D01*
X40052523Y-68937142D01*
X40004904Y-68984761D01*
X39909666Y-69032380D01*
X39623952Y-69032380D01*
X39528714Y-68984761D01*
X39481095Y-68937142D01*
X40576333Y-69032380D02*
X40766809Y-69032380D01*
X40862047Y-68984761D01*
X40909666Y-68937142D01*
X41004904Y-68794285D01*
X41052523Y-68603809D01*
X41052523Y-68222857D01*
X41004904Y-68127619D01*
X40957285Y-68080000D01*
X40862047Y-68032380D01*
X40671571Y-68032380D01*
X40576333Y-68080000D01*
X40528714Y-68127619D01*
X40481095Y-68222857D01*
X40481095Y-68460952D01*
X40528714Y-68556190D01*
X40576333Y-68603809D01*
X40671571Y-68651428D01*
X40862047Y-68651428D01*
X40957285Y-68603809D01*
X41004904Y-68556190D01*
X41052523Y-68460952D01*
X10255476Y-32154761D02*
X10398333Y-32202380D01*
X10636428Y-32202380D01*
X10731666Y-32154761D01*
X10779285Y-32107142D01*
X10826904Y-32011904D01*
X10826904Y-31916666D01*
X10779285Y-31821428D01*
X10731666Y-31773809D01*
X10636428Y-31726190D01*
X10445952Y-31678571D01*
X10350714Y-31630952D01*
X10303095Y-31583333D01*
X10255476Y-31488095D01*
X10255476Y-31392857D01*
X10303095Y-31297619D01*
X10350714Y-31250000D01*
X10445952Y-31202380D01*
X10684047Y-31202380D01*
X10826904Y-31250000D01*
X11160238Y-31202380D02*
X11398333Y-32202380D01*
X11588809Y-31488095D01*
X11779285Y-32202380D01*
X12017380Y-31202380D01*
X12303095Y-31202380D02*
X12922142Y-31202380D01*
X12588809Y-31583333D01*
X12731666Y-31583333D01*
X12826904Y-31630952D01*
X12874523Y-31678571D01*
X12922142Y-31773809D01*
X12922142Y-32011904D01*
X12874523Y-32107142D01*
X12826904Y-32154761D01*
X12731666Y-32202380D01*
X12445952Y-32202380D01*
X12350714Y-32154761D01*
X12303095Y-32107142D01*
X13493571Y-31630952D02*
X13398333Y-31583333D01*
X13350714Y-31535714D01*
X13303095Y-31440476D01*
X13303095Y-31392857D01*
X13350714Y-31297619D01*
X13398333Y-31250000D01*
X13493571Y-31202380D01*
X13684047Y-31202380D01*
X13779285Y-31250000D01*
X13826904Y-31297619D01*
X13874523Y-31392857D01*
X13874523Y-31440476D01*
X13826904Y-31535714D01*
X13779285Y-31583333D01*
X13684047Y-31630952D01*
X13493571Y-31630952D01*
X13398333Y-31678571D01*
X13350714Y-31726190D01*
X13303095Y-31821428D01*
X13303095Y-32011904D01*
X13350714Y-32107142D01*
X13398333Y-32154761D01*
X13493571Y-32202380D01*
X13684047Y-32202380D01*
X13779285Y-32154761D01*
X13826904Y-32107142D01*
X13874523Y-32011904D01*
X13874523Y-31821428D01*
X13826904Y-31726190D01*
X13779285Y-31678571D01*
X13684047Y-31630952D01*
X18256476Y-13739761D02*
X18399333Y-13787380D01*
X18637428Y-13787380D01*
X18732666Y-13739761D01*
X18780285Y-13692142D01*
X18827904Y-13596904D01*
X18827904Y-13501666D01*
X18780285Y-13406428D01*
X18732666Y-13358809D01*
X18637428Y-13311190D01*
X18446952Y-13263571D01*
X18351714Y-13215952D01*
X18304095Y-13168333D01*
X18256476Y-13073095D01*
X18256476Y-12977857D01*
X18304095Y-12882619D01*
X18351714Y-12835000D01*
X18446952Y-12787380D01*
X18685047Y-12787380D01*
X18827904Y-12835000D01*
X19161238Y-12787380D02*
X19399333Y-13787380D01*
X19589809Y-13073095D01*
X19780285Y-13787380D01*
X20018380Y-12787380D01*
X20304095Y-12787380D02*
X20923142Y-12787380D01*
X20589809Y-13168333D01*
X20732666Y-13168333D01*
X20827904Y-13215952D01*
X20875523Y-13263571D01*
X20923142Y-13358809D01*
X20923142Y-13596904D01*
X20875523Y-13692142D01*
X20827904Y-13739761D01*
X20732666Y-13787380D01*
X20446952Y-13787380D01*
X20351714Y-13739761D01*
X20304095Y-13692142D01*
X21256476Y-12787380D02*
X21923142Y-12787380D01*
X21494571Y-13787380D01*
X203168476Y-68984761D02*
X203311333Y-69032380D01*
X203549428Y-69032380D01*
X203644666Y-68984761D01*
X203692285Y-68937142D01*
X203739904Y-68841904D01*
X203739904Y-68746666D01*
X203692285Y-68651428D01*
X203644666Y-68603809D01*
X203549428Y-68556190D01*
X203358952Y-68508571D01*
X203263714Y-68460952D01*
X203216095Y-68413333D01*
X203168476Y-68318095D01*
X203168476Y-68222857D01*
X203216095Y-68127619D01*
X203263714Y-68080000D01*
X203358952Y-68032380D01*
X203597047Y-68032380D01*
X203739904Y-68080000D01*
X204073238Y-68032380D02*
X204311333Y-69032380D01*
X204501809Y-68318095D01*
X204692285Y-69032380D01*
X204930380Y-68032380D01*
X205216095Y-68032380D02*
X205835142Y-68032380D01*
X205501809Y-68413333D01*
X205644666Y-68413333D01*
X205739904Y-68460952D01*
X205787523Y-68508571D01*
X205835142Y-68603809D01*
X205835142Y-68841904D01*
X205787523Y-68937142D01*
X205739904Y-68984761D01*
X205644666Y-69032380D01*
X205358952Y-69032380D01*
X205263714Y-68984761D01*
X205216095Y-68937142D01*
X206216095Y-68127619D02*
X206263714Y-68080000D01*
X206358952Y-68032380D01*
X206597047Y-68032380D01*
X206692285Y-68080000D01*
X206739904Y-68127619D01*
X206787523Y-68222857D01*
X206787523Y-68318095D01*
X206739904Y-68460952D01*
X206168476Y-69032380D01*
X206787523Y-69032380D01*
X65500476Y-32154761D02*
X65643333Y-32202380D01*
X65881428Y-32202380D01*
X65976666Y-32154761D01*
X66024285Y-32107142D01*
X66071904Y-32011904D01*
X66071904Y-31916666D01*
X66024285Y-31821428D01*
X65976666Y-31773809D01*
X65881428Y-31726190D01*
X65690952Y-31678571D01*
X65595714Y-31630952D01*
X65548095Y-31583333D01*
X65500476Y-31488095D01*
X65500476Y-31392857D01*
X65548095Y-31297619D01*
X65595714Y-31250000D01*
X65690952Y-31202380D01*
X65929047Y-31202380D01*
X66071904Y-31250000D01*
X66405238Y-31202380D02*
X66643333Y-32202380D01*
X66833809Y-31488095D01*
X67024285Y-32202380D01*
X67262380Y-31202380D01*
X67548095Y-31202380D02*
X68167142Y-31202380D01*
X67833809Y-31583333D01*
X67976666Y-31583333D01*
X68071904Y-31630952D01*
X68119523Y-31678571D01*
X68167142Y-31773809D01*
X68167142Y-32011904D01*
X68119523Y-32107142D01*
X68071904Y-32154761D01*
X67976666Y-32202380D01*
X67690952Y-32202380D01*
X67595714Y-32154761D01*
X67548095Y-32107142D01*
X69119523Y-32202380D02*
X68548095Y-32202380D01*
X68833809Y-32202380D02*
X68833809Y-31202380D01*
X68738571Y-31345238D01*
X68643333Y-31440476D01*
X68548095Y-31488095D01*
X194405476Y-32154761D02*
X194548333Y-32202380D01*
X194786428Y-32202380D01*
X194881666Y-32154761D01*
X194929285Y-32107142D01*
X194976904Y-32011904D01*
X194976904Y-31916666D01*
X194929285Y-31821428D01*
X194881666Y-31773809D01*
X194786428Y-31726190D01*
X194595952Y-31678571D01*
X194500714Y-31630952D01*
X194453095Y-31583333D01*
X194405476Y-31488095D01*
X194405476Y-31392857D01*
X194453095Y-31297619D01*
X194500714Y-31250000D01*
X194595952Y-31202380D01*
X194834047Y-31202380D01*
X194976904Y-31250000D01*
X195310238Y-31202380D02*
X195548333Y-32202380D01*
X195738809Y-31488095D01*
X195929285Y-32202380D01*
X196167380Y-31202380D01*
X196453095Y-31202380D02*
X197072142Y-31202380D01*
X196738809Y-31583333D01*
X196881666Y-31583333D01*
X196976904Y-31630952D01*
X197024523Y-31678571D01*
X197072142Y-31773809D01*
X197072142Y-32011904D01*
X197024523Y-32107142D01*
X196976904Y-32154761D01*
X196881666Y-32202380D01*
X196595952Y-32202380D01*
X196500714Y-32154761D01*
X196453095Y-32107142D01*
X197691190Y-31202380D02*
X197786428Y-31202380D01*
X197881666Y-31250000D01*
X197929285Y-31297619D01*
X197976904Y-31392857D01*
X198024523Y-31583333D01*
X198024523Y-31821428D01*
X197976904Y-32011904D01*
X197929285Y-32107142D01*
X197881666Y-32154761D01*
X197786428Y-32202380D01*
X197691190Y-32202380D01*
X197595952Y-32154761D01*
X197548333Y-32107142D01*
X197500714Y-32011904D01*
X197453095Y-31821428D01*
X197453095Y-31583333D01*
X197500714Y-31392857D01*
X197548333Y-31297619D01*
X197595952Y-31250000D01*
X197691190Y-31202380D01*
X179419476Y-87399761D02*
X179562333Y-87447380D01*
X179800428Y-87447380D01*
X179895666Y-87399761D01*
X179943285Y-87352142D01*
X179990904Y-87256904D01*
X179990904Y-87161666D01*
X179943285Y-87066428D01*
X179895666Y-87018809D01*
X179800428Y-86971190D01*
X179609952Y-86923571D01*
X179514714Y-86875952D01*
X179467095Y-86828333D01*
X179419476Y-86733095D01*
X179419476Y-86637857D01*
X179467095Y-86542619D01*
X179514714Y-86495000D01*
X179609952Y-86447380D01*
X179848047Y-86447380D01*
X179990904Y-86495000D01*
X180324238Y-86447380D02*
X180562333Y-87447380D01*
X180752809Y-86733095D01*
X180943285Y-87447380D01*
X181181380Y-86447380D01*
X181514714Y-86542619D02*
X181562333Y-86495000D01*
X181657571Y-86447380D01*
X181895666Y-86447380D01*
X181990904Y-86495000D01*
X182038523Y-86542619D01*
X182086142Y-86637857D01*
X182086142Y-86733095D01*
X182038523Y-86875952D01*
X181467095Y-87447380D01*
X182086142Y-87447380D01*
X182562333Y-87447380D02*
X182752809Y-87447380D01*
X182848047Y-87399761D01*
X182895666Y-87352142D01*
X182990904Y-87209285D01*
X183038523Y-87018809D01*
X183038523Y-86637857D01*
X182990904Y-86542619D01*
X182943285Y-86495000D01*
X182848047Y-86447380D01*
X182657571Y-86447380D01*
X182562333Y-86495000D01*
X182514714Y-86542619D01*
X182467095Y-86637857D01*
X182467095Y-86875952D01*
X182514714Y-86971190D01*
X182562333Y-87018809D01*
X182657571Y-87066428D01*
X182848047Y-87066428D01*
X182943285Y-87018809D01*
X182990904Y-86971190D01*
X183038523Y-86875952D01*
X202406476Y-13739761D02*
X202549333Y-13787380D01*
X202787428Y-13787380D01*
X202882666Y-13739761D01*
X202930285Y-13692142D01*
X202977904Y-13596904D01*
X202977904Y-13501666D01*
X202930285Y-13406428D01*
X202882666Y-13358809D01*
X202787428Y-13311190D01*
X202596952Y-13263571D01*
X202501714Y-13215952D01*
X202454095Y-13168333D01*
X202406476Y-13073095D01*
X202406476Y-12977857D01*
X202454095Y-12882619D01*
X202501714Y-12835000D01*
X202596952Y-12787380D01*
X202835047Y-12787380D01*
X202977904Y-12835000D01*
X203311238Y-12787380D02*
X203549333Y-13787380D01*
X203739809Y-13073095D01*
X203930285Y-13787380D01*
X204168380Y-12787380D01*
X204501714Y-12882619D02*
X204549333Y-12835000D01*
X204644571Y-12787380D01*
X204882666Y-12787380D01*
X204977904Y-12835000D01*
X205025523Y-12882619D01*
X205073142Y-12977857D01*
X205073142Y-13073095D01*
X205025523Y-13215952D01*
X204454095Y-13787380D01*
X205073142Y-13787380D01*
X205644571Y-13215952D02*
X205549333Y-13168333D01*
X205501714Y-13120714D01*
X205454095Y-13025476D01*
X205454095Y-12977857D01*
X205501714Y-12882619D01*
X205549333Y-12835000D01*
X205644571Y-12787380D01*
X205835047Y-12787380D01*
X205930285Y-12835000D01*
X205977904Y-12882619D01*
X206025523Y-12977857D01*
X206025523Y-13025476D01*
X205977904Y-13120714D01*
X205930285Y-13168333D01*
X205835047Y-13215952D01*
X205644571Y-13215952D01*
X205549333Y-13263571D01*
X205501714Y-13311190D01*
X205454095Y-13406428D01*
X205454095Y-13596904D01*
X205501714Y-13692142D01*
X205549333Y-13739761D01*
X205644571Y-13787380D01*
X205835047Y-13787380D01*
X205930285Y-13739761D01*
X205977904Y-13692142D01*
X206025523Y-13596904D01*
X206025523Y-13406428D01*
X205977904Y-13311190D01*
X205930285Y-13263571D01*
X205835047Y-13215952D01*
X73501476Y-13739761D02*
X73644333Y-13787380D01*
X73882428Y-13787380D01*
X73977666Y-13739761D01*
X74025285Y-13692142D01*
X74072904Y-13596904D01*
X74072904Y-13501666D01*
X74025285Y-13406428D01*
X73977666Y-13358809D01*
X73882428Y-13311190D01*
X73691952Y-13263571D01*
X73596714Y-13215952D01*
X73549095Y-13168333D01*
X73501476Y-13073095D01*
X73501476Y-12977857D01*
X73549095Y-12882619D01*
X73596714Y-12835000D01*
X73691952Y-12787380D01*
X73930047Y-12787380D01*
X74072904Y-12835000D01*
X74406238Y-12787380D02*
X74644333Y-13787380D01*
X74834809Y-13073095D01*
X75025285Y-13787380D01*
X75263380Y-12787380D01*
X75596714Y-12882619D02*
X75644333Y-12835000D01*
X75739571Y-12787380D01*
X75977666Y-12787380D01*
X76072904Y-12835000D01*
X76120523Y-12882619D01*
X76168142Y-12977857D01*
X76168142Y-13073095D01*
X76120523Y-13215952D01*
X75549095Y-13787380D01*
X76168142Y-13787380D01*
X76501476Y-12787380D02*
X77168142Y-12787380D01*
X76739571Y-13787380D01*
X88868476Y-50442761D02*
X89011333Y-50490380D01*
X89249428Y-50490380D01*
X89344666Y-50442761D01*
X89392285Y-50395142D01*
X89439904Y-50299904D01*
X89439904Y-50204666D01*
X89392285Y-50109428D01*
X89344666Y-50061809D01*
X89249428Y-50014190D01*
X89058952Y-49966571D01*
X88963714Y-49918952D01*
X88916095Y-49871333D01*
X88868476Y-49776095D01*
X88868476Y-49680857D01*
X88916095Y-49585619D01*
X88963714Y-49538000D01*
X89058952Y-49490380D01*
X89297047Y-49490380D01*
X89439904Y-49538000D01*
X89773238Y-49490380D02*
X90011333Y-50490380D01*
X90201809Y-49776095D01*
X90392285Y-50490380D01*
X90630380Y-49490380D01*
X90963714Y-49585619D02*
X91011333Y-49538000D01*
X91106571Y-49490380D01*
X91344666Y-49490380D01*
X91439904Y-49538000D01*
X91487523Y-49585619D01*
X91535142Y-49680857D01*
X91535142Y-49776095D01*
X91487523Y-49918952D01*
X90916095Y-50490380D01*
X91535142Y-50490380D01*
X92392285Y-49490380D02*
X92201809Y-49490380D01*
X92106571Y-49538000D01*
X92058952Y-49585619D01*
X91963714Y-49728476D01*
X91916095Y-49918952D01*
X91916095Y-50299904D01*
X91963714Y-50395142D01*
X92011333Y-50442761D01*
X92106571Y-50490380D01*
X92297047Y-50490380D01*
X92392285Y-50442761D01*
X92439904Y-50395142D01*
X92487523Y-50299904D01*
X92487523Y-50061809D01*
X92439904Y-49966571D01*
X92392285Y-49918952D01*
X92297047Y-49871333D01*
X92106571Y-49871333D01*
X92011333Y-49918952D01*
X91963714Y-49966571D01*
X91916095Y-50061809D01*
X92043476Y-68984761D02*
X92186333Y-69032380D01*
X92424428Y-69032380D01*
X92519666Y-68984761D01*
X92567285Y-68937142D01*
X92614904Y-68841904D01*
X92614904Y-68746666D01*
X92567285Y-68651428D01*
X92519666Y-68603809D01*
X92424428Y-68556190D01*
X92233952Y-68508571D01*
X92138714Y-68460952D01*
X92091095Y-68413333D01*
X92043476Y-68318095D01*
X92043476Y-68222857D01*
X92091095Y-68127619D01*
X92138714Y-68080000D01*
X92233952Y-68032380D01*
X92472047Y-68032380D01*
X92614904Y-68080000D01*
X92948238Y-68032380D02*
X93186333Y-69032380D01*
X93376809Y-68318095D01*
X93567285Y-69032380D01*
X93805380Y-68032380D01*
X94138714Y-68127619D02*
X94186333Y-68080000D01*
X94281571Y-68032380D01*
X94519666Y-68032380D01*
X94614904Y-68080000D01*
X94662523Y-68127619D01*
X94710142Y-68222857D01*
X94710142Y-68318095D01*
X94662523Y-68460952D01*
X94091095Y-69032380D01*
X94710142Y-69032380D01*
X95614904Y-68032380D02*
X95138714Y-68032380D01*
X95091095Y-68508571D01*
X95138714Y-68460952D01*
X95233952Y-68413333D01*
X95472047Y-68413333D01*
X95567285Y-68460952D01*
X95614904Y-68508571D01*
X95662523Y-68603809D01*
X95662523Y-68841904D01*
X95614904Y-68937142D01*
X95567285Y-68984761D01*
X95472047Y-69032380D01*
X95233952Y-69032380D01*
X95138714Y-68984761D01*
X95091095Y-68937142D01*
X107283476Y-50442761D02*
X107426333Y-50490380D01*
X107664428Y-50490380D01*
X107759666Y-50442761D01*
X107807285Y-50395142D01*
X107854904Y-50299904D01*
X107854904Y-50204666D01*
X107807285Y-50109428D01*
X107759666Y-50061809D01*
X107664428Y-50014190D01*
X107473952Y-49966571D01*
X107378714Y-49918952D01*
X107331095Y-49871333D01*
X107283476Y-49776095D01*
X107283476Y-49680857D01*
X107331095Y-49585619D01*
X107378714Y-49538000D01*
X107473952Y-49490380D01*
X107712047Y-49490380D01*
X107854904Y-49538000D01*
X108188238Y-49490380D02*
X108426333Y-50490380D01*
X108616809Y-49776095D01*
X108807285Y-50490380D01*
X109045380Y-49490380D01*
X109378714Y-49585619D02*
X109426333Y-49538000D01*
X109521571Y-49490380D01*
X109759666Y-49490380D01*
X109854904Y-49538000D01*
X109902523Y-49585619D01*
X109950142Y-49680857D01*
X109950142Y-49776095D01*
X109902523Y-49918952D01*
X109331095Y-50490380D01*
X109950142Y-50490380D01*
X110807285Y-49823714D02*
X110807285Y-50490380D01*
X110569190Y-49442761D02*
X110331095Y-50157047D01*
X110950142Y-50157047D01*
X183991476Y-13739761D02*
X184134333Y-13787380D01*
X184372428Y-13787380D01*
X184467666Y-13739761D01*
X184515285Y-13692142D01*
X184562904Y-13596904D01*
X184562904Y-13501666D01*
X184515285Y-13406428D01*
X184467666Y-13358809D01*
X184372428Y-13311190D01*
X184181952Y-13263571D01*
X184086714Y-13215952D01*
X184039095Y-13168333D01*
X183991476Y-13073095D01*
X183991476Y-12977857D01*
X184039095Y-12882619D01*
X184086714Y-12835000D01*
X184181952Y-12787380D01*
X184420047Y-12787380D01*
X184562904Y-12835000D01*
X184896238Y-12787380D02*
X185134333Y-13787380D01*
X185324809Y-13073095D01*
X185515285Y-13787380D01*
X185753380Y-12787380D01*
X186086714Y-12882619D02*
X186134333Y-12835000D01*
X186229571Y-12787380D01*
X186467666Y-12787380D01*
X186562904Y-12835000D01*
X186610523Y-12882619D01*
X186658142Y-12977857D01*
X186658142Y-13073095D01*
X186610523Y-13215952D01*
X186039095Y-13787380D01*
X186658142Y-13787380D01*
X186991476Y-12787380D02*
X187610523Y-12787380D01*
X187277190Y-13168333D01*
X187420047Y-13168333D01*
X187515285Y-13215952D01*
X187562904Y-13263571D01*
X187610523Y-13358809D01*
X187610523Y-13596904D01*
X187562904Y-13692142D01*
X187515285Y-13739761D01*
X187420047Y-13787380D01*
X187134333Y-13787380D01*
X187039095Y-13739761D01*
X186991476Y-13692142D01*
X175990476Y-32154761D02*
X176133333Y-32202380D01*
X176371428Y-32202380D01*
X176466666Y-32154761D01*
X176514285Y-32107142D01*
X176561904Y-32011904D01*
X176561904Y-31916666D01*
X176514285Y-31821428D01*
X176466666Y-31773809D01*
X176371428Y-31726190D01*
X176180952Y-31678571D01*
X176085714Y-31630952D01*
X176038095Y-31583333D01*
X175990476Y-31488095D01*
X175990476Y-31392857D01*
X176038095Y-31297619D01*
X176085714Y-31250000D01*
X176180952Y-31202380D01*
X176419047Y-31202380D01*
X176561904Y-31250000D01*
X176895238Y-31202380D02*
X177133333Y-32202380D01*
X177323809Y-31488095D01*
X177514285Y-32202380D01*
X177752380Y-31202380D01*
X178085714Y-31297619D02*
X178133333Y-31250000D01*
X178228571Y-31202380D01*
X178466666Y-31202380D01*
X178561904Y-31250000D01*
X178609523Y-31297619D01*
X178657142Y-31392857D01*
X178657142Y-31488095D01*
X178609523Y-31630952D01*
X178038095Y-32202380D01*
X178657142Y-32202380D01*
X179038095Y-31297619D02*
X179085714Y-31250000D01*
X179180952Y-31202380D01*
X179419047Y-31202380D01*
X179514285Y-31250000D01*
X179561904Y-31297619D01*
X179609523Y-31392857D01*
X179609523Y-31488095D01*
X179561904Y-31630952D01*
X178990476Y-32202380D01*
X179609523Y-32202380D01*
X184753476Y-68984761D02*
X184896333Y-69032380D01*
X185134428Y-69032380D01*
X185229666Y-68984761D01*
X185277285Y-68937142D01*
X185324904Y-68841904D01*
X185324904Y-68746666D01*
X185277285Y-68651428D01*
X185229666Y-68603809D01*
X185134428Y-68556190D01*
X184943952Y-68508571D01*
X184848714Y-68460952D01*
X184801095Y-68413333D01*
X184753476Y-68318095D01*
X184753476Y-68222857D01*
X184801095Y-68127619D01*
X184848714Y-68080000D01*
X184943952Y-68032380D01*
X185182047Y-68032380D01*
X185324904Y-68080000D01*
X185658238Y-68032380D02*
X185896333Y-69032380D01*
X186086809Y-68318095D01*
X186277285Y-69032380D01*
X186515380Y-68032380D01*
X186848714Y-68127619D02*
X186896333Y-68080000D01*
X186991571Y-68032380D01*
X187229666Y-68032380D01*
X187324904Y-68080000D01*
X187372523Y-68127619D01*
X187420142Y-68222857D01*
X187420142Y-68318095D01*
X187372523Y-68460952D01*
X186801095Y-69032380D01*
X187420142Y-69032380D01*
X188372523Y-69032380D02*
X187801095Y-69032380D01*
X188086809Y-69032380D02*
X188086809Y-68032380D01*
X187991571Y-68175238D01*
X187896333Y-68270476D01*
X187801095Y-68318095D01*
X199358476Y-50442761D02*
X199501333Y-50490380D01*
X199739428Y-50490380D01*
X199834666Y-50442761D01*
X199882285Y-50395142D01*
X199929904Y-50299904D01*
X199929904Y-50204666D01*
X199882285Y-50109428D01*
X199834666Y-50061809D01*
X199739428Y-50014190D01*
X199548952Y-49966571D01*
X199453714Y-49918952D01*
X199406095Y-49871333D01*
X199358476Y-49776095D01*
X199358476Y-49680857D01*
X199406095Y-49585619D01*
X199453714Y-49538000D01*
X199548952Y-49490380D01*
X199787047Y-49490380D01*
X199929904Y-49538000D01*
X200263238Y-49490380D02*
X200501333Y-50490380D01*
X200691809Y-49776095D01*
X200882285Y-50490380D01*
X201120380Y-49490380D01*
X201453714Y-49585619D02*
X201501333Y-49538000D01*
X201596571Y-49490380D01*
X201834666Y-49490380D01*
X201929904Y-49538000D01*
X201977523Y-49585619D01*
X202025142Y-49680857D01*
X202025142Y-49776095D01*
X201977523Y-49918952D01*
X201406095Y-50490380D01*
X202025142Y-50490380D01*
X202644190Y-49490380D02*
X202739428Y-49490380D01*
X202834666Y-49538000D01*
X202882285Y-49585619D01*
X202929904Y-49680857D01*
X202977523Y-49871333D01*
X202977523Y-50109428D01*
X202929904Y-50299904D01*
X202882285Y-50395142D01*
X202834666Y-50442761D01*
X202739428Y-50490380D01*
X202644190Y-50490380D01*
X202548952Y-50442761D01*
X202501333Y-50395142D01*
X202453714Y-50299904D01*
X202406095Y-50109428D01*
X202406095Y-49871333D01*
X202453714Y-49680857D01*
X202501333Y-49585619D01*
X202548952Y-49538000D01*
X202644190Y-49490380D01*
X111093476Y-68984761D02*
X111236333Y-69032380D01*
X111474428Y-69032380D01*
X111569666Y-68984761D01*
X111617285Y-68937142D01*
X111664904Y-68841904D01*
X111664904Y-68746666D01*
X111617285Y-68651428D01*
X111569666Y-68603809D01*
X111474428Y-68556190D01*
X111283952Y-68508571D01*
X111188714Y-68460952D01*
X111141095Y-68413333D01*
X111093476Y-68318095D01*
X111093476Y-68222857D01*
X111141095Y-68127619D01*
X111188714Y-68080000D01*
X111283952Y-68032380D01*
X111522047Y-68032380D01*
X111664904Y-68080000D01*
X111998238Y-68032380D02*
X112236333Y-69032380D01*
X112426809Y-68318095D01*
X112617285Y-69032380D01*
X112855380Y-68032380D01*
X113760142Y-69032380D02*
X113188714Y-69032380D01*
X113474428Y-69032380D02*
X113474428Y-68032380D01*
X113379190Y-68175238D01*
X113283952Y-68270476D01*
X113188714Y-68318095D01*
X114236333Y-69032380D02*
X114426809Y-69032380D01*
X114522047Y-68984761D01*
X114569666Y-68937142D01*
X114664904Y-68794285D01*
X114712523Y-68603809D01*
X114712523Y-68222857D01*
X114664904Y-68127619D01*
X114617285Y-68080000D01*
X114522047Y-68032380D01*
X114331571Y-68032380D01*
X114236333Y-68080000D01*
X114188714Y-68127619D01*
X114141095Y-68222857D01*
X114141095Y-68460952D01*
X114188714Y-68556190D01*
X114236333Y-68603809D01*
X114331571Y-68651428D01*
X114522047Y-68651428D01*
X114617285Y-68603809D01*
X114664904Y-68556190D01*
X114712523Y-68460952D01*
X83915476Y-32154761D02*
X84058333Y-32202380D01*
X84296428Y-32202380D01*
X84391666Y-32154761D01*
X84439285Y-32107142D01*
X84486904Y-32011904D01*
X84486904Y-31916666D01*
X84439285Y-31821428D01*
X84391666Y-31773809D01*
X84296428Y-31726190D01*
X84105952Y-31678571D01*
X84010714Y-31630952D01*
X83963095Y-31583333D01*
X83915476Y-31488095D01*
X83915476Y-31392857D01*
X83963095Y-31297619D01*
X84010714Y-31250000D01*
X84105952Y-31202380D01*
X84344047Y-31202380D01*
X84486904Y-31250000D01*
X84820238Y-31202380D02*
X85058333Y-32202380D01*
X85248809Y-31488095D01*
X85439285Y-32202380D01*
X85677380Y-31202380D01*
X86582142Y-32202380D02*
X86010714Y-32202380D01*
X86296428Y-32202380D02*
X86296428Y-31202380D01*
X86201190Y-31345238D01*
X86105952Y-31440476D01*
X86010714Y-31488095D01*
X87153571Y-31630952D02*
X87058333Y-31583333D01*
X87010714Y-31535714D01*
X86963095Y-31440476D01*
X86963095Y-31392857D01*
X87010714Y-31297619D01*
X87058333Y-31250000D01*
X87153571Y-31202380D01*
X87344047Y-31202380D01*
X87439285Y-31250000D01*
X87486904Y-31297619D01*
X87534523Y-31392857D01*
X87534523Y-31440476D01*
X87486904Y-31535714D01*
X87439285Y-31583333D01*
X87344047Y-31630952D01*
X87153571Y-31630952D01*
X87058333Y-31678571D01*
X87010714Y-31726190D01*
X86963095Y-31821428D01*
X86963095Y-32011904D01*
X87010714Y-32107142D01*
X87058333Y-32154761D01*
X87153571Y-32202380D01*
X87344047Y-32202380D01*
X87439285Y-32154761D01*
X87486904Y-32107142D01*
X87534523Y-32011904D01*
X87534523Y-31821428D01*
X87486904Y-31726190D01*
X87439285Y-31678571D01*
X87344047Y-31630952D01*
X91916476Y-13739761D02*
X92059333Y-13787380D01*
X92297428Y-13787380D01*
X92392666Y-13739761D01*
X92440285Y-13692142D01*
X92487904Y-13596904D01*
X92487904Y-13501666D01*
X92440285Y-13406428D01*
X92392666Y-13358809D01*
X92297428Y-13311190D01*
X92106952Y-13263571D01*
X92011714Y-13215952D01*
X91964095Y-13168333D01*
X91916476Y-13073095D01*
X91916476Y-12977857D01*
X91964095Y-12882619D01*
X92011714Y-12835000D01*
X92106952Y-12787380D01*
X92345047Y-12787380D01*
X92487904Y-12835000D01*
X92821238Y-12787380D02*
X93059333Y-13787380D01*
X93249809Y-13073095D01*
X93440285Y-13787380D01*
X93678380Y-12787380D01*
X94583142Y-13787380D02*
X94011714Y-13787380D01*
X94297428Y-13787380D02*
X94297428Y-12787380D01*
X94202190Y-12930238D01*
X94106952Y-13025476D01*
X94011714Y-13073095D01*
X94916476Y-12787380D02*
X95583142Y-12787380D01*
X95154571Y-13787380D01*
X180943476Y-50442761D02*
X181086333Y-50490380D01*
X181324428Y-50490380D01*
X181419666Y-50442761D01*
X181467285Y-50395142D01*
X181514904Y-50299904D01*
X181514904Y-50204666D01*
X181467285Y-50109428D01*
X181419666Y-50061809D01*
X181324428Y-50014190D01*
X181133952Y-49966571D01*
X181038714Y-49918952D01*
X180991095Y-49871333D01*
X180943476Y-49776095D01*
X180943476Y-49680857D01*
X180991095Y-49585619D01*
X181038714Y-49538000D01*
X181133952Y-49490380D01*
X181372047Y-49490380D01*
X181514904Y-49538000D01*
X181848238Y-49490380D02*
X182086333Y-50490380D01*
X182276809Y-49776095D01*
X182467285Y-50490380D01*
X182705380Y-49490380D01*
X183610142Y-50490380D02*
X183038714Y-50490380D01*
X183324428Y-50490380D02*
X183324428Y-49490380D01*
X183229190Y-49633238D01*
X183133952Y-49728476D01*
X183038714Y-49776095D01*
X184467285Y-49490380D02*
X184276809Y-49490380D01*
X184181571Y-49538000D01*
X184133952Y-49585619D01*
X184038714Y-49728476D01*
X183991095Y-49918952D01*
X183991095Y-50299904D01*
X184038714Y-50395142D01*
X184086333Y-50442761D01*
X184181571Y-50490380D01*
X184372047Y-50490380D01*
X184467285Y-50442761D01*
X184514904Y-50395142D01*
X184562523Y-50299904D01*
X184562523Y-50061809D01*
X184514904Y-49966571D01*
X184467285Y-49918952D01*
X184372047Y-49871333D01*
X184181571Y-49871333D01*
X184086333Y-49918952D01*
X184038714Y-49966571D01*
X183991095Y-50061809D01*
X125698476Y-50442761D02*
X125841333Y-50490380D01*
X126079428Y-50490380D01*
X126174666Y-50442761D01*
X126222285Y-50395142D01*
X126269904Y-50299904D01*
X126269904Y-50204666D01*
X126222285Y-50109428D01*
X126174666Y-50061809D01*
X126079428Y-50014190D01*
X125888952Y-49966571D01*
X125793714Y-49918952D01*
X125746095Y-49871333D01*
X125698476Y-49776095D01*
X125698476Y-49680857D01*
X125746095Y-49585619D01*
X125793714Y-49538000D01*
X125888952Y-49490380D01*
X126127047Y-49490380D01*
X126269904Y-49538000D01*
X126603238Y-49490380D02*
X126841333Y-50490380D01*
X127031809Y-49776095D01*
X127222285Y-50490380D01*
X127460380Y-49490380D01*
X128365142Y-50490380D02*
X127793714Y-50490380D01*
X128079428Y-50490380D02*
X128079428Y-49490380D01*
X127984190Y-49633238D01*
X127888952Y-49728476D01*
X127793714Y-49776095D01*
X129269904Y-49490380D02*
X128793714Y-49490380D01*
X128746095Y-49966571D01*
X128793714Y-49918952D01*
X128888952Y-49871333D01*
X129127047Y-49871333D01*
X129222285Y-49918952D01*
X129269904Y-49966571D01*
X129317523Y-50061809D01*
X129317523Y-50299904D01*
X129269904Y-50395142D01*
X129222285Y-50442761D01*
X129127047Y-50490380D01*
X128888952Y-50490380D01*
X128793714Y-50442761D01*
X128746095Y-50395142D01*
X157575476Y-32154761D02*
X157718333Y-32202380D01*
X157956428Y-32202380D01*
X158051666Y-32154761D01*
X158099285Y-32107142D01*
X158146904Y-32011904D01*
X158146904Y-31916666D01*
X158099285Y-31821428D01*
X158051666Y-31773809D01*
X157956428Y-31726190D01*
X157765952Y-31678571D01*
X157670714Y-31630952D01*
X157623095Y-31583333D01*
X157575476Y-31488095D01*
X157575476Y-31392857D01*
X157623095Y-31297619D01*
X157670714Y-31250000D01*
X157765952Y-31202380D01*
X158004047Y-31202380D01*
X158146904Y-31250000D01*
X158480238Y-31202380D02*
X158718333Y-32202380D01*
X158908809Y-31488095D01*
X159099285Y-32202380D01*
X159337380Y-31202380D01*
X160242142Y-32202380D02*
X159670714Y-32202380D01*
X159956428Y-32202380D02*
X159956428Y-31202380D01*
X159861190Y-31345238D01*
X159765952Y-31440476D01*
X159670714Y-31488095D01*
X161099285Y-31535714D02*
X161099285Y-32202380D01*
X160861190Y-31154761D02*
X160623095Y-31869047D01*
X161242142Y-31869047D01*
X166338476Y-68984761D02*
X166481333Y-69032380D01*
X166719428Y-69032380D01*
X166814666Y-68984761D01*
X166862285Y-68937142D01*
X166909904Y-68841904D01*
X166909904Y-68746666D01*
X166862285Y-68651428D01*
X166814666Y-68603809D01*
X166719428Y-68556190D01*
X166528952Y-68508571D01*
X166433714Y-68460952D01*
X166386095Y-68413333D01*
X166338476Y-68318095D01*
X166338476Y-68222857D01*
X166386095Y-68127619D01*
X166433714Y-68080000D01*
X166528952Y-68032380D01*
X166767047Y-68032380D01*
X166909904Y-68080000D01*
X167243238Y-68032380D02*
X167481333Y-69032380D01*
X167671809Y-68318095D01*
X167862285Y-69032380D01*
X168100380Y-68032380D01*
X169005142Y-69032380D02*
X168433714Y-69032380D01*
X168719428Y-69032380D02*
X168719428Y-68032380D01*
X168624190Y-68175238D01*
X168528952Y-68270476D01*
X168433714Y-68318095D01*
X169338476Y-68032380D02*
X169957523Y-68032380D01*
X169624190Y-68413333D01*
X169767047Y-68413333D01*
X169862285Y-68460952D01*
X169909904Y-68508571D01*
X169957523Y-68603809D01*
X169957523Y-68841904D01*
X169909904Y-68937142D01*
X169862285Y-68984761D01*
X169767047Y-69032380D01*
X169481333Y-69032380D01*
X169386095Y-68984761D01*
X169338476Y-68937142D01*
X165576476Y-13739761D02*
X165719333Y-13787380D01*
X165957428Y-13787380D01*
X166052666Y-13739761D01*
X166100285Y-13692142D01*
X166147904Y-13596904D01*
X166147904Y-13501666D01*
X166100285Y-13406428D01*
X166052666Y-13358809D01*
X165957428Y-13311190D01*
X165766952Y-13263571D01*
X165671714Y-13215952D01*
X165624095Y-13168333D01*
X165576476Y-13073095D01*
X165576476Y-12977857D01*
X165624095Y-12882619D01*
X165671714Y-12835000D01*
X165766952Y-12787380D01*
X166005047Y-12787380D01*
X166147904Y-12835000D01*
X166481238Y-12787380D02*
X166719333Y-13787380D01*
X166909809Y-13073095D01*
X167100285Y-13787380D01*
X167338380Y-12787380D01*
X168243142Y-13787380D02*
X167671714Y-13787380D01*
X167957428Y-13787380D02*
X167957428Y-12787380D01*
X167862190Y-12930238D01*
X167766952Y-13025476D01*
X167671714Y-13073095D01*
X168624095Y-12882619D02*
X168671714Y-12835000D01*
X168766952Y-12787380D01*
X169005047Y-12787380D01*
X169100285Y-12835000D01*
X169147904Y-12882619D01*
X169195523Y-12977857D01*
X169195523Y-13073095D01*
X169147904Y-13215952D01*
X168576476Y-13787380D01*
X169195523Y-13787380D01*
X110331476Y-13739761D02*
X110474333Y-13787380D01*
X110712428Y-13787380D01*
X110807666Y-13739761D01*
X110855285Y-13692142D01*
X110902904Y-13596904D01*
X110902904Y-13501666D01*
X110855285Y-13406428D01*
X110807666Y-13358809D01*
X110712428Y-13311190D01*
X110521952Y-13263571D01*
X110426714Y-13215952D01*
X110379095Y-13168333D01*
X110331476Y-13073095D01*
X110331476Y-12977857D01*
X110379095Y-12882619D01*
X110426714Y-12835000D01*
X110521952Y-12787380D01*
X110760047Y-12787380D01*
X110902904Y-12835000D01*
X111236238Y-12787380D02*
X111474333Y-13787380D01*
X111664809Y-13073095D01*
X111855285Y-13787380D01*
X112093380Y-12787380D01*
X112998142Y-13787380D02*
X112426714Y-13787380D01*
X112712428Y-13787380D02*
X112712428Y-12787380D01*
X112617190Y-12930238D01*
X112521952Y-13025476D01*
X112426714Y-13073095D01*
X113950523Y-13787380D02*
X113379095Y-13787380D01*
X113664809Y-13787380D02*
X113664809Y-12787380D01*
X113569571Y-12930238D01*
X113474333Y-13025476D01*
X113379095Y-13073095D01*
X102330476Y-32154761D02*
X102473333Y-32202380D01*
X102711428Y-32202380D01*
X102806666Y-32154761D01*
X102854285Y-32107142D01*
X102901904Y-32011904D01*
X102901904Y-31916666D01*
X102854285Y-31821428D01*
X102806666Y-31773809D01*
X102711428Y-31726190D01*
X102520952Y-31678571D01*
X102425714Y-31630952D01*
X102378095Y-31583333D01*
X102330476Y-31488095D01*
X102330476Y-31392857D01*
X102378095Y-31297619D01*
X102425714Y-31250000D01*
X102520952Y-31202380D01*
X102759047Y-31202380D01*
X102901904Y-31250000D01*
X103235238Y-31202380D02*
X103473333Y-32202380D01*
X103663809Y-31488095D01*
X103854285Y-32202380D01*
X104092380Y-31202380D01*
X104997142Y-32202380D02*
X104425714Y-32202380D01*
X104711428Y-32202380D02*
X104711428Y-31202380D01*
X104616190Y-31345238D01*
X104520952Y-31440476D01*
X104425714Y-31488095D01*
X105616190Y-31202380D02*
X105711428Y-31202380D01*
X105806666Y-31250000D01*
X105854285Y-31297619D01*
X105901904Y-31392857D01*
X105949523Y-31583333D01*
X105949523Y-31821428D01*
X105901904Y-32011904D01*
X105854285Y-32107142D01*
X105806666Y-32154761D01*
X105711428Y-32202380D01*
X105616190Y-32202380D01*
X105520952Y-32154761D01*
X105473333Y-32107142D01*
X105425714Y-32011904D01*
X105378095Y-31821428D01*
X105378095Y-31583333D01*
X105425714Y-31392857D01*
X105473333Y-31297619D01*
X105520952Y-31250000D01*
X105616190Y-31202380D01*
X129984666Y-68984761D02*
X130127523Y-69032380D01*
X130365619Y-69032380D01*
X130460857Y-68984761D01*
X130508476Y-68937142D01*
X130556095Y-68841904D01*
X130556095Y-68746666D01*
X130508476Y-68651428D01*
X130460857Y-68603809D01*
X130365619Y-68556190D01*
X130175142Y-68508571D01*
X130079904Y-68460952D01*
X130032285Y-68413333D01*
X129984666Y-68318095D01*
X129984666Y-68222857D01*
X130032285Y-68127619D01*
X130079904Y-68080000D01*
X130175142Y-68032380D01*
X130413238Y-68032380D01*
X130556095Y-68080000D01*
X130889428Y-68032380D02*
X131127523Y-69032380D01*
X131318000Y-68318095D01*
X131508476Y-69032380D01*
X131746571Y-68032380D01*
X132175142Y-69032380D02*
X132365619Y-69032380D01*
X132460857Y-68984761D01*
X132508476Y-68937142D01*
X132603714Y-68794285D01*
X132651333Y-68603809D01*
X132651333Y-68222857D01*
X132603714Y-68127619D01*
X132556095Y-68080000D01*
X132460857Y-68032380D01*
X132270380Y-68032380D01*
X132175142Y-68080000D01*
X132127523Y-68127619D01*
X132079904Y-68222857D01*
X132079904Y-68460952D01*
X132127523Y-68556190D01*
X132175142Y-68603809D01*
X132270380Y-68651428D01*
X132460857Y-68651428D01*
X132556095Y-68603809D01*
X132603714Y-68556190D01*
X132651333Y-68460952D01*
X121221666Y-32154761D02*
X121364523Y-32202380D01*
X121602619Y-32202380D01*
X121697857Y-32154761D01*
X121745476Y-32107142D01*
X121793095Y-32011904D01*
X121793095Y-31916666D01*
X121745476Y-31821428D01*
X121697857Y-31773809D01*
X121602619Y-31726190D01*
X121412142Y-31678571D01*
X121316904Y-31630952D01*
X121269285Y-31583333D01*
X121221666Y-31488095D01*
X121221666Y-31392857D01*
X121269285Y-31297619D01*
X121316904Y-31250000D01*
X121412142Y-31202380D01*
X121650238Y-31202380D01*
X121793095Y-31250000D01*
X122126428Y-31202380D02*
X122364523Y-32202380D01*
X122555000Y-31488095D01*
X122745476Y-32202380D01*
X122983571Y-31202380D01*
X123507380Y-31630952D02*
X123412142Y-31583333D01*
X123364523Y-31535714D01*
X123316904Y-31440476D01*
X123316904Y-31392857D01*
X123364523Y-31297619D01*
X123412142Y-31250000D01*
X123507380Y-31202380D01*
X123697857Y-31202380D01*
X123793095Y-31250000D01*
X123840714Y-31297619D01*
X123888333Y-31392857D01*
X123888333Y-31440476D01*
X123840714Y-31535714D01*
X123793095Y-31583333D01*
X123697857Y-31630952D01*
X123507380Y-31630952D01*
X123412142Y-31678571D01*
X123364523Y-31726190D01*
X123316904Y-31821428D01*
X123316904Y-32011904D01*
X123364523Y-32107142D01*
X123412142Y-32154761D01*
X123507380Y-32202380D01*
X123697857Y-32202380D01*
X123793095Y-32154761D01*
X123840714Y-32107142D01*
X123888333Y-32011904D01*
X123888333Y-31821428D01*
X123840714Y-31726190D01*
X123793095Y-31678571D01*
X123697857Y-31630952D01*
X147637666Y-13739761D02*
X147780523Y-13787380D01*
X148018619Y-13787380D01*
X148113857Y-13739761D01*
X148161476Y-13692142D01*
X148209095Y-13596904D01*
X148209095Y-13501666D01*
X148161476Y-13406428D01*
X148113857Y-13358809D01*
X148018619Y-13311190D01*
X147828142Y-13263571D01*
X147732904Y-13215952D01*
X147685285Y-13168333D01*
X147637666Y-13073095D01*
X147637666Y-12977857D01*
X147685285Y-12882619D01*
X147732904Y-12835000D01*
X147828142Y-12787380D01*
X148066238Y-12787380D01*
X148209095Y-12835000D01*
X148542428Y-12787380D02*
X148780523Y-13787380D01*
X148971000Y-13073095D01*
X149161476Y-13787380D01*
X149399571Y-12787380D01*
X149685285Y-12787380D02*
X150351952Y-12787380D01*
X149923380Y-13787380D01*
X139636666Y-32154761D02*
X139779523Y-32202380D01*
X140017619Y-32202380D01*
X140112857Y-32154761D01*
X140160476Y-32107142D01*
X140208095Y-32011904D01*
X140208095Y-31916666D01*
X140160476Y-31821428D01*
X140112857Y-31773809D01*
X140017619Y-31726190D01*
X139827142Y-31678571D01*
X139731904Y-31630952D01*
X139684285Y-31583333D01*
X139636666Y-31488095D01*
X139636666Y-31392857D01*
X139684285Y-31297619D01*
X139731904Y-31250000D01*
X139827142Y-31202380D01*
X140065238Y-31202380D01*
X140208095Y-31250000D01*
X140541428Y-31202380D02*
X140779523Y-32202380D01*
X140970000Y-31488095D01*
X141160476Y-32202380D01*
X141398571Y-31202380D01*
X142208095Y-31202380D02*
X142017619Y-31202380D01*
X141922380Y-31250000D01*
X141874761Y-31297619D01*
X141779523Y-31440476D01*
X141731904Y-31630952D01*
X141731904Y-32011904D01*
X141779523Y-32107142D01*
X141827142Y-32154761D01*
X141922380Y-32202380D01*
X142112857Y-32202380D01*
X142208095Y-32154761D01*
X142255714Y-32107142D01*
X142303333Y-32011904D01*
X142303333Y-31773809D01*
X142255714Y-31678571D01*
X142208095Y-31630952D01*
X142112857Y-31583333D01*
X141922380Y-31583333D01*
X141827142Y-31630952D01*
X141779523Y-31678571D01*
X141731904Y-31773809D01*
X163004666Y-50442761D02*
X163147523Y-50490380D01*
X163385619Y-50490380D01*
X163480857Y-50442761D01*
X163528476Y-50395142D01*
X163576095Y-50299904D01*
X163576095Y-50204666D01*
X163528476Y-50109428D01*
X163480857Y-50061809D01*
X163385619Y-50014190D01*
X163195142Y-49966571D01*
X163099904Y-49918952D01*
X163052285Y-49871333D01*
X163004666Y-49776095D01*
X163004666Y-49680857D01*
X163052285Y-49585619D01*
X163099904Y-49538000D01*
X163195142Y-49490380D01*
X163433238Y-49490380D01*
X163576095Y-49538000D01*
X163909428Y-49490380D02*
X164147523Y-50490380D01*
X164338000Y-49776095D01*
X164528476Y-50490380D01*
X164766571Y-49490380D01*
X165576095Y-49823714D02*
X165576095Y-50490380D01*
X165338000Y-49442761D02*
X165099904Y-50157047D01*
X165718952Y-50157047D01*
X148399666Y-68984761D02*
X148542523Y-69032380D01*
X148780619Y-69032380D01*
X148875857Y-68984761D01*
X148923476Y-68937142D01*
X148971095Y-68841904D01*
X148971095Y-68746666D01*
X148923476Y-68651428D01*
X148875857Y-68603809D01*
X148780619Y-68556190D01*
X148590142Y-68508571D01*
X148494904Y-68460952D01*
X148447285Y-68413333D01*
X148399666Y-68318095D01*
X148399666Y-68222857D01*
X148447285Y-68127619D01*
X148494904Y-68080000D01*
X148590142Y-68032380D01*
X148828238Y-68032380D01*
X148971095Y-68080000D01*
X149304428Y-68032380D02*
X149542523Y-69032380D01*
X149733000Y-68318095D01*
X149923476Y-69032380D01*
X150161571Y-68032380D01*
X150447285Y-68032380D02*
X151066333Y-68032380D01*
X150733000Y-68413333D01*
X150875857Y-68413333D01*
X150971095Y-68460952D01*
X151018714Y-68508571D01*
X151066333Y-68603809D01*
X151066333Y-68841904D01*
X151018714Y-68937142D01*
X150971095Y-68984761D01*
X150875857Y-69032380D01*
X150590142Y-69032380D01*
X150494904Y-68984761D01*
X150447285Y-68937142D01*
X144589666Y-50442761D02*
X144732523Y-50490380D01*
X144970619Y-50490380D01*
X145065857Y-50442761D01*
X145113476Y-50395142D01*
X145161095Y-50299904D01*
X145161095Y-50204666D01*
X145113476Y-50109428D01*
X145065857Y-50061809D01*
X144970619Y-50014190D01*
X144780142Y-49966571D01*
X144684904Y-49918952D01*
X144637285Y-49871333D01*
X144589666Y-49776095D01*
X144589666Y-49680857D01*
X144637285Y-49585619D01*
X144684904Y-49538000D01*
X144780142Y-49490380D01*
X145018238Y-49490380D01*
X145161095Y-49538000D01*
X145494428Y-49490380D02*
X145732523Y-50490380D01*
X145923000Y-49776095D01*
X146113476Y-50490380D01*
X146351571Y-49490380D01*
X146684904Y-49585619D02*
X146732523Y-49538000D01*
X146827761Y-49490380D01*
X147065857Y-49490380D01*
X147161095Y-49538000D01*
X147208714Y-49585619D01*
X147256333Y-49680857D01*
X147256333Y-49776095D01*
X147208714Y-49918952D01*
X146637285Y-50490380D01*
X147256333Y-50490380D01*
X129222666Y-13739761D02*
X129365523Y-13787380D01*
X129603619Y-13787380D01*
X129698857Y-13739761D01*
X129746476Y-13692142D01*
X129794095Y-13596904D01*
X129794095Y-13501666D01*
X129746476Y-13406428D01*
X129698857Y-13358809D01*
X129603619Y-13311190D01*
X129413142Y-13263571D01*
X129317904Y-13215952D01*
X129270285Y-13168333D01*
X129222666Y-13073095D01*
X129222666Y-12977857D01*
X129270285Y-12882619D01*
X129317904Y-12835000D01*
X129413142Y-12787380D01*
X129651238Y-12787380D01*
X129794095Y-12835000D01*
X130127428Y-12787380D02*
X130365523Y-13787380D01*
X130556000Y-13073095D01*
X130746476Y-13787380D01*
X130984571Y-12787380D01*
X131889333Y-13787380D02*
X131317904Y-13787380D01*
X131603619Y-13787380D02*
X131603619Y-12787380D01*
X131508380Y-12930238D01*
X131413142Y-13025476D01*
X131317904Y-13073095D01*
X93642380Y-7238904D02*
X94451904Y-7238904D01*
X94547142Y-7191285D01*
X94594761Y-7143666D01*
X94642380Y-7048428D01*
X94642380Y-6857952D01*
X94594761Y-6762714D01*
X94547142Y-6715095D01*
X94451904Y-6667476D01*
X93642380Y-6667476D01*
X94642380Y-5667476D02*
X94642380Y-6238904D01*
X94642380Y-5953190D02*
X93642380Y-5953190D01*
X93785238Y-6048428D01*
X93880476Y-6143666D01*
X93928095Y-6238904D01*
M02*
