M48
; DRILL file {KiCad (5.1.12)-1} date 01/29/23 13:19:23
; FORMAT={-:-/ absolute / inch / decimal}
; #@! TF.CreationDate,2023-01-29T13:19:23+01:00
; #@! TF.GenerationSoftware,Kicad,Pcbnew,(5.1.12)-1
; #@! TF.FileFunction,NonPlated,1,2,NPTH
FMAT,2
INCH
T1C0.1496
%
G90
G05
T1
X0.475Y-1.56
X0.575Y-2.28
X0.725Y-3.01
X0.79Y-0.835
X1.03Y-3.735
X1.2Y-1.56
X1.395Y-2.28
X1.515Y-0.835
X1.545Y-3.01
X1.755Y-3.735
X1.925Y-1.56
X2.12Y-2.28
X2.24Y-0.835
X2.27Y-3.01
X2.65Y-1.56
X2.845Y-2.28
X2.87Y-3.735
X2.965Y-0.835
X2.995Y-3.01
X3.375Y-1.56
X3.57Y-2.28
X3.69Y-0.835
X3.72Y-3.01
X4.1Y-1.56
X4.295Y-2.28
X4.415Y-0.835
X4.445Y-3.01
X4.445Y-3.735
X4.825Y-1.56
X5.02Y-2.28
X5.14Y-0.835
X5.17Y-3.01
X5.55Y-1.56
X5.745Y-2.28
X5.865Y-0.835
X5.895Y-3.01
X6.02Y-3.735
X6.275Y-1.56
X6.47Y-2.28
X6.59Y-0.835
X6.62Y-3.01
X7.0Y-1.56
X7.135Y-3.735
X7.195Y-2.28
X7.315Y-0.835
X7.345Y-3.01
X7.725Y-1.56
X7.86Y-3.735
X7.92Y-2.28
X8.04Y-0.835
X8.07Y-3.01
X8.45Y-1.56
X8.645Y-2.28
X8.675Y-3.735
X8.765Y-0.835
X9.175Y-1.56
X9.235Y-3.01
X9.81Y-2.28
X9.87Y-0.835
X10.075Y-1.56
T0
M30
