%TF.GenerationSoftware,KiCad,Pcbnew,(5.1.12)-1*%
%TF.CreationDate,2022-03-19T10:44:28+01:00*%
%TF.ProjectId,8ESN,3845534e-2e6b-4696-9361-645f70636258,1.0*%
%TF.SameCoordinates,PX6d01460PY60e4b00*%
%TF.FileFunction,Legend,Bot*%
%TF.FilePolarity,Positive*%
%FSLAX46Y46*%
G04 Gerber Fmt 4.6, Leading zero omitted, Abs format (unit mm)*
G04 Created by KiCad (PCBNEW (5.1.12)-1) date 2022-03-19 10:44:28*
%MOMM*%
%LPD*%
G01*
G04 APERTURE LIST*
%ADD10C,0.150000*%
G04 APERTURE END LIST*
D10*
X11650071Y47950429D02*
X11983404Y47950429D01*
X11983404Y47426620D02*
X11983404Y48426620D01*
X11507214Y48426620D01*
X11126261Y47426620D02*
X11126261Y48093286D01*
X11126261Y47902810D02*
X11078642Y47998048D01*
X11031023Y48045667D01*
X10935785Y48093286D01*
X10840547Y48093286D01*
X10126261Y47474239D02*
X10221500Y47426620D01*
X10411976Y47426620D01*
X10507214Y47474239D01*
X10554833Y47569477D01*
X10554833Y47950429D01*
X10507214Y48045667D01*
X10411976Y48093286D01*
X10221500Y48093286D01*
X10126261Y48045667D01*
X10078642Y47950429D01*
X10078642Y47855191D01*
X10554833Y47759953D01*
X9221500Y47426620D02*
X9221500Y48426620D01*
X9221500Y47474239D02*
X9316738Y47426620D01*
X9507214Y47426620D01*
X9602452Y47474239D01*
X9650071Y47521858D01*
X9697690Y47617096D01*
X9697690Y47902810D01*
X9650071Y47998048D01*
X9602452Y48045667D01*
X9507214Y48093286D01*
X9316738Y48093286D01*
X9221500Y48045667D01*
X8983404Y47331381D02*
X8221500Y47331381D01*
X8078642Y48426620D02*
X7411976Y48426620D01*
X7840547Y47426620D01*
X7078642Y48331381D02*
X7031023Y48379000D01*
X6935785Y48426620D01*
X6697690Y48426620D01*
X6602452Y48379000D01*
X6554833Y48331381D01*
X6507214Y48236143D01*
X6507214Y48140905D01*
X6554833Y47998048D01*
X7126261Y47426620D01*
X6507214Y47426620D01*
X5126261Y48426620D02*
X5031023Y48426620D01*
X4935785Y48379000D01*
X4888166Y48331381D01*
X4840547Y48236143D01*
X4792928Y48045667D01*
X4792928Y47807572D01*
X4840547Y47617096D01*
X4888166Y47521858D01*
X4935785Y47474239D01*
X5031023Y47426620D01*
X5126261Y47426620D01*
X5221500Y47474239D01*
X5269119Y47521858D01*
X5316738Y47617096D01*
X5364357Y47807572D01*
X5364357Y48045667D01*
X5316738Y48236143D01*
X5269119Y48331381D01*
X5221500Y48379000D01*
X5126261Y48426620D01*
X4411976Y48331381D02*
X4364357Y48379000D01*
X4269119Y48426620D01*
X4031023Y48426620D01*
X3935785Y48379000D01*
X3888166Y48331381D01*
X3840547Y48236143D01*
X3840547Y48140905D01*
X3888166Y47998048D01*
X4459595Y47426620D01*
X3840547Y47426620D01*
X2697690Y48474239D02*
X3554833Y47188524D01*
X2411976Y48331381D02*
X2364357Y48379000D01*
X2269119Y48426620D01*
X2031023Y48426620D01*
X1935785Y48379000D01*
X1888166Y48331381D01*
X1840547Y48236143D01*
X1840547Y48140905D01*
X1888166Y47998048D01*
X2459595Y47426620D01*
X1840547Y47426620D01*
X1459595Y48331381D02*
X1411976Y48379000D01*
X1316738Y48426620D01*
X1078642Y48426620D01*
X983404Y48379000D01*
X935785Y48331381D01*
X888166Y48236143D01*
X888166Y48140905D01*
X935785Y47998048D01*
X1507214Y47426620D01*
X888166Y47426620D01*
M02*
