%TF.GenerationSoftware,KiCad,Pcbnew,(5.1.12)-1*%
%TF.CreationDate,2022-03-19T10:44:28+01:00*%
%TF.ProjectId,8ESN,3845534e-2e6b-4696-9361-645f70636258,1.0*%
%TF.SameCoordinates,PX6d01460PY60e4b00*%
%TF.FileFunction,Soldermask,Top*%
%TF.FilePolarity,Negative*%
%FSLAX46Y46*%
G04 Gerber Fmt 4.6, Leading zero omitted, Abs format (unit mm)*
G04 Created by KiCad (PCBNEW (5.1.12)-1) date 2022-03-19 10:44:28*
%MOMM*%
%LPD*%
G01*
G04 APERTURE LIST*
%ADD10C,1.700000*%
%ADD11O,1.600000X1.600000*%
%ADD12R,1.600000X1.600000*%
%ADD13O,1.400000X1.400000*%
%ADD14C,1.400000*%
%ADD15O,1.700000X1.700000*%
%ADD16R,1.700000X1.700000*%
%ADD17O,2.400000X1.600000*%
%ADD18R,2.400000X1.600000*%
%ADD19O,1.600000X2.400000*%
%ADD20R,1.600000X2.400000*%
%ADD21C,1.600000*%
G04 APERTURE END LIST*
D10*
%TO.C,J1*%
X17780000Y3175000D03*
X20320000Y3175000D03*
X22860000Y3175000D03*
X25400000Y3175000D03*
X27940000Y3175000D03*
X30480000Y3175000D03*
X33020000Y3175000D03*
X35560000Y3175000D03*
X38100000Y3175000D03*
X40640000Y3175000D03*
X43180000Y3175000D03*
X45720000Y3175000D03*
X48260000Y3175000D03*
X50800000Y3175000D03*
X53340000Y3175000D03*
X55880000Y3175000D03*
X58420000Y3175000D03*
X17780000Y5715000D03*
X20320000Y5715000D03*
X22860000Y5715000D03*
X25400000Y5715000D03*
X27940000Y5715000D03*
X30480000Y5715000D03*
X33020000Y5715000D03*
X35560000Y5715000D03*
X38100000Y5715000D03*
X40640000Y5715000D03*
X43180000Y5715000D03*
X45720000Y5715000D03*
X48260000Y5715000D03*
X50800000Y5715000D03*
X53340000Y5715000D03*
X55880000Y5715000D03*
G36*
G01*
X57820000Y6565000D02*
X59020000Y6565000D01*
G75*
G02*
X59270000Y6315000I0J-250000D01*
G01*
X59270000Y5115000D01*
G75*
G02*
X59020000Y4865000I-250000J0D01*
G01*
X57820000Y4865000D01*
G75*
G02*
X57570000Y5115000I0J250000D01*
G01*
X57570000Y6315000D01*
G75*
G02*
X57820000Y6565000I250000J0D01*
G01*
G37*
%TD*%
D11*
%TO.C,RN2*%
X6985000Y34925000D03*
X9525000Y34925000D03*
X12065000Y34925000D03*
X14605000Y34925000D03*
X17145000Y34925000D03*
X19685000Y34925000D03*
X22225000Y34925000D03*
X24765000Y34925000D03*
D12*
X27305000Y34925000D03*
%TD*%
D13*
%TO.C,R9*%
X33020000Y41783000D03*
D14*
X40640000Y41783000D03*
%TD*%
D11*
%TO.C,SW1*%
X69850000Y12065000D03*
D12*
X62230000Y12065000D03*
%TD*%
D15*
%TO.C,J2*%
X70485000Y45085000D03*
X67945000Y45085000D03*
X65405000Y45085000D03*
X62865000Y45085000D03*
X60325000Y45085000D03*
X57785000Y45085000D03*
X55245000Y45085000D03*
X52705000Y45085000D03*
X50165000Y45085000D03*
D16*
X47625000Y45085000D03*
%TD*%
D15*
%TO.C,J3*%
X27305000Y45085000D03*
X24765000Y45085000D03*
X22225000Y45085000D03*
X19685000Y45085000D03*
X17145000Y45085000D03*
X14605000Y45085000D03*
X12065000Y45085000D03*
X9525000Y45085000D03*
X6985000Y45085000D03*
D16*
X4445000Y45085000D03*
%TD*%
D17*
%TO.C,U1*%
X33020000Y14605000D03*
X40640000Y37465000D03*
X33020000Y17145000D03*
X40640000Y34925000D03*
X33020000Y19685000D03*
X40640000Y32385000D03*
X33020000Y22225000D03*
X40640000Y29845000D03*
X33020000Y24765000D03*
X40640000Y27305000D03*
X33020000Y27305000D03*
X40640000Y24765000D03*
X33020000Y29845000D03*
X40640000Y22225000D03*
X33020000Y32385000D03*
X40640000Y19685000D03*
X33020000Y34925000D03*
X40640000Y17145000D03*
X33020000Y37465000D03*
D18*
X40640000Y14605000D03*
%TD*%
D13*
%TO.C,R8*%
X67945000Y29210000D03*
D14*
X67945000Y31750000D03*
%TD*%
D13*
%TO.C,R7*%
X65405000Y29210000D03*
D14*
X65405000Y31750000D03*
%TD*%
D13*
%TO.C,R6*%
X62865000Y29210000D03*
D14*
X62865000Y31750000D03*
%TD*%
D13*
%TO.C,R5*%
X60325000Y29210000D03*
D14*
X60325000Y31750000D03*
%TD*%
D13*
%TO.C,R4*%
X57785000Y29210000D03*
D14*
X57785000Y31750000D03*
%TD*%
D13*
%TO.C,R3*%
X55245000Y29210000D03*
D14*
X55245000Y31750000D03*
%TD*%
D13*
%TO.C,R2*%
X52705000Y29210000D03*
D14*
X52705000Y31750000D03*
%TD*%
D13*
%TO.C,R1*%
X50165000Y29210000D03*
D14*
X50165000Y31750000D03*
%TD*%
%TO.C,D17*%
G36*
G01*
X67488750Y37952500D02*
X68401250Y37952500D01*
G75*
G02*
X68645000Y37708750I0J-243750D01*
G01*
X68645000Y37221250D01*
G75*
G02*
X68401250Y36977500I-243750J0D01*
G01*
X67488750Y36977500D01*
G75*
G02*
X67245000Y37221250I0J243750D01*
G01*
X67245000Y37708750D01*
G75*
G02*
X67488750Y37952500I243750J0D01*
G01*
G37*
G36*
G01*
X67488750Y39827500D02*
X68401250Y39827500D01*
G75*
G02*
X68645000Y39583750I0J-243750D01*
G01*
X68645000Y39096250D01*
G75*
G02*
X68401250Y38852500I-243750J0D01*
G01*
X67488750Y38852500D01*
G75*
G02*
X67245000Y39096250I0J243750D01*
G01*
X67245000Y39583750D01*
G75*
G02*
X67488750Y39827500I243750J0D01*
G01*
G37*
%TD*%
%TO.C,D16*%
G36*
G01*
X64948750Y37952500D02*
X65861250Y37952500D01*
G75*
G02*
X66105000Y37708750I0J-243750D01*
G01*
X66105000Y37221250D01*
G75*
G02*
X65861250Y36977500I-243750J0D01*
G01*
X64948750Y36977500D01*
G75*
G02*
X64705000Y37221250I0J243750D01*
G01*
X64705000Y37708750D01*
G75*
G02*
X64948750Y37952500I243750J0D01*
G01*
G37*
G36*
G01*
X64948750Y39827500D02*
X65861250Y39827500D01*
G75*
G02*
X66105000Y39583750I0J-243750D01*
G01*
X66105000Y39096250D01*
G75*
G02*
X65861250Y38852500I-243750J0D01*
G01*
X64948750Y38852500D01*
G75*
G02*
X64705000Y39096250I0J243750D01*
G01*
X64705000Y39583750D01*
G75*
G02*
X64948750Y39827500I243750J0D01*
G01*
G37*
%TD*%
%TO.C,D15*%
G36*
G01*
X62408750Y37952500D02*
X63321250Y37952500D01*
G75*
G02*
X63565000Y37708750I0J-243750D01*
G01*
X63565000Y37221250D01*
G75*
G02*
X63321250Y36977500I-243750J0D01*
G01*
X62408750Y36977500D01*
G75*
G02*
X62165000Y37221250I0J243750D01*
G01*
X62165000Y37708750D01*
G75*
G02*
X62408750Y37952500I243750J0D01*
G01*
G37*
G36*
G01*
X62408750Y39827500D02*
X63321250Y39827500D01*
G75*
G02*
X63565000Y39583750I0J-243750D01*
G01*
X63565000Y39096250D01*
G75*
G02*
X63321250Y38852500I-243750J0D01*
G01*
X62408750Y38852500D01*
G75*
G02*
X62165000Y39096250I0J243750D01*
G01*
X62165000Y39583750D01*
G75*
G02*
X62408750Y39827500I243750J0D01*
G01*
G37*
%TD*%
%TO.C,D14*%
G36*
G01*
X59868750Y37952500D02*
X60781250Y37952500D01*
G75*
G02*
X61025000Y37708750I0J-243750D01*
G01*
X61025000Y37221250D01*
G75*
G02*
X60781250Y36977500I-243750J0D01*
G01*
X59868750Y36977500D01*
G75*
G02*
X59625000Y37221250I0J243750D01*
G01*
X59625000Y37708750D01*
G75*
G02*
X59868750Y37952500I243750J0D01*
G01*
G37*
G36*
G01*
X59868750Y39827500D02*
X60781250Y39827500D01*
G75*
G02*
X61025000Y39583750I0J-243750D01*
G01*
X61025000Y39096250D01*
G75*
G02*
X60781250Y38852500I-243750J0D01*
G01*
X59868750Y38852500D01*
G75*
G02*
X59625000Y39096250I0J243750D01*
G01*
X59625000Y39583750D01*
G75*
G02*
X59868750Y39827500I243750J0D01*
G01*
G37*
%TD*%
%TO.C,D13*%
G36*
G01*
X57328750Y37952500D02*
X58241250Y37952500D01*
G75*
G02*
X58485000Y37708750I0J-243750D01*
G01*
X58485000Y37221250D01*
G75*
G02*
X58241250Y36977500I-243750J0D01*
G01*
X57328750Y36977500D01*
G75*
G02*
X57085000Y37221250I0J243750D01*
G01*
X57085000Y37708750D01*
G75*
G02*
X57328750Y37952500I243750J0D01*
G01*
G37*
G36*
G01*
X57328750Y39827500D02*
X58241250Y39827500D01*
G75*
G02*
X58485000Y39583750I0J-243750D01*
G01*
X58485000Y39096250D01*
G75*
G02*
X58241250Y38852500I-243750J0D01*
G01*
X57328750Y38852500D01*
G75*
G02*
X57085000Y39096250I0J243750D01*
G01*
X57085000Y39583750D01*
G75*
G02*
X57328750Y39827500I243750J0D01*
G01*
G37*
%TD*%
%TO.C,D12*%
G36*
G01*
X54788750Y37952500D02*
X55701250Y37952500D01*
G75*
G02*
X55945000Y37708750I0J-243750D01*
G01*
X55945000Y37221250D01*
G75*
G02*
X55701250Y36977500I-243750J0D01*
G01*
X54788750Y36977500D01*
G75*
G02*
X54545000Y37221250I0J243750D01*
G01*
X54545000Y37708750D01*
G75*
G02*
X54788750Y37952500I243750J0D01*
G01*
G37*
G36*
G01*
X54788750Y39827500D02*
X55701250Y39827500D01*
G75*
G02*
X55945000Y39583750I0J-243750D01*
G01*
X55945000Y39096250D01*
G75*
G02*
X55701250Y38852500I-243750J0D01*
G01*
X54788750Y38852500D01*
G75*
G02*
X54545000Y39096250I0J243750D01*
G01*
X54545000Y39583750D01*
G75*
G02*
X54788750Y39827500I243750J0D01*
G01*
G37*
%TD*%
%TO.C,D11*%
G36*
G01*
X52248750Y37982500D02*
X53161250Y37982500D01*
G75*
G02*
X53405000Y37738750I0J-243750D01*
G01*
X53405000Y37251250D01*
G75*
G02*
X53161250Y37007500I-243750J0D01*
G01*
X52248750Y37007500D01*
G75*
G02*
X52005000Y37251250I0J243750D01*
G01*
X52005000Y37738750D01*
G75*
G02*
X52248750Y37982500I243750J0D01*
G01*
G37*
G36*
G01*
X52248750Y39857500D02*
X53161250Y39857500D01*
G75*
G02*
X53405000Y39613750I0J-243750D01*
G01*
X53405000Y39126250D01*
G75*
G02*
X53161250Y38882500I-243750J0D01*
G01*
X52248750Y38882500D01*
G75*
G02*
X52005000Y39126250I0J243750D01*
G01*
X52005000Y39613750D01*
G75*
G02*
X52248750Y39857500I243750J0D01*
G01*
G37*
%TD*%
%TO.C,D10*%
G36*
G01*
X49708750Y37952500D02*
X50621250Y37952500D01*
G75*
G02*
X50865000Y37708750I0J-243750D01*
G01*
X50865000Y37221250D01*
G75*
G02*
X50621250Y36977500I-243750J0D01*
G01*
X49708750Y36977500D01*
G75*
G02*
X49465000Y37221250I0J243750D01*
G01*
X49465000Y37708750D01*
G75*
G02*
X49708750Y37952500I243750J0D01*
G01*
G37*
G36*
G01*
X49708750Y39827500D02*
X50621250Y39827500D01*
G75*
G02*
X50865000Y39583750I0J-243750D01*
G01*
X50865000Y39096250D01*
G75*
G02*
X50621250Y38852500I-243750J0D01*
G01*
X49708750Y38852500D01*
G75*
G02*
X49465000Y39096250I0J243750D01*
G01*
X49465000Y39583750D01*
G75*
G02*
X49708750Y39827500I243750J0D01*
G01*
G37*
%TD*%
%TO.C,D9*%
G36*
G01*
X25348250Y38725500D02*
X24435750Y38725500D01*
G75*
G02*
X24192000Y38969250I0J243750D01*
G01*
X24192000Y39456750D01*
G75*
G02*
X24435750Y39700500I243750J0D01*
G01*
X25348250Y39700500D01*
G75*
G02*
X25592000Y39456750I0J-243750D01*
G01*
X25592000Y38969250D01*
G75*
G02*
X25348250Y38725500I-243750J0D01*
G01*
G37*
G36*
G01*
X25348250Y36850500D02*
X24435750Y36850500D01*
G75*
G02*
X24192000Y37094250I0J243750D01*
G01*
X24192000Y37581750D01*
G75*
G02*
X24435750Y37825500I243750J0D01*
G01*
X25348250Y37825500D01*
G75*
G02*
X25592000Y37581750I0J-243750D01*
G01*
X25592000Y37094250D01*
G75*
G02*
X25348250Y36850500I-243750J0D01*
G01*
G37*
%TD*%
%TO.C,D8*%
G36*
G01*
X22808250Y38725500D02*
X21895750Y38725500D01*
G75*
G02*
X21652000Y38969250I0J243750D01*
G01*
X21652000Y39456750D01*
G75*
G02*
X21895750Y39700500I243750J0D01*
G01*
X22808250Y39700500D01*
G75*
G02*
X23052000Y39456750I0J-243750D01*
G01*
X23052000Y38969250D01*
G75*
G02*
X22808250Y38725500I-243750J0D01*
G01*
G37*
G36*
G01*
X22808250Y36850500D02*
X21895750Y36850500D01*
G75*
G02*
X21652000Y37094250I0J243750D01*
G01*
X21652000Y37581750D01*
G75*
G02*
X21895750Y37825500I243750J0D01*
G01*
X22808250Y37825500D01*
G75*
G02*
X23052000Y37581750I0J-243750D01*
G01*
X23052000Y37094250D01*
G75*
G02*
X22808250Y36850500I-243750J0D01*
G01*
G37*
%TD*%
%TO.C,D7*%
G36*
G01*
X20268250Y38727800D02*
X19355750Y38727800D01*
G75*
G02*
X19112000Y38971550I0J243750D01*
G01*
X19112000Y39459050D01*
G75*
G02*
X19355750Y39702800I243750J0D01*
G01*
X20268250Y39702800D01*
G75*
G02*
X20512000Y39459050I0J-243750D01*
G01*
X20512000Y38971550D01*
G75*
G02*
X20268250Y38727800I-243750J0D01*
G01*
G37*
G36*
G01*
X20268250Y36852800D02*
X19355750Y36852800D01*
G75*
G02*
X19112000Y37096550I0J243750D01*
G01*
X19112000Y37584050D01*
G75*
G02*
X19355750Y37827800I243750J0D01*
G01*
X20268250Y37827800D01*
G75*
G02*
X20512000Y37584050I0J-243750D01*
G01*
X20512000Y37096550D01*
G75*
G02*
X20268250Y36852800I-243750J0D01*
G01*
G37*
%TD*%
%TO.C,D6*%
G36*
G01*
X17728250Y38725500D02*
X16815750Y38725500D01*
G75*
G02*
X16572000Y38969250I0J243750D01*
G01*
X16572000Y39456750D01*
G75*
G02*
X16815750Y39700500I243750J0D01*
G01*
X17728250Y39700500D01*
G75*
G02*
X17972000Y39456750I0J-243750D01*
G01*
X17972000Y38969250D01*
G75*
G02*
X17728250Y38725500I-243750J0D01*
G01*
G37*
G36*
G01*
X17728250Y36850500D02*
X16815750Y36850500D01*
G75*
G02*
X16572000Y37094250I0J243750D01*
G01*
X16572000Y37581750D01*
G75*
G02*
X16815750Y37825500I243750J0D01*
G01*
X17728250Y37825500D01*
G75*
G02*
X17972000Y37581750I0J-243750D01*
G01*
X17972000Y37094250D01*
G75*
G02*
X17728250Y36850500I-243750J0D01*
G01*
G37*
%TD*%
%TO.C,D5*%
G36*
G01*
X15188250Y38725500D02*
X14275750Y38725500D01*
G75*
G02*
X14032000Y38969250I0J243750D01*
G01*
X14032000Y39456750D01*
G75*
G02*
X14275750Y39700500I243750J0D01*
G01*
X15188250Y39700500D01*
G75*
G02*
X15432000Y39456750I0J-243750D01*
G01*
X15432000Y38969250D01*
G75*
G02*
X15188250Y38725500I-243750J0D01*
G01*
G37*
G36*
G01*
X15188250Y36850500D02*
X14275750Y36850500D01*
G75*
G02*
X14032000Y37094250I0J243750D01*
G01*
X14032000Y37581750D01*
G75*
G02*
X14275750Y37825500I243750J0D01*
G01*
X15188250Y37825500D01*
G75*
G02*
X15432000Y37581750I0J-243750D01*
G01*
X15432000Y37094250D01*
G75*
G02*
X15188250Y36850500I-243750J0D01*
G01*
G37*
%TD*%
%TO.C,D4*%
G36*
G01*
X12648250Y38755500D02*
X11735750Y38755500D01*
G75*
G02*
X11492000Y38999250I0J243750D01*
G01*
X11492000Y39486750D01*
G75*
G02*
X11735750Y39730500I243750J0D01*
G01*
X12648250Y39730500D01*
G75*
G02*
X12892000Y39486750I0J-243750D01*
G01*
X12892000Y38999250D01*
G75*
G02*
X12648250Y38755500I-243750J0D01*
G01*
G37*
G36*
G01*
X12648250Y36880500D02*
X11735750Y36880500D01*
G75*
G02*
X11492000Y37124250I0J243750D01*
G01*
X11492000Y37611750D01*
G75*
G02*
X11735750Y37855500I243750J0D01*
G01*
X12648250Y37855500D01*
G75*
G02*
X12892000Y37611750I0J-243750D01*
G01*
X12892000Y37124250D01*
G75*
G02*
X12648250Y36880500I-243750J0D01*
G01*
G37*
%TD*%
%TO.C,D3*%
G36*
G01*
X10108250Y38755500D02*
X9195750Y38755500D01*
G75*
G02*
X8952000Y38999250I0J243750D01*
G01*
X8952000Y39486750D01*
G75*
G02*
X9195750Y39730500I243750J0D01*
G01*
X10108250Y39730500D01*
G75*
G02*
X10352000Y39486750I0J-243750D01*
G01*
X10352000Y38999250D01*
G75*
G02*
X10108250Y38755500I-243750J0D01*
G01*
G37*
G36*
G01*
X10108250Y36880500D02*
X9195750Y36880500D01*
G75*
G02*
X8952000Y37124250I0J243750D01*
G01*
X8952000Y37611750D01*
G75*
G02*
X9195750Y37855500I243750J0D01*
G01*
X10108250Y37855500D01*
G75*
G02*
X10352000Y37611750I0J-243750D01*
G01*
X10352000Y37124250D01*
G75*
G02*
X10108250Y36880500I-243750J0D01*
G01*
G37*
%TD*%
%TO.C,D2*%
G36*
G01*
X7568250Y38755500D02*
X6655750Y38755500D01*
G75*
G02*
X6412000Y38999250I0J243750D01*
G01*
X6412000Y39486750D01*
G75*
G02*
X6655750Y39730500I243750J0D01*
G01*
X7568250Y39730500D01*
G75*
G02*
X7812000Y39486750I0J-243750D01*
G01*
X7812000Y38999250D01*
G75*
G02*
X7568250Y38755500I-243750J0D01*
G01*
G37*
G36*
G01*
X7568250Y36880500D02*
X6655750Y36880500D01*
G75*
G02*
X6412000Y37124250I0J243750D01*
G01*
X6412000Y37611750D01*
G75*
G02*
X6655750Y37855500I243750J0D01*
G01*
X7568250Y37855500D01*
G75*
G02*
X7812000Y37611750I0J-243750D01*
G01*
X7812000Y37124250D01*
G75*
G02*
X7568250Y36880500I-243750J0D01*
G01*
G37*
%TD*%
D19*
%TO.C,U6*%
X6985000Y31750000D03*
X27305000Y24130000D03*
X9525000Y31750000D03*
X24765000Y24130000D03*
X12065000Y31750000D03*
X22225000Y24130000D03*
X14605000Y31750000D03*
X19685000Y24130000D03*
X17145000Y31750000D03*
X17145000Y24130000D03*
X19685000Y31750000D03*
X14605000Y24130000D03*
X22225000Y31750000D03*
X12065000Y24130000D03*
X24765000Y31750000D03*
X9525000Y24130000D03*
X27305000Y31750000D03*
D20*
X6985000Y24130000D03*
%TD*%
D19*
%TO.C,U5*%
X47625000Y25400000D03*
X70485000Y17780000D03*
X50165000Y25400000D03*
X67945000Y17780000D03*
X52705000Y25400000D03*
X65405000Y17780000D03*
X55245000Y25400000D03*
X62865000Y17780000D03*
X57785000Y25400000D03*
X60325000Y17780000D03*
X60325000Y25400000D03*
X57785000Y17780000D03*
X62865000Y25400000D03*
X55245000Y17780000D03*
X65405000Y25400000D03*
X52705000Y17780000D03*
X67945000Y25400000D03*
X50165000Y17780000D03*
X70485000Y25400000D03*
D20*
X47625000Y17780000D03*
%TD*%
D19*
%TO.C,U4*%
X4445000Y20320000D03*
X27305000Y12700000D03*
X6985000Y20320000D03*
X24765000Y12700000D03*
X9525000Y20320000D03*
X22225000Y12700000D03*
X12065000Y20320000D03*
X19685000Y12700000D03*
X14605000Y20320000D03*
X17145000Y12700000D03*
X17145000Y20320000D03*
X14605000Y12700000D03*
X19685000Y20320000D03*
X12065000Y12700000D03*
X22225000Y20320000D03*
X9525000Y12700000D03*
X24765000Y20320000D03*
X6985000Y12700000D03*
X27305000Y20320000D03*
D20*
X4445000Y12700000D03*
%TD*%
D11*
%TO.C,RN1*%
X67945000Y34925000D03*
X65405000Y34925000D03*
X62865000Y34925000D03*
X60325000Y34925000D03*
X57785000Y34925000D03*
X55245000Y34925000D03*
X52705000Y34925000D03*
X50165000Y34925000D03*
D12*
X47625000Y34925000D03*
%TD*%
D11*
%TO.C,D1*%
X53340000Y10795000D03*
D12*
X45720000Y10795000D03*
%TD*%
D21*
%TO.C,C1*%
X8160000Y6985000D03*
D12*
X10160000Y6985000D03*
%TD*%
M02*
