%TF.GenerationSoftware,KiCad,Pcbnew,(5.1.12)-1*%
%TF.CreationDate,2022-03-19T10:44:28+01:00*%
%TF.ProjectId,8ESN,3845534e-2e6b-4696-9361-645f70636258,1.0*%
%TF.SameCoordinates,PX6d01460PY60e4b00*%
%TF.FileFunction,Legend,Top*%
%TF.FilePolarity,Positive*%
%FSLAX46Y46*%
G04 Gerber Fmt 4.6, Leading zero omitted, Abs format (unit mm)*
G04 Created by KiCad (PCBNEW (5.1.12)-1) date 2022-03-19 10:44:28*
%MOMM*%
%LPD*%
G01*
G04 APERTURE LIST*
%ADD10C,0.300000*%
%ADD11C,0.100000*%
%ADD12C,0.200000*%
%ADD13C,0.250000*%
%ADD14C,0.150000*%
%ADD15C,0.120000*%
%ADD16C,0.090000*%
G04 APERTURE END LIST*
D10*
X7806428Y41767143D02*
X7735000Y41624286D01*
X7592142Y41481429D01*
X7377857Y41267143D01*
X7306428Y41124286D01*
X7306428Y40981429D01*
X7663571Y41052858D02*
X7592142Y40910000D01*
X7449285Y40767143D01*
X7163571Y40695715D01*
X6663571Y40695715D01*
X6377857Y40767143D01*
X6235000Y40910000D01*
X6163571Y41052858D01*
X6163571Y41338572D01*
X6235000Y41481429D01*
X6377857Y41624286D01*
X6663571Y41695715D01*
X7163571Y41695715D01*
X7449285Y41624286D01*
X7592142Y41481429D01*
X7663571Y41338572D01*
X7663571Y41052858D01*
X6163571Y42624286D02*
X6163571Y42767143D01*
X6235000Y42910000D01*
X6306428Y42981429D01*
X6449285Y43052858D01*
X6735000Y43124286D01*
X7092142Y43124286D01*
X7377857Y43052858D01*
X7520714Y42981429D01*
X7592142Y42910000D01*
X7663571Y42767143D01*
X7663571Y42624286D01*
X7592142Y42481429D01*
X7520714Y42410000D01*
X7377857Y42338572D01*
X7092142Y42267143D01*
X6735000Y42267143D01*
X6449285Y42338572D01*
X6306428Y42410000D01*
X6235000Y42481429D01*
X6163571Y42624286D01*
D11*
X69081666Y39643096D02*
X69081666Y40443096D01*
X69157857Y39947858D02*
X69386428Y39643096D01*
X69386428Y40176429D02*
X69081666Y39871667D01*
X5581666Y36468096D02*
X5581666Y37268096D01*
X5657857Y36772858D02*
X5886428Y36468096D01*
X5886428Y37001429D02*
X5581666Y36696667D01*
D12*
X69227857Y39011143D02*
X69227857Y38782572D01*
X69685000Y39011143D02*
X69685000Y38782572D01*
X70427857Y39011143D02*
X70542142Y39011143D01*
X70656428Y38954000D01*
X70713571Y38896858D01*
X70770714Y38782572D01*
X70827857Y38554000D01*
X70827857Y38268286D01*
X70770714Y38039715D01*
X70713571Y37925429D01*
X70656428Y37868286D01*
X70542142Y37811143D01*
X70427857Y37811143D01*
X70313571Y37868286D01*
X70256428Y37925429D01*
X70199285Y38039715D01*
X70142142Y38268286D01*
X70142142Y38554000D01*
X70199285Y38782572D01*
X70256428Y38896858D01*
X70313571Y38954000D01*
X70427857Y39011143D01*
X71285000Y39011143D02*
X71285000Y38782572D01*
X71742142Y39011143D02*
X71742142Y38782572D01*
X26301857Y39011143D02*
X26301857Y38782572D01*
X26759000Y39011143D02*
X26759000Y38782572D01*
X27501857Y39011143D02*
X27616142Y39011143D01*
X27730428Y38954000D01*
X27787571Y38896858D01*
X27844714Y38782572D01*
X27901857Y38554000D01*
X27901857Y38268286D01*
X27844714Y38039715D01*
X27787571Y37925429D01*
X27730428Y37868286D01*
X27616142Y37811143D01*
X27501857Y37811143D01*
X27387571Y37868286D01*
X27330428Y37925429D01*
X27273285Y38039715D01*
X27216142Y38268286D01*
X27216142Y38554000D01*
X27273285Y38782572D01*
X27330428Y38896858D01*
X27387571Y38954000D01*
X27501857Y39011143D01*
X28359000Y39011143D02*
X28359000Y38782572D01*
X28816142Y39011143D02*
X28816142Y38782572D01*
X57050190Y11122143D02*
X56788285Y11122143D01*
X56788285Y12836429D01*
X57050190Y12836429D01*
X57364476Y12722143D02*
X58045428Y12722143D01*
X57678761Y12265000D01*
X57835904Y12265000D01*
X57940666Y12207858D01*
X57993047Y12150715D01*
X58045428Y12036429D01*
X58045428Y11750715D01*
X57993047Y11636429D01*
X57940666Y11579286D01*
X57835904Y11522143D01*
X57521619Y11522143D01*
X57416857Y11579286D01*
X57364476Y11636429D01*
X58883523Y12150715D02*
X58516857Y12150715D01*
X58516857Y11522143D02*
X58516857Y12722143D01*
X59040666Y12722143D01*
X59407333Y11865000D02*
X59931142Y11865000D01*
X59302571Y11522143D02*
X59669238Y12722143D01*
X60035904Y11522143D01*
X60297809Y11122143D02*
X60559714Y11122143D01*
X60559714Y12836429D01*
X60297809Y12836429D01*
D10*
X47732142Y39346429D02*
X47732142Y40489286D01*
X48303571Y39917858D02*
X47160714Y39917858D01*
X46803571Y41917858D02*
X46803571Y41203572D01*
X47517857Y41132143D01*
X47446428Y41203572D01*
X47375000Y41346429D01*
X47375000Y41703572D01*
X47446428Y41846429D01*
X47517857Y41917858D01*
X47660714Y41989286D01*
X48017857Y41989286D01*
X48160714Y41917858D01*
X48232142Y41846429D01*
X48303571Y41703572D01*
X48303571Y41346429D01*
X48232142Y41203572D01*
X48160714Y41132143D01*
X46803571Y42417858D02*
X48303571Y42917858D01*
X46803571Y43417858D01*
X50843571Y40410000D02*
X49343571Y40410000D01*
X50843571Y41124286D02*
X49343571Y41124286D01*
X50843571Y41981429D01*
X49343571Y41981429D01*
X49343571Y42981429D02*
X49343571Y43124286D01*
X49415000Y43267143D01*
X49486428Y43338572D01*
X49629285Y43410000D01*
X49915000Y43481429D01*
X50272142Y43481429D01*
X50557857Y43410000D01*
X50700714Y43338572D01*
X50772142Y43267143D01*
X50843571Y43124286D01*
X50843571Y42981429D01*
X50772142Y42838572D01*
X50700714Y42767143D01*
X50557857Y42695715D01*
X50272142Y42624286D01*
X49915000Y42624286D01*
X49629285Y42695715D01*
X49486428Y42767143D01*
X49415000Y42838572D01*
X49343571Y42981429D01*
X53383571Y40410000D02*
X51883571Y40410000D01*
X53383571Y41124286D02*
X51883571Y41124286D01*
X53383571Y41981429D01*
X51883571Y41981429D01*
X53383571Y43481429D02*
X53383571Y42624286D01*
X53383571Y43052858D02*
X51883571Y43052858D01*
X52097857Y42910000D01*
X52240714Y42767143D01*
X52312142Y42624286D01*
X55923571Y40410000D02*
X54423571Y40410000D01*
X55923571Y41124286D02*
X54423571Y41124286D01*
X55923571Y41981429D01*
X54423571Y41981429D01*
X54566428Y42624286D02*
X54495000Y42695715D01*
X54423571Y42838572D01*
X54423571Y43195715D01*
X54495000Y43338572D01*
X54566428Y43410000D01*
X54709285Y43481429D01*
X54852142Y43481429D01*
X55066428Y43410000D01*
X55923571Y42552858D01*
X55923571Y43481429D01*
X58463571Y40410000D02*
X56963571Y40410000D01*
X58463571Y41124286D02*
X56963571Y41124286D01*
X58463571Y41981429D01*
X56963571Y41981429D01*
X56963571Y42552858D02*
X56963571Y43481429D01*
X57535000Y42981429D01*
X57535000Y43195715D01*
X57606428Y43338572D01*
X57677857Y43410000D01*
X57820714Y43481429D01*
X58177857Y43481429D01*
X58320714Y43410000D01*
X58392142Y43338572D01*
X58463571Y43195715D01*
X58463571Y42767143D01*
X58392142Y42624286D01*
X58320714Y42552858D01*
X61003571Y40410000D02*
X59503571Y40410000D01*
X61003571Y41124286D02*
X59503571Y41124286D01*
X61003571Y41981429D01*
X59503571Y41981429D01*
X60003571Y43338572D02*
X61003571Y43338572D01*
X59432142Y42981429D02*
X60503571Y42624286D01*
X60503571Y43552858D01*
X63543571Y40410000D02*
X62043571Y40410000D01*
X63543571Y41124286D02*
X62043571Y41124286D01*
X63543571Y41981429D01*
X62043571Y41981429D01*
X62043571Y43410000D02*
X62043571Y42695715D01*
X62757857Y42624286D01*
X62686428Y42695715D01*
X62615000Y42838572D01*
X62615000Y43195715D01*
X62686428Y43338572D01*
X62757857Y43410000D01*
X62900714Y43481429D01*
X63257857Y43481429D01*
X63400714Y43410000D01*
X63472142Y43338572D01*
X63543571Y43195715D01*
X63543571Y42838572D01*
X63472142Y42695715D01*
X63400714Y42624286D01*
X66083571Y40410000D02*
X64583571Y40410000D01*
X66083571Y41124286D02*
X64583571Y41124286D01*
X66083571Y41981429D01*
X64583571Y41981429D01*
X64583571Y43338572D02*
X64583571Y43052858D01*
X64655000Y42910000D01*
X64726428Y42838572D01*
X64940714Y42695715D01*
X65226428Y42624286D01*
X65797857Y42624286D01*
X65940714Y42695715D01*
X66012142Y42767143D01*
X66083571Y42910000D01*
X66083571Y43195715D01*
X66012142Y43338572D01*
X65940714Y43410000D01*
X65797857Y43481429D01*
X65440714Y43481429D01*
X65297857Y43410000D01*
X65226428Y43338572D01*
X65155000Y43195715D01*
X65155000Y42910000D01*
X65226428Y42767143D01*
X65297857Y42695715D01*
X65440714Y42624286D01*
X68623571Y40410000D02*
X67123571Y40410000D01*
X68623571Y41124286D02*
X67123571Y41124286D01*
X68623571Y41981429D01*
X67123571Y41981429D01*
X67123571Y42552858D02*
X67123571Y43552858D01*
X68623571Y42910000D01*
X69663571Y41195715D02*
X69663571Y41338572D01*
X69735000Y41481429D01*
X69806428Y41552858D01*
X69949285Y41624286D01*
X70235000Y41695715D01*
X70592142Y41695715D01*
X70877857Y41624286D01*
X71020714Y41552858D01*
X71092142Y41481429D01*
X71163571Y41338572D01*
X71163571Y41195715D01*
X71092142Y41052858D01*
X71020714Y40981429D01*
X70877857Y40910000D01*
X70592142Y40838572D01*
X70235000Y40838572D01*
X69949285Y40910000D01*
X69806428Y40981429D01*
X69735000Y41052858D01*
X69663571Y41195715D01*
X69663571Y42124286D02*
X71163571Y42624286D01*
X69663571Y43124286D01*
X4980714Y40096429D02*
X5052142Y40025000D01*
X5123571Y39810715D01*
X5123571Y39667858D01*
X5052142Y39453572D01*
X4909285Y39310715D01*
X4766428Y39239286D01*
X4480714Y39167858D01*
X4266428Y39167858D01*
X3980714Y39239286D01*
X3837857Y39310715D01*
X3695000Y39453572D01*
X3623571Y39667858D01*
X3623571Y39810715D01*
X3695000Y40025000D01*
X3766428Y40096429D01*
X3623571Y41025000D02*
X3623571Y41310715D01*
X3695000Y41453572D01*
X3837857Y41596429D01*
X4123571Y41667858D01*
X4623571Y41667858D01*
X4909285Y41596429D01*
X5052142Y41453572D01*
X5123571Y41310715D01*
X5123571Y41025000D01*
X5052142Y40882143D01*
X4909285Y40739286D01*
X4623571Y40667858D01*
X4123571Y40667858D01*
X3837857Y40739286D01*
X3695000Y40882143D01*
X3623571Y41025000D01*
X5123571Y42310715D02*
X3623571Y42310715D01*
X4695000Y42810715D01*
X3623571Y43310715D01*
X5123571Y43310715D01*
X26483571Y41195715D02*
X26483571Y41338572D01*
X26555000Y41481429D01*
X26626428Y41552858D01*
X26769285Y41624286D01*
X27055000Y41695715D01*
X27412142Y41695715D01*
X27697857Y41624286D01*
X27840714Y41552858D01*
X27912142Y41481429D01*
X27983571Y41338572D01*
X27983571Y41195715D01*
X27912142Y41052858D01*
X27840714Y40981429D01*
X27697857Y40910000D01*
X27412142Y40838572D01*
X27055000Y40838572D01*
X26769285Y40910000D01*
X26626428Y40981429D01*
X26555000Y41052858D01*
X26483571Y41195715D01*
X26483571Y42124286D02*
X27983571Y42624286D01*
X26483571Y43124286D01*
X25586428Y41767143D02*
X25515000Y41624286D01*
X25372142Y41481429D01*
X25157857Y41267143D01*
X25086428Y41124286D01*
X25086428Y40981429D01*
X25443571Y41052858D02*
X25372142Y40910000D01*
X25229285Y40767143D01*
X24943571Y40695715D01*
X24443571Y40695715D01*
X24157857Y40767143D01*
X24015000Y40910000D01*
X23943571Y41052858D01*
X23943571Y41338572D01*
X24015000Y41481429D01*
X24157857Y41624286D01*
X24443571Y41695715D01*
X24943571Y41695715D01*
X25229285Y41624286D01*
X25372142Y41481429D01*
X25443571Y41338572D01*
X25443571Y41052858D01*
X23943571Y42195715D02*
X23943571Y43195715D01*
X25443571Y42552858D01*
X23046428Y41767143D02*
X22975000Y41624286D01*
X22832142Y41481429D01*
X22617857Y41267143D01*
X22546428Y41124286D01*
X22546428Y40981429D01*
X22903571Y41052858D02*
X22832142Y40910000D01*
X22689285Y40767143D01*
X22403571Y40695715D01*
X21903571Y40695715D01*
X21617857Y40767143D01*
X21475000Y40910000D01*
X21403571Y41052858D01*
X21403571Y41338572D01*
X21475000Y41481429D01*
X21617857Y41624286D01*
X21903571Y41695715D01*
X22403571Y41695715D01*
X22689285Y41624286D01*
X22832142Y41481429D01*
X22903571Y41338572D01*
X22903571Y41052858D01*
X21403571Y42981429D02*
X21403571Y42695715D01*
X21475000Y42552858D01*
X21546428Y42481429D01*
X21760714Y42338572D01*
X22046428Y42267143D01*
X22617857Y42267143D01*
X22760714Y42338572D01*
X22832142Y42410000D01*
X22903571Y42552858D01*
X22903571Y42838572D01*
X22832142Y42981429D01*
X22760714Y43052858D01*
X22617857Y43124286D01*
X22260714Y43124286D01*
X22117857Y43052858D01*
X22046428Y42981429D01*
X21975000Y42838572D01*
X21975000Y42552858D01*
X22046428Y42410000D01*
X22117857Y42338572D01*
X22260714Y42267143D01*
X20506428Y41767143D02*
X20435000Y41624286D01*
X20292142Y41481429D01*
X20077857Y41267143D01*
X20006428Y41124286D01*
X20006428Y40981429D01*
X20363571Y41052858D02*
X20292142Y40910000D01*
X20149285Y40767143D01*
X19863571Y40695715D01*
X19363571Y40695715D01*
X19077857Y40767143D01*
X18935000Y40910000D01*
X18863571Y41052858D01*
X18863571Y41338572D01*
X18935000Y41481429D01*
X19077857Y41624286D01*
X19363571Y41695715D01*
X19863571Y41695715D01*
X20149285Y41624286D01*
X20292142Y41481429D01*
X20363571Y41338572D01*
X20363571Y41052858D01*
X18863571Y43052858D02*
X18863571Y42338572D01*
X19577857Y42267143D01*
X19506428Y42338572D01*
X19435000Y42481429D01*
X19435000Y42838572D01*
X19506428Y42981429D01*
X19577857Y43052858D01*
X19720714Y43124286D01*
X20077857Y43124286D01*
X20220714Y43052858D01*
X20292142Y42981429D01*
X20363571Y42838572D01*
X20363571Y42481429D01*
X20292142Y42338572D01*
X20220714Y42267143D01*
X17966428Y41767143D02*
X17895000Y41624286D01*
X17752142Y41481429D01*
X17537857Y41267143D01*
X17466428Y41124286D01*
X17466428Y40981429D01*
X17823571Y41052858D02*
X17752142Y40910000D01*
X17609285Y40767143D01*
X17323571Y40695715D01*
X16823571Y40695715D01*
X16537857Y40767143D01*
X16395000Y40910000D01*
X16323571Y41052858D01*
X16323571Y41338572D01*
X16395000Y41481429D01*
X16537857Y41624286D01*
X16823571Y41695715D01*
X17323571Y41695715D01*
X17609285Y41624286D01*
X17752142Y41481429D01*
X17823571Y41338572D01*
X17823571Y41052858D01*
X16823571Y42981429D02*
X17823571Y42981429D01*
X16252142Y42624286D02*
X17323571Y42267143D01*
X17323571Y43195715D01*
X15426428Y41767143D02*
X15355000Y41624286D01*
X15212142Y41481429D01*
X14997857Y41267143D01*
X14926428Y41124286D01*
X14926428Y40981429D01*
X15283571Y41052858D02*
X15212142Y40910000D01*
X15069285Y40767143D01*
X14783571Y40695715D01*
X14283571Y40695715D01*
X13997857Y40767143D01*
X13855000Y40910000D01*
X13783571Y41052858D01*
X13783571Y41338572D01*
X13855000Y41481429D01*
X13997857Y41624286D01*
X14283571Y41695715D01*
X14783571Y41695715D01*
X15069285Y41624286D01*
X15212142Y41481429D01*
X15283571Y41338572D01*
X15283571Y41052858D01*
X13783571Y42195715D02*
X13783571Y43124286D01*
X14355000Y42624286D01*
X14355000Y42838572D01*
X14426428Y42981429D01*
X14497857Y43052858D01*
X14640714Y43124286D01*
X14997857Y43124286D01*
X15140714Y43052858D01*
X15212142Y42981429D01*
X15283571Y42838572D01*
X15283571Y42410000D01*
X15212142Y42267143D01*
X15140714Y42195715D01*
X12886428Y41767143D02*
X12815000Y41624286D01*
X12672142Y41481429D01*
X12457857Y41267143D01*
X12386428Y41124286D01*
X12386428Y40981429D01*
X12743571Y41052858D02*
X12672142Y40910000D01*
X12529285Y40767143D01*
X12243571Y40695715D01*
X11743571Y40695715D01*
X11457857Y40767143D01*
X11315000Y40910000D01*
X11243571Y41052858D01*
X11243571Y41338572D01*
X11315000Y41481429D01*
X11457857Y41624286D01*
X11743571Y41695715D01*
X12243571Y41695715D01*
X12529285Y41624286D01*
X12672142Y41481429D01*
X12743571Y41338572D01*
X12743571Y41052858D01*
X11386428Y42267143D02*
X11315000Y42338572D01*
X11243571Y42481429D01*
X11243571Y42838572D01*
X11315000Y42981429D01*
X11386428Y43052858D01*
X11529285Y43124286D01*
X11672142Y43124286D01*
X11886428Y43052858D01*
X12743571Y42195715D01*
X12743571Y43124286D01*
X10346428Y41767143D02*
X10275000Y41624286D01*
X10132142Y41481429D01*
X9917857Y41267143D01*
X9846428Y41124286D01*
X9846428Y40981429D01*
X10203571Y41052858D02*
X10132142Y40910000D01*
X9989285Y40767143D01*
X9703571Y40695715D01*
X9203571Y40695715D01*
X8917857Y40767143D01*
X8775000Y40910000D01*
X8703571Y41052858D01*
X8703571Y41338572D01*
X8775000Y41481429D01*
X8917857Y41624286D01*
X9203571Y41695715D01*
X9703571Y41695715D01*
X9989285Y41624286D01*
X10132142Y41481429D01*
X10203571Y41338572D01*
X10203571Y41052858D01*
X10203571Y43124286D02*
X10203571Y42267143D01*
X10203571Y42695715D02*
X8703571Y42695715D01*
X8917857Y42552858D01*
X9060714Y42410000D01*
X9132142Y42267143D01*
D13*
X31253642Y46477953D02*
X31253642Y48177953D01*
X31967928Y46477953D02*
X31967928Y48177953D01*
X32825071Y46477953D01*
X32825071Y48177953D01*
X33325071Y48177953D02*
X34182214Y48177953D01*
X33753642Y46477953D02*
X33753642Y48177953D01*
X34682214Y47368429D02*
X35182214Y47368429D01*
X35396500Y46477953D02*
X34682214Y46477953D01*
X34682214Y48177953D01*
X35396500Y48177953D01*
X36896500Y46477953D02*
X36396500Y47287477D01*
X36039357Y46477953D02*
X36039357Y48177953D01*
X36610785Y48177953D01*
X36753642Y48097000D01*
X36825071Y48016048D01*
X36896500Y47854143D01*
X36896500Y47611286D01*
X36825071Y47449381D01*
X36753642Y47368429D01*
X36610785Y47287477D01*
X36039357Y47287477D01*
X38039357Y47368429D02*
X37539357Y47368429D01*
X37539357Y46477953D02*
X37539357Y48177953D01*
X38253642Y48177953D01*
X38753642Y46963667D02*
X39467928Y46963667D01*
X38610785Y46477953D02*
X39110785Y48177953D01*
X39610785Y46477953D01*
X40967928Y46639858D02*
X40896500Y46558905D01*
X40682214Y46477953D01*
X40539357Y46477953D01*
X40325071Y46558905D01*
X40182214Y46720810D01*
X40110785Y46882715D01*
X40039357Y47206524D01*
X40039357Y47449381D01*
X40110785Y47773191D01*
X40182214Y47935096D01*
X40325071Y48097000D01*
X40539357Y48177953D01*
X40682214Y48177953D01*
X40896500Y48097000D01*
X40967928Y48016048D01*
X41610785Y47368429D02*
X42110785Y47368429D01*
X42325071Y46477953D02*
X41610785Y46477953D01*
X41610785Y48177953D01*
X42325071Y48177953D01*
X31467928Y44649381D02*
X31325071Y44730334D01*
X31253642Y44811286D01*
X31182214Y44973191D01*
X31182214Y45054143D01*
X31253642Y45216048D01*
X31325071Y45297000D01*
X31467928Y45377953D01*
X31753642Y45377953D01*
X31896500Y45297000D01*
X31967928Y45216048D01*
X32039357Y45054143D01*
X32039357Y44973191D01*
X31967928Y44811286D01*
X31896500Y44730334D01*
X31753642Y44649381D01*
X31467928Y44649381D01*
X31325071Y44568429D01*
X31253642Y44487477D01*
X31182214Y44325572D01*
X31182214Y44001762D01*
X31253642Y43839858D01*
X31325071Y43758905D01*
X31467928Y43677953D01*
X31753642Y43677953D01*
X31896500Y43758905D01*
X31967928Y43839858D01*
X32039357Y44001762D01*
X32039357Y44325572D01*
X31967928Y44487477D01*
X31896500Y44568429D01*
X31753642Y44649381D01*
X33825071Y44568429D02*
X34325071Y44568429D01*
X34539357Y43677953D02*
X33825071Y43677953D01*
X33825071Y45377953D01*
X34539357Y45377953D01*
X35110785Y43758905D02*
X35325071Y43677953D01*
X35682214Y43677953D01*
X35825071Y43758905D01*
X35896500Y43839858D01*
X35967928Y44001762D01*
X35967928Y44163667D01*
X35896500Y44325572D01*
X35825071Y44406524D01*
X35682214Y44487477D01*
X35396500Y44568429D01*
X35253642Y44649381D01*
X35182214Y44730334D01*
X35110785Y44892239D01*
X35110785Y45054143D01*
X35182214Y45216048D01*
X35253642Y45297000D01*
X35396500Y45377953D01*
X35753642Y45377953D01*
X35967928Y45297000D01*
X37753642Y43677953D02*
X37753642Y45377953D01*
X38610785Y43677953D01*
X38610785Y45377953D01*
X39325071Y45377953D02*
X39325071Y44001762D01*
X39396500Y43839858D01*
X39467928Y43758905D01*
X39610785Y43677953D01*
X39896500Y43677953D01*
X40039357Y43758905D01*
X40110785Y43839858D01*
X40182214Y44001762D01*
X40182214Y45377953D01*
X40896500Y43677953D02*
X40896500Y45377953D01*
X41396500Y44163667D01*
X41896500Y45377953D01*
X41896500Y43677953D01*
X42610785Y43839858D02*
X42682214Y43758905D01*
X42610785Y43677953D01*
X42539357Y43758905D01*
X42610785Y43839858D01*
X42610785Y43677953D01*
D14*
X61252142Y3717858D02*
X61309285Y3775000D01*
X61423571Y3832143D01*
X61709285Y3832143D01*
X61823571Y3775000D01*
X61880714Y3717858D01*
X61937857Y3603572D01*
X61937857Y3489286D01*
X61880714Y3317858D01*
X61195000Y2632143D01*
X61937857Y2632143D01*
X61937857Y5172143D02*
X61252142Y5172143D01*
X61595000Y5172143D02*
X61595000Y6372143D01*
X61480714Y6200715D01*
X61366428Y6086429D01*
X61252142Y6029286D01*
D12*
X71703619Y11122143D02*
X71441714Y11122143D01*
X71441714Y12836429D01*
X71703619Y12836429D01*
X72017904Y12722143D02*
X72698857Y12722143D01*
X72332190Y12265000D01*
X72489333Y12265000D01*
X72594095Y12207858D01*
X72646476Y12150715D01*
X72698857Y12036429D01*
X72698857Y11750715D01*
X72646476Y11636429D01*
X72594095Y11579286D01*
X72489333Y11522143D01*
X72175047Y11522143D01*
X72070285Y11579286D01*
X72017904Y11636429D01*
X73536952Y12150715D02*
X73170285Y12150715D01*
X73170285Y11522143D02*
X73170285Y12722143D01*
X73694095Y12722143D01*
X74479809Y12150715D02*
X74636952Y12093572D01*
X74689333Y12036429D01*
X74741714Y11922143D01*
X74741714Y11750715D01*
X74689333Y11636429D01*
X74636952Y11579286D01*
X74532190Y11522143D01*
X74113142Y11522143D01*
X74113142Y12722143D01*
X74479809Y12722143D01*
X74584571Y12665000D01*
X74636952Y12607858D01*
X74689333Y12493572D01*
X74689333Y12379286D01*
X74636952Y12265000D01*
X74584571Y12207858D01*
X74479809Y12150715D01*
X74113142Y12150715D01*
X75108380Y11122143D02*
X75370285Y11122143D01*
X75370285Y12836429D01*
X75108380Y12836429D01*
D15*
%TO.C,J1*%
X40150000Y1445000D02*
X40150000Y-7675000D01*
X36050000Y1445000D02*
X36050000Y-7675000D01*
X63630000Y1445000D02*
X63630000Y-7675000D01*
X63630000Y-7675000D02*
X12570000Y-7675000D01*
X12570000Y-7675000D02*
X12570000Y1445000D01*
X12570000Y1445000D02*
X63630000Y1445000D01*
X58420000Y7065000D02*
X58920000Y8065000D01*
X58920000Y8065000D02*
X57920000Y8065000D01*
X57920000Y8065000D02*
X58420000Y7065000D01*
%TO.C,RN2*%
X28745000Y33525000D02*
X28745000Y36325000D01*
X28745000Y36325000D02*
X5545000Y36325000D01*
X5545000Y36325000D02*
X5545000Y33525000D01*
X5545000Y33525000D02*
X28745000Y33525000D01*
X26035000Y33525000D02*
X26035000Y36325000D01*
%TO.C,R9*%
X33960000Y41783000D02*
X34910000Y41783000D01*
X39700000Y41783000D02*
X38750000Y41783000D01*
X34910000Y40863000D02*
X38750000Y40863000D01*
X34910000Y42703000D02*
X34910000Y40863000D01*
X38750000Y42703000D02*
X34910000Y42703000D01*
X38750000Y40863000D02*
X38750000Y42703000D01*
%TO.C,SW1*%
X65436667Y12700000D02*
X65436667Y11430000D01*
X64230000Y11500000D02*
X65436667Y11500000D01*
X64230000Y11620000D02*
X65436667Y11620000D01*
X64230000Y11740000D02*
X65436667Y11740000D01*
X64230000Y11860000D02*
X65436667Y11860000D01*
X64230000Y11980000D02*
X65436667Y11980000D01*
X64230000Y12100000D02*
X65436667Y12100000D01*
X64230000Y12220000D02*
X65436667Y12220000D01*
X64230000Y12340000D02*
X65436667Y12340000D01*
X64230000Y12460000D02*
X65436667Y12460000D01*
X64230000Y12580000D02*
X65436667Y12580000D01*
X67850000Y12700000D02*
X64230000Y12700000D01*
X67850000Y11430000D02*
X67850000Y12700000D01*
X64230000Y11430000D02*
X67850000Y11430000D01*
X64230000Y12700000D02*
X64230000Y11430000D01*
X62390000Y14415000D02*
X62390000Y13105000D01*
X62390000Y14415000D02*
X63773000Y14415000D01*
X69451000Y11075000D02*
X69451000Y9955000D01*
X69451000Y14175000D02*
X69451000Y13055000D01*
X62630000Y11025000D02*
X62630000Y9955000D01*
X62630000Y14175000D02*
X62630000Y13105000D01*
X62630000Y9955000D02*
X69451000Y9955000D01*
X62630000Y14175000D02*
X69451000Y14175000D01*
%TO.C,J2*%
X46355000Y43815000D02*
X46355000Y45085000D01*
X47625000Y43815000D02*
X46355000Y43815000D01*
X70865000Y46127929D02*
X70865000Y46525000D01*
X70105000Y46127929D02*
X70105000Y46525000D01*
X70865000Y55185000D02*
X70865000Y49185000D01*
X70105000Y55185000D02*
X70865000Y55185000D01*
X70105000Y49185000D02*
X70105000Y55185000D01*
X69215000Y46525000D02*
X69215000Y49185000D01*
X68325000Y46127929D02*
X68325000Y46525000D01*
X67565000Y46127929D02*
X67565000Y46525000D01*
X68325000Y55185000D02*
X68325000Y49185000D01*
X67565000Y55185000D02*
X68325000Y55185000D01*
X67565000Y49185000D02*
X67565000Y55185000D01*
X66675000Y46525000D02*
X66675000Y49185000D01*
X65785000Y46127929D02*
X65785000Y46525000D01*
X65025000Y46127929D02*
X65025000Y46525000D01*
X65785000Y55185000D02*
X65785000Y49185000D01*
X65025000Y55185000D02*
X65785000Y55185000D01*
X65025000Y49185000D02*
X65025000Y55185000D01*
X64135000Y46525000D02*
X64135000Y49185000D01*
X63245000Y46127929D02*
X63245000Y46525000D01*
X62485000Y46127929D02*
X62485000Y46525000D01*
X63245000Y55185000D02*
X63245000Y49185000D01*
X62485000Y55185000D02*
X63245000Y55185000D01*
X62485000Y49185000D02*
X62485000Y55185000D01*
X61595000Y46525000D02*
X61595000Y49185000D01*
X60705000Y46127929D02*
X60705000Y46525000D01*
X59945000Y46127929D02*
X59945000Y46525000D01*
X60705000Y55185000D02*
X60705000Y49185000D01*
X59945000Y55185000D02*
X60705000Y55185000D01*
X59945000Y49185000D02*
X59945000Y55185000D01*
X59055000Y46525000D02*
X59055000Y49185000D01*
X58165000Y46127929D02*
X58165000Y46525000D01*
X57405000Y46127929D02*
X57405000Y46525000D01*
X58165000Y55185000D02*
X58165000Y49185000D01*
X57405000Y55185000D02*
X58165000Y55185000D01*
X57405000Y49185000D02*
X57405000Y55185000D01*
X56515000Y46525000D02*
X56515000Y49185000D01*
X55625000Y46127929D02*
X55625000Y46525000D01*
X54865000Y46127929D02*
X54865000Y46525000D01*
X55625000Y55185000D02*
X55625000Y49185000D01*
X54865000Y55185000D02*
X55625000Y55185000D01*
X54865000Y49185000D02*
X54865000Y55185000D01*
X53975000Y46525000D02*
X53975000Y49185000D01*
X53085000Y46127929D02*
X53085000Y46525000D01*
X52325000Y46127929D02*
X52325000Y46525000D01*
X53085000Y55185000D02*
X53085000Y49185000D01*
X52325000Y55185000D02*
X53085000Y55185000D01*
X52325000Y49185000D02*
X52325000Y55185000D01*
X51435000Y46525000D02*
X51435000Y49185000D01*
X50545000Y46127929D02*
X50545000Y46525000D01*
X49785000Y46127929D02*
X49785000Y46525000D01*
X50545000Y55185000D02*
X50545000Y49185000D01*
X49785000Y55185000D02*
X50545000Y55185000D01*
X49785000Y49185000D02*
X49785000Y55185000D01*
X48895000Y46525000D02*
X48895000Y49185000D01*
X48005000Y46195000D02*
X48005000Y46525000D01*
X47245000Y46195000D02*
X47245000Y46525000D01*
X47905000Y49185000D02*
X47905000Y55185000D01*
X47785000Y49185000D02*
X47785000Y55185000D01*
X47665000Y49185000D02*
X47665000Y55185000D01*
X47545000Y49185000D02*
X47545000Y55185000D01*
X47425000Y49185000D02*
X47425000Y55185000D01*
X47305000Y49185000D02*
X47305000Y55185000D01*
X48005000Y55185000D02*
X48005000Y49185000D01*
X47245000Y55185000D02*
X48005000Y55185000D01*
X47245000Y49185000D02*
X47245000Y55185000D01*
X46295000Y49185000D02*
X46295000Y46525000D01*
X71815000Y49185000D02*
X46295000Y49185000D01*
X71815000Y46525000D02*
X71815000Y49185000D01*
X46295000Y46525000D02*
X71815000Y46525000D01*
%TO.C,J3*%
X3175000Y43815000D02*
X3175000Y45085000D01*
X4445000Y43815000D02*
X3175000Y43815000D01*
X27685000Y46127929D02*
X27685000Y46525000D01*
X26925000Y46127929D02*
X26925000Y46525000D01*
X27685000Y55185000D02*
X27685000Y49185000D01*
X26925000Y55185000D02*
X27685000Y55185000D01*
X26925000Y49185000D02*
X26925000Y55185000D01*
X26035000Y46525000D02*
X26035000Y49185000D01*
X25145000Y46127929D02*
X25145000Y46525000D01*
X24385000Y46127929D02*
X24385000Y46525000D01*
X25145000Y55185000D02*
X25145000Y49185000D01*
X24385000Y55185000D02*
X25145000Y55185000D01*
X24385000Y49185000D02*
X24385000Y55185000D01*
X23495000Y46525000D02*
X23495000Y49185000D01*
X22605000Y46127929D02*
X22605000Y46525000D01*
X21845000Y46127929D02*
X21845000Y46525000D01*
X22605000Y55185000D02*
X22605000Y49185000D01*
X21845000Y55185000D02*
X22605000Y55185000D01*
X21845000Y49185000D02*
X21845000Y55185000D01*
X20955000Y46525000D02*
X20955000Y49185000D01*
X20065000Y46127929D02*
X20065000Y46525000D01*
X19305000Y46127929D02*
X19305000Y46525000D01*
X20065000Y55185000D02*
X20065000Y49185000D01*
X19305000Y55185000D02*
X20065000Y55185000D01*
X19305000Y49185000D02*
X19305000Y55185000D01*
X18415000Y46525000D02*
X18415000Y49185000D01*
X17525000Y46127929D02*
X17525000Y46525000D01*
X16765000Y46127929D02*
X16765000Y46525000D01*
X17525000Y55185000D02*
X17525000Y49185000D01*
X16765000Y55185000D02*
X17525000Y55185000D01*
X16765000Y49185000D02*
X16765000Y55185000D01*
X15875000Y46525000D02*
X15875000Y49185000D01*
X14985000Y46127929D02*
X14985000Y46525000D01*
X14225000Y46127929D02*
X14225000Y46525000D01*
X14985000Y55185000D02*
X14985000Y49185000D01*
X14225000Y55185000D02*
X14985000Y55185000D01*
X14225000Y49185000D02*
X14225000Y55185000D01*
X13335000Y46525000D02*
X13335000Y49185000D01*
X12445000Y46127929D02*
X12445000Y46525000D01*
X11685000Y46127929D02*
X11685000Y46525000D01*
X12445000Y55185000D02*
X12445000Y49185000D01*
X11685000Y55185000D02*
X12445000Y55185000D01*
X11685000Y49185000D02*
X11685000Y55185000D01*
X10795000Y46525000D02*
X10795000Y49185000D01*
X9905000Y46127929D02*
X9905000Y46525000D01*
X9145000Y46127929D02*
X9145000Y46525000D01*
X9905000Y55185000D02*
X9905000Y49185000D01*
X9145000Y55185000D02*
X9905000Y55185000D01*
X9145000Y49185000D02*
X9145000Y55185000D01*
X8255000Y46525000D02*
X8255000Y49185000D01*
X7365000Y46127929D02*
X7365000Y46525000D01*
X6605000Y46127929D02*
X6605000Y46525000D01*
X7365000Y55185000D02*
X7365000Y49185000D01*
X6605000Y55185000D02*
X7365000Y55185000D01*
X6605000Y49185000D02*
X6605000Y55185000D01*
X5715000Y46525000D02*
X5715000Y49185000D01*
X4825000Y46195000D02*
X4825000Y46525000D01*
X4065000Y46195000D02*
X4065000Y46525000D01*
X4725000Y49185000D02*
X4725000Y55185000D01*
X4605000Y49185000D02*
X4605000Y55185000D01*
X4485000Y49185000D02*
X4485000Y55185000D01*
X4365000Y49185000D02*
X4365000Y55185000D01*
X4245000Y49185000D02*
X4245000Y55185000D01*
X4125000Y49185000D02*
X4125000Y55185000D01*
X4825000Y55185000D02*
X4825000Y49185000D01*
X4065000Y55185000D02*
X4825000Y55185000D01*
X4065000Y49185000D02*
X4065000Y55185000D01*
X3115000Y49185000D02*
X3115000Y46525000D01*
X28635000Y49185000D02*
X3115000Y49185000D01*
X28635000Y46525000D02*
X28635000Y49185000D01*
X3115000Y46525000D02*
X28635000Y46525000D01*
%TO.C,U1*%
X34580000Y13275000D02*
X35830000Y13275000D01*
X34580000Y38795000D02*
X34580000Y13275000D01*
X39080000Y38795000D02*
X34580000Y38795000D01*
X39080000Y13275000D02*
X39080000Y38795000D01*
X37830000Y13275000D02*
X39080000Y13275000D01*
X35830000Y13275000D02*
G75*
G02*
X37830000Y13275000I1000000J0D01*
G01*
%TO.C,R8*%
X67945000Y30830000D02*
X67945000Y30210000D01*
X68865000Y31750000D02*
G75*
G03*
X68865000Y31750000I-920000J0D01*
G01*
%TO.C,R7*%
X65405000Y30830000D02*
X65405000Y30210000D01*
X66325000Y31750000D02*
G75*
G03*
X66325000Y31750000I-920000J0D01*
G01*
%TO.C,R6*%
X62865000Y30830000D02*
X62865000Y30210000D01*
X63785000Y31750000D02*
G75*
G03*
X63785000Y31750000I-920000J0D01*
G01*
%TO.C,R5*%
X60325000Y30830000D02*
X60325000Y30210000D01*
X61245000Y31750000D02*
G75*
G03*
X61245000Y31750000I-920000J0D01*
G01*
%TO.C,R4*%
X57785000Y30830000D02*
X57785000Y30210000D01*
X58705000Y31750000D02*
G75*
G03*
X58705000Y31750000I-920000J0D01*
G01*
%TO.C,R3*%
X55245000Y30830000D02*
X55245000Y30210000D01*
X56165000Y31750000D02*
G75*
G03*
X56165000Y31750000I-920000J0D01*
G01*
%TO.C,R2*%
X52705000Y30830000D02*
X52705000Y30210000D01*
X53625000Y31750000D02*
G75*
G03*
X53625000Y31750000I-920000J0D01*
G01*
%TO.C,R1*%
X50165000Y30830000D02*
X50165000Y30210000D01*
X51085000Y31750000D02*
G75*
G03*
X51085000Y31750000I-920000J0D01*
G01*
%TO.C,D17*%
X66985000Y40087500D02*
X66985000Y37402500D01*
X68905000Y40087500D02*
X66985000Y40087500D01*
X68905000Y37402500D02*
X68905000Y40087500D01*
%TO.C,D16*%
X64445000Y40087500D02*
X64445000Y37402500D01*
X66365000Y40087500D02*
X64445000Y40087500D01*
X66365000Y37402500D02*
X66365000Y40087500D01*
%TO.C,D15*%
X61905000Y40087500D02*
X61905000Y37402500D01*
X63825000Y40087500D02*
X61905000Y40087500D01*
X63825000Y37402500D02*
X63825000Y40087500D01*
%TO.C,D14*%
X59365000Y40087500D02*
X59365000Y37402500D01*
X61285000Y40087500D02*
X59365000Y40087500D01*
X61285000Y37402500D02*
X61285000Y40087500D01*
%TO.C,D13*%
X56825000Y40087500D02*
X56825000Y37402500D01*
X58745000Y40087500D02*
X56825000Y40087500D01*
X58745000Y37402500D02*
X58745000Y40087500D01*
%TO.C,D12*%
X54285000Y40087500D02*
X54285000Y37402500D01*
X56205000Y40087500D02*
X54285000Y40087500D01*
X56205000Y37402500D02*
X56205000Y40087500D01*
%TO.C,D11*%
X51745000Y40117500D02*
X51745000Y37432500D01*
X53665000Y40117500D02*
X51745000Y40117500D01*
X53665000Y37432500D02*
X53665000Y40117500D01*
%TO.C,D10*%
X49205000Y40087500D02*
X49205000Y37402500D01*
X51125000Y40087500D02*
X49205000Y40087500D01*
X51125000Y37402500D02*
X51125000Y40087500D01*
%TO.C,D9*%
X25852000Y36590500D02*
X25852000Y39275500D01*
X23932000Y36590500D02*
X25852000Y36590500D01*
X23932000Y39275500D02*
X23932000Y36590500D01*
%TO.C,D8*%
X23312000Y36590500D02*
X23312000Y39275500D01*
X21392000Y36590500D02*
X23312000Y36590500D01*
X21392000Y39275500D02*
X21392000Y36590500D01*
%TO.C,D7*%
X20772000Y36592800D02*
X20772000Y39277800D01*
X18852000Y36592800D02*
X20772000Y36592800D01*
X18852000Y39277800D02*
X18852000Y36592800D01*
%TO.C,D6*%
X18232000Y36590500D02*
X18232000Y39275500D01*
X16312000Y36590500D02*
X18232000Y36590500D01*
X16312000Y39275500D02*
X16312000Y36590500D01*
%TO.C,D5*%
X15692000Y36590500D02*
X15692000Y39275500D01*
X13772000Y36590500D02*
X15692000Y36590500D01*
X13772000Y39275500D02*
X13772000Y36590500D01*
%TO.C,D4*%
X13152000Y36620500D02*
X13152000Y39305500D01*
X11232000Y36620500D02*
X13152000Y36620500D01*
X11232000Y39305500D02*
X11232000Y36620500D01*
%TO.C,D3*%
X10612000Y36620500D02*
X10612000Y39305500D01*
X8692000Y36620500D02*
X10612000Y36620500D01*
X8692000Y39305500D02*
X8692000Y36620500D01*
%TO.C,D2*%
X8072000Y36620500D02*
X8072000Y39305500D01*
X6152000Y36620500D02*
X8072000Y36620500D01*
X6152000Y39305500D02*
X6152000Y36620500D01*
%TO.C,U6*%
X5655000Y30190000D02*
X5655000Y28940000D01*
X28635000Y30190000D02*
X5655000Y30190000D01*
X28635000Y25690000D02*
X28635000Y30190000D01*
X5655000Y25690000D02*
X28635000Y25690000D01*
X5655000Y26940000D02*
X5655000Y25690000D01*
X5655000Y28940000D02*
G75*
G02*
X5655000Y26940000I0J-1000000D01*
G01*
%TO.C,U5*%
X46295000Y23840000D02*
X46295000Y22590000D01*
X71815000Y23840000D02*
X46295000Y23840000D01*
X71815000Y19340000D02*
X71815000Y23840000D01*
X46295000Y19340000D02*
X71815000Y19340000D01*
X46295000Y20590000D02*
X46295000Y19340000D01*
X46295000Y22590000D02*
G75*
G02*
X46295000Y20590000I0J-1000000D01*
G01*
%TO.C,U4*%
X3115000Y18760000D02*
X3115000Y17510000D01*
X28635000Y18760000D02*
X3115000Y18760000D01*
X28635000Y14260000D02*
X28635000Y18760000D01*
X3115000Y14260000D02*
X28635000Y14260000D01*
X3115000Y15510000D02*
X3115000Y14260000D01*
X3115000Y17510000D02*
G75*
G02*
X3115000Y15510000I0J-1000000D01*
G01*
%TO.C,RN1*%
X48895000Y36325000D02*
X48895000Y33525000D01*
X69385000Y36325000D02*
X46185000Y36325000D01*
X69385000Y33525000D02*
X69385000Y36325000D01*
X46185000Y33525000D02*
X69385000Y33525000D01*
X46185000Y36325000D02*
X46185000Y33525000D01*
%TO.C,D1*%
X47410000Y11915000D02*
X47410000Y9675000D01*
X47410000Y9675000D02*
X51650000Y9675000D01*
X51650000Y9675000D02*
X51650000Y11915000D01*
X51650000Y11915000D02*
X47410000Y11915000D01*
X46760000Y10795000D02*
X47410000Y10795000D01*
X52300000Y10795000D02*
X51650000Y10795000D01*
X48130000Y11915000D02*
X48130000Y9675000D01*
X48250000Y11915000D02*
X48250000Y9675000D01*
X48010000Y11915000D02*
X48010000Y9675000D01*
%TO.C,C1*%
X11714775Y5260000D02*
X11714775Y5760000D01*
X11964775Y5510000D02*
X11464775Y5510000D01*
X6559000Y6701000D02*
X6559000Y7269000D01*
X6599000Y6467000D02*
X6599000Y7503000D01*
X6639000Y6308000D02*
X6639000Y7662000D01*
X6679000Y6180000D02*
X6679000Y7790000D01*
X6719000Y6070000D02*
X6719000Y7900000D01*
X6759000Y5974000D02*
X6759000Y7996000D01*
X6799000Y5887000D02*
X6799000Y8083000D01*
X6839000Y5807000D02*
X6839000Y8163000D01*
X6879000Y5734000D02*
X6879000Y8236000D01*
X6919000Y5666000D02*
X6919000Y8304000D01*
X6959000Y5602000D02*
X6959000Y8368000D01*
X6999000Y5542000D02*
X6999000Y8428000D01*
X7039000Y5485000D02*
X7039000Y8485000D01*
X7079000Y5431000D02*
X7079000Y8539000D01*
X7119000Y5380000D02*
X7119000Y8590000D01*
X7159000Y8025000D02*
X7159000Y8638000D01*
X7159000Y5332000D02*
X7159000Y5945000D01*
X7199000Y8025000D02*
X7199000Y8684000D01*
X7199000Y5286000D02*
X7199000Y5945000D01*
X7239000Y8025000D02*
X7239000Y8728000D01*
X7239000Y5242000D02*
X7239000Y5945000D01*
X7279000Y8025000D02*
X7279000Y8770000D01*
X7279000Y5200000D02*
X7279000Y5945000D01*
X7319000Y8025000D02*
X7319000Y8811000D01*
X7319000Y5159000D02*
X7319000Y5945000D01*
X7359000Y8025000D02*
X7359000Y8849000D01*
X7359000Y5121000D02*
X7359000Y5945000D01*
X7399000Y8025000D02*
X7399000Y8886000D01*
X7399000Y5084000D02*
X7399000Y5945000D01*
X7439000Y8025000D02*
X7439000Y8922000D01*
X7439000Y5048000D02*
X7439000Y5945000D01*
X7479000Y8025000D02*
X7479000Y8956000D01*
X7479000Y5014000D02*
X7479000Y5945000D01*
X7519000Y8025000D02*
X7519000Y8989000D01*
X7519000Y4981000D02*
X7519000Y5945000D01*
X7559000Y8025000D02*
X7559000Y9020000D01*
X7559000Y4950000D02*
X7559000Y5945000D01*
X7599000Y8025000D02*
X7599000Y9050000D01*
X7599000Y4920000D02*
X7599000Y5945000D01*
X7639000Y8025000D02*
X7639000Y9080000D01*
X7639000Y4890000D02*
X7639000Y5945000D01*
X7679000Y8025000D02*
X7679000Y9107000D01*
X7679000Y4863000D02*
X7679000Y5945000D01*
X7719000Y8025000D02*
X7719000Y9134000D01*
X7719000Y4836000D02*
X7719000Y5945000D01*
X7759000Y8025000D02*
X7759000Y9160000D01*
X7759000Y4810000D02*
X7759000Y5945000D01*
X7799000Y8025000D02*
X7799000Y9185000D01*
X7799000Y4785000D02*
X7799000Y5945000D01*
X7839000Y8025000D02*
X7839000Y9209000D01*
X7839000Y4761000D02*
X7839000Y5945000D01*
X7879000Y8025000D02*
X7879000Y9232000D01*
X7879000Y4738000D02*
X7879000Y5945000D01*
X7919000Y8025000D02*
X7919000Y9253000D01*
X7919000Y4717000D02*
X7919000Y5945000D01*
X7959000Y8025000D02*
X7959000Y9275000D01*
X7959000Y4695000D02*
X7959000Y5945000D01*
X7999000Y8025000D02*
X7999000Y9295000D01*
X7999000Y4675000D02*
X7999000Y5945000D01*
X8039000Y8025000D02*
X8039000Y9314000D01*
X8039000Y4656000D02*
X8039000Y5945000D01*
X8079000Y8025000D02*
X8079000Y9333000D01*
X8079000Y4637000D02*
X8079000Y5945000D01*
X8119000Y8025000D02*
X8119000Y9350000D01*
X8119000Y4620000D02*
X8119000Y5945000D01*
X8159000Y8025000D02*
X8159000Y9367000D01*
X8159000Y4603000D02*
X8159000Y5945000D01*
X8199000Y8025000D02*
X8199000Y9383000D01*
X8199000Y4587000D02*
X8199000Y5945000D01*
X8239000Y8025000D02*
X8239000Y9399000D01*
X8239000Y4571000D02*
X8239000Y5945000D01*
X8279000Y8025000D02*
X8279000Y9413000D01*
X8279000Y4557000D02*
X8279000Y5945000D01*
X8319000Y8025000D02*
X8319000Y9427000D01*
X8319000Y4543000D02*
X8319000Y5945000D01*
X8359000Y8025000D02*
X8359000Y9440000D01*
X8359000Y4530000D02*
X8359000Y5945000D01*
X8399000Y8025000D02*
X8399000Y9453000D01*
X8399000Y4517000D02*
X8399000Y5945000D01*
X8439000Y8025000D02*
X8439000Y9465000D01*
X8439000Y4505000D02*
X8439000Y5945000D01*
X8480000Y8025000D02*
X8480000Y9476000D01*
X8480000Y4494000D02*
X8480000Y5945000D01*
X8520000Y8025000D02*
X8520000Y9486000D01*
X8520000Y4484000D02*
X8520000Y5945000D01*
X8560000Y8025000D02*
X8560000Y9496000D01*
X8560000Y4474000D02*
X8560000Y5945000D01*
X8600000Y8025000D02*
X8600000Y9505000D01*
X8600000Y4465000D02*
X8600000Y5945000D01*
X8640000Y8025000D02*
X8640000Y9513000D01*
X8640000Y4457000D02*
X8640000Y5945000D01*
X8680000Y8025000D02*
X8680000Y9521000D01*
X8680000Y4449000D02*
X8680000Y5945000D01*
X8720000Y8025000D02*
X8720000Y9528000D01*
X8720000Y4442000D02*
X8720000Y5945000D01*
X8760000Y8025000D02*
X8760000Y9535000D01*
X8760000Y4435000D02*
X8760000Y5945000D01*
X8800000Y8025000D02*
X8800000Y9541000D01*
X8800000Y4429000D02*
X8800000Y5945000D01*
X8840000Y8025000D02*
X8840000Y9546000D01*
X8840000Y4424000D02*
X8840000Y5945000D01*
X8880000Y8025000D02*
X8880000Y9550000D01*
X8880000Y4420000D02*
X8880000Y5945000D01*
X8920000Y8025000D02*
X8920000Y9554000D01*
X8920000Y4416000D02*
X8920000Y5945000D01*
X8960000Y8025000D02*
X8960000Y9558000D01*
X8960000Y4412000D02*
X8960000Y5945000D01*
X9000000Y8025000D02*
X9000000Y9561000D01*
X9000000Y4409000D02*
X9000000Y5945000D01*
X9040000Y8025000D02*
X9040000Y9563000D01*
X9040000Y4407000D02*
X9040000Y5945000D01*
X9080000Y8025000D02*
X9080000Y9564000D01*
X9080000Y4406000D02*
X9080000Y5945000D01*
X9120000Y4405000D02*
X9120000Y5945000D01*
X9120000Y8025000D02*
X9120000Y9565000D01*
X9160000Y4405000D02*
X9160000Y5945000D01*
X9160000Y8025000D02*
X9160000Y9565000D01*
X11780000Y6985000D02*
G75*
G03*
X11780000Y6985000I-2620000J0D01*
G01*
%TO.C,J1*%
D14*
X63972380Y-833333D02*
X64686666Y-833333D01*
X64829523Y-880952D01*
X64924761Y-976190D01*
X64972380Y-1119047D01*
X64972380Y-1214285D01*
X64972380Y166667D02*
X64972380Y-404761D01*
X64972380Y-119047D02*
X63972380Y-119047D01*
X64115238Y-214285D01*
X64210476Y-309523D01*
X64258095Y-404761D01*
%TO.C,RN2*%
X2103523Y35107620D02*
X1770190Y35583810D01*
X1532095Y35107620D02*
X1532095Y36107620D01*
X1913047Y36107620D01*
X2008285Y36060000D01*
X2055904Y36012381D01*
X2103523Y35917143D01*
X2103523Y35774286D01*
X2055904Y35679048D01*
X2008285Y35631429D01*
X1913047Y35583810D01*
X1532095Y35583810D01*
X2532095Y35107620D02*
X2532095Y36107620D01*
X3103523Y35107620D01*
X3103523Y36107620D01*
X3532095Y36012381D02*
X3579714Y36060000D01*
X3674952Y36107620D01*
X3913047Y36107620D01*
X4008285Y36060000D01*
X4055904Y36012381D01*
X4103523Y35917143D01*
X4103523Y35821905D01*
X4055904Y35679048D01*
X3484476Y35107620D01*
X4103523Y35107620D01*
X2960714Y33710620D02*
X2389285Y33710620D01*
X2675000Y33710620D02*
X2675000Y34710620D01*
X2579761Y34567762D01*
X2484523Y34472524D01*
X2389285Y34424905D01*
X3389285Y33710620D02*
X3389285Y34710620D01*
X3960714Y33710620D02*
X3532142Y34282048D01*
X3960714Y34710620D02*
X3389285Y34139191D01*
%TO.C,R9*%
X36663333Y39410620D02*
X36330000Y39886810D01*
X36091904Y39410620D02*
X36091904Y40410620D01*
X36472857Y40410620D01*
X36568095Y40363000D01*
X36615714Y40315381D01*
X36663333Y40220143D01*
X36663333Y40077286D01*
X36615714Y39982048D01*
X36568095Y39934429D01*
X36472857Y39886810D01*
X36091904Y39886810D01*
X37139523Y39410620D02*
X37330000Y39410620D01*
X37425238Y39458239D01*
X37472857Y39505858D01*
X37568095Y39648715D01*
X37615714Y39839191D01*
X37615714Y40220143D01*
X37568095Y40315381D01*
X37520476Y40363000D01*
X37425238Y40410620D01*
X37234761Y40410620D01*
X37139523Y40363000D01*
X37091904Y40315381D01*
X37044285Y40220143D01*
X37044285Y39982048D01*
X37091904Y39886810D01*
X37139523Y39839191D01*
X37234761Y39791572D01*
X37425238Y39791572D01*
X37520476Y39839191D01*
X37568095Y39886810D01*
X37615714Y39982048D01*
X36615714Y41203620D02*
X36044285Y41203620D01*
X36330000Y41203620D02*
X36330000Y42203620D01*
X36234761Y42060762D01*
X36139523Y41965524D01*
X36044285Y41917905D01*
X37044285Y41203620D02*
X37044285Y42203620D01*
X37615714Y41203620D02*
X37187142Y41775048D01*
X37615714Y42203620D02*
X37044285Y41632191D01*
%TO.C,SW1*%
X64706666Y14770239D02*
X64849523Y14722620D01*
X65087619Y14722620D01*
X65182857Y14770239D01*
X65230476Y14817858D01*
X65278095Y14913096D01*
X65278095Y15008334D01*
X65230476Y15103572D01*
X65182857Y15151191D01*
X65087619Y15198810D01*
X64897142Y15246429D01*
X64801904Y15294048D01*
X64754285Y15341667D01*
X64706666Y15436905D01*
X64706666Y15532143D01*
X64754285Y15627381D01*
X64801904Y15675000D01*
X64897142Y15722620D01*
X65135238Y15722620D01*
X65278095Y15675000D01*
X65611428Y15722620D02*
X65849523Y14722620D01*
X66040000Y15436905D01*
X66230476Y14722620D01*
X66468571Y15722620D01*
X67373333Y14722620D02*
X66801904Y14722620D01*
X67087619Y14722620D02*
X67087619Y15722620D01*
X66992380Y15579762D01*
X66897142Y15484524D01*
X66801904Y15436905D01*
D16*
X63185714Y13444572D02*
X63128571Y13473143D01*
X63100000Y13501715D01*
X63071428Y13558858D01*
X63071428Y13730286D01*
X63100000Y13787429D01*
X63128571Y13816000D01*
X63185714Y13844572D01*
X63271428Y13844572D01*
X63328571Y13816000D01*
X63357142Y13787429D01*
X63385714Y13730286D01*
X63385714Y13558858D01*
X63357142Y13501715D01*
X63328571Y13473143D01*
X63271428Y13444572D01*
X63185714Y13444572D01*
X63642857Y13844572D02*
X63642857Y13444572D01*
X63642857Y13787429D02*
X63671428Y13816000D01*
X63728571Y13844572D01*
X63814285Y13844572D01*
X63871428Y13816000D01*
X63900000Y13758858D01*
X63900000Y13444572D01*
%TO.C,J2*%
D14*
X44537380Y47291667D02*
X45251666Y47291667D01*
X45394523Y47244048D01*
X45489761Y47148810D01*
X45537380Y47005953D01*
X45537380Y46910715D01*
X44632619Y47720239D02*
X44585000Y47767858D01*
X44537380Y47863096D01*
X44537380Y48101191D01*
X44585000Y48196429D01*
X44632619Y48244048D01*
X44727857Y48291667D01*
X44823095Y48291667D01*
X44965952Y48244048D01*
X45537380Y47672620D01*
X45537380Y48291667D01*
%TO.C,J3*%
X1357380Y47291667D02*
X2071666Y47291667D01*
X2214523Y47244048D01*
X2309761Y47148810D01*
X2357380Y47005953D01*
X2357380Y46910715D01*
X1357380Y47672620D02*
X1357380Y48291667D01*
X1738333Y47958334D01*
X1738333Y48101191D01*
X1785952Y48196429D01*
X1833571Y48244048D01*
X1928809Y48291667D01*
X2166904Y48291667D01*
X2262142Y48244048D01*
X2309761Y48196429D01*
X2357380Y48101191D01*
X2357380Y47815477D01*
X2309761Y47720239D01*
X2262142Y47672620D01*
%TO.C,U1*%
X36195095Y12612620D02*
X36195095Y11803096D01*
X36242714Y11707858D01*
X36290333Y11660239D01*
X36385571Y11612620D01*
X36576047Y11612620D01*
X36671285Y11660239D01*
X36718904Y11707858D01*
X36766523Y11803096D01*
X36766523Y12612620D01*
X37766523Y11612620D02*
X37195095Y11612620D01*
X37480809Y11612620D02*
X37480809Y12612620D01*
X37385571Y12469762D01*
X37290333Y12374524D01*
X37195095Y12326905D01*
X36330000Y26146429D02*
X36282380Y26051191D01*
X36282380Y25908334D01*
X36330000Y25765477D01*
X36425238Y25670239D01*
X36520476Y25622620D01*
X36710952Y25575000D01*
X36853809Y25575000D01*
X37044285Y25622620D01*
X37139523Y25670239D01*
X37234761Y25765477D01*
X37282380Y25908334D01*
X37282380Y26003572D01*
X37234761Y26146429D01*
X37187142Y26194048D01*
X36853809Y26194048D01*
X36853809Y26003572D01*
X36996666Y26575000D02*
X36996666Y27051191D01*
X37282380Y26479762D02*
X36282380Y26813096D01*
X37282380Y27146429D01*
X37282380Y27955953D02*
X37282380Y27479762D01*
X36282380Y27479762D01*
X37282380Y28813096D02*
X37282380Y28241667D01*
X37282380Y28527381D02*
X36282380Y28527381D01*
X36425238Y28432143D01*
X36520476Y28336905D01*
X36568095Y28241667D01*
X36282380Y29670239D02*
X36282380Y29479762D01*
X36330000Y29384524D01*
X36377619Y29336905D01*
X36520476Y29241667D01*
X36710952Y29194048D01*
X37091904Y29194048D01*
X37187142Y29241667D01*
X37234761Y29289286D01*
X37282380Y29384524D01*
X37282380Y29575000D01*
X37234761Y29670239D01*
X37187142Y29717858D01*
X37091904Y29765477D01*
X36853809Y29765477D01*
X36758571Y29717858D01*
X36710952Y29670239D01*
X36663333Y29575000D01*
X36663333Y29384524D01*
X36710952Y29289286D01*
X36758571Y29241667D01*
X36853809Y29194048D01*
X36282380Y30051191D02*
X37282380Y30384524D01*
X36282380Y30717858D01*
X36710952Y31194048D02*
X36663333Y31098810D01*
X36615714Y31051191D01*
X36520476Y31003572D01*
X36472857Y31003572D01*
X36377619Y31051191D01*
X36330000Y31098810D01*
X36282380Y31194048D01*
X36282380Y31384524D01*
X36330000Y31479762D01*
X36377619Y31527381D01*
X36472857Y31575000D01*
X36520476Y31575000D01*
X36615714Y31527381D01*
X36663333Y31479762D01*
X36710952Y31384524D01*
X36710952Y31194048D01*
X36758571Y31098810D01*
X36806190Y31051191D01*
X36901428Y31003572D01*
X37091904Y31003572D01*
X37187142Y31051191D01*
X37234761Y31098810D01*
X37282380Y31194048D01*
X37282380Y31384524D01*
X37234761Y31479762D01*
X37187142Y31527381D01*
X37091904Y31575000D01*
X36901428Y31575000D01*
X36806190Y31527381D01*
X36758571Y31479762D01*
X36710952Y31384524D01*
%TO.C,R8*%
X67778333Y27106620D02*
X67445000Y27582810D01*
X67206904Y27106620D02*
X67206904Y28106620D01*
X67587857Y28106620D01*
X67683095Y28059000D01*
X67730714Y28011381D01*
X67778333Y27916143D01*
X67778333Y27773286D01*
X67730714Y27678048D01*
X67683095Y27630429D01*
X67587857Y27582810D01*
X67206904Y27582810D01*
X68349761Y27678048D02*
X68254523Y27725667D01*
X68206904Y27773286D01*
X68159285Y27868524D01*
X68159285Y27916143D01*
X68206904Y28011381D01*
X68254523Y28059000D01*
X68349761Y28106620D01*
X68540238Y28106620D01*
X68635476Y28059000D01*
X68683095Y28011381D01*
X68730714Y27916143D01*
X68730714Y27868524D01*
X68683095Y27773286D01*
X68635476Y27725667D01*
X68540238Y27678048D01*
X68349761Y27678048D01*
X68254523Y27630429D01*
X68206904Y27582810D01*
X68159285Y27487572D01*
X68159285Y27297096D01*
X68206904Y27201858D01*
X68254523Y27154239D01*
X68349761Y27106620D01*
X68540238Y27106620D01*
X68635476Y27154239D01*
X68683095Y27201858D01*
X68730714Y27297096D01*
X68730714Y27487572D01*
X68683095Y27582810D01*
X68635476Y27630429D01*
X68540238Y27678048D01*
%TO.C,R7*%
X65238333Y27106620D02*
X64905000Y27582810D01*
X64666904Y27106620D02*
X64666904Y28106620D01*
X65047857Y28106620D01*
X65143095Y28059000D01*
X65190714Y28011381D01*
X65238333Y27916143D01*
X65238333Y27773286D01*
X65190714Y27678048D01*
X65143095Y27630429D01*
X65047857Y27582810D01*
X64666904Y27582810D01*
X65571666Y28106620D02*
X66238333Y28106620D01*
X65809761Y27106620D01*
%TO.C,R6*%
X62698333Y27106620D02*
X62365000Y27582810D01*
X62126904Y27106620D02*
X62126904Y28106620D01*
X62507857Y28106620D01*
X62603095Y28059000D01*
X62650714Y28011381D01*
X62698333Y27916143D01*
X62698333Y27773286D01*
X62650714Y27678048D01*
X62603095Y27630429D01*
X62507857Y27582810D01*
X62126904Y27582810D01*
X63555476Y28106620D02*
X63365000Y28106620D01*
X63269761Y28059000D01*
X63222142Y28011381D01*
X63126904Y27868524D01*
X63079285Y27678048D01*
X63079285Y27297096D01*
X63126904Y27201858D01*
X63174523Y27154239D01*
X63269761Y27106620D01*
X63460238Y27106620D01*
X63555476Y27154239D01*
X63603095Y27201858D01*
X63650714Y27297096D01*
X63650714Y27535191D01*
X63603095Y27630429D01*
X63555476Y27678048D01*
X63460238Y27725667D01*
X63269761Y27725667D01*
X63174523Y27678048D01*
X63126904Y27630429D01*
X63079285Y27535191D01*
%TO.C,R5*%
X60158333Y27106620D02*
X59825000Y27582810D01*
X59586904Y27106620D02*
X59586904Y28106620D01*
X59967857Y28106620D01*
X60063095Y28059000D01*
X60110714Y28011381D01*
X60158333Y27916143D01*
X60158333Y27773286D01*
X60110714Y27678048D01*
X60063095Y27630429D01*
X59967857Y27582810D01*
X59586904Y27582810D01*
X61063095Y28106620D02*
X60586904Y28106620D01*
X60539285Y27630429D01*
X60586904Y27678048D01*
X60682142Y27725667D01*
X60920238Y27725667D01*
X61015476Y27678048D01*
X61063095Y27630429D01*
X61110714Y27535191D01*
X61110714Y27297096D01*
X61063095Y27201858D01*
X61015476Y27154239D01*
X60920238Y27106620D01*
X60682142Y27106620D01*
X60586904Y27154239D01*
X60539285Y27201858D01*
%TO.C,R4*%
X57618333Y27106620D02*
X57285000Y27582810D01*
X57046904Y27106620D02*
X57046904Y28106620D01*
X57427857Y28106620D01*
X57523095Y28059000D01*
X57570714Y28011381D01*
X57618333Y27916143D01*
X57618333Y27773286D01*
X57570714Y27678048D01*
X57523095Y27630429D01*
X57427857Y27582810D01*
X57046904Y27582810D01*
X58475476Y27773286D02*
X58475476Y27106620D01*
X58237380Y28154239D02*
X57999285Y27439953D01*
X58618333Y27439953D01*
%TO.C,R3*%
X55078333Y27106620D02*
X54745000Y27582810D01*
X54506904Y27106620D02*
X54506904Y28106620D01*
X54887857Y28106620D01*
X54983095Y28059000D01*
X55030714Y28011381D01*
X55078333Y27916143D01*
X55078333Y27773286D01*
X55030714Y27678048D01*
X54983095Y27630429D01*
X54887857Y27582810D01*
X54506904Y27582810D01*
X55411666Y28106620D02*
X56030714Y28106620D01*
X55697380Y27725667D01*
X55840238Y27725667D01*
X55935476Y27678048D01*
X55983095Y27630429D01*
X56030714Y27535191D01*
X56030714Y27297096D01*
X55983095Y27201858D01*
X55935476Y27154239D01*
X55840238Y27106620D01*
X55554523Y27106620D01*
X55459285Y27154239D01*
X55411666Y27201858D01*
%TO.C,R2*%
X52538333Y27106620D02*
X52205000Y27582810D01*
X51966904Y27106620D02*
X51966904Y28106620D01*
X52347857Y28106620D01*
X52443095Y28059000D01*
X52490714Y28011381D01*
X52538333Y27916143D01*
X52538333Y27773286D01*
X52490714Y27678048D01*
X52443095Y27630429D01*
X52347857Y27582810D01*
X51966904Y27582810D01*
X52919285Y28011381D02*
X52966904Y28059000D01*
X53062142Y28106620D01*
X53300238Y28106620D01*
X53395476Y28059000D01*
X53443095Y28011381D01*
X53490714Y27916143D01*
X53490714Y27820905D01*
X53443095Y27678048D01*
X52871666Y27106620D01*
X53490714Y27106620D01*
%TO.C,R1*%
X50125333Y27106620D02*
X49792000Y27582810D01*
X49553904Y27106620D02*
X49553904Y28106620D01*
X49934857Y28106620D01*
X50030095Y28059000D01*
X50077714Y28011381D01*
X50125333Y27916143D01*
X50125333Y27773286D01*
X50077714Y27678048D01*
X50030095Y27630429D01*
X49934857Y27582810D01*
X49553904Y27582810D01*
X51077714Y27106620D02*
X50506285Y27106620D01*
X50792000Y27106620D02*
X50792000Y28106620D01*
X50696761Y27963762D01*
X50601523Y27868524D01*
X50506285Y27820905D01*
X48697380Y30265715D02*
X48697380Y29694286D01*
X48697380Y29980000D02*
X47697380Y29980000D01*
X47840238Y29884762D01*
X47935476Y29789524D01*
X47983095Y29694286D01*
X48697380Y30694286D02*
X47697380Y30694286D01*
X48697380Y31265715D02*
X48125952Y30837143D01*
X47697380Y31265715D02*
X48268809Y30694286D01*
%TO.C,D17*%
D11*
X67095000Y36259334D02*
X67095000Y36959334D01*
X67261666Y36959334D01*
X67361666Y36926000D01*
X67428333Y36859334D01*
X67461666Y36792667D01*
X67495000Y36659334D01*
X67495000Y36559334D01*
X67461666Y36426000D01*
X67428333Y36359334D01*
X67361666Y36292667D01*
X67261666Y36259334D01*
X67095000Y36259334D01*
X68161666Y36259334D02*
X67761666Y36259334D01*
X67961666Y36259334D02*
X67961666Y36959334D01*
X67895000Y36859334D01*
X67828333Y36792667D01*
X67761666Y36759334D01*
X68395000Y36959334D02*
X68861666Y36959334D01*
X68561666Y36259334D01*
%TO.C,D16*%
X64555000Y36259334D02*
X64555000Y36959334D01*
X64721666Y36959334D01*
X64821666Y36926000D01*
X64888333Y36859334D01*
X64921666Y36792667D01*
X64955000Y36659334D01*
X64955000Y36559334D01*
X64921666Y36426000D01*
X64888333Y36359334D01*
X64821666Y36292667D01*
X64721666Y36259334D01*
X64555000Y36259334D01*
X65621666Y36259334D02*
X65221666Y36259334D01*
X65421666Y36259334D02*
X65421666Y36959334D01*
X65355000Y36859334D01*
X65288333Y36792667D01*
X65221666Y36759334D01*
X66221666Y36959334D02*
X66088333Y36959334D01*
X66021666Y36926000D01*
X65988333Y36892667D01*
X65921666Y36792667D01*
X65888333Y36659334D01*
X65888333Y36392667D01*
X65921666Y36326000D01*
X65955000Y36292667D01*
X66021666Y36259334D01*
X66155000Y36259334D01*
X66221666Y36292667D01*
X66255000Y36326000D01*
X66288333Y36392667D01*
X66288333Y36559334D01*
X66255000Y36626000D01*
X66221666Y36659334D01*
X66155000Y36692667D01*
X66021666Y36692667D01*
X65955000Y36659334D01*
X65921666Y36626000D01*
X65888333Y36559334D01*
%TO.C,D15*%
X62015000Y36259334D02*
X62015000Y36959334D01*
X62181666Y36959334D01*
X62281666Y36926000D01*
X62348333Y36859334D01*
X62381666Y36792667D01*
X62415000Y36659334D01*
X62415000Y36559334D01*
X62381666Y36426000D01*
X62348333Y36359334D01*
X62281666Y36292667D01*
X62181666Y36259334D01*
X62015000Y36259334D01*
X63081666Y36259334D02*
X62681666Y36259334D01*
X62881666Y36259334D02*
X62881666Y36959334D01*
X62815000Y36859334D01*
X62748333Y36792667D01*
X62681666Y36759334D01*
X63715000Y36959334D02*
X63381666Y36959334D01*
X63348333Y36626000D01*
X63381666Y36659334D01*
X63448333Y36692667D01*
X63615000Y36692667D01*
X63681666Y36659334D01*
X63715000Y36626000D01*
X63748333Y36559334D01*
X63748333Y36392667D01*
X63715000Y36326000D01*
X63681666Y36292667D01*
X63615000Y36259334D01*
X63448333Y36259334D01*
X63381666Y36292667D01*
X63348333Y36326000D01*
%TO.C,D14*%
X59475000Y36259334D02*
X59475000Y36959334D01*
X59641666Y36959334D01*
X59741666Y36926000D01*
X59808333Y36859334D01*
X59841666Y36792667D01*
X59875000Y36659334D01*
X59875000Y36559334D01*
X59841666Y36426000D01*
X59808333Y36359334D01*
X59741666Y36292667D01*
X59641666Y36259334D01*
X59475000Y36259334D01*
X60541666Y36259334D02*
X60141666Y36259334D01*
X60341666Y36259334D02*
X60341666Y36959334D01*
X60275000Y36859334D01*
X60208333Y36792667D01*
X60141666Y36759334D01*
X61141666Y36726000D02*
X61141666Y36259334D01*
X60975000Y36992667D02*
X60808333Y36492667D01*
X61241666Y36492667D01*
%TO.C,D13*%
X56935000Y36259334D02*
X56935000Y36959334D01*
X57101666Y36959334D01*
X57201666Y36926000D01*
X57268333Y36859334D01*
X57301666Y36792667D01*
X57335000Y36659334D01*
X57335000Y36559334D01*
X57301666Y36426000D01*
X57268333Y36359334D01*
X57201666Y36292667D01*
X57101666Y36259334D01*
X56935000Y36259334D01*
X58001666Y36259334D02*
X57601666Y36259334D01*
X57801666Y36259334D02*
X57801666Y36959334D01*
X57735000Y36859334D01*
X57668333Y36792667D01*
X57601666Y36759334D01*
X58235000Y36959334D02*
X58668333Y36959334D01*
X58435000Y36692667D01*
X58535000Y36692667D01*
X58601666Y36659334D01*
X58635000Y36626000D01*
X58668333Y36559334D01*
X58668333Y36392667D01*
X58635000Y36326000D01*
X58601666Y36292667D01*
X58535000Y36259334D01*
X58335000Y36259334D01*
X58268333Y36292667D01*
X58235000Y36326000D01*
%TO.C,D12*%
X54395000Y36259334D02*
X54395000Y36959334D01*
X54561666Y36959334D01*
X54661666Y36926000D01*
X54728333Y36859334D01*
X54761666Y36792667D01*
X54795000Y36659334D01*
X54795000Y36559334D01*
X54761666Y36426000D01*
X54728333Y36359334D01*
X54661666Y36292667D01*
X54561666Y36259334D01*
X54395000Y36259334D01*
X55461666Y36259334D02*
X55061666Y36259334D01*
X55261666Y36259334D02*
X55261666Y36959334D01*
X55195000Y36859334D01*
X55128333Y36792667D01*
X55061666Y36759334D01*
X55728333Y36892667D02*
X55761666Y36926000D01*
X55828333Y36959334D01*
X55995000Y36959334D01*
X56061666Y36926000D01*
X56095000Y36892667D01*
X56128333Y36826000D01*
X56128333Y36759334D01*
X56095000Y36659334D01*
X55695000Y36259334D01*
X56128333Y36259334D01*
%TO.C,D11*%
X51855000Y36259334D02*
X51855000Y36959334D01*
X52021666Y36959334D01*
X52121666Y36926000D01*
X52188333Y36859334D01*
X52221666Y36792667D01*
X52255000Y36659334D01*
X52255000Y36559334D01*
X52221666Y36426000D01*
X52188333Y36359334D01*
X52121666Y36292667D01*
X52021666Y36259334D01*
X51855000Y36259334D01*
X52921666Y36259334D02*
X52521666Y36259334D01*
X52721666Y36259334D02*
X52721666Y36959334D01*
X52655000Y36859334D01*
X52588333Y36792667D01*
X52521666Y36759334D01*
X53588333Y36259334D02*
X53188333Y36259334D01*
X53388333Y36259334D02*
X53388333Y36959334D01*
X53321666Y36859334D01*
X53255000Y36792667D01*
X53188333Y36759334D01*
%TO.C,D10*%
X49315000Y36259334D02*
X49315000Y36959334D01*
X49481666Y36959334D01*
X49581666Y36926000D01*
X49648333Y36859334D01*
X49681666Y36792667D01*
X49715000Y36659334D01*
X49715000Y36559334D01*
X49681666Y36426000D01*
X49648333Y36359334D01*
X49581666Y36292667D01*
X49481666Y36259334D01*
X49315000Y36259334D01*
X50381666Y36259334D02*
X49981666Y36259334D01*
X50181666Y36259334D02*
X50181666Y36959334D01*
X50115000Y36859334D01*
X50048333Y36792667D01*
X49981666Y36759334D01*
X50815000Y36959334D02*
X50881666Y36959334D01*
X50948333Y36926000D01*
X50981666Y36892667D01*
X51015000Y36826000D01*
X51048333Y36692667D01*
X51048333Y36526000D01*
X51015000Y36392667D01*
X50981666Y36326000D01*
X50948333Y36292667D01*
X50881666Y36259334D01*
X50815000Y36259334D01*
X50748333Y36292667D01*
X50715000Y36326000D01*
X50681666Y36392667D01*
X50648333Y36526000D01*
X50648333Y36692667D01*
X50681666Y36826000D01*
X50715000Y36892667D01*
X50748333Y36926000D01*
X50815000Y36959334D01*
%TO.C,D9*%
X24375333Y35751334D02*
X24375333Y36451334D01*
X24542000Y36451334D01*
X24642000Y36418000D01*
X24708666Y36351334D01*
X24742000Y36284667D01*
X24775333Y36151334D01*
X24775333Y36051334D01*
X24742000Y35918000D01*
X24708666Y35851334D01*
X24642000Y35784667D01*
X24542000Y35751334D01*
X24375333Y35751334D01*
X25108666Y35751334D02*
X25242000Y35751334D01*
X25308666Y35784667D01*
X25342000Y35818000D01*
X25408666Y35918000D01*
X25442000Y36051334D01*
X25442000Y36318000D01*
X25408666Y36384667D01*
X25375333Y36418000D01*
X25308666Y36451334D01*
X25175333Y36451334D01*
X25108666Y36418000D01*
X25075333Y36384667D01*
X25042000Y36318000D01*
X25042000Y36151334D01*
X25075333Y36084667D01*
X25108666Y36051334D01*
X25175333Y36018000D01*
X25308666Y36018000D01*
X25375333Y36051334D01*
X25408666Y36084667D01*
X25442000Y36151334D01*
%TO.C,D8*%
X21835333Y35751334D02*
X21835333Y36451334D01*
X22002000Y36451334D01*
X22102000Y36418000D01*
X22168666Y36351334D01*
X22202000Y36284667D01*
X22235333Y36151334D01*
X22235333Y36051334D01*
X22202000Y35918000D01*
X22168666Y35851334D01*
X22102000Y35784667D01*
X22002000Y35751334D01*
X21835333Y35751334D01*
X22635333Y36151334D02*
X22568666Y36184667D01*
X22535333Y36218000D01*
X22502000Y36284667D01*
X22502000Y36318000D01*
X22535333Y36384667D01*
X22568666Y36418000D01*
X22635333Y36451334D01*
X22768666Y36451334D01*
X22835333Y36418000D01*
X22868666Y36384667D01*
X22902000Y36318000D01*
X22902000Y36284667D01*
X22868666Y36218000D01*
X22835333Y36184667D01*
X22768666Y36151334D01*
X22635333Y36151334D01*
X22568666Y36118000D01*
X22535333Y36084667D01*
X22502000Y36018000D01*
X22502000Y35884667D01*
X22535333Y35818000D01*
X22568666Y35784667D01*
X22635333Y35751334D01*
X22768666Y35751334D01*
X22835333Y35784667D01*
X22868666Y35818000D01*
X22902000Y35884667D01*
X22902000Y36018000D01*
X22868666Y36084667D01*
X22835333Y36118000D01*
X22768666Y36151334D01*
%TO.C,D7*%
X19295333Y36056134D02*
X19295333Y36756134D01*
X19462000Y36756134D01*
X19562000Y36722800D01*
X19628666Y36656134D01*
X19662000Y36589467D01*
X19695333Y36456134D01*
X19695333Y36356134D01*
X19662000Y36222800D01*
X19628666Y36156134D01*
X19562000Y36089467D01*
X19462000Y36056134D01*
X19295333Y36056134D01*
X19928666Y36756134D02*
X20395333Y36756134D01*
X20095333Y36056134D01*
%TO.C,D6*%
X16755333Y36132334D02*
X16755333Y36832334D01*
X16922000Y36832334D01*
X17022000Y36799000D01*
X17088666Y36732334D01*
X17122000Y36665667D01*
X17155333Y36532334D01*
X17155333Y36432334D01*
X17122000Y36299000D01*
X17088666Y36232334D01*
X17022000Y36165667D01*
X16922000Y36132334D01*
X16755333Y36132334D01*
X17755333Y36832334D02*
X17622000Y36832334D01*
X17555333Y36799000D01*
X17522000Y36765667D01*
X17455333Y36665667D01*
X17422000Y36532334D01*
X17422000Y36265667D01*
X17455333Y36199000D01*
X17488666Y36165667D01*
X17555333Y36132334D01*
X17688666Y36132334D01*
X17755333Y36165667D01*
X17788666Y36199000D01*
X17822000Y36265667D01*
X17822000Y36432334D01*
X17788666Y36499000D01*
X17755333Y36532334D01*
X17688666Y36565667D01*
X17555333Y36565667D01*
X17488666Y36532334D01*
X17455333Y36499000D01*
X17422000Y36432334D01*
%TO.C,D5*%
X14215333Y36132334D02*
X14215333Y36832334D01*
X14382000Y36832334D01*
X14482000Y36799000D01*
X14548666Y36732334D01*
X14582000Y36665667D01*
X14615333Y36532334D01*
X14615333Y36432334D01*
X14582000Y36299000D01*
X14548666Y36232334D01*
X14482000Y36165667D01*
X14382000Y36132334D01*
X14215333Y36132334D01*
X15248666Y36832334D02*
X14915333Y36832334D01*
X14882000Y36499000D01*
X14915333Y36532334D01*
X14982000Y36565667D01*
X15148666Y36565667D01*
X15215333Y36532334D01*
X15248666Y36499000D01*
X15282000Y36432334D01*
X15282000Y36265667D01*
X15248666Y36199000D01*
X15215333Y36165667D01*
X15148666Y36132334D01*
X14982000Y36132334D01*
X14915333Y36165667D01*
X14882000Y36199000D01*
%TO.C,D4*%
X11675333Y36132334D02*
X11675333Y36832334D01*
X11842000Y36832334D01*
X11942000Y36799000D01*
X12008666Y36732334D01*
X12042000Y36665667D01*
X12075333Y36532334D01*
X12075333Y36432334D01*
X12042000Y36299000D01*
X12008666Y36232334D01*
X11942000Y36165667D01*
X11842000Y36132334D01*
X11675333Y36132334D01*
X12675333Y36599000D02*
X12675333Y36132334D01*
X12508666Y36865667D02*
X12342000Y36365667D01*
X12775333Y36365667D01*
%TO.C,D3*%
X9135333Y36132334D02*
X9135333Y36832334D01*
X9302000Y36832334D01*
X9402000Y36799000D01*
X9468666Y36732334D01*
X9502000Y36665667D01*
X9535333Y36532334D01*
X9535333Y36432334D01*
X9502000Y36299000D01*
X9468666Y36232334D01*
X9402000Y36165667D01*
X9302000Y36132334D01*
X9135333Y36132334D01*
X9768666Y36832334D02*
X10202000Y36832334D01*
X9968666Y36565667D01*
X10068666Y36565667D01*
X10135333Y36532334D01*
X10168666Y36499000D01*
X10202000Y36432334D01*
X10202000Y36265667D01*
X10168666Y36199000D01*
X10135333Y36165667D01*
X10068666Y36132334D01*
X9868666Y36132334D01*
X9802000Y36165667D01*
X9768666Y36199000D01*
%TO.C,D2*%
X6722333Y36132334D02*
X6722333Y36832334D01*
X6889000Y36832334D01*
X6989000Y36799000D01*
X7055666Y36732334D01*
X7089000Y36665667D01*
X7122333Y36532334D01*
X7122333Y36432334D01*
X7089000Y36299000D01*
X7055666Y36232334D01*
X6989000Y36165667D01*
X6889000Y36132334D01*
X6722333Y36132334D01*
X7389000Y36765667D02*
X7422333Y36799000D01*
X7489000Y36832334D01*
X7655666Y36832334D01*
X7722333Y36799000D01*
X7755666Y36765667D01*
X7789000Y36699000D01*
X7789000Y36632334D01*
X7755666Y36532334D01*
X7355666Y36132334D01*
X7789000Y36132334D01*
%TO.C,U6*%
D14*
X4151380Y27305096D02*
X4960904Y27305096D01*
X5056142Y27352715D01*
X5103761Y27400334D01*
X5151380Y27495572D01*
X5151380Y27686048D01*
X5103761Y27781286D01*
X5056142Y27828905D01*
X4960904Y27876524D01*
X4151380Y27876524D01*
X4151380Y28781286D02*
X4151380Y28590810D01*
X4199000Y28495572D01*
X4246619Y28447953D01*
X4389476Y28352715D01*
X4579952Y28305096D01*
X4960904Y28305096D01*
X5056142Y28352715D01*
X5103761Y28400334D01*
X5151380Y28495572D01*
X5151380Y28686048D01*
X5103761Y28781286D01*
X5056142Y28828905D01*
X4960904Y28876524D01*
X4722809Y28876524D01*
X4627571Y28828905D01*
X4579952Y28781286D01*
X4532333Y28686048D01*
X4532333Y28495572D01*
X4579952Y28400334D01*
X4627571Y28352715D01*
X4722809Y28305096D01*
X14232380Y28487620D02*
X14232380Y27678096D01*
X14280000Y27582858D01*
X14327619Y27535239D01*
X14422857Y27487620D01*
X14613333Y27487620D01*
X14708571Y27535239D01*
X14756190Y27582858D01*
X14803809Y27678096D01*
X14803809Y28487620D01*
X15756190Y27487620D02*
X15280000Y27487620D01*
X15280000Y28487620D01*
X16089523Y27487620D02*
X16089523Y28487620D01*
X16660952Y27487620D01*
X16660952Y28487620D01*
X17089523Y28392381D02*
X17137142Y28440000D01*
X17232380Y28487620D01*
X17470476Y28487620D01*
X17565714Y28440000D01*
X17613333Y28392381D01*
X17660952Y28297143D01*
X17660952Y28201905D01*
X17613333Y28059048D01*
X17041904Y27487620D01*
X17660952Y27487620D01*
X18232380Y28059048D02*
X18137142Y28106667D01*
X18089523Y28154286D01*
X18041904Y28249524D01*
X18041904Y28297143D01*
X18089523Y28392381D01*
X18137142Y28440000D01*
X18232380Y28487620D01*
X18422857Y28487620D01*
X18518095Y28440000D01*
X18565714Y28392381D01*
X18613333Y28297143D01*
X18613333Y28249524D01*
X18565714Y28154286D01*
X18518095Y28106667D01*
X18422857Y28059048D01*
X18232380Y28059048D01*
X18137142Y28011429D01*
X18089523Y27963810D01*
X18041904Y27868572D01*
X18041904Y27678096D01*
X18089523Y27582858D01*
X18137142Y27535239D01*
X18232380Y27487620D01*
X18422857Y27487620D01*
X18518095Y27535239D01*
X18565714Y27582858D01*
X18613333Y27678096D01*
X18613333Y27868572D01*
X18565714Y27963810D01*
X18518095Y28011429D01*
X18422857Y28059048D01*
X19232380Y28487620D02*
X19327619Y28487620D01*
X19422857Y28440000D01*
X19470476Y28392381D01*
X19518095Y28297143D01*
X19565714Y28106667D01*
X19565714Y27868572D01*
X19518095Y27678096D01*
X19470476Y27582858D01*
X19422857Y27535239D01*
X19327619Y27487620D01*
X19232380Y27487620D01*
X19137142Y27535239D01*
X19089523Y27582858D01*
X19041904Y27678096D01*
X18994285Y27868572D01*
X18994285Y28106667D01*
X19041904Y28297143D01*
X19089523Y28392381D01*
X19137142Y28440000D01*
X19232380Y28487620D01*
X19899047Y28487620D02*
X20518095Y28487620D01*
X20184761Y28106667D01*
X20327619Y28106667D01*
X20422857Y28059048D01*
X20470476Y28011429D01*
X20518095Y27916191D01*
X20518095Y27678096D01*
X20470476Y27582858D01*
X20422857Y27535239D01*
X20327619Y27487620D01*
X20041904Y27487620D01*
X19946666Y27535239D01*
X19899047Y27582858D01*
X20899047Y27773334D02*
X21375238Y27773334D01*
X20803809Y27487620D02*
X21137142Y28487620D01*
X21470476Y27487620D01*
%TO.C,U5*%
X44918380Y21082096D02*
X45727904Y21082096D01*
X45823142Y21129715D01*
X45870761Y21177334D01*
X45918380Y21272572D01*
X45918380Y21463048D01*
X45870761Y21558286D01*
X45823142Y21605905D01*
X45727904Y21653524D01*
X44918380Y21653524D01*
X44918380Y22605905D02*
X44918380Y22129715D01*
X45394571Y22082096D01*
X45346952Y22129715D01*
X45299333Y22224953D01*
X45299333Y22463048D01*
X45346952Y22558286D01*
X45394571Y22605905D01*
X45489809Y22653524D01*
X45727904Y22653524D01*
X45823142Y22605905D01*
X45870761Y22558286D01*
X45918380Y22463048D01*
X45918380Y22224953D01*
X45870761Y22129715D01*
X45823142Y22082096D01*
X58221952Y22137620D02*
X58888619Y22137620D01*
X58460047Y21137620D01*
X59698142Y21804286D02*
X59698142Y21137620D01*
X59460047Y22185239D02*
X59221952Y21470953D01*
X59841000Y21470953D01*
X60698142Y21137620D02*
X60221952Y21137620D01*
X60221952Y22137620D01*
X60983857Y21185239D02*
X61126714Y21137620D01*
X61364809Y21137620D01*
X61460047Y21185239D01*
X61507666Y21232858D01*
X61555285Y21328096D01*
X61555285Y21423334D01*
X61507666Y21518572D01*
X61460047Y21566191D01*
X61364809Y21613810D01*
X61174333Y21661429D01*
X61079095Y21709048D01*
X61031476Y21756667D01*
X60983857Y21851905D01*
X60983857Y21947143D01*
X61031476Y22042381D01*
X61079095Y22090000D01*
X61174333Y22137620D01*
X61412428Y22137620D01*
X61555285Y22090000D01*
X61936238Y22042381D02*
X61983857Y22090000D01*
X62079095Y22137620D01*
X62317190Y22137620D01*
X62412428Y22090000D01*
X62460047Y22042381D01*
X62507666Y21947143D01*
X62507666Y21851905D01*
X62460047Y21709048D01*
X61888619Y21137620D01*
X62507666Y21137620D01*
X63364809Y21804286D02*
X63364809Y21137620D01*
X63126714Y22185239D02*
X62888619Y21470953D01*
X63507666Y21470953D01*
X64317190Y21804286D02*
X64317190Y21137620D01*
X64079095Y22185239D02*
X63841000Y21470953D01*
X64460047Y21470953D01*
%TO.C,U4*%
X1738380Y15875096D02*
X2547904Y15875096D01*
X2643142Y15922715D01*
X2690761Y15970334D01*
X2738380Y16065572D01*
X2738380Y16256048D01*
X2690761Y16351286D01*
X2643142Y16398905D01*
X2547904Y16446524D01*
X1738380Y16446524D01*
X2071714Y17351286D02*
X2738380Y17351286D01*
X1690761Y17113191D02*
X2405047Y16875096D01*
X2405047Y17494143D01*
X13390952Y16803620D02*
X14057619Y16803620D01*
X13629047Y15803620D01*
X14867142Y16470286D02*
X14867142Y15803620D01*
X14629047Y16851239D02*
X14390952Y16136953D01*
X15010000Y16136953D01*
X15867142Y15803620D02*
X15390952Y15803620D01*
X15390952Y16803620D01*
X16152857Y15851239D02*
X16295714Y15803620D01*
X16533809Y15803620D01*
X16629047Y15851239D01*
X16676666Y15898858D01*
X16724285Y15994096D01*
X16724285Y16089334D01*
X16676666Y16184572D01*
X16629047Y16232191D01*
X16533809Y16279810D01*
X16343333Y16327429D01*
X16248095Y16375048D01*
X16200476Y16422667D01*
X16152857Y16517905D01*
X16152857Y16613143D01*
X16200476Y16708381D01*
X16248095Y16756000D01*
X16343333Y16803620D01*
X16581428Y16803620D01*
X16724285Y16756000D01*
X17057619Y16803620D02*
X17676666Y16803620D01*
X17343333Y16422667D01*
X17486190Y16422667D01*
X17581428Y16375048D01*
X17629047Y16327429D01*
X17676666Y16232191D01*
X17676666Y15994096D01*
X17629047Y15898858D01*
X17581428Y15851239D01*
X17486190Y15803620D01*
X17200476Y15803620D01*
X17105238Y15851239D01*
X17057619Y15898858D01*
X18010000Y16803620D02*
X18676666Y16803620D01*
X18248095Y15803620D01*
X19486190Y16470286D02*
X19486190Y15803620D01*
X19248095Y16851239D02*
X19010000Y16136953D01*
X19629047Y16136953D01*
%TO.C,RN1*%
X70683523Y34472620D02*
X70350190Y34948810D01*
X70112095Y34472620D02*
X70112095Y35472620D01*
X70493047Y35472620D01*
X70588285Y35425000D01*
X70635904Y35377381D01*
X70683523Y35282143D01*
X70683523Y35139286D01*
X70635904Y35044048D01*
X70588285Y34996429D01*
X70493047Y34948810D01*
X70112095Y34948810D01*
X71112095Y34472620D02*
X71112095Y35472620D01*
X71683523Y34472620D01*
X71683523Y35472620D01*
X72683523Y34472620D02*
X72112095Y34472620D01*
X72397809Y34472620D02*
X72397809Y35472620D01*
X72302571Y35329762D01*
X72207333Y35234524D01*
X72112095Y35186905D01*
X70651714Y33075620D02*
X70080285Y33075620D01*
X70366000Y33075620D02*
X70366000Y34075620D01*
X70270761Y33932762D01*
X70175523Y33837524D01*
X70080285Y33789905D01*
X71080285Y33075620D02*
X71080285Y34075620D01*
X71651714Y33075620D02*
X71223142Y33647048D01*
X71651714Y34075620D02*
X71080285Y33504191D01*
%TO.C,D1*%
X42949904Y10342620D02*
X42949904Y11342620D01*
X43188000Y11342620D01*
X43330857Y11295000D01*
X43426095Y11199762D01*
X43473714Y11104524D01*
X43521333Y10914048D01*
X43521333Y10771191D01*
X43473714Y10580715D01*
X43426095Y10485477D01*
X43330857Y10390239D01*
X43188000Y10342620D01*
X42949904Y10342620D01*
X44473714Y10342620D02*
X43902285Y10342620D01*
X44188000Y10342620D02*
X44188000Y11342620D01*
X44092761Y11199762D01*
X43997523Y11104524D01*
X43902285Y11056905D01*
X47387142Y8222620D02*
X46815714Y8222620D01*
X47101428Y8222620D02*
X47101428Y9222620D01*
X47006190Y9079762D01*
X46910952Y8984524D01*
X46815714Y8936905D01*
X47815714Y8222620D02*
X47815714Y9222620D01*
X48387142Y8222620D01*
X48387142Y9222620D01*
X49291904Y8889286D02*
X49291904Y8222620D01*
X49053809Y9270239D02*
X48815714Y8555953D01*
X49434761Y8555953D01*
X50339523Y8222620D02*
X49768095Y8222620D01*
X50053809Y8222620D02*
X50053809Y9222620D01*
X49958571Y9079762D01*
X49863333Y8984524D01*
X49768095Y8936905D01*
X51196666Y8889286D02*
X51196666Y8222620D01*
X50958571Y9270239D02*
X50720476Y8555953D01*
X51339523Y8555953D01*
X51863333Y8794048D02*
X51768095Y8841667D01*
X51720476Y8889286D01*
X51672857Y8984524D01*
X51672857Y9032143D01*
X51720476Y9127381D01*
X51768095Y9175000D01*
X51863333Y9222620D01*
X52053809Y9222620D01*
X52149047Y9175000D01*
X52196666Y9127381D01*
X52244285Y9032143D01*
X52244285Y8984524D01*
X52196666Y8889286D01*
X52149047Y8841667D01*
X52053809Y8794048D01*
X51863333Y8794048D01*
X51768095Y8746429D01*
X51720476Y8698810D01*
X51672857Y8603572D01*
X51672857Y8413096D01*
X51720476Y8317858D01*
X51768095Y8270239D01*
X51863333Y8222620D01*
X52053809Y8222620D01*
X52149047Y8270239D01*
X52196666Y8317858D01*
X52244285Y8413096D01*
X52244285Y8603572D01*
X52196666Y8698810D01*
X52149047Y8746429D01*
X52053809Y8794048D01*
X45458095Y12142620D02*
X45458095Y13142620D01*
X46029523Y12142620D02*
X45600952Y12714048D01*
X46029523Y13142620D02*
X45458095Y12571191D01*
%TO.C,C1*%
X8993333Y2877858D02*
X8945714Y2830239D01*
X8802857Y2782620D01*
X8707619Y2782620D01*
X8564761Y2830239D01*
X8469523Y2925477D01*
X8421904Y3020715D01*
X8374285Y3211191D01*
X8374285Y3354048D01*
X8421904Y3544524D01*
X8469523Y3639762D01*
X8564761Y3735000D01*
X8707619Y3782620D01*
X8802857Y3782620D01*
X8945714Y3735000D01*
X8993333Y3687381D01*
X9945714Y2782620D02*
X9374285Y2782620D01*
X9660000Y2782620D02*
X9660000Y3782620D01*
X9564761Y3639762D01*
X9469523Y3544524D01*
X9374285Y3496905D01*
X7921904Y10949286D02*
X7921904Y10282620D01*
X7683809Y11330239D02*
X7445714Y10615953D01*
X8064761Y10615953D01*
X8350476Y11282620D02*
X9017142Y11282620D01*
X8588571Y10282620D01*
X9398095Y10949286D02*
X9398095Y9949286D01*
X9874285Y10425477D02*
X9921904Y10330239D01*
X10017142Y10282620D01*
X9398095Y10425477D02*
X9445714Y10330239D01*
X9540952Y10282620D01*
X9731428Y10282620D01*
X9826666Y10330239D01*
X9874285Y10425477D01*
X9874285Y10949286D01*
X10779047Y10806429D02*
X10445714Y10806429D01*
X10445714Y10282620D02*
X10445714Y11282620D01*
X10921904Y11282620D01*
%TD*%
M02*
