%TF.GenerationSoftware,KiCad,Pcbnew,(5.1.12)-1*%
%TF.CreationDate,2022-03-19T10:44:28+01:00*%
%TF.ProjectId,8ESN,3845534e-2e6b-4696-9361-645f70636258,1.0*%
%TF.SameCoordinates,PX6d01460PY60e4b00*%
%TF.FileFunction,Copper,L1,Top*%
%TF.FilePolarity,Positive*%
%FSLAX46Y46*%
G04 Gerber Fmt 4.6, Leading zero omitted, Abs format (unit mm)*
G04 Created by KiCad (PCBNEW (5.1.12)-1) date 2022-03-19 10:44:28*
%MOMM*%
%LPD*%
G01*
G04 APERTURE LIST*
%TA.AperFunction,ComponentPad*%
%ADD10C,1.700000*%
%TD*%
%TA.AperFunction,ComponentPad*%
%ADD11O,1.600000X1.600000*%
%TD*%
%TA.AperFunction,ComponentPad*%
%ADD12R,1.600000X1.600000*%
%TD*%
%TA.AperFunction,ComponentPad*%
%ADD13O,1.400000X1.400000*%
%TD*%
%TA.AperFunction,ComponentPad*%
%ADD14C,1.400000*%
%TD*%
%TA.AperFunction,ComponentPad*%
%ADD15O,1.700000X1.700000*%
%TD*%
%TA.AperFunction,ComponentPad*%
%ADD16R,1.700000X1.700000*%
%TD*%
%TA.AperFunction,ComponentPad*%
%ADD17O,2.400000X1.600000*%
%TD*%
%TA.AperFunction,ComponentPad*%
%ADD18R,2.400000X1.600000*%
%TD*%
%TA.AperFunction,ComponentPad*%
%ADD19O,1.600000X2.400000*%
%TD*%
%TA.AperFunction,ComponentPad*%
%ADD20R,1.600000X2.400000*%
%TD*%
%TA.AperFunction,ComponentPad*%
%ADD21C,1.600000*%
%TD*%
%TA.AperFunction,ViaPad*%
%ADD22C,0.800000*%
%TD*%
%TA.AperFunction,Conductor*%
%ADD23C,0.400000*%
%TD*%
%TA.AperFunction,Conductor*%
%ADD24C,0.800000*%
%TD*%
%TA.AperFunction,Conductor*%
%ADD25C,0.254000*%
%TD*%
%TA.AperFunction,Conductor*%
%ADD26C,0.100000*%
%TD*%
G04 APERTURE END LIST*
D10*
%TO.P,J1,34*%
%TO.N,GND*%
X17780000Y3175000D03*
%TO.P,J1,32*%
%TO.N,/A11*%
X20320000Y3175000D03*
%TO.P,J1,30*%
%TO.N,/A12*%
X22860000Y3175000D03*
%TO.P,J1,28*%
%TO.N,/A13*%
X25400000Y3175000D03*
%TO.P,J1,26*%
%TO.N,/A14*%
X27940000Y3175000D03*
%TO.P,J1,24*%
%TO.N,/A15*%
X30480000Y3175000D03*
%TO.P,J1,22*%
%TO.N,/D7*%
X33020000Y3175000D03*
%TO.P,J1,20*%
%TO.N,/A4*%
X35560000Y3175000D03*
%TO.P,J1,18*%
%TO.N,/D4*%
X38100000Y3175000D03*
%TO.P,J1,16*%
%TO.N,/D3*%
X40640000Y3175000D03*
%TO.P,J1,14*%
%TO.N,/D6*%
X43180000Y3175000D03*
%TO.P,J1,12*%
%TO.N,/D1*%
X45720000Y3175000D03*
%TO.P,J1,10*%
%TO.N,/D0*%
X48260000Y3175000D03*
%TO.P,J1,8*%
%TO.N,/~IRQ*%
X50800000Y3175000D03*
%TO.P,J1,6*%
%TO.N,/~IOCTRL*%
X53340000Y3175000D03*
%TO.P,J1,4*%
%TO.N,/~RESET*%
X55880000Y3175000D03*
%TO.P,J1,2*%
%TO.N,/~ROMDIS*%
X58420000Y3175000D03*
%TO.P,J1,33*%
%TO.N,VCC*%
X17780000Y5715000D03*
%TO.P,J1,31*%
%TO.N,/A10*%
X20320000Y5715000D03*
%TO.P,J1,29*%
%TO.N,/A9*%
X22860000Y5715000D03*
%TO.P,J1,27*%
%TO.N,/A8*%
X25400000Y5715000D03*
%TO.P,J1,25*%
%TO.N,/A7*%
X27940000Y5715000D03*
%TO.P,J1,23*%
%TO.N,/A6*%
X30480000Y5715000D03*
%TO.P,J1,21*%
%TO.N,/A5*%
X33020000Y5715000D03*
%TO.P,J1,19*%
%TO.N,/D5*%
X35560000Y5715000D03*
%TO.P,J1,17*%
%TO.N,/A2*%
X38100000Y5715000D03*
%TO.P,J1,15*%
%TO.N,/A1*%
X40640000Y5715000D03*
%TO.P,J1,13*%
%TO.N,/A0*%
X43180000Y5715000D03*
%TO.P,J1,11*%
%TO.N,/A3*%
X45720000Y5715000D03*
%TO.P,J1,9*%
%TO.N,/D2*%
X48260000Y5715000D03*
%TO.P,J1,7*%
%TO.N,/R_~W*%
X50800000Y5715000D03*
%TO.P,J1,5*%
%TO.N,/~IO*%
X53340000Y5715000D03*
%TO.P,J1,3*%
%TO.N,/PHI2*%
X55880000Y5715000D03*
%TO.P,J1,1*%
%TO.N,/~MAP*%
%TA.AperFunction,ComponentPad*%
G36*
G01*
X57820000Y6565000D02*
X59020000Y6565000D01*
G75*
G02*
X59270000Y6315000I0J-250000D01*
G01*
X59270000Y5115000D01*
G75*
G02*
X59020000Y4865000I-250000J0D01*
G01*
X57820000Y4865000D01*
G75*
G02*
X57570000Y5115000I0J250000D01*
G01*
X57570000Y6315000D01*
G75*
G02*
X57820000Y6565000I250000J0D01*
G01*
G37*
%TD.AperFunction*%
%TD*%
D11*
%TO.P,RN2,9*%
%TO.N,Net-(D2-Pad2)*%
X6985000Y34925000D03*
%TO.P,RN2,8*%
%TO.N,Net-(D3-Pad2)*%
X9525000Y34925000D03*
%TO.P,RN2,7*%
%TO.N,Net-(D4-Pad2)*%
X12065000Y34925000D03*
%TO.P,RN2,6*%
%TO.N,Net-(D5-Pad2)*%
X14605000Y34925000D03*
%TO.P,RN2,5*%
%TO.N,Net-(D6-Pad2)*%
X17145000Y34925000D03*
%TO.P,RN2,4*%
%TO.N,Net-(D7-Pad2)*%
X19685000Y34925000D03*
%TO.P,RN2,3*%
%TO.N,Net-(D8-Pad2)*%
X22225000Y34925000D03*
%TO.P,RN2,2*%
%TO.N,Net-(D9-Pad2)*%
X24765000Y34925000D03*
D12*
%TO.P,RN2,1*%
%TO.N,VCC*%
X27305000Y34925000D03*
%TD*%
D13*
%TO.P,R9,2*%
%TO.N,VCC*%
X33020000Y41783000D03*
D14*
%TO.P,R9,1*%
%TO.N,Net-(R9-Pad1)*%
X40640000Y41783000D03*
%TD*%
D11*
%TO.P,SW1,2*%
%TO.N,GND*%
X69850000Y12065000D03*
D12*
%TO.P,SW1,1*%
%TO.N,Net-(R9-Pad1)*%
X62230000Y12065000D03*
%TD*%
D15*
%TO.P,J2,10*%
%TO.N,GND*%
X70485000Y45085000D03*
%TO.P,J2,9*%
%TO.N,/IN7*%
X67945000Y45085000D03*
%TO.P,J2,8*%
%TO.N,/IN6*%
X65405000Y45085000D03*
%TO.P,J2,7*%
%TO.N,/IN5*%
X62865000Y45085000D03*
%TO.P,J2,6*%
%TO.N,/IN4*%
X60325000Y45085000D03*
%TO.P,J2,5*%
%TO.N,/IN3*%
X57785000Y45085000D03*
%TO.P,J2,4*%
%TO.N,/IN2*%
X55245000Y45085000D03*
%TO.P,J2,3*%
%TO.N,/IN1*%
X52705000Y45085000D03*
%TO.P,J2,2*%
%TO.N,/IN0*%
X50165000Y45085000D03*
D16*
%TO.P,J2,1*%
%TO.N,VCC*%
X47625000Y45085000D03*
%TD*%
D15*
%TO.P,J3,10*%
%TO.N,GND*%
X27305000Y45085000D03*
%TO.P,J3,9*%
%TO.N,Net-(D9-Pad1)*%
X24765000Y45085000D03*
%TO.P,J3,8*%
%TO.N,Net-(D8-Pad1)*%
X22225000Y45085000D03*
%TO.P,J3,7*%
%TO.N,Net-(D7-Pad1)*%
X19685000Y45085000D03*
%TO.P,J3,6*%
%TO.N,Net-(D6-Pad1)*%
X17145000Y45085000D03*
%TO.P,J3,5*%
%TO.N,Net-(D5-Pad1)*%
X14605000Y45085000D03*
%TO.P,J3,4*%
%TO.N,Net-(D4-Pad1)*%
X12065000Y45085000D03*
%TO.P,J3,3*%
%TO.N,Net-(D3-Pad1)*%
X9525000Y45085000D03*
%TO.P,J3,2*%
%TO.N,Net-(D2-Pad1)*%
X6985000Y45085000D03*
D16*
%TO.P,J3,1*%
%TO.N,Net-(J3-Pad1)*%
X4445000Y45085000D03*
%TD*%
D17*
%TO.P,U1,20*%
%TO.N,VCC*%
X33020000Y14605000D03*
%TO.P,U1,10*%
%TO.N,GND*%
X40640000Y37465000D03*
%TO.P,U1,19*%
%TO.N,Net-(D1-Pad1)*%
X33020000Y17145000D03*
%TO.P,U1,9*%
%TO.N,/~IO*%
X40640000Y34925000D03*
%TO.P,U1,18*%
%TO.N,Net-(U1-Pad18)*%
X33020000Y19685000D03*
%TO.P,U1,8*%
%TO.N,/A7*%
X40640000Y32385000D03*
%TO.P,U1,17*%
%TO.N,Net-(U1-Pad17)*%
X33020000Y22225000D03*
%TO.P,U1,7*%
%TO.N,/A6*%
X40640000Y29845000D03*
%TO.P,U1,16*%
%TO.N,Net-(U1-Pad16)*%
X33020000Y24765000D03*
%TO.P,U1,6*%
%TO.N,/A5*%
X40640000Y27305000D03*
%TO.P,U1,15*%
%TO.N,Net-(U1-Pad15)*%
X33020000Y27305000D03*
%TO.P,U1,5*%
%TO.N,/A4*%
X40640000Y24765000D03*
%TO.P,U1,14*%
%TO.N,Net-(U1-Pad14)*%
X33020000Y29845000D03*
%TO.P,U1,4*%
%TO.N,/A2*%
X40640000Y22225000D03*
%TO.P,U1,13*%
%TO.N,/PHI2*%
X33020000Y32385000D03*
%TO.P,U1,3*%
%TO.N,/A1*%
X40640000Y19685000D03*
%TO.P,U1,12*%
%TO.N,Net-(R9-Pad1)*%
X33020000Y34925000D03*
%TO.P,U1,2*%
%TO.N,/A0*%
X40640000Y17145000D03*
%TO.P,U1,11*%
%TO.N,/R_~W*%
X33020000Y37465000D03*
D18*
%TO.P,U1,1*%
%TO.N,/A3*%
X40640000Y14605000D03*
%TD*%
D13*
%TO.P,R8,2*%
%TO.N,Net-(R8-Pad2)*%
X67945000Y29210000D03*
D14*
%TO.P,R8,1*%
%TO.N,/IN7*%
X67945000Y31750000D03*
%TD*%
D13*
%TO.P,R7,2*%
%TO.N,Net-(R7-Pad2)*%
X65405000Y29210000D03*
D14*
%TO.P,R7,1*%
%TO.N,/IN6*%
X65405000Y31750000D03*
%TD*%
D13*
%TO.P,R6,2*%
%TO.N,Net-(R6-Pad2)*%
X62865000Y29210000D03*
D14*
%TO.P,R6,1*%
%TO.N,/IN5*%
X62865000Y31750000D03*
%TD*%
D13*
%TO.P,R5,2*%
%TO.N,Net-(R5-Pad2)*%
X60325000Y29210000D03*
D14*
%TO.P,R5,1*%
%TO.N,/IN4*%
X60325000Y31750000D03*
%TD*%
D13*
%TO.P,R4,2*%
%TO.N,Net-(R4-Pad2)*%
X57785000Y29210000D03*
D14*
%TO.P,R4,1*%
%TO.N,/IN3*%
X57785000Y31750000D03*
%TD*%
D13*
%TO.P,R3,2*%
%TO.N,Net-(R3-Pad2)*%
X55245000Y29210000D03*
D14*
%TO.P,R3,1*%
%TO.N,/IN2*%
X55245000Y31750000D03*
%TD*%
D13*
%TO.P,R2,2*%
%TO.N,Net-(R2-Pad2)*%
X52705000Y29210000D03*
D14*
%TO.P,R2,1*%
%TO.N,/IN1*%
X52705000Y31750000D03*
%TD*%
D13*
%TO.P,R1,2*%
%TO.N,Net-(R1-Pad2)*%
X50165000Y29210000D03*
D14*
%TO.P,R1,1*%
%TO.N,/IN0*%
X50165000Y31750000D03*
%TD*%
%TO.P,D17,2*%
%TO.N,Net-(D17-Pad2)*%
%TA.AperFunction,SMDPad,CuDef*%
G36*
G01*
X67488750Y37952500D02*
X68401250Y37952500D01*
G75*
G02*
X68645000Y37708750I0J-243750D01*
G01*
X68645000Y37221250D01*
G75*
G02*
X68401250Y36977500I-243750J0D01*
G01*
X67488750Y36977500D01*
G75*
G02*
X67245000Y37221250I0J243750D01*
G01*
X67245000Y37708750D01*
G75*
G02*
X67488750Y37952500I243750J0D01*
G01*
G37*
%TD.AperFunction*%
%TO.P,D17,1*%
%TO.N,/IN7*%
%TA.AperFunction,SMDPad,CuDef*%
G36*
G01*
X67488750Y39827500D02*
X68401250Y39827500D01*
G75*
G02*
X68645000Y39583750I0J-243750D01*
G01*
X68645000Y39096250D01*
G75*
G02*
X68401250Y38852500I-243750J0D01*
G01*
X67488750Y38852500D01*
G75*
G02*
X67245000Y39096250I0J243750D01*
G01*
X67245000Y39583750D01*
G75*
G02*
X67488750Y39827500I243750J0D01*
G01*
G37*
%TD.AperFunction*%
%TD*%
%TO.P,D16,2*%
%TO.N,Net-(D16-Pad2)*%
%TA.AperFunction,SMDPad,CuDef*%
G36*
G01*
X64948750Y37952500D02*
X65861250Y37952500D01*
G75*
G02*
X66105000Y37708750I0J-243750D01*
G01*
X66105000Y37221250D01*
G75*
G02*
X65861250Y36977500I-243750J0D01*
G01*
X64948750Y36977500D01*
G75*
G02*
X64705000Y37221250I0J243750D01*
G01*
X64705000Y37708750D01*
G75*
G02*
X64948750Y37952500I243750J0D01*
G01*
G37*
%TD.AperFunction*%
%TO.P,D16,1*%
%TO.N,/IN6*%
%TA.AperFunction,SMDPad,CuDef*%
G36*
G01*
X64948750Y39827500D02*
X65861250Y39827500D01*
G75*
G02*
X66105000Y39583750I0J-243750D01*
G01*
X66105000Y39096250D01*
G75*
G02*
X65861250Y38852500I-243750J0D01*
G01*
X64948750Y38852500D01*
G75*
G02*
X64705000Y39096250I0J243750D01*
G01*
X64705000Y39583750D01*
G75*
G02*
X64948750Y39827500I243750J0D01*
G01*
G37*
%TD.AperFunction*%
%TD*%
%TO.P,D15,2*%
%TO.N,Net-(D15-Pad2)*%
%TA.AperFunction,SMDPad,CuDef*%
G36*
G01*
X62408750Y37952500D02*
X63321250Y37952500D01*
G75*
G02*
X63565000Y37708750I0J-243750D01*
G01*
X63565000Y37221250D01*
G75*
G02*
X63321250Y36977500I-243750J0D01*
G01*
X62408750Y36977500D01*
G75*
G02*
X62165000Y37221250I0J243750D01*
G01*
X62165000Y37708750D01*
G75*
G02*
X62408750Y37952500I243750J0D01*
G01*
G37*
%TD.AperFunction*%
%TO.P,D15,1*%
%TO.N,/IN5*%
%TA.AperFunction,SMDPad,CuDef*%
G36*
G01*
X62408750Y39827500D02*
X63321250Y39827500D01*
G75*
G02*
X63565000Y39583750I0J-243750D01*
G01*
X63565000Y39096250D01*
G75*
G02*
X63321250Y38852500I-243750J0D01*
G01*
X62408750Y38852500D01*
G75*
G02*
X62165000Y39096250I0J243750D01*
G01*
X62165000Y39583750D01*
G75*
G02*
X62408750Y39827500I243750J0D01*
G01*
G37*
%TD.AperFunction*%
%TD*%
%TO.P,D14,2*%
%TO.N,Net-(D14-Pad2)*%
%TA.AperFunction,SMDPad,CuDef*%
G36*
G01*
X59868750Y37952500D02*
X60781250Y37952500D01*
G75*
G02*
X61025000Y37708750I0J-243750D01*
G01*
X61025000Y37221250D01*
G75*
G02*
X60781250Y36977500I-243750J0D01*
G01*
X59868750Y36977500D01*
G75*
G02*
X59625000Y37221250I0J243750D01*
G01*
X59625000Y37708750D01*
G75*
G02*
X59868750Y37952500I243750J0D01*
G01*
G37*
%TD.AperFunction*%
%TO.P,D14,1*%
%TO.N,/IN4*%
%TA.AperFunction,SMDPad,CuDef*%
G36*
G01*
X59868750Y39827500D02*
X60781250Y39827500D01*
G75*
G02*
X61025000Y39583750I0J-243750D01*
G01*
X61025000Y39096250D01*
G75*
G02*
X60781250Y38852500I-243750J0D01*
G01*
X59868750Y38852500D01*
G75*
G02*
X59625000Y39096250I0J243750D01*
G01*
X59625000Y39583750D01*
G75*
G02*
X59868750Y39827500I243750J0D01*
G01*
G37*
%TD.AperFunction*%
%TD*%
%TO.P,D13,2*%
%TO.N,Net-(D13-Pad2)*%
%TA.AperFunction,SMDPad,CuDef*%
G36*
G01*
X57328750Y37952500D02*
X58241250Y37952500D01*
G75*
G02*
X58485000Y37708750I0J-243750D01*
G01*
X58485000Y37221250D01*
G75*
G02*
X58241250Y36977500I-243750J0D01*
G01*
X57328750Y36977500D01*
G75*
G02*
X57085000Y37221250I0J243750D01*
G01*
X57085000Y37708750D01*
G75*
G02*
X57328750Y37952500I243750J0D01*
G01*
G37*
%TD.AperFunction*%
%TO.P,D13,1*%
%TO.N,/IN3*%
%TA.AperFunction,SMDPad,CuDef*%
G36*
G01*
X57328750Y39827500D02*
X58241250Y39827500D01*
G75*
G02*
X58485000Y39583750I0J-243750D01*
G01*
X58485000Y39096250D01*
G75*
G02*
X58241250Y38852500I-243750J0D01*
G01*
X57328750Y38852500D01*
G75*
G02*
X57085000Y39096250I0J243750D01*
G01*
X57085000Y39583750D01*
G75*
G02*
X57328750Y39827500I243750J0D01*
G01*
G37*
%TD.AperFunction*%
%TD*%
%TO.P,D12,2*%
%TO.N,Net-(D12-Pad2)*%
%TA.AperFunction,SMDPad,CuDef*%
G36*
G01*
X54788750Y37952500D02*
X55701250Y37952500D01*
G75*
G02*
X55945000Y37708750I0J-243750D01*
G01*
X55945000Y37221250D01*
G75*
G02*
X55701250Y36977500I-243750J0D01*
G01*
X54788750Y36977500D01*
G75*
G02*
X54545000Y37221250I0J243750D01*
G01*
X54545000Y37708750D01*
G75*
G02*
X54788750Y37952500I243750J0D01*
G01*
G37*
%TD.AperFunction*%
%TO.P,D12,1*%
%TO.N,/IN2*%
%TA.AperFunction,SMDPad,CuDef*%
G36*
G01*
X54788750Y39827500D02*
X55701250Y39827500D01*
G75*
G02*
X55945000Y39583750I0J-243750D01*
G01*
X55945000Y39096250D01*
G75*
G02*
X55701250Y38852500I-243750J0D01*
G01*
X54788750Y38852500D01*
G75*
G02*
X54545000Y39096250I0J243750D01*
G01*
X54545000Y39583750D01*
G75*
G02*
X54788750Y39827500I243750J0D01*
G01*
G37*
%TD.AperFunction*%
%TD*%
%TO.P,D11,2*%
%TO.N,Net-(D11-Pad2)*%
%TA.AperFunction,SMDPad,CuDef*%
G36*
G01*
X52248750Y37982500D02*
X53161250Y37982500D01*
G75*
G02*
X53405000Y37738750I0J-243750D01*
G01*
X53405000Y37251250D01*
G75*
G02*
X53161250Y37007500I-243750J0D01*
G01*
X52248750Y37007500D01*
G75*
G02*
X52005000Y37251250I0J243750D01*
G01*
X52005000Y37738750D01*
G75*
G02*
X52248750Y37982500I243750J0D01*
G01*
G37*
%TD.AperFunction*%
%TO.P,D11,1*%
%TO.N,/IN1*%
%TA.AperFunction,SMDPad,CuDef*%
G36*
G01*
X52248750Y39857500D02*
X53161250Y39857500D01*
G75*
G02*
X53405000Y39613750I0J-243750D01*
G01*
X53405000Y39126250D01*
G75*
G02*
X53161250Y38882500I-243750J0D01*
G01*
X52248750Y38882500D01*
G75*
G02*
X52005000Y39126250I0J243750D01*
G01*
X52005000Y39613750D01*
G75*
G02*
X52248750Y39857500I243750J0D01*
G01*
G37*
%TD.AperFunction*%
%TD*%
%TO.P,D10,2*%
%TO.N,Net-(D10-Pad2)*%
%TA.AperFunction,SMDPad,CuDef*%
G36*
G01*
X49708750Y37952500D02*
X50621250Y37952500D01*
G75*
G02*
X50865000Y37708750I0J-243750D01*
G01*
X50865000Y37221250D01*
G75*
G02*
X50621250Y36977500I-243750J0D01*
G01*
X49708750Y36977500D01*
G75*
G02*
X49465000Y37221250I0J243750D01*
G01*
X49465000Y37708750D01*
G75*
G02*
X49708750Y37952500I243750J0D01*
G01*
G37*
%TD.AperFunction*%
%TO.P,D10,1*%
%TO.N,/IN0*%
%TA.AperFunction,SMDPad,CuDef*%
G36*
G01*
X49708750Y39827500D02*
X50621250Y39827500D01*
G75*
G02*
X50865000Y39583750I0J-243750D01*
G01*
X50865000Y39096250D01*
G75*
G02*
X50621250Y38852500I-243750J0D01*
G01*
X49708750Y38852500D01*
G75*
G02*
X49465000Y39096250I0J243750D01*
G01*
X49465000Y39583750D01*
G75*
G02*
X49708750Y39827500I243750J0D01*
G01*
G37*
%TD.AperFunction*%
%TD*%
%TO.P,D9,2*%
%TO.N,Net-(D9-Pad2)*%
%TA.AperFunction,SMDPad,CuDef*%
G36*
G01*
X25348250Y38725500D02*
X24435750Y38725500D01*
G75*
G02*
X24192000Y38969250I0J243750D01*
G01*
X24192000Y39456750D01*
G75*
G02*
X24435750Y39700500I243750J0D01*
G01*
X25348250Y39700500D01*
G75*
G02*
X25592000Y39456750I0J-243750D01*
G01*
X25592000Y38969250D01*
G75*
G02*
X25348250Y38725500I-243750J0D01*
G01*
G37*
%TD.AperFunction*%
%TO.P,D9,1*%
%TO.N,Net-(D9-Pad1)*%
%TA.AperFunction,SMDPad,CuDef*%
G36*
G01*
X25348250Y36850500D02*
X24435750Y36850500D01*
G75*
G02*
X24192000Y37094250I0J243750D01*
G01*
X24192000Y37581750D01*
G75*
G02*
X24435750Y37825500I243750J0D01*
G01*
X25348250Y37825500D01*
G75*
G02*
X25592000Y37581750I0J-243750D01*
G01*
X25592000Y37094250D01*
G75*
G02*
X25348250Y36850500I-243750J0D01*
G01*
G37*
%TD.AperFunction*%
%TD*%
%TO.P,D8,2*%
%TO.N,Net-(D8-Pad2)*%
%TA.AperFunction,SMDPad,CuDef*%
G36*
G01*
X22808250Y38725500D02*
X21895750Y38725500D01*
G75*
G02*
X21652000Y38969250I0J243750D01*
G01*
X21652000Y39456750D01*
G75*
G02*
X21895750Y39700500I243750J0D01*
G01*
X22808250Y39700500D01*
G75*
G02*
X23052000Y39456750I0J-243750D01*
G01*
X23052000Y38969250D01*
G75*
G02*
X22808250Y38725500I-243750J0D01*
G01*
G37*
%TD.AperFunction*%
%TO.P,D8,1*%
%TO.N,Net-(D8-Pad1)*%
%TA.AperFunction,SMDPad,CuDef*%
G36*
G01*
X22808250Y36850500D02*
X21895750Y36850500D01*
G75*
G02*
X21652000Y37094250I0J243750D01*
G01*
X21652000Y37581750D01*
G75*
G02*
X21895750Y37825500I243750J0D01*
G01*
X22808250Y37825500D01*
G75*
G02*
X23052000Y37581750I0J-243750D01*
G01*
X23052000Y37094250D01*
G75*
G02*
X22808250Y36850500I-243750J0D01*
G01*
G37*
%TD.AperFunction*%
%TD*%
%TO.P,D7,2*%
%TO.N,Net-(D7-Pad2)*%
%TA.AperFunction,SMDPad,CuDef*%
G36*
G01*
X20268250Y38727800D02*
X19355750Y38727800D01*
G75*
G02*
X19112000Y38971550I0J243750D01*
G01*
X19112000Y39459050D01*
G75*
G02*
X19355750Y39702800I243750J0D01*
G01*
X20268250Y39702800D01*
G75*
G02*
X20512000Y39459050I0J-243750D01*
G01*
X20512000Y38971550D01*
G75*
G02*
X20268250Y38727800I-243750J0D01*
G01*
G37*
%TD.AperFunction*%
%TO.P,D7,1*%
%TO.N,Net-(D7-Pad1)*%
%TA.AperFunction,SMDPad,CuDef*%
G36*
G01*
X20268250Y36852800D02*
X19355750Y36852800D01*
G75*
G02*
X19112000Y37096550I0J243750D01*
G01*
X19112000Y37584050D01*
G75*
G02*
X19355750Y37827800I243750J0D01*
G01*
X20268250Y37827800D01*
G75*
G02*
X20512000Y37584050I0J-243750D01*
G01*
X20512000Y37096550D01*
G75*
G02*
X20268250Y36852800I-243750J0D01*
G01*
G37*
%TD.AperFunction*%
%TD*%
%TO.P,D6,2*%
%TO.N,Net-(D6-Pad2)*%
%TA.AperFunction,SMDPad,CuDef*%
G36*
G01*
X17728250Y38725500D02*
X16815750Y38725500D01*
G75*
G02*
X16572000Y38969250I0J243750D01*
G01*
X16572000Y39456750D01*
G75*
G02*
X16815750Y39700500I243750J0D01*
G01*
X17728250Y39700500D01*
G75*
G02*
X17972000Y39456750I0J-243750D01*
G01*
X17972000Y38969250D01*
G75*
G02*
X17728250Y38725500I-243750J0D01*
G01*
G37*
%TD.AperFunction*%
%TO.P,D6,1*%
%TO.N,Net-(D6-Pad1)*%
%TA.AperFunction,SMDPad,CuDef*%
G36*
G01*
X17728250Y36850500D02*
X16815750Y36850500D01*
G75*
G02*
X16572000Y37094250I0J243750D01*
G01*
X16572000Y37581750D01*
G75*
G02*
X16815750Y37825500I243750J0D01*
G01*
X17728250Y37825500D01*
G75*
G02*
X17972000Y37581750I0J-243750D01*
G01*
X17972000Y37094250D01*
G75*
G02*
X17728250Y36850500I-243750J0D01*
G01*
G37*
%TD.AperFunction*%
%TD*%
%TO.P,D5,2*%
%TO.N,Net-(D5-Pad2)*%
%TA.AperFunction,SMDPad,CuDef*%
G36*
G01*
X15188250Y38725500D02*
X14275750Y38725500D01*
G75*
G02*
X14032000Y38969250I0J243750D01*
G01*
X14032000Y39456750D01*
G75*
G02*
X14275750Y39700500I243750J0D01*
G01*
X15188250Y39700500D01*
G75*
G02*
X15432000Y39456750I0J-243750D01*
G01*
X15432000Y38969250D01*
G75*
G02*
X15188250Y38725500I-243750J0D01*
G01*
G37*
%TD.AperFunction*%
%TO.P,D5,1*%
%TO.N,Net-(D5-Pad1)*%
%TA.AperFunction,SMDPad,CuDef*%
G36*
G01*
X15188250Y36850500D02*
X14275750Y36850500D01*
G75*
G02*
X14032000Y37094250I0J243750D01*
G01*
X14032000Y37581750D01*
G75*
G02*
X14275750Y37825500I243750J0D01*
G01*
X15188250Y37825500D01*
G75*
G02*
X15432000Y37581750I0J-243750D01*
G01*
X15432000Y37094250D01*
G75*
G02*
X15188250Y36850500I-243750J0D01*
G01*
G37*
%TD.AperFunction*%
%TD*%
%TO.P,D4,2*%
%TO.N,Net-(D4-Pad2)*%
%TA.AperFunction,SMDPad,CuDef*%
G36*
G01*
X12648250Y38755500D02*
X11735750Y38755500D01*
G75*
G02*
X11492000Y38999250I0J243750D01*
G01*
X11492000Y39486750D01*
G75*
G02*
X11735750Y39730500I243750J0D01*
G01*
X12648250Y39730500D01*
G75*
G02*
X12892000Y39486750I0J-243750D01*
G01*
X12892000Y38999250D01*
G75*
G02*
X12648250Y38755500I-243750J0D01*
G01*
G37*
%TD.AperFunction*%
%TO.P,D4,1*%
%TO.N,Net-(D4-Pad1)*%
%TA.AperFunction,SMDPad,CuDef*%
G36*
G01*
X12648250Y36880500D02*
X11735750Y36880500D01*
G75*
G02*
X11492000Y37124250I0J243750D01*
G01*
X11492000Y37611750D01*
G75*
G02*
X11735750Y37855500I243750J0D01*
G01*
X12648250Y37855500D01*
G75*
G02*
X12892000Y37611750I0J-243750D01*
G01*
X12892000Y37124250D01*
G75*
G02*
X12648250Y36880500I-243750J0D01*
G01*
G37*
%TD.AperFunction*%
%TD*%
%TO.P,D3,2*%
%TO.N,Net-(D3-Pad2)*%
%TA.AperFunction,SMDPad,CuDef*%
G36*
G01*
X10108250Y38755500D02*
X9195750Y38755500D01*
G75*
G02*
X8952000Y38999250I0J243750D01*
G01*
X8952000Y39486750D01*
G75*
G02*
X9195750Y39730500I243750J0D01*
G01*
X10108250Y39730500D01*
G75*
G02*
X10352000Y39486750I0J-243750D01*
G01*
X10352000Y38999250D01*
G75*
G02*
X10108250Y38755500I-243750J0D01*
G01*
G37*
%TD.AperFunction*%
%TO.P,D3,1*%
%TO.N,Net-(D3-Pad1)*%
%TA.AperFunction,SMDPad,CuDef*%
G36*
G01*
X10108250Y36880500D02*
X9195750Y36880500D01*
G75*
G02*
X8952000Y37124250I0J243750D01*
G01*
X8952000Y37611750D01*
G75*
G02*
X9195750Y37855500I243750J0D01*
G01*
X10108250Y37855500D01*
G75*
G02*
X10352000Y37611750I0J-243750D01*
G01*
X10352000Y37124250D01*
G75*
G02*
X10108250Y36880500I-243750J0D01*
G01*
G37*
%TD.AperFunction*%
%TD*%
%TO.P,D2,2*%
%TO.N,Net-(D2-Pad2)*%
%TA.AperFunction,SMDPad,CuDef*%
G36*
G01*
X7568250Y38755500D02*
X6655750Y38755500D01*
G75*
G02*
X6412000Y38999250I0J243750D01*
G01*
X6412000Y39486750D01*
G75*
G02*
X6655750Y39730500I243750J0D01*
G01*
X7568250Y39730500D01*
G75*
G02*
X7812000Y39486750I0J-243750D01*
G01*
X7812000Y38999250D01*
G75*
G02*
X7568250Y38755500I-243750J0D01*
G01*
G37*
%TD.AperFunction*%
%TO.P,D2,1*%
%TO.N,Net-(D2-Pad1)*%
%TA.AperFunction,SMDPad,CuDef*%
G36*
G01*
X7568250Y36880500D02*
X6655750Y36880500D01*
G75*
G02*
X6412000Y37124250I0J243750D01*
G01*
X6412000Y37611750D01*
G75*
G02*
X6655750Y37855500I243750J0D01*
G01*
X7568250Y37855500D01*
G75*
G02*
X7812000Y37611750I0J-243750D01*
G01*
X7812000Y37124250D01*
G75*
G02*
X7568250Y36880500I-243750J0D01*
G01*
G37*
%TD.AperFunction*%
%TD*%
D19*
%TO.P,U6,18*%
%TO.N,Net-(D2-Pad1)*%
X6985000Y31750000D03*
%TO.P,U6,9*%
%TO.N,GND*%
X27305000Y24130000D03*
%TO.P,U6,17*%
%TO.N,Net-(D3-Pad1)*%
X9525000Y31750000D03*
%TO.P,U6,8*%
%TO.N,Net-(U4-Pad19)*%
X24765000Y24130000D03*
%TO.P,U6,16*%
%TO.N,Net-(D4-Pad1)*%
X12065000Y31750000D03*
%TO.P,U6,7*%
%TO.N,Net-(U4-Pad16)*%
X22225000Y24130000D03*
%TO.P,U6,15*%
%TO.N,Net-(D5-Pad1)*%
X14605000Y31750000D03*
%TO.P,U6,6*%
%TO.N,Net-(U4-Pad15)*%
X19685000Y24130000D03*
%TO.P,U6,14*%
%TO.N,Net-(D6-Pad1)*%
X17145000Y31750000D03*
%TO.P,U6,5*%
%TO.N,Net-(U4-Pad12)*%
X17145000Y24130000D03*
%TO.P,U6,13*%
%TO.N,Net-(D7-Pad1)*%
X19685000Y31750000D03*
%TO.P,U6,4*%
%TO.N,Net-(U4-Pad9)*%
X14605000Y24130000D03*
%TO.P,U6,12*%
%TO.N,Net-(D8-Pad1)*%
X22225000Y31750000D03*
%TO.P,U6,3*%
%TO.N,Net-(U4-Pad6)*%
X12065000Y24130000D03*
%TO.P,U6,11*%
%TO.N,Net-(D9-Pad1)*%
X24765000Y31750000D03*
%TO.P,U6,2*%
%TO.N,Net-(U4-Pad5)*%
X9525000Y24130000D03*
%TO.P,U6,10*%
%TO.N,Net-(J3-Pad1)*%
X27305000Y31750000D03*
D20*
%TO.P,U6,1*%
%TO.N,Net-(U4-Pad2)*%
X6985000Y24130000D03*
%TD*%
D19*
%TO.P,U5,20*%
%TO.N,VCC*%
X47625000Y25400000D03*
%TO.P,U5,10*%
%TO.N,GND*%
X70485000Y17780000D03*
%TO.P,U5,19*%
%TO.N,Net-(U1-Pad17)*%
X50165000Y25400000D03*
%TO.P,U5,9*%
%TO.N,/D4*%
X67945000Y17780000D03*
%TO.P,U5,18*%
%TO.N,/D0*%
X52705000Y25400000D03*
%TO.P,U5,8*%
%TO.N,Net-(R4-Pad2)*%
X65405000Y17780000D03*
%TO.P,U5,17*%
%TO.N,Net-(R8-Pad2)*%
X55245000Y25400000D03*
%TO.P,U5,7*%
%TO.N,/D5*%
X62865000Y17780000D03*
%TO.P,U5,16*%
%TO.N,/D1*%
X57785000Y25400000D03*
%TO.P,U5,6*%
%TO.N,Net-(R3-Pad2)*%
X60325000Y17780000D03*
%TO.P,U5,15*%
%TO.N,Net-(R7-Pad2)*%
X60325000Y25400000D03*
%TO.P,U5,5*%
%TO.N,/D6*%
X57785000Y17780000D03*
%TO.P,U5,14*%
%TO.N,/D2*%
X62865000Y25400000D03*
%TO.P,U5,4*%
%TO.N,Net-(R2-Pad2)*%
X55245000Y17780000D03*
%TO.P,U5,13*%
%TO.N,Net-(R6-Pad2)*%
X65405000Y25400000D03*
%TO.P,U5,3*%
%TO.N,/D7*%
X52705000Y17780000D03*
%TO.P,U5,12*%
%TO.N,/D3*%
X67945000Y25400000D03*
%TO.P,U5,2*%
%TO.N,Net-(R1-Pad2)*%
X50165000Y17780000D03*
%TO.P,U5,11*%
%TO.N,Net-(R5-Pad2)*%
X70485000Y25400000D03*
D20*
%TO.P,U5,1*%
%TO.N,Net-(U1-Pad17)*%
X47625000Y17780000D03*
%TD*%
D19*
%TO.P,U4,20*%
%TO.N,VCC*%
X4445000Y20320000D03*
%TO.P,U4,10*%
%TO.N,GND*%
X27305000Y12700000D03*
%TO.P,U4,19*%
%TO.N,Net-(U4-Pad19)*%
X6985000Y20320000D03*
%TO.P,U4,9*%
%TO.N,Net-(U4-Pad9)*%
X24765000Y12700000D03*
%TO.P,U4,18*%
%TO.N,/D7*%
X9525000Y20320000D03*
%TO.P,U4,8*%
%TO.N,/D3*%
X22225000Y12700000D03*
%TO.P,U4,17*%
%TO.N,/D6*%
X12065000Y20320000D03*
%TO.P,U4,7*%
%TO.N,/D2*%
X19685000Y12700000D03*
%TO.P,U4,16*%
%TO.N,Net-(U4-Pad16)*%
X14605000Y20320000D03*
%TO.P,U4,6*%
%TO.N,Net-(U4-Pad6)*%
X17145000Y12700000D03*
%TO.P,U4,15*%
%TO.N,Net-(U4-Pad15)*%
X17145000Y20320000D03*
%TO.P,U4,5*%
%TO.N,Net-(U4-Pad5)*%
X14605000Y12700000D03*
%TO.P,U4,14*%
%TO.N,/D5*%
X19685000Y20320000D03*
%TO.P,U4,4*%
%TO.N,/D1*%
X12065000Y12700000D03*
%TO.P,U4,13*%
%TO.N,/D4*%
X22225000Y20320000D03*
%TO.P,U4,3*%
%TO.N,/D0*%
X9525000Y12700000D03*
%TO.P,U4,12*%
%TO.N,Net-(U4-Pad12)*%
X24765000Y20320000D03*
%TO.P,U4,2*%
%TO.N,Net-(U4-Pad2)*%
X6985000Y12700000D03*
%TO.P,U4,11*%
%TO.N,Net-(U1-Pad18)*%
X27305000Y20320000D03*
D20*
%TO.P,U4,1*%
%TO.N,GND*%
X4445000Y12700000D03*
%TD*%
D11*
%TO.P,RN1,9*%
%TO.N,Net-(D17-Pad2)*%
X67945000Y34925000D03*
%TO.P,RN1,8*%
%TO.N,Net-(D16-Pad2)*%
X65405000Y34925000D03*
%TO.P,RN1,7*%
%TO.N,Net-(D15-Pad2)*%
X62865000Y34925000D03*
%TO.P,RN1,6*%
%TO.N,Net-(D14-Pad2)*%
X60325000Y34925000D03*
%TO.P,RN1,5*%
%TO.N,Net-(D13-Pad2)*%
X57785000Y34925000D03*
%TO.P,RN1,4*%
%TO.N,Net-(D12-Pad2)*%
X55245000Y34925000D03*
%TO.P,RN1,3*%
%TO.N,Net-(D11-Pad2)*%
X52705000Y34925000D03*
%TO.P,RN1,2*%
%TO.N,Net-(D10-Pad2)*%
X50165000Y34925000D03*
D12*
%TO.P,RN1,1*%
%TO.N,VCC*%
X47625000Y34925000D03*
%TD*%
D11*
%TO.P,D1,2*%
%TO.N,/~IOCTRL*%
X53340000Y10795000D03*
D12*
%TO.P,D1,1*%
%TO.N,Net-(D1-Pad1)*%
X45720000Y10795000D03*
%TD*%
D21*
%TO.P,C1,2*%
%TO.N,GND*%
X8160000Y6985000D03*
D12*
%TO.P,C1,1*%
%TO.N,VCC*%
X10160000Y6985000D03*
%TD*%
D22*
%TO.N,/D0*%
X32902500Y11801500D03*
%TO.N,/D1*%
X17145000Y17145000D03*
X24765000Y17780000D03*
X43815000Y13970000D03*
X48514000Y12954000D03*
%TO.N,/D2*%
X24765000Y16510000D03*
X42291000Y10922000D03*
%TO.N,/D3*%
X52070000Y4445000D03*
%TO.N,/D6*%
X16510000Y18415000D03*
X57149500Y8128500D03*
X60198000Y10287000D03*
X22860000Y17780000D03*
%TO.N,/D7*%
X36890900Y1770700D03*
%TO.N,/PHI2*%
X45847000Y31115000D03*
%TO.N,Net-(D9-Pad2)*%
X23749000Y39243000D03*
%TO.N,Net-(D5-Pad2)*%
X13589000Y39243000D03*
%TO.N,Net-(D8-Pad2)*%
X21209000Y39243000D03*
%TO.N,Net-(D4-Pad2)*%
X11049000Y39243000D03*
%TO.N,Net-(D7-Pad2)*%
X18669000Y39243000D03*
%TO.N,Net-(D3-Pad2)*%
X8509000Y39243000D03*
%TO.N,Net-(D6-Pad2)*%
X16129000Y39243000D03*
%TO.N,Net-(D2-Pad2)*%
X5715000Y39243000D03*
%TD*%
D23*
%TO.N,GND*%
X17780000Y3175000D02*
X11781900Y3175000D01*
X11781900Y3175000D02*
X8160000Y6796900D01*
X8160000Y6796900D02*
X8160000Y6985000D01*
%TO.N,VCC*%
X10160000Y6985000D02*
X16510000Y6985000D01*
X16510000Y6985000D02*
X17780000Y5715000D01*
%TO.N,/D0*%
X48260000Y1905000D02*
X48260000Y3175000D01*
X47625000Y1270000D02*
X48260000Y1905000D01*
X45085000Y1270000D02*
X47625000Y1270000D01*
X44450000Y1905000D02*
X45085000Y1270000D01*
X44450000Y8255000D02*
X44450000Y1905000D01*
X42545000Y8255000D02*
X44450000Y8255000D01*
X40640000Y10160000D02*
X35560000Y10160000D01*
X35560000Y10160000D02*
X33918500Y11801500D01*
X32902500Y11801500D02*
X33918500Y11801500D01*
X40640000Y10160000D02*
X42545000Y8255000D01*
X46355000Y8255000D02*
X44450000Y8255000D01*
X47498000Y9398000D02*
X46355000Y8255000D01*
X47498000Y14097000D02*
X47498000Y9398000D01*
X48895000Y15494000D02*
X47498000Y14097000D01*
X48895000Y20955000D02*
X48895000Y15494000D01*
X52705000Y24765000D02*
X48895000Y20955000D01*
X52705000Y25400000D02*
X52705000Y24765000D01*
%TO.N,/D1*%
X57785000Y22987000D02*
X57785000Y25400000D01*
X57023000Y22225000D02*
X57785000Y22987000D01*
X12065000Y12700000D02*
X12065000Y14605000D01*
X14605000Y17145000D02*
X17145000Y17145000D01*
X12065000Y14605000D02*
X14605000Y17145000D01*
X25400000Y18415000D02*
X29210000Y18415000D01*
X24765000Y17780000D02*
X25400000Y18415000D01*
X51435000Y20955000D02*
X52705000Y22225000D01*
X52705000Y22225000D02*
X57023000Y22225000D01*
X46990000Y6985000D02*
X49530000Y9525000D01*
X46990000Y4445000D02*
X46990000Y6985000D01*
X45720000Y3175000D02*
X46990000Y4445000D01*
X29210000Y18415000D02*
X43180000Y18415000D01*
X43815000Y17780000D02*
X43815000Y13970000D01*
X43180000Y18415000D02*
X43815000Y17780000D01*
X49530000Y9525000D02*
X49530000Y11303000D01*
X49403000Y12954000D02*
X49530000Y12827000D01*
X48514000Y12954000D02*
X49403000Y12954000D01*
X49530000Y11303000D02*
X49530000Y12827000D01*
X51435000Y14859000D02*
X51435000Y20955000D01*
X49530000Y12954000D02*
X51435000Y14859000D01*
X49530000Y12827000D02*
X49530000Y12954000D01*
%TO.N,/D2*%
X48260000Y5715000D02*
X48260000Y6985000D01*
X48260000Y6985000D02*
X50482000Y9207500D01*
X50482000Y9207500D02*
X50482000Y12382500D01*
X50482000Y12382500D02*
X53975000Y15875000D01*
X53975000Y15875000D02*
X53975000Y19685000D01*
X53975000Y19685000D02*
X54610000Y20320000D01*
X54610000Y20320000D02*
X61595000Y20320000D01*
X61595000Y20320000D02*
X62865000Y21590000D01*
X62865000Y21590000D02*
X62865000Y25400000D01*
X27940000Y16510000D02*
X24765000Y16510000D01*
X28575000Y15875000D02*
X27940000Y16510000D01*
X34290000Y15875000D02*
X28575000Y15875000D01*
X35560000Y14605000D02*
X34290000Y15875000D01*
X35560000Y13335000D02*
X35560000Y14605000D01*
X36576000Y12319000D02*
X37973000Y10922000D01*
X36576000Y12319000D02*
X35560000Y13335000D01*
X37973000Y10922000D02*
X42291000Y10922000D01*
%TO.N,/D3*%
X67945000Y23799700D02*
X67945000Y25400000D01*
X69214900Y22529800D02*
X67945000Y23799700D01*
X69214900Y16538200D02*
X69214900Y22529800D01*
X66011700Y13335000D02*
X69214900Y16538200D01*
X59188300Y13335000D02*
X66011700Y13335000D01*
X52070000Y6216700D02*
X59188300Y13335000D01*
X52070000Y4445000D02*
X52070000Y6216700D01*
X39370000Y4445000D02*
X40640000Y3175000D01*
X22225000Y11430000D02*
X23495000Y10160000D01*
X22225000Y12700000D02*
X22225000Y11430000D01*
X32385000Y10160000D02*
X33655000Y8890000D01*
X23495000Y10160000D02*
X32385000Y10160000D01*
X33655000Y8890000D02*
X37465000Y8890000D01*
X37465000Y8890000D02*
X39370000Y6985000D01*
X39370000Y6985000D02*
X39370000Y4445000D01*
%TO.N,/D4*%
X40615400Y659600D02*
X38100000Y3175000D01*
X49530000Y2267000D02*
X47922600Y659600D01*
X49530000Y6242600D02*
X49530000Y2267000D01*
X51615700Y8328300D02*
X49530000Y6242600D01*
X51615700Y11737700D02*
X51615700Y8328300D01*
X55291750Y15413750D02*
X51615700Y11737700D01*
X66721750Y15413750D02*
X55291750Y15413750D01*
X67945000Y16637000D02*
X66721750Y15413750D01*
X47922600Y659600D02*
X40615400Y659600D01*
X67945000Y17780000D02*
X67945000Y16637000D01*
X36830000Y4445000D02*
X38100000Y3175000D01*
X36830000Y6985000D02*
X36830000Y4445000D01*
X35560000Y8255000D02*
X36830000Y6985000D01*
X31750000Y9525000D02*
X33020000Y8255000D01*
X22860000Y9525000D02*
X31750000Y9525000D01*
X20955000Y11430000D02*
X22860000Y9525000D01*
X20955000Y17145000D02*
X20955000Y11430000D01*
X22225000Y18415000D02*
X20955000Y17145000D01*
X33020000Y8255000D02*
X35560000Y8255000D01*
X22225000Y20320000D02*
X22225000Y18415000D01*
%TO.N,/D5*%
X35560000Y6985000D02*
X35560000Y5715000D01*
X34925000Y7620000D02*
X35560000Y6985000D01*
X32385000Y7620000D02*
X34925000Y7620000D01*
X31115000Y8890000D02*
X32385000Y7620000D01*
X20955000Y8890000D02*
X31115000Y8890000D01*
X18415000Y11430000D02*
X20955000Y8890000D01*
X18415000Y17145000D02*
X18415000Y11430000D01*
X19685000Y18415000D02*
X18415000Y17145000D01*
X19685000Y20320000D02*
X19685000Y18415000D01*
%TO.N,/D6*%
X57150500Y8128500D02*
X57149500Y8128500D01*
X59309000Y10287000D02*
X57150500Y8128500D01*
X60198000Y10287000D02*
X59309000Y10287000D01*
X12065000Y19050000D02*
X12065000Y20320000D01*
X12700000Y18415000D02*
X12065000Y19050000D01*
X16510000Y18415000D02*
X12700000Y18415000D01*
X41910000Y4445000D02*
X43180000Y3175000D01*
X41910000Y6985000D02*
X41910000Y4445000D01*
X39370000Y9525000D02*
X41910000Y6985000D01*
X34290000Y9525000D02*
X39370000Y9525000D01*
X33020000Y10795000D02*
X34290000Y9525000D01*
X24130000Y10795000D02*
X33020000Y10795000D01*
X23495000Y11430000D02*
X24130000Y10795000D01*
X23495000Y17145000D02*
X23495000Y11430000D01*
X22860000Y17780000D02*
X23495000Y17145000D01*
%TO.N,/D7*%
X33020000Y3175000D02*
X34424300Y1770700D01*
X34424300Y1770700D02*
X36890900Y1770700D01*
X33020000Y3175000D02*
X31750000Y4445000D01*
X31750000Y4445000D02*
X31750000Y6985000D01*
X31750000Y6985000D02*
X30480000Y8255000D01*
X30480000Y8255000D02*
X11430000Y8255000D01*
X11430000Y8255000D02*
X8255000Y11430000D01*
X8255000Y11430000D02*
X8255000Y16510000D01*
X9525000Y17780000D02*
X8255000Y16510000D01*
X9525000Y20320000D02*
X9525000Y17780000D01*
%TO.N,Net-(D1-Pad1)*%
X44450000Y10795000D02*
X45720000Y10795000D01*
X43180000Y12065000D02*
X44450000Y10795000D01*
X38735000Y12065000D02*
X43180000Y12065000D01*
X36980900Y13819100D02*
X38735000Y12065000D01*
X36980900Y15390900D02*
X36980900Y13819100D01*
X35226800Y17145000D02*
X36980900Y15390900D01*
X33020000Y17145000D02*
X35226800Y17145000D01*
%TO.N,/PHI2*%
X35687000Y32385000D02*
X33020000Y32385000D01*
X36957000Y31115000D02*
X35687000Y32385000D01*
X45847000Y31115000D02*
X36957000Y31115000D01*
%TO.N,/IN7*%
X67945000Y39340000D02*
X67280000Y39340000D01*
X67280000Y39340000D02*
X66675000Y38735000D01*
X66675000Y38735000D02*
X66675000Y33020000D01*
X66675000Y33020000D02*
X67945000Y31750000D01*
X67945000Y45085000D02*
X67945000Y39340000D01*
%TO.N,/IN6*%
X65405000Y39340000D02*
X64740000Y39340000D01*
X64740000Y39340000D02*
X64135000Y38735000D01*
X64135000Y38735000D02*
X64135000Y33020000D01*
X64135000Y33020000D02*
X65405000Y31750000D01*
X65405000Y39340000D02*
X65405000Y45085000D01*
%TO.N,/IN5*%
X62865000Y39340000D02*
X62200000Y39340000D01*
X62200000Y39340000D02*
X61595000Y38735000D01*
X61595000Y38735000D02*
X61595000Y33020000D01*
X61595000Y33020000D02*
X62865000Y31750000D01*
X62865000Y45085000D02*
X62865000Y39340000D01*
%TO.N,/IN4*%
X60325000Y31750000D02*
X59055000Y33020000D01*
X59055000Y33020000D02*
X59055000Y38735000D01*
X59055000Y38735000D02*
X59690000Y39370000D01*
X59690000Y39370000D02*
X59720000Y39340000D01*
X59720000Y39340000D02*
X60325000Y39340000D01*
X60325000Y39340000D02*
X60325000Y45085000D01*
%TO.N,/IN3*%
X57785000Y39340000D02*
X57120000Y39340000D01*
X57120000Y39340000D02*
X56515000Y38735000D01*
X56515000Y38735000D02*
X56515000Y33020000D01*
X56515000Y33020000D02*
X57785000Y31750000D01*
X57785000Y45085000D02*
X57785000Y39340000D01*
%TO.N,/IN2*%
X55245000Y39340000D02*
X54580000Y39340000D01*
X54580000Y39340000D02*
X53975000Y38735000D01*
X53975000Y38735000D02*
X53975000Y33020000D01*
X53975000Y33020000D02*
X55245000Y31750000D01*
X55245000Y45085000D02*
X55245000Y39340000D01*
%TO.N,/IN1*%
X52705000Y39370000D02*
X52070000Y39370000D01*
X52070000Y39370000D02*
X51435000Y38735000D01*
X51435000Y38735000D02*
X51435000Y33020000D01*
X51435000Y33020000D02*
X52705000Y31750000D01*
X52705000Y45085000D02*
X52705000Y39370000D01*
%TO.N,/IN0*%
X50165000Y39340000D02*
X49500000Y39340000D01*
X49500000Y39340000D02*
X48895000Y38735000D01*
X48895000Y38735000D02*
X48895000Y33020000D01*
X48895000Y33020000D02*
X50165000Y31750000D01*
X50165000Y45085000D02*
X50165000Y39340000D01*
D24*
%TO.N,Net-(J3-Pad1)*%
X4445000Y45085000D02*
X4445000Y29845000D01*
X4445000Y29845000D02*
X5715000Y28575000D01*
X5715000Y28575000D02*
X26035000Y28575000D01*
X27305000Y29845000D02*
X27305000Y31750000D01*
X26035000Y28575000D02*
X27305000Y29845000D01*
D23*
%TO.N,Net-(R5-Pad2)*%
X60325000Y29210000D02*
X60325000Y28575000D01*
X60325000Y28575000D02*
X61595000Y27305000D01*
X61595000Y27305000D02*
X69215000Y27305000D01*
X69215000Y27305000D02*
X70485000Y26035000D01*
X70485000Y26035000D02*
X70485000Y25400000D01*
%TO.N,Net-(R8-Pad2)*%
X67945000Y29210000D02*
X67945000Y29845000D01*
X67945000Y29845000D02*
X67310000Y30480000D01*
X67310000Y30480000D02*
X57150000Y30480000D01*
X57150000Y30480000D02*
X56515000Y29845000D01*
X56515000Y29845000D02*
X56515000Y28575000D01*
X56515000Y28575000D02*
X55245000Y27305000D01*
X55245000Y27305000D02*
X55245000Y25400000D01*
%TO.N,Net-(D17-Pad2)*%
X67945000Y34925000D02*
X67945000Y37465000D01*
%TO.N,Net-(D16-Pad2)*%
X65405000Y34925000D02*
X65405000Y37465000D01*
%TO.N,Net-(D15-Pad2)*%
X62865000Y34925000D02*
X62865000Y37465000D01*
%TO.N,Net-(D14-Pad2)*%
X60325000Y34925000D02*
X60325000Y37465000D01*
%TO.N,Net-(D13-Pad2)*%
X57785000Y34925000D02*
X57785000Y37465000D01*
%TO.N,Net-(D12-Pad2)*%
X55245000Y34925000D02*
X55245000Y37465000D01*
%TO.N,Net-(D11-Pad2)*%
X52705000Y34925000D02*
X52705000Y37495000D01*
%TO.N,Net-(D10-Pad2)*%
X50165000Y34925000D02*
X50165000Y37465000D01*
%TO.N,Net-(D9-Pad2)*%
X23779000Y39213000D02*
X24892000Y39213000D01*
X23749000Y39243000D02*
X23779000Y39213000D01*
%TO.N,Net-(D5-Pad2)*%
X14762000Y39243000D02*
X14732000Y39213000D01*
X13619000Y39213000D02*
X14732000Y39213000D01*
X13589000Y39243000D02*
X13619000Y39213000D01*
%TO.N,Net-(D8-Pad2)*%
X21239000Y39213000D02*
X21209000Y39243000D01*
X22352000Y39213000D02*
X21239000Y39213000D01*
%TO.N,Net-(D4-Pad2)*%
X12192000Y39243000D02*
X11049000Y39243000D01*
%TO.N,Net-(D7-Pad2)*%
X19734000Y39243000D02*
X19812000Y39164500D01*
X18747500Y39164500D02*
X19812000Y39164500D01*
X18669000Y39243000D02*
X18747500Y39164500D01*
%TO.N,Net-(D3-Pad2)*%
X8509000Y39243000D02*
X9652000Y39243000D01*
%TO.N,Net-(D6-Pad2)*%
X17429000Y39213000D02*
X17272000Y39213000D01*
X16159000Y39213000D02*
X16129000Y39243000D01*
X17272000Y39213000D02*
X16159000Y39213000D01*
%TO.N,Net-(D2-Pad2)*%
X6858000Y39243000D02*
X7112000Y39243000D01*
X5715000Y39243000D02*
X7112000Y39243000D01*
%TO.N,Net-(D9-Pad1)*%
X24892000Y37338000D02*
X24638000Y37338000D01*
X24638000Y37338000D02*
X23495000Y36195000D01*
X23495000Y33020000D02*
X24765000Y31750000D01*
X23495000Y36195000D02*
X23495000Y33020000D01*
%TO.N,Net-(D8-Pad1)*%
X22352000Y37338000D02*
X22098000Y37338000D01*
X22098000Y37338000D02*
X20955000Y36195000D01*
X20955000Y33020000D02*
X22225000Y31750000D01*
X20955000Y36195000D02*
X20955000Y33020000D01*
%TO.N,Net-(D7-Pad1)*%
X19812000Y37289500D02*
X19860000Y37289500D01*
X19812000Y37289500D02*
X19509500Y37289500D01*
X19509500Y37289500D02*
X18415000Y36195000D01*
X18415000Y33020000D02*
X19685000Y31750000D01*
X18415000Y36195000D02*
X18415000Y33020000D01*
%TO.N,Net-(D6-Pad1)*%
X17272000Y37338000D02*
X17018000Y37338000D01*
X17018000Y37338000D02*
X15875000Y36195000D01*
X15875000Y33020000D02*
X17145000Y31750000D01*
X15875000Y36195000D02*
X15875000Y33020000D01*
%TO.N,Net-(D5-Pad1)*%
X14732000Y37338000D02*
X14478000Y37338000D01*
X14478000Y37338000D02*
X13335000Y36195000D01*
X13335000Y33020000D02*
X14605000Y31750000D01*
X13335000Y36195000D02*
X13335000Y33020000D01*
%TO.N,Net-(D4-Pad1)*%
X12192000Y37368000D02*
X12192000Y37338000D01*
X12192000Y37368000D02*
X11968000Y37368000D01*
X11968000Y37368000D02*
X10795000Y36195000D01*
X10795000Y33020000D02*
X12065000Y31750000D01*
X10795000Y36195000D02*
X10795000Y33020000D01*
%TO.N,Net-(D3-Pad1)*%
X9652000Y37368000D02*
X9428000Y37368000D01*
X9428000Y37368000D02*
X8255000Y36195000D01*
X8255000Y33020000D02*
X9525000Y31750000D01*
X8255000Y36195000D02*
X8255000Y33020000D01*
%TO.N,Net-(D2-Pad1)*%
X7112000Y37368000D02*
X7112000Y37338000D01*
X7112000Y37338000D02*
X5715000Y35941000D01*
X5715000Y33020000D02*
X6985000Y31750000D01*
X5715000Y35941000D02*
X5715000Y33020000D01*
%TO.N,Net-(U1-Pad18)*%
X33020000Y19685000D02*
X31115000Y19685000D01*
X27305000Y20320000D02*
X30480000Y20320000D01*
X31115000Y19685000D02*
X30480000Y20320000D01*
%TO.N,Net-(U1-Pad17)*%
X47625000Y20955000D02*
X47625000Y17780000D01*
X33020000Y22225000D02*
X36195000Y22225000D01*
X36195000Y22225000D02*
X37465000Y20955000D01*
X37465000Y20955000D02*
X47625000Y20955000D01*
X50165000Y25400000D02*
X50165000Y24130000D01*
X50165000Y24130000D02*
X47625000Y21590000D01*
X47625000Y21590000D02*
X47625000Y20955000D01*
%TO.N,Net-(R9-Pad1)*%
X40640000Y41783000D02*
X43180000Y41783000D01*
X43180000Y41783000D02*
X44323000Y42926000D01*
X44323000Y42926000D02*
X44323000Y45720000D01*
X44323000Y45720000D02*
X45593000Y46990000D01*
X45593000Y46990000D02*
X71374000Y46990000D01*
X71374000Y46990000D02*
X73152000Y45212000D01*
X73152000Y45212000D02*
X73152000Y16764000D01*
X73152000Y16764000D02*
X71374000Y14986000D01*
X71374000Y14986000D02*
X69723000Y14986000D01*
X66802000Y12065000D02*
X62230000Y12065000D01*
X69723000Y14986000D02*
X66802000Y12065000D01*
X43180000Y36957000D02*
X43180000Y41783000D01*
X42418000Y36195000D02*
X43180000Y36957000D01*
X38481000Y36195000D02*
X42418000Y36195000D01*
X37211000Y34925000D02*
X38481000Y36195000D01*
X33020000Y34925000D02*
X37211000Y34925000D01*
%TO.N,Net-(U4-Pad19)*%
X24765000Y24130000D02*
X24765000Y25400000D01*
X24765000Y25400000D02*
X23495000Y26670000D01*
X23495000Y26670000D02*
X9525000Y26670000D01*
X9525000Y26670000D02*
X8255000Y25400000D01*
X8255000Y21590000D02*
X6985000Y20320000D01*
X8255000Y25400000D02*
X8255000Y21590000D01*
%TO.N,Net-(U4-Pad12)*%
X17145000Y22860000D02*
X17145000Y24130000D01*
X17780000Y22225000D02*
X17145000Y22860000D01*
X23495000Y22225000D02*
X17780000Y22225000D01*
X24765000Y20955000D02*
X23495000Y22225000D01*
X24765000Y20320000D02*
X24765000Y20955000D01*
%TD*%
D25*
%TO.N,GND*%
X75540000Y660000D02*
X49103868Y660000D01*
X50091432Y1647563D01*
X50123291Y1673709D01*
X50178771Y1741311D01*
X50227636Y1800854D01*
X50229332Y1804026D01*
X50366842Y1747068D01*
X50653740Y1690000D01*
X50946260Y1690000D01*
X51233158Y1747068D01*
X51503411Y1859010D01*
X51746632Y2021525D01*
X51953475Y2228368D01*
X52070000Y2402760D01*
X52186525Y2228368D01*
X52393368Y2021525D01*
X52636589Y1859010D01*
X52906842Y1747068D01*
X53193740Y1690000D01*
X53486260Y1690000D01*
X53773158Y1747068D01*
X54043411Y1859010D01*
X54286632Y2021525D01*
X54493475Y2228368D01*
X54610000Y2402760D01*
X54726525Y2228368D01*
X54933368Y2021525D01*
X55176589Y1859010D01*
X55446842Y1747068D01*
X55733740Y1690000D01*
X56026260Y1690000D01*
X56313158Y1747068D01*
X56583411Y1859010D01*
X56826632Y2021525D01*
X57033475Y2228368D01*
X57150000Y2402760D01*
X57266525Y2228368D01*
X57473368Y2021525D01*
X57716589Y1859010D01*
X57986842Y1747068D01*
X58273740Y1690000D01*
X58566260Y1690000D01*
X58853158Y1747068D01*
X59123411Y1859010D01*
X59366632Y2021525D01*
X59573475Y2228368D01*
X59735990Y2471589D01*
X59847932Y2741842D01*
X59905000Y3028740D01*
X59905000Y3321260D01*
X59847932Y3608158D01*
X59735990Y3878411D01*
X59573475Y4121632D01*
X59386392Y4308715D01*
X59513386Y4376595D01*
X59647962Y4487038D01*
X59758405Y4621614D01*
X59840472Y4775150D01*
X59891008Y4941746D01*
X59908072Y5115000D01*
X59908072Y6315000D01*
X59891008Y6488254D01*
X59840472Y6654850D01*
X59758405Y6808386D01*
X59647962Y6942962D01*
X59513386Y7053405D01*
X59359850Y7135472D01*
X59193254Y7186008D01*
X59020000Y7203072D01*
X57820000Y7203072D01*
X57646746Y7186008D01*
X57480150Y7135472D01*
X57326614Y7053405D01*
X57192038Y6942962D01*
X57081595Y6808386D01*
X57013715Y6681392D01*
X56826632Y6868475D01*
X56583411Y7030990D01*
X56313158Y7142932D01*
X56026260Y7200000D01*
X55733740Y7200000D01*
X55446842Y7142932D01*
X55176589Y7030990D01*
X54933368Y6868475D01*
X54726525Y6661632D01*
X54610000Y6487240D01*
X54493475Y6661632D01*
X54286632Y6868475D01*
X54056447Y7022280D01*
X59534168Y12500000D01*
X60791928Y12500000D01*
X60791928Y11265000D01*
X60804188Y11140518D01*
X60809429Y11123240D01*
X60688256Y11204205D01*
X60499898Y11282226D01*
X60299939Y11322000D01*
X60096061Y11322000D01*
X59896102Y11282226D01*
X59707744Y11204205D01*
X59584715Y11122000D01*
X59350018Y11122000D01*
X59309000Y11126040D01*
X59267981Y11122000D01*
X59145311Y11109918D01*
X58987913Y11062172D01*
X58842854Y10984636D01*
X58715709Y10880291D01*
X58689559Y10848427D01*
X56993974Y9152841D01*
X56847602Y9123726D01*
X56659244Y9045705D01*
X56489726Y8932437D01*
X56345563Y8788274D01*
X56232295Y8618756D01*
X56154274Y8430398D01*
X56114500Y8230439D01*
X56114500Y8026561D01*
X56154274Y7826602D01*
X56232295Y7638244D01*
X56345563Y7468726D01*
X56489726Y7324563D01*
X56659244Y7211295D01*
X56847602Y7133274D01*
X57047561Y7093500D01*
X57251439Y7093500D01*
X57451398Y7133274D01*
X57639756Y7211295D01*
X57809274Y7324563D01*
X57953437Y7468726D01*
X58066705Y7638244D01*
X58144726Y7826602D01*
X58173344Y7970477D01*
X59626769Y9423901D01*
X59707744Y9369795D01*
X59896102Y9291774D01*
X60096061Y9252000D01*
X60299939Y9252000D01*
X60499898Y9291774D01*
X60688256Y9369795D01*
X60857774Y9483063D01*
X61001937Y9627226D01*
X61115205Y9796744D01*
X61193226Y9985102D01*
X61233000Y10185061D01*
X61233000Y10388939D01*
X61193226Y10588898D01*
X61149260Y10695040D01*
X61185820Y10675498D01*
X61305518Y10639188D01*
X61430000Y10626928D01*
X63030000Y10626928D01*
X63154482Y10639188D01*
X63274180Y10675498D01*
X63384494Y10734463D01*
X63481185Y10813815D01*
X63560537Y10910506D01*
X63619502Y11020820D01*
X63655812Y11140518D01*
X63664625Y11230000D01*
X66760982Y11230000D01*
X66802000Y11225960D01*
X66843018Y11230000D01*
X66843019Y11230000D01*
X66965689Y11242082D01*
X67123087Y11289828D01*
X67268146Y11367364D01*
X67395291Y11471709D01*
X67421446Y11503579D01*
X67633828Y11715961D01*
X68458096Y11715961D01*
X68498754Y11581913D01*
X68618963Y11327580D01*
X68786481Y11101586D01*
X68994869Y10912615D01*
X69236119Y10767930D01*
X69500960Y10673091D01*
X69723000Y10794376D01*
X69723000Y11938000D01*
X69977000Y11938000D01*
X69977000Y10794376D01*
X70199040Y10673091D01*
X70463881Y10767930D01*
X70705131Y10912615D01*
X70913519Y11101586D01*
X71081037Y11327580D01*
X71201246Y11581913D01*
X71241904Y11715961D01*
X71119915Y11938000D01*
X69977000Y11938000D01*
X69723000Y11938000D01*
X68580085Y11938000D01*
X68458096Y11715961D01*
X67633828Y11715961D01*
X68528150Y12610283D01*
X68498754Y12548087D01*
X68458096Y12414039D01*
X68580085Y12192000D01*
X69723000Y12192000D01*
X69723000Y13335624D01*
X69977000Y13335624D01*
X69977000Y12192000D01*
X71119915Y12192000D01*
X71241904Y12414039D01*
X71201246Y12548087D01*
X71081037Y12802420D01*
X70913519Y13028414D01*
X70705131Y13217385D01*
X70463881Y13362070D01*
X70199040Y13456909D01*
X69977000Y13335624D01*
X69723000Y13335624D01*
X69500960Y13456909D01*
X69304384Y13386515D01*
X70068869Y14151000D01*
X71332982Y14151000D01*
X71374000Y14146960D01*
X71415018Y14151000D01*
X71415019Y14151000D01*
X71537689Y14163082D01*
X71695087Y14210828D01*
X71840146Y14288364D01*
X71967291Y14392709D01*
X71993446Y14424579D01*
X73713432Y16144563D01*
X73745291Y16170709D01*
X73809338Y16248750D01*
X73849636Y16297854D01*
X73927172Y16442913D01*
X73943634Y16497182D01*
X73974918Y16600311D01*
X73987000Y16722981D01*
X73987000Y16722982D01*
X73991040Y16764000D01*
X73987000Y16805018D01*
X73987000Y45170982D01*
X73991040Y45212000D01*
X73974918Y45375688D01*
X73927172Y45533087D01*
X73849636Y45678146D01*
X73771439Y45773430D01*
X73771437Y45773432D01*
X73745291Y45805291D01*
X73713433Y45831436D01*
X71993446Y47551421D01*
X71967291Y47583291D01*
X71840146Y47687636D01*
X71695087Y47765172D01*
X71537689Y47812918D01*
X71415019Y47825000D01*
X71415018Y47825000D01*
X71374000Y47829040D01*
X71332982Y47825000D01*
X45634015Y47825000D01*
X45592999Y47829040D01*
X45551983Y47825000D01*
X45551981Y47825000D01*
X45429311Y47812918D01*
X45271913Y47765172D01*
X45126854Y47687636D01*
X44999709Y47583291D01*
X44973558Y47551426D01*
X43761574Y46339441D01*
X43729710Y46313291D01*
X43703562Y46281429D01*
X43625364Y46186145D01*
X43547828Y46041086D01*
X43500082Y45883688D01*
X43483960Y45720000D01*
X43488001Y45678972D01*
X43488000Y43271868D01*
X42834133Y42618000D01*
X41687661Y42618000D01*
X41676962Y42634013D01*
X41491013Y42819962D01*
X41272359Y42966061D01*
X41029405Y43066696D01*
X40771486Y43118000D01*
X40508514Y43118000D01*
X40250595Y43066696D01*
X40007641Y42966061D01*
X39788987Y42819962D01*
X39603038Y42634013D01*
X39456939Y42415359D01*
X39356304Y42172405D01*
X39305000Y41914486D01*
X39305000Y41651514D01*
X39356304Y41393595D01*
X39456939Y41150641D01*
X39603038Y40931987D01*
X39788987Y40746038D01*
X40007641Y40599939D01*
X40250595Y40499304D01*
X40508514Y40448000D01*
X40771486Y40448000D01*
X41029405Y40499304D01*
X41272359Y40599939D01*
X41491013Y40746038D01*
X41676962Y40931987D01*
X41687661Y40948000D01*
X42345001Y40948000D01*
X42345000Y38059702D01*
X42303715Y38156646D01*
X42144500Y38389895D01*
X41942839Y38587601D01*
X41706483Y38742166D01*
X41444514Y38847650D01*
X41167000Y38900000D01*
X40767000Y38900000D01*
X40767000Y37592000D01*
X40787000Y37592000D01*
X40787000Y37338000D01*
X40767000Y37338000D01*
X40767000Y37318000D01*
X40513000Y37318000D01*
X40513000Y37338000D01*
X38970085Y37338000D01*
X38848096Y37115961D01*
X38865633Y37033182D01*
X38866988Y37030000D01*
X38522015Y37030000D01*
X38480999Y37034040D01*
X38439983Y37030000D01*
X38439981Y37030000D01*
X38317311Y37017918D01*
X38159913Y36970172D01*
X38014854Y36892636D01*
X37887709Y36788291D01*
X37861561Y36756429D01*
X36865133Y35760000D01*
X34591112Y35760000D01*
X34439608Y35944608D01*
X34221101Y36123932D01*
X34088142Y36195000D01*
X34221101Y36266068D01*
X34439608Y36445392D01*
X34618932Y36663899D01*
X34752182Y36913192D01*
X34834236Y37183691D01*
X34861943Y37465000D01*
X34834236Y37746309D01*
X34813691Y37814039D01*
X38848096Y37814039D01*
X38970085Y37592000D01*
X40513000Y37592000D01*
X40513000Y38900000D01*
X40113000Y38900000D01*
X39835486Y38847650D01*
X39573517Y38742166D01*
X39337161Y38587601D01*
X39135500Y38389895D01*
X38976285Y38156646D01*
X38865633Y37896818D01*
X38848096Y37814039D01*
X34813691Y37814039D01*
X34752182Y38016808D01*
X34618932Y38266101D01*
X34439608Y38484608D01*
X34221101Y38663932D01*
X33971808Y38797182D01*
X33701309Y38879236D01*
X33490492Y38900000D01*
X32549508Y38900000D01*
X32338691Y38879236D01*
X32068192Y38797182D01*
X31818899Y38663932D01*
X31600392Y38484608D01*
X31421068Y38266101D01*
X31287818Y38016808D01*
X31205764Y37746309D01*
X31178057Y37465000D01*
X31205764Y37183691D01*
X31287818Y36913192D01*
X31421068Y36663899D01*
X31600392Y36445392D01*
X31818899Y36266068D01*
X31951858Y36195000D01*
X31818899Y36123932D01*
X31600392Y35944608D01*
X31421068Y35726101D01*
X31287818Y35476808D01*
X31205764Y35206309D01*
X31178057Y34925000D01*
X31205764Y34643691D01*
X31287818Y34373192D01*
X31421068Y34123899D01*
X31600392Y33905392D01*
X31818899Y33726068D01*
X31951858Y33655000D01*
X31818899Y33583932D01*
X31600392Y33404608D01*
X31421068Y33186101D01*
X31287818Y32936808D01*
X31205764Y32666309D01*
X31178057Y32385000D01*
X31205764Y32103691D01*
X31287818Y31833192D01*
X31421068Y31583899D01*
X31600392Y31365392D01*
X31818899Y31186068D01*
X31951858Y31115000D01*
X31818899Y31043932D01*
X31600392Y30864608D01*
X31421068Y30646101D01*
X31287818Y30396808D01*
X31205764Y30126309D01*
X31178057Y29845000D01*
X31205764Y29563691D01*
X31287818Y29293192D01*
X31421068Y29043899D01*
X31600392Y28825392D01*
X31818899Y28646068D01*
X31951858Y28575000D01*
X31818899Y28503932D01*
X31600392Y28324608D01*
X31421068Y28106101D01*
X31287818Y27856808D01*
X31205764Y27586309D01*
X31178057Y27305000D01*
X31205764Y27023691D01*
X31287818Y26753192D01*
X31421068Y26503899D01*
X31600392Y26285392D01*
X31818899Y26106068D01*
X31951858Y26035000D01*
X31818899Y25963932D01*
X31600392Y25784608D01*
X31421068Y25566101D01*
X31287818Y25316808D01*
X31205764Y25046309D01*
X31178057Y24765000D01*
X31205764Y24483691D01*
X31287818Y24213192D01*
X31421068Y23963899D01*
X31600392Y23745392D01*
X31818899Y23566068D01*
X31951858Y23495000D01*
X31818899Y23423932D01*
X31600392Y23244608D01*
X31421068Y23026101D01*
X31287818Y22776808D01*
X31205764Y22506309D01*
X31178057Y22225000D01*
X31205764Y21943691D01*
X31287818Y21673192D01*
X31421068Y21423899D01*
X31600392Y21205392D01*
X31818899Y21026068D01*
X31951858Y20955000D01*
X31818899Y20883932D01*
X31600392Y20704608D01*
X31454288Y20526580D01*
X31099445Y20881422D01*
X31073291Y20913291D01*
X30946146Y21017636D01*
X30801087Y21095172D01*
X30643689Y21142918D01*
X30521019Y21155000D01*
X30521018Y21155000D01*
X30480000Y21159040D01*
X30438982Y21155000D01*
X28672615Y21155000D01*
X28637182Y21271808D01*
X28503932Y21521101D01*
X28324607Y21739608D01*
X28106100Y21918932D01*
X27856807Y22052182D01*
X27586308Y22134236D01*
X27305000Y22161943D01*
X27023691Y22134236D01*
X26753192Y22052182D01*
X26503899Y21918932D01*
X26285392Y21739607D01*
X26106068Y21521100D01*
X26035000Y21388142D01*
X25963932Y21521101D01*
X25784607Y21739608D01*
X25566100Y21918932D01*
X25316807Y22052182D01*
X25046308Y22134236D01*
X24765000Y22161943D01*
X24741262Y22159605D01*
X24596183Y22304684D01*
X24765000Y22288057D01*
X25046309Y22315764D01*
X25316808Y22397818D01*
X25566101Y22531068D01*
X25784608Y22710392D01*
X25963932Y22928899D01*
X26032265Y23056741D01*
X26182399Y22827161D01*
X26380105Y22625500D01*
X26613354Y22466285D01*
X26873182Y22355633D01*
X26955961Y22338096D01*
X27178000Y22460085D01*
X27178000Y24003000D01*
X27432000Y24003000D01*
X27432000Y22460085D01*
X27654039Y22338096D01*
X27736818Y22355633D01*
X27996646Y22466285D01*
X28229895Y22625500D01*
X28427601Y22827161D01*
X28582166Y23063517D01*
X28687650Y23325486D01*
X28740000Y23603000D01*
X28740000Y24003000D01*
X27432000Y24003000D01*
X27178000Y24003000D01*
X27158000Y24003000D01*
X27158000Y24257000D01*
X27178000Y24257000D01*
X27178000Y25799915D01*
X27432000Y25799915D01*
X27432000Y24257000D01*
X28740000Y24257000D01*
X28740000Y24657000D01*
X28687650Y24934514D01*
X28582166Y25196483D01*
X28427601Y25432839D01*
X28229895Y25634500D01*
X27996646Y25793715D01*
X27736818Y25904367D01*
X27654039Y25921904D01*
X27432000Y25799915D01*
X27178000Y25799915D01*
X26955961Y25921904D01*
X26873182Y25904367D01*
X26613354Y25793715D01*
X26380105Y25634500D01*
X26182399Y25432839D01*
X26032265Y25203259D01*
X25963932Y25331101D01*
X25784607Y25549608D01*
X25566100Y25728932D01*
X25523931Y25751472D01*
X25462636Y25866146D01*
X25358291Y25993291D01*
X25326426Y26019442D01*
X24114446Y27231421D01*
X24088291Y27263291D01*
X23961146Y27367636D01*
X23816087Y27445172D01*
X23658689Y27492918D01*
X23536019Y27505000D01*
X23536018Y27505000D01*
X23495000Y27509040D01*
X23453982Y27505000D01*
X9566015Y27505000D01*
X9524999Y27509040D01*
X9483983Y27505000D01*
X9483981Y27505000D01*
X9361311Y27492918D01*
X9203913Y27445172D01*
X9058854Y27367636D01*
X8931709Y27263291D01*
X8905558Y27231426D01*
X7693579Y26019446D01*
X7661709Y25993291D01*
X7641013Y25968072D01*
X6185000Y25968072D01*
X6060518Y25955812D01*
X5940820Y25919502D01*
X5830506Y25860537D01*
X5733815Y25781185D01*
X5654463Y25684494D01*
X5595498Y25574180D01*
X5559188Y25454482D01*
X5546928Y25330000D01*
X5546928Y22930000D01*
X5559188Y22805518D01*
X5595498Y22685820D01*
X5654463Y22575506D01*
X5733815Y22478815D01*
X5830506Y22399463D01*
X5940820Y22340498D01*
X6060518Y22304188D01*
X6185000Y22291928D01*
X7420001Y22291928D01*
X7420001Y22087614D01*
X7266308Y22134236D01*
X6985000Y22161943D01*
X6703691Y22134236D01*
X6433192Y22052182D01*
X6183899Y21918932D01*
X5965392Y21739607D01*
X5786068Y21521100D01*
X5715000Y21388142D01*
X5643932Y21521101D01*
X5464607Y21739608D01*
X5246100Y21918932D01*
X4996807Y22052182D01*
X4726308Y22134236D01*
X4445000Y22161943D01*
X4163691Y22134236D01*
X3893192Y22052182D01*
X3643899Y21918932D01*
X3425392Y21739607D01*
X3246068Y21521100D01*
X3112818Y21271807D01*
X3030764Y21001308D01*
X3010000Y20790491D01*
X3010000Y19849508D01*
X3030764Y19638691D01*
X3112818Y19368192D01*
X3246068Y19118899D01*
X3425393Y18900392D01*
X3643900Y18721068D01*
X3893193Y18587818D01*
X4163692Y18505764D01*
X4445000Y18478057D01*
X4726309Y18505764D01*
X4996808Y18587818D01*
X5246101Y18721068D01*
X5464608Y18900392D01*
X5643932Y19118899D01*
X5715000Y19251858D01*
X5786068Y19118899D01*
X5965393Y18900392D01*
X6183900Y18721068D01*
X6433193Y18587818D01*
X6703692Y18505764D01*
X6985000Y18478057D01*
X7266309Y18505764D01*
X7536808Y18587818D01*
X7786101Y18721068D01*
X8004608Y18900392D01*
X8183932Y19118899D01*
X8255000Y19251858D01*
X8326068Y19118899D01*
X8505393Y18900392D01*
X8690001Y18748888D01*
X8690001Y18125869D01*
X7693574Y17129441D01*
X7661710Y17103291D01*
X7635562Y17071429D01*
X7557364Y16976145D01*
X7479828Y16831086D01*
X7432082Y16673688D01*
X7415960Y16510000D01*
X7420001Y16468972D01*
X7420001Y14467614D01*
X7266308Y14514236D01*
X6985000Y14541943D01*
X6703691Y14514236D01*
X6433192Y14432182D01*
X6183899Y14298932D01*
X5965392Y14119607D01*
X5872581Y14006517D01*
X5870812Y14024482D01*
X5834502Y14144180D01*
X5775537Y14254494D01*
X5696185Y14351185D01*
X5599494Y14430537D01*
X5489180Y14489502D01*
X5369482Y14525812D01*
X5245000Y14538072D01*
X4730750Y14535000D01*
X4572000Y14376250D01*
X4572000Y12827000D01*
X4592000Y12827000D01*
X4592000Y12573000D01*
X4572000Y12573000D01*
X4572000Y11023750D01*
X4730750Y10865000D01*
X5245000Y10861928D01*
X5369482Y10874188D01*
X5489180Y10910498D01*
X5599494Y10969463D01*
X5696185Y11048815D01*
X5775537Y11145506D01*
X5834502Y11255820D01*
X5870812Y11375518D01*
X5872581Y11393483D01*
X5965393Y11280392D01*
X6183900Y11101068D01*
X6433193Y10967818D01*
X6703692Y10885764D01*
X6985000Y10858057D01*
X7266309Y10885764D01*
X7536808Y10967818D01*
X7551149Y10975483D01*
X7557364Y10963855D01*
X7661709Y10836709D01*
X7693579Y10810554D01*
X10081060Y8423072D01*
X9360000Y8423072D01*
X9235518Y8410812D01*
X9115820Y8374502D01*
X9005506Y8315537D01*
X8908815Y8236185D01*
X8898193Y8223242D01*
X8646004Y8342571D01*
X8371816Y8411300D01*
X8089488Y8425217D01*
X7809870Y8383787D01*
X7543708Y8288603D01*
X7418486Y8221671D01*
X7346903Y7977702D01*
X8160000Y7164605D01*
X8174143Y7178747D01*
X8353748Y6999142D01*
X8339605Y6985000D01*
X8353748Y6970857D01*
X8174143Y6791252D01*
X8160000Y6805395D01*
X7346903Y5992298D01*
X7418486Y5748329D01*
X7673996Y5627429D01*
X7948184Y5558700D01*
X8230512Y5544783D01*
X8510130Y5586213D01*
X8776292Y5681397D01*
X8898309Y5746616D01*
X8908815Y5733815D01*
X9005506Y5654463D01*
X9115820Y5595498D01*
X9235518Y5559188D01*
X9360000Y5546928D01*
X10960000Y5546928D01*
X11084482Y5559188D01*
X11204180Y5595498D01*
X11314494Y5654463D01*
X11411185Y5733815D01*
X11490537Y5830506D01*
X11549502Y5940820D01*
X11585812Y6060518D01*
X11594625Y6150000D01*
X16164133Y6150000D01*
X16321193Y5992940D01*
X16295000Y5861260D01*
X16295000Y5568740D01*
X16352068Y5281842D01*
X16464010Y5011589D01*
X16626525Y4768368D01*
X16833368Y4561525D01*
X17006729Y4445689D01*
X16931208Y4203397D01*
X17780000Y3354605D01*
X18628792Y4203397D01*
X18553271Y4445689D01*
X18726632Y4561525D01*
X18933475Y4768368D01*
X19050000Y4942760D01*
X19166525Y4768368D01*
X19373368Y4561525D01*
X19547760Y4445000D01*
X19373368Y4328475D01*
X19166525Y4121632D01*
X19050689Y3948271D01*
X18808397Y4023792D01*
X17959605Y3175000D01*
X18808397Y2326208D01*
X19050689Y2401729D01*
X19166525Y2228368D01*
X19373368Y2021525D01*
X19616589Y1859010D01*
X19886842Y1747068D01*
X20173740Y1690000D01*
X20466260Y1690000D01*
X20753158Y1747068D01*
X21023411Y1859010D01*
X21266632Y2021525D01*
X21473475Y2228368D01*
X21590000Y2402760D01*
X21706525Y2228368D01*
X21913368Y2021525D01*
X22156589Y1859010D01*
X22426842Y1747068D01*
X22713740Y1690000D01*
X23006260Y1690000D01*
X23293158Y1747068D01*
X23563411Y1859010D01*
X23806632Y2021525D01*
X24013475Y2228368D01*
X24130000Y2402760D01*
X24246525Y2228368D01*
X24453368Y2021525D01*
X24696589Y1859010D01*
X24966842Y1747068D01*
X25253740Y1690000D01*
X25546260Y1690000D01*
X25833158Y1747068D01*
X26103411Y1859010D01*
X26346632Y2021525D01*
X26553475Y2228368D01*
X26670000Y2402760D01*
X26786525Y2228368D01*
X26993368Y2021525D01*
X27236589Y1859010D01*
X27506842Y1747068D01*
X27793740Y1690000D01*
X28086260Y1690000D01*
X28373158Y1747068D01*
X28643411Y1859010D01*
X28886632Y2021525D01*
X29093475Y2228368D01*
X29210000Y2402760D01*
X29326525Y2228368D01*
X29533368Y2021525D01*
X29776589Y1859010D01*
X30046842Y1747068D01*
X30333740Y1690000D01*
X30626260Y1690000D01*
X30913158Y1747068D01*
X31183411Y1859010D01*
X31426632Y2021525D01*
X31633475Y2228368D01*
X31750000Y2402760D01*
X31866525Y2228368D01*
X32073368Y2021525D01*
X32316589Y1859010D01*
X32586842Y1747068D01*
X32873740Y1690000D01*
X33166260Y1690000D01*
X33297940Y1716193D01*
X33804858Y1209274D01*
X33831009Y1177409D01*
X33947166Y1082082D01*
X33958154Y1073064D01*
X34103213Y995528D01*
X34260611Y947782D01*
X34424299Y931660D01*
X34465318Y935700D01*
X36277615Y935700D01*
X36400644Y853495D01*
X36589002Y775474D01*
X36788961Y735700D01*
X36992839Y735700D01*
X37192798Y775474D01*
X37381156Y853495D01*
X37550674Y966763D01*
X37694837Y1110926D01*
X37808105Y1280444D01*
X37886126Y1468802D01*
X37925900Y1668761D01*
X37925900Y1695538D01*
X37953740Y1690000D01*
X38246260Y1690000D01*
X38377939Y1716193D01*
X39434131Y660000D01*
X660000Y660000D01*
X660000Y2146603D01*
X16931208Y2146603D01*
X17008843Y1897528D01*
X17272883Y1771629D01*
X17556411Y1699661D01*
X17848531Y1684389D01*
X18138019Y1726401D01*
X18413747Y1824081D01*
X18551157Y1897528D01*
X18628792Y2146603D01*
X17780000Y2995395D01*
X16931208Y2146603D01*
X660000Y2146603D01*
X660000Y3106469D01*
X16289389Y3106469D01*
X16331401Y2816981D01*
X16429081Y2541253D01*
X16502528Y2403843D01*
X16751603Y2326208D01*
X17600395Y3175000D01*
X16751603Y4023792D01*
X16502528Y3946157D01*
X16376629Y3682117D01*
X16304661Y3398589D01*
X16289389Y3106469D01*
X660000Y3106469D01*
X660000Y6914488D01*
X6719783Y6914488D01*
X6761213Y6634870D01*
X6856397Y6368708D01*
X6923329Y6243486D01*
X7167298Y6171903D01*
X7980395Y6985000D01*
X7167298Y7798097D01*
X6923329Y7726514D01*
X6802429Y7471004D01*
X6733700Y7196816D01*
X6719783Y6914488D01*
X660000Y6914488D01*
X660000Y11500000D01*
X3006928Y11500000D01*
X3019188Y11375518D01*
X3055498Y11255820D01*
X3114463Y11145506D01*
X3193815Y11048815D01*
X3290506Y10969463D01*
X3400820Y10910498D01*
X3520518Y10874188D01*
X3645000Y10861928D01*
X4159250Y10865000D01*
X4318000Y11023750D01*
X4318000Y12573000D01*
X3168750Y12573000D01*
X3010000Y12414250D01*
X3006928Y11500000D01*
X660000Y11500000D01*
X660000Y13900000D01*
X3006928Y13900000D01*
X3010000Y12985750D01*
X3168750Y12827000D01*
X4318000Y12827000D01*
X4318000Y14376250D01*
X4159250Y14535000D01*
X3645000Y14538072D01*
X3520518Y14525812D01*
X3400820Y14489502D01*
X3290506Y14430537D01*
X3193815Y14351185D01*
X3114463Y14254494D01*
X3055498Y14144180D01*
X3019188Y14024482D01*
X3006928Y13900000D01*
X660000Y13900000D01*
X660000Y45935000D01*
X2956928Y45935000D01*
X2956928Y44235000D01*
X2969188Y44110518D01*
X3005498Y43990820D01*
X3064463Y43880506D01*
X3143815Y43783815D01*
X3240506Y43704463D01*
X3350820Y43645498D01*
X3410000Y43627546D01*
X3410001Y29895838D01*
X3404994Y29845000D01*
X3424977Y29642105D01*
X3484160Y29447007D01*
X3580266Y29267203D01*
X3674157Y29152797D01*
X3709605Y29109604D01*
X3749092Y29077198D01*
X4947197Y27879092D01*
X4979604Y27839604D01*
X5019092Y27807197D01*
X5137202Y27710266D01*
X5233309Y27658896D01*
X5317007Y27614159D01*
X5512105Y27554976D01*
X5664162Y27540000D01*
X5664171Y27540000D01*
X5714999Y27534994D01*
X5765827Y27540000D01*
X25984172Y27540000D01*
X26035000Y27534994D01*
X26085828Y27540000D01*
X26085838Y27540000D01*
X26237895Y27554976D01*
X26432993Y27614159D01*
X26612797Y27710266D01*
X26770396Y27839604D01*
X26802807Y27879097D01*
X28000908Y29077197D01*
X28040396Y29109604D01*
X28088558Y29168290D01*
X28169734Y29267202D01*
X28248220Y29414040D01*
X28265841Y29447007D01*
X28325024Y29642105D01*
X28340000Y29794162D01*
X28340000Y29794171D01*
X28345006Y29844999D01*
X28340000Y29895827D01*
X28340000Y30349147D01*
X28503932Y30548899D01*
X28637182Y30798192D01*
X28719236Y31068691D01*
X28740000Y31279509D01*
X28740000Y32220492D01*
X28719236Y32431309D01*
X28637182Y32701808D01*
X28503932Y32951101D01*
X28324607Y33169608D01*
X28106100Y33348932D01*
X27856807Y33482182D01*
X27841161Y33486928D01*
X28105000Y33486928D01*
X28229482Y33499188D01*
X28349180Y33535498D01*
X28459494Y33594463D01*
X28556185Y33673815D01*
X28635537Y33770506D01*
X28694502Y33880820D01*
X28730812Y34000518D01*
X28743072Y34125000D01*
X28743072Y35725000D01*
X28730812Y35849482D01*
X28694502Y35969180D01*
X28635537Y36079494D01*
X28556185Y36176185D01*
X28459494Y36255537D01*
X28349180Y36314502D01*
X28229482Y36350812D01*
X28105000Y36363072D01*
X26505000Y36363072D01*
X26380518Y36350812D01*
X26260820Y36314502D01*
X26150506Y36255537D01*
X26053815Y36176185D01*
X25974463Y36079494D01*
X25915498Y35969180D01*
X25879188Y35849482D01*
X25878357Y35841039D01*
X25679759Y36039637D01*
X25444727Y36196680D01*
X25395478Y36217080D01*
X25520285Y36229372D01*
X25685709Y36279553D01*
X25838164Y36361042D01*
X25971792Y36470708D01*
X26081458Y36604336D01*
X26162947Y36756791D01*
X26213128Y36922215D01*
X26230072Y37094250D01*
X26230072Y37581750D01*
X26213128Y37753785D01*
X26162947Y37919209D01*
X26081458Y38071664D01*
X25971792Y38205292D01*
X25886244Y38275500D01*
X25971792Y38345708D01*
X26081458Y38479336D01*
X26162947Y38631791D01*
X26213128Y38797215D01*
X26230072Y38969250D01*
X26230072Y39456750D01*
X26213128Y39628785D01*
X26162947Y39794209D01*
X26081458Y39946664D01*
X25971792Y40080292D01*
X25838164Y40189958D01*
X25685709Y40271447D01*
X25520285Y40321628D01*
X25348250Y40338572D01*
X24435750Y40338572D01*
X24263715Y40321628D01*
X24098291Y40271447D01*
X24040142Y40240366D01*
X23850939Y40278000D01*
X23647061Y40278000D01*
X23447102Y40238226D01*
X23309035Y40181036D01*
X23298164Y40189958D01*
X23145709Y40271447D01*
X22980285Y40321628D01*
X22808250Y40338572D01*
X21895750Y40338572D01*
X21723715Y40321628D01*
X21558291Y40271447D01*
X21500142Y40240366D01*
X21310939Y40278000D01*
X21107061Y40278000D01*
X20907102Y40238226D01*
X20770898Y40181808D01*
X20758164Y40192258D01*
X20605709Y40273747D01*
X20440285Y40323928D01*
X20268250Y40340872D01*
X19355750Y40340872D01*
X19183715Y40323928D01*
X19018291Y40273747D01*
X18957006Y40240989D01*
X18770939Y40278000D01*
X18567061Y40278000D01*
X18367102Y40238226D01*
X18229035Y40181036D01*
X18218164Y40189958D01*
X18065709Y40271447D01*
X17900285Y40321628D01*
X17728250Y40338572D01*
X16815750Y40338572D01*
X16643715Y40321628D01*
X16478291Y40271447D01*
X16420142Y40240366D01*
X16230939Y40278000D01*
X16027061Y40278000D01*
X15827102Y40238226D01*
X15689035Y40181036D01*
X15678164Y40189958D01*
X15525709Y40271447D01*
X15360285Y40321628D01*
X15188250Y40338572D01*
X14275750Y40338572D01*
X14103715Y40321628D01*
X13938291Y40271447D01*
X13880142Y40240366D01*
X13690939Y40278000D01*
X13487061Y40278000D01*
X13287102Y40238226D01*
X13173329Y40191099D01*
X13138164Y40219958D01*
X12985709Y40301447D01*
X12820285Y40351628D01*
X12648250Y40368572D01*
X11735750Y40368572D01*
X11563715Y40351628D01*
X11398291Y40301447D01*
X11299238Y40248502D01*
X11150939Y40278000D01*
X10947061Y40278000D01*
X10747102Y40238226D01*
X10633329Y40191099D01*
X10598164Y40219958D01*
X10445709Y40301447D01*
X10280285Y40351628D01*
X10108250Y40368572D01*
X9195750Y40368572D01*
X9023715Y40351628D01*
X8858291Y40301447D01*
X8759238Y40248502D01*
X8610939Y40278000D01*
X8407061Y40278000D01*
X8207102Y40238226D01*
X8093329Y40191099D01*
X8058164Y40219958D01*
X7905709Y40301447D01*
X7740285Y40351628D01*
X7568250Y40368572D01*
X6655750Y40368572D01*
X6483715Y40351628D01*
X6318291Y40301447D01*
X6165836Y40219958D01*
X6130671Y40191099D01*
X6016898Y40238226D01*
X5816939Y40278000D01*
X5613061Y40278000D01*
X5480000Y40251533D01*
X5480000Y41914486D01*
X31685000Y41914486D01*
X31685000Y41651514D01*
X31736304Y41393595D01*
X31836939Y41150641D01*
X31983038Y40931987D01*
X32168987Y40746038D01*
X32387641Y40599939D01*
X32630595Y40499304D01*
X32888514Y40448000D01*
X33151486Y40448000D01*
X33409405Y40499304D01*
X33652359Y40599939D01*
X33871013Y40746038D01*
X34056962Y40931987D01*
X34203061Y41150641D01*
X34303696Y41393595D01*
X34355000Y41651514D01*
X34355000Y41914486D01*
X34303696Y42172405D01*
X34203061Y42415359D01*
X34056962Y42634013D01*
X33871013Y42819962D01*
X33652359Y42966061D01*
X33409405Y43066696D01*
X33151486Y43118000D01*
X32888514Y43118000D01*
X32630595Y43066696D01*
X32387641Y42966061D01*
X32168987Y42819962D01*
X31983038Y42634013D01*
X31836939Y42415359D01*
X31736304Y42172405D01*
X31685000Y41914486D01*
X5480000Y41914486D01*
X5480000Y43627546D01*
X5539180Y43645498D01*
X5649494Y43704463D01*
X5746185Y43783815D01*
X5825537Y43880506D01*
X5884502Y43990820D01*
X5906513Y44063380D01*
X6038368Y43931525D01*
X6281589Y43769010D01*
X6551842Y43657068D01*
X6838740Y43600000D01*
X7131260Y43600000D01*
X7418158Y43657068D01*
X7688411Y43769010D01*
X7931632Y43931525D01*
X8138475Y44138368D01*
X8255000Y44312760D01*
X8371525Y44138368D01*
X8578368Y43931525D01*
X8821589Y43769010D01*
X9091842Y43657068D01*
X9378740Y43600000D01*
X9671260Y43600000D01*
X9958158Y43657068D01*
X10228411Y43769010D01*
X10471632Y43931525D01*
X10678475Y44138368D01*
X10795000Y44312760D01*
X10911525Y44138368D01*
X11118368Y43931525D01*
X11361589Y43769010D01*
X11631842Y43657068D01*
X11918740Y43600000D01*
X12211260Y43600000D01*
X12498158Y43657068D01*
X12768411Y43769010D01*
X13011632Y43931525D01*
X13218475Y44138368D01*
X13335000Y44312760D01*
X13451525Y44138368D01*
X13658368Y43931525D01*
X13901589Y43769010D01*
X14171842Y43657068D01*
X14458740Y43600000D01*
X14751260Y43600000D01*
X15038158Y43657068D01*
X15308411Y43769010D01*
X15551632Y43931525D01*
X15758475Y44138368D01*
X15875000Y44312760D01*
X15991525Y44138368D01*
X16198368Y43931525D01*
X16441589Y43769010D01*
X16711842Y43657068D01*
X16998740Y43600000D01*
X17291260Y43600000D01*
X17578158Y43657068D01*
X17848411Y43769010D01*
X18091632Y43931525D01*
X18298475Y44138368D01*
X18415000Y44312760D01*
X18531525Y44138368D01*
X18738368Y43931525D01*
X18981589Y43769010D01*
X19251842Y43657068D01*
X19538740Y43600000D01*
X19831260Y43600000D01*
X20118158Y43657068D01*
X20388411Y43769010D01*
X20631632Y43931525D01*
X20838475Y44138368D01*
X20955000Y44312760D01*
X21071525Y44138368D01*
X21278368Y43931525D01*
X21521589Y43769010D01*
X21791842Y43657068D01*
X22078740Y43600000D01*
X22371260Y43600000D01*
X22658158Y43657068D01*
X22928411Y43769010D01*
X23171632Y43931525D01*
X23378475Y44138368D01*
X23495000Y44312760D01*
X23611525Y44138368D01*
X23818368Y43931525D01*
X24061589Y43769010D01*
X24331842Y43657068D01*
X24618740Y43600000D01*
X24911260Y43600000D01*
X25198158Y43657068D01*
X25468411Y43769010D01*
X25711632Y43931525D01*
X25918475Y44138368D01*
X26040195Y44320534D01*
X26109822Y44203645D01*
X26304731Y43987412D01*
X26538080Y43813359D01*
X26800901Y43688175D01*
X26948110Y43643524D01*
X27178000Y43764845D01*
X27178000Y44958000D01*
X27432000Y44958000D01*
X27432000Y43764845D01*
X27661890Y43643524D01*
X27809099Y43688175D01*
X28071920Y43813359D01*
X28305269Y43987412D01*
X28500178Y44203645D01*
X28649157Y44453748D01*
X28746481Y44728109D01*
X28625814Y44958000D01*
X27432000Y44958000D01*
X27178000Y44958000D01*
X27158000Y44958000D01*
X27158000Y45212000D01*
X27178000Y45212000D01*
X27178000Y46405155D01*
X27432000Y46405155D01*
X27432000Y45212000D01*
X28625814Y45212000D01*
X28746481Y45441891D01*
X28649157Y45716252D01*
X28500178Y45966355D01*
X28305269Y46182588D01*
X28071920Y46356641D01*
X27809099Y46481825D01*
X27661890Y46526476D01*
X27432000Y46405155D01*
X27178000Y46405155D01*
X26948110Y46526476D01*
X26800901Y46481825D01*
X26538080Y46356641D01*
X26304731Y46182588D01*
X26109822Y45966355D01*
X26040195Y45849466D01*
X25918475Y46031632D01*
X25711632Y46238475D01*
X25468411Y46400990D01*
X25198158Y46512932D01*
X24911260Y46570000D01*
X24618740Y46570000D01*
X24331842Y46512932D01*
X24061589Y46400990D01*
X23818368Y46238475D01*
X23611525Y46031632D01*
X23495000Y45857240D01*
X23378475Y46031632D01*
X23171632Y46238475D01*
X22928411Y46400990D01*
X22658158Y46512932D01*
X22371260Y46570000D01*
X22078740Y46570000D01*
X21791842Y46512932D01*
X21521589Y46400990D01*
X21278368Y46238475D01*
X21071525Y46031632D01*
X20955000Y45857240D01*
X20838475Y46031632D01*
X20631632Y46238475D01*
X20388411Y46400990D01*
X20118158Y46512932D01*
X19831260Y46570000D01*
X19538740Y46570000D01*
X19251842Y46512932D01*
X18981589Y46400990D01*
X18738368Y46238475D01*
X18531525Y46031632D01*
X18415000Y45857240D01*
X18298475Y46031632D01*
X18091632Y46238475D01*
X17848411Y46400990D01*
X17578158Y46512932D01*
X17291260Y46570000D01*
X16998740Y46570000D01*
X16711842Y46512932D01*
X16441589Y46400990D01*
X16198368Y46238475D01*
X15991525Y46031632D01*
X15875000Y45857240D01*
X15758475Y46031632D01*
X15551632Y46238475D01*
X15308411Y46400990D01*
X15038158Y46512932D01*
X14751260Y46570000D01*
X14458740Y46570000D01*
X14171842Y46512932D01*
X13901589Y46400990D01*
X13658368Y46238475D01*
X13451525Y46031632D01*
X13335000Y45857240D01*
X13218475Y46031632D01*
X13011632Y46238475D01*
X12768411Y46400990D01*
X12498158Y46512932D01*
X12211260Y46570000D01*
X11918740Y46570000D01*
X11631842Y46512932D01*
X11361589Y46400990D01*
X11118368Y46238475D01*
X10911525Y46031632D01*
X10795000Y45857240D01*
X10678475Y46031632D01*
X10471632Y46238475D01*
X10228411Y46400990D01*
X9958158Y46512932D01*
X9671260Y46570000D01*
X9378740Y46570000D01*
X9091842Y46512932D01*
X8821589Y46400990D01*
X8578368Y46238475D01*
X8371525Y46031632D01*
X8255000Y45857240D01*
X8138475Y46031632D01*
X7931632Y46238475D01*
X7688411Y46400990D01*
X7418158Y46512932D01*
X7131260Y46570000D01*
X6838740Y46570000D01*
X6551842Y46512932D01*
X6281589Y46400990D01*
X6038368Y46238475D01*
X5906513Y46106620D01*
X5884502Y46179180D01*
X5825537Y46289494D01*
X5746185Y46386185D01*
X5649494Y46465537D01*
X5539180Y46524502D01*
X5419482Y46560812D01*
X5295000Y46573072D01*
X3595000Y46573072D01*
X3470518Y46560812D01*
X3350820Y46524502D01*
X3240506Y46465537D01*
X3143815Y46386185D01*
X3064463Y46289494D01*
X3005498Y46179180D01*
X2969188Y46059482D01*
X2956928Y45935000D01*
X660000Y45935000D01*
X660000Y48870000D01*
X75540001Y48870000D01*
X75540000Y660000D01*
%TA.AperFunction,Conductor*%
D26*
G36*
X75540000Y660000D02*
G01*
X49103868Y660000D01*
X50091432Y1647563D01*
X50123291Y1673709D01*
X50178771Y1741311D01*
X50227636Y1800854D01*
X50229332Y1804026D01*
X50366842Y1747068D01*
X50653740Y1690000D01*
X50946260Y1690000D01*
X51233158Y1747068D01*
X51503411Y1859010D01*
X51746632Y2021525D01*
X51953475Y2228368D01*
X52070000Y2402760D01*
X52186525Y2228368D01*
X52393368Y2021525D01*
X52636589Y1859010D01*
X52906842Y1747068D01*
X53193740Y1690000D01*
X53486260Y1690000D01*
X53773158Y1747068D01*
X54043411Y1859010D01*
X54286632Y2021525D01*
X54493475Y2228368D01*
X54610000Y2402760D01*
X54726525Y2228368D01*
X54933368Y2021525D01*
X55176589Y1859010D01*
X55446842Y1747068D01*
X55733740Y1690000D01*
X56026260Y1690000D01*
X56313158Y1747068D01*
X56583411Y1859010D01*
X56826632Y2021525D01*
X57033475Y2228368D01*
X57150000Y2402760D01*
X57266525Y2228368D01*
X57473368Y2021525D01*
X57716589Y1859010D01*
X57986842Y1747068D01*
X58273740Y1690000D01*
X58566260Y1690000D01*
X58853158Y1747068D01*
X59123411Y1859010D01*
X59366632Y2021525D01*
X59573475Y2228368D01*
X59735990Y2471589D01*
X59847932Y2741842D01*
X59905000Y3028740D01*
X59905000Y3321260D01*
X59847932Y3608158D01*
X59735990Y3878411D01*
X59573475Y4121632D01*
X59386392Y4308715D01*
X59513386Y4376595D01*
X59647962Y4487038D01*
X59758405Y4621614D01*
X59840472Y4775150D01*
X59891008Y4941746D01*
X59908072Y5115000D01*
X59908072Y6315000D01*
X59891008Y6488254D01*
X59840472Y6654850D01*
X59758405Y6808386D01*
X59647962Y6942962D01*
X59513386Y7053405D01*
X59359850Y7135472D01*
X59193254Y7186008D01*
X59020000Y7203072D01*
X57820000Y7203072D01*
X57646746Y7186008D01*
X57480150Y7135472D01*
X57326614Y7053405D01*
X57192038Y6942962D01*
X57081595Y6808386D01*
X57013715Y6681392D01*
X56826632Y6868475D01*
X56583411Y7030990D01*
X56313158Y7142932D01*
X56026260Y7200000D01*
X55733740Y7200000D01*
X55446842Y7142932D01*
X55176589Y7030990D01*
X54933368Y6868475D01*
X54726525Y6661632D01*
X54610000Y6487240D01*
X54493475Y6661632D01*
X54286632Y6868475D01*
X54056447Y7022280D01*
X59534168Y12500000D01*
X60791928Y12500000D01*
X60791928Y11265000D01*
X60804188Y11140518D01*
X60809429Y11123240D01*
X60688256Y11204205D01*
X60499898Y11282226D01*
X60299939Y11322000D01*
X60096061Y11322000D01*
X59896102Y11282226D01*
X59707744Y11204205D01*
X59584715Y11122000D01*
X59350018Y11122000D01*
X59309000Y11126040D01*
X59267981Y11122000D01*
X59145311Y11109918D01*
X58987913Y11062172D01*
X58842854Y10984636D01*
X58715709Y10880291D01*
X58689559Y10848427D01*
X56993974Y9152841D01*
X56847602Y9123726D01*
X56659244Y9045705D01*
X56489726Y8932437D01*
X56345563Y8788274D01*
X56232295Y8618756D01*
X56154274Y8430398D01*
X56114500Y8230439D01*
X56114500Y8026561D01*
X56154274Y7826602D01*
X56232295Y7638244D01*
X56345563Y7468726D01*
X56489726Y7324563D01*
X56659244Y7211295D01*
X56847602Y7133274D01*
X57047561Y7093500D01*
X57251439Y7093500D01*
X57451398Y7133274D01*
X57639756Y7211295D01*
X57809274Y7324563D01*
X57953437Y7468726D01*
X58066705Y7638244D01*
X58144726Y7826602D01*
X58173344Y7970477D01*
X59626769Y9423901D01*
X59707744Y9369795D01*
X59896102Y9291774D01*
X60096061Y9252000D01*
X60299939Y9252000D01*
X60499898Y9291774D01*
X60688256Y9369795D01*
X60857774Y9483063D01*
X61001937Y9627226D01*
X61115205Y9796744D01*
X61193226Y9985102D01*
X61233000Y10185061D01*
X61233000Y10388939D01*
X61193226Y10588898D01*
X61149260Y10695040D01*
X61185820Y10675498D01*
X61305518Y10639188D01*
X61430000Y10626928D01*
X63030000Y10626928D01*
X63154482Y10639188D01*
X63274180Y10675498D01*
X63384494Y10734463D01*
X63481185Y10813815D01*
X63560537Y10910506D01*
X63619502Y11020820D01*
X63655812Y11140518D01*
X63664625Y11230000D01*
X66760982Y11230000D01*
X66802000Y11225960D01*
X66843018Y11230000D01*
X66843019Y11230000D01*
X66965689Y11242082D01*
X67123087Y11289828D01*
X67268146Y11367364D01*
X67395291Y11471709D01*
X67421446Y11503579D01*
X67633828Y11715961D01*
X68458096Y11715961D01*
X68498754Y11581913D01*
X68618963Y11327580D01*
X68786481Y11101586D01*
X68994869Y10912615D01*
X69236119Y10767930D01*
X69500960Y10673091D01*
X69723000Y10794376D01*
X69723000Y11938000D01*
X69977000Y11938000D01*
X69977000Y10794376D01*
X70199040Y10673091D01*
X70463881Y10767930D01*
X70705131Y10912615D01*
X70913519Y11101586D01*
X71081037Y11327580D01*
X71201246Y11581913D01*
X71241904Y11715961D01*
X71119915Y11938000D01*
X69977000Y11938000D01*
X69723000Y11938000D01*
X68580085Y11938000D01*
X68458096Y11715961D01*
X67633828Y11715961D01*
X68528150Y12610283D01*
X68498754Y12548087D01*
X68458096Y12414039D01*
X68580085Y12192000D01*
X69723000Y12192000D01*
X69723000Y13335624D01*
X69977000Y13335624D01*
X69977000Y12192000D01*
X71119915Y12192000D01*
X71241904Y12414039D01*
X71201246Y12548087D01*
X71081037Y12802420D01*
X70913519Y13028414D01*
X70705131Y13217385D01*
X70463881Y13362070D01*
X70199040Y13456909D01*
X69977000Y13335624D01*
X69723000Y13335624D01*
X69500960Y13456909D01*
X69304384Y13386515D01*
X70068869Y14151000D01*
X71332982Y14151000D01*
X71374000Y14146960D01*
X71415018Y14151000D01*
X71415019Y14151000D01*
X71537689Y14163082D01*
X71695087Y14210828D01*
X71840146Y14288364D01*
X71967291Y14392709D01*
X71993446Y14424579D01*
X73713432Y16144563D01*
X73745291Y16170709D01*
X73809338Y16248750D01*
X73849636Y16297854D01*
X73927172Y16442913D01*
X73943634Y16497182D01*
X73974918Y16600311D01*
X73987000Y16722981D01*
X73987000Y16722982D01*
X73991040Y16764000D01*
X73987000Y16805018D01*
X73987000Y45170982D01*
X73991040Y45212000D01*
X73974918Y45375688D01*
X73927172Y45533087D01*
X73849636Y45678146D01*
X73771439Y45773430D01*
X73771437Y45773432D01*
X73745291Y45805291D01*
X73713433Y45831436D01*
X71993446Y47551421D01*
X71967291Y47583291D01*
X71840146Y47687636D01*
X71695087Y47765172D01*
X71537689Y47812918D01*
X71415019Y47825000D01*
X71415018Y47825000D01*
X71374000Y47829040D01*
X71332982Y47825000D01*
X45634015Y47825000D01*
X45592999Y47829040D01*
X45551983Y47825000D01*
X45551981Y47825000D01*
X45429311Y47812918D01*
X45271913Y47765172D01*
X45126854Y47687636D01*
X44999709Y47583291D01*
X44973558Y47551426D01*
X43761574Y46339441D01*
X43729710Y46313291D01*
X43703562Y46281429D01*
X43625364Y46186145D01*
X43547828Y46041086D01*
X43500082Y45883688D01*
X43483960Y45720000D01*
X43488001Y45678972D01*
X43488000Y43271868D01*
X42834133Y42618000D01*
X41687661Y42618000D01*
X41676962Y42634013D01*
X41491013Y42819962D01*
X41272359Y42966061D01*
X41029405Y43066696D01*
X40771486Y43118000D01*
X40508514Y43118000D01*
X40250595Y43066696D01*
X40007641Y42966061D01*
X39788987Y42819962D01*
X39603038Y42634013D01*
X39456939Y42415359D01*
X39356304Y42172405D01*
X39305000Y41914486D01*
X39305000Y41651514D01*
X39356304Y41393595D01*
X39456939Y41150641D01*
X39603038Y40931987D01*
X39788987Y40746038D01*
X40007641Y40599939D01*
X40250595Y40499304D01*
X40508514Y40448000D01*
X40771486Y40448000D01*
X41029405Y40499304D01*
X41272359Y40599939D01*
X41491013Y40746038D01*
X41676962Y40931987D01*
X41687661Y40948000D01*
X42345001Y40948000D01*
X42345000Y38059702D01*
X42303715Y38156646D01*
X42144500Y38389895D01*
X41942839Y38587601D01*
X41706483Y38742166D01*
X41444514Y38847650D01*
X41167000Y38900000D01*
X40767000Y38900000D01*
X40767000Y37592000D01*
X40787000Y37592000D01*
X40787000Y37338000D01*
X40767000Y37338000D01*
X40767000Y37318000D01*
X40513000Y37318000D01*
X40513000Y37338000D01*
X38970085Y37338000D01*
X38848096Y37115961D01*
X38865633Y37033182D01*
X38866988Y37030000D01*
X38522015Y37030000D01*
X38480999Y37034040D01*
X38439983Y37030000D01*
X38439981Y37030000D01*
X38317311Y37017918D01*
X38159913Y36970172D01*
X38014854Y36892636D01*
X37887709Y36788291D01*
X37861561Y36756429D01*
X36865133Y35760000D01*
X34591112Y35760000D01*
X34439608Y35944608D01*
X34221101Y36123932D01*
X34088142Y36195000D01*
X34221101Y36266068D01*
X34439608Y36445392D01*
X34618932Y36663899D01*
X34752182Y36913192D01*
X34834236Y37183691D01*
X34861943Y37465000D01*
X34834236Y37746309D01*
X34813691Y37814039D01*
X38848096Y37814039D01*
X38970085Y37592000D01*
X40513000Y37592000D01*
X40513000Y38900000D01*
X40113000Y38900000D01*
X39835486Y38847650D01*
X39573517Y38742166D01*
X39337161Y38587601D01*
X39135500Y38389895D01*
X38976285Y38156646D01*
X38865633Y37896818D01*
X38848096Y37814039D01*
X34813691Y37814039D01*
X34752182Y38016808D01*
X34618932Y38266101D01*
X34439608Y38484608D01*
X34221101Y38663932D01*
X33971808Y38797182D01*
X33701309Y38879236D01*
X33490492Y38900000D01*
X32549508Y38900000D01*
X32338691Y38879236D01*
X32068192Y38797182D01*
X31818899Y38663932D01*
X31600392Y38484608D01*
X31421068Y38266101D01*
X31287818Y38016808D01*
X31205764Y37746309D01*
X31178057Y37465000D01*
X31205764Y37183691D01*
X31287818Y36913192D01*
X31421068Y36663899D01*
X31600392Y36445392D01*
X31818899Y36266068D01*
X31951858Y36195000D01*
X31818899Y36123932D01*
X31600392Y35944608D01*
X31421068Y35726101D01*
X31287818Y35476808D01*
X31205764Y35206309D01*
X31178057Y34925000D01*
X31205764Y34643691D01*
X31287818Y34373192D01*
X31421068Y34123899D01*
X31600392Y33905392D01*
X31818899Y33726068D01*
X31951858Y33655000D01*
X31818899Y33583932D01*
X31600392Y33404608D01*
X31421068Y33186101D01*
X31287818Y32936808D01*
X31205764Y32666309D01*
X31178057Y32385000D01*
X31205764Y32103691D01*
X31287818Y31833192D01*
X31421068Y31583899D01*
X31600392Y31365392D01*
X31818899Y31186068D01*
X31951858Y31115000D01*
X31818899Y31043932D01*
X31600392Y30864608D01*
X31421068Y30646101D01*
X31287818Y30396808D01*
X31205764Y30126309D01*
X31178057Y29845000D01*
X31205764Y29563691D01*
X31287818Y29293192D01*
X31421068Y29043899D01*
X31600392Y28825392D01*
X31818899Y28646068D01*
X31951858Y28575000D01*
X31818899Y28503932D01*
X31600392Y28324608D01*
X31421068Y28106101D01*
X31287818Y27856808D01*
X31205764Y27586309D01*
X31178057Y27305000D01*
X31205764Y27023691D01*
X31287818Y26753192D01*
X31421068Y26503899D01*
X31600392Y26285392D01*
X31818899Y26106068D01*
X31951858Y26035000D01*
X31818899Y25963932D01*
X31600392Y25784608D01*
X31421068Y25566101D01*
X31287818Y25316808D01*
X31205764Y25046309D01*
X31178057Y24765000D01*
X31205764Y24483691D01*
X31287818Y24213192D01*
X31421068Y23963899D01*
X31600392Y23745392D01*
X31818899Y23566068D01*
X31951858Y23495000D01*
X31818899Y23423932D01*
X31600392Y23244608D01*
X31421068Y23026101D01*
X31287818Y22776808D01*
X31205764Y22506309D01*
X31178057Y22225000D01*
X31205764Y21943691D01*
X31287818Y21673192D01*
X31421068Y21423899D01*
X31600392Y21205392D01*
X31818899Y21026068D01*
X31951858Y20955000D01*
X31818899Y20883932D01*
X31600392Y20704608D01*
X31454288Y20526580D01*
X31099445Y20881422D01*
X31073291Y20913291D01*
X30946146Y21017636D01*
X30801087Y21095172D01*
X30643689Y21142918D01*
X30521019Y21155000D01*
X30521018Y21155000D01*
X30480000Y21159040D01*
X30438982Y21155000D01*
X28672615Y21155000D01*
X28637182Y21271808D01*
X28503932Y21521101D01*
X28324607Y21739608D01*
X28106100Y21918932D01*
X27856807Y22052182D01*
X27586308Y22134236D01*
X27305000Y22161943D01*
X27023691Y22134236D01*
X26753192Y22052182D01*
X26503899Y21918932D01*
X26285392Y21739607D01*
X26106068Y21521100D01*
X26035000Y21388142D01*
X25963932Y21521101D01*
X25784607Y21739608D01*
X25566100Y21918932D01*
X25316807Y22052182D01*
X25046308Y22134236D01*
X24765000Y22161943D01*
X24741262Y22159605D01*
X24596183Y22304684D01*
X24765000Y22288057D01*
X25046309Y22315764D01*
X25316808Y22397818D01*
X25566101Y22531068D01*
X25784608Y22710392D01*
X25963932Y22928899D01*
X26032265Y23056741D01*
X26182399Y22827161D01*
X26380105Y22625500D01*
X26613354Y22466285D01*
X26873182Y22355633D01*
X26955961Y22338096D01*
X27178000Y22460085D01*
X27178000Y24003000D01*
X27432000Y24003000D01*
X27432000Y22460085D01*
X27654039Y22338096D01*
X27736818Y22355633D01*
X27996646Y22466285D01*
X28229895Y22625500D01*
X28427601Y22827161D01*
X28582166Y23063517D01*
X28687650Y23325486D01*
X28740000Y23603000D01*
X28740000Y24003000D01*
X27432000Y24003000D01*
X27178000Y24003000D01*
X27158000Y24003000D01*
X27158000Y24257000D01*
X27178000Y24257000D01*
X27178000Y25799915D01*
X27432000Y25799915D01*
X27432000Y24257000D01*
X28740000Y24257000D01*
X28740000Y24657000D01*
X28687650Y24934514D01*
X28582166Y25196483D01*
X28427601Y25432839D01*
X28229895Y25634500D01*
X27996646Y25793715D01*
X27736818Y25904367D01*
X27654039Y25921904D01*
X27432000Y25799915D01*
X27178000Y25799915D01*
X26955961Y25921904D01*
X26873182Y25904367D01*
X26613354Y25793715D01*
X26380105Y25634500D01*
X26182399Y25432839D01*
X26032265Y25203259D01*
X25963932Y25331101D01*
X25784607Y25549608D01*
X25566100Y25728932D01*
X25523931Y25751472D01*
X25462636Y25866146D01*
X25358291Y25993291D01*
X25326426Y26019442D01*
X24114446Y27231421D01*
X24088291Y27263291D01*
X23961146Y27367636D01*
X23816087Y27445172D01*
X23658689Y27492918D01*
X23536019Y27505000D01*
X23536018Y27505000D01*
X23495000Y27509040D01*
X23453982Y27505000D01*
X9566015Y27505000D01*
X9524999Y27509040D01*
X9483983Y27505000D01*
X9483981Y27505000D01*
X9361311Y27492918D01*
X9203913Y27445172D01*
X9058854Y27367636D01*
X8931709Y27263291D01*
X8905558Y27231426D01*
X7693579Y26019446D01*
X7661709Y25993291D01*
X7641013Y25968072D01*
X6185000Y25968072D01*
X6060518Y25955812D01*
X5940820Y25919502D01*
X5830506Y25860537D01*
X5733815Y25781185D01*
X5654463Y25684494D01*
X5595498Y25574180D01*
X5559188Y25454482D01*
X5546928Y25330000D01*
X5546928Y22930000D01*
X5559188Y22805518D01*
X5595498Y22685820D01*
X5654463Y22575506D01*
X5733815Y22478815D01*
X5830506Y22399463D01*
X5940820Y22340498D01*
X6060518Y22304188D01*
X6185000Y22291928D01*
X7420001Y22291928D01*
X7420001Y22087614D01*
X7266308Y22134236D01*
X6985000Y22161943D01*
X6703691Y22134236D01*
X6433192Y22052182D01*
X6183899Y21918932D01*
X5965392Y21739607D01*
X5786068Y21521100D01*
X5715000Y21388142D01*
X5643932Y21521101D01*
X5464607Y21739608D01*
X5246100Y21918932D01*
X4996807Y22052182D01*
X4726308Y22134236D01*
X4445000Y22161943D01*
X4163691Y22134236D01*
X3893192Y22052182D01*
X3643899Y21918932D01*
X3425392Y21739607D01*
X3246068Y21521100D01*
X3112818Y21271807D01*
X3030764Y21001308D01*
X3010000Y20790491D01*
X3010000Y19849508D01*
X3030764Y19638691D01*
X3112818Y19368192D01*
X3246068Y19118899D01*
X3425393Y18900392D01*
X3643900Y18721068D01*
X3893193Y18587818D01*
X4163692Y18505764D01*
X4445000Y18478057D01*
X4726309Y18505764D01*
X4996808Y18587818D01*
X5246101Y18721068D01*
X5464608Y18900392D01*
X5643932Y19118899D01*
X5715000Y19251858D01*
X5786068Y19118899D01*
X5965393Y18900392D01*
X6183900Y18721068D01*
X6433193Y18587818D01*
X6703692Y18505764D01*
X6985000Y18478057D01*
X7266309Y18505764D01*
X7536808Y18587818D01*
X7786101Y18721068D01*
X8004608Y18900392D01*
X8183932Y19118899D01*
X8255000Y19251858D01*
X8326068Y19118899D01*
X8505393Y18900392D01*
X8690001Y18748888D01*
X8690001Y18125869D01*
X7693574Y17129441D01*
X7661710Y17103291D01*
X7635562Y17071429D01*
X7557364Y16976145D01*
X7479828Y16831086D01*
X7432082Y16673688D01*
X7415960Y16510000D01*
X7420001Y16468972D01*
X7420001Y14467614D01*
X7266308Y14514236D01*
X6985000Y14541943D01*
X6703691Y14514236D01*
X6433192Y14432182D01*
X6183899Y14298932D01*
X5965392Y14119607D01*
X5872581Y14006517D01*
X5870812Y14024482D01*
X5834502Y14144180D01*
X5775537Y14254494D01*
X5696185Y14351185D01*
X5599494Y14430537D01*
X5489180Y14489502D01*
X5369482Y14525812D01*
X5245000Y14538072D01*
X4730750Y14535000D01*
X4572000Y14376250D01*
X4572000Y12827000D01*
X4592000Y12827000D01*
X4592000Y12573000D01*
X4572000Y12573000D01*
X4572000Y11023750D01*
X4730750Y10865000D01*
X5245000Y10861928D01*
X5369482Y10874188D01*
X5489180Y10910498D01*
X5599494Y10969463D01*
X5696185Y11048815D01*
X5775537Y11145506D01*
X5834502Y11255820D01*
X5870812Y11375518D01*
X5872581Y11393483D01*
X5965393Y11280392D01*
X6183900Y11101068D01*
X6433193Y10967818D01*
X6703692Y10885764D01*
X6985000Y10858057D01*
X7266309Y10885764D01*
X7536808Y10967818D01*
X7551149Y10975483D01*
X7557364Y10963855D01*
X7661709Y10836709D01*
X7693579Y10810554D01*
X10081060Y8423072D01*
X9360000Y8423072D01*
X9235518Y8410812D01*
X9115820Y8374502D01*
X9005506Y8315537D01*
X8908815Y8236185D01*
X8898193Y8223242D01*
X8646004Y8342571D01*
X8371816Y8411300D01*
X8089488Y8425217D01*
X7809870Y8383787D01*
X7543708Y8288603D01*
X7418486Y8221671D01*
X7346903Y7977702D01*
X8160000Y7164605D01*
X8174143Y7178747D01*
X8353748Y6999142D01*
X8339605Y6985000D01*
X8353748Y6970857D01*
X8174143Y6791252D01*
X8160000Y6805395D01*
X7346903Y5992298D01*
X7418486Y5748329D01*
X7673996Y5627429D01*
X7948184Y5558700D01*
X8230512Y5544783D01*
X8510130Y5586213D01*
X8776292Y5681397D01*
X8898309Y5746616D01*
X8908815Y5733815D01*
X9005506Y5654463D01*
X9115820Y5595498D01*
X9235518Y5559188D01*
X9360000Y5546928D01*
X10960000Y5546928D01*
X11084482Y5559188D01*
X11204180Y5595498D01*
X11314494Y5654463D01*
X11411185Y5733815D01*
X11490537Y5830506D01*
X11549502Y5940820D01*
X11585812Y6060518D01*
X11594625Y6150000D01*
X16164133Y6150000D01*
X16321193Y5992940D01*
X16295000Y5861260D01*
X16295000Y5568740D01*
X16352068Y5281842D01*
X16464010Y5011589D01*
X16626525Y4768368D01*
X16833368Y4561525D01*
X17006729Y4445689D01*
X16931208Y4203397D01*
X17780000Y3354605D01*
X18628792Y4203397D01*
X18553271Y4445689D01*
X18726632Y4561525D01*
X18933475Y4768368D01*
X19050000Y4942760D01*
X19166525Y4768368D01*
X19373368Y4561525D01*
X19547760Y4445000D01*
X19373368Y4328475D01*
X19166525Y4121632D01*
X19050689Y3948271D01*
X18808397Y4023792D01*
X17959605Y3175000D01*
X18808397Y2326208D01*
X19050689Y2401729D01*
X19166525Y2228368D01*
X19373368Y2021525D01*
X19616589Y1859010D01*
X19886842Y1747068D01*
X20173740Y1690000D01*
X20466260Y1690000D01*
X20753158Y1747068D01*
X21023411Y1859010D01*
X21266632Y2021525D01*
X21473475Y2228368D01*
X21590000Y2402760D01*
X21706525Y2228368D01*
X21913368Y2021525D01*
X22156589Y1859010D01*
X22426842Y1747068D01*
X22713740Y1690000D01*
X23006260Y1690000D01*
X23293158Y1747068D01*
X23563411Y1859010D01*
X23806632Y2021525D01*
X24013475Y2228368D01*
X24130000Y2402760D01*
X24246525Y2228368D01*
X24453368Y2021525D01*
X24696589Y1859010D01*
X24966842Y1747068D01*
X25253740Y1690000D01*
X25546260Y1690000D01*
X25833158Y1747068D01*
X26103411Y1859010D01*
X26346632Y2021525D01*
X26553475Y2228368D01*
X26670000Y2402760D01*
X26786525Y2228368D01*
X26993368Y2021525D01*
X27236589Y1859010D01*
X27506842Y1747068D01*
X27793740Y1690000D01*
X28086260Y1690000D01*
X28373158Y1747068D01*
X28643411Y1859010D01*
X28886632Y2021525D01*
X29093475Y2228368D01*
X29210000Y2402760D01*
X29326525Y2228368D01*
X29533368Y2021525D01*
X29776589Y1859010D01*
X30046842Y1747068D01*
X30333740Y1690000D01*
X30626260Y1690000D01*
X30913158Y1747068D01*
X31183411Y1859010D01*
X31426632Y2021525D01*
X31633475Y2228368D01*
X31750000Y2402760D01*
X31866525Y2228368D01*
X32073368Y2021525D01*
X32316589Y1859010D01*
X32586842Y1747068D01*
X32873740Y1690000D01*
X33166260Y1690000D01*
X33297940Y1716193D01*
X33804858Y1209274D01*
X33831009Y1177409D01*
X33947166Y1082082D01*
X33958154Y1073064D01*
X34103213Y995528D01*
X34260611Y947782D01*
X34424299Y931660D01*
X34465318Y935700D01*
X36277615Y935700D01*
X36400644Y853495D01*
X36589002Y775474D01*
X36788961Y735700D01*
X36992839Y735700D01*
X37192798Y775474D01*
X37381156Y853495D01*
X37550674Y966763D01*
X37694837Y1110926D01*
X37808105Y1280444D01*
X37886126Y1468802D01*
X37925900Y1668761D01*
X37925900Y1695538D01*
X37953740Y1690000D01*
X38246260Y1690000D01*
X38377939Y1716193D01*
X39434131Y660000D01*
X660000Y660000D01*
X660000Y2146603D01*
X16931208Y2146603D01*
X17008843Y1897528D01*
X17272883Y1771629D01*
X17556411Y1699661D01*
X17848531Y1684389D01*
X18138019Y1726401D01*
X18413747Y1824081D01*
X18551157Y1897528D01*
X18628792Y2146603D01*
X17780000Y2995395D01*
X16931208Y2146603D01*
X660000Y2146603D01*
X660000Y3106469D01*
X16289389Y3106469D01*
X16331401Y2816981D01*
X16429081Y2541253D01*
X16502528Y2403843D01*
X16751603Y2326208D01*
X17600395Y3175000D01*
X16751603Y4023792D01*
X16502528Y3946157D01*
X16376629Y3682117D01*
X16304661Y3398589D01*
X16289389Y3106469D01*
X660000Y3106469D01*
X660000Y6914488D01*
X6719783Y6914488D01*
X6761213Y6634870D01*
X6856397Y6368708D01*
X6923329Y6243486D01*
X7167298Y6171903D01*
X7980395Y6985000D01*
X7167298Y7798097D01*
X6923329Y7726514D01*
X6802429Y7471004D01*
X6733700Y7196816D01*
X6719783Y6914488D01*
X660000Y6914488D01*
X660000Y11500000D01*
X3006928Y11500000D01*
X3019188Y11375518D01*
X3055498Y11255820D01*
X3114463Y11145506D01*
X3193815Y11048815D01*
X3290506Y10969463D01*
X3400820Y10910498D01*
X3520518Y10874188D01*
X3645000Y10861928D01*
X4159250Y10865000D01*
X4318000Y11023750D01*
X4318000Y12573000D01*
X3168750Y12573000D01*
X3010000Y12414250D01*
X3006928Y11500000D01*
X660000Y11500000D01*
X660000Y13900000D01*
X3006928Y13900000D01*
X3010000Y12985750D01*
X3168750Y12827000D01*
X4318000Y12827000D01*
X4318000Y14376250D01*
X4159250Y14535000D01*
X3645000Y14538072D01*
X3520518Y14525812D01*
X3400820Y14489502D01*
X3290506Y14430537D01*
X3193815Y14351185D01*
X3114463Y14254494D01*
X3055498Y14144180D01*
X3019188Y14024482D01*
X3006928Y13900000D01*
X660000Y13900000D01*
X660000Y45935000D01*
X2956928Y45935000D01*
X2956928Y44235000D01*
X2969188Y44110518D01*
X3005498Y43990820D01*
X3064463Y43880506D01*
X3143815Y43783815D01*
X3240506Y43704463D01*
X3350820Y43645498D01*
X3410000Y43627546D01*
X3410001Y29895838D01*
X3404994Y29845000D01*
X3424977Y29642105D01*
X3484160Y29447007D01*
X3580266Y29267203D01*
X3674157Y29152797D01*
X3709605Y29109604D01*
X3749092Y29077198D01*
X4947197Y27879092D01*
X4979604Y27839604D01*
X5019092Y27807197D01*
X5137202Y27710266D01*
X5233309Y27658896D01*
X5317007Y27614159D01*
X5512105Y27554976D01*
X5664162Y27540000D01*
X5664171Y27540000D01*
X5714999Y27534994D01*
X5765827Y27540000D01*
X25984172Y27540000D01*
X26035000Y27534994D01*
X26085828Y27540000D01*
X26085838Y27540000D01*
X26237895Y27554976D01*
X26432993Y27614159D01*
X26612797Y27710266D01*
X26770396Y27839604D01*
X26802807Y27879097D01*
X28000908Y29077197D01*
X28040396Y29109604D01*
X28088558Y29168290D01*
X28169734Y29267202D01*
X28248220Y29414040D01*
X28265841Y29447007D01*
X28325024Y29642105D01*
X28340000Y29794162D01*
X28340000Y29794171D01*
X28345006Y29844999D01*
X28340000Y29895827D01*
X28340000Y30349147D01*
X28503932Y30548899D01*
X28637182Y30798192D01*
X28719236Y31068691D01*
X28740000Y31279509D01*
X28740000Y32220492D01*
X28719236Y32431309D01*
X28637182Y32701808D01*
X28503932Y32951101D01*
X28324607Y33169608D01*
X28106100Y33348932D01*
X27856807Y33482182D01*
X27841161Y33486928D01*
X28105000Y33486928D01*
X28229482Y33499188D01*
X28349180Y33535498D01*
X28459494Y33594463D01*
X28556185Y33673815D01*
X28635537Y33770506D01*
X28694502Y33880820D01*
X28730812Y34000518D01*
X28743072Y34125000D01*
X28743072Y35725000D01*
X28730812Y35849482D01*
X28694502Y35969180D01*
X28635537Y36079494D01*
X28556185Y36176185D01*
X28459494Y36255537D01*
X28349180Y36314502D01*
X28229482Y36350812D01*
X28105000Y36363072D01*
X26505000Y36363072D01*
X26380518Y36350812D01*
X26260820Y36314502D01*
X26150506Y36255537D01*
X26053815Y36176185D01*
X25974463Y36079494D01*
X25915498Y35969180D01*
X25879188Y35849482D01*
X25878357Y35841039D01*
X25679759Y36039637D01*
X25444727Y36196680D01*
X25395478Y36217080D01*
X25520285Y36229372D01*
X25685709Y36279553D01*
X25838164Y36361042D01*
X25971792Y36470708D01*
X26081458Y36604336D01*
X26162947Y36756791D01*
X26213128Y36922215D01*
X26230072Y37094250D01*
X26230072Y37581750D01*
X26213128Y37753785D01*
X26162947Y37919209D01*
X26081458Y38071664D01*
X25971792Y38205292D01*
X25886244Y38275500D01*
X25971792Y38345708D01*
X26081458Y38479336D01*
X26162947Y38631791D01*
X26213128Y38797215D01*
X26230072Y38969250D01*
X26230072Y39456750D01*
X26213128Y39628785D01*
X26162947Y39794209D01*
X26081458Y39946664D01*
X25971792Y40080292D01*
X25838164Y40189958D01*
X25685709Y40271447D01*
X25520285Y40321628D01*
X25348250Y40338572D01*
X24435750Y40338572D01*
X24263715Y40321628D01*
X24098291Y40271447D01*
X24040142Y40240366D01*
X23850939Y40278000D01*
X23647061Y40278000D01*
X23447102Y40238226D01*
X23309035Y40181036D01*
X23298164Y40189958D01*
X23145709Y40271447D01*
X22980285Y40321628D01*
X22808250Y40338572D01*
X21895750Y40338572D01*
X21723715Y40321628D01*
X21558291Y40271447D01*
X21500142Y40240366D01*
X21310939Y40278000D01*
X21107061Y40278000D01*
X20907102Y40238226D01*
X20770898Y40181808D01*
X20758164Y40192258D01*
X20605709Y40273747D01*
X20440285Y40323928D01*
X20268250Y40340872D01*
X19355750Y40340872D01*
X19183715Y40323928D01*
X19018291Y40273747D01*
X18957006Y40240989D01*
X18770939Y40278000D01*
X18567061Y40278000D01*
X18367102Y40238226D01*
X18229035Y40181036D01*
X18218164Y40189958D01*
X18065709Y40271447D01*
X17900285Y40321628D01*
X17728250Y40338572D01*
X16815750Y40338572D01*
X16643715Y40321628D01*
X16478291Y40271447D01*
X16420142Y40240366D01*
X16230939Y40278000D01*
X16027061Y40278000D01*
X15827102Y40238226D01*
X15689035Y40181036D01*
X15678164Y40189958D01*
X15525709Y40271447D01*
X15360285Y40321628D01*
X15188250Y40338572D01*
X14275750Y40338572D01*
X14103715Y40321628D01*
X13938291Y40271447D01*
X13880142Y40240366D01*
X13690939Y40278000D01*
X13487061Y40278000D01*
X13287102Y40238226D01*
X13173329Y40191099D01*
X13138164Y40219958D01*
X12985709Y40301447D01*
X12820285Y40351628D01*
X12648250Y40368572D01*
X11735750Y40368572D01*
X11563715Y40351628D01*
X11398291Y40301447D01*
X11299238Y40248502D01*
X11150939Y40278000D01*
X10947061Y40278000D01*
X10747102Y40238226D01*
X10633329Y40191099D01*
X10598164Y40219958D01*
X10445709Y40301447D01*
X10280285Y40351628D01*
X10108250Y40368572D01*
X9195750Y40368572D01*
X9023715Y40351628D01*
X8858291Y40301447D01*
X8759238Y40248502D01*
X8610939Y40278000D01*
X8407061Y40278000D01*
X8207102Y40238226D01*
X8093329Y40191099D01*
X8058164Y40219958D01*
X7905709Y40301447D01*
X7740285Y40351628D01*
X7568250Y40368572D01*
X6655750Y40368572D01*
X6483715Y40351628D01*
X6318291Y40301447D01*
X6165836Y40219958D01*
X6130671Y40191099D01*
X6016898Y40238226D01*
X5816939Y40278000D01*
X5613061Y40278000D01*
X5480000Y40251533D01*
X5480000Y41914486D01*
X31685000Y41914486D01*
X31685000Y41651514D01*
X31736304Y41393595D01*
X31836939Y41150641D01*
X31983038Y40931987D01*
X32168987Y40746038D01*
X32387641Y40599939D01*
X32630595Y40499304D01*
X32888514Y40448000D01*
X33151486Y40448000D01*
X33409405Y40499304D01*
X33652359Y40599939D01*
X33871013Y40746038D01*
X34056962Y40931987D01*
X34203061Y41150641D01*
X34303696Y41393595D01*
X34355000Y41651514D01*
X34355000Y41914486D01*
X34303696Y42172405D01*
X34203061Y42415359D01*
X34056962Y42634013D01*
X33871013Y42819962D01*
X33652359Y42966061D01*
X33409405Y43066696D01*
X33151486Y43118000D01*
X32888514Y43118000D01*
X32630595Y43066696D01*
X32387641Y42966061D01*
X32168987Y42819962D01*
X31983038Y42634013D01*
X31836939Y42415359D01*
X31736304Y42172405D01*
X31685000Y41914486D01*
X5480000Y41914486D01*
X5480000Y43627546D01*
X5539180Y43645498D01*
X5649494Y43704463D01*
X5746185Y43783815D01*
X5825537Y43880506D01*
X5884502Y43990820D01*
X5906513Y44063380D01*
X6038368Y43931525D01*
X6281589Y43769010D01*
X6551842Y43657068D01*
X6838740Y43600000D01*
X7131260Y43600000D01*
X7418158Y43657068D01*
X7688411Y43769010D01*
X7931632Y43931525D01*
X8138475Y44138368D01*
X8255000Y44312760D01*
X8371525Y44138368D01*
X8578368Y43931525D01*
X8821589Y43769010D01*
X9091842Y43657068D01*
X9378740Y43600000D01*
X9671260Y43600000D01*
X9958158Y43657068D01*
X10228411Y43769010D01*
X10471632Y43931525D01*
X10678475Y44138368D01*
X10795000Y44312760D01*
X10911525Y44138368D01*
X11118368Y43931525D01*
X11361589Y43769010D01*
X11631842Y43657068D01*
X11918740Y43600000D01*
X12211260Y43600000D01*
X12498158Y43657068D01*
X12768411Y43769010D01*
X13011632Y43931525D01*
X13218475Y44138368D01*
X13335000Y44312760D01*
X13451525Y44138368D01*
X13658368Y43931525D01*
X13901589Y43769010D01*
X14171842Y43657068D01*
X14458740Y43600000D01*
X14751260Y43600000D01*
X15038158Y43657068D01*
X15308411Y43769010D01*
X15551632Y43931525D01*
X15758475Y44138368D01*
X15875000Y44312760D01*
X15991525Y44138368D01*
X16198368Y43931525D01*
X16441589Y43769010D01*
X16711842Y43657068D01*
X16998740Y43600000D01*
X17291260Y43600000D01*
X17578158Y43657068D01*
X17848411Y43769010D01*
X18091632Y43931525D01*
X18298475Y44138368D01*
X18415000Y44312760D01*
X18531525Y44138368D01*
X18738368Y43931525D01*
X18981589Y43769010D01*
X19251842Y43657068D01*
X19538740Y43600000D01*
X19831260Y43600000D01*
X20118158Y43657068D01*
X20388411Y43769010D01*
X20631632Y43931525D01*
X20838475Y44138368D01*
X20955000Y44312760D01*
X21071525Y44138368D01*
X21278368Y43931525D01*
X21521589Y43769010D01*
X21791842Y43657068D01*
X22078740Y43600000D01*
X22371260Y43600000D01*
X22658158Y43657068D01*
X22928411Y43769010D01*
X23171632Y43931525D01*
X23378475Y44138368D01*
X23495000Y44312760D01*
X23611525Y44138368D01*
X23818368Y43931525D01*
X24061589Y43769010D01*
X24331842Y43657068D01*
X24618740Y43600000D01*
X24911260Y43600000D01*
X25198158Y43657068D01*
X25468411Y43769010D01*
X25711632Y43931525D01*
X25918475Y44138368D01*
X26040195Y44320534D01*
X26109822Y44203645D01*
X26304731Y43987412D01*
X26538080Y43813359D01*
X26800901Y43688175D01*
X26948110Y43643524D01*
X27178000Y43764845D01*
X27178000Y44958000D01*
X27432000Y44958000D01*
X27432000Y43764845D01*
X27661890Y43643524D01*
X27809099Y43688175D01*
X28071920Y43813359D01*
X28305269Y43987412D01*
X28500178Y44203645D01*
X28649157Y44453748D01*
X28746481Y44728109D01*
X28625814Y44958000D01*
X27432000Y44958000D01*
X27178000Y44958000D01*
X27158000Y44958000D01*
X27158000Y45212000D01*
X27178000Y45212000D01*
X27178000Y46405155D01*
X27432000Y46405155D01*
X27432000Y45212000D01*
X28625814Y45212000D01*
X28746481Y45441891D01*
X28649157Y45716252D01*
X28500178Y45966355D01*
X28305269Y46182588D01*
X28071920Y46356641D01*
X27809099Y46481825D01*
X27661890Y46526476D01*
X27432000Y46405155D01*
X27178000Y46405155D01*
X26948110Y46526476D01*
X26800901Y46481825D01*
X26538080Y46356641D01*
X26304731Y46182588D01*
X26109822Y45966355D01*
X26040195Y45849466D01*
X25918475Y46031632D01*
X25711632Y46238475D01*
X25468411Y46400990D01*
X25198158Y46512932D01*
X24911260Y46570000D01*
X24618740Y46570000D01*
X24331842Y46512932D01*
X24061589Y46400990D01*
X23818368Y46238475D01*
X23611525Y46031632D01*
X23495000Y45857240D01*
X23378475Y46031632D01*
X23171632Y46238475D01*
X22928411Y46400990D01*
X22658158Y46512932D01*
X22371260Y46570000D01*
X22078740Y46570000D01*
X21791842Y46512932D01*
X21521589Y46400990D01*
X21278368Y46238475D01*
X21071525Y46031632D01*
X20955000Y45857240D01*
X20838475Y46031632D01*
X20631632Y46238475D01*
X20388411Y46400990D01*
X20118158Y46512932D01*
X19831260Y46570000D01*
X19538740Y46570000D01*
X19251842Y46512932D01*
X18981589Y46400990D01*
X18738368Y46238475D01*
X18531525Y46031632D01*
X18415000Y45857240D01*
X18298475Y46031632D01*
X18091632Y46238475D01*
X17848411Y46400990D01*
X17578158Y46512932D01*
X17291260Y46570000D01*
X16998740Y46570000D01*
X16711842Y46512932D01*
X16441589Y46400990D01*
X16198368Y46238475D01*
X15991525Y46031632D01*
X15875000Y45857240D01*
X15758475Y46031632D01*
X15551632Y46238475D01*
X15308411Y46400990D01*
X15038158Y46512932D01*
X14751260Y46570000D01*
X14458740Y46570000D01*
X14171842Y46512932D01*
X13901589Y46400990D01*
X13658368Y46238475D01*
X13451525Y46031632D01*
X13335000Y45857240D01*
X13218475Y46031632D01*
X13011632Y46238475D01*
X12768411Y46400990D01*
X12498158Y46512932D01*
X12211260Y46570000D01*
X11918740Y46570000D01*
X11631842Y46512932D01*
X11361589Y46400990D01*
X11118368Y46238475D01*
X10911525Y46031632D01*
X10795000Y45857240D01*
X10678475Y46031632D01*
X10471632Y46238475D01*
X10228411Y46400990D01*
X9958158Y46512932D01*
X9671260Y46570000D01*
X9378740Y46570000D01*
X9091842Y46512932D01*
X8821589Y46400990D01*
X8578368Y46238475D01*
X8371525Y46031632D01*
X8255000Y45857240D01*
X8138475Y46031632D01*
X7931632Y46238475D01*
X7688411Y46400990D01*
X7418158Y46512932D01*
X7131260Y46570000D01*
X6838740Y46570000D01*
X6551842Y46512932D01*
X6281589Y46400990D01*
X6038368Y46238475D01*
X5906513Y46106620D01*
X5884502Y46179180D01*
X5825537Y46289494D01*
X5746185Y46386185D01*
X5649494Y46465537D01*
X5539180Y46524502D01*
X5419482Y46560812D01*
X5295000Y46573072D01*
X3595000Y46573072D01*
X3470518Y46560812D01*
X3350820Y46524502D01*
X3240506Y46465537D01*
X3143815Y46386185D01*
X3064463Y46289494D01*
X3005498Y46179180D01*
X2969188Y46059482D01*
X2956928Y45935000D01*
X660000Y45935000D01*
X660000Y48870000D01*
X75540001Y48870000D01*
X75540000Y660000D01*
G37*
%TD.AperFunction*%
D25*
X27955562Y15313569D02*
X27981709Y15281709D01*
X28108854Y15177364D01*
X28253913Y15099828D01*
X28411311Y15052082D01*
X28533981Y15040000D01*
X28533982Y15040000D01*
X28575000Y15035960D01*
X28616018Y15040000D01*
X31252385Y15040000D01*
X31205764Y14886309D01*
X31178057Y14605000D01*
X31205764Y14323691D01*
X31287818Y14053192D01*
X31421068Y13803899D01*
X31600392Y13585392D01*
X31818899Y13406068D01*
X32068192Y13272818D01*
X32338691Y13190764D01*
X32549508Y13170000D01*
X33490492Y13170000D01*
X33701309Y13190764D01*
X33971808Y13272818D01*
X34221101Y13406068D01*
X34439608Y13585392D01*
X34618932Y13803899D01*
X34725001Y14002339D01*
X34725000Y13376019D01*
X34720960Y13335000D01*
X34725000Y13293982D01*
X34737082Y13171312D01*
X34784828Y13013914D01*
X34862364Y12868855D01*
X34966709Y12741709D01*
X34998579Y12715554D01*
X36014570Y11699562D01*
X36014575Y11699558D01*
X36719132Y10995000D01*
X35905869Y10995000D01*
X34537946Y12362921D01*
X34511791Y12394791D01*
X34384646Y12499136D01*
X34239587Y12576672D01*
X34082189Y12624418D01*
X33959519Y12636500D01*
X33959518Y12636500D01*
X33918500Y12640540D01*
X33877482Y12636500D01*
X33515785Y12636500D01*
X33392756Y12718705D01*
X33204398Y12796726D01*
X33004439Y12836500D01*
X32800561Y12836500D01*
X32600602Y12796726D01*
X32412244Y12718705D01*
X32242726Y12605437D01*
X32098563Y12461274D01*
X31985295Y12291756D01*
X31907274Y12103398D01*
X31867500Y11903439D01*
X31867500Y11699561D01*
X31881336Y11630000D01*
X28579866Y11630000D01*
X28582166Y11633517D01*
X28687650Y11895486D01*
X28740000Y12173000D01*
X28740000Y12573000D01*
X27432000Y12573000D01*
X27432000Y12553000D01*
X27178000Y12553000D01*
X27178000Y12573000D01*
X27158000Y12573000D01*
X27158000Y12827000D01*
X27178000Y12827000D01*
X27178000Y14369915D01*
X27432000Y14369915D01*
X27432000Y12827000D01*
X28740000Y12827000D01*
X28740000Y13227000D01*
X28687650Y13504514D01*
X28582166Y13766483D01*
X28427601Y14002839D01*
X28229895Y14204500D01*
X27996646Y14363715D01*
X27736818Y14474367D01*
X27654039Y14491904D01*
X27432000Y14369915D01*
X27178000Y14369915D01*
X26955961Y14491904D01*
X26873182Y14474367D01*
X26613354Y14363715D01*
X26380105Y14204500D01*
X26182399Y14002839D01*
X26032265Y13773259D01*
X25963932Y13901101D01*
X25784607Y14119608D01*
X25566100Y14298932D01*
X25316807Y14432182D01*
X25046308Y14514236D01*
X24765000Y14541943D01*
X24483691Y14514236D01*
X24330000Y14467615D01*
X24330000Y15569907D01*
X24463102Y15514774D01*
X24663061Y15475000D01*
X24866939Y15475000D01*
X25066898Y15514774D01*
X25255256Y15592795D01*
X25378285Y15675000D01*
X27594132Y15675000D01*
X27955562Y15313569D01*
%TA.AperFunction,Conductor*%
D26*
G36*
X27955562Y15313569D02*
G01*
X27981709Y15281709D01*
X28108854Y15177364D01*
X28253913Y15099828D01*
X28411311Y15052082D01*
X28533981Y15040000D01*
X28533982Y15040000D01*
X28575000Y15035960D01*
X28616018Y15040000D01*
X31252385Y15040000D01*
X31205764Y14886309D01*
X31178057Y14605000D01*
X31205764Y14323691D01*
X31287818Y14053192D01*
X31421068Y13803899D01*
X31600392Y13585392D01*
X31818899Y13406068D01*
X32068192Y13272818D01*
X32338691Y13190764D01*
X32549508Y13170000D01*
X33490492Y13170000D01*
X33701309Y13190764D01*
X33971808Y13272818D01*
X34221101Y13406068D01*
X34439608Y13585392D01*
X34618932Y13803899D01*
X34725001Y14002339D01*
X34725000Y13376019D01*
X34720960Y13335000D01*
X34725000Y13293982D01*
X34737082Y13171312D01*
X34784828Y13013914D01*
X34862364Y12868855D01*
X34966709Y12741709D01*
X34998579Y12715554D01*
X36014570Y11699562D01*
X36014575Y11699558D01*
X36719132Y10995000D01*
X35905869Y10995000D01*
X34537946Y12362921D01*
X34511791Y12394791D01*
X34384646Y12499136D01*
X34239587Y12576672D01*
X34082189Y12624418D01*
X33959519Y12636500D01*
X33959518Y12636500D01*
X33918500Y12640540D01*
X33877482Y12636500D01*
X33515785Y12636500D01*
X33392756Y12718705D01*
X33204398Y12796726D01*
X33004439Y12836500D01*
X32800561Y12836500D01*
X32600602Y12796726D01*
X32412244Y12718705D01*
X32242726Y12605437D01*
X32098563Y12461274D01*
X31985295Y12291756D01*
X31907274Y12103398D01*
X31867500Y11903439D01*
X31867500Y11699561D01*
X31881336Y11630000D01*
X28579866Y11630000D01*
X28582166Y11633517D01*
X28687650Y11895486D01*
X28740000Y12173000D01*
X28740000Y12573000D01*
X27432000Y12573000D01*
X27432000Y12553000D01*
X27178000Y12553000D01*
X27178000Y12573000D01*
X27158000Y12573000D01*
X27158000Y12827000D01*
X27178000Y12827000D01*
X27178000Y14369915D01*
X27432000Y14369915D01*
X27432000Y12827000D01*
X28740000Y12827000D01*
X28740000Y13227000D01*
X28687650Y13504514D01*
X28582166Y13766483D01*
X28427601Y14002839D01*
X28229895Y14204500D01*
X27996646Y14363715D01*
X27736818Y14474367D01*
X27654039Y14491904D01*
X27432000Y14369915D01*
X27178000Y14369915D01*
X26955961Y14491904D01*
X26873182Y14474367D01*
X26613354Y14363715D01*
X26380105Y14204500D01*
X26182399Y14002839D01*
X26032265Y13773259D01*
X25963932Y13901101D01*
X25784607Y14119608D01*
X25566100Y14298932D01*
X25316807Y14432182D01*
X25046308Y14514236D01*
X24765000Y14541943D01*
X24483691Y14514236D01*
X24330000Y14467615D01*
X24330000Y15569907D01*
X24463102Y15514774D01*
X24663061Y15475000D01*
X24866939Y15475000D01*
X25066898Y15514774D01*
X25255256Y15592795D01*
X25378285Y15675000D01*
X27594132Y15675000D01*
X27955562Y15313569D01*
G37*
%TD.AperFunction*%
D25*
X72317000Y44866131D02*
X72317001Y17109870D01*
X71028133Y15821000D01*
X69764018Y15821000D01*
X69723000Y15825040D01*
X69681981Y15821000D01*
X69678196Y15820627D01*
X69776333Y15918764D01*
X69808191Y15944909D01*
X69844235Y15988828D01*
X69908568Y16067219D01*
X70053182Y16005633D01*
X70135961Y15988096D01*
X70358000Y16110085D01*
X70358000Y17653000D01*
X70612000Y17653000D01*
X70612000Y16110085D01*
X70834039Y15988096D01*
X70916818Y16005633D01*
X71176646Y16116285D01*
X71409895Y16275500D01*
X71607601Y16477161D01*
X71762166Y16713517D01*
X71867650Y16975486D01*
X71920000Y17253000D01*
X71920000Y17653000D01*
X70612000Y17653000D01*
X70358000Y17653000D01*
X70338000Y17653000D01*
X70338000Y17907000D01*
X70358000Y17907000D01*
X70358000Y19449915D01*
X70612000Y19449915D01*
X70612000Y17907000D01*
X71920000Y17907000D01*
X71920000Y18307000D01*
X71867650Y18584514D01*
X71762166Y18846483D01*
X71607601Y19082839D01*
X71409895Y19284500D01*
X71176646Y19443715D01*
X70916818Y19554367D01*
X70834039Y19571904D01*
X70612000Y19449915D01*
X70358000Y19449915D01*
X70135961Y19571904D01*
X70053182Y19554367D01*
X70049900Y19552969D01*
X70049900Y22488782D01*
X70053940Y22529800D01*
X70037818Y22693489D01*
X69990072Y22850887D01*
X69912536Y22995946D01*
X69834339Y23091230D01*
X69834337Y23091232D01*
X69808191Y23123091D01*
X69776332Y23149237D01*
X68953935Y23971633D01*
X68964608Y23980392D01*
X69143932Y24198899D01*
X69215000Y24331858D01*
X69286068Y24198899D01*
X69465393Y23980392D01*
X69683900Y23801068D01*
X69933193Y23667818D01*
X70203692Y23585764D01*
X70485000Y23558057D01*
X70766309Y23585764D01*
X71036808Y23667818D01*
X71286101Y23801068D01*
X71504608Y23980392D01*
X71683932Y24198899D01*
X71817182Y24448192D01*
X71899236Y24718691D01*
X71920000Y24929509D01*
X71920000Y25870492D01*
X71899236Y26081309D01*
X71817182Y26351808D01*
X71683932Y26601101D01*
X71504607Y26819608D01*
X71286100Y26998932D01*
X71036807Y27132182D01*
X70766308Y27214236D01*
X70485000Y27241943D01*
X70461262Y27239605D01*
X69834446Y27866421D01*
X69808291Y27898291D01*
X69681146Y28002636D01*
X69536087Y28080172D01*
X69378689Y28127918D01*
X69256019Y28140000D01*
X69256018Y28140000D01*
X69215000Y28144040D01*
X69173982Y28140000D01*
X68746568Y28140000D01*
X68796013Y28173038D01*
X68981962Y28358987D01*
X69128061Y28577641D01*
X69228696Y28820595D01*
X69280000Y29078514D01*
X69280000Y29341486D01*
X69228696Y29599405D01*
X69128061Y29842359D01*
X68981962Y30061013D01*
X68796013Y30246962D01*
X68577359Y30393061D01*
X68574407Y30394284D01*
X68564439Y30406430D01*
X68564437Y30406432D01*
X68538291Y30438291D01*
X68506431Y30464438D01*
X68454726Y30516143D01*
X68577359Y30566939D01*
X68796013Y30713038D01*
X68981962Y30898987D01*
X69128061Y31117641D01*
X69228696Y31360595D01*
X69280000Y31618514D01*
X69280000Y31881486D01*
X69228696Y32139405D01*
X69128061Y32382359D01*
X68981962Y32601013D01*
X68796013Y32786962D01*
X68577359Y32933061D01*
X68334405Y33033696D01*
X68076486Y33085000D01*
X67813514Y33085000D01*
X67794625Y33081243D01*
X67510000Y33365867D01*
X67510000Y33551951D01*
X67526426Y33545147D01*
X67803665Y33490000D01*
X68086335Y33490000D01*
X68363574Y33545147D01*
X68624727Y33653320D01*
X68859759Y33810363D01*
X69059637Y34010241D01*
X69216680Y34245273D01*
X69324853Y34506426D01*
X69380000Y34783665D01*
X69380000Y35066335D01*
X69324853Y35343574D01*
X69216680Y35604727D01*
X69059637Y35839759D01*
X68859759Y36039637D01*
X68780000Y36092930D01*
X68780000Y36428624D01*
X68891164Y36488042D01*
X69024792Y36597708D01*
X69134458Y36731336D01*
X69215947Y36883791D01*
X69266128Y37049215D01*
X69283072Y37221250D01*
X69283072Y37708750D01*
X69266128Y37880785D01*
X69215947Y38046209D01*
X69134458Y38198664D01*
X69024792Y38332292D01*
X68939244Y38402500D01*
X69024792Y38472708D01*
X69134458Y38606336D01*
X69215947Y38758791D01*
X69266128Y38924215D01*
X69283072Y39096250D01*
X69283072Y39583750D01*
X69266128Y39755785D01*
X69215947Y39921209D01*
X69134458Y40073664D01*
X69024792Y40207292D01*
X68891164Y40316958D01*
X68780000Y40376376D01*
X68780000Y43856935D01*
X68891632Y43931525D01*
X69098475Y44138368D01*
X69220195Y44320534D01*
X69289822Y44203645D01*
X69484731Y43987412D01*
X69718080Y43813359D01*
X69980901Y43688175D01*
X70128110Y43643524D01*
X70358000Y43764845D01*
X70358000Y44958000D01*
X70612000Y44958000D01*
X70612000Y43764845D01*
X70841890Y43643524D01*
X70989099Y43688175D01*
X71251920Y43813359D01*
X71485269Y43987412D01*
X71680178Y44203645D01*
X71829157Y44453748D01*
X71926481Y44728109D01*
X71805814Y44958000D01*
X70612000Y44958000D01*
X70358000Y44958000D01*
X70338000Y44958000D01*
X70338000Y45212000D01*
X70358000Y45212000D01*
X70358000Y45232000D01*
X70612000Y45232000D01*
X70612000Y45212000D01*
X71805814Y45212000D01*
X71862719Y45320413D01*
X72317000Y44866131D01*
%TA.AperFunction,Conductor*%
D26*
G36*
X72317000Y44866131D02*
G01*
X72317001Y17109870D01*
X71028133Y15821000D01*
X69764018Y15821000D01*
X69723000Y15825040D01*
X69681981Y15821000D01*
X69678196Y15820627D01*
X69776333Y15918764D01*
X69808191Y15944909D01*
X69844235Y15988828D01*
X69908568Y16067219D01*
X70053182Y16005633D01*
X70135961Y15988096D01*
X70358000Y16110085D01*
X70358000Y17653000D01*
X70612000Y17653000D01*
X70612000Y16110085D01*
X70834039Y15988096D01*
X70916818Y16005633D01*
X71176646Y16116285D01*
X71409895Y16275500D01*
X71607601Y16477161D01*
X71762166Y16713517D01*
X71867650Y16975486D01*
X71920000Y17253000D01*
X71920000Y17653000D01*
X70612000Y17653000D01*
X70358000Y17653000D01*
X70338000Y17653000D01*
X70338000Y17907000D01*
X70358000Y17907000D01*
X70358000Y19449915D01*
X70612000Y19449915D01*
X70612000Y17907000D01*
X71920000Y17907000D01*
X71920000Y18307000D01*
X71867650Y18584514D01*
X71762166Y18846483D01*
X71607601Y19082839D01*
X71409895Y19284500D01*
X71176646Y19443715D01*
X70916818Y19554367D01*
X70834039Y19571904D01*
X70612000Y19449915D01*
X70358000Y19449915D01*
X70135961Y19571904D01*
X70053182Y19554367D01*
X70049900Y19552969D01*
X70049900Y22488782D01*
X70053940Y22529800D01*
X70037818Y22693489D01*
X69990072Y22850887D01*
X69912536Y22995946D01*
X69834339Y23091230D01*
X69834337Y23091232D01*
X69808191Y23123091D01*
X69776332Y23149237D01*
X68953935Y23971633D01*
X68964608Y23980392D01*
X69143932Y24198899D01*
X69215000Y24331858D01*
X69286068Y24198899D01*
X69465393Y23980392D01*
X69683900Y23801068D01*
X69933193Y23667818D01*
X70203692Y23585764D01*
X70485000Y23558057D01*
X70766309Y23585764D01*
X71036808Y23667818D01*
X71286101Y23801068D01*
X71504608Y23980392D01*
X71683932Y24198899D01*
X71817182Y24448192D01*
X71899236Y24718691D01*
X71920000Y24929509D01*
X71920000Y25870492D01*
X71899236Y26081309D01*
X71817182Y26351808D01*
X71683932Y26601101D01*
X71504607Y26819608D01*
X71286100Y26998932D01*
X71036807Y27132182D01*
X70766308Y27214236D01*
X70485000Y27241943D01*
X70461262Y27239605D01*
X69834446Y27866421D01*
X69808291Y27898291D01*
X69681146Y28002636D01*
X69536087Y28080172D01*
X69378689Y28127918D01*
X69256019Y28140000D01*
X69256018Y28140000D01*
X69215000Y28144040D01*
X69173982Y28140000D01*
X68746568Y28140000D01*
X68796013Y28173038D01*
X68981962Y28358987D01*
X69128061Y28577641D01*
X69228696Y28820595D01*
X69280000Y29078514D01*
X69280000Y29341486D01*
X69228696Y29599405D01*
X69128061Y29842359D01*
X68981962Y30061013D01*
X68796013Y30246962D01*
X68577359Y30393061D01*
X68574407Y30394284D01*
X68564439Y30406430D01*
X68564437Y30406432D01*
X68538291Y30438291D01*
X68506431Y30464438D01*
X68454726Y30516143D01*
X68577359Y30566939D01*
X68796013Y30713038D01*
X68981962Y30898987D01*
X69128061Y31117641D01*
X69228696Y31360595D01*
X69280000Y31618514D01*
X69280000Y31881486D01*
X69228696Y32139405D01*
X69128061Y32382359D01*
X68981962Y32601013D01*
X68796013Y32786962D01*
X68577359Y32933061D01*
X68334405Y33033696D01*
X68076486Y33085000D01*
X67813514Y33085000D01*
X67794625Y33081243D01*
X67510000Y33365867D01*
X67510000Y33551951D01*
X67526426Y33545147D01*
X67803665Y33490000D01*
X68086335Y33490000D01*
X68363574Y33545147D01*
X68624727Y33653320D01*
X68859759Y33810363D01*
X69059637Y34010241D01*
X69216680Y34245273D01*
X69324853Y34506426D01*
X69380000Y34783665D01*
X69380000Y35066335D01*
X69324853Y35343574D01*
X69216680Y35604727D01*
X69059637Y35839759D01*
X68859759Y36039637D01*
X68780000Y36092930D01*
X68780000Y36428624D01*
X68891164Y36488042D01*
X69024792Y36597708D01*
X69134458Y36731336D01*
X69215947Y36883791D01*
X69266128Y37049215D01*
X69283072Y37221250D01*
X69283072Y37708750D01*
X69266128Y37880785D01*
X69215947Y38046209D01*
X69134458Y38198664D01*
X69024792Y38332292D01*
X68939244Y38402500D01*
X69024792Y38472708D01*
X69134458Y38606336D01*
X69215947Y38758791D01*
X69266128Y38924215D01*
X69283072Y39096250D01*
X69283072Y39583750D01*
X69266128Y39755785D01*
X69215947Y39921209D01*
X69134458Y40073664D01*
X69024792Y40207292D01*
X68891164Y40316958D01*
X68780000Y40376376D01*
X68780000Y43856935D01*
X68891632Y43931525D01*
X69098475Y44138368D01*
X69220195Y44320534D01*
X69289822Y44203645D01*
X69484731Y43987412D01*
X69718080Y43813359D01*
X69980901Y43688175D01*
X70128110Y43643524D01*
X70358000Y43764845D01*
X70358000Y44958000D01*
X70612000Y44958000D01*
X70612000Y43764845D01*
X70841890Y43643524D01*
X70989099Y43688175D01*
X71251920Y43813359D01*
X71485269Y43987412D01*
X71680178Y44203645D01*
X71829157Y44453748D01*
X71926481Y44728109D01*
X71805814Y44958000D01*
X70612000Y44958000D01*
X70358000Y44958000D01*
X70338000Y44958000D01*
X70338000Y45212000D01*
X70358000Y45212000D01*
X70358000Y45232000D01*
X70612000Y45232000D01*
X70612000Y45212000D01*
X71805814Y45212000D01*
X71862719Y45320413D01*
X72317000Y44866131D01*
G37*
%TD.AperFunction*%
%TD*%
M02*
