M48
; DRILL file {KiCad (5.1.12)-1} date 03/19/22 10:44:29
; FORMAT={-:-/ absolute / inch / decimal}
; #@! TF.CreationDate,2022-03-19T10:44:29+01:00
; #@! TF.GenerationSoftware,Kicad,Pcbnew,(5.1.12)-1
; #@! TF.FileFunction,Plated,1,2,PTH
FMAT,2
INCH
T1C0.0157
T2C0.0276
T3C0.0315
T4C0.0394
%
G90
G05
T1
X0.225Y1.545
X0.335Y1.545
X0.435Y1.545
X0.535Y1.545
X0.635Y1.545
X0.65Y0.725
X0.675Y0.675
X0.735Y1.545
X0.835Y1.545
X0.9Y0.7
X0.935Y1.545
X0.975Y0.7
X0.975Y0.65
X1.2954Y0.4646
X1.4524Y0.0697
X1.665Y0.43
X1.725Y0.55
X1.805Y1.225
X1.91Y0.51
X2.05Y0.175
X2.25Y0.32
X2.37Y0.405
T2
X1.3Y1.645
X1.6Y1.645
X1.975Y1.25
X1.975Y1.15
X2.075Y1.25
X2.075Y1.15
X2.175Y1.25
X2.175Y1.15
X2.275Y1.25
X2.275Y1.15
X2.375Y1.25
X2.375Y1.15
X2.475Y1.25
X2.475Y1.15
X2.575Y1.25
X2.575Y1.15
X2.675Y1.25
X2.675Y1.15
T3
X0.175Y0.8
X0.175Y0.5
X0.275Y1.375
X0.275Y1.25
X0.275Y0.95
X0.275Y0.8
X0.275Y0.5
X0.3213Y0.275
X0.375Y1.375
X0.375Y1.25
X0.375Y0.95
X0.375Y0.8
X0.375Y0.5
X0.4Y0.275
X0.475Y1.375
X0.475Y1.25
X0.475Y0.95
X0.475Y0.8
X0.475Y0.5
X0.575Y1.375
X0.575Y1.25
X0.575Y0.95
X0.575Y0.8
X0.575Y0.5
X0.675Y1.375
X0.675Y1.25
X0.675Y0.95
X0.675Y0.8
X0.675Y0.5
X0.775Y1.375
X0.775Y1.25
X0.775Y0.95
X0.775Y0.8
X0.775Y0.5
X0.875Y1.375
X0.875Y1.25
X0.875Y0.95
X0.875Y0.8
X0.875Y0.5
X0.975Y1.375
X0.975Y1.25
X0.975Y0.95
X0.975Y0.8
X0.975Y0.5
X1.075Y1.375
X1.075Y1.25
X1.075Y0.95
X1.075Y0.8
X1.075Y0.5
X1.3Y1.475
X1.3Y1.375
X1.3Y1.275
X1.3Y1.175
X1.3Y1.075
X1.3Y0.975
X1.3Y0.875
X1.3Y0.775
X1.3Y0.675
X1.3Y0.575
X1.6Y1.475
X1.6Y1.375
X1.6Y1.275
X1.6Y1.175
X1.6Y1.075
X1.6Y0.975
X1.6Y0.875
X1.6Y0.775
X1.6Y0.675
X1.6Y0.575
X1.8Y0.425
X1.875Y1.375
X1.875Y1.0
X1.875Y0.7
X1.975Y1.375
X1.975Y1.0
X1.975Y0.7
X2.075Y1.375
X2.075Y1.0
X2.075Y0.7
X2.1Y0.425
X2.175Y1.375
X2.175Y1.0
X2.175Y0.7
X2.275Y1.375
X2.275Y1.0
X2.275Y0.7
X2.375Y1.375
X2.375Y1.0
X2.375Y0.7
X2.45Y0.475
X2.475Y1.375
X2.475Y1.0
X2.475Y0.7
X2.575Y1.375
X2.575Y1.0
X2.575Y0.7
X2.675Y1.375
X2.675Y1.0
X2.675Y0.7
X2.75Y0.475
X2.775Y1.0
X2.775Y0.7
T4
X0.175Y1.775
X0.275Y1.775
X0.375Y1.775
X0.475Y1.775
X0.575Y1.775
X0.675Y1.775
X0.7Y0.225
X0.7Y0.125
X0.775Y1.775
X0.8Y0.225
X0.8Y0.125
X0.875Y1.775
X0.9Y0.225
X0.9Y0.125
X0.975Y1.775
X1.0Y0.225
X1.0Y0.125
X1.075Y1.775
X1.1Y0.225
X1.1Y0.125
X1.2Y0.225
X1.2Y0.125
X1.3Y0.225
X1.3Y0.125
X1.4Y0.225
X1.4Y0.125
X1.5Y0.225
X1.5Y0.125
X1.6Y0.225
X1.6Y0.125
X1.7Y0.225
X1.7Y0.125
X1.8Y0.225
X1.8Y0.125
X1.875Y1.775
X1.9Y0.225
X1.9Y0.125
X1.975Y1.775
X2.0Y0.225
X2.0Y0.125
X2.075Y1.775
X2.1Y0.225
X2.1Y0.125
X2.175Y1.775
X2.2Y0.225
X2.2Y0.125
X2.275Y1.775
X2.3Y0.225
X2.3Y0.125
X2.375Y1.775
X2.475Y1.775
X2.575Y1.775
X2.675Y1.775
X2.775Y1.775
T0
M30
