%TF.GenerationSoftware,KiCad,Pcbnew,(5.1.12)-1*%
%TF.CreationDate,2022-03-19T10:44:28+01:00*%
%TF.ProjectId,8ESN,3845534e-2e6b-4696-9361-645f70636258,1.0*%
%TF.SameCoordinates,PX6d01460PY60e4b00*%
%TF.FileFunction,Soldermask,Bot*%
%TF.FilePolarity,Negative*%
%FSLAX46Y46*%
G04 Gerber Fmt 4.6, Leading zero omitted, Abs format (unit mm)*
G04 Created by KiCad (PCBNEW (5.1.12)-1) date 2022-03-19 10:44:28*
%MOMM*%
%LPD*%
G01*
G04 APERTURE LIST*
%ADD10C,1.700000*%
%ADD11O,1.600000X1.600000*%
%ADD12R,1.600000X1.600000*%
%ADD13O,1.400000X1.400000*%
%ADD14C,1.400000*%
%ADD15O,1.700000X1.700000*%
%ADD16R,1.700000X1.700000*%
%ADD17O,2.400000X1.600000*%
%ADD18R,2.400000X1.600000*%
%ADD19O,1.600000X2.400000*%
%ADD20R,1.600000X2.400000*%
%ADD21C,1.600000*%
G04 APERTURE END LIST*
D10*
%TO.C,J1*%
X17780000Y3175000D03*
X20320000Y3175000D03*
X22860000Y3175000D03*
X25400000Y3175000D03*
X27940000Y3175000D03*
X30480000Y3175000D03*
X33020000Y3175000D03*
X35560000Y3175000D03*
X38100000Y3175000D03*
X40640000Y3175000D03*
X43180000Y3175000D03*
X45720000Y3175000D03*
X48260000Y3175000D03*
X50800000Y3175000D03*
X53340000Y3175000D03*
X55880000Y3175000D03*
X58420000Y3175000D03*
X17780000Y5715000D03*
X20320000Y5715000D03*
X22860000Y5715000D03*
X25400000Y5715000D03*
X27940000Y5715000D03*
X30480000Y5715000D03*
X33020000Y5715000D03*
X35560000Y5715000D03*
X38100000Y5715000D03*
X40640000Y5715000D03*
X43180000Y5715000D03*
X45720000Y5715000D03*
X48260000Y5715000D03*
X50800000Y5715000D03*
X53340000Y5715000D03*
X55880000Y5715000D03*
G36*
G01*
X57820000Y6565000D02*
X59020000Y6565000D01*
G75*
G02*
X59270000Y6315000I0J-250000D01*
G01*
X59270000Y5115000D01*
G75*
G02*
X59020000Y4865000I-250000J0D01*
G01*
X57820000Y4865000D01*
G75*
G02*
X57570000Y5115000I0J250000D01*
G01*
X57570000Y6315000D01*
G75*
G02*
X57820000Y6565000I250000J0D01*
G01*
G37*
%TD*%
D11*
%TO.C,RN2*%
X6985000Y34925000D03*
X9525000Y34925000D03*
X12065000Y34925000D03*
X14605000Y34925000D03*
X17145000Y34925000D03*
X19685000Y34925000D03*
X22225000Y34925000D03*
X24765000Y34925000D03*
D12*
X27305000Y34925000D03*
%TD*%
D13*
%TO.C,R9*%
X33020000Y41783000D03*
D14*
X40640000Y41783000D03*
%TD*%
D11*
%TO.C,SW1*%
X69850000Y12065000D03*
D12*
X62230000Y12065000D03*
%TD*%
D15*
%TO.C,J2*%
X70485000Y45085000D03*
X67945000Y45085000D03*
X65405000Y45085000D03*
X62865000Y45085000D03*
X60325000Y45085000D03*
X57785000Y45085000D03*
X55245000Y45085000D03*
X52705000Y45085000D03*
X50165000Y45085000D03*
D16*
X47625000Y45085000D03*
%TD*%
D15*
%TO.C,J3*%
X27305000Y45085000D03*
X24765000Y45085000D03*
X22225000Y45085000D03*
X19685000Y45085000D03*
X17145000Y45085000D03*
X14605000Y45085000D03*
X12065000Y45085000D03*
X9525000Y45085000D03*
X6985000Y45085000D03*
D16*
X4445000Y45085000D03*
%TD*%
D17*
%TO.C,U1*%
X33020000Y14605000D03*
X40640000Y37465000D03*
X33020000Y17145000D03*
X40640000Y34925000D03*
X33020000Y19685000D03*
X40640000Y32385000D03*
X33020000Y22225000D03*
X40640000Y29845000D03*
X33020000Y24765000D03*
X40640000Y27305000D03*
X33020000Y27305000D03*
X40640000Y24765000D03*
X33020000Y29845000D03*
X40640000Y22225000D03*
X33020000Y32385000D03*
X40640000Y19685000D03*
X33020000Y34925000D03*
X40640000Y17145000D03*
X33020000Y37465000D03*
D18*
X40640000Y14605000D03*
%TD*%
D13*
%TO.C,R8*%
X67945000Y29210000D03*
D14*
X67945000Y31750000D03*
%TD*%
D13*
%TO.C,R7*%
X65405000Y29210000D03*
D14*
X65405000Y31750000D03*
%TD*%
D13*
%TO.C,R6*%
X62865000Y29210000D03*
D14*
X62865000Y31750000D03*
%TD*%
D13*
%TO.C,R5*%
X60325000Y29210000D03*
D14*
X60325000Y31750000D03*
%TD*%
D13*
%TO.C,R4*%
X57785000Y29210000D03*
D14*
X57785000Y31750000D03*
%TD*%
D13*
%TO.C,R3*%
X55245000Y29210000D03*
D14*
X55245000Y31750000D03*
%TD*%
D13*
%TO.C,R2*%
X52705000Y29210000D03*
D14*
X52705000Y31750000D03*
%TD*%
D13*
%TO.C,R1*%
X50165000Y29210000D03*
D14*
X50165000Y31750000D03*
%TD*%
D19*
%TO.C,U6*%
X6985000Y31750000D03*
X27305000Y24130000D03*
X9525000Y31750000D03*
X24765000Y24130000D03*
X12065000Y31750000D03*
X22225000Y24130000D03*
X14605000Y31750000D03*
X19685000Y24130000D03*
X17145000Y31750000D03*
X17145000Y24130000D03*
X19685000Y31750000D03*
X14605000Y24130000D03*
X22225000Y31750000D03*
X12065000Y24130000D03*
X24765000Y31750000D03*
X9525000Y24130000D03*
X27305000Y31750000D03*
D20*
X6985000Y24130000D03*
%TD*%
D19*
%TO.C,U5*%
X47625000Y25400000D03*
X70485000Y17780000D03*
X50165000Y25400000D03*
X67945000Y17780000D03*
X52705000Y25400000D03*
X65405000Y17780000D03*
X55245000Y25400000D03*
X62865000Y17780000D03*
X57785000Y25400000D03*
X60325000Y17780000D03*
X60325000Y25400000D03*
X57785000Y17780000D03*
X62865000Y25400000D03*
X55245000Y17780000D03*
X65405000Y25400000D03*
X52705000Y17780000D03*
X67945000Y25400000D03*
X50165000Y17780000D03*
X70485000Y25400000D03*
D20*
X47625000Y17780000D03*
%TD*%
D19*
%TO.C,U4*%
X4445000Y20320000D03*
X27305000Y12700000D03*
X6985000Y20320000D03*
X24765000Y12700000D03*
X9525000Y20320000D03*
X22225000Y12700000D03*
X12065000Y20320000D03*
X19685000Y12700000D03*
X14605000Y20320000D03*
X17145000Y12700000D03*
X17145000Y20320000D03*
X14605000Y12700000D03*
X19685000Y20320000D03*
X12065000Y12700000D03*
X22225000Y20320000D03*
X9525000Y12700000D03*
X24765000Y20320000D03*
X6985000Y12700000D03*
X27305000Y20320000D03*
D20*
X4445000Y12700000D03*
%TD*%
D11*
%TO.C,RN1*%
X67945000Y34925000D03*
X65405000Y34925000D03*
X62865000Y34925000D03*
X60325000Y34925000D03*
X57785000Y34925000D03*
X55245000Y34925000D03*
X52705000Y34925000D03*
X50165000Y34925000D03*
D12*
X47625000Y34925000D03*
%TD*%
D11*
%TO.C,D1*%
X53340000Y10795000D03*
D12*
X45720000Y10795000D03*
%TD*%
D21*
%TO.C,C1*%
X8160000Y6985000D03*
D12*
X10160000Y6985000D03*
%TD*%
M02*
