M48
; DRILL file {KiCad (5.1.12)-1} date 01/19/23 18:02:00
; FORMAT={-:-/ absolute / inch / decimal}
; #@! TF.CreationDate,2023-01-19T18:02:00+01:00
; #@! TF.GenerationSoftware,Kicad,Pcbnew,(5.1.12)-1
; #@! TF.FileFunction,Plated,1,2,PTH
FMAT,2
INCH
T1C0.0157
T2C0.0197
T3C0.0236
T4C0.0276
T5C0.0315
T6C0.0374
T7C0.0394
T8C0.0433
T9C0.0512
T10C0.0551
T11C0.0591
T12C0.0906
T13C0.1260
%
G90
G05
T1
X0.1689Y4.2564
X0.1726Y5.5077
X0.1926Y5.3277
X0.3926Y5.0202
X0.4376Y1.2627
X0.4426Y2.2577
X0.4726Y4.7077
X0.5376Y1.8127
X0.5376Y1.3377
X0.5476Y5.4727
X0.5626Y2.0927
X0.5718Y0.4285
X0.5726Y1.5827
X0.5776Y1.7577
X0.6076Y5.0677
X0.6526Y5.5577
X0.6526Y5.4527
X0.6626Y1.7727
X0.7026Y4.6827
X0.7076Y5.0177
X0.7326Y5.5977
X0.7676Y4.6727
X0.8076Y5.0927
X0.8126Y3.8277
X0.8626Y5.5877
X0.9126Y0.6127
X0.9176Y5.1027
X0.9626Y5.1277
X0.9626Y0.1327
X0.9926Y5.0727
X1.0376Y5.5727
X1.0626Y0.2202
X1.0676Y4.8977
X1.1026Y6.2577
X1.1226Y4.2277
X1.1376Y4.3477
X1.1376Y2.3027
X1.1726Y3.9627
X1.1826Y2.4277
X1.2376Y2.4027
X1.4426Y4.2427
X1.4526Y4.5927
X1.4576Y2.8977
X1.4826Y4.2977
X1.4926Y3.2027
X1.5226Y0.2677
X1.5376Y2.4027
X1.6076Y4.6427
X1.6126Y6.4677
X1.621Y0.9943
X1.6376Y2.0277
X1.6726Y4.3427
X1.6926Y3.5227
X1.7226Y5.0427
X1.727Y1.8142
X1.7626Y4.9427
X1.8026Y1.7627
X1.8826Y2.7227
X1.8926Y0.4427
X1.9376Y1.8377
X1.9701Y0.6127
X2.0376Y4.5927
X2.1126Y3.1927
X2.1226Y3.2627
X2.1276Y1.7527
X2.1526Y1.0127
X2.1576Y3.5277
X2.1576Y1.6777
X2.1626Y1.9927
X2.1826Y2.3427
X2.2576Y5.7177
X2.2837Y1.5005
X2.2926Y5.5177
X2.2926Y5.2427
X2.2976Y3.5227
X2.3126Y6.5727
X2.3126Y4.7977
X2.3126Y0.9942
X2.3326Y3.2177
X2.3426Y4.5927
X2.3526Y2.3627
X2.3976Y6.5727
X2.4376Y4.9127
X2.4376Y4.8577
X2.4376Y2.4927
X2.4676Y6.5577
X2.4676Y1.0477
X2.4726Y3.4877
X2.4876Y2.0127
X2.5126Y3.8927
X2.5176Y6.0277
X2.5176Y2.2627
X2.5276Y6.5477
X2.5601Y5.3002
X2.5626Y3.0827
X2.5626Y2.6177
X2.5826Y6.5227
X2.5826Y4.9927
X2.5826Y1.4277
X2.5926Y5.2077
X2.5926Y3.4277
X2.6026Y4.8827
X2.6126Y6.0427
X2.6126Y2.6077
X2.6126Y2.4727
X2.6226Y3.3927
X2.6226Y2.8177
X2.6326Y6.1677
X2.6526Y6.0227
X2.6526Y5.2427
X2.6826Y3.2327
X2.6876Y3.5027
X2.6926Y1.8477
X2.8376Y3.0827
X2.8526Y5.8577
X2.8526Y3.3227
X2.8576Y2.9927
X2.8626Y1.9827
X2.8901Y1.2402
X2.8926Y6.5127
X2.8976Y3.3727
X2.9069Y1.5601
X2.9348Y5.9619
X2.9376Y5.4927
X2.9376Y5.4077
X2.9376Y2.3127
X3.0076Y3.2327
X3.0326Y2.6277
X3.0326Y2.5377
X3.0443Y1.5428
X3.0526Y3.7727
X3.0626Y3.3077
X3.0876Y5.5827
X3.0926Y4.1427
X3.0976Y5.0777
X3.1076Y1.0677
X3.1086Y0.9236
X3.1676Y3.8427
X3.1926Y4.7827
X3.2326Y5.3577
X3.2576Y5.0877
X3.2626Y1.1027
X3.2846Y1.8464
X3.2926Y6.4027
X3.2926Y4.1827
X3.2926Y1.0727
X3.2976Y1.6727
X3.2976Y1.6177
X3.2976Y1.5577
X3.3276Y5.1827
X3.3326Y2.5582
X3.3476Y0.7427
X3.3506Y4.2927
X3.3576Y5.1177
X3.3626Y5.6027
X3.3776Y4.9727
X3.3876Y5.2927
X3.3876Y4.0377
X3.3976Y3.7777
X3.3976Y1.4177
X3.3976Y1.3377
X3.4326Y5.0077
X3.4351Y3.9927
X3.4376Y6.4627
X3.4626Y2.5852
X3.4726Y0.2827
X3.4776Y3.5177
X3.5326Y3.5477
X3.5451Y2.5847
X3.5576Y3.6727
X3.5726Y3.2627
X3.5926Y3.8072
X3.6003Y4.0204
X3.6049Y2.1579
X3.6076Y3.3777
X3.6126Y0.2877
X3.6234Y1.7716
X3.6376Y3.2277
X3.6716Y2.7067
X3.6726Y1.2277
X3.7076Y2.9827
X3.7276Y4.5777
X3.7326Y4.4877
X3.7376Y5.1427
X3.7476Y4.1177
X3.7576Y4.7977
X3.7636Y4.7057
X3.7726Y5.4427
X3.7726Y4.2427
X3.7776Y4.1577
X3.7981Y0.6678
X3.807Y2.7033
X3.807Y2.3248
X3.8126Y1.5077
X3.8126Y1.2177
X3.8163Y1.8677
X3.8376Y0.8177
X3.8726Y5.3427
X3.8826Y4.6577
X3.8826Y0.1077
X3.8906Y0.3007
X3.8976Y3.8977
X3.8998Y1.5137
X3.9176Y4.8927
X3.9226Y6.4677
X3.9476Y3.9327
X3.9676Y3.3727
X3.9676Y2.6427
X3.9976Y4.7927
X4.0026Y4.5127
X4.0108Y2.4945
X4.0126Y2.7927
X4.0226Y2.3877
X4.0326Y4.6077
X4.0676Y0.9427
X4.0776Y4.9827
X4.0855Y1.5677
X4.0876Y4.1277
X4.0917Y1.9218
X4.0926Y5.1927
X4.0926Y2.4659
X4.0976Y0.8927
X4.1131Y2.3482
X4.1141Y2.2861
X4.1217Y3.6516
X4.1476Y4.1577
X4.1476Y0.5777
X4.1631Y2.4482
X4.1776Y1.9027
X4.1826Y1.4277
X4.1976Y1.7927
X4.2076Y1.0777
X4.2326Y2.3452
X4.2376Y0.1927
X4.2681Y2.9127
X4.276Y2.5275
X4.3626Y2.8377
X4.3676Y0.6527
X4.377Y1.3151
X4.3926Y2.9927
X4.3976Y2.1927
X4.3976Y1.824
X4.4076Y1.8827
X4.4268Y2.8938
X4.432Y3.7495
X4.4391Y3.3692
X4.4476Y4.2027
X4.4576Y2.7427
X4.4576Y1.1477
X4.4626Y1.4977
X4.4676Y3.6127
X4.4726Y4.9927
X4.4726Y1.5927
X4.4801Y2.4152
X4.4826Y5.8527
X4.5026Y2.5327
X4.5476Y2.0027
X4.5551Y0.5102
X4.5826Y4.5827
X4.5876Y1.5227
X4.5876Y0.6227
X4.5926Y2.4327
X4.604Y2.3403
X4.6176Y1.6977
X4.6276Y2.7277
X4.6576Y2.8227
X4.6626Y2.1777
X4.6676Y3.1177
X4.6726Y1.3077
X4.6876Y0.8547
X4.7026Y2.8527
X4.7026Y0.2727
X4.7126Y0.7677
X4.7326Y3.1527
X4.7476Y2.0927
X4.7626Y3.0527
X4.7826Y1.9977
X4.7876Y2.4777
X4.8076Y2.8627
X4.8176Y0.8427
X4.8226Y3.4077
X4.8736Y2.3727
X4.8976Y3.4077
X4.9026Y2.7277
X4.9476Y5.0277
X4.9676Y3.5927
X4.9826Y3.7427
X4.9876Y3.4827
X4.9876Y1.1777
X5.0026Y4.0827
X5.0276Y3.1627
X5.0276Y1.9977
X5.0576Y2.3477
X5.0626Y3.2427
X5.0926Y2.3702
X5.2476Y3.9227
X5.2537Y1.6988
X5.3226Y4.1427
X5.4076Y2.4777
X5.5926Y0.5973
X5.6276Y5.3977
X5.6452Y1.2525
X5.6926Y6.5227
X5.6976Y2.5727
X5.7026Y2.2527
X5.7226Y6.3427
X5.7226Y2.6577
X5.7426Y2.2777
X5.7526Y3.4677
X5.7526Y3.2227
X5.7726Y2.6727
X5.7826Y3.6177
X5.8026Y6.5377
X5.8076Y2.9477
X5.8076Y2.7127
X5.8526Y2.7127
X5.8526Y2.3527
X5.8726Y1.4827
X5.8876Y2.8227
X5.8876Y2.5427
X5.8926Y2.1427
X5.8976Y1.1627
X5.9226Y6.5177
X5.9326Y6.3427
X5.9426Y2.2727
X5.9776Y2.5227
X5.9776Y2.3327
X5.9826Y2.7127
X6.0176Y2.6077
X6.0426Y4.3727
X6.0526Y1.3627
X6.1326Y5.0177
X6.1626Y4.7877
X6.2026Y0.8927
X6.2501Y1.9052
X6.2939Y2.1045
X6.4176Y0.8077
T2
X3.1078Y5.2577
X3.1826Y5.2577
T3
X0.5076Y1.1327
X0.6926Y4.5627
X0.8626Y1.4527
X0.8976Y1.2177
X1.2276Y0.2627
X1.4176Y0.2677
X1.5176Y0.8027
X1.7676Y5.8427
X1.9926Y1.7627
X2.1826Y3.3327
X2.3126Y6.3427
X2.4826Y0.2127
X2.7476Y3.5277
X2.7726Y3.2927
X3.1126Y1.2477
X3.2376Y2.4227
X3.3176Y2.2777
X3.3926Y2.1677
X3.5676Y1.2727
X3.6276Y3.5877
X3.7126Y2.6527
X3.8076Y2.1677
X4.2376Y1.4277
X4.2426Y2.0927
X4.3826Y2.4927
X4.7426Y2.5477
X5.0776Y2.5477
X5.0851Y6.3702
X5.3951Y6.1552
X5.3951Y5.8652
X5.4626Y2.3377
X5.5076Y6.6127
T4
X0.1676Y3.8977
X0.1676Y3.8027
X0.1676Y3.7077
X0.4676Y3.8977
X0.4676Y3.8027
X0.4676Y3.7077
X1.0926Y2.6427
X1.1726Y5.5927
X1.1726Y5.2927
X1.2676Y5.5927
X1.2676Y5.2927
X1.3926Y2.6427
X2.2626Y2.5627
X2.2626Y2.2627
X2.2626Y2.0877
X2.2626Y1.7877
X2.2626Y1.6927
X2.2626Y1.3927
X2.9676Y3.8177
X2.9676Y3.7277
X3.2676Y3.8177
X3.2676Y3.7277
X4.3376Y5.9977
X4.3376Y5.6977
X4.4376Y5.9977
X4.4376Y5.6977
X4.5076Y5.3927
X4.5076Y5.0927
X4.5626Y4.7927
X4.5626Y4.4927
X4.6376Y5.8327
X4.6376Y5.5327
X4.6376Y5.2427
X4.6626Y4.7927
X4.6626Y4.4927
X4.7376Y5.8327
X4.7376Y5.5327
X4.7626Y4.7927
X4.7626Y4.4927
X4.8626Y4.7927
X4.8626Y4.4927
X4.9376Y5.2427
X5.0376Y5.2427
X5.1326Y4.2227
X5.1415Y5.8327
X5.1415Y5.5327
X5.1626Y5.0927
X5.1626Y4.9927
X5.1626Y4.8927
X5.2376Y5.8327
X5.2376Y5.5327
X5.3376Y5.2427
X5.3376Y0.2677
X5.3376Y0.1677
X5.4326Y4.2227
X5.4626Y5.0927
X5.4626Y4.9927
X5.4626Y4.8927
X5.4676Y5.9227
X5.4676Y5.6227
X5.5676Y5.9227
X5.5676Y5.6227
X5.6376Y0.2677
X5.6376Y0.1677
X5.6676Y5.9227
X5.6676Y5.6227
X5.7676Y5.9227
X5.7676Y5.6227
X5.8376Y4.3477
X5.8376Y4.0477
X6.3376Y3.2677
X6.3376Y2.9677
X6.3426Y2.8677
X6.3426Y2.5677
X6.3626Y4.1427
X6.3626Y3.8427
X6.4626Y4.1427
X6.4626Y3.8427
X6.5626Y4.1427
X6.5626Y3.8427
T5
X0.1776Y1.4427
X0.1776Y1.3443
X0.1876Y4.7177
X0.1876Y2.5177
X0.1876Y1.9177
X0.2576Y4.7677
X0.2576Y4.6677
X0.2576Y4.5677
X0.2576Y4.4677
X0.2576Y4.3677
X0.2576Y4.2677
X0.2776Y3.2277
X0.2826Y5.6977
X0.2826Y5.3977
X0.2876Y2.5177
X0.2876Y1.9177
X0.3126Y0.8177
X0.3126Y0.6209
X0.3576Y4.8677
X0.3576Y4.7677
X0.3576Y4.6677
X0.3576Y4.5677
X0.3576Y4.4677
X0.3576Y4.3677
X0.3576Y4.2677
X0.3576Y4.1677
X0.3876Y5.6977
X0.3876Y5.3977
X0.3876Y2.5177
X0.3876Y1.9177
X0.3876Y1.7627
X0.3876Y1.6627
X0.3876Y1.5627
X0.3876Y1.4627
X0.3876Y1.3627
X0.4242Y5.1227
X0.4576Y4.8677
X0.4576Y4.7677
X0.4576Y4.2677
X0.4576Y4.1677
X0.4876Y2.6427
X0.4876Y2.5177
X0.4876Y1.9177
X0.4926Y5.6977
X0.4926Y5.3977
X0.5226Y5.1227
X0.5576Y4.8677
X0.5576Y4.7677
X0.5576Y4.2677
X0.5576Y4.1677
X0.5626Y3.9177
X0.5626Y3.7077
X0.5876Y2.6427
X0.5876Y2.5177
X0.5876Y1.9177
X0.5976Y5.6977
X0.5976Y5.3977
X0.6126Y1.5177
X0.6126Y1.4177
X0.6126Y1.3177
X0.6126Y1.2177
X0.6126Y1.1177
X0.6126Y1.0177
X0.6126Y0.9177
X0.6126Y0.8177
X0.6126Y0.7177
X0.6126Y0.6177
X0.6126Y0.5177
X0.6576Y4.8677
X0.6576Y4.7677
X0.6576Y4.2677
X0.6576Y4.1677
X0.6626Y3.7077
X0.6626Y3.0927
X0.6626Y2.7927
X0.6876Y2.6427
X0.6876Y2.5177
X0.6876Y1.9177
X0.7026Y5.6977
X0.7026Y5.3977
X0.7126Y1.6177
X0.7126Y1.5177
X0.7126Y1.4177
X0.7126Y1.3177
X0.7126Y1.2177
X0.7126Y1.1177
X0.7126Y1.0177
X0.7126Y0.9177
X0.7126Y0.8177
X0.7126Y0.7177
X0.7126Y0.6177
X0.7126Y0.5177
X0.7126Y0.4177
X0.7576Y4.8677
X0.7576Y4.7677
X0.7576Y4.2677
X0.7576Y4.1677
X0.7594Y3.9177
X0.7626Y3.7077
X0.7626Y3.0927
X0.7626Y2.7927
X0.7826Y6.3377
X0.7876Y2.6427
X0.7876Y2.5177
X0.7876Y1.9177
X0.8076Y5.6977
X0.8076Y5.3977
X0.8126Y1.6177
X0.8126Y1.5177
X0.8126Y0.5177
X0.8126Y0.4177
X0.8576Y4.8677
X0.8576Y4.7677
X0.8576Y4.6677
X0.8576Y4.5677
X0.8576Y4.4677
X0.8576Y4.3677
X0.8576Y4.2677
X0.8576Y4.1677
X0.8626Y3.0927
X0.8626Y2.7927
X0.8876Y2.6427
X0.8876Y2.5177
X0.8876Y1.9177
X0.9126Y5.6977
X0.9126Y5.3977
X0.9126Y1.6177
X0.9126Y1.5177
X0.9126Y0.5177
X0.9126Y0.4177
X0.9526Y3.7127
X0.9576Y4.7677
X0.9576Y4.6677
X0.9576Y4.5677
X0.9576Y4.4677
X0.9576Y4.3677
X0.9576Y4.2677
X0.9626Y3.0927
X0.9626Y2.7927
X0.9876Y2.5177
X0.9876Y1.9177
X1.0126Y1.6177
X1.0126Y1.5177
X1.0126Y0.5177
X1.0126Y0.4177
X1.0176Y5.6977
X1.0176Y5.3977
X1.0876Y2.5177
X1.0876Y1.9177
X1.1126Y1.6177
X1.1126Y1.5177
X1.1126Y0.5177
X1.1126Y0.4177
X1.1626Y3.0927
X1.1626Y2.7927
X1.1876Y2.5177
X1.1876Y1.9177
X1.2126Y1.6177
X1.2126Y1.5177
X1.2126Y0.5177
X1.2126Y0.4177
X1.2157Y5.7677
X1.2626Y3.0927
X1.2626Y2.7927
X1.2876Y2.5177
X1.2876Y1.9177
X1.3126Y1.6177
X1.3126Y1.5177
X1.3126Y0.5177
X1.3126Y0.4177
X1.3626Y5.5927
X1.3626Y5.4927
X1.3626Y5.3927
X1.3626Y5.2927
X1.3626Y5.1927
X1.3626Y5.0927
X1.3626Y4.9927
X1.3626Y4.8927
X1.3626Y4.7927
X1.3626Y4.6927
X1.3626Y4.5927
X1.3626Y4.4927
X1.3626Y4.3927
X1.3626Y4.2927
X1.3626Y4.1927
X1.3626Y4.0927
X1.3626Y3.9927
X1.3626Y3.8927
X1.3626Y3.7927
X1.3626Y3.6927
X1.3626Y3.0927
X1.3626Y2.7927
X1.3876Y2.5177
X1.3876Y1.9177
X1.4126Y5.7677
X1.4126Y1.6177
X1.4126Y1.5177
X1.4126Y0.5177
X1.4126Y0.4177
X1.4626Y3.0927
X1.4626Y2.7927
X1.4876Y2.5177
X1.4876Y1.9177
X1.5126Y1.6177
X1.5126Y1.5177
X1.5126Y0.5177
X1.5126Y0.4177
X1.5626Y3.0927
X1.5626Y2.7927
X1.5876Y2.5177
X1.5876Y1.9177
X1.6126Y1.6177
X1.6126Y1.5177
X1.6126Y0.5177
X1.6126Y0.4177
X1.6626Y3.0927
X1.6626Y2.7927
X1.6876Y2.5177
X1.6876Y1.9177
X1.7126Y1.6177
X1.7126Y1.5177
X1.7126Y1.4177
X1.7126Y1.3177
X1.7126Y1.2177
X1.7126Y1.1177
X1.7126Y1.0177
X1.7126Y0.9177
X1.7126Y0.8177
X1.7126Y0.7177
X1.7126Y0.6177
X1.7126Y0.5177
X1.7126Y0.4177
X1.7626Y3.0927
X1.7626Y2.7927
X1.7876Y6.1177
X1.7876Y2.5177
X1.7876Y1.9177
X1.8126Y1.5177
X1.8126Y1.4177
X1.8126Y1.3177
X1.8126Y1.2177
X1.8126Y1.1177
X1.8126Y1.0177
X1.8126Y0.9177
X1.8126Y0.8177
X1.8126Y0.7177
X1.8126Y0.6177
X1.8126Y0.5177
X1.8226Y5.5927
X1.8876Y6.1177
X1.8876Y2.5177
X1.8876Y1.9177
X1.9407Y0.2127
X1.9626Y5.5927
X1.9626Y5.4927
X1.9626Y5.3927
X1.9626Y5.2927
X1.9626Y5.1927
X1.9626Y5.0927
X1.9626Y4.9927
X1.9626Y4.8927
X1.9626Y4.7927
X1.9626Y4.6927
X1.9626Y4.5927
X1.9626Y4.4927
X1.9626Y4.3927
X1.9626Y4.2927
X1.9626Y4.1927
X1.9626Y4.0927
X1.9626Y3.9927
X1.9626Y3.8927
X1.9626Y3.7927
X1.9626Y3.6927
X1.9626Y3.0427
X1.9626Y2.8459
X1.9876Y6.1177
X1.9876Y2.5177
X1.9876Y1.9177
X2.0126Y5.7927
X2.0442Y0.9277
X2.0876Y6.1177
X2.0876Y2.5177
X2.0876Y1.9177
X2.1126Y5.7927
X2.1126Y1.4727
X2.1126Y1.2759
X2.1226Y1.3927
X2.1376Y0.6177
X2.1376Y0.5177
X2.1376Y0.4177
X2.1376Y0.2127
X2.1426Y0.9277
X2.1526Y5.5927
X2.1526Y5.4927
X2.1526Y5.3927
X2.1526Y5.2927
X2.1526Y5.1927
X2.1526Y5.0927
X2.1526Y4.9927
X2.1526Y4.8927
X2.1526Y4.7927
X2.1526Y4.6927
X2.1526Y4.5927
X2.1526Y4.4927
X2.1526Y4.3927
X2.1526Y4.2927
X2.1526Y4.1927
X2.1526Y4.0927
X2.1526Y3.9927
X2.1526Y3.8927
X2.1526Y3.7927
X2.1526Y3.6927
X2.1876Y6.1177
X2.2126Y5.7927
X2.2476Y0.9627
X2.2876Y6.1177
X2.3126Y5.7927
X2.3242Y3.3777
X2.3876Y6.1177
X2.3876Y2.1927
X2.3876Y2.0927
X2.3876Y1.9927
X2.3876Y1.8927
X2.3876Y1.7927
X2.3876Y1.6927
X2.3876Y1.5927
X2.3876Y1.4927
X2.3876Y1.3927
X2.3876Y1.2927
X2.3876Y1.1927
X2.3876Y1.0927
X2.3876Y0.9927
X2.3876Y0.8927
X2.3876Y0.7927
X2.3876Y0.6927
X2.3876Y0.5927
X2.3876Y0.4927
X2.3876Y0.3927
X2.3876Y0.2927
X2.4126Y5.7927
X2.4226Y3.3777
X2.4876Y6.1177
X2.5126Y5.7927
X2.6157Y2.3927
X2.6876Y5.9527
X2.7526Y5.5927
X2.7526Y5.4927
X2.7526Y5.3927
X2.7526Y5.2927
X2.7526Y5.1927
X2.7526Y5.0927
X2.7526Y4.9927
X2.7526Y4.8927
X2.7526Y4.7927
X2.7526Y4.6927
X2.7526Y4.5927
X2.7526Y4.4927
X2.7526Y4.3927
X2.7526Y4.2927
X2.7526Y4.1927
X2.7526Y4.0927
X2.7526Y3.9927
X2.7526Y3.8927
X2.7526Y3.7927
X2.7526Y3.6927
X2.786Y5.9527
X2.8126Y2.3927
X2.8676Y5.6927
X2.8676Y5.5927
X2.8676Y5.4927
X2.8676Y5.3927
X2.8676Y5.2927
X2.9076Y5.0927
X2.9076Y4.9927
X2.9076Y4.8927
X2.9076Y4.7927
X2.9076Y4.6927
X2.9076Y4.5927
X2.9076Y4.4927
X2.9076Y4.3927
X2.9076Y4.2927
X2.9076Y4.1927
X2.9076Y4.0927
X2.9076Y3.9927
X2.9807Y3.5977
X2.9876Y2.1927
X2.9876Y2.0927
X2.9876Y1.9927
X2.9876Y1.8927
X2.9876Y1.7927
X2.9876Y1.6927
X2.9876Y1.5927
X2.9876Y1.4927
X2.9876Y1.3927
X2.9876Y1.2927
X2.9876Y1.1927
X2.9876Y1.0927
X2.9876Y0.9927
X2.9876Y0.8927
X2.9876Y0.7927
X2.9876Y0.6927
X2.9876Y0.5927
X2.9876Y0.4927
X2.9876Y0.3927
X2.9876Y0.2927
X3.0376Y3.1427
X3.0376Y3.0427
X3.0376Y2.9427
X3.0376Y2.8427
X3.0376Y2.7427
X3.1376Y3.2427
X3.1376Y3.1427
X3.1376Y3.0427
X3.1376Y2.9427
X3.1376Y2.8427
X3.1376Y2.7427
X3.1376Y2.6427
X3.1776Y3.5977
X3.1876Y2.2677
X3.1876Y2.1677
X3.1876Y2.0677
X3.1876Y1.9677
X3.1876Y1.8677
X3.1876Y1.7677
X3.1876Y1.6677
X3.1876Y1.5677
X3.1876Y1.4677
X3.1876Y1.3677
X3.1876Y0.9927
X3.1876Y0.8927
X3.1876Y0.7927
X3.1876Y0.6927
X3.1876Y0.5927
X3.1876Y0.4927
X3.1876Y0.3927
X3.2026Y4.0927
X3.2157Y0.2177
X3.2307Y1.1777
X3.2376Y3.2427
X3.2376Y3.1427
X3.2376Y2.7427
X3.2376Y2.6427
X3.2926Y5.6896
X3.2926Y5.4927
X3.3376Y3.2427
X3.3376Y3.1427
X3.3376Y2.7427
X3.3376Y2.6427
X3.4126Y0.2177
X3.4242Y5.6077
X3.4242Y5.5027
X3.4276Y1.1777
X3.4376Y3.6927
X3.4376Y3.2427
X3.4376Y3.1427
X3.4376Y3.0427
X3.4376Y2.9427
X3.4376Y2.8427
X3.4376Y2.7427
X3.4376Y2.6427
X3.4876Y2.2677
X3.4876Y2.1677
X3.4876Y2.0677
X3.4876Y1.9677
X3.4876Y1.8677
X3.4876Y1.7677
X3.4876Y1.6677
X3.4876Y1.5677
X3.4876Y1.4677
X3.4876Y1.3677
X3.4876Y0.9927
X3.4876Y0.8927
X3.4876Y0.7927
X3.4876Y0.6927
X3.4876Y0.5927
X3.4876Y0.4927
X3.4876Y0.3927
X3.5076Y5.0927
X3.5076Y4.9927
X3.5076Y4.8927
X3.5076Y4.7927
X3.5076Y4.6927
X3.5076Y4.5927
X3.5076Y4.4927
X3.5076Y4.3927
X3.5076Y4.2927
X3.5076Y4.1927
X3.5076Y4.0927
X3.5076Y3.9927
X3.5226Y5.7277
X3.5226Y5.6077
X3.5226Y5.5027
X3.5376Y3.1427
X3.5376Y3.0427
X3.5376Y2.9427
X3.5376Y2.8427
X3.5376Y2.7427
X3.6626Y5.5927
X3.6626Y5.4927
X3.6626Y5.3927
X3.6626Y5.2927
X3.6626Y5.1927
X3.6626Y5.0927
X3.6626Y4.9927
X3.6626Y4.8927
X3.6626Y4.7927
X3.6626Y4.6927
X3.6626Y4.5927
X3.6626Y4.4927
X3.6626Y4.3927
X3.6626Y4.2927
X3.6626Y4.1927
X3.6626Y4.0927
X3.6626Y3.9927
X3.6626Y3.8927
X3.6626Y3.7927
X3.6626Y3.6927
X3.7126Y2.2677
X3.7126Y2.1677
X3.7126Y2.0677
X3.7126Y1.9677
X3.7126Y1.8677
X3.7126Y1.7677
X3.7126Y1.6677
X3.7126Y1.5677
X3.7126Y1.4677
X3.7126Y1.3677
X3.7126Y1.0927
X3.7126Y0.9927
X3.7126Y0.8927
X3.7126Y0.7927
X3.7126Y0.6927
X3.7126Y0.5927
X3.7126Y0.4927
X3.7126Y0.3927
X3.7126Y0.2927
X3.7126Y0.1927
X3.7676Y6.5177
X3.9126Y3.2927
X3.9126Y3.1927
X3.9126Y3.0927
X3.9126Y2.9927
X3.9126Y2.8927
X3.9126Y2.7927
X3.9126Y2.6927
X3.9126Y2.5927
X4.0126Y2.2677
X4.0126Y2.1677
X4.0126Y2.0677
X4.0126Y1.9677
X4.0126Y1.8677
X4.0126Y1.7677
X4.0126Y1.6677
X4.0126Y1.5677
X4.0126Y1.4677
X4.0126Y1.3677
X4.0126Y1.0927
X4.0126Y0.9927
X4.0126Y0.8927
X4.0126Y0.7927
X4.0126Y0.6927
X4.0126Y0.5927
X4.0126Y0.4927
X4.0126Y0.3927
X4.0126Y0.2927
X4.0126Y0.1927
X4.0576Y6.1027
X4.1476Y1.2711
X4.1476Y1.1727
X4.1576Y6.1027
X4.1876Y6.5577
X4.1876Y6.2577
X4.2126Y3.2927
X4.2126Y3.1927
X4.2126Y3.0927
X4.2126Y2.9927
X4.2126Y2.8927
X4.2126Y2.7927
X4.2126Y2.6927
X4.2126Y2.5927
X4.2176Y5.9427
X4.2176Y5.7459
X4.2576Y6.1027
X4.2626Y5.5927
X4.2626Y5.4927
X4.2626Y5.3927
X4.2626Y5.2927
X4.2626Y5.1927
X4.2626Y5.0927
X4.2626Y4.9927
X4.2626Y4.8927
X4.2626Y4.7927
X4.2626Y4.6927
X4.2626Y4.5927
X4.2626Y4.4927
X4.2626Y4.3927
X4.2626Y4.2927
X4.2626Y4.1927
X4.2626Y4.0927
X4.2626Y3.9927
X4.2626Y3.8927
X4.2626Y3.7927
X4.2626Y3.6927
X4.2876Y6.5577
X4.2876Y6.2577
X4.3126Y2.1927
X4.3126Y2.0927
X4.3126Y1.9927
X4.3126Y1.8927
X4.3126Y1.7927
X4.3126Y1.6927
X4.3126Y1.5927
X4.3126Y1.4927
X4.3126Y1.3927
X4.3126Y1.2927
X4.3126Y1.1927
X4.3126Y1.0927
X4.3126Y0.9927
X4.3126Y0.8927
X4.3126Y0.7927
X4.3126Y0.6927
X4.3126Y0.5927
X4.3126Y0.4927
X4.3126Y0.3927
X4.3126Y0.2927
X4.3576Y6.1027
X4.3876Y6.5577
X4.3876Y6.2577
X4.4576Y6.1027
X4.5626Y3.9927
X4.5626Y3.8927
X4.5626Y3.7927
X4.5626Y3.6927
X4.5626Y3.5927
X4.5626Y3.4927
X4.5626Y3.3927
X4.5626Y3.2927
X4.5626Y3.1927
X4.5626Y3.0927
X4.5626Y2.9927
X4.5626Y2.8927
X4.5626Y2.7927
X4.5626Y2.6927
X4.5626Y2.5927
X4.5626Y2.4927
X4.5876Y4.2177
X4.6376Y5.3727
X4.6376Y5.0927
X4.6376Y4.8959
X4.6876Y4.2177
X4.7376Y5.3727
X4.7407Y2.3677
X4.7626Y5.0927
X4.7626Y4.9927
X4.7826Y5.6127
X4.7876Y4.2177
X4.8376Y5.3727
X4.9126Y2.1927
X4.9126Y2.0927
X4.9126Y1.9927
X4.9126Y1.8927
X4.9126Y1.7927
X4.9126Y1.6927
X4.9126Y1.5927
X4.9126Y1.4927
X4.9126Y1.3927
X4.9126Y1.2927
X4.9126Y1.1927
X4.9126Y1.0927
X4.9126Y0.9927
X4.9126Y0.8927
X4.9126Y0.7927
X4.9126Y0.6927
X4.9126Y0.5927
X4.9126Y0.4927
X4.9126Y0.3927
X4.9126Y0.2927
X4.9376Y2.3677
X5.0126Y4.7927
X5.0126Y4.4927
X5.0157Y4.3677
X5.0376Y5.3927
X5.0626Y5.0927
X5.0626Y4.9927
X5.1126Y4.7927
X5.1126Y4.4927
X5.1126Y2.1927
X5.1126Y2.0927
X5.1126Y1.9927
X5.1126Y1.8927
X5.1126Y1.7927
X5.1126Y1.6927
X5.1126Y1.5927
X5.1126Y1.4927
X5.1126Y1.2927
X5.1126Y1.1927
X5.1126Y1.0927
X5.1126Y0.9927
X5.1126Y0.8927
X5.1126Y0.7927
X5.1126Y0.6927
X5.1126Y0.5927
X5.1626Y3.9927
X5.1626Y3.8927
X5.1626Y3.7927
X5.1626Y3.6927
X5.1626Y3.5927
X5.1626Y3.4927
X5.1626Y3.3927
X5.1626Y3.2927
X5.1626Y3.1927
X5.1626Y3.0927
X5.1626Y2.9927
X5.1626Y2.8927
X5.1626Y2.7927
X5.1626Y2.6927
X5.1626Y2.5927
X5.1626Y2.4927
X5.1626Y0.4427
X5.2126Y4.7927
X5.2126Y4.4927
X5.2126Y4.3677
X5.3126Y4.7927
X5.3126Y4.4927
X5.3376Y5.3927
X5.3594Y0.4427
X5.4126Y2.1927
X5.4126Y2.0927
X5.4126Y1.9927
X5.4126Y1.8927
X5.4126Y1.7927
X5.4126Y1.6927
X5.4126Y1.5927
X5.4126Y1.4927
X5.4126Y1.2927
X5.4126Y1.1927
X5.4126Y1.0927
X5.4126Y0.9927
X5.4126Y0.8927
X5.4126Y0.7927
X5.4126Y0.6927
X5.4126Y0.5927
X5.4626Y5.3927
X5.4626Y5.1959
X5.4876Y4.7396
X5.4876Y4.5427
X5.6126Y3.7677
X5.6126Y3.6677
X5.6126Y3.5677
X5.6126Y3.4677
X5.6126Y3.3677
X5.6126Y3.2677
X5.6126Y3.1677
X5.6126Y3.0677
X5.6126Y2.9677
X5.6126Y2.8677
X5.6126Y2.7677
X5.6126Y2.6677
X5.6126Y2.5677
X5.6126Y2.4677
X5.6276Y4.2796
X5.6276Y4.0827
X5.6626Y2.1927
X5.6626Y2.0927
X5.6626Y1.9927
X5.6626Y1.8927
X5.6626Y1.7927
X5.6626Y1.6927
X5.6626Y1.5927
X5.6626Y1.4927
X5.6626Y1.3927
X5.6626Y1.0427
X5.6626Y0.9427
X5.6626Y0.8427
X5.6626Y0.7427
X5.6626Y0.6427
X5.6626Y0.5427
X5.6626Y0.4427
X5.7157Y1.2427
X5.7376Y4.2796
X5.7376Y4.0827
X5.9126Y1.2427
X5.9326Y5.9177
X5.9376Y5.1677
X5.9376Y4.3677
X5.9376Y4.2677
X5.9376Y4.1677
X5.9376Y4.0677
X5.9626Y2.1927
X5.9626Y2.0927
X5.9626Y1.9927
X5.9626Y1.8927
X5.9626Y1.7927
X5.9626Y1.6927
X5.9626Y1.5927
X5.9626Y1.4927
X5.9626Y1.3927
X5.9626Y1.0427
X5.9626Y0.9427
X5.9626Y0.8427
X5.9626Y0.7427
X5.9626Y0.6427
X5.9626Y0.5427
X5.9626Y0.4427
X6.0142Y5.4677
X6.1126Y5.4677
X6.1294Y5.9177
X6.1626Y2.1927
X6.1626Y2.0927
X6.1626Y1.9927
X6.1626Y1.8927
X6.1626Y1.7927
X6.1626Y1.6927
X6.1626Y1.5927
X6.1626Y1.4927
X6.1626Y1.3927
X6.1876Y1.0427
X6.1876Y0.4427
X6.2126Y3.7677
X6.2126Y3.6677
X6.2126Y3.5677
X6.2126Y3.4677
X6.2126Y3.3677
X6.2126Y3.2677
X6.2126Y3.1677
X6.2126Y3.0677
X6.2126Y2.9677
X6.2126Y2.8677
X6.2126Y2.7677
X6.2126Y2.6677
X6.2126Y2.5677
X6.2126Y2.4677
X6.2126Y1.2427
X6.2376Y5.1677
X6.2376Y4.3677
X6.2376Y4.2677
X6.2376Y4.1677
X6.2376Y4.0677
X6.4094Y1.2427
X6.4376Y2.8077
X6.4376Y2.7093
X6.4626Y4.5577
X6.4626Y4.4577
X6.4626Y4.3577
X6.4626Y2.1927
X6.4626Y2.0927
X6.4626Y1.9927
X6.4626Y1.8927
X6.4626Y1.7927
X6.4626Y1.6927
X6.4626Y1.5927
X6.4626Y1.4927
X6.4626Y1.3927
X6.4726Y2.6127
X6.4726Y2.4159
X6.4876Y1.0427
X6.4876Y0.4427
X6.4976Y3.2177
X6.4976Y3.0256
X6.5476Y2.8077
X6.5476Y2.7093
T6
X5.7476Y6.1715
X5.7476Y6.0927
X5.846Y6.1715
X5.846Y6.0927
T7
X0.2326Y6.0377
X0.2376Y3.4427
X0.2376Y3.3427
X0.331Y6.0377
X0.3376Y3.4427
X0.3376Y3.3427
X0.4376Y3.4427
X0.4376Y3.3427
X0.5376Y3.4427
X0.5376Y3.3427
X0.6376Y3.4427
X0.6376Y3.3427
X0.7376Y3.4427
X0.7376Y3.3427
X0.7854Y6.0433
X0.8327Y6.1221
X0.8327Y5.9646
X0.8376Y3.4427
X0.8376Y3.3427
X0.8799Y6.0433
X0.9311Y6.1221
X0.9311Y5.9646
X0.9376Y3.4427
X0.9376Y3.3427
X0.9783Y6.2008
X0.9783Y6.0433
X1.0256Y6.1221
X1.0256Y5.9646
X1.0376Y3.4427
X1.0376Y3.3427
X1.0728Y6.0433
X1.1201Y6.1221
X1.1201Y5.9646
X1.1376Y3.4427
X1.1376Y3.3427
X1.2376Y3.4427
X1.2376Y3.3427
X1.3376Y3.4427
X1.3376Y3.3427
X1.4376Y3.4427
X1.4376Y3.3427
X1.5376Y3.4427
X1.5376Y3.3427
X1.6376Y3.4427
X1.6376Y3.3427
X1.7376Y3.4427
X1.7376Y3.3427
X1.7764Y6.2777
X1.8126Y5.9427
X1.8309Y6.3827
X1.8376Y3.4427
X1.8376Y3.3427
X1.8854Y6.2777
X1.9126Y5.9427
X1.94Y6.3827
X1.9945Y6.2777
X2.0126Y5.9427
X2.049Y6.3827
X2.1035Y6.2777
X2.1126Y5.9427
X2.1581Y6.3827
X2.2126Y6.2777
X2.2126Y5.9427
X2.3126Y5.9427
X2.4126Y5.9427
X2.8676Y6.2677
X2.8676Y6.1677
X2.9676Y6.2677
X2.9676Y6.1677
X3.0126Y5.9427
X3.0126Y5.8427
X3.0676Y6.2677
X3.0676Y6.1677
X3.1126Y5.9427
X3.1126Y5.8427
X3.1676Y6.2677
X3.1676Y6.1677
X3.2126Y5.9427
X3.2126Y5.8427
X3.2676Y6.2677
X3.2676Y6.1677
X3.3126Y5.9427
X3.3126Y5.8427
X3.3676Y6.2677
X3.3676Y6.1677
X3.4126Y5.9427
X3.4126Y5.8427
X3.4676Y6.2677
X3.4676Y6.1677
X3.5126Y5.9427
X3.5126Y5.8427
X3.5676Y6.2677
X3.5676Y6.1677
X3.6126Y5.9427
X3.6126Y5.8427
X3.6676Y6.2677
X3.6676Y6.1677
X3.7676Y6.2677
X3.7676Y6.1677
X4.7454Y6.0433
X4.7927Y6.1221
X4.7927Y5.9646
X4.8399Y6.0433
X4.8911Y6.1221
X4.8911Y5.9646
X4.9383Y6.2008
X4.9383Y6.0433
X4.9856Y6.1221
X4.9856Y5.9646
X5.0328Y6.0433
X5.0801Y6.1221
X5.0801Y5.9646
X5.3426Y3.6677
X5.3426Y3.5677
X5.3426Y3.4677
X5.3426Y3.3677
X5.3426Y3.2677
X5.3426Y3.1677
X5.3426Y3.0677
X5.3426Y2.9677
X5.3426Y2.8677
X5.3426Y2.7677
X5.3426Y2.6677
X5.3426Y2.5677
X5.4426Y3.6677
X5.4426Y3.5677
X5.4426Y3.4677
X5.4426Y3.3677
X5.4426Y3.2677
X5.4426Y3.1677
X5.4426Y3.0677
X5.4426Y2.9677
X5.4426Y2.8677
X5.4426Y2.7677
X5.4426Y2.6677
X5.4426Y2.5677
X5.9876Y5.0577
X5.9876Y4.9577
X5.9876Y4.5577
X6.2876Y5.0577
X6.2876Y4.9577
X6.2876Y4.5577
X6.4376Y5.0927
X6.4376Y4.9927
X6.4376Y4.8927
X6.4376Y4.7927
X6.4872Y5.8177
X6.4876Y6.0177
T8
X6.4126Y5.6177
X6.6126Y5.6177
T9
X3.3126Y5.3127
X3.5126Y5.3127
T10
X0.7657Y6.5827
X1.1594Y6.5827
X4.7257Y6.5827
X5.1194Y6.5827
T11
X0.1326Y0.6227
X0.2276Y5.1227
X5.4626Y4.0727
X5.8876Y0.2327
T12
X5.5606Y6.2841
X6.033Y6.2841
T13
X0.2426Y0.1977
X0.2429Y6.2929
X0.3376Y2.9827
X1.5026Y6.3327
X1.5376Y6.0177
X2.4866Y6.3327
X3.8876Y5.9177
X6.4426Y0.1927
X6.4429Y5.3929
X6.4876Y3.5677
T4
G00X5.6604Y4.8636
M15
G01X5.6604Y4.8518
M16
G05
G00X5.8376Y5.0605
M15
G01X5.8376Y5.0487
M16
G05
G00X5.8376Y4.6668
M15
G01X5.8376Y4.655
M16
G05
T7
G00X6.3026Y6.3502
M15
G01X6.3026Y6.2715
M16
G05
G00X6.527Y6.4289
M15
G01X6.4482Y6.4289
M16
G05
G00X6.527Y6.1927
M15
G01X6.4482Y6.1927
M16
G05
T13
G00X2.2969Y2.9827
M15
G01X2.3283Y2.9827
M16
G05
T0
M30
