G04 (created by PCBNEW (2013-07-07 BZR 4022)-stable) date 19/03/2022 16:48:29*
%MOIN*%
G04 Gerber Fmt 3.4, Leading zero omitted, Abs format*
%FSLAX34Y34*%
G01*
G70*
G90*
G04 APERTURE LIST*
%ADD10C,0.00590551*%
%ADD11C,0.00393701*%
%ADD12O,0.189X0.177165*%
%ADD13O,0.204724X0.177165*%
%ADD14O,0.137795X0.189*%
%ADD15O,0.0866142X0.11811*%
%ADD16O,0.0787402X0.1*%
%ADD17R,0.0629921X0.0905512*%
%ADD18O,0.0629921X0.0905512*%
%ADD19C,0.0669291*%
%ADD20C,0.0708661*%
%ADD21R,0.0629921X0.0629921*%
%ADD22O,0.0629921X0.0748031*%
%ADD23O,0.0748031X0.0629921*%
%ADD24C,0.0649606*%
%ADD25C,0.0629921*%
%ADD26R,0.062X0.09*%
%ADD27O,0.062X0.09*%
%ADD28R,0.0708661X0.0708661*%
%ADD29R,0.035X0.055*%
%ADD30R,0.055X0.035*%
%ADD31C,0.0905512*%
%ADD32R,0.0905512X0.0905512*%
%ADD33R,0.0748031X0.0748031*%
%ADD34C,0.0748031*%
%ADD35C,0.102362*%
%ADD36R,0.11811X0.11811*%
%ADD37C,0.11811*%
%ADD38C,0.16*%
%ADD39O,0.0748031X0.0905512*%
%ADD40C,0.0590551*%
%ADD41C,0.0787402*%
%ADD42C,0.019685*%
%ADD43C,0.0137795*%
%ADD44C,0.0590551*%
%ADD45C,0.0314961*%
%ADD46C,0.0472441*%
%ADD47C,0.01*%
G04 APERTURE END LIST*
G54D10*
G54D11*
X39250Y55000D02*
X0Y55000D01*
X0Y0D02*
X39250Y0D01*
X0Y0D02*
X0Y55000D01*
X39250Y55000D02*
X39250Y0D01*
G54D12*
X6750Y53250D03*
G54D13*
X6750Y50850D03*
G54D14*
X5050Y52350D03*
G54D15*
X2100Y41100D03*
G54D16*
X1100Y41600D03*
X1100Y43400D03*
G54D15*
X2100Y43900D03*
G54D17*
X24500Y6157D03*
G54D18*
X24500Y4842D03*
X23500Y6157D03*
X23500Y4842D03*
X22500Y6157D03*
X22500Y4842D03*
X21500Y6157D03*
X21500Y4842D03*
X20500Y6157D03*
X20500Y4842D03*
X19500Y6157D03*
X19500Y4842D03*
X18500Y6157D03*
X18500Y4842D03*
X17500Y6157D03*
X17500Y4842D03*
X16500Y6157D03*
X16500Y4842D03*
X15500Y6157D03*
X15500Y4842D03*
X14500Y6157D03*
X14500Y4842D03*
X13500Y6157D03*
X13500Y4842D03*
X12500Y6157D03*
X12500Y4842D03*
X11500Y6157D03*
X11500Y4842D03*
X10500Y6157D03*
X10500Y4842D03*
X9500Y6157D03*
X9500Y4842D03*
X8500Y6157D03*
X8500Y4842D03*
G54D17*
X20750Y49592D03*
G54D18*
X20750Y50907D03*
X21750Y49592D03*
X21750Y50907D03*
X22750Y49592D03*
X22750Y50907D03*
X23750Y49592D03*
X23750Y50907D03*
X24750Y49592D03*
X24750Y50907D03*
X25750Y49592D03*
X25750Y50907D03*
X26750Y49592D03*
X26750Y50907D03*
X27750Y49592D03*
X27750Y50907D03*
X28750Y49592D03*
X28750Y50907D03*
X29750Y49592D03*
X29750Y50907D03*
X30750Y49592D03*
X30750Y50907D03*
X31750Y49592D03*
X31750Y50907D03*
X32750Y49592D03*
X32750Y50907D03*
X33750Y49592D03*
X33750Y50907D03*
X34750Y49592D03*
X34750Y50907D03*
X35750Y49592D03*
X35750Y50907D03*
X36750Y49592D03*
X36750Y50907D03*
G54D19*
X16750Y44750D03*
X16750Y47750D03*
G54D20*
X9000Y38000D03*
X6000Y38000D03*
X3000Y32500D03*
X6000Y32500D03*
X8000Y40500D03*
X5000Y40500D03*
G54D19*
X13500Y53250D03*
X13500Y50250D03*
X14750Y53250D03*
X14750Y50250D03*
X16000Y53250D03*
X16000Y50250D03*
X17250Y53250D03*
X17250Y50250D03*
G54D21*
X28500Y30250D03*
G54D22*
X28500Y29171D03*
X27500Y30328D03*
X27500Y29171D03*
X26500Y30328D03*
X26500Y29171D03*
X25500Y30328D03*
X25500Y29171D03*
X24500Y30328D03*
X24500Y29171D03*
X23500Y30328D03*
G54D23*
X22421Y29250D03*
G54D19*
X23500Y29250D03*
G54D23*
X22421Y28250D03*
X23578Y28250D03*
X22421Y27250D03*
X23578Y27250D03*
X22421Y26250D03*
X23578Y26250D03*
X22421Y25250D03*
X23578Y25250D03*
X22421Y24250D03*
X23578Y24250D03*
X22421Y23250D03*
X23578Y23250D03*
X22421Y22250D03*
X23578Y22250D03*
X22421Y21250D03*
X23578Y21250D03*
X22421Y20250D03*
X23578Y20250D03*
X22421Y19250D03*
G54D22*
X23500Y18171D03*
G54D24*
X23500Y19250D03*
G54D22*
X24500Y18171D03*
X24500Y19328D03*
X25500Y18171D03*
X25500Y19328D03*
X26500Y18171D03*
X26500Y19328D03*
X27500Y18171D03*
X27500Y19328D03*
X28500Y18171D03*
X28500Y19328D03*
X29500Y18171D03*
X29500Y19328D03*
X30500Y18171D03*
X30500Y19328D03*
X31500Y18171D03*
X31500Y19328D03*
X32500Y18171D03*
X32500Y19328D03*
X33500Y18171D03*
G54D23*
X34578Y19250D03*
G54D24*
X33500Y19250D03*
G54D23*
X34578Y20250D03*
X33421Y20250D03*
X34578Y21250D03*
X33421Y21250D03*
X34578Y22250D03*
X33421Y22250D03*
X34578Y23250D03*
X33421Y23250D03*
X34578Y24250D03*
X33421Y24250D03*
X34578Y25250D03*
X33421Y25250D03*
X34578Y26250D03*
X33421Y26250D03*
X34578Y27250D03*
X33421Y27250D03*
X34578Y28250D03*
X33421Y28250D03*
X34578Y29250D03*
G54D22*
X33500Y30328D03*
G54D25*
X33500Y29250D03*
G54D22*
X32500Y30328D03*
X32500Y29171D03*
X31500Y30328D03*
X31500Y29171D03*
X30500Y30328D03*
X30500Y29171D03*
X29500Y30328D03*
X29500Y29171D03*
G54D26*
X11750Y39250D03*
G54D27*
X12750Y39250D03*
X13750Y39250D03*
X14750Y39250D03*
X14750Y42250D03*
X13750Y42250D03*
X12750Y42250D03*
X11750Y42250D03*
G54D26*
X17750Y36250D03*
G54D27*
X18750Y36250D03*
X19750Y36250D03*
X20750Y36250D03*
X21750Y36250D03*
X22750Y36250D03*
X23750Y36250D03*
X24750Y36250D03*
X25750Y36250D03*
X26750Y36250D03*
X27750Y36250D03*
X28750Y36250D03*
X29750Y36250D03*
X30750Y36250D03*
X31750Y36250D03*
X32750Y36250D03*
X33750Y36250D03*
X34750Y36250D03*
X35750Y36250D03*
X36750Y36250D03*
X36750Y42250D03*
X35750Y42250D03*
X34750Y42250D03*
X33750Y42250D03*
X32750Y42250D03*
X31750Y42250D03*
X30750Y42250D03*
X29750Y42250D03*
X28750Y42250D03*
X27750Y42250D03*
X26750Y42250D03*
X25750Y42250D03*
X24750Y42250D03*
X23750Y42250D03*
X22750Y42250D03*
X21750Y42250D03*
X20750Y42250D03*
X19750Y42250D03*
X18750Y42250D03*
X17750Y42250D03*
G54D26*
X2000Y16750D03*
G54D27*
X3000Y16750D03*
X4000Y16750D03*
X5000Y16750D03*
X6000Y16750D03*
X7000Y16750D03*
X8000Y16750D03*
X9000Y16750D03*
X10000Y16750D03*
X11000Y16750D03*
X12000Y16750D03*
X13000Y16750D03*
X14000Y16750D03*
X15000Y16750D03*
X15000Y22750D03*
X14000Y22750D03*
X13000Y22750D03*
X12000Y22750D03*
X11000Y22750D03*
X10000Y22750D03*
X9000Y22750D03*
X8000Y22750D03*
X7000Y22750D03*
X6000Y22750D03*
X5000Y22750D03*
X4000Y22750D03*
X3000Y22750D03*
X2000Y22750D03*
G54D26*
X26500Y9500D03*
G54D27*
X27500Y9500D03*
X28500Y9500D03*
X29500Y9500D03*
X30500Y9500D03*
X31500Y9500D03*
X32500Y9500D03*
X33500Y9500D03*
X34500Y9500D03*
X35500Y9500D03*
X35500Y12500D03*
X34500Y12500D03*
X33500Y12500D03*
X32500Y12500D03*
X31500Y12500D03*
X30500Y12500D03*
X29500Y12500D03*
X28500Y12500D03*
X27500Y12500D03*
X26500Y12500D03*
G54D26*
X2000Y9500D03*
G54D27*
X3000Y9500D03*
X4000Y9500D03*
X5000Y9500D03*
X6000Y9500D03*
X7000Y9500D03*
X8000Y9500D03*
X9000Y9500D03*
X10000Y9500D03*
X11000Y9500D03*
X11000Y12500D03*
X10000Y12500D03*
X9000Y12500D03*
X8000Y12500D03*
X7000Y12500D03*
X6000Y12500D03*
X5000Y12500D03*
X4000Y12500D03*
X3000Y12500D03*
X2000Y12500D03*
G54D26*
X14250Y9500D03*
G54D27*
X15250Y9500D03*
X16250Y9500D03*
X17250Y9500D03*
X18250Y9500D03*
X19250Y9500D03*
X20250Y9500D03*
X21250Y9500D03*
X22250Y9500D03*
X23250Y9500D03*
X23250Y12500D03*
X22250Y12500D03*
X21250Y12500D03*
X20250Y12500D03*
X19250Y12500D03*
X18250Y12500D03*
X17250Y12500D03*
X16250Y12500D03*
X15250Y12500D03*
X14250Y12500D03*
G54D26*
X2000Y25750D03*
G54D27*
X3000Y25750D03*
X4000Y25750D03*
X5000Y25750D03*
X6000Y25750D03*
X7000Y25750D03*
X8000Y25750D03*
X9000Y25750D03*
X10000Y25750D03*
X11000Y25750D03*
X11000Y28750D03*
X10000Y28750D03*
X9000Y28750D03*
X8000Y28750D03*
X7000Y28750D03*
X6000Y28750D03*
X5000Y28750D03*
X4000Y28750D03*
X3000Y28750D03*
X2000Y28750D03*
G54D26*
X19750Y44750D03*
G54D27*
X20750Y44750D03*
X21750Y44750D03*
X22750Y44750D03*
X23750Y44750D03*
X24750Y44750D03*
X25750Y44750D03*
X26750Y44750D03*
X26750Y47750D03*
X25750Y47750D03*
X24750Y47750D03*
X23750Y47750D03*
X22750Y47750D03*
X21750Y47750D03*
X20750Y47750D03*
X19750Y47750D03*
G54D26*
X2000Y33750D03*
G54D27*
X3000Y33750D03*
X4000Y33750D03*
X5000Y33750D03*
X6000Y33750D03*
X7000Y33750D03*
X8000Y33750D03*
X9000Y33750D03*
X9000Y36750D03*
X8000Y36750D03*
X7000Y36750D03*
X6000Y36750D03*
X5000Y36750D03*
X4000Y36750D03*
X3000Y36750D03*
X2000Y36750D03*
G54D26*
X30750Y44750D03*
G54D27*
X31750Y44750D03*
X32750Y44750D03*
X33750Y44750D03*
X34750Y44750D03*
X35750Y44750D03*
X36750Y44750D03*
X36750Y47750D03*
X35750Y47750D03*
X34750Y47750D03*
X33750Y47750D03*
X32750Y47750D03*
X31750Y47750D03*
X30750Y47750D03*
G54D28*
X5500Y42000D03*
G54D20*
X5500Y43000D03*
X8000Y32500D03*
X7000Y32500D03*
X3000Y38000D03*
X4000Y38000D03*
G54D28*
X18250Y26250D03*
G54D20*
X15250Y26250D03*
X15250Y32250D03*
X18250Y32250D03*
G54D19*
X18000Y44750D03*
X18000Y47750D03*
G54D29*
X36125Y41000D03*
X36875Y41000D03*
X26625Y21000D03*
X27375Y21000D03*
G54D30*
X25500Y25375D03*
X25500Y26125D03*
X31750Y23875D03*
X31750Y23125D03*
G54D29*
X29625Y27500D03*
X30375Y27500D03*
G54D31*
X3000Y48750D03*
G54D32*
X7000Y48750D03*
G54D33*
X3000Y47000D03*
G54D34*
X3000Y45500D03*
G54D30*
X14250Y11375D03*
X14250Y10625D03*
X2000Y11375D03*
X2000Y10625D03*
X11750Y41125D03*
X11750Y40375D03*
G54D29*
X2125Y29750D03*
X2875Y29750D03*
G54D35*
X15250Y35000D03*
X11250Y36000D03*
X15250Y37000D03*
G54D36*
X11250Y47750D03*
G54D37*
X13250Y47750D03*
G54D38*
X1500Y53500D03*
X37750Y53500D03*
X37750Y1500D03*
X1500Y1500D03*
G54D19*
X35750Y4750D03*
X35750Y7750D03*
X37000Y4750D03*
X37000Y7750D03*
X34500Y7750D03*
X34500Y4750D03*
G54D30*
X19750Y48625D03*
X19750Y49375D03*
G54D29*
X29875Y47750D03*
X29125Y47750D03*
G54D33*
X5500Y6000D03*
G54D34*
X5500Y5000D03*
G54D29*
X26575Y11200D03*
X27325Y11200D03*
G54D19*
X21000Y25750D03*
X21000Y28750D03*
X15500Y47750D03*
X15500Y44750D03*
X36850Y20350D03*
X36850Y17350D03*
G54D39*
X34550Y16000D03*
X33550Y16000D03*
G54D40*
X25750Y39250D03*
X16250Y38500D03*
X20000Y32750D03*
X19000Y39250D03*
X22250Y39250D03*
X6250Y19750D03*
X12500Y8750D03*
X7500Y19750D03*
X16500Y18500D03*
X18250Y15250D03*
X37000Y25250D03*
X35250Y43250D03*
X31750Y43250D03*
X35500Y33000D03*
X12500Y26500D03*
X13250Y25250D03*
X33000Y5500D03*
X30750Y5500D03*
X31250Y43750D03*
X36250Y43750D03*
X37000Y32000D03*
X27250Y38750D03*
X27250Y40250D03*
X29500Y37750D03*
X31000Y40000D03*
X23500Y8000D03*
X18000Y40750D03*
X22000Y7750D03*
X37000Y22250D03*
X37000Y24250D03*
X28250Y5750D03*
X37000Y23250D03*
X25000Y10750D03*
X20250Y17750D03*
X22750Y11500D03*
X18250Y23750D03*
X5500Y26750D03*
X13250Y29750D03*
X34500Y33000D03*
X30000Y35250D03*
X31750Y35250D03*
X18000Y40000D03*
G54D41*
X36850Y28300D03*
X25750Y31750D03*
G54D40*
X11500Y15250D03*
G54D41*
X12750Y31500D03*
X20750Y31250D03*
G54D40*
X8250Y35000D03*
X18250Y38500D03*
X3750Y3250D03*
G54D41*
X2250Y5500D03*
X38000Y49000D03*
G54D40*
X25500Y27500D03*
X32250Y20500D03*
X31750Y24750D03*
X28250Y27500D03*
X31750Y27750D03*
X25500Y23000D03*
X26000Y20750D03*
G54D41*
X19250Y23750D03*
G54D42*
X33250Y40500D02*
X28750Y40500D01*
X28750Y40500D02*
X28000Y39750D01*
X33750Y42250D02*
X33750Y41000D01*
X33250Y40500D02*
X33750Y41000D01*
X26250Y39750D02*
X28000Y39750D01*
X25750Y39250D02*
X26250Y39750D01*
X20000Y32750D02*
X18750Y34000D01*
X18750Y34000D02*
X17000Y34000D01*
X16250Y38500D02*
X17000Y37750D01*
X17000Y37750D02*
X17000Y34000D01*
X17000Y34000D02*
X15250Y32250D01*
X23250Y38250D02*
X23250Y37250D01*
X26500Y30250D02*
X26500Y32250D01*
X14750Y41750D02*
X17250Y39250D01*
X17250Y39250D02*
X19000Y39250D01*
X22250Y39250D02*
X23250Y38250D01*
G54D43*
X23250Y37250D02*
X23250Y35500D01*
G54D42*
X14750Y42250D02*
X14750Y41750D01*
X26500Y32250D02*
X23250Y35500D01*
X27000Y32500D02*
X27000Y31000D01*
X24250Y38750D02*
X24250Y37250D01*
X26500Y29250D02*
X27000Y29750D01*
G54D43*
X27000Y29750D02*
X27000Y31000D01*
X24250Y35250D02*
X24250Y37250D01*
G54D42*
X27000Y32500D02*
X24250Y35250D01*
X24250Y38750D02*
X22750Y40250D01*
X22750Y40250D02*
X21500Y40250D01*
X21500Y40250D02*
X20750Y41000D01*
X20750Y41000D02*
X20750Y42250D01*
X18500Y6000D02*
X18500Y6750D01*
X18500Y6750D02*
X21250Y9500D01*
X20750Y14750D02*
X20750Y13250D01*
X22250Y12500D02*
X22250Y12000D01*
G54D43*
X20750Y11750D02*
X20750Y13250D01*
G54D42*
X21000Y11500D02*
X20750Y11750D01*
X21750Y11500D02*
X21000Y11500D01*
X22250Y12000D02*
X21750Y11500D01*
X20750Y14750D02*
X18000Y17500D01*
X18000Y17500D02*
X11250Y17500D01*
X11250Y17500D02*
X11000Y17250D01*
X11000Y17250D02*
X11000Y16750D01*
X17500Y6000D02*
X17500Y6750D01*
X17500Y6750D02*
X20250Y9500D01*
X4650Y7100D02*
X9150Y7100D01*
X4650Y7100D02*
X4000Y7750D01*
X4000Y7750D02*
X4000Y9500D01*
X9150Y7100D02*
X9500Y6750D01*
X9500Y6750D02*
X9500Y6000D01*
X7750Y5500D02*
X8000Y5500D01*
X4000Y6675D02*
X3825Y6675D01*
X3825Y6675D02*
X3000Y7500D01*
X4000Y6675D02*
X6575Y6675D01*
X6575Y6675D02*
X7750Y5500D01*
X3000Y8250D02*
X3000Y7500D01*
X3000Y9500D02*
X3000Y8250D01*
G54D43*
X8000Y5500D02*
X9000Y5500D01*
X9000Y5500D02*
X9500Y5000D01*
G54D42*
X5750Y7500D02*
X9450Y7500D01*
X5750Y7500D02*
X5000Y8250D01*
X5000Y8250D02*
X5000Y9500D01*
G54D43*
X10500Y5000D02*
X10000Y5500D01*
G54D42*
X9450Y7500D02*
X10000Y6950D01*
G54D43*
X10000Y6950D02*
X10000Y5500D01*
G54D42*
X6000Y12500D02*
X6000Y12750D01*
X3000Y15750D02*
X3000Y16750D01*
X6000Y12750D02*
X3000Y15750D01*
G54D43*
X11000Y5500D02*
X11000Y7050D01*
X11000Y5500D02*
X11500Y5000D01*
G54D42*
X7000Y8750D02*
X7350Y8400D01*
X7000Y9500D02*
X7000Y8750D01*
X7350Y8400D02*
X9650Y8400D01*
X11000Y7050D02*
X9650Y8400D01*
X18250Y21000D02*
X19250Y21000D01*
X19250Y21000D02*
X21500Y23250D01*
X17750Y21000D02*
X18250Y21000D01*
X17750Y21000D02*
X7500Y21000D01*
X7500Y21000D02*
X6250Y19750D01*
X21500Y23250D02*
X22500Y23250D01*
G54D43*
X13000Y5500D02*
X12500Y5000D01*
G54D42*
X13000Y7000D02*
X12500Y7500D01*
G54D43*
X13000Y5500D02*
X13000Y7000D01*
G54D42*
X12500Y8750D02*
X12500Y7500D01*
X17750Y20500D02*
X19500Y20500D01*
X19500Y20500D02*
X21750Y22750D01*
X7500Y19750D02*
X8250Y20500D01*
X8250Y20500D02*
X17750Y20500D01*
X23000Y22750D02*
X23500Y23250D01*
G54D43*
X21750Y22750D02*
X23000Y22750D01*
G54D42*
X16250Y9000D02*
X14000Y6750D01*
G54D43*
X14000Y6750D02*
X14000Y5500D01*
X13500Y5000D02*
X14000Y5500D01*
G54D42*
X16250Y9000D02*
X16250Y9500D01*
X23250Y11000D02*
X24150Y11900D01*
X24150Y16400D02*
X24500Y16750D01*
X24150Y11900D02*
X24150Y16400D01*
X24500Y18250D02*
X24500Y16750D01*
X17250Y11750D02*
X18000Y11000D01*
X18000Y11000D02*
X23250Y11000D01*
X17250Y12500D02*
X17250Y11750D01*
X10750Y18000D02*
X18500Y18000D01*
X21250Y15250D02*
X21250Y12500D01*
X18500Y18000D02*
X21250Y15250D01*
X10750Y18000D02*
X10000Y17250D01*
X10000Y17250D02*
X10000Y16750D01*
X16500Y6000D02*
X16500Y6750D01*
X16500Y6750D02*
X19250Y9500D01*
X20250Y12500D02*
X20250Y13250D01*
X18250Y15250D02*
X20250Y13250D01*
X16500Y18500D02*
X22750Y18500D01*
X23500Y19250D02*
X22750Y18500D01*
X9000Y17750D02*
X9000Y16750D01*
X9750Y18500D02*
X9000Y17750D01*
X16500Y18500D02*
X9750Y18500D01*
X19500Y6000D02*
X19500Y6750D01*
X19500Y6750D02*
X22250Y9500D01*
X23250Y12500D02*
X23250Y18000D01*
X23250Y18000D02*
X23500Y18250D01*
G54D43*
X15500Y5000D02*
X16000Y5500D01*
X18250Y9250D02*
X18250Y9500D01*
G54D42*
X16000Y7000D02*
X18250Y9250D01*
G54D43*
X16000Y5500D02*
X16000Y7000D01*
G54D42*
X11500Y14750D02*
X12000Y14250D01*
X12000Y14250D02*
X18500Y14250D01*
X7000Y15750D02*
X8000Y14750D01*
X8000Y14750D02*
X11500Y14750D01*
X7375Y18125D02*
X8625Y18125D01*
X7375Y18125D02*
X7000Y17750D01*
X7000Y17750D02*
X7000Y16750D01*
X20250Y19000D02*
X9500Y19000D01*
X21500Y20250D02*
X20250Y19000D01*
X22500Y20250D02*
X21500Y20250D01*
X8625Y18125D02*
X9500Y19000D01*
X7000Y16750D02*
X7000Y15750D01*
X18500Y14250D02*
X19250Y13500D01*
X19250Y13500D02*
X19250Y12500D01*
X14500Y6000D02*
X14500Y6500D01*
X14500Y6500D02*
X17250Y9250D01*
X17250Y9250D02*
X17250Y9500D01*
X21250Y20750D02*
X21500Y20750D01*
X11250Y14250D02*
X11750Y13750D01*
X11750Y13750D02*
X17500Y13750D01*
X6000Y15750D02*
X7500Y14250D01*
X7500Y14250D02*
X11250Y14250D01*
X17500Y13750D02*
X18250Y13000D01*
X6750Y18500D02*
X8250Y18500D01*
X6000Y17750D02*
X6750Y18500D01*
X9250Y19500D02*
X20000Y19500D01*
X20000Y19500D02*
X21250Y20750D01*
G54D43*
X21500Y20750D02*
X23000Y20750D01*
G54D42*
X23000Y20750D02*
X23500Y21250D01*
X6000Y16750D02*
X6000Y17750D01*
X8250Y18500D02*
X9250Y19500D01*
X6000Y16750D02*
X6000Y15750D01*
X18250Y13000D02*
X18250Y12500D01*
X13500Y6000D02*
X13500Y7000D01*
X15250Y8750D02*
X15250Y9500D01*
X13500Y7000D02*
X15250Y8750D01*
X22750Y10500D02*
X23450Y10500D01*
X24550Y16200D02*
X25000Y16650D01*
X24550Y11600D02*
X24550Y16200D01*
X23450Y10500D02*
X24550Y11600D01*
X25000Y16650D02*
X25000Y17500D01*
X15750Y13250D02*
X11500Y13250D01*
X11500Y13250D02*
X11000Y13750D01*
X5000Y16000D02*
X7250Y13750D01*
X7250Y13750D02*
X11000Y13750D01*
X5000Y16750D02*
X5000Y16000D01*
X16250Y12750D02*
X16250Y12500D01*
X15750Y13250D02*
X16250Y12750D01*
X16250Y12500D02*
X16250Y11500D01*
X25000Y18750D02*
X24500Y19250D01*
G54D43*
X25000Y17500D02*
X25000Y18750D01*
G54D42*
X17250Y10500D02*
X22750Y10500D01*
X16250Y11500D02*
X17250Y10500D01*
X10000Y9500D02*
X10000Y9250D01*
X12500Y6250D02*
X12000Y6750D01*
X12000Y6750D02*
X12000Y7250D01*
X12500Y6000D02*
X12500Y6250D01*
X10000Y9250D02*
X12000Y7250D01*
X4000Y16250D02*
X7000Y13250D01*
X11000Y12750D02*
X11000Y12500D01*
X10500Y13250D02*
X11000Y12750D01*
X7000Y13250D02*
X10500Y13250D01*
X5500Y19000D02*
X8000Y19000D01*
X5500Y19000D02*
X4000Y17500D01*
X4000Y17500D02*
X4000Y16750D01*
X19750Y20000D02*
X9000Y20000D01*
X21000Y21250D02*
X19750Y20000D01*
X22500Y21250D02*
X21000Y21250D01*
X8000Y19000D02*
X9000Y20000D01*
X4000Y16250D02*
X4000Y16750D01*
X8500Y8750D02*
X9800Y8750D01*
X8000Y9250D02*
X8500Y8750D01*
X11500Y7050D02*
X11500Y6000D01*
X8000Y9500D02*
X8000Y9250D01*
X9800Y8750D02*
X11500Y7050D01*
X3500Y14500D02*
X3500Y13250D01*
X2500Y15500D02*
X2500Y16000D01*
X2500Y18250D02*
X2500Y17500D01*
G54D43*
X3500Y13250D02*
X3500Y11750D01*
G54D42*
X3500Y14500D02*
X2500Y15500D01*
G54D43*
X2500Y16000D02*
X2500Y17500D01*
G54D42*
X9000Y12500D02*
X9000Y11750D01*
X3500Y11750D02*
X3750Y11500D01*
X3750Y11500D02*
X8750Y11500D01*
X8750Y11500D02*
X9000Y11750D01*
X2500Y18250D02*
X5000Y20750D01*
X5000Y20750D02*
X5000Y22750D01*
X10500Y7000D02*
X9500Y8000D01*
X6250Y8000D02*
X9500Y8000D01*
X6000Y8250D02*
X6000Y9500D01*
X6250Y8000D02*
X6000Y8250D01*
X10500Y7000D02*
X10500Y6000D01*
X3500Y18000D02*
X3500Y17500D01*
X6000Y20500D02*
X3500Y18000D01*
X6000Y20500D02*
X6000Y22750D01*
X7000Y12500D02*
X3500Y16000D01*
G54D43*
X3500Y17500D02*
X3500Y16000D01*
X35250Y24750D02*
X34000Y24750D01*
G54D42*
X35750Y25250D02*
X35250Y24750D01*
X37000Y25250D02*
X35750Y25250D01*
X34000Y24750D02*
X33500Y25250D01*
X31750Y43250D02*
X35250Y43250D01*
X34250Y30000D02*
X33500Y29250D01*
X34250Y30000D02*
X34250Y31750D01*
X34250Y31750D02*
X35500Y33000D01*
X17750Y22000D02*
X18750Y22000D01*
X18750Y22000D02*
X21500Y24750D01*
X10000Y22750D02*
X10000Y22500D01*
X10000Y22500D02*
X10500Y22000D01*
X10500Y22000D02*
X17750Y22000D01*
G54D43*
X21500Y24750D02*
X23000Y24750D01*
G54D42*
X23000Y24750D02*
X23500Y25250D01*
X19750Y36250D02*
X19750Y34750D01*
X23500Y31000D02*
X23500Y30250D01*
X19750Y34750D02*
X23500Y31000D01*
X20750Y3750D02*
X27250Y3750D01*
X29000Y7000D02*
X27500Y8500D01*
X29000Y5500D02*
X29000Y7000D01*
X27250Y3750D02*
X29000Y5500D01*
X20500Y5000D02*
X20500Y4000D01*
X27500Y8500D02*
X27500Y9500D01*
X20500Y4000D02*
X20750Y3750D01*
X13000Y26500D02*
X13250Y26250D01*
X13250Y26250D02*
X13250Y25250D01*
X12500Y26500D02*
X13000Y26500D01*
X28500Y12500D02*
X28500Y15500D01*
X29500Y16500D02*
X29500Y18250D01*
X28500Y15500D02*
X29500Y16500D01*
X19800Y2950D02*
X27950Y2950D01*
X30000Y7500D02*
X28500Y9000D01*
X30000Y5000D02*
X30000Y7500D01*
X27950Y2950D02*
X30000Y5000D01*
X19500Y3250D02*
X19500Y5000D01*
X19800Y2950D02*
X19500Y3250D01*
X28500Y9500D02*
X28500Y9000D01*
X28000Y16250D02*
X28000Y13250D01*
X28250Y11500D02*
X29250Y11500D01*
G54D43*
X29000Y18750D02*
X29000Y17250D01*
G54D42*
X29000Y17250D02*
X28000Y16250D01*
G54D43*
X28000Y13250D02*
X28000Y11750D01*
G54D42*
X28000Y11750D02*
X28250Y11500D01*
X29250Y11500D02*
X29500Y11750D01*
X29500Y11750D02*
X29500Y12500D01*
X29500Y19250D02*
X29000Y18750D01*
X20400Y3350D02*
X27600Y3350D01*
G54D43*
X20000Y5500D02*
X20000Y3750D01*
G54D42*
X20000Y3750D02*
X20400Y3350D01*
G54D43*
X20500Y6000D02*
X20000Y5500D01*
G54D42*
X29250Y10500D02*
X29500Y10250D01*
X29500Y10250D02*
X29500Y9500D01*
X28250Y10500D02*
X28000Y10250D01*
G54D43*
X28000Y10250D02*
X28000Y8750D01*
G54D42*
X29250Y10500D02*
X28250Y10500D01*
X27600Y3350D02*
X29500Y5250D01*
X29500Y5250D02*
X29500Y7250D01*
X29500Y7250D02*
X28000Y8750D01*
X30500Y12500D02*
X30500Y16750D01*
X30500Y16750D02*
X31000Y17250D01*
G54D43*
X31000Y17250D02*
X31000Y18750D01*
G54D42*
X31000Y18750D02*
X30500Y19250D01*
X28575Y2075D02*
X18425Y2075D01*
X31500Y7750D02*
X30500Y8750D01*
X31500Y5000D02*
X31500Y7750D01*
X28575Y2075D02*
X31500Y5000D01*
X17500Y5000D02*
X17500Y3000D01*
X17500Y3000D02*
X18425Y2075D01*
X30500Y8750D02*
X30500Y9500D01*
X31500Y17250D02*
X31500Y17100D01*
X31150Y14150D02*
X31500Y13800D01*
X31150Y16750D02*
X31150Y14150D01*
X31500Y17100D02*
X31150Y16750D01*
X31500Y18250D02*
X31500Y17250D01*
X31500Y13800D02*
X31500Y12500D01*
X17650Y1600D02*
X28850Y1600D01*
X28850Y1600D02*
X32000Y4750D01*
X17650Y1600D02*
X16500Y2750D01*
X32000Y8250D02*
X31500Y8750D01*
X32000Y4750D02*
X32000Y8250D01*
X31500Y9500D02*
X31500Y8750D01*
X16500Y2750D02*
X16500Y5000D01*
X38775Y20250D02*
X38775Y12775D01*
X38775Y12775D02*
X36750Y10750D01*
X32000Y17000D02*
X31600Y16600D01*
X31600Y14400D02*
X32500Y13500D01*
X31600Y16600D02*
X31600Y14400D01*
X38775Y33725D02*
X38775Y20250D01*
X33750Y10750D02*
X36750Y10750D01*
X32500Y12000D02*
X33750Y10750D01*
X32500Y12500D02*
X32500Y12000D01*
X33250Y35500D02*
X33250Y35250D01*
X27750Y36250D02*
X27750Y38000D01*
X27750Y38000D02*
X28750Y39000D01*
G54D43*
X33250Y37000D02*
X33250Y35500D01*
G54D42*
X32500Y39000D02*
X33250Y38250D01*
X28750Y39000D02*
X32500Y39000D01*
X33500Y35000D02*
X33250Y35250D01*
X37500Y35000D02*
X38775Y33725D01*
X33500Y35000D02*
X37500Y35000D01*
X33250Y38250D02*
X33250Y37000D01*
X32000Y17250D02*
X32000Y17000D01*
X31500Y19250D02*
X32000Y18750D01*
G54D43*
X32000Y18750D02*
X32000Y17250D01*
G54D42*
X32500Y13500D02*
X32500Y12500D01*
X29350Y1100D02*
X17150Y1100D01*
X15000Y3250D02*
X15000Y4000D01*
X32500Y9500D02*
X32500Y4250D01*
G54D43*
X15000Y5500D02*
X15500Y6000D01*
X15000Y4000D02*
X15000Y5500D01*
G54D42*
X17150Y1100D02*
X15000Y3250D01*
X32500Y4250D02*
X29350Y1100D01*
X38350Y20300D02*
X38350Y13100D01*
X38350Y13100D02*
X36500Y11250D01*
X32500Y16900D02*
X32500Y16800D01*
X32000Y14700D02*
X33500Y13200D01*
X32000Y16300D02*
X32000Y14700D01*
X32500Y16800D02*
X32000Y16300D01*
X38350Y20300D02*
X38350Y33400D01*
X33500Y12500D02*
X33500Y11950D01*
X33500Y11950D02*
X34200Y11250D01*
X32250Y38000D02*
X32250Y37000D01*
X37250Y34500D02*
X33000Y34500D01*
X33000Y34500D02*
X32250Y35250D01*
X28750Y38000D02*
X29250Y38500D01*
X29250Y38500D02*
X31750Y38500D01*
X31750Y38500D02*
X32250Y38000D01*
G54D43*
X32250Y37000D02*
X32250Y35250D01*
G54D42*
X28750Y36250D02*
X28750Y38000D01*
X37250Y34500D02*
X38350Y33400D01*
X34200Y11250D02*
X36500Y11250D01*
X32500Y18250D02*
X32500Y16900D01*
X33500Y13200D02*
X33500Y12500D01*
X18975Y2525D02*
X28275Y2525D01*
X33000Y5500D02*
X33000Y8000D01*
X33000Y8000D02*
X33500Y8500D01*
X30750Y5000D02*
X30750Y5500D01*
X28275Y2525D02*
X30750Y5000D01*
X33500Y9500D02*
X33500Y8500D01*
X18500Y5000D02*
X18500Y3000D01*
X18500Y3000D02*
X18975Y2525D01*
X37925Y21100D02*
X37925Y13425D01*
X37925Y13425D02*
X36250Y11750D01*
X33000Y16750D02*
X32500Y16250D01*
X32500Y15150D02*
X34500Y13150D01*
X32500Y16250D02*
X32500Y15150D01*
X37925Y33075D02*
X37925Y21100D01*
X37000Y34000D02*
X37925Y33075D01*
X34500Y12500D02*
X34500Y12000D01*
X34750Y11750D02*
X36250Y11750D01*
X34500Y12000D02*
X34750Y11750D01*
X33000Y17250D02*
X33000Y16750D01*
X32250Y34000D02*
X37000Y34000D01*
X29750Y37000D02*
X30000Y37250D01*
X30000Y37250D02*
X31000Y37250D01*
X31000Y37250D02*
X31250Y37000D01*
G54D43*
X31250Y37000D02*
X31250Y35000D01*
G54D42*
X31250Y35000D02*
X32250Y34000D01*
X29750Y36250D02*
X29750Y37000D01*
X32500Y19250D02*
X33000Y18750D01*
X34500Y13150D02*
X34500Y12500D01*
G54D43*
X33000Y18750D02*
X33000Y17250D01*
G54D42*
X30075Y575D02*
X16925Y575D01*
X30225Y725D02*
X30075Y575D01*
X16775Y725D02*
X16925Y575D01*
X14500Y5000D02*
X14500Y3000D01*
X14500Y3000D02*
X16775Y725D01*
X34500Y8750D02*
X33750Y8000D01*
X33750Y8000D02*
X33750Y4250D01*
X33750Y4250D02*
X30225Y725D01*
X34500Y8750D02*
X34500Y9500D01*
X36950Y19250D02*
X37050Y19250D01*
X37500Y13800D02*
X36200Y12500D01*
X36200Y12500D02*
X35500Y12500D01*
X37500Y18800D02*
X37500Y13800D01*
X37050Y19250D02*
X37500Y18800D01*
X37500Y19800D02*
X36950Y19250D01*
X35750Y19250D02*
X36950Y19250D01*
X34500Y19250D02*
X35750Y19250D01*
X37500Y21200D02*
X37500Y19800D01*
X37500Y32750D02*
X37500Y21200D01*
X36750Y33500D02*
X37500Y32750D01*
X30750Y34750D02*
X30750Y36250D01*
X32000Y33500D02*
X30750Y34750D01*
X32000Y33500D02*
X36750Y33500D01*
G54D43*
X28750Y50750D02*
X29250Y50250D01*
X32750Y48000D02*
X32750Y47750D01*
X32250Y48500D02*
X32750Y48000D01*
X29750Y48500D02*
X32250Y48500D01*
X29250Y49000D02*
X29750Y48500D01*
X29250Y50250D02*
X29250Y49000D01*
G54D42*
X25000Y31750D02*
X25000Y31000D01*
X22250Y35500D02*
X22250Y34500D01*
X22250Y38250D02*
X22250Y37250D01*
X19750Y42250D02*
X19750Y40750D01*
X19750Y40750D02*
X22250Y38250D01*
G54D43*
X22250Y37250D02*
X22250Y35500D01*
G54D42*
X22250Y34500D02*
X25000Y31750D01*
G54D43*
X25000Y31000D02*
X25000Y29750D01*
G54D42*
X25000Y29750D02*
X25500Y29250D01*
X25550Y13000D02*
X25550Y11400D01*
X25850Y10150D02*
X26500Y9500D01*
X25850Y11100D02*
X25850Y10150D01*
X25550Y11400D02*
X25850Y11100D01*
X26500Y14000D02*
X26500Y13950D01*
X26500Y13950D02*
X25550Y13000D01*
X26500Y14000D02*
X26500Y18250D01*
X27500Y18250D02*
X27500Y12500D01*
X31250Y43750D02*
X36250Y43750D01*
X37000Y30750D02*
X37000Y32000D01*
X35500Y29250D02*
X34500Y29250D01*
X35500Y29250D02*
X37000Y30750D01*
X20750Y47750D02*
X20750Y44750D01*
X27250Y34500D02*
X29250Y32500D01*
X27250Y35500D02*
X27250Y34500D01*
X27250Y37000D02*
X27250Y38750D01*
X29250Y41000D02*
X29750Y41500D01*
X29750Y41500D02*
X29750Y42250D01*
X31500Y30250D02*
X31500Y31750D01*
X30750Y32500D02*
X29250Y32500D01*
X31500Y31750D02*
X30750Y32500D01*
G54D43*
X27250Y35500D02*
X27250Y37000D01*
G54D42*
X27250Y40250D02*
X28000Y41000D01*
X28000Y41000D02*
X29250Y41000D01*
X30750Y44750D02*
X30250Y44750D01*
X29750Y44250D02*
X29750Y42250D01*
X30250Y44750D02*
X29750Y44250D01*
X29250Y37500D02*
X29250Y37000D01*
X32000Y32000D02*
X32000Y31000D01*
X29250Y35500D02*
X29250Y33750D01*
X32000Y32000D02*
X31000Y33000D01*
X30000Y33000D02*
X31000Y33000D01*
X29250Y33750D02*
X30000Y33000D01*
X31500Y29250D02*
X32000Y29750D01*
G54D43*
X32000Y29750D02*
X32000Y31000D01*
G54D42*
X29250Y37500D02*
X29500Y37750D01*
X31000Y40000D02*
X34000Y40000D01*
X34000Y40000D02*
X34750Y40750D01*
X34750Y40750D02*
X34750Y42250D01*
G54D43*
X29250Y37000D02*
X29250Y35500D01*
G54D42*
X24975Y11475D02*
X24975Y15925D01*
X24975Y15925D02*
X25500Y16450D01*
X25500Y18250D02*
X25500Y16450D01*
X24975Y11475D02*
X24000Y10500D01*
X24000Y10500D02*
X24000Y8500D01*
X24000Y8500D02*
X23500Y8000D01*
X23500Y8000D02*
X23000Y7500D01*
G54D43*
X23000Y7500D02*
X23000Y5500D01*
X23000Y5500D02*
X22500Y5000D01*
G54D42*
X16500Y42750D02*
X16500Y41750D01*
X17500Y40750D02*
X18000Y40750D01*
X16500Y41750D02*
X17500Y40750D01*
X15750Y48750D02*
X15250Y48750D01*
X15250Y48750D02*
X14750Y48250D01*
X14750Y44500D02*
X16500Y42750D01*
X14750Y48250D02*
X14750Y44500D01*
X17250Y49500D02*
X17000Y49250D01*
X16250Y49250D02*
X15750Y48750D01*
X17000Y49250D02*
X16250Y49250D01*
X17250Y50250D02*
X17250Y49500D01*
X17250Y50250D02*
X18000Y50250D01*
X23750Y51500D02*
X23750Y50750D01*
X23500Y51750D02*
X23750Y51500D01*
X19500Y51750D02*
X23500Y51750D01*
X18000Y50250D02*
X19500Y51750D01*
X21500Y26250D02*
X21250Y26500D01*
X21250Y26500D02*
X19500Y26500D01*
X9000Y28750D02*
X9000Y28500D01*
X18500Y27500D02*
X19500Y26500D01*
X9000Y28500D02*
X10000Y27500D01*
X10000Y27500D02*
X18500Y27500D01*
X22500Y26250D02*
X21500Y26250D01*
G54D43*
X22000Y5500D02*
X21500Y5000D01*
X22000Y7750D02*
X22000Y5500D01*
G54D42*
X34500Y22250D02*
X37000Y22250D01*
X18750Y42750D02*
X18250Y43250D01*
X15500Y44750D02*
X15500Y44500D01*
X15500Y44500D02*
X16750Y43250D01*
X16750Y43250D02*
X18250Y43250D01*
X18750Y42750D02*
X18750Y42250D01*
X21250Y38000D02*
X21250Y37250D01*
X21250Y34750D02*
X21250Y35500D01*
G54D43*
X21250Y35500D02*
X21250Y37250D01*
G54D42*
X24500Y31500D02*
X21250Y34750D01*
X24500Y30250D02*
X24500Y31500D01*
X21250Y38000D02*
X18750Y40500D01*
X18750Y40500D02*
X18750Y42250D01*
X36000Y23750D02*
X35250Y23750D01*
X36500Y24250D02*
X37000Y24250D01*
X36000Y23750D02*
X36500Y24250D01*
X33500Y23250D02*
X34000Y23750D01*
G54D43*
X34000Y23750D02*
X35250Y23750D01*
G54D42*
X21750Y24250D02*
X19000Y21500D01*
X19000Y21500D02*
X18000Y21500D01*
X17750Y21500D02*
X18000Y21500D01*
X17750Y21500D02*
X8500Y21500D01*
X8500Y21500D02*
X8000Y22000D01*
X8000Y22000D02*
X8000Y22750D01*
X22500Y24250D02*
X21750Y24250D01*
X21500Y27250D02*
X21250Y27500D01*
X21250Y27500D02*
X20250Y27500D01*
X4500Y31750D02*
X4500Y33000D01*
G54D43*
X4500Y35250D02*
X4500Y33000D01*
G54D42*
X20250Y27500D02*
X17500Y30250D01*
X21500Y27250D02*
X22500Y27250D01*
X6000Y30250D02*
X17500Y30250D01*
X4500Y31750D02*
X6000Y30250D01*
X4500Y35250D02*
X5000Y35750D01*
G54D43*
X5000Y35750D02*
X5000Y36750D01*
G54D42*
X9000Y36750D02*
X9000Y36000D01*
X9000Y36000D02*
X8750Y35750D01*
X8750Y35750D02*
X5000Y35750D01*
X4000Y30750D02*
X4000Y30250D01*
X4000Y30250D02*
X4500Y29750D01*
X3000Y31500D02*
X3750Y31500D01*
X4000Y31250D02*
X4000Y30750D01*
X3750Y31500D02*
X4000Y31250D01*
X21500Y25250D02*
X21250Y25000D01*
X20250Y25250D02*
X20000Y25250D01*
X20500Y25000D02*
X20250Y25250D01*
X21250Y25000D02*
X20500Y25000D01*
X10500Y27000D02*
X9750Y27000D01*
X17750Y25250D02*
X20000Y25250D01*
X17250Y25750D02*
X17750Y25250D01*
X16750Y27000D02*
X17250Y26500D01*
X17250Y26500D02*
X17250Y25750D01*
X10500Y27000D02*
X16750Y27000D01*
X9750Y27000D02*
X8850Y27900D01*
X8850Y27900D02*
X8000Y27900D01*
X4500Y29750D02*
X4500Y29500D01*
X4850Y27900D02*
X8000Y27900D01*
G54D43*
X4500Y29500D02*
X4500Y28250D01*
G54D42*
X4500Y28250D02*
X4850Y27900D01*
X2000Y32500D02*
X3000Y31500D01*
X2000Y33750D02*
X2000Y32500D01*
X8000Y28750D02*
X8000Y27900D01*
X21500Y25250D02*
X22500Y25250D01*
X20500Y28000D02*
X21500Y28000D01*
X21500Y28000D02*
X21750Y27750D01*
X17750Y30750D02*
X6250Y30750D01*
X20500Y28000D02*
X17750Y30750D01*
G54D43*
X21750Y27750D02*
X23000Y27750D01*
G54D42*
X23000Y27750D02*
X23500Y28250D01*
X6000Y33500D02*
X5250Y32750D01*
X5250Y32750D02*
X5250Y31750D01*
X5250Y31750D02*
X6250Y30750D01*
X6000Y33750D02*
X6000Y33500D01*
X13500Y50250D02*
X13500Y51250D01*
X34750Y52250D02*
X34750Y50750D01*
X33750Y53250D02*
X34750Y52250D01*
X18750Y53250D02*
X33750Y53250D01*
X17500Y52000D02*
X18750Y53250D01*
X14250Y52000D02*
X17500Y52000D01*
X13500Y51250D02*
X14250Y52000D01*
X24000Y31250D02*
X24000Y31000D01*
X20750Y36250D02*
X20750Y34500D01*
X20750Y34500D02*
X24000Y31250D01*
G54D43*
X24000Y31000D02*
X24000Y29750D01*
G54D42*
X24000Y29750D02*
X24500Y29250D01*
X28250Y5750D02*
X27500Y5000D01*
X27500Y5000D02*
X24500Y5000D01*
X36500Y22750D02*
X35250Y22750D01*
X36500Y22750D02*
X37000Y23250D01*
X33500Y22250D02*
X34000Y22750D01*
G54D43*
X34000Y22750D02*
X35250Y22750D01*
G54D42*
X25000Y10750D02*
X25000Y8000D01*
X20250Y17750D02*
X22750Y15250D01*
G54D43*
X22750Y13250D02*
X22750Y11500D01*
X24000Y5500D02*
X23500Y5000D01*
G54D42*
X22750Y15250D02*
X22750Y13250D01*
X25000Y8000D02*
X24000Y7000D01*
G54D43*
X24000Y7000D02*
X24000Y5500D01*
G54D42*
X25250Y35250D02*
X28500Y32000D01*
X35750Y36250D02*
X35750Y38500D01*
X35750Y38500D02*
X34750Y39500D01*
X28500Y39500D02*
X34750Y39500D01*
X26750Y39250D02*
X25250Y37750D01*
X26750Y39250D02*
X28250Y39250D01*
X28250Y39250D02*
X28500Y39500D01*
G54D43*
X25250Y37250D02*
X25250Y35500D01*
G54D42*
X25250Y37750D02*
X25250Y37250D01*
X25250Y35500D02*
X25250Y35250D01*
X28500Y32000D02*
X28500Y31500D01*
X5500Y25000D02*
X6250Y24250D01*
X6250Y24250D02*
X16750Y24250D01*
X17250Y23750D02*
X16750Y24250D01*
X18250Y23750D02*
X17250Y23750D01*
G54D43*
X5500Y26750D02*
X5500Y25000D01*
G54D42*
X5250Y29750D02*
X13250Y29750D01*
X5000Y29500D02*
X5000Y28750D01*
X5250Y29750D02*
X5000Y29500D01*
X28500Y30250D02*
X28500Y31500D01*
X19750Y27000D02*
X21250Y27000D01*
X21250Y27000D02*
X21500Y26750D01*
X10000Y28750D02*
X10000Y28500D01*
X10500Y28000D02*
X18750Y28000D01*
X10000Y28500D02*
X10500Y28000D01*
X19750Y27000D02*
X18750Y28000D01*
X23000Y26750D02*
X23500Y27250D01*
G54D43*
X21500Y26750D02*
X23000Y26750D01*
G54D42*
X26750Y47750D02*
X26750Y46750D01*
X25750Y45750D02*
X25750Y44750D01*
X26750Y46750D02*
X25750Y45750D01*
X24750Y44750D02*
X24750Y45750D01*
X25750Y46750D02*
X25750Y47750D01*
X24750Y45750D02*
X25750Y46750D01*
G54D43*
X25750Y50750D02*
X26250Y50250D01*
X25750Y48500D02*
X25750Y47750D01*
X26250Y49000D02*
X25750Y48500D01*
X26250Y50250D02*
X26250Y49000D01*
X24250Y50700D02*
X24250Y51500D01*
G54D42*
X24500Y51750D02*
X24750Y51750D01*
G54D43*
X24250Y51500D02*
X24500Y51750D01*
G54D42*
X23750Y44750D02*
X23750Y45750D01*
X24750Y46750D02*
X24750Y47750D01*
X23750Y45750D02*
X24750Y46750D01*
X24750Y47750D02*
X24750Y48250D01*
X24750Y48250D02*
X24250Y48750D01*
G54D43*
X24250Y48750D02*
X24250Y50700D01*
G54D42*
X24750Y51750D02*
X26250Y51750D01*
X26250Y51750D02*
X26750Y51250D01*
X26750Y51250D02*
X26750Y50750D01*
X23750Y46750D02*
X22750Y45750D01*
X22750Y45750D02*
X22750Y44750D01*
X23750Y46750D02*
X23750Y47750D01*
G54D43*
X22750Y50750D02*
X23250Y50250D01*
X23750Y48250D02*
X23750Y47750D01*
X23250Y48750D02*
X23750Y48250D01*
X23250Y50250D02*
X23250Y48750D01*
X35750Y50750D02*
X36250Y50250D01*
X36750Y48500D02*
X36750Y47750D01*
X36250Y49000D02*
X36750Y48500D01*
X36250Y50250D02*
X36250Y49000D01*
G54D42*
X33500Y32750D02*
X33500Y30250D01*
X33750Y33000D02*
X33500Y32750D01*
X34500Y33000D02*
X33750Y33000D01*
G54D43*
X30250Y50250D02*
X30250Y49100D01*
X30550Y48800D02*
X34450Y48800D01*
X30250Y49100D02*
X30550Y48800D01*
X29750Y50750D02*
X30250Y50250D01*
X34750Y48500D02*
X34750Y47750D01*
X34450Y48800D02*
X34750Y48500D01*
G54D42*
X32500Y30250D02*
X32500Y32250D01*
X32500Y32250D02*
X30000Y34750D01*
X30000Y34750D02*
X30000Y35250D01*
G54D43*
X31750Y35250D02*
X31750Y36250D01*
G54D42*
X15000Y49250D02*
X14250Y48500D01*
X14250Y44250D02*
X16000Y42500D01*
X14250Y48500D02*
X14250Y44250D01*
X15000Y49250D02*
X15500Y49250D01*
X15500Y49250D02*
X16000Y49750D01*
X16000Y49750D02*
X16000Y50250D01*
X16000Y41250D02*
X17250Y40000D01*
X16000Y42500D02*
X16000Y41250D01*
X17250Y40000D02*
X18000Y40000D01*
X16000Y50250D02*
X16000Y50750D01*
X32750Y51500D02*
X32750Y50750D01*
X32000Y52250D02*
X32750Y51500D01*
X19250Y52250D02*
X32000Y52250D01*
X18000Y51000D02*
X19250Y52250D01*
X16250Y51000D02*
X18000Y51000D01*
X16000Y50750D02*
X16250Y51000D01*
X18750Y36250D02*
X18750Y34750D01*
X22500Y29250D02*
X22500Y31000D01*
X18750Y34750D02*
X22500Y31000D01*
X33750Y50750D02*
X33750Y52000D01*
X14750Y50750D02*
X14750Y50250D01*
X15500Y51500D02*
X14750Y50750D01*
X17750Y51500D02*
X15500Y51500D01*
X19000Y52750D02*
X17750Y51500D01*
X33000Y52750D02*
X19000Y52750D01*
X33750Y52000D02*
X33000Y52750D01*
X2875Y29750D02*
X2875Y30625D01*
X2750Y30750D02*
X2000Y30750D01*
X2875Y30625D02*
X2750Y30750D01*
X20750Y49750D02*
X20125Y49750D01*
X20125Y49750D02*
X19750Y49375D01*
G54D44*
X6750Y53250D02*
X6500Y53250D01*
X6500Y53250D02*
X5500Y54250D01*
G54D42*
X27325Y11200D02*
X27650Y11200D01*
X35500Y10250D02*
X35500Y9500D01*
X35550Y10300D02*
X35500Y10250D01*
X32350Y10300D02*
X35550Y10300D01*
X31650Y11000D02*
X32350Y10300D01*
X27850Y11000D02*
X31650Y11000D01*
X27650Y11200D02*
X27850Y11000D01*
X28750Y49750D02*
X28750Y48125D01*
X28750Y48125D02*
X29125Y47750D01*
G54D45*
X7500Y27400D02*
X8600Y27400D01*
X10000Y26000D02*
X10000Y25750D01*
X8600Y27400D02*
X10000Y26000D01*
X28750Y49750D02*
X27750Y49750D01*
X24750Y49750D02*
X25750Y49750D01*
X33750Y49750D02*
X32750Y49750D01*
X32750Y49750D02*
X31750Y49750D01*
X14750Y33500D02*
X15500Y33500D01*
X16250Y37250D02*
X14750Y38750D01*
X16250Y34250D02*
X16250Y37250D01*
X15500Y33500D02*
X16250Y34250D01*
X11750Y40375D02*
X11125Y40375D01*
X11125Y40375D02*
X10750Y40000D01*
X10750Y40000D02*
X10750Y38500D01*
X10750Y38500D02*
X11000Y38250D01*
X11000Y38250D02*
X14250Y38250D01*
X14250Y38250D02*
X14750Y38750D01*
X14250Y33000D02*
X14750Y33500D01*
X14750Y38750D02*
X14750Y39250D01*
X12750Y31500D02*
X10500Y33750D01*
X10500Y33750D02*
X9000Y33750D01*
G54D42*
X2000Y25750D02*
X2000Y27050D01*
X2000Y27050D02*
X3000Y28050D01*
X3000Y28050D02*
X3000Y28750D01*
G54D45*
X3650Y27400D02*
X3000Y28050D01*
X7500Y27400D02*
X3650Y27400D01*
X2875Y29750D02*
X2875Y28875D01*
X2875Y28875D02*
X3000Y28750D01*
X34500Y28250D02*
X36800Y28250D01*
X36800Y28250D02*
X36850Y28300D01*
X22750Y49750D02*
X21750Y49750D01*
X2000Y10625D02*
X2625Y10625D01*
X2625Y10625D02*
X2750Y10500D01*
X2750Y10500D02*
X10750Y10500D01*
X10750Y10500D02*
X11000Y10250D01*
X11000Y10250D02*
X11000Y9500D01*
X2000Y9500D02*
X2000Y7000D01*
X4000Y5000D02*
X8500Y5000D01*
X2000Y7000D02*
X4000Y5000D01*
X25500Y30750D02*
X25500Y30250D01*
X25750Y31000D02*
X25500Y30750D01*
X25750Y31750D02*
X25750Y31000D01*
X18250Y32250D02*
X18250Y31250D01*
G54D42*
X33000Y27750D02*
X32000Y26750D01*
X30375Y27375D02*
X30375Y27500D01*
X31000Y26750D02*
X30375Y27375D01*
X32000Y26750D02*
X31000Y26750D01*
G54D45*
X15000Y16000D02*
X15000Y16750D01*
X14250Y15250D02*
X15000Y16000D01*
X11500Y15250D02*
X14250Y15250D01*
X36750Y49750D02*
X36750Y49250D01*
X36750Y49250D02*
X37500Y48500D01*
X36875Y41000D02*
X37500Y41000D01*
G54D43*
X22500Y19250D02*
X23000Y19750D01*
X27375Y21375D02*
X27375Y21000D01*
X26750Y22000D02*
X27375Y21375D01*
X26250Y22000D02*
X26750Y22000D01*
X24000Y19750D02*
X26250Y22000D01*
X23000Y19750D02*
X24000Y19750D01*
X30500Y18250D02*
X30000Y18750D01*
X27625Y20750D02*
X27375Y21000D01*
X29500Y20750D02*
X27625Y20750D01*
X30000Y20250D02*
X29500Y20750D01*
X30000Y18750D02*
X30000Y20250D01*
X34500Y28250D02*
X34000Y27750D01*
X34000Y27750D02*
X33000Y27750D01*
X25500Y30250D02*
X26000Y29750D01*
X26000Y29750D02*
X26000Y27000D01*
X26000Y27000D02*
X25500Y26500D01*
X25500Y26500D02*
X25500Y26125D01*
G54D45*
X27500Y19250D02*
X27500Y20875D01*
X27500Y20875D02*
X27375Y21000D01*
X33500Y21250D02*
X32250Y21250D01*
X31750Y21750D02*
X31750Y23125D01*
X32250Y21250D02*
X31750Y21750D01*
X23500Y26250D02*
X25375Y26250D01*
X25375Y26250D02*
X25500Y26125D01*
X30500Y29250D02*
X30500Y27625D01*
X30500Y27625D02*
X30375Y27500D01*
X2000Y9500D02*
X2000Y10500D01*
X2000Y10500D02*
X2000Y10625D01*
G54D42*
X15250Y12500D02*
X15250Y11000D01*
X14875Y10625D02*
X14250Y10625D01*
X15250Y11000D02*
X14875Y10625D01*
G54D45*
X14250Y10625D02*
X14250Y9500D01*
X26750Y44750D02*
X27500Y44750D01*
X29500Y46750D02*
X37500Y46750D01*
X27500Y44750D02*
X29500Y46750D01*
X36750Y44750D02*
X37500Y44750D01*
X36750Y37750D02*
X36750Y36250D01*
X37500Y41000D02*
X37500Y38500D01*
X37500Y38500D02*
X36750Y37750D01*
X37500Y48500D02*
X37500Y46750D01*
X37500Y46750D02*
X37500Y44750D01*
X37500Y44750D02*
X37500Y41000D01*
X11000Y25750D02*
X10000Y25750D01*
G54D42*
X21750Y47750D02*
X21750Y49750D01*
G54D45*
X14250Y33000D02*
X14250Y31500D01*
X18000Y31250D02*
X14500Y31250D01*
X14500Y31250D02*
X14250Y31500D01*
X14250Y31500D02*
X12750Y31500D01*
X18000Y31250D02*
X20750Y31250D01*
X18250Y31250D02*
X18000Y31250D01*
G54D42*
X7000Y33750D02*
X7000Y32500D01*
X8250Y35000D02*
X10250Y35000D01*
X10250Y35000D02*
X11250Y36000D01*
X15250Y35000D02*
X12250Y35000D01*
X12250Y35000D02*
X11250Y36000D01*
X3000Y38000D02*
X3000Y36750D01*
X9000Y38000D02*
X9750Y38000D01*
X10750Y37000D02*
X15250Y37000D01*
X9750Y38000D02*
X10750Y37000D01*
X4000Y38000D02*
X4000Y36750D01*
X6000Y32500D02*
X6000Y32000D01*
X8000Y32000D02*
X8000Y32500D01*
X7750Y31750D02*
X8000Y32000D01*
X6250Y31750D02*
X7750Y31750D01*
X6000Y32000D02*
X6250Y31750D01*
X8000Y33750D02*
X8000Y32500D01*
X4000Y42000D02*
X1500Y42000D01*
X1500Y42000D02*
X1100Y41600D01*
X5000Y40500D02*
X5000Y42000D01*
X5500Y42000D02*
X5000Y42000D01*
X5000Y42000D02*
X4000Y42000D01*
X12750Y39750D02*
X13500Y40500D01*
X13500Y40500D02*
X15000Y40500D01*
X15000Y40500D02*
X17000Y38500D01*
X12750Y39250D02*
X12750Y39750D01*
X17000Y38500D02*
X18250Y38500D01*
X27750Y42250D02*
X27750Y43250D01*
X27750Y43250D02*
X30250Y45750D01*
X30250Y45750D02*
X32250Y45750D01*
X32250Y45750D02*
X32750Y45250D01*
X32750Y45250D02*
X32750Y44750D01*
X34750Y44750D02*
X34750Y45750D01*
X34750Y45750D02*
X34250Y46250D01*
X34250Y46250D02*
X30000Y46250D01*
X30000Y46250D02*
X26750Y43000D01*
X26750Y43000D02*
X26750Y42250D01*
X36850Y17350D02*
X35000Y17350D01*
X34550Y16900D02*
X34550Y16000D01*
X35000Y17350D02*
X34550Y16900D01*
X20250Y43750D02*
X19000Y43750D01*
X19000Y43750D02*
X18000Y44750D01*
X25750Y43250D02*
X25750Y42250D01*
X25250Y43750D02*
X25750Y43250D01*
X20250Y43750D02*
X25250Y43750D01*
X17750Y43750D02*
X18500Y43750D01*
X18500Y43750D02*
X19000Y43250D01*
X19500Y43250D02*
X19000Y43250D01*
X24750Y42250D02*
X24750Y42750D01*
X24250Y43250D02*
X19500Y43250D01*
X24750Y42750D02*
X24250Y43250D01*
X17750Y43750D02*
X16750Y44750D01*
G54D43*
X6000Y36750D02*
X6000Y37000D01*
X4000Y35250D02*
X4000Y33750D01*
X4500Y35750D02*
X4000Y35250D01*
X4500Y37250D02*
X4500Y35750D01*
X4750Y37500D02*
X4500Y37250D01*
X5500Y37500D02*
X4750Y37500D01*
X6000Y37000D02*
X5500Y37500D01*
G54D45*
X4000Y22750D02*
X3000Y22750D01*
G54D46*
X1250Y26000D02*
X1250Y23500D01*
X1250Y23500D02*
X2000Y22750D01*
G54D43*
X36850Y20350D02*
X36100Y20350D01*
X35500Y19750D02*
X33900Y19750D01*
X36100Y20350D02*
X35500Y19750D01*
G54D42*
X19750Y47750D02*
X18000Y47750D01*
X15500Y47750D02*
X16750Y47750D01*
X19750Y48625D02*
X19750Y47750D01*
G54D44*
X7000Y48750D02*
X7000Y50600D01*
X7000Y50600D02*
X6750Y50850D01*
X6750Y50850D02*
X11150Y50850D01*
G54D45*
X26500Y12500D02*
X26500Y11275D01*
G54D42*
X26500Y11275D02*
X26575Y11200D01*
X30750Y47750D02*
X29875Y47750D01*
G54D45*
X2000Y12500D02*
X1250Y12500D01*
G54D42*
X2250Y5500D02*
X3750Y4000D01*
X3750Y3250D02*
X3750Y4000D01*
X34500Y7750D02*
X34500Y6750D01*
X35750Y5500D02*
X35750Y4750D01*
X34500Y6750D02*
X35750Y5500D01*
X37000Y4750D02*
X35750Y4750D01*
G54D44*
X9750Y42250D02*
X11750Y42250D01*
X9750Y42250D02*
X8000Y40500D01*
X11750Y42250D02*
X11750Y44250D01*
X13250Y47750D02*
X13250Y45750D01*
X13250Y45750D02*
X11750Y44250D01*
X8000Y40500D02*
X7000Y39500D01*
X6000Y39500D02*
X7000Y39500D01*
G54D46*
X3000Y47000D02*
X6000Y47000D01*
X6000Y47000D02*
X7000Y48000D01*
X7000Y48000D02*
X7000Y48750D01*
G54D44*
X11150Y50850D02*
X11150Y51650D01*
X11150Y51650D02*
X12750Y53250D01*
X12750Y53250D02*
X13500Y53250D01*
X13250Y47750D02*
X13250Y48750D01*
X13250Y48750D02*
X11150Y50850D01*
G54D42*
X16500Y47750D02*
X17750Y47750D01*
G54D45*
X36000Y51750D02*
X33875Y53875D01*
X37500Y51750D02*
X36000Y51750D01*
X38000Y51250D02*
X37500Y51750D01*
X38000Y51250D02*
X38000Y49000D01*
X16000Y23750D02*
X3000Y23750D01*
X33875Y53875D02*
X17875Y53875D01*
X17875Y53875D02*
X17250Y53250D01*
X11750Y42250D02*
X11750Y41125D01*
G54D46*
X1250Y6500D02*
X2250Y5500D01*
X1250Y12500D02*
X1250Y6500D01*
X2000Y16750D02*
X2000Y15750D01*
X2000Y15750D02*
X1250Y15000D01*
X1250Y15000D02*
X1250Y12500D01*
G54D45*
X2000Y28750D02*
X2000Y29625D01*
X2000Y29625D02*
X2125Y29750D01*
G54D46*
X1250Y28750D02*
X1250Y36250D01*
X1250Y36250D02*
X1750Y36750D01*
X1750Y36750D02*
X2000Y36750D01*
X1250Y26000D02*
X1250Y28750D01*
G54D45*
X1250Y28750D02*
X2000Y28750D01*
G54D42*
X23500Y29250D02*
X25000Y27750D01*
X25000Y27750D02*
X25250Y27750D01*
X25250Y27750D02*
X25500Y27500D01*
G54D43*
X27500Y30250D02*
X28000Y29750D01*
X28000Y27750D02*
X28250Y27500D01*
X28000Y29750D02*
X28000Y27750D01*
G54D42*
X6000Y38000D02*
X6000Y39500D01*
X3000Y33750D02*
X3000Y34750D01*
X3000Y34750D02*
X2000Y35750D01*
X2000Y35750D02*
X2000Y36750D01*
X6000Y38000D02*
X6500Y38000D01*
X7000Y37500D02*
X7000Y36750D01*
X6500Y38000D02*
X7000Y37500D01*
X8000Y36750D02*
X7000Y36750D01*
X3000Y32500D02*
X3000Y33750D01*
G54D43*
X33500Y18250D02*
X34000Y18750D01*
X33000Y19750D02*
X32250Y20500D01*
X34000Y19750D02*
X33900Y19750D01*
X33900Y19750D02*
X33000Y19750D01*
X34000Y18750D02*
X34000Y19750D01*
G54D42*
X31750Y23875D02*
X31750Y24750D01*
X32500Y29250D02*
X32500Y28500D01*
X32500Y28500D02*
X31750Y27750D01*
X5000Y25750D02*
X5000Y26500D01*
X5000Y26500D02*
X4750Y26750D01*
X4750Y26750D02*
X3250Y26750D01*
X3250Y26750D02*
X3000Y26500D01*
X3000Y26500D02*
X3000Y25750D01*
G54D43*
X34500Y25250D02*
X34000Y25750D01*
X32750Y25750D02*
X31750Y24750D01*
X34000Y25750D02*
X32750Y25750D01*
G54D45*
X16000Y23750D02*
X16750Y23000D01*
X16750Y23000D02*
X18750Y23000D01*
X18750Y23000D02*
X19250Y23500D01*
X19250Y23500D02*
X19250Y23750D01*
X16000Y26250D02*
X15250Y26250D01*
X19250Y23750D02*
X19250Y24250D01*
X19250Y24250D02*
X18750Y24750D01*
X18750Y24750D02*
X17500Y24750D01*
X17500Y24750D02*
X16000Y26250D01*
G54D43*
X28250Y27500D02*
X29625Y27500D01*
X22500Y22250D02*
X23000Y21750D01*
X23000Y21750D02*
X24250Y21750D01*
X24250Y21750D02*
X25500Y23000D01*
X25500Y23000D02*
X25500Y25375D01*
X25500Y19250D02*
X26000Y18750D01*
X28000Y18750D02*
X28500Y18250D01*
X26000Y18750D02*
X28000Y18750D01*
G54D45*
X36125Y41000D02*
X36125Y41125D01*
X35750Y41500D02*
X35750Y42250D01*
X36125Y41125D02*
X35750Y41500D01*
X25500Y19250D02*
X25500Y20250D01*
X26500Y21000D02*
X26625Y21000D01*
X26250Y21000D02*
X26500Y21000D01*
X25500Y20250D02*
X26000Y20750D01*
X26000Y20750D02*
X26250Y21000D01*
X2000Y11375D02*
X2875Y11375D01*
X13250Y12500D02*
X14250Y12500D01*
X12250Y11500D02*
X13250Y12500D01*
X9500Y11500D02*
X12250Y11500D01*
X9000Y11000D02*
X9500Y11500D01*
X3250Y11000D02*
X9000Y11000D01*
X2875Y11375D02*
X3250Y11000D01*
X2000Y12500D02*
X2000Y11375D01*
X14250Y12500D02*
X14250Y11375D01*
G54D44*
X2500Y39500D02*
X6000Y39500D01*
X2000Y39000D02*
X2000Y36750D01*
X2500Y39500D02*
X2000Y39000D01*
G54D45*
X3000Y25750D02*
X3000Y23750D01*
X3000Y23750D02*
X3000Y22750D01*
X36750Y42250D02*
X35750Y42250D01*
X14750Y53250D02*
X13500Y53250D01*
X16000Y53250D02*
X14750Y53250D01*
X17250Y53250D02*
X16000Y53250D01*
G54D46*
X2000Y16750D02*
X2000Y22750D01*
G54D45*
X3000Y22750D02*
X2000Y22750D01*
X19750Y47750D02*
X19750Y44750D01*
G54D10*
G36*
X3170Y11655D02*
X3163Y11663D01*
X3030Y11751D01*
X2875Y11782D01*
X2874Y11782D01*
X2407Y11782D01*
X2407Y11967D01*
X2499Y12105D01*
X2501Y12099D01*
X2639Y11928D01*
X2831Y11823D01*
X2863Y11816D01*
X2950Y11865D01*
X2950Y12450D01*
X2942Y12450D01*
X2942Y12550D01*
X2950Y12550D01*
X2950Y13134D01*
X2863Y13183D01*
X2831Y13176D01*
X2639Y13071D01*
X2501Y12900D01*
X2499Y12894D01*
X2395Y13049D01*
X2214Y13171D01*
X2000Y13213D01*
X1785Y13171D01*
X1736Y13138D01*
X1736Y14798D01*
X2228Y15291D01*
X2253Y15253D01*
X3151Y14355D01*
X3151Y13250D01*
X3166Y13176D01*
X3136Y13183D01*
X3050Y13134D01*
X3050Y12550D01*
X3057Y12550D01*
X3057Y12450D01*
X3050Y12450D01*
X3050Y11865D01*
X3136Y11816D01*
X3166Y11823D01*
X3151Y11750D01*
X3170Y11655D01*
X3170Y11655D01*
G37*
G54D47*
X3170Y11655D02*
X3163Y11663D01*
X3030Y11751D01*
X2875Y11782D01*
X2874Y11782D01*
X2407Y11782D01*
X2407Y11967D01*
X2499Y12105D01*
X2501Y12099D01*
X2639Y11928D01*
X2831Y11823D01*
X2863Y11816D01*
X2950Y11865D01*
X2950Y12450D01*
X2942Y12450D01*
X2942Y12550D01*
X2950Y12550D01*
X2950Y13134D01*
X2863Y13183D01*
X2831Y13176D01*
X2639Y13071D01*
X2501Y12900D01*
X2499Y12894D01*
X2395Y13049D01*
X2214Y13171D01*
X2000Y13213D01*
X1785Y13171D01*
X1736Y13138D01*
X1736Y14798D01*
X2228Y15291D01*
X2253Y15253D01*
X3151Y14355D01*
X3151Y13250D01*
X3166Y13176D01*
X3136Y13183D01*
X3050Y13134D01*
X3050Y12550D01*
X3057Y12550D01*
X3057Y12450D01*
X3050Y12450D01*
X3050Y11865D01*
X3136Y11816D01*
X3166Y11823D01*
X3151Y11750D01*
X3170Y11655D01*
G54D10*
G36*
X4165Y29430D02*
X4000Y29463D01*
X3785Y29421D01*
X3604Y29299D01*
X3500Y29144D01*
X3498Y29150D01*
X3360Y29321D01*
X3276Y29367D01*
X3299Y29425D01*
X3300Y29524D01*
X3300Y29975D01*
X3299Y30074D01*
X3261Y30166D01*
X3191Y30237D01*
X3099Y30275D01*
X2987Y30275D01*
X2925Y30212D01*
X2925Y29800D01*
X3237Y29800D01*
X3300Y29862D01*
X3300Y29975D01*
X3300Y29524D01*
X3300Y29637D01*
X3237Y29700D01*
X2925Y29700D01*
X2925Y29692D01*
X2825Y29692D01*
X2825Y29700D01*
X2817Y29700D01*
X2817Y29800D01*
X2825Y29800D01*
X2825Y30212D01*
X2762Y30275D01*
X2650Y30275D01*
X2558Y30237D01*
X2499Y30178D01*
X2441Y30236D01*
X2349Y30274D01*
X2250Y30275D01*
X1900Y30275D01*
X1808Y30237D01*
X1738Y30166D01*
X1736Y30162D01*
X1736Y32279D01*
X1753Y32253D01*
X2753Y31253D01*
X2753Y31253D01*
X2866Y31178D01*
X3000Y31151D01*
X3605Y31151D01*
X3651Y31105D01*
X3651Y30750D01*
X3651Y30250D01*
X3651Y30250D01*
X3673Y30138D01*
X3678Y30116D01*
X3753Y30003D01*
X4151Y29605D01*
X4151Y29500D01*
X4165Y29430D01*
X4165Y29430D01*
G37*
G54D47*
X4165Y29430D02*
X4000Y29463D01*
X3785Y29421D01*
X3604Y29299D01*
X3500Y29144D01*
X3498Y29150D01*
X3360Y29321D01*
X3276Y29367D01*
X3299Y29425D01*
X3300Y29524D01*
X3300Y29975D01*
X3299Y30074D01*
X3261Y30166D01*
X3191Y30237D01*
X3099Y30275D01*
X2987Y30275D01*
X2925Y30212D01*
X2925Y29800D01*
X3237Y29800D01*
X3300Y29862D01*
X3300Y29975D01*
X3300Y29524D01*
X3300Y29637D01*
X3237Y29700D01*
X2925Y29700D01*
X2925Y29692D01*
X2825Y29692D01*
X2825Y29700D01*
X2817Y29700D01*
X2817Y29800D01*
X2825Y29800D01*
X2825Y30212D01*
X2762Y30275D01*
X2650Y30275D01*
X2558Y30237D01*
X2499Y30178D01*
X2441Y30236D01*
X2349Y30274D01*
X2250Y30275D01*
X1900Y30275D01*
X1808Y30237D01*
X1738Y30166D01*
X1736Y30162D01*
X1736Y32279D01*
X1753Y32253D01*
X2753Y31253D01*
X2753Y31253D01*
X2866Y31178D01*
X3000Y31151D01*
X3605Y31151D01*
X3651Y31105D01*
X3651Y30750D01*
X3651Y30250D01*
X3651Y30250D01*
X3673Y30138D01*
X3678Y30116D01*
X3753Y30003D01*
X4151Y29605D01*
X4151Y29500D01*
X4165Y29430D01*
G54D10*
G36*
X18756Y24167D02*
X18704Y24115D01*
X18690Y24080D01*
X18559Y24211D01*
X18358Y24295D01*
X18142Y24295D01*
X17941Y24212D01*
X17827Y24098D01*
X17394Y24098D01*
X16996Y24496D01*
X16883Y24571D01*
X16861Y24576D01*
X16750Y24598D01*
X16749Y24598D01*
X11560Y24598D01*
X11560Y25560D01*
X11560Y25700D01*
X11560Y25800D01*
X11560Y25940D01*
X11498Y26150D01*
X11360Y26321D01*
X11168Y26426D01*
X11136Y26433D01*
X11050Y26384D01*
X11050Y25800D01*
X11560Y25800D01*
X11560Y25700D01*
X11050Y25700D01*
X11050Y25115D01*
X11136Y25066D01*
X11168Y25073D01*
X11360Y25178D01*
X11498Y25349D01*
X11560Y25560D01*
X11560Y24598D01*
X10950Y24598D01*
X10950Y25115D01*
X10950Y25700D01*
X10950Y25800D01*
X10950Y26384D01*
X10863Y26433D01*
X10831Y26426D01*
X10639Y26321D01*
X10501Y26150D01*
X10500Y26144D01*
X10498Y26150D01*
X10360Y26321D01*
X10168Y26426D01*
X10136Y26433D01*
X10050Y26384D01*
X10050Y25800D01*
X10440Y25800D01*
X10560Y25800D01*
X10950Y25800D01*
X10950Y25700D01*
X10560Y25700D01*
X10440Y25700D01*
X10050Y25700D01*
X10050Y25115D01*
X10136Y25066D01*
X10168Y25073D01*
X10360Y25178D01*
X10498Y25349D01*
X10500Y25355D01*
X10501Y25349D01*
X10639Y25178D01*
X10831Y25073D01*
X10863Y25066D01*
X10950Y25115D01*
X10950Y24598D01*
X6394Y24598D01*
X5945Y25047D01*
X6000Y25036D01*
X6214Y25078D01*
X6395Y25200D01*
X6500Y25355D01*
X6604Y25200D01*
X6785Y25078D01*
X7000Y25036D01*
X7214Y25078D01*
X7395Y25200D01*
X7500Y25355D01*
X7604Y25200D01*
X7785Y25078D01*
X8000Y25036D01*
X8214Y25078D01*
X8395Y25200D01*
X8500Y25355D01*
X8604Y25200D01*
X8785Y25078D01*
X9000Y25036D01*
X9214Y25078D01*
X9395Y25200D01*
X9499Y25355D01*
X9501Y25349D01*
X9639Y25178D01*
X9831Y25073D01*
X9863Y25066D01*
X9950Y25115D01*
X9950Y25700D01*
X9942Y25700D01*
X9942Y25800D01*
X9950Y25800D01*
X9950Y26384D01*
X9863Y26433D01*
X9831Y26426D01*
X9639Y26321D01*
X9501Y26150D01*
X9499Y26144D01*
X9395Y26299D01*
X9214Y26421D01*
X9000Y26463D01*
X8785Y26421D01*
X8604Y26299D01*
X8500Y26144D01*
X8395Y26299D01*
X8214Y26421D01*
X8000Y26463D01*
X7785Y26421D01*
X7604Y26299D01*
X7500Y26144D01*
X7395Y26299D01*
X7214Y26421D01*
X7000Y26463D01*
X6785Y26421D01*
X6604Y26299D01*
X6500Y26144D01*
X6395Y26299D01*
X6214Y26421D01*
X6000Y26463D01*
X5968Y26457D01*
X6045Y26641D01*
X6045Y26857D01*
X5962Y27058D01*
X5809Y27211D01*
X5608Y27295D01*
X5392Y27295D01*
X5191Y27212D01*
X5038Y27059D01*
X5007Y26985D01*
X4996Y26996D01*
X4883Y27071D01*
X4861Y27076D01*
X4750Y27098D01*
X4749Y27098D01*
X3250Y27098D01*
X3116Y27071D01*
X3003Y26996D01*
X3003Y26996D01*
X2753Y26746D01*
X2678Y26633D01*
X2673Y26611D01*
X2651Y26500D01*
X2651Y26499D01*
X2651Y26331D01*
X2604Y26299D01*
X2559Y26233D01*
X2559Y26249D01*
X2521Y26341D01*
X2451Y26412D01*
X2359Y26450D01*
X2112Y26450D01*
X2050Y26387D01*
X2050Y25800D01*
X2057Y25800D01*
X2057Y25700D01*
X2050Y25700D01*
X2050Y25112D01*
X2112Y25050D01*
X2359Y25049D01*
X2451Y25087D01*
X2521Y25158D01*
X2559Y25250D01*
X2559Y25266D01*
X2592Y25217D01*
X2592Y23750D01*
X2592Y23282D01*
X2508Y23157D01*
X2491Y23157D01*
X2395Y23299D01*
X2214Y23421D01*
X2000Y23463D01*
X1978Y23459D01*
X1736Y23701D01*
X1736Y25049D01*
X1887Y25050D01*
X1950Y25112D01*
X1950Y25700D01*
X1942Y25700D01*
X1942Y25800D01*
X1950Y25800D01*
X1950Y26387D01*
X1887Y26450D01*
X1736Y26450D01*
X1736Y28111D01*
X1785Y28078D01*
X2000Y28036D01*
X2214Y28078D01*
X2395Y28200D01*
X2499Y28355D01*
X2501Y28349D01*
X2639Y28178D01*
X2831Y28073D01*
X2863Y28066D01*
X2950Y28115D01*
X2950Y28700D01*
X2942Y28700D01*
X2942Y28800D01*
X2950Y28800D01*
X2950Y28807D01*
X3050Y28807D01*
X3050Y28800D01*
X3057Y28800D01*
X3057Y28700D01*
X3050Y28700D01*
X3050Y28115D01*
X3136Y28066D01*
X3168Y28073D01*
X3360Y28178D01*
X3498Y28349D01*
X3500Y28355D01*
X3604Y28200D01*
X3785Y28078D01*
X4000Y28036D01*
X4204Y28076D01*
X4253Y28003D01*
X4603Y27653D01*
X4603Y27653D01*
X4716Y27578D01*
X4849Y27551D01*
X4849Y27551D01*
X4850Y27551D01*
X8000Y27551D01*
X8705Y27551D01*
X9503Y26753D01*
X9503Y26753D01*
X9616Y26678D01*
X9750Y26651D01*
X9750Y26651D01*
X9750Y26651D01*
X10500Y26651D01*
X11972Y26651D01*
X11954Y26608D01*
X11954Y26392D01*
X12037Y26191D01*
X12190Y26038D01*
X12391Y25954D01*
X12607Y25954D01*
X12808Y26037D01*
X12889Y26118D01*
X12901Y26105D01*
X12901Y25672D01*
X12788Y25559D01*
X12704Y25358D01*
X12704Y25142D01*
X12787Y24941D01*
X12940Y24788D01*
X13141Y24704D01*
X13357Y24704D01*
X13558Y24787D01*
X13711Y24940D01*
X13795Y25141D01*
X13795Y25357D01*
X13712Y25558D01*
X13598Y25672D01*
X13598Y26250D01*
X13571Y26383D01*
X13496Y26496D01*
X13496Y26496D01*
X13341Y26651D01*
X14796Y26651D01*
X14737Y26592D01*
X14645Y26370D01*
X14645Y26130D01*
X14737Y25908D01*
X14907Y25737D01*
X15129Y25645D01*
X15369Y25645D01*
X15591Y25737D01*
X15697Y25842D01*
X15831Y25842D01*
X17211Y24461D01*
X17211Y24461D01*
X17344Y24373D01*
X17344Y24373D01*
X17500Y24342D01*
X18581Y24342D01*
X18756Y24167D01*
X18756Y24167D01*
G37*
G54D47*
X18756Y24167D02*
X18704Y24115D01*
X18690Y24080D01*
X18559Y24211D01*
X18358Y24295D01*
X18142Y24295D01*
X17941Y24212D01*
X17827Y24098D01*
X17394Y24098D01*
X16996Y24496D01*
X16883Y24571D01*
X16861Y24576D01*
X16750Y24598D01*
X16749Y24598D01*
X11560Y24598D01*
X11560Y25560D01*
X11560Y25700D01*
X11560Y25800D01*
X11560Y25940D01*
X11498Y26150D01*
X11360Y26321D01*
X11168Y26426D01*
X11136Y26433D01*
X11050Y26384D01*
X11050Y25800D01*
X11560Y25800D01*
X11560Y25700D01*
X11050Y25700D01*
X11050Y25115D01*
X11136Y25066D01*
X11168Y25073D01*
X11360Y25178D01*
X11498Y25349D01*
X11560Y25560D01*
X11560Y24598D01*
X10950Y24598D01*
X10950Y25115D01*
X10950Y25700D01*
X10950Y25800D01*
X10950Y26384D01*
X10863Y26433D01*
X10831Y26426D01*
X10639Y26321D01*
X10501Y26150D01*
X10500Y26144D01*
X10498Y26150D01*
X10360Y26321D01*
X10168Y26426D01*
X10136Y26433D01*
X10050Y26384D01*
X10050Y25800D01*
X10440Y25800D01*
X10560Y25800D01*
X10950Y25800D01*
X10950Y25700D01*
X10560Y25700D01*
X10440Y25700D01*
X10050Y25700D01*
X10050Y25115D01*
X10136Y25066D01*
X10168Y25073D01*
X10360Y25178D01*
X10498Y25349D01*
X10500Y25355D01*
X10501Y25349D01*
X10639Y25178D01*
X10831Y25073D01*
X10863Y25066D01*
X10950Y25115D01*
X10950Y24598D01*
X6394Y24598D01*
X5945Y25047D01*
X6000Y25036D01*
X6214Y25078D01*
X6395Y25200D01*
X6500Y25355D01*
X6604Y25200D01*
X6785Y25078D01*
X7000Y25036D01*
X7214Y25078D01*
X7395Y25200D01*
X7500Y25355D01*
X7604Y25200D01*
X7785Y25078D01*
X8000Y25036D01*
X8214Y25078D01*
X8395Y25200D01*
X8500Y25355D01*
X8604Y25200D01*
X8785Y25078D01*
X9000Y25036D01*
X9214Y25078D01*
X9395Y25200D01*
X9499Y25355D01*
X9501Y25349D01*
X9639Y25178D01*
X9831Y25073D01*
X9863Y25066D01*
X9950Y25115D01*
X9950Y25700D01*
X9942Y25700D01*
X9942Y25800D01*
X9950Y25800D01*
X9950Y26384D01*
X9863Y26433D01*
X9831Y26426D01*
X9639Y26321D01*
X9501Y26150D01*
X9499Y26144D01*
X9395Y26299D01*
X9214Y26421D01*
X9000Y26463D01*
X8785Y26421D01*
X8604Y26299D01*
X8500Y26144D01*
X8395Y26299D01*
X8214Y26421D01*
X8000Y26463D01*
X7785Y26421D01*
X7604Y26299D01*
X7500Y26144D01*
X7395Y26299D01*
X7214Y26421D01*
X7000Y26463D01*
X6785Y26421D01*
X6604Y26299D01*
X6500Y26144D01*
X6395Y26299D01*
X6214Y26421D01*
X6000Y26463D01*
X5968Y26457D01*
X6045Y26641D01*
X6045Y26857D01*
X5962Y27058D01*
X5809Y27211D01*
X5608Y27295D01*
X5392Y27295D01*
X5191Y27212D01*
X5038Y27059D01*
X5007Y26985D01*
X4996Y26996D01*
X4883Y27071D01*
X4861Y27076D01*
X4750Y27098D01*
X4749Y27098D01*
X3250Y27098D01*
X3116Y27071D01*
X3003Y26996D01*
X3003Y26996D01*
X2753Y26746D01*
X2678Y26633D01*
X2673Y26611D01*
X2651Y26500D01*
X2651Y26499D01*
X2651Y26331D01*
X2604Y26299D01*
X2559Y26233D01*
X2559Y26249D01*
X2521Y26341D01*
X2451Y26412D01*
X2359Y26450D01*
X2112Y26450D01*
X2050Y26387D01*
X2050Y25800D01*
X2057Y25800D01*
X2057Y25700D01*
X2050Y25700D01*
X2050Y25112D01*
X2112Y25050D01*
X2359Y25049D01*
X2451Y25087D01*
X2521Y25158D01*
X2559Y25250D01*
X2559Y25266D01*
X2592Y25217D01*
X2592Y23750D01*
X2592Y23282D01*
X2508Y23157D01*
X2491Y23157D01*
X2395Y23299D01*
X2214Y23421D01*
X2000Y23463D01*
X1978Y23459D01*
X1736Y23701D01*
X1736Y25049D01*
X1887Y25050D01*
X1950Y25112D01*
X1950Y25700D01*
X1942Y25700D01*
X1942Y25800D01*
X1950Y25800D01*
X1950Y26387D01*
X1887Y26450D01*
X1736Y26450D01*
X1736Y28111D01*
X1785Y28078D01*
X2000Y28036D01*
X2214Y28078D01*
X2395Y28200D01*
X2499Y28355D01*
X2501Y28349D01*
X2639Y28178D01*
X2831Y28073D01*
X2863Y28066D01*
X2950Y28115D01*
X2950Y28700D01*
X2942Y28700D01*
X2942Y28800D01*
X2950Y28800D01*
X2950Y28807D01*
X3050Y28807D01*
X3050Y28800D01*
X3057Y28800D01*
X3057Y28700D01*
X3050Y28700D01*
X3050Y28115D01*
X3136Y28066D01*
X3168Y28073D01*
X3360Y28178D01*
X3498Y28349D01*
X3500Y28355D01*
X3604Y28200D01*
X3785Y28078D01*
X4000Y28036D01*
X4204Y28076D01*
X4253Y28003D01*
X4603Y27653D01*
X4603Y27653D01*
X4716Y27578D01*
X4849Y27551D01*
X4849Y27551D01*
X4850Y27551D01*
X8000Y27551D01*
X8705Y27551D01*
X9503Y26753D01*
X9503Y26753D01*
X9616Y26678D01*
X9750Y26651D01*
X9750Y26651D01*
X9750Y26651D01*
X10500Y26651D01*
X11972Y26651D01*
X11954Y26608D01*
X11954Y26392D01*
X12037Y26191D01*
X12190Y26038D01*
X12391Y25954D01*
X12607Y25954D01*
X12808Y26037D01*
X12889Y26118D01*
X12901Y26105D01*
X12901Y25672D01*
X12788Y25559D01*
X12704Y25358D01*
X12704Y25142D01*
X12787Y24941D01*
X12940Y24788D01*
X13141Y24704D01*
X13357Y24704D01*
X13558Y24787D01*
X13711Y24940D01*
X13795Y25141D01*
X13795Y25357D01*
X13712Y25558D01*
X13598Y25672D01*
X13598Y26250D01*
X13571Y26383D01*
X13496Y26496D01*
X13496Y26496D01*
X13341Y26651D01*
X14796Y26651D01*
X14737Y26592D01*
X14645Y26370D01*
X14645Y26130D01*
X14737Y25908D01*
X14907Y25737D01*
X15129Y25645D01*
X15369Y25645D01*
X15591Y25737D01*
X15697Y25842D01*
X15831Y25842D01*
X17211Y24461D01*
X17211Y24461D01*
X17344Y24373D01*
X17344Y24373D01*
X17500Y24342D01*
X18581Y24342D01*
X18756Y24167D01*
G54D10*
G36*
X20401Y13591D02*
X18795Y15197D01*
X18795Y15357D01*
X18712Y15558D01*
X18559Y15711D01*
X18358Y15795D01*
X18142Y15795D01*
X17941Y15712D01*
X17788Y15559D01*
X17704Y15358D01*
X17704Y15142D01*
X17787Y14941D01*
X17940Y14788D01*
X18141Y14704D01*
X18302Y14704D01*
X18408Y14598D01*
X15560Y14598D01*
X15560Y16560D01*
X15560Y16700D01*
X15050Y16700D01*
X15050Y16115D01*
X15136Y16066D01*
X15168Y16073D01*
X15360Y16178D01*
X15498Y16349D01*
X15560Y16560D01*
X15560Y14598D01*
X12144Y14598D01*
X11746Y14996D01*
X11633Y15071D01*
X11611Y15076D01*
X11500Y15098D01*
X11499Y15098D01*
X8144Y15098D01*
X7348Y15894D01*
X7348Y16168D01*
X7395Y16200D01*
X7500Y16355D01*
X7604Y16200D01*
X7785Y16078D01*
X8000Y16036D01*
X8214Y16078D01*
X8395Y16200D01*
X8500Y16355D01*
X8604Y16200D01*
X8785Y16078D01*
X9000Y16036D01*
X9214Y16078D01*
X9395Y16200D01*
X9500Y16355D01*
X9604Y16200D01*
X9785Y16078D01*
X10000Y16036D01*
X10214Y16078D01*
X10395Y16200D01*
X10500Y16355D01*
X10604Y16200D01*
X10785Y16078D01*
X11000Y16036D01*
X11214Y16078D01*
X11395Y16200D01*
X11500Y16355D01*
X11604Y16200D01*
X11785Y16078D01*
X12000Y16036D01*
X12214Y16078D01*
X12395Y16200D01*
X12500Y16355D01*
X12604Y16200D01*
X12785Y16078D01*
X13000Y16036D01*
X13214Y16078D01*
X13395Y16200D01*
X13500Y16355D01*
X13604Y16200D01*
X13785Y16078D01*
X14000Y16036D01*
X14214Y16078D01*
X14395Y16200D01*
X14499Y16355D01*
X14501Y16349D01*
X14639Y16178D01*
X14831Y16073D01*
X14863Y16066D01*
X14950Y16115D01*
X14950Y16700D01*
X14942Y16700D01*
X14942Y16800D01*
X14950Y16800D01*
X14950Y16807D01*
X15050Y16807D01*
X15050Y16800D01*
X15560Y16800D01*
X15560Y16940D01*
X15498Y17150D01*
X15497Y17151D01*
X17855Y17151D01*
X20401Y14605D01*
X20401Y13591D01*
X20401Y13591D01*
G37*
G54D47*
X20401Y13591D02*
X18795Y15197D01*
X18795Y15357D01*
X18712Y15558D01*
X18559Y15711D01*
X18358Y15795D01*
X18142Y15795D01*
X17941Y15712D01*
X17788Y15559D01*
X17704Y15358D01*
X17704Y15142D01*
X17787Y14941D01*
X17940Y14788D01*
X18141Y14704D01*
X18302Y14704D01*
X18408Y14598D01*
X15560Y14598D01*
X15560Y16560D01*
X15560Y16700D01*
X15050Y16700D01*
X15050Y16115D01*
X15136Y16066D01*
X15168Y16073D01*
X15360Y16178D01*
X15498Y16349D01*
X15560Y16560D01*
X15560Y14598D01*
X12144Y14598D01*
X11746Y14996D01*
X11633Y15071D01*
X11611Y15076D01*
X11500Y15098D01*
X11499Y15098D01*
X8144Y15098D01*
X7348Y15894D01*
X7348Y16168D01*
X7395Y16200D01*
X7500Y16355D01*
X7604Y16200D01*
X7785Y16078D01*
X8000Y16036D01*
X8214Y16078D01*
X8395Y16200D01*
X8500Y16355D01*
X8604Y16200D01*
X8785Y16078D01*
X9000Y16036D01*
X9214Y16078D01*
X9395Y16200D01*
X9500Y16355D01*
X9604Y16200D01*
X9785Y16078D01*
X10000Y16036D01*
X10214Y16078D01*
X10395Y16200D01*
X10500Y16355D01*
X10604Y16200D01*
X10785Y16078D01*
X11000Y16036D01*
X11214Y16078D01*
X11395Y16200D01*
X11500Y16355D01*
X11604Y16200D01*
X11785Y16078D01*
X12000Y16036D01*
X12214Y16078D01*
X12395Y16200D01*
X12500Y16355D01*
X12604Y16200D01*
X12785Y16078D01*
X13000Y16036D01*
X13214Y16078D01*
X13395Y16200D01*
X13500Y16355D01*
X13604Y16200D01*
X13785Y16078D01*
X14000Y16036D01*
X14214Y16078D01*
X14395Y16200D01*
X14499Y16355D01*
X14501Y16349D01*
X14639Y16178D01*
X14831Y16073D01*
X14863Y16066D01*
X14950Y16115D01*
X14950Y16700D01*
X14942Y16700D01*
X14942Y16800D01*
X14950Y16800D01*
X14950Y16807D01*
X15050Y16807D01*
X15050Y16800D01*
X15560Y16800D01*
X15560Y16940D01*
X15498Y17150D01*
X15497Y17151D01*
X17855Y17151D01*
X20401Y14605D01*
X20401Y13591D01*
G54D10*
G36*
X20441Y50295D02*
X20385Y50295D01*
X20293Y50257D01*
X20223Y50187D01*
X20185Y50095D01*
X20184Y49995D01*
X20185Y49743D01*
X20166Y49761D01*
X20074Y49799D01*
X19975Y49800D01*
X19862Y49800D01*
X19800Y49737D01*
X19800Y49425D01*
X19807Y49425D01*
X19807Y49325D01*
X19800Y49325D01*
X19800Y49317D01*
X19700Y49317D01*
X19700Y49325D01*
X19700Y49425D01*
X19700Y49737D01*
X19637Y49800D01*
X19524Y49800D01*
X19425Y49799D01*
X19333Y49761D01*
X19262Y49691D01*
X19224Y49599D01*
X19225Y49487D01*
X19287Y49425D01*
X19700Y49425D01*
X19700Y49325D01*
X19287Y49325D01*
X19225Y49262D01*
X19224Y49150D01*
X19262Y49058D01*
X19321Y48999D01*
X19263Y48941D01*
X19225Y48849D01*
X19224Y48750D01*
X19224Y48400D01*
X19262Y48308D01*
X19321Y48250D01*
X19232Y48118D01*
X19228Y48098D01*
X18478Y48098D01*
X18331Y48245D01*
X18116Y48334D01*
X17884Y48334D01*
X17669Y48245D01*
X17521Y48098D01*
X17228Y48098D01*
X17081Y48245D01*
X16866Y48334D01*
X16634Y48334D01*
X16419Y48245D01*
X16271Y48098D01*
X15978Y48098D01*
X15831Y48245D01*
X15616Y48334D01*
X15384Y48334D01*
X15287Y48294D01*
X15394Y48401D01*
X15749Y48401D01*
X15750Y48401D01*
X15750Y48401D01*
X15861Y48423D01*
X15883Y48428D01*
X15883Y48428D01*
X15996Y48503D01*
X16394Y48901D01*
X16999Y48901D01*
X17000Y48901D01*
X17000Y48901D01*
X17111Y48923D01*
X17133Y48928D01*
X17133Y48928D01*
X17246Y49003D01*
X17496Y49253D01*
X17496Y49253D01*
X17496Y49253D01*
X17571Y49366D01*
X17598Y49500D01*
X17598Y49771D01*
X17728Y49901D01*
X17999Y49901D01*
X18000Y49901D01*
X18000Y49901D01*
X18111Y49923D01*
X18133Y49928D01*
X18133Y49928D01*
X18246Y50003D01*
X19644Y51401D01*
X20312Y51401D01*
X20228Y51275D01*
X20185Y51059D01*
X20185Y50755D01*
X20228Y50539D01*
X20350Y50356D01*
X20441Y50295D01*
X20441Y50295D01*
G37*
G54D47*
X20441Y50295D02*
X20385Y50295D01*
X20293Y50257D01*
X20223Y50187D01*
X20185Y50095D01*
X20184Y49995D01*
X20185Y49743D01*
X20166Y49761D01*
X20074Y49799D01*
X19975Y49800D01*
X19862Y49800D01*
X19800Y49737D01*
X19800Y49425D01*
X19807Y49425D01*
X19807Y49325D01*
X19800Y49325D01*
X19800Y49317D01*
X19700Y49317D01*
X19700Y49325D01*
X19700Y49425D01*
X19700Y49737D01*
X19637Y49800D01*
X19524Y49800D01*
X19425Y49799D01*
X19333Y49761D01*
X19262Y49691D01*
X19224Y49599D01*
X19225Y49487D01*
X19287Y49425D01*
X19700Y49425D01*
X19700Y49325D01*
X19287Y49325D01*
X19225Y49262D01*
X19224Y49150D01*
X19262Y49058D01*
X19321Y48999D01*
X19263Y48941D01*
X19225Y48849D01*
X19224Y48750D01*
X19224Y48400D01*
X19262Y48308D01*
X19321Y48250D01*
X19232Y48118D01*
X19228Y48098D01*
X18478Y48098D01*
X18331Y48245D01*
X18116Y48334D01*
X17884Y48334D01*
X17669Y48245D01*
X17521Y48098D01*
X17228Y48098D01*
X17081Y48245D01*
X16866Y48334D01*
X16634Y48334D01*
X16419Y48245D01*
X16271Y48098D01*
X15978Y48098D01*
X15831Y48245D01*
X15616Y48334D01*
X15384Y48334D01*
X15287Y48294D01*
X15394Y48401D01*
X15749Y48401D01*
X15750Y48401D01*
X15750Y48401D01*
X15861Y48423D01*
X15883Y48428D01*
X15883Y48428D01*
X15996Y48503D01*
X16394Y48901D01*
X16999Y48901D01*
X17000Y48901D01*
X17000Y48901D01*
X17111Y48923D01*
X17133Y48928D01*
X17133Y48928D01*
X17246Y49003D01*
X17496Y49253D01*
X17496Y49253D01*
X17496Y49253D01*
X17571Y49366D01*
X17598Y49500D01*
X17598Y49771D01*
X17728Y49901D01*
X17999Y49901D01*
X18000Y49901D01*
X18000Y49901D01*
X18111Y49923D01*
X18133Y49928D01*
X18133Y49928D01*
X18246Y50003D01*
X19644Y51401D01*
X20312Y51401D01*
X20228Y51275D01*
X20185Y51059D01*
X20185Y50755D01*
X20228Y50539D01*
X20350Y50356D01*
X20441Y50295D01*
G54D10*
G36*
X22151Y29775D02*
X22133Y29771D01*
X21950Y29649D01*
X21828Y29466D01*
X21785Y29250D01*
X21828Y29033D01*
X21950Y28850D01*
X22100Y28750D01*
X21950Y28649D01*
X21828Y28466D01*
X21785Y28250D01*
X21795Y28197D01*
X21746Y28246D01*
X21633Y28321D01*
X21611Y28326D01*
X21500Y28348D01*
X21499Y28348D01*
X21425Y28348D01*
X21495Y28418D01*
X21584Y28633D01*
X21584Y28865D01*
X21495Y29080D01*
X21331Y29245D01*
X21116Y29334D01*
X20884Y29334D01*
X20669Y29245D01*
X20504Y29081D01*
X20415Y28866D01*
X20415Y28634D01*
X20455Y28537D01*
X18858Y30133D01*
X18858Y32155D01*
X18848Y32395D01*
X18776Y32570D01*
X18675Y32604D01*
X18604Y32533D01*
X18604Y32675D01*
X18570Y32776D01*
X18344Y32858D01*
X18104Y32848D01*
X17929Y32776D01*
X17895Y32675D01*
X18250Y32320D01*
X18604Y32675D01*
X18604Y32533D01*
X18320Y32250D01*
X18675Y31895D01*
X18776Y31929D01*
X18858Y32155D01*
X18858Y30133D01*
X18604Y30388D01*
X18604Y31824D01*
X18250Y32179D01*
X18179Y32108D01*
X18179Y32250D01*
X17824Y32604D01*
X17723Y32570D01*
X17641Y32344D01*
X17651Y32104D01*
X17723Y31929D01*
X17824Y31895D01*
X18179Y32250D01*
X18179Y32108D01*
X17895Y31824D01*
X17929Y31723D01*
X18155Y31641D01*
X18395Y31651D01*
X18570Y31723D01*
X18604Y31824D01*
X18604Y30388D01*
X17996Y30996D01*
X17883Y31071D01*
X17861Y31076D01*
X17750Y31098D01*
X17749Y31098D01*
X9560Y31098D01*
X9560Y33560D01*
X9560Y33700D01*
X9560Y33800D01*
X9560Y33940D01*
X9498Y34150D01*
X9360Y34321D01*
X9168Y34426D01*
X9136Y34433D01*
X9050Y34384D01*
X9050Y33800D01*
X9560Y33800D01*
X9560Y33700D01*
X9050Y33700D01*
X9050Y33115D01*
X9136Y33066D01*
X9168Y33073D01*
X9360Y33178D01*
X9498Y33349D01*
X9560Y33560D01*
X9560Y31098D01*
X6394Y31098D01*
X5598Y31894D01*
X5598Y32046D01*
X5653Y31992D01*
X5673Y31888D01*
X5678Y31866D01*
X5753Y31753D01*
X6003Y31503D01*
X6003Y31503D01*
X6116Y31428D01*
X6250Y31401D01*
X7749Y31401D01*
X7750Y31401D01*
X7750Y31401D01*
X7861Y31423D01*
X7883Y31428D01*
X7883Y31428D01*
X7996Y31503D01*
X8246Y31753D01*
X8246Y31753D01*
X8246Y31753D01*
X8321Y31866D01*
X8346Y31992D01*
X8512Y32157D01*
X8604Y32379D01*
X8604Y32619D01*
X8512Y32841D01*
X8348Y33006D01*
X8348Y33168D01*
X8395Y33200D01*
X8499Y33355D01*
X8501Y33349D01*
X8639Y33178D01*
X8831Y33073D01*
X8863Y33066D01*
X8950Y33115D01*
X8950Y33700D01*
X8942Y33700D01*
X8942Y33800D01*
X8950Y33800D01*
X8950Y34384D01*
X8863Y34433D01*
X8831Y34426D01*
X8639Y34321D01*
X8501Y34150D01*
X8499Y34144D01*
X8395Y34299D01*
X8214Y34421D01*
X8000Y34463D01*
X7785Y34421D01*
X7604Y34299D01*
X7500Y34144D01*
X7395Y34299D01*
X7214Y34421D01*
X7000Y34463D01*
X6785Y34421D01*
X6604Y34299D01*
X6500Y34144D01*
X6395Y34299D01*
X6214Y34421D01*
X6000Y34463D01*
X5785Y34421D01*
X5604Y34299D01*
X5499Y34144D01*
X5395Y34299D01*
X5214Y34421D01*
X5000Y34463D01*
X4818Y34427D01*
X4818Y35076D01*
X5144Y35401D01*
X7880Y35401D01*
X7788Y35309D01*
X7704Y35108D01*
X7704Y34892D01*
X7787Y34691D01*
X7940Y34538D01*
X8141Y34454D01*
X8357Y34454D01*
X8558Y34537D01*
X8672Y34651D01*
X10249Y34651D01*
X10250Y34651D01*
X10250Y34651D01*
X10361Y34673D01*
X10383Y34678D01*
X10383Y34678D01*
X10496Y34753D01*
X11015Y35272D01*
X11097Y35238D01*
X11400Y35238D01*
X11484Y35272D01*
X12003Y34753D01*
X12003Y34753D01*
X12116Y34678D01*
X12250Y34651D01*
X14569Y34651D01*
X14603Y34569D01*
X14817Y34354D01*
X15097Y34238D01*
X15400Y34238D01*
X15680Y34353D01*
X15895Y34567D01*
X16011Y34847D01*
X16011Y35150D01*
X15896Y35430D01*
X15682Y35645D01*
X15402Y35761D01*
X15099Y35761D01*
X14819Y35646D01*
X14604Y35432D01*
X14569Y35348D01*
X12394Y35348D01*
X11977Y35765D01*
X12011Y35847D01*
X12011Y36150D01*
X11896Y36430D01*
X11682Y36645D01*
X11667Y36651D01*
X14569Y36651D01*
X14603Y36569D01*
X14817Y36354D01*
X15097Y36238D01*
X15400Y36238D01*
X15680Y36353D01*
X15895Y36567D01*
X16011Y36847D01*
X16011Y37150D01*
X15896Y37430D01*
X15682Y37645D01*
X15402Y37761D01*
X15310Y37761D01*
X15310Y39060D01*
X15310Y39200D01*
X15310Y39300D01*
X15310Y39440D01*
X15248Y39650D01*
X15110Y39821D01*
X14918Y39926D01*
X14886Y39933D01*
X14800Y39884D01*
X14800Y39300D01*
X15310Y39300D01*
X15310Y39200D01*
X14800Y39200D01*
X14800Y38615D01*
X14886Y38566D01*
X14918Y38573D01*
X15110Y38678D01*
X15248Y38849D01*
X15310Y39060D01*
X15310Y37761D01*
X15099Y37761D01*
X14819Y37646D01*
X14604Y37432D01*
X14569Y37348D01*
X10894Y37348D01*
X9996Y38246D01*
X9883Y38321D01*
X9861Y38326D01*
X9750Y38348D01*
X9749Y38348D01*
X9506Y38348D01*
X9342Y38512D01*
X9120Y38604D01*
X8880Y38604D01*
X8658Y38512D01*
X8487Y38342D01*
X8395Y38120D01*
X8395Y37880D01*
X8487Y37658D01*
X8657Y37487D01*
X8807Y37425D01*
X8785Y37421D01*
X8604Y37299D01*
X8500Y37144D01*
X8395Y37299D01*
X8214Y37421D01*
X8000Y37463D01*
X7785Y37421D01*
X7604Y37299D01*
X7500Y37144D01*
X7395Y37299D01*
X7348Y37331D01*
X7348Y37499D01*
X7348Y37500D01*
X7348Y37500D01*
X7321Y37633D01*
X7246Y37746D01*
X7246Y37746D01*
X6746Y38246D01*
X6633Y38321D01*
X6611Y38326D01*
X6507Y38346D01*
X6348Y38506D01*
X6348Y38954D01*
X7000Y38954D01*
X7208Y38996D01*
X7208Y38996D01*
X7385Y39114D01*
X8199Y39928D01*
X8341Y39987D01*
X8512Y40157D01*
X8571Y40300D01*
X9975Y41704D01*
X11342Y41704D01*
X11342Y41515D01*
X11333Y41512D01*
X11263Y41441D01*
X11225Y41349D01*
X11224Y41250D01*
X11224Y40900D01*
X11262Y40808D01*
X11321Y40750D01*
X11262Y40691D01*
X11224Y40599D01*
X11225Y40487D01*
X11287Y40425D01*
X11700Y40425D01*
X11700Y40432D01*
X11800Y40432D01*
X11800Y40425D01*
X12212Y40425D01*
X12275Y40487D01*
X12275Y40599D01*
X12237Y40691D01*
X12178Y40750D01*
X12236Y40808D01*
X12274Y40900D01*
X12275Y40999D01*
X12275Y41349D01*
X12237Y41441D01*
X12166Y41511D01*
X12157Y41515D01*
X12157Y41717D01*
X12250Y41855D01*
X12354Y41700D01*
X12535Y41578D01*
X12750Y41536D01*
X12964Y41578D01*
X13145Y41700D01*
X13250Y41855D01*
X13354Y41700D01*
X13535Y41578D01*
X13750Y41536D01*
X13964Y41578D01*
X14145Y41700D01*
X14250Y41855D01*
X14354Y41700D01*
X14420Y41656D01*
X14423Y41638D01*
X14428Y41616D01*
X14503Y41503D01*
X17003Y39003D01*
X17003Y39003D01*
X17116Y38928D01*
X17250Y38901D01*
X17250Y38901D01*
X17250Y38901D01*
X17880Y38901D01*
X17827Y38848D01*
X17144Y38848D01*
X15246Y40746D01*
X15133Y40821D01*
X15111Y40826D01*
X15000Y40848D01*
X14999Y40848D01*
X13500Y40848D01*
X13499Y40848D01*
X13366Y40821D01*
X13253Y40746D01*
X13253Y40746D01*
X12503Y39996D01*
X12428Y39883D01*
X12423Y39861D01*
X12420Y39843D01*
X12354Y39799D01*
X12310Y39733D01*
X12310Y39749D01*
X12272Y39841D01*
X12201Y39911D01*
X12109Y39949D01*
X12042Y39950D01*
X12074Y39950D01*
X12166Y39988D01*
X12237Y40058D01*
X12275Y40150D01*
X12275Y40262D01*
X12212Y40325D01*
X11800Y40325D01*
X11800Y40317D01*
X11700Y40317D01*
X11700Y40325D01*
X11287Y40325D01*
X11225Y40262D01*
X11224Y40150D01*
X11262Y40058D01*
X11333Y39988D01*
X11425Y39950D01*
X11425Y39950D01*
X11390Y39950D01*
X11298Y39912D01*
X11228Y39841D01*
X11190Y39749D01*
X11189Y39650D01*
X11189Y38750D01*
X11227Y38658D01*
X11298Y38588D01*
X11390Y38550D01*
X11489Y38549D01*
X12109Y38549D01*
X12201Y38587D01*
X12271Y38658D01*
X12309Y38750D01*
X12309Y38766D01*
X12354Y38700D01*
X12535Y38578D01*
X12750Y38536D01*
X12964Y38578D01*
X13145Y38700D01*
X13250Y38855D01*
X13354Y38700D01*
X13535Y38578D01*
X13750Y38536D01*
X13964Y38578D01*
X14145Y38700D01*
X14249Y38855D01*
X14251Y38849D01*
X14389Y38678D01*
X14581Y38573D01*
X14613Y38566D01*
X14700Y38615D01*
X14700Y39200D01*
X14692Y39200D01*
X14692Y39300D01*
X14700Y39300D01*
X14700Y39884D01*
X14613Y39933D01*
X14581Y39926D01*
X14389Y39821D01*
X14251Y39650D01*
X14249Y39644D01*
X14145Y39799D01*
X13964Y39921D01*
X13750Y39963D01*
X13535Y39921D01*
X13354Y39799D01*
X13250Y39644D01*
X13204Y39711D01*
X13644Y40151D01*
X14855Y40151D01*
X16014Y38992D01*
X15941Y38962D01*
X15788Y38809D01*
X15704Y38608D01*
X15704Y38392D01*
X15787Y38191D01*
X15940Y38038D01*
X16141Y37954D01*
X16302Y37954D01*
X16651Y37605D01*
X16651Y34144D01*
X15361Y32854D01*
X15130Y32854D01*
X14908Y32762D01*
X14737Y32592D01*
X14645Y32370D01*
X14645Y32130D01*
X14737Y31908D01*
X14907Y31737D01*
X15129Y31645D01*
X15369Y31645D01*
X15591Y31737D01*
X15762Y31907D01*
X15854Y32129D01*
X15854Y32361D01*
X17144Y33651D01*
X18605Y33651D01*
X19454Y32802D01*
X19454Y32642D01*
X19537Y32441D01*
X19690Y32288D01*
X19891Y32204D01*
X20107Y32204D01*
X20308Y32287D01*
X20461Y32440D01*
X20492Y32514D01*
X22151Y30855D01*
X22151Y29775D01*
X22151Y29775D01*
G37*
G54D47*
X22151Y29775D02*
X22133Y29771D01*
X21950Y29649D01*
X21828Y29466D01*
X21785Y29250D01*
X21828Y29033D01*
X21950Y28850D01*
X22100Y28750D01*
X21950Y28649D01*
X21828Y28466D01*
X21785Y28250D01*
X21795Y28197D01*
X21746Y28246D01*
X21633Y28321D01*
X21611Y28326D01*
X21500Y28348D01*
X21499Y28348D01*
X21425Y28348D01*
X21495Y28418D01*
X21584Y28633D01*
X21584Y28865D01*
X21495Y29080D01*
X21331Y29245D01*
X21116Y29334D01*
X20884Y29334D01*
X20669Y29245D01*
X20504Y29081D01*
X20415Y28866D01*
X20415Y28634D01*
X20455Y28537D01*
X18858Y30133D01*
X18858Y32155D01*
X18848Y32395D01*
X18776Y32570D01*
X18675Y32604D01*
X18604Y32533D01*
X18604Y32675D01*
X18570Y32776D01*
X18344Y32858D01*
X18104Y32848D01*
X17929Y32776D01*
X17895Y32675D01*
X18250Y32320D01*
X18604Y32675D01*
X18604Y32533D01*
X18320Y32250D01*
X18675Y31895D01*
X18776Y31929D01*
X18858Y32155D01*
X18858Y30133D01*
X18604Y30388D01*
X18604Y31824D01*
X18250Y32179D01*
X18179Y32108D01*
X18179Y32250D01*
X17824Y32604D01*
X17723Y32570D01*
X17641Y32344D01*
X17651Y32104D01*
X17723Y31929D01*
X17824Y31895D01*
X18179Y32250D01*
X18179Y32108D01*
X17895Y31824D01*
X17929Y31723D01*
X18155Y31641D01*
X18395Y31651D01*
X18570Y31723D01*
X18604Y31824D01*
X18604Y30388D01*
X17996Y30996D01*
X17883Y31071D01*
X17861Y31076D01*
X17750Y31098D01*
X17749Y31098D01*
X9560Y31098D01*
X9560Y33560D01*
X9560Y33700D01*
X9560Y33800D01*
X9560Y33940D01*
X9498Y34150D01*
X9360Y34321D01*
X9168Y34426D01*
X9136Y34433D01*
X9050Y34384D01*
X9050Y33800D01*
X9560Y33800D01*
X9560Y33700D01*
X9050Y33700D01*
X9050Y33115D01*
X9136Y33066D01*
X9168Y33073D01*
X9360Y33178D01*
X9498Y33349D01*
X9560Y33560D01*
X9560Y31098D01*
X6394Y31098D01*
X5598Y31894D01*
X5598Y32046D01*
X5653Y31992D01*
X5673Y31888D01*
X5678Y31866D01*
X5753Y31753D01*
X6003Y31503D01*
X6003Y31503D01*
X6116Y31428D01*
X6250Y31401D01*
X7749Y31401D01*
X7750Y31401D01*
X7750Y31401D01*
X7861Y31423D01*
X7883Y31428D01*
X7883Y31428D01*
X7996Y31503D01*
X8246Y31753D01*
X8246Y31753D01*
X8246Y31753D01*
X8321Y31866D01*
X8346Y31992D01*
X8512Y32157D01*
X8604Y32379D01*
X8604Y32619D01*
X8512Y32841D01*
X8348Y33006D01*
X8348Y33168D01*
X8395Y33200D01*
X8499Y33355D01*
X8501Y33349D01*
X8639Y33178D01*
X8831Y33073D01*
X8863Y33066D01*
X8950Y33115D01*
X8950Y33700D01*
X8942Y33700D01*
X8942Y33800D01*
X8950Y33800D01*
X8950Y34384D01*
X8863Y34433D01*
X8831Y34426D01*
X8639Y34321D01*
X8501Y34150D01*
X8499Y34144D01*
X8395Y34299D01*
X8214Y34421D01*
X8000Y34463D01*
X7785Y34421D01*
X7604Y34299D01*
X7500Y34144D01*
X7395Y34299D01*
X7214Y34421D01*
X7000Y34463D01*
X6785Y34421D01*
X6604Y34299D01*
X6500Y34144D01*
X6395Y34299D01*
X6214Y34421D01*
X6000Y34463D01*
X5785Y34421D01*
X5604Y34299D01*
X5499Y34144D01*
X5395Y34299D01*
X5214Y34421D01*
X5000Y34463D01*
X4818Y34427D01*
X4818Y35076D01*
X5144Y35401D01*
X7880Y35401D01*
X7788Y35309D01*
X7704Y35108D01*
X7704Y34892D01*
X7787Y34691D01*
X7940Y34538D01*
X8141Y34454D01*
X8357Y34454D01*
X8558Y34537D01*
X8672Y34651D01*
X10249Y34651D01*
X10250Y34651D01*
X10250Y34651D01*
X10361Y34673D01*
X10383Y34678D01*
X10383Y34678D01*
X10496Y34753D01*
X11015Y35272D01*
X11097Y35238D01*
X11400Y35238D01*
X11484Y35272D01*
X12003Y34753D01*
X12003Y34753D01*
X12116Y34678D01*
X12250Y34651D01*
X14569Y34651D01*
X14603Y34569D01*
X14817Y34354D01*
X15097Y34238D01*
X15400Y34238D01*
X15680Y34353D01*
X15895Y34567D01*
X16011Y34847D01*
X16011Y35150D01*
X15896Y35430D01*
X15682Y35645D01*
X15402Y35761D01*
X15099Y35761D01*
X14819Y35646D01*
X14604Y35432D01*
X14569Y35348D01*
X12394Y35348D01*
X11977Y35765D01*
X12011Y35847D01*
X12011Y36150D01*
X11896Y36430D01*
X11682Y36645D01*
X11667Y36651D01*
X14569Y36651D01*
X14603Y36569D01*
X14817Y36354D01*
X15097Y36238D01*
X15400Y36238D01*
X15680Y36353D01*
X15895Y36567D01*
X16011Y36847D01*
X16011Y37150D01*
X15896Y37430D01*
X15682Y37645D01*
X15402Y37761D01*
X15310Y37761D01*
X15310Y39060D01*
X15310Y39200D01*
X15310Y39300D01*
X15310Y39440D01*
X15248Y39650D01*
X15110Y39821D01*
X14918Y39926D01*
X14886Y39933D01*
X14800Y39884D01*
X14800Y39300D01*
X15310Y39300D01*
X15310Y39200D01*
X14800Y39200D01*
X14800Y38615D01*
X14886Y38566D01*
X14918Y38573D01*
X15110Y38678D01*
X15248Y38849D01*
X15310Y39060D01*
X15310Y37761D01*
X15099Y37761D01*
X14819Y37646D01*
X14604Y37432D01*
X14569Y37348D01*
X10894Y37348D01*
X9996Y38246D01*
X9883Y38321D01*
X9861Y38326D01*
X9750Y38348D01*
X9749Y38348D01*
X9506Y38348D01*
X9342Y38512D01*
X9120Y38604D01*
X8880Y38604D01*
X8658Y38512D01*
X8487Y38342D01*
X8395Y38120D01*
X8395Y37880D01*
X8487Y37658D01*
X8657Y37487D01*
X8807Y37425D01*
X8785Y37421D01*
X8604Y37299D01*
X8500Y37144D01*
X8395Y37299D01*
X8214Y37421D01*
X8000Y37463D01*
X7785Y37421D01*
X7604Y37299D01*
X7500Y37144D01*
X7395Y37299D01*
X7348Y37331D01*
X7348Y37499D01*
X7348Y37500D01*
X7348Y37500D01*
X7321Y37633D01*
X7246Y37746D01*
X7246Y37746D01*
X6746Y38246D01*
X6633Y38321D01*
X6611Y38326D01*
X6507Y38346D01*
X6348Y38506D01*
X6348Y38954D01*
X7000Y38954D01*
X7208Y38996D01*
X7208Y38996D01*
X7385Y39114D01*
X8199Y39928D01*
X8341Y39987D01*
X8512Y40157D01*
X8571Y40300D01*
X9975Y41704D01*
X11342Y41704D01*
X11342Y41515D01*
X11333Y41512D01*
X11263Y41441D01*
X11225Y41349D01*
X11224Y41250D01*
X11224Y40900D01*
X11262Y40808D01*
X11321Y40750D01*
X11262Y40691D01*
X11224Y40599D01*
X11225Y40487D01*
X11287Y40425D01*
X11700Y40425D01*
X11700Y40432D01*
X11800Y40432D01*
X11800Y40425D01*
X12212Y40425D01*
X12275Y40487D01*
X12275Y40599D01*
X12237Y40691D01*
X12178Y40750D01*
X12236Y40808D01*
X12274Y40900D01*
X12275Y40999D01*
X12275Y41349D01*
X12237Y41441D01*
X12166Y41511D01*
X12157Y41515D01*
X12157Y41717D01*
X12250Y41855D01*
X12354Y41700D01*
X12535Y41578D01*
X12750Y41536D01*
X12964Y41578D01*
X13145Y41700D01*
X13250Y41855D01*
X13354Y41700D01*
X13535Y41578D01*
X13750Y41536D01*
X13964Y41578D01*
X14145Y41700D01*
X14250Y41855D01*
X14354Y41700D01*
X14420Y41656D01*
X14423Y41638D01*
X14428Y41616D01*
X14503Y41503D01*
X17003Y39003D01*
X17003Y39003D01*
X17116Y38928D01*
X17250Y38901D01*
X17250Y38901D01*
X17250Y38901D01*
X17880Y38901D01*
X17827Y38848D01*
X17144Y38848D01*
X15246Y40746D01*
X15133Y40821D01*
X15111Y40826D01*
X15000Y40848D01*
X14999Y40848D01*
X13500Y40848D01*
X13499Y40848D01*
X13366Y40821D01*
X13253Y40746D01*
X13253Y40746D01*
X12503Y39996D01*
X12428Y39883D01*
X12423Y39861D01*
X12420Y39843D01*
X12354Y39799D01*
X12310Y39733D01*
X12310Y39749D01*
X12272Y39841D01*
X12201Y39911D01*
X12109Y39949D01*
X12042Y39950D01*
X12074Y39950D01*
X12166Y39988D01*
X12237Y40058D01*
X12275Y40150D01*
X12275Y40262D01*
X12212Y40325D01*
X11800Y40325D01*
X11800Y40317D01*
X11700Y40317D01*
X11700Y40325D01*
X11287Y40325D01*
X11225Y40262D01*
X11224Y40150D01*
X11262Y40058D01*
X11333Y39988D01*
X11425Y39950D01*
X11425Y39950D01*
X11390Y39950D01*
X11298Y39912D01*
X11228Y39841D01*
X11190Y39749D01*
X11189Y39650D01*
X11189Y38750D01*
X11227Y38658D01*
X11298Y38588D01*
X11390Y38550D01*
X11489Y38549D01*
X12109Y38549D01*
X12201Y38587D01*
X12271Y38658D01*
X12309Y38750D01*
X12309Y38766D01*
X12354Y38700D01*
X12535Y38578D01*
X12750Y38536D01*
X12964Y38578D01*
X13145Y38700D01*
X13250Y38855D01*
X13354Y38700D01*
X13535Y38578D01*
X13750Y38536D01*
X13964Y38578D01*
X14145Y38700D01*
X14249Y38855D01*
X14251Y38849D01*
X14389Y38678D01*
X14581Y38573D01*
X14613Y38566D01*
X14700Y38615D01*
X14700Y39200D01*
X14692Y39200D01*
X14692Y39300D01*
X14700Y39300D01*
X14700Y39884D01*
X14613Y39933D01*
X14581Y39926D01*
X14389Y39821D01*
X14251Y39650D01*
X14249Y39644D01*
X14145Y39799D01*
X13964Y39921D01*
X13750Y39963D01*
X13535Y39921D01*
X13354Y39799D01*
X13250Y39644D01*
X13204Y39711D01*
X13644Y40151D01*
X14855Y40151D01*
X16014Y38992D01*
X15941Y38962D01*
X15788Y38809D01*
X15704Y38608D01*
X15704Y38392D01*
X15787Y38191D01*
X15940Y38038D01*
X16141Y37954D01*
X16302Y37954D01*
X16651Y37605D01*
X16651Y34144D01*
X15361Y32854D01*
X15130Y32854D01*
X14908Y32762D01*
X14737Y32592D01*
X14645Y32370D01*
X14645Y32130D01*
X14737Y31908D01*
X14907Y31737D01*
X15129Y31645D01*
X15369Y31645D01*
X15591Y31737D01*
X15762Y31907D01*
X15854Y32129D01*
X15854Y32361D01*
X17144Y33651D01*
X18605Y33651D01*
X19454Y32802D01*
X19454Y32642D01*
X19537Y32441D01*
X19690Y32288D01*
X19891Y32204D01*
X20107Y32204D01*
X20308Y32287D01*
X20461Y32440D01*
X20492Y32514D01*
X22151Y30855D01*
X22151Y29775D01*
G54D10*
G36*
X23237Y19763D02*
X23174Y19737D01*
X23012Y19576D01*
X22978Y19493D01*
X22932Y19589D01*
X22767Y19736D01*
X22737Y19747D01*
X22892Y19850D01*
X23000Y20012D01*
X23107Y19850D01*
X23237Y19763D01*
X23237Y19763D01*
G37*
G54D47*
X23237Y19763D02*
X23174Y19737D01*
X23012Y19576D01*
X22978Y19493D01*
X22932Y19589D01*
X22767Y19736D01*
X22737Y19747D01*
X22892Y19850D01*
X23000Y20012D01*
X23107Y19850D01*
X23237Y19763D01*
G54D10*
G36*
X23401Y46894D02*
X22503Y45996D01*
X22428Y45883D01*
X22423Y45861D01*
X22401Y45750D01*
X22401Y45749D01*
X22401Y45331D01*
X22354Y45299D01*
X22250Y45144D01*
X22145Y45299D01*
X21964Y45421D01*
X21750Y45463D01*
X21535Y45421D01*
X21354Y45299D01*
X21250Y45144D01*
X21145Y45299D01*
X21098Y45331D01*
X21098Y47168D01*
X21145Y47200D01*
X21249Y47355D01*
X21251Y47349D01*
X21389Y47178D01*
X21581Y47073D01*
X21613Y47066D01*
X21700Y47115D01*
X21700Y47700D01*
X21692Y47700D01*
X21692Y47800D01*
X21700Y47800D01*
X21700Y48384D01*
X21700Y48954D01*
X21700Y49542D01*
X21252Y49542D01*
X21185Y49542D01*
X20800Y49542D01*
X20800Y48952D01*
X20862Y48889D01*
X21114Y48889D01*
X21206Y48927D01*
X21276Y48997D01*
X21314Y49089D01*
X21314Y49108D01*
X21385Y49019D01*
X21579Y48913D01*
X21612Y48906D01*
X21700Y48954D01*
X21700Y48384D01*
X21613Y48433D01*
X21581Y48426D01*
X21389Y48321D01*
X21251Y48150D01*
X21249Y48144D01*
X21145Y48299D01*
X20964Y48421D01*
X20750Y48463D01*
X20535Y48421D01*
X20354Y48299D01*
X20250Y48144D01*
X20178Y48250D01*
X20236Y48308D01*
X20274Y48400D01*
X20275Y48499D01*
X20275Y48849D01*
X20237Y48941D01*
X20178Y49000D01*
X20209Y49030D01*
X20223Y48997D01*
X20293Y48927D01*
X20385Y48889D01*
X20637Y48889D01*
X20700Y48952D01*
X20700Y49542D01*
X20692Y49542D01*
X20692Y49642D01*
X20700Y49642D01*
X20700Y49650D01*
X20800Y49650D01*
X20800Y49642D01*
X21185Y49642D01*
X21252Y49642D01*
X21700Y49642D01*
X21700Y49650D01*
X21800Y49650D01*
X21800Y49642D01*
X22185Y49642D01*
X22314Y49642D01*
X22700Y49642D01*
X22700Y49650D01*
X22800Y49650D01*
X22800Y49642D01*
X22807Y49642D01*
X22807Y49542D01*
X22800Y49542D01*
X22800Y48954D01*
X22887Y48906D01*
X22920Y48913D01*
X22931Y48919D01*
X22931Y48750D01*
X22955Y48627D01*
X23024Y48524D01*
X23312Y48236D01*
X23250Y48144D01*
X23145Y48299D01*
X22964Y48421D01*
X22750Y48463D01*
X22700Y48453D01*
X22700Y48954D01*
X22700Y49542D01*
X22314Y49542D01*
X22185Y49542D01*
X21800Y49542D01*
X21800Y48954D01*
X21887Y48906D01*
X21920Y48913D01*
X22114Y49019D01*
X22250Y49188D01*
X22385Y49019D01*
X22579Y48913D01*
X22612Y48906D01*
X22700Y48954D01*
X22700Y48453D01*
X22535Y48421D01*
X22354Y48299D01*
X22250Y48144D01*
X22248Y48150D01*
X22110Y48321D01*
X21918Y48426D01*
X21886Y48433D01*
X21800Y48384D01*
X21800Y47800D01*
X21807Y47800D01*
X21807Y47700D01*
X21800Y47700D01*
X21800Y47115D01*
X21886Y47066D01*
X21918Y47073D01*
X22110Y47178D01*
X22248Y47349D01*
X22250Y47355D01*
X22354Y47200D01*
X22535Y47078D01*
X22750Y47036D01*
X22964Y47078D01*
X23145Y47200D01*
X23250Y47355D01*
X23354Y47200D01*
X23401Y47168D01*
X23401Y46894D01*
X23401Y46894D01*
G37*
G54D47*
X23401Y46894D02*
X22503Y45996D01*
X22428Y45883D01*
X22423Y45861D01*
X22401Y45750D01*
X22401Y45749D01*
X22401Y45331D01*
X22354Y45299D01*
X22250Y45144D01*
X22145Y45299D01*
X21964Y45421D01*
X21750Y45463D01*
X21535Y45421D01*
X21354Y45299D01*
X21250Y45144D01*
X21145Y45299D01*
X21098Y45331D01*
X21098Y47168D01*
X21145Y47200D01*
X21249Y47355D01*
X21251Y47349D01*
X21389Y47178D01*
X21581Y47073D01*
X21613Y47066D01*
X21700Y47115D01*
X21700Y47700D01*
X21692Y47700D01*
X21692Y47800D01*
X21700Y47800D01*
X21700Y48384D01*
X21700Y48954D01*
X21700Y49542D01*
X21252Y49542D01*
X21185Y49542D01*
X20800Y49542D01*
X20800Y48952D01*
X20862Y48889D01*
X21114Y48889D01*
X21206Y48927D01*
X21276Y48997D01*
X21314Y49089D01*
X21314Y49108D01*
X21385Y49019D01*
X21579Y48913D01*
X21612Y48906D01*
X21700Y48954D01*
X21700Y48384D01*
X21613Y48433D01*
X21581Y48426D01*
X21389Y48321D01*
X21251Y48150D01*
X21249Y48144D01*
X21145Y48299D01*
X20964Y48421D01*
X20750Y48463D01*
X20535Y48421D01*
X20354Y48299D01*
X20250Y48144D01*
X20178Y48250D01*
X20236Y48308D01*
X20274Y48400D01*
X20275Y48499D01*
X20275Y48849D01*
X20237Y48941D01*
X20178Y49000D01*
X20209Y49030D01*
X20223Y48997D01*
X20293Y48927D01*
X20385Y48889D01*
X20637Y48889D01*
X20700Y48952D01*
X20700Y49542D01*
X20692Y49542D01*
X20692Y49642D01*
X20700Y49642D01*
X20700Y49650D01*
X20800Y49650D01*
X20800Y49642D01*
X21185Y49642D01*
X21252Y49642D01*
X21700Y49642D01*
X21700Y49650D01*
X21800Y49650D01*
X21800Y49642D01*
X22185Y49642D01*
X22314Y49642D01*
X22700Y49642D01*
X22700Y49650D01*
X22800Y49650D01*
X22800Y49642D01*
X22807Y49642D01*
X22807Y49542D01*
X22800Y49542D01*
X22800Y48954D01*
X22887Y48906D01*
X22920Y48913D01*
X22931Y48919D01*
X22931Y48750D01*
X22955Y48627D01*
X23024Y48524D01*
X23312Y48236D01*
X23250Y48144D01*
X23145Y48299D01*
X22964Y48421D01*
X22750Y48463D01*
X22700Y48453D01*
X22700Y48954D01*
X22700Y49542D01*
X22314Y49542D01*
X22185Y49542D01*
X21800Y49542D01*
X21800Y48954D01*
X21887Y48906D01*
X21920Y48913D01*
X22114Y49019D01*
X22250Y49188D01*
X22385Y49019D01*
X22579Y48913D01*
X22612Y48906D01*
X22700Y48954D01*
X22700Y48453D01*
X22535Y48421D01*
X22354Y48299D01*
X22250Y48144D01*
X22248Y48150D01*
X22110Y48321D01*
X21918Y48426D01*
X21886Y48433D01*
X21800Y48384D01*
X21800Y47800D01*
X21807Y47800D01*
X21807Y47700D01*
X21800Y47700D01*
X21800Y47115D01*
X21886Y47066D01*
X21918Y47073D01*
X22110Y47178D01*
X22248Y47349D01*
X22250Y47355D01*
X22354Y47200D01*
X22535Y47078D01*
X22750Y47036D01*
X22964Y47078D01*
X23145Y47200D01*
X23250Y47355D01*
X23354Y47200D01*
X23401Y47168D01*
X23401Y46894D01*
G54D10*
G36*
X23651Y8644D02*
X23552Y8545D01*
X23392Y8545D01*
X23191Y8462D01*
X23038Y8309D01*
X22954Y8108D01*
X22954Y7947D01*
X22753Y7746D01*
X22678Y7633D01*
X22651Y7500D01*
X22678Y7366D01*
X22681Y7362D01*
X22681Y6837D01*
X22500Y6874D01*
X22318Y6837D01*
X22318Y7297D01*
X22461Y7440D01*
X22545Y7641D01*
X22545Y7857D01*
X22462Y8058D01*
X22309Y8211D01*
X22108Y8295D01*
X21892Y8295D01*
X21691Y8212D01*
X21538Y8059D01*
X21454Y7858D01*
X21454Y7642D01*
X21537Y7441D01*
X21681Y7297D01*
X21681Y6837D01*
X21500Y6874D01*
X21283Y6830D01*
X21100Y6708D01*
X21000Y6558D01*
X20899Y6708D01*
X20716Y6830D01*
X20500Y6874D01*
X20283Y6830D01*
X20100Y6708D01*
X20000Y6558D01*
X19920Y6677D01*
X22065Y8822D01*
X22250Y8786D01*
X22464Y8828D01*
X22645Y8950D01*
X22749Y9105D01*
X22751Y9099D01*
X22889Y8928D01*
X23081Y8823D01*
X23113Y8816D01*
X23200Y8865D01*
X23200Y9450D01*
X23192Y9450D01*
X23192Y9550D01*
X23200Y9550D01*
X23200Y9557D01*
X23300Y9557D01*
X23300Y9550D01*
X23307Y9550D01*
X23307Y9450D01*
X23300Y9450D01*
X23300Y8865D01*
X23386Y8816D01*
X23418Y8823D01*
X23610Y8928D01*
X23651Y8979D01*
X23651Y8644D01*
X23651Y8644D01*
G37*
G54D47*
X23651Y8644D02*
X23552Y8545D01*
X23392Y8545D01*
X23191Y8462D01*
X23038Y8309D01*
X22954Y8108D01*
X22954Y7947D01*
X22753Y7746D01*
X22678Y7633D01*
X22651Y7500D01*
X22678Y7366D01*
X22681Y7362D01*
X22681Y6837D01*
X22500Y6874D01*
X22318Y6837D01*
X22318Y7297D01*
X22461Y7440D01*
X22545Y7641D01*
X22545Y7857D01*
X22462Y8058D01*
X22309Y8211D01*
X22108Y8295D01*
X21892Y8295D01*
X21691Y8212D01*
X21538Y8059D01*
X21454Y7858D01*
X21454Y7642D01*
X21537Y7441D01*
X21681Y7297D01*
X21681Y6837D01*
X21500Y6874D01*
X21283Y6830D01*
X21100Y6708D01*
X21000Y6558D01*
X20899Y6708D01*
X20716Y6830D01*
X20500Y6874D01*
X20283Y6830D01*
X20100Y6708D01*
X20000Y6558D01*
X19920Y6677D01*
X22065Y8822D01*
X22250Y8786D01*
X22464Y8828D01*
X22645Y8950D01*
X22749Y9105D01*
X22751Y9099D01*
X22889Y8928D01*
X23081Y8823D01*
X23113Y8816D01*
X23200Y8865D01*
X23200Y9450D01*
X23192Y9450D01*
X23192Y9550D01*
X23200Y9550D01*
X23200Y9557D01*
X23300Y9557D01*
X23300Y9550D01*
X23307Y9550D01*
X23307Y9450D01*
X23300Y9450D01*
X23300Y8865D01*
X23386Y8816D01*
X23418Y8823D01*
X23610Y8928D01*
X23651Y8979D01*
X23651Y8644D01*
G54D10*
G36*
X26151Y30833D02*
X26100Y30799D01*
X25997Y30645D01*
X25986Y30675D01*
X25839Y30839D01*
X25640Y30935D01*
X25637Y30935D01*
X25550Y30887D01*
X25550Y30378D01*
X25557Y30378D01*
X25557Y30278D01*
X25550Y30278D01*
X25550Y30270D01*
X25450Y30270D01*
X25450Y30278D01*
X25442Y30278D01*
X25442Y30378D01*
X25450Y30378D01*
X25450Y30887D01*
X25362Y30935D01*
X25359Y30935D01*
X25333Y30922D01*
X25348Y31000D01*
X25348Y31750D01*
X25348Y31750D01*
X25348Y31750D01*
X25321Y31883D01*
X25246Y31996D01*
X25246Y31996D01*
X22598Y34644D01*
X22598Y35500D01*
X22584Y35569D01*
X22750Y35536D01*
X22915Y35569D01*
X22901Y35500D01*
X22928Y35366D01*
X23003Y35253D01*
X26151Y32105D01*
X26151Y30833D01*
X26151Y30833D01*
G37*
G54D47*
X26151Y30833D02*
X26100Y30799D01*
X25997Y30645D01*
X25986Y30675D01*
X25839Y30839D01*
X25640Y30935D01*
X25637Y30935D01*
X25550Y30887D01*
X25550Y30378D01*
X25557Y30378D01*
X25557Y30278D01*
X25550Y30278D01*
X25550Y30270D01*
X25450Y30270D01*
X25450Y30278D01*
X25442Y30278D01*
X25442Y30378D01*
X25450Y30378D01*
X25450Y30887D01*
X25362Y30935D01*
X25359Y30935D01*
X25333Y30922D01*
X25348Y31000D01*
X25348Y31750D01*
X25348Y31750D01*
X25348Y31750D01*
X25321Y31883D01*
X25246Y31996D01*
X25246Y31996D01*
X22598Y34644D01*
X22598Y35500D01*
X22584Y35569D01*
X22750Y35536D01*
X22915Y35569D01*
X22901Y35500D01*
X22928Y35366D01*
X23003Y35253D01*
X26151Y32105D01*
X26151Y30833D01*
G54D10*
G36*
X26262Y29750D02*
X26100Y29642D01*
X26000Y29491D01*
X25899Y29642D01*
X25721Y29760D01*
X25839Y29817D01*
X25986Y29982D01*
X25997Y30012D01*
X26100Y29857D01*
X26262Y29750D01*
X26262Y29750D01*
G37*
G54D47*
X26262Y29750D02*
X26100Y29642D01*
X26000Y29491D01*
X25899Y29642D01*
X25721Y29760D01*
X25839Y29817D01*
X25986Y29982D01*
X25997Y30012D01*
X26100Y29857D01*
X26262Y29750D01*
G54D10*
G36*
X30278Y18739D02*
X30160Y18682D01*
X30013Y18517D01*
X30002Y18487D01*
X29899Y18642D01*
X29737Y18750D01*
X29899Y18857D01*
X30000Y19008D01*
X30100Y18857D01*
X30278Y18739D01*
X30278Y18739D01*
G37*
G54D47*
X30278Y18739D02*
X30160Y18682D01*
X30013Y18517D01*
X30002Y18487D01*
X29899Y18642D01*
X29737Y18750D01*
X29899Y18857D01*
X30000Y19008D01*
X30100Y18857D01*
X30278Y18739D01*
G54D10*
G36*
X33479Y21200D02*
X33471Y21200D01*
X33471Y21192D01*
X33371Y21192D01*
X33371Y21200D01*
X32862Y21200D01*
X32814Y21112D01*
X32814Y21109D01*
X32910Y20910D01*
X33074Y20763D01*
X33104Y20752D01*
X32950Y20649D01*
X32828Y20466D01*
X32812Y20388D01*
X32795Y20405D01*
X32795Y20607D01*
X32712Y20808D01*
X32559Y20961D01*
X32358Y21045D01*
X32275Y21045D01*
X32275Y22900D01*
X32275Y23012D01*
X32212Y23075D01*
X31800Y23075D01*
X31800Y22762D01*
X31862Y22700D01*
X31975Y22699D01*
X32074Y22700D01*
X32166Y22738D01*
X32237Y22808D01*
X32275Y22900D01*
X32275Y21045D01*
X32142Y21045D01*
X31941Y20962D01*
X31788Y20809D01*
X31704Y20608D01*
X31704Y20392D01*
X31787Y20191D01*
X31940Y20038D01*
X32141Y19954D01*
X32344Y19954D01*
X32361Y19937D01*
X32283Y19921D01*
X32100Y19799D01*
X32000Y19649D01*
X31899Y19799D01*
X31716Y19921D01*
X31700Y19925D01*
X31700Y22762D01*
X31700Y23075D01*
X31287Y23075D01*
X31225Y23012D01*
X31224Y22900D01*
X31262Y22808D01*
X31333Y22738D01*
X31425Y22700D01*
X31524Y22699D01*
X31637Y22700D01*
X31700Y22762D01*
X31700Y19925D01*
X31500Y19964D01*
X31283Y19921D01*
X31100Y19799D01*
X31000Y19649D01*
X30899Y19799D01*
X30800Y19865D01*
X30800Y27274D01*
X30800Y27725D01*
X30799Y27824D01*
X30761Y27916D01*
X30691Y27987D01*
X30599Y28025D01*
X30487Y28025D01*
X30425Y27962D01*
X30425Y27550D01*
X30737Y27550D01*
X30800Y27612D01*
X30800Y27725D01*
X30800Y27274D01*
X30800Y27387D01*
X30737Y27450D01*
X30425Y27450D01*
X30425Y27037D01*
X30487Y26975D01*
X30599Y26974D01*
X30691Y27012D01*
X30761Y27083D01*
X30799Y27175D01*
X30800Y27274D01*
X30800Y19865D01*
X30716Y19921D01*
X30500Y19964D01*
X30283Y19921D01*
X30100Y19799D01*
X30000Y19649D01*
X29899Y19799D01*
X29716Y19921D01*
X29500Y19964D01*
X29283Y19921D01*
X29100Y19799D01*
X29000Y19649D01*
X28899Y19799D01*
X28716Y19921D01*
X28500Y19964D01*
X28283Y19921D01*
X28100Y19799D01*
X27997Y19645D01*
X27986Y19675D01*
X27839Y19839D01*
X27800Y19858D01*
X27800Y20774D01*
X27800Y21225D01*
X27799Y21324D01*
X27761Y21416D01*
X27691Y21487D01*
X27599Y21525D01*
X27487Y21525D01*
X27425Y21462D01*
X27425Y21050D01*
X27737Y21050D01*
X27800Y21112D01*
X27800Y21225D01*
X27800Y20774D01*
X27800Y20887D01*
X27737Y20950D01*
X27425Y20950D01*
X27425Y20537D01*
X27487Y20475D01*
X27599Y20474D01*
X27691Y20512D01*
X27761Y20583D01*
X27799Y20675D01*
X27800Y20774D01*
X27800Y19858D01*
X27640Y19935D01*
X27637Y19935D01*
X27550Y19887D01*
X27550Y19378D01*
X27557Y19378D01*
X27557Y19278D01*
X27550Y19278D01*
X27550Y19270D01*
X27450Y19270D01*
X27450Y19278D01*
X27442Y19278D01*
X27442Y19378D01*
X27450Y19378D01*
X27450Y19887D01*
X27362Y19935D01*
X27359Y19935D01*
X27160Y19839D01*
X27013Y19675D01*
X27002Y19645D01*
X26899Y19799D01*
X26716Y19921D01*
X26500Y19964D01*
X26283Y19921D01*
X26100Y19799D01*
X26000Y19649D01*
X25907Y19787D01*
X25907Y20081D01*
X26030Y20204D01*
X26107Y20204D01*
X26308Y20287D01*
X26461Y20440D01*
X26476Y20474D01*
X26499Y20474D01*
X26849Y20474D01*
X26941Y20512D01*
X27000Y20571D01*
X27058Y20512D01*
X27150Y20474D01*
X27262Y20475D01*
X27325Y20537D01*
X27325Y20950D01*
X27317Y20950D01*
X27317Y21050D01*
X27325Y21050D01*
X27325Y21462D01*
X27262Y21525D01*
X27150Y21525D01*
X27058Y21487D01*
X26999Y21428D01*
X26941Y21486D01*
X26849Y21524D01*
X26750Y21525D01*
X26400Y21525D01*
X26308Y21487D01*
X26238Y21416D01*
X26232Y21404D01*
X26094Y21376D01*
X25972Y21295D01*
X25972Y21295D01*
X25892Y21295D01*
X25691Y21212D01*
X25538Y21059D01*
X25454Y20858D01*
X25454Y20781D01*
X25211Y20538D01*
X25123Y20405D01*
X25092Y20250D01*
X25092Y20249D01*
X25092Y19787D01*
X25000Y19649D01*
X24899Y19799D01*
X24716Y19921D01*
X24500Y19964D01*
X24283Y19921D01*
X24100Y19799D01*
X23978Y19616D01*
X23972Y19589D01*
X23840Y19722D01*
X23866Y19728D01*
X24049Y19850D01*
X24171Y20033D01*
X24214Y20250D01*
X24171Y20466D01*
X24049Y20649D01*
X23899Y20750D01*
X24049Y20850D01*
X24171Y21033D01*
X24214Y21250D01*
X24178Y21431D01*
X24250Y21431D01*
X24250Y21431D01*
X24372Y21455D01*
X24372Y21455D01*
X24475Y21524D01*
X25405Y22454D01*
X25607Y22454D01*
X25808Y22537D01*
X25961Y22690D01*
X26045Y22891D01*
X26045Y23107D01*
X25962Y23308D01*
X25818Y23452D01*
X25818Y24949D01*
X25824Y24949D01*
X25916Y24987D01*
X25986Y25058D01*
X26024Y25150D01*
X26025Y25249D01*
X26025Y25599D01*
X25987Y25691D01*
X25928Y25750D01*
X25987Y25808D01*
X26025Y25900D01*
X26025Y26349D01*
X25987Y26441D01*
X25916Y26511D01*
X25824Y26549D01*
X25725Y26550D01*
X25612Y26550D01*
X25550Y26487D01*
X25550Y26175D01*
X25962Y26175D01*
X26025Y26237D01*
X26025Y26349D01*
X26025Y25900D01*
X26025Y26012D01*
X25962Y26075D01*
X25550Y26075D01*
X25550Y26067D01*
X25450Y26067D01*
X25450Y26075D01*
X25450Y26175D01*
X25450Y26487D01*
X25387Y26550D01*
X25274Y26550D01*
X25175Y26549D01*
X25083Y26511D01*
X25012Y26441D01*
X24974Y26349D01*
X24975Y26237D01*
X25037Y26175D01*
X25450Y26175D01*
X25450Y26075D01*
X25037Y26075D01*
X24975Y26012D01*
X24974Y25900D01*
X25012Y25808D01*
X25071Y25749D01*
X25013Y25691D01*
X24975Y25599D01*
X24974Y25500D01*
X24974Y25150D01*
X25012Y25058D01*
X25083Y24988D01*
X25175Y24950D01*
X25181Y24950D01*
X25181Y23452D01*
X25038Y23309D01*
X24954Y23108D01*
X24954Y22905D01*
X24194Y22145D01*
X24214Y22250D01*
X24171Y22466D01*
X24049Y22649D01*
X23899Y22750D01*
X24049Y22850D01*
X24171Y23033D01*
X24214Y23250D01*
X24171Y23466D01*
X24049Y23649D01*
X23899Y23750D01*
X24049Y23850D01*
X24171Y24033D01*
X24214Y24250D01*
X24171Y24466D01*
X24049Y24649D01*
X23899Y24750D01*
X24049Y24850D01*
X24171Y25033D01*
X24214Y25250D01*
X24171Y25466D01*
X24049Y25649D01*
X23895Y25752D01*
X23925Y25763D01*
X24089Y25910D01*
X24185Y26109D01*
X24185Y26112D01*
X24137Y26200D01*
X23628Y26200D01*
X23628Y26192D01*
X23528Y26192D01*
X23528Y26200D01*
X23520Y26200D01*
X23520Y26300D01*
X23528Y26300D01*
X23528Y26307D01*
X23628Y26307D01*
X23628Y26300D01*
X24137Y26300D01*
X24185Y26387D01*
X24185Y26390D01*
X24089Y26589D01*
X23925Y26736D01*
X23895Y26747D01*
X24049Y26850D01*
X24171Y27033D01*
X24214Y27250D01*
X24171Y27466D01*
X24049Y27649D01*
X23899Y27750D01*
X24049Y27850D01*
X24171Y28033D01*
X24180Y28076D01*
X24753Y27503D01*
X24753Y27503D01*
X24866Y27428D01*
X24954Y27410D01*
X24954Y27392D01*
X25037Y27191D01*
X25190Y27038D01*
X25391Y26954D01*
X25607Y26954D01*
X25808Y27037D01*
X25961Y27190D01*
X26045Y27391D01*
X26045Y27607D01*
X25962Y27808D01*
X25809Y27961D01*
X25608Y28045D01*
X25423Y28045D01*
X25423Y28045D01*
X25383Y28071D01*
X25361Y28076D01*
X25250Y28098D01*
X25249Y28098D01*
X25144Y28098D01*
X24673Y28569D01*
X24716Y28578D01*
X24899Y28700D01*
X25000Y28850D01*
X25100Y28700D01*
X25283Y28578D01*
X25500Y28535D01*
X25716Y28578D01*
X25899Y28700D01*
X26000Y28850D01*
X26100Y28700D01*
X26283Y28578D01*
X26500Y28535D01*
X26716Y28578D01*
X26899Y28700D01*
X27000Y28850D01*
X27100Y28700D01*
X27283Y28578D01*
X27500Y28535D01*
X27681Y28571D01*
X27681Y27750D01*
X27705Y27627D01*
X27709Y27621D01*
X27709Y27621D01*
X27704Y27608D01*
X27704Y27392D01*
X27787Y27191D01*
X27940Y27038D01*
X28141Y26954D01*
X28357Y26954D01*
X28558Y27037D01*
X28702Y27181D01*
X29199Y27181D01*
X29199Y27175D01*
X29237Y27083D01*
X29308Y27013D01*
X29400Y26975D01*
X29499Y26974D01*
X29849Y26974D01*
X29941Y27012D01*
X30000Y27071D01*
X30058Y27012D01*
X30150Y26974D01*
X30262Y26975D01*
X30325Y27037D01*
X30325Y27450D01*
X30317Y27450D01*
X30317Y27550D01*
X30325Y27550D01*
X30325Y27962D01*
X30262Y28025D01*
X30150Y28025D01*
X30058Y27987D01*
X29999Y27928D01*
X29941Y27986D01*
X29849Y28024D01*
X29750Y28025D01*
X29400Y28025D01*
X29308Y27987D01*
X29238Y27916D01*
X29200Y27824D01*
X29200Y27818D01*
X28702Y27818D01*
X28559Y27961D01*
X28358Y28045D01*
X28318Y28045D01*
X28318Y28571D01*
X28500Y28535D01*
X28716Y28578D01*
X28899Y28700D01*
X29000Y28850D01*
X29100Y28700D01*
X29283Y28578D01*
X29500Y28535D01*
X29716Y28578D01*
X29899Y28700D01*
X30002Y28854D01*
X30013Y28824D01*
X30160Y28660D01*
X30359Y28564D01*
X30362Y28564D01*
X30450Y28612D01*
X30450Y29121D01*
X30442Y29121D01*
X30442Y29221D01*
X30450Y29221D01*
X30450Y29229D01*
X30550Y29229D01*
X30550Y29221D01*
X30557Y29221D01*
X30557Y29121D01*
X30550Y29121D01*
X30550Y28612D01*
X30637Y28564D01*
X30640Y28564D01*
X30839Y28660D01*
X30986Y28824D01*
X30997Y28854D01*
X31100Y28700D01*
X31283Y28578D01*
X31500Y28535D01*
X31716Y28578D01*
X31899Y28700D01*
X32000Y28850D01*
X32100Y28700D01*
X32151Y28666D01*
X32151Y28644D01*
X31802Y28295D01*
X31642Y28295D01*
X31441Y28212D01*
X31288Y28059D01*
X31204Y27858D01*
X31204Y27642D01*
X31287Y27441D01*
X31440Y27288D01*
X31641Y27204D01*
X31857Y27204D01*
X32058Y27287D01*
X32211Y27440D01*
X32295Y27641D01*
X32295Y27802D01*
X32746Y28253D01*
X32746Y28253D01*
X32746Y28253D01*
X32802Y28337D01*
X32785Y28250D01*
X32828Y28033D01*
X32950Y27850D01*
X33100Y27750D01*
X32950Y27649D01*
X32828Y27466D01*
X32785Y27250D01*
X32828Y27033D01*
X32950Y26850D01*
X33100Y26750D01*
X32950Y26649D01*
X32828Y26466D01*
X32785Y26250D01*
X32821Y26068D01*
X32750Y26068D01*
X32627Y26044D01*
X32576Y26010D01*
X32524Y25975D01*
X31844Y25295D01*
X31642Y25295D01*
X31441Y25212D01*
X31288Y25059D01*
X31204Y24858D01*
X31204Y24642D01*
X31287Y24441D01*
X31401Y24327D01*
X31401Y24290D01*
X31333Y24262D01*
X31263Y24191D01*
X31225Y24099D01*
X31224Y24000D01*
X31224Y23650D01*
X31262Y23558D01*
X31321Y23500D01*
X31262Y23441D01*
X31224Y23349D01*
X31225Y23237D01*
X31287Y23175D01*
X31700Y23175D01*
X31700Y23182D01*
X31800Y23182D01*
X31800Y23175D01*
X32212Y23175D01*
X32275Y23237D01*
X32275Y23349D01*
X32237Y23441D01*
X32178Y23500D01*
X32236Y23558D01*
X32274Y23650D01*
X32275Y23749D01*
X32275Y24099D01*
X32237Y24191D01*
X32166Y24261D01*
X32098Y24290D01*
X32098Y24327D01*
X32211Y24440D01*
X32295Y24641D01*
X32295Y24844D01*
X32805Y25354D01*
X32785Y25250D01*
X32828Y25033D01*
X32950Y24850D01*
X33100Y24750D01*
X32950Y24649D01*
X32828Y24466D01*
X32785Y24250D01*
X32828Y24033D01*
X32950Y23850D01*
X33100Y23750D01*
X32950Y23649D01*
X32828Y23466D01*
X32785Y23250D01*
X32828Y23033D01*
X32950Y22850D01*
X33100Y22750D01*
X32950Y22649D01*
X32828Y22466D01*
X32785Y22250D01*
X32828Y22033D01*
X32950Y21850D01*
X33104Y21747D01*
X33074Y21736D01*
X32910Y21589D01*
X32814Y21390D01*
X32814Y21387D01*
X32862Y21300D01*
X33371Y21300D01*
X33371Y21307D01*
X33471Y21307D01*
X33471Y21300D01*
X33479Y21300D01*
X33479Y21200D01*
X33479Y21200D01*
G37*
G54D47*
X33479Y21200D02*
X33471Y21200D01*
X33471Y21192D01*
X33371Y21192D01*
X33371Y21200D01*
X32862Y21200D01*
X32814Y21112D01*
X32814Y21109D01*
X32910Y20910D01*
X33074Y20763D01*
X33104Y20752D01*
X32950Y20649D01*
X32828Y20466D01*
X32812Y20388D01*
X32795Y20405D01*
X32795Y20607D01*
X32712Y20808D01*
X32559Y20961D01*
X32358Y21045D01*
X32275Y21045D01*
X32275Y22900D01*
X32275Y23012D01*
X32212Y23075D01*
X31800Y23075D01*
X31800Y22762D01*
X31862Y22700D01*
X31975Y22699D01*
X32074Y22700D01*
X32166Y22738D01*
X32237Y22808D01*
X32275Y22900D01*
X32275Y21045D01*
X32142Y21045D01*
X31941Y20962D01*
X31788Y20809D01*
X31704Y20608D01*
X31704Y20392D01*
X31787Y20191D01*
X31940Y20038D01*
X32141Y19954D01*
X32344Y19954D01*
X32361Y19937D01*
X32283Y19921D01*
X32100Y19799D01*
X32000Y19649D01*
X31899Y19799D01*
X31716Y19921D01*
X31700Y19925D01*
X31700Y22762D01*
X31700Y23075D01*
X31287Y23075D01*
X31225Y23012D01*
X31224Y22900D01*
X31262Y22808D01*
X31333Y22738D01*
X31425Y22700D01*
X31524Y22699D01*
X31637Y22700D01*
X31700Y22762D01*
X31700Y19925D01*
X31500Y19964D01*
X31283Y19921D01*
X31100Y19799D01*
X31000Y19649D01*
X30899Y19799D01*
X30800Y19865D01*
X30800Y27274D01*
X30800Y27725D01*
X30799Y27824D01*
X30761Y27916D01*
X30691Y27987D01*
X30599Y28025D01*
X30487Y28025D01*
X30425Y27962D01*
X30425Y27550D01*
X30737Y27550D01*
X30800Y27612D01*
X30800Y27725D01*
X30800Y27274D01*
X30800Y27387D01*
X30737Y27450D01*
X30425Y27450D01*
X30425Y27037D01*
X30487Y26975D01*
X30599Y26974D01*
X30691Y27012D01*
X30761Y27083D01*
X30799Y27175D01*
X30800Y27274D01*
X30800Y19865D01*
X30716Y19921D01*
X30500Y19964D01*
X30283Y19921D01*
X30100Y19799D01*
X30000Y19649D01*
X29899Y19799D01*
X29716Y19921D01*
X29500Y19964D01*
X29283Y19921D01*
X29100Y19799D01*
X29000Y19649D01*
X28899Y19799D01*
X28716Y19921D01*
X28500Y19964D01*
X28283Y19921D01*
X28100Y19799D01*
X27997Y19645D01*
X27986Y19675D01*
X27839Y19839D01*
X27800Y19858D01*
X27800Y20774D01*
X27800Y21225D01*
X27799Y21324D01*
X27761Y21416D01*
X27691Y21487D01*
X27599Y21525D01*
X27487Y21525D01*
X27425Y21462D01*
X27425Y21050D01*
X27737Y21050D01*
X27800Y21112D01*
X27800Y21225D01*
X27800Y20774D01*
X27800Y20887D01*
X27737Y20950D01*
X27425Y20950D01*
X27425Y20537D01*
X27487Y20475D01*
X27599Y20474D01*
X27691Y20512D01*
X27761Y20583D01*
X27799Y20675D01*
X27800Y20774D01*
X27800Y19858D01*
X27640Y19935D01*
X27637Y19935D01*
X27550Y19887D01*
X27550Y19378D01*
X27557Y19378D01*
X27557Y19278D01*
X27550Y19278D01*
X27550Y19270D01*
X27450Y19270D01*
X27450Y19278D01*
X27442Y19278D01*
X27442Y19378D01*
X27450Y19378D01*
X27450Y19887D01*
X27362Y19935D01*
X27359Y19935D01*
X27160Y19839D01*
X27013Y19675D01*
X27002Y19645D01*
X26899Y19799D01*
X26716Y19921D01*
X26500Y19964D01*
X26283Y19921D01*
X26100Y19799D01*
X26000Y19649D01*
X25907Y19787D01*
X25907Y20081D01*
X26030Y20204D01*
X26107Y20204D01*
X26308Y20287D01*
X26461Y20440D01*
X26476Y20474D01*
X26499Y20474D01*
X26849Y20474D01*
X26941Y20512D01*
X27000Y20571D01*
X27058Y20512D01*
X27150Y20474D01*
X27262Y20475D01*
X27325Y20537D01*
X27325Y20950D01*
X27317Y20950D01*
X27317Y21050D01*
X27325Y21050D01*
X27325Y21462D01*
X27262Y21525D01*
X27150Y21525D01*
X27058Y21487D01*
X26999Y21428D01*
X26941Y21486D01*
X26849Y21524D01*
X26750Y21525D01*
X26400Y21525D01*
X26308Y21487D01*
X26238Y21416D01*
X26232Y21404D01*
X26094Y21376D01*
X25972Y21295D01*
X25972Y21295D01*
X25892Y21295D01*
X25691Y21212D01*
X25538Y21059D01*
X25454Y20858D01*
X25454Y20781D01*
X25211Y20538D01*
X25123Y20405D01*
X25092Y20250D01*
X25092Y20249D01*
X25092Y19787D01*
X25000Y19649D01*
X24899Y19799D01*
X24716Y19921D01*
X24500Y19964D01*
X24283Y19921D01*
X24100Y19799D01*
X23978Y19616D01*
X23972Y19589D01*
X23840Y19722D01*
X23866Y19728D01*
X24049Y19850D01*
X24171Y20033D01*
X24214Y20250D01*
X24171Y20466D01*
X24049Y20649D01*
X23899Y20750D01*
X24049Y20850D01*
X24171Y21033D01*
X24214Y21250D01*
X24178Y21431D01*
X24250Y21431D01*
X24250Y21431D01*
X24372Y21455D01*
X24372Y21455D01*
X24475Y21524D01*
X25405Y22454D01*
X25607Y22454D01*
X25808Y22537D01*
X25961Y22690D01*
X26045Y22891D01*
X26045Y23107D01*
X25962Y23308D01*
X25818Y23452D01*
X25818Y24949D01*
X25824Y24949D01*
X25916Y24987D01*
X25986Y25058D01*
X26024Y25150D01*
X26025Y25249D01*
X26025Y25599D01*
X25987Y25691D01*
X25928Y25750D01*
X25987Y25808D01*
X26025Y25900D01*
X26025Y26349D01*
X25987Y26441D01*
X25916Y26511D01*
X25824Y26549D01*
X25725Y26550D01*
X25612Y26550D01*
X25550Y26487D01*
X25550Y26175D01*
X25962Y26175D01*
X26025Y26237D01*
X26025Y26349D01*
X26025Y25900D01*
X26025Y26012D01*
X25962Y26075D01*
X25550Y26075D01*
X25550Y26067D01*
X25450Y26067D01*
X25450Y26075D01*
X25450Y26175D01*
X25450Y26487D01*
X25387Y26550D01*
X25274Y26550D01*
X25175Y26549D01*
X25083Y26511D01*
X25012Y26441D01*
X24974Y26349D01*
X24975Y26237D01*
X25037Y26175D01*
X25450Y26175D01*
X25450Y26075D01*
X25037Y26075D01*
X24975Y26012D01*
X24974Y25900D01*
X25012Y25808D01*
X25071Y25749D01*
X25013Y25691D01*
X24975Y25599D01*
X24974Y25500D01*
X24974Y25150D01*
X25012Y25058D01*
X25083Y24988D01*
X25175Y24950D01*
X25181Y24950D01*
X25181Y23452D01*
X25038Y23309D01*
X24954Y23108D01*
X24954Y22905D01*
X24194Y22145D01*
X24214Y22250D01*
X24171Y22466D01*
X24049Y22649D01*
X23899Y22750D01*
X24049Y22850D01*
X24171Y23033D01*
X24214Y23250D01*
X24171Y23466D01*
X24049Y23649D01*
X23899Y23750D01*
X24049Y23850D01*
X24171Y24033D01*
X24214Y24250D01*
X24171Y24466D01*
X24049Y24649D01*
X23899Y24750D01*
X24049Y24850D01*
X24171Y25033D01*
X24214Y25250D01*
X24171Y25466D01*
X24049Y25649D01*
X23895Y25752D01*
X23925Y25763D01*
X24089Y25910D01*
X24185Y26109D01*
X24185Y26112D01*
X24137Y26200D01*
X23628Y26200D01*
X23628Y26192D01*
X23528Y26192D01*
X23528Y26200D01*
X23520Y26200D01*
X23520Y26300D01*
X23528Y26300D01*
X23528Y26307D01*
X23628Y26307D01*
X23628Y26300D01*
X24137Y26300D01*
X24185Y26387D01*
X24185Y26390D01*
X24089Y26589D01*
X23925Y26736D01*
X23895Y26747D01*
X24049Y26850D01*
X24171Y27033D01*
X24214Y27250D01*
X24171Y27466D01*
X24049Y27649D01*
X23899Y27750D01*
X24049Y27850D01*
X24171Y28033D01*
X24180Y28076D01*
X24753Y27503D01*
X24753Y27503D01*
X24866Y27428D01*
X24954Y27410D01*
X24954Y27392D01*
X25037Y27191D01*
X25190Y27038D01*
X25391Y26954D01*
X25607Y26954D01*
X25808Y27037D01*
X25961Y27190D01*
X26045Y27391D01*
X26045Y27607D01*
X25962Y27808D01*
X25809Y27961D01*
X25608Y28045D01*
X25423Y28045D01*
X25423Y28045D01*
X25383Y28071D01*
X25361Y28076D01*
X25250Y28098D01*
X25249Y28098D01*
X25144Y28098D01*
X24673Y28569D01*
X24716Y28578D01*
X24899Y28700D01*
X25000Y28850D01*
X25100Y28700D01*
X25283Y28578D01*
X25500Y28535D01*
X25716Y28578D01*
X25899Y28700D01*
X26000Y28850D01*
X26100Y28700D01*
X26283Y28578D01*
X26500Y28535D01*
X26716Y28578D01*
X26899Y28700D01*
X27000Y28850D01*
X27100Y28700D01*
X27283Y28578D01*
X27500Y28535D01*
X27681Y28571D01*
X27681Y27750D01*
X27705Y27627D01*
X27709Y27621D01*
X27709Y27621D01*
X27704Y27608D01*
X27704Y27392D01*
X27787Y27191D01*
X27940Y27038D01*
X28141Y26954D01*
X28357Y26954D01*
X28558Y27037D01*
X28702Y27181D01*
X29199Y27181D01*
X29199Y27175D01*
X29237Y27083D01*
X29308Y27013D01*
X29400Y26975D01*
X29499Y26974D01*
X29849Y26974D01*
X29941Y27012D01*
X30000Y27071D01*
X30058Y27012D01*
X30150Y26974D01*
X30262Y26975D01*
X30325Y27037D01*
X30325Y27450D01*
X30317Y27450D01*
X30317Y27550D01*
X30325Y27550D01*
X30325Y27962D01*
X30262Y28025D01*
X30150Y28025D01*
X30058Y27987D01*
X29999Y27928D01*
X29941Y27986D01*
X29849Y28024D01*
X29750Y28025D01*
X29400Y28025D01*
X29308Y27987D01*
X29238Y27916D01*
X29200Y27824D01*
X29200Y27818D01*
X28702Y27818D01*
X28559Y27961D01*
X28358Y28045D01*
X28318Y28045D01*
X28318Y28571D01*
X28500Y28535D01*
X28716Y28578D01*
X28899Y28700D01*
X29000Y28850D01*
X29100Y28700D01*
X29283Y28578D01*
X29500Y28535D01*
X29716Y28578D01*
X29899Y28700D01*
X30002Y28854D01*
X30013Y28824D01*
X30160Y28660D01*
X30359Y28564D01*
X30362Y28564D01*
X30450Y28612D01*
X30450Y29121D01*
X30442Y29121D01*
X30442Y29221D01*
X30450Y29221D01*
X30450Y29229D01*
X30550Y29229D01*
X30550Y29221D01*
X30557Y29221D01*
X30557Y29121D01*
X30550Y29121D01*
X30550Y28612D01*
X30637Y28564D01*
X30640Y28564D01*
X30839Y28660D01*
X30986Y28824D01*
X30997Y28854D01*
X31100Y28700D01*
X31283Y28578D01*
X31500Y28535D01*
X31716Y28578D01*
X31899Y28700D01*
X32000Y28850D01*
X32100Y28700D01*
X32151Y28666D01*
X32151Y28644D01*
X31802Y28295D01*
X31642Y28295D01*
X31441Y28212D01*
X31288Y28059D01*
X31204Y27858D01*
X31204Y27642D01*
X31287Y27441D01*
X31440Y27288D01*
X31641Y27204D01*
X31857Y27204D01*
X32058Y27287D01*
X32211Y27440D01*
X32295Y27641D01*
X32295Y27802D01*
X32746Y28253D01*
X32746Y28253D01*
X32746Y28253D01*
X32802Y28337D01*
X32785Y28250D01*
X32828Y28033D01*
X32950Y27850D01*
X33100Y27750D01*
X32950Y27649D01*
X32828Y27466D01*
X32785Y27250D01*
X32828Y27033D01*
X32950Y26850D01*
X33100Y26750D01*
X32950Y26649D01*
X32828Y26466D01*
X32785Y26250D01*
X32821Y26068D01*
X32750Y26068D01*
X32627Y26044D01*
X32576Y26010D01*
X32524Y25975D01*
X31844Y25295D01*
X31642Y25295D01*
X31441Y25212D01*
X31288Y25059D01*
X31204Y24858D01*
X31204Y24642D01*
X31287Y24441D01*
X31401Y24327D01*
X31401Y24290D01*
X31333Y24262D01*
X31263Y24191D01*
X31225Y24099D01*
X31224Y24000D01*
X31224Y23650D01*
X31262Y23558D01*
X31321Y23500D01*
X31262Y23441D01*
X31224Y23349D01*
X31225Y23237D01*
X31287Y23175D01*
X31700Y23175D01*
X31700Y23182D01*
X31800Y23182D01*
X31800Y23175D01*
X32212Y23175D01*
X32275Y23237D01*
X32275Y23349D01*
X32237Y23441D01*
X32178Y23500D01*
X32236Y23558D01*
X32274Y23650D01*
X32275Y23749D01*
X32275Y24099D01*
X32237Y24191D01*
X32166Y24261D01*
X32098Y24290D01*
X32098Y24327D01*
X32211Y24440D01*
X32295Y24641D01*
X32295Y24844D01*
X32805Y25354D01*
X32785Y25250D01*
X32828Y25033D01*
X32950Y24850D01*
X33100Y24750D01*
X32950Y24649D01*
X32828Y24466D01*
X32785Y24250D01*
X32828Y24033D01*
X32950Y23850D01*
X33100Y23750D01*
X32950Y23649D01*
X32828Y23466D01*
X32785Y23250D01*
X32828Y23033D01*
X32950Y22850D01*
X33100Y22750D01*
X32950Y22649D01*
X32828Y22466D01*
X32785Y22250D01*
X32828Y22033D01*
X32950Y21850D01*
X33104Y21747D01*
X33074Y21736D01*
X32910Y21589D01*
X32814Y21390D01*
X32814Y21387D01*
X32862Y21300D01*
X33371Y21300D01*
X33371Y21307D01*
X33471Y21307D01*
X33471Y21300D01*
X33479Y21300D01*
X33479Y21200D01*
G54D10*
G36*
X34262Y27752D02*
X34107Y27649D01*
X34000Y27487D01*
X33892Y27649D01*
X33741Y27750D01*
X33892Y27850D01*
X34010Y28028D01*
X34067Y27910D01*
X34232Y27763D01*
X34262Y27752D01*
X34262Y27752D01*
G37*
G54D47*
X34262Y27752D02*
X34107Y27649D01*
X34000Y27487D01*
X33892Y27649D01*
X33741Y27750D01*
X33892Y27850D01*
X34010Y28028D01*
X34067Y27910D01*
X34232Y27763D01*
X34262Y27752D01*
G54D10*
G36*
X37151Y25777D02*
X37108Y25795D01*
X36892Y25795D01*
X36691Y25712D01*
X36577Y25598D01*
X35750Y25598D01*
X35750Y25598D01*
X35616Y25571D01*
X35503Y25496D01*
X35503Y25496D01*
X35204Y25197D01*
X35214Y25250D01*
X35171Y25466D01*
X35049Y25649D01*
X34899Y25750D01*
X35049Y25850D01*
X35171Y26033D01*
X35214Y26250D01*
X35171Y26466D01*
X35049Y26649D01*
X34899Y26750D01*
X35049Y26850D01*
X35171Y27033D01*
X35214Y27250D01*
X35171Y27466D01*
X35049Y27649D01*
X34895Y27752D01*
X34925Y27763D01*
X35089Y27910D01*
X35185Y28109D01*
X35185Y28112D01*
X35137Y28200D01*
X34628Y28200D01*
X34628Y28192D01*
X34528Y28192D01*
X34528Y28200D01*
X34520Y28200D01*
X34520Y28300D01*
X34528Y28300D01*
X34528Y28307D01*
X34628Y28307D01*
X34628Y28300D01*
X35137Y28300D01*
X35185Y28387D01*
X35185Y28390D01*
X35089Y28589D01*
X34925Y28736D01*
X34895Y28747D01*
X35049Y28850D01*
X35083Y28901D01*
X35499Y28901D01*
X35500Y28901D01*
X35500Y28901D01*
X35611Y28923D01*
X35633Y28928D01*
X35633Y28928D01*
X35746Y29003D01*
X37151Y30408D01*
X37151Y25777D01*
X37151Y25777D01*
G37*
G54D47*
X37151Y25777D02*
X37108Y25795D01*
X36892Y25795D01*
X36691Y25712D01*
X36577Y25598D01*
X35750Y25598D01*
X35750Y25598D01*
X35616Y25571D01*
X35503Y25496D01*
X35503Y25496D01*
X35204Y25197D01*
X35214Y25250D01*
X35171Y25466D01*
X35049Y25649D01*
X34899Y25750D01*
X35049Y25850D01*
X35171Y26033D01*
X35214Y26250D01*
X35171Y26466D01*
X35049Y26649D01*
X34899Y26750D01*
X35049Y26850D01*
X35171Y27033D01*
X35214Y27250D01*
X35171Y27466D01*
X35049Y27649D01*
X34895Y27752D01*
X34925Y27763D01*
X35089Y27910D01*
X35185Y28109D01*
X35185Y28112D01*
X35137Y28200D01*
X34628Y28200D01*
X34628Y28192D01*
X34528Y28192D01*
X34528Y28200D01*
X34520Y28200D01*
X34520Y28300D01*
X34528Y28300D01*
X34528Y28307D01*
X34628Y28307D01*
X34628Y28300D01*
X35137Y28300D01*
X35185Y28387D01*
X35185Y28390D01*
X35089Y28589D01*
X34925Y28736D01*
X34895Y28747D01*
X35049Y28850D01*
X35083Y28901D01*
X35499Y28901D01*
X35500Y28901D01*
X35500Y28901D01*
X35611Y28923D01*
X35633Y28928D01*
X35633Y28928D01*
X35746Y29003D01*
X37151Y30408D01*
X37151Y25777D01*
G54D10*
G36*
X37151Y13944D02*
X36055Y12848D01*
X36021Y12848D01*
X36017Y12868D01*
X35895Y13049D01*
X35714Y13171D01*
X35500Y13213D01*
X35285Y13171D01*
X35104Y13049D01*
X35000Y12894D01*
X34895Y13049D01*
X34848Y13081D01*
X34848Y13150D01*
X34848Y13150D01*
X34848Y13150D01*
X34821Y13283D01*
X34746Y13396D01*
X34746Y13396D01*
X33500Y14642D01*
X33500Y15361D01*
X33500Y15950D01*
X32987Y15950D01*
X32928Y15851D01*
X33001Y15619D01*
X33159Y15432D01*
X33376Y15320D01*
X33403Y15314D01*
X33500Y15361D01*
X33500Y14642D01*
X32848Y15294D01*
X32848Y16105D01*
X32945Y16202D01*
X32928Y16148D01*
X32987Y16050D01*
X33500Y16050D01*
X33500Y16638D01*
X33403Y16685D01*
X33376Y16679D01*
X33329Y16655D01*
X33348Y16750D01*
X33348Y16750D01*
X33348Y16750D01*
X33348Y17250D01*
X33321Y17383D01*
X33318Y17387D01*
X33318Y17571D01*
X33500Y17535D01*
X33716Y17578D01*
X33899Y17700D01*
X34021Y17883D01*
X34064Y18099D01*
X34064Y18242D01*
X34044Y18343D01*
X34225Y18524D01*
X34225Y18524D01*
X34260Y18576D01*
X34294Y18627D01*
X34294Y18627D01*
X34313Y18723D01*
X34507Y18685D01*
X34650Y18685D01*
X34866Y18728D01*
X35049Y18850D01*
X35083Y18901D01*
X35750Y18901D01*
X36905Y18901D01*
X37151Y18655D01*
X37151Y17857D01*
X36966Y17934D01*
X36734Y17934D01*
X36519Y17845D01*
X36371Y17698D01*
X35000Y17698D01*
X35000Y17698D01*
X34866Y17671D01*
X34753Y17596D01*
X34753Y17596D01*
X34303Y17146D01*
X34228Y17033D01*
X34223Y17011D01*
X34201Y16900D01*
X34201Y16899D01*
X34201Y16595D01*
X34108Y16533D01*
X34047Y16441D01*
X33940Y16567D01*
X33723Y16679D01*
X33696Y16685D01*
X33600Y16638D01*
X33600Y16050D01*
X33607Y16050D01*
X33607Y15950D01*
X33600Y15950D01*
X33600Y15361D01*
X33696Y15314D01*
X33723Y15320D01*
X33940Y15432D01*
X34047Y15558D01*
X34108Y15466D01*
X34311Y15330D01*
X34550Y15283D01*
X34788Y15330D01*
X34991Y15466D01*
X35126Y15668D01*
X35174Y15907D01*
X35174Y16092D01*
X35126Y16331D01*
X34991Y16533D01*
X34898Y16595D01*
X34898Y16755D01*
X35144Y17001D01*
X36371Y17001D01*
X36518Y16854D01*
X36733Y16765D01*
X36965Y16765D01*
X37151Y16842D01*
X37151Y13944D01*
X37151Y13944D01*
G37*
G54D47*
X37151Y13944D02*
X36055Y12848D01*
X36021Y12848D01*
X36017Y12868D01*
X35895Y13049D01*
X35714Y13171D01*
X35500Y13213D01*
X35285Y13171D01*
X35104Y13049D01*
X35000Y12894D01*
X34895Y13049D01*
X34848Y13081D01*
X34848Y13150D01*
X34848Y13150D01*
X34848Y13150D01*
X34821Y13283D01*
X34746Y13396D01*
X34746Y13396D01*
X33500Y14642D01*
X33500Y15361D01*
X33500Y15950D01*
X32987Y15950D01*
X32928Y15851D01*
X33001Y15619D01*
X33159Y15432D01*
X33376Y15320D01*
X33403Y15314D01*
X33500Y15361D01*
X33500Y14642D01*
X32848Y15294D01*
X32848Y16105D01*
X32945Y16202D01*
X32928Y16148D01*
X32987Y16050D01*
X33500Y16050D01*
X33500Y16638D01*
X33403Y16685D01*
X33376Y16679D01*
X33329Y16655D01*
X33348Y16750D01*
X33348Y16750D01*
X33348Y16750D01*
X33348Y17250D01*
X33321Y17383D01*
X33318Y17387D01*
X33318Y17571D01*
X33500Y17535D01*
X33716Y17578D01*
X33899Y17700D01*
X34021Y17883D01*
X34064Y18099D01*
X34064Y18242D01*
X34044Y18343D01*
X34225Y18524D01*
X34225Y18524D01*
X34260Y18576D01*
X34294Y18627D01*
X34294Y18627D01*
X34313Y18723D01*
X34507Y18685D01*
X34650Y18685D01*
X34866Y18728D01*
X35049Y18850D01*
X35083Y18901D01*
X35750Y18901D01*
X36905Y18901D01*
X37151Y18655D01*
X37151Y17857D01*
X36966Y17934D01*
X36734Y17934D01*
X36519Y17845D01*
X36371Y17698D01*
X35000Y17698D01*
X35000Y17698D01*
X34866Y17671D01*
X34753Y17596D01*
X34753Y17596D01*
X34303Y17146D01*
X34228Y17033D01*
X34223Y17011D01*
X34201Y16900D01*
X34201Y16899D01*
X34201Y16595D01*
X34108Y16533D01*
X34047Y16441D01*
X33940Y16567D01*
X33723Y16679D01*
X33696Y16685D01*
X33600Y16638D01*
X33600Y16050D01*
X33607Y16050D01*
X33607Y15950D01*
X33600Y15950D01*
X33600Y15361D01*
X33696Y15314D01*
X33723Y15320D01*
X33940Y15432D01*
X34047Y15558D01*
X34108Y15466D01*
X34311Y15330D01*
X34550Y15283D01*
X34788Y15330D01*
X34991Y15466D01*
X35126Y15668D01*
X35174Y15907D01*
X35174Y16092D01*
X35126Y16331D01*
X34991Y16533D01*
X34898Y16595D01*
X34898Y16755D01*
X35144Y17001D01*
X36371Y17001D01*
X36518Y16854D01*
X36733Y16765D01*
X36965Y16765D01*
X37151Y16842D01*
X37151Y13944D01*
G54D10*
G36*
X38980Y34012D02*
X38800Y34192D01*
X38800Y53707D01*
X38640Y54094D01*
X38345Y54389D01*
X37959Y54549D01*
X37542Y54550D01*
X37156Y54390D01*
X36860Y54095D01*
X36700Y53709D01*
X36699Y53292D01*
X36859Y52906D01*
X37154Y52610D01*
X37540Y52450D01*
X37957Y52449D01*
X38344Y52609D01*
X38639Y52904D01*
X38799Y53290D01*
X38800Y53707D01*
X38800Y34192D01*
X37746Y35246D01*
X37633Y35321D01*
X37611Y35326D01*
X37500Y35348D01*
X37499Y35348D01*
X37314Y35348D01*
X37310Y35348D01*
X37310Y36060D01*
X37310Y36200D01*
X37310Y36300D01*
X37310Y36440D01*
X37300Y36473D01*
X37300Y40774D01*
X37300Y41225D01*
X37299Y41324D01*
X37261Y41416D01*
X37191Y41487D01*
X37099Y41525D01*
X36987Y41525D01*
X36925Y41462D01*
X36925Y41050D01*
X37237Y41050D01*
X37300Y41112D01*
X37300Y41225D01*
X37300Y40774D01*
X37300Y40887D01*
X37237Y40950D01*
X36925Y40950D01*
X36925Y40537D01*
X36987Y40475D01*
X37099Y40474D01*
X37191Y40512D01*
X37261Y40583D01*
X37299Y40675D01*
X37300Y40774D01*
X37300Y36473D01*
X37248Y36650D01*
X37110Y36821D01*
X36918Y36926D01*
X36886Y36933D01*
X36800Y36884D01*
X36800Y36300D01*
X37310Y36300D01*
X37310Y36200D01*
X36800Y36200D01*
X36800Y35615D01*
X36886Y35566D01*
X36918Y35573D01*
X37110Y35678D01*
X37248Y35849D01*
X37310Y36060D01*
X37310Y35348D01*
X33644Y35348D01*
X33598Y35394D01*
X33598Y35500D01*
X33584Y35569D01*
X33750Y35536D01*
X33964Y35578D01*
X34145Y35700D01*
X34250Y35855D01*
X34354Y35700D01*
X34535Y35578D01*
X34750Y35536D01*
X34964Y35578D01*
X35145Y35700D01*
X35250Y35855D01*
X35354Y35700D01*
X35535Y35578D01*
X35750Y35536D01*
X35964Y35578D01*
X36145Y35700D01*
X36249Y35855D01*
X36251Y35849D01*
X36389Y35678D01*
X36581Y35573D01*
X36613Y35566D01*
X36700Y35615D01*
X36700Y36200D01*
X36692Y36200D01*
X36692Y36300D01*
X36700Y36300D01*
X36700Y36884D01*
X36613Y36933D01*
X36581Y36926D01*
X36389Y36821D01*
X36251Y36650D01*
X36249Y36644D01*
X36145Y36799D01*
X36098Y36831D01*
X36098Y38500D01*
X36071Y38633D01*
X35996Y38746D01*
X35996Y38746D01*
X34996Y39746D01*
X34883Y39821D01*
X34861Y39826D01*
X34750Y39848D01*
X34749Y39848D01*
X34341Y39848D01*
X34996Y40503D01*
X34996Y40503D01*
X34996Y40503D01*
X35071Y40616D01*
X35098Y40749D01*
X35098Y40750D01*
X35098Y40750D01*
X35098Y41668D01*
X35145Y41700D01*
X35250Y41855D01*
X35342Y41717D01*
X35342Y41500D01*
X35342Y41500D01*
X35373Y41344D01*
X35461Y41211D01*
X35699Y40973D01*
X35699Y40675D01*
X35737Y40583D01*
X35808Y40513D01*
X35900Y40475D01*
X35999Y40474D01*
X36349Y40474D01*
X36441Y40512D01*
X36500Y40571D01*
X36558Y40512D01*
X36650Y40474D01*
X36762Y40475D01*
X36825Y40537D01*
X36825Y40950D01*
X36817Y40950D01*
X36817Y41050D01*
X36825Y41050D01*
X36825Y41462D01*
X36762Y41525D01*
X36650Y41525D01*
X36558Y41487D01*
X36499Y41428D01*
X36441Y41486D01*
X36349Y41524D01*
X36301Y41524D01*
X36157Y41668D01*
X36157Y41717D01*
X36241Y41842D01*
X36258Y41842D01*
X36354Y41700D01*
X36535Y41578D01*
X36750Y41536D01*
X36964Y41578D01*
X37145Y41700D01*
X37267Y41881D01*
X37310Y42096D01*
X37310Y42403D01*
X37310Y44560D01*
X37310Y44700D01*
X37310Y44800D01*
X37310Y44940D01*
X37248Y45150D01*
X37110Y45321D01*
X36918Y45426D01*
X36886Y45433D01*
X36800Y45384D01*
X36800Y44800D01*
X37310Y44800D01*
X37310Y44700D01*
X36800Y44700D01*
X36800Y44115D01*
X36886Y44066D01*
X36918Y44073D01*
X37110Y44178D01*
X37248Y44349D01*
X37310Y44560D01*
X37310Y42403D01*
X37267Y42618D01*
X37145Y42799D01*
X36964Y42921D01*
X36750Y42963D01*
X36535Y42921D01*
X36354Y42799D01*
X36258Y42657D01*
X36241Y42657D01*
X36145Y42799D01*
X35964Y42921D01*
X35750Y42963D01*
X35718Y42957D01*
X35795Y43141D01*
X35795Y43357D01*
X35777Y43401D01*
X35827Y43401D01*
X35940Y43288D01*
X36141Y43204D01*
X36357Y43204D01*
X36558Y43287D01*
X36711Y43440D01*
X36795Y43641D01*
X36795Y43857D01*
X36712Y44058D01*
X36671Y44099D01*
X36700Y44115D01*
X36700Y44700D01*
X36692Y44700D01*
X36692Y44800D01*
X36700Y44800D01*
X36700Y45384D01*
X36613Y45433D01*
X36581Y45426D01*
X36389Y45321D01*
X36251Y45150D01*
X36249Y45144D01*
X36145Y45299D01*
X35964Y45421D01*
X35750Y45463D01*
X35535Y45421D01*
X35354Y45299D01*
X35250Y45144D01*
X35145Y45299D01*
X35098Y45331D01*
X35098Y45749D01*
X35098Y45750D01*
X35098Y45750D01*
X35071Y45883D01*
X34996Y45996D01*
X34996Y45996D01*
X34496Y46496D01*
X34383Y46571D01*
X34361Y46576D01*
X34250Y46598D01*
X34249Y46598D01*
X30000Y46598D01*
X29999Y46598D01*
X29866Y46571D01*
X29753Y46496D01*
X29753Y46496D01*
X29075Y45817D01*
X29075Y47287D01*
X29075Y47700D01*
X29075Y47800D01*
X29075Y48212D01*
X29012Y48275D01*
X28900Y48275D01*
X28808Y48237D01*
X28738Y48166D01*
X28700Y48074D01*
X28700Y48024D01*
X28700Y48954D01*
X28700Y49542D01*
X28314Y49542D01*
X28185Y49542D01*
X27800Y49542D01*
X27800Y48954D01*
X27887Y48906D01*
X27920Y48913D01*
X28114Y49019D01*
X28250Y49188D01*
X28385Y49019D01*
X28579Y48913D01*
X28612Y48906D01*
X28700Y48954D01*
X28700Y48024D01*
X28699Y47975D01*
X28700Y47862D01*
X28762Y47800D01*
X29075Y47800D01*
X29075Y47700D01*
X28762Y47700D01*
X28700Y47637D01*
X28699Y47524D01*
X28700Y47425D01*
X28738Y47333D01*
X28808Y47262D01*
X28900Y47224D01*
X29012Y47225D01*
X29075Y47287D01*
X29075Y45817D01*
X27700Y44442D01*
X27700Y48954D01*
X27700Y49542D01*
X27314Y49542D01*
X27185Y49542D01*
X26800Y49542D01*
X26800Y48954D01*
X26887Y48906D01*
X26920Y48913D01*
X27114Y49019D01*
X27250Y49188D01*
X27385Y49019D01*
X27579Y48913D01*
X27612Y48906D01*
X27700Y48954D01*
X27700Y44442D01*
X27310Y44052D01*
X27310Y44560D01*
X27310Y44700D01*
X27310Y44800D01*
X27310Y44940D01*
X27248Y45150D01*
X27110Y45321D01*
X26918Y45426D01*
X26886Y45433D01*
X26800Y45384D01*
X26800Y44800D01*
X27310Y44800D01*
X27310Y44700D01*
X26800Y44700D01*
X26800Y44115D01*
X26886Y44066D01*
X26918Y44073D01*
X27110Y44178D01*
X27248Y44349D01*
X27310Y44560D01*
X27310Y44052D01*
X26503Y43246D01*
X26428Y43133D01*
X26423Y43111D01*
X26401Y43000D01*
X26401Y42999D01*
X26401Y42831D01*
X26354Y42799D01*
X26250Y42644D01*
X26145Y42799D01*
X26098Y42831D01*
X26098Y43249D01*
X26098Y43250D01*
X26098Y43250D01*
X26071Y43383D01*
X25996Y43496D01*
X25996Y43496D01*
X25496Y43996D01*
X25383Y44071D01*
X25361Y44076D01*
X25250Y44098D01*
X25249Y44098D01*
X24993Y44098D01*
X25145Y44200D01*
X25250Y44355D01*
X25354Y44200D01*
X25535Y44078D01*
X25750Y44036D01*
X25964Y44078D01*
X26145Y44200D01*
X26249Y44355D01*
X26251Y44349D01*
X26389Y44178D01*
X26581Y44073D01*
X26613Y44066D01*
X26700Y44115D01*
X26700Y44700D01*
X26692Y44700D01*
X26692Y44800D01*
X26700Y44800D01*
X26700Y45384D01*
X26613Y45433D01*
X26581Y45426D01*
X26389Y45321D01*
X26251Y45150D01*
X26249Y45144D01*
X26145Y45299D01*
X26098Y45331D01*
X26098Y45605D01*
X26996Y46503D01*
X26996Y46503D01*
X26996Y46503D01*
X27071Y46616D01*
X27098Y46750D01*
X27098Y47168D01*
X27145Y47200D01*
X27267Y47381D01*
X27310Y47596D01*
X27310Y47903D01*
X27267Y48118D01*
X27145Y48299D01*
X26964Y48421D01*
X26750Y48463D01*
X26535Y48421D01*
X26354Y48299D01*
X26250Y48144D01*
X26145Y48299D01*
X26068Y48351D01*
X26068Y48367D01*
X26475Y48774D01*
X26475Y48774D01*
X26510Y48826D01*
X26544Y48877D01*
X26544Y48877D01*
X26554Y48927D01*
X26579Y48913D01*
X26612Y48906D01*
X26700Y48954D01*
X26700Y49542D01*
X26692Y49542D01*
X26692Y49642D01*
X26700Y49642D01*
X26700Y49650D01*
X26800Y49650D01*
X26800Y49642D01*
X27185Y49642D01*
X27314Y49642D01*
X27700Y49642D01*
X27700Y49650D01*
X27800Y49650D01*
X27800Y49642D01*
X28185Y49642D01*
X28314Y49642D01*
X28700Y49642D01*
X28700Y49650D01*
X28800Y49650D01*
X28800Y49642D01*
X28807Y49642D01*
X28807Y49542D01*
X28800Y49542D01*
X28800Y48954D01*
X28887Y48906D01*
X28920Y48913D01*
X28945Y48927D01*
X28955Y48877D01*
X29024Y48774D01*
X29524Y48274D01*
X29524Y48274D01*
X29572Y48242D01*
X29558Y48237D01*
X29500Y48178D01*
X29441Y48237D01*
X29349Y48275D01*
X29237Y48275D01*
X29175Y48212D01*
X29175Y47800D01*
X29182Y47800D01*
X29182Y47700D01*
X29175Y47700D01*
X29175Y47287D01*
X29237Y47225D01*
X29349Y47224D01*
X29441Y47262D01*
X29500Y47321D01*
X29558Y47263D01*
X29650Y47225D01*
X29749Y47224D01*
X30099Y47224D01*
X30191Y47262D01*
X30261Y47333D01*
X30263Y47336D01*
X30354Y47200D01*
X30535Y47078D01*
X30750Y47036D01*
X30964Y47078D01*
X31145Y47200D01*
X31250Y47355D01*
X31354Y47200D01*
X31535Y47078D01*
X31750Y47036D01*
X31964Y47078D01*
X32145Y47200D01*
X32250Y47355D01*
X32354Y47200D01*
X32535Y47078D01*
X32750Y47036D01*
X32964Y47078D01*
X33145Y47200D01*
X33250Y47355D01*
X33354Y47200D01*
X33535Y47078D01*
X33750Y47036D01*
X33964Y47078D01*
X34145Y47200D01*
X34250Y47355D01*
X34354Y47200D01*
X34535Y47078D01*
X34750Y47036D01*
X34964Y47078D01*
X35145Y47200D01*
X35250Y47355D01*
X35354Y47200D01*
X35535Y47078D01*
X35750Y47036D01*
X35964Y47078D01*
X36145Y47200D01*
X36250Y47355D01*
X36354Y47200D01*
X36535Y47078D01*
X36750Y47036D01*
X36964Y47078D01*
X37145Y47200D01*
X37267Y47381D01*
X37310Y47596D01*
X37310Y47903D01*
X37267Y48118D01*
X37145Y48299D01*
X37068Y48351D01*
X37068Y48500D01*
X37044Y48622D01*
X37044Y48622D01*
X37010Y48673D01*
X36975Y48725D01*
X36975Y48725D01*
X36800Y48900D01*
X36800Y48954D01*
X36887Y48906D01*
X36920Y48913D01*
X37114Y49019D01*
X37252Y49192D01*
X37314Y49404D01*
X37314Y49542D01*
X36800Y49542D01*
X36800Y49534D01*
X36700Y49534D01*
X36700Y49542D01*
X36692Y49542D01*
X36692Y49642D01*
X36700Y49642D01*
X36700Y49650D01*
X36800Y49650D01*
X36800Y49642D01*
X37314Y49642D01*
X37314Y49780D01*
X37252Y49992D01*
X37114Y50165D01*
X36976Y50240D01*
X37149Y50356D01*
X37271Y50539D01*
X37314Y50755D01*
X37314Y51059D01*
X37271Y51275D01*
X37227Y51342D01*
X37331Y51342D01*
X37592Y51081D01*
X37592Y49502D01*
X37454Y49365D01*
X37356Y49128D01*
X37356Y48872D01*
X37453Y48635D01*
X37634Y48454D01*
X37871Y48356D01*
X38127Y48356D01*
X38364Y48453D01*
X38545Y48634D01*
X38643Y48871D01*
X38643Y49127D01*
X38546Y49364D01*
X38407Y49502D01*
X38407Y51249D01*
X38407Y51250D01*
X38407Y51250D01*
X38376Y51405D01*
X38376Y51405D01*
X38341Y51458D01*
X38288Y51538D01*
X38288Y51538D01*
X37788Y52038D01*
X37655Y52126D01*
X37500Y52157D01*
X37499Y52157D01*
X36168Y52157D01*
X34163Y54163D01*
X34030Y54251D01*
X33875Y54282D01*
X33874Y54282D01*
X17875Y54282D01*
X17875Y54282D01*
X17719Y54251D01*
X17586Y54163D01*
X17586Y54163D01*
X17258Y53834D01*
X17134Y53834D01*
X16919Y53745D01*
X16830Y53657D01*
X16419Y53657D01*
X16331Y53745D01*
X16116Y53834D01*
X15884Y53834D01*
X15669Y53745D01*
X15580Y53657D01*
X15169Y53657D01*
X15081Y53745D01*
X14866Y53834D01*
X14634Y53834D01*
X14419Y53745D01*
X14330Y53657D01*
X13919Y53657D01*
X13831Y53745D01*
X13616Y53834D01*
X13384Y53834D01*
X13288Y53795D01*
X12750Y53795D01*
X12749Y53795D01*
X12541Y53753D01*
X12364Y53635D01*
X12364Y53635D01*
X12364Y53635D01*
X10764Y52035D01*
X10646Y51858D01*
X10604Y51650D01*
X10604Y51395D01*
X7922Y51395D01*
X7922Y53023D01*
X7922Y53476D01*
X7911Y53524D01*
X7722Y53925D01*
X7394Y54223D01*
X6977Y54373D01*
X6800Y54323D01*
X6800Y53300D01*
X7881Y53300D01*
X7922Y53476D01*
X7922Y53023D01*
X7881Y53200D01*
X6800Y53200D01*
X6800Y52176D01*
X6977Y52126D01*
X7394Y52276D01*
X7722Y52574D01*
X7911Y52975D01*
X7922Y53023D01*
X7922Y51395D01*
X7888Y51395D01*
X7715Y51653D01*
X7347Y51899D01*
X6912Y51985D01*
X6587Y51985D01*
X6152Y51899D01*
X5924Y51747D01*
X5988Y52070D01*
X5988Y52382D01*
X6105Y52276D01*
X6522Y52126D01*
X6700Y52176D01*
X6700Y53200D01*
X6692Y53200D01*
X6692Y53300D01*
X6700Y53300D01*
X6700Y54323D01*
X6522Y54373D01*
X6105Y54223D01*
X5777Y53925D01*
X5588Y53524D01*
X5577Y53476D01*
X5603Y53367D01*
X5409Y53496D01*
X5050Y53568D01*
X4690Y53496D01*
X4386Y53293D01*
X4182Y52988D01*
X4111Y52629D01*
X4111Y52070D01*
X4182Y51711D01*
X4386Y51406D01*
X4690Y51203D01*
X5050Y51131D01*
X5409Y51203D01*
X5543Y51292D01*
X5537Y51284D01*
X5451Y50850D01*
X5537Y50415D01*
X5784Y50046D01*
X6152Y49800D01*
X6454Y49740D01*
X6454Y49435D01*
X6405Y49414D01*
X6335Y49344D01*
X6297Y49252D01*
X6297Y49153D01*
X6297Y48247D01*
X6335Y48155D01*
X6401Y48089D01*
X5798Y47486D01*
X3706Y47486D01*
X3706Y48631D01*
X3698Y48911D01*
X3607Y49129D01*
X3496Y49175D01*
X3425Y49105D01*
X3425Y49246D01*
X3379Y49357D01*
X3118Y49456D01*
X2838Y49448D01*
X2620Y49357D01*
X2574Y49246D01*
X3000Y48820D01*
X3425Y49246D01*
X3425Y49105D01*
X3070Y48750D01*
X3496Y48324D01*
X3607Y48370D01*
X3706Y48631D01*
X3706Y47486D01*
X3598Y47486D01*
X3586Y47515D01*
X3515Y47585D01*
X3425Y47623D01*
X3425Y48253D01*
X3000Y48679D01*
X2929Y48608D01*
X2929Y48750D01*
X2550Y49129D01*
X2550Y53707D01*
X2390Y54094D01*
X2095Y54389D01*
X1709Y54549D01*
X1292Y54550D01*
X906Y54390D01*
X610Y54095D01*
X450Y53709D01*
X449Y53292D01*
X609Y52906D01*
X904Y52610D01*
X1290Y52450D01*
X1707Y52449D01*
X2094Y52609D01*
X2389Y52904D01*
X2549Y53290D01*
X2550Y53707D01*
X2550Y49129D01*
X2503Y49175D01*
X2392Y49129D01*
X2293Y48868D01*
X2301Y48588D01*
X2392Y48370D01*
X2503Y48324D01*
X2929Y48750D01*
X2929Y48608D01*
X2574Y48253D01*
X2620Y48142D01*
X2881Y48043D01*
X3161Y48051D01*
X3379Y48142D01*
X3425Y48253D01*
X3425Y47623D01*
X3423Y47623D01*
X3324Y47624D01*
X2576Y47624D01*
X2484Y47586D01*
X2414Y47515D01*
X2376Y47423D01*
X2375Y47324D01*
X2375Y46576D01*
X2413Y46484D01*
X2484Y46414D01*
X2576Y46376D01*
X2675Y46375D01*
X3423Y46375D01*
X3515Y46413D01*
X3585Y46484D01*
X3598Y46513D01*
X6000Y46513D01*
X6186Y46550D01*
X6343Y46656D01*
X7343Y47656D01*
X7449Y47813D01*
X7486Y48000D01*
X7486Y48047D01*
X7502Y48047D01*
X7594Y48085D01*
X7664Y48155D01*
X7702Y48247D01*
X7702Y48346D01*
X7702Y49252D01*
X7664Y49344D01*
X7594Y49414D01*
X7545Y49435D01*
X7545Y49932D01*
X7715Y50046D01*
X7888Y50304D01*
X10924Y50304D01*
X12704Y48524D01*
X12704Y48393D01*
X12537Y48226D01*
X12409Y47917D01*
X12409Y47583D01*
X12537Y47274D01*
X12704Y47106D01*
X12704Y45975D01*
X12090Y45361D01*
X12090Y47208D01*
X12090Y48291D01*
X12090Y48390D01*
X12052Y48482D01*
X11981Y48552D01*
X11890Y48590D01*
X11362Y48590D01*
X11300Y48528D01*
X11300Y47800D01*
X12028Y47800D01*
X12090Y47862D01*
X12090Y48291D01*
X12090Y47208D01*
X12090Y47637D01*
X12028Y47700D01*
X11300Y47700D01*
X11300Y46971D01*
X11362Y46909D01*
X11890Y46909D01*
X11981Y46947D01*
X12052Y47017D01*
X12090Y47109D01*
X12090Y47208D01*
X12090Y45361D01*
X11364Y44635D01*
X11246Y44458D01*
X11204Y44250D01*
X11204Y42795D01*
X11200Y42795D01*
X11200Y46971D01*
X11200Y47700D01*
X11200Y47800D01*
X11200Y48528D01*
X11137Y48590D01*
X10609Y48590D01*
X10518Y48552D01*
X10447Y48482D01*
X10409Y48390D01*
X10409Y48291D01*
X10409Y47862D01*
X10471Y47800D01*
X11200Y47800D01*
X11200Y47700D01*
X10471Y47700D01*
X10409Y47637D01*
X10409Y47208D01*
X10409Y47109D01*
X10447Y47017D01*
X10518Y46947D01*
X10609Y46909D01*
X11137Y46909D01*
X11200Y46971D01*
X11200Y42795D01*
X9750Y42795D01*
X9541Y42753D01*
X9364Y42635D01*
X7800Y41071D01*
X7658Y41012D01*
X7487Y40842D01*
X7428Y40699D01*
X6774Y40045D01*
X6108Y40045D01*
X6000Y40045D01*
X5399Y40045D01*
X5512Y40157D01*
X5604Y40379D01*
X5604Y40619D01*
X5512Y40841D01*
X5348Y41006D01*
X5348Y41395D01*
X5903Y41395D01*
X5995Y41433D01*
X6066Y41503D01*
X6104Y41595D01*
X6104Y41695D01*
X6104Y42403D01*
X6066Y42495D01*
X5996Y42566D01*
X5953Y42583D01*
X5970Y42600D01*
X5925Y42645D01*
X6026Y42679D01*
X6108Y42905D01*
X6098Y43145D01*
X6026Y43320D01*
X5925Y43354D01*
X5854Y43283D01*
X5854Y43425D01*
X5820Y43526D01*
X5594Y43608D01*
X5354Y43598D01*
X5179Y43526D01*
X5145Y43425D01*
X5500Y43070D01*
X5854Y43425D01*
X5854Y43283D01*
X5570Y43000D01*
X5576Y42994D01*
X5505Y42923D01*
X5500Y42929D01*
X5494Y42923D01*
X5429Y42988D01*
X5423Y42994D01*
X5429Y43000D01*
X5074Y43354D01*
X4973Y43320D01*
X4891Y43094D01*
X4901Y42854D01*
X4973Y42679D01*
X5074Y42645D01*
X5029Y42600D01*
X5046Y42583D01*
X5004Y42566D01*
X4933Y42496D01*
X4895Y42404D01*
X4895Y42348D01*
X4000Y42348D01*
X3628Y42348D01*
X3628Y45400D01*
X3618Y45648D01*
X3542Y45832D01*
X3439Y45868D01*
X3368Y45798D01*
X3368Y45939D01*
X3332Y46042D01*
X3099Y46128D01*
X2851Y46118D01*
X2667Y46042D01*
X2631Y45939D01*
X3000Y45570D01*
X3368Y45939D01*
X3368Y45798D01*
X3070Y45500D01*
X3439Y45131D01*
X3542Y45167D01*
X3628Y45400D01*
X3628Y42348D01*
X3368Y42348D01*
X3368Y45060D01*
X3000Y45429D01*
X2929Y45358D01*
X2929Y45500D01*
X2560Y45868D01*
X2457Y45832D01*
X2371Y45599D01*
X2381Y45351D01*
X2457Y45167D01*
X2560Y45131D01*
X2929Y45500D01*
X2929Y45358D01*
X2631Y45060D01*
X2667Y44957D01*
X2900Y44871D01*
X3148Y44881D01*
X3332Y44957D01*
X3368Y45060D01*
X3368Y42348D01*
X2783Y42348D01*
X2783Y43692D01*
X2783Y43850D01*
X2783Y43950D01*
X2783Y44107D01*
X2711Y44365D01*
X2547Y44575D01*
X2315Y44707D01*
X2255Y44722D01*
X2150Y44676D01*
X2150Y43950D01*
X2783Y43950D01*
X2783Y43850D01*
X2150Y43850D01*
X2150Y43123D01*
X2255Y43077D01*
X2315Y43092D01*
X2547Y43224D01*
X2711Y43434D01*
X2783Y43692D01*
X2783Y42348D01*
X2050Y42348D01*
X2050Y43123D01*
X2050Y43850D01*
X2042Y43850D01*
X2042Y43950D01*
X2050Y43950D01*
X2050Y44676D01*
X1944Y44722D01*
X1884Y44707D01*
X1652Y44575D01*
X1488Y44365D01*
X1416Y44107D01*
X1416Y44054D01*
X1300Y44120D01*
X1249Y44132D01*
X1150Y44085D01*
X1150Y43450D01*
X1157Y43450D01*
X1157Y43350D01*
X1150Y43350D01*
X1150Y42714D01*
X1249Y42667D01*
X1300Y42679D01*
X1519Y42803D01*
X1675Y43001D01*
X1726Y43182D01*
X1884Y43092D01*
X1944Y43077D01*
X2050Y43123D01*
X2050Y42348D01*
X1500Y42348D01*
X1499Y42348D01*
X1366Y42321D01*
X1351Y42312D01*
X1351Y42312D01*
X1346Y42315D01*
X1100Y42364D01*
X1050Y42354D01*
X1050Y42714D01*
X1050Y43350D01*
X1050Y43450D01*
X1050Y44085D01*
X950Y44132D01*
X899Y44120D01*
X680Y43996D01*
X524Y43798D01*
X456Y43556D01*
X456Y43450D01*
X1050Y43450D01*
X1050Y43350D01*
X456Y43350D01*
X456Y43243D01*
X524Y43001D01*
X680Y42803D01*
X899Y42679D01*
X950Y42667D01*
X1050Y42714D01*
X1050Y42354D01*
X853Y42315D01*
X644Y42176D01*
X505Y41967D01*
X456Y41720D01*
X456Y41479D01*
X505Y41232D01*
X644Y41023D01*
X853Y40884D01*
X1100Y40835D01*
X1346Y40884D01*
X1416Y40931D01*
X1416Y40892D01*
X1488Y40634D01*
X1652Y40424D01*
X1884Y40292D01*
X1944Y40277D01*
X2050Y40323D01*
X2050Y41050D01*
X2042Y41050D01*
X2042Y41150D01*
X2050Y41150D01*
X2050Y41157D01*
X2150Y41157D01*
X2150Y41150D01*
X2783Y41150D01*
X2783Y41307D01*
X2711Y41565D01*
X2644Y41651D01*
X4000Y41651D01*
X4651Y41651D01*
X4651Y41006D01*
X4487Y40842D01*
X4395Y40620D01*
X4395Y40380D01*
X4487Y40158D01*
X4600Y40045D01*
X2783Y40045D01*
X2783Y40892D01*
X2783Y41050D01*
X2150Y41050D01*
X2150Y40323D01*
X2255Y40277D01*
X2315Y40292D01*
X2547Y40424D01*
X2711Y40634D01*
X2783Y40892D01*
X2783Y40045D01*
X2500Y40045D01*
X2291Y40003D01*
X2114Y39885D01*
X1614Y39385D01*
X1496Y39208D01*
X1454Y39000D01*
X1454Y37126D01*
X1406Y37093D01*
X906Y36593D01*
X800Y36436D01*
X763Y36250D01*
X763Y28750D01*
X763Y26000D01*
X763Y23500D01*
X800Y23313D01*
X906Y23156D01*
X1440Y22622D01*
X1440Y22596D01*
X1482Y22381D01*
X1513Y22335D01*
X1513Y17377D01*
X1478Y17341D01*
X1440Y17249D01*
X1439Y17150D01*
X1439Y16250D01*
X1477Y16158D01*
X1513Y16122D01*
X1513Y15951D01*
X906Y15343D01*
X800Y15186D01*
X763Y15000D01*
X763Y12500D01*
X763Y6500D01*
X800Y6313D01*
X906Y6156D01*
X1606Y5456D01*
X1606Y5372D01*
X1703Y5135D01*
X1884Y4954D01*
X2121Y4856D01*
X2377Y4856D01*
X2394Y4863D01*
X3401Y3855D01*
X3401Y3672D01*
X3288Y3559D01*
X3204Y3358D01*
X3204Y3142D01*
X3287Y2941D01*
X3440Y2788D01*
X3641Y2704D01*
X3857Y2704D01*
X4058Y2787D01*
X4211Y2940D01*
X4295Y3141D01*
X4295Y3357D01*
X4212Y3558D01*
X4098Y3672D01*
X4098Y4000D01*
X4071Y4133D01*
X3996Y4246D01*
X3996Y4246D01*
X2887Y5355D01*
X2893Y5371D01*
X2893Y5627D01*
X2796Y5864D01*
X2615Y6045D01*
X2378Y6143D01*
X2293Y6143D01*
X1736Y6701D01*
X1736Y8799D01*
X1887Y8800D01*
X1950Y8862D01*
X1950Y9450D01*
X1942Y9450D01*
X1942Y9550D01*
X1950Y9550D01*
X1950Y10137D01*
X1887Y10200D01*
X1950Y10262D01*
X1950Y10575D01*
X1942Y10575D01*
X1942Y10675D01*
X1950Y10675D01*
X1950Y10682D01*
X2050Y10682D01*
X2050Y10675D01*
X2462Y10675D01*
X2525Y10737D01*
X2525Y10849D01*
X2487Y10941D01*
X2461Y10967D01*
X2706Y10967D01*
X2961Y10711D01*
X2961Y10711D01*
X3041Y10658D01*
X3094Y10623D01*
X3094Y10623D01*
X3250Y10592D01*
X8999Y10592D01*
X9000Y10592D01*
X9000Y10592D01*
X9155Y10623D01*
X9288Y10711D01*
X9668Y11092D01*
X12249Y11092D01*
X12250Y11092D01*
X12250Y11092D01*
X12405Y11123D01*
X12538Y11211D01*
X13418Y12092D01*
X13758Y12092D01*
X13842Y11967D01*
X13842Y11765D01*
X13833Y11762D01*
X13763Y11691D01*
X13725Y11599D01*
X13724Y11500D01*
X13724Y11150D01*
X13762Y11058D01*
X13821Y11000D01*
X13762Y10941D01*
X13724Y10849D01*
X13725Y10737D01*
X13787Y10675D01*
X14200Y10675D01*
X14200Y10682D01*
X14300Y10682D01*
X14300Y10675D01*
X14712Y10675D01*
X14775Y10737D01*
X14775Y10849D01*
X14737Y10941D01*
X14678Y11000D01*
X14736Y11058D01*
X14774Y11150D01*
X14775Y11249D01*
X14775Y11599D01*
X14737Y11691D01*
X14666Y11761D01*
X14657Y11765D01*
X14657Y11967D01*
X14749Y12105D01*
X14751Y12099D01*
X14889Y11928D01*
X15081Y11823D01*
X15113Y11816D01*
X15200Y11865D01*
X15200Y12450D01*
X15192Y12450D01*
X15192Y12550D01*
X15200Y12550D01*
X15200Y12557D01*
X15300Y12557D01*
X15300Y12550D01*
X15307Y12550D01*
X15307Y12450D01*
X15300Y12450D01*
X15300Y11865D01*
X15386Y11816D01*
X15418Y11823D01*
X15610Y11928D01*
X15748Y12099D01*
X15750Y12105D01*
X15854Y11950D01*
X15901Y11918D01*
X15901Y11500D01*
X15901Y11500D01*
X15923Y11388D01*
X15928Y11366D01*
X16003Y11253D01*
X17003Y10253D01*
X17003Y10253D01*
X17106Y10185D01*
X17035Y10171D01*
X16854Y10049D01*
X16750Y9894D01*
X16645Y10049D01*
X16464Y10171D01*
X16250Y10213D01*
X16035Y10171D01*
X15854Y10049D01*
X15750Y9894D01*
X15645Y10049D01*
X15464Y10171D01*
X15250Y10213D01*
X15035Y10171D01*
X14854Y10049D01*
X14809Y9983D01*
X14809Y9999D01*
X14771Y10091D01*
X14701Y10162D01*
X14609Y10200D01*
X14565Y10200D01*
X14574Y10200D01*
X14666Y10238D01*
X14737Y10308D01*
X14775Y10400D01*
X14775Y10512D01*
X14712Y10575D01*
X14300Y10575D01*
X14300Y10262D01*
X14362Y10200D01*
X14300Y10137D01*
X14300Y9550D01*
X14307Y9550D01*
X14307Y9450D01*
X14300Y9450D01*
X14300Y8862D01*
X14362Y8800D01*
X14609Y8799D01*
X14701Y8837D01*
X14771Y8908D01*
X14809Y9000D01*
X14809Y9016D01*
X14854Y8950D01*
X14901Y8918D01*
X14901Y8894D01*
X14200Y8192D01*
X14200Y8862D01*
X14200Y9450D01*
X14200Y9550D01*
X14200Y10137D01*
X14137Y10200D01*
X14200Y10262D01*
X14200Y10575D01*
X13787Y10575D01*
X13725Y10512D01*
X13724Y10400D01*
X13762Y10308D01*
X13833Y10238D01*
X13925Y10200D01*
X13934Y10200D01*
X13890Y10200D01*
X13798Y10162D01*
X13728Y10091D01*
X13690Y9999D01*
X13689Y9900D01*
X13690Y9612D01*
X13752Y9550D01*
X14200Y9550D01*
X14200Y9450D01*
X13752Y9450D01*
X13690Y9387D01*
X13689Y9099D01*
X13690Y9000D01*
X13728Y8908D01*
X13798Y8837D01*
X13890Y8799D01*
X14137Y8800D01*
X14200Y8862D01*
X14200Y8192D01*
X13253Y7246D01*
X13249Y7240D01*
X13246Y7246D01*
X12848Y7644D01*
X12848Y8327D01*
X12961Y8440D01*
X13045Y8641D01*
X13045Y8857D01*
X12962Y9058D01*
X12809Y9211D01*
X12608Y9295D01*
X12392Y9295D01*
X12191Y9212D01*
X12038Y9059D01*
X11954Y8858D01*
X11954Y8642D01*
X12037Y8441D01*
X12151Y8327D01*
X12151Y7591D01*
X11560Y8182D01*
X11560Y9310D01*
X11560Y9450D01*
X11560Y9550D01*
X11560Y9690D01*
X11498Y9900D01*
X11360Y10071D01*
X11168Y10176D01*
X11136Y10183D01*
X11050Y10134D01*
X11050Y9550D01*
X11560Y9550D01*
X11560Y9450D01*
X11050Y9450D01*
X11050Y8865D01*
X11136Y8816D01*
X11168Y8823D01*
X11360Y8928D01*
X11498Y9099D01*
X11560Y9310D01*
X11560Y8182D01*
X10903Y8839D01*
X10950Y8865D01*
X10950Y9450D01*
X10942Y9450D01*
X10942Y9550D01*
X10950Y9550D01*
X10950Y10134D01*
X10863Y10183D01*
X10831Y10176D01*
X10639Y10071D01*
X10501Y9900D01*
X10499Y9894D01*
X10395Y10049D01*
X10214Y10171D01*
X10000Y10213D01*
X9785Y10171D01*
X9604Y10049D01*
X9500Y9894D01*
X9395Y10049D01*
X9214Y10171D01*
X9000Y10213D01*
X8785Y10171D01*
X8604Y10049D01*
X8500Y9894D01*
X8395Y10049D01*
X8214Y10171D01*
X8000Y10213D01*
X7785Y10171D01*
X7604Y10049D01*
X7500Y9894D01*
X7395Y10049D01*
X7214Y10171D01*
X7000Y10213D01*
X6785Y10171D01*
X6604Y10049D01*
X6500Y9894D01*
X6395Y10049D01*
X6214Y10171D01*
X6000Y10213D01*
X5785Y10171D01*
X5604Y10049D01*
X5499Y9894D01*
X5395Y10049D01*
X5214Y10171D01*
X5000Y10213D01*
X4785Y10171D01*
X4604Y10049D01*
X4499Y9894D01*
X4395Y10049D01*
X4214Y10171D01*
X4000Y10213D01*
X3785Y10171D01*
X3604Y10049D01*
X3499Y9894D01*
X3395Y10049D01*
X3214Y10171D01*
X3000Y10213D01*
X2785Y10171D01*
X2604Y10049D01*
X2559Y9983D01*
X2559Y9999D01*
X2521Y10091D01*
X2451Y10162D01*
X2359Y10200D01*
X2315Y10200D01*
X2324Y10200D01*
X2416Y10238D01*
X2487Y10308D01*
X2525Y10400D01*
X2525Y10512D01*
X2462Y10575D01*
X2050Y10575D01*
X2050Y10262D01*
X2112Y10200D01*
X2050Y10137D01*
X2050Y9550D01*
X2057Y9550D01*
X2057Y9450D01*
X2050Y9450D01*
X2050Y8862D01*
X2112Y8800D01*
X2359Y8799D01*
X2451Y8837D01*
X2521Y8908D01*
X2559Y9000D01*
X2559Y9016D01*
X2604Y8950D01*
X2651Y8918D01*
X2651Y8250D01*
X2651Y7500D01*
X2651Y7500D01*
X2673Y7388D01*
X2678Y7366D01*
X2753Y7253D01*
X3578Y6428D01*
X3578Y6428D01*
X3691Y6353D01*
X3825Y6326D01*
X4000Y6326D01*
X4875Y6326D01*
X4875Y6324D01*
X4875Y5576D01*
X4913Y5484D01*
X4984Y5414D01*
X5037Y5392D01*
X5060Y5368D01*
X4957Y5332D01*
X4871Y5099D01*
X4881Y4851D01*
X4957Y4667D01*
X5060Y4631D01*
X5429Y5000D01*
X5423Y5005D01*
X5494Y5076D01*
X5500Y5070D01*
X5505Y5076D01*
X5576Y5005D01*
X5570Y5000D01*
X5939Y4631D01*
X6042Y4667D01*
X6128Y4900D01*
X6118Y5148D01*
X6042Y5332D01*
X5939Y5368D01*
X5962Y5392D01*
X6015Y5413D01*
X6085Y5484D01*
X6123Y5576D01*
X6124Y5675D01*
X6124Y6326D01*
X6430Y6326D01*
X7503Y5253D01*
X7503Y5253D01*
X7616Y5178D01*
X7750Y5151D01*
X7970Y5151D01*
X7935Y5030D01*
X7935Y4892D01*
X8450Y4892D01*
X8450Y4900D01*
X8550Y4900D01*
X8550Y4892D01*
X8557Y4892D01*
X8557Y4792D01*
X8550Y4792D01*
X8550Y4204D01*
X8637Y4156D01*
X8670Y4163D01*
X8864Y4269D01*
X9001Y4440D01*
X9100Y4291D01*
X9283Y4169D01*
X9500Y4125D01*
X9716Y4169D01*
X9899Y4291D01*
X10000Y4441D01*
X10100Y4291D01*
X10283Y4169D01*
X10500Y4125D01*
X10716Y4169D01*
X10899Y4291D01*
X11000Y4441D01*
X11100Y4291D01*
X11283Y4169D01*
X11500Y4125D01*
X11716Y4169D01*
X11899Y4291D01*
X12000Y4441D01*
X12100Y4291D01*
X12283Y4169D01*
X12500Y4125D01*
X12716Y4169D01*
X12899Y4291D01*
X13000Y4441D01*
X13100Y4291D01*
X13283Y4169D01*
X13500Y4125D01*
X13716Y4169D01*
X13899Y4291D01*
X14000Y4441D01*
X14100Y4291D01*
X14151Y4257D01*
X14151Y3000D01*
X14151Y3000D01*
X14173Y2888D01*
X14178Y2866D01*
X14253Y2753D01*
X16528Y478D01*
X16528Y478D01*
X16678Y328D01*
X16678Y328D01*
X16766Y269D01*
X8450Y269D01*
X8450Y4204D01*
X8450Y4792D01*
X7935Y4792D01*
X7935Y4654D01*
X7997Y4442D01*
X8135Y4269D01*
X8329Y4163D01*
X8362Y4156D01*
X8450Y4204D01*
X8450Y269D01*
X6128Y269D01*
X5868Y269D01*
X5868Y4560D01*
X5500Y4929D01*
X5429Y4858D01*
X5131Y4560D01*
X5167Y4457D01*
X5400Y4371D01*
X5648Y4381D01*
X5832Y4457D01*
X5868Y4560D01*
X5868Y269D01*
X2550Y269D01*
X2550Y1707D01*
X2390Y2094D01*
X2095Y2389D01*
X1709Y2549D01*
X1292Y2550D01*
X906Y2390D01*
X610Y2095D01*
X450Y1709D01*
X449Y1292D01*
X609Y906D01*
X904Y610D01*
X1290Y450D01*
X1707Y449D01*
X2094Y609D01*
X2389Y904D01*
X2549Y1290D01*
X2550Y1707D01*
X2550Y269D01*
X269Y269D01*
X269Y54730D01*
X38980Y54730D01*
X38980Y34012D01*
X38980Y34012D01*
G37*
G54D47*
X38980Y34012D02*
X38800Y34192D01*
X38800Y53707D01*
X38640Y54094D01*
X38345Y54389D01*
X37959Y54549D01*
X37542Y54550D01*
X37156Y54390D01*
X36860Y54095D01*
X36700Y53709D01*
X36699Y53292D01*
X36859Y52906D01*
X37154Y52610D01*
X37540Y52450D01*
X37957Y52449D01*
X38344Y52609D01*
X38639Y52904D01*
X38799Y53290D01*
X38800Y53707D01*
X38800Y34192D01*
X37746Y35246D01*
X37633Y35321D01*
X37611Y35326D01*
X37500Y35348D01*
X37499Y35348D01*
X37314Y35348D01*
X37310Y35348D01*
X37310Y36060D01*
X37310Y36200D01*
X37310Y36300D01*
X37310Y36440D01*
X37300Y36473D01*
X37300Y40774D01*
X37300Y41225D01*
X37299Y41324D01*
X37261Y41416D01*
X37191Y41487D01*
X37099Y41525D01*
X36987Y41525D01*
X36925Y41462D01*
X36925Y41050D01*
X37237Y41050D01*
X37300Y41112D01*
X37300Y41225D01*
X37300Y40774D01*
X37300Y40887D01*
X37237Y40950D01*
X36925Y40950D01*
X36925Y40537D01*
X36987Y40475D01*
X37099Y40474D01*
X37191Y40512D01*
X37261Y40583D01*
X37299Y40675D01*
X37300Y40774D01*
X37300Y36473D01*
X37248Y36650D01*
X37110Y36821D01*
X36918Y36926D01*
X36886Y36933D01*
X36800Y36884D01*
X36800Y36300D01*
X37310Y36300D01*
X37310Y36200D01*
X36800Y36200D01*
X36800Y35615D01*
X36886Y35566D01*
X36918Y35573D01*
X37110Y35678D01*
X37248Y35849D01*
X37310Y36060D01*
X37310Y35348D01*
X33644Y35348D01*
X33598Y35394D01*
X33598Y35500D01*
X33584Y35569D01*
X33750Y35536D01*
X33964Y35578D01*
X34145Y35700D01*
X34250Y35855D01*
X34354Y35700D01*
X34535Y35578D01*
X34750Y35536D01*
X34964Y35578D01*
X35145Y35700D01*
X35250Y35855D01*
X35354Y35700D01*
X35535Y35578D01*
X35750Y35536D01*
X35964Y35578D01*
X36145Y35700D01*
X36249Y35855D01*
X36251Y35849D01*
X36389Y35678D01*
X36581Y35573D01*
X36613Y35566D01*
X36700Y35615D01*
X36700Y36200D01*
X36692Y36200D01*
X36692Y36300D01*
X36700Y36300D01*
X36700Y36884D01*
X36613Y36933D01*
X36581Y36926D01*
X36389Y36821D01*
X36251Y36650D01*
X36249Y36644D01*
X36145Y36799D01*
X36098Y36831D01*
X36098Y38500D01*
X36071Y38633D01*
X35996Y38746D01*
X35996Y38746D01*
X34996Y39746D01*
X34883Y39821D01*
X34861Y39826D01*
X34750Y39848D01*
X34749Y39848D01*
X34341Y39848D01*
X34996Y40503D01*
X34996Y40503D01*
X34996Y40503D01*
X35071Y40616D01*
X35098Y40749D01*
X35098Y40750D01*
X35098Y40750D01*
X35098Y41668D01*
X35145Y41700D01*
X35250Y41855D01*
X35342Y41717D01*
X35342Y41500D01*
X35342Y41500D01*
X35373Y41344D01*
X35461Y41211D01*
X35699Y40973D01*
X35699Y40675D01*
X35737Y40583D01*
X35808Y40513D01*
X35900Y40475D01*
X35999Y40474D01*
X36349Y40474D01*
X36441Y40512D01*
X36500Y40571D01*
X36558Y40512D01*
X36650Y40474D01*
X36762Y40475D01*
X36825Y40537D01*
X36825Y40950D01*
X36817Y40950D01*
X36817Y41050D01*
X36825Y41050D01*
X36825Y41462D01*
X36762Y41525D01*
X36650Y41525D01*
X36558Y41487D01*
X36499Y41428D01*
X36441Y41486D01*
X36349Y41524D01*
X36301Y41524D01*
X36157Y41668D01*
X36157Y41717D01*
X36241Y41842D01*
X36258Y41842D01*
X36354Y41700D01*
X36535Y41578D01*
X36750Y41536D01*
X36964Y41578D01*
X37145Y41700D01*
X37267Y41881D01*
X37310Y42096D01*
X37310Y42403D01*
X37310Y44560D01*
X37310Y44700D01*
X37310Y44800D01*
X37310Y44940D01*
X37248Y45150D01*
X37110Y45321D01*
X36918Y45426D01*
X36886Y45433D01*
X36800Y45384D01*
X36800Y44800D01*
X37310Y44800D01*
X37310Y44700D01*
X36800Y44700D01*
X36800Y44115D01*
X36886Y44066D01*
X36918Y44073D01*
X37110Y44178D01*
X37248Y44349D01*
X37310Y44560D01*
X37310Y42403D01*
X37267Y42618D01*
X37145Y42799D01*
X36964Y42921D01*
X36750Y42963D01*
X36535Y42921D01*
X36354Y42799D01*
X36258Y42657D01*
X36241Y42657D01*
X36145Y42799D01*
X35964Y42921D01*
X35750Y42963D01*
X35718Y42957D01*
X35795Y43141D01*
X35795Y43357D01*
X35777Y43401D01*
X35827Y43401D01*
X35940Y43288D01*
X36141Y43204D01*
X36357Y43204D01*
X36558Y43287D01*
X36711Y43440D01*
X36795Y43641D01*
X36795Y43857D01*
X36712Y44058D01*
X36671Y44099D01*
X36700Y44115D01*
X36700Y44700D01*
X36692Y44700D01*
X36692Y44800D01*
X36700Y44800D01*
X36700Y45384D01*
X36613Y45433D01*
X36581Y45426D01*
X36389Y45321D01*
X36251Y45150D01*
X36249Y45144D01*
X36145Y45299D01*
X35964Y45421D01*
X35750Y45463D01*
X35535Y45421D01*
X35354Y45299D01*
X35250Y45144D01*
X35145Y45299D01*
X35098Y45331D01*
X35098Y45749D01*
X35098Y45750D01*
X35098Y45750D01*
X35071Y45883D01*
X34996Y45996D01*
X34996Y45996D01*
X34496Y46496D01*
X34383Y46571D01*
X34361Y46576D01*
X34250Y46598D01*
X34249Y46598D01*
X30000Y46598D01*
X29999Y46598D01*
X29866Y46571D01*
X29753Y46496D01*
X29753Y46496D01*
X29075Y45817D01*
X29075Y47287D01*
X29075Y47700D01*
X29075Y47800D01*
X29075Y48212D01*
X29012Y48275D01*
X28900Y48275D01*
X28808Y48237D01*
X28738Y48166D01*
X28700Y48074D01*
X28700Y48024D01*
X28700Y48954D01*
X28700Y49542D01*
X28314Y49542D01*
X28185Y49542D01*
X27800Y49542D01*
X27800Y48954D01*
X27887Y48906D01*
X27920Y48913D01*
X28114Y49019D01*
X28250Y49188D01*
X28385Y49019D01*
X28579Y48913D01*
X28612Y48906D01*
X28700Y48954D01*
X28700Y48024D01*
X28699Y47975D01*
X28700Y47862D01*
X28762Y47800D01*
X29075Y47800D01*
X29075Y47700D01*
X28762Y47700D01*
X28700Y47637D01*
X28699Y47524D01*
X28700Y47425D01*
X28738Y47333D01*
X28808Y47262D01*
X28900Y47224D01*
X29012Y47225D01*
X29075Y47287D01*
X29075Y45817D01*
X27700Y44442D01*
X27700Y48954D01*
X27700Y49542D01*
X27314Y49542D01*
X27185Y49542D01*
X26800Y49542D01*
X26800Y48954D01*
X26887Y48906D01*
X26920Y48913D01*
X27114Y49019D01*
X27250Y49188D01*
X27385Y49019D01*
X27579Y48913D01*
X27612Y48906D01*
X27700Y48954D01*
X27700Y44442D01*
X27310Y44052D01*
X27310Y44560D01*
X27310Y44700D01*
X27310Y44800D01*
X27310Y44940D01*
X27248Y45150D01*
X27110Y45321D01*
X26918Y45426D01*
X26886Y45433D01*
X26800Y45384D01*
X26800Y44800D01*
X27310Y44800D01*
X27310Y44700D01*
X26800Y44700D01*
X26800Y44115D01*
X26886Y44066D01*
X26918Y44073D01*
X27110Y44178D01*
X27248Y44349D01*
X27310Y44560D01*
X27310Y44052D01*
X26503Y43246D01*
X26428Y43133D01*
X26423Y43111D01*
X26401Y43000D01*
X26401Y42999D01*
X26401Y42831D01*
X26354Y42799D01*
X26250Y42644D01*
X26145Y42799D01*
X26098Y42831D01*
X26098Y43249D01*
X26098Y43250D01*
X26098Y43250D01*
X26071Y43383D01*
X25996Y43496D01*
X25996Y43496D01*
X25496Y43996D01*
X25383Y44071D01*
X25361Y44076D01*
X25250Y44098D01*
X25249Y44098D01*
X24993Y44098D01*
X25145Y44200D01*
X25250Y44355D01*
X25354Y44200D01*
X25535Y44078D01*
X25750Y44036D01*
X25964Y44078D01*
X26145Y44200D01*
X26249Y44355D01*
X26251Y44349D01*
X26389Y44178D01*
X26581Y44073D01*
X26613Y44066D01*
X26700Y44115D01*
X26700Y44700D01*
X26692Y44700D01*
X26692Y44800D01*
X26700Y44800D01*
X26700Y45384D01*
X26613Y45433D01*
X26581Y45426D01*
X26389Y45321D01*
X26251Y45150D01*
X26249Y45144D01*
X26145Y45299D01*
X26098Y45331D01*
X26098Y45605D01*
X26996Y46503D01*
X26996Y46503D01*
X26996Y46503D01*
X27071Y46616D01*
X27098Y46750D01*
X27098Y47168D01*
X27145Y47200D01*
X27267Y47381D01*
X27310Y47596D01*
X27310Y47903D01*
X27267Y48118D01*
X27145Y48299D01*
X26964Y48421D01*
X26750Y48463D01*
X26535Y48421D01*
X26354Y48299D01*
X26250Y48144D01*
X26145Y48299D01*
X26068Y48351D01*
X26068Y48367D01*
X26475Y48774D01*
X26475Y48774D01*
X26510Y48826D01*
X26544Y48877D01*
X26544Y48877D01*
X26554Y48927D01*
X26579Y48913D01*
X26612Y48906D01*
X26700Y48954D01*
X26700Y49542D01*
X26692Y49542D01*
X26692Y49642D01*
X26700Y49642D01*
X26700Y49650D01*
X26800Y49650D01*
X26800Y49642D01*
X27185Y49642D01*
X27314Y49642D01*
X27700Y49642D01*
X27700Y49650D01*
X27800Y49650D01*
X27800Y49642D01*
X28185Y49642D01*
X28314Y49642D01*
X28700Y49642D01*
X28700Y49650D01*
X28800Y49650D01*
X28800Y49642D01*
X28807Y49642D01*
X28807Y49542D01*
X28800Y49542D01*
X28800Y48954D01*
X28887Y48906D01*
X28920Y48913D01*
X28945Y48927D01*
X28955Y48877D01*
X29024Y48774D01*
X29524Y48274D01*
X29524Y48274D01*
X29572Y48242D01*
X29558Y48237D01*
X29500Y48178D01*
X29441Y48237D01*
X29349Y48275D01*
X29237Y48275D01*
X29175Y48212D01*
X29175Y47800D01*
X29182Y47800D01*
X29182Y47700D01*
X29175Y47700D01*
X29175Y47287D01*
X29237Y47225D01*
X29349Y47224D01*
X29441Y47262D01*
X29500Y47321D01*
X29558Y47263D01*
X29650Y47225D01*
X29749Y47224D01*
X30099Y47224D01*
X30191Y47262D01*
X30261Y47333D01*
X30263Y47336D01*
X30354Y47200D01*
X30535Y47078D01*
X30750Y47036D01*
X30964Y47078D01*
X31145Y47200D01*
X31250Y47355D01*
X31354Y47200D01*
X31535Y47078D01*
X31750Y47036D01*
X31964Y47078D01*
X32145Y47200D01*
X32250Y47355D01*
X32354Y47200D01*
X32535Y47078D01*
X32750Y47036D01*
X32964Y47078D01*
X33145Y47200D01*
X33250Y47355D01*
X33354Y47200D01*
X33535Y47078D01*
X33750Y47036D01*
X33964Y47078D01*
X34145Y47200D01*
X34250Y47355D01*
X34354Y47200D01*
X34535Y47078D01*
X34750Y47036D01*
X34964Y47078D01*
X35145Y47200D01*
X35250Y47355D01*
X35354Y47200D01*
X35535Y47078D01*
X35750Y47036D01*
X35964Y47078D01*
X36145Y47200D01*
X36250Y47355D01*
X36354Y47200D01*
X36535Y47078D01*
X36750Y47036D01*
X36964Y47078D01*
X37145Y47200D01*
X37267Y47381D01*
X37310Y47596D01*
X37310Y47903D01*
X37267Y48118D01*
X37145Y48299D01*
X37068Y48351D01*
X37068Y48500D01*
X37044Y48622D01*
X37044Y48622D01*
X37010Y48673D01*
X36975Y48725D01*
X36975Y48725D01*
X36800Y48900D01*
X36800Y48954D01*
X36887Y48906D01*
X36920Y48913D01*
X37114Y49019D01*
X37252Y49192D01*
X37314Y49404D01*
X37314Y49542D01*
X36800Y49542D01*
X36800Y49534D01*
X36700Y49534D01*
X36700Y49542D01*
X36692Y49542D01*
X36692Y49642D01*
X36700Y49642D01*
X36700Y49650D01*
X36800Y49650D01*
X36800Y49642D01*
X37314Y49642D01*
X37314Y49780D01*
X37252Y49992D01*
X37114Y50165D01*
X36976Y50240D01*
X37149Y50356D01*
X37271Y50539D01*
X37314Y50755D01*
X37314Y51059D01*
X37271Y51275D01*
X37227Y51342D01*
X37331Y51342D01*
X37592Y51081D01*
X37592Y49502D01*
X37454Y49365D01*
X37356Y49128D01*
X37356Y48872D01*
X37453Y48635D01*
X37634Y48454D01*
X37871Y48356D01*
X38127Y48356D01*
X38364Y48453D01*
X38545Y48634D01*
X38643Y48871D01*
X38643Y49127D01*
X38546Y49364D01*
X38407Y49502D01*
X38407Y51249D01*
X38407Y51250D01*
X38407Y51250D01*
X38376Y51405D01*
X38376Y51405D01*
X38341Y51458D01*
X38288Y51538D01*
X38288Y51538D01*
X37788Y52038D01*
X37655Y52126D01*
X37500Y52157D01*
X37499Y52157D01*
X36168Y52157D01*
X34163Y54163D01*
X34030Y54251D01*
X33875Y54282D01*
X33874Y54282D01*
X17875Y54282D01*
X17875Y54282D01*
X17719Y54251D01*
X17586Y54163D01*
X17586Y54163D01*
X17258Y53834D01*
X17134Y53834D01*
X16919Y53745D01*
X16830Y53657D01*
X16419Y53657D01*
X16331Y53745D01*
X16116Y53834D01*
X15884Y53834D01*
X15669Y53745D01*
X15580Y53657D01*
X15169Y53657D01*
X15081Y53745D01*
X14866Y53834D01*
X14634Y53834D01*
X14419Y53745D01*
X14330Y53657D01*
X13919Y53657D01*
X13831Y53745D01*
X13616Y53834D01*
X13384Y53834D01*
X13288Y53795D01*
X12750Y53795D01*
X12749Y53795D01*
X12541Y53753D01*
X12364Y53635D01*
X12364Y53635D01*
X12364Y53635D01*
X10764Y52035D01*
X10646Y51858D01*
X10604Y51650D01*
X10604Y51395D01*
X7922Y51395D01*
X7922Y53023D01*
X7922Y53476D01*
X7911Y53524D01*
X7722Y53925D01*
X7394Y54223D01*
X6977Y54373D01*
X6800Y54323D01*
X6800Y53300D01*
X7881Y53300D01*
X7922Y53476D01*
X7922Y53023D01*
X7881Y53200D01*
X6800Y53200D01*
X6800Y52176D01*
X6977Y52126D01*
X7394Y52276D01*
X7722Y52574D01*
X7911Y52975D01*
X7922Y53023D01*
X7922Y51395D01*
X7888Y51395D01*
X7715Y51653D01*
X7347Y51899D01*
X6912Y51985D01*
X6587Y51985D01*
X6152Y51899D01*
X5924Y51747D01*
X5988Y52070D01*
X5988Y52382D01*
X6105Y52276D01*
X6522Y52126D01*
X6700Y52176D01*
X6700Y53200D01*
X6692Y53200D01*
X6692Y53300D01*
X6700Y53300D01*
X6700Y54323D01*
X6522Y54373D01*
X6105Y54223D01*
X5777Y53925D01*
X5588Y53524D01*
X5577Y53476D01*
X5603Y53367D01*
X5409Y53496D01*
X5050Y53568D01*
X4690Y53496D01*
X4386Y53293D01*
X4182Y52988D01*
X4111Y52629D01*
X4111Y52070D01*
X4182Y51711D01*
X4386Y51406D01*
X4690Y51203D01*
X5050Y51131D01*
X5409Y51203D01*
X5543Y51292D01*
X5537Y51284D01*
X5451Y50850D01*
X5537Y50415D01*
X5784Y50046D01*
X6152Y49800D01*
X6454Y49740D01*
X6454Y49435D01*
X6405Y49414D01*
X6335Y49344D01*
X6297Y49252D01*
X6297Y49153D01*
X6297Y48247D01*
X6335Y48155D01*
X6401Y48089D01*
X5798Y47486D01*
X3706Y47486D01*
X3706Y48631D01*
X3698Y48911D01*
X3607Y49129D01*
X3496Y49175D01*
X3425Y49105D01*
X3425Y49246D01*
X3379Y49357D01*
X3118Y49456D01*
X2838Y49448D01*
X2620Y49357D01*
X2574Y49246D01*
X3000Y48820D01*
X3425Y49246D01*
X3425Y49105D01*
X3070Y48750D01*
X3496Y48324D01*
X3607Y48370D01*
X3706Y48631D01*
X3706Y47486D01*
X3598Y47486D01*
X3586Y47515D01*
X3515Y47585D01*
X3425Y47623D01*
X3425Y48253D01*
X3000Y48679D01*
X2929Y48608D01*
X2929Y48750D01*
X2550Y49129D01*
X2550Y53707D01*
X2390Y54094D01*
X2095Y54389D01*
X1709Y54549D01*
X1292Y54550D01*
X906Y54390D01*
X610Y54095D01*
X450Y53709D01*
X449Y53292D01*
X609Y52906D01*
X904Y52610D01*
X1290Y52450D01*
X1707Y52449D01*
X2094Y52609D01*
X2389Y52904D01*
X2549Y53290D01*
X2550Y53707D01*
X2550Y49129D01*
X2503Y49175D01*
X2392Y49129D01*
X2293Y48868D01*
X2301Y48588D01*
X2392Y48370D01*
X2503Y48324D01*
X2929Y48750D01*
X2929Y48608D01*
X2574Y48253D01*
X2620Y48142D01*
X2881Y48043D01*
X3161Y48051D01*
X3379Y48142D01*
X3425Y48253D01*
X3425Y47623D01*
X3423Y47623D01*
X3324Y47624D01*
X2576Y47624D01*
X2484Y47586D01*
X2414Y47515D01*
X2376Y47423D01*
X2375Y47324D01*
X2375Y46576D01*
X2413Y46484D01*
X2484Y46414D01*
X2576Y46376D01*
X2675Y46375D01*
X3423Y46375D01*
X3515Y46413D01*
X3585Y46484D01*
X3598Y46513D01*
X6000Y46513D01*
X6186Y46550D01*
X6343Y46656D01*
X7343Y47656D01*
X7449Y47813D01*
X7486Y48000D01*
X7486Y48047D01*
X7502Y48047D01*
X7594Y48085D01*
X7664Y48155D01*
X7702Y48247D01*
X7702Y48346D01*
X7702Y49252D01*
X7664Y49344D01*
X7594Y49414D01*
X7545Y49435D01*
X7545Y49932D01*
X7715Y50046D01*
X7888Y50304D01*
X10924Y50304D01*
X12704Y48524D01*
X12704Y48393D01*
X12537Y48226D01*
X12409Y47917D01*
X12409Y47583D01*
X12537Y47274D01*
X12704Y47106D01*
X12704Y45975D01*
X12090Y45361D01*
X12090Y47208D01*
X12090Y48291D01*
X12090Y48390D01*
X12052Y48482D01*
X11981Y48552D01*
X11890Y48590D01*
X11362Y48590D01*
X11300Y48528D01*
X11300Y47800D01*
X12028Y47800D01*
X12090Y47862D01*
X12090Y48291D01*
X12090Y47208D01*
X12090Y47637D01*
X12028Y47700D01*
X11300Y47700D01*
X11300Y46971D01*
X11362Y46909D01*
X11890Y46909D01*
X11981Y46947D01*
X12052Y47017D01*
X12090Y47109D01*
X12090Y47208D01*
X12090Y45361D01*
X11364Y44635D01*
X11246Y44458D01*
X11204Y44250D01*
X11204Y42795D01*
X11200Y42795D01*
X11200Y46971D01*
X11200Y47700D01*
X11200Y47800D01*
X11200Y48528D01*
X11137Y48590D01*
X10609Y48590D01*
X10518Y48552D01*
X10447Y48482D01*
X10409Y48390D01*
X10409Y48291D01*
X10409Y47862D01*
X10471Y47800D01*
X11200Y47800D01*
X11200Y47700D01*
X10471Y47700D01*
X10409Y47637D01*
X10409Y47208D01*
X10409Y47109D01*
X10447Y47017D01*
X10518Y46947D01*
X10609Y46909D01*
X11137Y46909D01*
X11200Y46971D01*
X11200Y42795D01*
X9750Y42795D01*
X9541Y42753D01*
X9364Y42635D01*
X7800Y41071D01*
X7658Y41012D01*
X7487Y40842D01*
X7428Y40699D01*
X6774Y40045D01*
X6108Y40045D01*
X6000Y40045D01*
X5399Y40045D01*
X5512Y40157D01*
X5604Y40379D01*
X5604Y40619D01*
X5512Y40841D01*
X5348Y41006D01*
X5348Y41395D01*
X5903Y41395D01*
X5995Y41433D01*
X6066Y41503D01*
X6104Y41595D01*
X6104Y41695D01*
X6104Y42403D01*
X6066Y42495D01*
X5996Y42566D01*
X5953Y42583D01*
X5970Y42600D01*
X5925Y42645D01*
X6026Y42679D01*
X6108Y42905D01*
X6098Y43145D01*
X6026Y43320D01*
X5925Y43354D01*
X5854Y43283D01*
X5854Y43425D01*
X5820Y43526D01*
X5594Y43608D01*
X5354Y43598D01*
X5179Y43526D01*
X5145Y43425D01*
X5500Y43070D01*
X5854Y43425D01*
X5854Y43283D01*
X5570Y43000D01*
X5576Y42994D01*
X5505Y42923D01*
X5500Y42929D01*
X5494Y42923D01*
X5429Y42988D01*
X5423Y42994D01*
X5429Y43000D01*
X5074Y43354D01*
X4973Y43320D01*
X4891Y43094D01*
X4901Y42854D01*
X4973Y42679D01*
X5074Y42645D01*
X5029Y42600D01*
X5046Y42583D01*
X5004Y42566D01*
X4933Y42496D01*
X4895Y42404D01*
X4895Y42348D01*
X4000Y42348D01*
X3628Y42348D01*
X3628Y45400D01*
X3618Y45648D01*
X3542Y45832D01*
X3439Y45868D01*
X3368Y45798D01*
X3368Y45939D01*
X3332Y46042D01*
X3099Y46128D01*
X2851Y46118D01*
X2667Y46042D01*
X2631Y45939D01*
X3000Y45570D01*
X3368Y45939D01*
X3368Y45798D01*
X3070Y45500D01*
X3439Y45131D01*
X3542Y45167D01*
X3628Y45400D01*
X3628Y42348D01*
X3368Y42348D01*
X3368Y45060D01*
X3000Y45429D01*
X2929Y45358D01*
X2929Y45500D01*
X2560Y45868D01*
X2457Y45832D01*
X2371Y45599D01*
X2381Y45351D01*
X2457Y45167D01*
X2560Y45131D01*
X2929Y45500D01*
X2929Y45358D01*
X2631Y45060D01*
X2667Y44957D01*
X2900Y44871D01*
X3148Y44881D01*
X3332Y44957D01*
X3368Y45060D01*
X3368Y42348D01*
X2783Y42348D01*
X2783Y43692D01*
X2783Y43850D01*
X2783Y43950D01*
X2783Y44107D01*
X2711Y44365D01*
X2547Y44575D01*
X2315Y44707D01*
X2255Y44722D01*
X2150Y44676D01*
X2150Y43950D01*
X2783Y43950D01*
X2783Y43850D01*
X2150Y43850D01*
X2150Y43123D01*
X2255Y43077D01*
X2315Y43092D01*
X2547Y43224D01*
X2711Y43434D01*
X2783Y43692D01*
X2783Y42348D01*
X2050Y42348D01*
X2050Y43123D01*
X2050Y43850D01*
X2042Y43850D01*
X2042Y43950D01*
X2050Y43950D01*
X2050Y44676D01*
X1944Y44722D01*
X1884Y44707D01*
X1652Y44575D01*
X1488Y44365D01*
X1416Y44107D01*
X1416Y44054D01*
X1300Y44120D01*
X1249Y44132D01*
X1150Y44085D01*
X1150Y43450D01*
X1157Y43450D01*
X1157Y43350D01*
X1150Y43350D01*
X1150Y42714D01*
X1249Y42667D01*
X1300Y42679D01*
X1519Y42803D01*
X1675Y43001D01*
X1726Y43182D01*
X1884Y43092D01*
X1944Y43077D01*
X2050Y43123D01*
X2050Y42348D01*
X1500Y42348D01*
X1499Y42348D01*
X1366Y42321D01*
X1351Y42312D01*
X1351Y42312D01*
X1346Y42315D01*
X1100Y42364D01*
X1050Y42354D01*
X1050Y42714D01*
X1050Y43350D01*
X1050Y43450D01*
X1050Y44085D01*
X950Y44132D01*
X899Y44120D01*
X680Y43996D01*
X524Y43798D01*
X456Y43556D01*
X456Y43450D01*
X1050Y43450D01*
X1050Y43350D01*
X456Y43350D01*
X456Y43243D01*
X524Y43001D01*
X680Y42803D01*
X899Y42679D01*
X950Y42667D01*
X1050Y42714D01*
X1050Y42354D01*
X853Y42315D01*
X644Y42176D01*
X505Y41967D01*
X456Y41720D01*
X456Y41479D01*
X505Y41232D01*
X644Y41023D01*
X853Y40884D01*
X1100Y40835D01*
X1346Y40884D01*
X1416Y40931D01*
X1416Y40892D01*
X1488Y40634D01*
X1652Y40424D01*
X1884Y40292D01*
X1944Y40277D01*
X2050Y40323D01*
X2050Y41050D01*
X2042Y41050D01*
X2042Y41150D01*
X2050Y41150D01*
X2050Y41157D01*
X2150Y41157D01*
X2150Y41150D01*
X2783Y41150D01*
X2783Y41307D01*
X2711Y41565D01*
X2644Y41651D01*
X4000Y41651D01*
X4651Y41651D01*
X4651Y41006D01*
X4487Y40842D01*
X4395Y40620D01*
X4395Y40380D01*
X4487Y40158D01*
X4600Y40045D01*
X2783Y40045D01*
X2783Y40892D01*
X2783Y41050D01*
X2150Y41050D01*
X2150Y40323D01*
X2255Y40277D01*
X2315Y40292D01*
X2547Y40424D01*
X2711Y40634D01*
X2783Y40892D01*
X2783Y40045D01*
X2500Y40045D01*
X2291Y40003D01*
X2114Y39885D01*
X1614Y39385D01*
X1496Y39208D01*
X1454Y39000D01*
X1454Y37126D01*
X1406Y37093D01*
X906Y36593D01*
X800Y36436D01*
X763Y36250D01*
X763Y28750D01*
X763Y26000D01*
X763Y23500D01*
X800Y23313D01*
X906Y23156D01*
X1440Y22622D01*
X1440Y22596D01*
X1482Y22381D01*
X1513Y22335D01*
X1513Y17377D01*
X1478Y17341D01*
X1440Y17249D01*
X1439Y17150D01*
X1439Y16250D01*
X1477Y16158D01*
X1513Y16122D01*
X1513Y15951D01*
X906Y15343D01*
X800Y15186D01*
X763Y15000D01*
X763Y12500D01*
X763Y6500D01*
X800Y6313D01*
X906Y6156D01*
X1606Y5456D01*
X1606Y5372D01*
X1703Y5135D01*
X1884Y4954D01*
X2121Y4856D01*
X2377Y4856D01*
X2394Y4863D01*
X3401Y3855D01*
X3401Y3672D01*
X3288Y3559D01*
X3204Y3358D01*
X3204Y3142D01*
X3287Y2941D01*
X3440Y2788D01*
X3641Y2704D01*
X3857Y2704D01*
X4058Y2787D01*
X4211Y2940D01*
X4295Y3141D01*
X4295Y3357D01*
X4212Y3558D01*
X4098Y3672D01*
X4098Y4000D01*
X4071Y4133D01*
X3996Y4246D01*
X3996Y4246D01*
X2887Y5355D01*
X2893Y5371D01*
X2893Y5627D01*
X2796Y5864D01*
X2615Y6045D01*
X2378Y6143D01*
X2293Y6143D01*
X1736Y6701D01*
X1736Y8799D01*
X1887Y8800D01*
X1950Y8862D01*
X1950Y9450D01*
X1942Y9450D01*
X1942Y9550D01*
X1950Y9550D01*
X1950Y10137D01*
X1887Y10200D01*
X1950Y10262D01*
X1950Y10575D01*
X1942Y10575D01*
X1942Y10675D01*
X1950Y10675D01*
X1950Y10682D01*
X2050Y10682D01*
X2050Y10675D01*
X2462Y10675D01*
X2525Y10737D01*
X2525Y10849D01*
X2487Y10941D01*
X2461Y10967D01*
X2706Y10967D01*
X2961Y10711D01*
X2961Y10711D01*
X3041Y10658D01*
X3094Y10623D01*
X3094Y10623D01*
X3250Y10592D01*
X8999Y10592D01*
X9000Y10592D01*
X9000Y10592D01*
X9155Y10623D01*
X9288Y10711D01*
X9668Y11092D01*
X12249Y11092D01*
X12250Y11092D01*
X12250Y11092D01*
X12405Y11123D01*
X12538Y11211D01*
X13418Y12092D01*
X13758Y12092D01*
X13842Y11967D01*
X13842Y11765D01*
X13833Y11762D01*
X13763Y11691D01*
X13725Y11599D01*
X13724Y11500D01*
X13724Y11150D01*
X13762Y11058D01*
X13821Y11000D01*
X13762Y10941D01*
X13724Y10849D01*
X13725Y10737D01*
X13787Y10675D01*
X14200Y10675D01*
X14200Y10682D01*
X14300Y10682D01*
X14300Y10675D01*
X14712Y10675D01*
X14775Y10737D01*
X14775Y10849D01*
X14737Y10941D01*
X14678Y11000D01*
X14736Y11058D01*
X14774Y11150D01*
X14775Y11249D01*
X14775Y11599D01*
X14737Y11691D01*
X14666Y11761D01*
X14657Y11765D01*
X14657Y11967D01*
X14749Y12105D01*
X14751Y12099D01*
X14889Y11928D01*
X15081Y11823D01*
X15113Y11816D01*
X15200Y11865D01*
X15200Y12450D01*
X15192Y12450D01*
X15192Y12550D01*
X15200Y12550D01*
X15200Y12557D01*
X15300Y12557D01*
X15300Y12550D01*
X15307Y12550D01*
X15307Y12450D01*
X15300Y12450D01*
X15300Y11865D01*
X15386Y11816D01*
X15418Y11823D01*
X15610Y11928D01*
X15748Y12099D01*
X15750Y12105D01*
X15854Y11950D01*
X15901Y11918D01*
X15901Y11500D01*
X15901Y11500D01*
X15923Y11388D01*
X15928Y11366D01*
X16003Y11253D01*
X17003Y10253D01*
X17003Y10253D01*
X17106Y10185D01*
X17035Y10171D01*
X16854Y10049D01*
X16750Y9894D01*
X16645Y10049D01*
X16464Y10171D01*
X16250Y10213D01*
X16035Y10171D01*
X15854Y10049D01*
X15750Y9894D01*
X15645Y10049D01*
X15464Y10171D01*
X15250Y10213D01*
X15035Y10171D01*
X14854Y10049D01*
X14809Y9983D01*
X14809Y9999D01*
X14771Y10091D01*
X14701Y10162D01*
X14609Y10200D01*
X14565Y10200D01*
X14574Y10200D01*
X14666Y10238D01*
X14737Y10308D01*
X14775Y10400D01*
X14775Y10512D01*
X14712Y10575D01*
X14300Y10575D01*
X14300Y10262D01*
X14362Y10200D01*
X14300Y10137D01*
X14300Y9550D01*
X14307Y9550D01*
X14307Y9450D01*
X14300Y9450D01*
X14300Y8862D01*
X14362Y8800D01*
X14609Y8799D01*
X14701Y8837D01*
X14771Y8908D01*
X14809Y9000D01*
X14809Y9016D01*
X14854Y8950D01*
X14901Y8918D01*
X14901Y8894D01*
X14200Y8192D01*
X14200Y8862D01*
X14200Y9450D01*
X14200Y9550D01*
X14200Y10137D01*
X14137Y10200D01*
X14200Y10262D01*
X14200Y10575D01*
X13787Y10575D01*
X13725Y10512D01*
X13724Y10400D01*
X13762Y10308D01*
X13833Y10238D01*
X13925Y10200D01*
X13934Y10200D01*
X13890Y10200D01*
X13798Y10162D01*
X13728Y10091D01*
X13690Y9999D01*
X13689Y9900D01*
X13690Y9612D01*
X13752Y9550D01*
X14200Y9550D01*
X14200Y9450D01*
X13752Y9450D01*
X13690Y9387D01*
X13689Y9099D01*
X13690Y9000D01*
X13728Y8908D01*
X13798Y8837D01*
X13890Y8799D01*
X14137Y8800D01*
X14200Y8862D01*
X14200Y8192D01*
X13253Y7246D01*
X13249Y7240D01*
X13246Y7246D01*
X12848Y7644D01*
X12848Y8327D01*
X12961Y8440D01*
X13045Y8641D01*
X13045Y8857D01*
X12962Y9058D01*
X12809Y9211D01*
X12608Y9295D01*
X12392Y9295D01*
X12191Y9212D01*
X12038Y9059D01*
X11954Y8858D01*
X11954Y8642D01*
X12037Y8441D01*
X12151Y8327D01*
X12151Y7591D01*
X11560Y8182D01*
X11560Y9310D01*
X11560Y9450D01*
X11560Y9550D01*
X11560Y9690D01*
X11498Y9900D01*
X11360Y10071D01*
X11168Y10176D01*
X11136Y10183D01*
X11050Y10134D01*
X11050Y9550D01*
X11560Y9550D01*
X11560Y9450D01*
X11050Y9450D01*
X11050Y8865D01*
X11136Y8816D01*
X11168Y8823D01*
X11360Y8928D01*
X11498Y9099D01*
X11560Y9310D01*
X11560Y8182D01*
X10903Y8839D01*
X10950Y8865D01*
X10950Y9450D01*
X10942Y9450D01*
X10942Y9550D01*
X10950Y9550D01*
X10950Y10134D01*
X10863Y10183D01*
X10831Y10176D01*
X10639Y10071D01*
X10501Y9900D01*
X10499Y9894D01*
X10395Y10049D01*
X10214Y10171D01*
X10000Y10213D01*
X9785Y10171D01*
X9604Y10049D01*
X9500Y9894D01*
X9395Y10049D01*
X9214Y10171D01*
X9000Y10213D01*
X8785Y10171D01*
X8604Y10049D01*
X8500Y9894D01*
X8395Y10049D01*
X8214Y10171D01*
X8000Y10213D01*
X7785Y10171D01*
X7604Y10049D01*
X7500Y9894D01*
X7395Y10049D01*
X7214Y10171D01*
X7000Y10213D01*
X6785Y10171D01*
X6604Y10049D01*
X6500Y9894D01*
X6395Y10049D01*
X6214Y10171D01*
X6000Y10213D01*
X5785Y10171D01*
X5604Y10049D01*
X5499Y9894D01*
X5395Y10049D01*
X5214Y10171D01*
X5000Y10213D01*
X4785Y10171D01*
X4604Y10049D01*
X4499Y9894D01*
X4395Y10049D01*
X4214Y10171D01*
X4000Y10213D01*
X3785Y10171D01*
X3604Y10049D01*
X3499Y9894D01*
X3395Y10049D01*
X3214Y10171D01*
X3000Y10213D01*
X2785Y10171D01*
X2604Y10049D01*
X2559Y9983D01*
X2559Y9999D01*
X2521Y10091D01*
X2451Y10162D01*
X2359Y10200D01*
X2315Y10200D01*
X2324Y10200D01*
X2416Y10238D01*
X2487Y10308D01*
X2525Y10400D01*
X2525Y10512D01*
X2462Y10575D01*
X2050Y10575D01*
X2050Y10262D01*
X2112Y10200D01*
X2050Y10137D01*
X2050Y9550D01*
X2057Y9550D01*
X2057Y9450D01*
X2050Y9450D01*
X2050Y8862D01*
X2112Y8800D01*
X2359Y8799D01*
X2451Y8837D01*
X2521Y8908D01*
X2559Y9000D01*
X2559Y9016D01*
X2604Y8950D01*
X2651Y8918D01*
X2651Y8250D01*
X2651Y7500D01*
X2651Y7500D01*
X2673Y7388D01*
X2678Y7366D01*
X2753Y7253D01*
X3578Y6428D01*
X3578Y6428D01*
X3691Y6353D01*
X3825Y6326D01*
X4000Y6326D01*
X4875Y6326D01*
X4875Y6324D01*
X4875Y5576D01*
X4913Y5484D01*
X4984Y5414D01*
X5037Y5392D01*
X5060Y5368D01*
X4957Y5332D01*
X4871Y5099D01*
X4881Y4851D01*
X4957Y4667D01*
X5060Y4631D01*
X5429Y5000D01*
X5423Y5005D01*
X5494Y5076D01*
X5500Y5070D01*
X5505Y5076D01*
X5576Y5005D01*
X5570Y5000D01*
X5939Y4631D01*
X6042Y4667D01*
X6128Y4900D01*
X6118Y5148D01*
X6042Y5332D01*
X5939Y5368D01*
X5962Y5392D01*
X6015Y5413D01*
X6085Y5484D01*
X6123Y5576D01*
X6124Y5675D01*
X6124Y6326D01*
X6430Y6326D01*
X7503Y5253D01*
X7503Y5253D01*
X7616Y5178D01*
X7750Y5151D01*
X7970Y5151D01*
X7935Y5030D01*
X7935Y4892D01*
X8450Y4892D01*
X8450Y4900D01*
X8550Y4900D01*
X8550Y4892D01*
X8557Y4892D01*
X8557Y4792D01*
X8550Y4792D01*
X8550Y4204D01*
X8637Y4156D01*
X8670Y4163D01*
X8864Y4269D01*
X9001Y4440D01*
X9100Y4291D01*
X9283Y4169D01*
X9500Y4125D01*
X9716Y4169D01*
X9899Y4291D01*
X10000Y4441D01*
X10100Y4291D01*
X10283Y4169D01*
X10500Y4125D01*
X10716Y4169D01*
X10899Y4291D01*
X11000Y4441D01*
X11100Y4291D01*
X11283Y4169D01*
X11500Y4125D01*
X11716Y4169D01*
X11899Y4291D01*
X12000Y4441D01*
X12100Y4291D01*
X12283Y4169D01*
X12500Y4125D01*
X12716Y4169D01*
X12899Y4291D01*
X13000Y4441D01*
X13100Y4291D01*
X13283Y4169D01*
X13500Y4125D01*
X13716Y4169D01*
X13899Y4291D01*
X14000Y4441D01*
X14100Y4291D01*
X14151Y4257D01*
X14151Y3000D01*
X14151Y3000D01*
X14173Y2888D01*
X14178Y2866D01*
X14253Y2753D01*
X16528Y478D01*
X16528Y478D01*
X16678Y328D01*
X16678Y328D01*
X16766Y269D01*
X8450Y269D01*
X8450Y4204D01*
X8450Y4792D01*
X7935Y4792D01*
X7935Y4654D01*
X7997Y4442D01*
X8135Y4269D01*
X8329Y4163D01*
X8362Y4156D01*
X8450Y4204D01*
X8450Y269D01*
X6128Y269D01*
X5868Y269D01*
X5868Y4560D01*
X5500Y4929D01*
X5429Y4858D01*
X5131Y4560D01*
X5167Y4457D01*
X5400Y4371D01*
X5648Y4381D01*
X5832Y4457D01*
X5868Y4560D01*
X5868Y269D01*
X2550Y269D01*
X2550Y1707D01*
X2390Y2094D01*
X2095Y2389D01*
X1709Y2549D01*
X1292Y2550D01*
X906Y2390D01*
X610Y2095D01*
X450Y1709D01*
X449Y1292D01*
X609Y906D01*
X904Y610D01*
X1290Y450D01*
X1707Y449D01*
X2094Y609D01*
X2389Y904D01*
X2549Y1290D01*
X2550Y1707D01*
X2550Y269D01*
X269Y269D01*
X269Y54730D01*
X38980Y54730D01*
X38980Y34012D01*
G54D10*
G36*
X38980Y269D02*
X38800Y269D01*
X38800Y1707D01*
X38640Y2094D01*
X38345Y2389D01*
X37959Y2549D01*
X37542Y2550D01*
X37156Y2390D01*
X36860Y2095D01*
X36700Y1709D01*
X36699Y1292D01*
X36859Y906D01*
X37154Y610D01*
X37540Y450D01*
X37957Y449D01*
X38344Y609D01*
X38639Y904D01*
X38799Y1290D01*
X38800Y1707D01*
X38800Y269D01*
X30233Y269D01*
X30321Y328D01*
X30471Y478D01*
X30471Y478D01*
X30471Y478D01*
X33996Y4003D01*
X33996Y4003D01*
X33996Y4003D01*
X34071Y4116D01*
X34098Y4250D01*
X34098Y4250D01*
X34098Y4250D01*
X34098Y4324D01*
X34168Y4254D01*
X34383Y4165D01*
X34615Y4165D01*
X34830Y4254D01*
X34995Y4418D01*
X35084Y4633D01*
X35084Y4865D01*
X34995Y5080D01*
X34831Y5245D01*
X34616Y5334D01*
X34384Y5334D01*
X34169Y5245D01*
X34098Y5175D01*
X34098Y7324D01*
X34151Y7271D01*
X34151Y6750D01*
X34151Y6750D01*
X34173Y6638D01*
X34178Y6616D01*
X34253Y6503D01*
X35401Y5355D01*
X35401Y5228D01*
X35254Y5081D01*
X35165Y4866D01*
X35165Y4634D01*
X35254Y4419D01*
X35418Y4254D01*
X35633Y4165D01*
X35865Y4165D01*
X36080Y4254D01*
X36228Y4401D01*
X36521Y4401D01*
X36668Y4254D01*
X36883Y4165D01*
X37115Y4165D01*
X37330Y4254D01*
X37495Y4418D01*
X37584Y4633D01*
X37584Y4865D01*
X37584Y7865D01*
X37495Y8080D01*
X37331Y8245D01*
X37116Y8334D01*
X36884Y8334D01*
X36669Y8245D01*
X36504Y8081D01*
X36415Y7866D01*
X36415Y7634D01*
X36504Y7419D01*
X36668Y7254D01*
X36883Y7165D01*
X37115Y7165D01*
X37330Y7254D01*
X37495Y7418D01*
X37584Y7633D01*
X37584Y7865D01*
X37584Y4865D01*
X37495Y5080D01*
X37331Y5245D01*
X37116Y5334D01*
X36884Y5334D01*
X36669Y5245D01*
X36521Y5098D01*
X36334Y5098D01*
X36334Y7865D01*
X36245Y8080D01*
X36081Y8245D01*
X36060Y8254D01*
X36060Y9310D01*
X36060Y9450D01*
X36060Y9550D01*
X36060Y9690D01*
X35998Y9900D01*
X35860Y10071D01*
X35668Y10176D01*
X35636Y10183D01*
X35550Y10134D01*
X35550Y9550D01*
X36060Y9550D01*
X36060Y9450D01*
X35550Y9450D01*
X35550Y8865D01*
X35636Y8816D01*
X35668Y8823D01*
X35860Y8928D01*
X35998Y9099D01*
X36060Y9310D01*
X36060Y8254D01*
X35866Y8334D01*
X35634Y8334D01*
X35419Y8245D01*
X35254Y8081D01*
X35165Y7866D01*
X35165Y7634D01*
X35254Y7419D01*
X35418Y7254D01*
X35633Y7165D01*
X35865Y7165D01*
X36080Y7254D01*
X36245Y7418D01*
X36334Y7633D01*
X36334Y7865D01*
X36334Y5098D01*
X36228Y5098D01*
X36098Y5228D01*
X36098Y5499D01*
X36098Y5500D01*
X36098Y5500D01*
X36076Y5611D01*
X36071Y5633D01*
X36071Y5633D01*
X35996Y5746D01*
X35996Y5746D01*
X34848Y6894D01*
X34848Y7271D01*
X34995Y7418D01*
X35084Y7633D01*
X35084Y7865D01*
X34995Y8080D01*
X34831Y8245D01*
X34616Y8334D01*
X34577Y8334D01*
X34746Y8503D01*
X34746Y8503D01*
X34746Y8503D01*
X34821Y8616D01*
X34848Y8749D01*
X34848Y8750D01*
X34848Y8750D01*
X34848Y8918D01*
X34895Y8950D01*
X34999Y9105D01*
X35001Y9099D01*
X35139Y8928D01*
X35331Y8823D01*
X35363Y8816D01*
X35450Y8865D01*
X35450Y9450D01*
X35442Y9450D01*
X35442Y9550D01*
X35450Y9550D01*
X35450Y10134D01*
X35363Y10183D01*
X35331Y10176D01*
X35139Y10071D01*
X35001Y9900D01*
X34999Y9894D01*
X34895Y10049D01*
X34714Y10171D01*
X34500Y10213D01*
X34285Y10171D01*
X34104Y10049D01*
X34000Y9894D01*
X33895Y10049D01*
X33714Y10171D01*
X33500Y10213D01*
X33285Y10171D01*
X33104Y10049D01*
X33000Y9894D01*
X32895Y10049D01*
X32714Y10171D01*
X32500Y10213D01*
X32285Y10171D01*
X32104Y10049D01*
X32000Y9894D01*
X31895Y10049D01*
X31714Y10171D01*
X31500Y10213D01*
X31285Y10171D01*
X31104Y10049D01*
X31000Y9894D01*
X30895Y10049D01*
X30714Y10171D01*
X30500Y10213D01*
X30285Y10171D01*
X30104Y10049D01*
X30000Y9894D01*
X29895Y10049D01*
X29848Y10081D01*
X29848Y10250D01*
X29821Y10383D01*
X29746Y10496D01*
X29746Y10496D01*
X29496Y10746D01*
X29383Y10821D01*
X29361Y10826D01*
X29250Y10848D01*
X29249Y10848D01*
X28250Y10848D01*
X28116Y10821D01*
X28003Y10746D01*
X28003Y10746D01*
X27753Y10496D01*
X27750Y10491D01*
X27750Y10974D01*
X27750Y11087D01*
X27687Y11150D01*
X27375Y11150D01*
X27375Y10737D01*
X27437Y10675D01*
X27549Y10674D01*
X27641Y10712D01*
X27711Y10783D01*
X27749Y10875D01*
X27750Y10974D01*
X27750Y10491D01*
X27678Y10383D01*
X27651Y10250D01*
X27665Y10180D01*
X27500Y10213D01*
X27285Y10171D01*
X27104Y10049D01*
X27060Y9983D01*
X27060Y9999D01*
X27022Y10091D01*
X26951Y10161D01*
X26859Y10199D01*
X26760Y10200D01*
X26292Y10200D01*
X26198Y10294D01*
X26198Y10773D01*
X26258Y10713D01*
X26350Y10675D01*
X26449Y10674D01*
X26799Y10674D01*
X26891Y10712D01*
X26950Y10771D01*
X27008Y10712D01*
X27100Y10674D01*
X27212Y10675D01*
X27275Y10737D01*
X27275Y11150D01*
X27267Y11150D01*
X27267Y11250D01*
X27275Y11250D01*
X27275Y11662D01*
X27212Y11725D01*
X27100Y11725D01*
X27008Y11687D01*
X26949Y11628D01*
X26907Y11671D01*
X26907Y11967D01*
X27000Y12105D01*
X27104Y11950D01*
X27285Y11828D01*
X27500Y11786D01*
X27665Y11819D01*
X27651Y11750D01*
X27669Y11658D01*
X27641Y11687D01*
X27549Y11725D01*
X27437Y11725D01*
X27375Y11662D01*
X27375Y11250D01*
X27687Y11250D01*
X27750Y11312D01*
X27750Y11425D01*
X27749Y11509D01*
X27753Y11503D01*
X28003Y11253D01*
X28003Y11253D01*
X28116Y11178D01*
X28250Y11151D01*
X29249Y11151D01*
X29250Y11151D01*
X29250Y11151D01*
X29361Y11173D01*
X29383Y11178D01*
X29383Y11178D01*
X29496Y11253D01*
X29746Y11503D01*
X29746Y11503D01*
X29746Y11503D01*
X29821Y11616D01*
X29848Y11750D01*
X29848Y11918D01*
X29895Y11950D01*
X30000Y12105D01*
X30104Y11950D01*
X30285Y11828D01*
X30500Y11786D01*
X30714Y11828D01*
X30895Y11950D01*
X31000Y12105D01*
X31104Y11950D01*
X31285Y11828D01*
X31500Y11786D01*
X31714Y11828D01*
X31895Y11950D01*
X32000Y12105D01*
X32104Y11950D01*
X32170Y11906D01*
X32173Y11888D01*
X32178Y11866D01*
X32253Y11753D01*
X33503Y10503D01*
X33503Y10503D01*
X33616Y10428D01*
X33616Y10428D01*
X33638Y10423D01*
X33750Y10401D01*
X33750Y10401D01*
X33750Y10401D01*
X36749Y10401D01*
X36750Y10401D01*
X36750Y10401D01*
X36861Y10423D01*
X36883Y10428D01*
X36883Y10428D01*
X36996Y10503D01*
X38980Y12487D01*
X38980Y269D01*
X38980Y269D01*
G37*
G54D47*
X38980Y269D02*
X38800Y269D01*
X38800Y1707D01*
X38640Y2094D01*
X38345Y2389D01*
X37959Y2549D01*
X37542Y2550D01*
X37156Y2390D01*
X36860Y2095D01*
X36700Y1709D01*
X36699Y1292D01*
X36859Y906D01*
X37154Y610D01*
X37540Y450D01*
X37957Y449D01*
X38344Y609D01*
X38639Y904D01*
X38799Y1290D01*
X38800Y1707D01*
X38800Y269D01*
X30233Y269D01*
X30321Y328D01*
X30471Y478D01*
X30471Y478D01*
X30471Y478D01*
X33996Y4003D01*
X33996Y4003D01*
X33996Y4003D01*
X34071Y4116D01*
X34098Y4250D01*
X34098Y4250D01*
X34098Y4250D01*
X34098Y4324D01*
X34168Y4254D01*
X34383Y4165D01*
X34615Y4165D01*
X34830Y4254D01*
X34995Y4418D01*
X35084Y4633D01*
X35084Y4865D01*
X34995Y5080D01*
X34831Y5245D01*
X34616Y5334D01*
X34384Y5334D01*
X34169Y5245D01*
X34098Y5175D01*
X34098Y7324D01*
X34151Y7271D01*
X34151Y6750D01*
X34151Y6750D01*
X34173Y6638D01*
X34178Y6616D01*
X34253Y6503D01*
X35401Y5355D01*
X35401Y5228D01*
X35254Y5081D01*
X35165Y4866D01*
X35165Y4634D01*
X35254Y4419D01*
X35418Y4254D01*
X35633Y4165D01*
X35865Y4165D01*
X36080Y4254D01*
X36228Y4401D01*
X36521Y4401D01*
X36668Y4254D01*
X36883Y4165D01*
X37115Y4165D01*
X37330Y4254D01*
X37495Y4418D01*
X37584Y4633D01*
X37584Y4865D01*
X37584Y7865D01*
X37495Y8080D01*
X37331Y8245D01*
X37116Y8334D01*
X36884Y8334D01*
X36669Y8245D01*
X36504Y8081D01*
X36415Y7866D01*
X36415Y7634D01*
X36504Y7419D01*
X36668Y7254D01*
X36883Y7165D01*
X37115Y7165D01*
X37330Y7254D01*
X37495Y7418D01*
X37584Y7633D01*
X37584Y7865D01*
X37584Y4865D01*
X37495Y5080D01*
X37331Y5245D01*
X37116Y5334D01*
X36884Y5334D01*
X36669Y5245D01*
X36521Y5098D01*
X36334Y5098D01*
X36334Y7865D01*
X36245Y8080D01*
X36081Y8245D01*
X36060Y8254D01*
X36060Y9310D01*
X36060Y9450D01*
X36060Y9550D01*
X36060Y9690D01*
X35998Y9900D01*
X35860Y10071D01*
X35668Y10176D01*
X35636Y10183D01*
X35550Y10134D01*
X35550Y9550D01*
X36060Y9550D01*
X36060Y9450D01*
X35550Y9450D01*
X35550Y8865D01*
X35636Y8816D01*
X35668Y8823D01*
X35860Y8928D01*
X35998Y9099D01*
X36060Y9310D01*
X36060Y8254D01*
X35866Y8334D01*
X35634Y8334D01*
X35419Y8245D01*
X35254Y8081D01*
X35165Y7866D01*
X35165Y7634D01*
X35254Y7419D01*
X35418Y7254D01*
X35633Y7165D01*
X35865Y7165D01*
X36080Y7254D01*
X36245Y7418D01*
X36334Y7633D01*
X36334Y7865D01*
X36334Y5098D01*
X36228Y5098D01*
X36098Y5228D01*
X36098Y5499D01*
X36098Y5500D01*
X36098Y5500D01*
X36076Y5611D01*
X36071Y5633D01*
X36071Y5633D01*
X35996Y5746D01*
X35996Y5746D01*
X34848Y6894D01*
X34848Y7271D01*
X34995Y7418D01*
X35084Y7633D01*
X35084Y7865D01*
X34995Y8080D01*
X34831Y8245D01*
X34616Y8334D01*
X34577Y8334D01*
X34746Y8503D01*
X34746Y8503D01*
X34746Y8503D01*
X34821Y8616D01*
X34848Y8749D01*
X34848Y8750D01*
X34848Y8750D01*
X34848Y8918D01*
X34895Y8950D01*
X34999Y9105D01*
X35001Y9099D01*
X35139Y8928D01*
X35331Y8823D01*
X35363Y8816D01*
X35450Y8865D01*
X35450Y9450D01*
X35442Y9450D01*
X35442Y9550D01*
X35450Y9550D01*
X35450Y10134D01*
X35363Y10183D01*
X35331Y10176D01*
X35139Y10071D01*
X35001Y9900D01*
X34999Y9894D01*
X34895Y10049D01*
X34714Y10171D01*
X34500Y10213D01*
X34285Y10171D01*
X34104Y10049D01*
X34000Y9894D01*
X33895Y10049D01*
X33714Y10171D01*
X33500Y10213D01*
X33285Y10171D01*
X33104Y10049D01*
X33000Y9894D01*
X32895Y10049D01*
X32714Y10171D01*
X32500Y10213D01*
X32285Y10171D01*
X32104Y10049D01*
X32000Y9894D01*
X31895Y10049D01*
X31714Y10171D01*
X31500Y10213D01*
X31285Y10171D01*
X31104Y10049D01*
X31000Y9894D01*
X30895Y10049D01*
X30714Y10171D01*
X30500Y10213D01*
X30285Y10171D01*
X30104Y10049D01*
X30000Y9894D01*
X29895Y10049D01*
X29848Y10081D01*
X29848Y10250D01*
X29821Y10383D01*
X29746Y10496D01*
X29746Y10496D01*
X29496Y10746D01*
X29383Y10821D01*
X29361Y10826D01*
X29250Y10848D01*
X29249Y10848D01*
X28250Y10848D01*
X28116Y10821D01*
X28003Y10746D01*
X28003Y10746D01*
X27753Y10496D01*
X27750Y10491D01*
X27750Y10974D01*
X27750Y11087D01*
X27687Y11150D01*
X27375Y11150D01*
X27375Y10737D01*
X27437Y10675D01*
X27549Y10674D01*
X27641Y10712D01*
X27711Y10783D01*
X27749Y10875D01*
X27750Y10974D01*
X27750Y10491D01*
X27678Y10383D01*
X27651Y10250D01*
X27665Y10180D01*
X27500Y10213D01*
X27285Y10171D01*
X27104Y10049D01*
X27060Y9983D01*
X27060Y9999D01*
X27022Y10091D01*
X26951Y10161D01*
X26859Y10199D01*
X26760Y10200D01*
X26292Y10200D01*
X26198Y10294D01*
X26198Y10773D01*
X26258Y10713D01*
X26350Y10675D01*
X26449Y10674D01*
X26799Y10674D01*
X26891Y10712D01*
X26950Y10771D01*
X27008Y10712D01*
X27100Y10674D01*
X27212Y10675D01*
X27275Y10737D01*
X27275Y11150D01*
X27267Y11150D01*
X27267Y11250D01*
X27275Y11250D01*
X27275Y11662D01*
X27212Y11725D01*
X27100Y11725D01*
X27008Y11687D01*
X26949Y11628D01*
X26907Y11671D01*
X26907Y11967D01*
X27000Y12105D01*
X27104Y11950D01*
X27285Y11828D01*
X27500Y11786D01*
X27665Y11819D01*
X27651Y11750D01*
X27669Y11658D01*
X27641Y11687D01*
X27549Y11725D01*
X27437Y11725D01*
X27375Y11662D01*
X27375Y11250D01*
X27687Y11250D01*
X27750Y11312D01*
X27750Y11425D01*
X27749Y11509D01*
X27753Y11503D01*
X28003Y11253D01*
X28003Y11253D01*
X28116Y11178D01*
X28250Y11151D01*
X29249Y11151D01*
X29250Y11151D01*
X29250Y11151D01*
X29361Y11173D01*
X29383Y11178D01*
X29383Y11178D01*
X29496Y11253D01*
X29746Y11503D01*
X29746Y11503D01*
X29746Y11503D01*
X29821Y11616D01*
X29848Y11750D01*
X29848Y11918D01*
X29895Y11950D01*
X30000Y12105D01*
X30104Y11950D01*
X30285Y11828D01*
X30500Y11786D01*
X30714Y11828D01*
X30895Y11950D01*
X31000Y12105D01*
X31104Y11950D01*
X31285Y11828D01*
X31500Y11786D01*
X31714Y11828D01*
X31895Y11950D01*
X32000Y12105D01*
X32104Y11950D01*
X32170Y11906D01*
X32173Y11888D01*
X32178Y11866D01*
X32253Y11753D01*
X33503Y10503D01*
X33503Y10503D01*
X33616Y10428D01*
X33616Y10428D01*
X33638Y10423D01*
X33750Y10401D01*
X33750Y10401D01*
X33750Y10401D01*
X36749Y10401D01*
X36750Y10401D01*
X36750Y10401D01*
X36861Y10423D01*
X36883Y10428D01*
X36883Y10428D01*
X36996Y10503D01*
X38980Y12487D01*
X38980Y269D01*
M02*
