G04 (created by PCBNEW (2013-07-07 BZR 4022)-stable) date 19/03/2022 16:48:29*
%MOIN*%
G04 Gerber Fmt 3.4, Leading zero omitted, Abs format*
%FSLAX34Y34*%
G01*
G70*
G90*
G04 APERTURE LIST*
%ADD10C,0.00590551*%
%ADD11C,0.011811*%
%ADD12C,0.00393701*%
%ADD13O,0.189X0.177165*%
%ADD14O,0.204724X0.177165*%
%ADD15O,0.137795X0.189*%
%ADD16O,0.0866142X0.11811*%
%ADD17O,0.0787402X0.1*%
%ADD18R,0.0629921X0.0905512*%
%ADD19O,0.0629921X0.0905512*%
%ADD20C,0.0669291*%
%ADD21C,0.0708661*%
%ADD22R,0.0629921X0.0629921*%
%ADD23O,0.0629921X0.0748031*%
%ADD24O,0.0748031X0.0629921*%
%ADD25C,0.0649606*%
%ADD26C,0.0629921*%
%ADD27R,0.062X0.09*%
%ADD28O,0.062X0.09*%
%ADD29R,0.0708661X0.0708661*%
%ADD30C,0.0905512*%
%ADD31R,0.0905512X0.0905512*%
%ADD32R,0.0748031X0.0748031*%
%ADD33C,0.0748031*%
%ADD34C,0.102362*%
%ADD35R,0.11811X0.11811*%
%ADD36C,0.11811*%
%ADD37C,0.16*%
%ADD38O,0.0748031X0.0905512*%
%ADD39C,0.0590551*%
%ADD40C,0.0787402*%
%ADD41C,0.019685*%
%ADD42C,0.0137795*%
%ADD43C,0.0314961*%
%ADD44C,0.0472441*%
%ADD45C,0.01*%
G04 APERTURE END LIST*
G54D10*
G54D11*
X19006Y2101D02*
X19062Y2101D01*
X19118Y2073D01*
X19147Y2045D01*
X19175Y1989D01*
X19203Y1876D01*
X19203Y1735D01*
X19175Y1623D01*
X19147Y1567D01*
X19118Y1539D01*
X19062Y1510D01*
X19006Y1510D01*
X18950Y1539D01*
X18922Y1567D01*
X18893Y1623D01*
X18865Y1735D01*
X18865Y1876D01*
X18893Y1989D01*
X18922Y2045D01*
X18950Y2073D01*
X19006Y2101D01*
X19709Y2101D02*
X19597Y2101D01*
X19540Y2073D01*
X19512Y2045D01*
X19456Y1960D01*
X19428Y1848D01*
X19428Y1623D01*
X19456Y1567D01*
X19484Y1539D01*
X19540Y1510D01*
X19653Y1510D01*
X19709Y1539D01*
X19737Y1567D01*
X19765Y1623D01*
X19765Y1764D01*
X19737Y1820D01*
X19709Y1848D01*
X19653Y1876D01*
X19540Y1876D01*
X19484Y1848D01*
X19456Y1820D01*
X19428Y1764D01*
X20440Y2129D02*
X19934Y1370D01*
X20609Y2045D02*
X20637Y2073D01*
X20693Y2101D01*
X20834Y2101D01*
X20890Y2073D01*
X20918Y2045D01*
X20946Y1989D01*
X20946Y1932D01*
X20918Y1848D01*
X20581Y1510D01*
X20946Y1510D01*
X21312Y2101D02*
X21368Y2101D01*
X21424Y2073D01*
X21453Y2045D01*
X21481Y1989D01*
X21509Y1876D01*
X21509Y1735D01*
X21481Y1623D01*
X21453Y1567D01*
X21424Y1539D01*
X21368Y1510D01*
X21312Y1510D01*
X21256Y1539D01*
X21228Y1567D01*
X21199Y1623D01*
X21171Y1735D01*
X21171Y1876D01*
X21199Y1989D01*
X21228Y2045D01*
X21256Y2073D01*
X21312Y2101D01*
X22071Y1510D02*
X21734Y1510D01*
X21902Y1510D02*
X21902Y2101D01*
X21846Y2017D01*
X21790Y1960D01*
X21734Y1932D01*
X22268Y2101D02*
X22662Y2101D01*
X22409Y1510D01*
X4355Y1567D02*
X4327Y1539D01*
X4242Y1510D01*
X4186Y1510D01*
X4102Y1539D01*
X4046Y1595D01*
X4017Y1651D01*
X3989Y1764D01*
X3989Y1848D01*
X4017Y1960D01*
X4046Y2017D01*
X4102Y2073D01*
X4186Y2101D01*
X4242Y2101D01*
X4327Y2073D01*
X4355Y2045D01*
X4721Y2101D02*
X4833Y2101D01*
X4889Y2073D01*
X4946Y2017D01*
X4974Y1904D01*
X4974Y1707D01*
X4946Y1595D01*
X4889Y1539D01*
X4833Y1510D01*
X4721Y1510D01*
X4664Y1539D01*
X4608Y1595D01*
X4580Y1707D01*
X4580Y1904D01*
X4608Y2017D01*
X4664Y2073D01*
X4721Y2101D01*
X5227Y1510D02*
X5227Y2101D01*
X5564Y1510D01*
X5564Y2101D01*
X5761Y2101D02*
X6098Y2101D01*
X5930Y1510D02*
X5930Y2101D01*
X6633Y1510D02*
X6436Y1792D01*
X6295Y1510D02*
X6295Y2101D01*
X6520Y2101D01*
X6577Y2073D01*
X6605Y2045D01*
X6633Y1989D01*
X6633Y1904D01*
X6605Y1848D01*
X6577Y1820D01*
X6520Y1792D01*
X6295Y1792D01*
X6998Y2101D02*
X7111Y2101D01*
X7167Y2073D01*
X7223Y2017D01*
X7251Y1904D01*
X7251Y1707D01*
X7223Y1595D01*
X7167Y1539D01*
X7111Y1510D01*
X6998Y1510D01*
X6942Y1539D01*
X6886Y1595D01*
X6858Y1707D01*
X6858Y1904D01*
X6886Y2017D01*
X6942Y2073D01*
X6998Y2101D01*
X7786Y1510D02*
X7505Y1510D01*
X7505Y2101D01*
X7983Y1820D02*
X8179Y1820D01*
X8264Y1510D02*
X7983Y1510D01*
X7983Y2101D01*
X8264Y2101D01*
X8517Y2101D02*
X8517Y1623D01*
X8545Y1567D01*
X8573Y1539D01*
X8629Y1510D01*
X8742Y1510D01*
X8798Y1539D01*
X8826Y1567D01*
X8854Y1623D01*
X8854Y2101D01*
X9473Y1510D02*
X9276Y1792D01*
X9136Y1510D02*
X9136Y2101D01*
X9361Y2101D01*
X9417Y2073D01*
X9445Y2045D01*
X9473Y1989D01*
X9473Y1904D01*
X9445Y1848D01*
X9417Y1820D01*
X9361Y1792D01*
X9136Y1792D01*
X10176Y1510D02*
X10176Y2101D01*
X10373Y1679D01*
X10570Y2101D01*
X10570Y1510D01*
X10851Y1510D02*
X10851Y2101D01*
X11470Y1567D02*
X11442Y1539D01*
X11357Y1510D01*
X11301Y1510D01*
X11217Y1539D01*
X11160Y1595D01*
X11132Y1651D01*
X11104Y1764D01*
X11104Y1848D01*
X11132Y1960D01*
X11160Y2017D01*
X11217Y2073D01*
X11301Y2101D01*
X11357Y2101D01*
X11442Y2073D01*
X11470Y2045D01*
X12060Y1510D02*
X11863Y1792D01*
X11723Y1510D02*
X11723Y2101D01*
X11948Y2101D01*
X12004Y2073D01*
X12032Y2045D01*
X12060Y1989D01*
X12060Y1904D01*
X12032Y1848D01*
X12004Y1820D01*
X11948Y1792D01*
X11723Y1792D01*
X12426Y2101D02*
X12538Y2101D01*
X12595Y2073D01*
X12651Y2017D01*
X12679Y1904D01*
X12679Y1707D01*
X12651Y1595D01*
X12595Y1539D01*
X12538Y1510D01*
X12426Y1510D01*
X12370Y1539D01*
X12313Y1595D01*
X12285Y1707D01*
X12285Y1904D01*
X12313Y2017D01*
X12370Y2073D01*
X12426Y2101D01*
X12932Y1510D02*
X12932Y2101D01*
X13073Y2101D01*
X13157Y2073D01*
X13213Y2017D01*
X13241Y1960D01*
X13269Y1848D01*
X13269Y1764D01*
X13241Y1651D01*
X13213Y1595D01*
X13157Y1539D01*
X13073Y1510D01*
X12932Y1510D01*
X13523Y1510D02*
X13523Y2101D01*
X13776Y1539D02*
X13860Y1510D01*
X14001Y1510D01*
X14057Y1539D01*
X14085Y1567D01*
X14113Y1623D01*
X14113Y1679D01*
X14085Y1735D01*
X14057Y1764D01*
X14001Y1792D01*
X13888Y1820D01*
X13832Y1848D01*
X13804Y1876D01*
X13776Y1932D01*
X13776Y1989D01*
X13804Y2045D01*
X13832Y2073D01*
X13888Y2101D01*
X14029Y2101D01*
X14113Y2073D01*
X14704Y1567D02*
X14676Y1539D01*
X14591Y1510D01*
X14535Y1510D01*
X14451Y1539D01*
X14394Y1595D01*
X14366Y1651D01*
X14338Y1764D01*
X14338Y1848D01*
X14366Y1960D01*
X14394Y2017D01*
X14451Y2073D01*
X14535Y2101D01*
X14591Y2101D01*
X14676Y2073D01*
X14704Y2045D01*
X15350Y1904D02*
X15491Y1510D01*
X15632Y1904D01*
X15800Y2101D02*
X16166Y2101D01*
X15969Y1876D01*
X16053Y1876D01*
X16110Y1848D01*
X16138Y1820D01*
X16166Y1764D01*
X16166Y1623D01*
X16138Y1567D01*
X16110Y1539D01*
X16053Y1510D01*
X15885Y1510D01*
X15829Y1539D01*
X15800Y1567D01*
X16419Y1567D02*
X16447Y1539D01*
X16419Y1510D01*
X16391Y1539D01*
X16419Y1567D01*
X16419Y1510D01*
X16672Y2045D02*
X16700Y2073D01*
X16757Y2101D01*
X16897Y2101D01*
X16953Y2073D01*
X16982Y2045D01*
X17010Y1989D01*
X17010Y1932D01*
X16982Y1848D01*
X16644Y1510D01*
X17010Y1510D01*
G54D12*
X39250Y55000D02*
X0Y55000D01*
X0Y0D02*
X39250Y0D01*
X0Y0D02*
X0Y55000D01*
X39250Y55000D02*
X39250Y0D01*
G54D13*
X6750Y53250D03*
G54D14*
X6750Y50850D03*
G54D15*
X5050Y52350D03*
G54D16*
X2100Y41100D03*
G54D17*
X1100Y41600D03*
X1100Y43400D03*
G54D16*
X2100Y43900D03*
G54D18*
X24500Y6157D03*
G54D19*
X24500Y4842D03*
X23500Y6157D03*
X23500Y4842D03*
X22500Y6157D03*
X22500Y4842D03*
X21500Y6157D03*
X21500Y4842D03*
X20500Y6157D03*
X20500Y4842D03*
X19500Y6157D03*
X19500Y4842D03*
X18500Y6157D03*
X18500Y4842D03*
X17500Y6157D03*
X17500Y4842D03*
X16500Y6157D03*
X16500Y4842D03*
X15500Y6157D03*
X15500Y4842D03*
X14500Y6157D03*
X14500Y4842D03*
X13500Y6157D03*
X13500Y4842D03*
X12500Y6157D03*
X12500Y4842D03*
X11500Y6157D03*
X11500Y4842D03*
X10500Y6157D03*
X10500Y4842D03*
X9500Y6157D03*
X9500Y4842D03*
X8500Y6157D03*
X8500Y4842D03*
G54D18*
X20750Y49592D03*
G54D19*
X20750Y50907D03*
X21750Y49592D03*
X21750Y50907D03*
X22750Y49592D03*
X22750Y50907D03*
X23750Y49592D03*
X23750Y50907D03*
X24750Y49592D03*
X24750Y50907D03*
X25750Y49592D03*
X25750Y50907D03*
X26750Y49592D03*
X26750Y50907D03*
X27750Y49592D03*
X27750Y50907D03*
X28750Y49592D03*
X28750Y50907D03*
X29750Y49592D03*
X29750Y50907D03*
X30750Y49592D03*
X30750Y50907D03*
X31750Y49592D03*
X31750Y50907D03*
X32750Y49592D03*
X32750Y50907D03*
X33750Y49592D03*
X33750Y50907D03*
X34750Y49592D03*
X34750Y50907D03*
X35750Y49592D03*
X35750Y50907D03*
X36750Y49592D03*
X36750Y50907D03*
G54D20*
X16750Y44750D03*
X16750Y47750D03*
G54D21*
X9000Y38000D03*
X6000Y38000D03*
X3000Y32500D03*
X6000Y32500D03*
X8000Y40500D03*
X5000Y40500D03*
G54D20*
X13500Y53250D03*
X13500Y50250D03*
X14750Y53250D03*
X14750Y50250D03*
X16000Y53250D03*
X16000Y50250D03*
X17250Y53250D03*
X17250Y50250D03*
G54D22*
X28500Y30250D03*
G54D23*
X28500Y29171D03*
X27500Y30328D03*
X27500Y29171D03*
X26500Y30328D03*
X26500Y29171D03*
X25500Y30328D03*
X25500Y29171D03*
X24500Y30328D03*
X24500Y29171D03*
X23500Y30328D03*
G54D24*
X22421Y29250D03*
G54D20*
X23500Y29250D03*
G54D24*
X22421Y28250D03*
X23578Y28250D03*
X22421Y27250D03*
X23578Y27250D03*
X22421Y26250D03*
X23578Y26250D03*
X22421Y25250D03*
X23578Y25250D03*
X22421Y24250D03*
X23578Y24250D03*
X22421Y23250D03*
X23578Y23250D03*
X22421Y22250D03*
X23578Y22250D03*
X22421Y21250D03*
X23578Y21250D03*
X22421Y20250D03*
X23578Y20250D03*
X22421Y19250D03*
G54D23*
X23500Y18171D03*
G54D25*
X23500Y19250D03*
G54D23*
X24500Y18171D03*
X24500Y19328D03*
X25500Y18171D03*
X25500Y19328D03*
X26500Y18171D03*
X26500Y19328D03*
X27500Y18171D03*
X27500Y19328D03*
X28500Y18171D03*
X28500Y19328D03*
X29500Y18171D03*
X29500Y19328D03*
X30500Y18171D03*
X30500Y19328D03*
X31500Y18171D03*
X31500Y19328D03*
X32500Y18171D03*
X32500Y19328D03*
X33500Y18171D03*
G54D24*
X34578Y19250D03*
G54D25*
X33500Y19250D03*
G54D24*
X34578Y20250D03*
X33421Y20250D03*
X34578Y21250D03*
X33421Y21250D03*
X34578Y22250D03*
X33421Y22250D03*
X34578Y23250D03*
X33421Y23250D03*
X34578Y24250D03*
X33421Y24250D03*
X34578Y25250D03*
X33421Y25250D03*
X34578Y26250D03*
X33421Y26250D03*
X34578Y27250D03*
X33421Y27250D03*
X34578Y28250D03*
X33421Y28250D03*
X34578Y29250D03*
G54D23*
X33500Y30328D03*
G54D26*
X33500Y29250D03*
G54D23*
X32500Y30328D03*
X32500Y29171D03*
X31500Y30328D03*
X31500Y29171D03*
X30500Y30328D03*
X30500Y29171D03*
X29500Y30328D03*
X29500Y29171D03*
G54D27*
X11750Y39250D03*
G54D28*
X12750Y39250D03*
X13750Y39250D03*
X14750Y39250D03*
X14750Y42250D03*
X13750Y42250D03*
X12750Y42250D03*
X11750Y42250D03*
G54D27*
X17750Y36250D03*
G54D28*
X18750Y36250D03*
X19750Y36250D03*
X20750Y36250D03*
X21750Y36250D03*
X22750Y36250D03*
X23750Y36250D03*
X24750Y36250D03*
X25750Y36250D03*
X26750Y36250D03*
X27750Y36250D03*
X28750Y36250D03*
X29750Y36250D03*
X30750Y36250D03*
X31750Y36250D03*
X32750Y36250D03*
X33750Y36250D03*
X34750Y36250D03*
X35750Y36250D03*
X36750Y36250D03*
X36750Y42250D03*
X35750Y42250D03*
X34750Y42250D03*
X33750Y42250D03*
X32750Y42250D03*
X31750Y42250D03*
X30750Y42250D03*
X29750Y42250D03*
X28750Y42250D03*
X27750Y42250D03*
X26750Y42250D03*
X25750Y42250D03*
X24750Y42250D03*
X23750Y42250D03*
X22750Y42250D03*
X21750Y42250D03*
X20750Y42250D03*
X19750Y42250D03*
X18750Y42250D03*
X17750Y42250D03*
G54D27*
X2000Y16750D03*
G54D28*
X3000Y16750D03*
X4000Y16750D03*
X5000Y16750D03*
X6000Y16750D03*
X7000Y16750D03*
X8000Y16750D03*
X9000Y16750D03*
X10000Y16750D03*
X11000Y16750D03*
X12000Y16750D03*
X13000Y16750D03*
X14000Y16750D03*
X15000Y16750D03*
X15000Y22750D03*
X14000Y22750D03*
X13000Y22750D03*
X12000Y22750D03*
X11000Y22750D03*
X10000Y22750D03*
X9000Y22750D03*
X8000Y22750D03*
X7000Y22750D03*
X6000Y22750D03*
X5000Y22750D03*
X4000Y22750D03*
X3000Y22750D03*
X2000Y22750D03*
G54D27*
X26500Y9500D03*
G54D28*
X27500Y9500D03*
X28500Y9500D03*
X29500Y9500D03*
X30500Y9500D03*
X31500Y9500D03*
X32500Y9500D03*
X33500Y9500D03*
X34500Y9500D03*
X35500Y9500D03*
X35500Y12500D03*
X34500Y12500D03*
X33500Y12500D03*
X32500Y12500D03*
X31500Y12500D03*
X30500Y12500D03*
X29500Y12500D03*
X28500Y12500D03*
X27500Y12500D03*
X26500Y12500D03*
G54D27*
X2000Y9500D03*
G54D28*
X3000Y9500D03*
X4000Y9500D03*
X5000Y9500D03*
X6000Y9500D03*
X7000Y9500D03*
X8000Y9500D03*
X9000Y9500D03*
X10000Y9500D03*
X11000Y9500D03*
X11000Y12500D03*
X10000Y12500D03*
X9000Y12500D03*
X8000Y12500D03*
X7000Y12500D03*
X6000Y12500D03*
X5000Y12500D03*
X4000Y12500D03*
X3000Y12500D03*
X2000Y12500D03*
G54D27*
X14250Y9500D03*
G54D28*
X15250Y9500D03*
X16250Y9500D03*
X17250Y9500D03*
X18250Y9500D03*
X19250Y9500D03*
X20250Y9500D03*
X21250Y9500D03*
X22250Y9500D03*
X23250Y9500D03*
X23250Y12500D03*
X22250Y12500D03*
X21250Y12500D03*
X20250Y12500D03*
X19250Y12500D03*
X18250Y12500D03*
X17250Y12500D03*
X16250Y12500D03*
X15250Y12500D03*
X14250Y12500D03*
G54D27*
X2000Y25750D03*
G54D28*
X3000Y25750D03*
X4000Y25750D03*
X5000Y25750D03*
X6000Y25750D03*
X7000Y25750D03*
X8000Y25750D03*
X9000Y25750D03*
X10000Y25750D03*
X11000Y25750D03*
X11000Y28750D03*
X10000Y28750D03*
X9000Y28750D03*
X8000Y28750D03*
X7000Y28750D03*
X6000Y28750D03*
X5000Y28750D03*
X4000Y28750D03*
X3000Y28750D03*
X2000Y28750D03*
G54D27*
X19750Y44750D03*
G54D28*
X20750Y44750D03*
X21750Y44750D03*
X22750Y44750D03*
X23750Y44750D03*
X24750Y44750D03*
X25750Y44750D03*
X26750Y44750D03*
X26750Y47750D03*
X25750Y47750D03*
X24750Y47750D03*
X23750Y47750D03*
X22750Y47750D03*
X21750Y47750D03*
X20750Y47750D03*
X19750Y47750D03*
G54D27*
X2000Y33750D03*
G54D28*
X3000Y33750D03*
X4000Y33750D03*
X5000Y33750D03*
X6000Y33750D03*
X7000Y33750D03*
X8000Y33750D03*
X9000Y33750D03*
X9000Y36750D03*
X8000Y36750D03*
X7000Y36750D03*
X6000Y36750D03*
X5000Y36750D03*
X4000Y36750D03*
X3000Y36750D03*
X2000Y36750D03*
G54D27*
X30750Y44750D03*
G54D28*
X31750Y44750D03*
X32750Y44750D03*
X33750Y44750D03*
X34750Y44750D03*
X35750Y44750D03*
X36750Y44750D03*
X36750Y47750D03*
X35750Y47750D03*
X34750Y47750D03*
X33750Y47750D03*
X32750Y47750D03*
X31750Y47750D03*
X30750Y47750D03*
G54D29*
X5500Y42000D03*
G54D21*
X5500Y43000D03*
X8000Y32500D03*
X7000Y32500D03*
X3000Y38000D03*
X4000Y38000D03*
G54D29*
X18250Y26250D03*
G54D21*
X15250Y26250D03*
X15250Y32250D03*
X18250Y32250D03*
G54D20*
X18000Y44750D03*
X18000Y47750D03*
G54D30*
X3000Y48750D03*
G54D31*
X7000Y48750D03*
G54D32*
X3000Y47000D03*
G54D33*
X3000Y45500D03*
G54D34*
X15250Y35000D03*
X11250Y36000D03*
X15250Y37000D03*
G54D35*
X11250Y47750D03*
G54D36*
X13250Y47750D03*
G54D37*
X1500Y53500D03*
X37750Y53500D03*
X37750Y1500D03*
X1500Y1500D03*
G54D20*
X35750Y4750D03*
X35750Y7750D03*
X37000Y4750D03*
X37000Y7750D03*
X34500Y7750D03*
X34500Y4750D03*
G54D32*
X5500Y6000D03*
G54D33*
X5500Y5000D03*
G54D20*
X21000Y25750D03*
X21000Y28750D03*
X15500Y47750D03*
X15500Y44750D03*
X36850Y20350D03*
X36850Y17350D03*
G54D38*
X34550Y16000D03*
X33550Y16000D03*
G54D39*
X25750Y39250D03*
X16250Y38500D03*
X20000Y32750D03*
X19000Y39250D03*
X22250Y39250D03*
X6250Y19750D03*
X12500Y8750D03*
X7500Y19750D03*
X16500Y18500D03*
X18250Y15250D03*
X37000Y25250D03*
X35250Y43250D03*
X31750Y43250D03*
X35500Y33000D03*
X12500Y26500D03*
X13250Y25250D03*
X33000Y5500D03*
X30750Y5500D03*
X31250Y43750D03*
X36250Y43750D03*
X37000Y32000D03*
X27250Y38750D03*
X27250Y40250D03*
X29500Y37750D03*
X31000Y40000D03*
X23500Y8000D03*
X18000Y40750D03*
X22000Y7750D03*
X37000Y22250D03*
X37000Y24250D03*
X28250Y5750D03*
X37000Y23250D03*
X25000Y10750D03*
X20250Y17750D03*
X22750Y11500D03*
X18250Y23750D03*
X5500Y26750D03*
X13250Y29750D03*
X34500Y33000D03*
X30000Y35250D03*
X31750Y35250D03*
X18000Y40000D03*
G54D40*
X36850Y28300D03*
X25750Y31750D03*
G54D39*
X11500Y15250D03*
G54D40*
X12750Y31500D03*
X20750Y31250D03*
G54D39*
X8250Y35000D03*
X18250Y38500D03*
X3750Y3250D03*
G54D40*
X2250Y5500D03*
X38000Y49000D03*
G54D39*
X25500Y27500D03*
X32250Y20500D03*
X31750Y24750D03*
X28250Y27500D03*
X31750Y27750D03*
X25500Y23000D03*
X26000Y20750D03*
G54D40*
X19250Y23750D03*
G54D41*
X30500Y32250D02*
X30500Y30250D01*
X24250Y37750D02*
X24250Y37000D01*
G54D42*
X24250Y37000D02*
X24250Y35500D01*
G54D41*
X27500Y33000D02*
X29750Y33000D01*
X29750Y33000D02*
X30500Y32250D01*
X25000Y34750D02*
X25750Y34750D01*
X25750Y34750D02*
X27500Y33000D01*
X24250Y35500D02*
X25000Y34750D01*
X24250Y37750D02*
X25750Y39250D01*
X29500Y32000D02*
X29500Y30250D01*
X20500Y33250D02*
X26500Y33250D01*
X14000Y40250D02*
X15500Y40250D01*
X15500Y40250D02*
X16250Y39500D01*
X16250Y39500D02*
X16250Y38500D01*
X27250Y32500D02*
X26500Y33250D01*
X29500Y32000D02*
X29000Y32500D01*
X29000Y32500D02*
X27250Y32500D01*
X20500Y33250D02*
X20000Y32750D01*
X14000Y40250D02*
X13750Y40000D01*
X13750Y40000D02*
X13750Y39250D01*
X19000Y39250D02*
X22250Y39250D01*
X13750Y42250D02*
X13750Y42750D01*
X13750Y42750D02*
X14250Y43250D01*
X14250Y43250D02*
X20250Y43250D01*
X20250Y43250D02*
X20750Y42750D01*
X20750Y42750D02*
X20750Y42250D01*
X10500Y30500D02*
X13500Y33500D01*
X17250Y34750D02*
X21000Y34750D01*
X16000Y33500D02*
X17250Y34750D01*
X13500Y33500D02*
X16000Y33500D01*
X10500Y30500D02*
X10500Y29500D01*
X10500Y28000D02*
X10500Y26500D01*
G54D42*
X10500Y28000D02*
X10500Y29500D01*
G54D41*
X10500Y22000D02*
X10500Y20750D01*
X11000Y20250D02*
X11000Y16750D01*
X11000Y20250D02*
X10500Y20750D01*
G54D42*
X10500Y22000D02*
X10500Y23500D01*
X10500Y25000D02*
X10500Y26500D01*
G54D41*
X10500Y23500D02*
X10500Y25000D01*
X21750Y36250D02*
X21750Y35500D01*
X21750Y35500D02*
X21000Y34750D01*
X9000Y22750D02*
X9000Y21000D01*
X6000Y20250D02*
X4500Y18750D01*
X8250Y20250D02*
X6000Y20250D01*
X9000Y21000D02*
X8250Y20250D01*
X4500Y16000D02*
X4500Y15250D01*
X4500Y18750D02*
X4500Y17500D01*
G54D42*
X4500Y16000D02*
X4500Y17500D01*
G54D41*
X5000Y12500D02*
X5000Y14750D01*
X5000Y14750D02*
X4500Y15250D01*
X7000Y22750D02*
X7000Y21250D01*
X5750Y20750D02*
X3500Y18500D01*
X6500Y20750D02*
X5750Y20750D01*
X7000Y21250D02*
X6500Y20750D01*
X3500Y16000D02*
X3500Y14750D01*
X3500Y18500D02*
X3500Y17500D01*
X3500Y14750D02*
X4000Y14250D01*
X4000Y14250D02*
X4000Y12500D01*
G54D42*
X3500Y17500D02*
X3500Y16000D01*
G54D41*
X5500Y19000D02*
X5500Y17500D01*
X6250Y19750D02*
X5500Y19000D01*
G54D42*
X5500Y17500D02*
X5500Y16000D01*
G54D41*
X5500Y16000D02*
X8000Y13500D01*
X8000Y13500D02*
X8000Y12500D01*
X9000Y9500D02*
X9000Y9000D01*
X9000Y9000D02*
X9500Y8500D01*
X9500Y8500D02*
X12250Y8500D01*
X12250Y8500D02*
X12500Y8750D01*
X6500Y16000D02*
X6500Y15750D01*
X6500Y18750D02*
X6500Y17500D01*
G54D42*
X6500Y16000D02*
X6500Y17500D01*
G54D41*
X6500Y15750D02*
X8500Y13750D01*
X10000Y13250D02*
X10000Y12500D01*
X9500Y13750D02*
X10000Y13250D01*
X8500Y13750D02*
X9500Y13750D01*
X6500Y18750D02*
X7500Y19750D01*
X11250Y32250D02*
X9500Y30500D01*
X9500Y30500D02*
X9500Y29500D01*
X17500Y37500D02*
X16000Y36000D01*
X11250Y33500D02*
X11250Y32250D01*
X13750Y36000D02*
X11250Y33500D01*
X16000Y36000D02*
X13750Y36000D01*
X9500Y26500D02*
X9500Y28000D01*
X9500Y25000D02*
X9500Y23500D01*
X9500Y22000D02*
X9500Y20500D01*
G54D42*
X9500Y29500D02*
X9500Y28000D01*
G54D41*
X22750Y36250D02*
X22750Y37250D01*
X22500Y37500D02*
X17500Y37500D01*
X22750Y37250D02*
X22500Y37500D01*
X9500Y20500D02*
X10000Y20000D01*
X10000Y20000D02*
X10000Y16750D01*
G54D42*
X9500Y26500D02*
X9500Y25000D01*
X9500Y23500D02*
X9500Y22000D01*
G54D41*
X16500Y17000D02*
X18250Y15250D01*
X16500Y17000D02*
X16500Y18500D01*
X17250Y13250D02*
X23000Y13250D01*
X23250Y13000D02*
X23250Y12500D01*
X23000Y13250D02*
X23250Y13000D01*
X12000Y15750D02*
X8750Y15750D01*
X8750Y15750D02*
X8000Y16500D01*
X8000Y16750D02*
X8000Y16500D01*
X15750Y14750D02*
X17250Y13250D01*
X13000Y14750D02*
X15750Y14750D01*
X12000Y15750D02*
X13000Y14750D01*
G54D42*
X22250Y49250D02*
X22250Y51500D01*
G54D41*
X23000Y52250D02*
X23250Y52250D01*
G54D42*
X22250Y51500D02*
X23000Y52250D01*
G54D41*
X35500Y52250D02*
X36000Y51750D01*
X38750Y50500D02*
X38750Y42750D01*
X37500Y51750D02*
X38750Y50500D01*
X36000Y51750D02*
X37500Y51750D01*
X22750Y48500D02*
X22250Y49000D01*
G54D42*
X22250Y49000D02*
X22250Y49250D01*
G54D41*
X22750Y47750D02*
X22750Y48500D01*
X38500Y26750D02*
X37000Y25250D01*
X38500Y42500D02*
X38500Y26750D01*
X35500Y52250D02*
X23250Y52250D01*
X38750Y42750D02*
X38500Y42500D01*
X35250Y41250D02*
X35250Y41500D01*
X36250Y35500D02*
X36250Y35250D01*
X36250Y40250D02*
X36250Y37000D01*
G54D42*
X35250Y43250D02*
X35250Y41500D01*
G54D41*
X21750Y45250D02*
X22250Y45750D01*
X22250Y45750D02*
X27500Y45750D01*
X27500Y45750D02*
X30000Y43250D01*
X30000Y43250D02*
X31750Y43250D01*
X21750Y45250D02*
X21750Y44750D01*
X35500Y34500D02*
X36250Y35250D01*
X35500Y33000D02*
X35500Y34500D01*
X35250Y41250D02*
X36250Y40250D01*
G54D42*
X36250Y37000D02*
X36250Y35500D01*
G54D41*
X23550Y13750D02*
X23600Y13750D01*
X24050Y13300D02*
X28200Y13300D01*
X23600Y13750D02*
X24050Y13300D01*
X11500Y24000D02*
X11500Y23500D01*
X11500Y22000D02*
X11500Y21250D01*
X12500Y26500D02*
X12500Y30000D01*
X23750Y35250D02*
X23750Y36250D01*
X22500Y34000D02*
X23750Y35250D01*
X13250Y30750D02*
X16000Y30750D01*
X12000Y16750D02*
X12000Y20750D01*
X12000Y20750D02*
X11500Y21250D01*
X18000Y34000D02*
X16750Y32750D01*
X16750Y32750D02*
X16750Y31500D01*
X16750Y31500D02*
X16000Y30750D01*
X22500Y34000D02*
X18000Y34000D01*
X13250Y25250D02*
X12750Y25250D01*
X12750Y25250D02*
X11500Y24000D01*
G54D42*
X11500Y23500D02*
X11500Y22000D01*
G54D41*
X12500Y30000D02*
X13250Y30750D01*
X12000Y16750D02*
X12000Y16500D01*
X12000Y16500D02*
X13250Y15250D01*
X16000Y15250D02*
X17500Y13750D01*
X13250Y15250D02*
X16000Y15250D01*
X28500Y13000D02*
X28500Y12500D01*
X28200Y13300D02*
X28500Y13000D01*
X17500Y13750D02*
X23550Y13750D01*
X28750Y13700D02*
X28800Y13700D01*
X28800Y13700D02*
X29500Y13000D01*
X23650Y14250D02*
X23700Y14250D01*
X24250Y13700D02*
X28750Y13700D01*
X23700Y14250D02*
X24250Y13700D01*
X13000Y16750D02*
X13000Y16500D01*
X13000Y16500D02*
X13750Y15750D01*
X16250Y15750D02*
X17750Y14250D01*
X13750Y15750D02*
X16250Y15750D01*
X23650Y14250D02*
X17750Y14250D01*
X37250Y11250D02*
X37250Y15750D01*
X29500Y11250D02*
X30250Y10500D01*
X36500Y10500D02*
X37250Y11250D01*
X30250Y10500D02*
X36500Y10500D01*
X28250Y35500D02*
X28250Y35250D01*
X36250Y16750D02*
X36250Y30250D01*
X24750Y37000D02*
X25500Y37750D01*
X24750Y36250D02*
X24750Y37000D01*
X29000Y34500D02*
X32000Y34500D01*
X28250Y35250D02*
X29000Y34500D01*
G54D42*
X28250Y37000D02*
X28250Y35500D01*
G54D41*
X27750Y37750D02*
X28250Y37250D01*
X25500Y37750D02*
X27750Y37750D01*
X37250Y15750D02*
X36250Y16750D01*
X36250Y30250D02*
X32000Y34500D01*
X28250Y37250D02*
X28250Y37000D01*
X29500Y11250D02*
X29500Y12500D01*
X29500Y12500D02*
X29500Y13000D01*
X23250Y14750D02*
X23800Y14750D01*
X23800Y14750D02*
X24350Y14200D01*
X30500Y13000D02*
X30500Y13050D01*
X30500Y13000D02*
X30500Y12500D01*
X24350Y14200D02*
X29050Y14200D01*
X30500Y13050D02*
X29350Y14200D01*
X29350Y14200D02*
X29050Y14200D01*
X15500Y17750D02*
X16000Y17250D01*
X14000Y17500D02*
X14250Y17750D01*
X14250Y17750D02*
X15500Y17750D01*
X14000Y16750D02*
X14000Y17500D01*
X18000Y14750D02*
X23250Y14750D01*
X16000Y17250D02*
X16000Y16750D01*
X16000Y16750D02*
X18000Y14750D01*
X36750Y11500D02*
X36750Y15500D01*
X30500Y11500D02*
X30500Y12500D01*
X31000Y11000D02*
X30500Y11500D01*
X36250Y11000D02*
X31000Y11000D01*
X36750Y11500D02*
X36250Y11000D01*
X27250Y35500D02*
X27250Y35000D01*
X35750Y30000D02*
X35750Y16500D01*
X35750Y16500D02*
X36750Y15500D01*
X25750Y37000D02*
X26000Y37250D01*
X27000Y37250D02*
X27250Y37000D01*
X26000Y37250D02*
X27000Y37250D01*
X31750Y34000D02*
X28250Y34000D01*
X28250Y34000D02*
X27250Y35000D01*
G54D42*
X27250Y35500D02*
X27250Y37000D01*
G54D41*
X25750Y37000D02*
X25750Y36250D01*
X31750Y34000D02*
X35750Y30000D01*
X29850Y14700D02*
X29900Y14700D01*
X29900Y14700D02*
X31500Y13100D01*
X29850Y14700D02*
X29350Y14700D01*
X23450Y15250D02*
X23900Y15250D01*
X24450Y14700D02*
X29350Y14700D01*
X23900Y15250D02*
X24450Y14700D01*
X15000Y21000D02*
X17500Y18500D01*
X17500Y16750D02*
X19000Y15250D01*
X15000Y22750D02*
X15000Y21000D01*
X19000Y15250D02*
X23450Y15250D01*
X17500Y18500D02*
X17500Y16750D01*
X31500Y12500D02*
X31500Y11750D01*
X31500Y11750D02*
X31750Y11500D01*
X31500Y13100D02*
X31500Y12500D01*
X26750Y34500D02*
X26750Y36250D01*
X36250Y11750D02*
X36250Y15250D01*
X36000Y11500D02*
X36250Y11750D01*
X31750Y11500D02*
X36000Y11500D01*
X27750Y33500D02*
X31500Y33500D01*
X31500Y33500D02*
X35250Y29750D01*
X35250Y16250D02*
X35250Y29750D01*
X36250Y15250D02*
X35250Y16250D01*
X27750Y33500D02*
X26750Y34500D01*
X23650Y15750D02*
X24000Y15750D01*
X24550Y15200D02*
X24850Y15200D01*
X24000Y15750D02*
X24550Y15200D01*
X30350Y15200D02*
X32500Y13050D01*
X24850Y15200D02*
X30350Y15200D01*
X15750Y21000D02*
X18000Y18750D01*
X18000Y17000D02*
X19250Y15750D01*
X19250Y15750D02*
X23650Y15750D01*
X14000Y23250D02*
X14000Y22750D01*
X14500Y23750D02*
X14000Y23250D01*
X15250Y23750D02*
X14500Y23750D01*
X15750Y23250D02*
X15250Y23750D01*
X15750Y23250D02*
X15750Y21000D01*
X18000Y18750D02*
X18000Y17000D01*
X32500Y13050D02*
X32500Y12500D01*
X23950Y16250D02*
X24100Y16250D01*
X30850Y15700D02*
X33500Y13050D01*
X24650Y15700D02*
X30850Y15700D01*
X24100Y16250D02*
X24650Y15700D01*
X16250Y21250D02*
X18500Y19000D01*
X18500Y19000D02*
X18500Y17250D01*
X16250Y21250D02*
X16250Y23500D01*
X16250Y23500D02*
X15500Y24250D01*
X15500Y24250D02*
X13750Y24250D01*
X13750Y24250D02*
X13000Y23500D01*
X13000Y23500D02*
X13000Y22750D01*
X23950Y16250D02*
X19500Y16250D01*
X33500Y12500D02*
X33500Y13050D01*
X18500Y17250D02*
X19500Y16250D01*
X30750Y5500D02*
X33000Y5500D01*
X25150Y16200D02*
X24800Y16200D01*
X24800Y16200D02*
X24250Y16750D01*
X34500Y12950D02*
X34500Y12500D01*
X31250Y16200D02*
X34500Y12950D01*
X25150Y16200D02*
X31250Y16200D01*
X16750Y21500D02*
X19000Y19250D01*
X19750Y16750D02*
X19000Y17500D01*
X19750Y16750D02*
X24250Y16750D01*
X15750Y24750D02*
X13500Y24750D01*
X16750Y23750D02*
X16750Y21500D01*
X15750Y24750D02*
X16750Y23750D01*
X13500Y24750D02*
X12000Y23250D01*
X12000Y23250D02*
X12000Y22750D01*
X19000Y19250D02*
X19000Y17500D01*
X33250Y14900D02*
X34450Y13700D01*
X35500Y12950D02*
X35500Y12500D01*
X34750Y13700D02*
X35500Y12950D01*
X34450Y13700D02*
X34750Y13700D01*
X24850Y16800D02*
X24400Y17250D01*
X31350Y16800D02*
X24850Y16800D01*
X33250Y14900D02*
X31350Y16800D01*
X11000Y22750D02*
X11000Y24500D01*
X14000Y25750D02*
X14500Y25250D01*
X12250Y25750D02*
X14000Y25750D01*
X11000Y24500D02*
X12250Y25750D01*
X16250Y25250D02*
X14500Y25250D01*
X17250Y21750D02*
X17250Y24250D01*
X17250Y24250D02*
X16250Y25250D01*
X24400Y17250D02*
X20000Y17250D01*
X19500Y17750D02*
X20000Y17250D01*
X19500Y19500D02*
X19500Y17750D01*
X17250Y21750D02*
X19500Y19500D01*
G54D42*
X21000Y28750D02*
X21000Y30250D01*
X25000Y29750D02*
X25500Y29250D01*
X25000Y30750D02*
X25000Y29750D01*
X24500Y31250D02*
X25000Y30750D01*
X22000Y31250D02*
X24500Y31250D01*
X21000Y30250D02*
X22000Y31250D01*
X36250Y43750D02*
X36250Y41500D01*
G54D41*
X20750Y45500D02*
X21500Y46250D01*
X21500Y46250D02*
X27750Y46250D01*
X27750Y46250D02*
X30250Y43750D01*
X30250Y43750D02*
X31250Y43750D01*
X20750Y44750D02*
X20750Y45500D01*
X37000Y32000D02*
X38000Y33000D01*
X38000Y33000D02*
X38000Y36500D01*
X36250Y41500D02*
X36750Y41000D01*
X36750Y41000D02*
X36750Y37750D01*
X36750Y37750D02*
X38000Y36500D01*
X27250Y38750D02*
X27250Y40250D01*
X29500Y37750D02*
X29500Y39000D01*
X29500Y39000D02*
X30500Y40000D01*
X30500Y40000D02*
X31000Y40000D01*
X35750Y7750D02*
X35750Y7250D01*
X28750Y8000D02*
X23500Y8000D01*
X29750Y7000D02*
X28750Y8000D01*
X35500Y7000D02*
X29750Y7000D01*
X35750Y7250D02*
X35500Y7000D01*
X22000Y40750D02*
X22750Y41500D01*
X22750Y41500D02*
X22750Y42250D01*
X18000Y40750D02*
X22000Y40750D01*
X1000Y5250D02*
X1000Y23750D01*
X1500Y24250D02*
X7250Y24250D01*
X1000Y23750D02*
X1500Y24250D01*
X1000Y5250D02*
X1750Y4500D01*
X4500Y4500D02*
X5250Y3750D01*
X1750Y4500D02*
X4500Y4500D01*
X5250Y3750D02*
X21750Y3750D01*
X21750Y3750D02*
X22000Y4000D01*
X8000Y25000D02*
X8000Y25750D01*
X7250Y24250D02*
X8000Y25000D01*
G54D42*
X22000Y5500D02*
X22000Y4000D01*
G54D41*
X22500Y6000D02*
X22000Y5500D01*
X37750Y15850D02*
X37750Y21500D01*
X37750Y21500D02*
X37000Y22250D01*
X37750Y8500D02*
X37750Y15850D01*
X22000Y7750D02*
X22500Y7750D01*
X37000Y7000D02*
X37000Y7750D01*
X36500Y6500D02*
X37000Y7000D01*
X29500Y6500D02*
X36500Y6500D01*
X28500Y7500D02*
X29500Y6500D01*
X22750Y7500D02*
X28500Y7500D01*
X22500Y7750D02*
X22750Y7500D01*
X37750Y8500D02*
X37000Y7750D01*
X38750Y16550D02*
X38750Y23700D01*
X38200Y24250D02*
X37000Y24250D01*
X38750Y23700D02*
X38200Y24250D01*
X30250Y4750D02*
X27500Y4750D01*
X26250Y6000D02*
X24500Y6000D01*
X27500Y4750D02*
X26250Y6000D01*
X38000Y5500D02*
X38750Y6250D01*
X38750Y6250D02*
X38750Y16550D01*
X30250Y4750D02*
X34500Y4750D01*
X34500Y4750D02*
X35250Y5500D01*
X35250Y5500D02*
X38000Y5500D01*
X31250Y46250D02*
X31250Y47000D01*
X28250Y49000D02*
X28500Y48750D01*
G54D42*
X31250Y48500D02*
X31250Y47000D01*
G54D41*
X31000Y48750D02*
X31250Y48500D01*
X28500Y48750D02*
X31000Y48750D01*
G54D42*
X27750Y50750D02*
X28250Y50250D01*
X28250Y50250D02*
X28250Y49000D01*
G54D41*
X31250Y46250D02*
X31750Y45750D01*
X31750Y45750D02*
X31750Y44750D01*
X6750Y24750D02*
X1250Y24750D01*
X500Y24000D02*
X500Y5000D01*
X1250Y24750D02*
X500Y24000D01*
X23000Y5500D02*
X23500Y6000D01*
X22250Y3250D02*
X23000Y4000D01*
G54D42*
X23000Y4000D02*
X23000Y5500D01*
G54D41*
X22250Y3250D02*
X5000Y3250D01*
X4250Y4000D02*
X5000Y3250D01*
X7000Y25750D02*
X7000Y25000D01*
X7000Y25000D02*
X6750Y24750D01*
X1500Y4000D02*
X4250Y4000D01*
X500Y5000D02*
X1500Y4000D01*
X13500Y50250D02*
X13500Y49500D01*
X14250Y46000D02*
X12750Y44500D01*
X14250Y48750D02*
X14250Y46000D01*
X13500Y49500D02*
X14250Y48750D01*
X6500Y30250D02*
X7500Y31250D01*
X9750Y32500D02*
X9750Y42500D01*
X8500Y31250D02*
X9750Y32500D01*
X7500Y31250D02*
X8500Y31250D01*
X11000Y43750D02*
X9750Y42500D01*
X12750Y44500D02*
X12000Y43750D01*
X12000Y43750D02*
X11000Y43750D01*
X6500Y27250D02*
X6000Y26750D01*
X6000Y26750D02*
X6000Y25750D01*
G54D42*
X6500Y29500D02*
X6500Y28000D01*
G54D41*
X6500Y28000D02*
X6500Y27250D01*
X6500Y30250D02*
X6500Y29500D01*
X38250Y11850D02*
X38250Y22750D01*
X37750Y23250D02*
X37000Y23250D01*
X38250Y22750D02*
X37750Y23250D01*
X38250Y11850D02*
X38250Y7000D01*
X38250Y7000D02*
X37250Y6000D01*
X28250Y5750D02*
X28750Y5750D01*
X29000Y6000D02*
X37250Y6000D01*
X28750Y5750D02*
X29000Y6000D01*
X28000Y32000D02*
X28500Y31500D01*
X28500Y31500D02*
X28500Y30250D01*
X18250Y23750D02*
X18250Y21500D01*
X18250Y21500D02*
X20250Y19500D01*
X20250Y19500D02*
X20250Y17750D01*
X22750Y11500D02*
X24250Y11500D01*
X24250Y11500D02*
X25000Y10750D01*
X20750Y32500D02*
X26500Y32500D01*
X5000Y28750D02*
X5000Y28250D01*
X5500Y27750D02*
X5500Y26750D01*
X5000Y28250D02*
X5500Y27750D01*
X13250Y29750D02*
X18000Y29750D01*
X27000Y32000D02*
X26500Y32500D01*
X28000Y32000D02*
X27000Y32000D01*
X20750Y32500D02*
X18000Y29750D01*
X2750Y23750D02*
X2500Y23500D01*
X2500Y17500D02*
X2500Y22000D01*
X9000Y24500D02*
X8250Y23750D01*
X9000Y25750D02*
X9000Y24500D01*
G54D42*
X2500Y23500D02*
X2500Y22000D01*
G54D41*
X8250Y23750D02*
X2750Y23750D01*
X2500Y16000D02*
X2500Y13250D01*
X9250Y8000D02*
X20500Y8000D01*
G54D42*
X2500Y17500D02*
X2500Y16000D01*
X2500Y13250D02*
X2500Y11250D01*
G54D41*
X3250Y10500D02*
X8250Y10500D01*
X8250Y10500D02*
X8500Y10250D01*
G54D42*
X8500Y10250D02*
X8500Y8750D01*
G54D41*
X8500Y8750D02*
X9250Y8000D01*
X2500Y11250D02*
X3250Y10500D01*
X20500Y8000D02*
X21500Y7000D01*
X21500Y7000D02*
X21500Y6000D01*
G54D42*
X24750Y50750D02*
X25250Y50250D01*
G54D41*
X26750Y48250D02*
X26750Y47750D01*
X26250Y48750D02*
X26750Y48250D01*
X25500Y48750D02*
X26250Y48750D01*
X25250Y49000D02*
X25500Y48750D01*
G54D42*
X25250Y50250D02*
X25250Y49000D01*
G54D41*
X34750Y43750D02*
X35000Y43750D01*
G54D42*
X35250Y44000D02*
X35250Y45500D01*
G54D41*
X35000Y43750D02*
X35250Y44000D01*
X35250Y46500D02*
X35250Y45500D01*
X34250Y43000D02*
X34250Y43250D01*
X34250Y41500D02*
X34250Y39250D01*
X35250Y38250D02*
X35250Y37000D01*
X35250Y35500D02*
X35250Y35250D01*
X34250Y43250D02*
X34750Y43750D01*
X35750Y47750D02*
X35750Y47000D01*
X35750Y47000D02*
X35250Y46500D01*
X35250Y35250D02*
X34500Y34500D01*
X34500Y34500D02*
X34500Y33000D01*
G54D42*
X35250Y37000D02*
X35250Y35500D01*
X34250Y43000D02*
X34250Y41500D01*
G54D41*
X34250Y39250D02*
X35250Y38250D01*
X34000Y35250D02*
X31750Y35250D01*
X34250Y45500D02*
X34250Y46500D01*
X33250Y41500D02*
X33250Y39000D01*
X34250Y38000D02*
X34250Y37000D01*
X33250Y43000D02*
X34250Y44000D01*
X33750Y47000D02*
X34250Y46500D01*
X33750Y47750D02*
X33750Y47000D01*
G54D42*
X34250Y37000D02*
X34250Y35500D01*
X34250Y45500D02*
X34250Y44000D01*
G54D41*
X34250Y35500D02*
X34000Y35250D01*
G54D42*
X33250Y43000D02*
X33250Y41500D01*
G54D41*
X33250Y39000D02*
X34250Y38000D01*
X30000Y35250D02*
X31750Y35250D01*
X31750Y35250D02*
X31750Y36250D01*
X23750Y40750D02*
X23750Y42250D01*
X18000Y40000D02*
X23000Y40000D01*
X23000Y40000D02*
X23750Y40750D01*
G54D42*
X33250Y49500D02*
X33250Y51500D01*
G54D41*
X33000Y51750D02*
X32500Y51750D01*
G54D42*
X33250Y51500D02*
X33000Y51750D01*
G54D41*
X36250Y46750D02*
X36250Y47000D01*
X35750Y44750D02*
X35750Y46250D01*
X35750Y46250D02*
X36250Y46750D01*
G54D42*
X36250Y47000D02*
X36250Y48500D01*
X33250Y49500D02*
X33250Y49000D01*
X33500Y48750D02*
X36000Y48750D01*
X33250Y49000D02*
X33500Y48750D01*
X36250Y48500D02*
X36000Y48750D01*
G54D41*
X30750Y51500D02*
X30750Y50750D01*
X31000Y51750D02*
X30750Y51500D01*
X32500Y51750D02*
X31000Y51750D01*
G54D42*
X31750Y50750D02*
X32250Y50250D01*
X32250Y50250D02*
X32250Y47250D01*
G54D41*
X32250Y47250D02*
X33750Y45750D01*
X33750Y45750D02*
X33750Y44750D01*
X14750Y50250D02*
X14750Y45750D01*
X14750Y45750D02*
X12250Y43250D01*
X10750Y42750D02*
X10750Y41750D01*
X10750Y41750D02*
X11250Y41250D01*
X10750Y42750D02*
X11250Y43250D01*
X11250Y43250D02*
X12250Y43250D01*
X21250Y41250D02*
X21750Y41750D01*
X21750Y41750D02*
X21750Y42250D01*
X11250Y41250D02*
X21250Y41250D01*
X33550Y16000D02*
X33550Y16700D01*
X30500Y17550D02*
X30500Y18250D01*
X30850Y17200D02*
X30500Y17550D01*
X33050Y17200D02*
X30850Y17200D01*
X33550Y16700D02*
X33050Y17200D01*
G54D43*
X3500Y11250D02*
X10250Y11250D01*
X11000Y10500D02*
X11000Y9500D01*
X10250Y11250D02*
X11000Y10500D01*
X20750Y49750D02*
X21750Y49750D01*
X27750Y49750D02*
X26750Y49750D01*
X31750Y49750D02*
X30750Y49750D01*
X33750Y49750D02*
X34750Y49750D01*
X35750Y49750D02*
X34750Y49750D01*
X14500Y8500D02*
X22750Y8500D01*
X23250Y9000D02*
X23250Y9500D01*
X22750Y8500D02*
X23250Y9000D01*
X35000Y8500D02*
X25750Y8500D01*
X35500Y9000D02*
X35500Y9500D01*
X35000Y8500D02*
X35500Y9000D01*
X25750Y8500D02*
X24750Y9500D01*
X24750Y9500D02*
X23250Y9500D01*
X23750Y49750D02*
X22750Y49750D01*
X24750Y49750D02*
X23750Y49750D01*
X26750Y49750D02*
X25750Y49750D01*
X29750Y49750D02*
X28750Y49750D01*
X30750Y49750D02*
X29750Y49750D01*
X36750Y49750D02*
X35750Y49750D01*
X36750Y33400D02*
X36750Y36250D01*
X36250Y32900D02*
X36750Y33400D01*
X36250Y31500D02*
X36250Y32900D01*
X36850Y30900D02*
X36250Y31500D01*
X36850Y28300D02*
X36850Y30900D01*
X11000Y25750D02*
X11000Y27000D01*
X11000Y27000D02*
X11750Y27750D01*
X21250Y31750D02*
X25750Y31750D01*
X20750Y31250D02*
X21250Y31750D01*
X13000Y9500D02*
X13000Y13750D01*
X13000Y13750D02*
X11500Y15250D01*
X3000Y12500D02*
X3000Y11750D01*
X3000Y11750D02*
X3500Y11250D01*
X14500Y8500D02*
X14250Y8750D01*
X14250Y8750D02*
X14250Y9500D01*
X11000Y9500D02*
X13000Y9500D01*
X13000Y9500D02*
X14250Y9500D01*
X11750Y30500D02*
X12750Y31500D01*
X11750Y27750D02*
X11750Y30500D01*
G54D41*
X3000Y36750D02*
X3000Y35500D01*
X3500Y35000D02*
X8250Y35000D01*
X3000Y35500D02*
X3500Y35000D01*
X10250Y32250D02*
X10250Y38750D01*
X10750Y39250D02*
X11750Y39250D01*
X10250Y38750D02*
X10750Y39250D01*
X8750Y30750D02*
X7750Y30750D01*
X7000Y30000D02*
X7000Y28750D01*
X7750Y30750D02*
X7000Y30000D01*
X8750Y30750D02*
X10250Y32250D01*
X750Y28250D02*
X750Y37000D01*
X5000Y39500D02*
X5000Y40500D01*
X4500Y39000D02*
X5000Y39500D01*
X2750Y39000D02*
X4500Y39000D01*
X750Y37000D02*
X2750Y39000D01*
X4000Y26750D02*
X3500Y27250D01*
X3500Y27250D02*
X1750Y27250D01*
X1750Y27250D02*
X750Y28250D01*
X4000Y25750D02*
X4000Y26750D01*
X26250Y43250D02*
X26250Y43000D01*
X30750Y41750D02*
X30250Y41250D01*
X30750Y41750D02*
X30750Y42250D01*
X12750Y42750D02*
X13750Y43750D01*
X12750Y42250D02*
X12750Y42750D01*
X25750Y43750D02*
X26250Y43250D01*
G54D42*
X26250Y43000D02*
X26250Y41750D01*
G54D41*
X13750Y43750D02*
X25750Y43750D01*
X30250Y41250D02*
X26750Y41250D01*
X26750Y41250D02*
X26250Y41750D01*
X31000Y40750D02*
X24500Y40750D01*
X18250Y38500D02*
X22750Y38500D01*
X31750Y41500D02*
X31000Y40750D01*
X23250Y39000D02*
X22750Y38500D01*
X31750Y42250D02*
X31750Y41500D01*
X24500Y40750D02*
X23250Y39500D01*
X23250Y39500D02*
X23250Y39000D01*
X32250Y46000D02*
X32250Y45500D01*
X32250Y41500D02*
X32250Y38750D01*
X31750Y47750D02*
X31750Y46500D01*
X31750Y46500D02*
X32250Y46000D01*
G54D42*
X32250Y45500D02*
X32250Y41500D01*
G54D41*
X32250Y38750D02*
X32750Y38250D01*
X32750Y38250D02*
X32750Y36250D01*
X33500Y19250D02*
X34550Y18200D01*
X34550Y18200D02*
X34550Y16000D01*
X21500Y27750D02*
X21000Y27250D01*
X21000Y27250D02*
X21000Y25750D01*
X20000Y24000D02*
X21000Y25000D01*
X21000Y25000D02*
X21000Y25750D01*
G54D44*
X8500Y6000D02*
X5500Y6000D01*
X2250Y5500D02*
X3000Y5500D01*
X3000Y5500D02*
X3500Y6000D01*
X3500Y6000D02*
X5500Y6000D01*
G54D41*
X35750Y4750D02*
X35000Y4000D01*
X35000Y4000D02*
X25000Y4000D01*
X25000Y4000D02*
X23750Y2750D01*
X23750Y2750D02*
X4250Y2750D01*
X4250Y2750D02*
X3750Y3250D01*
G54D42*
X21750Y22750D02*
X25000Y22750D01*
X25250Y23000D02*
X25500Y23000D01*
X25000Y22750D02*
X25250Y23000D01*
G54D41*
X20750Y22750D02*
X21750Y22750D01*
X21500Y27750D02*
X21750Y27750D01*
X20750Y22750D02*
X19750Y23750D01*
G54D42*
X19750Y23750D02*
X19250Y23750D01*
G54D41*
X20000Y24000D02*
X19750Y23750D01*
G54D42*
X21750Y27750D02*
X25250Y27750D01*
X25250Y27750D02*
X25500Y27500D01*
G54D43*
X38000Y49000D02*
X38000Y43500D01*
X15250Y10750D02*
X23500Y10750D01*
X26500Y11000D02*
X26500Y12500D01*
X25500Y10000D02*
X26500Y11000D01*
X24250Y10000D02*
X25500Y10000D01*
X23500Y10750D02*
X24250Y10000D01*
G54D42*
X30500Y23500D02*
X31750Y24750D01*
X30500Y22250D02*
X30500Y23500D01*
X32250Y20500D02*
X30500Y22250D01*
G54D41*
X25500Y27500D02*
X28250Y27500D01*
X31250Y25250D02*
X31250Y26000D01*
X31750Y24750D02*
X31250Y25250D01*
X29750Y26000D02*
X28250Y27500D01*
X31250Y26000D02*
X29750Y26000D01*
X31750Y26500D02*
X31250Y26000D01*
X31750Y27750D02*
X31750Y26500D01*
X26000Y20750D02*
X26000Y22500D01*
X26000Y22500D02*
X25500Y23000D01*
G54D43*
X38000Y43500D02*
X36750Y42250D01*
X14250Y11750D02*
X14250Y12500D01*
X15250Y10750D02*
X14250Y11750D01*
X19750Y47750D02*
X19750Y47250D01*
X29250Y47750D02*
X30750Y47750D01*
X28250Y46750D02*
X29250Y47750D01*
X20250Y46750D02*
X28250Y46750D01*
X19750Y47250D02*
X20250Y46750D01*
X17250Y53250D02*
X18250Y53250D01*
X18250Y53250D02*
X18750Y52750D01*
X18750Y52750D02*
X18750Y49750D01*
X18750Y49750D02*
X19750Y48750D01*
X19750Y48750D02*
X19750Y47750D01*
G54D10*
G36*
X32450Y20300D02*
X24550Y20300D01*
X24550Y28200D01*
X32450Y28200D01*
X32450Y20300D01*
X32450Y20300D01*
G37*
G54D45*
X32450Y20300D02*
X24550Y20300D01*
X24550Y28200D01*
X32450Y28200D01*
X32450Y20300D01*
G54D10*
G36*
X9401Y32644D02*
X8950Y32192D01*
X8950Y33115D01*
X8950Y33700D01*
X8942Y33700D01*
X8942Y33800D01*
X8950Y33800D01*
X8950Y34384D01*
X8863Y34433D01*
X8831Y34426D01*
X8639Y34321D01*
X8501Y34150D01*
X8499Y34144D01*
X8395Y34299D01*
X8214Y34421D01*
X8000Y34463D01*
X7785Y34421D01*
X7604Y34299D01*
X7500Y34144D01*
X7395Y34299D01*
X7214Y34421D01*
X7000Y34463D01*
X6785Y34421D01*
X6604Y34299D01*
X6500Y34144D01*
X6395Y34299D01*
X6214Y34421D01*
X6000Y34463D01*
X5785Y34421D01*
X5604Y34299D01*
X5499Y34144D01*
X5395Y34299D01*
X5214Y34421D01*
X5000Y34463D01*
X4785Y34421D01*
X4604Y34299D01*
X4499Y34144D01*
X4395Y34299D01*
X4214Y34421D01*
X4000Y34463D01*
X3785Y34421D01*
X3604Y34299D01*
X3499Y34144D01*
X3395Y34299D01*
X3214Y34421D01*
X3000Y34463D01*
X2785Y34421D01*
X2604Y34299D01*
X2560Y34233D01*
X2560Y34249D01*
X2522Y34341D01*
X2451Y34411D01*
X2359Y34449D01*
X2260Y34450D01*
X1640Y34450D01*
X1548Y34412D01*
X1478Y34341D01*
X1440Y34249D01*
X1439Y34150D01*
X1439Y33250D01*
X1477Y33158D01*
X1548Y33088D01*
X1640Y33050D01*
X1739Y33049D01*
X2359Y33049D01*
X2451Y33087D01*
X2521Y33158D01*
X2559Y33250D01*
X2559Y33266D01*
X2604Y33200D01*
X2785Y33078D01*
X2807Y33074D01*
X2658Y33012D01*
X2487Y32842D01*
X2395Y32620D01*
X2395Y32380D01*
X2487Y32158D01*
X2657Y31987D01*
X2879Y31895D01*
X3119Y31895D01*
X3341Y31987D01*
X3512Y32157D01*
X3604Y32379D01*
X3604Y32619D01*
X3512Y32841D01*
X3342Y33012D01*
X3192Y33074D01*
X3214Y33078D01*
X3395Y33200D01*
X3500Y33355D01*
X3604Y33200D01*
X3785Y33078D01*
X4000Y33036D01*
X4214Y33078D01*
X4395Y33200D01*
X4500Y33355D01*
X4604Y33200D01*
X4785Y33078D01*
X5000Y33036D01*
X5214Y33078D01*
X5395Y33200D01*
X5500Y33355D01*
X5604Y33200D01*
X5785Y33078D01*
X5807Y33074D01*
X5658Y33012D01*
X5487Y32842D01*
X5395Y32620D01*
X5395Y32380D01*
X5487Y32158D01*
X5657Y31987D01*
X5879Y31895D01*
X6119Y31895D01*
X6341Y31987D01*
X6500Y32145D01*
X6657Y31987D01*
X6879Y31895D01*
X7119Y31895D01*
X7341Y31987D01*
X7500Y32145D01*
X7657Y31987D01*
X7879Y31895D01*
X8119Y31895D01*
X8341Y31987D01*
X8512Y32157D01*
X8604Y32379D01*
X8604Y32619D01*
X8512Y32841D01*
X8342Y33012D01*
X8192Y33074D01*
X8214Y33078D01*
X8395Y33200D01*
X8499Y33355D01*
X8501Y33349D01*
X8639Y33178D01*
X8831Y33073D01*
X8863Y33066D01*
X8950Y33115D01*
X8950Y32192D01*
X8355Y31598D01*
X7500Y31598D01*
X7366Y31571D01*
X7253Y31496D01*
X7253Y31496D01*
X6253Y30496D01*
X6178Y30383D01*
X6173Y30361D01*
X6151Y30250D01*
X6151Y30249D01*
X6151Y29500D01*
X6165Y29430D01*
X6000Y29463D01*
X5785Y29421D01*
X5604Y29299D01*
X5499Y29144D01*
X5395Y29299D01*
X5214Y29421D01*
X5000Y29463D01*
X4785Y29421D01*
X4604Y29299D01*
X4499Y29144D01*
X4395Y29299D01*
X4214Y29421D01*
X4000Y29463D01*
X3785Y29421D01*
X3604Y29299D01*
X3500Y29144D01*
X3498Y29150D01*
X3360Y29321D01*
X3168Y29426D01*
X3136Y29433D01*
X3050Y29384D01*
X3050Y28800D01*
X3057Y28800D01*
X3057Y28700D01*
X3050Y28700D01*
X3050Y28115D01*
X3136Y28066D01*
X3168Y28073D01*
X3360Y28178D01*
X3498Y28349D01*
X3500Y28355D01*
X3604Y28200D01*
X3785Y28078D01*
X4000Y28036D01*
X4214Y28078D01*
X4395Y28200D01*
X4500Y28355D01*
X4604Y28200D01*
X4670Y28156D01*
X4673Y28138D01*
X4678Y28116D01*
X4753Y28003D01*
X5151Y27605D01*
X5151Y27172D01*
X5038Y27059D01*
X4954Y26858D01*
X4954Y26642D01*
X5030Y26457D01*
X5000Y26463D01*
X4785Y26421D01*
X4604Y26299D01*
X4499Y26144D01*
X4395Y26299D01*
X4348Y26331D01*
X4348Y26749D01*
X4348Y26750D01*
X4348Y26750D01*
X4321Y26883D01*
X4246Y26996D01*
X4246Y26996D01*
X3746Y27496D01*
X3633Y27571D01*
X3611Y27576D01*
X3500Y27598D01*
X3499Y27598D01*
X2950Y27598D01*
X2950Y28115D01*
X2950Y28700D01*
X2942Y28700D01*
X2942Y28800D01*
X2950Y28800D01*
X2950Y29384D01*
X2863Y29433D01*
X2831Y29426D01*
X2639Y29321D01*
X2501Y29150D01*
X2499Y29144D01*
X2395Y29299D01*
X2214Y29421D01*
X2000Y29463D01*
X1785Y29421D01*
X1604Y29299D01*
X1482Y29118D01*
X1440Y28903D01*
X1440Y28596D01*
X1482Y28381D01*
X1604Y28200D01*
X1785Y28078D01*
X2000Y28036D01*
X2214Y28078D01*
X2395Y28200D01*
X2499Y28355D01*
X2501Y28349D01*
X2639Y28178D01*
X2831Y28073D01*
X2863Y28066D01*
X2950Y28115D01*
X2950Y27598D01*
X1894Y27598D01*
X1098Y28394D01*
X1098Y36855D01*
X2418Y38175D01*
X2395Y38120D01*
X2395Y37880D01*
X2487Y37658D01*
X2657Y37487D01*
X2807Y37425D01*
X2785Y37421D01*
X2604Y37299D01*
X2499Y37144D01*
X2395Y37299D01*
X2214Y37421D01*
X2000Y37463D01*
X1785Y37421D01*
X1604Y37299D01*
X1482Y37118D01*
X1440Y36903D01*
X1440Y36596D01*
X1482Y36381D01*
X1604Y36200D01*
X1785Y36078D01*
X2000Y36036D01*
X2214Y36078D01*
X2395Y36200D01*
X2500Y36355D01*
X2604Y36200D01*
X2651Y36168D01*
X2651Y35500D01*
X2651Y35500D01*
X2673Y35388D01*
X2678Y35366D01*
X2753Y35253D01*
X3253Y34753D01*
X3253Y34753D01*
X3366Y34678D01*
X3500Y34651D01*
X3500Y34651D01*
X3500Y34651D01*
X7827Y34651D01*
X7940Y34538D01*
X8141Y34454D01*
X8357Y34454D01*
X8558Y34537D01*
X8711Y34690D01*
X8795Y34891D01*
X8795Y35107D01*
X8712Y35308D01*
X8559Y35461D01*
X8358Y35545D01*
X8142Y35545D01*
X7941Y35462D01*
X7827Y35348D01*
X3644Y35348D01*
X3348Y35644D01*
X3348Y36168D01*
X3395Y36200D01*
X3500Y36355D01*
X3604Y36200D01*
X3785Y36078D01*
X4000Y36036D01*
X4214Y36078D01*
X4395Y36200D01*
X4500Y36355D01*
X4604Y36200D01*
X4785Y36078D01*
X5000Y36036D01*
X5214Y36078D01*
X5395Y36200D01*
X5500Y36355D01*
X5604Y36200D01*
X5785Y36078D01*
X6000Y36036D01*
X6214Y36078D01*
X6395Y36200D01*
X6500Y36355D01*
X6604Y36200D01*
X6785Y36078D01*
X7000Y36036D01*
X7214Y36078D01*
X7395Y36200D01*
X7500Y36355D01*
X7604Y36200D01*
X7785Y36078D01*
X8000Y36036D01*
X8214Y36078D01*
X8395Y36200D01*
X8500Y36355D01*
X8604Y36200D01*
X8785Y36078D01*
X9000Y36036D01*
X9214Y36078D01*
X9395Y36200D01*
X9401Y36208D01*
X9401Y34270D01*
X9360Y34321D01*
X9168Y34426D01*
X9136Y34433D01*
X9050Y34384D01*
X9050Y33800D01*
X9057Y33800D01*
X9057Y33700D01*
X9050Y33700D01*
X9050Y33115D01*
X9136Y33066D01*
X9168Y33073D01*
X9360Y33178D01*
X9401Y33229D01*
X9401Y32644D01*
X9401Y32644D01*
G37*
G54D45*
X9401Y32644D02*
X8950Y32192D01*
X8950Y33115D01*
X8950Y33700D01*
X8942Y33700D01*
X8942Y33800D01*
X8950Y33800D01*
X8950Y34384D01*
X8863Y34433D01*
X8831Y34426D01*
X8639Y34321D01*
X8501Y34150D01*
X8499Y34144D01*
X8395Y34299D01*
X8214Y34421D01*
X8000Y34463D01*
X7785Y34421D01*
X7604Y34299D01*
X7500Y34144D01*
X7395Y34299D01*
X7214Y34421D01*
X7000Y34463D01*
X6785Y34421D01*
X6604Y34299D01*
X6500Y34144D01*
X6395Y34299D01*
X6214Y34421D01*
X6000Y34463D01*
X5785Y34421D01*
X5604Y34299D01*
X5499Y34144D01*
X5395Y34299D01*
X5214Y34421D01*
X5000Y34463D01*
X4785Y34421D01*
X4604Y34299D01*
X4499Y34144D01*
X4395Y34299D01*
X4214Y34421D01*
X4000Y34463D01*
X3785Y34421D01*
X3604Y34299D01*
X3499Y34144D01*
X3395Y34299D01*
X3214Y34421D01*
X3000Y34463D01*
X2785Y34421D01*
X2604Y34299D01*
X2560Y34233D01*
X2560Y34249D01*
X2522Y34341D01*
X2451Y34411D01*
X2359Y34449D01*
X2260Y34450D01*
X1640Y34450D01*
X1548Y34412D01*
X1478Y34341D01*
X1440Y34249D01*
X1439Y34150D01*
X1439Y33250D01*
X1477Y33158D01*
X1548Y33088D01*
X1640Y33050D01*
X1739Y33049D01*
X2359Y33049D01*
X2451Y33087D01*
X2521Y33158D01*
X2559Y33250D01*
X2559Y33266D01*
X2604Y33200D01*
X2785Y33078D01*
X2807Y33074D01*
X2658Y33012D01*
X2487Y32842D01*
X2395Y32620D01*
X2395Y32380D01*
X2487Y32158D01*
X2657Y31987D01*
X2879Y31895D01*
X3119Y31895D01*
X3341Y31987D01*
X3512Y32157D01*
X3604Y32379D01*
X3604Y32619D01*
X3512Y32841D01*
X3342Y33012D01*
X3192Y33074D01*
X3214Y33078D01*
X3395Y33200D01*
X3500Y33355D01*
X3604Y33200D01*
X3785Y33078D01*
X4000Y33036D01*
X4214Y33078D01*
X4395Y33200D01*
X4500Y33355D01*
X4604Y33200D01*
X4785Y33078D01*
X5000Y33036D01*
X5214Y33078D01*
X5395Y33200D01*
X5500Y33355D01*
X5604Y33200D01*
X5785Y33078D01*
X5807Y33074D01*
X5658Y33012D01*
X5487Y32842D01*
X5395Y32620D01*
X5395Y32380D01*
X5487Y32158D01*
X5657Y31987D01*
X5879Y31895D01*
X6119Y31895D01*
X6341Y31987D01*
X6500Y32145D01*
X6657Y31987D01*
X6879Y31895D01*
X7119Y31895D01*
X7341Y31987D01*
X7500Y32145D01*
X7657Y31987D01*
X7879Y31895D01*
X8119Y31895D01*
X8341Y31987D01*
X8512Y32157D01*
X8604Y32379D01*
X8604Y32619D01*
X8512Y32841D01*
X8342Y33012D01*
X8192Y33074D01*
X8214Y33078D01*
X8395Y33200D01*
X8499Y33355D01*
X8501Y33349D01*
X8639Y33178D01*
X8831Y33073D01*
X8863Y33066D01*
X8950Y33115D01*
X8950Y32192D01*
X8355Y31598D01*
X7500Y31598D01*
X7366Y31571D01*
X7253Y31496D01*
X7253Y31496D01*
X6253Y30496D01*
X6178Y30383D01*
X6173Y30361D01*
X6151Y30250D01*
X6151Y30249D01*
X6151Y29500D01*
X6165Y29430D01*
X6000Y29463D01*
X5785Y29421D01*
X5604Y29299D01*
X5499Y29144D01*
X5395Y29299D01*
X5214Y29421D01*
X5000Y29463D01*
X4785Y29421D01*
X4604Y29299D01*
X4499Y29144D01*
X4395Y29299D01*
X4214Y29421D01*
X4000Y29463D01*
X3785Y29421D01*
X3604Y29299D01*
X3500Y29144D01*
X3498Y29150D01*
X3360Y29321D01*
X3168Y29426D01*
X3136Y29433D01*
X3050Y29384D01*
X3050Y28800D01*
X3057Y28800D01*
X3057Y28700D01*
X3050Y28700D01*
X3050Y28115D01*
X3136Y28066D01*
X3168Y28073D01*
X3360Y28178D01*
X3498Y28349D01*
X3500Y28355D01*
X3604Y28200D01*
X3785Y28078D01*
X4000Y28036D01*
X4214Y28078D01*
X4395Y28200D01*
X4500Y28355D01*
X4604Y28200D01*
X4670Y28156D01*
X4673Y28138D01*
X4678Y28116D01*
X4753Y28003D01*
X5151Y27605D01*
X5151Y27172D01*
X5038Y27059D01*
X4954Y26858D01*
X4954Y26642D01*
X5030Y26457D01*
X5000Y26463D01*
X4785Y26421D01*
X4604Y26299D01*
X4499Y26144D01*
X4395Y26299D01*
X4348Y26331D01*
X4348Y26749D01*
X4348Y26750D01*
X4348Y26750D01*
X4321Y26883D01*
X4246Y26996D01*
X4246Y26996D01*
X3746Y27496D01*
X3633Y27571D01*
X3611Y27576D01*
X3500Y27598D01*
X3499Y27598D01*
X2950Y27598D01*
X2950Y28115D01*
X2950Y28700D01*
X2942Y28700D01*
X2942Y28800D01*
X2950Y28800D01*
X2950Y29384D01*
X2863Y29433D01*
X2831Y29426D01*
X2639Y29321D01*
X2501Y29150D01*
X2499Y29144D01*
X2395Y29299D01*
X2214Y29421D01*
X2000Y29463D01*
X1785Y29421D01*
X1604Y29299D01*
X1482Y29118D01*
X1440Y28903D01*
X1440Y28596D01*
X1482Y28381D01*
X1604Y28200D01*
X1785Y28078D01*
X2000Y28036D01*
X2214Y28078D01*
X2395Y28200D01*
X2499Y28355D01*
X2501Y28349D01*
X2639Y28178D01*
X2831Y28073D01*
X2863Y28066D01*
X2950Y28115D01*
X2950Y27598D01*
X1894Y27598D01*
X1098Y28394D01*
X1098Y36855D01*
X2418Y38175D01*
X2395Y38120D01*
X2395Y37880D01*
X2487Y37658D01*
X2657Y37487D01*
X2807Y37425D01*
X2785Y37421D01*
X2604Y37299D01*
X2499Y37144D01*
X2395Y37299D01*
X2214Y37421D01*
X2000Y37463D01*
X1785Y37421D01*
X1604Y37299D01*
X1482Y37118D01*
X1440Y36903D01*
X1440Y36596D01*
X1482Y36381D01*
X1604Y36200D01*
X1785Y36078D01*
X2000Y36036D01*
X2214Y36078D01*
X2395Y36200D01*
X2500Y36355D01*
X2604Y36200D01*
X2651Y36168D01*
X2651Y35500D01*
X2651Y35500D01*
X2673Y35388D01*
X2678Y35366D01*
X2753Y35253D01*
X3253Y34753D01*
X3253Y34753D01*
X3366Y34678D01*
X3500Y34651D01*
X3500Y34651D01*
X3500Y34651D01*
X7827Y34651D01*
X7940Y34538D01*
X8141Y34454D01*
X8357Y34454D01*
X8558Y34537D01*
X8711Y34690D01*
X8795Y34891D01*
X8795Y35107D01*
X8712Y35308D01*
X8559Y35461D01*
X8358Y35545D01*
X8142Y35545D01*
X7941Y35462D01*
X7827Y35348D01*
X3644Y35348D01*
X3348Y35644D01*
X3348Y36168D01*
X3395Y36200D01*
X3500Y36355D01*
X3604Y36200D01*
X3785Y36078D01*
X4000Y36036D01*
X4214Y36078D01*
X4395Y36200D01*
X4500Y36355D01*
X4604Y36200D01*
X4785Y36078D01*
X5000Y36036D01*
X5214Y36078D01*
X5395Y36200D01*
X5500Y36355D01*
X5604Y36200D01*
X5785Y36078D01*
X6000Y36036D01*
X6214Y36078D01*
X6395Y36200D01*
X6500Y36355D01*
X6604Y36200D01*
X6785Y36078D01*
X7000Y36036D01*
X7214Y36078D01*
X7395Y36200D01*
X7500Y36355D01*
X7604Y36200D01*
X7785Y36078D01*
X8000Y36036D01*
X8214Y36078D01*
X8395Y36200D01*
X8500Y36355D01*
X8604Y36200D01*
X8785Y36078D01*
X9000Y36036D01*
X9214Y36078D01*
X9395Y36200D01*
X9401Y36208D01*
X9401Y34270D01*
X9360Y34321D01*
X9168Y34426D01*
X9136Y34433D01*
X9050Y34384D01*
X9050Y33800D01*
X9057Y33800D01*
X9057Y33700D01*
X9050Y33700D01*
X9050Y33115D01*
X9136Y33066D01*
X9168Y33073D01*
X9360Y33178D01*
X9401Y33229D01*
X9401Y32644D01*
G54D10*
G36*
X10166Y25073D02*
X10151Y25000D01*
X10151Y23500D01*
X10165Y23430D01*
X10000Y23463D01*
X9834Y23430D01*
X9848Y23500D01*
X9848Y25000D01*
X9833Y25073D01*
X9863Y25066D01*
X9950Y25115D01*
X9950Y25700D01*
X9942Y25700D01*
X9942Y25800D01*
X9950Y25800D01*
X9950Y26384D01*
X9863Y26433D01*
X9833Y26426D01*
X9848Y26500D01*
X9848Y28000D01*
X9834Y28069D01*
X10000Y28036D01*
X10165Y28069D01*
X10151Y28000D01*
X10151Y26500D01*
X10166Y26426D01*
X10136Y26433D01*
X10050Y26384D01*
X10050Y25800D01*
X10057Y25800D01*
X10057Y25700D01*
X10050Y25700D01*
X10050Y25115D01*
X10136Y25066D01*
X10166Y25073D01*
X10166Y25073D01*
G37*
G54D45*
X10166Y25073D02*
X10151Y25000D01*
X10151Y23500D01*
X10165Y23430D01*
X10000Y23463D01*
X9834Y23430D01*
X9848Y23500D01*
X9848Y25000D01*
X9833Y25073D01*
X9863Y25066D01*
X9950Y25115D01*
X9950Y25700D01*
X9942Y25700D01*
X9942Y25800D01*
X9950Y25800D01*
X9950Y26384D01*
X9863Y26433D01*
X9833Y26426D01*
X9848Y26500D01*
X9848Y28000D01*
X9834Y28069D01*
X10000Y28036D01*
X10165Y28069D01*
X10151Y28000D01*
X10151Y26500D01*
X10166Y26426D01*
X10136Y26433D01*
X10050Y26384D01*
X10050Y25800D01*
X10057Y25800D01*
X10057Y25700D01*
X10050Y25700D01*
X10050Y25115D01*
X10136Y25066D01*
X10166Y25073D01*
G54D10*
G36*
X16158Y16098D02*
X15213Y16098D01*
X15360Y16178D01*
X15498Y16349D01*
X15560Y16560D01*
X15560Y16700D01*
X15050Y16700D01*
X15050Y16692D01*
X14950Y16692D01*
X14950Y16700D01*
X14942Y16700D01*
X14942Y16800D01*
X14950Y16800D01*
X14950Y16807D01*
X15050Y16807D01*
X15050Y16800D01*
X15560Y16800D01*
X15560Y16940D01*
X15498Y17150D01*
X15360Y17321D01*
X15213Y17401D01*
X15355Y17401D01*
X15651Y17105D01*
X15651Y16750D01*
X15651Y16750D01*
X15673Y16638D01*
X15678Y16616D01*
X15753Y16503D01*
X16158Y16098D01*
X16158Y16098D01*
G37*
G54D45*
X16158Y16098D02*
X15213Y16098D01*
X15360Y16178D01*
X15498Y16349D01*
X15560Y16560D01*
X15560Y16700D01*
X15050Y16700D01*
X15050Y16692D01*
X14950Y16692D01*
X14950Y16700D01*
X14942Y16700D01*
X14942Y16800D01*
X14950Y16800D01*
X14950Y16807D01*
X15050Y16807D01*
X15050Y16800D01*
X15560Y16800D01*
X15560Y16940D01*
X15498Y17150D01*
X15360Y17321D01*
X15213Y17401D01*
X15355Y17401D01*
X15651Y17105D01*
X15651Y16750D01*
X15651Y16750D01*
X15673Y16638D01*
X15678Y16616D01*
X15753Y16503D01*
X16158Y16098D01*
G54D10*
G36*
X21666Y4159D02*
X21605Y4098D01*
X8450Y4098D01*
X8450Y4204D01*
X8450Y4792D01*
X7935Y4792D01*
X7935Y4654D01*
X7997Y4442D01*
X8135Y4269D01*
X8329Y4163D01*
X8362Y4156D01*
X8450Y4204D01*
X8450Y4098D01*
X6128Y4098D01*
X5868Y4098D01*
X5868Y4560D01*
X5500Y4929D01*
X5429Y4858D01*
X5131Y4560D01*
X5167Y4457D01*
X5400Y4371D01*
X5648Y4381D01*
X5832Y4457D01*
X5868Y4560D01*
X5868Y4098D01*
X5394Y4098D01*
X4746Y4746D01*
X4633Y4821D01*
X4611Y4826D01*
X4500Y4848D01*
X4499Y4848D01*
X1894Y4848D01*
X1348Y5394D01*
X1348Y23605D01*
X1644Y23901D01*
X2408Y23901D01*
X2253Y23746D01*
X2178Y23633D01*
X2151Y23500D01*
X2165Y23430D01*
X2000Y23463D01*
X1785Y23421D01*
X1604Y23299D01*
X1482Y23118D01*
X1440Y22903D01*
X1440Y22596D01*
X1482Y22381D01*
X1604Y22200D01*
X1785Y22078D01*
X2000Y22036D01*
X2165Y22069D01*
X2151Y22000D01*
X2151Y17500D01*
X2161Y17450D01*
X1640Y17450D01*
X1548Y17412D01*
X1478Y17341D01*
X1440Y17249D01*
X1439Y17150D01*
X1439Y16250D01*
X1477Y16158D01*
X1548Y16088D01*
X1640Y16050D01*
X1739Y16049D01*
X2161Y16049D01*
X2151Y16000D01*
X2151Y13250D01*
X2165Y13180D01*
X2000Y13213D01*
X1785Y13171D01*
X1604Y13049D01*
X1482Y12868D01*
X1440Y12653D01*
X1440Y12346D01*
X1482Y12131D01*
X1604Y11950D01*
X1785Y11828D01*
X2000Y11786D01*
X2181Y11822D01*
X2181Y11387D01*
X2178Y11383D01*
X2151Y11250D01*
X2178Y11116D01*
X2253Y11003D01*
X3003Y10253D01*
X3003Y10253D01*
X3090Y10195D01*
X3000Y10213D01*
X2785Y10171D01*
X2604Y10049D01*
X2559Y9983D01*
X2559Y9999D01*
X2521Y10091D01*
X2451Y10162D01*
X2359Y10200D01*
X2112Y10200D01*
X2050Y10137D01*
X2050Y9550D01*
X2057Y9550D01*
X2057Y9450D01*
X2050Y9450D01*
X2050Y8862D01*
X2112Y8800D01*
X2359Y8799D01*
X2451Y8837D01*
X2521Y8908D01*
X2559Y9000D01*
X2559Y9016D01*
X2604Y8950D01*
X2785Y8828D01*
X3000Y8786D01*
X3214Y8828D01*
X3395Y8950D01*
X3500Y9105D01*
X3604Y8950D01*
X3785Y8828D01*
X4000Y8786D01*
X4214Y8828D01*
X4395Y8950D01*
X4500Y9105D01*
X4604Y8950D01*
X4785Y8828D01*
X5000Y8786D01*
X5214Y8828D01*
X5395Y8950D01*
X5500Y9105D01*
X5604Y8950D01*
X5785Y8828D01*
X6000Y8786D01*
X6214Y8828D01*
X6395Y8950D01*
X6500Y9105D01*
X6604Y8950D01*
X6785Y8828D01*
X7000Y8786D01*
X7214Y8828D01*
X7395Y8950D01*
X7500Y9105D01*
X7604Y8950D01*
X7785Y8828D01*
X8000Y8786D01*
X8165Y8819D01*
X8151Y8750D01*
X8178Y8616D01*
X8253Y8503D01*
X9003Y7753D01*
X9003Y7753D01*
X9116Y7678D01*
X9249Y7651D01*
X9249Y7651D01*
X9250Y7651D01*
X20355Y7651D01*
X21151Y6855D01*
X21151Y6742D01*
X21100Y6708D01*
X21000Y6558D01*
X20899Y6708D01*
X20716Y6830D01*
X20500Y6874D01*
X20283Y6830D01*
X20100Y6708D01*
X20000Y6558D01*
X19899Y6708D01*
X19716Y6830D01*
X19500Y6874D01*
X19283Y6830D01*
X19100Y6708D01*
X19000Y6558D01*
X18899Y6708D01*
X18716Y6830D01*
X18500Y6874D01*
X18283Y6830D01*
X18100Y6708D01*
X18000Y6558D01*
X17899Y6708D01*
X17716Y6830D01*
X17500Y6874D01*
X17283Y6830D01*
X17100Y6708D01*
X17000Y6558D01*
X16899Y6708D01*
X16716Y6830D01*
X16500Y6874D01*
X16283Y6830D01*
X16100Y6708D01*
X16000Y6558D01*
X15899Y6708D01*
X15716Y6830D01*
X15500Y6874D01*
X15283Y6830D01*
X15100Y6708D01*
X15000Y6558D01*
X14899Y6708D01*
X14716Y6830D01*
X14500Y6874D01*
X14283Y6830D01*
X14100Y6708D01*
X14000Y6558D01*
X13899Y6708D01*
X13716Y6830D01*
X13500Y6874D01*
X13283Y6830D01*
X13100Y6708D01*
X13000Y6558D01*
X12899Y6708D01*
X12716Y6830D01*
X12500Y6874D01*
X12283Y6830D01*
X12100Y6708D01*
X12000Y6558D01*
X11899Y6708D01*
X11716Y6830D01*
X11500Y6874D01*
X11283Y6830D01*
X11100Y6708D01*
X11000Y6558D01*
X10899Y6708D01*
X10716Y6830D01*
X10500Y6874D01*
X10283Y6830D01*
X10100Y6708D01*
X10000Y6558D01*
X9899Y6708D01*
X9716Y6830D01*
X9500Y6874D01*
X9283Y6830D01*
X9100Y6708D01*
X9000Y6558D01*
X8899Y6708D01*
X8716Y6830D01*
X8500Y6874D01*
X8283Y6830D01*
X8100Y6708D01*
X7978Y6525D01*
X7970Y6486D01*
X6098Y6486D01*
X6086Y6515D01*
X6015Y6585D01*
X5923Y6623D01*
X5824Y6624D01*
X5076Y6624D01*
X4984Y6586D01*
X4914Y6515D01*
X4901Y6486D01*
X3500Y6486D01*
X3313Y6449D01*
X3156Y6343D01*
X2798Y5986D01*
X2674Y5986D01*
X2615Y6045D01*
X2378Y6143D01*
X2122Y6143D01*
X1950Y6072D01*
X1950Y8862D01*
X1950Y9450D01*
X1950Y9550D01*
X1950Y10137D01*
X1887Y10200D01*
X1640Y10200D01*
X1548Y10162D01*
X1478Y10091D01*
X1440Y9999D01*
X1439Y9900D01*
X1440Y9612D01*
X1502Y9550D01*
X1950Y9550D01*
X1950Y9450D01*
X1502Y9450D01*
X1440Y9387D01*
X1439Y9099D01*
X1440Y9000D01*
X1478Y8908D01*
X1548Y8837D01*
X1640Y8799D01*
X1887Y8800D01*
X1950Y8862D01*
X1950Y6072D01*
X1885Y6046D01*
X1704Y5865D01*
X1606Y5628D01*
X1606Y5372D01*
X1703Y5135D01*
X1884Y4954D01*
X2121Y4856D01*
X2377Y4856D01*
X2614Y4953D01*
X2674Y5013D01*
X3000Y5013D01*
X3186Y5050D01*
X3343Y5156D01*
X3701Y5513D01*
X4901Y5513D01*
X4913Y5484D01*
X4984Y5414D01*
X5037Y5392D01*
X5060Y5368D01*
X4957Y5332D01*
X4871Y5099D01*
X4881Y4851D01*
X4957Y4667D01*
X5060Y4631D01*
X5429Y5000D01*
X5423Y5005D01*
X5494Y5076D01*
X5500Y5070D01*
X5505Y5076D01*
X5576Y5005D01*
X5570Y5000D01*
X5939Y4631D01*
X6042Y4667D01*
X6128Y4900D01*
X6118Y5148D01*
X6042Y5332D01*
X5939Y5368D01*
X5962Y5392D01*
X6015Y5413D01*
X6085Y5484D01*
X6098Y5513D01*
X8239Y5513D01*
X8273Y5490D01*
X8135Y5415D01*
X7997Y5242D01*
X7935Y5030D01*
X7935Y4892D01*
X8450Y4892D01*
X8450Y4900D01*
X8550Y4900D01*
X8550Y4892D01*
X8557Y4892D01*
X8557Y4792D01*
X8550Y4792D01*
X8550Y4204D01*
X8637Y4156D01*
X8670Y4163D01*
X8864Y4269D01*
X9001Y4440D01*
X9100Y4291D01*
X9283Y4169D01*
X9500Y4125D01*
X9716Y4169D01*
X9899Y4291D01*
X10000Y4441D01*
X10100Y4291D01*
X10283Y4169D01*
X10500Y4125D01*
X10716Y4169D01*
X10899Y4291D01*
X11000Y4441D01*
X11100Y4291D01*
X11283Y4169D01*
X11500Y4125D01*
X11716Y4169D01*
X11899Y4291D01*
X12000Y4441D01*
X12100Y4291D01*
X12283Y4169D01*
X12500Y4125D01*
X12716Y4169D01*
X12899Y4291D01*
X13000Y4441D01*
X13100Y4291D01*
X13283Y4169D01*
X13500Y4125D01*
X13716Y4169D01*
X13899Y4291D01*
X14000Y4441D01*
X14100Y4291D01*
X14283Y4169D01*
X14500Y4125D01*
X14716Y4169D01*
X14899Y4291D01*
X15000Y4441D01*
X15100Y4291D01*
X15283Y4169D01*
X15500Y4125D01*
X15716Y4169D01*
X15899Y4291D01*
X16000Y4441D01*
X16100Y4291D01*
X16283Y4169D01*
X16500Y4125D01*
X16716Y4169D01*
X16899Y4291D01*
X17000Y4441D01*
X17100Y4291D01*
X17283Y4169D01*
X17500Y4125D01*
X17716Y4169D01*
X17899Y4291D01*
X18000Y4441D01*
X18100Y4291D01*
X18283Y4169D01*
X18500Y4125D01*
X18716Y4169D01*
X18899Y4291D01*
X19000Y4441D01*
X19100Y4291D01*
X19283Y4169D01*
X19500Y4125D01*
X19716Y4169D01*
X19899Y4291D01*
X20000Y4441D01*
X20100Y4291D01*
X20283Y4169D01*
X20500Y4125D01*
X20716Y4169D01*
X20899Y4291D01*
X21000Y4441D01*
X21100Y4291D01*
X21283Y4169D01*
X21500Y4125D01*
X21666Y4159D01*
X21666Y4159D01*
G37*
G54D45*
X21666Y4159D02*
X21605Y4098D01*
X8450Y4098D01*
X8450Y4204D01*
X8450Y4792D01*
X7935Y4792D01*
X7935Y4654D01*
X7997Y4442D01*
X8135Y4269D01*
X8329Y4163D01*
X8362Y4156D01*
X8450Y4204D01*
X8450Y4098D01*
X6128Y4098D01*
X5868Y4098D01*
X5868Y4560D01*
X5500Y4929D01*
X5429Y4858D01*
X5131Y4560D01*
X5167Y4457D01*
X5400Y4371D01*
X5648Y4381D01*
X5832Y4457D01*
X5868Y4560D01*
X5868Y4098D01*
X5394Y4098D01*
X4746Y4746D01*
X4633Y4821D01*
X4611Y4826D01*
X4500Y4848D01*
X4499Y4848D01*
X1894Y4848D01*
X1348Y5394D01*
X1348Y23605D01*
X1644Y23901D01*
X2408Y23901D01*
X2253Y23746D01*
X2178Y23633D01*
X2151Y23500D01*
X2165Y23430D01*
X2000Y23463D01*
X1785Y23421D01*
X1604Y23299D01*
X1482Y23118D01*
X1440Y22903D01*
X1440Y22596D01*
X1482Y22381D01*
X1604Y22200D01*
X1785Y22078D01*
X2000Y22036D01*
X2165Y22069D01*
X2151Y22000D01*
X2151Y17500D01*
X2161Y17450D01*
X1640Y17450D01*
X1548Y17412D01*
X1478Y17341D01*
X1440Y17249D01*
X1439Y17150D01*
X1439Y16250D01*
X1477Y16158D01*
X1548Y16088D01*
X1640Y16050D01*
X1739Y16049D01*
X2161Y16049D01*
X2151Y16000D01*
X2151Y13250D01*
X2165Y13180D01*
X2000Y13213D01*
X1785Y13171D01*
X1604Y13049D01*
X1482Y12868D01*
X1440Y12653D01*
X1440Y12346D01*
X1482Y12131D01*
X1604Y11950D01*
X1785Y11828D01*
X2000Y11786D01*
X2181Y11822D01*
X2181Y11387D01*
X2178Y11383D01*
X2151Y11250D01*
X2178Y11116D01*
X2253Y11003D01*
X3003Y10253D01*
X3003Y10253D01*
X3090Y10195D01*
X3000Y10213D01*
X2785Y10171D01*
X2604Y10049D01*
X2559Y9983D01*
X2559Y9999D01*
X2521Y10091D01*
X2451Y10162D01*
X2359Y10200D01*
X2112Y10200D01*
X2050Y10137D01*
X2050Y9550D01*
X2057Y9550D01*
X2057Y9450D01*
X2050Y9450D01*
X2050Y8862D01*
X2112Y8800D01*
X2359Y8799D01*
X2451Y8837D01*
X2521Y8908D01*
X2559Y9000D01*
X2559Y9016D01*
X2604Y8950D01*
X2785Y8828D01*
X3000Y8786D01*
X3214Y8828D01*
X3395Y8950D01*
X3500Y9105D01*
X3604Y8950D01*
X3785Y8828D01*
X4000Y8786D01*
X4214Y8828D01*
X4395Y8950D01*
X4500Y9105D01*
X4604Y8950D01*
X4785Y8828D01*
X5000Y8786D01*
X5214Y8828D01*
X5395Y8950D01*
X5500Y9105D01*
X5604Y8950D01*
X5785Y8828D01*
X6000Y8786D01*
X6214Y8828D01*
X6395Y8950D01*
X6500Y9105D01*
X6604Y8950D01*
X6785Y8828D01*
X7000Y8786D01*
X7214Y8828D01*
X7395Y8950D01*
X7500Y9105D01*
X7604Y8950D01*
X7785Y8828D01*
X8000Y8786D01*
X8165Y8819D01*
X8151Y8750D01*
X8178Y8616D01*
X8253Y8503D01*
X9003Y7753D01*
X9003Y7753D01*
X9116Y7678D01*
X9249Y7651D01*
X9249Y7651D01*
X9250Y7651D01*
X20355Y7651D01*
X21151Y6855D01*
X21151Y6742D01*
X21100Y6708D01*
X21000Y6558D01*
X20899Y6708D01*
X20716Y6830D01*
X20500Y6874D01*
X20283Y6830D01*
X20100Y6708D01*
X20000Y6558D01*
X19899Y6708D01*
X19716Y6830D01*
X19500Y6874D01*
X19283Y6830D01*
X19100Y6708D01*
X19000Y6558D01*
X18899Y6708D01*
X18716Y6830D01*
X18500Y6874D01*
X18283Y6830D01*
X18100Y6708D01*
X18000Y6558D01*
X17899Y6708D01*
X17716Y6830D01*
X17500Y6874D01*
X17283Y6830D01*
X17100Y6708D01*
X17000Y6558D01*
X16899Y6708D01*
X16716Y6830D01*
X16500Y6874D01*
X16283Y6830D01*
X16100Y6708D01*
X16000Y6558D01*
X15899Y6708D01*
X15716Y6830D01*
X15500Y6874D01*
X15283Y6830D01*
X15100Y6708D01*
X15000Y6558D01*
X14899Y6708D01*
X14716Y6830D01*
X14500Y6874D01*
X14283Y6830D01*
X14100Y6708D01*
X14000Y6558D01*
X13899Y6708D01*
X13716Y6830D01*
X13500Y6874D01*
X13283Y6830D01*
X13100Y6708D01*
X13000Y6558D01*
X12899Y6708D01*
X12716Y6830D01*
X12500Y6874D01*
X12283Y6830D01*
X12100Y6708D01*
X12000Y6558D01*
X11899Y6708D01*
X11716Y6830D01*
X11500Y6874D01*
X11283Y6830D01*
X11100Y6708D01*
X11000Y6558D01*
X10899Y6708D01*
X10716Y6830D01*
X10500Y6874D01*
X10283Y6830D01*
X10100Y6708D01*
X10000Y6558D01*
X9899Y6708D01*
X9716Y6830D01*
X9500Y6874D01*
X9283Y6830D01*
X9100Y6708D01*
X9000Y6558D01*
X8899Y6708D01*
X8716Y6830D01*
X8500Y6874D01*
X8283Y6830D01*
X8100Y6708D01*
X7978Y6525D01*
X7970Y6486D01*
X6098Y6486D01*
X6086Y6515D01*
X6015Y6585D01*
X5923Y6623D01*
X5824Y6624D01*
X5076Y6624D01*
X4984Y6586D01*
X4914Y6515D01*
X4901Y6486D01*
X3500Y6486D01*
X3313Y6449D01*
X3156Y6343D01*
X2798Y5986D01*
X2674Y5986D01*
X2615Y6045D01*
X2378Y6143D01*
X2122Y6143D01*
X1950Y6072D01*
X1950Y8862D01*
X1950Y9450D01*
X1950Y9550D01*
X1950Y10137D01*
X1887Y10200D01*
X1640Y10200D01*
X1548Y10162D01*
X1478Y10091D01*
X1440Y9999D01*
X1439Y9900D01*
X1440Y9612D01*
X1502Y9550D01*
X1950Y9550D01*
X1950Y9450D01*
X1502Y9450D01*
X1440Y9387D01*
X1439Y9099D01*
X1440Y9000D01*
X1478Y8908D01*
X1548Y8837D01*
X1640Y8799D01*
X1887Y8800D01*
X1950Y8862D01*
X1950Y6072D01*
X1885Y6046D01*
X1704Y5865D01*
X1606Y5628D01*
X1606Y5372D01*
X1703Y5135D01*
X1884Y4954D01*
X2121Y4856D01*
X2377Y4856D01*
X2614Y4953D01*
X2674Y5013D01*
X3000Y5013D01*
X3186Y5050D01*
X3343Y5156D01*
X3701Y5513D01*
X4901Y5513D01*
X4913Y5484D01*
X4984Y5414D01*
X5037Y5392D01*
X5060Y5368D01*
X4957Y5332D01*
X4871Y5099D01*
X4881Y4851D01*
X4957Y4667D01*
X5060Y4631D01*
X5429Y5000D01*
X5423Y5005D01*
X5494Y5076D01*
X5500Y5070D01*
X5505Y5076D01*
X5576Y5005D01*
X5570Y5000D01*
X5939Y4631D01*
X6042Y4667D01*
X6128Y4900D01*
X6118Y5148D01*
X6042Y5332D01*
X5939Y5368D01*
X5962Y5392D01*
X6015Y5413D01*
X6085Y5484D01*
X6098Y5513D01*
X8239Y5513D01*
X8273Y5490D01*
X8135Y5415D01*
X7997Y5242D01*
X7935Y5030D01*
X7935Y4892D01*
X8450Y4892D01*
X8450Y4900D01*
X8550Y4900D01*
X8550Y4892D01*
X8557Y4892D01*
X8557Y4792D01*
X8550Y4792D01*
X8550Y4204D01*
X8637Y4156D01*
X8670Y4163D01*
X8864Y4269D01*
X9001Y4440D01*
X9100Y4291D01*
X9283Y4169D01*
X9500Y4125D01*
X9716Y4169D01*
X9899Y4291D01*
X10000Y4441D01*
X10100Y4291D01*
X10283Y4169D01*
X10500Y4125D01*
X10716Y4169D01*
X10899Y4291D01*
X11000Y4441D01*
X11100Y4291D01*
X11283Y4169D01*
X11500Y4125D01*
X11716Y4169D01*
X11899Y4291D01*
X12000Y4441D01*
X12100Y4291D01*
X12283Y4169D01*
X12500Y4125D01*
X12716Y4169D01*
X12899Y4291D01*
X13000Y4441D01*
X13100Y4291D01*
X13283Y4169D01*
X13500Y4125D01*
X13716Y4169D01*
X13899Y4291D01*
X14000Y4441D01*
X14100Y4291D01*
X14283Y4169D01*
X14500Y4125D01*
X14716Y4169D01*
X14899Y4291D01*
X15000Y4441D01*
X15100Y4291D01*
X15283Y4169D01*
X15500Y4125D01*
X15716Y4169D01*
X15899Y4291D01*
X16000Y4441D01*
X16100Y4291D01*
X16283Y4169D01*
X16500Y4125D01*
X16716Y4169D01*
X16899Y4291D01*
X17000Y4441D01*
X17100Y4291D01*
X17283Y4169D01*
X17500Y4125D01*
X17716Y4169D01*
X17899Y4291D01*
X18000Y4441D01*
X18100Y4291D01*
X18283Y4169D01*
X18500Y4125D01*
X18716Y4169D01*
X18899Y4291D01*
X19000Y4441D01*
X19100Y4291D01*
X19283Y4169D01*
X19500Y4125D01*
X19716Y4169D01*
X19899Y4291D01*
X20000Y4441D01*
X20100Y4291D01*
X20283Y4169D01*
X20500Y4125D01*
X20716Y4169D01*
X20899Y4291D01*
X21000Y4441D01*
X21100Y4291D01*
X21283Y4169D01*
X21500Y4125D01*
X21666Y4159D01*
G54D10*
G36*
X23401Y35394D02*
X22355Y34348D01*
X18000Y34348D01*
X18000Y34348D01*
X17888Y34326D01*
X17866Y34321D01*
X17753Y34246D01*
X17753Y34246D01*
X16503Y32996D01*
X16428Y32883D01*
X16423Y32861D01*
X16401Y32750D01*
X16401Y32749D01*
X16401Y31644D01*
X15855Y31098D01*
X15854Y31098D01*
X15854Y32369D01*
X15762Y32591D01*
X15592Y32762D01*
X15370Y32854D01*
X15130Y32854D01*
X14908Y32762D01*
X14737Y32592D01*
X14645Y32370D01*
X14645Y32130D01*
X14737Y31908D01*
X14907Y31737D01*
X15129Y31645D01*
X15369Y31645D01*
X15591Y31737D01*
X15762Y31907D01*
X15854Y32129D01*
X15854Y32369D01*
X15854Y31098D01*
X13250Y31098D01*
X13249Y31098D01*
X13116Y31071D01*
X13003Y30996D01*
X13003Y30996D01*
X12253Y30246D01*
X12178Y30133D01*
X12173Y30111D01*
X12151Y30000D01*
X12151Y29999D01*
X12151Y26922D01*
X12038Y26809D01*
X11954Y26608D01*
X11954Y26392D01*
X12037Y26191D01*
X12150Y26078D01*
X12138Y26076D01*
X12116Y26071D01*
X12003Y25996D01*
X12003Y25996D01*
X11556Y25549D01*
X11560Y25560D01*
X11560Y25700D01*
X11560Y25800D01*
X11560Y25940D01*
X11498Y26150D01*
X11360Y26321D01*
X11168Y26426D01*
X11136Y26433D01*
X11050Y26384D01*
X11050Y25800D01*
X11560Y25800D01*
X11560Y25700D01*
X11050Y25700D01*
X11050Y25115D01*
X11096Y25089D01*
X10848Y24841D01*
X10848Y25000D01*
X10833Y25073D01*
X10863Y25066D01*
X10950Y25115D01*
X10950Y25700D01*
X10942Y25700D01*
X10942Y25800D01*
X10950Y25800D01*
X10950Y26384D01*
X10863Y26433D01*
X10833Y26426D01*
X10848Y26500D01*
X10848Y28000D01*
X10834Y28069D01*
X11000Y28036D01*
X11214Y28078D01*
X11395Y28200D01*
X11517Y28381D01*
X11560Y28596D01*
X11560Y28903D01*
X11517Y29118D01*
X11395Y29299D01*
X11214Y29421D01*
X11000Y29463D01*
X10834Y29430D01*
X10848Y29500D01*
X10848Y30355D01*
X13644Y33151D01*
X15999Y33151D01*
X16000Y33151D01*
X16000Y33151D01*
X16111Y33173D01*
X16133Y33178D01*
X16133Y33178D01*
X16246Y33253D01*
X17394Y34401D01*
X20999Y34401D01*
X21000Y34401D01*
X21000Y34401D01*
X21111Y34423D01*
X21133Y34428D01*
X21133Y34428D01*
X21246Y34503D01*
X21996Y35253D01*
X21996Y35253D01*
X21996Y35253D01*
X22071Y35366D01*
X22098Y35499D01*
X22098Y35500D01*
X22098Y35500D01*
X22098Y35668D01*
X22145Y35700D01*
X22250Y35855D01*
X22354Y35700D01*
X22535Y35578D01*
X22750Y35536D01*
X22964Y35578D01*
X23145Y35700D01*
X23250Y35855D01*
X23354Y35700D01*
X23401Y35668D01*
X23401Y35394D01*
X23401Y35394D01*
G37*
G54D45*
X23401Y35394D02*
X22355Y34348D01*
X18000Y34348D01*
X18000Y34348D01*
X17888Y34326D01*
X17866Y34321D01*
X17753Y34246D01*
X17753Y34246D01*
X16503Y32996D01*
X16428Y32883D01*
X16423Y32861D01*
X16401Y32750D01*
X16401Y32749D01*
X16401Y31644D01*
X15855Y31098D01*
X15854Y31098D01*
X15854Y32369D01*
X15762Y32591D01*
X15592Y32762D01*
X15370Y32854D01*
X15130Y32854D01*
X14908Y32762D01*
X14737Y32592D01*
X14645Y32370D01*
X14645Y32130D01*
X14737Y31908D01*
X14907Y31737D01*
X15129Y31645D01*
X15369Y31645D01*
X15591Y31737D01*
X15762Y31907D01*
X15854Y32129D01*
X15854Y32369D01*
X15854Y31098D01*
X13250Y31098D01*
X13249Y31098D01*
X13116Y31071D01*
X13003Y30996D01*
X13003Y30996D01*
X12253Y30246D01*
X12178Y30133D01*
X12173Y30111D01*
X12151Y30000D01*
X12151Y29999D01*
X12151Y26922D01*
X12038Y26809D01*
X11954Y26608D01*
X11954Y26392D01*
X12037Y26191D01*
X12150Y26078D01*
X12138Y26076D01*
X12116Y26071D01*
X12003Y25996D01*
X12003Y25996D01*
X11556Y25549D01*
X11560Y25560D01*
X11560Y25700D01*
X11560Y25800D01*
X11560Y25940D01*
X11498Y26150D01*
X11360Y26321D01*
X11168Y26426D01*
X11136Y26433D01*
X11050Y26384D01*
X11050Y25800D01*
X11560Y25800D01*
X11560Y25700D01*
X11050Y25700D01*
X11050Y25115D01*
X11096Y25089D01*
X10848Y24841D01*
X10848Y25000D01*
X10833Y25073D01*
X10863Y25066D01*
X10950Y25115D01*
X10950Y25700D01*
X10942Y25700D01*
X10942Y25800D01*
X10950Y25800D01*
X10950Y26384D01*
X10863Y26433D01*
X10833Y26426D01*
X10848Y26500D01*
X10848Y28000D01*
X10834Y28069D01*
X11000Y28036D01*
X11214Y28078D01*
X11395Y28200D01*
X11517Y28381D01*
X11560Y28596D01*
X11560Y28903D01*
X11517Y29118D01*
X11395Y29299D01*
X11214Y29421D01*
X11000Y29463D01*
X10834Y29430D01*
X10848Y29500D01*
X10848Y30355D01*
X13644Y33151D01*
X15999Y33151D01*
X16000Y33151D01*
X16000Y33151D01*
X16111Y33173D01*
X16133Y33178D01*
X16133Y33178D01*
X16246Y33253D01*
X17394Y34401D01*
X20999Y34401D01*
X21000Y34401D01*
X21000Y34401D01*
X21111Y34423D01*
X21133Y34428D01*
X21133Y34428D01*
X21246Y34503D01*
X21996Y35253D01*
X21996Y35253D01*
X21996Y35253D01*
X22071Y35366D01*
X22098Y35499D01*
X22098Y35500D01*
X22098Y35500D01*
X22098Y35668D01*
X22145Y35700D01*
X22250Y35855D01*
X22354Y35700D01*
X22535Y35578D01*
X22750Y35536D01*
X22964Y35578D01*
X23145Y35700D01*
X23250Y35855D01*
X23354Y35700D01*
X23401Y35668D01*
X23401Y35394D01*
G54D10*
G36*
X26408Y33598D02*
X20500Y33598D01*
X20500Y33598D01*
X20366Y33571D01*
X20253Y33496D01*
X20253Y33496D01*
X20052Y33295D01*
X19892Y33295D01*
X19691Y33212D01*
X19538Y33059D01*
X19454Y32858D01*
X19454Y32642D01*
X19537Y32441D01*
X19690Y32288D01*
X19891Y32204D01*
X19962Y32204D01*
X18858Y31101D01*
X18858Y32155D01*
X18848Y32395D01*
X18776Y32570D01*
X18675Y32604D01*
X18604Y32533D01*
X18604Y32675D01*
X18570Y32776D01*
X18344Y32858D01*
X18104Y32848D01*
X17929Y32776D01*
X17895Y32675D01*
X18250Y32320D01*
X18604Y32675D01*
X18604Y32533D01*
X18320Y32250D01*
X18675Y31895D01*
X18776Y31929D01*
X18858Y32155D01*
X18858Y31101D01*
X18604Y30847D01*
X18604Y31824D01*
X18250Y32179D01*
X18179Y32108D01*
X18179Y32250D01*
X17824Y32604D01*
X17723Y32570D01*
X17641Y32344D01*
X17651Y32104D01*
X17723Y31929D01*
X17824Y31895D01*
X18179Y32250D01*
X18179Y32108D01*
X17895Y31824D01*
X17929Y31723D01*
X18155Y31641D01*
X18395Y31651D01*
X18570Y31723D01*
X18604Y31824D01*
X18604Y30847D01*
X17855Y30098D01*
X13672Y30098D01*
X13559Y30211D01*
X13358Y30295D01*
X13287Y30295D01*
X13394Y30401D01*
X15999Y30401D01*
X16000Y30401D01*
X16000Y30401D01*
X16111Y30423D01*
X16133Y30428D01*
X16133Y30428D01*
X16246Y30503D01*
X16996Y31253D01*
X16996Y31253D01*
X16996Y31253D01*
X17071Y31366D01*
X17098Y31499D01*
X17098Y31500D01*
X17098Y31500D01*
X17098Y32605D01*
X18144Y33651D01*
X22499Y33651D01*
X22500Y33651D01*
X22500Y33651D01*
X22611Y33673D01*
X22633Y33678D01*
X22633Y33678D01*
X22746Y33753D01*
X23996Y35003D01*
X23996Y35003D01*
X23996Y35003D01*
X24071Y35116D01*
X24071Y35116D01*
X24076Y35138D01*
X24083Y35173D01*
X24753Y34503D01*
X24753Y34503D01*
X24866Y34428D01*
X24999Y34401D01*
X24999Y34401D01*
X25000Y34401D01*
X25605Y34401D01*
X26408Y33598D01*
X26408Y33598D01*
G37*
G54D45*
X26408Y33598D02*
X20500Y33598D01*
X20500Y33598D01*
X20366Y33571D01*
X20253Y33496D01*
X20253Y33496D01*
X20052Y33295D01*
X19892Y33295D01*
X19691Y33212D01*
X19538Y33059D01*
X19454Y32858D01*
X19454Y32642D01*
X19537Y32441D01*
X19690Y32288D01*
X19891Y32204D01*
X19962Y32204D01*
X18858Y31101D01*
X18858Y32155D01*
X18848Y32395D01*
X18776Y32570D01*
X18675Y32604D01*
X18604Y32533D01*
X18604Y32675D01*
X18570Y32776D01*
X18344Y32858D01*
X18104Y32848D01*
X17929Y32776D01*
X17895Y32675D01*
X18250Y32320D01*
X18604Y32675D01*
X18604Y32533D01*
X18320Y32250D01*
X18675Y31895D01*
X18776Y31929D01*
X18858Y32155D01*
X18858Y31101D01*
X18604Y30847D01*
X18604Y31824D01*
X18250Y32179D01*
X18179Y32108D01*
X18179Y32250D01*
X17824Y32604D01*
X17723Y32570D01*
X17641Y32344D01*
X17651Y32104D01*
X17723Y31929D01*
X17824Y31895D01*
X18179Y32250D01*
X18179Y32108D01*
X17895Y31824D01*
X17929Y31723D01*
X18155Y31641D01*
X18395Y31651D01*
X18570Y31723D01*
X18604Y31824D01*
X18604Y30847D01*
X17855Y30098D01*
X13672Y30098D01*
X13559Y30211D01*
X13358Y30295D01*
X13287Y30295D01*
X13394Y30401D01*
X15999Y30401D01*
X16000Y30401D01*
X16000Y30401D01*
X16111Y30423D01*
X16133Y30428D01*
X16133Y30428D01*
X16246Y30503D01*
X16996Y31253D01*
X16996Y31253D01*
X16996Y31253D01*
X17071Y31366D01*
X17098Y31499D01*
X17098Y31500D01*
X17098Y31500D01*
X17098Y32605D01*
X18144Y33651D01*
X22499Y33651D01*
X22500Y33651D01*
X22500Y33651D01*
X22611Y33673D01*
X22633Y33678D01*
X22633Y33678D01*
X22746Y33753D01*
X23996Y35003D01*
X23996Y35003D01*
X23996Y35003D01*
X24071Y35116D01*
X24071Y35116D01*
X24076Y35138D01*
X24083Y35173D01*
X24753Y34503D01*
X24753Y34503D01*
X24866Y34428D01*
X24999Y34401D01*
X24999Y34401D01*
X25000Y34401D01*
X25605Y34401D01*
X26408Y33598D01*
G54D10*
G36*
X28151Y30815D02*
X28135Y30815D01*
X28043Y30777D01*
X27973Y30706D01*
X27968Y30695D01*
X27899Y30799D01*
X27716Y30921D01*
X27500Y30964D01*
X27283Y30921D01*
X27100Y30799D01*
X27000Y30649D01*
X26899Y30799D01*
X26716Y30921D01*
X26500Y30964D01*
X26283Y30921D01*
X26100Y30799D01*
X25997Y30645D01*
X25986Y30675D01*
X25839Y30839D01*
X25640Y30935D01*
X25637Y30935D01*
X25550Y30887D01*
X25550Y30504D01*
X25450Y30505D01*
X25450Y30887D01*
X25362Y30935D01*
X25359Y30935D01*
X25278Y30896D01*
X25260Y30923D01*
X25225Y30975D01*
X25225Y30975D01*
X24725Y31475D01*
X24622Y31544D01*
X24500Y31568D01*
X22000Y31568D01*
X21877Y31544D01*
X21826Y31510D01*
X21774Y31475D01*
X20774Y30475D01*
X20705Y30372D01*
X20681Y30250D01*
X20681Y29250D01*
X20669Y29245D01*
X20504Y29081D01*
X20415Y28866D01*
X20415Y28634D01*
X20504Y28419D01*
X20668Y28254D01*
X20883Y28165D01*
X21115Y28165D01*
X21330Y28254D01*
X21495Y28418D01*
X21584Y28633D01*
X21584Y28865D01*
X21495Y29080D01*
X21331Y29245D01*
X21318Y29250D01*
X21318Y30117D01*
X22132Y30931D01*
X23329Y30931D01*
X23283Y30921D01*
X23100Y30799D01*
X22978Y30616D01*
X22963Y30543D01*
X22450Y30550D01*
X22450Y29814D01*
X22349Y29814D01*
X22133Y29771D01*
X21950Y29649D01*
X21828Y29466D01*
X21785Y29250D01*
X21828Y29033D01*
X21950Y28850D01*
X22100Y28750D01*
X21950Y28649D01*
X21828Y28466D01*
X21785Y28250D01*
X21817Y28084D01*
X21750Y28098D01*
X21500Y28098D01*
X21500Y28098D01*
X21366Y28071D01*
X21253Y27996D01*
X21253Y27996D01*
X20753Y27496D01*
X20678Y27383D01*
X20673Y27361D01*
X20651Y27250D01*
X20651Y27249D01*
X20651Y26228D01*
X20504Y26081D01*
X20415Y25866D01*
X20415Y25634D01*
X20504Y25419D01*
X20651Y25271D01*
X20651Y25144D01*
X19753Y24246D01*
X19753Y24246D01*
X19708Y24201D01*
X19615Y24295D01*
X19378Y24393D01*
X19122Y24393D01*
X18885Y24296D01*
X18854Y24264D01*
X18854Y25945D01*
X18854Y26653D01*
X18816Y26745D01*
X18746Y26816D01*
X18654Y26854D01*
X18554Y26854D01*
X17846Y26854D01*
X17754Y26816D01*
X17683Y26746D01*
X17645Y26654D01*
X17645Y26554D01*
X17645Y25846D01*
X17683Y25754D01*
X17753Y25683D01*
X17845Y25645D01*
X17945Y25645D01*
X18653Y25645D01*
X18745Y25683D01*
X18816Y25753D01*
X18854Y25845D01*
X18854Y25945D01*
X18854Y24264D01*
X18704Y24115D01*
X18690Y24080D01*
X18559Y24211D01*
X18358Y24295D01*
X18142Y24295D01*
X17941Y24212D01*
X17788Y24059D01*
X17704Y23858D01*
X17704Y23642D01*
X17787Y23441D01*
X17901Y23327D01*
X17901Y21591D01*
X17598Y21894D01*
X17598Y24250D01*
X17571Y24383D01*
X17496Y24496D01*
X17496Y24496D01*
X16496Y25496D01*
X16383Y25571D01*
X16361Y25576D01*
X16250Y25598D01*
X16249Y25598D01*
X15854Y25598D01*
X15854Y26369D01*
X15762Y26591D01*
X15592Y26762D01*
X15370Y26854D01*
X15130Y26854D01*
X14908Y26762D01*
X14737Y26592D01*
X14645Y26370D01*
X14645Y26130D01*
X14737Y25908D01*
X14907Y25737D01*
X15129Y25645D01*
X15369Y25645D01*
X15591Y25737D01*
X15762Y25907D01*
X15854Y26129D01*
X15854Y26369D01*
X15854Y25598D01*
X14644Y25598D01*
X14246Y25996D01*
X14133Y26071D01*
X14111Y26076D01*
X14000Y26098D01*
X13999Y26098D01*
X12869Y26098D01*
X12961Y26190D01*
X13045Y26391D01*
X13045Y26607D01*
X12962Y26808D01*
X12848Y26922D01*
X12848Y29380D01*
X12940Y29288D01*
X13141Y29204D01*
X13357Y29204D01*
X13558Y29287D01*
X13672Y29401D01*
X17999Y29401D01*
X18000Y29401D01*
X18000Y29401D01*
X18111Y29423D01*
X18133Y29428D01*
X18133Y29428D01*
X18246Y29503D01*
X20894Y32151D01*
X26355Y32151D01*
X26753Y31753D01*
X26753Y31753D01*
X26866Y31678D01*
X27000Y31651D01*
X27000Y31651D01*
X27000Y31651D01*
X27855Y31651D01*
X28151Y31355D01*
X28151Y30815D01*
X28151Y30815D01*
G37*
G54D45*
X28151Y30815D02*
X28135Y30815D01*
X28043Y30777D01*
X27973Y30706D01*
X27968Y30695D01*
X27899Y30799D01*
X27716Y30921D01*
X27500Y30964D01*
X27283Y30921D01*
X27100Y30799D01*
X27000Y30649D01*
X26899Y30799D01*
X26716Y30921D01*
X26500Y30964D01*
X26283Y30921D01*
X26100Y30799D01*
X25997Y30645D01*
X25986Y30675D01*
X25839Y30839D01*
X25640Y30935D01*
X25637Y30935D01*
X25550Y30887D01*
X25550Y30504D01*
X25450Y30505D01*
X25450Y30887D01*
X25362Y30935D01*
X25359Y30935D01*
X25278Y30896D01*
X25260Y30923D01*
X25225Y30975D01*
X25225Y30975D01*
X24725Y31475D01*
X24622Y31544D01*
X24500Y31568D01*
X22000Y31568D01*
X21877Y31544D01*
X21826Y31510D01*
X21774Y31475D01*
X20774Y30475D01*
X20705Y30372D01*
X20681Y30250D01*
X20681Y29250D01*
X20669Y29245D01*
X20504Y29081D01*
X20415Y28866D01*
X20415Y28634D01*
X20504Y28419D01*
X20668Y28254D01*
X20883Y28165D01*
X21115Y28165D01*
X21330Y28254D01*
X21495Y28418D01*
X21584Y28633D01*
X21584Y28865D01*
X21495Y29080D01*
X21331Y29245D01*
X21318Y29250D01*
X21318Y30117D01*
X22132Y30931D01*
X23329Y30931D01*
X23283Y30921D01*
X23100Y30799D01*
X22978Y30616D01*
X22963Y30543D01*
X22450Y30550D01*
X22450Y29814D01*
X22349Y29814D01*
X22133Y29771D01*
X21950Y29649D01*
X21828Y29466D01*
X21785Y29250D01*
X21828Y29033D01*
X21950Y28850D01*
X22100Y28750D01*
X21950Y28649D01*
X21828Y28466D01*
X21785Y28250D01*
X21817Y28084D01*
X21750Y28098D01*
X21500Y28098D01*
X21500Y28098D01*
X21366Y28071D01*
X21253Y27996D01*
X21253Y27996D01*
X20753Y27496D01*
X20678Y27383D01*
X20673Y27361D01*
X20651Y27250D01*
X20651Y27249D01*
X20651Y26228D01*
X20504Y26081D01*
X20415Y25866D01*
X20415Y25634D01*
X20504Y25419D01*
X20651Y25271D01*
X20651Y25144D01*
X19753Y24246D01*
X19753Y24246D01*
X19708Y24201D01*
X19615Y24295D01*
X19378Y24393D01*
X19122Y24393D01*
X18885Y24296D01*
X18854Y24264D01*
X18854Y25945D01*
X18854Y26653D01*
X18816Y26745D01*
X18746Y26816D01*
X18654Y26854D01*
X18554Y26854D01*
X17846Y26854D01*
X17754Y26816D01*
X17683Y26746D01*
X17645Y26654D01*
X17645Y26554D01*
X17645Y25846D01*
X17683Y25754D01*
X17753Y25683D01*
X17845Y25645D01*
X17945Y25645D01*
X18653Y25645D01*
X18745Y25683D01*
X18816Y25753D01*
X18854Y25845D01*
X18854Y25945D01*
X18854Y24264D01*
X18704Y24115D01*
X18690Y24080D01*
X18559Y24211D01*
X18358Y24295D01*
X18142Y24295D01*
X17941Y24212D01*
X17788Y24059D01*
X17704Y23858D01*
X17704Y23642D01*
X17787Y23441D01*
X17901Y23327D01*
X17901Y21591D01*
X17598Y21894D01*
X17598Y24250D01*
X17571Y24383D01*
X17496Y24496D01*
X17496Y24496D01*
X16496Y25496D01*
X16383Y25571D01*
X16361Y25576D01*
X16250Y25598D01*
X16249Y25598D01*
X15854Y25598D01*
X15854Y26369D01*
X15762Y26591D01*
X15592Y26762D01*
X15370Y26854D01*
X15130Y26854D01*
X14908Y26762D01*
X14737Y26592D01*
X14645Y26370D01*
X14645Y26130D01*
X14737Y25908D01*
X14907Y25737D01*
X15129Y25645D01*
X15369Y25645D01*
X15591Y25737D01*
X15762Y25907D01*
X15854Y26129D01*
X15854Y26369D01*
X15854Y25598D01*
X14644Y25598D01*
X14246Y25996D01*
X14133Y26071D01*
X14111Y26076D01*
X14000Y26098D01*
X13999Y26098D01*
X12869Y26098D01*
X12961Y26190D01*
X13045Y26391D01*
X13045Y26607D01*
X12962Y26808D01*
X12848Y26922D01*
X12848Y29380D01*
X12940Y29288D01*
X13141Y29204D01*
X13357Y29204D01*
X13558Y29287D01*
X13672Y29401D01*
X17999Y29401D01*
X18000Y29401D01*
X18000Y29401D01*
X18111Y29423D01*
X18133Y29428D01*
X18133Y29428D01*
X18246Y29503D01*
X20894Y32151D01*
X26355Y32151D01*
X26753Y31753D01*
X26753Y31753D01*
X26866Y31678D01*
X27000Y31651D01*
X27000Y31651D01*
X27000Y31651D01*
X27855Y31651D01*
X28151Y31355D01*
X28151Y30815D01*
G54D10*
G36*
X29840Y42945D02*
X29750Y42963D01*
X29535Y42921D01*
X29354Y42799D01*
X29250Y42644D01*
X29145Y42799D01*
X28964Y42921D01*
X28750Y42963D01*
X28535Y42921D01*
X28354Y42799D01*
X28250Y42644D01*
X28145Y42799D01*
X27964Y42921D01*
X27750Y42963D01*
X27535Y42921D01*
X27354Y42799D01*
X27310Y42733D01*
X27310Y44560D01*
X27310Y44700D01*
X26800Y44700D01*
X26800Y44115D01*
X26886Y44066D01*
X26918Y44073D01*
X27110Y44178D01*
X27248Y44349D01*
X27310Y44560D01*
X27310Y42733D01*
X27250Y42644D01*
X27145Y42799D01*
X26964Y42921D01*
X26750Y42963D01*
X26584Y42930D01*
X26598Y43000D01*
X26598Y43249D01*
X26598Y43250D01*
X26598Y43250D01*
X26571Y43383D01*
X26496Y43496D01*
X26496Y43496D01*
X25996Y43996D01*
X25893Y44064D01*
X25964Y44078D01*
X26145Y44200D01*
X26249Y44355D01*
X26251Y44349D01*
X26389Y44178D01*
X26581Y44073D01*
X26613Y44066D01*
X26700Y44115D01*
X26700Y44700D01*
X26692Y44700D01*
X26692Y44800D01*
X26700Y44800D01*
X26700Y44807D01*
X26800Y44807D01*
X26800Y44800D01*
X27310Y44800D01*
X27310Y44940D01*
X27248Y45150D01*
X27110Y45321D01*
X26963Y45401D01*
X27355Y45401D01*
X29753Y43003D01*
X29753Y43003D01*
X29840Y42945D01*
X29840Y42945D01*
G37*
G54D45*
X29840Y42945D02*
X29750Y42963D01*
X29535Y42921D01*
X29354Y42799D01*
X29250Y42644D01*
X29145Y42799D01*
X28964Y42921D01*
X28750Y42963D01*
X28535Y42921D01*
X28354Y42799D01*
X28250Y42644D01*
X28145Y42799D01*
X27964Y42921D01*
X27750Y42963D01*
X27535Y42921D01*
X27354Y42799D01*
X27310Y42733D01*
X27310Y44560D01*
X27310Y44700D01*
X26800Y44700D01*
X26800Y44115D01*
X26886Y44066D01*
X26918Y44073D01*
X27110Y44178D01*
X27248Y44349D01*
X27310Y44560D01*
X27310Y42733D01*
X27250Y42644D01*
X27145Y42799D01*
X26964Y42921D01*
X26750Y42963D01*
X26584Y42930D01*
X26598Y43000D01*
X26598Y43249D01*
X26598Y43250D01*
X26598Y43250D01*
X26571Y43383D01*
X26496Y43496D01*
X26496Y43496D01*
X25996Y43996D01*
X25893Y44064D01*
X25964Y44078D01*
X26145Y44200D01*
X26249Y44355D01*
X26251Y44349D01*
X26389Y44178D01*
X26581Y44073D01*
X26613Y44066D01*
X26700Y44115D01*
X26700Y44700D01*
X26692Y44700D01*
X26692Y44800D01*
X26700Y44800D01*
X26700Y44807D01*
X26800Y44807D01*
X26800Y44800D01*
X27310Y44800D01*
X27310Y44940D01*
X27248Y45150D01*
X27110Y45321D01*
X26963Y45401D01*
X27355Y45401D01*
X29753Y43003D01*
X29753Y43003D01*
X29840Y42945D01*
G54D10*
G36*
X32401Y36831D02*
X32354Y36799D01*
X32250Y36644D01*
X32145Y36799D01*
X31964Y36921D01*
X31750Y36963D01*
X31535Y36921D01*
X31354Y36799D01*
X31250Y36644D01*
X31145Y36799D01*
X30964Y36921D01*
X30750Y36963D01*
X30535Y36921D01*
X30354Y36799D01*
X30250Y36644D01*
X30145Y36799D01*
X29964Y36921D01*
X29750Y36963D01*
X29535Y36921D01*
X29354Y36799D01*
X29250Y36644D01*
X29145Y36799D01*
X28964Y36921D01*
X28750Y36963D01*
X28584Y36930D01*
X28598Y37000D01*
X28598Y37249D01*
X28598Y37250D01*
X28598Y37250D01*
X28571Y37383D01*
X28496Y37496D01*
X28496Y37496D01*
X27996Y37996D01*
X27883Y38071D01*
X27861Y38076D01*
X27750Y38098D01*
X27749Y38098D01*
X25500Y38098D01*
X25499Y38098D01*
X25366Y38071D01*
X25253Y37996D01*
X25253Y37996D01*
X24598Y37341D01*
X24598Y37605D01*
X25697Y38704D01*
X25857Y38704D01*
X26058Y38787D01*
X26211Y38940D01*
X26295Y39141D01*
X26295Y39357D01*
X26212Y39558D01*
X26059Y39711D01*
X25858Y39795D01*
X25642Y39795D01*
X25441Y39712D01*
X25288Y39559D01*
X25204Y39358D01*
X25204Y39197D01*
X24003Y37996D01*
X23928Y37883D01*
X23923Y37861D01*
X23901Y37750D01*
X23901Y37749D01*
X23901Y37000D01*
X23915Y36930D01*
X23750Y36963D01*
X23535Y36921D01*
X23354Y36799D01*
X23250Y36644D01*
X23145Y36799D01*
X23098Y36831D01*
X23098Y37250D01*
X23071Y37383D01*
X22996Y37496D01*
X22996Y37496D01*
X22746Y37746D01*
X22633Y37821D01*
X22611Y37826D01*
X22500Y37848D01*
X22499Y37848D01*
X17500Y37848D01*
X17366Y37821D01*
X17253Y37746D01*
X17253Y37746D01*
X15855Y36348D01*
X15667Y36348D01*
X15680Y36353D01*
X15895Y36567D01*
X16011Y36847D01*
X16011Y37150D01*
X15896Y37430D01*
X15682Y37645D01*
X15402Y37761D01*
X15310Y37761D01*
X15310Y39060D01*
X15310Y39200D01*
X14800Y39200D01*
X14800Y38615D01*
X14886Y38566D01*
X14918Y38573D01*
X15110Y38678D01*
X15248Y38849D01*
X15310Y39060D01*
X15310Y37761D01*
X15099Y37761D01*
X14819Y37646D01*
X14604Y37432D01*
X14488Y37152D01*
X14488Y36849D01*
X14603Y36569D01*
X14817Y36354D01*
X14832Y36348D01*
X13750Y36348D01*
X13750Y36348D01*
X13616Y36321D01*
X13503Y36246D01*
X13503Y36246D01*
X11003Y33746D01*
X10928Y33633D01*
X10923Y33611D01*
X10901Y33500D01*
X10901Y33499D01*
X10901Y32394D01*
X9253Y30746D01*
X9178Y30633D01*
X9173Y30611D01*
X9151Y30500D01*
X9151Y30499D01*
X9151Y29500D01*
X9165Y29430D01*
X9000Y29463D01*
X8785Y29421D01*
X8604Y29299D01*
X8500Y29144D01*
X8395Y29299D01*
X8214Y29421D01*
X8000Y29463D01*
X7785Y29421D01*
X7604Y29299D01*
X7500Y29144D01*
X7395Y29299D01*
X7348Y29331D01*
X7348Y29855D01*
X7894Y30401D01*
X8749Y30401D01*
X8750Y30401D01*
X8750Y30401D01*
X8861Y30423D01*
X8883Y30428D01*
X8883Y30428D01*
X8996Y30503D01*
X10496Y32003D01*
X10496Y32003D01*
X10496Y32003D01*
X10571Y32116D01*
X10598Y32250D01*
X10598Y35582D01*
X10603Y35569D01*
X10817Y35354D01*
X11097Y35238D01*
X11400Y35238D01*
X11680Y35353D01*
X11895Y35567D01*
X12011Y35847D01*
X12011Y36150D01*
X11896Y36430D01*
X11682Y36645D01*
X11402Y36761D01*
X11099Y36761D01*
X10819Y36646D01*
X10604Y36432D01*
X10598Y36417D01*
X10598Y38605D01*
X10894Y38901D01*
X11189Y38901D01*
X11189Y38750D01*
X11227Y38658D01*
X11298Y38588D01*
X11390Y38550D01*
X11489Y38549D01*
X12109Y38549D01*
X12201Y38587D01*
X12271Y38658D01*
X12309Y38750D01*
X12309Y38766D01*
X12354Y38700D01*
X12535Y38578D01*
X12750Y38536D01*
X12964Y38578D01*
X13145Y38700D01*
X13250Y38855D01*
X13354Y38700D01*
X13535Y38578D01*
X13750Y38536D01*
X13964Y38578D01*
X14145Y38700D01*
X14249Y38855D01*
X14251Y38849D01*
X14389Y38678D01*
X14581Y38573D01*
X14613Y38566D01*
X14700Y38615D01*
X14700Y39200D01*
X14692Y39200D01*
X14692Y39300D01*
X14700Y39300D01*
X14700Y39307D01*
X14800Y39307D01*
X14800Y39300D01*
X15310Y39300D01*
X15310Y39440D01*
X15248Y39650D01*
X15110Y39821D01*
X14963Y39901D01*
X15355Y39901D01*
X15901Y39355D01*
X15901Y38922D01*
X15788Y38809D01*
X15704Y38608D01*
X15704Y38392D01*
X15787Y38191D01*
X15940Y38038D01*
X16141Y37954D01*
X16357Y37954D01*
X16558Y38037D01*
X16711Y38190D01*
X16795Y38391D01*
X16795Y38607D01*
X16712Y38808D01*
X16598Y38922D01*
X16598Y39500D01*
X16598Y39500D01*
X16598Y39500D01*
X16571Y39633D01*
X16496Y39746D01*
X16496Y39746D01*
X15746Y40496D01*
X15633Y40571D01*
X15611Y40576D01*
X15500Y40598D01*
X15499Y40598D01*
X14000Y40598D01*
X13866Y40571D01*
X13753Y40496D01*
X13753Y40496D01*
X13503Y40246D01*
X13428Y40133D01*
X13423Y40111D01*
X13401Y40000D01*
X13401Y39999D01*
X13401Y39831D01*
X13354Y39799D01*
X13250Y39644D01*
X13145Y39799D01*
X12964Y39921D01*
X12750Y39963D01*
X12535Y39921D01*
X12354Y39799D01*
X12310Y39733D01*
X12310Y39749D01*
X12272Y39841D01*
X12201Y39911D01*
X12109Y39949D01*
X12010Y39950D01*
X11390Y39950D01*
X11298Y39912D01*
X11228Y39841D01*
X11190Y39749D01*
X11189Y39650D01*
X11189Y39598D01*
X10750Y39598D01*
X10750Y39598D01*
X10616Y39571D01*
X10503Y39496D01*
X10503Y39496D01*
X10098Y39091D01*
X10098Y42355D01*
X10401Y42658D01*
X10401Y41750D01*
X10401Y41750D01*
X10423Y41638D01*
X10428Y41616D01*
X10503Y41503D01*
X11003Y41003D01*
X11003Y41003D01*
X11116Y40928D01*
X11250Y40901D01*
X11250Y40901D01*
X11250Y40901D01*
X17472Y40901D01*
X17454Y40858D01*
X17454Y40642D01*
X17537Y40441D01*
X17603Y40375D01*
X17538Y40309D01*
X17454Y40108D01*
X17454Y39892D01*
X17537Y39691D01*
X17690Y39538D01*
X17891Y39454D01*
X18107Y39454D01*
X18308Y39537D01*
X18422Y39651D01*
X18630Y39651D01*
X18538Y39559D01*
X18454Y39358D01*
X18454Y39142D01*
X18522Y38977D01*
X18358Y39045D01*
X18142Y39045D01*
X17941Y38962D01*
X17788Y38809D01*
X17704Y38608D01*
X17704Y38392D01*
X17787Y38191D01*
X17940Y38038D01*
X18141Y37954D01*
X18357Y37954D01*
X18558Y38037D01*
X18672Y38151D01*
X22749Y38151D01*
X22750Y38151D01*
X22750Y38151D01*
X22861Y38173D01*
X22883Y38178D01*
X22883Y38178D01*
X22996Y38253D01*
X23496Y38753D01*
X23496Y38753D01*
X23496Y38753D01*
X23571Y38866D01*
X23598Y39000D01*
X23598Y39000D01*
X23598Y39000D01*
X23598Y39355D01*
X24644Y40401D01*
X26722Y40401D01*
X26704Y40358D01*
X26704Y40142D01*
X26787Y39941D01*
X26901Y39827D01*
X26901Y39172D01*
X26788Y39059D01*
X26704Y38858D01*
X26704Y38642D01*
X26787Y38441D01*
X26940Y38288D01*
X27141Y38204D01*
X27357Y38204D01*
X27558Y38287D01*
X27711Y38440D01*
X27795Y38641D01*
X27795Y38857D01*
X27712Y39058D01*
X27598Y39172D01*
X27598Y39827D01*
X27711Y39940D01*
X27795Y40141D01*
X27795Y40357D01*
X27777Y40401D01*
X30630Y40401D01*
X30577Y40348D01*
X30500Y40348D01*
X30366Y40321D01*
X30253Y40246D01*
X30253Y40246D01*
X29253Y39246D01*
X29178Y39133D01*
X29173Y39111D01*
X29151Y39000D01*
X29151Y38999D01*
X29151Y38172D01*
X29038Y38059D01*
X28954Y37858D01*
X28954Y37642D01*
X29037Y37441D01*
X29190Y37288D01*
X29391Y37204D01*
X29607Y37204D01*
X29808Y37287D01*
X29961Y37440D01*
X30045Y37641D01*
X30045Y37857D01*
X29962Y38058D01*
X29848Y38172D01*
X29848Y38855D01*
X30610Y39618D01*
X30690Y39538D01*
X30891Y39454D01*
X31107Y39454D01*
X31308Y39537D01*
X31461Y39690D01*
X31545Y39891D01*
X31545Y40107D01*
X31462Y40308D01*
X31309Y40461D01*
X31232Y40494D01*
X31246Y40503D01*
X31901Y41158D01*
X31901Y38750D01*
X31901Y38750D01*
X31923Y38638D01*
X31928Y38616D01*
X32003Y38503D01*
X32401Y38105D01*
X32401Y36831D01*
X32401Y36831D01*
G37*
G54D45*
X32401Y36831D02*
X32354Y36799D01*
X32250Y36644D01*
X32145Y36799D01*
X31964Y36921D01*
X31750Y36963D01*
X31535Y36921D01*
X31354Y36799D01*
X31250Y36644D01*
X31145Y36799D01*
X30964Y36921D01*
X30750Y36963D01*
X30535Y36921D01*
X30354Y36799D01*
X30250Y36644D01*
X30145Y36799D01*
X29964Y36921D01*
X29750Y36963D01*
X29535Y36921D01*
X29354Y36799D01*
X29250Y36644D01*
X29145Y36799D01*
X28964Y36921D01*
X28750Y36963D01*
X28584Y36930D01*
X28598Y37000D01*
X28598Y37249D01*
X28598Y37250D01*
X28598Y37250D01*
X28571Y37383D01*
X28496Y37496D01*
X28496Y37496D01*
X27996Y37996D01*
X27883Y38071D01*
X27861Y38076D01*
X27750Y38098D01*
X27749Y38098D01*
X25500Y38098D01*
X25499Y38098D01*
X25366Y38071D01*
X25253Y37996D01*
X25253Y37996D01*
X24598Y37341D01*
X24598Y37605D01*
X25697Y38704D01*
X25857Y38704D01*
X26058Y38787D01*
X26211Y38940D01*
X26295Y39141D01*
X26295Y39357D01*
X26212Y39558D01*
X26059Y39711D01*
X25858Y39795D01*
X25642Y39795D01*
X25441Y39712D01*
X25288Y39559D01*
X25204Y39358D01*
X25204Y39197D01*
X24003Y37996D01*
X23928Y37883D01*
X23923Y37861D01*
X23901Y37750D01*
X23901Y37749D01*
X23901Y37000D01*
X23915Y36930D01*
X23750Y36963D01*
X23535Y36921D01*
X23354Y36799D01*
X23250Y36644D01*
X23145Y36799D01*
X23098Y36831D01*
X23098Y37250D01*
X23071Y37383D01*
X22996Y37496D01*
X22996Y37496D01*
X22746Y37746D01*
X22633Y37821D01*
X22611Y37826D01*
X22500Y37848D01*
X22499Y37848D01*
X17500Y37848D01*
X17366Y37821D01*
X17253Y37746D01*
X17253Y37746D01*
X15855Y36348D01*
X15667Y36348D01*
X15680Y36353D01*
X15895Y36567D01*
X16011Y36847D01*
X16011Y37150D01*
X15896Y37430D01*
X15682Y37645D01*
X15402Y37761D01*
X15310Y37761D01*
X15310Y39060D01*
X15310Y39200D01*
X14800Y39200D01*
X14800Y38615D01*
X14886Y38566D01*
X14918Y38573D01*
X15110Y38678D01*
X15248Y38849D01*
X15310Y39060D01*
X15310Y37761D01*
X15099Y37761D01*
X14819Y37646D01*
X14604Y37432D01*
X14488Y37152D01*
X14488Y36849D01*
X14603Y36569D01*
X14817Y36354D01*
X14832Y36348D01*
X13750Y36348D01*
X13750Y36348D01*
X13616Y36321D01*
X13503Y36246D01*
X13503Y36246D01*
X11003Y33746D01*
X10928Y33633D01*
X10923Y33611D01*
X10901Y33500D01*
X10901Y33499D01*
X10901Y32394D01*
X9253Y30746D01*
X9178Y30633D01*
X9173Y30611D01*
X9151Y30500D01*
X9151Y30499D01*
X9151Y29500D01*
X9165Y29430D01*
X9000Y29463D01*
X8785Y29421D01*
X8604Y29299D01*
X8500Y29144D01*
X8395Y29299D01*
X8214Y29421D01*
X8000Y29463D01*
X7785Y29421D01*
X7604Y29299D01*
X7500Y29144D01*
X7395Y29299D01*
X7348Y29331D01*
X7348Y29855D01*
X7894Y30401D01*
X8749Y30401D01*
X8750Y30401D01*
X8750Y30401D01*
X8861Y30423D01*
X8883Y30428D01*
X8883Y30428D01*
X8996Y30503D01*
X10496Y32003D01*
X10496Y32003D01*
X10496Y32003D01*
X10571Y32116D01*
X10598Y32250D01*
X10598Y35582D01*
X10603Y35569D01*
X10817Y35354D01*
X11097Y35238D01*
X11400Y35238D01*
X11680Y35353D01*
X11895Y35567D01*
X12011Y35847D01*
X12011Y36150D01*
X11896Y36430D01*
X11682Y36645D01*
X11402Y36761D01*
X11099Y36761D01*
X10819Y36646D01*
X10604Y36432D01*
X10598Y36417D01*
X10598Y38605D01*
X10894Y38901D01*
X11189Y38901D01*
X11189Y38750D01*
X11227Y38658D01*
X11298Y38588D01*
X11390Y38550D01*
X11489Y38549D01*
X12109Y38549D01*
X12201Y38587D01*
X12271Y38658D01*
X12309Y38750D01*
X12309Y38766D01*
X12354Y38700D01*
X12535Y38578D01*
X12750Y38536D01*
X12964Y38578D01*
X13145Y38700D01*
X13250Y38855D01*
X13354Y38700D01*
X13535Y38578D01*
X13750Y38536D01*
X13964Y38578D01*
X14145Y38700D01*
X14249Y38855D01*
X14251Y38849D01*
X14389Y38678D01*
X14581Y38573D01*
X14613Y38566D01*
X14700Y38615D01*
X14700Y39200D01*
X14692Y39200D01*
X14692Y39300D01*
X14700Y39300D01*
X14700Y39307D01*
X14800Y39307D01*
X14800Y39300D01*
X15310Y39300D01*
X15310Y39440D01*
X15248Y39650D01*
X15110Y39821D01*
X14963Y39901D01*
X15355Y39901D01*
X15901Y39355D01*
X15901Y38922D01*
X15788Y38809D01*
X15704Y38608D01*
X15704Y38392D01*
X15787Y38191D01*
X15940Y38038D01*
X16141Y37954D01*
X16357Y37954D01*
X16558Y38037D01*
X16711Y38190D01*
X16795Y38391D01*
X16795Y38607D01*
X16712Y38808D01*
X16598Y38922D01*
X16598Y39500D01*
X16598Y39500D01*
X16598Y39500D01*
X16571Y39633D01*
X16496Y39746D01*
X16496Y39746D01*
X15746Y40496D01*
X15633Y40571D01*
X15611Y40576D01*
X15500Y40598D01*
X15499Y40598D01*
X14000Y40598D01*
X13866Y40571D01*
X13753Y40496D01*
X13753Y40496D01*
X13503Y40246D01*
X13428Y40133D01*
X13423Y40111D01*
X13401Y40000D01*
X13401Y39999D01*
X13401Y39831D01*
X13354Y39799D01*
X13250Y39644D01*
X13145Y39799D01*
X12964Y39921D01*
X12750Y39963D01*
X12535Y39921D01*
X12354Y39799D01*
X12310Y39733D01*
X12310Y39749D01*
X12272Y39841D01*
X12201Y39911D01*
X12109Y39949D01*
X12010Y39950D01*
X11390Y39950D01*
X11298Y39912D01*
X11228Y39841D01*
X11190Y39749D01*
X11189Y39650D01*
X11189Y39598D01*
X10750Y39598D01*
X10750Y39598D01*
X10616Y39571D01*
X10503Y39496D01*
X10503Y39496D01*
X10098Y39091D01*
X10098Y42355D01*
X10401Y42658D01*
X10401Y41750D01*
X10401Y41750D01*
X10423Y41638D01*
X10428Y41616D01*
X10503Y41503D01*
X11003Y41003D01*
X11003Y41003D01*
X11116Y40928D01*
X11250Y40901D01*
X11250Y40901D01*
X11250Y40901D01*
X17472Y40901D01*
X17454Y40858D01*
X17454Y40642D01*
X17537Y40441D01*
X17603Y40375D01*
X17538Y40309D01*
X17454Y40108D01*
X17454Y39892D01*
X17537Y39691D01*
X17690Y39538D01*
X17891Y39454D01*
X18107Y39454D01*
X18308Y39537D01*
X18422Y39651D01*
X18630Y39651D01*
X18538Y39559D01*
X18454Y39358D01*
X18454Y39142D01*
X18522Y38977D01*
X18358Y39045D01*
X18142Y39045D01*
X17941Y38962D01*
X17788Y38809D01*
X17704Y38608D01*
X17704Y38392D01*
X17787Y38191D01*
X17940Y38038D01*
X18141Y37954D01*
X18357Y37954D01*
X18558Y38037D01*
X18672Y38151D01*
X22749Y38151D01*
X22750Y38151D01*
X22750Y38151D01*
X22861Y38173D01*
X22883Y38178D01*
X22883Y38178D01*
X22996Y38253D01*
X23496Y38753D01*
X23496Y38753D01*
X23496Y38753D01*
X23571Y38866D01*
X23598Y39000D01*
X23598Y39000D01*
X23598Y39000D01*
X23598Y39355D01*
X24644Y40401D01*
X26722Y40401D01*
X26704Y40358D01*
X26704Y40142D01*
X26787Y39941D01*
X26901Y39827D01*
X26901Y39172D01*
X26788Y39059D01*
X26704Y38858D01*
X26704Y38642D01*
X26787Y38441D01*
X26940Y38288D01*
X27141Y38204D01*
X27357Y38204D01*
X27558Y38287D01*
X27711Y38440D01*
X27795Y38641D01*
X27795Y38857D01*
X27712Y39058D01*
X27598Y39172D01*
X27598Y39827D01*
X27711Y39940D01*
X27795Y40141D01*
X27795Y40357D01*
X27777Y40401D01*
X30630Y40401D01*
X30577Y40348D01*
X30500Y40348D01*
X30366Y40321D01*
X30253Y40246D01*
X30253Y40246D01*
X29253Y39246D01*
X29178Y39133D01*
X29173Y39111D01*
X29151Y39000D01*
X29151Y38999D01*
X29151Y38172D01*
X29038Y38059D01*
X28954Y37858D01*
X28954Y37642D01*
X29037Y37441D01*
X29190Y37288D01*
X29391Y37204D01*
X29607Y37204D01*
X29808Y37287D01*
X29961Y37440D01*
X30045Y37641D01*
X30045Y37857D01*
X29962Y38058D01*
X29848Y38172D01*
X29848Y38855D01*
X30610Y39618D01*
X30690Y39538D01*
X30891Y39454D01*
X31107Y39454D01*
X31308Y39537D01*
X31461Y39690D01*
X31545Y39891D01*
X31545Y40107D01*
X31462Y40308D01*
X31309Y40461D01*
X31232Y40494D01*
X31246Y40503D01*
X31901Y41158D01*
X31901Y38750D01*
X31901Y38750D01*
X31923Y38638D01*
X31928Y38616D01*
X32003Y38503D01*
X32401Y38105D01*
X32401Y36831D01*
G54D10*
G36*
X35901Y13041D02*
X35895Y13049D01*
X35802Y13111D01*
X35802Y13111D01*
X35746Y13196D01*
X35746Y13196D01*
X34996Y13946D01*
X34883Y14021D01*
X34861Y14026D01*
X34750Y14048D01*
X34749Y14048D01*
X34594Y14048D01*
X33496Y15146D01*
X33496Y15146D01*
X33265Y15377D01*
X33376Y15320D01*
X33403Y15314D01*
X33500Y15361D01*
X33500Y15950D01*
X33500Y16050D01*
X33500Y16638D01*
X33403Y16685D01*
X33376Y16679D01*
X33159Y16567D01*
X33001Y16380D01*
X32928Y16148D01*
X32987Y16050D01*
X33500Y16050D01*
X33500Y15950D01*
X32987Y15950D01*
X32928Y15851D01*
X32991Y15650D01*
X31596Y17046D01*
X31483Y17121D01*
X31461Y17126D01*
X31350Y17148D01*
X31349Y17148D01*
X24994Y17148D01*
X24646Y17496D01*
X24568Y17548D01*
X24716Y17578D01*
X24899Y17700D01*
X25000Y17850D01*
X25100Y17700D01*
X25283Y17578D01*
X25500Y17535D01*
X25716Y17578D01*
X25899Y17700D01*
X26000Y17850D01*
X26100Y17700D01*
X26283Y17578D01*
X26500Y17535D01*
X26716Y17578D01*
X26899Y17700D01*
X27000Y17850D01*
X27100Y17700D01*
X27283Y17578D01*
X27500Y17535D01*
X27716Y17578D01*
X27899Y17700D01*
X28000Y17850D01*
X28100Y17700D01*
X28283Y17578D01*
X28500Y17535D01*
X28716Y17578D01*
X28899Y17700D01*
X29000Y17850D01*
X29100Y17700D01*
X29283Y17578D01*
X29500Y17535D01*
X29716Y17578D01*
X29899Y17700D01*
X30002Y17854D01*
X30013Y17824D01*
X30160Y17660D01*
X30359Y17564D01*
X30362Y17564D01*
X30450Y17612D01*
X30450Y18068D01*
X30550Y18070D01*
X30550Y17612D01*
X30637Y17564D01*
X30640Y17564D01*
X30839Y17660D01*
X30986Y17824D01*
X30997Y17854D01*
X31100Y17700D01*
X31283Y17578D01*
X31500Y17535D01*
X31716Y17578D01*
X31899Y17700D01*
X32000Y17850D01*
X32100Y17700D01*
X32283Y17578D01*
X32500Y17535D01*
X32716Y17578D01*
X32899Y17700D01*
X33000Y17850D01*
X33100Y17700D01*
X33283Y17578D01*
X33500Y17535D01*
X33716Y17578D01*
X33899Y17700D01*
X34021Y17883D01*
X34064Y18099D01*
X34064Y18122D01*
X34133Y18123D01*
X34201Y18055D01*
X34201Y16595D01*
X34108Y16533D01*
X34047Y16441D01*
X33940Y16567D01*
X33723Y16679D01*
X33696Y16685D01*
X33600Y16638D01*
X33600Y16050D01*
X33607Y16050D01*
X33607Y15950D01*
X33600Y15950D01*
X33600Y15361D01*
X33696Y15314D01*
X33723Y15320D01*
X33940Y15432D01*
X34047Y15558D01*
X34108Y15466D01*
X34311Y15330D01*
X34550Y15283D01*
X34788Y15330D01*
X34991Y15466D01*
X35126Y15668D01*
X35161Y15845D01*
X35901Y15105D01*
X35901Y13041D01*
X35901Y13041D01*
G37*
G54D45*
X35901Y13041D02*
X35895Y13049D01*
X35802Y13111D01*
X35802Y13111D01*
X35746Y13196D01*
X35746Y13196D01*
X34996Y13946D01*
X34883Y14021D01*
X34861Y14026D01*
X34750Y14048D01*
X34749Y14048D01*
X34594Y14048D01*
X33496Y15146D01*
X33496Y15146D01*
X33265Y15377D01*
X33376Y15320D01*
X33403Y15314D01*
X33500Y15361D01*
X33500Y15950D01*
X33500Y16050D01*
X33500Y16638D01*
X33403Y16685D01*
X33376Y16679D01*
X33159Y16567D01*
X33001Y16380D01*
X32928Y16148D01*
X32987Y16050D01*
X33500Y16050D01*
X33500Y15950D01*
X32987Y15950D01*
X32928Y15851D01*
X32991Y15650D01*
X31596Y17046D01*
X31483Y17121D01*
X31461Y17126D01*
X31350Y17148D01*
X31349Y17148D01*
X24994Y17148D01*
X24646Y17496D01*
X24568Y17548D01*
X24716Y17578D01*
X24899Y17700D01*
X25000Y17850D01*
X25100Y17700D01*
X25283Y17578D01*
X25500Y17535D01*
X25716Y17578D01*
X25899Y17700D01*
X26000Y17850D01*
X26100Y17700D01*
X26283Y17578D01*
X26500Y17535D01*
X26716Y17578D01*
X26899Y17700D01*
X27000Y17850D01*
X27100Y17700D01*
X27283Y17578D01*
X27500Y17535D01*
X27716Y17578D01*
X27899Y17700D01*
X28000Y17850D01*
X28100Y17700D01*
X28283Y17578D01*
X28500Y17535D01*
X28716Y17578D01*
X28899Y17700D01*
X29000Y17850D01*
X29100Y17700D01*
X29283Y17578D01*
X29500Y17535D01*
X29716Y17578D01*
X29899Y17700D01*
X30002Y17854D01*
X30013Y17824D01*
X30160Y17660D01*
X30359Y17564D01*
X30362Y17564D01*
X30450Y17612D01*
X30450Y18068D01*
X30550Y18070D01*
X30550Y17612D01*
X30637Y17564D01*
X30640Y17564D01*
X30839Y17660D01*
X30986Y17824D01*
X30997Y17854D01*
X31100Y17700D01*
X31283Y17578D01*
X31500Y17535D01*
X31716Y17578D01*
X31899Y17700D01*
X32000Y17850D01*
X32100Y17700D01*
X32283Y17578D01*
X32500Y17535D01*
X32716Y17578D01*
X32899Y17700D01*
X33000Y17850D01*
X33100Y17700D01*
X33283Y17578D01*
X33500Y17535D01*
X33716Y17578D01*
X33899Y17700D01*
X34021Y17883D01*
X34064Y18099D01*
X34064Y18122D01*
X34133Y18123D01*
X34201Y18055D01*
X34201Y16595D01*
X34108Y16533D01*
X34047Y16441D01*
X33940Y16567D01*
X33723Y16679D01*
X33696Y16685D01*
X33600Y16638D01*
X33600Y16050D01*
X33607Y16050D01*
X33607Y15950D01*
X33600Y15950D01*
X33600Y15361D01*
X33696Y15314D01*
X33723Y15320D01*
X33940Y15432D01*
X34047Y15558D01*
X34108Y15466D01*
X34311Y15330D01*
X34550Y15283D01*
X34788Y15330D01*
X34991Y15466D01*
X35126Y15668D01*
X35161Y15845D01*
X35901Y15105D01*
X35901Y13041D01*
G54D10*
G36*
X37401Y8644D02*
X37091Y8334D01*
X36884Y8334D01*
X36669Y8245D01*
X36504Y8081D01*
X36415Y7866D01*
X36415Y7634D01*
X36504Y7419D01*
X36651Y7271D01*
X36651Y7144D01*
X36355Y6848D01*
X35841Y6848D01*
X35996Y7003D01*
X35996Y7003D01*
X35996Y7003D01*
X36071Y7116D01*
X36098Y7250D01*
X36098Y7271D01*
X36245Y7418D01*
X36334Y7633D01*
X36334Y7865D01*
X36245Y8080D01*
X36081Y8245D01*
X36060Y8254D01*
X36060Y9310D01*
X36060Y9450D01*
X35550Y9450D01*
X35550Y8865D01*
X35636Y8816D01*
X35668Y8823D01*
X35860Y8928D01*
X35998Y9099D01*
X36060Y9310D01*
X36060Y8254D01*
X35866Y8334D01*
X35634Y8334D01*
X35419Y8245D01*
X35254Y8081D01*
X35165Y7866D01*
X35165Y7634D01*
X35254Y7419D01*
X35324Y7348D01*
X34925Y7348D01*
X34995Y7418D01*
X35084Y7633D01*
X35084Y7865D01*
X34995Y8080D01*
X34831Y8245D01*
X34616Y8334D01*
X34384Y8334D01*
X34169Y8245D01*
X34004Y8081D01*
X33915Y7866D01*
X33915Y7634D01*
X34004Y7419D01*
X34074Y7348D01*
X29894Y7348D01*
X28996Y8246D01*
X28883Y8321D01*
X28861Y8326D01*
X28750Y8348D01*
X28749Y8348D01*
X23922Y8348D01*
X23810Y8461D01*
X23810Y9310D01*
X23810Y9450D01*
X23300Y9450D01*
X23300Y8865D01*
X23386Y8816D01*
X23418Y8823D01*
X23610Y8928D01*
X23748Y9099D01*
X23810Y9310D01*
X23810Y8461D01*
X23809Y8461D01*
X23608Y8545D01*
X23392Y8545D01*
X23200Y8466D01*
X23200Y8865D01*
X23200Y9450D01*
X23192Y9450D01*
X23192Y9550D01*
X23200Y9550D01*
X23200Y10134D01*
X23113Y10183D01*
X23081Y10176D01*
X22889Y10071D01*
X22751Y9900D01*
X22749Y9894D01*
X22645Y10049D01*
X22464Y10171D01*
X22250Y10213D01*
X22035Y10171D01*
X21854Y10049D01*
X21750Y9894D01*
X21645Y10049D01*
X21464Y10171D01*
X21250Y10213D01*
X21035Y10171D01*
X20854Y10049D01*
X20750Y9894D01*
X20645Y10049D01*
X20464Y10171D01*
X20250Y10213D01*
X20035Y10171D01*
X19854Y10049D01*
X19750Y9894D01*
X19645Y10049D01*
X19464Y10171D01*
X19250Y10213D01*
X19035Y10171D01*
X18854Y10049D01*
X18750Y9894D01*
X18645Y10049D01*
X18464Y10171D01*
X18250Y10213D01*
X18035Y10171D01*
X17854Y10049D01*
X17750Y9894D01*
X17645Y10049D01*
X17464Y10171D01*
X17250Y10213D01*
X17035Y10171D01*
X16854Y10049D01*
X16750Y9894D01*
X16645Y10049D01*
X16464Y10171D01*
X16250Y10213D01*
X16035Y10171D01*
X15854Y10049D01*
X15750Y9894D01*
X15645Y10049D01*
X15464Y10171D01*
X15250Y10213D01*
X15035Y10171D01*
X14854Y10049D01*
X14809Y9983D01*
X14809Y9999D01*
X14771Y10091D01*
X14701Y10162D01*
X14609Y10200D01*
X14362Y10200D01*
X14300Y10137D01*
X14300Y9550D01*
X14307Y9550D01*
X14307Y9450D01*
X14300Y9450D01*
X14300Y8862D01*
X14362Y8800D01*
X14609Y8799D01*
X14701Y8837D01*
X14771Y8908D01*
X14809Y9000D01*
X14809Y9016D01*
X14854Y8950D01*
X15035Y8828D01*
X15250Y8786D01*
X15464Y8828D01*
X15645Y8950D01*
X15750Y9105D01*
X15854Y8950D01*
X16035Y8828D01*
X16250Y8786D01*
X16464Y8828D01*
X16645Y8950D01*
X16750Y9105D01*
X16854Y8950D01*
X17035Y8828D01*
X17250Y8786D01*
X17464Y8828D01*
X17645Y8950D01*
X17750Y9105D01*
X17854Y8950D01*
X18035Y8828D01*
X18250Y8786D01*
X18464Y8828D01*
X18645Y8950D01*
X18750Y9105D01*
X18854Y8950D01*
X19035Y8828D01*
X19250Y8786D01*
X19464Y8828D01*
X19645Y8950D01*
X19750Y9105D01*
X19854Y8950D01*
X20035Y8828D01*
X20250Y8786D01*
X20464Y8828D01*
X20645Y8950D01*
X20750Y9105D01*
X20854Y8950D01*
X21035Y8828D01*
X21250Y8786D01*
X21464Y8828D01*
X21645Y8950D01*
X21750Y9105D01*
X21854Y8950D01*
X22035Y8828D01*
X22250Y8786D01*
X22464Y8828D01*
X22645Y8950D01*
X22749Y9105D01*
X22751Y9099D01*
X22889Y8928D01*
X23081Y8823D01*
X23113Y8816D01*
X23200Y8865D01*
X23200Y8466D01*
X23191Y8462D01*
X23038Y8309D01*
X22954Y8108D01*
X22954Y7892D01*
X22972Y7848D01*
X22894Y7848D01*
X22746Y7996D01*
X22633Y8071D01*
X22611Y8076D01*
X22500Y8098D01*
X22499Y8098D01*
X22422Y8098D01*
X22309Y8211D01*
X22108Y8295D01*
X21892Y8295D01*
X21691Y8212D01*
X21538Y8059D01*
X21454Y7858D01*
X21454Y7642D01*
X21527Y7464D01*
X20746Y8246D01*
X20633Y8321D01*
X20611Y8326D01*
X20500Y8348D01*
X20499Y8348D01*
X14200Y8348D01*
X14200Y8862D01*
X14200Y9450D01*
X14200Y9550D01*
X14200Y10137D01*
X14137Y10200D01*
X13890Y10200D01*
X13798Y10162D01*
X13728Y10091D01*
X13690Y9999D01*
X13689Y9900D01*
X13690Y9612D01*
X13752Y9550D01*
X14200Y9550D01*
X14200Y9450D01*
X13752Y9450D01*
X13690Y9387D01*
X13689Y9099D01*
X13690Y9000D01*
X13728Y8908D01*
X13798Y8837D01*
X13890Y8799D01*
X14137Y8800D01*
X14200Y8862D01*
X14200Y8348D01*
X12869Y8348D01*
X12961Y8440D01*
X13045Y8641D01*
X13045Y8857D01*
X12962Y9058D01*
X12809Y9211D01*
X12608Y9295D01*
X12392Y9295D01*
X12191Y9212D01*
X12038Y9059D01*
X11954Y8858D01*
X11954Y8848D01*
X11213Y8848D01*
X11360Y8928D01*
X11498Y9099D01*
X11560Y9310D01*
X11560Y9450D01*
X11560Y9550D01*
X11560Y9690D01*
X11498Y9900D01*
X11360Y10071D01*
X11168Y10176D01*
X11136Y10183D01*
X11050Y10134D01*
X11050Y9550D01*
X11560Y9550D01*
X11560Y9450D01*
X11050Y9450D01*
X11050Y9442D01*
X10950Y9442D01*
X10950Y9450D01*
X10942Y9450D01*
X10942Y9550D01*
X10950Y9550D01*
X10950Y10134D01*
X10863Y10183D01*
X10831Y10176D01*
X10639Y10071D01*
X10501Y9900D01*
X10499Y9894D01*
X10395Y10049D01*
X10214Y10171D01*
X10000Y10213D01*
X9785Y10171D01*
X9604Y10049D01*
X9500Y9894D01*
X9395Y10049D01*
X9214Y10171D01*
X9000Y10213D01*
X8834Y10180D01*
X8848Y10250D01*
X8821Y10383D01*
X8746Y10496D01*
X8496Y10746D01*
X8383Y10821D01*
X8361Y10826D01*
X8250Y10848D01*
X8249Y10848D01*
X3394Y10848D01*
X2818Y11423D01*
X2818Y11830D01*
X2831Y11823D01*
X2863Y11816D01*
X2950Y11865D01*
X2950Y12450D01*
X2942Y12450D01*
X2942Y12550D01*
X2950Y12550D01*
X2950Y13134D01*
X2863Y13183D01*
X2833Y13176D01*
X2848Y13250D01*
X2848Y16000D01*
X2834Y16069D01*
X3000Y16036D01*
X3165Y16069D01*
X3151Y16000D01*
X3151Y14750D01*
X3151Y14750D01*
X3173Y14638D01*
X3178Y14616D01*
X3253Y14503D01*
X3651Y14105D01*
X3651Y13081D01*
X3604Y13049D01*
X3500Y12894D01*
X3498Y12900D01*
X3360Y13071D01*
X3168Y13176D01*
X3136Y13183D01*
X3050Y13134D01*
X3050Y12550D01*
X3057Y12550D01*
X3057Y12450D01*
X3050Y12450D01*
X3050Y11865D01*
X3136Y11816D01*
X3168Y11823D01*
X3360Y11928D01*
X3498Y12099D01*
X3500Y12105D01*
X3604Y11950D01*
X3785Y11828D01*
X4000Y11786D01*
X4214Y11828D01*
X4395Y11950D01*
X4500Y12105D01*
X4604Y11950D01*
X4785Y11828D01*
X5000Y11786D01*
X5214Y11828D01*
X5395Y11950D01*
X5500Y12105D01*
X5604Y11950D01*
X5785Y11828D01*
X6000Y11786D01*
X6214Y11828D01*
X6395Y11950D01*
X6500Y12105D01*
X6604Y11950D01*
X6785Y11828D01*
X7000Y11786D01*
X7214Y11828D01*
X7395Y11950D01*
X7500Y12105D01*
X7604Y11950D01*
X7785Y11828D01*
X8000Y11786D01*
X8214Y11828D01*
X8395Y11950D01*
X8500Y12105D01*
X8604Y11950D01*
X8785Y11828D01*
X9000Y11786D01*
X9214Y11828D01*
X9395Y11950D01*
X9500Y12105D01*
X9604Y11950D01*
X9785Y11828D01*
X10000Y11786D01*
X10214Y11828D01*
X10395Y11950D01*
X10500Y12105D01*
X10604Y11950D01*
X10785Y11828D01*
X11000Y11786D01*
X11214Y11828D01*
X11395Y11950D01*
X11517Y12131D01*
X11560Y12346D01*
X11560Y12653D01*
X11517Y12868D01*
X11395Y13049D01*
X11214Y13171D01*
X11000Y13213D01*
X10785Y13171D01*
X10604Y13049D01*
X10500Y12894D01*
X10395Y13049D01*
X10348Y13081D01*
X10348Y13249D01*
X10348Y13250D01*
X10348Y13250D01*
X10321Y13383D01*
X10246Y13496D01*
X10246Y13496D01*
X9746Y13996D01*
X9633Y14071D01*
X9611Y14076D01*
X9500Y14098D01*
X9499Y14098D01*
X8644Y14098D01*
X6848Y15894D01*
X6848Y16000D01*
X6834Y16069D01*
X7000Y16036D01*
X7214Y16078D01*
X7395Y16200D01*
X7500Y16355D01*
X7604Y16200D01*
X7785Y16078D01*
X7963Y16043D01*
X8503Y15503D01*
X8503Y15503D01*
X8616Y15428D01*
X8749Y15401D01*
X8749Y15401D01*
X8750Y15401D01*
X11855Y15401D01*
X12753Y14503D01*
X12753Y14503D01*
X12866Y14428D01*
X13000Y14401D01*
X15605Y14401D01*
X16916Y13091D01*
X16854Y13049D01*
X16750Y12894D01*
X16645Y13049D01*
X16464Y13171D01*
X16250Y13213D01*
X16035Y13171D01*
X15854Y13049D01*
X15750Y12894D01*
X15748Y12900D01*
X15610Y13071D01*
X15418Y13176D01*
X15386Y13183D01*
X15300Y13134D01*
X15300Y12550D01*
X15307Y12550D01*
X15307Y12450D01*
X15300Y12450D01*
X15300Y11865D01*
X15386Y11816D01*
X15418Y11823D01*
X15610Y11928D01*
X15748Y12099D01*
X15750Y12105D01*
X15854Y11950D01*
X16035Y11828D01*
X16250Y11786D01*
X16464Y11828D01*
X16645Y11950D01*
X16750Y12105D01*
X16854Y11950D01*
X17035Y11828D01*
X17250Y11786D01*
X17464Y11828D01*
X17645Y11950D01*
X17750Y12105D01*
X17854Y11950D01*
X18035Y11828D01*
X18250Y11786D01*
X18464Y11828D01*
X18645Y11950D01*
X18750Y12105D01*
X18854Y11950D01*
X19035Y11828D01*
X19250Y11786D01*
X19464Y11828D01*
X19645Y11950D01*
X19750Y12105D01*
X19854Y11950D01*
X20035Y11828D01*
X20250Y11786D01*
X20464Y11828D01*
X20645Y11950D01*
X20750Y12105D01*
X20854Y11950D01*
X21035Y11828D01*
X21250Y11786D01*
X21464Y11828D01*
X21645Y11950D01*
X21750Y12105D01*
X21854Y11950D01*
X22035Y11828D01*
X22250Y11786D01*
X22281Y11792D01*
X22204Y11608D01*
X22204Y11392D01*
X22287Y11191D01*
X22321Y11157D01*
X15418Y11157D01*
X14657Y11918D01*
X14657Y11967D01*
X14749Y12105D01*
X14751Y12099D01*
X14889Y11928D01*
X15081Y11823D01*
X15113Y11816D01*
X15200Y11865D01*
X15200Y12450D01*
X15192Y12450D01*
X15192Y12550D01*
X15200Y12550D01*
X15200Y13134D01*
X15113Y13183D01*
X15081Y13176D01*
X14889Y13071D01*
X14751Y12900D01*
X14749Y12894D01*
X14645Y13049D01*
X14464Y13171D01*
X14250Y13213D01*
X14035Y13171D01*
X13854Y13049D01*
X13732Y12868D01*
X13690Y12653D01*
X13690Y12346D01*
X13732Y12131D01*
X13842Y11967D01*
X13842Y11750D01*
X13842Y11750D01*
X13873Y11594D01*
X13961Y11461D01*
X14961Y10461D01*
X14961Y10461D01*
X15041Y10408D01*
X15094Y10373D01*
X15094Y10373D01*
X15250Y10342D01*
X23331Y10342D01*
X23592Y10081D01*
X23418Y10176D01*
X23386Y10183D01*
X23300Y10134D01*
X23300Y9550D01*
X23810Y9550D01*
X23810Y9690D01*
X23748Y9900D01*
X23644Y10029D01*
X23961Y9711D01*
X23961Y9711D01*
X24094Y9623D01*
X24094Y9623D01*
X24218Y9598D01*
X24249Y9592D01*
X24249Y9592D01*
X24250Y9592D01*
X25499Y9592D01*
X25500Y9592D01*
X25500Y9592D01*
X25655Y9623D01*
X25788Y9711D01*
X25939Y9863D01*
X25939Y9000D01*
X25977Y8908D01*
X26048Y8838D01*
X26140Y8800D01*
X26239Y8799D01*
X26859Y8799D01*
X26951Y8837D01*
X27021Y8908D01*
X27059Y9000D01*
X27059Y9016D01*
X27104Y8950D01*
X27285Y8828D01*
X27500Y8786D01*
X27714Y8828D01*
X27895Y8950D01*
X28000Y9105D01*
X28104Y8950D01*
X28285Y8828D01*
X28500Y8786D01*
X28714Y8828D01*
X28895Y8950D01*
X29000Y9105D01*
X29104Y8950D01*
X29285Y8828D01*
X29500Y8786D01*
X29714Y8828D01*
X29895Y8950D01*
X30000Y9105D01*
X30104Y8950D01*
X30285Y8828D01*
X30500Y8786D01*
X30714Y8828D01*
X30895Y8950D01*
X31000Y9105D01*
X31104Y8950D01*
X31285Y8828D01*
X31500Y8786D01*
X31714Y8828D01*
X31895Y8950D01*
X32000Y9105D01*
X32104Y8950D01*
X32285Y8828D01*
X32500Y8786D01*
X32714Y8828D01*
X32895Y8950D01*
X33000Y9105D01*
X33104Y8950D01*
X33285Y8828D01*
X33500Y8786D01*
X33714Y8828D01*
X33895Y8950D01*
X34000Y9105D01*
X34104Y8950D01*
X34285Y8828D01*
X34500Y8786D01*
X34714Y8828D01*
X34895Y8950D01*
X34999Y9105D01*
X35001Y9099D01*
X35139Y8928D01*
X35331Y8823D01*
X35363Y8816D01*
X35450Y8865D01*
X35450Y9450D01*
X35442Y9450D01*
X35442Y9550D01*
X35450Y9550D01*
X35450Y9557D01*
X35550Y9557D01*
X35550Y9550D01*
X36060Y9550D01*
X36060Y9690D01*
X35998Y9900D01*
X35860Y10071D01*
X35713Y10151D01*
X36499Y10151D01*
X36500Y10151D01*
X36500Y10151D01*
X36611Y10173D01*
X36633Y10178D01*
X36633Y10178D01*
X36746Y10253D01*
X37401Y10908D01*
X37401Y8644D01*
X37401Y8644D01*
G37*
G54D45*
X37401Y8644D02*
X37091Y8334D01*
X36884Y8334D01*
X36669Y8245D01*
X36504Y8081D01*
X36415Y7866D01*
X36415Y7634D01*
X36504Y7419D01*
X36651Y7271D01*
X36651Y7144D01*
X36355Y6848D01*
X35841Y6848D01*
X35996Y7003D01*
X35996Y7003D01*
X35996Y7003D01*
X36071Y7116D01*
X36098Y7250D01*
X36098Y7271D01*
X36245Y7418D01*
X36334Y7633D01*
X36334Y7865D01*
X36245Y8080D01*
X36081Y8245D01*
X36060Y8254D01*
X36060Y9310D01*
X36060Y9450D01*
X35550Y9450D01*
X35550Y8865D01*
X35636Y8816D01*
X35668Y8823D01*
X35860Y8928D01*
X35998Y9099D01*
X36060Y9310D01*
X36060Y8254D01*
X35866Y8334D01*
X35634Y8334D01*
X35419Y8245D01*
X35254Y8081D01*
X35165Y7866D01*
X35165Y7634D01*
X35254Y7419D01*
X35324Y7348D01*
X34925Y7348D01*
X34995Y7418D01*
X35084Y7633D01*
X35084Y7865D01*
X34995Y8080D01*
X34831Y8245D01*
X34616Y8334D01*
X34384Y8334D01*
X34169Y8245D01*
X34004Y8081D01*
X33915Y7866D01*
X33915Y7634D01*
X34004Y7419D01*
X34074Y7348D01*
X29894Y7348D01*
X28996Y8246D01*
X28883Y8321D01*
X28861Y8326D01*
X28750Y8348D01*
X28749Y8348D01*
X23922Y8348D01*
X23810Y8461D01*
X23810Y9310D01*
X23810Y9450D01*
X23300Y9450D01*
X23300Y8865D01*
X23386Y8816D01*
X23418Y8823D01*
X23610Y8928D01*
X23748Y9099D01*
X23810Y9310D01*
X23810Y8461D01*
X23809Y8461D01*
X23608Y8545D01*
X23392Y8545D01*
X23200Y8466D01*
X23200Y8865D01*
X23200Y9450D01*
X23192Y9450D01*
X23192Y9550D01*
X23200Y9550D01*
X23200Y10134D01*
X23113Y10183D01*
X23081Y10176D01*
X22889Y10071D01*
X22751Y9900D01*
X22749Y9894D01*
X22645Y10049D01*
X22464Y10171D01*
X22250Y10213D01*
X22035Y10171D01*
X21854Y10049D01*
X21750Y9894D01*
X21645Y10049D01*
X21464Y10171D01*
X21250Y10213D01*
X21035Y10171D01*
X20854Y10049D01*
X20750Y9894D01*
X20645Y10049D01*
X20464Y10171D01*
X20250Y10213D01*
X20035Y10171D01*
X19854Y10049D01*
X19750Y9894D01*
X19645Y10049D01*
X19464Y10171D01*
X19250Y10213D01*
X19035Y10171D01*
X18854Y10049D01*
X18750Y9894D01*
X18645Y10049D01*
X18464Y10171D01*
X18250Y10213D01*
X18035Y10171D01*
X17854Y10049D01*
X17750Y9894D01*
X17645Y10049D01*
X17464Y10171D01*
X17250Y10213D01*
X17035Y10171D01*
X16854Y10049D01*
X16750Y9894D01*
X16645Y10049D01*
X16464Y10171D01*
X16250Y10213D01*
X16035Y10171D01*
X15854Y10049D01*
X15750Y9894D01*
X15645Y10049D01*
X15464Y10171D01*
X15250Y10213D01*
X15035Y10171D01*
X14854Y10049D01*
X14809Y9983D01*
X14809Y9999D01*
X14771Y10091D01*
X14701Y10162D01*
X14609Y10200D01*
X14362Y10200D01*
X14300Y10137D01*
X14300Y9550D01*
X14307Y9550D01*
X14307Y9450D01*
X14300Y9450D01*
X14300Y8862D01*
X14362Y8800D01*
X14609Y8799D01*
X14701Y8837D01*
X14771Y8908D01*
X14809Y9000D01*
X14809Y9016D01*
X14854Y8950D01*
X15035Y8828D01*
X15250Y8786D01*
X15464Y8828D01*
X15645Y8950D01*
X15750Y9105D01*
X15854Y8950D01*
X16035Y8828D01*
X16250Y8786D01*
X16464Y8828D01*
X16645Y8950D01*
X16750Y9105D01*
X16854Y8950D01*
X17035Y8828D01*
X17250Y8786D01*
X17464Y8828D01*
X17645Y8950D01*
X17750Y9105D01*
X17854Y8950D01*
X18035Y8828D01*
X18250Y8786D01*
X18464Y8828D01*
X18645Y8950D01*
X18750Y9105D01*
X18854Y8950D01*
X19035Y8828D01*
X19250Y8786D01*
X19464Y8828D01*
X19645Y8950D01*
X19750Y9105D01*
X19854Y8950D01*
X20035Y8828D01*
X20250Y8786D01*
X20464Y8828D01*
X20645Y8950D01*
X20750Y9105D01*
X20854Y8950D01*
X21035Y8828D01*
X21250Y8786D01*
X21464Y8828D01*
X21645Y8950D01*
X21750Y9105D01*
X21854Y8950D01*
X22035Y8828D01*
X22250Y8786D01*
X22464Y8828D01*
X22645Y8950D01*
X22749Y9105D01*
X22751Y9099D01*
X22889Y8928D01*
X23081Y8823D01*
X23113Y8816D01*
X23200Y8865D01*
X23200Y8466D01*
X23191Y8462D01*
X23038Y8309D01*
X22954Y8108D01*
X22954Y7892D01*
X22972Y7848D01*
X22894Y7848D01*
X22746Y7996D01*
X22633Y8071D01*
X22611Y8076D01*
X22500Y8098D01*
X22499Y8098D01*
X22422Y8098D01*
X22309Y8211D01*
X22108Y8295D01*
X21892Y8295D01*
X21691Y8212D01*
X21538Y8059D01*
X21454Y7858D01*
X21454Y7642D01*
X21527Y7464D01*
X20746Y8246D01*
X20633Y8321D01*
X20611Y8326D01*
X20500Y8348D01*
X20499Y8348D01*
X14200Y8348D01*
X14200Y8862D01*
X14200Y9450D01*
X14200Y9550D01*
X14200Y10137D01*
X14137Y10200D01*
X13890Y10200D01*
X13798Y10162D01*
X13728Y10091D01*
X13690Y9999D01*
X13689Y9900D01*
X13690Y9612D01*
X13752Y9550D01*
X14200Y9550D01*
X14200Y9450D01*
X13752Y9450D01*
X13690Y9387D01*
X13689Y9099D01*
X13690Y9000D01*
X13728Y8908D01*
X13798Y8837D01*
X13890Y8799D01*
X14137Y8800D01*
X14200Y8862D01*
X14200Y8348D01*
X12869Y8348D01*
X12961Y8440D01*
X13045Y8641D01*
X13045Y8857D01*
X12962Y9058D01*
X12809Y9211D01*
X12608Y9295D01*
X12392Y9295D01*
X12191Y9212D01*
X12038Y9059D01*
X11954Y8858D01*
X11954Y8848D01*
X11213Y8848D01*
X11360Y8928D01*
X11498Y9099D01*
X11560Y9310D01*
X11560Y9450D01*
X11560Y9550D01*
X11560Y9690D01*
X11498Y9900D01*
X11360Y10071D01*
X11168Y10176D01*
X11136Y10183D01*
X11050Y10134D01*
X11050Y9550D01*
X11560Y9550D01*
X11560Y9450D01*
X11050Y9450D01*
X11050Y9442D01*
X10950Y9442D01*
X10950Y9450D01*
X10942Y9450D01*
X10942Y9550D01*
X10950Y9550D01*
X10950Y10134D01*
X10863Y10183D01*
X10831Y10176D01*
X10639Y10071D01*
X10501Y9900D01*
X10499Y9894D01*
X10395Y10049D01*
X10214Y10171D01*
X10000Y10213D01*
X9785Y10171D01*
X9604Y10049D01*
X9500Y9894D01*
X9395Y10049D01*
X9214Y10171D01*
X9000Y10213D01*
X8834Y10180D01*
X8848Y10250D01*
X8821Y10383D01*
X8746Y10496D01*
X8496Y10746D01*
X8383Y10821D01*
X8361Y10826D01*
X8250Y10848D01*
X8249Y10848D01*
X3394Y10848D01*
X2818Y11423D01*
X2818Y11830D01*
X2831Y11823D01*
X2863Y11816D01*
X2950Y11865D01*
X2950Y12450D01*
X2942Y12450D01*
X2942Y12550D01*
X2950Y12550D01*
X2950Y13134D01*
X2863Y13183D01*
X2833Y13176D01*
X2848Y13250D01*
X2848Y16000D01*
X2834Y16069D01*
X3000Y16036D01*
X3165Y16069D01*
X3151Y16000D01*
X3151Y14750D01*
X3151Y14750D01*
X3173Y14638D01*
X3178Y14616D01*
X3253Y14503D01*
X3651Y14105D01*
X3651Y13081D01*
X3604Y13049D01*
X3500Y12894D01*
X3498Y12900D01*
X3360Y13071D01*
X3168Y13176D01*
X3136Y13183D01*
X3050Y13134D01*
X3050Y12550D01*
X3057Y12550D01*
X3057Y12450D01*
X3050Y12450D01*
X3050Y11865D01*
X3136Y11816D01*
X3168Y11823D01*
X3360Y11928D01*
X3498Y12099D01*
X3500Y12105D01*
X3604Y11950D01*
X3785Y11828D01*
X4000Y11786D01*
X4214Y11828D01*
X4395Y11950D01*
X4500Y12105D01*
X4604Y11950D01*
X4785Y11828D01*
X5000Y11786D01*
X5214Y11828D01*
X5395Y11950D01*
X5500Y12105D01*
X5604Y11950D01*
X5785Y11828D01*
X6000Y11786D01*
X6214Y11828D01*
X6395Y11950D01*
X6500Y12105D01*
X6604Y11950D01*
X6785Y11828D01*
X7000Y11786D01*
X7214Y11828D01*
X7395Y11950D01*
X7500Y12105D01*
X7604Y11950D01*
X7785Y11828D01*
X8000Y11786D01*
X8214Y11828D01*
X8395Y11950D01*
X8500Y12105D01*
X8604Y11950D01*
X8785Y11828D01*
X9000Y11786D01*
X9214Y11828D01*
X9395Y11950D01*
X9500Y12105D01*
X9604Y11950D01*
X9785Y11828D01*
X10000Y11786D01*
X10214Y11828D01*
X10395Y11950D01*
X10500Y12105D01*
X10604Y11950D01*
X10785Y11828D01*
X11000Y11786D01*
X11214Y11828D01*
X11395Y11950D01*
X11517Y12131D01*
X11560Y12346D01*
X11560Y12653D01*
X11517Y12868D01*
X11395Y13049D01*
X11214Y13171D01*
X11000Y13213D01*
X10785Y13171D01*
X10604Y13049D01*
X10500Y12894D01*
X10395Y13049D01*
X10348Y13081D01*
X10348Y13249D01*
X10348Y13250D01*
X10348Y13250D01*
X10321Y13383D01*
X10246Y13496D01*
X10246Y13496D01*
X9746Y13996D01*
X9633Y14071D01*
X9611Y14076D01*
X9500Y14098D01*
X9499Y14098D01*
X8644Y14098D01*
X6848Y15894D01*
X6848Y16000D01*
X6834Y16069D01*
X7000Y16036D01*
X7214Y16078D01*
X7395Y16200D01*
X7500Y16355D01*
X7604Y16200D01*
X7785Y16078D01*
X7963Y16043D01*
X8503Y15503D01*
X8503Y15503D01*
X8616Y15428D01*
X8749Y15401D01*
X8749Y15401D01*
X8750Y15401D01*
X11855Y15401D01*
X12753Y14503D01*
X12753Y14503D01*
X12866Y14428D01*
X13000Y14401D01*
X15605Y14401D01*
X16916Y13091D01*
X16854Y13049D01*
X16750Y12894D01*
X16645Y13049D01*
X16464Y13171D01*
X16250Y13213D01*
X16035Y13171D01*
X15854Y13049D01*
X15750Y12894D01*
X15748Y12900D01*
X15610Y13071D01*
X15418Y13176D01*
X15386Y13183D01*
X15300Y13134D01*
X15300Y12550D01*
X15307Y12550D01*
X15307Y12450D01*
X15300Y12450D01*
X15300Y11865D01*
X15386Y11816D01*
X15418Y11823D01*
X15610Y11928D01*
X15748Y12099D01*
X15750Y12105D01*
X15854Y11950D01*
X16035Y11828D01*
X16250Y11786D01*
X16464Y11828D01*
X16645Y11950D01*
X16750Y12105D01*
X16854Y11950D01*
X17035Y11828D01*
X17250Y11786D01*
X17464Y11828D01*
X17645Y11950D01*
X17750Y12105D01*
X17854Y11950D01*
X18035Y11828D01*
X18250Y11786D01*
X18464Y11828D01*
X18645Y11950D01*
X18750Y12105D01*
X18854Y11950D01*
X19035Y11828D01*
X19250Y11786D01*
X19464Y11828D01*
X19645Y11950D01*
X19750Y12105D01*
X19854Y11950D01*
X20035Y11828D01*
X20250Y11786D01*
X20464Y11828D01*
X20645Y11950D01*
X20750Y12105D01*
X20854Y11950D01*
X21035Y11828D01*
X21250Y11786D01*
X21464Y11828D01*
X21645Y11950D01*
X21750Y12105D01*
X21854Y11950D01*
X22035Y11828D01*
X22250Y11786D01*
X22281Y11792D01*
X22204Y11608D01*
X22204Y11392D01*
X22287Y11191D01*
X22321Y11157D01*
X15418Y11157D01*
X14657Y11918D01*
X14657Y11967D01*
X14749Y12105D01*
X14751Y12099D01*
X14889Y11928D01*
X15081Y11823D01*
X15113Y11816D01*
X15200Y11865D01*
X15200Y12450D01*
X15192Y12450D01*
X15192Y12550D01*
X15200Y12550D01*
X15200Y13134D01*
X15113Y13183D01*
X15081Y13176D01*
X14889Y13071D01*
X14751Y12900D01*
X14749Y12894D01*
X14645Y13049D01*
X14464Y13171D01*
X14250Y13213D01*
X14035Y13171D01*
X13854Y13049D01*
X13732Y12868D01*
X13690Y12653D01*
X13690Y12346D01*
X13732Y12131D01*
X13842Y11967D01*
X13842Y11750D01*
X13842Y11750D01*
X13873Y11594D01*
X13961Y11461D01*
X14961Y10461D01*
X14961Y10461D01*
X15041Y10408D01*
X15094Y10373D01*
X15094Y10373D01*
X15250Y10342D01*
X23331Y10342D01*
X23592Y10081D01*
X23418Y10176D01*
X23386Y10183D01*
X23300Y10134D01*
X23300Y9550D01*
X23810Y9550D01*
X23810Y9690D01*
X23748Y9900D01*
X23644Y10029D01*
X23961Y9711D01*
X23961Y9711D01*
X24094Y9623D01*
X24094Y9623D01*
X24218Y9598D01*
X24249Y9592D01*
X24249Y9592D01*
X24250Y9592D01*
X25499Y9592D01*
X25500Y9592D01*
X25500Y9592D01*
X25655Y9623D01*
X25788Y9711D01*
X25939Y9863D01*
X25939Y9000D01*
X25977Y8908D01*
X26048Y8838D01*
X26140Y8800D01*
X26239Y8799D01*
X26859Y8799D01*
X26951Y8837D01*
X27021Y8908D01*
X27059Y9000D01*
X27059Y9016D01*
X27104Y8950D01*
X27285Y8828D01*
X27500Y8786D01*
X27714Y8828D01*
X27895Y8950D01*
X28000Y9105D01*
X28104Y8950D01*
X28285Y8828D01*
X28500Y8786D01*
X28714Y8828D01*
X28895Y8950D01*
X29000Y9105D01*
X29104Y8950D01*
X29285Y8828D01*
X29500Y8786D01*
X29714Y8828D01*
X29895Y8950D01*
X30000Y9105D01*
X30104Y8950D01*
X30285Y8828D01*
X30500Y8786D01*
X30714Y8828D01*
X30895Y8950D01*
X31000Y9105D01*
X31104Y8950D01*
X31285Y8828D01*
X31500Y8786D01*
X31714Y8828D01*
X31895Y8950D01*
X32000Y9105D01*
X32104Y8950D01*
X32285Y8828D01*
X32500Y8786D01*
X32714Y8828D01*
X32895Y8950D01*
X33000Y9105D01*
X33104Y8950D01*
X33285Y8828D01*
X33500Y8786D01*
X33714Y8828D01*
X33895Y8950D01*
X34000Y9105D01*
X34104Y8950D01*
X34285Y8828D01*
X34500Y8786D01*
X34714Y8828D01*
X34895Y8950D01*
X34999Y9105D01*
X35001Y9099D01*
X35139Y8928D01*
X35331Y8823D01*
X35363Y8816D01*
X35450Y8865D01*
X35450Y9450D01*
X35442Y9450D01*
X35442Y9550D01*
X35450Y9550D01*
X35450Y9557D01*
X35550Y9557D01*
X35550Y9550D01*
X36060Y9550D01*
X36060Y9690D01*
X35998Y9900D01*
X35860Y10071D01*
X35713Y10151D01*
X36499Y10151D01*
X36500Y10151D01*
X36500Y10151D01*
X36611Y10173D01*
X36633Y10178D01*
X36633Y10178D01*
X36746Y10253D01*
X37401Y10908D01*
X37401Y8644D01*
G54D10*
G36*
X38151Y26894D02*
X37052Y25795D01*
X36892Y25795D01*
X36691Y25712D01*
X36598Y25619D01*
X36598Y30250D01*
X36571Y30383D01*
X36496Y30496D01*
X36496Y30496D01*
X34538Y32454D01*
X34607Y32454D01*
X34808Y32537D01*
X34961Y32690D01*
X34999Y32782D01*
X35037Y32691D01*
X35190Y32538D01*
X35391Y32454D01*
X35607Y32454D01*
X35808Y32537D01*
X35961Y32690D01*
X36045Y32891D01*
X36045Y33107D01*
X35962Y33308D01*
X35848Y33422D01*
X35848Y34355D01*
X36496Y35003D01*
X36496Y35003D01*
X36496Y35003D01*
X36571Y35116D01*
X36598Y35249D01*
X36598Y35250D01*
X36598Y35250D01*
X36598Y35500D01*
X36583Y35573D01*
X36613Y35566D01*
X36700Y35615D01*
X36700Y36200D01*
X36692Y36200D01*
X36692Y36300D01*
X36700Y36300D01*
X36700Y36884D01*
X36613Y36933D01*
X36583Y36926D01*
X36598Y37000D01*
X36598Y37408D01*
X37651Y36355D01*
X37651Y33144D01*
X37310Y32802D01*
X37310Y36060D01*
X37310Y36200D01*
X37310Y36300D01*
X37310Y36440D01*
X37248Y36650D01*
X37110Y36821D01*
X36918Y36926D01*
X36886Y36933D01*
X36800Y36884D01*
X36800Y36300D01*
X37310Y36300D01*
X37310Y36200D01*
X36800Y36200D01*
X36800Y35615D01*
X36886Y35566D01*
X36918Y35573D01*
X37110Y35678D01*
X37248Y35849D01*
X37310Y36060D01*
X37310Y32802D01*
X37052Y32545D01*
X36892Y32545D01*
X36691Y32462D01*
X36538Y32309D01*
X36454Y32108D01*
X36454Y31892D01*
X36537Y31691D01*
X36690Y31538D01*
X36891Y31454D01*
X37107Y31454D01*
X37308Y31537D01*
X37461Y31690D01*
X37545Y31891D01*
X37545Y32052D01*
X38151Y32658D01*
X38151Y26894D01*
X38151Y26894D01*
G37*
G54D45*
X38151Y26894D02*
X37052Y25795D01*
X36892Y25795D01*
X36691Y25712D01*
X36598Y25619D01*
X36598Y30250D01*
X36571Y30383D01*
X36496Y30496D01*
X36496Y30496D01*
X34538Y32454D01*
X34607Y32454D01*
X34808Y32537D01*
X34961Y32690D01*
X34999Y32782D01*
X35037Y32691D01*
X35190Y32538D01*
X35391Y32454D01*
X35607Y32454D01*
X35808Y32537D01*
X35961Y32690D01*
X36045Y32891D01*
X36045Y33107D01*
X35962Y33308D01*
X35848Y33422D01*
X35848Y34355D01*
X36496Y35003D01*
X36496Y35003D01*
X36496Y35003D01*
X36571Y35116D01*
X36598Y35249D01*
X36598Y35250D01*
X36598Y35250D01*
X36598Y35500D01*
X36583Y35573D01*
X36613Y35566D01*
X36700Y35615D01*
X36700Y36200D01*
X36692Y36200D01*
X36692Y36300D01*
X36700Y36300D01*
X36700Y36884D01*
X36613Y36933D01*
X36583Y36926D01*
X36598Y37000D01*
X36598Y37408D01*
X37651Y36355D01*
X37651Y33144D01*
X37310Y32802D01*
X37310Y36060D01*
X37310Y36200D01*
X37310Y36300D01*
X37310Y36440D01*
X37248Y36650D01*
X37110Y36821D01*
X36918Y36926D01*
X36886Y36933D01*
X36800Y36884D01*
X36800Y36300D01*
X37310Y36300D01*
X37310Y36200D01*
X36800Y36200D01*
X36800Y35615D01*
X36886Y35566D01*
X36918Y35573D01*
X37110Y35678D01*
X37248Y35849D01*
X37310Y36060D01*
X37310Y32802D01*
X37052Y32545D01*
X36892Y32545D01*
X36691Y32462D01*
X36538Y32309D01*
X36454Y32108D01*
X36454Y31892D01*
X36537Y31691D01*
X36690Y31538D01*
X36891Y31454D01*
X37107Y31454D01*
X37308Y31537D01*
X37461Y31690D01*
X37545Y31891D01*
X37545Y32052D01*
X38151Y32658D01*
X38151Y26894D01*
G54D10*
G36*
X38401Y49508D02*
X38365Y49545D01*
X38128Y49643D01*
X37872Y49643D01*
X37635Y49546D01*
X37454Y49365D01*
X37356Y49128D01*
X37356Y48872D01*
X37453Y48635D01*
X37592Y48497D01*
X37592Y43668D01*
X37314Y43391D01*
X37314Y49404D01*
X37314Y49542D01*
X36800Y49542D01*
X36800Y48954D01*
X36887Y48906D01*
X36920Y48913D01*
X37114Y49019D01*
X37252Y49192D01*
X37314Y49404D01*
X37314Y43391D01*
X37310Y43386D01*
X37310Y44560D01*
X37310Y44700D01*
X37310Y44800D01*
X37310Y44940D01*
X37248Y45150D01*
X37110Y45321D01*
X36918Y45426D01*
X36886Y45433D01*
X36800Y45384D01*
X36800Y44800D01*
X37310Y44800D01*
X37310Y44700D01*
X36800Y44700D01*
X36800Y44115D01*
X36886Y44066D01*
X36918Y44073D01*
X37110Y44178D01*
X37248Y44349D01*
X37310Y44560D01*
X37310Y43386D01*
X36864Y42940D01*
X36750Y42963D01*
X36568Y42927D01*
X36568Y43297D01*
X36711Y43440D01*
X36795Y43641D01*
X36795Y43857D01*
X36712Y44058D01*
X36671Y44099D01*
X36700Y44115D01*
X36700Y44700D01*
X36692Y44700D01*
X36692Y44800D01*
X36700Y44800D01*
X36700Y45384D01*
X36613Y45433D01*
X36581Y45426D01*
X36389Y45321D01*
X36251Y45150D01*
X36249Y45144D01*
X36145Y45299D01*
X36098Y45331D01*
X36098Y46105D01*
X36496Y46503D01*
X36496Y46503D01*
X36496Y46503D01*
X36571Y46616D01*
X36598Y46750D01*
X36598Y46750D01*
X36598Y46750D01*
X36598Y47000D01*
X36584Y47069D01*
X36750Y47036D01*
X36964Y47078D01*
X37145Y47200D01*
X37267Y47381D01*
X37310Y47596D01*
X37310Y47903D01*
X37267Y48118D01*
X37145Y48299D01*
X36964Y48421D01*
X36750Y48463D01*
X36568Y48427D01*
X36568Y48500D01*
X36544Y48622D01*
X36544Y48622D01*
X36510Y48673D01*
X36475Y48725D01*
X36475Y48725D01*
X36225Y48975D01*
X36129Y49039D01*
X36250Y49188D01*
X36385Y49019D01*
X36579Y48913D01*
X36612Y48906D01*
X36700Y48954D01*
X36700Y49542D01*
X36314Y49542D01*
X36185Y49542D01*
X35800Y49542D01*
X35800Y49534D01*
X35700Y49534D01*
X35700Y49542D01*
X35314Y49542D01*
X35185Y49542D01*
X34800Y49542D01*
X34800Y49534D01*
X34700Y49534D01*
X34700Y49542D01*
X34314Y49542D01*
X34185Y49542D01*
X33800Y49542D01*
X33800Y49534D01*
X33700Y49534D01*
X33700Y49542D01*
X33692Y49542D01*
X33692Y49642D01*
X33700Y49642D01*
X33700Y49650D01*
X33800Y49650D01*
X33800Y49642D01*
X34185Y49642D01*
X34314Y49642D01*
X34700Y49642D01*
X34700Y49650D01*
X34800Y49650D01*
X34800Y49642D01*
X35185Y49642D01*
X35314Y49642D01*
X35700Y49642D01*
X35700Y49650D01*
X35800Y49650D01*
X35800Y49642D01*
X36185Y49642D01*
X36314Y49642D01*
X36700Y49642D01*
X36700Y49650D01*
X36800Y49650D01*
X36800Y49642D01*
X37314Y49642D01*
X37314Y49780D01*
X37252Y49992D01*
X37114Y50165D01*
X36976Y50240D01*
X37149Y50356D01*
X37271Y50539D01*
X37314Y50755D01*
X37314Y51059D01*
X37271Y51275D01*
X37187Y51401D01*
X37355Y51401D01*
X38401Y50355D01*
X38401Y49508D01*
X38401Y49508D01*
G37*
G54D45*
X38401Y49508D02*
X38365Y49545D01*
X38128Y49643D01*
X37872Y49643D01*
X37635Y49546D01*
X37454Y49365D01*
X37356Y49128D01*
X37356Y48872D01*
X37453Y48635D01*
X37592Y48497D01*
X37592Y43668D01*
X37314Y43391D01*
X37314Y49404D01*
X37314Y49542D01*
X36800Y49542D01*
X36800Y48954D01*
X36887Y48906D01*
X36920Y48913D01*
X37114Y49019D01*
X37252Y49192D01*
X37314Y49404D01*
X37314Y43391D01*
X37310Y43386D01*
X37310Y44560D01*
X37310Y44700D01*
X37310Y44800D01*
X37310Y44940D01*
X37248Y45150D01*
X37110Y45321D01*
X36918Y45426D01*
X36886Y45433D01*
X36800Y45384D01*
X36800Y44800D01*
X37310Y44800D01*
X37310Y44700D01*
X36800Y44700D01*
X36800Y44115D01*
X36886Y44066D01*
X36918Y44073D01*
X37110Y44178D01*
X37248Y44349D01*
X37310Y44560D01*
X37310Y43386D01*
X36864Y42940D01*
X36750Y42963D01*
X36568Y42927D01*
X36568Y43297D01*
X36711Y43440D01*
X36795Y43641D01*
X36795Y43857D01*
X36712Y44058D01*
X36671Y44099D01*
X36700Y44115D01*
X36700Y44700D01*
X36692Y44700D01*
X36692Y44800D01*
X36700Y44800D01*
X36700Y45384D01*
X36613Y45433D01*
X36581Y45426D01*
X36389Y45321D01*
X36251Y45150D01*
X36249Y45144D01*
X36145Y45299D01*
X36098Y45331D01*
X36098Y46105D01*
X36496Y46503D01*
X36496Y46503D01*
X36496Y46503D01*
X36571Y46616D01*
X36598Y46750D01*
X36598Y46750D01*
X36598Y46750D01*
X36598Y47000D01*
X36584Y47069D01*
X36750Y47036D01*
X36964Y47078D01*
X37145Y47200D01*
X37267Y47381D01*
X37310Y47596D01*
X37310Y47903D01*
X37267Y48118D01*
X37145Y48299D01*
X36964Y48421D01*
X36750Y48463D01*
X36568Y48427D01*
X36568Y48500D01*
X36544Y48622D01*
X36544Y48622D01*
X36510Y48673D01*
X36475Y48725D01*
X36475Y48725D01*
X36225Y48975D01*
X36129Y49039D01*
X36250Y49188D01*
X36385Y49019D01*
X36579Y48913D01*
X36612Y48906D01*
X36700Y48954D01*
X36700Y49542D01*
X36314Y49542D01*
X36185Y49542D01*
X35800Y49542D01*
X35800Y49534D01*
X35700Y49534D01*
X35700Y49542D01*
X35314Y49542D01*
X35185Y49542D01*
X34800Y49542D01*
X34800Y49534D01*
X34700Y49534D01*
X34700Y49542D01*
X34314Y49542D01*
X34185Y49542D01*
X33800Y49542D01*
X33800Y49534D01*
X33700Y49534D01*
X33700Y49542D01*
X33692Y49542D01*
X33692Y49642D01*
X33700Y49642D01*
X33700Y49650D01*
X33800Y49650D01*
X33800Y49642D01*
X34185Y49642D01*
X34314Y49642D01*
X34700Y49642D01*
X34700Y49650D01*
X34800Y49650D01*
X34800Y49642D01*
X35185Y49642D01*
X35314Y49642D01*
X35700Y49642D01*
X35700Y49650D01*
X35800Y49650D01*
X35800Y49642D01*
X36185Y49642D01*
X36314Y49642D01*
X36700Y49642D01*
X36700Y49650D01*
X36800Y49650D01*
X36800Y49642D01*
X37314Y49642D01*
X37314Y49780D01*
X37252Y49992D01*
X37114Y50165D01*
X36976Y50240D01*
X37149Y50356D01*
X37271Y50539D01*
X37314Y50755D01*
X37314Y51059D01*
X37271Y51275D01*
X37187Y51401D01*
X37355Y51401D01*
X38401Y50355D01*
X38401Y49508D01*
G54D10*
G36*
X38980Y50762D02*
X38800Y50942D01*
X38800Y53707D01*
X38640Y54094D01*
X38345Y54389D01*
X37959Y54549D01*
X37542Y54550D01*
X37156Y54390D01*
X36860Y54095D01*
X36700Y53709D01*
X36699Y53292D01*
X36859Y52906D01*
X37154Y52610D01*
X37540Y52450D01*
X37957Y52449D01*
X38344Y52609D01*
X38639Y52904D01*
X38799Y53290D01*
X38800Y53707D01*
X38800Y50942D01*
X37746Y51996D01*
X37633Y52071D01*
X37611Y52076D01*
X37500Y52098D01*
X37499Y52098D01*
X36144Y52098D01*
X35746Y52496D01*
X35633Y52571D01*
X35611Y52576D01*
X35500Y52598D01*
X35499Y52598D01*
X23250Y52598D01*
X23000Y52598D01*
X22866Y52571D01*
X22753Y52496D01*
X22678Y52383D01*
X22677Y52378D01*
X22024Y51725D01*
X21955Y51622D01*
X21947Y51584D01*
X21750Y51624D01*
X21533Y51580D01*
X21350Y51458D01*
X21250Y51308D01*
X21149Y51458D01*
X20966Y51580D01*
X20750Y51624D01*
X20533Y51580D01*
X20350Y51458D01*
X20228Y51275D01*
X20185Y51059D01*
X20185Y50755D01*
X20228Y50539D01*
X20350Y50356D01*
X20441Y50295D01*
X20385Y50295D01*
X20293Y50257D01*
X20223Y50187D01*
X20185Y50095D01*
X20184Y49995D01*
X20185Y49705D01*
X20247Y49642D01*
X20700Y49642D01*
X20700Y49650D01*
X20800Y49650D01*
X20800Y49642D01*
X21185Y49642D01*
X21252Y49642D01*
X21700Y49642D01*
X21700Y49650D01*
X21800Y49650D01*
X21800Y49642D01*
X21807Y49642D01*
X21807Y49542D01*
X21800Y49542D01*
X21800Y48954D01*
X21887Y48906D01*
X21918Y48913D01*
X21928Y48866D01*
X22003Y48753D01*
X22401Y48355D01*
X22401Y48331D01*
X22354Y48299D01*
X22250Y48144D01*
X22248Y48150D01*
X22110Y48321D01*
X21918Y48426D01*
X21886Y48433D01*
X21800Y48384D01*
X21800Y47800D01*
X21807Y47800D01*
X21807Y47700D01*
X21800Y47700D01*
X21800Y47692D01*
X21700Y47692D01*
X21700Y47700D01*
X21692Y47700D01*
X21692Y47800D01*
X21700Y47800D01*
X21700Y48384D01*
X21700Y48954D01*
X21700Y49542D01*
X21252Y49542D01*
X21185Y49542D01*
X20800Y49542D01*
X20800Y48952D01*
X20862Y48889D01*
X21114Y48889D01*
X21206Y48927D01*
X21276Y48997D01*
X21314Y49089D01*
X21314Y49108D01*
X21385Y49019D01*
X21579Y48913D01*
X21612Y48906D01*
X21700Y48954D01*
X21700Y48384D01*
X21613Y48433D01*
X21581Y48426D01*
X21389Y48321D01*
X21251Y48150D01*
X21249Y48144D01*
X21145Y48299D01*
X20964Y48421D01*
X20750Y48463D01*
X20700Y48453D01*
X20700Y48952D01*
X20700Y49542D01*
X20247Y49542D01*
X20185Y49480D01*
X20184Y49189D01*
X20185Y49089D01*
X20223Y48997D01*
X20293Y48927D01*
X20385Y48889D01*
X20637Y48889D01*
X20700Y48952D01*
X20700Y48453D01*
X20535Y48421D01*
X20354Y48299D01*
X20250Y48144D01*
X20157Y48282D01*
X20157Y48750D01*
X20126Y48905D01*
X20126Y48905D01*
X20091Y48958D01*
X20038Y49038D01*
X20038Y49038D01*
X19157Y49918D01*
X19157Y52749D01*
X19157Y52750D01*
X19157Y52750D01*
X19126Y52905D01*
X19126Y52905D01*
X19091Y52958D01*
X19038Y53038D01*
X19038Y53038D01*
X18538Y53538D01*
X18405Y53626D01*
X18250Y53657D01*
X18249Y53657D01*
X17669Y53657D01*
X17581Y53745D01*
X17366Y53834D01*
X17134Y53834D01*
X16919Y53745D01*
X16754Y53581D01*
X16665Y53366D01*
X16665Y53134D01*
X16754Y52919D01*
X16918Y52754D01*
X17133Y52665D01*
X17365Y52665D01*
X17580Y52754D01*
X17669Y52842D01*
X18081Y52842D01*
X18342Y52581D01*
X18342Y49750D01*
X18342Y49750D01*
X18373Y49594D01*
X18461Y49461D01*
X19342Y48581D01*
X19342Y48282D01*
X19232Y48118D01*
X19190Y47903D01*
X19190Y47596D01*
X19232Y47381D01*
X19351Y47203D01*
X19351Y47203D01*
X19373Y47094D01*
X19461Y46961D01*
X19961Y46461D01*
X19961Y46461D01*
X20041Y46408D01*
X20094Y46373D01*
X20094Y46373D01*
X20250Y46342D01*
X20250Y46342D01*
X20250Y46342D01*
X21099Y46342D01*
X20503Y45746D01*
X20428Y45633D01*
X20423Y45611D01*
X20401Y45500D01*
X20401Y45499D01*
X20401Y45331D01*
X20354Y45299D01*
X20310Y45233D01*
X20310Y45249D01*
X20272Y45341D01*
X20201Y45411D01*
X20109Y45449D01*
X20010Y45450D01*
X19390Y45450D01*
X19298Y45412D01*
X19228Y45341D01*
X19190Y45249D01*
X19189Y45150D01*
X19189Y44250D01*
X19227Y44158D01*
X19287Y44098D01*
X18584Y44098D01*
X18584Y44865D01*
X18584Y47865D01*
X18495Y48080D01*
X18331Y48245D01*
X18116Y48334D01*
X17884Y48334D01*
X17834Y48314D01*
X17834Y50365D01*
X17745Y50580D01*
X17581Y50745D01*
X17366Y50834D01*
X17134Y50834D01*
X16919Y50745D01*
X16754Y50581D01*
X16665Y50366D01*
X16665Y50134D01*
X16754Y49919D01*
X16918Y49754D01*
X17133Y49665D01*
X17365Y49665D01*
X17580Y49754D01*
X17745Y49918D01*
X17834Y50133D01*
X17834Y50365D01*
X17834Y48314D01*
X17669Y48245D01*
X17504Y48081D01*
X17415Y47866D01*
X17415Y47634D01*
X17504Y47419D01*
X17668Y47254D01*
X17883Y47165D01*
X18115Y47165D01*
X18330Y47254D01*
X18495Y47418D01*
X18584Y47633D01*
X18584Y47865D01*
X18584Y44865D01*
X18495Y45080D01*
X18331Y45245D01*
X18116Y45334D01*
X17884Y45334D01*
X17669Y45245D01*
X17504Y45081D01*
X17415Y44866D01*
X17415Y44634D01*
X17504Y44419D01*
X17668Y44254D01*
X17883Y44165D01*
X18115Y44165D01*
X18330Y44254D01*
X18495Y44418D01*
X18584Y44633D01*
X18584Y44865D01*
X18584Y44098D01*
X17334Y44098D01*
X17334Y44865D01*
X17334Y47865D01*
X17245Y48080D01*
X17081Y48245D01*
X16866Y48334D01*
X16634Y48334D01*
X16584Y48314D01*
X16584Y50365D01*
X16584Y53365D01*
X16495Y53580D01*
X16331Y53745D01*
X16116Y53834D01*
X15884Y53834D01*
X15669Y53745D01*
X15504Y53581D01*
X15415Y53366D01*
X15415Y53134D01*
X15504Y52919D01*
X15668Y52754D01*
X15883Y52665D01*
X16115Y52665D01*
X16330Y52754D01*
X16495Y52918D01*
X16584Y53133D01*
X16584Y53365D01*
X16584Y50365D01*
X16495Y50580D01*
X16331Y50745D01*
X16116Y50834D01*
X15884Y50834D01*
X15669Y50745D01*
X15504Y50581D01*
X15415Y50366D01*
X15415Y50134D01*
X15504Y49919D01*
X15668Y49754D01*
X15883Y49665D01*
X16115Y49665D01*
X16330Y49754D01*
X16495Y49918D01*
X16584Y50133D01*
X16584Y50365D01*
X16584Y48314D01*
X16419Y48245D01*
X16254Y48081D01*
X16165Y47866D01*
X16165Y47634D01*
X16254Y47419D01*
X16418Y47254D01*
X16633Y47165D01*
X16865Y47165D01*
X17080Y47254D01*
X17245Y47418D01*
X17334Y47633D01*
X17334Y47865D01*
X17334Y44865D01*
X17245Y45080D01*
X17081Y45245D01*
X16866Y45334D01*
X16634Y45334D01*
X16419Y45245D01*
X16254Y45081D01*
X16165Y44866D01*
X16165Y44634D01*
X16254Y44419D01*
X16418Y44254D01*
X16633Y44165D01*
X16865Y44165D01*
X17080Y44254D01*
X17245Y44418D01*
X17334Y44633D01*
X17334Y44865D01*
X17334Y44098D01*
X16084Y44098D01*
X16084Y44865D01*
X15995Y45080D01*
X15831Y45245D01*
X15616Y45334D01*
X15384Y45334D01*
X15169Y45245D01*
X15004Y45081D01*
X14915Y44866D01*
X14915Y44634D01*
X15004Y44419D01*
X15168Y44254D01*
X15383Y44165D01*
X15615Y44165D01*
X15830Y44254D01*
X15995Y44418D01*
X16084Y44633D01*
X16084Y44865D01*
X16084Y44098D01*
X13750Y44098D01*
X13616Y44071D01*
X13503Y43996D01*
X13503Y43996D01*
X12503Y42996D01*
X12428Y42883D01*
X12423Y42861D01*
X12420Y42843D01*
X12354Y42799D01*
X12250Y42644D01*
X12145Y42799D01*
X11993Y42901D01*
X12249Y42901D01*
X12250Y42901D01*
X12250Y42901D01*
X12361Y42923D01*
X12383Y42928D01*
X12383Y42928D01*
X12496Y43003D01*
X14996Y45503D01*
X14996Y45503D01*
X14996Y45503D01*
X15071Y45616D01*
X15098Y45750D01*
X15098Y45750D01*
X15098Y45750D01*
X15098Y47324D01*
X15168Y47254D01*
X15383Y47165D01*
X15615Y47165D01*
X15830Y47254D01*
X15995Y47418D01*
X16084Y47633D01*
X16084Y47865D01*
X15995Y48080D01*
X15831Y48245D01*
X15616Y48334D01*
X15384Y48334D01*
X15169Y48245D01*
X15098Y48175D01*
X15098Y49771D01*
X15245Y49918D01*
X15334Y50133D01*
X15334Y50365D01*
X15334Y53365D01*
X15245Y53580D01*
X15081Y53745D01*
X14866Y53834D01*
X14634Y53834D01*
X14419Y53745D01*
X14254Y53581D01*
X14165Y53366D01*
X14165Y53134D01*
X14254Y52919D01*
X14418Y52754D01*
X14633Y52665D01*
X14865Y52665D01*
X15080Y52754D01*
X15245Y52918D01*
X15334Y53133D01*
X15334Y53365D01*
X15334Y50365D01*
X15245Y50580D01*
X15081Y50745D01*
X14866Y50834D01*
X14634Y50834D01*
X14419Y50745D01*
X14254Y50581D01*
X14165Y50366D01*
X14165Y50134D01*
X14254Y49919D01*
X14401Y49771D01*
X14401Y49091D01*
X13848Y49644D01*
X13848Y49771D01*
X13995Y49918D01*
X14084Y50133D01*
X14084Y50365D01*
X14084Y53365D01*
X13995Y53580D01*
X13831Y53745D01*
X13616Y53834D01*
X13384Y53834D01*
X13169Y53745D01*
X13004Y53581D01*
X12915Y53366D01*
X12915Y53134D01*
X13004Y52919D01*
X13168Y52754D01*
X13383Y52665D01*
X13615Y52665D01*
X13830Y52754D01*
X13995Y52918D01*
X14084Y53133D01*
X14084Y53365D01*
X14084Y50365D01*
X13995Y50580D01*
X13831Y50745D01*
X13616Y50834D01*
X13384Y50834D01*
X13169Y50745D01*
X13004Y50581D01*
X12915Y50366D01*
X12915Y50134D01*
X13004Y49919D01*
X13151Y49771D01*
X13151Y49500D01*
X13151Y49500D01*
X13173Y49388D01*
X13178Y49366D01*
X13253Y49253D01*
X13901Y48605D01*
X13901Y48287D01*
X13726Y48462D01*
X13417Y48590D01*
X13083Y48590D01*
X12774Y48463D01*
X12537Y48226D01*
X12409Y47917D01*
X12409Y47583D01*
X12537Y47274D01*
X12773Y47037D01*
X13082Y46909D01*
X13416Y46909D01*
X13725Y47037D01*
X13901Y47212D01*
X13901Y46144D01*
X12503Y44746D01*
X12503Y44746D01*
X12090Y44333D01*
X12090Y47208D01*
X12090Y48291D01*
X12090Y48390D01*
X12052Y48482D01*
X11981Y48552D01*
X11890Y48590D01*
X11362Y48590D01*
X11300Y48528D01*
X11300Y47800D01*
X12028Y47800D01*
X12090Y47862D01*
X12090Y48291D01*
X12090Y47208D01*
X12090Y47637D01*
X12028Y47700D01*
X11300Y47700D01*
X11300Y46971D01*
X11362Y46909D01*
X11890Y46909D01*
X11981Y46947D01*
X12052Y47017D01*
X12090Y47109D01*
X12090Y47208D01*
X12090Y44333D01*
X11855Y44098D01*
X11200Y44098D01*
X11200Y46971D01*
X11200Y47700D01*
X11200Y47800D01*
X11200Y48528D01*
X11137Y48590D01*
X10609Y48590D01*
X10518Y48552D01*
X10447Y48482D01*
X10409Y48390D01*
X10409Y48291D01*
X10409Y47862D01*
X10471Y47800D01*
X11200Y47800D01*
X11200Y47700D01*
X10471Y47700D01*
X10409Y47637D01*
X10409Y47208D01*
X10409Y47109D01*
X10447Y47017D01*
X10518Y46947D01*
X10609Y46909D01*
X11137Y46909D01*
X11200Y46971D01*
X11200Y44098D01*
X11000Y44098D01*
X11000Y44098D01*
X10888Y44076D01*
X10866Y44071D01*
X10753Y43996D01*
X10753Y43996D01*
X9503Y42746D01*
X9428Y42633D01*
X9423Y42611D01*
X9401Y42500D01*
X9401Y42499D01*
X9401Y38453D01*
X9342Y38512D01*
X9120Y38604D01*
X8880Y38604D01*
X8658Y38512D01*
X8604Y38459D01*
X8604Y40619D01*
X8512Y40841D01*
X8342Y41012D01*
X8120Y41104D01*
X8048Y41104D01*
X8048Y50850D01*
X7962Y51284D01*
X7922Y51344D01*
X7922Y53023D01*
X7922Y53476D01*
X7911Y53524D01*
X7722Y53925D01*
X7394Y54223D01*
X6977Y54373D01*
X6800Y54323D01*
X6800Y53300D01*
X7881Y53300D01*
X7922Y53476D01*
X7922Y53023D01*
X7881Y53200D01*
X6800Y53200D01*
X6800Y52176D01*
X6977Y52126D01*
X7394Y52276D01*
X7722Y52574D01*
X7911Y52975D01*
X7922Y53023D01*
X7922Y51344D01*
X7715Y51653D01*
X7347Y51899D01*
X6912Y51985D01*
X6587Y51985D01*
X6152Y51899D01*
X5924Y51747D01*
X5988Y52070D01*
X5988Y52382D01*
X6105Y52276D01*
X6522Y52126D01*
X6700Y52176D01*
X6700Y53200D01*
X6692Y53200D01*
X6692Y53300D01*
X6700Y53300D01*
X6700Y54323D01*
X6522Y54373D01*
X6105Y54223D01*
X5777Y53925D01*
X5588Y53524D01*
X5577Y53476D01*
X5603Y53367D01*
X5409Y53496D01*
X5050Y53568D01*
X4690Y53496D01*
X4386Y53293D01*
X4182Y52988D01*
X4111Y52629D01*
X4111Y52070D01*
X4182Y51711D01*
X4386Y51406D01*
X4690Y51203D01*
X5050Y51131D01*
X5409Y51203D01*
X5543Y51292D01*
X5537Y51284D01*
X5451Y50850D01*
X5537Y50415D01*
X5784Y50046D01*
X6152Y49800D01*
X6587Y49714D01*
X6912Y49714D01*
X7347Y49800D01*
X7715Y50046D01*
X7962Y50415D01*
X8048Y50850D01*
X8048Y41104D01*
X7880Y41104D01*
X7702Y41031D01*
X7702Y48346D01*
X7702Y49252D01*
X7664Y49344D01*
X7594Y49414D01*
X7502Y49452D01*
X7403Y49452D01*
X6497Y49452D01*
X6405Y49414D01*
X6335Y49344D01*
X6297Y49252D01*
X6297Y49153D01*
X6297Y48247D01*
X6335Y48155D01*
X6405Y48085D01*
X6497Y48047D01*
X6596Y48047D01*
X7502Y48047D01*
X7594Y48085D01*
X7664Y48155D01*
X7702Y48247D01*
X7702Y48346D01*
X7702Y41031D01*
X7658Y41012D01*
X7487Y40842D01*
X7395Y40620D01*
X7395Y40380D01*
X7487Y40158D01*
X7657Y39987D01*
X7879Y39895D01*
X8119Y39895D01*
X8341Y39987D01*
X8512Y40157D01*
X8604Y40379D01*
X8604Y40619D01*
X8604Y38459D01*
X8487Y38342D01*
X8395Y38120D01*
X8395Y37880D01*
X8487Y37658D01*
X8657Y37487D01*
X8807Y37425D01*
X8785Y37421D01*
X8604Y37299D01*
X8500Y37144D01*
X8395Y37299D01*
X8214Y37421D01*
X8000Y37463D01*
X7785Y37421D01*
X7604Y37299D01*
X7500Y37144D01*
X7395Y37299D01*
X7214Y37421D01*
X7000Y37463D01*
X6785Y37421D01*
X6604Y37299D01*
X6500Y37144D01*
X6395Y37299D01*
X6214Y37421D01*
X6192Y37425D01*
X6341Y37487D01*
X6512Y37657D01*
X6604Y37879D01*
X6604Y38119D01*
X6512Y38341D01*
X6342Y38512D01*
X6120Y38604D01*
X6108Y38604D01*
X6108Y42905D01*
X6098Y43145D01*
X6026Y43320D01*
X5925Y43354D01*
X5854Y43283D01*
X5854Y43425D01*
X5820Y43526D01*
X5594Y43608D01*
X5354Y43598D01*
X5179Y43526D01*
X5145Y43425D01*
X5500Y43070D01*
X5854Y43425D01*
X5854Y43283D01*
X5570Y43000D01*
X5576Y42994D01*
X5505Y42923D01*
X5500Y42929D01*
X5494Y42923D01*
X5429Y42988D01*
X5423Y42994D01*
X5429Y43000D01*
X5074Y43354D01*
X4973Y43320D01*
X4891Y43094D01*
X4901Y42854D01*
X4973Y42679D01*
X5074Y42645D01*
X5029Y42600D01*
X5046Y42583D01*
X5004Y42566D01*
X4933Y42496D01*
X4895Y42404D01*
X4895Y42304D01*
X4895Y41596D01*
X4933Y41504D01*
X5003Y41433D01*
X5095Y41395D01*
X5195Y41395D01*
X5903Y41395D01*
X5995Y41433D01*
X6066Y41503D01*
X6104Y41595D01*
X6104Y41695D01*
X6104Y42403D01*
X6066Y42495D01*
X5996Y42566D01*
X5953Y42583D01*
X5970Y42600D01*
X5925Y42645D01*
X6026Y42679D01*
X6108Y42905D01*
X6108Y38604D01*
X6104Y38604D01*
X5880Y38604D01*
X5658Y38512D01*
X5487Y38342D01*
X5395Y38120D01*
X5395Y37880D01*
X5487Y37658D01*
X5657Y37487D01*
X5807Y37425D01*
X5785Y37421D01*
X5604Y37299D01*
X5499Y37144D01*
X5395Y37299D01*
X5214Y37421D01*
X5000Y37463D01*
X4785Y37421D01*
X4604Y37299D01*
X4499Y37144D01*
X4395Y37299D01*
X4214Y37421D01*
X4192Y37425D01*
X4341Y37487D01*
X4512Y37657D01*
X4604Y37879D01*
X4604Y38119D01*
X4512Y38341D01*
X4342Y38512D01*
X4120Y38604D01*
X3880Y38604D01*
X3658Y38512D01*
X3499Y38354D01*
X3342Y38512D01*
X3120Y38604D01*
X2880Y38604D01*
X2823Y38581D01*
X2894Y38651D01*
X4499Y38651D01*
X4500Y38651D01*
X4500Y38651D01*
X4611Y38673D01*
X4633Y38678D01*
X4633Y38678D01*
X4746Y38753D01*
X5246Y39253D01*
X5246Y39253D01*
X5246Y39253D01*
X5321Y39366D01*
X5348Y39500D01*
X5348Y39500D01*
X5348Y39500D01*
X5348Y39993D01*
X5512Y40157D01*
X5604Y40379D01*
X5604Y40619D01*
X5512Y40841D01*
X5342Y41012D01*
X5120Y41104D01*
X4880Y41104D01*
X4658Y41012D01*
X4487Y40842D01*
X4395Y40620D01*
X4395Y40380D01*
X4487Y40158D01*
X4651Y39993D01*
X4651Y39644D01*
X4355Y39348D01*
X3706Y39348D01*
X3706Y48631D01*
X3698Y48911D01*
X3607Y49129D01*
X3496Y49175D01*
X3425Y49105D01*
X3425Y49246D01*
X3379Y49357D01*
X3118Y49456D01*
X2838Y49448D01*
X2620Y49357D01*
X2574Y49246D01*
X3000Y48820D01*
X3425Y49246D01*
X3425Y49105D01*
X3070Y48750D01*
X3496Y48324D01*
X3607Y48370D01*
X3706Y48631D01*
X3706Y39348D01*
X3628Y39348D01*
X3628Y45400D01*
X3624Y45511D01*
X3624Y46675D01*
X3624Y47423D01*
X3586Y47515D01*
X3515Y47585D01*
X3425Y47623D01*
X3425Y48253D01*
X3000Y48679D01*
X2929Y48608D01*
X2929Y48750D01*
X2550Y49129D01*
X2550Y53707D01*
X2390Y54094D01*
X2095Y54389D01*
X1709Y54549D01*
X1292Y54550D01*
X906Y54390D01*
X610Y54095D01*
X450Y53709D01*
X449Y53292D01*
X609Y52906D01*
X904Y52610D01*
X1290Y52450D01*
X1707Y52449D01*
X2094Y52609D01*
X2389Y52904D01*
X2549Y53290D01*
X2550Y53707D01*
X2550Y49129D01*
X2503Y49175D01*
X2392Y49129D01*
X2293Y48868D01*
X2301Y48588D01*
X2392Y48370D01*
X2503Y48324D01*
X2929Y48750D01*
X2929Y48608D01*
X2574Y48253D01*
X2620Y48142D01*
X2881Y48043D01*
X3161Y48051D01*
X3379Y48142D01*
X3425Y48253D01*
X3425Y47623D01*
X3423Y47623D01*
X3324Y47624D01*
X2576Y47624D01*
X2484Y47586D01*
X2414Y47515D01*
X2376Y47423D01*
X2375Y47324D01*
X2375Y46576D01*
X2413Y46484D01*
X2484Y46414D01*
X2576Y46376D01*
X2675Y46375D01*
X3423Y46375D01*
X3515Y46413D01*
X3585Y46484D01*
X3623Y46576D01*
X3624Y46675D01*
X3624Y45511D01*
X3618Y45648D01*
X3542Y45832D01*
X3439Y45868D01*
X3368Y45798D01*
X3368Y45939D01*
X3332Y46042D01*
X3099Y46128D01*
X2851Y46118D01*
X2667Y46042D01*
X2631Y45939D01*
X3000Y45570D01*
X3368Y45939D01*
X3368Y45798D01*
X3070Y45500D01*
X3439Y45131D01*
X3542Y45167D01*
X3628Y45400D01*
X3628Y39348D01*
X3368Y39348D01*
X3368Y45060D01*
X3000Y45429D01*
X2929Y45358D01*
X2929Y45500D01*
X2560Y45868D01*
X2457Y45832D01*
X2371Y45599D01*
X2381Y45351D01*
X2457Y45167D01*
X2560Y45131D01*
X2929Y45500D01*
X2929Y45358D01*
X2631Y45060D01*
X2667Y44957D01*
X2900Y44871D01*
X3148Y44881D01*
X3332Y44957D01*
X3368Y45060D01*
X3368Y39348D01*
X2783Y39348D01*
X2783Y40892D01*
X2783Y41050D01*
X2783Y41150D01*
X2783Y41307D01*
X2783Y43692D01*
X2783Y43850D01*
X2783Y43950D01*
X2783Y44107D01*
X2711Y44365D01*
X2547Y44575D01*
X2315Y44707D01*
X2255Y44722D01*
X2150Y44676D01*
X2150Y43950D01*
X2783Y43950D01*
X2783Y43850D01*
X2150Y43850D01*
X2150Y43123D01*
X2255Y43077D01*
X2315Y43092D01*
X2547Y43224D01*
X2711Y43434D01*
X2783Y43692D01*
X2783Y41307D01*
X2711Y41565D01*
X2547Y41775D01*
X2315Y41907D01*
X2255Y41922D01*
X2150Y41876D01*
X2150Y41150D01*
X2783Y41150D01*
X2783Y41050D01*
X2150Y41050D01*
X2150Y40323D01*
X2255Y40277D01*
X2315Y40292D01*
X2547Y40424D01*
X2711Y40634D01*
X2783Y40892D01*
X2783Y39348D01*
X2750Y39348D01*
X2749Y39348D01*
X2616Y39321D01*
X2503Y39246D01*
X2503Y39246D01*
X2050Y38792D01*
X2050Y40323D01*
X2050Y41050D01*
X2042Y41050D01*
X2042Y41150D01*
X2050Y41150D01*
X2050Y41876D01*
X2050Y43123D01*
X2050Y43850D01*
X2042Y43850D01*
X2042Y43950D01*
X2050Y43950D01*
X2050Y44676D01*
X1944Y44722D01*
X1884Y44707D01*
X1652Y44575D01*
X1488Y44365D01*
X1416Y44107D01*
X1416Y44054D01*
X1300Y44120D01*
X1249Y44132D01*
X1150Y44085D01*
X1150Y43450D01*
X1157Y43450D01*
X1157Y43350D01*
X1150Y43350D01*
X1150Y42714D01*
X1249Y42667D01*
X1300Y42679D01*
X1519Y42803D01*
X1675Y43001D01*
X1726Y43182D01*
X1884Y43092D01*
X1944Y43077D01*
X2050Y43123D01*
X2050Y41876D01*
X1944Y41922D01*
X1884Y41907D01*
X1724Y41816D01*
X1694Y41967D01*
X1555Y42176D01*
X1346Y42315D01*
X1100Y42364D01*
X1050Y42354D01*
X1050Y42714D01*
X1050Y43350D01*
X1050Y43450D01*
X1050Y44085D01*
X950Y44132D01*
X899Y44120D01*
X680Y43996D01*
X524Y43798D01*
X456Y43556D01*
X456Y43450D01*
X1050Y43450D01*
X1050Y43350D01*
X456Y43350D01*
X456Y43243D01*
X524Y43001D01*
X680Y42803D01*
X899Y42679D01*
X950Y42667D01*
X1050Y42714D01*
X1050Y42354D01*
X853Y42315D01*
X644Y42176D01*
X505Y41967D01*
X456Y41720D01*
X456Y41479D01*
X505Y41232D01*
X644Y41023D01*
X853Y40884D01*
X1100Y40835D01*
X1346Y40884D01*
X1416Y40931D01*
X1416Y40892D01*
X1488Y40634D01*
X1652Y40424D01*
X1884Y40292D01*
X1944Y40277D01*
X2050Y40323D01*
X2050Y38792D01*
X503Y37246D01*
X428Y37133D01*
X423Y37111D01*
X401Y37000D01*
X401Y36999D01*
X401Y28250D01*
X401Y28250D01*
X423Y28138D01*
X428Y28116D01*
X503Y28003D01*
X1503Y27003D01*
X1503Y27003D01*
X1616Y26928D01*
X1750Y26901D01*
X3355Y26901D01*
X3651Y26605D01*
X3651Y26331D01*
X3604Y26299D01*
X3499Y26144D01*
X3395Y26299D01*
X3214Y26421D01*
X3000Y26463D01*
X2785Y26421D01*
X2604Y26299D01*
X2559Y26233D01*
X2559Y26249D01*
X2521Y26341D01*
X2451Y26412D01*
X2359Y26450D01*
X2112Y26450D01*
X2050Y26387D01*
X2050Y25800D01*
X2057Y25800D01*
X2057Y25700D01*
X2050Y25700D01*
X2050Y25692D01*
X1950Y25692D01*
X1950Y25700D01*
X1950Y25800D01*
X1950Y26387D01*
X1887Y26450D01*
X1640Y26450D01*
X1548Y26412D01*
X1478Y26341D01*
X1440Y26249D01*
X1439Y26150D01*
X1440Y25862D01*
X1502Y25800D01*
X1950Y25800D01*
X1950Y25700D01*
X1502Y25700D01*
X1440Y25637D01*
X1439Y25349D01*
X1440Y25250D01*
X1478Y25158D01*
X1538Y25098D01*
X1250Y25098D01*
X1249Y25098D01*
X1116Y25071D01*
X1003Y24996D01*
X1003Y24996D01*
X269Y24262D01*
X269Y54730D01*
X38980Y54730D01*
X38980Y50762D01*
X38980Y50762D01*
G37*
G54D45*
X38980Y50762D02*
X38800Y50942D01*
X38800Y53707D01*
X38640Y54094D01*
X38345Y54389D01*
X37959Y54549D01*
X37542Y54550D01*
X37156Y54390D01*
X36860Y54095D01*
X36700Y53709D01*
X36699Y53292D01*
X36859Y52906D01*
X37154Y52610D01*
X37540Y52450D01*
X37957Y52449D01*
X38344Y52609D01*
X38639Y52904D01*
X38799Y53290D01*
X38800Y53707D01*
X38800Y50942D01*
X37746Y51996D01*
X37633Y52071D01*
X37611Y52076D01*
X37500Y52098D01*
X37499Y52098D01*
X36144Y52098D01*
X35746Y52496D01*
X35633Y52571D01*
X35611Y52576D01*
X35500Y52598D01*
X35499Y52598D01*
X23250Y52598D01*
X23000Y52598D01*
X22866Y52571D01*
X22753Y52496D01*
X22678Y52383D01*
X22677Y52378D01*
X22024Y51725D01*
X21955Y51622D01*
X21947Y51584D01*
X21750Y51624D01*
X21533Y51580D01*
X21350Y51458D01*
X21250Y51308D01*
X21149Y51458D01*
X20966Y51580D01*
X20750Y51624D01*
X20533Y51580D01*
X20350Y51458D01*
X20228Y51275D01*
X20185Y51059D01*
X20185Y50755D01*
X20228Y50539D01*
X20350Y50356D01*
X20441Y50295D01*
X20385Y50295D01*
X20293Y50257D01*
X20223Y50187D01*
X20185Y50095D01*
X20184Y49995D01*
X20185Y49705D01*
X20247Y49642D01*
X20700Y49642D01*
X20700Y49650D01*
X20800Y49650D01*
X20800Y49642D01*
X21185Y49642D01*
X21252Y49642D01*
X21700Y49642D01*
X21700Y49650D01*
X21800Y49650D01*
X21800Y49642D01*
X21807Y49642D01*
X21807Y49542D01*
X21800Y49542D01*
X21800Y48954D01*
X21887Y48906D01*
X21918Y48913D01*
X21928Y48866D01*
X22003Y48753D01*
X22401Y48355D01*
X22401Y48331D01*
X22354Y48299D01*
X22250Y48144D01*
X22248Y48150D01*
X22110Y48321D01*
X21918Y48426D01*
X21886Y48433D01*
X21800Y48384D01*
X21800Y47800D01*
X21807Y47800D01*
X21807Y47700D01*
X21800Y47700D01*
X21800Y47692D01*
X21700Y47692D01*
X21700Y47700D01*
X21692Y47700D01*
X21692Y47800D01*
X21700Y47800D01*
X21700Y48384D01*
X21700Y48954D01*
X21700Y49542D01*
X21252Y49542D01*
X21185Y49542D01*
X20800Y49542D01*
X20800Y48952D01*
X20862Y48889D01*
X21114Y48889D01*
X21206Y48927D01*
X21276Y48997D01*
X21314Y49089D01*
X21314Y49108D01*
X21385Y49019D01*
X21579Y48913D01*
X21612Y48906D01*
X21700Y48954D01*
X21700Y48384D01*
X21613Y48433D01*
X21581Y48426D01*
X21389Y48321D01*
X21251Y48150D01*
X21249Y48144D01*
X21145Y48299D01*
X20964Y48421D01*
X20750Y48463D01*
X20700Y48453D01*
X20700Y48952D01*
X20700Y49542D01*
X20247Y49542D01*
X20185Y49480D01*
X20184Y49189D01*
X20185Y49089D01*
X20223Y48997D01*
X20293Y48927D01*
X20385Y48889D01*
X20637Y48889D01*
X20700Y48952D01*
X20700Y48453D01*
X20535Y48421D01*
X20354Y48299D01*
X20250Y48144D01*
X20157Y48282D01*
X20157Y48750D01*
X20126Y48905D01*
X20126Y48905D01*
X20091Y48958D01*
X20038Y49038D01*
X20038Y49038D01*
X19157Y49918D01*
X19157Y52749D01*
X19157Y52750D01*
X19157Y52750D01*
X19126Y52905D01*
X19126Y52905D01*
X19091Y52958D01*
X19038Y53038D01*
X19038Y53038D01*
X18538Y53538D01*
X18405Y53626D01*
X18250Y53657D01*
X18249Y53657D01*
X17669Y53657D01*
X17581Y53745D01*
X17366Y53834D01*
X17134Y53834D01*
X16919Y53745D01*
X16754Y53581D01*
X16665Y53366D01*
X16665Y53134D01*
X16754Y52919D01*
X16918Y52754D01*
X17133Y52665D01*
X17365Y52665D01*
X17580Y52754D01*
X17669Y52842D01*
X18081Y52842D01*
X18342Y52581D01*
X18342Y49750D01*
X18342Y49750D01*
X18373Y49594D01*
X18461Y49461D01*
X19342Y48581D01*
X19342Y48282D01*
X19232Y48118D01*
X19190Y47903D01*
X19190Y47596D01*
X19232Y47381D01*
X19351Y47203D01*
X19351Y47203D01*
X19373Y47094D01*
X19461Y46961D01*
X19961Y46461D01*
X19961Y46461D01*
X20041Y46408D01*
X20094Y46373D01*
X20094Y46373D01*
X20250Y46342D01*
X20250Y46342D01*
X20250Y46342D01*
X21099Y46342D01*
X20503Y45746D01*
X20428Y45633D01*
X20423Y45611D01*
X20401Y45500D01*
X20401Y45499D01*
X20401Y45331D01*
X20354Y45299D01*
X20310Y45233D01*
X20310Y45249D01*
X20272Y45341D01*
X20201Y45411D01*
X20109Y45449D01*
X20010Y45450D01*
X19390Y45450D01*
X19298Y45412D01*
X19228Y45341D01*
X19190Y45249D01*
X19189Y45150D01*
X19189Y44250D01*
X19227Y44158D01*
X19287Y44098D01*
X18584Y44098D01*
X18584Y44865D01*
X18584Y47865D01*
X18495Y48080D01*
X18331Y48245D01*
X18116Y48334D01*
X17884Y48334D01*
X17834Y48314D01*
X17834Y50365D01*
X17745Y50580D01*
X17581Y50745D01*
X17366Y50834D01*
X17134Y50834D01*
X16919Y50745D01*
X16754Y50581D01*
X16665Y50366D01*
X16665Y50134D01*
X16754Y49919D01*
X16918Y49754D01*
X17133Y49665D01*
X17365Y49665D01*
X17580Y49754D01*
X17745Y49918D01*
X17834Y50133D01*
X17834Y50365D01*
X17834Y48314D01*
X17669Y48245D01*
X17504Y48081D01*
X17415Y47866D01*
X17415Y47634D01*
X17504Y47419D01*
X17668Y47254D01*
X17883Y47165D01*
X18115Y47165D01*
X18330Y47254D01*
X18495Y47418D01*
X18584Y47633D01*
X18584Y47865D01*
X18584Y44865D01*
X18495Y45080D01*
X18331Y45245D01*
X18116Y45334D01*
X17884Y45334D01*
X17669Y45245D01*
X17504Y45081D01*
X17415Y44866D01*
X17415Y44634D01*
X17504Y44419D01*
X17668Y44254D01*
X17883Y44165D01*
X18115Y44165D01*
X18330Y44254D01*
X18495Y44418D01*
X18584Y44633D01*
X18584Y44865D01*
X18584Y44098D01*
X17334Y44098D01*
X17334Y44865D01*
X17334Y47865D01*
X17245Y48080D01*
X17081Y48245D01*
X16866Y48334D01*
X16634Y48334D01*
X16584Y48314D01*
X16584Y50365D01*
X16584Y53365D01*
X16495Y53580D01*
X16331Y53745D01*
X16116Y53834D01*
X15884Y53834D01*
X15669Y53745D01*
X15504Y53581D01*
X15415Y53366D01*
X15415Y53134D01*
X15504Y52919D01*
X15668Y52754D01*
X15883Y52665D01*
X16115Y52665D01*
X16330Y52754D01*
X16495Y52918D01*
X16584Y53133D01*
X16584Y53365D01*
X16584Y50365D01*
X16495Y50580D01*
X16331Y50745D01*
X16116Y50834D01*
X15884Y50834D01*
X15669Y50745D01*
X15504Y50581D01*
X15415Y50366D01*
X15415Y50134D01*
X15504Y49919D01*
X15668Y49754D01*
X15883Y49665D01*
X16115Y49665D01*
X16330Y49754D01*
X16495Y49918D01*
X16584Y50133D01*
X16584Y50365D01*
X16584Y48314D01*
X16419Y48245D01*
X16254Y48081D01*
X16165Y47866D01*
X16165Y47634D01*
X16254Y47419D01*
X16418Y47254D01*
X16633Y47165D01*
X16865Y47165D01*
X17080Y47254D01*
X17245Y47418D01*
X17334Y47633D01*
X17334Y47865D01*
X17334Y44865D01*
X17245Y45080D01*
X17081Y45245D01*
X16866Y45334D01*
X16634Y45334D01*
X16419Y45245D01*
X16254Y45081D01*
X16165Y44866D01*
X16165Y44634D01*
X16254Y44419D01*
X16418Y44254D01*
X16633Y44165D01*
X16865Y44165D01*
X17080Y44254D01*
X17245Y44418D01*
X17334Y44633D01*
X17334Y44865D01*
X17334Y44098D01*
X16084Y44098D01*
X16084Y44865D01*
X15995Y45080D01*
X15831Y45245D01*
X15616Y45334D01*
X15384Y45334D01*
X15169Y45245D01*
X15004Y45081D01*
X14915Y44866D01*
X14915Y44634D01*
X15004Y44419D01*
X15168Y44254D01*
X15383Y44165D01*
X15615Y44165D01*
X15830Y44254D01*
X15995Y44418D01*
X16084Y44633D01*
X16084Y44865D01*
X16084Y44098D01*
X13750Y44098D01*
X13616Y44071D01*
X13503Y43996D01*
X13503Y43996D01*
X12503Y42996D01*
X12428Y42883D01*
X12423Y42861D01*
X12420Y42843D01*
X12354Y42799D01*
X12250Y42644D01*
X12145Y42799D01*
X11993Y42901D01*
X12249Y42901D01*
X12250Y42901D01*
X12250Y42901D01*
X12361Y42923D01*
X12383Y42928D01*
X12383Y42928D01*
X12496Y43003D01*
X14996Y45503D01*
X14996Y45503D01*
X14996Y45503D01*
X15071Y45616D01*
X15098Y45750D01*
X15098Y45750D01*
X15098Y45750D01*
X15098Y47324D01*
X15168Y47254D01*
X15383Y47165D01*
X15615Y47165D01*
X15830Y47254D01*
X15995Y47418D01*
X16084Y47633D01*
X16084Y47865D01*
X15995Y48080D01*
X15831Y48245D01*
X15616Y48334D01*
X15384Y48334D01*
X15169Y48245D01*
X15098Y48175D01*
X15098Y49771D01*
X15245Y49918D01*
X15334Y50133D01*
X15334Y50365D01*
X15334Y53365D01*
X15245Y53580D01*
X15081Y53745D01*
X14866Y53834D01*
X14634Y53834D01*
X14419Y53745D01*
X14254Y53581D01*
X14165Y53366D01*
X14165Y53134D01*
X14254Y52919D01*
X14418Y52754D01*
X14633Y52665D01*
X14865Y52665D01*
X15080Y52754D01*
X15245Y52918D01*
X15334Y53133D01*
X15334Y53365D01*
X15334Y50365D01*
X15245Y50580D01*
X15081Y50745D01*
X14866Y50834D01*
X14634Y50834D01*
X14419Y50745D01*
X14254Y50581D01*
X14165Y50366D01*
X14165Y50134D01*
X14254Y49919D01*
X14401Y49771D01*
X14401Y49091D01*
X13848Y49644D01*
X13848Y49771D01*
X13995Y49918D01*
X14084Y50133D01*
X14084Y50365D01*
X14084Y53365D01*
X13995Y53580D01*
X13831Y53745D01*
X13616Y53834D01*
X13384Y53834D01*
X13169Y53745D01*
X13004Y53581D01*
X12915Y53366D01*
X12915Y53134D01*
X13004Y52919D01*
X13168Y52754D01*
X13383Y52665D01*
X13615Y52665D01*
X13830Y52754D01*
X13995Y52918D01*
X14084Y53133D01*
X14084Y53365D01*
X14084Y50365D01*
X13995Y50580D01*
X13831Y50745D01*
X13616Y50834D01*
X13384Y50834D01*
X13169Y50745D01*
X13004Y50581D01*
X12915Y50366D01*
X12915Y50134D01*
X13004Y49919D01*
X13151Y49771D01*
X13151Y49500D01*
X13151Y49500D01*
X13173Y49388D01*
X13178Y49366D01*
X13253Y49253D01*
X13901Y48605D01*
X13901Y48287D01*
X13726Y48462D01*
X13417Y48590D01*
X13083Y48590D01*
X12774Y48463D01*
X12537Y48226D01*
X12409Y47917D01*
X12409Y47583D01*
X12537Y47274D01*
X12773Y47037D01*
X13082Y46909D01*
X13416Y46909D01*
X13725Y47037D01*
X13901Y47212D01*
X13901Y46144D01*
X12503Y44746D01*
X12503Y44746D01*
X12090Y44333D01*
X12090Y47208D01*
X12090Y48291D01*
X12090Y48390D01*
X12052Y48482D01*
X11981Y48552D01*
X11890Y48590D01*
X11362Y48590D01*
X11300Y48528D01*
X11300Y47800D01*
X12028Y47800D01*
X12090Y47862D01*
X12090Y48291D01*
X12090Y47208D01*
X12090Y47637D01*
X12028Y47700D01*
X11300Y47700D01*
X11300Y46971D01*
X11362Y46909D01*
X11890Y46909D01*
X11981Y46947D01*
X12052Y47017D01*
X12090Y47109D01*
X12090Y47208D01*
X12090Y44333D01*
X11855Y44098D01*
X11200Y44098D01*
X11200Y46971D01*
X11200Y47700D01*
X11200Y47800D01*
X11200Y48528D01*
X11137Y48590D01*
X10609Y48590D01*
X10518Y48552D01*
X10447Y48482D01*
X10409Y48390D01*
X10409Y48291D01*
X10409Y47862D01*
X10471Y47800D01*
X11200Y47800D01*
X11200Y47700D01*
X10471Y47700D01*
X10409Y47637D01*
X10409Y47208D01*
X10409Y47109D01*
X10447Y47017D01*
X10518Y46947D01*
X10609Y46909D01*
X11137Y46909D01*
X11200Y46971D01*
X11200Y44098D01*
X11000Y44098D01*
X11000Y44098D01*
X10888Y44076D01*
X10866Y44071D01*
X10753Y43996D01*
X10753Y43996D01*
X9503Y42746D01*
X9428Y42633D01*
X9423Y42611D01*
X9401Y42500D01*
X9401Y42499D01*
X9401Y38453D01*
X9342Y38512D01*
X9120Y38604D01*
X8880Y38604D01*
X8658Y38512D01*
X8604Y38459D01*
X8604Y40619D01*
X8512Y40841D01*
X8342Y41012D01*
X8120Y41104D01*
X8048Y41104D01*
X8048Y50850D01*
X7962Y51284D01*
X7922Y51344D01*
X7922Y53023D01*
X7922Y53476D01*
X7911Y53524D01*
X7722Y53925D01*
X7394Y54223D01*
X6977Y54373D01*
X6800Y54323D01*
X6800Y53300D01*
X7881Y53300D01*
X7922Y53476D01*
X7922Y53023D01*
X7881Y53200D01*
X6800Y53200D01*
X6800Y52176D01*
X6977Y52126D01*
X7394Y52276D01*
X7722Y52574D01*
X7911Y52975D01*
X7922Y53023D01*
X7922Y51344D01*
X7715Y51653D01*
X7347Y51899D01*
X6912Y51985D01*
X6587Y51985D01*
X6152Y51899D01*
X5924Y51747D01*
X5988Y52070D01*
X5988Y52382D01*
X6105Y52276D01*
X6522Y52126D01*
X6700Y52176D01*
X6700Y53200D01*
X6692Y53200D01*
X6692Y53300D01*
X6700Y53300D01*
X6700Y54323D01*
X6522Y54373D01*
X6105Y54223D01*
X5777Y53925D01*
X5588Y53524D01*
X5577Y53476D01*
X5603Y53367D01*
X5409Y53496D01*
X5050Y53568D01*
X4690Y53496D01*
X4386Y53293D01*
X4182Y52988D01*
X4111Y52629D01*
X4111Y52070D01*
X4182Y51711D01*
X4386Y51406D01*
X4690Y51203D01*
X5050Y51131D01*
X5409Y51203D01*
X5543Y51292D01*
X5537Y51284D01*
X5451Y50850D01*
X5537Y50415D01*
X5784Y50046D01*
X6152Y49800D01*
X6587Y49714D01*
X6912Y49714D01*
X7347Y49800D01*
X7715Y50046D01*
X7962Y50415D01*
X8048Y50850D01*
X8048Y41104D01*
X7880Y41104D01*
X7702Y41031D01*
X7702Y48346D01*
X7702Y49252D01*
X7664Y49344D01*
X7594Y49414D01*
X7502Y49452D01*
X7403Y49452D01*
X6497Y49452D01*
X6405Y49414D01*
X6335Y49344D01*
X6297Y49252D01*
X6297Y49153D01*
X6297Y48247D01*
X6335Y48155D01*
X6405Y48085D01*
X6497Y48047D01*
X6596Y48047D01*
X7502Y48047D01*
X7594Y48085D01*
X7664Y48155D01*
X7702Y48247D01*
X7702Y48346D01*
X7702Y41031D01*
X7658Y41012D01*
X7487Y40842D01*
X7395Y40620D01*
X7395Y40380D01*
X7487Y40158D01*
X7657Y39987D01*
X7879Y39895D01*
X8119Y39895D01*
X8341Y39987D01*
X8512Y40157D01*
X8604Y40379D01*
X8604Y40619D01*
X8604Y38459D01*
X8487Y38342D01*
X8395Y38120D01*
X8395Y37880D01*
X8487Y37658D01*
X8657Y37487D01*
X8807Y37425D01*
X8785Y37421D01*
X8604Y37299D01*
X8500Y37144D01*
X8395Y37299D01*
X8214Y37421D01*
X8000Y37463D01*
X7785Y37421D01*
X7604Y37299D01*
X7500Y37144D01*
X7395Y37299D01*
X7214Y37421D01*
X7000Y37463D01*
X6785Y37421D01*
X6604Y37299D01*
X6500Y37144D01*
X6395Y37299D01*
X6214Y37421D01*
X6192Y37425D01*
X6341Y37487D01*
X6512Y37657D01*
X6604Y37879D01*
X6604Y38119D01*
X6512Y38341D01*
X6342Y38512D01*
X6120Y38604D01*
X6108Y38604D01*
X6108Y42905D01*
X6098Y43145D01*
X6026Y43320D01*
X5925Y43354D01*
X5854Y43283D01*
X5854Y43425D01*
X5820Y43526D01*
X5594Y43608D01*
X5354Y43598D01*
X5179Y43526D01*
X5145Y43425D01*
X5500Y43070D01*
X5854Y43425D01*
X5854Y43283D01*
X5570Y43000D01*
X5576Y42994D01*
X5505Y42923D01*
X5500Y42929D01*
X5494Y42923D01*
X5429Y42988D01*
X5423Y42994D01*
X5429Y43000D01*
X5074Y43354D01*
X4973Y43320D01*
X4891Y43094D01*
X4901Y42854D01*
X4973Y42679D01*
X5074Y42645D01*
X5029Y42600D01*
X5046Y42583D01*
X5004Y42566D01*
X4933Y42496D01*
X4895Y42404D01*
X4895Y42304D01*
X4895Y41596D01*
X4933Y41504D01*
X5003Y41433D01*
X5095Y41395D01*
X5195Y41395D01*
X5903Y41395D01*
X5995Y41433D01*
X6066Y41503D01*
X6104Y41595D01*
X6104Y41695D01*
X6104Y42403D01*
X6066Y42495D01*
X5996Y42566D01*
X5953Y42583D01*
X5970Y42600D01*
X5925Y42645D01*
X6026Y42679D01*
X6108Y42905D01*
X6108Y38604D01*
X6104Y38604D01*
X5880Y38604D01*
X5658Y38512D01*
X5487Y38342D01*
X5395Y38120D01*
X5395Y37880D01*
X5487Y37658D01*
X5657Y37487D01*
X5807Y37425D01*
X5785Y37421D01*
X5604Y37299D01*
X5499Y37144D01*
X5395Y37299D01*
X5214Y37421D01*
X5000Y37463D01*
X4785Y37421D01*
X4604Y37299D01*
X4499Y37144D01*
X4395Y37299D01*
X4214Y37421D01*
X4192Y37425D01*
X4341Y37487D01*
X4512Y37657D01*
X4604Y37879D01*
X4604Y38119D01*
X4512Y38341D01*
X4342Y38512D01*
X4120Y38604D01*
X3880Y38604D01*
X3658Y38512D01*
X3499Y38354D01*
X3342Y38512D01*
X3120Y38604D01*
X2880Y38604D01*
X2823Y38581D01*
X2894Y38651D01*
X4499Y38651D01*
X4500Y38651D01*
X4500Y38651D01*
X4611Y38673D01*
X4633Y38678D01*
X4633Y38678D01*
X4746Y38753D01*
X5246Y39253D01*
X5246Y39253D01*
X5246Y39253D01*
X5321Y39366D01*
X5348Y39500D01*
X5348Y39500D01*
X5348Y39500D01*
X5348Y39993D01*
X5512Y40157D01*
X5604Y40379D01*
X5604Y40619D01*
X5512Y40841D01*
X5342Y41012D01*
X5120Y41104D01*
X4880Y41104D01*
X4658Y41012D01*
X4487Y40842D01*
X4395Y40620D01*
X4395Y40380D01*
X4487Y40158D01*
X4651Y39993D01*
X4651Y39644D01*
X4355Y39348D01*
X3706Y39348D01*
X3706Y48631D01*
X3698Y48911D01*
X3607Y49129D01*
X3496Y49175D01*
X3425Y49105D01*
X3425Y49246D01*
X3379Y49357D01*
X3118Y49456D01*
X2838Y49448D01*
X2620Y49357D01*
X2574Y49246D01*
X3000Y48820D01*
X3425Y49246D01*
X3425Y49105D01*
X3070Y48750D01*
X3496Y48324D01*
X3607Y48370D01*
X3706Y48631D01*
X3706Y39348D01*
X3628Y39348D01*
X3628Y45400D01*
X3624Y45511D01*
X3624Y46675D01*
X3624Y47423D01*
X3586Y47515D01*
X3515Y47585D01*
X3425Y47623D01*
X3425Y48253D01*
X3000Y48679D01*
X2929Y48608D01*
X2929Y48750D01*
X2550Y49129D01*
X2550Y53707D01*
X2390Y54094D01*
X2095Y54389D01*
X1709Y54549D01*
X1292Y54550D01*
X906Y54390D01*
X610Y54095D01*
X450Y53709D01*
X449Y53292D01*
X609Y52906D01*
X904Y52610D01*
X1290Y52450D01*
X1707Y52449D01*
X2094Y52609D01*
X2389Y52904D01*
X2549Y53290D01*
X2550Y53707D01*
X2550Y49129D01*
X2503Y49175D01*
X2392Y49129D01*
X2293Y48868D01*
X2301Y48588D01*
X2392Y48370D01*
X2503Y48324D01*
X2929Y48750D01*
X2929Y48608D01*
X2574Y48253D01*
X2620Y48142D01*
X2881Y48043D01*
X3161Y48051D01*
X3379Y48142D01*
X3425Y48253D01*
X3425Y47623D01*
X3423Y47623D01*
X3324Y47624D01*
X2576Y47624D01*
X2484Y47586D01*
X2414Y47515D01*
X2376Y47423D01*
X2375Y47324D01*
X2375Y46576D01*
X2413Y46484D01*
X2484Y46414D01*
X2576Y46376D01*
X2675Y46375D01*
X3423Y46375D01*
X3515Y46413D01*
X3585Y46484D01*
X3623Y46576D01*
X3624Y46675D01*
X3624Y45511D01*
X3618Y45648D01*
X3542Y45832D01*
X3439Y45868D01*
X3368Y45798D01*
X3368Y45939D01*
X3332Y46042D01*
X3099Y46128D01*
X2851Y46118D01*
X2667Y46042D01*
X2631Y45939D01*
X3000Y45570D01*
X3368Y45939D01*
X3368Y45798D01*
X3070Y45500D01*
X3439Y45131D01*
X3542Y45167D01*
X3628Y45400D01*
X3628Y39348D01*
X3368Y39348D01*
X3368Y45060D01*
X3000Y45429D01*
X2929Y45358D01*
X2929Y45500D01*
X2560Y45868D01*
X2457Y45832D01*
X2371Y45599D01*
X2381Y45351D01*
X2457Y45167D01*
X2560Y45131D01*
X2929Y45500D01*
X2929Y45358D01*
X2631Y45060D01*
X2667Y44957D01*
X2900Y44871D01*
X3148Y44881D01*
X3332Y44957D01*
X3368Y45060D01*
X3368Y39348D01*
X2783Y39348D01*
X2783Y40892D01*
X2783Y41050D01*
X2783Y41150D01*
X2783Y41307D01*
X2783Y43692D01*
X2783Y43850D01*
X2783Y43950D01*
X2783Y44107D01*
X2711Y44365D01*
X2547Y44575D01*
X2315Y44707D01*
X2255Y44722D01*
X2150Y44676D01*
X2150Y43950D01*
X2783Y43950D01*
X2783Y43850D01*
X2150Y43850D01*
X2150Y43123D01*
X2255Y43077D01*
X2315Y43092D01*
X2547Y43224D01*
X2711Y43434D01*
X2783Y43692D01*
X2783Y41307D01*
X2711Y41565D01*
X2547Y41775D01*
X2315Y41907D01*
X2255Y41922D01*
X2150Y41876D01*
X2150Y41150D01*
X2783Y41150D01*
X2783Y41050D01*
X2150Y41050D01*
X2150Y40323D01*
X2255Y40277D01*
X2315Y40292D01*
X2547Y40424D01*
X2711Y40634D01*
X2783Y40892D01*
X2783Y39348D01*
X2750Y39348D01*
X2749Y39348D01*
X2616Y39321D01*
X2503Y39246D01*
X2503Y39246D01*
X2050Y38792D01*
X2050Y40323D01*
X2050Y41050D01*
X2042Y41050D01*
X2042Y41150D01*
X2050Y41150D01*
X2050Y41876D01*
X2050Y43123D01*
X2050Y43850D01*
X2042Y43850D01*
X2042Y43950D01*
X2050Y43950D01*
X2050Y44676D01*
X1944Y44722D01*
X1884Y44707D01*
X1652Y44575D01*
X1488Y44365D01*
X1416Y44107D01*
X1416Y44054D01*
X1300Y44120D01*
X1249Y44132D01*
X1150Y44085D01*
X1150Y43450D01*
X1157Y43450D01*
X1157Y43350D01*
X1150Y43350D01*
X1150Y42714D01*
X1249Y42667D01*
X1300Y42679D01*
X1519Y42803D01*
X1675Y43001D01*
X1726Y43182D01*
X1884Y43092D01*
X1944Y43077D01*
X2050Y43123D01*
X2050Y41876D01*
X1944Y41922D01*
X1884Y41907D01*
X1724Y41816D01*
X1694Y41967D01*
X1555Y42176D01*
X1346Y42315D01*
X1100Y42364D01*
X1050Y42354D01*
X1050Y42714D01*
X1050Y43350D01*
X1050Y43450D01*
X1050Y44085D01*
X950Y44132D01*
X899Y44120D01*
X680Y43996D01*
X524Y43798D01*
X456Y43556D01*
X456Y43450D01*
X1050Y43450D01*
X1050Y43350D01*
X456Y43350D01*
X456Y43243D01*
X524Y43001D01*
X680Y42803D01*
X899Y42679D01*
X950Y42667D01*
X1050Y42714D01*
X1050Y42354D01*
X853Y42315D01*
X644Y42176D01*
X505Y41967D01*
X456Y41720D01*
X456Y41479D01*
X505Y41232D01*
X644Y41023D01*
X853Y40884D01*
X1100Y40835D01*
X1346Y40884D01*
X1416Y40931D01*
X1416Y40892D01*
X1488Y40634D01*
X1652Y40424D01*
X1884Y40292D01*
X1944Y40277D01*
X2050Y40323D01*
X2050Y38792D01*
X503Y37246D01*
X428Y37133D01*
X423Y37111D01*
X401Y37000D01*
X401Y36999D01*
X401Y28250D01*
X401Y28250D01*
X423Y28138D01*
X428Y28116D01*
X503Y28003D01*
X1503Y27003D01*
X1503Y27003D01*
X1616Y26928D01*
X1750Y26901D01*
X3355Y26901D01*
X3651Y26605D01*
X3651Y26331D01*
X3604Y26299D01*
X3499Y26144D01*
X3395Y26299D01*
X3214Y26421D01*
X3000Y26463D01*
X2785Y26421D01*
X2604Y26299D01*
X2559Y26233D01*
X2559Y26249D01*
X2521Y26341D01*
X2451Y26412D01*
X2359Y26450D01*
X2112Y26450D01*
X2050Y26387D01*
X2050Y25800D01*
X2057Y25800D01*
X2057Y25700D01*
X2050Y25700D01*
X2050Y25692D01*
X1950Y25692D01*
X1950Y25700D01*
X1950Y25800D01*
X1950Y26387D01*
X1887Y26450D01*
X1640Y26450D01*
X1548Y26412D01*
X1478Y26341D01*
X1440Y26249D01*
X1439Y26150D01*
X1440Y25862D01*
X1502Y25800D01*
X1950Y25800D01*
X1950Y25700D01*
X1502Y25700D01*
X1440Y25637D01*
X1439Y25349D01*
X1440Y25250D01*
X1478Y25158D01*
X1538Y25098D01*
X1250Y25098D01*
X1249Y25098D01*
X1116Y25071D01*
X1003Y24996D01*
X1003Y24996D01*
X269Y24262D01*
X269Y54730D01*
X38980Y54730D01*
X38980Y50762D01*
M02*
