G04 (created by PCBNEW (2013-07-07 BZR 4022)-stable) date 19/03/2022 16:48:30*
%MOIN*%
G04 Gerber Fmt 3.4, Leading zero omitted, Abs format*
%FSLAX34Y34*%
G01*
G70*
G90*
G04 APERTURE LIST*
%ADD10C,0.00590551*%
%ADD11C,0.00393701*%
%ADD12O,0.189X0.177165*%
%ADD13O,0.204724X0.177165*%
%ADD14O,0.137795X0.189*%
%ADD15O,0.0866142X0.11811*%
%ADD16O,0.0787402X0.1*%
%ADD17R,0.0629921X0.0905512*%
%ADD18O,0.0629921X0.0905512*%
%ADD19C,0.0669291*%
%ADD20C,0.0708661*%
%ADD21R,0.0629921X0.0629921*%
%ADD22O,0.0629921X0.0748031*%
%ADD23O,0.0748031X0.0629921*%
%ADD24C,0.0649606*%
%ADD25C,0.0629921*%
%ADD26R,0.062X0.09*%
%ADD27O,0.062X0.09*%
%ADD28R,0.0708661X0.0708661*%
%ADD29R,0.035X0.055*%
%ADD30R,0.055X0.035*%
%ADD31C,0.0905512*%
%ADD32R,0.0905512X0.0905512*%
%ADD33R,0.0748031X0.0748031*%
%ADD34C,0.0748031*%
%ADD35C,0.102362*%
%ADD36R,0.11811X0.11811*%
%ADD37C,0.11811*%
%ADD38C,0.16*%
%ADD39O,0.0748031X0.0905512*%
G04 APERTURE END LIST*
G54D10*
G54D11*
X39250Y55000D02*
X0Y55000D01*
X0Y0D02*
X39250Y0D01*
X0Y0D02*
X0Y55000D01*
X39250Y55000D02*
X39250Y0D01*
G54D12*
X6750Y53250D03*
G54D13*
X6750Y50850D03*
G54D14*
X5050Y52350D03*
G54D15*
X2100Y41100D03*
G54D16*
X1100Y41600D03*
X1100Y43400D03*
G54D15*
X2100Y43900D03*
G54D17*
X24500Y6157D03*
G54D18*
X24500Y4842D03*
X23500Y6157D03*
X23500Y4842D03*
X22500Y6157D03*
X22500Y4842D03*
X21500Y6157D03*
X21500Y4842D03*
X20500Y6157D03*
X20500Y4842D03*
X19500Y6157D03*
X19500Y4842D03*
X18500Y6157D03*
X18500Y4842D03*
X17500Y6157D03*
X17500Y4842D03*
X16500Y6157D03*
X16500Y4842D03*
X15500Y6157D03*
X15500Y4842D03*
X14500Y6157D03*
X14500Y4842D03*
X13500Y6157D03*
X13500Y4842D03*
X12500Y6157D03*
X12500Y4842D03*
X11500Y6157D03*
X11500Y4842D03*
X10500Y6157D03*
X10500Y4842D03*
X9500Y6157D03*
X9500Y4842D03*
X8500Y6157D03*
X8500Y4842D03*
G54D17*
X20750Y49592D03*
G54D18*
X20750Y50907D03*
X21750Y49592D03*
X21750Y50907D03*
X22750Y49592D03*
X22750Y50907D03*
X23750Y49592D03*
X23750Y50907D03*
X24750Y49592D03*
X24750Y50907D03*
X25750Y49592D03*
X25750Y50907D03*
X26750Y49592D03*
X26750Y50907D03*
X27750Y49592D03*
X27750Y50907D03*
X28750Y49592D03*
X28750Y50907D03*
X29750Y49592D03*
X29750Y50907D03*
X30750Y49592D03*
X30750Y50907D03*
X31750Y49592D03*
X31750Y50907D03*
X32750Y49592D03*
X32750Y50907D03*
X33750Y49592D03*
X33750Y50907D03*
X34750Y49592D03*
X34750Y50907D03*
X35750Y49592D03*
X35750Y50907D03*
X36750Y49592D03*
X36750Y50907D03*
G54D19*
X16750Y44750D03*
X16750Y47750D03*
G54D20*
X9000Y38000D03*
X6000Y38000D03*
X3000Y32500D03*
X6000Y32500D03*
X8000Y40500D03*
X5000Y40500D03*
G54D19*
X13500Y53250D03*
X13500Y50250D03*
X14750Y53250D03*
X14750Y50250D03*
X16000Y53250D03*
X16000Y50250D03*
X17250Y53250D03*
X17250Y50250D03*
G54D21*
X28500Y30250D03*
G54D22*
X28500Y29171D03*
X27500Y30328D03*
X27500Y29171D03*
X26500Y30328D03*
X26500Y29171D03*
X25500Y30328D03*
X25500Y29171D03*
X24500Y30328D03*
X24500Y29171D03*
X23500Y30328D03*
G54D23*
X22421Y29250D03*
G54D19*
X23500Y29250D03*
G54D23*
X22421Y28250D03*
X23578Y28250D03*
X22421Y27250D03*
X23578Y27250D03*
X22421Y26250D03*
X23578Y26250D03*
X22421Y25250D03*
X23578Y25250D03*
X22421Y24250D03*
X23578Y24250D03*
X22421Y23250D03*
X23578Y23250D03*
X22421Y22250D03*
X23578Y22250D03*
X22421Y21250D03*
X23578Y21250D03*
X22421Y20250D03*
X23578Y20250D03*
X22421Y19250D03*
G54D22*
X23500Y18171D03*
G54D24*
X23500Y19250D03*
G54D22*
X24500Y18171D03*
X24500Y19328D03*
X25500Y18171D03*
X25500Y19328D03*
X26500Y18171D03*
X26500Y19328D03*
X27500Y18171D03*
X27500Y19328D03*
X28500Y18171D03*
X28500Y19328D03*
X29500Y18171D03*
X29500Y19328D03*
X30500Y18171D03*
X30500Y19328D03*
X31500Y18171D03*
X31500Y19328D03*
X32500Y18171D03*
X32500Y19328D03*
X33500Y18171D03*
G54D23*
X34578Y19250D03*
G54D24*
X33500Y19250D03*
G54D23*
X34578Y20250D03*
X33421Y20250D03*
X34578Y21250D03*
X33421Y21250D03*
X34578Y22250D03*
X33421Y22250D03*
X34578Y23250D03*
X33421Y23250D03*
X34578Y24250D03*
X33421Y24250D03*
X34578Y25250D03*
X33421Y25250D03*
X34578Y26250D03*
X33421Y26250D03*
X34578Y27250D03*
X33421Y27250D03*
X34578Y28250D03*
X33421Y28250D03*
X34578Y29250D03*
G54D22*
X33500Y30328D03*
G54D25*
X33500Y29250D03*
G54D22*
X32500Y30328D03*
X32500Y29171D03*
X31500Y30328D03*
X31500Y29171D03*
X30500Y30328D03*
X30500Y29171D03*
X29500Y30328D03*
X29500Y29171D03*
G54D26*
X11750Y39250D03*
G54D27*
X12750Y39250D03*
X13750Y39250D03*
X14750Y39250D03*
X14750Y42250D03*
X13750Y42250D03*
X12750Y42250D03*
X11750Y42250D03*
G54D26*
X17750Y36250D03*
G54D27*
X18750Y36250D03*
X19750Y36250D03*
X20750Y36250D03*
X21750Y36250D03*
X22750Y36250D03*
X23750Y36250D03*
X24750Y36250D03*
X25750Y36250D03*
X26750Y36250D03*
X27750Y36250D03*
X28750Y36250D03*
X29750Y36250D03*
X30750Y36250D03*
X31750Y36250D03*
X32750Y36250D03*
X33750Y36250D03*
X34750Y36250D03*
X35750Y36250D03*
X36750Y36250D03*
X36750Y42250D03*
X35750Y42250D03*
X34750Y42250D03*
X33750Y42250D03*
X32750Y42250D03*
X31750Y42250D03*
X30750Y42250D03*
X29750Y42250D03*
X28750Y42250D03*
X27750Y42250D03*
X26750Y42250D03*
X25750Y42250D03*
X24750Y42250D03*
X23750Y42250D03*
X22750Y42250D03*
X21750Y42250D03*
X20750Y42250D03*
X19750Y42250D03*
X18750Y42250D03*
X17750Y42250D03*
G54D26*
X2000Y16750D03*
G54D27*
X3000Y16750D03*
X4000Y16750D03*
X5000Y16750D03*
X6000Y16750D03*
X7000Y16750D03*
X8000Y16750D03*
X9000Y16750D03*
X10000Y16750D03*
X11000Y16750D03*
X12000Y16750D03*
X13000Y16750D03*
X14000Y16750D03*
X15000Y16750D03*
X15000Y22750D03*
X14000Y22750D03*
X13000Y22750D03*
X12000Y22750D03*
X11000Y22750D03*
X10000Y22750D03*
X9000Y22750D03*
X8000Y22750D03*
X7000Y22750D03*
X6000Y22750D03*
X5000Y22750D03*
X4000Y22750D03*
X3000Y22750D03*
X2000Y22750D03*
G54D26*
X26500Y9500D03*
G54D27*
X27500Y9500D03*
X28500Y9500D03*
X29500Y9500D03*
X30500Y9500D03*
X31500Y9500D03*
X32500Y9500D03*
X33500Y9500D03*
X34500Y9500D03*
X35500Y9500D03*
X35500Y12500D03*
X34500Y12500D03*
X33500Y12500D03*
X32500Y12500D03*
X31500Y12500D03*
X30500Y12500D03*
X29500Y12500D03*
X28500Y12500D03*
X27500Y12500D03*
X26500Y12500D03*
G54D26*
X2000Y9500D03*
G54D27*
X3000Y9500D03*
X4000Y9500D03*
X5000Y9500D03*
X6000Y9500D03*
X7000Y9500D03*
X8000Y9500D03*
X9000Y9500D03*
X10000Y9500D03*
X11000Y9500D03*
X11000Y12500D03*
X10000Y12500D03*
X9000Y12500D03*
X8000Y12500D03*
X7000Y12500D03*
X6000Y12500D03*
X5000Y12500D03*
X4000Y12500D03*
X3000Y12500D03*
X2000Y12500D03*
G54D26*
X14250Y9500D03*
G54D27*
X15250Y9500D03*
X16250Y9500D03*
X17250Y9500D03*
X18250Y9500D03*
X19250Y9500D03*
X20250Y9500D03*
X21250Y9500D03*
X22250Y9500D03*
X23250Y9500D03*
X23250Y12500D03*
X22250Y12500D03*
X21250Y12500D03*
X20250Y12500D03*
X19250Y12500D03*
X18250Y12500D03*
X17250Y12500D03*
X16250Y12500D03*
X15250Y12500D03*
X14250Y12500D03*
G54D26*
X2000Y25750D03*
G54D27*
X3000Y25750D03*
X4000Y25750D03*
X5000Y25750D03*
X6000Y25750D03*
X7000Y25750D03*
X8000Y25750D03*
X9000Y25750D03*
X10000Y25750D03*
X11000Y25750D03*
X11000Y28750D03*
X10000Y28750D03*
X9000Y28750D03*
X8000Y28750D03*
X7000Y28750D03*
X6000Y28750D03*
X5000Y28750D03*
X4000Y28750D03*
X3000Y28750D03*
X2000Y28750D03*
G54D26*
X19750Y44750D03*
G54D27*
X20750Y44750D03*
X21750Y44750D03*
X22750Y44750D03*
X23750Y44750D03*
X24750Y44750D03*
X25750Y44750D03*
X26750Y44750D03*
X26750Y47750D03*
X25750Y47750D03*
X24750Y47750D03*
X23750Y47750D03*
X22750Y47750D03*
X21750Y47750D03*
X20750Y47750D03*
X19750Y47750D03*
G54D26*
X2000Y33750D03*
G54D27*
X3000Y33750D03*
X4000Y33750D03*
X5000Y33750D03*
X6000Y33750D03*
X7000Y33750D03*
X8000Y33750D03*
X9000Y33750D03*
X9000Y36750D03*
X8000Y36750D03*
X7000Y36750D03*
X6000Y36750D03*
X5000Y36750D03*
X4000Y36750D03*
X3000Y36750D03*
X2000Y36750D03*
G54D26*
X30750Y44750D03*
G54D27*
X31750Y44750D03*
X32750Y44750D03*
X33750Y44750D03*
X34750Y44750D03*
X35750Y44750D03*
X36750Y44750D03*
X36750Y47750D03*
X35750Y47750D03*
X34750Y47750D03*
X33750Y47750D03*
X32750Y47750D03*
X31750Y47750D03*
X30750Y47750D03*
G54D28*
X5500Y42000D03*
G54D20*
X5500Y43000D03*
X8000Y32500D03*
X7000Y32500D03*
X3000Y38000D03*
X4000Y38000D03*
G54D28*
X18250Y26250D03*
G54D20*
X15250Y26250D03*
X15250Y32250D03*
X18250Y32250D03*
G54D19*
X18000Y44750D03*
X18000Y47750D03*
G54D29*
X36125Y41000D03*
X36875Y41000D03*
X26625Y21000D03*
X27375Y21000D03*
G54D30*
X25500Y25375D03*
X25500Y26125D03*
X31750Y23875D03*
X31750Y23125D03*
G54D29*
X29625Y27500D03*
X30375Y27500D03*
G54D31*
X3000Y48750D03*
G54D32*
X7000Y48750D03*
G54D33*
X3000Y47000D03*
G54D34*
X3000Y45500D03*
G54D30*
X14250Y11375D03*
X14250Y10625D03*
X2000Y11375D03*
X2000Y10625D03*
X11750Y41125D03*
X11750Y40375D03*
G54D29*
X2125Y29750D03*
X2875Y29750D03*
G54D35*
X15250Y35000D03*
X11250Y36000D03*
X15250Y37000D03*
G54D36*
X11250Y47750D03*
G54D37*
X13250Y47750D03*
G54D38*
X1500Y53500D03*
X37750Y53500D03*
X37750Y1500D03*
X1500Y1500D03*
G54D19*
X35750Y4750D03*
X35750Y7750D03*
X37000Y4750D03*
X37000Y7750D03*
X34500Y7750D03*
X34500Y4750D03*
G54D30*
X19750Y48625D03*
X19750Y49375D03*
G54D29*
X29875Y47750D03*
X29125Y47750D03*
G54D33*
X5500Y6000D03*
G54D34*
X5500Y5000D03*
G54D29*
X26575Y11200D03*
X27325Y11200D03*
G54D19*
X21000Y25750D03*
X21000Y28750D03*
X15500Y47750D03*
X15500Y44750D03*
X36850Y20350D03*
X36850Y17350D03*
G54D39*
X34550Y16000D03*
X33550Y16000D03*
M02*
