M48
;DRILL file {Pcbnew (2013-07-07 BZR 4022)-stable} date 19/03/2022 16:48:32
;FORMAT={-:-/ absolute / inch / decimal}
FMAT,2
INCH,TZ
T1C0.025
T2C0.031
T3C0.032
T4C0.040
T5C0.043
T6C0.047
T7C0.050
T8C0.059
T9C0.120
%
G90
G05
M72
T1
X0.375Y0.325
X0.55Y2.675
X0.625Y1.975
X0.75Y1.975
X0.825Y3.5
X1.15Y1.525
X1.25Y2.65
X1.25Y0.875
X1.325Y2.975
X1.325Y2.525
X1.625Y3.85
X1.65Y1.85
X1.8Y4.075
X1.8Y4.
X1.825Y3.85
X1.825Y2.375
X1.825Y1.525
X1.9Y3.925
X1.925Y2.375
X2.Y3.275
X2.025Y1.775
X2.2Y0.775
X2.225Y3.925
X2.275Y1.15
X2.35Y0.8
X2.5Y1.075
X2.55Y2.75
X2.55Y2.3
X2.575Y3.925
X2.6Y2.075
X2.725Y4.025
X2.725Y3.875
X2.825Y2.75
X2.825Y0.575
X2.95Y3.775
X3.Y3.525
X3.075Y0.55
X3.1Y4.
X3.125Y4.375
X3.175Y4.325
X3.175Y3.525
X3.175Y2.775
X3.175Y2.475
X3.225Y2.05
X3.3Y0.55
X3.45Y3.3
X3.525Y4.325
X3.55Y3.3
X3.625Y4.375
X3.7Y3.2
X3.7Y2.525
X3.7Y2.425
X3.7Y2.325
X3.7Y2.225
T2
X3.8Y4.9
T3
X0.2Y3.675
X0.2Y3.375
X0.2Y2.875
X0.2Y2.575
X0.2Y2.275
X0.2Y1.675
X0.2Y1.25
X0.2Y0.95
X0.225Y0.55
X0.3Y4.7
X0.3Y4.55
X0.3Y3.8
X0.3Y3.675
X0.3Y3.375
X0.3Y3.25
X0.3Y2.875
X0.3Y2.575
X0.3Y2.275
X0.3Y1.675
X0.3Y1.25
X0.3Y0.95
X0.4Y3.8
X0.4Y3.675
X0.4Y3.375
X0.4Y2.875
X0.4Y2.575
X0.4Y2.275
X0.4Y1.675
X0.4Y1.25
X0.4Y0.95
X0.5Y4.05
X0.5Y3.675
X0.5Y3.375
X0.5Y2.875
X0.5Y2.575
X0.5Y2.275
X0.5Y1.675
X0.5Y1.25
X0.5Y0.95
X0.55Y4.3
X0.55Y4.2
X0.55Y0.6
X0.55Y0.5
X0.6Y3.8
X0.6Y3.675
X0.6Y3.375
X0.6Y3.25
X0.6Y2.875
X0.6Y2.575
X0.6Y2.275
X0.6Y1.675
X0.6Y1.25
X0.6Y0.95
X0.7Y3.675
X0.7Y3.375
X0.7Y3.25
X0.7Y2.875
X0.7Y2.575
X0.7Y2.275
X0.7Y1.675
X0.7Y1.25
X0.7Y0.95
X0.8Y4.05
X0.8Y3.675
X0.8Y3.375
X0.8Y3.25
X0.8Y2.875
X0.8Y2.575
X0.8Y2.275
X0.8Y1.675
X0.8Y1.25
X0.8Y0.95
X0.9Y3.8
X0.9Y3.675
X0.9Y3.375
X0.9Y2.875
X0.9Y2.575
X0.9Y2.275
X0.9Y1.675
X0.9Y1.25
X0.9Y0.95
X1.Y2.875
X1.Y2.575
X1.Y2.275
X1.Y1.675
X1.Y1.25
X1.Y0.95
X1.1Y2.875
X1.1Y2.575
X1.1Y2.275
X1.1Y1.675
X1.1Y1.25
X1.1Y0.95
X1.175Y4.225
X1.175Y3.925
X1.2Y2.275
X1.2Y1.675
X1.275Y4.225
X1.275Y3.925
X1.275Y3.15
X1.3Y2.275
X1.3Y1.675
X1.35Y5.325
X1.35Y5.025
X1.375Y4.225
X1.375Y3.925
X1.4Y2.275
X1.4Y1.675
X1.425Y1.25
X1.425Y0.95
X1.475Y5.325
X1.475Y5.025
X1.475Y4.225
X1.475Y3.925
X1.5Y2.275
X1.5Y1.675
X1.525Y3.225
X1.525Y2.625
X1.525Y1.25
X1.525Y0.95
X1.55Y4.775
X1.55Y4.475
X1.6Y5.325
X1.6Y5.025
X1.625Y1.25
X1.625Y0.95
X1.675Y4.775
X1.675Y4.475
X1.725Y5.325
X1.725Y5.025
X1.725Y1.25
X1.725Y0.95
X1.775Y4.225
X1.775Y3.625
X1.8Y4.775
X1.8Y4.475
X1.825Y3.225
X1.825Y2.625
X1.825Y1.25
X1.825Y0.95
X1.875Y4.225
X1.875Y3.625
X1.925Y1.25
X1.925Y0.95
X1.975Y4.775
X1.975Y4.475
X1.975Y4.225
X1.975Y3.625
X2.025Y1.25
X2.025Y0.95
X2.075Y4.775
X2.075Y4.475
X2.075Y4.225
X2.075Y3.625
X2.075Y3.125
X2.1Y2.875
X2.1Y2.575
X2.125Y1.25
X2.125Y0.95
X2.175Y4.775
X2.175Y4.475
X2.175Y4.225
X2.175Y3.625
X2.225Y1.25
X2.225Y0.95
X2.25Y2.925
X2.25Y2.825
X2.25Y2.725
X2.25Y2.625
X2.25Y2.525
X2.25Y2.425
X2.25Y2.325
X2.25Y2.225
X2.25Y2.125
X2.25Y2.025
X2.25Y1.925
X2.275Y4.775
X2.275Y4.475
X2.275Y4.225
X2.275Y3.625
X2.325Y1.25
X2.325Y0.95
X2.35Y3.025
X2.35Y2.925
X2.35Y2.825
X2.35Y2.725
X2.35Y2.625
X2.35Y2.525
X2.35Y2.425
X2.35Y2.325
X2.35Y2.225
X2.35Y2.125
X2.35Y2.025
X2.35Y1.925
X2.35Y1.825
X2.375Y4.775
X2.375Y4.475
X2.375Y4.225
X2.375Y3.625
X2.45Y3.025
X2.45Y2.925
X2.45Y1.925
X2.45Y1.825
X2.475Y4.775
X2.475Y4.475
X2.475Y4.225
X2.475Y3.625
X2.55Y3.025
X2.55Y2.925
X2.55Y1.925
X2.55Y1.825
X2.575Y4.775
X2.575Y4.475
X2.575Y4.225
X2.575Y3.625
X2.575Y3.175
X2.65Y3.025
X2.65Y2.925
X2.65Y1.925
X2.65Y1.825
X2.65Y1.25
X2.65Y0.95
X2.675Y4.775
X2.675Y4.475
X2.675Y4.225
X2.675Y3.625
X2.75Y3.025
X2.75Y2.925
X2.75Y1.925
X2.75Y1.825
X2.75Y1.25
X2.75Y0.95
X2.775Y4.225
X2.775Y3.625
X2.85Y3.025
X2.85Y2.925
X2.85Y1.925
X2.85Y1.825
X2.85Y1.25
X2.85Y0.95
X2.875Y4.225
X2.875Y3.625
X2.95Y3.025
X2.95Y2.925
X2.95Y1.925
X2.95Y1.825
X2.95Y1.25
X2.95Y0.95
X2.975Y4.225
X2.975Y3.625
X3.05Y3.025
X3.05Y2.925
X3.05Y1.925
X3.05Y1.825
X3.05Y1.25
X3.05Y0.95
X3.075Y4.775
X3.075Y4.475
X3.075Y4.225
X3.075Y3.625
X3.15Y3.025
X3.15Y2.925
X3.15Y1.925
X3.15Y1.825
X3.15Y1.25
X3.15Y0.95
X3.175Y4.775
X3.175Y4.475
X3.175Y4.225
X3.175Y3.625
X3.25Y3.025
X3.25Y2.925
X3.25Y1.925
X3.25Y1.825
X3.25Y1.25
X3.25Y0.95
X3.275Y4.775
X3.275Y4.475
X3.275Y4.225
X3.275Y3.625
X3.35Y3.025
X3.35Y2.925
X3.35Y2.825
X3.35Y2.725
X3.35Y2.625
X3.35Y2.525
X3.35Y2.425
X3.35Y2.325
X3.35Y2.225
X3.35Y2.125
X3.35Y2.025
X3.35Y1.925
X3.35Y1.825
X3.35Y1.25
X3.35Y0.95
X3.375Y4.775
X3.375Y4.475
X3.375Y4.225
X3.375Y3.625
X3.45Y2.925
X3.45Y2.825
X3.45Y2.725
X3.45Y2.625
X3.45Y2.525
X3.45Y2.425
X3.45Y2.325
X3.45Y2.225
X3.45Y2.125
X3.45Y2.025
X3.45Y1.925
X3.45Y1.25
X3.45Y0.95
X3.45Y0.775
X3.45Y0.475
X3.475Y4.775
X3.475Y4.475
X3.475Y4.225
X3.475Y3.625
X3.55Y1.25
X3.55Y0.95
X3.575Y4.775
X3.575Y4.475
X3.575Y4.225
X3.575Y3.625
X3.575Y0.775
X3.575Y0.475
X3.675Y4.775
X3.675Y4.475
X3.675Y4.225
X3.675Y3.625
X3.685Y2.83
X3.685Y2.035
X3.685Y1.735
X3.7Y0.775
X3.7Y0.475
T4
X0.11Y4.34
X0.11Y4.16
X0.3Y4.875
X0.7Y4.875
X0.85Y0.6
X0.85Y0.5
X0.95Y0.6
X0.95Y0.5
X1.05Y0.6
X1.05Y0.5
X1.15Y0.6
X1.15Y0.5
X1.25Y0.6
X1.25Y0.5
X1.35Y0.6
X1.35Y0.5
X1.45Y0.6
X1.45Y0.5
X1.55Y0.6
X1.55Y0.5
X1.65Y0.6
X1.65Y0.5
X1.75Y0.6
X1.75Y0.5
X1.85Y0.6
X1.85Y0.5
X1.95Y0.6
X1.95Y0.5
X2.05Y0.6
X2.05Y0.5
X2.075Y5.075
X2.075Y4.975
X2.15Y0.6
X2.15Y0.5
X2.175Y5.075
X2.175Y4.975
X2.25Y0.6
X2.25Y0.5
X2.275Y5.075
X2.275Y4.975
X2.35Y0.6
X2.35Y0.5
X2.375Y5.075
X2.375Y4.975
X2.45Y0.6
X2.45Y0.5
X2.475Y5.075
X2.475Y4.975
X2.575Y5.075
X2.575Y4.975
X2.675Y5.075
X2.675Y4.975
X2.775Y5.075
X2.775Y4.975
X2.875Y5.075
X2.875Y4.975
X2.975Y5.075
X2.975Y4.975
X3.075Y5.075
X3.075Y4.975
X3.175Y5.075
X3.175Y4.975
X3.275Y5.075
X3.275Y4.975
X3.355Y1.6
X3.375Y5.075
X3.375Y4.975
X3.455Y1.6
X3.475Y5.075
X3.475Y4.975
X3.575Y5.075
X3.575Y4.975
X3.675Y5.075
X3.675Y4.975
T6
X1.125Y4.775
X1.325Y4.775
T7
X1.125Y3.6
X1.525Y3.7
X1.525Y3.5
T8
X0.21Y4.39
X0.21Y4.11
T9
X0.15Y5.35
X0.15Y0.15
X3.775Y5.35
X3.775Y0.15
T4
X0.7042Y5.325G85X0.6458Y5.325
G05
X0.718Y5.085G85X0.632Y5.085
G05
T5
X0.505Y5.2685G85X0.505Y5.2015
G05
T0
M30
