M48
; DRILL file {KiCad (5.1.12)-1} date 03/19/22 11:08:19
; FORMAT={-:-/ absolute / inch / decimal}
; #@! TF.CreationDate,2022-03-19T11:08:19+01:00
; #@! TF.GenerationSoftware,Kicad,Pcbnew,(5.1.12)-1
; #@! TF.FileFunction,Plated,1,2,PTH
FMAT,2
INCH
T1C0.0197
T2C0.0315
T3C0.0394
%
G90
G05
T1
X0.175Y1.15
X0.175Y0.15
X0.275Y0.15
X0.625Y0.625
X0.9Y0.9
X1.175Y0.7
X1.3Y1.275
X1.3Y0.925
X1.3Y0.85
X1.35Y0.75
X1.375Y1.05
X1.5Y1.35
X1.5Y0.975
X1.525Y0.7
X1.825Y0.85
X1.9Y0.825
T2
X0.175Y1.75
X0.175Y1.45
X0.175Y1.275
X0.175Y0.975
X0.175Y0.8
X0.175Y0.5
X0.275Y1.75
X0.275Y1.45
X0.275Y1.275
X0.275Y0.975
X0.275Y0.8
X0.275Y0.5
X0.375Y1.75
X0.375Y1.45
X0.375Y1.275
X0.375Y0.975
X0.375Y0.8
X0.375Y0.5
X0.475Y1.75
X0.475Y1.45
X0.475Y1.275
X0.475Y0.975
X0.475Y0.8
X0.475Y0.5
X0.575Y1.75
X0.575Y1.45
X0.575Y1.275
X0.575Y0.975
X0.575Y0.8
X0.575Y0.5
X0.675Y1.75
X0.675Y1.45
X0.675Y1.275
X0.675Y0.975
X0.675Y0.8
X0.675Y0.5
X0.775Y1.75
X0.775Y1.45
X0.775Y1.275
X0.775Y0.975
X0.775Y0.8
X0.775Y0.5
X0.92Y1.45
X0.92Y1.05
X0.925Y1.6484
X0.925Y1.55
X0.925Y0.7469
X0.925Y0.55
X1.1Y1.75
X1.1Y1.65
X1.1Y1.55
X1.1Y1.45
X1.1Y1.35
X1.1Y1.25
X1.1Y1.15
X1.1Y1.05
X1.1Y0.95
X1.1Y0.85
X1.1Y0.75
X1.1Y0.65
X1.1Y0.55
X1.1Y0.45
X1.7Y1.75
X1.7Y1.65
X1.7Y1.55
X1.7Y1.45
X1.7Y1.35
X1.7Y1.25
X1.7Y1.15
X1.7Y1.05
X1.7Y0.95
X1.7Y0.85
X1.7Y0.75
X1.7Y0.65
X1.7Y0.55
X1.7Y0.45
X1.975Y0.65
X1.975Y0.375
X1.9781Y0.525
X2.0Y1.5
X2.0Y1.1
X2.0Y0.9969
X2.0Y0.8
X2.125Y1.5
X2.125Y1.1
X2.125Y0.9969
X2.125Y0.8
X2.175Y0.525
X2.25Y1.5
X2.25Y1.1
X2.25Y0.9969
X2.25Y0.8
X2.275Y0.375
X2.375Y1.5
X2.375Y1.1
X2.375Y0.9969
X2.375Y0.8
X2.375Y0.65
X2.5Y1.5
X2.5Y1.1
X2.5Y0.9969
X2.5Y0.8
X2.6213Y0.525
X2.625Y1.5
X2.625Y1.1
X2.625Y0.9969
X2.625Y0.8
X2.7Y0.525
X2.75Y1.5
X2.75Y1.1
X2.75Y0.9969
X2.75Y0.8
X2.875Y1.5
X2.875Y1.1
X2.875Y1.0
X2.875Y0.8031
T3
X0.275Y0.35
X0.375Y0.35
X0.475Y0.35
X0.7Y0.225
X0.7Y0.125
X0.8Y0.225
X0.8Y0.125
X0.9Y0.225
X0.9Y0.125
X1.0Y0.225
X1.0Y0.125
X1.1Y0.225
X1.1Y0.125
X1.2Y0.225
X1.2Y0.125
X1.3Y0.225
X1.3Y0.125
X1.4Y0.225
X1.4Y0.125
X1.5Y0.225
X1.5Y0.125
X1.6Y0.225
X1.6Y0.125
X1.7Y0.225
X1.7Y0.125
X1.8Y0.225
X1.8Y0.125
X1.9Y0.225
X1.9Y0.125
X1.95Y1.775
X2.0Y0.225
X2.0Y0.125
X2.05Y1.775
X2.1Y0.225
X2.1Y0.125
X2.15Y1.775
X2.2Y0.225
X2.2Y0.125
X2.25Y1.775
X2.3Y0.225
X2.3Y0.125
X2.35Y1.775
X2.45Y1.775
X2.55Y1.775
X2.65Y1.775
X2.75Y1.775
X2.85Y1.775
T0
M30
