%TF.GenerationSoftware,KiCad,Pcbnew,(5.1.12)-1*%
%TF.CreationDate,2022-03-19T11:08:17+01:00*%
%TF.ProjectId,8EA,3845412e-6b69-4636-9164-5f7063625858,1.0*%
%TF.SameCoordinates,PX6d01460PY60e4b00*%
%TF.FileFunction,Legend,Top*%
%TF.FilePolarity,Positive*%
%FSLAX46Y46*%
G04 Gerber Fmt 4.6, Leading zero omitted, Abs format (unit mm)*
G04 Created by KiCad (PCBNEW (5.1.12)-1) date 2022-03-19 11:08:17*
%MOMM*%
%LPD*%
G01*
G04 APERTURE LIST*
%ADD10C,0.200000*%
%ADD11C,0.250000*%
%ADD12C,0.150000*%
%ADD13C,0.120000*%
G04 APERTURE END LIST*
D10*
X14198809Y7947143D02*
X13936904Y7947143D01*
X13936904Y9661429D01*
X14198809Y9661429D01*
X14513095Y9547143D02*
X15194047Y9547143D01*
X14827380Y9090000D01*
X14984523Y9090000D01*
X15089285Y9032858D01*
X15141666Y8975715D01*
X15194047Y8861429D01*
X15194047Y8575715D01*
X15141666Y8461429D01*
X15089285Y8404286D01*
X14984523Y8347143D01*
X14670238Y8347143D01*
X14565476Y8404286D01*
X14513095Y8461429D01*
X16032142Y8975715D02*
X15665476Y8975715D01*
X15665476Y8347143D02*
X15665476Y9547143D01*
X16189285Y9547143D01*
X16660714Y8347143D02*
X16870238Y8347143D01*
X16975000Y8404286D01*
X17027380Y8461429D01*
X17132142Y8632858D01*
X17184523Y8861429D01*
X17184523Y9318572D01*
X17132142Y9432858D01*
X17079761Y9490000D01*
X16975000Y9547143D01*
X16765476Y9547143D01*
X16660714Y9490000D01*
X16608333Y9432858D01*
X16555952Y9318572D01*
X16555952Y9032858D01*
X16608333Y8918572D01*
X16660714Y8861429D01*
X16765476Y8804286D01*
X16975000Y8804286D01*
X17079761Y8861429D01*
X17132142Y8918572D01*
X17184523Y9032858D01*
X17551190Y7947143D02*
X17813095Y7947143D01*
X17813095Y9661429D01*
X17551190Y9661429D01*
X48310095Y38581334D02*
X49610095Y38948000D01*
X48310095Y39314667D01*
X49610095Y40309905D02*
X48991047Y39943239D01*
X49610095Y39681334D02*
X48310095Y39681334D01*
X48310095Y40100381D01*
X48372000Y40205143D01*
X48433904Y40257524D01*
X48557714Y40309905D01*
X48743428Y40309905D01*
X48867238Y40257524D01*
X48929142Y40205143D01*
X48991047Y40100381D01*
X48991047Y39681334D01*
X48929142Y40781334D02*
X48929142Y41148000D01*
X49610095Y41305143D02*
X49610095Y40781334D01*
X48310095Y40781334D01*
X48310095Y41305143D01*
X48929142Y42143239D02*
X48929142Y41776572D01*
X49610095Y41776572D02*
X48310095Y41776572D01*
X48310095Y42300381D01*
X49114857Y42719429D02*
X49114857Y43557524D01*
X49610095Y43138477D02*
X48619619Y43138477D01*
X72948095Y39343334D02*
X74248095Y39710000D01*
X72948095Y40076667D01*
X74248095Y41071905D02*
X73629047Y40705239D01*
X74248095Y40443334D02*
X72948095Y40443334D01*
X72948095Y40862381D01*
X73010000Y40967143D01*
X73071904Y41019524D01*
X73195714Y41071905D01*
X73381428Y41071905D01*
X73505238Y41019524D01*
X73567142Y40967143D01*
X73629047Y40862381D01*
X73629047Y40443334D01*
X73567142Y41543334D02*
X73567142Y41910000D01*
X74248095Y42067143D02*
X74248095Y41543334D01*
X72948095Y41543334D01*
X72948095Y42067143D01*
X73567142Y42905239D02*
X73567142Y42538572D01*
X74248095Y42538572D02*
X72948095Y42538572D01*
X72948095Y43062381D01*
X73752857Y43481429D02*
X73752857Y44319524D01*
X70438095Y40610000D02*
X69138095Y40610000D01*
X70438095Y41229048D02*
X69138095Y41229048D01*
X70438095Y41971905D01*
X69138095Y41971905D01*
X69138095Y42467143D02*
X69138095Y43333810D01*
X70438095Y42776667D01*
X62818095Y40610000D02*
X61518095Y40610000D01*
X62818095Y41229048D02*
X61518095Y41229048D01*
X62818095Y41971905D01*
X61518095Y41971905D01*
X61951428Y43148096D02*
X62818095Y43148096D01*
X61456190Y42838572D02*
X62384761Y42529048D01*
X62384761Y43333810D01*
X67898095Y40610000D02*
X66598095Y40610000D01*
X67898095Y41229048D02*
X66598095Y41229048D01*
X67898095Y41971905D01*
X66598095Y41971905D01*
X66598095Y43148096D02*
X66598095Y42900477D01*
X66660000Y42776667D01*
X66721904Y42714762D01*
X66907619Y42590953D01*
X67155238Y42529048D01*
X67650476Y42529048D01*
X67774285Y42590953D01*
X67836190Y42652858D01*
X67898095Y42776667D01*
X67898095Y43024286D01*
X67836190Y43148096D01*
X67774285Y43210000D01*
X67650476Y43271905D01*
X67340952Y43271905D01*
X67217142Y43210000D01*
X67155238Y43148096D01*
X67093333Y43024286D01*
X67093333Y42776667D01*
X67155238Y42652858D01*
X67217142Y42590953D01*
X67340952Y42529048D01*
X65358095Y40610000D02*
X64058095Y40610000D01*
X65358095Y41229048D02*
X64058095Y41229048D01*
X65358095Y41971905D01*
X64058095Y41971905D01*
X64058095Y43210000D02*
X64058095Y42590953D01*
X64677142Y42529048D01*
X64615238Y42590953D01*
X64553333Y42714762D01*
X64553333Y43024286D01*
X64615238Y43148096D01*
X64677142Y43210000D01*
X64800952Y43271905D01*
X65110476Y43271905D01*
X65234285Y43210000D01*
X65296190Y43148096D01*
X65358095Y43024286D01*
X65358095Y42714762D01*
X65296190Y42590953D01*
X65234285Y42529048D01*
X60278095Y40610000D02*
X58978095Y40610000D01*
X60278095Y41229048D02*
X58978095Y41229048D01*
X60278095Y41971905D01*
X58978095Y41971905D01*
X58978095Y42467143D02*
X58978095Y43271905D01*
X59473333Y42838572D01*
X59473333Y43024286D01*
X59535238Y43148096D01*
X59597142Y43210000D01*
X59720952Y43271905D01*
X60030476Y43271905D01*
X60154285Y43210000D01*
X60216190Y43148096D01*
X60278095Y43024286D01*
X60278095Y42652858D01*
X60216190Y42529048D01*
X60154285Y42467143D01*
X57738095Y40610000D02*
X56438095Y40610000D01*
X57738095Y41229048D02*
X56438095Y41229048D01*
X57738095Y41971905D01*
X56438095Y41971905D01*
X56561904Y42529048D02*
X56500000Y42590953D01*
X56438095Y42714762D01*
X56438095Y43024286D01*
X56500000Y43148096D01*
X56561904Y43210000D01*
X56685714Y43271905D01*
X56809523Y43271905D01*
X56995238Y43210000D01*
X57738095Y42467143D01*
X57738095Y43271905D01*
X55198095Y40610000D02*
X53898095Y40610000D01*
X55198095Y41229048D02*
X53898095Y41229048D01*
X55198095Y41971905D01*
X53898095Y41971905D01*
X55198095Y43271905D02*
X55198095Y42529048D01*
X55198095Y42900477D02*
X53898095Y42900477D01*
X54083809Y42776667D01*
X54207619Y42652858D01*
X54269523Y42529048D01*
X52658095Y40610000D02*
X51358095Y40610000D01*
X52658095Y41229048D02*
X51358095Y41229048D01*
X52658095Y41971905D01*
X51358095Y41971905D01*
X51358095Y42838572D02*
X51358095Y42962381D01*
X51420000Y43086191D01*
X51481904Y43148096D01*
X51605714Y43210000D01*
X51853333Y43271905D01*
X52162857Y43271905D01*
X52410476Y43210000D01*
X52534285Y43148096D01*
X52596190Y43086191D01*
X52658095Y42962381D01*
X52658095Y42838572D01*
X52596190Y42714762D01*
X52534285Y42652858D01*
X52410476Y42590953D01*
X52162857Y42529048D01*
X51853333Y42529048D01*
X51605714Y42590953D01*
X51481904Y42652858D01*
X51420000Y42714762D01*
X51358095Y42838572D01*
D11*
X1511833Y47155191D02*
X1511833Y48755191D01*
X2178500Y47155191D02*
X2178500Y48755191D01*
X2978500Y47155191D01*
X2978500Y48755191D01*
X3445166Y48755191D02*
X4245166Y48755191D01*
X3845166Y47155191D02*
X3845166Y48755191D01*
X4711833Y47993286D02*
X5178500Y47993286D01*
X5378500Y47155191D02*
X4711833Y47155191D01*
X4711833Y48755191D01*
X5378500Y48755191D01*
X6778500Y47155191D02*
X6311833Y47917096D01*
X5978500Y47155191D02*
X5978500Y48755191D01*
X6511833Y48755191D01*
X6645166Y48679000D01*
X6711833Y48602810D01*
X6778500Y48450429D01*
X6778500Y48221858D01*
X6711833Y48069477D01*
X6645166Y47993286D01*
X6511833Y47917096D01*
X5978500Y47917096D01*
X7845166Y47993286D02*
X7378500Y47993286D01*
X7378500Y47155191D02*
X7378500Y48755191D01*
X8045166Y48755191D01*
X8511833Y47612334D02*
X9178500Y47612334D01*
X8378500Y47155191D02*
X8845166Y48755191D01*
X9311833Y47155191D01*
X10578500Y47307572D02*
X10511833Y47231381D01*
X10311833Y47155191D01*
X10178500Y47155191D01*
X9978500Y47231381D01*
X9845166Y47383762D01*
X9778500Y47536143D01*
X9711833Y47840905D01*
X9711833Y48069477D01*
X9778500Y48374239D01*
X9845166Y48526620D01*
X9978500Y48679000D01*
X10178500Y48755191D01*
X10311833Y48755191D01*
X10511833Y48679000D01*
X10578500Y48602810D01*
X11178500Y47993286D02*
X11645166Y47993286D01*
X11845166Y47155191D02*
X11178500Y47155191D01*
X11178500Y48755191D01*
X11845166Y48755191D01*
X13711833Y48069477D02*
X13578500Y48145667D01*
X13511833Y48221858D01*
X13445166Y48374239D01*
X13445166Y48450429D01*
X13511833Y48602810D01*
X13578500Y48679000D01*
X13711833Y48755191D01*
X13978500Y48755191D01*
X14111833Y48679000D01*
X14178500Y48602810D01*
X14245166Y48450429D01*
X14245166Y48374239D01*
X14178500Y48221858D01*
X14111833Y48145667D01*
X13978500Y48069477D01*
X13711833Y48069477D01*
X13578500Y47993286D01*
X13511833Y47917096D01*
X13445166Y47764715D01*
X13445166Y47459953D01*
X13511833Y47307572D01*
X13578500Y47231381D01*
X13711833Y47155191D01*
X13978500Y47155191D01*
X14111833Y47231381D01*
X14178500Y47307572D01*
X14245166Y47459953D01*
X14245166Y47764715D01*
X14178500Y47917096D01*
X14111833Y47993286D01*
X13978500Y48069477D01*
X15911833Y47993286D02*
X16378500Y47993286D01*
X16578500Y47155191D02*
X15911833Y47155191D01*
X15911833Y48755191D01*
X16578500Y48755191D01*
X17178500Y47155191D02*
X17178500Y48755191D01*
X17978500Y47155191D01*
X17978500Y48755191D01*
X18445166Y48755191D02*
X19245166Y48755191D01*
X18845166Y47155191D02*
X18845166Y48755191D01*
X20511833Y47155191D02*
X20045166Y47917096D01*
X19711833Y47155191D02*
X19711833Y48755191D01*
X20245166Y48755191D01*
X20378500Y48679000D01*
X20445166Y48602810D01*
X20511833Y48450429D01*
X20511833Y48221858D01*
X20445166Y48069477D01*
X20378500Y47993286D01*
X20245166Y47917096D01*
X19711833Y47917096D01*
X21111833Y47993286D02*
X21578500Y47993286D01*
X21778500Y47155191D02*
X21111833Y47155191D01*
X21111833Y48755191D01*
X21778500Y48755191D01*
X22378500Y47993286D02*
X22845166Y47993286D01*
X23045166Y47155191D02*
X22378500Y47155191D01*
X22378500Y48755191D01*
X23045166Y48755191D01*
X23578500Y47231381D02*
X23778500Y47155191D01*
X24111833Y47155191D01*
X24245166Y47231381D01*
X24311833Y47307572D01*
X24378500Y47459953D01*
X24378500Y47612334D01*
X24311833Y47764715D01*
X24245166Y47840905D01*
X24111833Y47917096D01*
X23845166Y47993286D01*
X23711833Y48069477D01*
X23645166Y48145667D01*
X23578500Y48298048D01*
X23578500Y48450429D01*
X23645166Y48602810D01*
X23711833Y48679000D01*
X23845166Y48755191D01*
X24178500Y48755191D01*
X24378500Y48679000D01*
X25978500Y47612334D02*
X26645166Y47612334D01*
X25845166Y47155191D02*
X26311833Y48755191D01*
X26778500Y47155191D01*
X27245166Y47155191D02*
X27245166Y48755191D01*
X28045166Y47155191D01*
X28045166Y48755191D01*
X28645166Y47612334D02*
X29311833Y47612334D01*
X28511833Y47155191D02*
X28978500Y48755191D01*
X29445166Y47155191D01*
X30578500Y47155191D02*
X29911833Y47155191D01*
X29911833Y48755191D01*
X31311833Y48755191D02*
X31578500Y48755191D01*
X31711833Y48679000D01*
X31845166Y48526620D01*
X31911833Y48221858D01*
X31911833Y47688524D01*
X31845166Y47383762D01*
X31711833Y47231381D01*
X31578500Y47155191D01*
X31311833Y47155191D01*
X31178500Y47231381D01*
X31045166Y47383762D01*
X30978500Y47688524D01*
X30978500Y48221858D01*
X31045166Y48526620D01*
X31178500Y48679000D01*
X31311833Y48755191D01*
X33245166Y48679000D02*
X33111833Y48755191D01*
X32911833Y48755191D01*
X32711833Y48679000D01*
X32578500Y48526620D01*
X32511833Y48374239D01*
X32445166Y48069477D01*
X32445166Y47840905D01*
X32511833Y47536143D01*
X32578500Y47383762D01*
X32711833Y47231381D01*
X32911833Y47155191D01*
X33045166Y47155191D01*
X33245166Y47231381D01*
X33311833Y47307572D01*
X33311833Y47840905D01*
X33045166Y47840905D01*
X33911833Y47155191D02*
X33911833Y48755191D01*
X35511833Y47002810D02*
X35378500Y47079000D01*
X35245166Y47231381D01*
X35045166Y47459953D01*
X34911833Y47536143D01*
X34778500Y47536143D01*
X34845166Y47155191D02*
X34711833Y47231381D01*
X34578500Y47383762D01*
X34511833Y47688524D01*
X34511833Y48221858D01*
X34578500Y48526620D01*
X34711833Y48679000D01*
X34845166Y48755191D01*
X35111833Y48755191D01*
X35245166Y48679000D01*
X35378500Y48526620D01*
X35445166Y48221858D01*
X35445166Y47688524D01*
X35378500Y47383762D01*
X35245166Y47231381D01*
X35111833Y47155191D01*
X34845166Y47155191D01*
X36045166Y48755191D02*
X36045166Y47459953D01*
X36111833Y47307572D01*
X36178500Y47231381D01*
X36311833Y47155191D01*
X36578500Y47155191D01*
X36711833Y47231381D01*
X36778500Y47307572D01*
X36845166Y47459953D01*
X36845166Y48755191D01*
X37511833Y47993286D02*
X37978500Y47993286D01*
X38178500Y47155191D02*
X37511833Y47155191D01*
X37511833Y48755191D01*
X38178500Y48755191D01*
X38711833Y47231381D02*
X38911833Y47155191D01*
X39245166Y47155191D01*
X39378500Y47231381D01*
X39445166Y47307572D01*
X39511833Y47459953D01*
X39511833Y47612334D01*
X39445166Y47764715D01*
X39378500Y47840905D01*
X39245166Y47917096D01*
X38978500Y47993286D01*
X38845166Y48069477D01*
X38778500Y48145667D01*
X38711833Y48298048D01*
X38711833Y48450429D01*
X38778500Y48602810D01*
X38845166Y48679000D01*
X38978500Y48755191D01*
X39311833Y48755191D01*
X39511833Y48679000D01*
X41445166Y48755191D02*
X41711833Y48755191D01*
X41845166Y48679000D01*
X41978500Y48526620D01*
X42045166Y48221858D01*
X42045166Y47688524D01*
X41978500Y47383762D01*
X41845166Y47231381D01*
X41711833Y47155191D01*
X41445166Y47155191D01*
X41311833Y47231381D01*
X41178500Y47383762D01*
X41111833Y47688524D01*
X41111833Y48221858D01*
X41178500Y48526620D01*
X41311833Y48679000D01*
X41445166Y48755191D01*
X43445166Y47155191D02*
X42978500Y47917096D01*
X42645166Y47155191D02*
X42645166Y48755191D01*
X43178500Y48755191D01*
X43311833Y48679000D01*
X43378500Y48602810D01*
X43445166Y48450429D01*
X43445166Y48221858D01*
X43378500Y48069477D01*
X43311833Y47993286D01*
X43178500Y47917096D01*
X42645166Y47917096D01*
X44045166Y47155191D02*
X44045166Y48755191D01*
X45511833Y47307572D02*
X45445166Y47231381D01*
X45245166Y47155191D01*
X45111833Y47155191D01*
X44911833Y47231381D01*
X44778500Y47383762D01*
X44711833Y47536143D01*
X44645166Y47840905D01*
X44645166Y48069477D01*
X44711833Y48374239D01*
X44778500Y48526620D01*
X44911833Y48679000D01*
X45111833Y48755191D01*
X45245166Y48755191D01*
X45445166Y48679000D01*
X45511833Y48602810D01*
D12*
X61252142Y3717858D02*
X61309285Y3775000D01*
X61423571Y3832143D01*
X61709285Y3832143D01*
X61823571Y3775000D01*
X61880714Y3717858D01*
X61937857Y3603572D01*
X61937857Y3489286D01*
X61880714Y3317858D01*
X61195000Y2632143D01*
X61937857Y2632143D01*
X61937857Y5172143D02*
X61252142Y5172143D01*
X61595000Y5172143D02*
X61595000Y6372143D01*
X61480714Y6200715D01*
X61366428Y6086429D01*
X61252142Y6029286D01*
D10*
X1498809Y7947143D02*
X1236904Y7947143D01*
X1236904Y9661429D01*
X1498809Y9661429D01*
X1813095Y9547143D02*
X2494047Y9547143D01*
X2127380Y9090000D01*
X2284523Y9090000D01*
X2389285Y9032858D01*
X2441666Y8975715D01*
X2494047Y8861429D01*
X2494047Y8575715D01*
X2441666Y8461429D01*
X2389285Y8404286D01*
X2284523Y8347143D01*
X1970238Y8347143D01*
X1865476Y8404286D01*
X1813095Y8461429D01*
X3332142Y8975715D02*
X2965476Y8975715D01*
X2965476Y8347143D02*
X2965476Y9547143D01*
X3489285Y9547143D01*
X4065476Y9032858D02*
X3960714Y9090000D01*
X3908333Y9147143D01*
X3855952Y9261429D01*
X3855952Y9318572D01*
X3908333Y9432858D01*
X3960714Y9490000D01*
X4065476Y9547143D01*
X4275000Y9547143D01*
X4379761Y9490000D01*
X4432142Y9432858D01*
X4484523Y9318572D01*
X4484523Y9261429D01*
X4432142Y9147143D01*
X4379761Y9090000D01*
X4275000Y9032858D01*
X4065476Y9032858D01*
X3960714Y8975715D01*
X3908333Y8918572D01*
X3855952Y8804286D01*
X3855952Y8575715D01*
X3908333Y8461429D01*
X3960714Y8404286D01*
X4065476Y8347143D01*
X4275000Y8347143D01*
X4379761Y8404286D01*
X4432142Y8461429D01*
X4484523Y8575715D01*
X4484523Y8804286D01*
X4432142Y8918572D01*
X4379761Y8975715D01*
X4275000Y9032858D01*
X4851190Y7947143D02*
X5113095Y7947143D01*
X5113095Y9661429D01*
X4851190Y9661429D01*
D13*
%TO.C,J2*%
X48200000Y46525000D02*
X73720000Y46525000D01*
X73720000Y46525000D02*
X73720000Y49185000D01*
X73720000Y49185000D02*
X48200000Y49185000D01*
X48200000Y49185000D02*
X48200000Y46525000D01*
X49150000Y49185000D02*
X49150000Y55185000D01*
X49150000Y55185000D02*
X49910000Y55185000D01*
X49910000Y55185000D02*
X49910000Y49185000D01*
X49210000Y49185000D02*
X49210000Y55185000D01*
X49330000Y49185000D02*
X49330000Y55185000D01*
X49450000Y49185000D02*
X49450000Y55185000D01*
X49570000Y49185000D02*
X49570000Y55185000D01*
X49690000Y49185000D02*
X49690000Y55185000D01*
X49810000Y49185000D02*
X49810000Y55185000D01*
X49150000Y46195000D02*
X49150000Y46525000D01*
X49910000Y46195000D02*
X49910000Y46525000D01*
X50800000Y46525000D02*
X50800000Y49185000D01*
X51690000Y49185000D02*
X51690000Y55185000D01*
X51690000Y55185000D02*
X52450000Y55185000D01*
X52450000Y55185000D02*
X52450000Y49185000D01*
X51690000Y46127929D02*
X51690000Y46525000D01*
X52450000Y46127929D02*
X52450000Y46525000D01*
X53340000Y46525000D02*
X53340000Y49185000D01*
X54230000Y49185000D02*
X54230000Y55185000D01*
X54230000Y55185000D02*
X54990000Y55185000D01*
X54990000Y55185000D02*
X54990000Y49185000D01*
X54230000Y46127929D02*
X54230000Y46525000D01*
X54990000Y46127929D02*
X54990000Y46525000D01*
X55880000Y46525000D02*
X55880000Y49185000D01*
X56770000Y49185000D02*
X56770000Y55185000D01*
X56770000Y55185000D02*
X57530000Y55185000D01*
X57530000Y55185000D02*
X57530000Y49185000D01*
X56770000Y46127929D02*
X56770000Y46525000D01*
X57530000Y46127929D02*
X57530000Y46525000D01*
X58420000Y46525000D02*
X58420000Y49185000D01*
X59310000Y49185000D02*
X59310000Y55185000D01*
X59310000Y55185000D02*
X60070000Y55185000D01*
X60070000Y55185000D02*
X60070000Y49185000D01*
X59310000Y46127929D02*
X59310000Y46525000D01*
X60070000Y46127929D02*
X60070000Y46525000D01*
X60960000Y46525000D02*
X60960000Y49185000D01*
X61850000Y49185000D02*
X61850000Y55185000D01*
X61850000Y55185000D02*
X62610000Y55185000D01*
X62610000Y55185000D02*
X62610000Y49185000D01*
X61850000Y46127929D02*
X61850000Y46525000D01*
X62610000Y46127929D02*
X62610000Y46525000D01*
X63500000Y46525000D02*
X63500000Y49185000D01*
X64390000Y49185000D02*
X64390000Y55185000D01*
X64390000Y55185000D02*
X65150000Y55185000D01*
X65150000Y55185000D02*
X65150000Y49185000D01*
X64390000Y46127929D02*
X64390000Y46525000D01*
X65150000Y46127929D02*
X65150000Y46525000D01*
X66040000Y46525000D02*
X66040000Y49185000D01*
X66930000Y49185000D02*
X66930000Y55185000D01*
X66930000Y55185000D02*
X67690000Y55185000D01*
X67690000Y55185000D02*
X67690000Y49185000D01*
X66930000Y46127929D02*
X66930000Y46525000D01*
X67690000Y46127929D02*
X67690000Y46525000D01*
X68580000Y46525000D02*
X68580000Y49185000D01*
X69470000Y49185000D02*
X69470000Y55185000D01*
X69470000Y55185000D02*
X70230000Y55185000D01*
X70230000Y55185000D02*
X70230000Y49185000D01*
X69470000Y46127929D02*
X69470000Y46525000D01*
X70230000Y46127929D02*
X70230000Y46525000D01*
X71120000Y46525000D02*
X71120000Y49185000D01*
X72010000Y49185000D02*
X72010000Y55185000D01*
X72010000Y55185000D02*
X72770000Y55185000D01*
X72770000Y55185000D02*
X72770000Y49185000D01*
X72010000Y46127929D02*
X72010000Y46525000D01*
X72770000Y46127929D02*
X72770000Y46525000D01*
X49530000Y43815000D02*
X48260000Y43815000D01*
X48260000Y43815000D02*
X48260000Y45085000D01*
%TO.C,JP1*%
X13395000Y7560000D02*
X13395000Y10220000D01*
X8255000Y7560000D02*
X13395000Y7560000D01*
X8255000Y10220000D02*
X13395000Y10220000D01*
X8255000Y7560000D02*
X8255000Y10220000D01*
X6985000Y7560000D02*
X5655000Y7560000D01*
X5655000Y7560000D02*
X5655000Y8890000D01*
%TO.C,C13*%
X22570000Y38800000D02*
X22325000Y38800000D01*
X24665000Y38800000D02*
X24420000Y38800000D01*
X22570000Y42440000D02*
X22325000Y42440000D01*
X24665000Y42440000D02*
X24420000Y42440000D01*
X22325000Y42440000D02*
X22325000Y38800000D01*
X24665000Y42440000D02*
X24665000Y38800000D01*
%TO.C,R10*%
X23368000Y35790000D02*
X23368000Y35020000D01*
X23368000Y27710000D02*
X23368000Y28480000D01*
X21998000Y35020000D02*
X21998000Y28480000D01*
X24738000Y35020000D02*
X21998000Y35020000D01*
X24738000Y28480000D02*
X24738000Y35020000D01*
X21998000Y28480000D02*
X24738000Y28480000D01*
%TO.C,U4*%
X34560000Y45780000D02*
X29500000Y45780000D01*
X29500000Y45780000D02*
X29500000Y10100000D01*
X29500000Y10100000D02*
X41620000Y10100000D01*
X41620000Y10100000D02*
X41620000Y45780000D01*
X41620000Y45780000D02*
X36560000Y45780000D01*
X36560000Y45780000D02*
G75*
G02*
X34560000Y45780000I-1000000J0D01*
G01*
%TO.C,U1*%
X3115000Y39640000D02*
X3115000Y38390000D01*
X3115000Y38390000D02*
X21015000Y38390000D01*
X21015000Y38390000D02*
X21015000Y42890000D01*
X21015000Y42890000D02*
X3115000Y42890000D01*
X3115000Y42890000D02*
X3115000Y41640000D01*
X3115000Y41640000D02*
G75*
G02*
X3115000Y39640000I0J-1000000D01*
G01*
%TO.C,R9*%
X74395000Y36290000D02*
X71655000Y36290000D01*
X71655000Y36290000D02*
X71655000Y29750000D01*
X71655000Y29750000D02*
X74395000Y29750000D01*
X74395000Y29750000D02*
X74395000Y36290000D01*
X73025000Y37060000D02*
X73025000Y36290000D01*
X73025000Y28980000D02*
X73025000Y29750000D01*
%TO.C,R8*%
X71220000Y36290000D02*
X68480000Y36290000D01*
X68480000Y36290000D02*
X68480000Y29750000D01*
X68480000Y29750000D02*
X71220000Y29750000D01*
X71220000Y29750000D02*
X71220000Y36290000D01*
X69850000Y37060000D02*
X69850000Y36290000D01*
X69850000Y28980000D02*
X69850000Y29750000D01*
%TO.C,R7*%
X68045000Y36290000D02*
X65305000Y36290000D01*
X65305000Y36290000D02*
X65305000Y29750000D01*
X65305000Y29750000D02*
X68045000Y29750000D01*
X68045000Y29750000D02*
X68045000Y36290000D01*
X66675000Y37060000D02*
X66675000Y36290000D01*
X66675000Y28980000D02*
X66675000Y29750000D01*
%TO.C,R6*%
X64870000Y36290000D02*
X62130000Y36290000D01*
X62130000Y36290000D02*
X62130000Y29750000D01*
X62130000Y29750000D02*
X64870000Y29750000D01*
X64870000Y29750000D02*
X64870000Y36290000D01*
X63500000Y37060000D02*
X63500000Y36290000D01*
X63500000Y28980000D02*
X63500000Y29750000D01*
%TO.C,R5*%
X61695000Y36290000D02*
X58955000Y36290000D01*
X58955000Y36290000D02*
X58955000Y29750000D01*
X58955000Y29750000D02*
X61695000Y29750000D01*
X61695000Y29750000D02*
X61695000Y36290000D01*
X60325000Y37060000D02*
X60325000Y36290000D01*
X60325000Y28980000D02*
X60325000Y29750000D01*
%TO.C,R4*%
X58520000Y36290000D02*
X55780000Y36290000D01*
X55780000Y36290000D02*
X55780000Y29750000D01*
X55780000Y29750000D02*
X58520000Y29750000D01*
X58520000Y29750000D02*
X58520000Y36290000D01*
X57150000Y37060000D02*
X57150000Y36290000D01*
X57150000Y28980000D02*
X57150000Y29750000D01*
%TO.C,R3*%
X55345000Y36290000D02*
X52605000Y36290000D01*
X52605000Y36290000D02*
X52605000Y29750000D01*
X52605000Y29750000D02*
X55345000Y29750000D01*
X55345000Y29750000D02*
X55345000Y36290000D01*
X53975000Y37060000D02*
X53975000Y36290000D01*
X53975000Y28980000D02*
X53975000Y29750000D01*
%TO.C,R2*%
X52170000Y36290000D02*
X49430000Y36290000D01*
X49430000Y36290000D02*
X49430000Y29750000D01*
X49430000Y29750000D02*
X52170000Y29750000D01*
X52170000Y29750000D02*
X52170000Y36290000D01*
X50800000Y37060000D02*
X50800000Y36290000D01*
X50800000Y28980000D02*
X50800000Y29750000D01*
%TO.C,C12*%
X71905000Y19280000D02*
X71905000Y26520000D01*
X74145000Y19280000D02*
X74145000Y26520000D01*
X71905000Y19280000D02*
X74145000Y19280000D01*
X71905000Y26520000D02*
X74145000Y26520000D01*
%TO.C,C11*%
X68730000Y19200000D02*
X68730000Y26440000D01*
X70970000Y19200000D02*
X70970000Y26440000D01*
X68730000Y19200000D02*
X70970000Y19200000D01*
X68730000Y26440000D02*
X70970000Y26440000D01*
%TO.C,C10*%
X65555000Y19200000D02*
X65555000Y26440000D01*
X67795000Y19200000D02*
X67795000Y26440000D01*
X65555000Y19200000D02*
X67795000Y19200000D01*
X65555000Y26440000D02*
X67795000Y26440000D01*
%TO.C,C9*%
X62380000Y19200000D02*
X62380000Y26440000D01*
X64620000Y19200000D02*
X64620000Y26440000D01*
X62380000Y19200000D02*
X64620000Y19200000D01*
X62380000Y26440000D02*
X64620000Y26440000D01*
%TO.C,C8*%
X59205000Y19200000D02*
X59205000Y26440000D01*
X61445000Y19200000D02*
X61445000Y26440000D01*
X59205000Y19200000D02*
X61445000Y19200000D01*
X59205000Y26440000D02*
X61445000Y26440000D01*
%TO.C,C7*%
X56030000Y19200000D02*
X56030000Y26440000D01*
X58270000Y19200000D02*
X58270000Y26440000D01*
X56030000Y19200000D02*
X58270000Y19200000D01*
X56030000Y26440000D02*
X58270000Y26440000D01*
%TO.C,C6*%
X52855000Y19200000D02*
X52855000Y26440000D01*
X55095000Y19200000D02*
X55095000Y26440000D01*
X52855000Y19200000D02*
X55095000Y19200000D01*
X52855000Y26440000D02*
X55095000Y26440000D01*
%TO.C,C5*%
X49680000Y19200000D02*
X49680000Y26440000D01*
X51920000Y19200000D02*
X51920000Y26440000D01*
X49680000Y19200000D02*
X51920000Y19200000D01*
X49680000Y26440000D02*
X51920000Y26440000D01*
%TO.C,U2*%
X3115000Y30825000D02*
X3115000Y29575000D01*
X21015000Y30825000D02*
X3115000Y30825000D01*
X21015000Y26325000D02*
X21015000Y30825000D01*
X3115000Y26325000D02*
X21015000Y26325000D01*
X3115000Y27575000D02*
X3115000Y26325000D01*
X3115000Y29575000D02*
G75*
G02*
X3115000Y27575000I0J-1000000D01*
G01*
%TO.C,J1*%
X57920000Y8065000D02*
X58420000Y7065000D01*
X58920000Y8065000D02*
X57920000Y8065000D01*
X58420000Y7065000D02*
X58920000Y8065000D01*
X12570000Y1445000D02*
X63630000Y1445000D01*
X12570000Y-7675000D02*
X12570000Y1445000D01*
X63630000Y-7675000D02*
X12570000Y-7675000D01*
X63630000Y1445000D02*
X63630000Y-7675000D01*
X36050000Y1445000D02*
X36050000Y-7675000D01*
X40150000Y1445000D02*
X40150000Y-7675000D01*
%TO.C,D1*%
X52455000Y10645000D02*
X52455000Y8405000D01*
X52695000Y10645000D02*
X52695000Y8405000D01*
X52575000Y10645000D02*
X52575000Y8405000D01*
X56745000Y9525000D02*
X56095000Y9525000D01*
X51205000Y9525000D02*
X51855000Y9525000D01*
X56095000Y10645000D02*
X51855000Y10645000D01*
X56095000Y8405000D02*
X56095000Y10645000D01*
X51855000Y8405000D02*
X56095000Y8405000D01*
X51855000Y10645000D02*
X51855000Y8405000D01*
%TO.C,C2*%
X22375000Y20090000D02*
X24615000Y20090000D01*
X22375000Y12850000D02*
X24615000Y12850000D01*
X24615000Y12850000D02*
X24615000Y20090000D01*
X22375000Y12850000D02*
X22375000Y20090000D01*
%TO.C,U3*%
X3115000Y18760000D02*
X3115000Y17510000D01*
X21015000Y18760000D02*
X3115000Y18760000D01*
X21015000Y14260000D02*
X21015000Y18760000D01*
X3115000Y14260000D02*
X21015000Y14260000D01*
X3115000Y15510000D02*
X3115000Y14260000D01*
X3115000Y17510000D02*
G75*
G02*
X3115000Y15510000I0J-1000000D01*
G01*
%TO.C,R1*%
X51205000Y16510000D02*
X51975000Y16510000D01*
X59285000Y16510000D02*
X58515000Y16510000D01*
X51975000Y15140000D02*
X58515000Y15140000D01*
X51975000Y17880000D02*
X51975000Y15140000D01*
X58515000Y17880000D02*
X51975000Y17880000D01*
X58515000Y15140000D02*
X58515000Y17880000D01*
%TO.C,C4*%
X49125000Y12215000D02*
X49125000Y14455000D01*
X56365000Y12215000D02*
X56365000Y14455000D01*
X56365000Y14455000D02*
X49125000Y14455000D01*
X56365000Y12215000D02*
X49125000Y12215000D01*
%TO.C,C1*%
X70200000Y13335000D02*
G75*
G03*
X70200000Y13335000I-2620000J0D01*
G01*
X67580000Y14375000D02*
X67580000Y15915000D01*
X67580000Y10755000D02*
X67580000Y12295000D01*
X67540000Y14375000D02*
X67540000Y15915000D01*
X67540000Y10755000D02*
X67540000Y12295000D01*
X67500000Y10756000D02*
X67500000Y12295000D01*
X67500000Y14375000D02*
X67500000Y15914000D01*
X67460000Y10757000D02*
X67460000Y12295000D01*
X67460000Y14375000D02*
X67460000Y15913000D01*
X67420000Y10759000D02*
X67420000Y12295000D01*
X67420000Y14375000D02*
X67420000Y15911000D01*
X67380000Y10762000D02*
X67380000Y12295000D01*
X67380000Y14375000D02*
X67380000Y15908000D01*
X67340000Y10766000D02*
X67340000Y12295000D01*
X67340000Y14375000D02*
X67340000Y15904000D01*
X67300000Y10770000D02*
X67300000Y12295000D01*
X67300000Y14375000D02*
X67300000Y15900000D01*
X67260000Y10774000D02*
X67260000Y12295000D01*
X67260000Y14375000D02*
X67260000Y15896000D01*
X67220000Y10779000D02*
X67220000Y12295000D01*
X67220000Y14375000D02*
X67220000Y15891000D01*
X67180000Y10785000D02*
X67180000Y12295000D01*
X67180000Y14375000D02*
X67180000Y15885000D01*
X67140000Y10792000D02*
X67140000Y12295000D01*
X67140000Y14375000D02*
X67140000Y15878000D01*
X67100000Y10799000D02*
X67100000Y12295000D01*
X67100000Y14375000D02*
X67100000Y15871000D01*
X67060000Y10807000D02*
X67060000Y12295000D01*
X67060000Y14375000D02*
X67060000Y15863000D01*
X67020000Y10815000D02*
X67020000Y12295000D01*
X67020000Y14375000D02*
X67020000Y15855000D01*
X66980000Y10824000D02*
X66980000Y12295000D01*
X66980000Y14375000D02*
X66980000Y15846000D01*
X66940000Y10834000D02*
X66940000Y12295000D01*
X66940000Y14375000D02*
X66940000Y15836000D01*
X66900000Y10844000D02*
X66900000Y12295000D01*
X66900000Y14375000D02*
X66900000Y15826000D01*
X66859000Y10855000D02*
X66859000Y12295000D01*
X66859000Y14375000D02*
X66859000Y15815000D01*
X66819000Y10867000D02*
X66819000Y12295000D01*
X66819000Y14375000D02*
X66819000Y15803000D01*
X66779000Y10880000D02*
X66779000Y12295000D01*
X66779000Y14375000D02*
X66779000Y15790000D01*
X66739000Y10893000D02*
X66739000Y12295000D01*
X66739000Y14375000D02*
X66739000Y15777000D01*
X66699000Y10907000D02*
X66699000Y12295000D01*
X66699000Y14375000D02*
X66699000Y15763000D01*
X66659000Y10921000D02*
X66659000Y12295000D01*
X66659000Y14375000D02*
X66659000Y15749000D01*
X66619000Y10937000D02*
X66619000Y12295000D01*
X66619000Y14375000D02*
X66619000Y15733000D01*
X66579000Y10953000D02*
X66579000Y12295000D01*
X66579000Y14375000D02*
X66579000Y15717000D01*
X66539000Y10970000D02*
X66539000Y12295000D01*
X66539000Y14375000D02*
X66539000Y15700000D01*
X66499000Y10987000D02*
X66499000Y12295000D01*
X66499000Y14375000D02*
X66499000Y15683000D01*
X66459000Y11006000D02*
X66459000Y12295000D01*
X66459000Y14375000D02*
X66459000Y15664000D01*
X66419000Y11025000D02*
X66419000Y12295000D01*
X66419000Y14375000D02*
X66419000Y15645000D01*
X66379000Y11045000D02*
X66379000Y12295000D01*
X66379000Y14375000D02*
X66379000Y15625000D01*
X66339000Y11067000D02*
X66339000Y12295000D01*
X66339000Y14375000D02*
X66339000Y15603000D01*
X66299000Y11088000D02*
X66299000Y12295000D01*
X66299000Y14375000D02*
X66299000Y15582000D01*
X66259000Y11111000D02*
X66259000Y12295000D01*
X66259000Y14375000D02*
X66259000Y15559000D01*
X66219000Y11135000D02*
X66219000Y12295000D01*
X66219000Y14375000D02*
X66219000Y15535000D01*
X66179000Y11160000D02*
X66179000Y12295000D01*
X66179000Y14375000D02*
X66179000Y15510000D01*
X66139000Y11186000D02*
X66139000Y12295000D01*
X66139000Y14375000D02*
X66139000Y15484000D01*
X66099000Y11213000D02*
X66099000Y12295000D01*
X66099000Y14375000D02*
X66099000Y15457000D01*
X66059000Y11240000D02*
X66059000Y12295000D01*
X66059000Y14375000D02*
X66059000Y15430000D01*
X66019000Y11270000D02*
X66019000Y12295000D01*
X66019000Y14375000D02*
X66019000Y15400000D01*
X65979000Y11300000D02*
X65979000Y12295000D01*
X65979000Y14375000D02*
X65979000Y15370000D01*
X65939000Y11331000D02*
X65939000Y12295000D01*
X65939000Y14375000D02*
X65939000Y15339000D01*
X65899000Y11364000D02*
X65899000Y12295000D01*
X65899000Y14375000D02*
X65899000Y15306000D01*
X65859000Y11398000D02*
X65859000Y12295000D01*
X65859000Y14375000D02*
X65859000Y15272000D01*
X65819000Y11434000D02*
X65819000Y12295000D01*
X65819000Y14375000D02*
X65819000Y15236000D01*
X65779000Y11471000D02*
X65779000Y12295000D01*
X65779000Y14375000D02*
X65779000Y15199000D01*
X65739000Y11509000D02*
X65739000Y12295000D01*
X65739000Y14375000D02*
X65739000Y15161000D01*
X65699000Y11550000D02*
X65699000Y12295000D01*
X65699000Y14375000D02*
X65699000Y15120000D01*
X65659000Y11592000D02*
X65659000Y12295000D01*
X65659000Y14375000D02*
X65659000Y15078000D01*
X65619000Y11636000D02*
X65619000Y12295000D01*
X65619000Y14375000D02*
X65619000Y15034000D01*
X65579000Y11682000D02*
X65579000Y12295000D01*
X65579000Y14375000D02*
X65579000Y14988000D01*
X65539000Y11730000D02*
X65539000Y14940000D01*
X65499000Y11781000D02*
X65499000Y14889000D01*
X65459000Y11835000D02*
X65459000Y14835000D01*
X65419000Y11892000D02*
X65419000Y14778000D01*
X65379000Y11952000D02*
X65379000Y14718000D01*
X65339000Y12016000D02*
X65339000Y14654000D01*
X65299000Y12084000D02*
X65299000Y14586000D01*
X65259000Y12157000D02*
X65259000Y14513000D01*
X65219000Y12237000D02*
X65219000Y14433000D01*
X65179000Y12324000D02*
X65179000Y14346000D01*
X65139000Y12420000D02*
X65139000Y14250000D01*
X65099000Y12530000D02*
X65099000Y14140000D01*
X65059000Y12658000D02*
X65059000Y14012000D01*
X65019000Y12817000D02*
X65019000Y13853000D01*
X64979000Y13051000D02*
X64979000Y13619000D01*
X70384775Y11860000D02*
X69884775Y11860000D01*
X70134775Y11610000D02*
X70134775Y12110000D01*
%TO.C,J2*%
D12*
X46442380Y45386667D02*
X47156666Y45386667D01*
X47299523Y45339048D01*
X47394761Y45243810D01*
X47442380Y45100953D01*
X47442380Y45005715D01*
X46537619Y45815239D02*
X46490000Y45862858D01*
X46442380Y45958096D01*
X46442380Y46196191D01*
X46490000Y46291429D01*
X46537619Y46339048D01*
X46632857Y46386667D01*
X46728095Y46386667D01*
X46870952Y46339048D01*
X47442380Y45767620D01*
X47442380Y46386667D01*
%TO.C,C13*%
X23852142Y43807143D02*
X23899761Y43759524D01*
X23947380Y43616667D01*
X23947380Y43521429D01*
X23899761Y43378572D01*
X23804523Y43283334D01*
X23709285Y43235715D01*
X23518809Y43188096D01*
X23375952Y43188096D01*
X23185476Y43235715D01*
X23090238Y43283334D01*
X22995000Y43378572D01*
X22947380Y43521429D01*
X22947380Y43616667D01*
X22995000Y43759524D01*
X23042619Y43807143D01*
X23947380Y44759524D02*
X23947380Y44188096D01*
X23947380Y44473810D02*
X22947380Y44473810D01*
X23090238Y44378572D01*
X23185476Y44283334D01*
X23233095Y44188096D01*
X22947380Y45092858D02*
X22947380Y45711905D01*
X23328333Y45378572D01*
X23328333Y45521429D01*
X23375952Y45616667D01*
X23423571Y45664286D01*
X23518809Y45711905D01*
X23756904Y45711905D01*
X23852142Y45664286D01*
X23899761Y45616667D01*
X23947380Y45521429D01*
X23947380Y45235715D01*
X23899761Y45140477D01*
X23852142Y45092858D01*
X24852380Y38473334D02*
X24852380Y39092381D01*
X25233333Y38759048D01*
X25233333Y38901905D01*
X25280952Y38997143D01*
X25328571Y39044762D01*
X25423809Y39092381D01*
X25661904Y39092381D01*
X25757142Y39044762D01*
X25804761Y38997143D01*
X25852380Y38901905D01*
X25852380Y38616191D01*
X25804761Y38520953D01*
X25757142Y38473334D01*
X24852380Y39425715D02*
X24852380Y40044762D01*
X25233333Y39711429D01*
X25233333Y39854286D01*
X25280952Y39949524D01*
X25328571Y39997143D01*
X25423809Y40044762D01*
X25661904Y40044762D01*
X25757142Y39997143D01*
X25804761Y39949524D01*
X25852380Y39854286D01*
X25852380Y39568572D01*
X25804761Y39473334D01*
X25757142Y39425715D01*
X24852380Y40663810D02*
X24852380Y40759048D01*
X24900000Y40854286D01*
X24947619Y40901905D01*
X25042857Y40949524D01*
X25233333Y40997143D01*
X25471428Y40997143D01*
X25661904Y40949524D01*
X25757142Y40901905D01*
X25804761Y40854286D01*
X25852380Y40759048D01*
X25852380Y40663810D01*
X25804761Y40568572D01*
X25757142Y40520953D01*
X25661904Y40473334D01*
X25471428Y40425715D01*
X25233333Y40425715D01*
X25042857Y40473334D01*
X24947619Y40520953D01*
X24900000Y40568572D01*
X24852380Y40663810D01*
X25185714Y41425715D02*
X26185714Y41425715D01*
X25233333Y41425715D02*
X25185714Y41520953D01*
X25185714Y41711429D01*
X25233333Y41806667D01*
X25280952Y41854286D01*
X25376190Y41901905D01*
X25661904Y41901905D01*
X25757142Y41854286D01*
X25804761Y41806667D01*
X25852380Y41711429D01*
X25852380Y41520953D01*
X25804761Y41425715D01*
X25328571Y42663810D02*
X25328571Y42330477D01*
X25852380Y42330477D02*
X24852380Y42330477D01*
X24852380Y42806667D01*
%TO.C,R10*%
X25979380Y31107143D02*
X25503190Y30773810D01*
X25979380Y30535715D02*
X24979380Y30535715D01*
X24979380Y30916667D01*
X25027000Y31011905D01*
X25074619Y31059524D01*
X25169857Y31107143D01*
X25312714Y31107143D01*
X25407952Y31059524D01*
X25455571Y31011905D01*
X25503190Y30916667D01*
X25503190Y30535715D01*
X25979380Y32059524D02*
X25979380Y31488096D01*
X25979380Y31773810D02*
X24979380Y31773810D01*
X25122238Y31678572D01*
X25217476Y31583334D01*
X25265095Y31488096D01*
X24979380Y32678572D02*
X24979380Y32773810D01*
X25027000Y32869048D01*
X25074619Y32916667D01*
X25169857Y32964286D01*
X25360333Y33011905D01*
X25598428Y33011905D01*
X25788904Y32964286D01*
X25884142Y32916667D01*
X25931761Y32869048D01*
X25979380Y32773810D01*
X25979380Y32678572D01*
X25931761Y32583334D01*
X25884142Y32535715D01*
X25788904Y32488096D01*
X25598428Y32440477D01*
X25360333Y32440477D01*
X25169857Y32488096D01*
X25074619Y32535715D01*
X25027000Y32583334D01*
X24979380Y32678572D01*
X22915619Y30726239D02*
X22868000Y30773858D01*
X22820380Y30869096D01*
X22820380Y31107191D01*
X22868000Y31202429D01*
X22915619Y31250048D01*
X23010857Y31297667D01*
X23106095Y31297667D01*
X23248952Y31250048D01*
X23820380Y30678620D01*
X23820380Y31297667D01*
X23725142Y31726239D02*
X23772761Y31773858D01*
X23820380Y31726239D01*
X23772761Y31678620D01*
X23725142Y31726239D01*
X23820380Y31726239D01*
X22915619Y32154810D02*
X22868000Y32202429D01*
X22820380Y32297667D01*
X22820380Y32535762D01*
X22868000Y32631000D01*
X22915619Y32678620D01*
X23010857Y32726239D01*
X23106095Y32726239D01*
X23248952Y32678620D01*
X23820380Y32107191D01*
X23820380Y32726239D01*
X23820380Y33154810D02*
X22820380Y33154810D01*
X23439428Y33250048D02*
X23820380Y33535762D01*
X23153714Y33535762D02*
X23534666Y33154810D01*
%TO.C,U4*%
X29337095Y9564620D02*
X29337095Y8755096D01*
X29384714Y8659858D01*
X29432333Y8612239D01*
X29527571Y8564620D01*
X29718047Y8564620D01*
X29813285Y8612239D01*
X29860904Y8659858D01*
X29908523Y8755096D01*
X29908523Y9564620D01*
X30813285Y9231286D02*
X30813285Y8564620D01*
X30575190Y9612239D02*
X30337095Y8897953D01*
X30956142Y8897953D01*
X32417142Y38568334D02*
X32893333Y38568334D01*
X32321904Y38282620D02*
X32655238Y39282620D01*
X32988571Y38282620D01*
X33321904Y38282620D02*
X33321904Y39282620D01*
X33560000Y39282620D01*
X33702857Y39235000D01*
X33798095Y39139762D01*
X33845714Y39044524D01*
X33893333Y38854048D01*
X33893333Y38711191D01*
X33845714Y38520715D01*
X33798095Y38425477D01*
X33702857Y38330239D01*
X33560000Y38282620D01*
X33321904Y38282620D01*
X34893333Y38377858D02*
X34845714Y38330239D01*
X34702857Y38282620D01*
X34607619Y38282620D01*
X34464761Y38330239D01*
X34369523Y38425477D01*
X34321904Y38520715D01*
X34274285Y38711191D01*
X34274285Y38854048D01*
X34321904Y39044524D01*
X34369523Y39139762D01*
X34464761Y39235000D01*
X34607619Y39282620D01*
X34702857Y39282620D01*
X34845714Y39235000D01*
X34893333Y39187381D01*
X35512380Y39282620D02*
X35607619Y39282620D01*
X35702857Y39235000D01*
X35750476Y39187381D01*
X35798095Y39092143D01*
X35845714Y38901667D01*
X35845714Y38663572D01*
X35798095Y38473096D01*
X35750476Y38377858D01*
X35702857Y38330239D01*
X35607619Y38282620D01*
X35512380Y38282620D01*
X35417142Y38330239D01*
X35369523Y38377858D01*
X35321904Y38473096D01*
X35274285Y38663572D01*
X35274285Y38901667D01*
X35321904Y39092143D01*
X35369523Y39187381D01*
X35417142Y39235000D01*
X35512380Y39282620D01*
X36417142Y38854048D02*
X36321904Y38901667D01*
X36274285Y38949286D01*
X36226666Y39044524D01*
X36226666Y39092143D01*
X36274285Y39187381D01*
X36321904Y39235000D01*
X36417142Y39282620D01*
X36607619Y39282620D01*
X36702857Y39235000D01*
X36750476Y39187381D01*
X36798095Y39092143D01*
X36798095Y39044524D01*
X36750476Y38949286D01*
X36702857Y38901667D01*
X36607619Y38854048D01*
X36417142Y38854048D01*
X36321904Y38806429D01*
X36274285Y38758810D01*
X36226666Y38663572D01*
X36226666Y38473096D01*
X36274285Y38377858D01*
X36321904Y38330239D01*
X36417142Y38282620D01*
X36607619Y38282620D01*
X36702857Y38330239D01*
X36750476Y38377858D01*
X36798095Y38473096D01*
X36798095Y38663572D01*
X36750476Y38758810D01*
X36702857Y38806429D01*
X36607619Y38854048D01*
X37417142Y39282620D02*
X37512380Y39282620D01*
X37607619Y39235000D01*
X37655238Y39187381D01*
X37702857Y39092143D01*
X37750476Y38901667D01*
X37750476Y38663572D01*
X37702857Y38473096D01*
X37655238Y38377858D01*
X37607619Y38330239D01*
X37512380Y38282620D01*
X37417142Y38282620D01*
X37321904Y38330239D01*
X37274285Y38377858D01*
X37226666Y38473096D01*
X37179047Y38663572D01*
X37179047Y38901667D01*
X37226666Y39092143D01*
X37274285Y39187381D01*
X37321904Y39235000D01*
X37417142Y39282620D01*
X38226666Y38282620D02*
X38417142Y38282620D01*
X38512380Y38330239D01*
X38560000Y38377858D01*
X38655238Y38520715D01*
X38702857Y38711191D01*
X38702857Y39092143D01*
X38655238Y39187381D01*
X38607619Y39235000D01*
X38512380Y39282620D01*
X38321904Y39282620D01*
X38226666Y39235000D01*
X38179047Y39187381D01*
X38131428Y39092143D01*
X38131428Y38854048D01*
X38179047Y38758810D01*
X38226666Y38711191D01*
X38321904Y38663572D01*
X38512380Y38663572D01*
X38607619Y38711191D01*
X38655238Y38758810D01*
X38702857Y38854048D01*
%TO.C,U1*%
X1357380Y39878096D02*
X2166904Y39878096D01*
X2262142Y39925715D01*
X2309761Y39973334D01*
X2357380Y40068572D01*
X2357380Y40259048D01*
X2309761Y40354286D01*
X2262142Y40401905D01*
X2166904Y40449524D01*
X1357380Y40449524D01*
X2357380Y41449524D02*
X2357380Y40878096D01*
X2357380Y41163810D02*
X1357380Y41163810D01*
X1500238Y41068572D01*
X1595476Y40973334D01*
X1643095Y40878096D01*
X10057142Y41187620D02*
X10723809Y41187620D01*
X10295238Y40187620D01*
X11533333Y40854286D02*
X11533333Y40187620D01*
X11295238Y41235239D02*
X11057142Y40520953D01*
X11676190Y40520953D01*
X12533333Y40187620D02*
X12057142Y40187620D01*
X12057142Y41187620D01*
X12819047Y40235239D02*
X12961904Y40187620D01*
X13200000Y40187620D01*
X13295238Y40235239D01*
X13342857Y40282858D01*
X13390476Y40378096D01*
X13390476Y40473334D01*
X13342857Y40568572D01*
X13295238Y40616191D01*
X13200000Y40663810D01*
X13009523Y40711429D01*
X12914285Y40759048D01*
X12866666Y40806667D01*
X12819047Y40901905D01*
X12819047Y40997143D01*
X12866666Y41092381D01*
X12914285Y41140000D01*
X13009523Y41187620D01*
X13247619Y41187620D01*
X13390476Y41140000D01*
X13723809Y41187620D02*
X14342857Y41187620D01*
X14009523Y40806667D01*
X14152380Y40806667D01*
X14247619Y40759048D01*
X14295238Y40711429D01*
X14342857Y40616191D01*
X14342857Y40378096D01*
X14295238Y40282858D01*
X14247619Y40235239D01*
X14152380Y40187620D01*
X13866666Y40187620D01*
X13771428Y40235239D01*
X13723809Y40282858D01*
X14723809Y41092381D02*
X14771428Y41140000D01*
X14866666Y41187620D01*
X15104761Y41187620D01*
X15200000Y41140000D01*
X15247619Y41092381D01*
X15295238Y40997143D01*
X15295238Y40901905D01*
X15247619Y40759048D01*
X14676190Y40187620D01*
X15295238Y40187620D01*
%TO.C,R9*%
X71953380Y28662334D02*
X71477190Y28329000D01*
X71953380Y28090905D02*
X70953380Y28090905D01*
X70953380Y28471858D01*
X71001000Y28567096D01*
X71048619Y28614715D01*
X71143857Y28662334D01*
X71286714Y28662334D01*
X71381952Y28614715D01*
X71429571Y28567096D01*
X71477190Y28471858D01*
X71477190Y28090905D01*
X71953380Y29138524D02*
X71953380Y29329000D01*
X71905761Y29424239D01*
X71858142Y29471858D01*
X71715285Y29567096D01*
X71524809Y29614715D01*
X71143857Y29614715D01*
X71048619Y29567096D01*
X71001000Y29519477D01*
X70953380Y29424239D01*
X70953380Y29233762D01*
X71001000Y29138524D01*
X71048619Y29090905D01*
X71143857Y29043286D01*
X71381952Y29043286D01*
X71477190Y29090905D01*
X71524809Y29138524D01*
X71572428Y29233762D01*
X71572428Y29424239D01*
X71524809Y29519477D01*
X71477190Y29567096D01*
X71381952Y29614715D01*
%TO.C,R8*%
X68778380Y28662334D02*
X68302190Y28329000D01*
X68778380Y28090905D02*
X67778380Y28090905D01*
X67778380Y28471858D01*
X67826000Y28567096D01*
X67873619Y28614715D01*
X67968857Y28662334D01*
X68111714Y28662334D01*
X68206952Y28614715D01*
X68254571Y28567096D01*
X68302190Y28471858D01*
X68302190Y28090905D01*
X68206952Y29233762D02*
X68159333Y29138524D01*
X68111714Y29090905D01*
X68016476Y29043286D01*
X67968857Y29043286D01*
X67873619Y29090905D01*
X67826000Y29138524D01*
X67778380Y29233762D01*
X67778380Y29424239D01*
X67826000Y29519477D01*
X67873619Y29567096D01*
X67968857Y29614715D01*
X68016476Y29614715D01*
X68111714Y29567096D01*
X68159333Y29519477D01*
X68206952Y29424239D01*
X68206952Y29233762D01*
X68254571Y29138524D01*
X68302190Y29090905D01*
X68397428Y29043286D01*
X68587904Y29043286D01*
X68683142Y29090905D01*
X68730761Y29138524D01*
X68778380Y29233762D01*
X68778380Y29424239D01*
X68730761Y29519477D01*
X68683142Y29567096D01*
X68587904Y29614715D01*
X68397428Y29614715D01*
X68302190Y29567096D01*
X68254571Y29519477D01*
X68206952Y29424239D01*
%TO.C,R7*%
X65603380Y28662334D02*
X65127190Y28329000D01*
X65603380Y28090905D02*
X64603380Y28090905D01*
X64603380Y28471858D01*
X64651000Y28567096D01*
X64698619Y28614715D01*
X64793857Y28662334D01*
X64936714Y28662334D01*
X65031952Y28614715D01*
X65079571Y28567096D01*
X65127190Y28471858D01*
X65127190Y28090905D01*
X64603380Y28995667D02*
X64603380Y29662334D01*
X65603380Y29233762D01*
%TO.C,R6*%
X62428380Y28662334D02*
X61952190Y28329000D01*
X62428380Y28090905D02*
X61428380Y28090905D01*
X61428380Y28471858D01*
X61476000Y28567096D01*
X61523619Y28614715D01*
X61618857Y28662334D01*
X61761714Y28662334D01*
X61856952Y28614715D01*
X61904571Y28567096D01*
X61952190Y28471858D01*
X61952190Y28090905D01*
X61428380Y29519477D02*
X61428380Y29329000D01*
X61476000Y29233762D01*
X61523619Y29186143D01*
X61666476Y29090905D01*
X61856952Y29043286D01*
X62237904Y29043286D01*
X62333142Y29090905D01*
X62380761Y29138524D01*
X62428380Y29233762D01*
X62428380Y29424239D01*
X62380761Y29519477D01*
X62333142Y29567096D01*
X62237904Y29614715D01*
X61999809Y29614715D01*
X61904571Y29567096D01*
X61856952Y29519477D01*
X61809333Y29424239D01*
X61809333Y29233762D01*
X61856952Y29138524D01*
X61904571Y29090905D01*
X61999809Y29043286D01*
%TO.C,R5*%
X59253380Y28662334D02*
X58777190Y28329000D01*
X59253380Y28090905D02*
X58253380Y28090905D01*
X58253380Y28471858D01*
X58301000Y28567096D01*
X58348619Y28614715D01*
X58443857Y28662334D01*
X58586714Y28662334D01*
X58681952Y28614715D01*
X58729571Y28567096D01*
X58777190Y28471858D01*
X58777190Y28090905D01*
X58253380Y29567096D02*
X58253380Y29090905D01*
X58729571Y29043286D01*
X58681952Y29090905D01*
X58634333Y29186143D01*
X58634333Y29424239D01*
X58681952Y29519477D01*
X58729571Y29567096D01*
X58824809Y29614715D01*
X59062904Y29614715D01*
X59158142Y29567096D01*
X59205761Y29519477D01*
X59253380Y29424239D01*
X59253380Y29186143D01*
X59205761Y29090905D01*
X59158142Y29043286D01*
%TO.C,R4*%
X56078380Y28662334D02*
X55602190Y28329000D01*
X56078380Y28090905D02*
X55078380Y28090905D01*
X55078380Y28471858D01*
X55126000Y28567096D01*
X55173619Y28614715D01*
X55268857Y28662334D01*
X55411714Y28662334D01*
X55506952Y28614715D01*
X55554571Y28567096D01*
X55602190Y28471858D01*
X55602190Y28090905D01*
X55411714Y29519477D02*
X56078380Y29519477D01*
X55030761Y29281381D02*
X55745047Y29043286D01*
X55745047Y29662334D01*
%TO.C,R3*%
X52903380Y28662334D02*
X52427190Y28329000D01*
X52903380Y28090905D02*
X51903380Y28090905D01*
X51903380Y28471858D01*
X51951000Y28567096D01*
X51998619Y28614715D01*
X52093857Y28662334D01*
X52236714Y28662334D01*
X52331952Y28614715D01*
X52379571Y28567096D01*
X52427190Y28471858D01*
X52427190Y28090905D01*
X51903380Y28995667D02*
X51903380Y29614715D01*
X52284333Y29281381D01*
X52284333Y29424239D01*
X52331952Y29519477D01*
X52379571Y29567096D01*
X52474809Y29614715D01*
X52712904Y29614715D01*
X52808142Y29567096D01*
X52855761Y29519477D01*
X52903380Y29424239D01*
X52903380Y29138524D01*
X52855761Y29043286D01*
X52808142Y28995667D01*
%TO.C,R2*%
X49728380Y28662334D02*
X49252190Y28329000D01*
X49728380Y28090905D02*
X48728380Y28090905D01*
X48728380Y28471858D01*
X48776000Y28567096D01*
X48823619Y28614715D01*
X48918857Y28662334D01*
X49061714Y28662334D01*
X49156952Y28614715D01*
X49204571Y28567096D01*
X49252190Y28471858D01*
X49252190Y28090905D01*
X48823619Y29043286D02*
X48776000Y29090905D01*
X48728380Y29186143D01*
X48728380Y29424239D01*
X48776000Y29519477D01*
X48823619Y29567096D01*
X48918857Y29614715D01*
X49014095Y29614715D01*
X49156952Y29567096D01*
X49728380Y28995667D01*
X49728380Y29614715D01*
%TO.C,C12*%
X72382142Y18057858D02*
X72334523Y18010239D01*
X72191666Y17962620D01*
X72096428Y17962620D01*
X71953571Y18010239D01*
X71858333Y18105477D01*
X71810714Y18200715D01*
X71763095Y18391191D01*
X71763095Y18534048D01*
X71810714Y18724524D01*
X71858333Y18819762D01*
X71953571Y18915000D01*
X72096428Y18962620D01*
X72191666Y18962620D01*
X72334523Y18915000D01*
X72382142Y18867381D01*
X73334523Y17962620D02*
X72763095Y17962620D01*
X73048809Y17962620D02*
X73048809Y18962620D01*
X72953571Y18819762D01*
X72858333Y18724524D01*
X72763095Y18676905D01*
X73715476Y18867381D02*
X73763095Y18915000D01*
X73858333Y18962620D01*
X74096428Y18962620D01*
X74191666Y18915000D01*
X74239285Y18867381D01*
X74286904Y18772143D01*
X74286904Y18676905D01*
X74239285Y18534048D01*
X73667857Y17962620D01*
X74286904Y17962620D01*
%TO.C,C11*%
X69207142Y18057858D02*
X69159523Y18010239D01*
X69016666Y17962620D01*
X68921428Y17962620D01*
X68778571Y18010239D01*
X68683333Y18105477D01*
X68635714Y18200715D01*
X68588095Y18391191D01*
X68588095Y18534048D01*
X68635714Y18724524D01*
X68683333Y18819762D01*
X68778571Y18915000D01*
X68921428Y18962620D01*
X69016666Y18962620D01*
X69159523Y18915000D01*
X69207142Y18867381D01*
X70159523Y17962620D02*
X69588095Y17962620D01*
X69873809Y17962620D02*
X69873809Y18962620D01*
X69778571Y18819762D01*
X69683333Y18724524D01*
X69588095Y18676905D01*
X71111904Y17962620D02*
X70540476Y17962620D01*
X70826190Y17962620D02*
X70826190Y18962620D01*
X70730952Y18819762D01*
X70635714Y18724524D01*
X70540476Y18676905D01*
%TO.C,C10*%
X66032142Y18057858D02*
X65984523Y18010239D01*
X65841666Y17962620D01*
X65746428Y17962620D01*
X65603571Y18010239D01*
X65508333Y18105477D01*
X65460714Y18200715D01*
X65413095Y18391191D01*
X65413095Y18534048D01*
X65460714Y18724524D01*
X65508333Y18819762D01*
X65603571Y18915000D01*
X65746428Y18962620D01*
X65841666Y18962620D01*
X65984523Y18915000D01*
X66032142Y18867381D01*
X66984523Y17962620D02*
X66413095Y17962620D01*
X66698809Y17962620D02*
X66698809Y18962620D01*
X66603571Y18819762D01*
X66508333Y18724524D01*
X66413095Y18676905D01*
X67603571Y18962620D02*
X67698809Y18962620D01*
X67794047Y18915000D01*
X67841666Y18867381D01*
X67889285Y18772143D01*
X67936904Y18581667D01*
X67936904Y18343572D01*
X67889285Y18153096D01*
X67841666Y18057858D01*
X67794047Y18010239D01*
X67698809Y17962620D01*
X67603571Y17962620D01*
X67508333Y18010239D01*
X67460714Y18057858D01*
X67413095Y18153096D01*
X67365476Y18343572D01*
X67365476Y18581667D01*
X67413095Y18772143D01*
X67460714Y18867381D01*
X67508333Y18915000D01*
X67603571Y18962620D01*
%TO.C,C9*%
X63206333Y18057858D02*
X63158714Y18010239D01*
X63015857Y17962620D01*
X62920619Y17962620D01*
X62777761Y18010239D01*
X62682523Y18105477D01*
X62634904Y18200715D01*
X62587285Y18391191D01*
X62587285Y18534048D01*
X62634904Y18724524D01*
X62682523Y18819762D01*
X62777761Y18915000D01*
X62920619Y18962620D01*
X63015857Y18962620D01*
X63158714Y18915000D01*
X63206333Y18867381D01*
X63682523Y17962620D02*
X63873000Y17962620D01*
X63968238Y18010239D01*
X64015857Y18057858D01*
X64111095Y18200715D01*
X64158714Y18391191D01*
X64158714Y18772143D01*
X64111095Y18867381D01*
X64063476Y18915000D01*
X63968238Y18962620D01*
X63777761Y18962620D01*
X63682523Y18915000D01*
X63634904Y18867381D01*
X63587285Y18772143D01*
X63587285Y18534048D01*
X63634904Y18438810D01*
X63682523Y18391191D01*
X63777761Y18343572D01*
X63968238Y18343572D01*
X64063476Y18391191D01*
X64111095Y18438810D01*
X64158714Y18534048D01*
%TO.C,C8*%
X60158333Y18057858D02*
X60110714Y18010239D01*
X59967857Y17962620D01*
X59872619Y17962620D01*
X59729761Y18010239D01*
X59634523Y18105477D01*
X59586904Y18200715D01*
X59539285Y18391191D01*
X59539285Y18534048D01*
X59586904Y18724524D01*
X59634523Y18819762D01*
X59729761Y18915000D01*
X59872619Y18962620D01*
X59967857Y18962620D01*
X60110714Y18915000D01*
X60158333Y18867381D01*
X60729761Y18534048D02*
X60634523Y18581667D01*
X60586904Y18629286D01*
X60539285Y18724524D01*
X60539285Y18772143D01*
X60586904Y18867381D01*
X60634523Y18915000D01*
X60729761Y18962620D01*
X60920238Y18962620D01*
X61015476Y18915000D01*
X61063095Y18867381D01*
X61110714Y18772143D01*
X61110714Y18724524D01*
X61063095Y18629286D01*
X61015476Y18581667D01*
X60920238Y18534048D01*
X60729761Y18534048D01*
X60634523Y18486429D01*
X60586904Y18438810D01*
X60539285Y18343572D01*
X60539285Y18153096D01*
X60586904Y18057858D01*
X60634523Y18010239D01*
X60729761Y17962620D01*
X60920238Y17962620D01*
X61015476Y18010239D01*
X61063095Y18057858D01*
X61110714Y18153096D01*
X61110714Y18343572D01*
X61063095Y18438810D01*
X61015476Y18486429D01*
X60920238Y18534048D01*
%TO.C,C7*%
X56983333Y18057858D02*
X56935714Y18010239D01*
X56792857Y17962620D01*
X56697619Y17962620D01*
X56554761Y18010239D01*
X56459523Y18105477D01*
X56411904Y18200715D01*
X56364285Y18391191D01*
X56364285Y18534048D01*
X56411904Y18724524D01*
X56459523Y18819762D01*
X56554761Y18915000D01*
X56697619Y18962620D01*
X56792857Y18962620D01*
X56935714Y18915000D01*
X56983333Y18867381D01*
X57316666Y18962620D02*
X57983333Y18962620D01*
X57554761Y17962620D01*
%TO.C,C6*%
X53808333Y18057858D02*
X53760714Y18010239D01*
X53617857Y17962620D01*
X53522619Y17962620D01*
X53379761Y18010239D01*
X53284523Y18105477D01*
X53236904Y18200715D01*
X53189285Y18391191D01*
X53189285Y18534048D01*
X53236904Y18724524D01*
X53284523Y18819762D01*
X53379761Y18915000D01*
X53522619Y18962620D01*
X53617857Y18962620D01*
X53760714Y18915000D01*
X53808333Y18867381D01*
X54665476Y18962620D02*
X54475000Y18962620D01*
X54379761Y18915000D01*
X54332142Y18867381D01*
X54236904Y18724524D01*
X54189285Y18534048D01*
X54189285Y18153096D01*
X54236904Y18057858D01*
X54284523Y18010239D01*
X54379761Y17962620D01*
X54570238Y17962620D01*
X54665476Y18010239D01*
X54713095Y18057858D01*
X54760714Y18153096D01*
X54760714Y18391191D01*
X54713095Y18486429D01*
X54665476Y18534048D01*
X54570238Y18581667D01*
X54379761Y18581667D01*
X54284523Y18534048D01*
X54236904Y18486429D01*
X54189285Y18391191D01*
%TO.C,C5*%
X50633333Y18057858D02*
X50585714Y18010239D01*
X50442857Y17962620D01*
X50347619Y17962620D01*
X50204761Y18010239D01*
X50109523Y18105477D01*
X50061904Y18200715D01*
X50014285Y18391191D01*
X50014285Y18534048D01*
X50061904Y18724524D01*
X50109523Y18819762D01*
X50204761Y18915000D01*
X50347619Y18962620D01*
X50442857Y18962620D01*
X50585714Y18915000D01*
X50633333Y18867381D01*
X51538095Y18962620D02*
X51061904Y18962620D01*
X51014285Y18486429D01*
X51061904Y18534048D01*
X51157142Y18581667D01*
X51395238Y18581667D01*
X51490476Y18534048D01*
X51538095Y18486429D01*
X51585714Y18391191D01*
X51585714Y18153096D01*
X51538095Y18057858D01*
X51490476Y18010239D01*
X51395238Y17962620D01*
X51157142Y17962620D01*
X51061904Y18010239D01*
X51014285Y18057858D01*
%TO.C,U2*%
X1357380Y27813096D02*
X2166904Y27813096D01*
X2262142Y27860715D01*
X2309761Y27908334D01*
X2357380Y28003572D01*
X2357380Y28194048D01*
X2309761Y28289286D01*
X2262142Y28336905D01*
X2166904Y28384524D01*
X1357380Y28384524D01*
X1452619Y28813096D02*
X1405000Y28860715D01*
X1357380Y28955953D01*
X1357380Y29194048D01*
X1405000Y29289286D01*
X1452619Y29336905D01*
X1547857Y29384524D01*
X1643095Y29384524D01*
X1785952Y29336905D01*
X2357380Y28765477D01*
X2357380Y29384524D01*
X10057142Y29122620D02*
X10723809Y29122620D01*
X10295238Y28122620D01*
X11533333Y28789286D02*
X11533333Y28122620D01*
X11295238Y29170239D02*
X11057142Y28455953D01*
X11676190Y28455953D01*
X12533333Y28122620D02*
X12057142Y28122620D01*
X12057142Y29122620D01*
X12819047Y28170239D02*
X12961904Y28122620D01*
X13200000Y28122620D01*
X13295238Y28170239D01*
X13342857Y28217858D01*
X13390476Y28313096D01*
X13390476Y28408334D01*
X13342857Y28503572D01*
X13295238Y28551191D01*
X13200000Y28598810D01*
X13009523Y28646429D01*
X12914285Y28694048D01*
X12866666Y28741667D01*
X12819047Y28836905D01*
X12819047Y28932143D01*
X12866666Y29027381D01*
X12914285Y29075000D01*
X13009523Y29122620D01*
X13247619Y29122620D01*
X13390476Y29075000D01*
X14009523Y29122620D02*
X14104761Y29122620D01*
X14200000Y29075000D01*
X14247619Y29027381D01*
X14295238Y28932143D01*
X14342857Y28741667D01*
X14342857Y28503572D01*
X14295238Y28313096D01*
X14247619Y28217858D01*
X14200000Y28170239D01*
X14104761Y28122620D01*
X14009523Y28122620D01*
X13914285Y28170239D01*
X13866666Y28217858D01*
X13819047Y28313096D01*
X13771428Y28503572D01*
X13771428Y28741667D01*
X13819047Y28932143D01*
X13866666Y29027381D01*
X13914285Y29075000D01*
X14009523Y29122620D01*
X15200000Y28789286D02*
X15200000Y28122620D01*
X14961904Y29170239D02*
X14723809Y28455953D01*
X15342857Y28455953D01*
%TO.C,D1*%
X47267904Y9199620D02*
X47267904Y10199620D01*
X47506000Y10199620D01*
X47648857Y10152000D01*
X47744095Y10056762D01*
X47791714Y9961524D01*
X47839333Y9771048D01*
X47839333Y9628191D01*
X47791714Y9437715D01*
X47744095Y9342477D01*
X47648857Y9247239D01*
X47506000Y9199620D01*
X47267904Y9199620D01*
X48791714Y9199620D02*
X48220285Y9199620D01*
X48506000Y9199620D02*
X48506000Y10199620D01*
X48410761Y10056762D01*
X48315523Y9961524D01*
X48220285Y9913905D01*
X52046428Y7212858D02*
X51532142Y7212858D01*
X51789285Y7212858D02*
X51789285Y8112858D01*
X51703571Y7984286D01*
X51617857Y7898572D01*
X51532142Y7855715D01*
X52432142Y7212858D02*
X52432142Y8112858D01*
X52946428Y7212858D01*
X52946428Y8112858D01*
X53760714Y7812858D02*
X53760714Y7212858D01*
X53546428Y8155715D02*
X53332142Y7512858D01*
X53889285Y7512858D01*
X54703571Y7212858D02*
X54189285Y7212858D01*
X54446428Y7212858D02*
X54446428Y8112858D01*
X54360714Y7984286D01*
X54275000Y7898572D01*
X54189285Y7855715D01*
X55475000Y7812858D02*
X55475000Y7212858D01*
X55260714Y8155715D02*
X55046428Y7512858D01*
X55603571Y7512858D01*
X56075000Y7727143D02*
X55989285Y7770000D01*
X55946428Y7812858D01*
X55903571Y7898572D01*
X55903571Y7941429D01*
X55946428Y8027143D01*
X55989285Y8070000D01*
X56075000Y8112858D01*
X56246428Y8112858D01*
X56332142Y8070000D01*
X56375000Y8027143D01*
X56417857Y7941429D01*
X56417857Y7898572D01*
X56375000Y7812858D01*
X56332142Y7770000D01*
X56246428Y7727143D01*
X56075000Y7727143D01*
X55989285Y7684286D01*
X55946428Y7641429D01*
X55903571Y7555715D01*
X55903571Y7384286D01*
X55946428Y7298572D01*
X55989285Y7255715D01*
X56075000Y7212858D01*
X56246428Y7212858D01*
X56332142Y7255715D01*
X56375000Y7298572D01*
X56417857Y7384286D01*
X56417857Y7555715D01*
X56375000Y7641429D01*
X56332142Y7684286D01*
X56246428Y7727143D01*
X49903095Y10872620D02*
X49903095Y11872620D01*
X50474523Y10872620D02*
X50045952Y11444048D01*
X50474523Y11872620D02*
X49903095Y11301191D01*
%TO.C,C2*%
X23852142Y11263334D02*
X23899761Y11215715D01*
X23947380Y11072858D01*
X23947380Y10977620D01*
X23899761Y10834762D01*
X23804523Y10739524D01*
X23709285Y10691905D01*
X23518809Y10644286D01*
X23375952Y10644286D01*
X23185476Y10691905D01*
X23090238Y10739524D01*
X22995000Y10834762D01*
X22947380Y10977620D01*
X22947380Y11072858D01*
X22995000Y11215715D01*
X23042619Y11263334D01*
X23042619Y11644286D02*
X22995000Y11691905D01*
X22947380Y11787143D01*
X22947380Y12025239D01*
X22995000Y12120477D01*
X23042619Y12168096D01*
X23137857Y12215715D01*
X23233095Y12215715D01*
X23375952Y12168096D01*
X23947380Y11596667D01*
X23947380Y12215715D01*
X25979380Y14835381D02*
X25979380Y14263953D01*
X25979380Y14549667D02*
X24979380Y14549667D01*
X25122238Y14454429D01*
X25217476Y14359191D01*
X25265095Y14263953D01*
X24979380Y15454429D02*
X24979380Y15549667D01*
X25027000Y15644905D01*
X25074619Y15692524D01*
X25169857Y15740143D01*
X25360333Y15787762D01*
X25598428Y15787762D01*
X25788904Y15740143D01*
X25884142Y15692524D01*
X25931761Y15644905D01*
X25979380Y15549667D01*
X25979380Y15454429D01*
X25931761Y15359191D01*
X25884142Y15311572D01*
X25788904Y15263953D01*
X25598428Y15216334D01*
X25360333Y15216334D01*
X25169857Y15263953D01*
X25074619Y15311572D01*
X25027000Y15359191D01*
X24979380Y15454429D01*
X24979380Y16406810D02*
X24979380Y16502048D01*
X25027000Y16597286D01*
X25074619Y16644905D01*
X25169857Y16692524D01*
X25360333Y16740143D01*
X25598428Y16740143D01*
X25788904Y16692524D01*
X25884142Y16644905D01*
X25931761Y16597286D01*
X25979380Y16502048D01*
X25979380Y16406810D01*
X25931761Y16311572D01*
X25884142Y16263953D01*
X25788904Y16216334D01*
X25598428Y16168715D01*
X25360333Y16168715D01*
X25169857Y16216334D01*
X25074619Y16263953D01*
X25027000Y16311572D01*
X24979380Y16406810D01*
X25312714Y17168715D02*
X25979380Y17168715D01*
X25407952Y17168715D02*
X25360333Y17216334D01*
X25312714Y17311572D01*
X25312714Y17454429D01*
X25360333Y17549667D01*
X25455571Y17597286D01*
X25979380Y17597286D01*
X25455571Y18406810D02*
X25455571Y18073477D01*
X25979380Y18073477D02*
X24979380Y18073477D01*
X24979380Y18549667D01*
%TO.C,U3*%
X1484380Y15748096D02*
X2293904Y15748096D01*
X2389142Y15795715D01*
X2436761Y15843334D01*
X2484380Y15938572D01*
X2484380Y16129048D01*
X2436761Y16224286D01*
X2389142Y16271905D01*
X2293904Y16319524D01*
X1484380Y16319524D01*
X1484380Y16700477D02*
X1484380Y17319524D01*
X1865333Y16986191D01*
X1865333Y17129048D01*
X1912952Y17224286D01*
X1960571Y17271905D01*
X2055809Y17319524D01*
X2293904Y17319524D01*
X2389142Y17271905D01*
X2436761Y17224286D01*
X2484380Y17129048D01*
X2484380Y16843334D01*
X2436761Y16748096D01*
X2389142Y16700477D01*
X10057142Y17057620D02*
X10723809Y17057620D01*
X10295238Y16057620D01*
X11533333Y16724286D02*
X11533333Y16057620D01*
X11295238Y17105239D02*
X11057142Y16390953D01*
X11676190Y16390953D01*
X12533333Y16057620D02*
X12057142Y16057620D01*
X12057142Y17057620D01*
X12819047Y16105239D02*
X12961904Y16057620D01*
X13200000Y16057620D01*
X13295238Y16105239D01*
X13342857Y16152858D01*
X13390476Y16248096D01*
X13390476Y16343334D01*
X13342857Y16438572D01*
X13295238Y16486191D01*
X13200000Y16533810D01*
X13009523Y16581429D01*
X12914285Y16629048D01*
X12866666Y16676667D01*
X12819047Y16771905D01*
X12819047Y16867143D01*
X12866666Y16962381D01*
X12914285Y17010000D01*
X13009523Y17057620D01*
X13247619Y17057620D01*
X13390476Y17010000D01*
X13723809Y17057620D02*
X14342857Y17057620D01*
X14009523Y16676667D01*
X14152380Y16676667D01*
X14247619Y16629048D01*
X14295238Y16581429D01*
X14342857Y16486191D01*
X14342857Y16248096D01*
X14295238Y16152858D01*
X14247619Y16105239D01*
X14152380Y16057620D01*
X13866666Y16057620D01*
X13771428Y16105239D01*
X13723809Y16152858D01*
X14961904Y17057620D02*
X15057142Y17057620D01*
X15152380Y17010000D01*
X15200000Y16962381D01*
X15247619Y16867143D01*
X15295238Y16676667D01*
X15295238Y16438572D01*
X15247619Y16248096D01*
X15200000Y16152858D01*
X15152380Y16105239D01*
X15057142Y16057620D01*
X14961904Y16057620D01*
X14866666Y16105239D01*
X14819047Y16152858D01*
X14771428Y16248096D01*
X14723809Y16438572D01*
X14723809Y16676667D01*
X14771428Y16867143D01*
X14819047Y16962381D01*
X14866666Y17010000D01*
X14961904Y17057620D01*
%TO.C,R1*%
X57872333Y13771620D02*
X57539000Y14247810D01*
X57300904Y13771620D02*
X57300904Y14771620D01*
X57681857Y14771620D01*
X57777095Y14724000D01*
X57824714Y14676381D01*
X57872333Y14581143D01*
X57872333Y14438286D01*
X57824714Y14343048D01*
X57777095Y14295429D01*
X57681857Y14247810D01*
X57300904Y14247810D01*
X58824714Y13771620D02*
X58253285Y13771620D01*
X58539000Y13771620D02*
X58539000Y14771620D01*
X58443761Y14628762D01*
X58348523Y14533524D01*
X58253285Y14485905D01*
X55054523Y16057620D02*
X54483095Y16057620D01*
X54768809Y16057620D02*
X54768809Y17057620D01*
X54673571Y16914762D01*
X54578333Y16819524D01*
X54483095Y16771905D01*
X55673571Y17057620D02*
X55768809Y17057620D01*
X55864047Y17010000D01*
X55911666Y16962381D01*
X55959285Y16867143D01*
X56006904Y16676667D01*
X56006904Y16438572D01*
X55959285Y16248096D01*
X55911666Y16152858D01*
X55864047Y16105239D01*
X55768809Y16057620D01*
X55673571Y16057620D01*
X55578333Y16105239D01*
X55530714Y16152858D01*
X55483095Y16248096D01*
X55435476Y16438572D01*
X55435476Y16676667D01*
X55483095Y16867143D01*
X55530714Y16962381D01*
X55578333Y17010000D01*
X55673571Y17057620D01*
%TO.C,C4*%
X47458333Y13612858D02*
X47410714Y13565239D01*
X47267857Y13517620D01*
X47172619Y13517620D01*
X47029761Y13565239D01*
X46934523Y13660477D01*
X46886904Y13755715D01*
X46839285Y13946191D01*
X46839285Y14089048D01*
X46886904Y14279524D01*
X46934523Y14374762D01*
X47029761Y14470000D01*
X47172619Y14517620D01*
X47267857Y14517620D01*
X47410714Y14470000D01*
X47458333Y14422381D01*
X48315476Y14184286D02*
X48315476Y13517620D01*
X48077380Y14565239D02*
X47839285Y13850953D01*
X48458333Y13850953D01*
X46056666Y12914286D02*
X46056666Y12247620D01*
X45866190Y13295239D02*
X45675714Y12580953D01*
X46170952Y12580953D01*
X46399523Y13247620D02*
X46932857Y13247620D01*
X46590000Y12247620D01*
X47237619Y12914286D02*
X47237619Y12247620D01*
X47237619Y12819048D02*
X47275714Y12866667D01*
X47351904Y12914286D01*
X47466190Y12914286D01*
X47542380Y12866667D01*
X47580476Y12771429D01*
X47580476Y12247620D01*
X48228095Y12771429D02*
X47961428Y12771429D01*
X47961428Y12247620D02*
X47961428Y13247620D01*
X48342380Y13247620D01*
%TO.C,C1*%
X67413333Y9227858D02*
X67365714Y9180239D01*
X67222857Y9132620D01*
X67127619Y9132620D01*
X66984761Y9180239D01*
X66889523Y9275477D01*
X66841904Y9370715D01*
X66794285Y9561191D01*
X66794285Y9704048D01*
X66841904Y9894524D01*
X66889523Y9989762D01*
X66984761Y10085000D01*
X67127619Y10132620D01*
X67222857Y10132620D01*
X67365714Y10085000D01*
X67413333Y10037381D01*
X68365714Y9132620D02*
X67794285Y9132620D01*
X68080000Y9132620D02*
X68080000Y10132620D01*
X67984761Y9989762D01*
X67889523Y9894524D01*
X67794285Y9846905D01*
X69754904Y16089286D02*
X69754904Y15422620D01*
X69516809Y16470239D02*
X69278714Y15755953D01*
X69897761Y15755953D01*
X70183476Y16422620D02*
X70850142Y16422620D01*
X70421571Y15422620D01*
X71231095Y16089286D02*
X71231095Y15089286D01*
X71707285Y15565477D02*
X71754904Y15470239D01*
X71850142Y15422620D01*
X71231095Y15565477D02*
X71278714Y15470239D01*
X71373952Y15422620D01*
X71564428Y15422620D01*
X71659666Y15470239D01*
X71707285Y15565477D01*
X71707285Y16089286D01*
X72612047Y15946429D02*
X72278714Y15946429D01*
X72278714Y15422620D02*
X72278714Y16422620D01*
X72754904Y16422620D01*
%TD*%
M02*
