%TF.GenerationSoftware,KiCad,Pcbnew,(5.1.12)-1*%
%TF.CreationDate,2022-03-19T11:08:17+01:00*%
%TF.ProjectId,8EA,3845412e-6b69-4636-9164-5f7063625858,1.0*%
%TF.SameCoordinates,PX6d01460PY60e4b00*%
%TF.FileFunction,Copper,L1,Top*%
%TF.FilePolarity,Positive*%
%FSLAX46Y46*%
G04 Gerber Fmt 4.6, Leading zero omitted, Abs format (unit mm)*
G04 Created by KiCad (PCBNEW (5.1.12)-1) date 2022-03-19 11:08:17*
%MOMM*%
%LPD*%
G01*
G04 APERTURE LIST*
%TA.AperFunction,ComponentPad*%
%ADD10O,1.700000X1.700000*%
%TD*%
%TA.AperFunction,ComponentPad*%
%ADD11R,1.700000X1.700000*%
%TD*%
%TA.AperFunction,ComponentPad*%
%ADD12C,1.600000*%
%TD*%
%TA.AperFunction,ComponentPad*%
%ADD13O,1.600000X1.600000*%
%TD*%
%TA.AperFunction,ComponentPad*%
%ADD14O,2.400000X1.600000*%
%TD*%
%TA.AperFunction,ComponentPad*%
%ADD15R,2.400000X1.600000*%
%TD*%
%TA.AperFunction,ComponentPad*%
%ADD16O,1.600000X2.400000*%
%TD*%
%TA.AperFunction,ComponentPad*%
%ADD17R,1.600000X2.400000*%
%TD*%
%TA.AperFunction,ComponentPad*%
%ADD18C,1.700000*%
%TD*%
%TA.AperFunction,ComponentPad*%
%ADD19R,1.600000X1.600000*%
%TD*%
%TA.AperFunction,ViaPad*%
%ADD20C,1.300000*%
%TD*%
%TA.AperFunction,Conductor*%
%ADD21C,0.800000*%
%TD*%
%TA.AperFunction,Conductor*%
%ADD22C,0.400000*%
%TD*%
%TA.AperFunction,Conductor*%
%ADD23C,0.254000*%
%TD*%
%TA.AperFunction,Conductor*%
%ADD24C,0.100000*%
%TD*%
G04 APERTURE END LIST*
D10*
%TO.P,J2,10*%
%TO.N,GND*%
X72390000Y45085000D03*
%TO.P,J2,9*%
%TO.N,/IN7*%
X69850000Y45085000D03*
%TO.P,J2,8*%
%TO.N,/IN6*%
X67310000Y45085000D03*
%TO.P,J2,7*%
%TO.N,/IN5*%
X64770000Y45085000D03*
%TO.P,J2,6*%
%TO.N,/IN4*%
X62230000Y45085000D03*
%TO.P,J2,5*%
%TO.N,/IN3*%
X59690000Y45085000D03*
%TO.P,J2,4*%
%TO.N,/IN2*%
X57150000Y45085000D03*
%TO.P,J2,3*%
%TO.N,/IN1*%
X54610000Y45085000D03*
%TO.P,J2,2*%
%TO.N,/IN0*%
X52070000Y45085000D03*
D11*
%TO.P,J2,1*%
%TO.N,VCC*%
X49530000Y45085000D03*
%TD*%
D10*
%TO.P,JP1,3*%
%TO.N,Net-(JP1-Pad3)*%
X12065000Y8890000D03*
%TO.P,JP1,2*%
%TO.N,Net-(JP1-Pad2)*%
X9525000Y8890000D03*
D11*
%TO.P,JP1,1*%
%TO.N,/A0*%
X6985000Y8890000D03*
%TD*%
D12*
%TO.P,C13,2*%
%TO.N,Net-(C13-Pad2)*%
X23495000Y39370000D03*
%TO.P,C13,1*%
%TO.N,Net-(C13-Pad1)*%
X23495000Y41870000D03*
%TD*%
D13*
%TO.P,R10,2*%
%TO.N,Net-(C13-Pad2)*%
X23368000Y36830000D03*
D12*
%TO.P,R10,1*%
%TO.N,GND*%
X23368000Y26670000D03*
%TD*%
D14*
%TO.P,U4,28*%
%TO.N,Net-(C7-Pad2)*%
X43180000Y44450000D03*
%TO.P,U4,14*%
%TO.N,/D1*%
X27940000Y11430000D03*
%TO.P,U4,27*%
%TO.N,Net-(C6-Pad2)*%
X43180000Y41910000D03*
%TO.P,U4,13*%
%TO.N,GND*%
X27940000Y13970000D03*
%TO.P,U4,26*%
%TO.N,Net-(C5-Pad2)*%
X43180000Y39370000D03*
%TO.P,U4,12*%
%TO.N,Net-(C4-Pad2)*%
X27940000Y16510000D03*
%TO.P,U4,25*%
%TO.N,/D0*%
X43180000Y36830000D03*
%TO.P,U4,11*%
%TO.N,VCC*%
X27940000Y19050000D03*
%TO.P,U4,24*%
%TO.N,/D1*%
X43180000Y34290000D03*
%TO.P,U4,10*%
%TO.N,/PHI2*%
X27940000Y21590000D03*
%TO.P,U4,23*%
%TO.N,/D2*%
X43180000Y31750000D03*
%TO.P,U4,9*%
%TO.N,Net-(U2-Pad10)*%
X27940000Y24130000D03*
%TO.P,U4,22*%
%TO.N,Net-(C13-Pad2)*%
X43180000Y29210000D03*
%TO.P,U4,8*%
%TO.N,/D3*%
X27940000Y26670000D03*
%TO.P,U4,21*%
%TO.N,/D7*%
X43180000Y26670000D03*
%TO.P,U4,7*%
%TO.N,Net-(U4-Pad7)*%
X27940000Y29210000D03*
%TO.P,U4,20*%
%TO.N,/D6*%
X43180000Y24130000D03*
%TO.P,U4,6*%
%TO.N,Net-(C13-Pad2)*%
X27940000Y31750000D03*
%TO.P,U4,19*%
%TO.N,/D5*%
X43180000Y21590000D03*
%TO.P,U4,5*%
%TO.N,Net-(C12-Pad2)*%
X27940000Y34290000D03*
%TO.P,U4,18*%
%TO.N,/D4*%
X43180000Y19050000D03*
%TO.P,U4,4*%
%TO.N,Net-(C11-Pad2)*%
X27940000Y36830000D03*
%TO.P,U4,17*%
%TO.N,/D0*%
X43180000Y16510000D03*
%TO.P,U4,3*%
%TO.N,Net-(C10-Pad2)*%
X27940000Y39370000D03*
%TO.P,U4,16*%
%TO.N,GND*%
X43180000Y13970000D03*
%TO.P,U4,2*%
%TO.N,Net-(C9-Pad2)*%
X27940000Y41910000D03*
%TO.P,U4,15*%
%TO.N,/D2*%
X43180000Y11430000D03*
D15*
%TO.P,U4,1*%
%TO.N,Net-(C8-Pad2)*%
X27940000Y44450000D03*
%TD*%
D16*
%TO.P,U1,14*%
%TO.N,VCC*%
X4445000Y44450000D03*
%TO.P,U1,7*%
%TO.N,GND*%
X19685000Y36830000D03*
%TO.P,U1,13*%
%TO.N,N/C*%
X6985000Y44450000D03*
%TO.P,U1,6*%
%TO.N,Net-(U1-Pad6)*%
X17145000Y36830000D03*
%TO.P,U1,12*%
%TO.N,N/C*%
X9525000Y44450000D03*
%TO.P,U1,5*%
%TO.N,Net-(U1-Pad5)*%
X14605000Y36830000D03*
%TO.P,U1,11*%
%TO.N,N/C*%
X12065000Y44450000D03*
%TO.P,U1,4*%
%TO.N,Net-(D1-Pad1)*%
X12065000Y36830000D03*
%TO.P,U1,10*%
%TO.N,/R_~W*%
X14605000Y44450000D03*
%TO.P,U1,3*%
%TO.N,Net-(U1-Pad3)*%
X9525000Y36830000D03*
%TO.P,U1,9*%
%TO.N,Net-(D1-Pad1)*%
X17145000Y44450000D03*
%TO.P,U1,2*%
%TO.N,Net-(JP1-Pad2)*%
X6985000Y36830000D03*
%TO.P,U1,8*%
%TO.N,Net-(C13-Pad1)*%
X19685000Y44450000D03*
D17*
%TO.P,U1,1*%
%TO.N,/A1*%
X4445000Y36830000D03*
%TD*%
D13*
%TO.P,R9,2*%
%TO.N,Net-(C12-Pad2)*%
X73025000Y27940000D03*
D12*
%TO.P,R9,1*%
%TO.N,/IN7*%
X73025000Y38100000D03*
%TD*%
D13*
%TO.P,R8,2*%
%TO.N,Net-(C11-Pad2)*%
X69850000Y27940000D03*
D12*
%TO.P,R8,1*%
%TO.N,/IN6*%
X69850000Y38100000D03*
%TD*%
D13*
%TO.P,R7,2*%
%TO.N,Net-(C10-Pad2)*%
X66675000Y27940000D03*
D12*
%TO.P,R7,1*%
%TO.N,/IN5*%
X66675000Y38100000D03*
%TD*%
D13*
%TO.P,R6,2*%
%TO.N,Net-(C9-Pad2)*%
X63500000Y27940000D03*
D12*
%TO.P,R6,1*%
%TO.N,/IN4*%
X63500000Y38100000D03*
%TD*%
D13*
%TO.P,R5,2*%
%TO.N,Net-(C8-Pad2)*%
X60325000Y27940000D03*
D12*
%TO.P,R5,1*%
%TO.N,/IN3*%
X60325000Y38100000D03*
%TD*%
D13*
%TO.P,R4,2*%
%TO.N,Net-(C7-Pad2)*%
X57150000Y27940000D03*
D12*
%TO.P,R4,1*%
%TO.N,/IN2*%
X57150000Y38100000D03*
%TD*%
D13*
%TO.P,R3,2*%
%TO.N,Net-(C6-Pad2)*%
X53975000Y27940000D03*
D12*
%TO.P,R3,1*%
%TO.N,/IN1*%
X53975000Y38100000D03*
%TD*%
D13*
%TO.P,R2,2*%
%TO.N,Net-(C5-Pad2)*%
X50800000Y27940000D03*
D12*
%TO.P,R2,1*%
%TO.N,/IN0*%
X50800000Y38100000D03*
%TD*%
%TO.P,C12,2*%
%TO.N,Net-(C12-Pad2)*%
X73025000Y25400000D03*
%TO.P,C12,1*%
%TO.N,GND*%
X73025000Y20400000D03*
%TD*%
%TO.P,C11,2*%
%TO.N,Net-(C11-Pad2)*%
X69850000Y25320000D03*
%TO.P,C11,1*%
%TO.N,GND*%
X69850000Y20320000D03*
%TD*%
%TO.P,C10,2*%
%TO.N,Net-(C10-Pad2)*%
X66675000Y25320000D03*
%TO.P,C10,1*%
%TO.N,GND*%
X66675000Y20320000D03*
%TD*%
%TO.P,C9,2*%
%TO.N,Net-(C9-Pad2)*%
X63500000Y25320000D03*
%TO.P,C9,1*%
%TO.N,GND*%
X63500000Y20320000D03*
%TD*%
%TO.P,C8,2*%
%TO.N,Net-(C8-Pad2)*%
X60325000Y25320000D03*
%TO.P,C8,1*%
%TO.N,GND*%
X60325000Y20320000D03*
%TD*%
%TO.P,C7,2*%
%TO.N,Net-(C7-Pad2)*%
X57150000Y25320000D03*
%TO.P,C7,1*%
%TO.N,GND*%
X57150000Y20320000D03*
%TD*%
%TO.P,C6,2*%
%TO.N,Net-(C6-Pad2)*%
X53975000Y25320000D03*
%TO.P,C6,1*%
%TO.N,GND*%
X53975000Y20320000D03*
%TD*%
%TO.P,C5,2*%
%TO.N,Net-(C5-Pad2)*%
X50800000Y25320000D03*
%TO.P,C5,1*%
%TO.N,GND*%
X50800000Y20320000D03*
%TD*%
D16*
%TO.P,U2,14*%
%TO.N,VCC*%
X4445000Y32385000D03*
%TO.P,U2,7*%
%TO.N,GND*%
X19685000Y24765000D03*
%TO.P,U2,13*%
%TO.N,/A0*%
X6985000Y32385000D03*
%TO.P,U2,6*%
%TO.N,Net-(U2-Pad6)*%
X17145000Y24765000D03*
%TO.P,U2,12*%
%TO.N,Net-(JP1-Pad3)*%
X9525000Y32385000D03*
%TO.P,U2,5*%
%TO.N,/A2*%
X14605000Y24765000D03*
%TO.P,U2,11*%
%TO.N,Net-(U1-Pad6)*%
X12065000Y32385000D03*
%TO.P,U2,4*%
%TO.N,Net-(U1-Pad5)*%
X12065000Y24765000D03*
%TO.P,U2,10*%
%TO.N,Net-(U2-Pad10)*%
X14605000Y32385000D03*
%TO.P,U2,3*%
%TO.N,/R_~W*%
X9525000Y24765000D03*
%TO.P,U2,9*%
%TO.N,Net-(U1-Pad3)*%
X17145000Y32385000D03*
%TO.P,U2,2*%
%TO.N,Net-(U2-Pad2)*%
X6985000Y24765000D03*
%TO.P,U2,8*%
%TO.N,Net-(U2-Pad8)*%
X19685000Y32385000D03*
D17*
%TO.P,U2,1*%
%TO.N,/~IO*%
X4445000Y24765000D03*
%TD*%
D18*
%TO.P,J1,34*%
%TO.N,GND*%
X17780000Y3175000D03*
%TO.P,J1,32*%
%TO.N,/A11*%
X20320000Y3175000D03*
%TO.P,J1,30*%
%TO.N,/A12*%
X22860000Y3175000D03*
%TO.P,J1,28*%
%TO.N,/A13*%
X25400000Y3175000D03*
%TO.P,J1,26*%
%TO.N,/A14*%
X27940000Y3175000D03*
%TO.P,J1,24*%
%TO.N,/A15*%
X30480000Y3175000D03*
%TO.P,J1,22*%
%TO.N,/D7*%
X33020000Y3175000D03*
%TO.P,J1,20*%
%TO.N,/A4*%
X35560000Y3175000D03*
%TO.P,J1,18*%
%TO.N,/D4*%
X38100000Y3175000D03*
%TO.P,J1,16*%
%TO.N,/D3*%
X40640000Y3175000D03*
%TO.P,J1,14*%
%TO.N,/D6*%
X43180000Y3175000D03*
%TO.P,J1,12*%
%TO.N,/D1*%
X45720000Y3175000D03*
%TO.P,J1,10*%
%TO.N,/D0*%
X48260000Y3175000D03*
%TO.P,J1,8*%
%TO.N,/~IRQ*%
X50800000Y3175000D03*
%TO.P,J1,6*%
%TO.N,/~IOCTRL*%
X53340000Y3175000D03*
%TO.P,J1,4*%
%TO.N,/~RESET*%
X55880000Y3175000D03*
%TO.P,J1,2*%
%TO.N,/~ROMDIS*%
X58420000Y3175000D03*
%TO.P,J1,33*%
%TO.N,VCC*%
X17780000Y5715000D03*
%TO.P,J1,31*%
%TO.N,/A10*%
X20320000Y5715000D03*
%TO.P,J1,29*%
%TO.N,/A9*%
X22860000Y5715000D03*
%TO.P,J1,27*%
%TO.N,/A8*%
X25400000Y5715000D03*
%TO.P,J1,25*%
%TO.N,/A7*%
X27940000Y5715000D03*
%TO.P,J1,23*%
%TO.N,/A6*%
X30480000Y5715000D03*
%TO.P,J1,21*%
%TO.N,/A5*%
X33020000Y5715000D03*
%TO.P,J1,19*%
%TO.N,/D5*%
X35560000Y5715000D03*
%TO.P,J1,17*%
%TO.N,/A2*%
X38100000Y5715000D03*
%TO.P,J1,15*%
%TO.N,/A1*%
X40640000Y5715000D03*
%TO.P,J1,13*%
%TO.N,/A0*%
X43180000Y5715000D03*
%TO.P,J1,11*%
%TO.N,/A3*%
X45720000Y5715000D03*
%TO.P,J1,9*%
%TO.N,/D2*%
X48260000Y5715000D03*
%TO.P,J1,7*%
%TO.N,/R_~W*%
X50800000Y5715000D03*
%TO.P,J1,5*%
%TO.N,/~IO*%
X53340000Y5715000D03*
%TO.P,J1,3*%
%TO.N,/PHI2*%
X55880000Y5715000D03*
%TO.P,J1,1*%
%TO.N,/~MAP*%
%TA.AperFunction,ComponentPad*%
G36*
G01*
X57820000Y6565000D02*
X59020000Y6565000D01*
G75*
G02*
X59270000Y6315000I0J-250000D01*
G01*
X59270000Y5115000D01*
G75*
G02*
X59020000Y4865000I-250000J0D01*
G01*
X57820000Y4865000D01*
G75*
G02*
X57570000Y5115000I0J250000D01*
G01*
X57570000Y6315000D01*
G75*
G02*
X57820000Y6565000I250000J0D01*
G01*
G37*
%TD.AperFunction*%
%TD*%
D13*
%TO.P,D1,2*%
%TO.N,/~IOCTRL*%
X57785000Y9525000D03*
D19*
%TO.P,D1,1*%
%TO.N,Net-(D1-Pad1)*%
X50165000Y9525000D03*
%TD*%
D12*
%TO.P,C2,2*%
%TO.N,VCC*%
X23495000Y18970000D03*
%TO.P,C2,1*%
%TO.N,GND*%
X23495000Y13970000D03*
%TD*%
D16*
%TO.P,U3,14*%
%TO.N,VCC*%
X4445000Y20320000D03*
%TO.P,U3,7*%
%TO.N,GND*%
X19685000Y12700000D03*
%TO.P,U3,13*%
%TO.N,N/C*%
X6985000Y20320000D03*
%TO.P,U3,6*%
%TO.N,Net-(U2-Pad8)*%
X17145000Y12700000D03*
%TO.P,U3,12*%
%TO.N,Net-(U2-Pad2)*%
X9525000Y20320000D03*
%TO.P,U3,5*%
%TO.N,/A3*%
X14605000Y12700000D03*
%TO.P,U3,11*%
%TO.N,Net-(U2-Pad6)*%
X12065000Y20320000D03*
%TO.P,U3,4*%
%TO.N,/A4*%
X12065000Y12700000D03*
%TO.P,U3,10*%
%TO.N,N/C*%
X14605000Y20320000D03*
%TO.P,U3,3*%
%TO.N,/A5*%
X9525000Y12700000D03*
%TO.P,U3,9*%
%TO.N,N/C*%
X17145000Y20320000D03*
%TO.P,U3,2*%
%TO.N,/A6*%
X6985000Y12700000D03*
%TO.P,U3,8*%
%TO.N,Net-(D1-Pad1)*%
X19685000Y20320000D03*
D17*
%TO.P,U3,1*%
%TO.N,/A7*%
X4445000Y12700000D03*
%TD*%
D13*
%TO.P,R1,2*%
%TO.N,Net-(C4-Pad2)*%
X50165000Y16510000D03*
D12*
%TO.P,R1,1*%
%TO.N,VCC*%
X60325000Y16510000D03*
%TD*%
%TO.P,C4,2*%
%TO.N,Net-(C4-Pad2)*%
X50245000Y13335000D03*
%TO.P,C4,1*%
%TO.N,GND*%
X55245000Y13335000D03*
%TD*%
%TO.P,C1,2*%
%TO.N,GND*%
X66580000Y13335000D03*
D19*
%TO.P,C1,1*%
%TO.N,VCC*%
X68580000Y13335000D03*
%TD*%
D20*
%TO.N,/D0*%
X48260000Y20955000D03*
%TO.N,/D1*%
X38100000Y34290000D03*
X33020000Y32385000D03*
%TO.N,/D2*%
X46355000Y21590000D03*
%TO.N,/D3*%
X34925000Y26670000D03*
%TO.N,/D4*%
X34290000Y19050000D03*
%TO.N,/D5*%
X33020000Y21590000D03*
%TO.N,/A0*%
X6985000Y3810000D03*
%TO.N,/A1*%
X38100000Y24765000D03*
%TO.N,/A2*%
X33020000Y23495000D03*
X22860000Y22860000D03*
%TO.N,/R_~W*%
X29845000Y17780000D03*
X38735000Y17780000D03*
X15875000Y15875000D03*
%TO.N,/~IO*%
X4445000Y29210000D03*
X4445000Y3810000D03*
%TD*%
D21*
%TO.N,VCC*%
X4445000Y44450000D02*
X4445000Y45720000D01*
X4445000Y45720000D02*
X5715000Y46990000D01*
X4445000Y32385000D02*
X3175000Y32385000D01*
X3175000Y32385000D02*
X1905000Y33655000D01*
X1905000Y33655000D02*
X1905000Y43815000D01*
X2540000Y44450000D02*
X4445000Y44450000D01*
X1905000Y43815000D02*
X2540000Y44450000D01*
X3175000Y32385000D02*
X1905000Y31115000D01*
X1905000Y21590000D02*
X3175000Y20320000D01*
X1905000Y31115000D02*
X1905000Y21590000D01*
X3175000Y20320000D02*
X4445000Y20320000D01*
X3175000Y20320000D02*
X1905000Y19050000D01*
X1905000Y19050000D02*
X1905000Y8890000D01*
X5080000Y5715000D02*
X17780000Y5715000D01*
X1905000Y8890000D02*
X5080000Y5715000D01*
X26035000Y21510000D02*
X23495000Y18970000D01*
X26035000Y46990000D02*
X26035000Y21510000D01*
X68580000Y15240000D02*
X68580000Y13335000D01*
X68580000Y16510000D02*
X68580000Y15240000D01*
X68580000Y15240000D02*
X68580000Y14605000D01*
X49530000Y45085000D02*
X47625000Y45085000D01*
X45720000Y46990000D02*
X25400000Y46990000D01*
X47625000Y45085000D02*
X45720000Y46990000D01*
X25400000Y46990000D02*
X26035000Y46990000D01*
X5715000Y46990000D02*
X25400000Y46990000D01*
X49530000Y45085000D02*
X49530000Y41910000D01*
X49530000Y41910000D02*
X50800000Y40640000D01*
X50800000Y40640000D02*
X73660000Y40640000D01*
X73660000Y40640000D02*
X74930000Y39370000D01*
X74930000Y39370000D02*
X74930000Y18415000D01*
X73025000Y16510000D02*
X67945000Y16510000D01*
X74930000Y18415000D02*
X73025000Y16510000D01*
X67945000Y16510000D02*
X68580000Y16510000D01*
X60325000Y16510000D02*
X67945000Y16510000D01*
D22*
%TO.N,/D0*%
X46990000Y16510000D02*
X43180000Y16510000D01*
X48260000Y17780000D02*
X46990000Y16510000D01*
X48260000Y20955000D02*
X48260000Y17780000D01*
%TO.N,/D1*%
X43180000Y34290000D02*
X38100000Y34290000D01*
X29845000Y11430000D02*
X27940000Y11430000D01*
X31115000Y12700000D02*
X29845000Y11430000D01*
X31115000Y30480000D02*
X31115000Y12700000D01*
X33020000Y32385000D02*
X31115000Y30480000D01*
%TO.N,/D2*%
X41275000Y11430000D02*
X43180000Y11430000D01*
X40640000Y12065000D02*
X41275000Y11430000D01*
X40640000Y17145000D02*
X40640000Y12065000D01*
X41275000Y17780000D02*
X40640000Y17145000D01*
X45720000Y17780000D02*
X41275000Y17780000D01*
X46355000Y18415000D02*
X45720000Y17780000D01*
X46355000Y21590000D02*
X46355000Y18415000D01*
%TO.N,/D3*%
X40640000Y3175000D02*
X39370000Y4445000D01*
X39370000Y7620000D02*
X36195000Y10795000D01*
X39370000Y4445000D02*
X39370000Y7620000D01*
X36195000Y10795000D02*
X36195000Y25400000D01*
X36195000Y25400000D02*
X34925000Y26670000D01*
%TO.N,/D4*%
X36830000Y4445000D02*
X38100000Y3175000D01*
X36830000Y7620000D02*
X36830000Y4445000D01*
X34290000Y10160000D02*
X36830000Y7620000D01*
X34290000Y19050000D02*
X34290000Y10160000D01*
%TO.N,/D5*%
X33020000Y10160000D02*
X35560000Y7620000D01*
X33020000Y21590000D02*
X33020000Y10160000D01*
X35560000Y7620000D02*
X35560000Y5715000D01*
%TO.N,/D6*%
X43180000Y3175000D02*
X41910000Y4445000D01*
X41910000Y4445000D02*
X41910000Y7620000D01*
X40005000Y24130000D02*
X43180000Y24130000D01*
X37465000Y21590000D02*
X40005000Y24130000D01*
X41910000Y7620000D02*
X37465000Y12065000D01*
X37465000Y12065000D02*
X37465000Y21590000D01*
%TO.N,/D7*%
X38100000Y26670000D02*
X43180000Y26670000D01*
X36830000Y27940000D02*
X38100000Y26670000D01*
X33020000Y27940000D02*
X36830000Y27940000D01*
X31750000Y26670000D02*
X33020000Y27940000D01*
X31750000Y4445000D02*
X31750000Y26670000D01*
X33020000Y3175000D02*
X31750000Y4445000D01*
%TO.N,/A0*%
X43180000Y5715000D02*
X44450000Y4445000D01*
X44450000Y4445000D02*
X44450000Y1905000D01*
X44450000Y1905000D02*
X43815000Y1270000D01*
X43815000Y1270000D02*
X9525000Y1270000D01*
X9525000Y1270000D02*
X6985000Y3810000D01*
%TO.N,/A1*%
X36830000Y11430000D02*
X36830000Y23495000D01*
X36830000Y23495000D02*
X38100000Y24765000D01*
X40640000Y7620000D02*
X36830000Y11430000D01*
X40640000Y5715000D02*
X40640000Y7620000D01*
%TO.N,/A2*%
X38100000Y5715000D02*
X38100000Y7620000D01*
X38100000Y7620000D02*
X35560000Y10160000D01*
X35560000Y22225000D02*
X34290000Y23495000D01*
X35560000Y10160000D02*
X35560000Y22225000D01*
X33020000Y23495000D02*
X34290000Y23495000D01*
X14605000Y22860000D02*
X14605000Y24765000D01*
X15240000Y22225000D02*
X14605000Y22860000D01*
X20955000Y22225000D02*
X15240000Y22225000D01*
X21590000Y22860000D02*
X20955000Y22225000D01*
X22860000Y22860000D02*
X21590000Y22860000D01*
%TO.N,Net-(D1-Pad1)*%
X17145000Y44450000D02*
X17145000Y41910000D01*
X17145000Y41910000D02*
X15875000Y40640000D01*
X15875000Y40640000D02*
X13335000Y40640000D01*
X12065000Y39370000D02*
X12065000Y36830000D01*
X13335000Y40640000D02*
X12065000Y39370000D01*
X12065000Y36830000D02*
X12065000Y35560000D01*
X12065000Y35560000D02*
X13335000Y34290000D01*
X13335000Y19050000D02*
X13970000Y18415000D01*
X13335000Y34290000D02*
X13335000Y19050000D01*
X13970000Y18415000D02*
X19050000Y18415000D01*
X19050000Y18415000D02*
X19685000Y19050000D01*
X19685000Y19050000D02*
X19685000Y20320000D01*
%TO.N,/R_~W*%
X25400000Y17780000D02*
X29845000Y17780000D01*
X23495000Y15875000D02*
X25400000Y17780000D01*
X38735000Y17780000D02*
X38735000Y12065000D01*
X38735000Y12065000D02*
X43180000Y7620000D01*
X43180000Y7620000D02*
X49530000Y7620000D01*
X50800000Y6350000D02*
X50800000Y5715000D01*
X49530000Y7620000D02*
X50800000Y6350000D01*
X15875000Y15875000D02*
X23495000Y15875000D01*
%TO.N,/~IO*%
X4445000Y29210000D02*
X4445000Y24765000D01*
X4445000Y3810000D02*
X7620000Y635000D01*
X7620000Y635000D02*
X50800000Y635000D01*
X50800000Y635000D02*
X52070000Y1905000D01*
X52070000Y1905000D02*
X52070000Y4445000D01*
X52070000Y4445000D02*
X53340000Y5715000D01*
%TO.N,Net-(C9-Pad2)*%
X27940000Y41910000D02*
X37465000Y41910000D01*
X37465000Y41910000D02*
X38735000Y40640000D01*
X38735000Y40640000D02*
X45085000Y40640000D01*
X45085000Y40640000D02*
X51435000Y34290000D01*
X51435000Y34290000D02*
X60325000Y34290000D01*
X63500000Y31115000D02*
X63500000Y27940000D01*
X60325000Y34290000D02*
X63500000Y31115000D01*
%TO.N,Net-(C10-Pad2)*%
X27940000Y39370000D02*
X38100000Y39370000D01*
X38100000Y39370000D02*
X39370000Y38100000D01*
X39370000Y38100000D02*
X45085000Y38100000D01*
X45085000Y38100000D02*
X48260000Y34925000D01*
X48260000Y34925000D02*
X48260000Y25613542D01*
X48260000Y25613542D02*
X50378542Y23495000D01*
X50378542Y23495000D02*
X66040000Y23495000D01*
X66675000Y24130000D02*
X66675000Y25320000D01*
X66040000Y23495000D02*
X66675000Y24130000D01*
%TO.N,Net-(C11-Pad2)*%
X38735000Y36830000D02*
X27940000Y36830000D01*
X40005000Y35560000D02*
X38735000Y36830000D01*
X45085000Y35560000D02*
X40005000Y35560000D01*
X47371000Y33274000D02*
X45085000Y35560000D01*
X47371000Y25019000D02*
X47371000Y33274000D01*
X49784000Y22606000D02*
X47371000Y25019000D01*
X68961000Y22606000D02*
X49784000Y22606000D01*
X69850000Y23495000D02*
X68961000Y22606000D01*
X69850000Y25320000D02*
X69850000Y23495000D01*
%TO.N,Net-(C12-Pad2)*%
X34290000Y34290000D02*
X27940000Y34290000D01*
X35560000Y33020000D02*
X34290000Y34290000D01*
X45085000Y33020000D02*
X35560000Y33020000D01*
X46355000Y31750000D02*
X45085000Y33020000D01*
X46355000Y24765000D02*
X46355000Y31750000D01*
X49276000Y21844000D02*
X46355000Y24765000D01*
X71374000Y21844000D02*
X49276000Y21844000D01*
X73025000Y23495000D02*
X71374000Y21844000D01*
X73025000Y25400000D02*
X73025000Y23495000D01*
%TO.N,Net-(JP1-Pad3)*%
X9525000Y32385000D02*
X9525000Y29210000D01*
X9525000Y29210000D02*
X8255000Y27940000D01*
X8255000Y27940000D02*
X8255000Y18415000D01*
X8255000Y18415000D02*
X10795000Y15875000D01*
X10795000Y15875000D02*
X10795000Y11430000D01*
X12065000Y10160000D02*
X12065000Y8890000D01*
X10795000Y11430000D02*
X12065000Y10160000D01*
%TO.N,Net-(JP1-Pad2)*%
X6985000Y36830000D02*
X6985000Y35560000D01*
X6985000Y35560000D02*
X8255000Y34290000D01*
X8255000Y34290000D02*
X8255000Y29210000D01*
X8255000Y29210000D02*
X5715000Y26670000D01*
X5715000Y26670000D02*
X5715000Y18415000D01*
X5715000Y18415000D02*
X8255000Y15875000D01*
X8255000Y15875000D02*
X8255000Y11430000D01*
X9525000Y10160000D02*
X9525000Y8890000D01*
X8255000Y11430000D02*
X9525000Y10160000D01*
%TD*%
D23*
%TO.N,GND*%
X75540001Y40223710D02*
X74427807Y41335903D01*
X74395396Y41375396D01*
X74237797Y41504734D01*
X74057993Y41600841D01*
X73862895Y41660024D01*
X73710838Y41675000D01*
X73710828Y41675000D01*
X73660000Y41680006D01*
X73609172Y41675000D01*
X51228711Y41675000D01*
X50565000Y42338710D01*
X50565000Y43627546D01*
X50624180Y43645498D01*
X50734494Y43704463D01*
X50831185Y43783815D01*
X50910537Y43880506D01*
X50969502Y43990820D01*
X50991513Y44063380D01*
X51123368Y43931525D01*
X51366589Y43769010D01*
X51636842Y43657068D01*
X51923740Y43600000D01*
X52216260Y43600000D01*
X52503158Y43657068D01*
X52773411Y43769010D01*
X53016632Y43931525D01*
X53223475Y44138368D01*
X53340000Y44312760D01*
X53456525Y44138368D01*
X53663368Y43931525D01*
X53906589Y43769010D01*
X54176842Y43657068D01*
X54463740Y43600000D01*
X54756260Y43600000D01*
X55043158Y43657068D01*
X55313411Y43769010D01*
X55556632Y43931525D01*
X55763475Y44138368D01*
X55880000Y44312760D01*
X55996525Y44138368D01*
X56203368Y43931525D01*
X56446589Y43769010D01*
X56716842Y43657068D01*
X57003740Y43600000D01*
X57296260Y43600000D01*
X57583158Y43657068D01*
X57853411Y43769010D01*
X58096632Y43931525D01*
X58303475Y44138368D01*
X58420000Y44312760D01*
X58536525Y44138368D01*
X58743368Y43931525D01*
X58986589Y43769010D01*
X59256842Y43657068D01*
X59543740Y43600000D01*
X59836260Y43600000D01*
X60123158Y43657068D01*
X60393411Y43769010D01*
X60636632Y43931525D01*
X60843475Y44138368D01*
X60960000Y44312760D01*
X61076525Y44138368D01*
X61283368Y43931525D01*
X61526589Y43769010D01*
X61796842Y43657068D01*
X62083740Y43600000D01*
X62376260Y43600000D01*
X62663158Y43657068D01*
X62933411Y43769010D01*
X63176632Y43931525D01*
X63383475Y44138368D01*
X63500000Y44312760D01*
X63616525Y44138368D01*
X63823368Y43931525D01*
X64066589Y43769010D01*
X64336842Y43657068D01*
X64623740Y43600000D01*
X64916260Y43600000D01*
X65203158Y43657068D01*
X65473411Y43769010D01*
X65716632Y43931525D01*
X65923475Y44138368D01*
X66040000Y44312760D01*
X66156525Y44138368D01*
X66363368Y43931525D01*
X66606589Y43769010D01*
X66876842Y43657068D01*
X67163740Y43600000D01*
X67456260Y43600000D01*
X67743158Y43657068D01*
X68013411Y43769010D01*
X68256632Y43931525D01*
X68463475Y44138368D01*
X68580000Y44312760D01*
X68696525Y44138368D01*
X68903368Y43931525D01*
X69146589Y43769010D01*
X69416842Y43657068D01*
X69703740Y43600000D01*
X69996260Y43600000D01*
X70283158Y43657068D01*
X70553411Y43769010D01*
X70796632Y43931525D01*
X71003475Y44138368D01*
X71125195Y44320534D01*
X71194822Y44203645D01*
X71389731Y43987412D01*
X71623080Y43813359D01*
X71885901Y43688175D01*
X72033110Y43643524D01*
X72263000Y43764845D01*
X72263000Y44958000D01*
X72517000Y44958000D01*
X72517000Y43764845D01*
X72746890Y43643524D01*
X72894099Y43688175D01*
X73156920Y43813359D01*
X73390269Y43987412D01*
X73585178Y44203645D01*
X73734157Y44453748D01*
X73831481Y44728109D01*
X73710814Y44958000D01*
X72517000Y44958000D01*
X72263000Y44958000D01*
X72243000Y44958000D01*
X72243000Y45212000D01*
X72263000Y45212000D01*
X72263000Y46405155D01*
X72517000Y46405155D01*
X72517000Y45212000D01*
X73710814Y45212000D01*
X73831481Y45441891D01*
X73734157Y45716252D01*
X73585178Y45966355D01*
X73390269Y46182588D01*
X73156920Y46356641D01*
X72894099Y46481825D01*
X72746890Y46526476D01*
X72517000Y46405155D01*
X72263000Y46405155D01*
X72033110Y46526476D01*
X71885901Y46481825D01*
X71623080Y46356641D01*
X71389731Y46182588D01*
X71194822Y45966355D01*
X71125195Y45849466D01*
X71003475Y46031632D01*
X70796632Y46238475D01*
X70553411Y46400990D01*
X70283158Y46512932D01*
X69996260Y46570000D01*
X69703740Y46570000D01*
X69416842Y46512932D01*
X69146589Y46400990D01*
X68903368Y46238475D01*
X68696525Y46031632D01*
X68580000Y45857240D01*
X68463475Y46031632D01*
X68256632Y46238475D01*
X68013411Y46400990D01*
X67743158Y46512932D01*
X67456260Y46570000D01*
X67163740Y46570000D01*
X66876842Y46512932D01*
X66606589Y46400990D01*
X66363368Y46238475D01*
X66156525Y46031632D01*
X66040000Y45857240D01*
X65923475Y46031632D01*
X65716632Y46238475D01*
X65473411Y46400990D01*
X65203158Y46512932D01*
X64916260Y46570000D01*
X64623740Y46570000D01*
X64336842Y46512932D01*
X64066589Y46400990D01*
X63823368Y46238475D01*
X63616525Y46031632D01*
X63500000Y45857240D01*
X63383475Y46031632D01*
X63176632Y46238475D01*
X62933411Y46400990D01*
X62663158Y46512932D01*
X62376260Y46570000D01*
X62083740Y46570000D01*
X61796842Y46512932D01*
X61526589Y46400990D01*
X61283368Y46238475D01*
X61076525Y46031632D01*
X60960000Y45857240D01*
X60843475Y46031632D01*
X60636632Y46238475D01*
X60393411Y46400990D01*
X60123158Y46512932D01*
X59836260Y46570000D01*
X59543740Y46570000D01*
X59256842Y46512932D01*
X58986589Y46400990D01*
X58743368Y46238475D01*
X58536525Y46031632D01*
X58420000Y45857240D01*
X58303475Y46031632D01*
X58096632Y46238475D01*
X57853411Y46400990D01*
X57583158Y46512932D01*
X57296260Y46570000D01*
X57003740Y46570000D01*
X56716842Y46512932D01*
X56446589Y46400990D01*
X56203368Y46238475D01*
X55996525Y46031632D01*
X55880000Y45857240D01*
X55763475Y46031632D01*
X55556632Y46238475D01*
X55313411Y46400990D01*
X55043158Y46512932D01*
X54756260Y46570000D01*
X54463740Y46570000D01*
X54176842Y46512932D01*
X53906589Y46400990D01*
X53663368Y46238475D01*
X53456525Y46031632D01*
X53340000Y45857240D01*
X53223475Y46031632D01*
X53016632Y46238475D01*
X52773411Y46400990D01*
X52503158Y46512932D01*
X52216260Y46570000D01*
X51923740Y46570000D01*
X51636842Y46512932D01*
X51366589Y46400990D01*
X51123368Y46238475D01*
X50991513Y46106620D01*
X50969502Y46179180D01*
X50910537Y46289494D01*
X50831185Y46386185D01*
X50734494Y46465537D01*
X50624180Y46524502D01*
X50504482Y46560812D01*
X50380000Y46573072D01*
X48680000Y46573072D01*
X48555518Y46560812D01*
X48435820Y46524502D01*
X48325506Y46465537D01*
X48228815Y46386185D01*
X48149463Y46289494D01*
X48090498Y46179180D01*
X48072546Y46120000D01*
X48053711Y46120000D01*
X46487807Y47685903D01*
X46455396Y47725396D01*
X46297797Y47854734D01*
X46117993Y47950841D01*
X45922895Y48010024D01*
X45770838Y48025000D01*
X45770828Y48025000D01*
X45720000Y48030006D01*
X45669172Y48025000D01*
X26085838Y48025000D01*
X26035000Y48030007D01*
X25984162Y48025000D01*
X5765827Y48025000D01*
X5714999Y48030006D01*
X5664171Y48025000D01*
X5664162Y48025000D01*
X5512105Y48010024D01*
X5317007Y47950841D01*
X5233309Y47906104D01*
X5137202Y47854734D01*
X5019092Y47757803D01*
X4979604Y47725396D01*
X4947197Y47685908D01*
X3749092Y46487802D01*
X3709605Y46455396D01*
X3677198Y46415908D01*
X3677197Y46415907D01*
X3580266Y46297797D01*
X3484160Y46117993D01*
X3424977Y45922895D01*
X3418956Y45861765D01*
X3246068Y45651100D01*
X3157286Y45485000D01*
X2590835Y45485000D01*
X2540000Y45490007D01*
X2489165Y45485000D01*
X2489162Y45485000D01*
X2337105Y45470024D01*
X2187415Y45424615D01*
X2142006Y45410841D01*
X1962202Y45314734D01*
X1929498Y45287894D01*
X1804604Y45185396D01*
X1772193Y45145903D01*
X1209093Y44582803D01*
X1169605Y44550396D01*
X1137198Y44510908D01*
X1137197Y44510907D01*
X1040266Y44392797D01*
X944160Y44212993D01*
X884977Y44017895D01*
X864994Y43815000D01*
X870001Y43764162D01*
X870000Y33705828D01*
X864994Y33655000D01*
X870000Y33604172D01*
X870000Y33604163D01*
X884976Y33452106D01*
X944159Y33257008D01*
X1040266Y33077203D01*
X1169604Y32919604D01*
X1209097Y32887193D01*
X1711290Y32385000D01*
X1209097Y31882807D01*
X1169604Y31850396D01*
X1040266Y31692797D01*
X944159Y31512992D01*
X884976Y31317894D01*
X870000Y31165837D01*
X870000Y31165828D01*
X864994Y31115000D01*
X870000Y31064172D01*
X870001Y21640838D01*
X864994Y21590000D01*
X884977Y21387105D01*
X944160Y21192007D01*
X1040266Y21012203D01*
X1134157Y20897797D01*
X1169605Y20854604D01*
X1209092Y20822198D01*
X1711290Y20320000D01*
X1209097Y19817807D01*
X1169604Y19785396D01*
X1040266Y19627797D01*
X944159Y19447992D01*
X884976Y19252894D01*
X870000Y19100837D01*
X870000Y19100828D01*
X864994Y19050000D01*
X870000Y18999172D01*
X870001Y8940838D01*
X864994Y8890000D01*
X884977Y8687105D01*
X944160Y8492007D01*
X1040266Y8312203D01*
X1137197Y8194093D01*
X1169605Y8154604D01*
X1209092Y8122198D01*
X4249918Y5081371D01*
X4070179Y5045619D01*
X3836324Y4948753D01*
X3625860Y4808125D01*
X3446875Y4629140D01*
X3306247Y4418676D01*
X3209381Y4184821D01*
X3160000Y3936561D01*
X3160000Y3683439D01*
X3209381Y3435179D01*
X3306247Y3201324D01*
X3446875Y2990860D01*
X3625860Y2811875D01*
X3836324Y2671247D01*
X4070179Y2574381D01*
X4318439Y2525000D01*
X4549133Y2525000D01*
X6414132Y660000D01*
X660000Y660000D01*
X660000Y48870000D01*
X75540001Y48870000D01*
X75540001Y40223710D01*
%TA.AperFunction,Conductor*%
D24*
G36*
X75540001Y40223710D02*
G01*
X74427807Y41335903D01*
X74395396Y41375396D01*
X74237797Y41504734D01*
X74057993Y41600841D01*
X73862895Y41660024D01*
X73710838Y41675000D01*
X73710828Y41675000D01*
X73660000Y41680006D01*
X73609172Y41675000D01*
X51228711Y41675000D01*
X50565000Y42338710D01*
X50565000Y43627546D01*
X50624180Y43645498D01*
X50734494Y43704463D01*
X50831185Y43783815D01*
X50910537Y43880506D01*
X50969502Y43990820D01*
X50991513Y44063380D01*
X51123368Y43931525D01*
X51366589Y43769010D01*
X51636842Y43657068D01*
X51923740Y43600000D01*
X52216260Y43600000D01*
X52503158Y43657068D01*
X52773411Y43769010D01*
X53016632Y43931525D01*
X53223475Y44138368D01*
X53340000Y44312760D01*
X53456525Y44138368D01*
X53663368Y43931525D01*
X53906589Y43769010D01*
X54176842Y43657068D01*
X54463740Y43600000D01*
X54756260Y43600000D01*
X55043158Y43657068D01*
X55313411Y43769010D01*
X55556632Y43931525D01*
X55763475Y44138368D01*
X55880000Y44312760D01*
X55996525Y44138368D01*
X56203368Y43931525D01*
X56446589Y43769010D01*
X56716842Y43657068D01*
X57003740Y43600000D01*
X57296260Y43600000D01*
X57583158Y43657068D01*
X57853411Y43769010D01*
X58096632Y43931525D01*
X58303475Y44138368D01*
X58420000Y44312760D01*
X58536525Y44138368D01*
X58743368Y43931525D01*
X58986589Y43769010D01*
X59256842Y43657068D01*
X59543740Y43600000D01*
X59836260Y43600000D01*
X60123158Y43657068D01*
X60393411Y43769010D01*
X60636632Y43931525D01*
X60843475Y44138368D01*
X60960000Y44312760D01*
X61076525Y44138368D01*
X61283368Y43931525D01*
X61526589Y43769010D01*
X61796842Y43657068D01*
X62083740Y43600000D01*
X62376260Y43600000D01*
X62663158Y43657068D01*
X62933411Y43769010D01*
X63176632Y43931525D01*
X63383475Y44138368D01*
X63500000Y44312760D01*
X63616525Y44138368D01*
X63823368Y43931525D01*
X64066589Y43769010D01*
X64336842Y43657068D01*
X64623740Y43600000D01*
X64916260Y43600000D01*
X65203158Y43657068D01*
X65473411Y43769010D01*
X65716632Y43931525D01*
X65923475Y44138368D01*
X66040000Y44312760D01*
X66156525Y44138368D01*
X66363368Y43931525D01*
X66606589Y43769010D01*
X66876842Y43657068D01*
X67163740Y43600000D01*
X67456260Y43600000D01*
X67743158Y43657068D01*
X68013411Y43769010D01*
X68256632Y43931525D01*
X68463475Y44138368D01*
X68580000Y44312760D01*
X68696525Y44138368D01*
X68903368Y43931525D01*
X69146589Y43769010D01*
X69416842Y43657068D01*
X69703740Y43600000D01*
X69996260Y43600000D01*
X70283158Y43657068D01*
X70553411Y43769010D01*
X70796632Y43931525D01*
X71003475Y44138368D01*
X71125195Y44320534D01*
X71194822Y44203645D01*
X71389731Y43987412D01*
X71623080Y43813359D01*
X71885901Y43688175D01*
X72033110Y43643524D01*
X72263000Y43764845D01*
X72263000Y44958000D01*
X72517000Y44958000D01*
X72517000Y43764845D01*
X72746890Y43643524D01*
X72894099Y43688175D01*
X73156920Y43813359D01*
X73390269Y43987412D01*
X73585178Y44203645D01*
X73734157Y44453748D01*
X73831481Y44728109D01*
X73710814Y44958000D01*
X72517000Y44958000D01*
X72263000Y44958000D01*
X72243000Y44958000D01*
X72243000Y45212000D01*
X72263000Y45212000D01*
X72263000Y46405155D01*
X72517000Y46405155D01*
X72517000Y45212000D01*
X73710814Y45212000D01*
X73831481Y45441891D01*
X73734157Y45716252D01*
X73585178Y45966355D01*
X73390269Y46182588D01*
X73156920Y46356641D01*
X72894099Y46481825D01*
X72746890Y46526476D01*
X72517000Y46405155D01*
X72263000Y46405155D01*
X72033110Y46526476D01*
X71885901Y46481825D01*
X71623080Y46356641D01*
X71389731Y46182588D01*
X71194822Y45966355D01*
X71125195Y45849466D01*
X71003475Y46031632D01*
X70796632Y46238475D01*
X70553411Y46400990D01*
X70283158Y46512932D01*
X69996260Y46570000D01*
X69703740Y46570000D01*
X69416842Y46512932D01*
X69146589Y46400990D01*
X68903368Y46238475D01*
X68696525Y46031632D01*
X68580000Y45857240D01*
X68463475Y46031632D01*
X68256632Y46238475D01*
X68013411Y46400990D01*
X67743158Y46512932D01*
X67456260Y46570000D01*
X67163740Y46570000D01*
X66876842Y46512932D01*
X66606589Y46400990D01*
X66363368Y46238475D01*
X66156525Y46031632D01*
X66040000Y45857240D01*
X65923475Y46031632D01*
X65716632Y46238475D01*
X65473411Y46400990D01*
X65203158Y46512932D01*
X64916260Y46570000D01*
X64623740Y46570000D01*
X64336842Y46512932D01*
X64066589Y46400990D01*
X63823368Y46238475D01*
X63616525Y46031632D01*
X63500000Y45857240D01*
X63383475Y46031632D01*
X63176632Y46238475D01*
X62933411Y46400990D01*
X62663158Y46512932D01*
X62376260Y46570000D01*
X62083740Y46570000D01*
X61796842Y46512932D01*
X61526589Y46400990D01*
X61283368Y46238475D01*
X61076525Y46031632D01*
X60960000Y45857240D01*
X60843475Y46031632D01*
X60636632Y46238475D01*
X60393411Y46400990D01*
X60123158Y46512932D01*
X59836260Y46570000D01*
X59543740Y46570000D01*
X59256842Y46512932D01*
X58986589Y46400990D01*
X58743368Y46238475D01*
X58536525Y46031632D01*
X58420000Y45857240D01*
X58303475Y46031632D01*
X58096632Y46238475D01*
X57853411Y46400990D01*
X57583158Y46512932D01*
X57296260Y46570000D01*
X57003740Y46570000D01*
X56716842Y46512932D01*
X56446589Y46400990D01*
X56203368Y46238475D01*
X55996525Y46031632D01*
X55880000Y45857240D01*
X55763475Y46031632D01*
X55556632Y46238475D01*
X55313411Y46400990D01*
X55043158Y46512932D01*
X54756260Y46570000D01*
X54463740Y46570000D01*
X54176842Y46512932D01*
X53906589Y46400990D01*
X53663368Y46238475D01*
X53456525Y46031632D01*
X53340000Y45857240D01*
X53223475Y46031632D01*
X53016632Y46238475D01*
X52773411Y46400990D01*
X52503158Y46512932D01*
X52216260Y46570000D01*
X51923740Y46570000D01*
X51636842Y46512932D01*
X51366589Y46400990D01*
X51123368Y46238475D01*
X50991513Y46106620D01*
X50969502Y46179180D01*
X50910537Y46289494D01*
X50831185Y46386185D01*
X50734494Y46465537D01*
X50624180Y46524502D01*
X50504482Y46560812D01*
X50380000Y46573072D01*
X48680000Y46573072D01*
X48555518Y46560812D01*
X48435820Y46524502D01*
X48325506Y46465537D01*
X48228815Y46386185D01*
X48149463Y46289494D01*
X48090498Y46179180D01*
X48072546Y46120000D01*
X48053711Y46120000D01*
X46487807Y47685903D01*
X46455396Y47725396D01*
X46297797Y47854734D01*
X46117993Y47950841D01*
X45922895Y48010024D01*
X45770838Y48025000D01*
X45770828Y48025000D01*
X45720000Y48030006D01*
X45669172Y48025000D01*
X26085838Y48025000D01*
X26035000Y48030007D01*
X25984162Y48025000D01*
X5765827Y48025000D01*
X5714999Y48030006D01*
X5664171Y48025000D01*
X5664162Y48025000D01*
X5512105Y48010024D01*
X5317007Y47950841D01*
X5233309Y47906104D01*
X5137202Y47854734D01*
X5019092Y47757803D01*
X4979604Y47725396D01*
X4947197Y47685908D01*
X3749092Y46487802D01*
X3709605Y46455396D01*
X3677198Y46415908D01*
X3677197Y46415907D01*
X3580266Y46297797D01*
X3484160Y46117993D01*
X3424977Y45922895D01*
X3418956Y45861765D01*
X3246068Y45651100D01*
X3157286Y45485000D01*
X2590835Y45485000D01*
X2540000Y45490007D01*
X2489165Y45485000D01*
X2489162Y45485000D01*
X2337105Y45470024D01*
X2187415Y45424615D01*
X2142006Y45410841D01*
X1962202Y45314734D01*
X1929498Y45287894D01*
X1804604Y45185396D01*
X1772193Y45145903D01*
X1209093Y44582803D01*
X1169605Y44550396D01*
X1137198Y44510908D01*
X1137197Y44510907D01*
X1040266Y44392797D01*
X944160Y44212993D01*
X884977Y44017895D01*
X864994Y43815000D01*
X870001Y43764162D01*
X870000Y33705828D01*
X864994Y33655000D01*
X870000Y33604172D01*
X870000Y33604163D01*
X884976Y33452106D01*
X944159Y33257008D01*
X1040266Y33077203D01*
X1169604Y32919604D01*
X1209097Y32887193D01*
X1711290Y32385000D01*
X1209097Y31882807D01*
X1169604Y31850396D01*
X1040266Y31692797D01*
X944159Y31512992D01*
X884976Y31317894D01*
X870000Y31165837D01*
X870000Y31165828D01*
X864994Y31115000D01*
X870000Y31064172D01*
X870001Y21640838D01*
X864994Y21590000D01*
X884977Y21387105D01*
X944160Y21192007D01*
X1040266Y21012203D01*
X1134157Y20897797D01*
X1169605Y20854604D01*
X1209092Y20822198D01*
X1711290Y20320000D01*
X1209097Y19817807D01*
X1169604Y19785396D01*
X1040266Y19627797D01*
X944159Y19447992D01*
X884976Y19252894D01*
X870000Y19100837D01*
X870000Y19100828D01*
X864994Y19050000D01*
X870000Y18999172D01*
X870001Y8940838D01*
X864994Y8890000D01*
X884977Y8687105D01*
X944160Y8492007D01*
X1040266Y8312203D01*
X1137197Y8194093D01*
X1169605Y8154604D01*
X1209092Y8122198D01*
X4249918Y5081371D01*
X4070179Y5045619D01*
X3836324Y4948753D01*
X3625860Y4808125D01*
X3446875Y4629140D01*
X3306247Y4418676D01*
X3209381Y4184821D01*
X3160000Y3936561D01*
X3160000Y3683439D01*
X3209381Y3435179D01*
X3306247Y3201324D01*
X3446875Y2990860D01*
X3625860Y2811875D01*
X3836324Y2671247D01*
X4070179Y2574381D01*
X4318439Y2525000D01*
X4549133Y2525000D01*
X6414132Y660000D01*
X660000Y660000D01*
X660000Y48870000D01*
X75540001Y48870000D01*
X75540001Y40223710D01*
G37*
%TD.AperFunction*%
D23*
X71667429Y20886004D02*
X71598700Y20611816D01*
X71584783Y20329488D01*
X71626213Y20049870D01*
X71721397Y19783708D01*
X71788329Y19658486D01*
X72032298Y19586903D01*
X72845395Y20400000D01*
X72831253Y20414142D01*
X73010858Y20593747D01*
X73025000Y20579605D01*
X73039143Y20593747D01*
X73218748Y20414142D01*
X73204605Y20400000D01*
X73218748Y20385857D01*
X73039143Y20206252D01*
X73025000Y20220395D01*
X72211903Y19407298D01*
X72283486Y19163329D01*
X72538996Y19042429D01*
X72813184Y18973700D01*
X73095512Y18959783D01*
X73375130Y19001213D01*
X73641292Y19096397D01*
X73766514Y19163329D01*
X73838097Y19407296D01*
X73895001Y19350392D01*
X73895001Y18843712D01*
X72596290Y17545000D01*
X68630838Y17545000D01*
X68580000Y17550007D01*
X68529162Y17545000D01*
X61319396Y17545000D01*
X61239759Y17624637D01*
X61004727Y17781680D01*
X60743574Y17889853D01*
X60466335Y17945000D01*
X60183665Y17945000D01*
X59906426Y17889853D01*
X59645273Y17781680D01*
X59410241Y17624637D01*
X59210363Y17424759D01*
X59053320Y17189727D01*
X58945147Y16928574D01*
X58890000Y16651335D01*
X58890000Y16368665D01*
X58945147Y16091426D01*
X59053320Y15830273D01*
X59210363Y15595241D01*
X59410241Y15395363D01*
X59645273Y15238320D01*
X59906426Y15130147D01*
X60183665Y15075000D01*
X60466335Y15075000D01*
X60743574Y15130147D01*
X61004727Y15238320D01*
X61239759Y15395363D01*
X61319396Y15475000D01*
X67545001Y15475000D01*
X67545001Y15290846D01*
X67545000Y15290837D01*
X67545000Y14727287D01*
X67535820Y14724502D01*
X67425506Y14665537D01*
X67328815Y14586185D01*
X67318193Y14573242D01*
X67066004Y14692571D01*
X66791816Y14761300D01*
X66509488Y14775217D01*
X66229870Y14733787D01*
X65963708Y14638603D01*
X65838486Y14571671D01*
X65766903Y14327702D01*
X66580000Y13514605D01*
X66594143Y13528747D01*
X66773748Y13349142D01*
X66759605Y13335000D01*
X66773748Y13320857D01*
X66594143Y13141252D01*
X66580000Y13155395D01*
X65766903Y12342298D01*
X65838486Y12098329D01*
X66093996Y11977429D01*
X66368184Y11908700D01*
X66650512Y11894783D01*
X66930130Y11936213D01*
X67196292Y12031397D01*
X67318309Y12096616D01*
X67328815Y12083815D01*
X67425506Y12004463D01*
X67535820Y11945498D01*
X67655518Y11909188D01*
X67780000Y11896928D01*
X69380000Y11896928D01*
X69504482Y11909188D01*
X69624180Y11945498D01*
X69734494Y12004463D01*
X69831185Y12083815D01*
X69910537Y12180506D01*
X69969502Y12290820D01*
X70005812Y12410518D01*
X70018072Y12535000D01*
X70018072Y14135000D01*
X70005812Y14259482D01*
X69969502Y14379180D01*
X69910537Y14489494D01*
X69831185Y14586185D01*
X69734494Y14665537D01*
X69624180Y14724502D01*
X69615000Y14727287D01*
X69615000Y15475000D01*
X72974172Y15475000D01*
X73025000Y15469994D01*
X73075828Y15475000D01*
X73075838Y15475000D01*
X73227895Y15489976D01*
X73422993Y15549159D01*
X73602797Y15645266D01*
X73760396Y15774604D01*
X73792807Y15814097D01*
X75540000Y17561289D01*
X75540000Y660000D01*
X52005867Y660000D01*
X52631428Y1285560D01*
X52663291Y1311709D01*
X52767636Y1438854D01*
X52845172Y1583913D01*
X52892918Y1741311D01*
X52894009Y1752384D01*
X52906842Y1747068D01*
X53193740Y1690000D01*
X53486260Y1690000D01*
X53773158Y1747068D01*
X54043411Y1859010D01*
X54286632Y2021525D01*
X54493475Y2228368D01*
X54610000Y2402760D01*
X54726525Y2228368D01*
X54933368Y2021525D01*
X55176589Y1859010D01*
X55446842Y1747068D01*
X55733740Y1690000D01*
X56026260Y1690000D01*
X56313158Y1747068D01*
X56583411Y1859010D01*
X56826632Y2021525D01*
X57033475Y2228368D01*
X57150000Y2402760D01*
X57266525Y2228368D01*
X57473368Y2021525D01*
X57716589Y1859010D01*
X57986842Y1747068D01*
X58273740Y1690000D01*
X58566260Y1690000D01*
X58853158Y1747068D01*
X59123411Y1859010D01*
X59366632Y2021525D01*
X59573475Y2228368D01*
X59735990Y2471589D01*
X59847932Y2741842D01*
X59905000Y3028740D01*
X59905000Y3321260D01*
X59847932Y3608158D01*
X59735990Y3878411D01*
X59573475Y4121632D01*
X59386392Y4308715D01*
X59513386Y4376595D01*
X59647962Y4487038D01*
X59758405Y4621614D01*
X59840472Y4775150D01*
X59891008Y4941746D01*
X59908072Y5115000D01*
X59908072Y6315000D01*
X59891008Y6488254D01*
X59840472Y6654850D01*
X59758405Y6808386D01*
X59647962Y6942962D01*
X59513386Y7053405D01*
X59359850Y7135472D01*
X59193254Y7186008D01*
X59020000Y7203072D01*
X57820000Y7203072D01*
X57646746Y7186008D01*
X57480150Y7135472D01*
X57326614Y7053405D01*
X57192038Y6942962D01*
X57081595Y6808386D01*
X57013715Y6681392D01*
X56826632Y6868475D01*
X56583411Y7030990D01*
X56313158Y7142932D01*
X56026260Y7200000D01*
X55733740Y7200000D01*
X55446842Y7142932D01*
X55176589Y7030990D01*
X54933368Y6868475D01*
X54726525Y6661632D01*
X54610000Y6487240D01*
X54493475Y6661632D01*
X54286632Y6868475D01*
X54043411Y7030990D01*
X53773158Y7142932D01*
X53486260Y7200000D01*
X53193740Y7200000D01*
X52906842Y7142932D01*
X52636589Y7030990D01*
X52393368Y6868475D01*
X52186525Y6661632D01*
X52070000Y6487240D01*
X51953475Y6661632D01*
X51746632Y6868475D01*
X51503411Y7030990D01*
X51233158Y7142932D01*
X51176707Y7154161D01*
X50243939Y8086928D01*
X50965000Y8086928D01*
X51089482Y8099188D01*
X51209180Y8135498D01*
X51319494Y8194463D01*
X51416185Y8273815D01*
X51495537Y8370506D01*
X51554502Y8480820D01*
X51590812Y8600518D01*
X51603072Y8725000D01*
X51603072Y9666335D01*
X56350000Y9666335D01*
X56350000Y9383665D01*
X56405147Y9106426D01*
X56513320Y8845273D01*
X56670363Y8610241D01*
X56870241Y8410363D01*
X57105273Y8253320D01*
X57366426Y8145147D01*
X57643665Y8090000D01*
X57926335Y8090000D01*
X58203574Y8145147D01*
X58464727Y8253320D01*
X58699759Y8410363D01*
X58899637Y8610241D01*
X59056680Y8845273D01*
X59164853Y9106426D01*
X59220000Y9383665D01*
X59220000Y9666335D01*
X59164853Y9943574D01*
X59056680Y10204727D01*
X58899637Y10439759D01*
X58699759Y10639637D01*
X58464727Y10796680D01*
X58203574Y10904853D01*
X57926335Y10960000D01*
X57643665Y10960000D01*
X57366426Y10904853D01*
X57105273Y10796680D01*
X56870241Y10639637D01*
X56670363Y10439759D01*
X56513320Y10204727D01*
X56405147Y9943574D01*
X56350000Y9666335D01*
X51603072Y9666335D01*
X51603072Y10325000D01*
X51590812Y10449482D01*
X51554502Y10569180D01*
X51495537Y10679494D01*
X51416185Y10776185D01*
X51319494Y10855537D01*
X51209180Y10914502D01*
X51089482Y10950812D01*
X50965000Y10963072D01*
X49365000Y10963072D01*
X49240518Y10950812D01*
X49120820Y10914502D01*
X49010506Y10855537D01*
X48913815Y10776185D01*
X48834463Y10679494D01*
X48775498Y10569180D01*
X48739188Y10449482D01*
X48726928Y10325000D01*
X48726928Y8725000D01*
X48739188Y8600518D01*
X48775498Y8480820D01*
X48789299Y8455000D01*
X43525868Y8455000D01*
X41385867Y10595000D01*
X41608888Y10595000D01*
X41760392Y10410392D01*
X41978899Y10231068D01*
X42228192Y10097818D01*
X42498691Y10015764D01*
X42709508Y9995000D01*
X43650492Y9995000D01*
X43861309Y10015764D01*
X44131808Y10097818D01*
X44381101Y10231068D01*
X44599608Y10410392D01*
X44778932Y10628899D01*
X44912182Y10878192D01*
X44994236Y11148691D01*
X45021943Y11430000D01*
X44994236Y11711309D01*
X44912182Y11981808D01*
X44778932Y12231101D01*
X44599608Y12449608D01*
X44381101Y12628932D01*
X44253259Y12697265D01*
X44482839Y12847399D01*
X44684500Y13045105D01*
X44843715Y13278354D01*
X44928028Y13476335D01*
X48810000Y13476335D01*
X48810000Y13193665D01*
X48865147Y12916426D01*
X48973320Y12655273D01*
X49130363Y12420241D01*
X49330241Y12220363D01*
X49565273Y12063320D01*
X49826426Y11955147D01*
X50103665Y11900000D01*
X50386335Y11900000D01*
X50663574Y11955147D01*
X50924727Y12063320D01*
X51159759Y12220363D01*
X51281694Y12342298D01*
X54431903Y12342298D01*
X54503486Y12098329D01*
X54758996Y11977429D01*
X55033184Y11908700D01*
X55315512Y11894783D01*
X55595130Y11936213D01*
X55861292Y12031397D01*
X55986514Y12098329D01*
X56058097Y12342298D01*
X55245000Y13155395D01*
X54431903Y12342298D01*
X51281694Y12342298D01*
X51359637Y12420241D01*
X51516680Y12655273D01*
X51624853Y12916426D01*
X51680000Y13193665D01*
X51680000Y13264488D01*
X53804783Y13264488D01*
X53846213Y12984870D01*
X53941397Y12718708D01*
X54008329Y12593486D01*
X54252298Y12521903D01*
X55065395Y13335000D01*
X55424605Y13335000D01*
X56237702Y12521903D01*
X56481671Y12593486D01*
X56602571Y12848996D01*
X56671300Y13123184D01*
X56678265Y13264488D01*
X65139783Y13264488D01*
X65181213Y12984870D01*
X65276397Y12718708D01*
X65343329Y12593486D01*
X65587298Y12521903D01*
X66400395Y13335000D01*
X65587298Y14148097D01*
X65343329Y14076514D01*
X65222429Y13821004D01*
X65153700Y13546816D01*
X65139783Y13264488D01*
X56678265Y13264488D01*
X56685217Y13405512D01*
X56643787Y13685130D01*
X56548603Y13951292D01*
X56481671Y14076514D01*
X56237702Y14148097D01*
X55424605Y13335000D01*
X55065395Y13335000D01*
X54252298Y14148097D01*
X54008329Y14076514D01*
X53887429Y13821004D01*
X53818700Y13546816D01*
X53804783Y13264488D01*
X51680000Y13264488D01*
X51680000Y13476335D01*
X51624853Y13753574D01*
X51516680Y14014727D01*
X51359637Y14249759D01*
X51281694Y14327702D01*
X54431903Y14327702D01*
X55245000Y13514605D01*
X56058097Y14327702D01*
X55986514Y14571671D01*
X55731004Y14692571D01*
X55456816Y14761300D01*
X55174488Y14775217D01*
X54894870Y14733787D01*
X54628708Y14638603D01*
X54503486Y14571671D01*
X54431903Y14327702D01*
X51281694Y14327702D01*
X51159759Y14449637D01*
X50924727Y14606680D01*
X50663574Y14714853D01*
X50386335Y14770000D01*
X50103665Y14770000D01*
X49826426Y14714853D01*
X49565273Y14606680D01*
X49330241Y14449637D01*
X49130363Y14249759D01*
X48973320Y14014727D01*
X48865147Y13753574D01*
X48810000Y13476335D01*
X44928028Y13476335D01*
X44954367Y13538182D01*
X44971904Y13620961D01*
X44849915Y13843000D01*
X43307000Y13843000D01*
X43307000Y13823000D01*
X43053000Y13823000D01*
X43053000Y13843000D01*
X43033000Y13843000D01*
X43033000Y14097000D01*
X43053000Y14097000D01*
X43053000Y14117000D01*
X43307000Y14117000D01*
X43307000Y14097000D01*
X44849915Y14097000D01*
X44971904Y14319039D01*
X44954367Y14401818D01*
X44843715Y14661646D01*
X44684500Y14894895D01*
X44482839Y15092601D01*
X44253259Y15242735D01*
X44381101Y15311068D01*
X44599608Y15490392D01*
X44751112Y15675000D01*
X46948982Y15675000D01*
X46990000Y15670960D01*
X47031018Y15675000D01*
X47031019Y15675000D01*
X47153689Y15687082D01*
X47311087Y15734828D01*
X47456146Y15812364D01*
X47583291Y15916709D01*
X47609446Y15948579D01*
X48312202Y16651335D01*
X48730000Y16651335D01*
X48730000Y16368665D01*
X48785147Y16091426D01*
X48893320Y15830273D01*
X49050363Y15595241D01*
X49250241Y15395363D01*
X49485273Y15238320D01*
X49746426Y15130147D01*
X50023665Y15075000D01*
X50306335Y15075000D01*
X50583574Y15130147D01*
X50844727Y15238320D01*
X51079759Y15395363D01*
X51279637Y15595241D01*
X51436680Y15830273D01*
X51544853Y16091426D01*
X51600000Y16368665D01*
X51600000Y16651335D01*
X51544853Y16928574D01*
X51436680Y17189727D01*
X51279637Y17424759D01*
X51079759Y17624637D01*
X50844727Y17781680D01*
X50583574Y17889853D01*
X50306335Y17945000D01*
X50023665Y17945000D01*
X49746426Y17889853D01*
X49485273Y17781680D01*
X49250241Y17624637D01*
X49050363Y17424759D01*
X48893320Y17189727D01*
X48785147Y16928574D01*
X48730000Y16651335D01*
X48312202Y16651335D01*
X48821426Y17160558D01*
X48853291Y17186709D01*
X48957636Y17313854D01*
X49035172Y17458913D01*
X49082918Y17616311D01*
X49095000Y17738981D01*
X49095000Y17738983D01*
X49099040Y17779999D01*
X49095000Y17821019D01*
X49095000Y19327298D01*
X49986903Y19327298D01*
X50058486Y19083329D01*
X50313996Y18962429D01*
X50588184Y18893700D01*
X50870512Y18879783D01*
X51150130Y18921213D01*
X51416292Y19016397D01*
X51541514Y19083329D01*
X51613097Y19327298D01*
X53161903Y19327298D01*
X53233486Y19083329D01*
X53488996Y18962429D01*
X53763184Y18893700D01*
X54045512Y18879783D01*
X54325130Y18921213D01*
X54591292Y19016397D01*
X54716514Y19083329D01*
X54788097Y19327298D01*
X56336903Y19327298D01*
X56408486Y19083329D01*
X56663996Y18962429D01*
X56938184Y18893700D01*
X57220512Y18879783D01*
X57500130Y18921213D01*
X57766292Y19016397D01*
X57891514Y19083329D01*
X57963097Y19327298D01*
X59511903Y19327298D01*
X59583486Y19083329D01*
X59838996Y18962429D01*
X60113184Y18893700D01*
X60395512Y18879783D01*
X60675130Y18921213D01*
X60941292Y19016397D01*
X61066514Y19083329D01*
X61138097Y19327298D01*
X62686903Y19327298D01*
X62758486Y19083329D01*
X63013996Y18962429D01*
X63288184Y18893700D01*
X63570512Y18879783D01*
X63850130Y18921213D01*
X64116292Y19016397D01*
X64241514Y19083329D01*
X64313097Y19327298D01*
X65861903Y19327298D01*
X65933486Y19083329D01*
X66188996Y18962429D01*
X66463184Y18893700D01*
X66745512Y18879783D01*
X67025130Y18921213D01*
X67291292Y19016397D01*
X67416514Y19083329D01*
X67488097Y19327298D01*
X69036903Y19327298D01*
X69108486Y19083329D01*
X69363996Y18962429D01*
X69638184Y18893700D01*
X69920512Y18879783D01*
X70200130Y18921213D01*
X70466292Y19016397D01*
X70591514Y19083329D01*
X70663097Y19327298D01*
X69850000Y20140395D01*
X69036903Y19327298D01*
X67488097Y19327298D01*
X66675000Y20140395D01*
X65861903Y19327298D01*
X64313097Y19327298D01*
X63500000Y20140395D01*
X62686903Y19327298D01*
X61138097Y19327298D01*
X60325000Y20140395D01*
X59511903Y19327298D01*
X57963097Y19327298D01*
X57150000Y20140395D01*
X56336903Y19327298D01*
X54788097Y19327298D01*
X53975000Y20140395D01*
X53161903Y19327298D01*
X51613097Y19327298D01*
X50800000Y20140395D01*
X49986903Y19327298D01*
X49095000Y19327298D01*
X49095000Y19972735D01*
X49258125Y20135860D01*
X49361833Y20291069D01*
X49359783Y20249488D01*
X49401213Y19969870D01*
X49496397Y19703708D01*
X49563329Y19578486D01*
X49807298Y19506903D01*
X50620395Y20320000D01*
X50606253Y20334142D01*
X50785858Y20513747D01*
X50800000Y20499605D01*
X50814143Y20513747D01*
X50993748Y20334142D01*
X50979605Y20320000D01*
X51792702Y19506903D01*
X52036671Y19578486D01*
X52157571Y19833996D01*
X52226300Y20108184D01*
X52240217Y20390512D01*
X52198787Y20670130D01*
X52103603Y20936292D01*
X52064740Y21009000D01*
X52713481Y21009000D01*
X52617429Y20806004D01*
X52548700Y20531816D01*
X52534783Y20249488D01*
X52576213Y19969870D01*
X52671397Y19703708D01*
X52738329Y19578486D01*
X52982298Y19506903D01*
X53795395Y20320000D01*
X53781253Y20334142D01*
X53960858Y20513747D01*
X53975000Y20499605D01*
X53989143Y20513747D01*
X54168748Y20334142D01*
X54154605Y20320000D01*
X54967702Y19506903D01*
X55211671Y19578486D01*
X55332571Y19833996D01*
X55401300Y20108184D01*
X55415217Y20390512D01*
X55373787Y20670130D01*
X55278603Y20936292D01*
X55239740Y21009000D01*
X55888481Y21009000D01*
X55792429Y20806004D01*
X55723700Y20531816D01*
X55709783Y20249488D01*
X55751213Y19969870D01*
X55846397Y19703708D01*
X55913329Y19578486D01*
X56157298Y19506903D01*
X56970395Y20320000D01*
X56956253Y20334142D01*
X57135858Y20513747D01*
X57150000Y20499605D01*
X57164143Y20513747D01*
X57343748Y20334142D01*
X57329605Y20320000D01*
X58142702Y19506903D01*
X58386671Y19578486D01*
X58507571Y19833996D01*
X58576300Y20108184D01*
X58590217Y20390512D01*
X58548787Y20670130D01*
X58453603Y20936292D01*
X58414740Y21009000D01*
X59063481Y21009000D01*
X58967429Y20806004D01*
X58898700Y20531816D01*
X58884783Y20249488D01*
X58926213Y19969870D01*
X59021397Y19703708D01*
X59088329Y19578486D01*
X59332298Y19506903D01*
X60145395Y20320000D01*
X60131253Y20334142D01*
X60310858Y20513747D01*
X60325000Y20499605D01*
X60339143Y20513747D01*
X60518748Y20334142D01*
X60504605Y20320000D01*
X61317702Y19506903D01*
X61561671Y19578486D01*
X61682571Y19833996D01*
X61751300Y20108184D01*
X61765217Y20390512D01*
X61723787Y20670130D01*
X61628603Y20936292D01*
X61589740Y21009000D01*
X62238481Y21009000D01*
X62142429Y20806004D01*
X62073700Y20531816D01*
X62059783Y20249488D01*
X62101213Y19969870D01*
X62196397Y19703708D01*
X62263329Y19578486D01*
X62507298Y19506903D01*
X63320395Y20320000D01*
X63306253Y20334142D01*
X63485858Y20513747D01*
X63500000Y20499605D01*
X63514143Y20513747D01*
X63693748Y20334142D01*
X63679605Y20320000D01*
X64492702Y19506903D01*
X64736671Y19578486D01*
X64857571Y19833996D01*
X64926300Y20108184D01*
X64940217Y20390512D01*
X64898787Y20670130D01*
X64803603Y20936292D01*
X64764740Y21009000D01*
X65413481Y21009000D01*
X65317429Y20806004D01*
X65248700Y20531816D01*
X65234783Y20249488D01*
X65276213Y19969870D01*
X65371397Y19703708D01*
X65438329Y19578486D01*
X65682298Y19506903D01*
X66495395Y20320000D01*
X66481253Y20334142D01*
X66660858Y20513747D01*
X66675000Y20499605D01*
X66689143Y20513747D01*
X66868748Y20334142D01*
X66854605Y20320000D01*
X67667702Y19506903D01*
X67911671Y19578486D01*
X68032571Y19833996D01*
X68101300Y20108184D01*
X68115217Y20390512D01*
X68073787Y20670130D01*
X67978603Y20936292D01*
X67939740Y21009000D01*
X68588481Y21009000D01*
X68492429Y20806004D01*
X68423700Y20531816D01*
X68409783Y20249488D01*
X68451213Y19969870D01*
X68546397Y19703708D01*
X68613329Y19578486D01*
X68857298Y19506903D01*
X69670395Y20320000D01*
X69656253Y20334142D01*
X69835858Y20513747D01*
X69850000Y20499605D01*
X69864143Y20513747D01*
X70043748Y20334142D01*
X70029605Y20320000D01*
X70842702Y19506903D01*
X71086671Y19578486D01*
X71207571Y19833996D01*
X71276300Y20108184D01*
X71290217Y20390512D01*
X71248787Y20670130D01*
X71153603Y20936292D01*
X71114740Y21009000D01*
X71332982Y21009000D01*
X71374000Y21004960D01*
X71415018Y21009000D01*
X71415019Y21009000D01*
X71537689Y21021082D01*
X71695087Y21068828D01*
X71773859Y21110933D01*
X71667429Y20886004D01*
%TA.AperFunction,Conductor*%
D24*
G36*
X71667429Y20886004D02*
G01*
X71598700Y20611816D01*
X71584783Y20329488D01*
X71626213Y20049870D01*
X71721397Y19783708D01*
X71788329Y19658486D01*
X72032298Y19586903D01*
X72845395Y20400000D01*
X72831253Y20414142D01*
X73010858Y20593747D01*
X73025000Y20579605D01*
X73039143Y20593747D01*
X73218748Y20414142D01*
X73204605Y20400000D01*
X73218748Y20385857D01*
X73039143Y20206252D01*
X73025000Y20220395D01*
X72211903Y19407298D01*
X72283486Y19163329D01*
X72538996Y19042429D01*
X72813184Y18973700D01*
X73095512Y18959783D01*
X73375130Y19001213D01*
X73641292Y19096397D01*
X73766514Y19163329D01*
X73838097Y19407296D01*
X73895001Y19350392D01*
X73895001Y18843712D01*
X72596290Y17545000D01*
X68630838Y17545000D01*
X68580000Y17550007D01*
X68529162Y17545000D01*
X61319396Y17545000D01*
X61239759Y17624637D01*
X61004727Y17781680D01*
X60743574Y17889853D01*
X60466335Y17945000D01*
X60183665Y17945000D01*
X59906426Y17889853D01*
X59645273Y17781680D01*
X59410241Y17624637D01*
X59210363Y17424759D01*
X59053320Y17189727D01*
X58945147Y16928574D01*
X58890000Y16651335D01*
X58890000Y16368665D01*
X58945147Y16091426D01*
X59053320Y15830273D01*
X59210363Y15595241D01*
X59410241Y15395363D01*
X59645273Y15238320D01*
X59906426Y15130147D01*
X60183665Y15075000D01*
X60466335Y15075000D01*
X60743574Y15130147D01*
X61004727Y15238320D01*
X61239759Y15395363D01*
X61319396Y15475000D01*
X67545001Y15475000D01*
X67545001Y15290846D01*
X67545000Y15290837D01*
X67545000Y14727287D01*
X67535820Y14724502D01*
X67425506Y14665537D01*
X67328815Y14586185D01*
X67318193Y14573242D01*
X67066004Y14692571D01*
X66791816Y14761300D01*
X66509488Y14775217D01*
X66229870Y14733787D01*
X65963708Y14638603D01*
X65838486Y14571671D01*
X65766903Y14327702D01*
X66580000Y13514605D01*
X66594143Y13528747D01*
X66773748Y13349142D01*
X66759605Y13335000D01*
X66773748Y13320857D01*
X66594143Y13141252D01*
X66580000Y13155395D01*
X65766903Y12342298D01*
X65838486Y12098329D01*
X66093996Y11977429D01*
X66368184Y11908700D01*
X66650512Y11894783D01*
X66930130Y11936213D01*
X67196292Y12031397D01*
X67318309Y12096616D01*
X67328815Y12083815D01*
X67425506Y12004463D01*
X67535820Y11945498D01*
X67655518Y11909188D01*
X67780000Y11896928D01*
X69380000Y11896928D01*
X69504482Y11909188D01*
X69624180Y11945498D01*
X69734494Y12004463D01*
X69831185Y12083815D01*
X69910537Y12180506D01*
X69969502Y12290820D01*
X70005812Y12410518D01*
X70018072Y12535000D01*
X70018072Y14135000D01*
X70005812Y14259482D01*
X69969502Y14379180D01*
X69910537Y14489494D01*
X69831185Y14586185D01*
X69734494Y14665537D01*
X69624180Y14724502D01*
X69615000Y14727287D01*
X69615000Y15475000D01*
X72974172Y15475000D01*
X73025000Y15469994D01*
X73075828Y15475000D01*
X73075838Y15475000D01*
X73227895Y15489976D01*
X73422993Y15549159D01*
X73602797Y15645266D01*
X73760396Y15774604D01*
X73792807Y15814097D01*
X75540000Y17561289D01*
X75540000Y660000D01*
X52005867Y660000D01*
X52631428Y1285560D01*
X52663291Y1311709D01*
X52767636Y1438854D01*
X52845172Y1583913D01*
X52892918Y1741311D01*
X52894009Y1752384D01*
X52906842Y1747068D01*
X53193740Y1690000D01*
X53486260Y1690000D01*
X53773158Y1747068D01*
X54043411Y1859010D01*
X54286632Y2021525D01*
X54493475Y2228368D01*
X54610000Y2402760D01*
X54726525Y2228368D01*
X54933368Y2021525D01*
X55176589Y1859010D01*
X55446842Y1747068D01*
X55733740Y1690000D01*
X56026260Y1690000D01*
X56313158Y1747068D01*
X56583411Y1859010D01*
X56826632Y2021525D01*
X57033475Y2228368D01*
X57150000Y2402760D01*
X57266525Y2228368D01*
X57473368Y2021525D01*
X57716589Y1859010D01*
X57986842Y1747068D01*
X58273740Y1690000D01*
X58566260Y1690000D01*
X58853158Y1747068D01*
X59123411Y1859010D01*
X59366632Y2021525D01*
X59573475Y2228368D01*
X59735990Y2471589D01*
X59847932Y2741842D01*
X59905000Y3028740D01*
X59905000Y3321260D01*
X59847932Y3608158D01*
X59735990Y3878411D01*
X59573475Y4121632D01*
X59386392Y4308715D01*
X59513386Y4376595D01*
X59647962Y4487038D01*
X59758405Y4621614D01*
X59840472Y4775150D01*
X59891008Y4941746D01*
X59908072Y5115000D01*
X59908072Y6315000D01*
X59891008Y6488254D01*
X59840472Y6654850D01*
X59758405Y6808386D01*
X59647962Y6942962D01*
X59513386Y7053405D01*
X59359850Y7135472D01*
X59193254Y7186008D01*
X59020000Y7203072D01*
X57820000Y7203072D01*
X57646746Y7186008D01*
X57480150Y7135472D01*
X57326614Y7053405D01*
X57192038Y6942962D01*
X57081595Y6808386D01*
X57013715Y6681392D01*
X56826632Y6868475D01*
X56583411Y7030990D01*
X56313158Y7142932D01*
X56026260Y7200000D01*
X55733740Y7200000D01*
X55446842Y7142932D01*
X55176589Y7030990D01*
X54933368Y6868475D01*
X54726525Y6661632D01*
X54610000Y6487240D01*
X54493475Y6661632D01*
X54286632Y6868475D01*
X54043411Y7030990D01*
X53773158Y7142932D01*
X53486260Y7200000D01*
X53193740Y7200000D01*
X52906842Y7142932D01*
X52636589Y7030990D01*
X52393368Y6868475D01*
X52186525Y6661632D01*
X52070000Y6487240D01*
X51953475Y6661632D01*
X51746632Y6868475D01*
X51503411Y7030990D01*
X51233158Y7142932D01*
X51176707Y7154161D01*
X50243939Y8086928D01*
X50965000Y8086928D01*
X51089482Y8099188D01*
X51209180Y8135498D01*
X51319494Y8194463D01*
X51416185Y8273815D01*
X51495537Y8370506D01*
X51554502Y8480820D01*
X51590812Y8600518D01*
X51603072Y8725000D01*
X51603072Y9666335D01*
X56350000Y9666335D01*
X56350000Y9383665D01*
X56405147Y9106426D01*
X56513320Y8845273D01*
X56670363Y8610241D01*
X56870241Y8410363D01*
X57105273Y8253320D01*
X57366426Y8145147D01*
X57643665Y8090000D01*
X57926335Y8090000D01*
X58203574Y8145147D01*
X58464727Y8253320D01*
X58699759Y8410363D01*
X58899637Y8610241D01*
X59056680Y8845273D01*
X59164853Y9106426D01*
X59220000Y9383665D01*
X59220000Y9666335D01*
X59164853Y9943574D01*
X59056680Y10204727D01*
X58899637Y10439759D01*
X58699759Y10639637D01*
X58464727Y10796680D01*
X58203574Y10904853D01*
X57926335Y10960000D01*
X57643665Y10960000D01*
X57366426Y10904853D01*
X57105273Y10796680D01*
X56870241Y10639637D01*
X56670363Y10439759D01*
X56513320Y10204727D01*
X56405147Y9943574D01*
X56350000Y9666335D01*
X51603072Y9666335D01*
X51603072Y10325000D01*
X51590812Y10449482D01*
X51554502Y10569180D01*
X51495537Y10679494D01*
X51416185Y10776185D01*
X51319494Y10855537D01*
X51209180Y10914502D01*
X51089482Y10950812D01*
X50965000Y10963072D01*
X49365000Y10963072D01*
X49240518Y10950812D01*
X49120820Y10914502D01*
X49010506Y10855537D01*
X48913815Y10776185D01*
X48834463Y10679494D01*
X48775498Y10569180D01*
X48739188Y10449482D01*
X48726928Y10325000D01*
X48726928Y8725000D01*
X48739188Y8600518D01*
X48775498Y8480820D01*
X48789299Y8455000D01*
X43525868Y8455000D01*
X41385867Y10595000D01*
X41608888Y10595000D01*
X41760392Y10410392D01*
X41978899Y10231068D01*
X42228192Y10097818D01*
X42498691Y10015764D01*
X42709508Y9995000D01*
X43650492Y9995000D01*
X43861309Y10015764D01*
X44131808Y10097818D01*
X44381101Y10231068D01*
X44599608Y10410392D01*
X44778932Y10628899D01*
X44912182Y10878192D01*
X44994236Y11148691D01*
X45021943Y11430000D01*
X44994236Y11711309D01*
X44912182Y11981808D01*
X44778932Y12231101D01*
X44599608Y12449608D01*
X44381101Y12628932D01*
X44253259Y12697265D01*
X44482839Y12847399D01*
X44684500Y13045105D01*
X44843715Y13278354D01*
X44928028Y13476335D01*
X48810000Y13476335D01*
X48810000Y13193665D01*
X48865147Y12916426D01*
X48973320Y12655273D01*
X49130363Y12420241D01*
X49330241Y12220363D01*
X49565273Y12063320D01*
X49826426Y11955147D01*
X50103665Y11900000D01*
X50386335Y11900000D01*
X50663574Y11955147D01*
X50924727Y12063320D01*
X51159759Y12220363D01*
X51281694Y12342298D01*
X54431903Y12342298D01*
X54503486Y12098329D01*
X54758996Y11977429D01*
X55033184Y11908700D01*
X55315512Y11894783D01*
X55595130Y11936213D01*
X55861292Y12031397D01*
X55986514Y12098329D01*
X56058097Y12342298D01*
X55245000Y13155395D01*
X54431903Y12342298D01*
X51281694Y12342298D01*
X51359637Y12420241D01*
X51516680Y12655273D01*
X51624853Y12916426D01*
X51680000Y13193665D01*
X51680000Y13264488D01*
X53804783Y13264488D01*
X53846213Y12984870D01*
X53941397Y12718708D01*
X54008329Y12593486D01*
X54252298Y12521903D01*
X55065395Y13335000D01*
X55424605Y13335000D01*
X56237702Y12521903D01*
X56481671Y12593486D01*
X56602571Y12848996D01*
X56671300Y13123184D01*
X56678265Y13264488D01*
X65139783Y13264488D01*
X65181213Y12984870D01*
X65276397Y12718708D01*
X65343329Y12593486D01*
X65587298Y12521903D01*
X66400395Y13335000D01*
X65587298Y14148097D01*
X65343329Y14076514D01*
X65222429Y13821004D01*
X65153700Y13546816D01*
X65139783Y13264488D01*
X56678265Y13264488D01*
X56685217Y13405512D01*
X56643787Y13685130D01*
X56548603Y13951292D01*
X56481671Y14076514D01*
X56237702Y14148097D01*
X55424605Y13335000D01*
X55065395Y13335000D01*
X54252298Y14148097D01*
X54008329Y14076514D01*
X53887429Y13821004D01*
X53818700Y13546816D01*
X53804783Y13264488D01*
X51680000Y13264488D01*
X51680000Y13476335D01*
X51624853Y13753574D01*
X51516680Y14014727D01*
X51359637Y14249759D01*
X51281694Y14327702D01*
X54431903Y14327702D01*
X55245000Y13514605D01*
X56058097Y14327702D01*
X55986514Y14571671D01*
X55731004Y14692571D01*
X55456816Y14761300D01*
X55174488Y14775217D01*
X54894870Y14733787D01*
X54628708Y14638603D01*
X54503486Y14571671D01*
X54431903Y14327702D01*
X51281694Y14327702D01*
X51159759Y14449637D01*
X50924727Y14606680D01*
X50663574Y14714853D01*
X50386335Y14770000D01*
X50103665Y14770000D01*
X49826426Y14714853D01*
X49565273Y14606680D01*
X49330241Y14449637D01*
X49130363Y14249759D01*
X48973320Y14014727D01*
X48865147Y13753574D01*
X48810000Y13476335D01*
X44928028Y13476335D01*
X44954367Y13538182D01*
X44971904Y13620961D01*
X44849915Y13843000D01*
X43307000Y13843000D01*
X43307000Y13823000D01*
X43053000Y13823000D01*
X43053000Y13843000D01*
X43033000Y13843000D01*
X43033000Y14097000D01*
X43053000Y14097000D01*
X43053000Y14117000D01*
X43307000Y14117000D01*
X43307000Y14097000D01*
X44849915Y14097000D01*
X44971904Y14319039D01*
X44954367Y14401818D01*
X44843715Y14661646D01*
X44684500Y14894895D01*
X44482839Y15092601D01*
X44253259Y15242735D01*
X44381101Y15311068D01*
X44599608Y15490392D01*
X44751112Y15675000D01*
X46948982Y15675000D01*
X46990000Y15670960D01*
X47031018Y15675000D01*
X47031019Y15675000D01*
X47153689Y15687082D01*
X47311087Y15734828D01*
X47456146Y15812364D01*
X47583291Y15916709D01*
X47609446Y15948579D01*
X48312202Y16651335D01*
X48730000Y16651335D01*
X48730000Y16368665D01*
X48785147Y16091426D01*
X48893320Y15830273D01*
X49050363Y15595241D01*
X49250241Y15395363D01*
X49485273Y15238320D01*
X49746426Y15130147D01*
X50023665Y15075000D01*
X50306335Y15075000D01*
X50583574Y15130147D01*
X50844727Y15238320D01*
X51079759Y15395363D01*
X51279637Y15595241D01*
X51436680Y15830273D01*
X51544853Y16091426D01*
X51600000Y16368665D01*
X51600000Y16651335D01*
X51544853Y16928574D01*
X51436680Y17189727D01*
X51279637Y17424759D01*
X51079759Y17624637D01*
X50844727Y17781680D01*
X50583574Y17889853D01*
X50306335Y17945000D01*
X50023665Y17945000D01*
X49746426Y17889853D01*
X49485273Y17781680D01*
X49250241Y17624637D01*
X49050363Y17424759D01*
X48893320Y17189727D01*
X48785147Y16928574D01*
X48730000Y16651335D01*
X48312202Y16651335D01*
X48821426Y17160558D01*
X48853291Y17186709D01*
X48957636Y17313854D01*
X49035172Y17458913D01*
X49082918Y17616311D01*
X49095000Y17738981D01*
X49095000Y17738983D01*
X49099040Y17779999D01*
X49095000Y17821019D01*
X49095000Y19327298D01*
X49986903Y19327298D01*
X50058486Y19083329D01*
X50313996Y18962429D01*
X50588184Y18893700D01*
X50870512Y18879783D01*
X51150130Y18921213D01*
X51416292Y19016397D01*
X51541514Y19083329D01*
X51613097Y19327298D01*
X53161903Y19327298D01*
X53233486Y19083329D01*
X53488996Y18962429D01*
X53763184Y18893700D01*
X54045512Y18879783D01*
X54325130Y18921213D01*
X54591292Y19016397D01*
X54716514Y19083329D01*
X54788097Y19327298D01*
X56336903Y19327298D01*
X56408486Y19083329D01*
X56663996Y18962429D01*
X56938184Y18893700D01*
X57220512Y18879783D01*
X57500130Y18921213D01*
X57766292Y19016397D01*
X57891514Y19083329D01*
X57963097Y19327298D01*
X59511903Y19327298D01*
X59583486Y19083329D01*
X59838996Y18962429D01*
X60113184Y18893700D01*
X60395512Y18879783D01*
X60675130Y18921213D01*
X60941292Y19016397D01*
X61066514Y19083329D01*
X61138097Y19327298D01*
X62686903Y19327298D01*
X62758486Y19083329D01*
X63013996Y18962429D01*
X63288184Y18893700D01*
X63570512Y18879783D01*
X63850130Y18921213D01*
X64116292Y19016397D01*
X64241514Y19083329D01*
X64313097Y19327298D01*
X65861903Y19327298D01*
X65933486Y19083329D01*
X66188996Y18962429D01*
X66463184Y18893700D01*
X66745512Y18879783D01*
X67025130Y18921213D01*
X67291292Y19016397D01*
X67416514Y19083329D01*
X67488097Y19327298D01*
X69036903Y19327298D01*
X69108486Y19083329D01*
X69363996Y18962429D01*
X69638184Y18893700D01*
X69920512Y18879783D01*
X70200130Y18921213D01*
X70466292Y19016397D01*
X70591514Y19083329D01*
X70663097Y19327298D01*
X69850000Y20140395D01*
X69036903Y19327298D01*
X67488097Y19327298D01*
X66675000Y20140395D01*
X65861903Y19327298D01*
X64313097Y19327298D01*
X63500000Y20140395D01*
X62686903Y19327298D01*
X61138097Y19327298D01*
X60325000Y20140395D01*
X59511903Y19327298D01*
X57963097Y19327298D01*
X57150000Y20140395D01*
X56336903Y19327298D01*
X54788097Y19327298D01*
X53975000Y20140395D01*
X53161903Y19327298D01*
X51613097Y19327298D01*
X50800000Y20140395D01*
X49986903Y19327298D01*
X49095000Y19327298D01*
X49095000Y19972735D01*
X49258125Y20135860D01*
X49361833Y20291069D01*
X49359783Y20249488D01*
X49401213Y19969870D01*
X49496397Y19703708D01*
X49563329Y19578486D01*
X49807298Y19506903D01*
X50620395Y20320000D01*
X50606253Y20334142D01*
X50785858Y20513747D01*
X50800000Y20499605D01*
X50814143Y20513747D01*
X50993748Y20334142D01*
X50979605Y20320000D01*
X51792702Y19506903D01*
X52036671Y19578486D01*
X52157571Y19833996D01*
X52226300Y20108184D01*
X52240217Y20390512D01*
X52198787Y20670130D01*
X52103603Y20936292D01*
X52064740Y21009000D01*
X52713481Y21009000D01*
X52617429Y20806004D01*
X52548700Y20531816D01*
X52534783Y20249488D01*
X52576213Y19969870D01*
X52671397Y19703708D01*
X52738329Y19578486D01*
X52982298Y19506903D01*
X53795395Y20320000D01*
X53781253Y20334142D01*
X53960858Y20513747D01*
X53975000Y20499605D01*
X53989143Y20513747D01*
X54168748Y20334142D01*
X54154605Y20320000D01*
X54967702Y19506903D01*
X55211671Y19578486D01*
X55332571Y19833996D01*
X55401300Y20108184D01*
X55415217Y20390512D01*
X55373787Y20670130D01*
X55278603Y20936292D01*
X55239740Y21009000D01*
X55888481Y21009000D01*
X55792429Y20806004D01*
X55723700Y20531816D01*
X55709783Y20249488D01*
X55751213Y19969870D01*
X55846397Y19703708D01*
X55913329Y19578486D01*
X56157298Y19506903D01*
X56970395Y20320000D01*
X56956253Y20334142D01*
X57135858Y20513747D01*
X57150000Y20499605D01*
X57164143Y20513747D01*
X57343748Y20334142D01*
X57329605Y20320000D01*
X58142702Y19506903D01*
X58386671Y19578486D01*
X58507571Y19833996D01*
X58576300Y20108184D01*
X58590217Y20390512D01*
X58548787Y20670130D01*
X58453603Y20936292D01*
X58414740Y21009000D01*
X59063481Y21009000D01*
X58967429Y20806004D01*
X58898700Y20531816D01*
X58884783Y20249488D01*
X58926213Y19969870D01*
X59021397Y19703708D01*
X59088329Y19578486D01*
X59332298Y19506903D01*
X60145395Y20320000D01*
X60131253Y20334142D01*
X60310858Y20513747D01*
X60325000Y20499605D01*
X60339143Y20513747D01*
X60518748Y20334142D01*
X60504605Y20320000D01*
X61317702Y19506903D01*
X61561671Y19578486D01*
X61682571Y19833996D01*
X61751300Y20108184D01*
X61765217Y20390512D01*
X61723787Y20670130D01*
X61628603Y20936292D01*
X61589740Y21009000D01*
X62238481Y21009000D01*
X62142429Y20806004D01*
X62073700Y20531816D01*
X62059783Y20249488D01*
X62101213Y19969870D01*
X62196397Y19703708D01*
X62263329Y19578486D01*
X62507298Y19506903D01*
X63320395Y20320000D01*
X63306253Y20334142D01*
X63485858Y20513747D01*
X63500000Y20499605D01*
X63514143Y20513747D01*
X63693748Y20334142D01*
X63679605Y20320000D01*
X64492702Y19506903D01*
X64736671Y19578486D01*
X64857571Y19833996D01*
X64926300Y20108184D01*
X64940217Y20390512D01*
X64898787Y20670130D01*
X64803603Y20936292D01*
X64764740Y21009000D01*
X65413481Y21009000D01*
X65317429Y20806004D01*
X65248700Y20531816D01*
X65234783Y20249488D01*
X65276213Y19969870D01*
X65371397Y19703708D01*
X65438329Y19578486D01*
X65682298Y19506903D01*
X66495395Y20320000D01*
X66481253Y20334142D01*
X66660858Y20513747D01*
X66675000Y20499605D01*
X66689143Y20513747D01*
X66868748Y20334142D01*
X66854605Y20320000D01*
X67667702Y19506903D01*
X67911671Y19578486D01*
X68032571Y19833996D01*
X68101300Y20108184D01*
X68115217Y20390512D01*
X68073787Y20670130D01*
X67978603Y20936292D01*
X67939740Y21009000D01*
X68588481Y21009000D01*
X68492429Y20806004D01*
X68423700Y20531816D01*
X68409783Y20249488D01*
X68451213Y19969870D01*
X68546397Y19703708D01*
X68613329Y19578486D01*
X68857298Y19506903D01*
X69670395Y20320000D01*
X69656253Y20334142D01*
X69835858Y20513747D01*
X69850000Y20499605D01*
X69864143Y20513747D01*
X70043748Y20334142D01*
X70029605Y20320000D01*
X70842702Y19506903D01*
X71086671Y19578486D01*
X71207571Y19833996D01*
X71276300Y20108184D01*
X71290217Y20390512D01*
X71248787Y20670130D01*
X71153603Y20936292D01*
X71114740Y21009000D01*
X71332982Y21009000D01*
X71374000Y21004960D01*
X71415018Y21009000D01*
X71415019Y21009000D01*
X71537689Y21021082D01*
X71695087Y21068828D01*
X71773859Y21110933D01*
X71667429Y20886004D01*
G37*
%TD.AperFunction*%
D23*
X19166525Y4768368D02*
X19373368Y4561525D01*
X19547760Y4445000D01*
X19373368Y4328475D01*
X19166525Y4121632D01*
X19050689Y3948271D01*
X18808397Y4023792D01*
X17959605Y3175000D01*
X18808397Y2326208D01*
X19050689Y2401729D01*
X19166525Y2228368D01*
X19289893Y2105000D01*
X18615825Y2105000D01*
X18628792Y2146603D01*
X17780000Y2995395D01*
X16931208Y2146603D01*
X16944175Y2105000D01*
X9870868Y2105000D01*
X8869399Y3106469D01*
X16289389Y3106469D01*
X16331401Y2816981D01*
X16429081Y2541253D01*
X16502528Y2403843D01*
X16751603Y2326208D01*
X17600395Y3175000D01*
X16751603Y4023792D01*
X16502528Y3946157D01*
X16376629Y3682117D01*
X16304661Y3398589D01*
X16289389Y3106469D01*
X8869399Y3106469D01*
X8270000Y3705867D01*
X8270000Y3936561D01*
X8220619Y4184821D01*
X8123753Y4418676D01*
X7983125Y4629140D01*
X7932265Y4680000D01*
X16714893Y4680000D01*
X16833368Y4561525D01*
X17006729Y4445689D01*
X16931208Y4203397D01*
X17780000Y3354605D01*
X18628792Y4203397D01*
X18553271Y4445689D01*
X18726632Y4561525D01*
X18933475Y4768368D01*
X19050000Y4942760D01*
X19166525Y4768368D01*
%TA.AperFunction,Conductor*%
D24*
G36*
X19166525Y4768368D02*
G01*
X19373368Y4561525D01*
X19547760Y4445000D01*
X19373368Y4328475D01*
X19166525Y4121632D01*
X19050689Y3948271D01*
X18808397Y4023792D01*
X17959605Y3175000D01*
X18808397Y2326208D01*
X19050689Y2401729D01*
X19166525Y2228368D01*
X19289893Y2105000D01*
X18615825Y2105000D01*
X18628792Y2146603D01*
X17780000Y2995395D01*
X16931208Y2146603D01*
X16944175Y2105000D01*
X9870868Y2105000D01*
X8869399Y3106469D01*
X16289389Y3106469D01*
X16331401Y2816981D01*
X16429081Y2541253D01*
X16502528Y2403843D01*
X16751603Y2326208D01*
X17600395Y3175000D01*
X16751603Y4023792D01*
X16502528Y3946157D01*
X16376629Y3682117D01*
X16304661Y3398589D01*
X16289389Y3106469D01*
X8869399Y3106469D01*
X8270000Y3705867D01*
X8270000Y3936561D01*
X8220619Y4184821D01*
X8123753Y4418676D01*
X7983125Y4629140D01*
X7932265Y4680000D01*
X16714893Y4680000D01*
X16833368Y4561525D01*
X17006729Y4445689D01*
X16931208Y4203397D01*
X17780000Y3354605D01*
X18628792Y4203397D01*
X18553271Y4445689D01*
X18726632Y4561525D01*
X18933475Y4768368D01*
X19050000Y4942760D01*
X19166525Y4768368D01*
G37*
%TD.AperFunction*%
D23*
X25000001Y21938712D02*
X23466290Y20405000D01*
X23353665Y20405000D01*
X23076426Y20349853D01*
X22815273Y20241680D01*
X22580241Y20084637D01*
X22380363Y19884759D01*
X22223320Y19649727D01*
X22115147Y19388574D01*
X22060000Y19111335D01*
X22060000Y18828665D01*
X22115147Y18551426D01*
X22223320Y18290273D01*
X22380363Y18055241D01*
X22580241Y17855363D01*
X22815273Y17698320D01*
X23076426Y17590147D01*
X23353665Y17535000D01*
X23636335Y17535000D01*
X23913574Y17590147D01*
X24111094Y17671962D01*
X23149133Y16710000D01*
X16857265Y16710000D01*
X16694140Y16873125D01*
X16483676Y17013753D01*
X16249821Y17110619D01*
X16001561Y17160000D01*
X15748439Y17160000D01*
X15500179Y17110619D01*
X15266324Y17013753D01*
X15055860Y16873125D01*
X14876875Y16694140D01*
X14736247Y16483676D01*
X14639381Y16249821D01*
X14590000Y16001561D01*
X14590000Y15748439D01*
X14639381Y15500179D01*
X14736247Y15266324D01*
X14876875Y15055860D01*
X15055860Y14876875D01*
X15266324Y14736247D01*
X15500179Y14639381D01*
X15748439Y14590000D01*
X16001561Y14590000D01*
X16249821Y14639381D01*
X16483676Y14736247D01*
X16694140Y14876875D01*
X16857265Y15040000D01*
X22704583Y15040000D01*
X22681903Y14962702D01*
X23495000Y14149605D01*
X24308097Y14962702D01*
X24236514Y15206671D01*
X24084501Y15278599D01*
X24088291Y15281709D01*
X24114446Y15313579D01*
X25745869Y16945000D01*
X26172385Y16945000D01*
X26125764Y16791309D01*
X26098057Y16510000D01*
X26125764Y16228691D01*
X26207818Y15958192D01*
X26341068Y15708899D01*
X26520392Y15490392D01*
X26738899Y15311068D01*
X26866741Y15242735D01*
X26637161Y15092601D01*
X26435500Y14894895D01*
X26276285Y14661646D01*
X26165633Y14401818D01*
X26148096Y14319039D01*
X26270085Y14097000D01*
X27813000Y14097000D01*
X27813000Y14117000D01*
X28067000Y14117000D01*
X28067000Y14097000D01*
X29609915Y14097000D01*
X29731904Y14319039D01*
X29714367Y14401818D01*
X29603715Y14661646D01*
X29444500Y14894895D01*
X29242839Y15092601D01*
X29013259Y15242735D01*
X29141101Y15311068D01*
X29359608Y15490392D01*
X29538932Y15708899D01*
X29672182Y15958192D01*
X29754236Y16228691D01*
X29780466Y16495000D01*
X29971561Y16495000D01*
X30219821Y16544381D01*
X30280001Y16569308D01*
X30280001Y13045869D01*
X29505712Y12271579D01*
X29359608Y12449608D01*
X29141101Y12628932D01*
X29013259Y12697265D01*
X29242839Y12847399D01*
X29444500Y13045105D01*
X29603715Y13278354D01*
X29714367Y13538182D01*
X29731904Y13620961D01*
X29609915Y13843000D01*
X28067000Y13843000D01*
X28067000Y13823000D01*
X27813000Y13823000D01*
X27813000Y13843000D01*
X26270085Y13843000D01*
X26148096Y13620961D01*
X26165633Y13538182D01*
X26276285Y13278354D01*
X26435500Y13045105D01*
X26637161Y12847399D01*
X26866741Y12697265D01*
X26738899Y12628932D01*
X26520392Y12449608D01*
X26341068Y12231101D01*
X26207818Y11981808D01*
X26125764Y11711309D01*
X26098057Y11430000D01*
X26125764Y11148691D01*
X26207818Y10878192D01*
X26341068Y10628899D01*
X26520392Y10410392D01*
X26738899Y10231068D01*
X26988192Y10097818D01*
X27258691Y10015764D01*
X27469508Y9995000D01*
X28410492Y9995000D01*
X28621309Y10015764D01*
X28891808Y10097818D01*
X29141101Y10231068D01*
X29359608Y10410392D01*
X29511112Y10595000D01*
X29803982Y10595000D01*
X29845000Y10590960D01*
X29886018Y10595000D01*
X29886019Y10595000D01*
X30008689Y10607082D01*
X30166087Y10654828D01*
X30311146Y10732364D01*
X30438291Y10836709D01*
X30464446Y10868579D01*
X30915000Y11319133D01*
X30915000Y7142169D01*
X30913158Y7142932D01*
X30626260Y7200000D01*
X30333740Y7200000D01*
X30046842Y7142932D01*
X29776589Y7030990D01*
X29533368Y6868475D01*
X29326525Y6661632D01*
X29210000Y6487240D01*
X29093475Y6661632D01*
X28886632Y6868475D01*
X28643411Y7030990D01*
X28373158Y7142932D01*
X28086260Y7200000D01*
X27793740Y7200000D01*
X27506842Y7142932D01*
X27236589Y7030990D01*
X26993368Y6868475D01*
X26786525Y6661632D01*
X26670000Y6487240D01*
X26553475Y6661632D01*
X26346632Y6868475D01*
X26103411Y7030990D01*
X25833158Y7142932D01*
X25546260Y7200000D01*
X25253740Y7200000D01*
X24966842Y7142932D01*
X24696589Y7030990D01*
X24453368Y6868475D01*
X24246525Y6661632D01*
X24130000Y6487240D01*
X24013475Y6661632D01*
X23806632Y6868475D01*
X23563411Y7030990D01*
X23293158Y7142932D01*
X23006260Y7200000D01*
X22713740Y7200000D01*
X22426842Y7142932D01*
X22156589Y7030990D01*
X21913368Y6868475D01*
X21706525Y6661632D01*
X21590000Y6487240D01*
X21473475Y6661632D01*
X21266632Y6868475D01*
X21023411Y7030990D01*
X20753158Y7142932D01*
X20466260Y7200000D01*
X20173740Y7200000D01*
X19886842Y7142932D01*
X19616589Y7030990D01*
X19373368Y6868475D01*
X19166525Y6661632D01*
X19050000Y6487240D01*
X18933475Y6661632D01*
X18726632Y6868475D01*
X18483411Y7030990D01*
X18213158Y7142932D01*
X17926260Y7200000D01*
X17633740Y7200000D01*
X17346842Y7142932D01*
X17076589Y7030990D01*
X16833368Y6868475D01*
X16714893Y6750000D01*
X5508711Y6750000D01*
X2940000Y9318710D01*
X2940000Y18621290D01*
X3332406Y19013696D01*
X3425393Y18900392D01*
X3643900Y18721068D01*
X3893193Y18587818D01*
X4163692Y18505764D01*
X4445000Y18478057D01*
X4726309Y18505764D01*
X4880001Y18552385D01*
X4880001Y18456029D01*
X4875960Y18415000D01*
X4892082Y18251312D01*
X4939828Y18093914D01*
X5017364Y17948855D01*
X5021605Y17943687D01*
X5121710Y17821709D01*
X5153574Y17795559D01*
X7420000Y15529132D01*
X7420000Y14467614D01*
X7266308Y14514236D01*
X6985000Y14541943D01*
X6703691Y14514236D01*
X6433192Y14432182D01*
X6183899Y14298932D01*
X5965392Y14119607D01*
X5872581Y14006517D01*
X5870812Y14024482D01*
X5834502Y14144180D01*
X5775537Y14254494D01*
X5696185Y14351185D01*
X5599494Y14430537D01*
X5489180Y14489502D01*
X5369482Y14525812D01*
X5245000Y14538072D01*
X3645000Y14538072D01*
X3520518Y14525812D01*
X3400820Y14489502D01*
X3290506Y14430537D01*
X3193815Y14351185D01*
X3114463Y14254494D01*
X3055498Y14144180D01*
X3019188Y14024482D01*
X3006928Y13900000D01*
X3006928Y11500000D01*
X3019188Y11375518D01*
X3055498Y11255820D01*
X3114463Y11145506D01*
X3193815Y11048815D01*
X3290506Y10969463D01*
X3400820Y10910498D01*
X3520518Y10874188D01*
X3645000Y10861928D01*
X5245000Y10861928D01*
X5369482Y10874188D01*
X5489180Y10910498D01*
X5599494Y10969463D01*
X5696185Y11048815D01*
X5775537Y11145506D01*
X5834502Y11255820D01*
X5870812Y11375518D01*
X5872581Y11393483D01*
X5965393Y11280392D01*
X6183900Y11101068D01*
X6433193Y10967818D01*
X6703692Y10885764D01*
X6985000Y10858057D01*
X7266309Y10885764D01*
X7536808Y10967818D01*
X7551149Y10975483D01*
X7557364Y10963855D01*
X7568068Y10950812D01*
X7661710Y10836709D01*
X7693574Y10810559D01*
X8519513Y9984620D01*
X8446513Y9911620D01*
X8424502Y9984180D01*
X8365537Y10094494D01*
X8286185Y10191185D01*
X8189494Y10270537D01*
X8079180Y10329502D01*
X7959482Y10365812D01*
X7835000Y10378072D01*
X6135000Y10378072D01*
X6010518Y10365812D01*
X5890820Y10329502D01*
X5780506Y10270537D01*
X5683815Y10191185D01*
X5604463Y10094494D01*
X5545498Y9984180D01*
X5509188Y9864482D01*
X5496928Y9740000D01*
X5496928Y8040000D01*
X5509188Y7915518D01*
X5545498Y7795820D01*
X5604463Y7685506D01*
X5683815Y7588815D01*
X5780506Y7509463D01*
X5890820Y7450498D01*
X6010518Y7414188D01*
X6135000Y7401928D01*
X7835000Y7401928D01*
X7959482Y7414188D01*
X8079180Y7450498D01*
X8189494Y7509463D01*
X8286185Y7588815D01*
X8365537Y7685506D01*
X8424502Y7795820D01*
X8446513Y7868380D01*
X8578368Y7736525D01*
X8821589Y7574010D01*
X9091842Y7462068D01*
X9378740Y7405000D01*
X9671260Y7405000D01*
X9958158Y7462068D01*
X10228411Y7574010D01*
X10471632Y7736525D01*
X10678475Y7943368D01*
X10795000Y8117760D01*
X10911525Y7943368D01*
X11118368Y7736525D01*
X11361589Y7574010D01*
X11631842Y7462068D01*
X11918740Y7405000D01*
X12211260Y7405000D01*
X12498158Y7462068D01*
X12768411Y7574010D01*
X13011632Y7736525D01*
X13218475Y7943368D01*
X13380990Y8186589D01*
X13492932Y8456842D01*
X13550000Y8743740D01*
X13550000Y9036260D01*
X13492932Y9323158D01*
X13380990Y9593411D01*
X13218475Y9836632D01*
X13011632Y10043475D01*
X12900000Y10118065D01*
X12900000Y10118985D01*
X12904040Y10160001D01*
X12897040Y10231068D01*
X12887918Y10323689D01*
X12840172Y10481087D01*
X12762636Y10626146D01*
X12658291Y10753291D01*
X12626428Y10779440D01*
X12479654Y10926213D01*
X12616808Y10967818D01*
X12866101Y11101068D01*
X13084608Y11280392D01*
X13263932Y11498899D01*
X13335000Y11631858D01*
X13406068Y11498899D01*
X13585393Y11280392D01*
X13803900Y11101068D01*
X14053193Y10967818D01*
X14323692Y10885764D01*
X14605000Y10858057D01*
X14886309Y10885764D01*
X15156808Y10967818D01*
X15406101Y11101068D01*
X15624608Y11280392D01*
X15803932Y11498899D01*
X15875000Y11631858D01*
X15946068Y11498899D01*
X16125393Y11280392D01*
X16343900Y11101068D01*
X16593193Y10967818D01*
X16863692Y10885764D01*
X17145000Y10858057D01*
X17426309Y10885764D01*
X17696808Y10967818D01*
X17946101Y11101068D01*
X18164608Y11280392D01*
X18343932Y11498899D01*
X18412265Y11626741D01*
X18562399Y11397161D01*
X18760105Y11195500D01*
X18993354Y11036285D01*
X19253182Y10925633D01*
X19335961Y10908096D01*
X19558000Y11030085D01*
X19558000Y12573000D01*
X19812000Y12573000D01*
X19812000Y11030085D01*
X20034039Y10908096D01*
X20116818Y10925633D01*
X20376646Y11036285D01*
X20609895Y11195500D01*
X20807601Y11397161D01*
X20962166Y11633517D01*
X21067650Y11895486D01*
X21120000Y12173000D01*
X21120000Y12573000D01*
X19812000Y12573000D01*
X19558000Y12573000D01*
X19538000Y12573000D01*
X19538000Y12827000D01*
X19558000Y12827000D01*
X19558000Y14369915D01*
X19812000Y14369915D01*
X19812000Y12827000D01*
X21120000Y12827000D01*
X21120000Y12977298D01*
X22681903Y12977298D01*
X22753486Y12733329D01*
X23008996Y12612429D01*
X23283184Y12543700D01*
X23565512Y12529783D01*
X23845130Y12571213D01*
X24111292Y12666397D01*
X24236514Y12733329D01*
X24308097Y12977298D01*
X23495000Y13790395D01*
X22681903Y12977298D01*
X21120000Y12977298D01*
X21120000Y13227000D01*
X21067650Y13504514D01*
X20962166Y13766483D01*
X20875188Y13899488D01*
X22054783Y13899488D01*
X22096213Y13619870D01*
X22191397Y13353708D01*
X22258329Y13228486D01*
X22502298Y13156903D01*
X23315395Y13970000D01*
X23674605Y13970000D01*
X24487702Y13156903D01*
X24731671Y13228486D01*
X24852571Y13483996D01*
X24921300Y13758184D01*
X24935217Y14040512D01*
X24893787Y14320130D01*
X24798603Y14586292D01*
X24731671Y14711514D01*
X24487702Y14783097D01*
X23674605Y13970000D01*
X23315395Y13970000D01*
X22502298Y14783097D01*
X22258329Y14711514D01*
X22137429Y14456004D01*
X22068700Y14181816D01*
X22054783Y13899488D01*
X20875188Y13899488D01*
X20807601Y14002839D01*
X20609895Y14204500D01*
X20376646Y14363715D01*
X20116818Y14474367D01*
X20034039Y14491904D01*
X19812000Y14369915D01*
X19558000Y14369915D01*
X19335961Y14491904D01*
X19253182Y14474367D01*
X18993354Y14363715D01*
X18760105Y14204500D01*
X18562399Y14002839D01*
X18412265Y13773259D01*
X18343932Y13901101D01*
X18164607Y14119608D01*
X17946100Y14298932D01*
X17696807Y14432182D01*
X17426308Y14514236D01*
X17145000Y14541943D01*
X16863691Y14514236D01*
X16593192Y14432182D01*
X16343899Y14298932D01*
X16125392Y14119607D01*
X15946068Y13901100D01*
X15875000Y13768142D01*
X15803932Y13901101D01*
X15624607Y14119608D01*
X15406100Y14298932D01*
X15156807Y14432182D01*
X14886308Y14514236D01*
X14605000Y14541943D01*
X14323691Y14514236D01*
X14053192Y14432182D01*
X13803899Y14298932D01*
X13585392Y14119607D01*
X13406068Y13901100D01*
X13335000Y13768142D01*
X13263932Y13901101D01*
X13084607Y14119608D01*
X12866100Y14298932D01*
X12616807Y14432182D01*
X12346308Y14514236D01*
X12065000Y14541943D01*
X11783691Y14514236D01*
X11630000Y14467615D01*
X11630000Y15833993D01*
X11634039Y15875001D01*
X11630000Y15916009D01*
X11630000Y15916019D01*
X11617918Y16038689D01*
X11570172Y16196087D01*
X11492636Y16341146D01*
X11388291Y16468291D01*
X11356428Y16494440D01*
X9356183Y18494684D01*
X9525000Y18478057D01*
X9806309Y18505764D01*
X10076808Y18587818D01*
X10326101Y18721068D01*
X10544608Y18900392D01*
X10723932Y19118899D01*
X10795000Y19251858D01*
X10866068Y19118899D01*
X11045393Y18900392D01*
X11263900Y18721068D01*
X11513193Y18587818D01*
X11783692Y18505764D01*
X12065000Y18478057D01*
X12346309Y18505764D01*
X12616808Y18587818D01*
X12631149Y18595483D01*
X12637364Y18583855D01*
X12660904Y18555172D01*
X12741710Y18456709D01*
X12773573Y18430559D01*
X13350561Y17853570D01*
X13376709Y17821709D01*
X13408568Y17795563D01*
X13408570Y17795561D01*
X13478354Y17738291D01*
X13503854Y17717364D01*
X13648913Y17639828D01*
X13806311Y17592082D01*
X13928981Y17580000D01*
X13928982Y17580000D01*
X13970000Y17575960D01*
X14011018Y17580000D01*
X19008982Y17580000D01*
X19050000Y17575960D01*
X19091018Y17580000D01*
X19091019Y17580000D01*
X19213689Y17592082D01*
X19371087Y17639828D01*
X19516146Y17717364D01*
X19643291Y17821709D01*
X19669445Y17853578D01*
X20246432Y18430564D01*
X20278291Y18456709D01*
X20304440Y18488571D01*
X20382636Y18583854D01*
X20443930Y18698527D01*
X20486101Y18721068D01*
X20704608Y18900392D01*
X20883932Y19118899D01*
X21017182Y19368192D01*
X21099236Y19638691D01*
X21120000Y19849509D01*
X21120000Y20790492D01*
X21099236Y21001309D01*
X21017182Y21271808D01*
X20956108Y21386069D01*
X20996018Y21390000D01*
X20996019Y21390000D01*
X21118689Y21402082D01*
X21276087Y21449828D01*
X21421146Y21527364D01*
X21548291Y21631709D01*
X21574445Y21663578D01*
X21906802Y21995933D01*
X22040860Y21861875D01*
X22251324Y21721247D01*
X22485179Y21624381D01*
X22733439Y21575000D01*
X22986561Y21575000D01*
X23234821Y21624381D01*
X23468676Y21721247D01*
X23679140Y21861875D01*
X23858125Y22040860D01*
X23998753Y22251324D01*
X24095619Y22485179D01*
X24145000Y22733439D01*
X24145000Y22986561D01*
X24095619Y23234821D01*
X23998753Y23468676D01*
X23858125Y23679140D01*
X23679140Y23858125D01*
X23468676Y23998753D01*
X23234821Y24095619D01*
X22986561Y24145000D01*
X22733439Y24145000D01*
X22485179Y24095619D01*
X22251324Y23998753D01*
X22040860Y23858125D01*
X21877735Y23695000D01*
X21631018Y23695000D01*
X21590000Y23699040D01*
X21548982Y23695000D01*
X21548981Y23695000D01*
X21426311Y23682918D01*
X21268913Y23635172D01*
X21123854Y23557636D01*
X21047532Y23495000D01*
X20996709Y23453291D01*
X20970562Y23421431D01*
X20609132Y23060000D01*
X20279702Y23060000D01*
X20376646Y23101285D01*
X20609895Y23260500D01*
X20807601Y23462161D01*
X20962166Y23698517D01*
X21067650Y23960486D01*
X21120000Y24238000D01*
X21120000Y24638000D01*
X19812000Y24638000D01*
X19812000Y24618000D01*
X19558000Y24618000D01*
X19558000Y24638000D01*
X19538000Y24638000D01*
X19538000Y24892000D01*
X19558000Y24892000D01*
X19558000Y26434915D01*
X19812000Y26434915D01*
X19812000Y24892000D01*
X21120000Y24892000D01*
X21120000Y25292000D01*
X21067650Y25569514D01*
X21024250Y25677298D01*
X22554903Y25677298D01*
X22626486Y25433329D01*
X22881996Y25312429D01*
X23156184Y25243700D01*
X23438512Y25229783D01*
X23718130Y25271213D01*
X23984292Y25366397D01*
X24109514Y25433329D01*
X24181097Y25677298D01*
X23368000Y26490395D01*
X22554903Y25677298D01*
X21024250Y25677298D01*
X20962166Y25831483D01*
X20807601Y26067839D01*
X20609895Y26269500D01*
X20376646Y26428715D01*
X20116818Y26539367D01*
X20034039Y26556904D01*
X19812000Y26434915D01*
X19558000Y26434915D01*
X19335961Y26556904D01*
X19253182Y26539367D01*
X18993354Y26428715D01*
X18760105Y26269500D01*
X18562399Y26067839D01*
X18412265Y25838259D01*
X18343932Y25966101D01*
X18164607Y26184608D01*
X17946100Y26363932D01*
X17696807Y26497182D01*
X17426308Y26579236D01*
X17220691Y26599488D01*
X21927783Y26599488D01*
X21969213Y26319870D01*
X22064397Y26053708D01*
X22131329Y25928486D01*
X22375298Y25856903D01*
X23188395Y26670000D01*
X23547605Y26670000D01*
X24360702Y25856903D01*
X24604671Y25928486D01*
X24725571Y26183996D01*
X24794300Y26458184D01*
X24808217Y26740512D01*
X24766787Y27020130D01*
X24671603Y27286292D01*
X24604671Y27411514D01*
X24360702Y27483097D01*
X23547605Y26670000D01*
X23188395Y26670000D01*
X22375298Y27483097D01*
X22131329Y27411514D01*
X22010429Y27156004D01*
X21941700Y26881816D01*
X21927783Y26599488D01*
X17220691Y26599488D01*
X17145000Y26606943D01*
X16863691Y26579236D01*
X16593192Y26497182D01*
X16343899Y26363932D01*
X16125392Y26184607D01*
X15946068Y25966100D01*
X15875000Y25833142D01*
X15803932Y25966101D01*
X15624607Y26184608D01*
X15406100Y26363932D01*
X15156807Y26497182D01*
X14886308Y26579236D01*
X14605000Y26606943D01*
X14323691Y26579236D01*
X14170000Y26532615D01*
X14170000Y27662702D01*
X22554903Y27662702D01*
X23368000Y26849605D01*
X24181097Y27662702D01*
X24109514Y27906671D01*
X23854004Y28027571D01*
X23579816Y28096300D01*
X23297488Y28110217D01*
X23017870Y28068787D01*
X22751708Y27973603D01*
X22626486Y27906671D01*
X22554903Y27662702D01*
X14170000Y27662702D01*
X14170000Y30617385D01*
X14323692Y30570764D01*
X14605000Y30543057D01*
X14886309Y30570764D01*
X15156808Y30652818D01*
X15406101Y30786068D01*
X15624608Y30965392D01*
X15803932Y31183899D01*
X15875000Y31316858D01*
X15946068Y31183899D01*
X16125393Y30965392D01*
X16343900Y30786068D01*
X16593193Y30652818D01*
X16863692Y30570764D01*
X17145000Y30543057D01*
X17426309Y30570764D01*
X17696808Y30652818D01*
X17946101Y30786068D01*
X18164608Y30965392D01*
X18343932Y31183899D01*
X18415000Y31316858D01*
X18486068Y31183899D01*
X18665393Y30965392D01*
X18883900Y30786068D01*
X19133193Y30652818D01*
X19403692Y30570764D01*
X19685000Y30543057D01*
X19966309Y30570764D01*
X20236808Y30652818D01*
X20486101Y30786068D01*
X20704608Y30965392D01*
X20883932Y31183899D01*
X21017182Y31433192D01*
X21099236Y31703691D01*
X21120000Y31914509D01*
X21120000Y32855492D01*
X21099236Y33066309D01*
X21017182Y33336808D01*
X20883932Y33586101D01*
X20704607Y33804608D01*
X20486100Y33983932D01*
X20236807Y34117182D01*
X19966308Y34199236D01*
X19685000Y34226943D01*
X19403691Y34199236D01*
X19133192Y34117182D01*
X18883899Y33983932D01*
X18665392Y33804607D01*
X18486068Y33586100D01*
X18415000Y33453142D01*
X18343932Y33586101D01*
X18164607Y33804608D01*
X17946100Y33983932D01*
X17696807Y34117182D01*
X17426308Y34199236D01*
X17145000Y34226943D01*
X16863691Y34199236D01*
X16593192Y34117182D01*
X16343899Y33983932D01*
X16125392Y33804607D01*
X15946068Y33586100D01*
X15875000Y33453142D01*
X15803932Y33586101D01*
X15624607Y33804608D01*
X15406100Y33983932D01*
X15156807Y34117182D01*
X14886308Y34199236D01*
X14605000Y34226943D01*
X14323691Y34199236D01*
X14170000Y34152615D01*
X14170000Y34248985D01*
X14174040Y34290001D01*
X14169932Y34331710D01*
X14157918Y34453689D01*
X14110172Y34611087D01*
X14032636Y34756146D01*
X13928291Y34883291D01*
X13896428Y34909440D01*
X13224733Y35581135D01*
X13263932Y35628899D01*
X13335000Y35761858D01*
X13406068Y35628899D01*
X13585393Y35410392D01*
X13803900Y35231068D01*
X14053193Y35097818D01*
X14323692Y35015764D01*
X14605000Y34988057D01*
X14886309Y35015764D01*
X15156808Y35097818D01*
X15406101Y35231068D01*
X15624608Y35410392D01*
X15803932Y35628899D01*
X15875000Y35761858D01*
X15946068Y35628899D01*
X16125393Y35410392D01*
X16343900Y35231068D01*
X16593193Y35097818D01*
X16863692Y35015764D01*
X17145000Y34988057D01*
X17426309Y35015764D01*
X17696808Y35097818D01*
X17946101Y35231068D01*
X18164608Y35410392D01*
X18343932Y35628899D01*
X18412265Y35756741D01*
X18562399Y35527161D01*
X18760105Y35325500D01*
X18993354Y35166285D01*
X19253182Y35055633D01*
X19335961Y35038096D01*
X19558000Y35160085D01*
X19558000Y36703000D01*
X19812000Y36703000D01*
X19812000Y35160085D01*
X20034039Y35038096D01*
X20116818Y35055633D01*
X20376646Y35166285D01*
X20609895Y35325500D01*
X20807601Y35527161D01*
X20962166Y35763517D01*
X21067650Y36025486D01*
X21120000Y36303000D01*
X21120000Y36703000D01*
X19812000Y36703000D01*
X19558000Y36703000D01*
X19538000Y36703000D01*
X19538000Y36957000D01*
X19558000Y36957000D01*
X19558000Y38499915D01*
X19812000Y38499915D01*
X19812000Y36957000D01*
X21120000Y36957000D01*
X21120000Y36971335D01*
X21933000Y36971335D01*
X21933000Y36688665D01*
X21988147Y36411426D01*
X22096320Y36150273D01*
X22253363Y35915241D01*
X22453241Y35715363D01*
X22688273Y35558320D01*
X22949426Y35450147D01*
X23226665Y35395000D01*
X23509335Y35395000D01*
X23786574Y35450147D01*
X24047727Y35558320D01*
X24282759Y35715363D01*
X24482637Y35915241D01*
X24639680Y36150273D01*
X24747853Y36411426D01*
X24803000Y36688665D01*
X24803000Y36971335D01*
X24747853Y37248574D01*
X24639680Y37509727D01*
X24482637Y37744759D01*
X24282759Y37944637D01*
X24099432Y38067132D01*
X24174727Y38098320D01*
X24409759Y38255363D01*
X24609637Y38455241D01*
X24766680Y38690273D01*
X24874853Y38951426D01*
X24930000Y39228665D01*
X24930000Y39511335D01*
X24874853Y39788574D01*
X24766680Y40049727D01*
X24609637Y40284759D01*
X24409759Y40484637D01*
X24207173Y40620000D01*
X24409759Y40755363D01*
X24609637Y40955241D01*
X24766680Y41190273D01*
X24874853Y41451426D01*
X24930000Y41728665D01*
X24930000Y42011335D01*
X24874853Y42288574D01*
X24766680Y42549727D01*
X24609637Y42784759D01*
X24409759Y42984637D01*
X24174727Y43141680D01*
X23913574Y43249853D01*
X23636335Y43305000D01*
X23353665Y43305000D01*
X23076426Y43249853D01*
X22815273Y43141680D01*
X22580241Y42984637D01*
X22380363Y42784759D01*
X22223320Y42549727D01*
X22115147Y42288574D01*
X22060000Y42011335D01*
X22060000Y41728665D01*
X22115147Y41451426D01*
X22223320Y41190273D01*
X22380363Y40955241D01*
X22580241Y40755363D01*
X22782827Y40620000D01*
X22580241Y40484637D01*
X22380363Y40284759D01*
X22223320Y40049727D01*
X22115147Y39788574D01*
X22060000Y39511335D01*
X22060000Y39228665D01*
X22115147Y38951426D01*
X22223320Y38690273D01*
X22380363Y38455241D01*
X22580241Y38255363D01*
X22763568Y38132868D01*
X22688273Y38101680D01*
X22453241Y37944637D01*
X22253363Y37744759D01*
X22096320Y37509727D01*
X21988147Y37248574D01*
X21933000Y36971335D01*
X21120000Y36971335D01*
X21120000Y37357000D01*
X21067650Y37634514D01*
X20962166Y37896483D01*
X20807601Y38132839D01*
X20609895Y38334500D01*
X20376646Y38493715D01*
X20116818Y38604367D01*
X20034039Y38621904D01*
X19812000Y38499915D01*
X19558000Y38499915D01*
X19335961Y38621904D01*
X19253182Y38604367D01*
X18993354Y38493715D01*
X18760105Y38334500D01*
X18562399Y38132839D01*
X18412265Y37903259D01*
X18343932Y38031101D01*
X18164607Y38249608D01*
X17946100Y38428932D01*
X17696807Y38562182D01*
X17426308Y38644236D01*
X17145000Y38671943D01*
X16863691Y38644236D01*
X16593192Y38562182D01*
X16343899Y38428932D01*
X16125392Y38249607D01*
X15946068Y38031100D01*
X15875000Y37898142D01*
X15803932Y38031101D01*
X15624607Y38249608D01*
X15406100Y38428932D01*
X15156807Y38562182D01*
X14886308Y38644236D01*
X14605000Y38671943D01*
X14323691Y38644236D01*
X14053192Y38562182D01*
X13803899Y38428932D01*
X13585392Y38249607D01*
X13406068Y38031100D01*
X13335000Y37898142D01*
X13263932Y38031101D01*
X13084607Y38249608D01*
X12900000Y38401111D01*
X12900000Y39024133D01*
X13680868Y39805000D01*
X15833982Y39805000D01*
X15875000Y39800960D01*
X15916018Y39805000D01*
X15916019Y39805000D01*
X16038689Y39817082D01*
X16196087Y39864828D01*
X16341146Y39942364D01*
X16468291Y40046709D01*
X16494446Y40078579D01*
X17706426Y41290558D01*
X17738291Y41316709D01*
X17842636Y41443854D01*
X17920172Y41588913D01*
X17967918Y41746311D01*
X17980000Y41868981D01*
X17980000Y41868983D01*
X17984040Y41909999D01*
X17980000Y41951015D01*
X17980000Y42878888D01*
X18164608Y43030392D01*
X18343932Y43248899D01*
X18415000Y43381858D01*
X18486068Y43248899D01*
X18665393Y43030392D01*
X18883900Y42851068D01*
X19133193Y42717818D01*
X19403692Y42635764D01*
X19685000Y42608057D01*
X19966309Y42635764D01*
X20236808Y42717818D01*
X20486101Y42851068D01*
X20704608Y43030392D01*
X20883932Y43248899D01*
X21017182Y43498192D01*
X21099236Y43768691D01*
X21120000Y43979509D01*
X21120000Y44920492D01*
X21099236Y45131309D01*
X21017182Y45401808D01*
X20883932Y45651101D01*
X20704607Y45869608D01*
X20600557Y45955000D01*
X25000000Y45955000D01*
X25000001Y21938712D01*
%TA.AperFunction,Conductor*%
D24*
G36*
X25000001Y21938712D02*
G01*
X23466290Y20405000D01*
X23353665Y20405000D01*
X23076426Y20349853D01*
X22815273Y20241680D01*
X22580241Y20084637D01*
X22380363Y19884759D01*
X22223320Y19649727D01*
X22115147Y19388574D01*
X22060000Y19111335D01*
X22060000Y18828665D01*
X22115147Y18551426D01*
X22223320Y18290273D01*
X22380363Y18055241D01*
X22580241Y17855363D01*
X22815273Y17698320D01*
X23076426Y17590147D01*
X23353665Y17535000D01*
X23636335Y17535000D01*
X23913574Y17590147D01*
X24111094Y17671962D01*
X23149133Y16710000D01*
X16857265Y16710000D01*
X16694140Y16873125D01*
X16483676Y17013753D01*
X16249821Y17110619D01*
X16001561Y17160000D01*
X15748439Y17160000D01*
X15500179Y17110619D01*
X15266324Y17013753D01*
X15055860Y16873125D01*
X14876875Y16694140D01*
X14736247Y16483676D01*
X14639381Y16249821D01*
X14590000Y16001561D01*
X14590000Y15748439D01*
X14639381Y15500179D01*
X14736247Y15266324D01*
X14876875Y15055860D01*
X15055860Y14876875D01*
X15266324Y14736247D01*
X15500179Y14639381D01*
X15748439Y14590000D01*
X16001561Y14590000D01*
X16249821Y14639381D01*
X16483676Y14736247D01*
X16694140Y14876875D01*
X16857265Y15040000D01*
X22704583Y15040000D01*
X22681903Y14962702D01*
X23495000Y14149605D01*
X24308097Y14962702D01*
X24236514Y15206671D01*
X24084501Y15278599D01*
X24088291Y15281709D01*
X24114446Y15313579D01*
X25745869Y16945000D01*
X26172385Y16945000D01*
X26125764Y16791309D01*
X26098057Y16510000D01*
X26125764Y16228691D01*
X26207818Y15958192D01*
X26341068Y15708899D01*
X26520392Y15490392D01*
X26738899Y15311068D01*
X26866741Y15242735D01*
X26637161Y15092601D01*
X26435500Y14894895D01*
X26276285Y14661646D01*
X26165633Y14401818D01*
X26148096Y14319039D01*
X26270085Y14097000D01*
X27813000Y14097000D01*
X27813000Y14117000D01*
X28067000Y14117000D01*
X28067000Y14097000D01*
X29609915Y14097000D01*
X29731904Y14319039D01*
X29714367Y14401818D01*
X29603715Y14661646D01*
X29444500Y14894895D01*
X29242839Y15092601D01*
X29013259Y15242735D01*
X29141101Y15311068D01*
X29359608Y15490392D01*
X29538932Y15708899D01*
X29672182Y15958192D01*
X29754236Y16228691D01*
X29780466Y16495000D01*
X29971561Y16495000D01*
X30219821Y16544381D01*
X30280001Y16569308D01*
X30280001Y13045869D01*
X29505712Y12271579D01*
X29359608Y12449608D01*
X29141101Y12628932D01*
X29013259Y12697265D01*
X29242839Y12847399D01*
X29444500Y13045105D01*
X29603715Y13278354D01*
X29714367Y13538182D01*
X29731904Y13620961D01*
X29609915Y13843000D01*
X28067000Y13843000D01*
X28067000Y13823000D01*
X27813000Y13823000D01*
X27813000Y13843000D01*
X26270085Y13843000D01*
X26148096Y13620961D01*
X26165633Y13538182D01*
X26276285Y13278354D01*
X26435500Y13045105D01*
X26637161Y12847399D01*
X26866741Y12697265D01*
X26738899Y12628932D01*
X26520392Y12449608D01*
X26341068Y12231101D01*
X26207818Y11981808D01*
X26125764Y11711309D01*
X26098057Y11430000D01*
X26125764Y11148691D01*
X26207818Y10878192D01*
X26341068Y10628899D01*
X26520392Y10410392D01*
X26738899Y10231068D01*
X26988192Y10097818D01*
X27258691Y10015764D01*
X27469508Y9995000D01*
X28410492Y9995000D01*
X28621309Y10015764D01*
X28891808Y10097818D01*
X29141101Y10231068D01*
X29359608Y10410392D01*
X29511112Y10595000D01*
X29803982Y10595000D01*
X29845000Y10590960D01*
X29886018Y10595000D01*
X29886019Y10595000D01*
X30008689Y10607082D01*
X30166087Y10654828D01*
X30311146Y10732364D01*
X30438291Y10836709D01*
X30464446Y10868579D01*
X30915000Y11319133D01*
X30915000Y7142169D01*
X30913158Y7142932D01*
X30626260Y7200000D01*
X30333740Y7200000D01*
X30046842Y7142932D01*
X29776589Y7030990D01*
X29533368Y6868475D01*
X29326525Y6661632D01*
X29210000Y6487240D01*
X29093475Y6661632D01*
X28886632Y6868475D01*
X28643411Y7030990D01*
X28373158Y7142932D01*
X28086260Y7200000D01*
X27793740Y7200000D01*
X27506842Y7142932D01*
X27236589Y7030990D01*
X26993368Y6868475D01*
X26786525Y6661632D01*
X26670000Y6487240D01*
X26553475Y6661632D01*
X26346632Y6868475D01*
X26103411Y7030990D01*
X25833158Y7142932D01*
X25546260Y7200000D01*
X25253740Y7200000D01*
X24966842Y7142932D01*
X24696589Y7030990D01*
X24453368Y6868475D01*
X24246525Y6661632D01*
X24130000Y6487240D01*
X24013475Y6661632D01*
X23806632Y6868475D01*
X23563411Y7030990D01*
X23293158Y7142932D01*
X23006260Y7200000D01*
X22713740Y7200000D01*
X22426842Y7142932D01*
X22156589Y7030990D01*
X21913368Y6868475D01*
X21706525Y6661632D01*
X21590000Y6487240D01*
X21473475Y6661632D01*
X21266632Y6868475D01*
X21023411Y7030990D01*
X20753158Y7142932D01*
X20466260Y7200000D01*
X20173740Y7200000D01*
X19886842Y7142932D01*
X19616589Y7030990D01*
X19373368Y6868475D01*
X19166525Y6661632D01*
X19050000Y6487240D01*
X18933475Y6661632D01*
X18726632Y6868475D01*
X18483411Y7030990D01*
X18213158Y7142932D01*
X17926260Y7200000D01*
X17633740Y7200000D01*
X17346842Y7142932D01*
X17076589Y7030990D01*
X16833368Y6868475D01*
X16714893Y6750000D01*
X5508711Y6750000D01*
X2940000Y9318710D01*
X2940000Y18621290D01*
X3332406Y19013696D01*
X3425393Y18900392D01*
X3643900Y18721068D01*
X3893193Y18587818D01*
X4163692Y18505764D01*
X4445000Y18478057D01*
X4726309Y18505764D01*
X4880001Y18552385D01*
X4880001Y18456029D01*
X4875960Y18415000D01*
X4892082Y18251312D01*
X4939828Y18093914D01*
X5017364Y17948855D01*
X5021605Y17943687D01*
X5121710Y17821709D01*
X5153574Y17795559D01*
X7420000Y15529132D01*
X7420000Y14467614D01*
X7266308Y14514236D01*
X6985000Y14541943D01*
X6703691Y14514236D01*
X6433192Y14432182D01*
X6183899Y14298932D01*
X5965392Y14119607D01*
X5872581Y14006517D01*
X5870812Y14024482D01*
X5834502Y14144180D01*
X5775537Y14254494D01*
X5696185Y14351185D01*
X5599494Y14430537D01*
X5489180Y14489502D01*
X5369482Y14525812D01*
X5245000Y14538072D01*
X3645000Y14538072D01*
X3520518Y14525812D01*
X3400820Y14489502D01*
X3290506Y14430537D01*
X3193815Y14351185D01*
X3114463Y14254494D01*
X3055498Y14144180D01*
X3019188Y14024482D01*
X3006928Y13900000D01*
X3006928Y11500000D01*
X3019188Y11375518D01*
X3055498Y11255820D01*
X3114463Y11145506D01*
X3193815Y11048815D01*
X3290506Y10969463D01*
X3400820Y10910498D01*
X3520518Y10874188D01*
X3645000Y10861928D01*
X5245000Y10861928D01*
X5369482Y10874188D01*
X5489180Y10910498D01*
X5599494Y10969463D01*
X5696185Y11048815D01*
X5775537Y11145506D01*
X5834502Y11255820D01*
X5870812Y11375518D01*
X5872581Y11393483D01*
X5965393Y11280392D01*
X6183900Y11101068D01*
X6433193Y10967818D01*
X6703692Y10885764D01*
X6985000Y10858057D01*
X7266309Y10885764D01*
X7536808Y10967818D01*
X7551149Y10975483D01*
X7557364Y10963855D01*
X7568068Y10950812D01*
X7661710Y10836709D01*
X7693574Y10810559D01*
X8519513Y9984620D01*
X8446513Y9911620D01*
X8424502Y9984180D01*
X8365537Y10094494D01*
X8286185Y10191185D01*
X8189494Y10270537D01*
X8079180Y10329502D01*
X7959482Y10365812D01*
X7835000Y10378072D01*
X6135000Y10378072D01*
X6010518Y10365812D01*
X5890820Y10329502D01*
X5780506Y10270537D01*
X5683815Y10191185D01*
X5604463Y10094494D01*
X5545498Y9984180D01*
X5509188Y9864482D01*
X5496928Y9740000D01*
X5496928Y8040000D01*
X5509188Y7915518D01*
X5545498Y7795820D01*
X5604463Y7685506D01*
X5683815Y7588815D01*
X5780506Y7509463D01*
X5890820Y7450498D01*
X6010518Y7414188D01*
X6135000Y7401928D01*
X7835000Y7401928D01*
X7959482Y7414188D01*
X8079180Y7450498D01*
X8189494Y7509463D01*
X8286185Y7588815D01*
X8365537Y7685506D01*
X8424502Y7795820D01*
X8446513Y7868380D01*
X8578368Y7736525D01*
X8821589Y7574010D01*
X9091842Y7462068D01*
X9378740Y7405000D01*
X9671260Y7405000D01*
X9958158Y7462068D01*
X10228411Y7574010D01*
X10471632Y7736525D01*
X10678475Y7943368D01*
X10795000Y8117760D01*
X10911525Y7943368D01*
X11118368Y7736525D01*
X11361589Y7574010D01*
X11631842Y7462068D01*
X11918740Y7405000D01*
X12211260Y7405000D01*
X12498158Y7462068D01*
X12768411Y7574010D01*
X13011632Y7736525D01*
X13218475Y7943368D01*
X13380990Y8186589D01*
X13492932Y8456842D01*
X13550000Y8743740D01*
X13550000Y9036260D01*
X13492932Y9323158D01*
X13380990Y9593411D01*
X13218475Y9836632D01*
X13011632Y10043475D01*
X12900000Y10118065D01*
X12900000Y10118985D01*
X12904040Y10160001D01*
X12897040Y10231068D01*
X12887918Y10323689D01*
X12840172Y10481087D01*
X12762636Y10626146D01*
X12658291Y10753291D01*
X12626428Y10779440D01*
X12479654Y10926213D01*
X12616808Y10967818D01*
X12866101Y11101068D01*
X13084608Y11280392D01*
X13263932Y11498899D01*
X13335000Y11631858D01*
X13406068Y11498899D01*
X13585393Y11280392D01*
X13803900Y11101068D01*
X14053193Y10967818D01*
X14323692Y10885764D01*
X14605000Y10858057D01*
X14886309Y10885764D01*
X15156808Y10967818D01*
X15406101Y11101068D01*
X15624608Y11280392D01*
X15803932Y11498899D01*
X15875000Y11631858D01*
X15946068Y11498899D01*
X16125393Y11280392D01*
X16343900Y11101068D01*
X16593193Y10967818D01*
X16863692Y10885764D01*
X17145000Y10858057D01*
X17426309Y10885764D01*
X17696808Y10967818D01*
X17946101Y11101068D01*
X18164608Y11280392D01*
X18343932Y11498899D01*
X18412265Y11626741D01*
X18562399Y11397161D01*
X18760105Y11195500D01*
X18993354Y11036285D01*
X19253182Y10925633D01*
X19335961Y10908096D01*
X19558000Y11030085D01*
X19558000Y12573000D01*
X19812000Y12573000D01*
X19812000Y11030085D01*
X20034039Y10908096D01*
X20116818Y10925633D01*
X20376646Y11036285D01*
X20609895Y11195500D01*
X20807601Y11397161D01*
X20962166Y11633517D01*
X21067650Y11895486D01*
X21120000Y12173000D01*
X21120000Y12573000D01*
X19812000Y12573000D01*
X19558000Y12573000D01*
X19538000Y12573000D01*
X19538000Y12827000D01*
X19558000Y12827000D01*
X19558000Y14369915D01*
X19812000Y14369915D01*
X19812000Y12827000D01*
X21120000Y12827000D01*
X21120000Y12977298D01*
X22681903Y12977298D01*
X22753486Y12733329D01*
X23008996Y12612429D01*
X23283184Y12543700D01*
X23565512Y12529783D01*
X23845130Y12571213D01*
X24111292Y12666397D01*
X24236514Y12733329D01*
X24308097Y12977298D01*
X23495000Y13790395D01*
X22681903Y12977298D01*
X21120000Y12977298D01*
X21120000Y13227000D01*
X21067650Y13504514D01*
X20962166Y13766483D01*
X20875188Y13899488D01*
X22054783Y13899488D01*
X22096213Y13619870D01*
X22191397Y13353708D01*
X22258329Y13228486D01*
X22502298Y13156903D01*
X23315395Y13970000D01*
X23674605Y13970000D01*
X24487702Y13156903D01*
X24731671Y13228486D01*
X24852571Y13483996D01*
X24921300Y13758184D01*
X24935217Y14040512D01*
X24893787Y14320130D01*
X24798603Y14586292D01*
X24731671Y14711514D01*
X24487702Y14783097D01*
X23674605Y13970000D01*
X23315395Y13970000D01*
X22502298Y14783097D01*
X22258329Y14711514D01*
X22137429Y14456004D01*
X22068700Y14181816D01*
X22054783Y13899488D01*
X20875188Y13899488D01*
X20807601Y14002839D01*
X20609895Y14204500D01*
X20376646Y14363715D01*
X20116818Y14474367D01*
X20034039Y14491904D01*
X19812000Y14369915D01*
X19558000Y14369915D01*
X19335961Y14491904D01*
X19253182Y14474367D01*
X18993354Y14363715D01*
X18760105Y14204500D01*
X18562399Y14002839D01*
X18412265Y13773259D01*
X18343932Y13901101D01*
X18164607Y14119608D01*
X17946100Y14298932D01*
X17696807Y14432182D01*
X17426308Y14514236D01*
X17145000Y14541943D01*
X16863691Y14514236D01*
X16593192Y14432182D01*
X16343899Y14298932D01*
X16125392Y14119607D01*
X15946068Y13901100D01*
X15875000Y13768142D01*
X15803932Y13901101D01*
X15624607Y14119608D01*
X15406100Y14298932D01*
X15156807Y14432182D01*
X14886308Y14514236D01*
X14605000Y14541943D01*
X14323691Y14514236D01*
X14053192Y14432182D01*
X13803899Y14298932D01*
X13585392Y14119607D01*
X13406068Y13901100D01*
X13335000Y13768142D01*
X13263932Y13901101D01*
X13084607Y14119608D01*
X12866100Y14298932D01*
X12616807Y14432182D01*
X12346308Y14514236D01*
X12065000Y14541943D01*
X11783691Y14514236D01*
X11630000Y14467615D01*
X11630000Y15833993D01*
X11634039Y15875001D01*
X11630000Y15916009D01*
X11630000Y15916019D01*
X11617918Y16038689D01*
X11570172Y16196087D01*
X11492636Y16341146D01*
X11388291Y16468291D01*
X11356428Y16494440D01*
X9356183Y18494684D01*
X9525000Y18478057D01*
X9806309Y18505764D01*
X10076808Y18587818D01*
X10326101Y18721068D01*
X10544608Y18900392D01*
X10723932Y19118899D01*
X10795000Y19251858D01*
X10866068Y19118899D01*
X11045393Y18900392D01*
X11263900Y18721068D01*
X11513193Y18587818D01*
X11783692Y18505764D01*
X12065000Y18478057D01*
X12346309Y18505764D01*
X12616808Y18587818D01*
X12631149Y18595483D01*
X12637364Y18583855D01*
X12660904Y18555172D01*
X12741710Y18456709D01*
X12773573Y18430559D01*
X13350561Y17853570D01*
X13376709Y17821709D01*
X13408568Y17795563D01*
X13408570Y17795561D01*
X13478354Y17738291D01*
X13503854Y17717364D01*
X13648913Y17639828D01*
X13806311Y17592082D01*
X13928981Y17580000D01*
X13928982Y17580000D01*
X13970000Y17575960D01*
X14011018Y17580000D01*
X19008982Y17580000D01*
X19050000Y17575960D01*
X19091018Y17580000D01*
X19091019Y17580000D01*
X19213689Y17592082D01*
X19371087Y17639828D01*
X19516146Y17717364D01*
X19643291Y17821709D01*
X19669445Y17853578D01*
X20246432Y18430564D01*
X20278291Y18456709D01*
X20304440Y18488571D01*
X20382636Y18583854D01*
X20443930Y18698527D01*
X20486101Y18721068D01*
X20704608Y18900392D01*
X20883932Y19118899D01*
X21017182Y19368192D01*
X21099236Y19638691D01*
X21120000Y19849509D01*
X21120000Y20790492D01*
X21099236Y21001309D01*
X21017182Y21271808D01*
X20956108Y21386069D01*
X20996018Y21390000D01*
X20996019Y21390000D01*
X21118689Y21402082D01*
X21276087Y21449828D01*
X21421146Y21527364D01*
X21548291Y21631709D01*
X21574445Y21663578D01*
X21906802Y21995933D01*
X22040860Y21861875D01*
X22251324Y21721247D01*
X22485179Y21624381D01*
X22733439Y21575000D01*
X22986561Y21575000D01*
X23234821Y21624381D01*
X23468676Y21721247D01*
X23679140Y21861875D01*
X23858125Y22040860D01*
X23998753Y22251324D01*
X24095619Y22485179D01*
X24145000Y22733439D01*
X24145000Y22986561D01*
X24095619Y23234821D01*
X23998753Y23468676D01*
X23858125Y23679140D01*
X23679140Y23858125D01*
X23468676Y23998753D01*
X23234821Y24095619D01*
X22986561Y24145000D01*
X22733439Y24145000D01*
X22485179Y24095619D01*
X22251324Y23998753D01*
X22040860Y23858125D01*
X21877735Y23695000D01*
X21631018Y23695000D01*
X21590000Y23699040D01*
X21548982Y23695000D01*
X21548981Y23695000D01*
X21426311Y23682918D01*
X21268913Y23635172D01*
X21123854Y23557636D01*
X21047532Y23495000D01*
X20996709Y23453291D01*
X20970562Y23421431D01*
X20609132Y23060000D01*
X20279702Y23060000D01*
X20376646Y23101285D01*
X20609895Y23260500D01*
X20807601Y23462161D01*
X20962166Y23698517D01*
X21067650Y23960486D01*
X21120000Y24238000D01*
X21120000Y24638000D01*
X19812000Y24638000D01*
X19812000Y24618000D01*
X19558000Y24618000D01*
X19558000Y24638000D01*
X19538000Y24638000D01*
X19538000Y24892000D01*
X19558000Y24892000D01*
X19558000Y26434915D01*
X19812000Y26434915D01*
X19812000Y24892000D01*
X21120000Y24892000D01*
X21120000Y25292000D01*
X21067650Y25569514D01*
X21024250Y25677298D01*
X22554903Y25677298D01*
X22626486Y25433329D01*
X22881996Y25312429D01*
X23156184Y25243700D01*
X23438512Y25229783D01*
X23718130Y25271213D01*
X23984292Y25366397D01*
X24109514Y25433329D01*
X24181097Y25677298D01*
X23368000Y26490395D01*
X22554903Y25677298D01*
X21024250Y25677298D01*
X20962166Y25831483D01*
X20807601Y26067839D01*
X20609895Y26269500D01*
X20376646Y26428715D01*
X20116818Y26539367D01*
X20034039Y26556904D01*
X19812000Y26434915D01*
X19558000Y26434915D01*
X19335961Y26556904D01*
X19253182Y26539367D01*
X18993354Y26428715D01*
X18760105Y26269500D01*
X18562399Y26067839D01*
X18412265Y25838259D01*
X18343932Y25966101D01*
X18164607Y26184608D01*
X17946100Y26363932D01*
X17696807Y26497182D01*
X17426308Y26579236D01*
X17220691Y26599488D01*
X21927783Y26599488D01*
X21969213Y26319870D01*
X22064397Y26053708D01*
X22131329Y25928486D01*
X22375298Y25856903D01*
X23188395Y26670000D01*
X23547605Y26670000D01*
X24360702Y25856903D01*
X24604671Y25928486D01*
X24725571Y26183996D01*
X24794300Y26458184D01*
X24808217Y26740512D01*
X24766787Y27020130D01*
X24671603Y27286292D01*
X24604671Y27411514D01*
X24360702Y27483097D01*
X23547605Y26670000D01*
X23188395Y26670000D01*
X22375298Y27483097D01*
X22131329Y27411514D01*
X22010429Y27156004D01*
X21941700Y26881816D01*
X21927783Y26599488D01*
X17220691Y26599488D01*
X17145000Y26606943D01*
X16863691Y26579236D01*
X16593192Y26497182D01*
X16343899Y26363932D01*
X16125392Y26184607D01*
X15946068Y25966100D01*
X15875000Y25833142D01*
X15803932Y25966101D01*
X15624607Y26184608D01*
X15406100Y26363932D01*
X15156807Y26497182D01*
X14886308Y26579236D01*
X14605000Y26606943D01*
X14323691Y26579236D01*
X14170000Y26532615D01*
X14170000Y27662702D01*
X22554903Y27662702D01*
X23368000Y26849605D01*
X24181097Y27662702D01*
X24109514Y27906671D01*
X23854004Y28027571D01*
X23579816Y28096300D01*
X23297488Y28110217D01*
X23017870Y28068787D01*
X22751708Y27973603D01*
X22626486Y27906671D01*
X22554903Y27662702D01*
X14170000Y27662702D01*
X14170000Y30617385D01*
X14323692Y30570764D01*
X14605000Y30543057D01*
X14886309Y30570764D01*
X15156808Y30652818D01*
X15406101Y30786068D01*
X15624608Y30965392D01*
X15803932Y31183899D01*
X15875000Y31316858D01*
X15946068Y31183899D01*
X16125393Y30965392D01*
X16343900Y30786068D01*
X16593193Y30652818D01*
X16863692Y30570764D01*
X17145000Y30543057D01*
X17426309Y30570764D01*
X17696808Y30652818D01*
X17946101Y30786068D01*
X18164608Y30965392D01*
X18343932Y31183899D01*
X18415000Y31316858D01*
X18486068Y31183899D01*
X18665393Y30965392D01*
X18883900Y30786068D01*
X19133193Y30652818D01*
X19403692Y30570764D01*
X19685000Y30543057D01*
X19966309Y30570764D01*
X20236808Y30652818D01*
X20486101Y30786068D01*
X20704608Y30965392D01*
X20883932Y31183899D01*
X21017182Y31433192D01*
X21099236Y31703691D01*
X21120000Y31914509D01*
X21120000Y32855492D01*
X21099236Y33066309D01*
X21017182Y33336808D01*
X20883932Y33586101D01*
X20704607Y33804608D01*
X20486100Y33983932D01*
X20236807Y34117182D01*
X19966308Y34199236D01*
X19685000Y34226943D01*
X19403691Y34199236D01*
X19133192Y34117182D01*
X18883899Y33983932D01*
X18665392Y33804607D01*
X18486068Y33586100D01*
X18415000Y33453142D01*
X18343932Y33586101D01*
X18164607Y33804608D01*
X17946100Y33983932D01*
X17696807Y34117182D01*
X17426308Y34199236D01*
X17145000Y34226943D01*
X16863691Y34199236D01*
X16593192Y34117182D01*
X16343899Y33983932D01*
X16125392Y33804607D01*
X15946068Y33586100D01*
X15875000Y33453142D01*
X15803932Y33586101D01*
X15624607Y33804608D01*
X15406100Y33983932D01*
X15156807Y34117182D01*
X14886308Y34199236D01*
X14605000Y34226943D01*
X14323691Y34199236D01*
X14170000Y34152615D01*
X14170000Y34248985D01*
X14174040Y34290001D01*
X14169932Y34331710D01*
X14157918Y34453689D01*
X14110172Y34611087D01*
X14032636Y34756146D01*
X13928291Y34883291D01*
X13896428Y34909440D01*
X13224733Y35581135D01*
X13263932Y35628899D01*
X13335000Y35761858D01*
X13406068Y35628899D01*
X13585393Y35410392D01*
X13803900Y35231068D01*
X14053193Y35097818D01*
X14323692Y35015764D01*
X14605000Y34988057D01*
X14886309Y35015764D01*
X15156808Y35097818D01*
X15406101Y35231068D01*
X15624608Y35410392D01*
X15803932Y35628899D01*
X15875000Y35761858D01*
X15946068Y35628899D01*
X16125393Y35410392D01*
X16343900Y35231068D01*
X16593193Y35097818D01*
X16863692Y35015764D01*
X17145000Y34988057D01*
X17426309Y35015764D01*
X17696808Y35097818D01*
X17946101Y35231068D01*
X18164608Y35410392D01*
X18343932Y35628899D01*
X18412265Y35756741D01*
X18562399Y35527161D01*
X18760105Y35325500D01*
X18993354Y35166285D01*
X19253182Y35055633D01*
X19335961Y35038096D01*
X19558000Y35160085D01*
X19558000Y36703000D01*
X19812000Y36703000D01*
X19812000Y35160085D01*
X20034039Y35038096D01*
X20116818Y35055633D01*
X20376646Y35166285D01*
X20609895Y35325500D01*
X20807601Y35527161D01*
X20962166Y35763517D01*
X21067650Y36025486D01*
X21120000Y36303000D01*
X21120000Y36703000D01*
X19812000Y36703000D01*
X19558000Y36703000D01*
X19538000Y36703000D01*
X19538000Y36957000D01*
X19558000Y36957000D01*
X19558000Y38499915D01*
X19812000Y38499915D01*
X19812000Y36957000D01*
X21120000Y36957000D01*
X21120000Y36971335D01*
X21933000Y36971335D01*
X21933000Y36688665D01*
X21988147Y36411426D01*
X22096320Y36150273D01*
X22253363Y35915241D01*
X22453241Y35715363D01*
X22688273Y35558320D01*
X22949426Y35450147D01*
X23226665Y35395000D01*
X23509335Y35395000D01*
X23786574Y35450147D01*
X24047727Y35558320D01*
X24282759Y35715363D01*
X24482637Y35915241D01*
X24639680Y36150273D01*
X24747853Y36411426D01*
X24803000Y36688665D01*
X24803000Y36971335D01*
X24747853Y37248574D01*
X24639680Y37509727D01*
X24482637Y37744759D01*
X24282759Y37944637D01*
X24099432Y38067132D01*
X24174727Y38098320D01*
X24409759Y38255363D01*
X24609637Y38455241D01*
X24766680Y38690273D01*
X24874853Y38951426D01*
X24930000Y39228665D01*
X24930000Y39511335D01*
X24874853Y39788574D01*
X24766680Y40049727D01*
X24609637Y40284759D01*
X24409759Y40484637D01*
X24207173Y40620000D01*
X24409759Y40755363D01*
X24609637Y40955241D01*
X24766680Y41190273D01*
X24874853Y41451426D01*
X24930000Y41728665D01*
X24930000Y42011335D01*
X24874853Y42288574D01*
X24766680Y42549727D01*
X24609637Y42784759D01*
X24409759Y42984637D01*
X24174727Y43141680D01*
X23913574Y43249853D01*
X23636335Y43305000D01*
X23353665Y43305000D01*
X23076426Y43249853D01*
X22815273Y43141680D01*
X22580241Y42984637D01*
X22380363Y42784759D01*
X22223320Y42549727D01*
X22115147Y42288574D01*
X22060000Y42011335D01*
X22060000Y41728665D01*
X22115147Y41451426D01*
X22223320Y41190273D01*
X22380363Y40955241D01*
X22580241Y40755363D01*
X22782827Y40620000D01*
X22580241Y40484637D01*
X22380363Y40284759D01*
X22223320Y40049727D01*
X22115147Y39788574D01*
X22060000Y39511335D01*
X22060000Y39228665D01*
X22115147Y38951426D01*
X22223320Y38690273D01*
X22380363Y38455241D01*
X22580241Y38255363D01*
X22763568Y38132868D01*
X22688273Y38101680D01*
X22453241Y37944637D01*
X22253363Y37744759D01*
X22096320Y37509727D01*
X21988147Y37248574D01*
X21933000Y36971335D01*
X21120000Y36971335D01*
X21120000Y37357000D01*
X21067650Y37634514D01*
X20962166Y37896483D01*
X20807601Y38132839D01*
X20609895Y38334500D01*
X20376646Y38493715D01*
X20116818Y38604367D01*
X20034039Y38621904D01*
X19812000Y38499915D01*
X19558000Y38499915D01*
X19335961Y38621904D01*
X19253182Y38604367D01*
X18993354Y38493715D01*
X18760105Y38334500D01*
X18562399Y38132839D01*
X18412265Y37903259D01*
X18343932Y38031101D01*
X18164607Y38249608D01*
X17946100Y38428932D01*
X17696807Y38562182D01*
X17426308Y38644236D01*
X17145000Y38671943D01*
X16863691Y38644236D01*
X16593192Y38562182D01*
X16343899Y38428932D01*
X16125392Y38249607D01*
X15946068Y38031100D01*
X15875000Y37898142D01*
X15803932Y38031101D01*
X15624607Y38249608D01*
X15406100Y38428932D01*
X15156807Y38562182D01*
X14886308Y38644236D01*
X14605000Y38671943D01*
X14323691Y38644236D01*
X14053192Y38562182D01*
X13803899Y38428932D01*
X13585392Y38249607D01*
X13406068Y38031100D01*
X13335000Y37898142D01*
X13263932Y38031101D01*
X13084607Y38249608D01*
X12900000Y38401111D01*
X12900000Y39024133D01*
X13680868Y39805000D01*
X15833982Y39805000D01*
X15875000Y39800960D01*
X15916018Y39805000D01*
X15916019Y39805000D01*
X16038689Y39817082D01*
X16196087Y39864828D01*
X16341146Y39942364D01*
X16468291Y40046709D01*
X16494446Y40078579D01*
X17706426Y41290558D01*
X17738291Y41316709D01*
X17842636Y41443854D01*
X17920172Y41588913D01*
X17967918Y41746311D01*
X17980000Y41868981D01*
X17980000Y41868983D01*
X17984040Y41909999D01*
X17980000Y41951015D01*
X17980000Y42878888D01*
X18164608Y43030392D01*
X18343932Y43248899D01*
X18415000Y43381858D01*
X18486068Y43248899D01*
X18665393Y43030392D01*
X18883900Y42851068D01*
X19133193Y42717818D01*
X19403692Y42635764D01*
X19685000Y42608057D01*
X19966309Y42635764D01*
X20236808Y42717818D01*
X20486101Y42851068D01*
X20704608Y43030392D01*
X20883932Y43248899D01*
X21017182Y43498192D01*
X21099236Y43768691D01*
X21120000Y43979509D01*
X21120000Y44920492D01*
X21099236Y45131309D01*
X21017182Y45401808D01*
X20883932Y45651101D01*
X20704607Y45869608D01*
X20600557Y45955000D01*
X25000000Y45955000D01*
X25000001Y21938712D01*
G37*
%TD.AperFunction*%
%TD*%
M02*
