%TF.GenerationSoftware,KiCad,Pcbnew,(5.1.12)-1*%
%TF.CreationDate,2022-04-06T13:07:18+02:00*%
%TF.ProjectId,ACIA_RS232,41434941-5f52-4533-9233-322e6b696361,1.0*%
%TF.SameCoordinates,PX6d01460PY60e4b00*%
%TF.FileFunction,Legend,Top*%
%TF.FilePolarity,Positive*%
%FSLAX46Y46*%
G04 Gerber Fmt 4.6, Leading zero omitted, Abs format (unit mm)*
G04 Created by KiCad (PCBNEW (5.1.12)-1) date 2022-04-06 13:07:18*
%MOMM*%
%LPD*%
G01*
G04 APERTURE LIST*
%ADD10C,0.250000*%
%ADD11C,0.150000*%
%ADD12C,0.200000*%
%ADD13C,0.120000*%
G04 APERTURE END LIST*
D10*
X19569642Y46855953D02*
X19569642Y48555953D01*
X20283928Y46855953D02*
X20283928Y48555953D01*
X21141071Y46855953D01*
X21141071Y48555953D01*
X21641071Y48555953D02*
X22498214Y48555953D01*
X22069642Y46855953D02*
X22069642Y48555953D01*
X22998214Y47746429D02*
X23498214Y47746429D01*
X23712500Y46855953D02*
X22998214Y46855953D01*
X22998214Y48555953D01*
X23712500Y48555953D01*
X25212500Y46855953D02*
X24712500Y47665477D01*
X24355357Y46855953D02*
X24355357Y48555953D01*
X24926785Y48555953D01*
X25069642Y48475000D01*
X25141071Y48394048D01*
X25212500Y48232143D01*
X25212500Y47989286D01*
X25141071Y47827381D01*
X25069642Y47746429D01*
X24926785Y47665477D01*
X24355357Y47665477D01*
X26355357Y47746429D02*
X25855357Y47746429D01*
X25855357Y46855953D02*
X25855357Y48555953D01*
X26569642Y48555953D01*
X27069642Y47341667D02*
X27783928Y47341667D01*
X26926785Y46855953D02*
X27426785Y48555953D01*
X27926785Y46855953D01*
X29283928Y47017858D02*
X29212500Y46936905D01*
X28998214Y46855953D01*
X28855357Y46855953D01*
X28641071Y46936905D01*
X28498214Y47098810D01*
X28426785Y47260715D01*
X28355357Y47584524D01*
X28355357Y47827381D01*
X28426785Y48151191D01*
X28498214Y48313096D01*
X28641071Y48475000D01*
X28855357Y48555953D01*
X28998214Y48555953D01*
X29212500Y48475000D01*
X29283928Y48394048D01*
X29926785Y47746429D02*
X30426785Y47746429D01*
X30641071Y46855953D02*
X29926785Y46855953D01*
X29926785Y48555953D01*
X30641071Y48555953D01*
X32355357Y46936905D02*
X32569642Y46855953D01*
X32926785Y46855953D01*
X33069642Y46936905D01*
X33141071Y47017858D01*
X33212500Y47179762D01*
X33212500Y47341667D01*
X33141071Y47503572D01*
X33069642Y47584524D01*
X32926785Y47665477D01*
X32641071Y47746429D01*
X32498214Y47827381D01*
X32426785Y47908334D01*
X32355357Y48070239D01*
X32355357Y48232143D01*
X32426785Y48394048D01*
X32498214Y48475000D01*
X32641071Y48555953D01*
X32998214Y48555953D01*
X33212500Y48475000D01*
X33855357Y47746429D02*
X34355357Y47746429D01*
X34569642Y46855953D02*
X33855357Y46855953D01*
X33855357Y48555953D01*
X34569642Y48555953D01*
X36069642Y46855953D02*
X35569642Y47665477D01*
X35212500Y46855953D02*
X35212500Y48555953D01*
X35783928Y48555953D01*
X35926785Y48475000D01*
X35998214Y48394048D01*
X36069642Y48232143D01*
X36069642Y47989286D01*
X35998214Y47827381D01*
X35926785Y47746429D01*
X35783928Y47665477D01*
X35212500Y47665477D01*
X36712500Y46855953D02*
X36712500Y48555953D01*
X37426785Y47746429D02*
X37926785Y47746429D01*
X38141071Y46855953D02*
X37426785Y46855953D01*
X37426785Y48555953D01*
X38141071Y48555953D01*
X40783928Y46855953D02*
X40283928Y47665477D01*
X39926785Y46855953D02*
X39926785Y48555953D01*
X40498214Y48555953D01*
X40641071Y48475000D01*
X40712500Y48394048D01*
X40783928Y48232143D01*
X40783928Y47989286D01*
X40712500Y47827381D01*
X40641071Y47746429D01*
X40498214Y47665477D01*
X39926785Y47665477D01*
X41355357Y46936905D02*
X41569642Y46855953D01*
X41926785Y46855953D01*
X42069642Y46936905D01*
X42141071Y47017858D01*
X42212500Y47179762D01*
X42212500Y47341667D01*
X42141071Y47503572D01*
X42069642Y47584524D01*
X41926785Y47665477D01*
X41641071Y47746429D01*
X41498214Y47827381D01*
X41426785Y47908334D01*
X41355357Y48070239D01*
X41355357Y48232143D01*
X41426785Y48394048D01*
X41498214Y48475000D01*
X41641071Y48555953D01*
X41998214Y48555953D01*
X42212500Y48475000D01*
X42783928Y48394048D02*
X42855357Y48475000D01*
X42998214Y48555953D01*
X43355357Y48555953D01*
X43498214Y48475000D01*
X43569642Y48394048D01*
X43641071Y48232143D01*
X43641071Y48070239D01*
X43569642Y47827381D01*
X42712500Y46855953D01*
X43641071Y46855953D01*
X44141071Y48555953D02*
X45069642Y48555953D01*
X44569642Y47908334D01*
X44783928Y47908334D01*
X44926785Y47827381D01*
X44998214Y47746429D01*
X45069642Y47584524D01*
X45069642Y47179762D01*
X44998214Y47017858D01*
X44926785Y46936905D01*
X44783928Y46855953D01*
X44355357Y46855953D01*
X44212500Y46936905D01*
X44141071Y47017858D01*
X45641071Y48394048D02*
X45712500Y48475000D01*
X45855357Y48555953D01*
X46212500Y48555953D01*
X46355357Y48475000D01*
X46426785Y48394048D01*
X46498214Y48232143D01*
X46498214Y48070239D01*
X46426785Y47827381D01*
X45569642Y46855953D01*
X46498214Y46855953D01*
X48569642Y48555953D02*
X48855357Y48555953D01*
X48998214Y48475000D01*
X49141071Y48313096D01*
X49212500Y47989286D01*
X49212500Y47422620D01*
X49141071Y47098810D01*
X48998214Y46936905D01*
X48855357Y46855953D01*
X48569642Y46855953D01*
X48426785Y46936905D01*
X48283928Y47098810D01*
X48212500Y47422620D01*
X48212500Y47989286D01*
X48283928Y48313096D01*
X48426785Y48475000D01*
X48569642Y48555953D01*
X50712500Y46855953D02*
X50212500Y47665477D01*
X49855357Y46855953D02*
X49855357Y48555953D01*
X50426785Y48555953D01*
X50569642Y48475000D01*
X50641071Y48394048D01*
X50712500Y48232143D01*
X50712500Y47989286D01*
X50641071Y47827381D01*
X50569642Y47746429D01*
X50426785Y47665477D01*
X49855357Y47665477D01*
X51355357Y46855953D02*
X51355357Y48555953D01*
X52926785Y47017858D02*
X52855357Y46936905D01*
X52641071Y46855953D01*
X52498214Y46855953D01*
X52283928Y46936905D01*
X52141071Y47098810D01*
X52069642Y47260715D01*
X51998214Y47584524D01*
X51998214Y47827381D01*
X52069642Y48151191D01*
X52141071Y48313096D01*
X52283928Y48475000D01*
X52498214Y48555953D01*
X52641071Y48555953D01*
X52855357Y48475000D01*
X52926785Y48394048D01*
D11*
X61252142Y3717858D02*
X61309285Y3775000D01*
X61423571Y3832143D01*
X61709285Y3832143D01*
X61823571Y3775000D01*
X61880714Y3717858D01*
X61937857Y3603572D01*
X61937857Y3489286D01*
X61880714Y3317858D01*
X61195000Y2632143D01*
X61937857Y2632143D01*
X61937857Y5172143D02*
X61252142Y5172143D01*
X61595000Y5172143D02*
X61595000Y6372143D01*
X61480714Y6200715D01*
X61366428Y6086429D01*
X61252142Y6029286D01*
D12*
X3665238Y8582143D02*
X3403333Y8582143D01*
X3403333Y10296429D01*
X3665238Y10296429D01*
X3979523Y10182143D02*
X4660476Y10182143D01*
X4293809Y9725000D01*
X4450952Y9725000D01*
X4555714Y9667858D01*
X4608095Y9610715D01*
X4660476Y9496429D01*
X4660476Y9210715D01*
X4608095Y9096429D01*
X4555714Y9039286D01*
X4450952Y8982143D01*
X4136666Y8982143D01*
X4031904Y9039286D01*
X3979523Y9096429D01*
X5708095Y8982143D02*
X5079523Y8982143D01*
X5393809Y8982143D02*
X5393809Y10182143D01*
X5289047Y10010715D01*
X5184285Y9896429D01*
X5079523Y9839286D01*
X6808095Y9096429D02*
X6755714Y9039286D01*
X6598571Y8982143D01*
X6493809Y8982143D01*
X6336666Y9039286D01*
X6231904Y9153572D01*
X6179523Y9267858D01*
X6127142Y9496429D01*
X6127142Y9667858D01*
X6179523Y9896429D01*
X6231904Y10010715D01*
X6336666Y10125000D01*
X6493809Y10182143D01*
X6598571Y10182143D01*
X6755714Y10125000D01*
X6808095Y10067858D01*
X7279523Y9439286D02*
X8117619Y9439286D01*
X8536666Y10182143D02*
X9217619Y10182143D01*
X8850952Y9725000D01*
X9008095Y9725000D01*
X9112857Y9667858D01*
X9165238Y9610715D01*
X9217619Y9496429D01*
X9217619Y9210715D01*
X9165238Y9096429D01*
X9112857Y9039286D01*
X9008095Y8982143D01*
X8693809Y8982143D01*
X8589047Y9039286D01*
X8536666Y9096429D01*
X10265238Y8982143D02*
X9636666Y8982143D01*
X9950952Y8982143D02*
X9950952Y10182143D01*
X9846190Y10010715D01*
X9741428Y9896429D01*
X9636666Y9839286D01*
X11103333Y9610715D02*
X10736666Y9610715D01*
X10736666Y8982143D02*
X10736666Y10182143D01*
X11260476Y10182143D01*
X11574761Y8582143D02*
X11836666Y8582143D01*
X11836666Y10296429D01*
X11574761Y10296429D01*
D13*
%TO.C,J2*%
X75885000Y17360000D02*
X63545000Y17360000D01*
X63545000Y17360000D02*
X63545000Y48330000D01*
X63545000Y48330000D02*
X75885000Y48330000D01*
X62650662Y27055000D02*
X62650662Y27555000D01*
X62650662Y27555000D02*
X63083675Y27305000D01*
X63083675Y27305000D02*
X62650662Y27055000D01*
%TO.C,R1*%
X19685000Y44680000D02*
X19685000Y43910000D01*
X19685000Y36600000D02*
X19685000Y37370000D01*
X18315000Y43910000D02*
X18315000Y37370000D01*
X21055000Y43910000D02*
X18315000Y43910000D01*
X21055000Y37370000D02*
X21055000Y43910000D01*
X18315000Y37370000D02*
X21055000Y37370000D01*
%TO.C,C7*%
X49880225Y15695000D02*
X49880225Y15195000D01*
X49630225Y15445000D02*
X50130225Y15445000D01*
X55036000Y14254000D02*
X55036000Y13686000D01*
X54996000Y14488000D02*
X54996000Y13452000D01*
X54956000Y14647000D02*
X54956000Y13293000D01*
X54916000Y14775000D02*
X54916000Y13165000D01*
X54876000Y14885000D02*
X54876000Y13055000D01*
X54836000Y14981000D02*
X54836000Y12959000D01*
X54796000Y15068000D02*
X54796000Y12872000D01*
X54756000Y15148000D02*
X54756000Y12792000D01*
X54716000Y15221000D02*
X54716000Y12719000D01*
X54676000Y15289000D02*
X54676000Y12651000D01*
X54636000Y15353000D02*
X54636000Y12587000D01*
X54596000Y15413000D02*
X54596000Y12527000D01*
X54556000Y15470000D02*
X54556000Y12470000D01*
X54516000Y15524000D02*
X54516000Y12416000D01*
X54476000Y15575000D02*
X54476000Y12365000D01*
X54436000Y12930000D02*
X54436000Y12317000D01*
X54436000Y15623000D02*
X54436000Y15010000D01*
X54396000Y12930000D02*
X54396000Y12271000D01*
X54396000Y15669000D02*
X54396000Y15010000D01*
X54356000Y12930000D02*
X54356000Y12227000D01*
X54356000Y15713000D02*
X54356000Y15010000D01*
X54316000Y12930000D02*
X54316000Y12185000D01*
X54316000Y15755000D02*
X54316000Y15010000D01*
X54276000Y12930000D02*
X54276000Y12144000D01*
X54276000Y15796000D02*
X54276000Y15010000D01*
X54236000Y12930000D02*
X54236000Y12106000D01*
X54236000Y15834000D02*
X54236000Y15010000D01*
X54196000Y12930000D02*
X54196000Y12069000D01*
X54196000Y15871000D02*
X54196000Y15010000D01*
X54156000Y12930000D02*
X54156000Y12033000D01*
X54156000Y15907000D02*
X54156000Y15010000D01*
X54116000Y12930000D02*
X54116000Y11999000D01*
X54116000Y15941000D02*
X54116000Y15010000D01*
X54076000Y12930000D02*
X54076000Y11966000D01*
X54076000Y15974000D02*
X54076000Y15010000D01*
X54036000Y12930000D02*
X54036000Y11935000D01*
X54036000Y16005000D02*
X54036000Y15010000D01*
X53996000Y12930000D02*
X53996000Y11905000D01*
X53996000Y16035000D02*
X53996000Y15010000D01*
X53956000Y12930000D02*
X53956000Y11875000D01*
X53956000Y16065000D02*
X53956000Y15010000D01*
X53916000Y12930000D02*
X53916000Y11848000D01*
X53916000Y16092000D02*
X53916000Y15010000D01*
X53876000Y12930000D02*
X53876000Y11821000D01*
X53876000Y16119000D02*
X53876000Y15010000D01*
X53836000Y12930000D02*
X53836000Y11795000D01*
X53836000Y16145000D02*
X53836000Y15010000D01*
X53796000Y12930000D02*
X53796000Y11770000D01*
X53796000Y16170000D02*
X53796000Y15010000D01*
X53756000Y12930000D02*
X53756000Y11746000D01*
X53756000Y16194000D02*
X53756000Y15010000D01*
X53716000Y12930000D02*
X53716000Y11723000D01*
X53716000Y16217000D02*
X53716000Y15010000D01*
X53676000Y12930000D02*
X53676000Y11702000D01*
X53676000Y16238000D02*
X53676000Y15010000D01*
X53636000Y12930000D02*
X53636000Y11680000D01*
X53636000Y16260000D02*
X53636000Y15010000D01*
X53596000Y12930000D02*
X53596000Y11660000D01*
X53596000Y16280000D02*
X53596000Y15010000D01*
X53556000Y12930000D02*
X53556000Y11641000D01*
X53556000Y16299000D02*
X53556000Y15010000D01*
X53516000Y12930000D02*
X53516000Y11622000D01*
X53516000Y16318000D02*
X53516000Y15010000D01*
X53476000Y12930000D02*
X53476000Y11605000D01*
X53476000Y16335000D02*
X53476000Y15010000D01*
X53436000Y12930000D02*
X53436000Y11588000D01*
X53436000Y16352000D02*
X53436000Y15010000D01*
X53396000Y12930000D02*
X53396000Y11572000D01*
X53396000Y16368000D02*
X53396000Y15010000D01*
X53356000Y12930000D02*
X53356000Y11556000D01*
X53356000Y16384000D02*
X53356000Y15010000D01*
X53316000Y12930000D02*
X53316000Y11542000D01*
X53316000Y16398000D02*
X53316000Y15010000D01*
X53276000Y12930000D02*
X53276000Y11528000D01*
X53276000Y16412000D02*
X53276000Y15010000D01*
X53236000Y12930000D02*
X53236000Y11515000D01*
X53236000Y16425000D02*
X53236000Y15010000D01*
X53196000Y12930000D02*
X53196000Y11502000D01*
X53196000Y16438000D02*
X53196000Y15010000D01*
X53156000Y12930000D02*
X53156000Y11490000D01*
X53156000Y16450000D02*
X53156000Y15010000D01*
X53115000Y12930000D02*
X53115000Y11479000D01*
X53115000Y16461000D02*
X53115000Y15010000D01*
X53075000Y12930000D02*
X53075000Y11469000D01*
X53075000Y16471000D02*
X53075000Y15010000D01*
X53035000Y12930000D02*
X53035000Y11459000D01*
X53035000Y16481000D02*
X53035000Y15010000D01*
X52995000Y12930000D02*
X52995000Y11450000D01*
X52995000Y16490000D02*
X52995000Y15010000D01*
X52955000Y12930000D02*
X52955000Y11442000D01*
X52955000Y16498000D02*
X52955000Y15010000D01*
X52915000Y12930000D02*
X52915000Y11434000D01*
X52915000Y16506000D02*
X52915000Y15010000D01*
X52875000Y12930000D02*
X52875000Y11427000D01*
X52875000Y16513000D02*
X52875000Y15010000D01*
X52835000Y12930000D02*
X52835000Y11420000D01*
X52835000Y16520000D02*
X52835000Y15010000D01*
X52795000Y12930000D02*
X52795000Y11414000D01*
X52795000Y16526000D02*
X52795000Y15010000D01*
X52755000Y12930000D02*
X52755000Y11409000D01*
X52755000Y16531000D02*
X52755000Y15010000D01*
X52715000Y12930000D02*
X52715000Y11405000D01*
X52715000Y16535000D02*
X52715000Y15010000D01*
X52675000Y12930000D02*
X52675000Y11401000D01*
X52675000Y16539000D02*
X52675000Y15010000D01*
X52635000Y12930000D02*
X52635000Y11397000D01*
X52635000Y16543000D02*
X52635000Y15010000D01*
X52595000Y12930000D02*
X52595000Y11394000D01*
X52595000Y16546000D02*
X52595000Y15010000D01*
X52555000Y12930000D02*
X52555000Y11392000D01*
X52555000Y16548000D02*
X52555000Y15010000D01*
X52515000Y12930000D02*
X52515000Y11391000D01*
X52515000Y16549000D02*
X52515000Y15010000D01*
X52475000Y16550000D02*
X52475000Y15010000D01*
X52475000Y12930000D02*
X52475000Y11390000D01*
X52435000Y16550000D02*
X52435000Y15010000D01*
X52435000Y12930000D02*
X52435000Y11390000D01*
X55055000Y13970000D02*
G75*
G03*
X55055000Y13970000I-2620000J0D01*
G01*
%TO.C,C6*%
X56164775Y41455000D02*
X56164775Y41955000D01*
X56414775Y41705000D02*
X55914775Y41705000D01*
X51009000Y42896000D02*
X51009000Y43464000D01*
X51049000Y42662000D02*
X51049000Y43698000D01*
X51089000Y42503000D02*
X51089000Y43857000D01*
X51129000Y42375000D02*
X51129000Y43985000D01*
X51169000Y42265000D02*
X51169000Y44095000D01*
X51209000Y42169000D02*
X51209000Y44191000D01*
X51249000Y42082000D02*
X51249000Y44278000D01*
X51289000Y42002000D02*
X51289000Y44358000D01*
X51329000Y41929000D02*
X51329000Y44431000D01*
X51369000Y41861000D02*
X51369000Y44499000D01*
X51409000Y41797000D02*
X51409000Y44563000D01*
X51449000Y41737000D02*
X51449000Y44623000D01*
X51489000Y41680000D02*
X51489000Y44680000D01*
X51529000Y41626000D02*
X51529000Y44734000D01*
X51569000Y41575000D02*
X51569000Y44785000D01*
X51609000Y44220000D02*
X51609000Y44833000D01*
X51609000Y41527000D02*
X51609000Y42140000D01*
X51649000Y44220000D02*
X51649000Y44879000D01*
X51649000Y41481000D02*
X51649000Y42140000D01*
X51689000Y44220000D02*
X51689000Y44923000D01*
X51689000Y41437000D02*
X51689000Y42140000D01*
X51729000Y44220000D02*
X51729000Y44965000D01*
X51729000Y41395000D02*
X51729000Y42140000D01*
X51769000Y44220000D02*
X51769000Y45006000D01*
X51769000Y41354000D02*
X51769000Y42140000D01*
X51809000Y44220000D02*
X51809000Y45044000D01*
X51809000Y41316000D02*
X51809000Y42140000D01*
X51849000Y44220000D02*
X51849000Y45081000D01*
X51849000Y41279000D02*
X51849000Y42140000D01*
X51889000Y44220000D02*
X51889000Y45117000D01*
X51889000Y41243000D02*
X51889000Y42140000D01*
X51929000Y44220000D02*
X51929000Y45151000D01*
X51929000Y41209000D02*
X51929000Y42140000D01*
X51969000Y44220000D02*
X51969000Y45184000D01*
X51969000Y41176000D02*
X51969000Y42140000D01*
X52009000Y44220000D02*
X52009000Y45215000D01*
X52009000Y41145000D02*
X52009000Y42140000D01*
X52049000Y44220000D02*
X52049000Y45245000D01*
X52049000Y41115000D02*
X52049000Y42140000D01*
X52089000Y44220000D02*
X52089000Y45275000D01*
X52089000Y41085000D02*
X52089000Y42140000D01*
X52129000Y44220000D02*
X52129000Y45302000D01*
X52129000Y41058000D02*
X52129000Y42140000D01*
X52169000Y44220000D02*
X52169000Y45329000D01*
X52169000Y41031000D02*
X52169000Y42140000D01*
X52209000Y44220000D02*
X52209000Y45355000D01*
X52209000Y41005000D02*
X52209000Y42140000D01*
X52249000Y44220000D02*
X52249000Y45380000D01*
X52249000Y40980000D02*
X52249000Y42140000D01*
X52289000Y44220000D02*
X52289000Y45404000D01*
X52289000Y40956000D02*
X52289000Y42140000D01*
X52329000Y44220000D02*
X52329000Y45427000D01*
X52329000Y40933000D02*
X52329000Y42140000D01*
X52369000Y44220000D02*
X52369000Y45448000D01*
X52369000Y40912000D02*
X52369000Y42140000D01*
X52409000Y44220000D02*
X52409000Y45470000D01*
X52409000Y40890000D02*
X52409000Y42140000D01*
X52449000Y44220000D02*
X52449000Y45490000D01*
X52449000Y40870000D02*
X52449000Y42140000D01*
X52489000Y44220000D02*
X52489000Y45509000D01*
X52489000Y40851000D02*
X52489000Y42140000D01*
X52529000Y44220000D02*
X52529000Y45528000D01*
X52529000Y40832000D02*
X52529000Y42140000D01*
X52569000Y44220000D02*
X52569000Y45545000D01*
X52569000Y40815000D02*
X52569000Y42140000D01*
X52609000Y44220000D02*
X52609000Y45562000D01*
X52609000Y40798000D02*
X52609000Y42140000D01*
X52649000Y44220000D02*
X52649000Y45578000D01*
X52649000Y40782000D02*
X52649000Y42140000D01*
X52689000Y44220000D02*
X52689000Y45594000D01*
X52689000Y40766000D02*
X52689000Y42140000D01*
X52729000Y44220000D02*
X52729000Y45608000D01*
X52729000Y40752000D02*
X52729000Y42140000D01*
X52769000Y44220000D02*
X52769000Y45622000D01*
X52769000Y40738000D02*
X52769000Y42140000D01*
X52809000Y44220000D02*
X52809000Y45635000D01*
X52809000Y40725000D02*
X52809000Y42140000D01*
X52849000Y44220000D02*
X52849000Y45648000D01*
X52849000Y40712000D02*
X52849000Y42140000D01*
X52889000Y44220000D02*
X52889000Y45660000D01*
X52889000Y40700000D02*
X52889000Y42140000D01*
X52930000Y44220000D02*
X52930000Y45671000D01*
X52930000Y40689000D02*
X52930000Y42140000D01*
X52970000Y44220000D02*
X52970000Y45681000D01*
X52970000Y40679000D02*
X52970000Y42140000D01*
X53010000Y44220000D02*
X53010000Y45691000D01*
X53010000Y40669000D02*
X53010000Y42140000D01*
X53050000Y44220000D02*
X53050000Y45700000D01*
X53050000Y40660000D02*
X53050000Y42140000D01*
X53090000Y44220000D02*
X53090000Y45708000D01*
X53090000Y40652000D02*
X53090000Y42140000D01*
X53130000Y44220000D02*
X53130000Y45716000D01*
X53130000Y40644000D02*
X53130000Y42140000D01*
X53170000Y44220000D02*
X53170000Y45723000D01*
X53170000Y40637000D02*
X53170000Y42140000D01*
X53210000Y44220000D02*
X53210000Y45730000D01*
X53210000Y40630000D02*
X53210000Y42140000D01*
X53250000Y44220000D02*
X53250000Y45736000D01*
X53250000Y40624000D02*
X53250000Y42140000D01*
X53290000Y44220000D02*
X53290000Y45741000D01*
X53290000Y40619000D02*
X53290000Y42140000D01*
X53330000Y44220000D02*
X53330000Y45745000D01*
X53330000Y40615000D02*
X53330000Y42140000D01*
X53370000Y44220000D02*
X53370000Y45749000D01*
X53370000Y40611000D02*
X53370000Y42140000D01*
X53410000Y44220000D02*
X53410000Y45753000D01*
X53410000Y40607000D02*
X53410000Y42140000D01*
X53450000Y44220000D02*
X53450000Y45756000D01*
X53450000Y40604000D02*
X53450000Y42140000D01*
X53490000Y44220000D02*
X53490000Y45758000D01*
X53490000Y40602000D02*
X53490000Y42140000D01*
X53530000Y44220000D02*
X53530000Y45759000D01*
X53530000Y40601000D02*
X53530000Y42140000D01*
X53570000Y40600000D02*
X53570000Y42140000D01*
X53570000Y44220000D02*
X53570000Y45760000D01*
X53610000Y40600000D02*
X53610000Y42140000D01*
X53610000Y44220000D02*
X53610000Y45760000D01*
X56230000Y43180000D02*
G75*
G03*
X56230000Y43180000I-2620000J0D01*
G01*
%TO.C,C5*%
X57500225Y44905000D02*
X57500225Y44405000D01*
X57250225Y44655000D02*
X57750225Y44655000D01*
X62656000Y43464000D02*
X62656000Y42896000D01*
X62616000Y43698000D02*
X62616000Y42662000D01*
X62576000Y43857000D02*
X62576000Y42503000D01*
X62536000Y43985000D02*
X62536000Y42375000D01*
X62496000Y44095000D02*
X62496000Y42265000D01*
X62456000Y44191000D02*
X62456000Y42169000D01*
X62416000Y44278000D02*
X62416000Y42082000D01*
X62376000Y44358000D02*
X62376000Y42002000D01*
X62336000Y44431000D02*
X62336000Y41929000D01*
X62296000Y44499000D02*
X62296000Y41861000D01*
X62256000Y44563000D02*
X62256000Y41797000D01*
X62216000Y44623000D02*
X62216000Y41737000D01*
X62176000Y44680000D02*
X62176000Y41680000D01*
X62136000Y44734000D02*
X62136000Y41626000D01*
X62096000Y44785000D02*
X62096000Y41575000D01*
X62056000Y42140000D02*
X62056000Y41527000D01*
X62056000Y44833000D02*
X62056000Y44220000D01*
X62016000Y42140000D02*
X62016000Y41481000D01*
X62016000Y44879000D02*
X62016000Y44220000D01*
X61976000Y42140000D02*
X61976000Y41437000D01*
X61976000Y44923000D02*
X61976000Y44220000D01*
X61936000Y42140000D02*
X61936000Y41395000D01*
X61936000Y44965000D02*
X61936000Y44220000D01*
X61896000Y42140000D02*
X61896000Y41354000D01*
X61896000Y45006000D02*
X61896000Y44220000D01*
X61856000Y42140000D02*
X61856000Y41316000D01*
X61856000Y45044000D02*
X61856000Y44220000D01*
X61816000Y42140000D02*
X61816000Y41279000D01*
X61816000Y45081000D02*
X61816000Y44220000D01*
X61776000Y42140000D02*
X61776000Y41243000D01*
X61776000Y45117000D02*
X61776000Y44220000D01*
X61736000Y42140000D02*
X61736000Y41209000D01*
X61736000Y45151000D02*
X61736000Y44220000D01*
X61696000Y42140000D02*
X61696000Y41176000D01*
X61696000Y45184000D02*
X61696000Y44220000D01*
X61656000Y42140000D02*
X61656000Y41145000D01*
X61656000Y45215000D02*
X61656000Y44220000D01*
X61616000Y42140000D02*
X61616000Y41115000D01*
X61616000Y45245000D02*
X61616000Y44220000D01*
X61576000Y42140000D02*
X61576000Y41085000D01*
X61576000Y45275000D02*
X61576000Y44220000D01*
X61536000Y42140000D02*
X61536000Y41058000D01*
X61536000Y45302000D02*
X61536000Y44220000D01*
X61496000Y42140000D02*
X61496000Y41031000D01*
X61496000Y45329000D02*
X61496000Y44220000D01*
X61456000Y42140000D02*
X61456000Y41005000D01*
X61456000Y45355000D02*
X61456000Y44220000D01*
X61416000Y42140000D02*
X61416000Y40980000D01*
X61416000Y45380000D02*
X61416000Y44220000D01*
X61376000Y42140000D02*
X61376000Y40956000D01*
X61376000Y45404000D02*
X61376000Y44220000D01*
X61336000Y42140000D02*
X61336000Y40933000D01*
X61336000Y45427000D02*
X61336000Y44220000D01*
X61296000Y42140000D02*
X61296000Y40912000D01*
X61296000Y45448000D02*
X61296000Y44220000D01*
X61256000Y42140000D02*
X61256000Y40890000D01*
X61256000Y45470000D02*
X61256000Y44220000D01*
X61216000Y42140000D02*
X61216000Y40870000D01*
X61216000Y45490000D02*
X61216000Y44220000D01*
X61176000Y42140000D02*
X61176000Y40851000D01*
X61176000Y45509000D02*
X61176000Y44220000D01*
X61136000Y42140000D02*
X61136000Y40832000D01*
X61136000Y45528000D02*
X61136000Y44220000D01*
X61096000Y42140000D02*
X61096000Y40815000D01*
X61096000Y45545000D02*
X61096000Y44220000D01*
X61056000Y42140000D02*
X61056000Y40798000D01*
X61056000Y45562000D02*
X61056000Y44220000D01*
X61016000Y42140000D02*
X61016000Y40782000D01*
X61016000Y45578000D02*
X61016000Y44220000D01*
X60976000Y42140000D02*
X60976000Y40766000D01*
X60976000Y45594000D02*
X60976000Y44220000D01*
X60936000Y42140000D02*
X60936000Y40752000D01*
X60936000Y45608000D02*
X60936000Y44220000D01*
X60896000Y42140000D02*
X60896000Y40738000D01*
X60896000Y45622000D02*
X60896000Y44220000D01*
X60856000Y42140000D02*
X60856000Y40725000D01*
X60856000Y45635000D02*
X60856000Y44220000D01*
X60816000Y42140000D02*
X60816000Y40712000D01*
X60816000Y45648000D02*
X60816000Y44220000D01*
X60776000Y42140000D02*
X60776000Y40700000D01*
X60776000Y45660000D02*
X60776000Y44220000D01*
X60735000Y42140000D02*
X60735000Y40689000D01*
X60735000Y45671000D02*
X60735000Y44220000D01*
X60695000Y42140000D02*
X60695000Y40679000D01*
X60695000Y45681000D02*
X60695000Y44220000D01*
X60655000Y42140000D02*
X60655000Y40669000D01*
X60655000Y45691000D02*
X60655000Y44220000D01*
X60615000Y42140000D02*
X60615000Y40660000D01*
X60615000Y45700000D02*
X60615000Y44220000D01*
X60575000Y42140000D02*
X60575000Y40652000D01*
X60575000Y45708000D02*
X60575000Y44220000D01*
X60535000Y42140000D02*
X60535000Y40644000D01*
X60535000Y45716000D02*
X60535000Y44220000D01*
X60495000Y42140000D02*
X60495000Y40637000D01*
X60495000Y45723000D02*
X60495000Y44220000D01*
X60455000Y42140000D02*
X60455000Y40630000D01*
X60455000Y45730000D02*
X60455000Y44220000D01*
X60415000Y42140000D02*
X60415000Y40624000D01*
X60415000Y45736000D02*
X60415000Y44220000D01*
X60375000Y42140000D02*
X60375000Y40619000D01*
X60375000Y45741000D02*
X60375000Y44220000D01*
X60335000Y42140000D02*
X60335000Y40615000D01*
X60335000Y45745000D02*
X60335000Y44220000D01*
X60295000Y42140000D02*
X60295000Y40611000D01*
X60295000Y45749000D02*
X60295000Y44220000D01*
X60255000Y42140000D02*
X60255000Y40607000D01*
X60255000Y45753000D02*
X60255000Y44220000D01*
X60215000Y42140000D02*
X60215000Y40604000D01*
X60215000Y45756000D02*
X60215000Y44220000D01*
X60175000Y42140000D02*
X60175000Y40602000D01*
X60175000Y45758000D02*
X60175000Y44220000D01*
X60135000Y42140000D02*
X60135000Y40601000D01*
X60135000Y45759000D02*
X60135000Y44220000D01*
X60095000Y45760000D02*
X60095000Y44220000D01*
X60095000Y42140000D02*
X60095000Y40600000D01*
X60055000Y45760000D02*
X60055000Y44220000D01*
X60055000Y42140000D02*
X60055000Y40600000D01*
X62675000Y43180000D02*
G75*
G03*
X62675000Y43180000I-2620000J0D01*
G01*
%TO.C,C4*%
X49814775Y41455000D02*
X49814775Y41955000D01*
X50064775Y41705000D02*
X49564775Y41705000D01*
X44659000Y42896000D02*
X44659000Y43464000D01*
X44699000Y42662000D02*
X44699000Y43698000D01*
X44739000Y42503000D02*
X44739000Y43857000D01*
X44779000Y42375000D02*
X44779000Y43985000D01*
X44819000Y42265000D02*
X44819000Y44095000D01*
X44859000Y42169000D02*
X44859000Y44191000D01*
X44899000Y42082000D02*
X44899000Y44278000D01*
X44939000Y42002000D02*
X44939000Y44358000D01*
X44979000Y41929000D02*
X44979000Y44431000D01*
X45019000Y41861000D02*
X45019000Y44499000D01*
X45059000Y41797000D02*
X45059000Y44563000D01*
X45099000Y41737000D02*
X45099000Y44623000D01*
X45139000Y41680000D02*
X45139000Y44680000D01*
X45179000Y41626000D02*
X45179000Y44734000D01*
X45219000Y41575000D02*
X45219000Y44785000D01*
X45259000Y44220000D02*
X45259000Y44833000D01*
X45259000Y41527000D02*
X45259000Y42140000D01*
X45299000Y44220000D02*
X45299000Y44879000D01*
X45299000Y41481000D02*
X45299000Y42140000D01*
X45339000Y44220000D02*
X45339000Y44923000D01*
X45339000Y41437000D02*
X45339000Y42140000D01*
X45379000Y44220000D02*
X45379000Y44965000D01*
X45379000Y41395000D02*
X45379000Y42140000D01*
X45419000Y44220000D02*
X45419000Y45006000D01*
X45419000Y41354000D02*
X45419000Y42140000D01*
X45459000Y44220000D02*
X45459000Y45044000D01*
X45459000Y41316000D02*
X45459000Y42140000D01*
X45499000Y44220000D02*
X45499000Y45081000D01*
X45499000Y41279000D02*
X45499000Y42140000D01*
X45539000Y44220000D02*
X45539000Y45117000D01*
X45539000Y41243000D02*
X45539000Y42140000D01*
X45579000Y44220000D02*
X45579000Y45151000D01*
X45579000Y41209000D02*
X45579000Y42140000D01*
X45619000Y44220000D02*
X45619000Y45184000D01*
X45619000Y41176000D02*
X45619000Y42140000D01*
X45659000Y44220000D02*
X45659000Y45215000D01*
X45659000Y41145000D02*
X45659000Y42140000D01*
X45699000Y44220000D02*
X45699000Y45245000D01*
X45699000Y41115000D02*
X45699000Y42140000D01*
X45739000Y44220000D02*
X45739000Y45275000D01*
X45739000Y41085000D02*
X45739000Y42140000D01*
X45779000Y44220000D02*
X45779000Y45302000D01*
X45779000Y41058000D02*
X45779000Y42140000D01*
X45819000Y44220000D02*
X45819000Y45329000D01*
X45819000Y41031000D02*
X45819000Y42140000D01*
X45859000Y44220000D02*
X45859000Y45355000D01*
X45859000Y41005000D02*
X45859000Y42140000D01*
X45899000Y44220000D02*
X45899000Y45380000D01*
X45899000Y40980000D02*
X45899000Y42140000D01*
X45939000Y44220000D02*
X45939000Y45404000D01*
X45939000Y40956000D02*
X45939000Y42140000D01*
X45979000Y44220000D02*
X45979000Y45427000D01*
X45979000Y40933000D02*
X45979000Y42140000D01*
X46019000Y44220000D02*
X46019000Y45448000D01*
X46019000Y40912000D02*
X46019000Y42140000D01*
X46059000Y44220000D02*
X46059000Y45470000D01*
X46059000Y40890000D02*
X46059000Y42140000D01*
X46099000Y44220000D02*
X46099000Y45490000D01*
X46099000Y40870000D02*
X46099000Y42140000D01*
X46139000Y44220000D02*
X46139000Y45509000D01*
X46139000Y40851000D02*
X46139000Y42140000D01*
X46179000Y44220000D02*
X46179000Y45528000D01*
X46179000Y40832000D02*
X46179000Y42140000D01*
X46219000Y44220000D02*
X46219000Y45545000D01*
X46219000Y40815000D02*
X46219000Y42140000D01*
X46259000Y44220000D02*
X46259000Y45562000D01*
X46259000Y40798000D02*
X46259000Y42140000D01*
X46299000Y44220000D02*
X46299000Y45578000D01*
X46299000Y40782000D02*
X46299000Y42140000D01*
X46339000Y44220000D02*
X46339000Y45594000D01*
X46339000Y40766000D02*
X46339000Y42140000D01*
X46379000Y44220000D02*
X46379000Y45608000D01*
X46379000Y40752000D02*
X46379000Y42140000D01*
X46419000Y44220000D02*
X46419000Y45622000D01*
X46419000Y40738000D02*
X46419000Y42140000D01*
X46459000Y44220000D02*
X46459000Y45635000D01*
X46459000Y40725000D02*
X46459000Y42140000D01*
X46499000Y44220000D02*
X46499000Y45648000D01*
X46499000Y40712000D02*
X46499000Y42140000D01*
X46539000Y44220000D02*
X46539000Y45660000D01*
X46539000Y40700000D02*
X46539000Y42140000D01*
X46580000Y44220000D02*
X46580000Y45671000D01*
X46580000Y40689000D02*
X46580000Y42140000D01*
X46620000Y44220000D02*
X46620000Y45681000D01*
X46620000Y40679000D02*
X46620000Y42140000D01*
X46660000Y44220000D02*
X46660000Y45691000D01*
X46660000Y40669000D02*
X46660000Y42140000D01*
X46700000Y44220000D02*
X46700000Y45700000D01*
X46700000Y40660000D02*
X46700000Y42140000D01*
X46740000Y44220000D02*
X46740000Y45708000D01*
X46740000Y40652000D02*
X46740000Y42140000D01*
X46780000Y44220000D02*
X46780000Y45716000D01*
X46780000Y40644000D02*
X46780000Y42140000D01*
X46820000Y44220000D02*
X46820000Y45723000D01*
X46820000Y40637000D02*
X46820000Y42140000D01*
X46860000Y44220000D02*
X46860000Y45730000D01*
X46860000Y40630000D02*
X46860000Y42140000D01*
X46900000Y44220000D02*
X46900000Y45736000D01*
X46900000Y40624000D02*
X46900000Y42140000D01*
X46940000Y44220000D02*
X46940000Y45741000D01*
X46940000Y40619000D02*
X46940000Y42140000D01*
X46980000Y44220000D02*
X46980000Y45745000D01*
X46980000Y40615000D02*
X46980000Y42140000D01*
X47020000Y44220000D02*
X47020000Y45749000D01*
X47020000Y40611000D02*
X47020000Y42140000D01*
X47060000Y44220000D02*
X47060000Y45753000D01*
X47060000Y40607000D02*
X47060000Y42140000D01*
X47100000Y44220000D02*
X47100000Y45756000D01*
X47100000Y40604000D02*
X47100000Y42140000D01*
X47140000Y44220000D02*
X47140000Y45758000D01*
X47140000Y40602000D02*
X47140000Y42140000D01*
X47180000Y44220000D02*
X47180000Y45759000D01*
X47180000Y40601000D02*
X47180000Y42140000D01*
X47220000Y40600000D02*
X47220000Y42140000D01*
X47220000Y44220000D02*
X47220000Y45760000D01*
X47260000Y40600000D02*
X47260000Y42140000D01*
X47260000Y44220000D02*
X47260000Y45760000D01*
X49880000Y43180000D02*
G75*
G03*
X49880000Y43180000I-2620000J0D01*
G01*
%TO.C,Y1*%
X15345000Y46380000D02*
X1945000Y46380000D01*
X1945000Y46380000D02*
X1945000Y35080000D01*
X1945000Y35080000D02*
X15345000Y35080000D01*
X15345000Y35080000D02*
X15345000Y46380000D01*
X15345000Y43180000D02*
X16195000Y43180000D01*
X16195000Y43180000D02*
X16195000Y43180000D01*
X15345000Y38280000D02*
X16195000Y38280000D01*
X16195000Y38280000D02*
X16195000Y38280000D01*
X15345000Y46730000D02*
X15465000Y46730000D01*
X15465000Y46730000D02*
X15465000Y34730000D01*
X15465000Y34730000D02*
X15345000Y34730000D01*
X15345000Y34730000D02*
X15345000Y46730000D01*
%TO.C,C8*%
X24030000Y45020000D02*
X24030000Y41380000D01*
X21690000Y45020000D02*
X21690000Y41380000D01*
X24030000Y45020000D02*
X23785000Y45020000D01*
X21935000Y45020000D02*
X21690000Y45020000D01*
X24030000Y41380000D02*
X23785000Y41380000D01*
X21935000Y41380000D02*
X21690000Y41380000D01*
%TO.C,U4*%
X56225000Y38160000D02*
X54975000Y38160000D01*
X56225000Y17720000D02*
X56225000Y38160000D01*
X51725000Y17720000D02*
X56225000Y17720000D01*
X51725000Y38160000D02*
X51725000Y17720000D01*
X52975000Y38160000D02*
X51725000Y38160000D01*
X54975000Y38160000D02*
G75*
G02*
X52975000Y38160000I-1000000J0D01*
G01*
%TO.C,U2*%
X2480000Y30825000D02*
X2480000Y29575000D01*
X20380000Y30825000D02*
X2480000Y30825000D01*
X20380000Y26325000D02*
X20380000Y30825000D01*
X2480000Y26325000D02*
X20380000Y26325000D01*
X2480000Y27575000D02*
X2480000Y26325000D01*
X2480000Y29575000D02*
G75*
G02*
X2480000Y27575000I0J-1000000D01*
G01*
%TO.C,U1*%
X40350000Y45780000D02*
X35290000Y45780000D01*
X40350000Y10100000D02*
X40350000Y45780000D01*
X28230000Y10100000D02*
X40350000Y10100000D01*
X28230000Y45780000D02*
X28230000Y10100000D01*
X33290000Y45780000D02*
X28230000Y45780000D01*
X35290000Y45780000D02*
G75*
G02*
X33290000Y45780000I-1000000J0D01*
G01*
%TO.C,J1*%
X57920000Y8065000D02*
X58420000Y7065000D01*
X58920000Y8065000D02*
X57920000Y8065000D01*
X58420000Y7065000D02*
X58920000Y8065000D01*
X12570000Y1445000D02*
X63630000Y1445000D01*
X12570000Y-7675000D02*
X12570000Y1445000D01*
X63630000Y-7675000D02*
X12570000Y-7675000D01*
X63630000Y1445000D02*
X63630000Y-7675000D01*
X36050000Y1445000D02*
X36050000Y-7675000D01*
X40150000Y1445000D02*
X40150000Y-7675000D01*
%TO.C,D1*%
X48010000Y10645000D02*
X48010000Y8405000D01*
X48250000Y10645000D02*
X48250000Y8405000D01*
X48130000Y10645000D02*
X48130000Y8405000D01*
X52300000Y9525000D02*
X51650000Y9525000D01*
X46760000Y9525000D02*
X47410000Y9525000D01*
X51650000Y10645000D02*
X47410000Y10645000D01*
X51650000Y8405000D02*
X51650000Y10645000D01*
X47410000Y8405000D02*
X51650000Y8405000D01*
X47410000Y10645000D02*
X47410000Y8405000D01*
%TO.C,C3*%
X21740000Y18820000D02*
X23980000Y18820000D01*
X21740000Y11580000D02*
X23980000Y11580000D01*
X23980000Y11580000D02*
X23980000Y18820000D01*
X21740000Y11580000D02*
X21740000Y18820000D01*
%TO.C,C2*%
X21740000Y32870000D02*
X23980000Y32870000D01*
X21740000Y25630000D02*
X23980000Y25630000D01*
X23980000Y25630000D02*
X23980000Y32870000D01*
X21740000Y25630000D02*
X21740000Y32870000D01*
%TO.C,U3*%
X2480000Y18760000D02*
X2480000Y17510000D01*
X20380000Y18760000D02*
X2480000Y18760000D01*
X20380000Y14260000D02*
X20380000Y18760000D01*
X2480000Y14260000D02*
X20380000Y14260000D01*
X2480000Y15510000D02*
X2480000Y14260000D01*
X2480000Y17510000D02*
G75*
G02*
X2480000Y15510000I0J-1000000D01*
G01*
%TO.C,C1*%
X64485000Y13970000D02*
G75*
G03*
X64485000Y13970000I-2620000J0D01*
G01*
X61865000Y15010000D02*
X61865000Y16550000D01*
X61865000Y11390000D02*
X61865000Y12930000D01*
X61825000Y15010000D02*
X61825000Y16550000D01*
X61825000Y11390000D02*
X61825000Y12930000D01*
X61785000Y11391000D02*
X61785000Y12930000D01*
X61785000Y15010000D02*
X61785000Y16549000D01*
X61745000Y11392000D02*
X61745000Y12930000D01*
X61745000Y15010000D02*
X61745000Y16548000D01*
X61705000Y11394000D02*
X61705000Y12930000D01*
X61705000Y15010000D02*
X61705000Y16546000D01*
X61665000Y11397000D02*
X61665000Y12930000D01*
X61665000Y15010000D02*
X61665000Y16543000D01*
X61625000Y11401000D02*
X61625000Y12930000D01*
X61625000Y15010000D02*
X61625000Y16539000D01*
X61585000Y11405000D02*
X61585000Y12930000D01*
X61585000Y15010000D02*
X61585000Y16535000D01*
X61545000Y11409000D02*
X61545000Y12930000D01*
X61545000Y15010000D02*
X61545000Y16531000D01*
X61505000Y11414000D02*
X61505000Y12930000D01*
X61505000Y15010000D02*
X61505000Y16526000D01*
X61465000Y11420000D02*
X61465000Y12930000D01*
X61465000Y15010000D02*
X61465000Y16520000D01*
X61425000Y11427000D02*
X61425000Y12930000D01*
X61425000Y15010000D02*
X61425000Y16513000D01*
X61385000Y11434000D02*
X61385000Y12930000D01*
X61385000Y15010000D02*
X61385000Y16506000D01*
X61345000Y11442000D02*
X61345000Y12930000D01*
X61345000Y15010000D02*
X61345000Y16498000D01*
X61305000Y11450000D02*
X61305000Y12930000D01*
X61305000Y15010000D02*
X61305000Y16490000D01*
X61265000Y11459000D02*
X61265000Y12930000D01*
X61265000Y15010000D02*
X61265000Y16481000D01*
X61225000Y11469000D02*
X61225000Y12930000D01*
X61225000Y15010000D02*
X61225000Y16471000D01*
X61185000Y11479000D02*
X61185000Y12930000D01*
X61185000Y15010000D02*
X61185000Y16461000D01*
X61144000Y11490000D02*
X61144000Y12930000D01*
X61144000Y15010000D02*
X61144000Y16450000D01*
X61104000Y11502000D02*
X61104000Y12930000D01*
X61104000Y15010000D02*
X61104000Y16438000D01*
X61064000Y11515000D02*
X61064000Y12930000D01*
X61064000Y15010000D02*
X61064000Y16425000D01*
X61024000Y11528000D02*
X61024000Y12930000D01*
X61024000Y15010000D02*
X61024000Y16412000D01*
X60984000Y11542000D02*
X60984000Y12930000D01*
X60984000Y15010000D02*
X60984000Y16398000D01*
X60944000Y11556000D02*
X60944000Y12930000D01*
X60944000Y15010000D02*
X60944000Y16384000D01*
X60904000Y11572000D02*
X60904000Y12930000D01*
X60904000Y15010000D02*
X60904000Y16368000D01*
X60864000Y11588000D02*
X60864000Y12930000D01*
X60864000Y15010000D02*
X60864000Y16352000D01*
X60824000Y11605000D02*
X60824000Y12930000D01*
X60824000Y15010000D02*
X60824000Y16335000D01*
X60784000Y11622000D02*
X60784000Y12930000D01*
X60784000Y15010000D02*
X60784000Y16318000D01*
X60744000Y11641000D02*
X60744000Y12930000D01*
X60744000Y15010000D02*
X60744000Y16299000D01*
X60704000Y11660000D02*
X60704000Y12930000D01*
X60704000Y15010000D02*
X60704000Y16280000D01*
X60664000Y11680000D02*
X60664000Y12930000D01*
X60664000Y15010000D02*
X60664000Y16260000D01*
X60624000Y11702000D02*
X60624000Y12930000D01*
X60624000Y15010000D02*
X60624000Y16238000D01*
X60584000Y11723000D02*
X60584000Y12930000D01*
X60584000Y15010000D02*
X60584000Y16217000D01*
X60544000Y11746000D02*
X60544000Y12930000D01*
X60544000Y15010000D02*
X60544000Y16194000D01*
X60504000Y11770000D02*
X60504000Y12930000D01*
X60504000Y15010000D02*
X60504000Y16170000D01*
X60464000Y11795000D02*
X60464000Y12930000D01*
X60464000Y15010000D02*
X60464000Y16145000D01*
X60424000Y11821000D02*
X60424000Y12930000D01*
X60424000Y15010000D02*
X60424000Y16119000D01*
X60384000Y11848000D02*
X60384000Y12930000D01*
X60384000Y15010000D02*
X60384000Y16092000D01*
X60344000Y11875000D02*
X60344000Y12930000D01*
X60344000Y15010000D02*
X60344000Y16065000D01*
X60304000Y11905000D02*
X60304000Y12930000D01*
X60304000Y15010000D02*
X60304000Y16035000D01*
X60264000Y11935000D02*
X60264000Y12930000D01*
X60264000Y15010000D02*
X60264000Y16005000D01*
X60224000Y11966000D02*
X60224000Y12930000D01*
X60224000Y15010000D02*
X60224000Y15974000D01*
X60184000Y11999000D02*
X60184000Y12930000D01*
X60184000Y15010000D02*
X60184000Y15941000D01*
X60144000Y12033000D02*
X60144000Y12930000D01*
X60144000Y15010000D02*
X60144000Y15907000D01*
X60104000Y12069000D02*
X60104000Y12930000D01*
X60104000Y15010000D02*
X60104000Y15871000D01*
X60064000Y12106000D02*
X60064000Y12930000D01*
X60064000Y15010000D02*
X60064000Y15834000D01*
X60024000Y12144000D02*
X60024000Y12930000D01*
X60024000Y15010000D02*
X60024000Y15796000D01*
X59984000Y12185000D02*
X59984000Y12930000D01*
X59984000Y15010000D02*
X59984000Y15755000D01*
X59944000Y12227000D02*
X59944000Y12930000D01*
X59944000Y15010000D02*
X59944000Y15713000D01*
X59904000Y12271000D02*
X59904000Y12930000D01*
X59904000Y15010000D02*
X59904000Y15669000D01*
X59864000Y12317000D02*
X59864000Y12930000D01*
X59864000Y15010000D02*
X59864000Y15623000D01*
X59824000Y12365000D02*
X59824000Y15575000D01*
X59784000Y12416000D02*
X59784000Y15524000D01*
X59744000Y12470000D02*
X59744000Y15470000D01*
X59704000Y12527000D02*
X59704000Y15413000D01*
X59664000Y12587000D02*
X59664000Y15353000D01*
X59624000Y12651000D02*
X59624000Y15289000D01*
X59584000Y12719000D02*
X59584000Y15221000D01*
X59544000Y12792000D02*
X59544000Y15148000D01*
X59504000Y12872000D02*
X59504000Y15068000D01*
X59464000Y12959000D02*
X59464000Y14981000D01*
X59424000Y13055000D02*
X59424000Y14885000D01*
X59384000Y13165000D02*
X59384000Y14775000D01*
X59344000Y13293000D02*
X59344000Y14647000D01*
X59304000Y13452000D02*
X59304000Y14488000D01*
X59264000Y13686000D02*
X59264000Y14254000D01*
X64669775Y12495000D02*
X64169775Y12495000D01*
X64419775Y12245000D02*
X64419775Y12745000D01*
%TO.C,J2*%
D11*
X71842380Y32686667D02*
X72556666Y32686667D01*
X72699523Y32639048D01*
X72794761Y32543810D01*
X72842380Y32400953D01*
X72842380Y32305715D01*
X71937619Y33115239D02*
X71890000Y33162858D01*
X71842380Y33258096D01*
X71842380Y33496191D01*
X71890000Y33591429D01*
X71937619Y33639048D01*
X72032857Y33686667D01*
X72128095Y33686667D01*
X72270952Y33639048D01*
X72842380Y33067620D01*
X72842380Y33686667D01*
%TO.C,R1*%
X22677380Y36028334D02*
X22201190Y35695000D01*
X22677380Y35456905D02*
X21677380Y35456905D01*
X21677380Y35837858D01*
X21725000Y35933096D01*
X21772619Y35980715D01*
X21867857Y36028334D01*
X22010714Y36028334D01*
X22105952Y35980715D01*
X22153571Y35933096D01*
X22201190Y35837858D01*
X22201190Y35456905D01*
X22677380Y36980715D02*
X22677380Y36409286D01*
X22677380Y36695000D02*
X21677380Y36695000D01*
X21820238Y36599762D01*
X21915476Y36504524D01*
X21963095Y36409286D01*
X20137380Y40354286D02*
X20137380Y39782858D01*
X20137380Y40068572D02*
X19137380Y40068572D01*
X19280238Y39973334D01*
X19375476Y39878096D01*
X19423095Y39782858D01*
X20137380Y40782858D02*
X19137380Y40782858D01*
X19851666Y41116191D01*
X19137380Y41449524D01*
X20137380Y41449524D01*
%TO.C,C7*%
X48093333Y13612858D02*
X48045714Y13565239D01*
X47902857Y13517620D01*
X47807619Y13517620D01*
X47664761Y13565239D01*
X47569523Y13660477D01*
X47521904Y13755715D01*
X47474285Y13946191D01*
X47474285Y14089048D01*
X47521904Y14279524D01*
X47569523Y14374762D01*
X47664761Y14470000D01*
X47807619Y14517620D01*
X47902857Y14517620D01*
X48045714Y14470000D01*
X48093333Y14422381D01*
X48426666Y14517620D02*
X49093333Y14517620D01*
X48664761Y13517620D01*
X55848333Y13517620D02*
X55276904Y13517620D01*
X55562619Y13517620D02*
X55562619Y14517620D01*
X55467380Y14374762D01*
X55372142Y14279524D01*
X55276904Y14231905D01*
X56276904Y14184286D02*
X56276904Y13184286D01*
X56753095Y13660477D02*
X56800714Y13565239D01*
X56895952Y13517620D01*
X56276904Y13660477D02*
X56324523Y13565239D01*
X56419761Y13517620D01*
X56610238Y13517620D01*
X56705476Y13565239D01*
X56753095Y13660477D01*
X56753095Y14184286D01*
X57657857Y14041429D02*
X57324523Y14041429D01*
X57324523Y13517620D02*
X57324523Y14517620D01*
X57800714Y14517620D01*
%TO.C,C6*%
X56348333Y45362858D02*
X56300714Y45315239D01*
X56157857Y45267620D01*
X56062619Y45267620D01*
X55919761Y45315239D01*
X55824523Y45410477D01*
X55776904Y45505715D01*
X55729285Y45696191D01*
X55729285Y45839048D01*
X55776904Y46029524D01*
X55824523Y46124762D01*
X55919761Y46220000D01*
X56062619Y46267620D01*
X56157857Y46267620D01*
X56300714Y46220000D01*
X56348333Y46172381D01*
X57205476Y46267620D02*
X57015000Y46267620D01*
X56919761Y46220000D01*
X56872142Y46172381D01*
X56776904Y46029524D01*
X56729285Y45839048D01*
X56729285Y45458096D01*
X56776904Y45362858D01*
X56824523Y45315239D01*
X56919761Y45267620D01*
X57110238Y45267620D01*
X57205476Y45315239D01*
X57253095Y45362858D01*
X57300714Y45458096D01*
X57300714Y45696191D01*
X57253095Y45791429D01*
X57205476Y45839048D01*
X57110238Y45886667D01*
X56919761Y45886667D01*
X56824523Y45839048D01*
X56776904Y45791429D01*
X56729285Y45696191D01*
X53308333Y38917620D02*
X52736904Y38917620D01*
X53022619Y38917620D02*
X53022619Y39917620D01*
X52927380Y39774762D01*
X52832142Y39679524D01*
X52736904Y39631905D01*
X53736904Y39584286D02*
X53736904Y38584286D01*
X54213095Y39060477D02*
X54260714Y38965239D01*
X54355952Y38917620D01*
X53736904Y39060477D02*
X53784523Y38965239D01*
X53879761Y38917620D01*
X54070238Y38917620D01*
X54165476Y38965239D01*
X54213095Y39060477D01*
X54213095Y39584286D01*
X55117857Y39441429D02*
X54784523Y39441429D01*
X54784523Y38917620D02*
X54784523Y39917620D01*
X55260714Y39917620D01*
%TO.C,C5*%
X61428333Y45997858D02*
X61380714Y45950239D01*
X61237857Y45902620D01*
X61142619Y45902620D01*
X60999761Y45950239D01*
X60904523Y46045477D01*
X60856904Y46140715D01*
X60809285Y46331191D01*
X60809285Y46474048D01*
X60856904Y46664524D01*
X60904523Y46759762D01*
X60999761Y46855000D01*
X61142619Y46902620D01*
X61237857Y46902620D01*
X61380714Y46855000D01*
X61428333Y46807381D01*
X62333095Y46902620D02*
X61856904Y46902620D01*
X61809285Y46426429D01*
X61856904Y46474048D01*
X61952142Y46521667D01*
X62190238Y46521667D01*
X62285476Y46474048D01*
X62333095Y46426429D01*
X62380714Y46331191D01*
X62380714Y46093096D01*
X62333095Y45997858D01*
X62285476Y45950239D01*
X62190238Y45902620D01*
X61952142Y45902620D01*
X61856904Y45950239D01*
X61809285Y45997858D01*
X59388333Y38977620D02*
X58816904Y38977620D01*
X59102619Y38977620D02*
X59102619Y39977620D01*
X59007380Y39834762D01*
X58912142Y39739524D01*
X58816904Y39691905D01*
X59816904Y39644286D02*
X59816904Y38644286D01*
X60293095Y39120477D02*
X60340714Y39025239D01*
X60435952Y38977620D01*
X59816904Y39120477D02*
X59864523Y39025239D01*
X59959761Y38977620D01*
X60150238Y38977620D01*
X60245476Y39025239D01*
X60293095Y39120477D01*
X60293095Y39644286D01*
X61197857Y39501429D02*
X60864523Y39501429D01*
X60864523Y38977620D02*
X60864523Y39977620D01*
X61340714Y39977620D01*
%TO.C,C4*%
X49998333Y45362858D02*
X49950714Y45315239D01*
X49807857Y45267620D01*
X49712619Y45267620D01*
X49569761Y45315239D01*
X49474523Y45410477D01*
X49426904Y45505715D01*
X49379285Y45696191D01*
X49379285Y45839048D01*
X49426904Y46029524D01*
X49474523Y46124762D01*
X49569761Y46220000D01*
X49712619Y46267620D01*
X49807857Y46267620D01*
X49950714Y46220000D01*
X49998333Y46172381D01*
X50855476Y45934286D02*
X50855476Y45267620D01*
X50617380Y46315239D02*
X50379285Y45600953D01*
X50998333Y45600953D01*
X46958333Y38917620D02*
X46386904Y38917620D01*
X46672619Y38917620D02*
X46672619Y39917620D01*
X46577380Y39774762D01*
X46482142Y39679524D01*
X46386904Y39631905D01*
X47386904Y39584286D02*
X47386904Y38584286D01*
X47863095Y39060477D02*
X47910714Y38965239D01*
X48005952Y38917620D01*
X47386904Y39060477D02*
X47434523Y38965239D01*
X47529761Y38917620D01*
X47720238Y38917620D01*
X47815476Y38965239D01*
X47863095Y39060477D01*
X47863095Y39584286D01*
X48767857Y39441429D02*
X48434523Y39441429D01*
X48434523Y38917620D02*
X48434523Y39917620D01*
X48910714Y39917620D01*
%TO.C,Y1*%
X6326190Y40163810D02*
X6802380Y40163810D01*
X5802380Y39830477D02*
X6326190Y40163810D01*
X5802380Y40497143D01*
X6802380Y41354286D02*
X6802380Y40782858D01*
X6802380Y41068572D02*
X5802380Y41068572D01*
X5945238Y40973334D01*
X6040476Y40878096D01*
X6088095Y40782858D01*
X9342380Y37282858D02*
X9342380Y36711429D01*
X9342380Y36997143D02*
X8342380Y36997143D01*
X8485238Y36901905D01*
X8580476Y36806667D01*
X8628095Y36711429D01*
X9247142Y37711429D02*
X9294761Y37759048D01*
X9342380Y37711429D01*
X9294761Y37663810D01*
X9247142Y37711429D01*
X9342380Y37711429D01*
X8770952Y38330477D02*
X8723333Y38235239D01*
X8675714Y38187620D01*
X8580476Y38140000D01*
X8532857Y38140000D01*
X8437619Y38187620D01*
X8390000Y38235239D01*
X8342380Y38330477D01*
X8342380Y38520953D01*
X8390000Y38616191D01*
X8437619Y38663810D01*
X8532857Y38711429D01*
X8580476Y38711429D01*
X8675714Y38663810D01*
X8723333Y38616191D01*
X8770952Y38520953D01*
X8770952Y38330477D01*
X8818571Y38235239D01*
X8866190Y38187620D01*
X8961428Y38140000D01*
X9151904Y38140000D01*
X9247142Y38187620D01*
X9294761Y38235239D01*
X9342380Y38330477D01*
X9342380Y38520953D01*
X9294761Y38616191D01*
X9247142Y38663810D01*
X9151904Y38711429D01*
X8961428Y38711429D01*
X8866190Y38663810D01*
X8818571Y38616191D01*
X8770952Y38520953D01*
X8675714Y39568572D02*
X9342380Y39568572D01*
X8294761Y39330477D02*
X9009047Y39092381D01*
X9009047Y39711429D01*
X8342380Y39997143D02*
X8342380Y40616191D01*
X8723333Y40282858D01*
X8723333Y40425715D01*
X8770952Y40520953D01*
X8818571Y40568572D01*
X8913809Y40616191D01*
X9151904Y40616191D01*
X9247142Y40568572D01*
X9294761Y40520953D01*
X9342380Y40425715D01*
X9342380Y40140000D01*
X9294761Y40044762D01*
X9247142Y39997143D01*
X8437619Y40997143D02*
X8390000Y41044762D01*
X8342380Y41140000D01*
X8342380Y41378096D01*
X8390000Y41473334D01*
X8437619Y41520953D01*
X8532857Y41568572D01*
X8628095Y41568572D01*
X8770952Y41520953D01*
X9342380Y40949524D01*
X9342380Y41568572D01*
X9342380Y41997143D02*
X8342380Y41997143D01*
X9056666Y42330477D01*
X8342380Y42663810D01*
X9342380Y42663810D01*
X9342380Y43140000D02*
X8342380Y43140000D01*
X8818571Y43140000D02*
X8818571Y43711429D01*
X9342380Y43711429D02*
X8342380Y43711429D01*
X8675714Y44092381D02*
X8675714Y44616191D01*
X9342380Y44092381D01*
X9342380Y44616191D01*
%TO.C,C8*%
X22582142Y39203334D02*
X22629761Y39155715D01*
X22677380Y39012858D01*
X22677380Y38917620D01*
X22629761Y38774762D01*
X22534523Y38679524D01*
X22439285Y38631905D01*
X22248809Y38584286D01*
X22105952Y38584286D01*
X21915476Y38631905D01*
X21820238Y38679524D01*
X21725000Y38774762D01*
X21677380Y38917620D01*
X21677380Y39012858D01*
X21725000Y39155715D01*
X21772619Y39203334D01*
X22105952Y39774762D02*
X22058333Y39679524D01*
X22010714Y39631905D01*
X21915476Y39584286D01*
X21867857Y39584286D01*
X21772619Y39631905D01*
X21725000Y39679524D01*
X21677380Y39774762D01*
X21677380Y39965239D01*
X21725000Y40060477D01*
X21772619Y40108096D01*
X21867857Y40155715D01*
X21915476Y40155715D01*
X22010714Y40108096D01*
X22058333Y40060477D01*
X22105952Y39965239D01*
X22105952Y39774762D01*
X22153571Y39679524D01*
X22201190Y39631905D01*
X22296428Y39584286D01*
X22486904Y39584286D01*
X22582142Y39631905D01*
X22629761Y39679524D01*
X22677380Y39774762D01*
X22677380Y39965239D01*
X22629761Y40060477D01*
X22582142Y40108096D01*
X22486904Y40155715D01*
X22296428Y40155715D01*
X22201190Y40108096D01*
X22153571Y40060477D01*
X22105952Y39965239D01*
X23133095Y38055715D02*
X23095000Y38093810D01*
X23056904Y38170000D01*
X23056904Y38360477D01*
X23095000Y38436667D01*
X23133095Y38474762D01*
X23209285Y38512858D01*
X23285476Y38512858D01*
X23399761Y38474762D01*
X23856904Y38017620D01*
X23856904Y38512858D01*
X23133095Y38817620D02*
X23095000Y38855715D01*
X23056904Y38931905D01*
X23056904Y39122381D01*
X23095000Y39198572D01*
X23133095Y39236667D01*
X23209285Y39274762D01*
X23285476Y39274762D01*
X23399761Y39236667D01*
X23856904Y38779524D01*
X23856904Y39274762D01*
X23323571Y39617620D02*
X24123571Y39617620D01*
X23361666Y39617620D02*
X23323571Y39693810D01*
X23323571Y39846191D01*
X23361666Y39922381D01*
X23399761Y39960477D01*
X23475952Y39998572D01*
X23704523Y39998572D01*
X23780714Y39960477D01*
X23818809Y39922381D01*
X23856904Y39846191D01*
X23856904Y39693810D01*
X23818809Y39617620D01*
X23437857Y40608096D02*
X23437857Y40341429D01*
X23856904Y40341429D02*
X23056904Y40341429D01*
X23056904Y40722381D01*
%TO.C,U4*%
X53213095Y36107620D02*
X53213095Y35298096D01*
X53260714Y35202858D01*
X53308333Y35155239D01*
X53403571Y35107620D01*
X53594047Y35107620D01*
X53689285Y35155239D01*
X53736904Y35202858D01*
X53784523Y35298096D01*
X53784523Y36107620D01*
X54689285Y35774286D02*
X54689285Y35107620D01*
X54451190Y36155239D02*
X54213095Y35440953D01*
X54832142Y35440953D01*
X54427380Y24638334D02*
X53427380Y24638334D01*
X54141666Y24971667D01*
X53427380Y25305000D01*
X54427380Y25305000D01*
X54141666Y25733572D02*
X54141666Y26209762D01*
X54427380Y25638334D02*
X53427380Y25971667D01*
X54427380Y26305000D01*
X53427380Y26543096D02*
X54427380Y27209762D01*
X53427380Y27209762D02*
X54427380Y26543096D01*
X53522619Y27543096D02*
X53475000Y27590715D01*
X53427380Y27685953D01*
X53427380Y27924048D01*
X53475000Y28019286D01*
X53522619Y28066905D01*
X53617857Y28114524D01*
X53713095Y28114524D01*
X53855952Y28066905D01*
X54427380Y27495477D01*
X54427380Y28114524D01*
X53427380Y28447858D02*
X53427380Y29066905D01*
X53808333Y28733572D01*
X53808333Y28876429D01*
X53855952Y28971667D01*
X53903571Y29019286D01*
X53998809Y29066905D01*
X54236904Y29066905D01*
X54332142Y29019286D01*
X54379761Y28971667D01*
X54427380Y28876429D01*
X54427380Y28590715D01*
X54379761Y28495477D01*
X54332142Y28447858D01*
X53522619Y29447858D02*
X53475000Y29495477D01*
X53427380Y29590715D01*
X53427380Y29828810D01*
X53475000Y29924048D01*
X53522619Y29971667D01*
X53617857Y30019286D01*
X53713095Y30019286D01*
X53855952Y29971667D01*
X54427380Y29400239D01*
X54427380Y30019286D01*
%TO.C,U2*%
X5588095Y29122620D02*
X5588095Y28313096D01*
X5635714Y28217858D01*
X5683333Y28170239D01*
X5778571Y28122620D01*
X5969047Y28122620D01*
X6064285Y28170239D01*
X6111904Y28217858D01*
X6159523Y28313096D01*
X6159523Y29122620D01*
X6588095Y29027381D02*
X6635714Y29075000D01*
X6730952Y29122620D01*
X6969047Y29122620D01*
X7064285Y29075000D01*
X7111904Y29027381D01*
X7159523Y28932143D01*
X7159523Y28836905D01*
X7111904Y28694048D01*
X6540476Y28122620D01*
X7159523Y28122620D01*
X11962142Y29122620D02*
X12628809Y29122620D01*
X12200238Y28122620D01*
X13438333Y28789286D02*
X13438333Y28122620D01*
X13200238Y29170239D02*
X12962142Y28455953D01*
X13581190Y28455953D01*
X14438333Y28122620D02*
X13962142Y28122620D01*
X13962142Y29122620D01*
X14724047Y28170239D02*
X14866904Y28122620D01*
X15105000Y28122620D01*
X15200238Y28170239D01*
X15247857Y28217858D01*
X15295476Y28313096D01*
X15295476Y28408334D01*
X15247857Y28503572D01*
X15200238Y28551191D01*
X15105000Y28598810D01*
X14914523Y28646429D01*
X14819285Y28694048D01*
X14771666Y28741667D01*
X14724047Y28836905D01*
X14724047Y28932143D01*
X14771666Y29027381D01*
X14819285Y29075000D01*
X14914523Y29122620D01*
X15152619Y29122620D01*
X15295476Y29075000D01*
X15914523Y29122620D02*
X16009761Y29122620D01*
X16105000Y29075000D01*
X16152619Y29027381D01*
X16200238Y28932143D01*
X16247857Y28741667D01*
X16247857Y28503572D01*
X16200238Y28313096D01*
X16152619Y28217858D01*
X16105000Y28170239D01*
X16009761Y28122620D01*
X15914523Y28122620D01*
X15819285Y28170239D01*
X15771666Y28217858D01*
X15724047Y28313096D01*
X15676428Y28503572D01*
X15676428Y28741667D01*
X15724047Y28932143D01*
X15771666Y29027381D01*
X15819285Y29075000D01*
X15914523Y29122620D01*
X17105000Y28789286D02*
X17105000Y28122620D01*
X16866904Y29170239D02*
X16628809Y28455953D01*
X17247857Y28455953D01*
%TO.C,U1*%
X33528095Y41822620D02*
X33528095Y41013096D01*
X33575714Y40917858D01*
X33623333Y40870239D01*
X33718571Y40822620D01*
X33909047Y40822620D01*
X34004285Y40870239D01*
X34051904Y40917858D01*
X34099523Y41013096D01*
X34099523Y41822620D01*
X35099523Y40822620D02*
X34528095Y40822620D01*
X34813809Y40822620D02*
X34813809Y41822620D01*
X34718571Y41679762D01*
X34623333Y41584524D01*
X34528095Y41536905D01*
X33051904Y38647620D02*
X32861428Y38647620D01*
X32766190Y38600000D01*
X32718571Y38552381D01*
X32623333Y38409524D01*
X32575714Y38219048D01*
X32575714Y37838096D01*
X32623333Y37742858D01*
X32670952Y37695239D01*
X32766190Y37647620D01*
X32956666Y37647620D01*
X33051904Y37695239D01*
X33099523Y37742858D01*
X33147142Y37838096D01*
X33147142Y38076191D01*
X33099523Y38171429D01*
X33051904Y38219048D01*
X32956666Y38266667D01*
X32766190Y38266667D01*
X32670952Y38219048D01*
X32623333Y38171429D01*
X32575714Y38076191D01*
X34051904Y38647620D02*
X33575714Y38647620D01*
X33528095Y38171429D01*
X33575714Y38219048D01*
X33670952Y38266667D01*
X33909047Y38266667D01*
X34004285Y38219048D01*
X34051904Y38171429D01*
X34099523Y38076191D01*
X34099523Y37838096D01*
X34051904Y37742858D01*
X34004285Y37695239D01*
X33909047Y37647620D01*
X33670952Y37647620D01*
X33575714Y37695239D01*
X33528095Y37742858D01*
X35004285Y38647620D02*
X34528095Y38647620D01*
X34480476Y38171429D01*
X34528095Y38219048D01*
X34623333Y38266667D01*
X34861428Y38266667D01*
X34956666Y38219048D01*
X35004285Y38171429D01*
X35051904Y38076191D01*
X35051904Y37838096D01*
X35004285Y37742858D01*
X34956666Y37695239D01*
X34861428Y37647620D01*
X34623333Y37647620D01*
X34528095Y37695239D01*
X34480476Y37742858D01*
X36004285Y37647620D02*
X35432857Y37647620D01*
X35718571Y37647620D02*
X35718571Y38647620D01*
X35623333Y38504762D01*
X35528095Y38409524D01*
X35432857Y38361905D01*
%TO.C,D1*%
X49426904Y9072620D02*
X49426904Y10072620D01*
X49665000Y10072620D01*
X49807857Y10025000D01*
X49903095Y9929762D01*
X49950714Y9834524D01*
X49998333Y9644048D01*
X49998333Y9501191D01*
X49950714Y9310715D01*
X49903095Y9215477D01*
X49807857Y9120239D01*
X49665000Y9072620D01*
X49426904Y9072620D01*
X50950714Y9072620D02*
X50379285Y9072620D01*
X50665000Y9072620D02*
X50665000Y10072620D01*
X50569761Y9929762D01*
X50474523Y9834524D01*
X50379285Y9786905D01*
X45458095Y10872620D02*
X45458095Y11872620D01*
X46029523Y10872620D02*
X45600952Y11444048D01*
X46029523Y11872620D02*
X45458095Y11301191D01*
%TO.C,C3*%
X23217142Y20153334D02*
X23264761Y20105715D01*
X23312380Y19962858D01*
X23312380Y19867620D01*
X23264761Y19724762D01*
X23169523Y19629524D01*
X23074285Y19581905D01*
X22883809Y19534286D01*
X22740952Y19534286D01*
X22550476Y19581905D01*
X22455238Y19629524D01*
X22360000Y19724762D01*
X22312380Y19867620D01*
X22312380Y19962858D01*
X22360000Y20105715D01*
X22407619Y20153334D01*
X22312380Y20486667D02*
X22312380Y21105715D01*
X22693333Y20772381D01*
X22693333Y20915239D01*
X22740952Y21010477D01*
X22788571Y21058096D01*
X22883809Y21105715D01*
X23121904Y21105715D01*
X23217142Y21058096D01*
X23264761Y21010477D01*
X23312380Y20915239D01*
X23312380Y20629524D01*
X23264761Y20534286D01*
X23217142Y20486667D01*
X21407380Y12422381D02*
X21407380Y11850953D01*
X21407380Y12136667D02*
X20407380Y12136667D01*
X20550238Y12041429D01*
X20645476Y11946191D01*
X20693095Y11850953D01*
X20407380Y13041429D02*
X20407380Y13136667D01*
X20455000Y13231905D01*
X20502619Y13279524D01*
X20597857Y13327143D01*
X20788333Y13374762D01*
X21026428Y13374762D01*
X21216904Y13327143D01*
X21312142Y13279524D01*
X21359761Y13231905D01*
X21407380Y13136667D01*
X21407380Y13041429D01*
X21359761Y12946191D01*
X21312142Y12898572D01*
X21216904Y12850953D01*
X21026428Y12803334D01*
X20788333Y12803334D01*
X20597857Y12850953D01*
X20502619Y12898572D01*
X20455000Y12946191D01*
X20407380Y13041429D01*
X20407380Y13993810D02*
X20407380Y14089048D01*
X20455000Y14184286D01*
X20502619Y14231905D01*
X20597857Y14279524D01*
X20788333Y14327143D01*
X21026428Y14327143D01*
X21216904Y14279524D01*
X21312142Y14231905D01*
X21359761Y14184286D01*
X21407380Y14089048D01*
X21407380Y13993810D01*
X21359761Y13898572D01*
X21312142Y13850953D01*
X21216904Y13803334D01*
X21026428Y13755715D01*
X20788333Y13755715D01*
X20597857Y13803334D01*
X20502619Y13850953D01*
X20455000Y13898572D01*
X20407380Y13993810D01*
X20740714Y14755715D02*
X21407380Y14755715D01*
X20835952Y14755715D02*
X20788333Y14803334D01*
X20740714Y14898572D01*
X20740714Y15041429D01*
X20788333Y15136667D01*
X20883571Y15184286D01*
X21407380Y15184286D01*
X20883571Y15993810D02*
X20883571Y15660477D01*
X21407380Y15660477D02*
X20407380Y15660477D01*
X20407380Y16136667D01*
%TO.C,C2*%
X23217142Y24043334D02*
X23264761Y23995715D01*
X23312380Y23852858D01*
X23312380Y23757620D01*
X23264761Y23614762D01*
X23169523Y23519524D01*
X23074285Y23471905D01*
X22883809Y23424286D01*
X22740952Y23424286D01*
X22550476Y23471905D01*
X22455238Y23519524D01*
X22360000Y23614762D01*
X22312380Y23757620D01*
X22312380Y23852858D01*
X22360000Y23995715D01*
X22407619Y24043334D01*
X22407619Y24424286D02*
X22360000Y24471905D01*
X22312380Y24567143D01*
X22312380Y24805239D01*
X22360000Y24900477D01*
X22407619Y24948096D01*
X22502857Y24995715D01*
X22598095Y24995715D01*
X22740952Y24948096D01*
X23312380Y24376667D01*
X23312380Y24995715D01*
X21407380Y27742381D02*
X21407380Y27170953D01*
X21407380Y27456667D02*
X20407380Y27456667D01*
X20550238Y27361429D01*
X20645476Y27266191D01*
X20693095Y27170953D01*
X20407380Y28361429D02*
X20407380Y28456667D01*
X20455000Y28551905D01*
X20502619Y28599524D01*
X20597857Y28647143D01*
X20788333Y28694762D01*
X21026428Y28694762D01*
X21216904Y28647143D01*
X21312142Y28599524D01*
X21359761Y28551905D01*
X21407380Y28456667D01*
X21407380Y28361429D01*
X21359761Y28266191D01*
X21312142Y28218572D01*
X21216904Y28170953D01*
X21026428Y28123334D01*
X20788333Y28123334D01*
X20597857Y28170953D01*
X20502619Y28218572D01*
X20455000Y28266191D01*
X20407380Y28361429D01*
X20407380Y29313810D02*
X20407380Y29409048D01*
X20455000Y29504286D01*
X20502619Y29551905D01*
X20597857Y29599524D01*
X20788333Y29647143D01*
X21026428Y29647143D01*
X21216904Y29599524D01*
X21312142Y29551905D01*
X21359761Y29504286D01*
X21407380Y29409048D01*
X21407380Y29313810D01*
X21359761Y29218572D01*
X21312142Y29170953D01*
X21216904Y29123334D01*
X21026428Y29075715D01*
X20788333Y29075715D01*
X20597857Y29123334D01*
X20502619Y29170953D01*
X20455000Y29218572D01*
X20407380Y29313810D01*
X20740714Y30075715D02*
X21407380Y30075715D01*
X20835952Y30075715D02*
X20788333Y30123334D01*
X20740714Y30218572D01*
X20740714Y30361429D01*
X20788333Y30456667D01*
X20883571Y30504286D01*
X21407380Y30504286D01*
X20883571Y31313810D02*
X20883571Y30980477D01*
X21407380Y30980477D02*
X20407380Y30980477D01*
X20407380Y31456667D01*
%TO.C,U3*%
X4953095Y17057620D02*
X4953095Y16248096D01*
X5000714Y16152858D01*
X5048333Y16105239D01*
X5143571Y16057620D01*
X5334047Y16057620D01*
X5429285Y16105239D01*
X5476904Y16152858D01*
X5524523Y16248096D01*
X5524523Y17057620D01*
X5905476Y17057620D02*
X6524523Y17057620D01*
X6191190Y16676667D01*
X6334047Y16676667D01*
X6429285Y16629048D01*
X6476904Y16581429D01*
X6524523Y16486191D01*
X6524523Y16248096D01*
X6476904Y16152858D01*
X6429285Y16105239D01*
X6334047Y16057620D01*
X6048333Y16057620D01*
X5953095Y16105239D01*
X5905476Y16152858D01*
X11962142Y17057620D02*
X12628809Y17057620D01*
X12200238Y16057620D01*
X13438333Y16724286D02*
X13438333Y16057620D01*
X13200238Y17105239D02*
X12962142Y16390953D01*
X13581190Y16390953D01*
X14438333Y16057620D02*
X13962142Y16057620D01*
X13962142Y17057620D01*
X14724047Y16105239D02*
X14866904Y16057620D01*
X15105000Y16057620D01*
X15200238Y16105239D01*
X15247857Y16152858D01*
X15295476Y16248096D01*
X15295476Y16343334D01*
X15247857Y16438572D01*
X15200238Y16486191D01*
X15105000Y16533810D01*
X14914523Y16581429D01*
X14819285Y16629048D01*
X14771666Y16676667D01*
X14724047Y16771905D01*
X14724047Y16867143D01*
X14771666Y16962381D01*
X14819285Y17010000D01*
X14914523Y17057620D01*
X15152619Y17057620D01*
X15295476Y17010000D01*
X15628809Y17057620D02*
X16247857Y17057620D01*
X15914523Y16676667D01*
X16057380Y16676667D01*
X16152619Y16629048D01*
X16200238Y16581429D01*
X16247857Y16486191D01*
X16247857Y16248096D01*
X16200238Y16152858D01*
X16152619Y16105239D01*
X16057380Y16057620D01*
X15771666Y16057620D01*
X15676428Y16105239D01*
X15628809Y16152858D01*
X16866904Y17057620D02*
X16962142Y17057620D01*
X17057380Y17010000D01*
X17105000Y16962381D01*
X17152619Y16867143D01*
X17200238Y16676667D01*
X17200238Y16438572D01*
X17152619Y16248096D01*
X17105000Y16152858D01*
X17057380Y16105239D01*
X16962142Y16057620D01*
X16866904Y16057620D01*
X16771666Y16105239D01*
X16724047Y16152858D01*
X16676428Y16248096D01*
X16628809Y16438572D01*
X16628809Y16676667D01*
X16676428Y16867143D01*
X16724047Y16962381D01*
X16771666Y17010000D01*
X16866904Y17057620D01*
%TO.C,C1*%
X65238333Y15517858D02*
X65190714Y15470239D01*
X65047857Y15422620D01*
X64952619Y15422620D01*
X64809761Y15470239D01*
X64714523Y15565477D01*
X64666904Y15660715D01*
X64619285Y15851191D01*
X64619285Y15994048D01*
X64666904Y16184524D01*
X64714523Y16279762D01*
X64809761Y16375000D01*
X64952619Y16422620D01*
X65047857Y16422620D01*
X65190714Y16375000D01*
X65238333Y16327381D01*
X66190714Y15422620D02*
X65619285Y15422620D01*
X65905000Y15422620D02*
X65905000Y16422620D01*
X65809761Y16279762D01*
X65714523Y16184524D01*
X65619285Y16136905D01*
X65436904Y14184286D02*
X65436904Y13517620D01*
X65198809Y14565239D02*
X64960714Y13850953D01*
X65579761Y13850953D01*
X65865476Y14517620D02*
X66532142Y14517620D01*
X66103571Y13517620D01*
X66913095Y14184286D02*
X66913095Y13184286D01*
X67389285Y13660477D02*
X67436904Y13565239D01*
X67532142Y13517620D01*
X66913095Y13660477D02*
X66960714Y13565239D01*
X67055952Y13517620D01*
X67246428Y13517620D01*
X67341666Y13565239D01*
X67389285Y13660477D01*
X67389285Y14184286D01*
X68294047Y14041429D02*
X67960714Y14041429D01*
X67960714Y13517620D02*
X67960714Y14517620D01*
X68436904Y14517620D01*
%TD*%
M02*
