%TF.GenerationSoftware,KiCad,Pcbnew,(5.1.10)-1*%
%TF.CreationDate,2022-01-30T13:23:49+01:00*%
%TF.ProjectId,ACIA,41434941-2e6b-4696-9361-645f70636258,1.0*%
%TF.SameCoordinates,PX6d01460PY60e4b00*%
%TF.FileFunction,Copper,L1,Top*%
%TF.FilePolarity,Positive*%
%FSLAX46Y46*%
G04 Gerber Fmt 4.6, Leading zero omitted, Abs format (unit mm)*
G04 Created by KiCad (PCBNEW (5.1.10)-1) date 2022-01-30 13:23:49*
%MOMM*%
%LPD*%
G01*
G04 APERTURE LIST*
%TA.AperFunction,ComponentPad*%
%ADD10C,4.000000*%
%TD*%
%TA.AperFunction,ComponentPad*%
%ADD11C,1.600000*%
%TD*%
%TA.AperFunction,ComponentPad*%
%ADD12R,1.600000X1.600000*%
%TD*%
%TA.AperFunction,ComponentPad*%
%ADD13O,1.600000X1.600000*%
%TD*%
%TA.AperFunction,ComponentPad*%
%ADD14C,1.500000*%
%TD*%
%TA.AperFunction,ComponentPad*%
%ADD15O,2.400000X1.600000*%
%TD*%
%TA.AperFunction,ComponentPad*%
%ADD16R,2.400000X1.600000*%
%TD*%
%TA.AperFunction,ComponentPad*%
%ADD17O,1.600000X2.400000*%
%TD*%
%TA.AperFunction,ComponentPad*%
%ADD18R,1.600000X2.400000*%
%TD*%
%TA.AperFunction,ComponentPad*%
%ADD19C,1.700000*%
%TD*%
%TA.AperFunction,ViaPad*%
%ADD20C,1.300000*%
%TD*%
%TA.AperFunction,Conductor*%
%ADD21C,0.800000*%
%TD*%
%TA.AperFunction,Conductor*%
%ADD22C,0.400000*%
%TD*%
%TA.AperFunction,Conductor*%
%ADD23C,0.600000*%
%TD*%
%TA.AperFunction,Conductor*%
%ADD24C,0.254000*%
%TD*%
%TA.AperFunction,Conductor*%
%ADD25C,0.100000*%
%TD*%
G04 APERTURE END LIST*
D10*
%TO.P,J2,0*%
%TO.N,N/C*%
X67183000Y45339000D03*
X67183000Y20345000D03*
D11*
%TO.P,J2,9*%
%TO.N,Net-(J2-Pad9)*%
X68245000Y37000000D03*
%TO.P,J2,8*%
%TO.N,Net-(J2-Pad8)*%
X68245000Y34230000D03*
%TO.P,J2,7*%
%TO.N,Net-(J2-Pad7)*%
X68245000Y31460000D03*
%TO.P,J2,6*%
%TO.N,Net-(J2-Pad6)*%
X68245000Y28690000D03*
%TO.P,J2,5*%
%TO.N,GND*%
X65405000Y38385000D03*
%TO.P,J2,4*%
%TO.N,Net-(J2-Pad4)*%
X65405000Y35615000D03*
%TO.P,J2,3*%
%TO.N,Net-(J2-Pad3)*%
X65405000Y32845000D03*
%TO.P,J2,2*%
%TO.N,Net-(J2-Pad2)*%
X65405000Y30075000D03*
D12*
%TO.P,J2,1*%
%TO.N,Net-(J2-Pad1)*%
X65405000Y27305000D03*
%TD*%
D13*
%TO.P,R1,2*%
%TO.N,Net-(C8-Pad2)*%
X19685000Y45720000D03*
D11*
%TO.P,R1,1*%
%TO.N,Net-(R1-Pad1)*%
X19685000Y35560000D03*
%TD*%
%TO.P,C7,2*%
%TO.N,Net-(C7-Pad2)*%
X53435000Y13970000D03*
D12*
%TO.P,C7,1*%
%TO.N,GND*%
X51435000Y13970000D03*
%TD*%
D11*
%TO.P,C6,2*%
%TO.N,Net-(C6-Pad2)*%
X52610000Y43180000D03*
D12*
%TO.P,C6,1*%
%TO.N,GND*%
X54610000Y43180000D03*
%TD*%
D11*
%TO.P,C5,2*%
%TO.N,Net-(C5-Pad2)*%
X61055000Y43180000D03*
D12*
%TO.P,C5,1*%
%TO.N,Net-(C5-Pad1)*%
X59055000Y43180000D03*
%TD*%
D11*
%TO.P,C4,2*%
%TO.N,Net-(C4-Pad2)*%
X46260000Y43180000D03*
D12*
%TO.P,C4,1*%
%TO.N,Net-(C4-Pad1)*%
X48260000Y43180000D03*
%TD*%
D14*
%TO.P,Y1,2*%
%TO.N,Net-(R1-Pad1)*%
X17145000Y38280000D03*
%TO.P,Y1,1*%
%TO.N,Net-(C8-Pad2)*%
X17145000Y43180000D03*
%TD*%
D11*
%TO.P,C8,2*%
%TO.N,Net-(C8-Pad2)*%
X22860000Y41950000D03*
%TO.P,C8,1*%
%TO.N,GND*%
X22860000Y44450000D03*
%TD*%
D15*
%TO.P,U4,16*%
%TO.N,VCC*%
X57785000Y36830000D03*
%TO.P,U4,8*%
%TO.N,Net-(U4-Pad8)*%
X50165000Y19050000D03*
%TO.P,U4,15*%
%TO.N,GND*%
X57785000Y34290000D03*
%TO.P,U4,7*%
%TO.N,Net-(J2-Pad7)*%
X50165000Y21590000D03*
%TO.P,U4,14*%
%TO.N,Net-(J2-Pad3)*%
X57785000Y31750000D03*
%TO.P,U4,6*%
%TO.N,Net-(C7-Pad2)*%
X50165000Y24130000D03*
%TO.P,U4,13*%
%TO.N,Net-(J2-Pad2)*%
X57785000Y29210000D03*
%TO.P,U4,5*%
%TO.N,Net-(C5-Pad2)*%
X50165000Y26670000D03*
%TO.P,U4,12*%
%TO.N,Net-(U1-Pad12)*%
X57785000Y26670000D03*
%TO.P,U4,4*%
%TO.N,Net-(C5-Pad1)*%
X50165000Y29210000D03*
%TO.P,U4,11*%
%TO.N,Net-(U1-Pad10)*%
X57785000Y24130000D03*
%TO.P,U4,3*%
%TO.N,Net-(C4-Pad2)*%
X50165000Y31750000D03*
%TO.P,U4,10*%
%TO.N,Net-(U1-Pad8)*%
X57785000Y21590000D03*
%TO.P,U4,2*%
%TO.N,Net-(C6-Pad2)*%
X50165000Y34290000D03*
%TO.P,U4,9*%
%TO.N,Net-(U4-Pad9)*%
X57785000Y19050000D03*
D16*
%TO.P,U4,1*%
%TO.N,Net-(C4-Pad1)*%
X50165000Y36830000D03*
%TD*%
D17*
%TO.P,U2,14*%
%TO.N,VCC*%
X3810000Y32385000D03*
%TO.P,U2,7*%
%TO.N,GND*%
X19050000Y24765000D03*
%TO.P,U2,13*%
%TO.N,N/C*%
X6350000Y32385000D03*
%TO.P,U2,6*%
%TO.N,Net-(U2-Pad6)*%
X16510000Y24765000D03*
%TO.P,U2,12*%
%TO.N,N/C*%
X8890000Y32385000D03*
%TO.P,U2,5*%
%TO.N,/A6*%
X13970000Y24765000D03*
%TO.P,U2,11*%
%TO.N,N/C*%
X11430000Y32385000D03*
%TO.P,U2,4*%
%TO.N,Net-(U2-Pad4)*%
X11430000Y24765000D03*
%TO.P,U2,10*%
%TO.N,N/C*%
X13970000Y32385000D03*
%TO.P,U2,3*%
%TO.N,/~IO*%
X8890000Y24765000D03*
%TO.P,U2,9*%
%TO.N,/A5*%
X16510000Y32385000D03*
%TO.P,U2,2*%
%TO.N,Net-(U2-Pad2)*%
X6350000Y24765000D03*
%TO.P,U2,8*%
%TO.N,Net-(U2-Pad8)*%
X19050000Y32385000D03*
D18*
%TO.P,U2,1*%
%TO.N,/A7*%
X3810000Y24765000D03*
%TD*%
D15*
%TO.P,U1,28*%
%TO.N,/R_~W*%
X41910000Y44450000D03*
%TO.P,U1,14*%
%TO.N,/A1*%
X26670000Y11430000D03*
%TO.P,U1,27*%
%TO.N,/PHI2*%
X41910000Y41910000D03*
%TO.P,U1,13*%
%TO.N,/A0*%
X26670000Y13970000D03*
%TO.P,U1,26*%
%TO.N,Net-(U1-Pad26)*%
X41910000Y39370000D03*
%TO.P,U1,12*%
%TO.N,Net-(U1-Pad12)*%
X26670000Y16510000D03*
%TO.P,U1,25*%
%TO.N,/D7*%
X41910000Y36830000D03*
%TO.P,U1,11*%
%TO.N,Net-(U1-Pad11)*%
X26670000Y19050000D03*
%TO.P,U1,24*%
%TO.N,/D6*%
X41910000Y34290000D03*
%TO.P,U1,10*%
%TO.N,Net-(U1-Pad10)*%
X26670000Y21590000D03*
%TO.P,U1,23*%
%TO.N,/D5*%
X41910000Y31750000D03*
%TO.P,U1,9*%
%TO.N,GND*%
X26670000Y24130000D03*
%TO.P,U1,22*%
%TO.N,/D4*%
X41910000Y29210000D03*
%TO.P,U1,8*%
%TO.N,Net-(U1-Pad8)*%
X26670000Y26670000D03*
%TO.P,U1,21*%
%TO.N,/D3*%
X41910000Y26670000D03*
%TO.P,U1,7*%
%TO.N,Net-(R1-Pad1)*%
X26670000Y29210000D03*
%TO.P,U1,20*%
%TO.N,/D2*%
X41910000Y24130000D03*
%TO.P,U1,6*%
%TO.N,Net-(C8-Pad2)*%
X26670000Y31750000D03*
%TO.P,U1,19*%
%TO.N,/D1*%
X41910000Y21590000D03*
%TO.P,U1,5*%
%TO.N,Net-(U1-Pad5)*%
X26670000Y34290000D03*
%TO.P,U1,18*%
%TO.N,/D0*%
X41910000Y19050000D03*
%TO.P,U1,4*%
%TO.N,/~RESET*%
X26670000Y36830000D03*
%TO.P,U1,17*%
%TO.N,Net-(U1-Pad11)*%
X41910000Y16510000D03*
%TO.P,U1,3*%
%TO.N,Net-(D1-Pad1)*%
X26670000Y39370000D03*
%TO.P,U1,16*%
%TO.N,Net-(U1-Pad11)*%
X41910000Y13970000D03*
%TO.P,U1,2*%
%TO.N,VCC*%
X26670000Y41910000D03*
%TO.P,U1,15*%
X41910000Y11430000D03*
D16*
%TO.P,U1,1*%
%TO.N,GND*%
X26670000Y44450000D03*
%TD*%
D19*
%TO.P,J1,34*%
%TO.N,GND*%
X17780000Y3175000D03*
%TO.P,J1,32*%
%TO.N,/A11*%
X20320000Y3175000D03*
%TO.P,J1,30*%
%TO.N,/A12*%
X22860000Y3175000D03*
%TO.P,J1,28*%
%TO.N,/A13*%
X25400000Y3175000D03*
%TO.P,J1,26*%
%TO.N,/A14*%
X27940000Y3175000D03*
%TO.P,J1,24*%
%TO.N,/A15*%
X30480000Y3175000D03*
%TO.P,J1,22*%
%TO.N,/D7*%
X33020000Y3175000D03*
%TO.P,J1,20*%
%TO.N,/A4*%
X35560000Y3175000D03*
%TO.P,J1,18*%
%TO.N,/D4*%
X38100000Y3175000D03*
%TO.P,J1,16*%
%TO.N,/D3*%
X40640000Y3175000D03*
%TO.P,J1,14*%
%TO.N,/D6*%
X43180000Y3175000D03*
%TO.P,J1,12*%
%TO.N,/D1*%
X45720000Y3175000D03*
%TO.P,J1,10*%
%TO.N,/D0*%
X48260000Y3175000D03*
%TO.P,J1,8*%
%TO.N,/~IRQ*%
X50800000Y3175000D03*
%TO.P,J1,6*%
%TO.N,/~IOCTRL*%
X53340000Y3175000D03*
%TO.P,J1,4*%
%TO.N,/~RESET*%
X55880000Y3175000D03*
%TO.P,J1,2*%
%TO.N,/~ROMDIS*%
X58420000Y3175000D03*
%TO.P,J1,33*%
%TO.N,VCC*%
X17780000Y5715000D03*
%TO.P,J1,31*%
%TO.N,/A10*%
X20320000Y5715000D03*
%TO.P,J1,29*%
%TO.N,/A9*%
X22860000Y5715000D03*
%TO.P,J1,27*%
%TO.N,/A8*%
X25400000Y5715000D03*
%TO.P,J1,25*%
%TO.N,/A7*%
X27940000Y5715000D03*
%TO.P,J1,23*%
%TO.N,/A6*%
X30480000Y5715000D03*
%TO.P,J1,21*%
%TO.N,/A5*%
X33020000Y5715000D03*
%TO.P,J1,19*%
%TO.N,/D5*%
X35560000Y5715000D03*
%TO.P,J1,17*%
%TO.N,/A2*%
X38100000Y5715000D03*
%TO.P,J1,15*%
%TO.N,/A1*%
X40640000Y5715000D03*
%TO.P,J1,13*%
%TO.N,/A0*%
X43180000Y5715000D03*
%TO.P,J1,11*%
%TO.N,/A3*%
X45720000Y5715000D03*
%TO.P,J1,9*%
%TO.N,/D2*%
X48260000Y5715000D03*
%TO.P,J1,7*%
%TO.N,/R_~W*%
X50800000Y5715000D03*
%TO.P,J1,5*%
%TO.N,/~IO*%
X53340000Y5715000D03*
%TO.P,J1,3*%
%TO.N,/PHI2*%
X55880000Y5715000D03*
%TO.P,J1,1*%
%TO.N,/~MAP*%
%TA.AperFunction,ComponentPad*%
G36*
G01*
X57820000Y6565000D02*
X59020000Y6565000D01*
G75*
G02*
X59270000Y6315000I0J-250000D01*
G01*
X59270000Y5115000D01*
G75*
G02*
X59020000Y4865000I-250000J0D01*
G01*
X57820000Y4865000D01*
G75*
G02*
X57570000Y5115000I0J250000D01*
G01*
X57570000Y6315000D01*
G75*
G02*
X57820000Y6565000I250000J0D01*
G01*
G37*
%TD.AperFunction*%
%TD*%
D13*
%TO.P,D1,2*%
%TO.N,/~IOCTRL*%
X53340000Y9525000D03*
D12*
%TO.P,D1,1*%
%TO.N,Net-(D1-Pad1)*%
X45720000Y9525000D03*
%TD*%
D11*
%TO.P,C3,2*%
%TO.N,VCC*%
X22860000Y17700000D03*
%TO.P,C3,1*%
%TO.N,GND*%
X22860000Y12700000D03*
%TD*%
%TO.P,C2,2*%
%TO.N,VCC*%
X22860000Y31750000D03*
%TO.P,C2,1*%
%TO.N,GND*%
X22860000Y26750000D03*
%TD*%
D17*
%TO.P,U3,14*%
%TO.N,VCC*%
X3810000Y20320000D03*
%TO.P,U3,7*%
%TO.N,GND*%
X19050000Y12700000D03*
%TO.P,U3,13*%
%TO.N,N/C*%
X6350000Y20320000D03*
%TO.P,U3,6*%
%TO.N,/A3*%
X16510000Y12700000D03*
%TO.P,U3,12*%
%TO.N,VCC*%
X8890000Y20320000D03*
%TO.P,U3,5*%
%TO.N,/A2*%
X13970000Y12700000D03*
%TO.P,U3,11*%
%TO.N,Net-(U2-Pad4)*%
X11430000Y20320000D03*
%TO.P,U3,4*%
%TO.N,/A4*%
X11430000Y12700000D03*
%TO.P,U3,10*%
%TO.N,N/C*%
X13970000Y20320000D03*
%TO.P,U3,3*%
%TO.N,Net-(U2-Pad8)*%
X8890000Y12700000D03*
%TO.P,U3,9*%
%TO.N,N/C*%
X16510000Y20320000D03*
%TO.P,U3,2*%
%TO.N,Net-(U2-Pad6)*%
X6350000Y12700000D03*
%TO.P,U3,8*%
%TO.N,Net-(D1-Pad1)*%
X19050000Y20320000D03*
D18*
%TO.P,U3,1*%
%TO.N,Net-(U2-Pad2)*%
X3810000Y12700000D03*
%TD*%
D11*
%TO.P,C1,2*%
%TO.N,GND*%
X60865000Y13970000D03*
D12*
%TO.P,C1,1*%
%TO.N,VCC*%
X62865000Y13970000D03*
%TD*%
D20*
%TO.N,VCC*%
X62865000Y8255000D03*
%TO.N,/~RESET*%
X46990000Y30480000D03*
%TO.N,/D6*%
X37465000Y25400000D03*
%TO.N,/A0*%
X43180000Y8890000D03*
%TO.N,/A1*%
X36830000Y13335000D03*
%TO.N,/A5*%
X29210000Y27940000D03*
%TO.N,/A6*%
X29210000Y22860000D03*
%TO.N,Net-(D1-Pad1)*%
X38735000Y20320000D03*
%TO.N,Net-(U1-Pad11)*%
X37465000Y18415000D03*
%TO.N,Net-(J2-Pad7)*%
X60960000Y19050000D03*
%TD*%
D21*
%TO.N,GND*%
X26670000Y24130000D02*
X24130000Y24130000D01*
X22860000Y25400000D02*
X22860000Y26750000D01*
X24130000Y24130000D02*
X22860000Y25400000D01*
X22860000Y12700000D02*
X19050000Y12700000D01*
X60865000Y13970000D02*
X56515000Y13970000D01*
X56515000Y13970000D02*
X53975000Y16510000D01*
X53975000Y16510000D02*
X52070000Y16510000D01*
X51435000Y15875000D02*
X51435000Y13970000D01*
X52070000Y16510000D02*
X51435000Y15875000D01*
%TO.N,VCC*%
X17780000Y5715000D02*
X5080000Y5715000D01*
X5080000Y5715000D02*
X1905000Y8890000D01*
X8890000Y20320000D02*
X8890000Y18415000D01*
X8890000Y18415000D02*
X8255000Y17780000D01*
X8255000Y17780000D02*
X4445000Y17780000D01*
X3810000Y18415000D02*
X3810000Y20320000D01*
X4445000Y17780000D02*
X3810000Y18415000D01*
X3810000Y32385000D02*
X2540000Y32385000D01*
X2540000Y32385000D02*
X1905000Y31750000D01*
X1905000Y8890000D02*
X1905000Y20320000D01*
X3810000Y20320000D02*
X1905000Y20320000D01*
X1905000Y31750000D02*
X1905000Y20320000D01*
X57785000Y36830000D02*
X60960000Y36830000D01*
X60960000Y36830000D02*
X63500000Y34290000D01*
X63500000Y34290000D02*
X63500000Y19685000D01*
X62865000Y19050000D02*
X62865000Y13970000D01*
X63500000Y19685000D02*
X62865000Y19050000D01*
X30480000Y41910000D02*
X26670000Y41910000D01*
X35560000Y46990000D02*
X30480000Y41910000D01*
X55245000Y46990000D02*
X35560000Y46990000D01*
X56515000Y45720000D02*
X55245000Y46990000D01*
X56515000Y41275000D02*
X56515000Y45720000D01*
X57785000Y40005000D02*
X56515000Y41275000D01*
X57785000Y36830000D02*
X57785000Y40005000D01*
X43815000Y11430000D02*
X41910000Y11430000D01*
X44450000Y12065000D02*
X43815000Y11430000D01*
X53975000Y12065000D02*
X44450000Y12065000D01*
X57785000Y8255000D02*
X53975000Y12065000D01*
X62865000Y8255000D02*
X57785000Y8255000D01*
D22*
%TO.N,/~RESET*%
X32385000Y36830000D02*
X26670000Y36830000D01*
X46990000Y30480000D02*
X46990000Y35560000D01*
X46990000Y35560000D02*
X44450000Y38100000D01*
X44450000Y38100000D02*
X33655000Y38100000D01*
X33655000Y38100000D02*
X32385000Y36830000D01*
%TO.N,/D6*%
X37465000Y25400000D02*
X37465000Y31750000D01*
X40005000Y34290000D02*
X41910000Y34290000D01*
X37465000Y31750000D02*
X40005000Y34290000D01*
%TO.N,/A0*%
X25400000Y9525000D02*
X24765000Y10160000D01*
X26035000Y13970000D02*
X26670000Y13970000D01*
X38735000Y9525000D02*
X25400000Y9525000D01*
X24765000Y12700000D02*
X26035000Y13970000D01*
X39370000Y8890000D02*
X38735000Y9525000D01*
X24765000Y10160000D02*
X24765000Y12700000D01*
X43180000Y8890000D02*
X39370000Y8890000D01*
%TO.N,/A1*%
X32385000Y11430000D02*
X26670000Y11430000D01*
X34290000Y13335000D02*
X32385000Y11430000D01*
X36830000Y13335000D02*
X34290000Y13335000D01*
%TO.N,/A2*%
X13970000Y12700000D02*
X13970000Y11430000D01*
X38100000Y5715000D02*
X38100000Y6985000D01*
X38100000Y6985000D02*
X36830000Y8255000D01*
X36830000Y8255000D02*
X16510000Y8255000D01*
X13970000Y10795000D02*
X13970000Y12700000D01*
X16510000Y8255000D02*
X13970000Y10795000D01*
%TO.N,/A3*%
X16510000Y12700000D02*
X16510000Y10160000D01*
X16510000Y10160000D02*
X17780000Y8890000D01*
X43815000Y7620000D02*
X39370000Y7620000D01*
X39370000Y7620000D02*
X38100000Y8890000D01*
X17780000Y8890000D02*
X38100000Y8890000D01*
X43815000Y7620000D02*
X45720000Y5715000D01*
%TO.N,/A4*%
X11430000Y12700000D02*
X11430000Y11430000D01*
X11430000Y11430000D02*
X15240000Y7620000D01*
X15240000Y7620000D02*
X33020000Y7620000D01*
X33020000Y7620000D02*
X34290000Y6350000D01*
X34290000Y4445000D02*
X35560000Y3175000D01*
X34290000Y6350000D02*
X34290000Y4445000D01*
%TO.N,/A5*%
X16510000Y30480000D02*
X16510000Y32385000D01*
X18415000Y28575000D02*
X16510000Y30480000D01*
X23495000Y28575000D02*
X18415000Y28575000D01*
X24130000Y27940000D02*
X23495000Y28575000D01*
X29210000Y27940000D02*
X24130000Y27940000D01*
%TO.N,/A6*%
X13970000Y23495000D02*
X13970000Y24765000D01*
X14605000Y22860000D02*
X13970000Y23495000D01*
X29210000Y22860000D02*
X14605000Y22860000D01*
%TO.N,Net-(D1-Pad1)*%
X29845000Y20320000D02*
X19050000Y20320000D01*
X38735000Y20320000D02*
X29845000Y20320000D01*
%TO.N,/~IO*%
X9525000Y27305000D02*
X8890000Y26670000D01*
X11430000Y27305000D02*
X9525000Y27305000D01*
X12700000Y26035000D02*
X11430000Y27305000D01*
X12700000Y17780000D02*
X12700000Y26035000D01*
X53340000Y5715000D02*
X53340000Y6985000D01*
X37465000Y15240000D02*
X24765000Y15240000D01*
X53340000Y6985000D02*
X52705000Y7620000D01*
X40005000Y10160000D02*
X39370000Y10795000D01*
X52705000Y7620000D02*
X50800000Y7620000D01*
X47625000Y10795000D02*
X44450000Y10795000D01*
X50800000Y7620000D02*
X47625000Y10795000D01*
X43815000Y10160000D02*
X40005000Y10160000D01*
X8890000Y26670000D02*
X8890000Y24765000D01*
X39370000Y10795000D02*
X39370000Y13335000D01*
X14605000Y15875000D02*
X12700000Y17780000D01*
X24765000Y15240000D02*
X24130000Y15875000D01*
X39370000Y13335000D02*
X37465000Y15240000D01*
X44450000Y10795000D02*
X43815000Y10160000D01*
X24130000Y15875000D02*
X14605000Y15875000D01*
%TO.N,Net-(U1-Pad8)*%
X60325000Y22225000D02*
X59690000Y21590000D01*
X60325000Y24765000D02*
X60325000Y22225000D01*
X55880000Y25400000D02*
X59690000Y25400000D01*
X48260000Y27940000D02*
X53340000Y27940000D01*
X45720000Y25400000D02*
X48260000Y27940000D01*
X40005000Y25400000D02*
X45720000Y25400000D01*
X59690000Y21590000D02*
X57785000Y21590000D01*
X38735000Y24130000D02*
X40005000Y25400000D01*
X32385000Y24130000D02*
X38735000Y24130000D01*
X59690000Y25400000D02*
X60325000Y24765000D01*
X29845000Y26670000D02*
X32385000Y24130000D01*
X53340000Y27940000D02*
X55880000Y25400000D01*
X26670000Y26670000D02*
X29845000Y26670000D01*
%TO.N,Net-(U2-Pad8)*%
X19050000Y33020000D02*
X19050000Y32385000D01*
X17780000Y34290000D02*
X19050000Y33020000D01*
X8890000Y12700000D02*
X8890000Y15240000D01*
X7620000Y26670000D02*
X9207500Y28257500D01*
X8890000Y15240000D02*
X10160000Y16510000D01*
X12700000Y33655000D02*
X13335000Y34290000D01*
X10160000Y16510000D02*
X10160000Y21590000D01*
X12700000Y29845000D02*
X12700000Y33655000D01*
X10160000Y21590000D02*
X9525000Y22225000D01*
X13335000Y34290000D02*
X17780000Y34290000D01*
X9525000Y22225000D02*
X8255000Y22225000D01*
X8255000Y22225000D02*
X7620000Y22860000D01*
X9207500Y28257500D02*
X11112500Y28257500D01*
X7620000Y22860000D02*
X7620000Y26670000D01*
X11112500Y28257500D02*
X12700000Y29845000D01*
%TO.N,Net-(U1-Pad12)*%
X37465000Y16510000D02*
X26670000Y16510000D01*
X38735000Y17780000D02*
X37465000Y16510000D01*
X45085000Y17780000D02*
X38735000Y17780000D01*
X45720000Y18415000D02*
X45085000Y17780000D01*
X45720000Y21590000D02*
X45720000Y18415000D01*
X46990000Y22860000D02*
X45720000Y21590000D01*
X53975000Y22860000D02*
X46990000Y22860000D01*
X56515000Y20320000D02*
X53975000Y22860000D01*
X61595000Y21590000D02*
X60325000Y20320000D01*
X61595000Y25400000D02*
X61595000Y21590000D01*
X60325000Y26670000D02*
X61595000Y25400000D01*
X60325000Y20320000D02*
X56515000Y20320000D01*
X57785000Y26670000D02*
X60325000Y26670000D01*
D23*
%TO.N,Net-(U1-Pad11)*%
X37465000Y18415000D02*
X36830000Y19050000D01*
X36830000Y19050000D02*
X26670000Y19050000D01*
D22*
%TO.N,Net-(U1-Pad10)*%
X55245000Y24130000D02*
X57785000Y24130000D01*
X53975000Y25400000D02*
X55245000Y24130000D01*
X47625000Y25400000D02*
X53975000Y25400000D01*
X45085000Y22860000D02*
X47625000Y25400000D01*
X36195000Y22860000D02*
X45085000Y22860000D01*
X34925000Y21590000D02*
X36195000Y22860000D01*
X26670000Y21590000D02*
X34925000Y21590000D01*
%TO.N,Net-(J2-Pad7)*%
X60642500Y17462500D02*
X60960000Y17780000D01*
D23*
X60960000Y17780000D02*
X60960000Y19050000D01*
X52070000Y21590000D02*
X50165000Y21590000D01*
X56515000Y17145000D02*
X52070000Y21590000D01*
X60325000Y17145000D02*
X56515000Y17145000D01*
X60960000Y17780000D02*
X60325000Y17145000D01*
%TO.N,Net-(C8-Pad2)*%
X26670000Y31750000D02*
X26035000Y31750000D01*
X26035000Y31750000D02*
X24765000Y33020000D01*
X24765000Y33020000D02*
X24765000Y38100000D01*
X22860000Y40005000D02*
X22860000Y41950000D01*
X24765000Y38100000D02*
X22860000Y40005000D01*
%TO.N,Net-(R1-Pad1)*%
X19685000Y35560000D02*
X20955000Y34290000D01*
X20955000Y34290000D02*
X20955000Y31115000D01*
X20955000Y31115000D02*
X22225000Y29845000D01*
X22225000Y29845000D02*
X24130000Y29845000D01*
X24130000Y29845000D02*
X24765000Y29210000D01*
X24765000Y29210000D02*
X26670000Y29210000D01*
%TD*%
D24*
%TO.N,GND*%
X75540000Y660000D02*
X660000Y660000D01*
X660000Y2146603D01*
X16931208Y2146603D01*
X17008843Y1897528D01*
X17272883Y1771629D01*
X17556411Y1699661D01*
X17848531Y1684389D01*
X18138019Y1726401D01*
X18413747Y1824081D01*
X18551157Y1897528D01*
X18628792Y2146603D01*
X17780000Y2995395D01*
X16931208Y2146603D01*
X660000Y2146603D01*
X660000Y3106469D01*
X16289389Y3106469D01*
X16331401Y2816981D01*
X16429081Y2541253D01*
X16502528Y2403843D01*
X16751603Y2326208D01*
X17600395Y3175000D01*
X16751603Y4023792D01*
X16502528Y3946157D01*
X16376629Y3682117D01*
X16304661Y3398589D01*
X16289389Y3106469D01*
X660000Y3106469D01*
X660000Y20320000D01*
X864993Y20320000D01*
X870001Y20269152D01*
X870000Y8940828D01*
X864994Y8890000D01*
X870000Y8839172D01*
X870000Y8839163D01*
X884976Y8687106D01*
X944159Y8492008D01*
X1040266Y8312203D01*
X1169604Y8154604D01*
X1209097Y8122193D01*
X4312197Y5019092D01*
X4344604Y4979604D01*
X4384092Y4947197D01*
X4502202Y4850266D01*
X4598309Y4798896D01*
X4682007Y4754159D01*
X4877105Y4694976D01*
X5029162Y4680000D01*
X5029171Y4680000D01*
X5079999Y4674994D01*
X5130827Y4680000D01*
X16714893Y4680000D01*
X16833368Y4561525D01*
X17006729Y4445689D01*
X16931208Y4203397D01*
X17780000Y3354605D01*
X18628792Y4203397D01*
X18553271Y4445689D01*
X18726632Y4561525D01*
X18933475Y4768368D01*
X19050000Y4942760D01*
X19166525Y4768368D01*
X19373368Y4561525D01*
X19547760Y4445000D01*
X19373368Y4328475D01*
X19166525Y4121632D01*
X19050689Y3948271D01*
X18808397Y4023792D01*
X17959605Y3175000D01*
X18808397Y2326208D01*
X19050689Y2401729D01*
X19166525Y2228368D01*
X19373368Y2021525D01*
X19616589Y1859010D01*
X19886842Y1747068D01*
X20173740Y1690000D01*
X20466260Y1690000D01*
X20753158Y1747068D01*
X21023411Y1859010D01*
X21266632Y2021525D01*
X21473475Y2228368D01*
X21590000Y2402760D01*
X21706525Y2228368D01*
X21913368Y2021525D01*
X22156589Y1859010D01*
X22426842Y1747068D01*
X22713740Y1690000D01*
X23006260Y1690000D01*
X23293158Y1747068D01*
X23563411Y1859010D01*
X23806632Y2021525D01*
X24013475Y2228368D01*
X24130000Y2402760D01*
X24246525Y2228368D01*
X24453368Y2021525D01*
X24696589Y1859010D01*
X24966842Y1747068D01*
X25253740Y1690000D01*
X25546260Y1690000D01*
X25833158Y1747068D01*
X26103411Y1859010D01*
X26346632Y2021525D01*
X26553475Y2228368D01*
X26670000Y2402760D01*
X26786525Y2228368D01*
X26993368Y2021525D01*
X27236589Y1859010D01*
X27506842Y1747068D01*
X27793740Y1690000D01*
X28086260Y1690000D01*
X28373158Y1747068D01*
X28643411Y1859010D01*
X28886632Y2021525D01*
X29093475Y2228368D01*
X29210000Y2402760D01*
X29326525Y2228368D01*
X29533368Y2021525D01*
X29776589Y1859010D01*
X30046842Y1747068D01*
X30333740Y1690000D01*
X30626260Y1690000D01*
X30913158Y1747068D01*
X31183411Y1859010D01*
X31426632Y2021525D01*
X31633475Y2228368D01*
X31750000Y2402760D01*
X31866525Y2228368D01*
X32073368Y2021525D01*
X32316589Y1859010D01*
X32586842Y1747068D01*
X32873740Y1690000D01*
X33166260Y1690000D01*
X33453158Y1747068D01*
X33723411Y1859010D01*
X33966632Y2021525D01*
X34173475Y2228368D01*
X34290000Y2402760D01*
X34406525Y2228368D01*
X34613368Y2021525D01*
X34856589Y1859010D01*
X35126842Y1747068D01*
X35413740Y1690000D01*
X35706260Y1690000D01*
X35993158Y1747068D01*
X36263411Y1859010D01*
X36506632Y2021525D01*
X36713475Y2228368D01*
X36830000Y2402760D01*
X36946525Y2228368D01*
X37153368Y2021525D01*
X37396589Y1859010D01*
X37666842Y1747068D01*
X37953740Y1690000D01*
X38246260Y1690000D01*
X38533158Y1747068D01*
X38803411Y1859010D01*
X39046632Y2021525D01*
X39253475Y2228368D01*
X39370000Y2402760D01*
X39486525Y2228368D01*
X39693368Y2021525D01*
X39936589Y1859010D01*
X40206842Y1747068D01*
X40493740Y1690000D01*
X40786260Y1690000D01*
X41073158Y1747068D01*
X41343411Y1859010D01*
X41586632Y2021525D01*
X41793475Y2228368D01*
X41910000Y2402760D01*
X42026525Y2228368D01*
X42233368Y2021525D01*
X42476589Y1859010D01*
X42746842Y1747068D01*
X43033740Y1690000D01*
X43326260Y1690000D01*
X43613158Y1747068D01*
X43883411Y1859010D01*
X44126632Y2021525D01*
X44333475Y2228368D01*
X44450000Y2402760D01*
X44566525Y2228368D01*
X44773368Y2021525D01*
X45016589Y1859010D01*
X45286842Y1747068D01*
X45573740Y1690000D01*
X45866260Y1690000D01*
X46153158Y1747068D01*
X46423411Y1859010D01*
X46666632Y2021525D01*
X46873475Y2228368D01*
X46990000Y2402760D01*
X47106525Y2228368D01*
X47313368Y2021525D01*
X47556589Y1859010D01*
X47826842Y1747068D01*
X48113740Y1690000D01*
X48406260Y1690000D01*
X48693158Y1747068D01*
X48963411Y1859010D01*
X49206632Y2021525D01*
X49413475Y2228368D01*
X49530000Y2402760D01*
X49646525Y2228368D01*
X49853368Y2021525D01*
X50096589Y1859010D01*
X50366842Y1747068D01*
X50653740Y1690000D01*
X50946260Y1690000D01*
X51233158Y1747068D01*
X51503411Y1859010D01*
X51746632Y2021525D01*
X51953475Y2228368D01*
X52070000Y2402760D01*
X52186525Y2228368D01*
X52393368Y2021525D01*
X52636589Y1859010D01*
X52906842Y1747068D01*
X53193740Y1690000D01*
X53486260Y1690000D01*
X53773158Y1747068D01*
X54043411Y1859010D01*
X54286632Y2021525D01*
X54493475Y2228368D01*
X54610000Y2402760D01*
X54726525Y2228368D01*
X54933368Y2021525D01*
X55176589Y1859010D01*
X55446842Y1747068D01*
X55733740Y1690000D01*
X56026260Y1690000D01*
X56313158Y1747068D01*
X56583411Y1859010D01*
X56826632Y2021525D01*
X57033475Y2228368D01*
X57150000Y2402760D01*
X57266525Y2228368D01*
X57473368Y2021525D01*
X57716589Y1859010D01*
X57986842Y1747068D01*
X58273740Y1690000D01*
X58566260Y1690000D01*
X58853158Y1747068D01*
X59123411Y1859010D01*
X59366632Y2021525D01*
X59573475Y2228368D01*
X59735990Y2471589D01*
X59847932Y2741842D01*
X59905000Y3028740D01*
X59905000Y3321260D01*
X59847932Y3608158D01*
X59735990Y3878411D01*
X59573475Y4121632D01*
X59386392Y4308715D01*
X59513386Y4376595D01*
X59647962Y4487038D01*
X59758405Y4621614D01*
X59840472Y4775150D01*
X59891008Y4941746D01*
X59908072Y5115000D01*
X59908072Y6315000D01*
X59891008Y6488254D01*
X59840472Y6654850D01*
X59758405Y6808386D01*
X59647962Y6942962D01*
X59513386Y7053405D01*
X59359850Y7135472D01*
X59193254Y7186008D01*
X59020000Y7203072D01*
X57820000Y7203072D01*
X57646746Y7186008D01*
X57480150Y7135472D01*
X57326614Y7053405D01*
X57192038Y6942962D01*
X57081595Y6808386D01*
X57013715Y6681392D01*
X56826632Y6868475D01*
X56583411Y7030990D01*
X56313158Y7142932D01*
X56026260Y7200000D01*
X55733740Y7200000D01*
X55446842Y7142932D01*
X55176589Y7030990D01*
X54933368Y6868475D01*
X54726525Y6661632D01*
X54610000Y6487240D01*
X54493475Y6661632D01*
X54286632Y6868475D01*
X54175000Y6943065D01*
X54175000Y6943982D01*
X54179040Y6985000D01*
X54162918Y7148688D01*
X54150678Y7189040D01*
X54115172Y7306087D01*
X54037636Y7451146D01*
X53933291Y7578291D01*
X53901431Y7604438D01*
X53415867Y8090000D01*
X53481335Y8090000D01*
X53758574Y8145147D01*
X54019727Y8253320D01*
X54254759Y8410363D01*
X54454637Y8610241D01*
X54611680Y8845273D01*
X54719853Y9106426D01*
X54775000Y9383665D01*
X54775000Y9666335D01*
X54741490Y9834800D01*
X57017197Y7559092D01*
X57049604Y7519604D01*
X57089092Y7487197D01*
X57207202Y7390266D01*
X57303309Y7338896D01*
X57387007Y7294159D01*
X57582105Y7234976D01*
X57734162Y7220000D01*
X57734165Y7220000D01*
X57785000Y7214993D01*
X57835835Y7220000D01*
X62101047Y7220000D01*
X62256324Y7116247D01*
X62490179Y7019381D01*
X62738439Y6970000D01*
X62991561Y6970000D01*
X63239821Y7019381D01*
X63473676Y7116247D01*
X63684140Y7256875D01*
X63863125Y7435860D01*
X64003753Y7646324D01*
X64100619Y7880179D01*
X64150000Y8128439D01*
X64150000Y8381561D01*
X64100619Y8629821D01*
X64003753Y8863676D01*
X63863125Y9074140D01*
X63684140Y9253125D01*
X63473676Y9393753D01*
X63239821Y9490619D01*
X62991561Y9540000D01*
X62738439Y9540000D01*
X62490179Y9490619D01*
X62256324Y9393753D01*
X62101047Y9290000D01*
X58213711Y9290000D01*
X54742807Y12760903D01*
X54710396Y12800396D01*
X54552797Y12929734D01*
X54468948Y12974552D01*
X54549637Y13055241D01*
X54706680Y13290273D01*
X54814853Y13551426D01*
X54870000Y13828665D01*
X54870000Y13899488D01*
X59424783Y13899488D01*
X59466213Y13619870D01*
X59561397Y13353708D01*
X59628329Y13228486D01*
X59872298Y13156903D01*
X60685395Y13970000D01*
X59872298Y14783097D01*
X59628329Y14711514D01*
X59507429Y14456004D01*
X59438700Y14181816D01*
X59424783Y13899488D01*
X54870000Y13899488D01*
X54870000Y14111335D01*
X54814853Y14388574D01*
X54706680Y14649727D01*
X54549637Y14884759D01*
X54349759Y15084637D01*
X54114727Y15241680D01*
X53853574Y15349853D01*
X53576335Y15405000D01*
X53293665Y15405000D01*
X53016426Y15349853D01*
X52755273Y15241680D01*
X52699790Y15204607D01*
X52686185Y15221185D01*
X52589494Y15300537D01*
X52479180Y15359502D01*
X52359482Y15395812D01*
X52235000Y15408072D01*
X51720750Y15405000D01*
X51562000Y15246250D01*
X51562000Y14097000D01*
X51582000Y14097000D01*
X51582000Y13843000D01*
X51562000Y13843000D01*
X51562000Y13823000D01*
X51308000Y13823000D01*
X51308000Y13843000D01*
X50158750Y13843000D01*
X50000000Y13684250D01*
X49996928Y13170000D01*
X50003822Y13100000D01*
X44500835Y13100000D01*
X44450000Y13105007D01*
X44399165Y13100000D01*
X44399162Y13100000D01*
X44247105Y13085024D01*
X44116873Y13045518D01*
X44052006Y13025841D01*
X43872202Y12929734D01*
X43811121Y12879605D01*
X43714604Y12800396D01*
X43682193Y12760903D01*
X43386290Y12465000D01*
X43310853Y12465000D01*
X43111101Y12628932D01*
X42978142Y12700000D01*
X43111101Y12771068D01*
X43329608Y12950392D01*
X43508932Y13168899D01*
X43642182Y13418192D01*
X43724236Y13688691D01*
X43751943Y13970000D01*
X43724236Y14251309D01*
X43642182Y14521808D01*
X43509521Y14770000D01*
X49996928Y14770000D01*
X50000000Y14255750D01*
X50158750Y14097000D01*
X51308000Y14097000D01*
X51308000Y15246250D01*
X51149250Y15405000D01*
X50635000Y15408072D01*
X50510518Y15395812D01*
X50390820Y15359502D01*
X50280506Y15300537D01*
X50183815Y15221185D01*
X50104463Y15124494D01*
X50045498Y15014180D01*
X50009188Y14894482D01*
X49996928Y14770000D01*
X43509521Y14770000D01*
X43508932Y14771101D01*
X43329608Y14989608D01*
X43111101Y15168932D01*
X42978142Y15240000D01*
X43111101Y15311068D01*
X43329608Y15490392D01*
X43508932Y15708899D01*
X43642182Y15958192D01*
X43724236Y16228691D01*
X43751943Y16510000D01*
X43724236Y16791309D01*
X43677615Y16945000D01*
X45043982Y16945000D01*
X45085000Y16940960D01*
X45126018Y16945000D01*
X45126019Y16945000D01*
X45248689Y16957082D01*
X45406087Y17004828D01*
X45551146Y17082364D01*
X45678291Y17186709D01*
X45704445Y17218578D01*
X46281431Y17795562D01*
X46313291Y17821709D01*
X46417636Y17948854D01*
X46495172Y18093913D01*
X46542918Y18251311D01*
X46555000Y18373981D01*
X46555000Y18373982D01*
X46559040Y18415000D01*
X46555000Y18456018D01*
X46555000Y21244133D01*
X47335868Y22025000D01*
X48397385Y22025000D01*
X48350764Y21871309D01*
X48323057Y21590000D01*
X48350764Y21308691D01*
X48432818Y21038192D01*
X48566068Y20788899D01*
X48745392Y20570392D01*
X48963899Y20391068D01*
X49096858Y20320000D01*
X48963899Y20248932D01*
X48745392Y20069608D01*
X48566068Y19851101D01*
X48432818Y19601808D01*
X48350764Y19331309D01*
X48323057Y19050000D01*
X48350764Y18768691D01*
X48432818Y18498192D01*
X48566068Y18248899D01*
X48745392Y18030392D01*
X48963899Y17851068D01*
X49213192Y17717818D01*
X49483691Y17635764D01*
X49694508Y17615000D01*
X50635492Y17615000D01*
X50846309Y17635764D01*
X51116808Y17717818D01*
X51366101Y17851068D01*
X51584608Y18030392D01*
X51763932Y18248899D01*
X51897182Y18498192D01*
X51979236Y18768691D01*
X52006943Y19050000D01*
X51979236Y19331309D01*
X51897182Y19601808D01*
X51763932Y19851101D01*
X51584608Y20069608D01*
X51366101Y20248932D01*
X51233142Y20320000D01*
X51366101Y20391068D01*
X51584608Y20570392D01*
X51654044Y20655000D01*
X51682711Y20655000D01*
X55821374Y16516336D01*
X55850656Y16480656D01*
X55993028Y16363814D01*
X56155460Y16276993D01*
X56278243Y16239747D01*
X56331707Y16223529D01*
X56514999Y16205476D01*
X56560931Y16210000D01*
X60279068Y16210000D01*
X60325000Y16205476D01*
X60370932Y16210000D01*
X60508292Y16223529D01*
X60684540Y16276993D01*
X60846972Y16363814D01*
X60989344Y16480656D01*
X61018630Y16516341D01*
X61588660Y17086371D01*
X61624344Y17115656D01*
X61741186Y17258028D01*
X61826091Y17416875D01*
X61828007Y17420459D01*
X61830000Y17427030D01*
X61830001Y15362287D01*
X61820820Y15359502D01*
X61710506Y15300537D01*
X61613815Y15221185D01*
X61603193Y15208242D01*
X61351004Y15327571D01*
X61076816Y15396300D01*
X60794488Y15410217D01*
X60514870Y15368787D01*
X60248708Y15273603D01*
X60123486Y15206671D01*
X60051903Y14962702D01*
X60865000Y14149605D01*
X60879143Y14163747D01*
X61058748Y13984142D01*
X61044605Y13970000D01*
X61058748Y13955857D01*
X60879143Y13776252D01*
X60865000Y13790395D01*
X60051903Y12977298D01*
X60123486Y12733329D01*
X60378996Y12612429D01*
X60653184Y12543700D01*
X60935512Y12529783D01*
X61215130Y12571213D01*
X61481292Y12666397D01*
X61603309Y12731616D01*
X61613815Y12718815D01*
X61710506Y12639463D01*
X61820820Y12580498D01*
X61940518Y12544188D01*
X62065000Y12531928D01*
X63665000Y12531928D01*
X63789482Y12544188D01*
X63909180Y12580498D01*
X64019494Y12639463D01*
X64116185Y12718815D01*
X64195537Y12815506D01*
X64254502Y12925820D01*
X64290812Y13045518D01*
X64303072Y13170000D01*
X64303072Y14770000D01*
X64290812Y14894482D01*
X64254502Y15014180D01*
X64195537Y15124494D01*
X64116185Y15221185D01*
X64019494Y15300537D01*
X63909180Y15359502D01*
X63900000Y15362287D01*
X63900000Y18621290D01*
X64195903Y18917193D01*
X64235396Y18949604D01*
X64317789Y19050000D01*
X64364734Y19107202D01*
X64460841Y19287006D01*
X64485468Y19368192D01*
X64520024Y19482105D01*
X64535000Y19634162D01*
X64535000Y19634165D01*
X64540007Y19685000D01*
X64535000Y19735835D01*
X64535000Y20604525D01*
X64548000Y20604525D01*
X64548000Y20085475D01*
X64649261Y19576399D01*
X64847893Y19096859D01*
X65136262Y18665285D01*
X65503285Y18298262D01*
X65934859Y18009893D01*
X66414399Y17811261D01*
X66923475Y17710000D01*
X67442525Y17710000D01*
X67951601Y17811261D01*
X68431141Y18009893D01*
X68862715Y18298262D01*
X69229738Y18665285D01*
X69518107Y19096859D01*
X69716739Y19576399D01*
X69818000Y20085475D01*
X69818000Y20604525D01*
X69716739Y21113601D01*
X69518107Y21593141D01*
X69229738Y22024715D01*
X68862715Y22391738D01*
X68431141Y22680107D01*
X67951601Y22878739D01*
X67442525Y22980000D01*
X66923475Y22980000D01*
X66414399Y22878739D01*
X65934859Y22680107D01*
X65503285Y22391738D01*
X65136262Y22024715D01*
X64847893Y21593141D01*
X64649261Y21113601D01*
X64548000Y20604525D01*
X64535000Y20604525D01*
X64535000Y25873822D01*
X64605000Y25866928D01*
X66205000Y25866928D01*
X66329482Y25879188D01*
X66449180Y25915498D01*
X66559494Y25974463D01*
X66656185Y26053815D01*
X66735537Y26150506D01*
X66794502Y26260820D01*
X66830812Y26380518D01*
X66843072Y26505000D01*
X66843072Y28105000D01*
X66830812Y28229482D01*
X66794502Y28349180D01*
X66735537Y28459494D01*
X66656185Y28556185D01*
X66559494Y28635537D01*
X66449180Y28694502D01*
X66329482Y28730812D01*
X66205000Y28743072D01*
X65939275Y28743072D01*
X66084727Y28803320D01*
X66319759Y28960363D01*
X66519637Y29160241D01*
X66676680Y29395273D01*
X66784853Y29656426D01*
X66840000Y29933665D01*
X66840000Y30216335D01*
X66784853Y30493574D01*
X66676680Y30754727D01*
X66519637Y30989759D01*
X66319759Y31189637D01*
X66084727Y31346680D01*
X65823574Y31454853D01*
X65797699Y31460000D01*
X65823574Y31465147D01*
X66084727Y31573320D01*
X66319759Y31730363D01*
X66519637Y31930241D01*
X66676680Y32165273D01*
X66784853Y32426426D01*
X66840000Y32703665D01*
X66840000Y32986335D01*
X66784853Y33263574D01*
X66676680Y33524727D01*
X66519637Y33759759D01*
X66319759Y33959637D01*
X66084727Y34116680D01*
X65823574Y34224853D01*
X65797699Y34230000D01*
X65823574Y34235147D01*
X66084727Y34343320D01*
X66319759Y34500363D01*
X66519637Y34700241D01*
X66676680Y34935273D01*
X66784853Y35196426D01*
X66840000Y35473665D01*
X66840000Y35756335D01*
X66784853Y36033574D01*
X66676680Y36294727D01*
X66519637Y36529759D01*
X66319759Y36729637D01*
X66084727Y36886680D01*
X65823574Y36994853D01*
X65795118Y37000513D01*
X66021292Y37081397D01*
X66133429Y37141335D01*
X66810000Y37141335D01*
X66810000Y36858665D01*
X66865147Y36581426D01*
X66973320Y36320273D01*
X67130363Y36085241D01*
X67330241Y35885363D01*
X67565273Y35728320D01*
X67826426Y35620147D01*
X67852301Y35615000D01*
X67826426Y35609853D01*
X67565273Y35501680D01*
X67330241Y35344637D01*
X67130363Y35144759D01*
X66973320Y34909727D01*
X66865147Y34648574D01*
X66810000Y34371335D01*
X66810000Y34088665D01*
X66865147Y33811426D01*
X66973320Y33550273D01*
X67130363Y33315241D01*
X67330241Y33115363D01*
X67565273Y32958320D01*
X67826426Y32850147D01*
X67852301Y32845000D01*
X67826426Y32839853D01*
X67565273Y32731680D01*
X67330241Y32574637D01*
X67130363Y32374759D01*
X66973320Y32139727D01*
X66865147Y31878574D01*
X66810000Y31601335D01*
X66810000Y31318665D01*
X66865147Y31041426D01*
X66973320Y30780273D01*
X67130363Y30545241D01*
X67330241Y30345363D01*
X67565273Y30188320D01*
X67826426Y30080147D01*
X67852301Y30075000D01*
X67826426Y30069853D01*
X67565273Y29961680D01*
X67330241Y29804637D01*
X67130363Y29604759D01*
X66973320Y29369727D01*
X66865147Y29108574D01*
X66810000Y28831335D01*
X66810000Y28548665D01*
X66865147Y28271426D01*
X66973320Y28010273D01*
X67130363Y27775241D01*
X67330241Y27575363D01*
X67565273Y27418320D01*
X67826426Y27310147D01*
X68103665Y27255000D01*
X68386335Y27255000D01*
X68663574Y27310147D01*
X68924727Y27418320D01*
X69159759Y27575363D01*
X69359637Y27775241D01*
X69516680Y28010273D01*
X69624853Y28271426D01*
X69680000Y28548665D01*
X69680000Y28831335D01*
X69624853Y29108574D01*
X69516680Y29369727D01*
X69359637Y29604759D01*
X69159759Y29804637D01*
X68924727Y29961680D01*
X68663574Y30069853D01*
X68637699Y30075000D01*
X68663574Y30080147D01*
X68924727Y30188320D01*
X69159759Y30345363D01*
X69359637Y30545241D01*
X69516680Y30780273D01*
X69624853Y31041426D01*
X69680000Y31318665D01*
X69680000Y31601335D01*
X69624853Y31878574D01*
X69516680Y32139727D01*
X69359637Y32374759D01*
X69159759Y32574637D01*
X68924727Y32731680D01*
X68663574Y32839853D01*
X68637699Y32845000D01*
X68663574Y32850147D01*
X68924727Y32958320D01*
X69159759Y33115363D01*
X69359637Y33315241D01*
X69516680Y33550273D01*
X69624853Y33811426D01*
X69680000Y34088665D01*
X69680000Y34371335D01*
X69624853Y34648574D01*
X69516680Y34909727D01*
X69359637Y35144759D01*
X69159759Y35344637D01*
X68924727Y35501680D01*
X68663574Y35609853D01*
X68637699Y35615000D01*
X68663574Y35620147D01*
X68924727Y35728320D01*
X69159759Y35885363D01*
X69359637Y36085241D01*
X69516680Y36320273D01*
X69624853Y36581426D01*
X69680000Y36858665D01*
X69680000Y37141335D01*
X69624853Y37418574D01*
X69516680Y37679727D01*
X69359637Y37914759D01*
X69159759Y38114637D01*
X68924727Y38271680D01*
X68663574Y38379853D01*
X68386335Y38435000D01*
X68103665Y38435000D01*
X67826426Y38379853D01*
X67565273Y38271680D01*
X67330241Y38114637D01*
X67130363Y37914759D01*
X66973320Y37679727D01*
X66865147Y37418574D01*
X66810000Y37141335D01*
X66133429Y37141335D01*
X66146514Y37148329D01*
X66218097Y37392298D01*
X65405000Y38205395D01*
X64591903Y37392298D01*
X64663486Y37148329D01*
X64918996Y37027429D01*
X65021289Y37001788D01*
X64986426Y36994853D01*
X64725273Y36886680D01*
X64490241Y36729637D01*
X64290363Y36529759D01*
X64133320Y36294727D01*
X64025147Y36033574D01*
X63970000Y35756335D01*
X63970000Y35473665D01*
X64017167Y35236544D01*
X61727807Y37525903D01*
X61695396Y37565396D01*
X61537797Y37694734D01*
X61357993Y37790841D01*
X61162895Y37850024D01*
X61010838Y37865000D01*
X61010828Y37865000D01*
X60960000Y37870006D01*
X60909172Y37865000D01*
X59185853Y37865000D01*
X58986101Y38028932D01*
X58820000Y38117715D01*
X58820000Y38314488D01*
X63964783Y38314488D01*
X64006213Y38034870D01*
X64101397Y37768708D01*
X64168329Y37643486D01*
X64412298Y37571903D01*
X65225395Y38385000D01*
X65584605Y38385000D01*
X66397702Y37571903D01*
X66641671Y37643486D01*
X66762571Y37898996D01*
X66831300Y38173184D01*
X66845217Y38455512D01*
X66803787Y38735130D01*
X66708603Y39001292D01*
X66641671Y39126514D01*
X66397702Y39198097D01*
X65584605Y38385000D01*
X65225395Y38385000D01*
X64412298Y39198097D01*
X64168329Y39126514D01*
X64047429Y38871004D01*
X63978700Y38596816D01*
X63964783Y38314488D01*
X58820000Y38314488D01*
X58820000Y39377702D01*
X64591903Y39377702D01*
X65405000Y38564605D01*
X66218097Y39377702D01*
X66146514Y39621671D01*
X65891004Y39742571D01*
X65616816Y39811300D01*
X65334488Y39825217D01*
X65054870Y39783787D01*
X64788708Y39688603D01*
X64663486Y39621671D01*
X64591903Y39377702D01*
X58820000Y39377702D01*
X58820000Y39954173D01*
X58825006Y40005001D01*
X58820000Y40055829D01*
X58820000Y40055838D01*
X58805024Y40207895D01*
X58745841Y40402993D01*
X58656496Y40570147D01*
X58649734Y40582798D01*
X58552803Y40700908D01*
X58520396Y40740396D01*
X58480908Y40772803D01*
X57550000Y41703710D01*
X57550000Y43980000D01*
X57616928Y43980000D01*
X57616928Y42380000D01*
X57629188Y42255518D01*
X57665498Y42135820D01*
X57724463Y42025506D01*
X57803815Y41928815D01*
X57900506Y41849463D01*
X58010820Y41790498D01*
X58130518Y41754188D01*
X58255000Y41741928D01*
X59855000Y41741928D01*
X59979482Y41754188D01*
X60099180Y41790498D01*
X60209494Y41849463D01*
X60306185Y41928815D01*
X60319790Y41945393D01*
X60375273Y41908320D01*
X60636426Y41800147D01*
X60913665Y41745000D01*
X61196335Y41745000D01*
X61473574Y41800147D01*
X61734727Y41908320D01*
X61969759Y42065363D01*
X62169637Y42265241D01*
X62326680Y42500273D01*
X62434853Y42761426D01*
X62490000Y43038665D01*
X62490000Y43321335D01*
X62434853Y43598574D01*
X62326680Y43859727D01*
X62169637Y44094759D01*
X61969759Y44294637D01*
X61734727Y44451680D01*
X61473574Y44559853D01*
X61196335Y44615000D01*
X60913665Y44615000D01*
X60636426Y44559853D01*
X60375273Y44451680D01*
X60319790Y44414607D01*
X60306185Y44431185D01*
X60209494Y44510537D01*
X60099180Y44569502D01*
X59979482Y44605812D01*
X59855000Y44618072D01*
X58255000Y44618072D01*
X58130518Y44605812D01*
X58010820Y44569502D01*
X57900506Y44510537D01*
X57803815Y44431185D01*
X57724463Y44334494D01*
X57665498Y44224180D01*
X57629188Y44104482D01*
X57616928Y43980000D01*
X57550000Y43980000D01*
X57550000Y45598525D01*
X64548000Y45598525D01*
X64548000Y45079475D01*
X64649261Y44570399D01*
X64847893Y44090859D01*
X65136262Y43659285D01*
X65503285Y43292262D01*
X65934859Y43003893D01*
X66414399Y42805261D01*
X66923475Y42704000D01*
X67442525Y42704000D01*
X67951601Y42805261D01*
X68431141Y43003893D01*
X68862715Y43292262D01*
X69229738Y43659285D01*
X69518107Y44090859D01*
X69716739Y44570399D01*
X69818000Y45079475D01*
X69818000Y45598525D01*
X69716739Y46107601D01*
X69518107Y46587141D01*
X69229738Y47018715D01*
X68862715Y47385738D01*
X68431141Y47674107D01*
X67951601Y47872739D01*
X67442525Y47974000D01*
X66923475Y47974000D01*
X66414399Y47872739D01*
X65934859Y47674107D01*
X65503285Y47385738D01*
X65136262Y47018715D01*
X64847893Y46587141D01*
X64649261Y46107601D01*
X64548000Y45598525D01*
X57550000Y45598525D01*
X57550000Y45669173D01*
X57555006Y45720001D01*
X57550000Y45770829D01*
X57550000Y45770838D01*
X57535024Y45922895D01*
X57475841Y46117993D01*
X57402821Y46254604D01*
X57379734Y46297798D01*
X57282803Y46415908D01*
X57250396Y46455396D01*
X57210908Y46487803D01*
X56012807Y47685903D01*
X55980396Y47725396D01*
X55822797Y47854734D01*
X55642993Y47950841D01*
X55447895Y48010024D01*
X55295838Y48025000D01*
X55295828Y48025000D01*
X55245000Y48030006D01*
X55194172Y48025000D01*
X35610835Y48025000D01*
X35560000Y48030007D01*
X35509164Y48025000D01*
X35509162Y48025000D01*
X35357105Y48010024D01*
X35162007Y47950841D01*
X35078309Y47906104D01*
X34982202Y47854734D01*
X34864092Y47757803D01*
X34824604Y47725396D01*
X34792197Y47685908D01*
X30051290Y42945000D01*
X28070853Y42945000D01*
X27976518Y43022419D01*
X27994482Y43024188D01*
X28114180Y43060498D01*
X28224494Y43119463D01*
X28321185Y43198815D01*
X28400537Y43295506D01*
X28459502Y43405820D01*
X28495812Y43525518D01*
X28508072Y43650000D01*
X28505000Y44164250D01*
X28346250Y44323000D01*
X26797000Y44323000D01*
X26797000Y44303000D01*
X26543000Y44303000D01*
X26543000Y44323000D01*
X24993750Y44323000D01*
X24835000Y44164250D01*
X24831928Y43650000D01*
X24844188Y43525518D01*
X24880498Y43405820D01*
X24939463Y43295506D01*
X25018815Y43198815D01*
X25115506Y43119463D01*
X25225820Y43060498D01*
X25345518Y43024188D01*
X25363482Y43022419D01*
X25250392Y42929608D01*
X25071068Y42711101D01*
X24937818Y42461808D01*
X24855764Y42191309D01*
X24828057Y41910000D01*
X24855764Y41628691D01*
X24937818Y41358192D01*
X25071068Y41108899D01*
X25250392Y40890392D01*
X25468899Y40711068D01*
X25601858Y40640000D01*
X25468899Y40568932D01*
X25250392Y40389608D01*
X25071068Y40171101D01*
X24937818Y39921808D01*
X24855764Y39651309D01*
X24828057Y39370000D01*
X24829233Y39358056D01*
X23795000Y40392289D01*
X23795000Y40855604D01*
X23974637Y41035241D01*
X24131680Y41270273D01*
X24239853Y41531426D01*
X24295000Y41808665D01*
X24295000Y42091335D01*
X24239853Y42368574D01*
X24131680Y42629727D01*
X23974637Y42864759D01*
X23774759Y43064637D01*
X23574131Y43198692D01*
X23601514Y43213329D01*
X23673097Y43457298D01*
X22860000Y44270395D01*
X22046903Y43457298D01*
X22118486Y43213329D01*
X22147341Y43199676D01*
X21945241Y43064637D01*
X21745363Y42864759D01*
X21588320Y42629727D01*
X21480147Y42368574D01*
X21425000Y42091335D01*
X21425000Y41808665D01*
X21480147Y41531426D01*
X21588320Y41270273D01*
X21745363Y41035241D01*
X21925000Y40855604D01*
X21925000Y40050932D01*
X21920476Y40005000D01*
X21925000Y39959069D01*
X21938529Y39821709D01*
X21991993Y39645461D01*
X22078814Y39483029D01*
X22195656Y39340656D01*
X22231341Y39311370D01*
X23830001Y37712710D01*
X23830000Y33065932D01*
X23825476Y33020000D01*
X23830000Y32974069D01*
X23843529Y32836709D01*
X23861313Y32778083D01*
X23774759Y32864637D01*
X23539727Y33021680D01*
X23278574Y33129853D01*
X23001335Y33185000D01*
X22718665Y33185000D01*
X22441426Y33129853D01*
X22180273Y33021680D01*
X21945241Y32864637D01*
X21890000Y32809396D01*
X21890000Y34244069D01*
X21894524Y34290001D01*
X21876471Y34473293D01*
X21846738Y34571309D01*
X21823007Y34649540D01*
X21736186Y34811972D01*
X21619344Y34954344D01*
X21583665Y34983625D01*
X21120000Y35447290D01*
X21120000Y35701335D01*
X21064853Y35978574D01*
X20956680Y36239727D01*
X20799637Y36474759D01*
X20599759Y36674637D01*
X20364727Y36831680D01*
X20103574Y36939853D01*
X19826335Y36995000D01*
X19543665Y36995000D01*
X19266426Y36939853D01*
X19005273Y36831680D01*
X18770241Y36674637D01*
X18570363Y36474759D01*
X18413320Y36239727D01*
X18305147Y35978574D01*
X18250000Y35701335D01*
X18250000Y35418665D01*
X18305147Y35141426D01*
X18413320Y34880273D01*
X18499355Y34751512D01*
X18399446Y34851421D01*
X18373291Y34883291D01*
X18246146Y34987636D01*
X18101087Y35065172D01*
X17943689Y35112918D01*
X17821019Y35125000D01*
X17821018Y35125000D01*
X17780000Y35129040D01*
X17738982Y35125000D01*
X13376018Y35125000D01*
X13335000Y35129040D01*
X13293982Y35125000D01*
X13293981Y35125000D01*
X13171311Y35112918D01*
X13108472Y35093856D01*
X13013913Y35065172D01*
X12868854Y34987636D01*
X12784815Y34918667D01*
X12741709Y34883291D01*
X12715562Y34851431D01*
X12138573Y34274441D01*
X12106710Y34248291D01*
X12080562Y34216429D01*
X12002364Y34121145D01*
X11996148Y34109516D01*
X11981807Y34117182D01*
X11711308Y34199236D01*
X11430000Y34226943D01*
X11148691Y34199236D01*
X10878192Y34117182D01*
X10628899Y33983932D01*
X10410392Y33804607D01*
X10231068Y33586100D01*
X10160000Y33453142D01*
X10088932Y33586101D01*
X9909607Y33804608D01*
X9691100Y33983932D01*
X9441807Y34117182D01*
X9171308Y34199236D01*
X8890000Y34226943D01*
X8608691Y34199236D01*
X8338192Y34117182D01*
X8088899Y33983932D01*
X7870392Y33804607D01*
X7691068Y33586100D01*
X7620000Y33453142D01*
X7548932Y33586101D01*
X7369607Y33804608D01*
X7151100Y33983932D01*
X6901807Y34117182D01*
X6631308Y34199236D01*
X6350000Y34226943D01*
X6068691Y34199236D01*
X5798192Y34117182D01*
X5548899Y33983932D01*
X5330392Y33804607D01*
X5151068Y33586100D01*
X5080000Y33453142D01*
X5008932Y33586101D01*
X4829607Y33804608D01*
X4611100Y33983932D01*
X4361807Y34117182D01*
X4091308Y34199236D01*
X3810000Y34226943D01*
X3528691Y34199236D01*
X3258192Y34117182D01*
X3008899Y33983932D01*
X2790392Y33804607D01*
X2611068Y33586100D01*
X2524126Y33423444D01*
X2489165Y33420000D01*
X2489162Y33420000D01*
X2337105Y33405024D01*
X2187415Y33359615D01*
X2142006Y33345841D01*
X1962202Y33249734D01*
X1911250Y33207918D01*
X1804604Y33120396D01*
X1772193Y33080903D01*
X1209097Y32517807D01*
X1169604Y32485396D01*
X1040266Y32327797D01*
X944159Y32147992D01*
X884976Y31952894D01*
X870000Y31800837D01*
X870000Y31800828D01*
X864994Y31750000D01*
X870000Y31699172D01*
X870001Y20370848D01*
X864993Y20320000D01*
X660000Y20320000D01*
X660000Y38416411D01*
X15760000Y38416411D01*
X15760000Y38143589D01*
X15813225Y37876011D01*
X15917629Y37623957D01*
X16069201Y37397114D01*
X16262114Y37204201D01*
X16488957Y37052629D01*
X16741011Y36948225D01*
X17008589Y36895000D01*
X17281411Y36895000D01*
X17548989Y36948225D01*
X17801043Y37052629D01*
X18027886Y37204201D01*
X18220799Y37397114D01*
X18372371Y37623957D01*
X18476775Y37876011D01*
X18530000Y38143589D01*
X18530000Y38416411D01*
X18476775Y38683989D01*
X18372371Y38936043D01*
X18220799Y39162886D01*
X18027886Y39355799D01*
X17801043Y39507371D01*
X17548989Y39611775D01*
X17281411Y39665000D01*
X17008589Y39665000D01*
X16741011Y39611775D01*
X16488957Y39507371D01*
X16262114Y39355799D01*
X16069201Y39162886D01*
X15917629Y38936043D01*
X15813225Y38683989D01*
X15760000Y38416411D01*
X660000Y38416411D01*
X660000Y43316411D01*
X15760000Y43316411D01*
X15760000Y43043589D01*
X15813225Y42776011D01*
X15917629Y42523957D01*
X16069201Y42297114D01*
X16262114Y42104201D01*
X16488957Y41952629D01*
X16741011Y41848225D01*
X17008589Y41795000D01*
X17281411Y41795000D01*
X17548989Y41848225D01*
X17801043Y41952629D01*
X18027886Y42104201D01*
X18220799Y42297114D01*
X18372371Y42523957D01*
X18476775Y42776011D01*
X18530000Y43043589D01*
X18530000Y43316411D01*
X18476775Y43583989D01*
X18372371Y43836043D01*
X18220799Y44062886D01*
X18027886Y44255799D01*
X17801043Y44407371D01*
X17548989Y44511775D01*
X17281411Y44565000D01*
X17008589Y44565000D01*
X16741011Y44511775D01*
X16488957Y44407371D01*
X16262114Y44255799D01*
X16069201Y44062886D01*
X15917629Y43836043D01*
X15813225Y43583989D01*
X15760000Y43316411D01*
X660000Y43316411D01*
X660000Y45861335D01*
X18250000Y45861335D01*
X18250000Y45578665D01*
X18305147Y45301426D01*
X18413320Y45040273D01*
X18570363Y44805241D01*
X18770241Y44605363D01*
X19005273Y44448320D01*
X19266426Y44340147D01*
X19543665Y44285000D01*
X19826335Y44285000D01*
X20103574Y44340147D01*
X20198551Y44379488D01*
X21419783Y44379488D01*
X21461213Y44099870D01*
X21556397Y43833708D01*
X21623329Y43708486D01*
X21867298Y43636903D01*
X22680395Y44450000D01*
X23039605Y44450000D01*
X23852702Y43636903D01*
X24096671Y43708486D01*
X24217571Y43963996D01*
X24286300Y44238184D01*
X24300217Y44520512D01*
X24258787Y44800130D01*
X24163603Y45066292D01*
X24096671Y45191514D01*
X23897340Y45250000D01*
X24831928Y45250000D01*
X24835000Y44735750D01*
X24993750Y44577000D01*
X26543000Y44577000D01*
X26543000Y45726250D01*
X26797000Y45726250D01*
X26797000Y44577000D01*
X28346250Y44577000D01*
X28505000Y44735750D01*
X28508072Y45250000D01*
X28495812Y45374482D01*
X28459502Y45494180D01*
X28400537Y45604494D01*
X28321185Y45701185D01*
X28224494Y45780537D01*
X28114180Y45839502D01*
X27994482Y45875812D01*
X27870000Y45888072D01*
X26955750Y45885000D01*
X26797000Y45726250D01*
X26543000Y45726250D01*
X26384250Y45885000D01*
X25470000Y45888072D01*
X25345518Y45875812D01*
X25225820Y45839502D01*
X25115506Y45780537D01*
X25018815Y45701185D01*
X24939463Y45604494D01*
X24880498Y45494180D01*
X24844188Y45374482D01*
X24831928Y45250000D01*
X23897340Y45250000D01*
X23852702Y45263097D01*
X23039605Y44450000D01*
X22680395Y44450000D01*
X21867298Y45263097D01*
X21623329Y45191514D01*
X21502429Y44936004D01*
X21433700Y44661816D01*
X21419783Y44379488D01*
X20198551Y44379488D01*
X20364727Y44448320D01*
X20599759Y44605363D01*
X20799637Y44805241D01*
X20956680Y45040273D01*
X21064853Y45301426D01*
X21092954Y45442702D01*
X22046903Y45442702D01*
X22860000Y44629605D01*
X23673097Y45442702D01*
X23601514Y45686671D01*
X23346004Y45807571D01*
X23071816Y45876300D01*
X22789488Y45890217D01*
X22509870Y45848787D01*
X22243708Y45753603D01*
X22118486Y45686671D01*
X22046903Y45442702D01*
X21092954Y45442702D01*
X21120000Y45578665D01*
X21120000Y45861335D01*
X21064853Y46138574D01*
X20956680Y46399727D01*
X20799637Y46634759D01*
X20599759Y46834637D01*
X20364727Y46991680D01*
X20103574Y47099853D01*
X19826335Y47155000D01*
X19543665Y47155000D01*
X19266426Y47099853D01*
X19005273Y46991680D01*
X18770241Y46834637D01*
X18570363Y46634759D01*
X18413320Y46399727D01*
X18305147Y46138574D01*
X18250000Y45861335D01*
X660000Y45861335D01*
X660000Y48870000D01*
X75540001Y48870000D01*
X75540000Y660000D01*
%TA.AperFunction,Conductor*%
D25*
G36*
X75540000Y660000D02*
G01*
X660000Y660000D01*
X660000Y2146603D01*
X16931208Y2146603D01*
X17008843Y1897528D01*
X17272883Y1771629D01*
X17556411Y1699661D01*
X17848531Y1684389D01*
X18138019Y1726401D01*
X18413747Y1824081D01*
X18551157Y1897528D01*
X18628792Y2146603D01*
X17780000Y2995395D01*
X16931208Y2146603D01*
X660000Y2146603D01*
X660000Y3106469D01*
X16289389Y3106469D01*
X16331401Y2816981D01*
X16429081Y2541253D01*
X16502528Y2403843D01*
X16751603Y2326208D01*
X17600395Y3175000D01*
X16751603Y4023792D01*
X16502528Y3946157D01*
X16376629Y3682117D01*
X16304661Y3398589D01*
X16289389Y3106469D01*
X660000Y3106469D01*
X660000Y20320000D01*
X864993Y20320000D01*
X870001Y20269152D01*
X870000Y8940828D01*
X864994Y8890000D01*
X870000Y8839172D01*
X870000Y8839163D01*
X884976Y8687106D01*
X944159Y8492008D01*
X1040266Y8312203D01*
X1169604Y8154604D01*
X1209097Y8122193D01*
X4312197Y5019092D01*
X4344604Y4979604D01*
X4384092Y4947197D01*
X4502202Y4850266D01*
X4598309Y4798896D01*
X4682007Y4754159D01*
X4877105Y4694976D01*
X5029162Y4680000D01*
X5029171Y4680000D01*
X5079999Y4674994D01*
X5130827Y4680000D01*
X16714893Y4680000D01*
X16833368Y4561525D01*
X17006729Y4445689D01*
X16931208Y4203397D01*
X17780000Y3354605D01*
X18628792Y4203397D01*
X18553271Y4445689D01*
X18726632Y4561525D01*
X18933475Y4768368D01*
X19050000Y4942760D01*
X19166525Y4768368D01*
X19373368Y4561525D01*
X19547760Y4445000D01*
X19373368Y4328475D01*
X19166525Y4121632D01*
X19050689Y3948271D01*
X18808397Y4023792D01*
X17959605Y3175000D01*
X18808397Y2326208D01*
X19050689Y2401729D01*
X19166525Y2228368D01*
X19373368Y2021525D01*
X19616589Y1859010D01*
X19886842Y1747068D01*
X20173740Y1690000D01*
X20466260Y1690000D01*
X20753158Y1747068D01*
X21023411Y1859010D01*
X21266632Y2021525D01*
X21473475Y2228368D01*
X21590000Y2402760D01*
X21706525Y2228368D01*
X21913368Y2021525D01*
X22156589Y1859010D01*
X22426842Y1747068D01*
X22713740Y1690000D01*
X23006260Y1690000D01*
X23293158Y1747068D01*
X23563411Y1859010D01*
X23806632Y2021525D01*
X24013475Y2228368D01*
X24130000Y2402760D01*
X24246525Y2228368D01*
X24453368Y2021525D01*
X24696589Y1859010D01*
X24966842Y1747068D01*
X25253740Y1690000D01*
X25546260Y1690000D01*
X25833158Y1747068D01*
X26103411Y1859010D01*
X26346632Y2021525D01*
X26553475Y2228368D01*
X26670000Y2402760D01*
X26786525Y2228368D01*
X26993368Y2021525D01*
X27236589Y1859010D01*
X27506842Y1747068D01*
X27793740Y1690000D01*
X28086260Y1690000D01*
X28373158Y1747068D01*
X28643411Y1859010D01*
X28886632Y2021525D01*
X29093475Y2228368D01*
X29210000Y2402760D01*
X29326525Y2228368D01*
X29533368Y2021525D01*
X29776589Y1859010D01*
X30046842Y1747068D01*
X30333740Y1690000D01*
X30626260Y1690000D01*
X30913158Y1747068D01*
X31183411Y1859010D01*
X31426632Y2021525D01*
X31633475Y2228368D01*
X31750000Y2402760D01*
X31866525Y2228368D01*
X32073368Y2021525D01*
X32316589Y1859010D01*
X32586842Y1747068D01*
X32873740Y1690000D01*
X33166260Y1690000D01*
X33453158Y1747068D01*
X33723411Y1859010D01*
X33966632Y2021525D01*
X34173475Y2228368D01*
X34290000Y2402760D01*
X34406525Y2228368D01*
X34613368Y2021525D01*
X34856589Y1859010D01*
X35126842Y1747068D01*
X35413740Y1690000D01*
X35706260Y1690000D01*
X35993158Y1747068D01*
X36263411Y1859010D01*
X36506632Y2021525D01*
X36713475Y2228368D01*
X36830000Y2402760D01*
X36946525Y2228368D01*
X37153368Y2021525D01*
X37396589Y1859010D01*
X37666842Y1747068D01*
X37953740Y1690000D01*
X38246260Y1690000D01*
X38533158Y1747068D01*
X38803411Y1859010D01*
X39046632Y2021525D01*
X39253475Y2228368D01*
X39370000Y2402760D01*
X39486525Y2228368D01*
X39693368Y2021525D01*
X39936589Y1859010D01*
X40206842Y1747068D01*
X40493740Y1690000D01*
X40786260Y1690000D01*
X41073158Y1747068D01*
X41343411Y1859010D01*
X41586632Y2021525D01*
X41793475Y2228368D01*
X41910000Y2402760D01*
X42026525Y2228368D01*
X42233368Y2021525D01*
X42476589Y1859010D01*
X42746842Y1747068D01*
X43033740Y1690000D01*
X43326260Y1690000D01*
X43613158Y1747068D01*
X43883411Y1859010D01*
X44126632Y2021525D01*
X44333475Y2228368D01*
X44450000Y2402760D01*
X44566525Y2228368D01*
X44773368Y2021525D01*
X45016589Y1859010D01*
X45286842Y1747068D01*
X45573740Y1690000D01*
X45866260Y1690000D01*
X46153158Y1747068D01*
X46423411Y1859010D01*
X46666632Y2021525D01*
X46873475Y2228368D01*
X46990000Y2402760D01*
X47106525Y2228368D01*
X47313368Y2021525D01*
X47556589Y1859010D01*
X47826842Y1747068D01*
X48113740Y1690000D01*
X48406260Y1690000D01*
X48693158Y1747068D01*
X48963411Y1859010D01*
X49206632Y2021525D01*
X49413475Y2228368D01*
X49530000Y2402760D01*
X49646525Y2228368D01*
X49853368Y2021525D01*
X50096589Y1859010D01*
X50366842Y1747068D01*
X50653740Y1690000D01*
X50946260Y1690000D01*
X51233158Y1747068D01*
X51503411Y1859010D01*
X51746632Y2021525D01*
X51953475Y2228368D01*
X52070000Y2402760D01*
X52186525Y2228368D01*
X52393368Y2021525D01*
X52636589Y1859010D01*
X52906842Y1747068D01*
X53193740Y1690000D01*
X53486260Y1690000D01*
X53773158Y1747068D01*
X54043411Y1859010D01*
X54286632Y2021525D01*
X54493475Y2228368D01*
X54610000Y2402760D01*
X54726525Y2228368D01*
X54933368Y2021525D01*
X55176589Y1859010D01*
X55446842Y1747068D01*
X55733740Y1690000D01*
X56026260Y1690000D01*
X56313158Y1747068D01*
X56583411Y1859010D01*
X56826632Y2021525D01*
X57033475Y2228368D01*
X57150000Y2402760D01*
X57266525Y2228368D01*
X57473368Y2021525D01*
X57716589Y1859010D01*
X57986842Y1747068D01*
X58273740Y1690000D01*
X58566260Y1690000D01*
X58853158Y1747068D01*
X59123411Y1859010D01*
X59366632Y2021525D01*
X59573475Y2228368D01*
X59735990Y2471589D01*
X59847932Y2741842D01*
X59905000Y3028740D01*
X59905000Y3321260D01*
X59847932Y3608158D01*
X59735990Y3878411D01*
X59573475Y4121632D01*
X59386392Y4308715D01*
X59513386Y4376595D01*
X59647962Y4487038D01*
X59758405Y4621614D01*
X59840472Y4775150D01*
X59891008Y4941746D01*
X59908072Y5115000D01*
X59908072Y6315000D01*
X59891008Y6488254D01*
X59840472Y6654850D01*
X59758405Y6808386D01*
X59647962Y6942962D01*
X59513386Y7053405D01*
X59359850Y7135472D01*
X59193254Y7186008D01*
X59020000Y7203072D01*
X57820000Y7203072D01*
X57646746Y7186008D01*
X57480150Y7135472D01*
X57326614Y7053405D01*
X57192038Y6942962D01*
X57081595Y6808386D01*
X57013715Y6681392D01*
X56826632Y6868475D01*
X56583411Y7030990D01*
X56313158Y7142932D01*
X56026260Y7200000D01*
X55733740Y7200000D01*
X55446842Y7142932D01*
X55176589Y7030990D01*
X54933368Y6868475D01*
X54726525Y6661632D01*
X54610000Y6487240D01*
X54493475Y6661632D01*
X54286632Y6868475D01*
X54175000Y6943065D01*
X54175000Y6943982D01*
X54179040Y6985000D01*
X54162918Y7148688D01*
X54150678Y7189040D01*
X54115172Y7306087D01*
X54037636Y7451146D01*
X53933291Y7578291D01*
X53901431Y7604438D01*
X53415867Y8090000D01*
X53481335Y8090000D01*
X53758574Y8145147D01*
X54019727Y8253320D01*
X54254759Y8410363D01*
X54454637Y8610241D01*
X54611680Y8845273D01*
X54719853Y9106426D01*
X54775000Y9383665D01*
X54775000Y9666335D01*
X54741490Y9834800D01*
X57017197Y7559092D01*
X57049604Y7519604D01*
X57089092Y7487197D01*
X57207202Y7390266D01*
X57303309Y7338896D01*
X57387007Y7294159D01*
X57582105Y7234976D01*
X57734162Y7220000D01*
X57734165Y7220000D01*
X57785000Y7214993D01*
X57835835Y7220000D01*
X62101047Y7220000D01*
X62256324Y7116247D01*
X62490179Y7019381D01*
X62738439Y6970000D01*
X62991561Y6970000D01*
X63239821Y7019381D01*
X63473676Y7116247D01*
X63684140Y7256875D01*
X63863125Y7435860D01*
X64003753Y7646324D01*
X64100619Y7880179D01*
X64150000Y8128439D01*
X64150000Y8381561D01*
X64100619Y8629821D01*
X64003753Y8863676D01*
X63863125Y9074140D01*
X63684140Y9253125D01*
X63473676Y9393753D01*
X63239821Y9490619D01*
X62991561Y9540000D01*
X62738439Y9540000D01*
X62490179Y9490619D01*
X62256324Y9393753D01*
X62101047Y9290000D01*
X58213711Y9290000D01*
X54742807Y12760903D01*
X54710396Y12800396D01*
X54552797Y12929734D01*
X54468948Y12974552D01*
X54549637Y13055241D01*
X54706680Y13290273D01*
X54814853Y13551426D01*
X54870000Y13828665D01*
X54870000Y13899488D01*
X59424783Y13899488D01*
X59466213Y13619870D01*
X59561397Y13353708D01*
X59628329Y13228486D01*
X59872298Y13156903D01*
X60685395Y13970000D01*
X59872298Y14783097D01*
X59628329Y14711514D01*
X59507429Y14456004D01*
X59438700Y14181816D01*
X59424783Y13899488D01*
X54870000Y13899488D01*
X54870000Y14111335D01*
X54814853Y14388574D01*
X54706680Y14649727D01*
X54549637Y14884759D01*
X54349759Y15084637D01*
X54114727Y15241680D01*
X53853574Y15349853D01*
X53576335Y15405000D01*
X53293665Y15405000D01*
X53016426Y15349853D01*
X52755273Y15241680D01*
X52699790Y15204607D01*
X52686185Y15221185D01*
X52589494Y15300537D01*
X52479180Y15359502D01*
X52359482Y15395812D01*
X52235000Y15408072D01*
X51720750Y15405000D01*
X51562000Y15246250D01*
X51562000Y14097000D01*
X51582000Y14097000D01*
X51582000Y13843000D01*
X51562000Y13843000D01*
X51562000Y13823000D01*
X51308000Y13823000D01*
X51308000Y13843000D01*
X50158750Y13843000D01*
X50000000Y13684250D01*
X49996928Y13170000D01*
X50003822Y13100000D01*
X44500835Y13100000D01*
X44450000Y13105007D01*
X44399165Y13100000D01*
X44399162Y13100000D01*
X44247105Y13085024D01*
X44116873Y13045518D01*
X44052006Y13025841D01*
X43872202Y12929734D01*
X43811121Y12879605D01*
X43714604Y12800396D01*
X43682193Y12760903D01*
X43386290Y12465000D01*
X43310853Y12465000D01*
X43111101Y12628932D01*
X42978142Y12700000D01*
X43111101Y12771068D01*
X43329608Y12950392D01*
X43508932Y13168899D01*
X43642182Y13418192D01*
X43724236Y13688691D01*
X43751943Y13970000D01*
X43724236Y14251309D01*
X43642182Y14521808D01*
X43509521Y14770000D01*
X49996928Y14770000D01*
X50000000Y14255750D01*
X50158750Y14097000D01*
X51308000Y14097000D01*
X51308000Y15246250D01*
X51149250Y15405000D01*
X50635000Y15408072D01*
X50510518Y15395812D01*
X50390820Y15359502D01*
X50280506Y15300537D01*
X50183815Y15221185D01*
X50104463Y15124494D01*
X50045498Y15014180D01*
X50009188Y14894482D01*
X49996928Y14770000D01*
X43509521Y14770000D01*
X43508932Y14771101D01*
X43329608Y14989608D01*
X43111101Y15168932D01*
X42978142Y15240000D01*
X43111101Y15311068D01*
X43329608Y15490392D01*
X43508932Y15708899D01*
X43642182Y15958192D01*
X43724236Y16228691D01*
X43751943Y16510000D01*
X43724236Y16791309D01*
X43677615Y16945000D01*
X45043982Y16945000D01*
X45085000Y16940960D01*
X45126018Y16945000D01*
X45126019Y16945000D01*
X45248689Y16957082D01*
X45406087Y17004828D01*
X45551146Y17082364D01*
X45678291Y17186709D01*
X45704445Y17218578D01*
X46281431Y17795562D01*
X46313291Y17821709D01*
X46417636Y17948854D01*
X46495172Y18093913D01*
X46542918Y18251311D01*
X46555000Y18373981D01*
X46555000Y18373982D01*
X46559040Y18415000D01*
X46555000Y18456018D01*
X46555000Y21244133D01*
X47335868Y22025000D01*
X48397385Y22025000D01*
X48350764Y21871309D01*
X48323057Y21590000D01*
X48350764Y21308691D01*
X48432818Y21038192D01*
X48566068Y20788899D01*
X48745392Y20570392D01*
X48963899Y20391068D01*
X49096858Y20320000D01*
X48963899Y20248932D01*
X48745392Y20069608D01*
X48566068Y19851101D01*
X48432818Y19601808D01*
X48350764Y19331309D01*
X48323057Y19050000D01*
X48350764Y18768691D01*
X48432818Y18498192D01*
X48566068Y18248899D01*
X48745392Y18030392D01*
X48963899Y17851068D01*
X49213192Y17717818D01*
X49483691Y17635764D01*
X49694508Y17615000D01*
X50635492Y17615000D01*
X50846309Y17635764D01*
X51116808Y17717818D01*
X51366101Y17851068D01*
X51584608Y18030392D01*
X51763932Y18248899D01*
X51897182Y18498192D01*
X51979236Y18768691D01*
X52006943Y19050000D01*
X51979236Y19331309D01*
X51897182Y19601808D01*
X51763932Y19851101D01*
X51584608Y20069608D01*
X51366101Y20248932D01*
X51233142Y20320000D01*
X51366101Y20391068D01*
X51584608Y20570392D01*
X51654044Y20655000D01*
X51682711Y20655000D01*
X55821374Y16516336D01*
X55850656Y16480656D01*
X55993028Y16363814D01*
X56155460Y16276993D01*
X56278243Y16239747D01*
X56331707Y16223529D01*
X56514999Y16205476D01*
X56560931Y16210000D01*
X60279068Y16210000D01*
X60325000Y16205476D01*
X60370932Y16210000D01*
X60508292Y16223529D01*
X60684540Y16276993D01*
X60846972Y16363814D01*
X60989344Y16480656D01*
X61018630Y16516341D01*
X61588660Y17086371D01*
X61624344Y17115656D01*
X61741186Y17258028D01*
X61826091Y17416875D01*
X61828007Y17420459D01*
X61830000Y17427030D01*
X61830001Y15362287D01*
X61820820Y15359502D01*
X61710506Y15300537D01*
X61613815Y15221185D01*
X61603193Y15208242D01*
X61351004Y15327571D01*
X61076816Y15396300D01*
X60794488Y15410217D01*
X60514870Y15368787D01*
X60248708Y15273603D01*
X60123486Y15206671D01*
X60051903Y14962702D01*
X60865000Y14149605D01*
X60879143Y14163747D01*
X61058748Y13984142D01*
X61044605Y13970000D01*
X61058748Y13955857D01*
X60879143Y13776252D01*
X60865000Y13790395D01*
X60051903Y12977298D01*
X60123486Y12733329D01*
X60378996Y12612429D01*
X60653184Y12543700D01*
X60935512Y12529783D01*
X61215130Y12571213D01*
X61481292Y12666397D01*
X61603309Y12731616D01*
X61613815Y12718815D01*
X61710506Y12639463D01*
X61820820Y12580498D01*
X61940518Y12544188D01*
X62065000Y12531928D01*
X63665000Y12531928D01*
X63789482Y12544188D01*
X63909180Y12580498D01*
X64019494Y12639463D01*
X64116185Y12718815D01*
X64195537Y12815506D01*
X64254502Y12925820D01*
X64290812Y13045518D01*
X64303072Y13170000D01*
X64303072Y14770000D01*
X64290812Y14894482D01*
X64254502Y15014180D01*
X64195537Y15124494D01*
X64116185Y15221185D01*
X64019494Y15300537D01*
X63909180Y15359502D01*
X63900000Y15362287D01*
X63900000Y18621290D01*
X64195903Y18917193D01*
X64235396Y18949604D01*
X64317789Y19050000D01*
X64364734Y19107202D01*
X64460841Y19287006D01*
X64485468Y19368192D01*
X64520024Y19482105D01*
X64535000Y19634162D01*
X64535000Y19634165D01*
X64540007Y19685000D01*
X64535000Y19735835D01*
X64535000Y20604525D01*
X64548000Y20604525D01*
X64548000Y20085475D01*
X64649261Y19576399D01*
X64847893Y19096859D01*
X65136262Y18665285D01*
X65503285Y18298262D01*
X65934859Y18009893D01*
X66414399Y17811261D01*
X66923475Y17710000D01*
X67442525Y17710000D01*
X67951601Y17811261D01*
X68431141Y18009893D01*
X68862715Y18298262D01*
X69229738Y18665285D01*
X69518107Y19096859D01*
X69716739Y19576399D01*
X69818000Y20085475D01*
X69818000Y20604525D01*
X69716739Y21113601D01*
X69518107Y21593141D01*
X69229738Y22024715D01*
X68862715Y22391738D01*
X68431141Y22680107D01*
X67951601Y22878739D01*
X67442525Y22980000D01*
X66923475Y22980000D01*
X66414399Y22878739D01*
X65934859Y22680107D01*
X65503285Y22391738D01*
X65136262Y22024715D01*
X64847893Y21593141D01*
X64649261Y21113601D01*
X64548000Y20604525D01*
X64535000Y20604525D01*
X64535000Y25873822D01*
X64605000Y25866928D01*
X66205000Y25866928D01*
X66329482Y25879188D01*
X66449180Y25915498D01*
X66559494Y25974463D01*
X66656185Y26053815D01*
X66735537Y26150506D01*
X66794502Y26260820D01*
X66830812Y26380518D01*
X66843072Y26505000D01*
X66843072Y28105000D01*
X66830812Y28229482D01*
X66794502Y28349180D01*
X66735537Y28459494D01*
X66656185Y28556185D01*
X66559494Y28635537D01*
X66449180Y28694502D01*
X66329482Y28730812D01*
X66205000Y28743072D01*
X65939275Y28743072D01*
X66084727Y28803320D01*
X66319759Y28960363D01*
X66519637Y29160241D01*
X66676680Y29395273D01*
X66784853Y29656426D01*
X66840000Y29933665D01*
X66840000Y30216335D01*
X66784853Y30493574D01*
X66676680Y30754727D01*
X66519637Y30989759D01*
X66319759Y31189637D01*
X66084727Y31346680D01*
X65823574Y31454853D01*
X65797699Y31460000D01*
X65823574Y31465147D01*
X66084727Y31573320D01*
X66319759Y31730363D01*
X66519637Y31930241D01*
X66676680Y32165273D01*
X66784853Y32426426D01*
X66840000Y32703665D01*
X66840000Y32986335D01*
X66784853Y33263574D01*
X66676680Y33524727D01*
X66519637Y33759759D01*
X66319759Y33959637D01*
X66084727Y34116680D01*
X65823574Y34224853D01*
X65797699Y34230000D01*
X65823574Y34235147D01*
X66084727Y34343320D01*
X66319759Y34500363D01*
X66519637Y34700241D01*
X66676680Y34935273D01*
X66784853Y35196426D01*
X66840000Y35473665D01*
X66840000Y35756335D01*
X66784853Y36033574D01*
X66676680Y36294727D01*
X66519637Y36529759D01*
X66319759Y36729637D01*
X66084727Y36886680D01*
X65823574Y36994853D01*
X65795118Y37000513D01*
X66021292Y37081397D01*
X66133429Y37141335D01*
X66810000Y37141335D01*
X66810000Y36858665D01*
X66865147Y36581426D01*
X66973320Y36320273D01*
X67130363Y36085241D01*
X67330241Y35885363D01*
X67565273Y35728320D01*
X67826426Y35620147D01*
X67852301Y35615000D01*
X67826426Y35609853D01*
X67565273Y35501680D01*
X67330241Y35344637D01*
X67130363Y35144759D01*
X66973320Y34909727D01*
X66865147Y34648574D01*
X66810000Y34371335D01*
X66810000Y34088665D01*
X66865147Y33811426D01*
X66973320Y33550273D01*
X67130363Y33315241D01*
X67330241Y33115363D01*
X67565273Y32958320D01*
X67826426Y32850147D01*
X67852301Y32845000D01*
X67826426Y32839853D01*
X67565273Y32731680D01*
X67330241Y32574637D01*
X67130363Y32374759D01*
X66973320Y32139727D01*
X66865147Y31878574D01*
X66810000Y31601335D01*
X66810000Y31318665D01*
X66865147Y31041426D01*
X66973320Y30780273D01*
X67130363Y30545241D01*
X67330241Y30345363D01*
X67565273Y30188320D01*
X67826426Y30080147D01*
X67852301Y30075000D01*
X67826426Y30069853D01*
X67565273Y29961680D01*
X67330241Y29804637D01*
X67130363Y29604759D01*
X66973320Y29369727D01*
X66865147Y29108574D01*
X66810000Y28831335D01*
X66810000Y28548665D01*
X66865147Y28271426D01*
X66973320Y28010273D01*
X67130363Y27775241D01*
X67330241Y27575363D01*
X67565273Y27418320D01*
X67826426Y27310147D01*
X68103665Y27255000D01*
X68386335Y27255000D01*
X68663574Y27310147D01*
X68924727Y27418320D01*
X69159759Y27575363D01*
X69359637Y27775241D01*
X69516680Y28010273D01*
X69624853Y28271426D01*
X69680000Y28548665D01*
X69680000Y28831335D01*
X69624853Y29108574D01*
X69516680Y29369727D01*
X69359637Y29604759D01*
X69159759Y29804637D01*
X68924727Y29961680D01*
X68663574Y30069853D01*
X68637699Y30075000D01*
X68663574Y30080147D01*
X68924727Y30188320D01*
X69159759Y30345363D01*
X69359637Y30545241D01*
X69516680Y30780273D01*
X69624853Y31041426D01*
X69680000Y31318665D01*
X69680000Y31601335D01*
X69624853Y31878574D01*
X69516680Y32139727D01*
X69359637Y32374759D01*
X69159759Y32574637D01*
X68924727Y32731680D01*
X68663574Y32839853D01*
X68637699Y32845000D01*
X68663574Y32850147D01*
X68924727Y32958320D01*
X69159759Y33115363D01*
X69359637Y33315241D01*
X69516680Y33550273D01*
X69624853Y33811426D01*
X69680000Y34088665D01*
X69680000Y34371335D01*
X69624853Y34648574D01*
X69516680Y34909727D01*
X69359637Y35144759D01*
X69159759Y35344637D01*
X68924727Y35501680D01*
X68663574Y35609853D01*
X68637699Y35615000D01*
X68663574Y35620147D01*
X68924727Y35728320D01*
X69159759Y35885363D01*
X69359637Y36085241D01*
X69516680Y36320273D01*
X69624853Y36581426D01*
X69680000Y36858665D01*
X69680000Y37141335D01*
X69624853Y37418574D01*
X69516680Y37679727D01*
X69359637Y37914759D01*
X69159759Y38114637D01*
X68924727Y38271680D01*
X68663574Y38379853D01*
X68386335Y38435000D01*
X68103665Y38435000D01*
X67826426Y38379853D01*
X67565273Y38271680D01*
X67330241Y38114637D01*
X67130363Y37914759D01*
X66973320Y37679727D01*
X66865147Y37418574D01*
X66810000Y37141335D01*
X66133429Y37141335D01*
X66146514Y37148329D01*
X66218097Y37392298D01*
X65405000Y38205395D01*
X64591903Y37392298D01*
X64663486Y37148329D01*
X64918996Y37027429D01*
X65021289Y37001788D01*
X64986426Y36994853D01*
X64725273Y36886680D01*
X64490241Y36729637D01*
X64290363Y36529759D01*
X64133320Y36294727D01*
X64025147Y36033574D01*
X63970000Y35756335D01*
X63970000Y35473665D01*
X64017167Y35236544D01*
X61727807Y37525903D01*
X61695396Y37565396D01*
X61537797Y37694734D01*
X61357993Y37790841D01*
X61162895Y37850024D01*
X61010838Y37865000D01*
X61010828Y37865000D01*
X60960000Y37870006D01*
X60909172Y37865000D01*
X59185853Y37865000D01*
X58986101Y38028932D01*
X58820000Y38117715D01*
X58820000Y38314488D01*
X63964783Y38314488D01*
X64006213Y38034870D01*
X64101397Y37768708D01*
X64168329Y37643486D01*
X64412298Y37571903D01*
X65225395Y38385000D01*
X65584605Y38385000D01*
X66397702Y37571903D01*
X66641671Y37643486D01*
X66762571Y37898996D01*
X66831300Y38173184D01*
X66845217Y38455512D01*
X66803787Y38735130D01*
X66708603Y39001292D01*
X66641671Y39126514D01*
X66397702Y39198097D01*
X65584605Y38385000D01*
X65225395Y38385000D01*
X64412298Y39198097D01*
X64168329Y39126514D01*
X64047429Y38871004D01*
X63978700Y38596816D01*
X63964783Y38314488D01*
X58820000Y38314488D01*
X58820000Y39377702D01*
X64591903Y39377702D01*
X65405000Y38564605D01*
X66218097Y39377702D01*
X66146514Y39621671D01*
X65891004Y39742571D01*
X65616816Y39811300D01*
X65334488Y39825217D01*
X65054870Y39783787D01*
X64788708Y39688603D01*
X64663486Y39621671D01*
X64591903Y39377702D01*
X58820000Y39377702D01*
X58820000Y39954173D01*
X58825006Y40005001D01*
X58820000Y40055829D01*
X58820000Y40055838D01*
X58805024Y40207895D01*
X58745841Y40402993D01*
X58656496Y40570147D01*
X58649734Y40582798D01*
X58552803Y40700908D01*
X58520396Y40740396D01*
X58480908Y40772803D01*
X57550000Y41703710D01*
X57550000Y43980000D01*
X57616928Y43980000D01*
X57616928Y42380000D01*
X57629188Y42255518D01*
X57665498Y42135820D01*
X57724463Y42025506D01*
X57803815Y41928815D01*
X57900506Y41849463D01*
X58010820Y41790498D01*
X58130518Y41754188D01*
X58255000Y41741928D01*
X59855000Y41741928D01*
X59979482Y41754188D01*
X60099180Y41790498D01*
X60209494Y41849463D01*
X60306185Y41928815D01*
X60319790Y41945393D01*
X60375273Y41908320D01*
X60636426Y41800147D01*
X60913665Y41745000D01*
X61196335Y41745000D01*
X61473574Y41800147D01*
X61734727Y41908320D01*
X61969759Y42065363D01*
X62169637Y42265241D01*
X62326680Y42500273D01*
X62434853Y42761426D01*
X62490000Y43038665D01*
X62490000Y43321335D01*
X62434853Y43598574D01*
X62326680Y43859727D01*
X62169637Y44094759D01*
X61969759Y44294637D01*
X61734727Y44451680D01*
X61473574Y44559853D01*
X61196335Y44615000D01*
X60913665Y44615000D01*
X60636426Y44559853D01*
X60375273Y44451680D01*
X60319790Y44414607D01*
X60306185Y44431185D01*
X60209494Y44510537D01*
X60099180Y44569502D01*
X59979482Y44605812D01*
X59855000Y44618072D01*
X58255000Y44618072D01*
X58130518Y44605812D01*
X58010820Y44569502D01*
X57900506Y44510537D01*
X57803815Y44431185D01*
X57724463Y44334494D01*
X57665498Y44224180D01*
X57629188Y44104482D01*
X57616928Y43980000D01*
X57550000Y43980000D01*
X57550000Y45598525D01*
X64548000Y45598525D01*
X64548000Y45079475D01*
X64649261Y44570399D01*
X64847893Y44090859D01*
X65136262Y43659285D01*
X65503285Y43292262D01*
X65934859Y43003893D01*
X66414399Y42805261D01*
X66923475Y42704000D01*
X67442525Y42704000D01*
X67951601Y42805261D01*
X68431141Y43003893D01*
X68862715Y43292262D01*
X69229738Y43659285D01*
X69518107Y44090859D01*
X69716739Y44570399D01*
X69818000Y45079475D01*
X69818000Y45598525D01*
X69716739Y46107601D01*
X69518107Y46587141D01*
X69229738Y47018715D01*
X68862715Y47385738D01*
X68431141Y47674107D01*
X67951601Y47872739D01*
X67442525Y47974000D01*
X66923475Y47974000D01*
X66414399Y47872739D01*
X65934859Y47674107D01*
X65503285Y47385738D01*
X65136262Y47018715D01*
X64847893Y46587141D01*
X64649261Y46107601D01*
X64548000Y45598525D01*
X57550000Y45598525D01*
X57550000Y45669173D01*
X57555006Y45720001D01*
X57550000Y45770829D01*
X57550000Y45770838D01*
X57535024Y45922895D01*
X57475841Y46117993D01*
X57402821Y46254604D01*
X57379734Y46297798D01*
X57282803Y46415908D01*
X57250396Y46455396D01*
X57210908Y46487803D01*
X56012807Y47685903D01*
X55980396Y47725396D01*
X55822797Y47854734D01*
X55642993Y47950841D01*
X55447895Y48010024D01*
X55295838Y48025000D01*
X55295828Y48025000D01*
X55245000Y48030006D01*
X55194172Y48025000D01*
X35610835Y48025000D01*
X35560000Y48030007D01*
X35509164Y48025000D01*
X35509162Y48025000D01*
X35357105Y48010024D01*
X35162007Y47950841D01*
X35078309Y47906104D01*
X34982202Y47854734D01*
X34864092Y47757803D01*
X34824604Y47725396D01*
X34792197Y47685908D01*
X30051290Y42945000D01*
X28070853Y42945000D01*
X27976518Y43022419D01*
X27994482Y43024188D01*
X28114180Y43060498D01*
X28224494Y43119463D01*
X28321185Y43198815D01*
X28400537Y43295506D01*
X28459502Y43405820D01*
X28495812Y43525518D01*
X28508072Y43650000D01*
X28505000Y44164250D01*
X28346250Y44323000D01*
X26797000Y44323000D01*
X26797000Y44303000D01*
X26543000Y44303000D01*
X26543000Y44323000D01*
X24993750Y44323000D01*
X24835000Y44164250D01*
X24831928Y43650000D01*
X24844188Y43525518D01*
X24880498Y43405820D01*
X24939463Y43295506D01*
X25018815Y43198815D01*
X25115506Y43119463D01*
X25225820Y43060498D01*
X25345518Y43024188D01*
X25363482Y43022419D01*
X25250392Y42929608D01*
X25071068Y42711101D01*
X24937818Y42461808D01*
X24855764Y42191309D01*
X24828057Y41910000D01*
X24855764Y41628691D01*
X24937818Y41358192D01*
X25071068Y41108899D01*
X25250392Y40890392D01*
X25468899Y40711068D01*
X25601858Y40640000D01*
X25468899Y40568932D01*
X25250392Y40389608D01*
X25071068Y40171101D01*
X24937818Y39921808D01*
X24855764Y39651309D01*
X24828057Y39370000D01*
X24829233Y39358056D01*
X23795000Y40392289D01*
X23795000Y40855604D01*
X23974637Y41035241D01*
X24131680Y41270273D01*
X24239853Y41531426D01*
X24295000Y41808665D01*
X24295000Y42091335D01*
X24239853Y42368574D01*
X24131680Y42629727D01*
X23974637Y42864759D01*
X23774759Y43064637D01*
X23574131Y43198692D01*
X23601514Y43213329D01*
X23673097Y43457298D01*
X22860000Y44270395D01*
X22046903Y43457298D01*
X22118486Y43213329D01*
X22147341Y43199676D01*
X21945241Y43064637D01*
X21745363Y42864759D01*
X21588320Y42629727D01*
X21480147Y42368574D01*
X21425000Y42091335D01*
X21425000Y41808665D01*
X21480147Y41531426D01*
X21588320Y41270273D01*
X21745363Y41035241D01*
X21925000Y40855604D01*
X21925000Y40050932D01*
X21920476Y40005000D01*
X21925000Y39959069D01*
X21938529Y39821709D01*
X21991993Y39645461D01*
X22078814Y39483029D01*
X22195656Y39340656D01*
X22231341Y39311370D01*
X23830001Y37712710D01*
X23830000Y33065932D01*
X23825476Y33020000D01*
X23830000Y32974069D01*
X23843529Y32836709D01*
X23861313Y32778083D01*
X23774759Y32864637D01*
X23539727Y33021680D01*
X23278574Y33129853D01*
X23001335Y33185000D01*
X22718665Y33185000D01*
X22441426Y33129853D01*
X22180273Y33021680D01*
X21945241Y32864637D01*
X21890000Y32809396D01*
X21890000Y34244069D01*
X21894524Y34290001D01*
X21876471Y34473293D01*
X21846738Y34571309D01*
X21823007Y34649540D01*
X21736186Y34811972D01*
X21619344Y34954344D01*
X21583665Y34983625D01*
X21120000Y35447290D01*
X21120000Y35701335D01*
X21064853Y35978574D01*
X20956680Y36239727D01*
X20799637Y36474759D01*
X20599759Y36674637D01*
X20364727Y36831680D01*
X20103574Y36939853D01*
X19826335Y36995000D01*
X19543665Y36995000D01*
X19266426Y36939853D01*
X19005273Y36831680D01*
X18770241Y36674637D01*
X18570363Y36474759D01*
X18413320Y36239727D01*
X18305147Y35978574D01*
X18250000Y35701335D01*
X18250000Y35418665D01*
X18305147Y35141426D01*
X18413320Y34880273D01*
X18499355Y34751512D01*
X18399446Y34851421D01*
X18373291Y34883291D01*
X18246146Y34987636D01*
X18101087Y35065172D01*
X17943689Y35112918D01*
X17821019Y35125000D01*
X17821018Y35125000D01*
X17780000Y35129040D01*
X17738982Y35125000D01*
X13376018Y35125000D01*
X13335000Y35129040D01*
X13293982Y35125000D01*
X13293981Y35125000D01*
X13171311Y35112918D01*
X13108472Y35093856D01*
X13013913Y35065172D01*
X12868854Y34987636D01*
X12784815Y34918667D01*
X12741709Y34883291D01*
X12715562Y34851431D01*
X12138573Y34274441D01*
X12106710Y34248291D01*
X12080562Y34216429D01*
X12002364Y34121145D01*
X11996148Y34109516D01*
X11981807Y34117182D01*
X11711308Y34199236D01*
X11430000Y34226943D01*
X11148691Y34199236D01*
X10878192Y34117182D01*
X10628899Y33983932D01*
X10410392Y33804607D01*
X10231068Y33586100D01*
X10160000Y33453142D01*
X10088932Y33586101D01*
X9909607Y33804608D01*
X9691100Y33983932D01*
X9441807Y34117182D01*
X9171308Y34199236D01*
X8890000Y34226943D01*
X8608691Y34199236D01*
X8338192Y34117182D01*
X8088899Y33983932D01*
X7870392Y33804607D01*
X7691068Y33586100D01*
X7620000Y33453142D01*
X7548932Y33586101D01*
X7369607Y33804608D01*
X7151100Y33983932D01*
X6901807Y34117182D01*
X6631308Y34199236D01*
X6350000Y34226943D01*
X6068691Y34199236D01*
X5798192Y34117182D01*
X5548899Y33983932D01*
X5330392Y33804607D01*
X5151068Y33586100D01*
X5080000Y33453142D01*
X5008932Y33586101D01*
X4829607Y33804608D01*
X4611100Y33983932D01*
X4361807Y34117182D01*
X4091308Y34199236D01*
X3810000Y34226943D01*
X3528691Y34199236D01*
X3258192Y34117182D01*
X3008899Y33983932D01*
X2790392Y33804607D01*
X2611068Y33586100D01*
X2524126Y33423444D01*
X2489165Y33420000D01*
X2489162Y33420000D01*
X2337105Y33405024D01*
X2187415Y33359615D01*
X2142006Y33345841D01*
X1962202Y33249734D01*
X1911250Y33207918D01*
X1804604Y33120396D01*
X1772193Y33080903D01*
X1209097Y32517807D01*
X1169604Y32485396D01*
X1040266Y32327797D01*
X944159Y32147992D01*
X884976Y31952894D01*
X870000Y31800837D01*
X870000Y31800828D01*
X864994Y31750000D01*
X870000Y31699172D01*
X870001Y20370848D01*
X864993Y20320000D01*
X660000Y20320000D01*
X660000Y38416411D01*
X15760000Y38416411D01*
X15760000Y38143589D01*
X15813225Y37876011D01*
X15917629Y37623957D01*
X16069201Y37397114D01*
X16262114Y37204201D01*
X16488957Y37052629D01*
X16741011Y36948225D01*
X17008589Y36895000D01*
X17281411Y36895000D01*
X17548989Y36948225D01*
X17801043Y37052629D01*
X18027886Y37204201D01*
X18220799Y37397114D01*
X18372371Y37623957D01*
X18476775Y37876011D01*
X18530000Y38143589D01*
X18530000Y38416411D01*
X18476775Y38683989D01*
X18372371Y38936043D01*
X18220799Y39162886D01*
X18027886Y39355799D01*
X17801043Y39507371D01*
X17548989Y39611775D01*
X17281411Y39665000D01*
X17008589Y39665000D01*
X16741011Y39611775D01*
X16488957Y39507371D01*
X16262114Y39355799D01*
X16069201Y39162886D01*
X15917629Y38936043D01*
X15813225Y38683989D01*
X15760000Y38416411D01*
X660000Y38416411D01*
X660000Y43316411D01*
X15760000Y43316411D01*
X15760000Y43043589D01*
X15813225Y42776011D01*
X15917629Y42523957D01*
X16069201Y42297114D01*
X16262114Y42104201D01*
X16488957Y41952629D01*
X16741011Y41848225D01*
X17008589Y41795000D01*
X17281411Y41795000D01*
X17548989Y41848225D01*
X17801043Y41952629D01*
X18027886Y42104201D01*
X18220799Y42297114D01*
X18372371Y42523957D01*
X18476775Y42776011D01*
X18530000Y43043589D01*
X18530000Y43316411D01*
X18476775Y43583989D01*
X18372371Y43836043D01*
X18220799Y44062886D01*
X18027886Y44255799D01*
X17801043Y44407371D01*
X17548989Y44511775D01*
X17281411Y44565000D01*
X17008589Y44565000D01*
X16741011Y44511775D01*
X16488957Y44407371D01*
X16262114Y44255799D01*
X16069201Y44062886D01*
X15917629Y43836043D01*
X15813225Y43583989D01*
X15760000Y43316411D01*
X660000Y43316411D01*
X660000Y45861335D01*
X18250000Y45861335D01*
X18250000Y45578665D01*
X18305147Y45301426D01*
X18413320Y45040273D01*
X18570363Y44805241D01*
X18770241Y44605363D01*
X19005273Y44448320D01*
X19266426Y44340147D01*
X19543665Y44285000D01*
X19826335Y44285000D01*
X20103574Y44340147D01*
X20198551Y44379488D01*
X21419783Y44379488D01*
X21461213Y44099870D01*
X21556397Y43833708D01*
X21623329Y43708486D01*
X21867298Y43636903D01*
X22680395Y44450000D01*
X23039605Y44450000D01*
X23852702Y43636903D01*
X24096671Y43708486D01*
X24217571Y43963996D01*
X24286300Y44238184D01*
X24300217Y44520512D01*
X24258787Y44800130D01*
X24163603Y45066292D01*
X24096671Y45191514D01*
X23897340Y45250000D01*
X24831928Y45250000D01*
X24835000Y44735750D01*
X24993750Y44577000D01*
X26543000Y44577000D01*
X26543000Y45726250D01*
X26797000Y45726250D01*
X26797000Y44577000D01*
X28346250Y44577000D01*
X28505000Y44735750D01*
X28508072Y45250000D01*
X28495812Y45374482D01*
X28459502Y45494180D01*
X28400537Y45604494D01*
X28321185Y45701185D01*
X28224494Y45780537D01*
X28114180Y45839502D01*
X27994482Y45875812D01*
X27870000Y45888072D01*
X26955750Y45885000D01*
X26797000Y45726250D01*
X26543000Y45726250D01*
X26384250Y45885000D01*
X25470000Y45888072D01*
X25345518Y45875812D01*
X25225820Y45839502D01*
X25115506Y45780537D01*
X25018815Y45701185D01*
X24939463Y45604494D01*
X24880498Y45494180D01*
X24844188Y45374482D01*
X24831928Y45250000D01*
X23897340Y45250000D01*
X23852702Y45263097D01*
X23039605Y44450000D01*
X22680395Y44450000D01*
X21867298Y45263097D01*
X21623329Y45191514D01*
X21502429Y44936004D01*
X21433700Y44661816D01*
X21419783Y44379488D01*
X20198551Y44379488D01*
X20364727Y44448320D01*
X20599759Y44605363D01*
X20799637Y44805241D01*
X20956680Y45040273D01*
X21064853Y45301426D01*
X21092954Y45442702D01*
X22046903Y45442702D01*
X22860000Y44629605D01*
X23673097Y45442702D01*
X23601514Y45686671D01*
X23346004Y45807571D01*
X23071816Y45876300D01*
X22789488Y45890217D01*
X22509870Y45848787D01*
X22243708Y45753603D01*
X22118486Y45686671D01*
X22046903Y45442702D01*
X21092954Y45442702D01*
X21120000Y45578665D01*
X21120000Y45861335D01*
X21064853Y46138574D01*
X20956680Y46399727D01*
X20799637Y46634759D01*
X20599759Y46834637D01*
X20364727Y46991680D01*
X20103574Y47099853D01*
X19826335Y47155000D01*
X19543665Y47155000D01*
X19266426Y47099853D01*
X19005273Y46991680D01*
X18770241Y46834637D01*
X18570363Y46634759D01*
X18413320Y46399727D01*
X18305147Y46138574D01*
X18250000Y45861335D01*
X660000Y45861335D01*
X660000Y48870000D01*
X75540001Y48870000D01*
X75540000Y660000D01*
G37*
%TD.AperFunction*%
D24*
X11865000Y17821019D02*
X11860960Y17780000D01*
X11865000Y17738982D01*
X11877082Y17616312D01*
X11924828Y17458914D01*
X12002364Y17313855D01*
X12106709Y17186709D01*
X12138579Y17160554D01*
X13985563Y15313568D01*
X14011709Y15281709D01*
X14043568Y15255563D01*
X14043570Y15255561D01*
X14138854Y15177364D01*
X14283913Y15099828D01*
X14441311Y15052082D01*
X14605000Y15035960D01*
X14646018Y15040000D01*
X23784132Y15040000D01*
X24145562Y14678569D01*
X24171709Y14646709D01*
X24203568Y14620563D01*
X24203570Y14620561D01*
X24298854Y14542364D01*
X24443913Y14464828D01*
X24601311Y14417082D01*
X24723981Y14405000D01*
X24723982Y14405000D01*
X24765000Y14400960D01*
X24806018Y14405000D01*
X24902385Y14405000D01*
X24855764Y14251309D01*
X24828057Y13970000D01*
X24830395Y13946262D01*
X24203574Y13319441D01*
X24171802Y13293366D01*
X24163603Y13316292D01*
X24096671Y13441514D01*
X23852702Y13513097D01*
X23039605Y12700000D01*
X23852702Y11886903D01*
X23930001Y11909583D01*
X23930000Y10201019D01*
X23925960Y10160000D01*
X23930000Y10118982D01*
X23942082Y9996312D01*
X23989828Y9838914D01*
X24050717Y9725000D01*
X18125868Y9725000D01*
X17345000Y10505867D01*
X17345000Y11128888D01*
X17529608Y11280392D01*
X17708932Y11498899D01*
X17777265Y11626741D01*
X17927399Y11397161D01*
X18125105Y11195500D01*
X18358354Y11036285D01*
X18618182Y10925633D01*
X18700961Y10908096D01*
X18923000Y11030085D01*
X18923000Y12573000D01*
X19177000Y12573000D01*
X19177000Y11030085D01*
X19399039Y10908096D01*
X19481818Y10925633D01*
X19741646Y11036285D01*
X19974895Y11195500D01*
X20172601Y11397161D01*
X20327166Y11633517D01*
X20356874Y11707298D01*
X22046903Y11707298D01*
X22118486Y11463329D01*
X22373996Y11342429D01*
X22648184Y11273700D01*
X22930512Y11259783D01*
X23210130Y11301213D01*
X23476292Y11396397D01*
X23601514Y11463329D01*
X23673097Y11707298D01*
X22860000Y12520395D01*
X22046903Y11707298D01*
X20356874Y11707298D01*
X20432650Y11895486D01*
X20485000Y12173000D01*
X20485000Y12573000D01*
X19177000Y12573000D01*
X18923000Y12573000D01*
X18903000Y12573000D01*
X18903000Y12629488D01*
X21419783Y12629488D01*
X21461213Y12349870D01*
X21556397Y12083708D01*
X21623329Y11958486D01*
X21867298Y11886903D01*
X22680395Y12700000D01*
X21867298Y13513097D01*
X21623329Y13441514D01*
X21502429Y13186004D01*
X21433700Y12911816D01*
X21419783Y12629488D01*
X18903000Y12629488D01*
X18903000Y12827000D01*
X18923000Y12827000D01*
X18923000Y14369915D01*
X19177000Y14369915D01*
X19177000Y12827000D01*
X20485000Y12827000D01*
X20485000Y13227000D01*
X20432650Y13504514D01*
X20356875Y13692702D01*
X22046903Y13692702D01*
X22860000Y12879605D01*
X23673097Y13692702D01*
X23601514Y13936671D01*
X23346004Y14057571D01*
X23071816Y14126300D01*
X22789488Y14140217D01*
X22509870Y14098787D01*
X22243708Y14003603D01*
X22118486Y13936671D01*
X22046903Y13692702D01*
X20356875Y13692702D01*
X20327166Y13766483D01*
X20172601Y14002839D01*
X19974895Y14204500D01*
X19741646Y14363715D01*
X19481818Y14474367D01*
X19399039Y14491904D01*
X19177000Y14369915D01*
X18923000Y14369915D01*
X18700961Y14491904D01*
X18618182Y14474367D01*
X18358354Y14363715D01*
X18125105Y14204500D01*
X17927399Y14002839D01*
X17777265Y13773259D01*
X17708932Y13901101D01*
X17529607Y14119608D01*
X17311100Y14298932D01*
X17061807Y14432182D01*
X16791308Y14514236D01*
X16510000Y14541943D01*
X16228691Y14514236D01*
X15958192Y14432182D01*
X15708899Y14298932D01*
X15490392Y14119607D01*
X15311068Y13901100D01*
X15240000Y13768142D01*
X15168932Y13901101D01*
X14989607Y14119608D01*
X14771100Y14298932D01*
X14521807Y14432182D01*
X14251308Y14514236D01*
X13970000Y14541943D01*
X13688691Y14514236D01*
X13418192Y14432182D01*
X13168899Y14298932D01*
X12950392Y14119607D01*
X12771068Y13901100D01*
X12700000Y13768142D01*
X12628932Y13901101D01*
X12449607Y14119608D01*
X12231100Y14298932D01*
X11981807Y14432182D01*
X11711308Y14514236D01*
X11430000Y14541943D01*
X11148691Y14514236D01*
X10878192Y14432182D01*
X10628899Y14298932D01*
X10410392Y14119607D01*
X10231068Y13901100D01*
X10160000Y13768142D01*
X10088932Y13901101D01*
X9909607Y14119608D01*
X9725000Y14271111D01*
X9725000Y14894133D01*
X10721430Y15890562D01*
X10753291Y15916709D01*
X10857636Y16043854D01*
X10935172Y16188913D01*
X10982918Y16346311D01*
X10995000Y16468981D01*
X10995000Y16468983D01*
X10999040Y16509999D01*
X10995000Y16551015D01*
X10995000Y18552385D01*
X11148692Y18505764D01*
X11430000Y18478057D01*
X11711309Y18505764D01*
X11865000Y18552385D01*
X11865000Y17821019D01*
%TA.AperFunction,Conductor*%
D25*
G36*
X11865000Y17821019D02*
G01*
X11860960Y17780000D01*
X11865000Y17738982D01*
X11877082Y17616312D01*
X11924828Y17458914D01*
X12002364Y17313855D01*
X12106709Y17186709D01*
X12138579Y17160554D01*
X13985563Y15313568D01*
X14011709Y15281709D01*
X14043568Y15255563D01*
X14043570Y15255561D01*
X14138854Y15177364D01*
X14283913Y15099828D01*
X14441311Y15052082D01*
X14605000Y15035960D01*
X14646018Y15040000D01*
X23784132Y15040000D01*
X24145562Y14678569D01*
X24171709Y14646709D01*
X24203568Y14620563D01*
X24203570Y14620561D01*
X24298854Y14542364D01*
X24443913Y14464828D01*
X24601311Y14417082D01*
X24723981Y14405000D01*
X24723982Y14405000D01*
X24765000Y14400960D01*
X24806018Y14405000D01*
X24902385Y14405000D01*
X24855764Y14251309D01*
X24828057Y13970000D01*
X24830395Y13946262D01*
X24203574Y13319441D01*
X24171802Y13293366D01*
X24163603Y13316292D01*
X24096671Y13441514D01*
X23852702Y13513097D01*
X23039605Y12700000D01*
X23852702Y11886903D01*
X23930001Y11909583D01*
X23930000Y10201019D01*
X23925960Y10160000D01*
X23930000Y10118982D01*
X23942082Y9996312D01*
X23989828Y9838914D01*
X24050717Y9725000D01*
X18125868Y9725000D01*
X17345000Y10505867D01*
X17345000Y11128888D01*
X17529608Y11280392D01*
X17708932Y11498899D01*
X17777265Y11626741D01*
X17927399Y11397161D01*
X18125105Y11195500D01*
X18358354Y11036285D01*
X18618182Y10925633D01*
X18700961Y10908096D01*
X18923000Y11030085D01*
X18923000Y12573000D01*
X19177000Y12573000D01*
X19177000Y11030085D01*
X19399039Y10908096D01*
X19481818Y10925633D01*
X19741646Y11036285D01*
X19974895Y11195500D01*
X20172601Y11397161D01*
X20327166Y11633517D01*
X20356874Y11707298D01*
X22046903Y11707298D01*
X22118486Y11463329D01*
X22373996Y11342429D01*
X22648184Y11273700D01*
X22930512Y11259783D01*
X23210130Y11301213D01*
X23476292Y11396397D01*
X23601514Y11463329D01*
X23673097Y11707298D01*
X22860000Y12520395D01*
X22046903Y11707298D01*
X20356874Y11707298D01*
X20432650Y11895486D01*
X20485000Y12173000D01*
X20485000Y12573000D01*
X19177000Y12573000D01*
X18923000Y12573000D01*
X18903000Y12573000D01*
X18903000Y12629488D01*
X21419783Y12629488D01*
X21461213Y12349870D01*
X21556397Y12083708D01*
X21623329Y11958486D01*
X21867298Y11886903D01*
X22680395Y12700000D01*
X21867298Y13513097D01*
X21623329Y13441514D01*
X21502429Y13186004D01*
X21433700Y12911816D01*
X21419783Y12629488D01*
X18903000Y12629488D01*
X18903000Y12827000D01*
X18923000Y12827000D01*
X18923000Y14369915D01*
X19177000Y14369915D01*
X19177000Y12827000D01*
X20485000Y12827000D01*
X20485000Y13227000D01*
X20432650Y13504514D01*
X20356875Y13692702D01*
X22046903Y13692702D01*
X22860000Y12879605D01*
X23673097Y13692702D01*
X23601514Y13936671D01*
X23346004Y14057571D01*
X23071816Y14126300D01*
X22789488Y14140217D01*
X22509870Y14098787D01*
X22243708Y14003603D01*
X22118486Y13936671D01*
X22046903Y13692702D01*
X20356875Y13692702D01*
X20327166Y13766483D01*
X20172601Y14002839D01*
X19974895Y14204500D01*
X19741646Y14363715D01*
X19481818Y14474367D01*
X19399039Y14491904D01*
X19177000Y14369915D01*
X18923000Y14369915D01*
X18700961Y14491904D01*
X18618182Y14474367D01*
X18358354Y14363715D01*
X18125105Y14204500D01*
X17927399Y14002839D01*
X17777265Y13773259D01*
X17708932Y13901101D01*
X17529607Y14119608D01*
X17311100Y14298932D01*
X17061807Y14432182D01*
X16791308Y14514236D01*
X16510000Y14541943D01*
X16228691Y14514236D01*
X15958192Y14432182D01*
X15708899Y14298932D01*
X15490392Y14119607D01*
X15311068Y13901100D01*
X15240000Y13768142D01*
X15168932Y13901101D01*
X14989607Y14119608D01*
X14771100Y14298932D01*
X14521807Y14432182D01*
X14251308Y14514236D01*
X13970000Y14541943D01*
X13688691Y14514236D01*
X13418192Y14432182D01*
X13168899Y14298932D01*
X12950392Y14119607D01*
X12771068Y13901100D01*
X12700000Y13768142D01*
X12628932Y13901101D01*
X12449607Y14119608D01*
X12231100Y14298932D01*
X11981807Y14432182D01*
X11711308Y14514236D01*
X11430000Y14541943D01*
X11148691Y14514236D01*
X10878192Y14432182D01*
X10628899Y14298932D01*
X10410392Y14119607D01*
X10231068Y13901100D01*
X10160000Y13768142D01*
X10088932Y13901101D01*
X9909607Y14119608D01*
X9725000Y14271111D01*
X9725000Y14894133D01*
X10721430Y15890562D01*
X10753291Y15916709D01*
X10857636Y16043854D01*
X10935172Y16188913D01*
X10982918Y16346311D01*
X10995000Y16468981D01*
X10995000Y16468983D01*
X10999040Y16509999D01*
X10995000Y16551015D01*
X10995000Y18552385D01*
X11148692Y18505764D01*
X11430000Y18478057D01*
X11711309Y18505764D01*
X11865000Y18552385D01*
X11865000Y17821019D01*
G37*
%TD.AperFunction*%
D24*
X55480001Y45291288D02*
X55480001Y44611178D01*
X55410000Y44618072D01*
X54895750Y44615000D01*
X54737000Y44456250D01*
X54737000Y43307000D01*
X54757000Y43307000D01*
X54757000Y43053000D01*
X54737000Y43053000D01*
X54737000Y41903750D01*
X54895750Y41745000D01*
X55410000Y41741928D01*
X55480000Y41748822D01*
X55480000Y41325828D01*
X55474994Y41275000D01*
X55480000Y41224172D01*
X55480000Y41224163D01*
X55494976Y41072106D01*
X55554159Y40877008D01*
X55650266Y40697203D01*
X55779604Y40539604D01*
X55819097Y40507193D01*
X56750001Y39576288D01*
X56750000Y38117715D01*
X56583899Y38028932D01*
X56365392Y37849608D01*
X56186068Y37631101D01*
X56052818Y37381808D01*
X55970764Y37111309D01*
X55943057Y36830000D01*
X55970764Y36548691D01*
X56052818Y36278192D01*
X56186068Y36028899D01*
X56365392Y35810392D01*
X56583899Y35631068D01*
X56711741Y35562735D01*
X56482161Y35412601D01*
X56280500Y35214895D01*
X56121285Y34981646D01*
X56010633Y34721818D01*
X55993096Y34639039D01*
X56115085Y34417000D01*
X57658000Y34417000D01*
X57658000Y34437000D01*
X57912000Y34437000D01*
X57912000Y34417000D01*
X59454915Y34417000D01*
X59576904Y34639039D01*
X59559367Y34721818D01*
X59448715Y34981646D01*
X59289500Y35214895D01*
X59087839Y35412601D01*
X58858259Y35562735D01*
X58986101Y35631068D01*
X59185853Y35795000D01*
X60531290Y35795000D01*
X62465000Y33861289D01*
X62465001Y20113711D01*
X62169097Y19817807D01*
X62129604Y19785396D01*
X62065926Y19707804D01*
X61958125Y19869140D01*
X61779140Y20048125D01*
X61568676Y20188753D01*
X61431458Y20245591D01*
X62156426Y20970558D01*
X62188291Y20996709D01*
X62292636Y21123854D01*
X62370172Y21268913D01*
X62417918Y21426311D01*
X62430000Y21548981D01*
X62430000Y21548983D01*
X62434040Y21589999D01*
X62430000Y21631019D01*
X62430000Y25358985D01*
X62434040Y25400001D01*
X62429470Y25446397D01*
X62417918Y25563689D01*
X62370172Y25721087D01*
X62292636Y25866146D01*
X62188291Y25993291D01*
X62156428Y26019440D01*
X60944446Y27231421D01*
X60918291Y27263291D01*
X60791146Y27367636D01*
X60646087Y27445172D01*
X60488689Y27492918D01*
X60366019Y27505000D01*
X60366018Y27505000D01*
X60325000Y27509040D01*
X60283982Y27505000D01*
X59356112Y27505000D01*
X59204608Y27689608D01*
X58986101Y27868932D01*
X58853142Y27940000D01*
X58986101Y28011068D01*
X59204608Y28190392D01*
X59383932Y28408899D01*
X59517182Y28658192D01*
X59599236Y28928691D01*
X59626943Y29210000D01*
X59599236Y29491309D01*
X59517182Y29761808D01*
X59383932Y30011101D01*
X59204608Y30229608D01*
X58986101Y30408932D01*
X58853142Y30480000D01*
X58986101Y30551068D01*
X59204608Y30730392D01*
X59383932Y30948899D01*
X59517182Y31198192D01*
X59599236Y31468691D01*
X59626943Y31750000D01*
X59599236Y32031309D01*
X59517182Y32301808D01*
X59383932Y32551101D01*
X59204608Y32769608D01*
X58986101Y32948932D01*
X58858259Y33017265D01*
X59087839Y33167399D01*
X59289500Y33365105D01*
X59448715Y33598354D01*
X59559367Y33858182D01*
X59576904Y33940961D01*
X59454915Y34163000D01*
X57912000Y34163000D01*
X57912000Y34143000D01*
X57658000Y34143000D01*
X57658000Y34163000D01*
X56115085Y34163000D01*
X55993096Y33940961D01*
X56010633Y33858182D01*
X56121285Y33598354D01*
X56280500Y33365105D01*
X56482161Y33167399D01*
X56711741Y33017265D01*
X56583899Y32948932D01*
X56365392Y32769608D01*
X56186068Y32551101D01*
X56052818Y32301808D01*
X55970764Y32031309D01*
X55943057Y31750000D01*
X55970764Y31468691D01*
X56052818Y31198192D01*
X56186068Y30948899D01*
X56365392Y30730392D01*
X56583899Y30551068D01*
X56716858Y30480000D01*
X56583899Y30408932D01*
X56365392Y30229608D01*
X56186068Y30011101D01*
X56052818Y29761808D01*
X55970764Y29491309D01*
X55943057Y29210000D01*
X55970764Y28928691D01*
X56052818Y28658192D01*
X56186068Y28408899D01*
X56365392Y28190392D01*
X56583899Y28011068D01*
X56716858Y27940000D01*
X56583899Y27868932D01*
X56365392Y27689608D01*
X56186068Y27471101D01*
X56052818Y27221808D01*
X55970764Y26951309D01*
X55943057Y26670000D01*
X55959684Y26501184D01*
X53959446Y28501421D01*
X53933291Y28533291D01*
X53806146Y28637636D01*
X53661087Y28715172D01*
X53503689Y28762918D01*
X53381019Y28775000D01*
X53381018Y28775000D01*
X53340000Y28779040D01*
X53298982Y28775000D01*
X51932615Y28775000D01*
X51979236Y28928691D01*
X52006943Y29210000D01*
X51979236Y29491309D01*
X51897182Y29761808D01*
X51763932Y30011101D01*
X51584608Y30229608D01*
X51366101Y30408932D01*
X51233142Y30480000D01*
X51366101Y30551068D01*
X51584608Y30730392D01*
X51763932Y30948899D01*
X51897182Y31198192D01*
X51979236Y31468691D01*
X52006943Y31750000D01*
X51979236Y32031309D01*
X51897182Y32301808D01*
X51763932Y32551101D01*
X51584608Y32769608D01*
X51366101Y32948932D01*
X51233142Y33020000D01*
X51366101Y33091068D01*
X51584608Y33270392D01*
X51763932Y33488899D01*
X51897182Y33738192D01*
X51979236Y34008691D01*
X52006943Y34290000D01*
X51979236Y34571309D01*
X51897182Y34841808D01*
X51763932Y35091101D01*
X51584608Y35309608D01*
X51471518Y35402419D01*
X51489482Y35404188D01*
X51609180Y35440498D01*
X51719494Y35499463D01*
X51816185Y35578815D01*
X51895537Y35675506D01*
X51954502Y35785820D01*
X51990812Y35905518D01*
X52003072Y36030000D01*
X52003072Y37630000D01*
X51990812Y37754482D01*
X51954502Y37874180D01*
X51895537Y37984494D01*
X51816185Y38081185D01*
X51719494Y38160537D01*
X51609180Y38219502D01*
X51489482Y38255812D01*
X51365000Y38268072D01*
X48965000Y38268072D01*
X48840518Y38255812D01*
X48720820Y38219502D01*
X48610506Y38160537D01*
X48513815Y38081185D01*
X48434463Y37984494D01*
X48375498Y37874180D01*
X48339188Y37754482D01*
X48326928Y37630000D01*
X48326928Y36030000D01*
X48339188Y35905518D01*
X48375498Y35785820D01*
X48434463Y35675506D01*
X48513815Y35578815D01*
X48610506Y35499463D01*
X48720820Y35440498D01*
X48840518Y35404188D01*
X48858482Y35402419D01*
X48745392Y35309608D01*
X48566068Y35091101D01*
X48432818Y34841808D01*
X48350764Y34571309D01*
X48323057Y34290000D01*
X48350764Y34008691D01*
X48432818Y33738192D01*
X48566068Y33488899D01*
X48745392Y33270392D01*
X48963899Y33091068D01*
X49096858Y33020000D01*
X48963899Y32948932D01*
X48745392Y32769608D01*
X48566068Y32551101D01*
X48432818Y32301808D01*
X48350764Y32031309D01*
X48323057Y31750000D01*
X48350764Y31468691D01*
X48432818Y31198192D01*
X48566068Y30948899D01*
X48745392Y30730392D01*
X48963899Y30551068D01*
X49096858Y30480000D01*
X48963899Y30408932D01*
X48745392Y30229608D01*
X48566068Y30011101D01*
X48432818Y29761808D01*
X48350764Y29491309D01*
X48323057Y29210000D01*
X48350764Y28928691D01*
X48397385Y28775000D01*
X48301007Y28775000D01*
X48259999Y28779039D01*
X48218991Y28775000D01*
X48218981Y28775000D01*
X48096311Y28762918D01*
X47938913Y28715172D01*
X47793854Y28637636D01*
X47666709Y28533291D01*
X47640559Y28501427D01*
X45374133Y26235000D01*
X43677615Y26235000D01*
X43724236Y26388691D01*
X43751943Y26670000D01*
X43724236Y26951309D01*
X43642182Y27221808D01*
X43508932Y27471101D01*
X43329608Y27689608D01*
X43111101Y27868932D01*
X42978142Y27940000D01*
X43111101Y28011068D01*
X43329608Y28190392D01*
X43508932Y28408899D01*
X43642182Y28658192D01*
X43724236Y28928691D01*
X43751943Y29210000D01*
X43724236Y29491309D01*
X43642182Y29761808D01*
X43508932Y30011101D01*
X43329608Y30229608D01*
X43111101Y30408932D01*
X42978142Y30480000D01*
X43111101Y30551068D01*
X43329608Y30730392D01*
X43508932Y30948899D01*
X43642182Y31198192D01*
X43724236Y31468691D01*
X43751943Y31750000D01*
X43724236Y32031309D01*
X43642182Y32301808D01*
X43508932Y32551101D01*
X43329608Y32769608D01*
X43111101Y32948932D01*
X42978142Y33020000D01*
X43111101Y33091068D01*
X43329608Y33270392D01*
X43508932Y33488899D01*
X43642182Y33738192D01*
X43724236Y34008691D01*
X43751943Y34290000D01*
X43724236Y34571309D01*
X43642182Y34841808D01*
X43508932Y35091101D01*
X43329608Y35309608D01*
X43111101Y35488932D01*
X42978142Y35560000D01*
X43111101Y35631068D01*
X43329608Y35810392D01*
X43508932Y36028899D01*
X43642182Y36278192D01*
X43724236Y36548691D01*
X43751943Y36830000D01*
X43724236Y37111309D01*
X43677615Y37265000D01*
X44104133Y37265000D01*
X46155001Y35214131D01*
X46155000Y31462265D01*
X45991875Y31299140D01*
X45851247Y31088676D01*
X45754381Y30854821D01*
X45705000Y30606561D01*
X45705000Y30353439D01*
X45754381Y30105179D01*
X45851247Y29871324D01*
X45991875Y29660860D01*
X46170860Y29481875D01*
X46381324Y29341247D01*
X46615179Y29244381D01*
X46863439Y29195000D01*
X47116561Y29195000D01*
X47364821Y29244381D01*
X47598676Y29341247D01*
X47809140Y29481875D01*
X47988125Y29660860D01*
X48128753Y29871324D01*
X48225619Y30105179D01*
X48275000Y30353439D01*
X48275000Y30606561D01*
X48225619Y30854821D01*
X48128753Y31088676D01*
X47988125Y31299140D01*
X47825000Y31462265D01*
X47825000Y35518993D01*
X47829039Y35560001D01*
X47825000Y35601009D01*
X47825000Y35601019D01*
X47812918Y35723689D01*
X47765172Y35881087D01*
X47687636Y36026146D01*
X47583291Y36153291D01*
X47551427Y36179441D01*
X45069446Y38661421D01*
X45043291Y38693291D01*
X44916146Y38797636D01*
X44771087Y38875172D01*
X44613689Y38922918D01*
X44491019Y38935000D01*
X44491018Y38935000D01*
X44450000Y38939040D01*
X44408982Y38935000D01*
X43677615Y38935000D01*
X43724236Y39088691D01*
X43751943Y39370000D01*
X43724236Y39651309D01*
X43642182Y39921808D01*
X43508932Y40171101D01*
X43329608Y40389608D01*
X43111101Y40568932D01*
X42978142Y40640000D01*
X43111101Y40711068D01*
X43329608Y40890392D01*
X43508932Y41108899D01*
X43642182Y41358192D01*
X43724236Y41628691D01*
X43751943Y41910000D01*
X43724236Y42191309D01*
X43642182Y42461808D01*
X43508932Y42711101D01*
X43329608Y42929608D01*
X43111101Y43108932D01*
X42978142Y43180000D01*
X43111101Y43251068D01*
X43196721Y43321335D01*
X44825000Y43321335D01*
X44825000Y43038665D01*
X44880147Y42761426D01*
X44988320Y42500273D01*
X45145363Y42265241D01*
X45345241Y42065363D01*
X45580273Y41908320D01*
X45841426Y41800147D01*
X46118665Y41745000D01*
X46401335Y41745000D01*
X46678574Y41800147D01*
X46939727Y41908320D01*
X46995210Y41945393D01*
X47008815Y41928815D01*
X47105506Y41849463D01*
X47215820Y41790498D01*
X47335518Y41754188D01*
X47460000Y41741928D01*
X49060000Y41741928D01*
X49184482Y41754188D01*
X49304180Y41790498D01*
X49414494Y41849463D01*
X49511185Y41928815D01*
X49590537Y42025506D01*
X49649502Y42135820D01*
X49685812Y42255518D01*
X49698072Y42380000D01*
X49698072Y43321335D01*
X51175000Y43321335D01*
X51175000Y43038665D01*
X51230147Y42761426D01*
X51338320Y42500273D01*
X51495363Y42265241D01*
X51695241Y42065363D01*
X51930273Y41908320D01*
X52191426Y41800147D01*
X52468665Y41745000D01*
X52751335Y41745000D01*
X53028574Y41800147D01*
X53289727Y41908320D01*
X53345210Y41945393D01*
X53358815Y41928815D01*
X53455506Y41849463D01*
X53565820Y41790498D01*
X53685518Y41754188D01*
X53810000Y41741928D01*
X54324250Y41745000D01*
X54483000Y41903750D01*
X54483000Y43053000D01*
X54463000Y43053000D01*
X54463000Y43307000D01*
X54483000Y43307000D01*
X54483000Y44456250D01*
X54324250Y44615000D01*
X53810000Y44618072D01*
X53685518Y44605812D01*
X53565820Y44569502D01*
X53455506Y44510537D01*
X53358815Y44431185D01*
X53345210Y44414607D01*
X53289727Y44451680D01*
X53028574Y44559853D01*
X52751335Y44615000D01*
X52468665Y44615000D01*
X52191426Y44559853D01*
X51930273Y44451680D01*
X51695241Y44294637D01*
X51495363Y44094759D01*
X51338320Y43859727D01*
X51230147Y43598574D01*
X51175000Y43321335D01*
X49698072Y43321335D01*
X49698072Y43980000D01*
X49685812Y44104482D01*
X49649502Y44224180D01*
X49590537Y44334494D01*
X49511185Y44431185D01*
X49414494Y44510537D01*
X49304180Y44569502D01*
X49184482Y44605812D01*
X49060000Y44618072D01*
X47460000Y44618072D01*
X47335518Y44605812D01*
X47215820Y44569502D01*
X47105506Y44510537D01*
X47008815Y44431185D01*
X46995210Y44414607D01*
X46939727Y44451680D01*
X46678574Y44559853D01*
X46401335Y44615000D01*
X46118665Y44615000D01*
X45841426Y44559853D01*
X45580273Y44451680D01*
X45345241Y44294637D01*
X45145363Y44094759D01*
X44988320Y43859727D01*
X44880147Y43598574D01*
X44825000Y43321335D01*
X43196721Y43321335D01*
X43329608Y43430392D01*
X43508932Y43648899D01*
X43642182Y43898192D01*
X43724236Y44168691D01*
X43751943Y44450000D01*
X43724236Y44731309D01*
X43642182Y45001808D01*
X43508932Y45251101D01*
X43329608Y45469608D01*
X43111101Y45648932D01*
X42861808Y45782182D01*
X42591309Y45864236D01*
X42380492Y45885000D01*
X41439508Y45885000D01*
X41228691Y45864236D01*
X40958192Y45782182D01*
X40708899Y45648932D01*
X40490392Y45469608D01*
X40311068Y45251101D01*
X40177818Y45001808D01*
X40095764Y44731309D01*
X40068057Y44450000D01*
X40095764Y44168691D01*
X40177818Y43898192D01*
X40311068Y43648899D01*
X40490392Y43430392D01*
X40708899Y43251068D01*
X40841858Y43180000D01*
X40708899Y43108932D01*
X40490392Y42929608D01*
X40311068Y42711101D01*
X40177818Y42461808D01*
X40095764Y42191309D01*
X40068057Y41910000D01*
X40095764Y41628691D01*
X40177818Y41358192D01*
X40311068Y41108899D01*
X40490392Y40890392D01*
X40708899Y40711068D01*
X40841858Y40640000D01*
X40708899Y40568932D01*
X40490392Y40389608D01*
X40311068Y40171101D01*
X40177818Y39921808D01*
X40095764Y39651309D01*
X40068057Y39370000D01*
X40095764Y39088691D01*
X40142385Y38935000D01*
X33696015Y38935000D01*
X33654999Y38939040D01*
X33613983Y38935000D01*
X33613981Y38935000D01*
X33491311Y38922918D01*
X33333913Y38875172D01*
X33188854Y38797636D01*
X33061709Y38693291D01*
X33035558Y38661426D01*
X32039133Y37665000D01*
X28241112Y37665000D01*
X28089608Y37849608D01*
X27871101Y38028932D01*
X27738142Y38100000D01*
X27871101Y38171068D01*
X28089608Y38350392D01*
X28268932Y38568899D01*
X28402182Y38818192D01*
X28484236Y39088691D01*
X28511943Y39370000D01*
X28484236Y39651309D01*
X28402182Y39921808D01*
X28268932Y40171101D01*
X28089608Y40389608D01*
X27871101Y40568932D01*
X27738142Y40640000D01*
X27871101Y40711068D01*
X28070853Y40875000D01*
X30429172Y40875000D01*
X30480000Y40869994D01*
X30530828Y40875000D01*
X30530838Y40875000D01*
X30682895Y40889976D01*
X30877993Y40949159D01*
X31057797Y41045266D01*
X31215396Y41174604D01*
X31247807Y41214097D01*
X35988711Y45955000D01*
X54816290Y45955000D01*
X55480001Y45291288D01*
%TA.AperFunction,Conductor*%
D25*
G36*
X55480001Y45291288D02*
G01*
X55480001Y44611178D01*
X55410000Y44618072D01*
X54895750Y44615000D01*
X54737000Y44456250D01*
X54737000Y43307000D01*
X54757000Y43307000D01*
X54757000Y43053000D01*
X54737000Y43053000D01*
X54737000Y41903750D01*
X54895750Y41745000D01*
X55410000Y41741928D01*
X55480000Y41748822D01*
X55480000Y41325828D01*
X55474994Y41275000D01*
X55480000Y41224172D01*
X55480000Y41224163D01*
X55494976Y41072106D01*
X55554159Y40877008D01*
X55650266Y40697203D01*
X55779604Y40539604D01*
X55819097Y40507193D01*
X56750001Y39576288D01*
X56750000Y38117715D01*
X56583899Y38028932D01*
X56365392Y37849608D01*
X56186068Y37631101D01*
X56052818Y37381808D01*
X55970764Y37111309D01*
X55943057Y36830000D01*
X55970764Y36548691D01*
X56052818Y36278192D01*
X56186068Y36028899D01*
X56365392Y35810392D01*
X56583899Y35631068D01*
X56711741Y35562735D01*
X56482161Y35412601D01*
X56280500Y35214895D01*
X56121285Y34981646D01*
X56010633Y34721818D01*
X55993096Y34639039D01*
X56115085Y34417000D01*
X57658000Y34417000D01*
X57658000Y34437000D01*
X57912000Y34437000D01*
X57912000Y34417000D01*
X59454915Y34417000D01*
X59576904Y34639039D01*
X59559367Y34721818D01*
X59448715Y34981646D01*
X59289500Y35214895D01*
X59087839Y35412601D01*
X58858259Y35562735D01*
X58986101Y35631068D01*
X59185853Y35795000D01*
X60531290Y35795000D01*
X62465000Y33861289D01*
X62465001Y20113711D01*
X62169097Y19817807D01*
X62129604Y19785396D01*
X62065926Y19707804D01*
X61958125Y19869140D01*
X61779140Y20048125D01*
X61568676Y20188753D01*
X61431458Y20245591D01*
X62156426Y20970558D01*
X62188291Y20996709D01*
X62292636Y21123854D01*
X62370172Y21268913D01*
X62417918Y21426311D01*
X62430000Y21548981D01*
X62430000Y21548983D01*
X62434040Y21589999D01*
X62430000Y21631019D01*
X62430000Y25358985D01*
X62434040Y25400001D01*
X62429470Y25446397D01*
X62417918Y25563689D01*
X62370172Y25721087D01*
X62292636Y25866146D01*
X62188291Y25993291D01*
X62156428Y26019440D01*
X60944446Y27231421D01*
X60918291Y27263291D01*
X60791146Y27367636D01*
X60646087Y27445172D01*
X60488689Y27492918D01*
X60366019Y27505000D01*
X60366018Y27505000D01*
X60325000Y27509040D01*
X60283982Y27505000D01*
X59356112Y27505000D01*
X59204608Y27689608D01*
X58986101Y27868932D01*
X58853142Y27940000D01*
X58986101Y28011068D01*
X59204608Y28190392D01*
X59383932Y28408899D01*
X59517182Y28658192D01*
X59599236Y28928691D01*
X59626943Y29210000D01*
X59599236Y29491309D01*
X59517182Y29761808D01*
X59383932Y30011101D01*
X59204608Y30229608D01*
X58986101Y30408932D01*
X58853142Y30480000D01*
X58986101Y30551068D01*
X59204608Y30730392D01*
X59383932Y30948899D01*
X59517182Y31198192D01*
X59599236Y31468691D01*
X59626943Y31750000D01*
X59599236Y32031309D01*
X59517182Y32301808D01*
X59383932Y32551101D01*
X59204608Y32769608D01*
X58986101Y32948932D01*
X58858259Y33017265D01*
X59087839Y33167399D01*
X59289500Y33365105D01*
X59448715Y33598354D01*
X59559367Y33858182D01*
X59576904Y33940961D01*
X59454915Y34163000D01*
X57912000Y34163000D01*
X57912000Y34143000D01*
X57658000Y34143000D01*
X57658000Y34163000D01*
X56115085Y34163000D01*
X55993096Y33940961D01*
X56010633Y33858182D01*
X56121285Y33598354D01*
X56280500Y33365105D01*
X56482161Y33167399D01*
X56711741Y33017265D01*
X56583899Y32948932D01*
X56365392Y32769608D01*
X56186068Y32551101D01*
X56052818Y32301808D01*
X55970764Y32031309D01*
X55943057Y31750000D01*
X55970764Y31468691D01*
X56052818Y31198192D01*
X56186068Y30948899D01*
X56365392Y30730392D01*
X56583899Y30551068D01*
X56716858Y30480000D01*
X56583899Y30408932D01*
X56365392Y30229608D01*
X56186068Y30011101D01*
X56052818Y29761808D01*
X55970764Y29491309D01*
X55943057Y29210000D01*
X55970764Y28928691D01*
X56052818Y28658192D01*
X56186068Y28408899D01*
X56365392Y28190392D01*
X56583899Y28011068D01*
X56716858Y27940000D01*
X56583899Y27868932D01*
X56365392Y27689608D01*
X56186068Y27471101D01*
X56052818Y27221808D01*
X55970764Y26951309D01*
X55943057Y26670000D01*
X55959684Y26501184D01*
X53959446Y28501421D01*
X53933291Y28533291D01*
X53806146Y28637636D01*
X53661087Y28715172D01*
X53503689Y28762918D01*
X53381019Y28775000D01*
X53381018Y28775000D01*
X53340000Y28779040D01*
X53298982Y28775000D01*
X51932615Y28775000D01*
X51979236Y28928691D01*
X52006943Y29210000D01*
X51979236Y29491309D01*
X51897182Y29761808D01*
X51763932Y30011101D01*
X51584608Y30229608D01*
X51366101Y30408932D01*
X51233142Y30480000D01*
X51366101Y30551068D01*
X51584608Y30730392D01*
X51763932Y30948899D01*
X51897182Y31198192D01*
X51979236Y31468691D01*
X52006943Y31750000D01*
X51979236Y32031309D01*
X51897182Y32301808D01*
X51763932Y32551101D01*
X51584608Y32769608D01*
X51366101Y32948932D01*
X51233142Y33020000D01*
X51366101Y33091068D01*
X51584608Y33270392D01*
X51763932Y33488899D01*
X51897182Y33738192D01*
X51979236Y34008691D01*
X52006943Y34290000D01*
X51979236Y34571309D01*
X51897182Y34841808D01*
X51763932Y35091101D01*
X51584608Y35309608D01*
X51471518Y35402419D01*
X51489482Y35404188D01*
X51609180Y35440498D01*
X51719494Y35499463D01*
X51816185Y35578815D01*
X51895537Y35675506D01*
X51954502Y35785820D01*
X51990812Y35905518D01*
X52003072Y36030000D01*
X52003072Y37630000D01*
X51990812Y37754482D01*
X51954502Y37874180D01*
X51895537Y37984494D01*
X51816185Y38081185D01*
X51719494Y38160537D01*
X51609180Y38219502D01*
X51489482Y38255812D01*
X51365000Y38268072D01*
X48965000Y38268072D01*
X48840518Y38255812D01*
X48720820Y38219502D01*
X48610506Y38160537D01*
X48513815Y38081185D01*
X48434463Y37984494D01*
X48375498Y37874180D01*
X48339188Y37754482D01*
X48326928Y37630000D01*
X48326928Y36030000D01*
X48339188Y35905518D01*
X48375498Y35785820D01*
X48434463Y35675506D01*
X48513815Y35578815D01*
X48610506Y35499463D01*
X48720820Y35440498D01*
X48840518Y35404188D01*
X48858482Y35402419D01*
X48745392Y35309608D01*
X48566068Y35091101D01*
X48432818Y34841808D01*
X48350764Y34571309D01*
X48323057Y34290000D01*
X48350764Y34008691D01*
X48432818Y33738192D01*
X48566068Y33488899D01*
X48745392Y33270392D01*
X48963899Y33091068D01*
X49096858Y33020000D01*
X48963899Y32948932D01*
X48745392Y32769608D01*
X48566068Y32551101D01*
X48432818Y32301808D01*
X48350764Y32031309D01*
X48323057Y31750000D01*
X48350764Y31468691D01*
X48432818Y31198192D01*
X48566068Y30948899D01*
X48745392Y30730392D01*
X48963899Y30551068D01*
X49096858Y30480000D01*
X48963899Y30408932D01*
X48745392Y30229608D01*
X48566068Y30011101D01*
X48432818Y29761808D01*
X48350764Y29491309D01*
X48323057Y29210000D01*
X48350764Y28928691D01*
X48397385Y28775000D01*
X48301007Y28775000D01*
X48259999Y28779039D01*
X48218991Y28775000D01*
X48218981Y28775000D01*
X48096311Y28762918D01*
X47938913Y28715172D01*
X47793854Y28637636D01*
X47666709Y28533291D01*
X47640559Y28501427D01*
X45374133Y26235000D01*
X43677615Y26235000D01*
X43724236Y26388691D01*
X43751943Y26670000D01*
X43724236Y26951309D01*
X43642182Y27221808D01*
X43508932Y27471101D01*
X43329608Y27689608D01*
X43111101Y27868932D01*
X42978142Y27940000D01*
X43111101Y28011068D01*
X43329608Y28190392D01*
X43508932Y28408899D01*
X43642182Y28658192D01*
X43724236Y28928691D01*
X43751943Y29210000D01*
X43724236Y29491309D01*
X43642182Y29761808D01*
X43508932Y30011101D01*
X43329608Y30229608D01*
X43111101Y30408932D01*
X42978142Y30480000D01*
X43111101Y30551068D01*
X43329608Y30730392D01*
X43508932Y30948899D01*
X43642182Y31198192D01*
X43724236Y31468691D01*
X43751943Y31750000D01*
X43724236Y32031309D01*
X43642182Y32301808D01*
X43508932Y32551101D01*
X43329608Y32769608D01*
X43111101Y32948932D01*
X42978142Y33020000D01*
X43111101Y33091068D01*
X43329608Y33270392D01*
X43508932Y33488899D01*
X43642182Y33738192D01*
X43724236Y34008691D01*
X43751943Y34290000D01*
X43724236Y34571309D01*
X43642182Y34841808D01*
X43508932Y35091101D01*
X43329608Y35309608D01*
X43111101Y35488932D01*
X42978142Y35560000D01*
X43111101Y35631068D01*
X43329608Y35810392D01*
X43508932Y36028899D01*
X43642182Y36278192D01*
X43724236Y36548691D01*
X43751943Y36830000D01*
X43724236Y37111309D01*
X43677615Y37265000D01*
X44104133Y37265000D01*
X46155001Y35214131D01*
X46155000Y31462265D01*
X45991875Y31299140D01*
X45851247Y31088676D01*
X45754381Y30854821D01*
X45705000Y30606561D01*
X45705000Y30353439D01*
X45754381Y30105179D01*
X45851247Y29871324D01*
X45991875Y29660860D01*
X46170860Y29481875D01*
X46381324Y29341247D01*
X46615179Y29244381D01*
X46863439Y29195000D01*
X47116561Y29195000D01*
X47364821Y29244381D01*
X47598676Y29341247D01*
X47809140Y29481875D01*
X47988125Y29660860D01*
X48128753Y29871324D01*
X48225619Y30105179D01*
X48275000Y30353439D01*
X48275000Y30606561D01*
X48225619Y30854821D01*
X48128753Y31088676D01*
X47988125Y31299140D01*
X47825000Y31462265D01*
X47825000Y35518993D01*
X47829039Y35560001D01*
X47825000Y35601009D01*
X47825000Y35601019D01*
X47812918Y35723689D01*
X47765172Y35881087D01*
X47687636Y36026146D01*
X47583291Y36153291D01*
X47551427Y36179441D01*
X45069446Y38661421D01*
X45043291Y38693291D01*
X44916146Y38797636D01*
X44771087Y38875172D01*
X44613689Y38922918D01*
X44491019Y38935000D01*
X44491018Y38935000D01*
X44450000Y38939040D01*
X44408982Y38935000D01*
X43677615Y38935000D01*
X43724236Y39088691D01*
X43751943Y39370000D01*
X43724236Y39651309D01*
X43642182Y39921808D01*
X43508932Y40171101D01*
X43329608Y40389608D01*
X43111101Y40568932D01*
X42978142Y40640000D01*
X43111101Y40711068D01*
X43329608Y40890392D01*
X43508932Y41108899D01*
X43642182Y41358192D01*
X43724236Y41628691D01*
X43751943Y41910000D01*
X43724236Y42191309D01*
X43642182Y42461808D01*
X43508932Y42711101D01*
X43329608Y42929608D01*
X43111101Y43108932D01*
X42978142Y43180000D01*
X43111101Y43251068D01*
X43196721Y43321335D01*
X44825000Y43321335D01*
X44825000Y43038665D01*
X44880147Y42761426D01*
X44988320Y42500273D01*
X45145363Y42265241D01*
X45345241Y42065363D01*
X45580273Y41908320D01*
X45841426Y41800147D01*
X46118665Y41745000D01*
X46401335Y41745000D01*
X46678574Y41800147D01*
X46939727Y41908320D01*
X46995210Y41945393D01*
X47008815Y41928815D01*
X47105506Y41849463D01*
X47215820Y41790498D01*
X47335518Y41754188D01*
X47460000Y41741928D01*
X49060000Y41741928D01*
X49184482Y41754188D01*
X49304180Y41790498D01*
X49414494Y41849463D01*
X49511185Y41928815D01*
X49590537Y42025506D01*
X49649502Y42135820D01*
X49685812Y42255518D01*
X49698072Y42380000D01*
X49698072Y43321335D01*
X51175000Y43321335D01*
X51175000Y43038665D01*
X51230147Y42761426D01*
X51338320Y42500273D01*
X51495363Y42265241D01*
X51695241Y42065363D01*
X51930273Y41908320D01*
X52191426Y41800147D01*
X52468665Y41745000D01*
X52751335Y41745000D01*
X53028574Y41800147D01*
X53289727Y41908320D01*
X53345210Y41945393D01*
X53358815Y41928815D01*
X53455506Y41849463D01*
X53565820Y41790498D01*
X53685518Y41754188D01*
X53810000Y41741928D01*
X54324250Y41745000D01*
X54483000Y41903750D01*
X54483000Y43053000D01*
X54463000Y43053000D01*
X54463000Y43307000D01*
X54483000Y43307000D01*
X54483000Y44456250D01*
X54324250Y44615000D01*
X53810000Y44618072D01*
X53685518Y44605812D01*
X53565820Y44569502D01*
X53455506Y44510537D01*
X53358815Y44431185D01*
X53345210Y44414607D01*
X53289727Y44451680D01*
X53028574Y44559853D01*
X52751335Y44615000D01*
X52468665Y44615000D01*
X52191426Y44559853D01*
X51930273Y44451680D01*
X51695241Y44294637D01*
X51495363Y44094759D01*
X51338320Y43859727D01*
X51230147Y43598574D01*
X51175000Y43321335D01*
X49698072Y43321335D01*
X49698072Y43980000D01*
X49685812Y44104482D01*
X49649502Y44224180D01*
X49590537Y44334494D01*
X49511185Y44431185D01*
X49414494Y44510537D01*
X49304180Y44569502D01*
X49184482Y44605812D01*
X49060000Y44618072D01*
X47460000Y44618072D01*
X47335518Y44605812D01*
X47215820Y44569502D01*
X47105506Y44510537D01*
X47008815Y44431185D01*
X46995210Y44414607D01*
X46939727Y44451680D01*
X46678574Y44559853D01*
X46401335Y44615000D01*
X46118665Y44615000D01*
X45841426Y44559853D01*
X45580273Y44451680D01*
X45345241Y44294637D01*
X45145363Y44094759D01*
X44988320Y43859727D01*
X44880147Y43598574D01*
X44825000Y43321335D01*
X43196721Y43321335D01*
X43329608Y43430392D01*
X43508932Y43648899D01*
X43642182Y43898192D01*
X43724236Y44168691D01*
X43751943Y44450000D01*
X43724236Y44731309D01*
X43642182Y45001808D01*
X43508932Y45251101D01*
X43329608Y45469608D01*
X43111101Y45648932D01*
X42861808Y45782182D01*
X42591309Y45864236D01*
X42380492Y45885000D01*
X41439508Y45885000D01*
X41228691Y45864236D01*
X40958192Y45782182D01*
X40708899Y45648932D01*
X40490392Y45469608D01*
X40311068Y45251101D01*
X40177818Y45001808D01*
X40095764Y44731309D01*
X40068057Y44450000D01*
X40095764Y44168691D01*
X40177818Y43898192D01*
X40311068Y43648899D01*
X40490392Y43430392D01*
X40708899Y43251068D01*
X40841858Y43180000D01*
X40708899Y43108932D01*
X40490392Y42929608D01*
X40311068Y42711101D01*
X40177818Y42461808D01*
X40095764Y42191309D01*
X40068057Y41910000D01*
X40095764Y41628691D01*
X40177818Y41358192D01*
X40311068Y41108899D01*
X40490392Y40890392D01*
X40708899Y40711068D01*
X40841858Y40640000D01*
X40708899Y40568932D01*
X40490392Y40389608D01*
X40311068Y40171101D01*
X40177818Y39921808D01*
X40095764Y39651309D01*
X40068057Y39370000D01*
X40095764Y39088691D01*
X40142385Y38935000D01*
X33696015Y38935000D01*
X33654999Y38939040D01*
X33613983Y38935000D01*
X33613981Y38935000D01*
X33491311Y38922918D01*
X33333913Y38875172D01*
X33188854Y38797636D01*
X33061709Y38693291D01*
X33035558Y38661426D01*
X32039133Y37665000D01*
X28241112Y37665000D01*
X28089608Y37849608D01*
X27871101Y38028932D01*
X27738142Y38100000D01*
X27871101Y38171068D01*
X28089608Y38350392D01*
X28268932Y38568899D01*
X28402182Y38818192D01*
X28484236Y39088691D01*
X28511943Y39370000D01*
X28484236Y39651309D01*
X28402182Y39921808D01*
X28268932Y40171101D01*
X28089608Y40389608D01*
X27871101Y40568932D01*
X27738142Y40640000D01*
X27871101Y40711068D01*
X28070853Y40875000D01*
X30429172Y40875000D01*
X30480000Y40869994D01*
X30530828Y40875000D01*
X30530838Y40875000D01*
X30682895Y40889976D01*
X30877993Y40949159D01*
X31057797Y41045266D01*
X31215396Y41174604D01*
X31247807Y41214097D01*
X35988711Y45955000D01*
X54816290Y45955000D01*
X55480001Y45291288D01*
G37*
%TD.AperFunction*%
D24*
X15311068Y31183899D02*
X15490393Y30965392D01*
X15675000Y30813889D01*
X15675000Y30521019D01*
X15670960Y30480000D01*
X15675000Y30438982D01*
X15687082Y30316312D01*
X15734828Y30158914D01*
X15812364Y30013855D01*
X15916709Y29886709D01*
X15948579Y29860554D01*
X17795563Y28013568D01*
X17821709Y27981709D01*
X17853568Y27955563D01*
X17853570Y27955561D01*
X17948854Y27877364D01*
X18093913Y27799828D01*
X18251311Y27752082D01*
X18415000Y27735960D01*
X18456018Y27740000D01*
X21811653Y27740000D01*
X21751023Y27679370D01*
X21867296Y27563097D01*
X21623329Y27491514D01*
X21502429Y27236004D01*
X21433700Y26961816D01*
X21419783Y26679488D01*
X21461213Y26399870D01*
X21556397Y26133708D01*
X21623329Y26008486D01*
X21867298Y25936903D01*
X22680395Y26750000D01*
X22666253Y26764142D01*
X22845858Y26943747D01*
X22860000Y26929605D01*
X22874143Y26943747D01*
X23053748Y26764142D01*
X23039605Y26750000D01*
X23852702Y25936903D01*
X24096671Y26008486D01*
X24217571Y26263996D01*
X24286300Y26538184D01*
X24300217Y26820512D01*
X24258787Y27100130D01*
X24257045Y27105000D01*
X24902385Y27105000D01*
X24855764Y26951309D01*
X24828057Y26670000D01*
X24855764Y26388691D01*
X24937818Y26118192D01*
X25071068Y25868899D01*
X25250392Y25650392D01*
X25468899Y25471068D01*
X25596741Y25402735D01*
X25367161Y25252601D01*
X25165500Y25054895D01*
X25006285Y24821646D01*
X24895633Y24561818D01*
X24878096Y24479039D01*
X25000085Y24257000D01*
X26543000Y24257000D01*
X26543000Y24277000D01*
X26797000Y24277000D01*
X26797000Y24257000D01*
X28339915Y24257000D01*
X28461904Y24479039D01*
X28444367Y24561818D01*
X28333715Y24821646D01*
X28174500Y25054895D01*
X27972839Y25252601D01*
X27743259Y25402735D01*
X27871101Y25471068D01*
X28089608Y25650392D01*
X28241112Y25835000D01*
X29499133Y25835000D01*
X31765559Y23568573D01*
X31791709Y23536709D01*
X31918854Y23432364D01*
X32063913Y23354828D01*
X32221311Y23307082D01*
X32343981Y23295000D01*
X32343991Y23295000D01*
X32384999Y23290961D01*
X32426007Y23295000D01*
X35449132Y23295000D01*
X34579133Y22425000D01*
X30420692Y22425000D01*
X30445619Y22485179D01*
X30495000Y22733439D01*
X30495000Y22986561D01*
X30445619Y23234821D01*
X30348753Y23468676D01*
X30208125Y23679140D01*
X30029140Y23858125D01*
X29818676Y23998753D01*
X29584821Y24095619D01*
X29336561Y24145000D01*
X29083439Y24145000D01*
X28835179Y24095619D01*
X28601324Y23998753D01*
X28411817Y23872128D01*
X28339915Y24003000D01*
X26797000Y24003000D01*
X26797000Y23983000D01*
X26543000Y23983000D01*
X26543000Y24003000D01*
X25000085Y24003000D01*
X24878096Y23780961D01*
X24895633Y23698182D01*
X24896988Y23695000D01*
X20324866Y23695000D01*
X20327166Y23698517D01*
X20432650Y23960486D01*
X20485000Y24238000D01*
X20485000Y24638000D01*
X19177000Y24638000D01*
X19177000Y24618000D01*
X18923000Y24618000D01*
X18923000Y24638000D01*
X18903000Y24638000D01*
X18903000Y24892000D01*
X18923000Y24892000D01*
X18923000Y26434915D01*
X19177000Y26434915D01*
X19177000Y24892000D01*
X20485000Y24892000D01*
X20485000Y25292000D01*
X20432650Y25569514D01*
X20357038Y25757298D01*
X22046903Y25757298D01*
X22118486Y25513329D01*
X22373996Y25392429D01*
X22648184Y25323700D01*
X22930512Y25309783D01*
X23210130Y25351213D01*
X23476292Y25446397D01*
X23601514Y25513329D01*
X23673097Y25757298D01*
X22860000Y26570395D01*
X22046903Y25757298D01*
X20357038Y25757298D01*
X20327166Y25831483D01*
X20172601Y26067839D01*
X19974895Y26269500D01*
X19741646Y26428715D01*
X19481818Y26539367D01*
X19399039Y26556904D01*
X19177000Y26434915D01*
X18923000Y26434915D01*
X18700961Y26556904D01*
X18618182Y26539367D01*
X18358354Y26428715D01*
X18125105Y26269500D01*
X17927399Y26067839D01*
X17777265Y25838259D01*
X17708932Y25966101D01*
X17529607Y26184608D01*
X17311100Y26363932D01*
X17061807Y26497182D01*
X16791308Y26579236D01*
X16510000Y26606943D01*
X16228691Y26579236D01*
X15958192Y26497182D01*
X15708899Y26363932D01*
X15490392Y26184607D01*
X15311068Y25966100D01*
X15240000Y25833142D01*
X15168932Y25966101D01*
X14989607Y26184608D01*
X14771100Y26363932D01*
X14521807Y26497182D01*
X14251308Y26579236D01*
X13970000Y26606943D01*
X13688691Y26579236D01*
X13418192Y26497182D01*
X13403852Y26489517D01*
X13397636Y26501146D01*
X13293291Y26628291D01*
X13261426Y26654442D01*
X12049446Y27866421D01*
X12023291Y27898291D01*
X11974335Y27938468D01*
X13261428Y29225560D01*
X13293291Y29251709D01*
X13397636Y29378854D01*
X13475172Y29523913D01*
X13522918Y29681311D01*
X13535000Y29803981D01*
X13535000Y29803982D01*
X13539040Y29844999D01*
X13535000Y29886018D01*
X13535000Y30617385D01*
X13688692Y30570764D01*
X13970000Y30543057D01*
X14251309Y30570764D01*
X14521808Y30652818D01*
X14771101Y30786068D01*
X14989608Y30965392D01*
X15168932Y31183899D01*
X15240000Y31316858D01*
X15311068Y31183899D01*
%TA.AperFunction,Conductor*%
D25*
G36*
X15311068Y31183899D02*
G01*
X15490393Y30965392D01*
X15675000Y30813889D01*
X15675000Y30521019D01*
X15670960Y30480000D01*
X15675000Y30438982D01*
X15687082Y30316312D01*
X15734828Y30158914D01*
X15812364Y30013855D01*
X15916709Y29886709D01*
X15948579Y29860554D01*
X17795563Y28013568D01*
X17821709Y27981709D01*
X17853568Y27955563D01*
X17853570Y27955561D01*
X17948854Y27877364D01*
X18093913Y27799828D01*
X18251311Y27752082D01*
X18415000Y27735960D01*
X18456018Y27740000D01*
X21811653Y27740000D01*
X21751023Y27679370D01*
X21867296Y27563097D01*
X21623329Y27491514D01*
X21502429Y27236004D01*
X21433700Y26961816D01*
X21419783Y26679488D01*
X21461213Y26399870D01*
X21556397Y26133708D01*
X21623329Y26008486D01*
X21867298Y25936903D01*
X22680395Y26750000D01*
X22666253Y26764142D01*
X22845858Y26943747D01*
X22860000Y26929605D01*
X22874143Y26943747D01*
X23053748Y26764142D01*
X23039605Y26750000D01*
X23852702Y25936903D01*
X24096671Y26008486D01*
X24217571Y26263996D01*
X24286300Y26538184D01*
X24300217Y26820512D01*
X24258787Y27100130D01*
X24257045Y27105000D01*
X24902385Y27105000D01*
X24855764Y26951309D01*
X24828057Y26670000D01*
X24855764Y26388691D01*
X24937818Y26118192D01*
X25071068Y25868899D01*
X25250392Y25650392D01*
X25468899Y25471068D01*
X25596741Y25402735D01*
X25367161Y25252601D01*
X25165500Y25054895D01*
X25006285Y24821646D01*
X24895633Y24561818D01*
X24878096Y24479039D01*
X25000085Y24257000D01*
X26543000Y24257000D01*
X26543000Y24277000D01*
X26797000Y24277000D01*
X26797000Y24257000D01*
X28339915Y24257000D01*
X28461904Y24479039D01*
X28444367Y24561818D01*
X28333715Y24821646D01*
X28174500Y25054895D01*
X27972839Y25252601D01*
X27743259Y25402735D01*
X27871101Y25471068D01*
X28089608Y25650392D01*
X28241112Y25835000D01*
X29499133Y25835000D01*
X31765559Y23568573D01*
X31791709Y23536709D01*
X31918854Y23432364D01*
X32063913Y23354828D01*
X32221311Y23307082D01*
X32343981Y23295000D01*
X32343991Y23295000D01*
X32384999Y23290961D01*
X32426007Y23295000D01*
X35449132Y23295000D01*
X34579133Y22425000D01*
X30420692Y22425000D01*
X30445619Y22485179D01*
X30495000Y22733439D01*
X30495000Y22986561D01*
X30445619Y23234821D01*
X30348753Y23468676D01*
X30208125Y23679140D01*
X30029140Y23858125D01*
X29818676Y23998753D01*
X29584821Y24095619D01*
X29336561Y24145000D01*
X29083439Y24145000D01*
X28835179Y24095619D01*
X28601324Y23998753D01*
X28411817Y23872128D01*
X28339915Y24003000D01*
X26797000Y24003000D01*
X26797000Y23983000D01*
X26543000Y23983000D01*
X26543000Y24003000D01*
X25000085Y24003000D01*
X24878096Y23780961D01*
X24895633Y23698182D01*
X24896988Y23695000D01*
X20324866Y23695000D01*
X20327166Y23698517D01*
X20432650Y23960486D01*
X20485000Y24238000D01*
X20485000Y24638000D01*
X19177000Y24638000D01*
X19177000Y24618000D01*
X18923000Y24618000D01*
X18923000Y24638000D01*
X18903000Y24638000D01*
X18903000Y24892000D01*
X18923000Y24892000D01*
X18923000Y26434915D01*
X19177000Y26434915D01*
X19177000Y24892000D01*
X20485000Y24892000D01*
X20485000Y25292000D01*
X20432650Y25569514D01*
X20357038Y25757298D01*
X22046903Y25757298D01*
X22118486Y25513329D01*
X22373996Y25392429D01*
X22648184Y25323700D01*
X22930512Y25309783D01*
X23210130Y25351213D01*
X23476292Y25446397D01*
X23601514Y25513329D01*
X23673097Y25757298D01*
X22860000Y26570395D01*
X22046903Y25757298D01*
X20357038Y25757298D01*
X20327166Y25831483D01*
X20172601Y26067839D01*
X19974895Y26269500D01*
X19741646Y26428715D01*
X19481818Y26539367D01*
X19399039Y26556904D01*
X19177000Y26434915D01*
X18923000Y26434915D01*
X18700961Y26556904D01*
X18618182Y26539367D01*
X18358354Y26428715D01*
X18125105Y26269500D01*
X17927399Y26067839D01*
X17777265Y25838259D01*
X17708932Y25966101D01*
X17529607Y26184608D01*
X17311100Y26363932D01*
X17061807Y26497182D01*
X16791308Y26579236D01*
X16510000Y26606943D01*
X16228691Y26579236D01*
X15958192Y26497182D01*
X15708899Y26363932D01*
X15490392Y26184607D01*
X15311068Y25966100D01*
X15240000Y25833142D01*
X15168932Y25966101D01*
X14989607Y26184608D01*
X14771100Y26363932D01*
X14521807Y26497182D01*
X14251308Y26579236D01*
X13970000Y26606943D01*
X13688691Y26579236D01*
X13418192Y26497182D01*
X13403852Y26489517D01*
X13397636Y26501146D01*
X13293291Y26628291D01*
X13261426Y26654442D01*
X12049446Y27866421D01*
X12023291Y27898291D01*
X11974335Y27938468D01*
X13261428Y29225560D01*
X13293291Y29251709D01*
X13397636Y29378854D01*
X13475172Y29523913D01*
X13522918Y29681311D01*
X13535000Y29803981D01*
X13535000Y29803982D01*
X13539040Y29844999D01*
X13535000Y29886018D01*
X13535000Y30617385D01*
X13688692Y30570764D01*
X13970000Y30543057D01*
X14251309Y30570764D01*
X14521808Y30652818D01*
X14771101Y30786068D01*
X14989608Y30965392D01*
X15168932Y31183899D01*
X15240000Y31316858D01*
X15311068Y31183899D01*
G37*
%TD.AperFunction*%
%TD*%
M02*
