%TF.GenerationSoftware,KiCad,Pcbnew,(5.1.12)-1*%
%TF.CreationDate,2022-04-06T13:07:18+02:00*%
%TF.ProjectId,ACIA_RS232,41434941-5f52-4533-9233-322e6b696361,1.0*%
%TF.SameCoordinates,PX6d01460PY60e4b00*%
%TF.FileFunction,Soldermask,Bot*%
%TF.FilePolarity,Negative*%
%FSLAX46Y46*%
G04 Gerber Fmt 4.6, Leading zero omitted, Abs format (unit mm)*
G04 Created by KiCad (PCBNEW (5.1.12)-1) date 2022-04-06 13:07:18*
%MOMM*%
%LPD*%
G01*
G04 APERTURE LIST*
%ADD10C,4.000000*%
%ADD11C,1.600000*%
%ADD12R,1.600000X1.600000*%
%ADD13O,1.600000X1.600000*%
%ADD14C,1.500000*%
%ADD15O,2.400000X1.600000*%
%ADD16R,2.400000X1.600000*%
%ADD17O,1.600000X2.400000*%
%ADD18R,1.600000X2.400000*%
%ADD19C,1.700000*%
G04 APERTURE END LIST*
D10*
%TO.C,J2*%
X67183000Y45339000D03*
X67183000Y20345000D03*
D11*
X68245000Y37000000D03*
X68245000Y34230000D03*
X68245000Y31460000D03*
X68245000Y28690000D03*
X65405000Y38385000D03*
X65405000Y35615000D03*
X65405000Y32845000D03*
X65405000Y30075000D03*
D12*
X65405000Y27305000D03*
%TD*%
D13*
%TO.C,R1*%
X19685000Y45720000D03*
D11*
X19685000Y35560000D03*
%TD*%
%TO.C,C7*%
X53435000Y13970000D03*
D12*
X51435000Y13970000D03*
%TD*%
D11*
%TO.C,C6*%
X52610000Y43180000D03*
D12*
X54610000Y43180000D03*
%TD*%
D11*
%TO.C,C5*%
X61055000Y43180000D03*
D12*
X59055000Y43180000D03*
%TD*%
D11*
%TO.C,C4*%
X46260000Y43180000D03*
D12*
X48260000Y43180000D03*
%TD*%
D14*
%TO.C,Y1*%
X17145000Y38280000D03*
X17145000Y43180000D03*
%TD*%
D11*
%TO.C,C8*%
X22860000Y41950000D03*
X22860000Y44450000D03*
%TD*%
D15*
%TO.C,U4*%
X57785000Y36830000D03*
X50165000Y19050000D03*
X57785000Y34290000D03*
X50165000Y21590000D03*
X57785000Y31750000D03*
X50165000Y24130000D03*
X57785000Y29210000D03*
X50165000Y26670000D03*
X57785000Y26670000D03*
X50165000Y29210000D03*
X57785000Y24130000D03*
X50165000Y31750000D03*
X57785000Y21590000D03*
X50165000Y34290000D03*
X57785000Y19050000D03*
D16*
X50165000Y36830000D03*
%TD*%
D17*
%TO.C,U2*%
X3810000Y32385000D03*
X19050000Y24765000D03*
X6350000Y32385000D03*
X16510000Y24765000D03*
X8890000Y32385000D03*
X13970000Y24765000D03*
X11430000Y32385000D03*
X11430000Y24765000D03*
X13970000Y32385000D03*
X8890000Y24765000D03*
X16510000Y32385000D03*
X6350000Y24765000D03*
X19050000Y32385000D03*
D18*
X3810000Y24765000D03*
%TD*%
D15*
%TO.C,U1*%
X41910000Y44450000D03*
X26670000Y11430000D03*
X41910000Y41910000D03*
X26670000Y13970000D03*
X41910000Y39370000D03*
X26670000Y16510000D03*
X41910000Y36830000D03*
X26670000Y19050000D03*
X41910000Y34290000D03*
X26670000Y21590000D03*
X41910000Y31750000D03*
X26670000Y24130000D03*
X41910000Y29210000D03*
X26670000Y26670000D03*
X41910000Y26670000D03*
X26670000Y29210000D03*
X41910000Y24130000D03*
X26670000Y31750000D03*
X41910000Y21590000D03*
X26670000Y34290000D03*
X41910000Y19050000D03*
X26670000Y36830000D03*
X41910000Y16510000D03*
X26670000Y39370000D03*
X41910000Y13970000D03*
X26670000Y41910000D03*
X41910000Y11430000D03*
D16*
X26670000Y44450000D03*
%TD*%
D19*
%TO.C,J1*%
X17780000Y3175000D03*
X20320000Y3175000D03*
X22860000Y3175000D03*
X25400000Y3175000D03*
X27940000Y3175000D03*
X30480000Y3175000D03*
X33020000Y3175000D03*
X35560000Y3175000D03*
X38100000Y3175000D03*
X40640000Y3175000D03*
X43180000Y3175000D03*
X45720000Y3175000D03*
X48260000Y3175000D03*
X50800000Y3175000D03*
X53340000Y3175000D03*
X55880000Y3175000D03*
X58420000Y3175000D03*
X17780000Y5715000D03*
X20320000Y5715000D03*
X22860000Y5715000D03*
X25400000Y5715000D03*
X27940000Y5715000D03*
X30480000Y5715000D03*
X33020000Y5715000D03*
X35560000Y5715000D03*
X38100000Y5715000D03*
X40640000Y5715000D03*
X43180000Y5715000D03*
X45720000Y5715000D03*
X48260000Y5715000D03*
X50800000Y5715000D03*
X53340000Y5715000D03*
X55880000Y5715000D03*
G36*
G01*
X57820000Y6565000D02*
X59020000Y6565000D01*
G75*
G02*
X59270000Y6315000I0J-250000D01*
G01*
X59270000Y5115000D01*
G75*
G02*
X59020000Y4865000I-250000J0D01*
G01*
X57820000Y4865000D01*
G75*
G02*
X57570000Y5115000I0J250000D01*
G01*
X57570000Y6315000D01*
G75*
G02*
X57820000Y6565000I250000J0D01*
G01*
G37*
%TD*%
D13*
%TO.C,D1*%
X53340000Y9525000D03*
D12*
X45720000Y9525000D03*
%TD*%
D11*
%TO.C,C3*%
X22860000Y17700000D03*
X22860000Y12700000D03*
%TD*%
%TO.C,C2*%
X22860000Y31750000D03*
X22860000Y26750000D03*
%TD*%
D17*
%TO.C,U3*%
X3810000Y20320000D03*
X19050000Y12700000D03*
X6350000Y20320000D03*
X16510000Y12700000D03*
X8890000Y20320000D03*
X13970000Y12700000D03*
X11430000Y20320000D03*
X11430000Y12700000D03*
X13970000Y20320000D03*
X8890000Y12700000D03*
X16510000Y20320000D03*
X6350000Y12700000D03*
X19050000Y20320000D03*
D18*
X3810000Y12700000D03*
%TD*%
D11*
%TO.C,C1*%
X60865000Y13970000D03*
D12*
X62865000Y13970000D03*
%TD*%
M02*
