%TF.GenerationSoftware,KiCad,Pcbnew,(5.1.12)-1*%
%TF.CreationDate,2022-12-03T13:40:17+01:00*%
%TF.ProjectId,RTC,5254432e-6b69-4636-9164-5f7063625858,1.0*%
%TF.SameCoordinates,PX6d01460PY60e4b00*%
%TF.FileFunction,Legend,Bot*%
%TF.FilePolarity,Positive*%
%FSLAX46Y46*%
G04 Gerber Fmt 4.6, Leading zero omitted, Abs format (unit mm)*
G04 Created by KiCad (PCBNEW (5.1.12)-1) date 2022-12-03 13:40:17*
%MOMM*%
%LPD*%
G01*
G04 APERTURE LIST*
%ADD10C,0.150000*%
G04 APERTURE END LIST*
D10*
X12666071Y47950429D02*
X12999404Y47950429D01*
X12999404Y47426620D02*
X12999404Y48426620D01*
X12523214Y48426620D01*
X12142261Y47426620D02*
X12142261Y48093286D01*
X12142261Y47902810D02*
X12094642Y47998048D01*
X12047023Y48045667D01*
X11951785Y48093286D01*
X11856547Y48093286D01*
X11142261Y47474239D02*
X11237500Y47426620D01*
X11427976Y47426620D01*
X11523214Y47474239D01*
X11570833Y47569477D01*
X11570833Y47950429D01*
X11523214Y48045667D01*
X11427976Y48093286D01*
X11237500Y48093286D01*
X11142261Y48045667D01*
X11094642Y47950429D01*
X11094642Y47855191D01*
X11570833Y47759953D01*
X10237500Y47426620D02*
X10237500Y48426620D01*
X10237500Y47474239D02*
X10332738Y47426620D01*
X10523214Y47426620D01*
X10618452Y47474239D01*
X10666071Y47521858D01*
X10713690Y47617096D01*
X10713690Y47902810D01*
X10666071Y47998048D01*
X10618452Y48045667D01*
X10523214Y48093286D01*
X10332738Y48093286D01*
X10237500Y48045667D01*
X9999404Y47331381D02*
X9237500Y47331381D01*
X9094642Y48426620D02*
X8427976Y48426620D01*
X8856547Y47426620D01*
X8094642Y48331381D02*
X8047023Y48379000D01*
X7951785Y48426620D01*
X7713690Y48426620D01*
X7618452Y48379000D01*
X7570833Y48331381D01*
X7523214Y48236143D01*
X7523214Y48140905D01*
X7570833Y47998048D01*
X8142261Y47426620D01*
X7523214Y47426620D01*
X5047023Y47426620D02*
X5618452Y47426620D01*
X5332738Y47426620D02*
X5332738Y48426620D01*
X5427976Y48283762D01*
X5523214Y48188524D01*
X5618452Y48140905D01*
X4094642Y47426620D02*
X4666071Y47426620D01*
X4380357Y47426620D02*
X4380357Y48426620D01*
X4475595Y48283762D01*
X4570833Y48188524D01*
X4666071Y48140905D01*
X2951785Y48474239D02*
X3808928Y47188524D01*
X2666071Y48331381D02*
X2618452Y48379000D01*
X2523214Y48426620D01*
X2285119Y48426620D01*
X2189880Y48379000D01*
X2142261Y48331381D01*
X2094642Y48236143D01*
X2094642Y48140905D01*
X2142261Y47998048D01*
X2713690Y47426620D01*
X2094642Y47426620D01*
X1713690Y48331381D02*
X1666071Y48379000D01*
X1570833Y48426620D01*
X1332738Y48426620D01*
X1237500Y48379000D01*
X1189880Y48331381D01*
X1142261Y48236143D01*
X1142261Y48140905D01*
X1189880Y47998048D01*
X1761309Y47426620D01*
X1142261Y47426620D01*
M02*
