M48
; DRILL file {KiCad (5.1.12)-1} date 12/04/22 09:13:41
; FORMAT={-:-/ absolute / inch / decimal}
; #@! TF.CreationDate,2022-12-04T09:13:41+01:00
; #@! TF.GenerationSoftware,Kicad,Pcbnew,(5.1.12)-1
; #@! TF.FileFunction,Plated,1,2,PTH
FMAT,2
INCH
T1C0.0197
T2C0.0276
T3C0.0315
T4C0.0394
T5C0.0512
%
G90
G05
T1
X1.05Y0.475
X1.15Y1.255
X1.2Y0.47
X1.385Y0.43
X1.6Y1.28
X1.9Y1.225
X2.04Y1.015
T2
X1.65Y1.7
X1.95Y1.7
X2.2305Y0.95
X2.2305Y0.85
T3
X0.215Y1.525
X0.215Y1.425
X0.215Y1.325
X0.215Y1.225
X0.215Y1.125
X0.215Y1.025
X0.215Y0.925
X0.215Y0.825
X0.215Y0.725
X0.215Y0.625
X0.2581Y1.685
X0.455Y1.685
X0.515Y1.525
X0.515Y1.425
X0.515Y1.325
X0.515Y1.225
X0.515Y1.125
X0.515Y1.025
X0.515Y0.925
X0.515Y0.825
X0.515Y0.725
X0.515Y0.625
X0.75Y0.545
X0.75Y0.4663
X0.775Y1.625
X0.775Y1.525
X0.775Y1.425
X0.775Y1.325
X0.775Y1.225
X0.95Y1.425
X0.95Y0.825
X1.05Y1.575
X1.05Y1.425
X1.05Y0.825
X1.145Y0.63
X1.15Y1.575
X1.15Y1.425
X1.15Y0.825
X1.25Y1.575
X1.25Y1.425
X1.25Y0.825
X1.35Y1.575
X1.35Y1.425
X1.35Y0.825
X1.445Y0.63
X1.45Y1.575
X1.45Y1.425
X1.45Y0.825
X1.55Y1.575
X1.55Y1.425
X1.55Y0.825
X1.65Y1.575
X1.65Y1.425
X1.65Y0.825
X1.75Y1.575
X1.75Y1.425
X1.75Y0.825
X1.85Y1.575
X1.85Y1.425
X1.85Y0.825
X1.95Y1.425
X1.95Y0.825
X2.05Y1.425
X2.05Y0.825
X2.2781Y0.7
X2.2781Y0.575
X2.475Y0.7
X2.475Y0.575
X2.575Y0.9787
X2.575Y0.8213
T4
X0.7Y0.225
X0.7Y0.125
X0.8Y0.225
X0.8Y0.125
X0.9Y0.225
X0.9Y0.125
X1.0Y0.225
X1.0Y0.125
X1.1Y0.225
X1.1Y0.125
X1.2Y0.225
X1.2Y0.125
X1.3Y0.225
X1.3Y0.125
X1.4Y0.225
X1.4Y0.125
X1.5Y0.225
X1.5Y0.125
X1.6Y0.225
X1.6Y0.125
X1.7Y0.225
X1.7Y0.125
X1.8Y0.225
X1.8Y0.125
X1.9Y0.225
X1.9Y0.125
X1.95Y0.525
X2.0Y0.225
X2.0Y0.125
X2.05Y0.525
X2.1Y0.225
X2.1Y0.125
X2.2Y0.225
X2.2Y0.125
X2.3Y0.225
X2.3Y0.125
T5
X2.65Y0.725
X2.65Y0.525
T0
M30
