%TF.GenerationSoftware,KiCad,Pcbnew,(5.1.12)-1*%
%TF.CreationDate,2022-12-04T09:13:40+01:00*%
%TF.ProjectId,RTC,5254432e-6b69-4636-9164-5f7063625858,1.0*%
%TF.SameCoordinates,PX6d01460PY60e4b00*%
%TF.FileFunction,Legend,Top*%
%TF.FilePolarity,Positive*%
%FSLAX46Y46*%
G04 Gerber Fmt 4.6, Leading zero omitted, Abs format (unit mm)*
G04 Created by KiCad (PCBNEW (5.1.12)-1) date 2022-12-04 09:13:40*
%MOMM*%
%LPD*%
G01*
G04 APERTURE LIST*
%ADD10C,0.250000*%
%ADD11C,0.150000*%
%ADD12C,0.200000*%
%ADD13C,0.120000*%
%ADD14C,0.127000*%
G04 APERTURE END LIST*
D10*
X18934642Y46855953D02*
X18934642Y48555953D01*
X19648928Y46855953D02*
X19648928Y48555953D01*
X20506071Y46855953D01*
X20506071Y48555953D01*
X21006071Y48555953D02*
X21863214Y48555953D01*
X21434642Y46855953D02*
X21434642Y48555953D01*
X22363214Y47746429D02*
X22863214Y47746429D01*
X23077500Y46855953D02*
X22363214Y46855953D01*
X22363214Y48555953D01*
X23077500Y48555953D01*
X24577500Y46855953D02*
X24077500Y47665477D01*
X23720357Y46855953D02*
X23720357Y48555953D01*
X24291785Y48555953D01*
X24434642Y48475000D01*
X24506071Y48394048D01*
X24577500Y48232143D01*
X24577500Y47989286D01*
X24506071Y47827381D01*
X24434642Y47746429D01*
X24291785Y47665477D01*
X23720357Y47665477D01*
X25720357Y47746429D02*
X25220357Y47746429D01*
X25220357Y46855953D02*
X25220357Y48555953D01*
X25934642Y48555953D01*
X26434642Y47341667D02*
X27148928Y47341667D01*
X26291785Y46855953D02*
X26791785Y48555953D01*
X27291785Y46855953D01*
X28648928Y47017858D02*
X28577500Y46936905D01*
X28363214Y46855953D01*
X28220357Y46855953D01*
X28006071Y46936905D01*
X27863214Y47098810D01*
X27791785Y47260715D01*
X27720357Y47584524D01*
X27720357Y47827381D01*
X27791785Y48151191D01*
X27863214Y48313096D01*
X28006071Y48475000D01*
X28220357Y48555953D01*
X28363214Y48555953D01*
X28577500Y48475000D01*
X28648928Y48394048D01*
X29291785Y47746429D02*
X29791785Y47746429D01*
X30006071Y46855953D02*
X29291785Y46855953D01*
X29291785Y48555953D01*
X30006071Y48555953D01*
X32648928Y46855953D02*
X32148928Y47665477D01*
X31791785Y46855953D02*
X31791785Y48555953D01*
X32363214Y48555953D01*
X32506071Y48475000D01*
X32577500Y48394048D01*
X32648928Y48232143D01*
X32648928Y47989286D01*
X32577500Y47827381D01*
X32506071Y47746429D01*
X32363214Y47665477D01*
X31791785Y47665477D01*
X33077500Y48555953D02*
X33934642Y48555953D01*
X33506071Y46855953D02*
X33506071Y48555953D01*
X35291785Y47017858D02*
X35220357Y46936905D01*
X35006071Y46855953D01*
X34863214Y46855953D01*
X34648928Y46936905D01*
X34506071Y47098810D01*
X34434642Y47260715D01*
X34363214Y47584524D01*
X34363214Y47827381D01*
X34434642Y48151191D01*
X34506071Y48313096D01*
X34648928Y48475000D01*
X34863214Y48555953D01*
X35006071Y48555953D01*
X35220357Y48475000D01*
X35291785Y48394048D01*
X37363214Y48555953D02*
X37648928Y48555953D01*
X37791785Y48475000D01*
X37934642Y48313096D01*
X38006071Y47989286D01*
X38006071Y47422620D01*
X37934642Y47098810D01*
X37791785Y46936905D01*
X37648928Y46855953D01*
X37363214Y46855953D01*
X37220357Y46936905D01*
X37077500Y47098810D01*
X37006071Y47422620D01*
X37006071Y47989286D01*
X37077500Y48313096D01*
X37220357Y48475000D01*
X37363214Y48555953D01*
X39506071Y46855953D02*
X39006071Y47665477D01*
X38648928Y46855953D02*
X38648928Y48555953D01*
X39220357Y48555953D01*
X39363214Y48475000D01*
X39434642Y48394048D01*
X39506071Y48232143D01*
X39506071Y47989286D01*
X39434642Y47827381D01*
X39363214Y47746429D01*
X39220357Y47665477D01*
X38648928Y47665477D01*
X40148928Y46855953D02*
X40148928Y48555953D01*
X41720357Y47017858D02*
X41648928Y46936905D01*
X41434642Y46855953D01*
X41291785Y46855953D01*
X41077500Y46936905D01*
X40934642Y47098810D01*
X40863214Y47260715D01*
X40791785Y47584524D01*
X40791785Y47827381D01*
X40863214Y48151191D01*
X40934642Y48313096D01*
X41077500Y48475000D01*
X41291785Y48555953D01*
X41434642Y48555953D01*
X41648928Y48475000D01*
X41720357Y48394048D01*
D11*
X61252142Y3717858D02*
X61309285Y3775000D01*
X61423571Y3832143D01*
X61709285Y3832143D01*
X61823571Y3775000D01*
X61880714Y3717858D01*
X61937857Y3603572D01*
X61937857Y3489286D01*
X61880714Y3317858D01*
X61195000Y2632143D01*
X61937857Y2632143D01*
X61937857Y5172143D02*
X61252142Y5172143D01*
X61595000Y5172143D02*
X61595000Y6372143D01*
X61480714Y6200715D01*
X61366428Y6086429D01*
X61252142Y6029286D01*
D12*
X5290047Y10106143D02*
X5028142Y10106143D01*
X5028142Y11820429D01*
X5290047Y11820429D01*
X5604333Y11706143D02*
X6285285Y11706143D01*
X5918619Y11249000D01*
X6075761Y11249000D01*
X6180523Y11191858D01*
X6232904Y11134715D01*
X6285285Y11020429D01*
X6285285Y10734715D01*
X6232904Y10620429D01*
X6180523Y10563286D01*
X6075761Y10506143D01*
X5761476Y10506143D01*
X5656714Y10563286D01*
X5604333Y10620429D01*
X7228142Y11706143D02*
X7018619Y11706143D01*
X6913857Y11649000D01*
X6861476Y11591858D01*
X6756714Y11420429D01*
X6704333Y11191858D01*
X6704333Y10734715D01*
X6756714Y10620429D01*
X6809095Y10563286D01*
X6913857Y10506143D01*
X7123380Y10506143D01*
X7228142Y10563286D01*
X7280523Y10620429D01*
X7332904Y10734715D01*
X7332904Y11020429D01*
X7280523Y11134715D01*
X7228142Y11191858D01*
X7123380Y11249000D01*
X6913857Y11249000D01*
X6809095Y11191858D01*
X6756714Y11134715D01*
X6704333Y11020429D01*
X8013857Y11706143D02*
X8118619Y11706143D01*
X8223380Y11649000D01*
X8275761Y11591858D01*
X8328142Y11477572D01*
X8380523Y11249000D01*
X8380523Y10963286D01*
X8328142Y10734715D01*
X8275761Y10620429D01*
X8223380Y10563286D01*
X8118619Y10506143D01*
X8013857Y10506143D01*
X7909095Y10563286D01*
X7856714Y10620429D01*
X7804333Y10734715D01*
X7751952Y10963286D01*
X7751952Y11249000D01*
X7804333Y11477572D01*
X7856714Y11591858D01*
X7909095Y11649000D01*
X8013857Y11706143D01*
X8851952Y10963286D02*
X9690047Y10963286D01*
X10109095Y11706143D02*
X10790047Y11706143D01*
X10423380Y11249000D01*
X10580523Y11249000D01*
X10685285Y11191858D01*
X10737666Y11134715D01*
X10790047Y11020429D01*
X10790047Y10734715D01*
X10737666Y10620429D01*
X10685285Y10563286D01*
X10580523Y10506143D01*
X10266238Y10506143D01*
X10161476Y10563286D01*
X10109095Y10620429D01*
X11156714Y11706143D02*
X11890047Y11706143D01*
X11418619Y10506143D01*
X12885285Y10506143D02*
X12256714Y10506143D01*
X12571000Y10506143D02*
X12571000Y11706143D01*
X12466238Y11534715D01*
X12361476Y11420429D01*
X12256714Y11363286D01*
X13251952Y10106143D02*
X13513857Y10106143D01*
X13513857Y11820429D01*
X13251952Y11820429D01*
D13*
%TO.C,D1*%
X31373000Y17122000D02*
X31373000Y14882000D01*
X31613000Y17122000D02*
X31613000Y14882000D01*
X31493000Y17122000D02*
X31493000Y14882000D01*
X35663000Y16002000D02*
X35013000Y16002000D01*
X30123000Y16002000D02*
X30773000Y16002000D01*
X35013000Y17122000D02*
X30773000Y17122000D01*
X35013000Y14882000D02*
X35013000Y17122000D01*
X30773000Y14882000D02*
X35013000Y14882000D01*
X30773000Y17122000D02*
X30773000Y14882000D01*
%TO.C,C5*%
X65310000Y18875000D02*
X69310000Y18875000D01*
X69310000Y18875000D02*
X70310000Y15875000D01*
X65310000Y18875000D02*
X64310000Y15875000D01*
X68428034Y15875000D02*
G75*
G03*
X68428034Y15875000I-1118034J0D01*
G01*
X67310000Y14875000D02*
X67310000Y16993033D01*
X66191967Y15875000D02*
X68310000Y15875000D01*
X70310000Y15875000D02*
G75*
G02*
X67310000Y12875000I-3000000J0D01*
G01*
X67310000Y12875000D02*
G75*
G02*
X64310000Y15875000I0J3000000D01*
G01*
D14*
%TO.C,BT1*%
X63150000Y30280000D02*
X57570000Y30280000D01*
X57570000Y32795000D02*
X58270000Y33765000D01*
X71970000Y32795000D02*
X71270000Y33765000D01*
X71970000Y30280000D02*
X71970000Y32795000D01*
X57570000Y30280000D02*
X57570000Y32795000D01*
X71970000Y30280000D02*
X66390000Y30280000D01*
X58269999Y33764999D02*
G75*
G02*
X63150000Y44785000I6503808J3710420D01*
G01*
X66390000Y44784999D02*
G75*
G02*
X71270000Y33765000I-1623807J-7309580D01*
G01*
D13*
%TO.C,U2*%
X10271000Y14545000D02*
X11521000Y14545000D01*
X11521000Y14545000D02*
X11521000Y40065000D01*
X11521000Y40065000D02*
X7021000Y40065000D01*
X7021000Y40065000D02*
X7021000Y14545000D01*
X7021000Y14545000D02*
X8271000Y14545000D01*
X8271000Y14545000D02*
G75*
G02*
X10271000Y14545000I1000000J0D01*
G01*
%TO.C,U1*%
X22800000Y27575000D02*
X22800000Y22515000D01*
X22800000Y22515000D02*
X53400000Y22515000D01*
X53400000Y22515000D02*
X53400000Y34635000D01*
X53400000Y34635000D02*
X22800000Y34635000D01*
X22800000Y34635000D02*
X22800000Y29575000D01*
X22800000Y29575000D02*
G75*
G02*
X22800000Y27575000I0J-1000000D01*
G01*
%TO.C,Y1*%
X64605000Y21060000D02*
X59455000Y21060000D01*
X59455000Y21060000D02*
X59455000Y24660000D01*
X59455000Y24660000D02*
X64605000Y24660000D01*
X59455000Y22260000D02*
X58055000Y21590000D01*
X58055000Y21590000D02*
X57355000Y21590000D01*
X59455000Y23460000D02*
X58055000Y24130000D01*
X58055000Y24130000D02*
X57355000Y24130000D01*
%TO.C,RN2*%
X25230000Y41405000D02*
X25230000Y38605000D01*
X25230000Y38605000D02*
X48430000Y38605000D01*
X48430000Y38605000D02*
X48430000Y41405000D01*
X48430000Y41405000D02*
X25230000Y41405000D01*
X27940000Y41405000D02*
X27940000Y38605000D01*
%TO.C,RN1*%
X18285000Y29675000D02*
X21085000Y29675000D01*
X21085000Y29675000D02*
X21085000Y42715000D01*
X21085000Y42715000D02*
X18285000Y42715000D01*
X18285000Y42715000D02*
X18285000Y29675000D01*
X18285000Y32385000D02*
X21085000Y32385000D01*
%TO.C,R1*%
X43800000Y44100000D02*
X43800000Y42260000D01*
X43800000Y42260000D02*
X47640000Y42260000D01*
X47640000Y42260000D02*
X47640000Y44100000D01*
X47640000Y44100000D02*
X43800000Y44100000D01*
X42850000Y43180000D02*
X43800000Y43180000D01*
X48590000Y43180000D02*
X47640000Y43180000D01*
%TO.C,JP1*%
X48200000Y14665000D02*
X48200000Y12005000D01*
X50800000Y14665000D02*
X48200000Y14665000D01*
X50800000Y12005000D02*
X48200000Y12005000D01*
X50800000Y14665000D02*
X50800000Y12005000D01*
X52070000Y14665000D02*
X53400000Y14665000D01*
X53400000Y14665000D02*
X53400000Y13335000D01*
%TO.C,C6*%
X62635000Y13535000D02*
X58095000Y13535000D01*
X62635000Y15675000D02*
X58095000Y15675000D01*
X62635000Y13535000D02*
X62635000Y13550000D01*
X62635000Y15660000D02*
X62635000Y15675000D01*
X58095000Y13535000D02*
X58095000Y13550000D01*
X58095000Y15660000D02*
X58095000Y15675000D01*
%TO.C,C3*%
X62635000Y16710000D02*
X58095000Y16710000D01*
X62635000Y18850000D02*
X58095000Y18850000D01*
X62635000Y16710000D02*
X62635000Y16725000D01*
X62635000Y18835000D02*
X62635000Y18850000D01*
X58095000Y16710000D02*
X58095000Y16725000D01*
X58095000Y18835000D02*
X58095000Y18850000D01*
%TO.C,C2*%
X12677000Y41429000D02*
X5437000Y41429000D01*
X12677000Y44169000D02*
X5437000Y44169000D01*
X12677000Y41429000D02*
X12677000Y44169000D01*
X5437000Y41429000D02*
X5437000Y44169000D01*
%TO.C,C1*%
X21670000Y12843000D02*
G75*
G03*
X21670000Y12843000I-2620000J0D01*
G01*
X18010000Y12843000D02*
X16470000Y12843000D01*
X21630000Y12843000D02*
X20090000Y12843000D01*
X18010000Y12803000D02*
X16470000Y12803000D01*
X21630000Y12803000D02*
X20090000Y12803000D01*
X21629000Y12763000D02*
X20090000Y12763000D01*
X18010000Y12763000D02*
X16471000Y12763000D01*
X21628000Y12723000D02*
X20090000Y12723000D01*
X18010000Y12723000D02*
X16472000Y12723000D01*
X21626000Y12683000D02*
X20090000Y12683000D01*
X18010000Y12683000D02*
X16474000Y12683000D01*
X21623000Y12643000D02*
X20090000Y12643000D01*
X18010000Y12643000D02*
X16477000Y12643000D01*
X21619000Y12603000D02*
X20090000Y12603000D01*
X18010000Y12603000D02*
X16481000Y12603000D01*
X21615000Y12563000D02*
X20090000Y12563000D01*
X18010000Y12563000D02*
X16485000Y12563000D01*
X21611000Y12523000D02*
X20090000Y12523000D01*
X18010000Y12523000D02*
X16489000Y12523000D01*
X21606000Y12483000D02*
X20090000Y12483000D01*
X18010000Y12483000D02*
X16494000Y12483000D01*
X21600000Y12443000D02*
X20090000Y12443000D01*
X18010000Y12443000D02*
X16500000Y12443000D01*
X21593000Y12403000D02*
X20090000Y12403000D01*
X18010000Y12403000D02*
X16507000Y12403000D01*
X21586000Y12363000D02*
X20090000Y12363000D01*
X18010000Y12363000D02*
X16514000Y12363000D01*
X21578000Y12323000D02*
X20090000Y12323000D01*
X18010000Y12323000D02*
X16522000Y12323000D01*
X21570000Y12283000D02*
X20090000Y12283000D01*
X18010000Y12283000D02*
X16530000Y12283000D01*
X21561000Y12243000D02*
X20090000Y12243000D01*
X18010000Y12243000D02*
X16539000Y12243000D01*
X21551000Y12203000D02*
X20090000Y12203000D01*
X18010000Y12203000D02*
X16549000Y12203000D01*
X21541000Y12163000D02*
X20090000Y12163000D01*
X18010000Y12163000D02*
X16559000Y12163000D01*
X21530000Y12122000D02*
X20090000Y12122000D01*
X18010000Y12122000D02*
X16570000Y12122000D01*
X21518000Y12082000D02*
X20090000Y12082000D01*
X18010000Y12082000D02*
X16582000Y12082000D01*
X21505000Y12042000D02*
X20090000Y12042000D01*
X18010000Y12042000D02*
X16595000Y12042000D01*
X21492000Y12002000D02*
X20090000Y12002000D01*
X18010000Y12002000D02*
X16608000Y12002000D01*
X21478000Y11962000D02*
X20090000Y11962000D01*
X18010000Y11962000D02*
X16622000Y11962000D01*
X21464000Y11922000D02*
X20090000Y11922000D01*
X18010000Y11922000D02*
X16636000Y11922000D01*
X21448000Y11882000D02*
X20090000Y11882000D01*
X18010000Y11882000D02*
X16652000Y11882000D01*
X21432000Y11842000D02*
X20090000Y11842000D01*
X18010000Y11842000D02*
X16668000Y11842000D01*
X21415000Y11802000D02*
X20090000Y11802000D01*
X18010000Y11802000D02*
X16685000Y11802000D01*
X21398000Y11762000D02*
X20090000Y11762000D01*
X18010000Y11762000D02*
X16702000Y11762000D01*
X21379000Y11722000D02*
X20090000Y11722000D01*
X18010000Y11722000D02*
X16721000Y11722000D01*
X21360000Y11682000D02*
X20090000Y11682000D01*
X18010000Y11682000D02*
X16740000Y11682000D01*
X21340000Y11642000D02*
X20090000Y11642000D01*
X18010000Y11642000D02*
X16760000Y11642000D01*
X21318000Y11602000D02*
X20090000Y11602000D01*
X18010000Y11602000D02*
X16782000Y11602000D01*
X21297000Y11562000D02*
X20090000Y11562000D01*
X18010000Y11562000D02*
X16803000Y11562000D01*
X21274000Y11522000D02*
X20090000Y11522000D01*
X18010000Y11522000D02*
X16826000Y11522000D01*
X21250000Y11482000D02*
X20090000Y11482000D01*
X18010000Y11482000D02*
X16850000Y11482000D01*
X21225000Y11442000D02*
X20090000Y11442000D01*
X18010000Y11442000D02*
X16875000Y11442000D01*
X21199000Y11402000D02*
X20090000Y11402000D01*
X18010000Y11402000D02*
X16901000Y11402000D01*
X21172000Y11362000D02*
X20090000Y11362000D01*
X18010000Y11362000D02*
X16928000Y11362000D01*
X21145000Y11322000D02*
X20090000Y11322000D01*
X18010000Y11322000D02*
X16955000Y11322000D01*
X21115000Y11282000D02*
X20090000Y11282000D01*
X18010000Y11282000D02*
X16985000Y11282000D01*
X21085000Y11242000D02*
X20090000Y11242000D01*
X18010000Y11242000D02*
X17015000Y11242000D01*
X21054000Y11202000D02*
X20090000Y11202000D01*
X18010000Y11202000D02*
X17046000Y11202000D01*
X21021000Y11162000D02*
X20090000Y11162000D01*
X18010000Y11162000D02*
X17079000Y11162000D01*
X20987000Y11122000D02*
X20090000Y11122000D01*
X18010000Y11122000D02*
X17113000Y11122000D01*
X20951000Y11082000D02*
X20090000Y11082000D01*
X18010000Y11082000D02*
X17149000Y11082000D01*
X20914000Y11042000D02*
X20090000Y11042000D01*
X18010000Y11042000D02*
X17186000Y11042000D01*
X20876000Y11002000D02*
X20090000Y11002000D01*
X18010000Y11002000D02*
X17224000Y11002000D01*
X20835000Y10962000D02*
X20090000Y10962000D01*
X18010000Y10962000D02*
X17265000Y10962000D01*
X20793000Y10922000D02*
X20090000Y10922000D01*
X18010000Y10922000D02*
X17307000Y10922000D01*
X20749000Y10882000D02*
X20090000Y10882000D01*
X18010000Y10882000D02*
X17351000Y10882000D01*
X20703000Y10842000D02*
X20090000Y10842000D01*
X18010000Y10842000D02*
X17397000Y10842000D01*
X20655000Y10802000D02*
X17445000Y10802000D01*
X20604000Y10762000D02*
X17496000Y10762000D01*
X20550000Y10722000D02*
X17550000Y10722000D01*
X20493000Y10682000D02*
X17607000Y10682000D01*
X20433000Y10642000D02*
X17667000Y10642000D01*
X20369000Y10602000D02*
X17731000Y10602000D01*
X20301000Y10562000D02*
X17799000Y10562000D01*
X20228000Y10522000D02*
X17872000Y10522000D01*
X20148000Y10482000D02*
X17952000Y10482000D01*
X20061000Y10442000D02*
X18039000Y10442000D01*
X19965000Y10402000D02*
X18135000Y10402000D01*
X19855000Y10362000D02*
X18245000Y10362000D01*
X19727000Y10322000D02*
X18373000Y10322000D01*
X19568000Y10282000D02*
X18532000Y10282000D01*
X19334000Y10242000D02*
X18766000Y10242000D01*
X20525000Y15647775D02*
X20525000Y15147775D01*
X20775000Y15397775D02*
X20275000Y15397775D01*
%TO.C,J1*%
X40150000Y1445000D02*
X40150000Y-7675000D01*
X36050000Y1445000D02*
X36050000Y-7675000D01*
X63630000Y1445000D02*
X63630000Y-7675000D01*
X63630000Y-7675000D02*
X12570000Y-7675000D01*
X12570000Y-7675000D02*
X12570000Y1445000D01*
X12570000Y1445000D02*
X63630000Y1445000D01*
X58420000Y7065000D02*
X58920000Y8065000D01*
X58920000Y8065000D02*
X57920000Y8065000D01*
X57920000Y8065000D02*
X58420000Y7065000D01*
%TO.C,D1*%
D11*
X28598904Y13517620D02*
X28598904Y14517620D01*
X28837000Y14517620D01*
X28979857Y14470000D01*
X29075095Y14374762D01*
X29122714Y14279524D01*
X29170333Y14089048D01*
X29170333Y13946191D01*
X29122714Y13755715D01*
X29075095Y13660477D01*
X28979857Y13565239D01*
X28837000Y13517620D01*
X28598904Y13517620D01*
X30122714Y13517620D02*
X29551285Y13517620D01*
X29837000Y13517620D02*
X29837000Y14517620D01*
X29741761Y14374762D01*
X29646523Y14279524D01*
X29551285Y14231905D01*
X32401142Y13517620D02*
X31829714Y13517620D01*
X32115428Y13517620D02*
X32115428Y14517620D01*
X32020190Y14374762D01*
X31924952Y14279524D01*
X31829714Y14231905D01*
X32829714Y13517620D02*
X32829714Y14517620D01*
X33401142Y13517620D01*
X33401142Y14517620D01*
X34305904Y14184286D02*
X34305904Y13517620D01*
X34067809Y14565239D02*
X33829714Y13850953D01*
X34448761Y13850953D01*
X35353523Y13517620D02*
X34782095Y13517620D01*
X35067809Y13517620D02*
X35067809Y14517620D01*
X34972571Y14374762D01*
X34877333Y14279524D01*
X34782095Y14231905D01*
X36210666Y14184286D02*
X36210666Y13517620D01*
X35972571Y14565239D02*
X35734476Y13850953D01*
X36353523Y13850953D01*
X36877333Y14089048D02*
X36782095Y14136667D01*
X36734476Y14184286D01*
X36686857Y14279524D01*
X36686857Y14327143D01*
X36734476Y14422381D01*
X36782095Y14470000D01*
X36877333Y14517620D01*
X37067809Y14517620D01*
X37163047Y14470000D01*
X37210666Y14422381D01*
X37258285Y14327143D01*
X37258285Y14279524D01*
X37210666Y14184286D01*
X37163047Y14136667D01*
X37067809Y14089048D01*
X36877333Y14089048D01*
X36782095Y14041429D01*
X36734476Y13993810D01*
X36686857Y13898572D01*
X36686857Y13708096D01*
X36734476Y13612858D01*
X36782095Y13565239D01*
X36877333Y13517620D01*
X37067809Y13517620D01*
X37163047Y13565239D01*
X37210666Y13612858D01*
X37258285Y13708096D01*
X37258285Y13898572D01*
X37210666Y13993810D01*
X37163047Y14041429D01*
X37067809Y14089048D01*
X28821095Y17349620D02*
X28821095Y18349620D01*
X29392523Y17349620D02*
X28963952Y17921048D01*
X29392523Y18349620D02*
X28821095Y17778191D01*
%TO.C,C5*%
X71604142Y15708334D02*
X71651761Y15660715D01*
X71699380Y15517858D01*
X71699380Y15422620D01*
X71651761Y15279762D01*
X71556523Y15184524D01*
X71461285Y15136905D01*
X71270809Y15089286D01*
X71127952Y15089286D01*
X70937476Y15136905D01*
X70842238Y15184524D01*
X70747000Y15279762D01*
X70699380Y15422620D01*
X70699380Y15517858D01*
X70747000Y15660715D01*
X70794619Y15708334D01*
X70699380Y16613096D02*
X70699380Y16136905D01*
X71175571Y16089286D01*
X71127952Y16136905D01*
X71080333Y16232143D01*
X71080333Y16470239D01*
X71127952Y16565477D01*
X71175571Y16613096D01*
X71270809Y16660715D01*
X71508904Y16660715D01*
X71604142Y16613096D01*
X71651761Y16565477D01*
X71699380Y16470239D01*
X71699380Y16232143D01*
X71651761Y16136905D01*
X71604142Y16089286D01*
X68667380Y14882953D02*
X68667380Y14406762D01*
X69143571Y14359143D01*
X69095952Y14406762D01*
X69048333Y14502000D01*
X69048333Y14740096D01*
X69095952Y14835334D01*
X69143571Y14882953D01*
X69238809Y14930572D01*
X69476904Y14930572D01*
X69572142Y14882953D01*
X69619761Y14835334D01*
X69667380Y14740096D01*
X69667380Y14502000D01*
X69619761Y14406762D01*
X69572142Y14359143D01*
X68667380Y15549620D02*
X68667380Y15644858D01*
X68715000Y15740096D01*
X68762619Y15787715D01*
X68857857Y15835334D01*
X69048333Y15882953D01*
X69286428Y15882953D01*
X69476904Y15835334D01*
X69572142Y15787715D01*
X69619761Y15740096D01*
X69667380Y15644858D01*
X69667380Y15549620D01*
X69619761Y15454381D01*
X69572142Y15406762D01*
X69476904Y15359143D01*
X69286428Y15311524D01*
X69048333Y15311524D01*
X68857857Y15359143D01*
X68762619Y15406762D01*
X68715000Y15454381D01*
X68667380Y15549620D01*
X69000714Y16311524D02*
X70000714Y16311524D01*
X69048333Y16311524D02*
X69000714Y16406762D01*
X69000714Y16597239D01*
X69048333Y16692477D01*
X69095952Y16740096D01*
X69191190Y16787715D01*
X69476904Y16787715D01*
X69572142Y16740096D01*
X69619761Y16692477D01*
X69667380Y16597239D01*
X69667380Y16406762D01*
X69619761Y16311524D01*
X69143571Y17549620D02*
X69143571Y17216286D01*
X69667380Y17216286D02*
X68667380Y17216286D01*
X68667380Y17692477D01*
%TO.C,BT1*%
X58066000Y44112000D02*
X58132666Y44312000D01*
X58199333Y44378667D01*
X58332666Y44445334D01*
X58532666Y44445334D01*
X58666000Y44378667D01*
X58732666Y44312000D01*
X58799333Y44178667D01*
X58799333Y43645334D01*
X57399333Y43645334D01*
X57399333Y44112000D01*
X57466000Y44245334D01*
X57532666Y44312000D01*
X57666000Y44378667D01*
X57799333Y44378667D01*
X57932666Y44312000D01*
X57999333Y44245334D01*
X58066000Y44112000D01*
X58066000Y43645334D01*
X57399333Y44845334D02*
X57399333Y45645334D01*
X58799333Y45245334D02*
X57399333Y45245334D01*
X58799333Y46845334D02*
X58799333Y46045334D01*
X58799333Y46445334D02*
X57399333Y46445334D01*
X57599333Y46312000D01*
X57732666Y46178667D01*
X57799333Y46045334D01*
X74287000Y35166667D02*
X74353666Y35100000D01*
X74420333Y34900000D01*
X74420333Y34766667D01*
X74353666Y34566667D01*
X74220333Y34433334D01*
X74087000Y34366667D01*
X73820333Y34300000D01*
X73620333Y34300000D01*
X73353666Y34366667D01*
X73220333Y34433334D01*
X73087000Y34566667D01*
X73020333Y34766667D01*
X73020333Y34900000D01*
X73087000Y35100000D01*
X73153666Y35166667D01*
X74420333Y36566667D02*
X73753666Y36100000D01*
X74420333Y35766667D02*
X73020333Y35766667D01*
X73020333Y36300000D01*
X73087000Y36433334D01*
X73153666Y36500000D01*
X73287000Y36566667D01*
X73487000Y36566667D01*
X73620333Y36500000D01*
X73687000Y36433334D01*
X73753666Y36300000D01*
X73753666Y35766667D01*
X74420333Y37900000D02*
X74420333Y37100000D01*
X74420333Y37500000D02*
X73020333Y37500000D01*
X73220333Y37366667D01*
X73353666Y37233334D01*
X73420333Y37100000D01*
X73153666Y38433334D02*
X73087000Y38500000D01*
X73020333Y38633334D01*
X73020333Y38966667D01*
X73087000Y39100000D01*
X73153666Y39166667D01*
X73287000Y39233334D01*
X73420333Y39233334D01*
X73620333Y39166667D01*
X74420333Y38366667D01*
X74420333Y39233334D01*
X73153666Y39766667D02*
X73087000Y39833334D01*
X73020333Y39966667D01*
X73020333Y40300000D01*
X73087000Y40433334D01*
X73153666Y40500000D01*
X73287000Y40566667D01*
X73420333Y40566667D01*
X73620333Y40500000D01*
X74420333Y39700000D01*
X74420333Y40566667D01*
X73020333Y41433334D02*
X73020333Y41566667D01*
X73087000Y41700000D01*
X73153666Y41766667D01*
X73287000Y41833334D01*
X73553666Y41900000D01*
X73887000Y41900000D01*
X74153666Y41833334D01*
X74287000Y41766667D01*
X74353666Y41700000D01*
X74420333Y41566667D01*
X74420333Y41433334D01*
X74353666Y41300000D01*
X74287000Y41233334D01*
X74153666Y41166667D01*
X73887000Y41100000D01*
X73553666Y41100000D01*
X73287000Y41166667D01*
X73153666Y41233334D01*
X73087000Y41300000D01*
X73020333Y41433334D01*
X62584000Y45567667D02*
X62584000Y46634334D01*
X62457000Y28295667D02*
X62457000Y29362334D01*
X62990333Y28829000D02*
X61923666Y28829000D01*
%TO.C,U2*%
X8509095Y14092620D02*
X8509095Y13283096D01*
X8556714Y13187858D01*
X8604333Y13140239D01*
X8699571Y13092620D01*
X8890047Y13092620D01*
X8985285Y13140239D01*
X9032904Y13187858D01*
X9080523Y13283096D01*
X9080523Y14092620D01*
X9509095Y13997381D02*
X9556714Y14045000D01*
X9651952Y14092620D01*
X9890047Y14092620D01*
X9985285Y14045000D01*
X10032904Y13997381D01*
X10080523Y13902143D01*
X10080523Y13806905D01*
X10032904Y13664048D01*
X9461476Y13092620D01*
X10080523Y13092620D01*
X8771000Y25257429D02*
X8723380Y25162191D01*
X8723380Y25019334D01*
X8771000Y24876477D01*
X8866238Y24781239D01*
X8961476Y24733620D01*
X9151952Y24686000D01*
X9294809Y24686000D01*
X9485285Y24733620D01*
X9580523Y24781239D01*
X9675761Y24876477D01*
X9723380Y25019334D01*
X9723380Y25114572D01*
X9675761Y25257429D01*
X9628142Y25305048D01*
X9294809Y25305048D01*
X9294809Y25114572D01*
X9437666Y25686000D02*
X9437666Y26162191D01*
X9723380Y25590762D02*
X8723380Y25924096D01*
X9723380Y26257429D01*
X9723380Y27066953D02*
X9723380Y26590762D01*
X8723380Y26590762D01*
X9723380Y27924096D02*
X9723380Y27352667D01*
X9723380Y27638381D02*
X8723380Y27638381D01*
X8866238Y27543143D01*
X8961476Y27447905D01*
X9009095Y27352667D01*
X8723380Y28781239D02*
X8723380Y28590762D01*
X8771000Y28495524D01*
X8818619Y28447905D01*
X8961476Y28352667D01*
X9151952Y28305048D01*
X9532904Y28305048D01*
X9628142Y28352667D01*
X9675761Y28400286D01*
X9723380Y28495524D01*
X9723380Y28686000D01*
X9675761Y28781239D01*
X9628142Y28828858D01*
X9532904Y28876477D01*
X9294809Y28876477D01*
X9199571Y28828858D01*
X9151952Y28781239D01*
X9104333Y28686000D01*
X9104333Y28495524D01*
X9151952Y28400286D01*
X9199571Y28352667D01*
X9294809Y28305048D01*
X8723380Y29162191D02*
X9723380Y29495524D01*
X8723380Y29828858D01*
X9151952Y30305048D02*
X9104333Y30209810D01*
X9056714Y30162191D01*
X8961476Y30114572D01*
X8913857Y30114572D01*
X8818619Y30162191D01*
X8771000Y30209810D01*
X8723380Y30305048D01*
X8723380Y30495524D01*
X8771000Y30590762D01*
X8818619Y30638381D01*
X8913857Y30686000D01*
X8961476Y30686000D01*
X9056714Y30638381D01*
X9104333Y30590762D01*
X9151952Y30495524D01*
X9151952Y30305048D01*
X9199571Y30209810D01*
X9247190Y30162191D01*
X9342428Y30114572D01*
X9532904Y30114572D01*
X9628142Y30162191D01*
X9675761Y30209810D01*
X9723380Y30305048D01*
X9723380Y30495524D01*
X9675761Y30590762D01*
X9628142Y30638381D01*
X9532904Y30686000D01*
X9342428Y30686000D01*
X9247190Y30638381D01*
X9199571Y30590762D01*
X9151952Y30495524D01*
%TO.C,U1*%
X21252380Y27813096D02*
X22061904Y27813096D01*
X22157142Y27860715D01*
X22204761Y27908334D01*
X22252380Y28003572D01*
X22252380Y28194048D01*
X22204761Y28289286D01*
X22157142Y28336905D01*
X22061904Y28384524D01*
X21252380Y28384524D01*
X22252380Y29384524D02*
X22252380Y28813096D01*
X22252380Y29098810D02*
X21252380Y29098810D01*
X21395238Y29003572D01*
X21490476Y28908334D01*
X21538095Y28813096D01*
X33853809Y28122620D02*
X33853809Y29122620D01*
X34901428Y28217858D02*
X34853809Y28170239D01*
X34710952Y28122620D01*
X34615714Y28122620D01*
X34472857Y28170239D01*
X34377619Y28265477D01*
X34330000Y28360715D01*
X34282380Y28551191D01*
X34282380Y28694048D01*
X34330000Y28884524D01*
X34377619Y28979762D01*
X34472857Y29075000D01*
X34615714Y29122620D01*
X34710952Y29122620D01*
X34853809Y29075000D01*
X34901428Y29027381D01*
X35330000Y28122620D02*
X35330000Y29122620D01*
X35663333Y28408334D01*
X35996666Y29122620D01*
X35996666Y28122620D01*
X36377619Y29122620D02*
X37044285Y29122620D01*
X36615714Y28122620D01*
X37949047Y28122620D02*
X37377619Y28122620D01*
X37663333Y28122620D02*
X37663333Y29122620D01*
X37568095Y28979762D01*
X37472857Y28884524D01*
X37377619Y28836905D01*
X38282380Y29122620D02*
X38949047Y29122620D01*
X38520476Y28122620D01*
X39520476Y29122620D02*
X39615714Y29122620D01*
X39710952Y29075000D01*
X39758571Y29027381D01*
X39806190Y28932143D01*
X39853809Y28741667D01*
X39853809Y28503572D01*
X39806190Y28313096D01*
X39758571Y28217858D01*
X39710952Y28170239D01*
X39615714Y28122620D01*
X39520476Y28122620D01*
X39425238Y28170239D01*
X39377619Y28217858D01*
X39330000Y28313096D01*
X39282380Y28503572D01*
X39282380Y28741667D01*
X39330000Y28932143D01*
X39377619Y29027381D01*
X39425238Y29075000D01*
X39520476Y29122620D01*
%TO.C,Y1*%
X54514809Y24026810D02*
X54514809Y23550620D01*
X54181476Y24550620D02*
X54514809Y24026810D01*
X54848142Y24550620D01*
X55705285Y23550620D02*
X55133857Y23550620D01*
X55419571Y23550620D02*
X55419571Y24550620D01*
X55324333Y24407762D01*
X55229095Y24312524D01*
X55133857Y24264905D01*
X55845476Y26527620D02*
X56464523Y26527620D01*
X56131190Y26146667D01*
X56274047Y26146667D01*
X56369285Y26099048D01*
X56416904Y26051429D01*
X56464523Y25956191D01*
X56464523Y25718096D01*
X56416904Y25622858D01*
X56369285Y25575239D01*
X56274047Y25527620D01*
X55988333Y25527620D01*
X55893095Y25575239D01*
X55845476Y25622858D01*
X56845476Y26432381D02*
X56893095Y26480000D01*
X56988333Y26527620D01*
X57226428Y26527620D01*
X57321666Y26480000D01*
X57369285Y26432381D01*
X57416904Y26337143D01*
X57416904Y26241905D01*
X57369285Y26099048D01*
X56797857Y25527620D01*
X57416904Y25527620D01*
X57845476Y25622858D02*
X57893095Y25575239D01*
X57845476Y25527620D01*
X57797857Y25575239D01*
X57845476Y25622858D01*
X57845476Y25527620D01*
X58226428Y26527620D02*
X58893095Y26527620D01*
X58464523Y25527620D01*
X59702619Y26527620D02*
X59512142Y26527620D01*
X59416904Y26480000D01*
X59369285Y26432381D01*
X59274047Y26289524D01*
X59226428Y26099048D01*
X59226428Y25718096D01*
X59274047Y25622858D01*
X59321666Y25575239D01*
X59416904Y25527620D01*
X59607380Y25527620D01*
X59702619Y25575239D01*
X59750238Y25622858D01*
X59797857Y25718096D01*
X59797857Y25956191D01*
X59750238Y26051429D01*
X59702619Y26099048D01*
X59607380Y26146667D01*
X59416904Y26146667D01*
X59321666Y26099048D01*
X59274047Y26051429D01*
X59226428Y25956191D01*
X60369285Y26099048D02*
X60274047Y26146667D01*
X60226428Y26194286D01*
X60178809Y26289524D01*
X60178809Y26337143D01*
X60226428Y26432381D01*
X60274047Y26480000D01*
X60369285Y26527620D01*
X60559761Y26527620D01*
X60655000Y26480000D01*
X60702619Y26432381D01*
X60750238Y26337143D01*
X60750238Y26289524D01*
X60702619Y26194286D01*
X60655000Y26146667D01*
X60559761Y26099048D01*
X60369285Y26099048D01*
X60274047Y26051429D01*
X60226428Y26003810D01*
X60178809Y25908572D01*
X60178809Y25718096D01*
X60226428Y25622858D01*
X60274047Y25575239D01*
X60369285Y25527620D01*
X60559761Y25527620D01*
X60655000Y25575239D01*
X60702619Y25622858D01*
X60750238Y25718096D01*
X60750238Y25908572D01*
X60702619Y26003810D01*
X60655000Y26051429D01*
X60559761Y26099048D01*
X61178809Y25527620D02*
X61178809Y26527620D01*
X61274047Y25908572D02*
X61559761Y25527620D01*
X61559761Y26194286D02*
X61178809Y25813334D01*
X61988333Y25527620D02*
X61988333Y26527620D01*
X61988333Y26051429D02*
X62559761Y26051429D01*
X62559761Y25527620D02*
X62559761Y26527620D01*
X62940714Y26194286D02*
X63464523Y26194286D01*
X62940714Y25527620D01*
X63464523Y25527620D01*
%TO.C,RN2*%
X28519523Y41952620D02*
X28186190Y42428810D01*
X27948095Y41952620D02*
X27948095Y42952620D01*
X28329047Y42952620D01*
X28424285Y42905000D01*
X28471904Y42857381D01*
X28519523Y42762143D01*
X28519523Y42619286D01*
X28471904Y42524048D01*
X28424285Y42476429D01*
X28329047Y42428810D01*
X27948095Y42428810D01*
X28948095Y41952620D02*
X28948095Y42952620D01*
X29519523Y41952620D01*
X29519523Y42952620D01*
X29948095Y42857381D02*
X29995714Y42905000D01*
X30090952Y42952620D01*
X30329047Y42952620D01*
X30424285Y42905000D01*
X30471904Y42857381D01*
X30519523Y42762143D01*
X30519523Y42666905D01*
X30471904Y42524048D01*
X29900476Y41952620D01*
X30519523Y41952620D01*
X32107333Y42743381D02*
X32154952Y42791000D01*
X32250190Y42838620D01*
X32488285Y42838620D01*
X32583523Y42791000D01*
X32631142Y42743381D01*
X32678761Y42648143D01*
X32678761Y42552905D01*
X32631142Y42410048D01*
X32059714Y41838620D01*
X32678761Y41838620D01*
X33059714Y42743381D02*
X33107333Y42791000D01*
X33202571Y42838620D01*
X33440666Y42838620D01*
X33535904Y42791000D01*
X33583523Y42743381D01*
X33631142Y42648143D01*
X33631142Y42552905D01*
X33583523Y42410048D01*
X33012095Y41838620D01*
X33631142Y41838620D01*
X34059714Y41838620D02*
X34059714Y42838620D01*
X34154952Y42219572D02*
X34440666Y41838620D01*
X34440666Y42505286D02*
X34059714Y42124334D01*
%TO.C,RN1*%
X17851380Y34869524D02*
X17375190Y34536191D01*
X17851380Y34298096D02*
X16851380Y34298096D01*
X16851380Y34679048D01*
X16899000Y34774286D01*
X16946619Y34821905D01*
X17041857Y34869524D01*
X17184714Y34869524D01*
X17279952Y34821905D01*
X17327571Y34774286D01*
X17375190Y34679048D01*
X17375190Y34298096D01*
X17851380Y35298096D02*
X16851380Y35298096D01*
X17851380Y35869524D01*
X16851380Y35869524D01*
X17851380Y36869524D02*
X17851380Y36298096D01*
X17851380Y36583810D02*
X16851380Y36583810D01*
X16994238Y36488572D01*
X17089476Y36393334D01*
X17137095Y36298096D01*
X17851380Y38425524D02*
X17851380Y37854096D01*
X17851380Y38139810D02*
X16851380Y38139810D01*
X16994238Y38044572D01*
X17089476Y37949334D01*
X17137095Y37854096D01*
X16851380Y39044572D02*
X16851380Y39139810D01*
X16899000Y39235048D01*
X16946619Y39282667D01*
X17041857Y39330286D01*
X17232333Y39377905D01*
X17470428Y39377905D01*
X17660904Y39330286D01*
X17756142Y39282667D01*
X17803761Y39235048D01*
X17851380Y39139810D01*
X17851380Y39044572D01*
X17803761Y38949334D01*
X17756142Y38901715D01*
X17660904Y38854096D01*
X17470428Y38806477D01*
X17232333Y38806477D01*
X17041857Y38854096D01*
X16946619Y38901715D01*
X16899000Y38949334D01*
X16851380Y39044572D01*
X17851380Y39806477D02*
X16851380Y39806477D01*
X17851380Y40377905D02*
X17279952Y39949334D01*
X16851380Y40377905D02*
X17422809Y39806477D01*
%TO.C,R1*%
X39457333Y42727620D02*
X39124000Y43203810D01*
X38885904Y42727620D02*
X38885904Y43727620D01*
X39266857Y43727620D01*
X39362095Y43680000D01*
X39409714Y43632381D01*
X39457333Y43537143D01*
X39457333Y43394286D01*
X39409714Y43299048D01*
X39362095Y43251429D01*
X39266857Y43203810D01*
X38885904Y43203810D01*
X40409714Y42727620D02*
X39838285Y42727620D01*
X40124000Y42727620D02*
X40124000Y43727620D01*
X40028761Y43584762D01*
X39933523Y43489524D01*
X39838285Y43441905D01*
%TO.C,JP1*%
D10*
X46900000Y9526667D02*
X46900000Y10926667D01*
X48366666Y9526667D02*
X47900000Y10193334D01*
X47566666Y9526667D02*
X47566666Y10926667D01*
X48100000Y10926667D01*
X48233333Y10860000D01*
X48300000Y10793334D01*
X48366666Y10660000D01*
X48366666Y10460000D01*
X48300000Y10326667D01*
X48233333Y10260000D01*
X48100000Y10193334D01*
X47566666Y10193334D01*
X49900000Y9393334D02*
X49766666Y9460000D01*
X49633333Y9593334D01*
X49433333Y9793334D01*
X49300000Y9860000D01*
X49166666Y9860000D01*
X49233333Y9526667D02*
X49100000Y9593334D01*
X48966666Y9726667D01*
X48900000Y9993334D01*
X48900000Y10460000D01*
X48966666Y10726667D01*
X49100000Y10860000D01*
X49233333Y10926667D01*
X49500000Y10926667D01*
X49633333Y10860000D01*
X49766666Y10726667D01*
X49833333Y10460000D01*
X49833333Y9993334D01*
X49766666Y9726667D01*
X49633333Y9593334D01*
X49500000Y9526667D01*
X49233333Y9526667D01*
X50100000Y9393334D02*
X51166666Y9393334D01*
X52300000Y9526667D02*
X51833333Y10193334D01*
X51500000Y9526667D02*
X51500000Y10926667D01*
X52033333Y10926667D01*
X52166666Y10860000D01*
X52233333Y10793334D01*
X52300000Y10660000D01*
X52300000Y10460000D01*
X52233333Y10326667D01*
X52166666Y10260000D01*
X52033333Y10193334D01*
X51500000Y10193334D01*
X52700000Y10926667D02*
X53500000Y10926667D01*
X53100000Y9526667D02*
X53100000Y10926667D01*
X54766666Y9660000D02*
X54700000Y9593334D01*
X54500000Y9526667D01*
X54366666Y9526667D01*
X54166666Y9593334D01*
X54033333Y9726667D01*
X53966666Y9860000D01*
X53900000Y10126667D01*
X53900000Y10326667D01*
X53966666Y10593334D01*
X54033333Y10726667D01*
X54166666Y10860000D01*
X54366666Y10926667D01*
X54500000Y10926667D01*
X54700000Y10860000D01*
X54766666Y10793334D01*
%TO.C,C6*%
D11*
X55666333Y15390858D02*
X55618714Y15343239D01*
X55475857Y15295620D01*
X55380619Y15295620D01*
X55237761Y15343239D01*
X55142523Y15438477D01*
X55094904Y15533715D01*
X55047285Y15724191D01*
X55047285Y15867048D01*
X55094904Y16057524D01*
X55142523Y16152762D01*
X55237761Y16248000D01*
X55380619Y16295620D01*
X55475857Y16295620D01*
X55618714Y16248000D01*
X55666333Y16200381D01*
X56523476Y16295620D02*
X56333000Y16295620D01*
X56237761Y16248000D01*
X56190142Y16200381D01*
X56094904Y16057524D01*
X56047285Y15867048D01*
X56047285Y15486096D01*
X56094904Y15390858D01*
X56142523Y15343239D01*
X56237761Y15295620D01*
X56428238Y15295620D01*
X56523476Y15343239D01*
X56571095Y15390858D01*
X56618714Y15486096D01*
X56618714Y15724191D01*
X56571095Y15819429D01*
X56523476Y15867048D01*
X56428238Y15914667D01*
X56237761Y15914667D01*
X56142523Y15867048D01*
X56094904Y15819429D01*
X56047285Y15724191D01*
X58762142Y15057381D02*
X58809761Y15105000D01*
X58905000Y15152620D01*
X59143095Y15152620D01*
X59238333Y15105000D01*
X59285952Y15057381D01*
X59333571Y14962143D01*
X59333571Y14866905D01*
X59285952Y14724048D01*
X58714523Y14152620D01*
X59333571Y14152620D01*
X59714523Y15057381D02*
X59762142Y15105000D01*
X59857380Y15152620D01*
X60095476Y15152620D01*
X60190714Y15105000D01*
X60238333Y15057381D01*
X60285952Y14962143D01*
X60285952Y14866905D01*
X60238333Y14724048D01*
X59666904Y14152620D01*
X60285952Y14152620D01*
X60714523Y14819286D02*
X60714523Y13819286D01*
X60714523Y14771667D02*
X60809761Y14819286D01*
X61000238Y14819286D01*
X61095476Y14771667D01*
X61143095Y14724048D01*
X61190714Y14628810D01*
X61190714Y14343096D01*
X61143095Y14247858D01*
X61095476Y14200239D01*
X61000238Y14152620D01*
X60809761Y14152620D01*
X60714523Y14200239D01*
X61952619Y14676429D02*
X61619285Y14676429D01*
X61619285Y14152620D02*
X61619285Y15152620D01*
X62095476Y15152620D01*
%TO.C,C3*%
X55713333Y18184858D02*
X55665714Y18137239D01*
X55522857Y18089620D01*
X55427619Y18089620D01*
X55284761Y18137239D01*
X55189523Y18232477D01*
X55141904Y18327715D01*
X55094285Y18518191D01*
X55094285Y18661048D01*
X55141904Y18851524D01*
X55189523Y18946762D01*
X55284761Y19042000D01*
X55427619Y19089620D01*
X55522857Y19089620D01*
X55665714Y19042000D01*
X55713333Y18994381D01*
X56046666Y19089620D02*
X56665714Y19089620D01*
X56332380Y18708667D01*
X56475238Y18708667D01*
X56570476Y18661048D01*
X56618095Y18613429D01*
X56665714Y18518191D01*
X56665714Y18280096D01*
X56618095Y18184858D01*
X56570476Y18137239D01*
X56475238Y18089620D01*
X56189523Y18089620D01*
X56094285Y18137239D01*
X56046666Y18184858D01*
X58809142Y18232381D02*
X58856761Y18280000D01*
X58952000Y18327620D01*
X59190095Y18327620D01*
X59285333Y18280000D01*
X59332952Y18232381D01*
X59380571Y18137143D01*
X59380571Y18041905D01*
X59332952Y17899048D01*
X58761523Y17327620D01*
X59380571Y17327620D01*
X59761523Y18232381D02*
X59809142Y18280000D01*
X59904380Y18327620D01*
X60142476Y18327620D01*
X60237714Y18280000D01*
X60285333Y18232381D01*
X60332952Y18137143D01*
X60332952Y18041905D01*
X60285333Y17899048D01*
X59713904Y17327620D01*
X60332952Y17327620D01*
X60761523Y17994286D02*
X60761523Y16994286D01*
X60761523Y17946667D02*
X60856761Y17994286D01*
X61047238Y17994286D01*
X61142476Y17946667D01*
X61190095Y17899048D01*
X61237714Y17803810D01*
X61237714Y17518096D01*
X61190095Y17422858D01*
X61142476Y17375239D01*
X61047238Y17327620D01*
X60856761Y17327620D01*
X60761523Y17375239D01*
X61999619Y17851429D02*
X61666285Y17851429D01*
X61666285Y17327620D02*
X61666285Y18327620D01*
X62142476Y18327620D01*
%TO.C,C2*%
X13803333Y43457858D02*
X13755714Y43410239D01*
X13612857Y43362620D01*
X13517619Y43362620D01*
X13374761Y43410239D01*
X13279523Y43505477D01*
X13231904Y43600715D01*
X13184285Y43791191D01*
X13184285Y43934048D01*
X13231904Y44124524D01*
X13279523Y44219762D01*
X13374761Y44315000D01*
X13517619Y44362620D01*
X13612857Y44362620D01*
X13755714Y44315000D01*
X13803333Y44267381D01*
X14184285Y44267381D02*
X14231904Y44315000D01*
X14327142Y44362620D01*
X14565238Y44362620D01*
X14660476Y44315000D01*
X14708095Y44267381D01*
X14755714Y44172143D01*
X14755714Y44076905D01*
X14708095Y43934048D01*
X14136666Y43362620D01*
X14755714Y43362620D01*
X13692380Y41965620D02*
X13120952Y41965620D01*
X13406666Y41965620D02*
X13406666Y42965620D01*
X13311428Y42822762D01*
X13216190Y42727524D01*
X13120952Y42679905D01*
X14311428Y42965620D02*
X14406666Y42965620D01*
X14501904Y42918000D01*
X14549523Y42870381D01*
X14597142Y42775143D01*
X14644761Y42584667D01*
X14644761Y42346572D01*
X14597142Y42156096D01*
X14549523Y42060858D01*
X14501904Y42013239D01*
X14406666Y41965620D01*
X14311428Y41965620D01*
X14216190Y42013239D01*
X14168571Y42060858D01*
X14120952Y42156096D01*
X14073333Y42346572D01*
X14073333Y42584667D01*
X14120952Y42775143D01*
X14168571Y42870381D01*
X14216190Y42918000D01*
X14311428Y42965620D01*
X15263809Y42965620D02*
X15359047Y42965620D01*
X15454285Y42918000D01*
X15501904Y42870381D01*
X15549523Y42775143D01*
X15597142Y42584667D01*
X15597142Y42346572D01*
X15549523Y42156096D01*
X15501904Y42060858D01*
X15454285Y42013239D01*
X15359047Y41965620D01*
X15263809Y41965620D01*
X15168571Y42013239D01*
X15120952Y42060858D01*
X15073333Y42156096D01*
X15025714Y42346572D01*
X15025714Y42584667D01*
X15073333Y42775143D01*
X15120952Y42870381D01*
X15168571Y42918000D01*
X15263809Y42965620D01*
X16025714Y42632286D02*
X16025714Y41965620D01*
X16025714Y42537048D02*
X16073333Y42584667D01*
X16168571Y42632286D01*
X16311428Y42632286D01*
X16406666Y42584667D01*
X16454285Y42489429D01*
X16454285Y41965620D01*
X17263809Y42489429D02*
X16930476Y42489429D01*
X16930476Y41965620D02*
X16930476Y42965620D01*
X17406666Y42965620D01*
%TO.C,C1*%
X22693333Y11326858D02*
X22645714Y11279239D01*
X22502857Y11231620D01*
X22407619Y11231620D01*
X22264761Y11279239D01*
X22169523Y11374477D01*
X22121904Y11469715D01*
X22074285Y11660191D01*
X22074285Y11803048D01*
X22121904Y11993524D01*
X22169523Y12088762D01*
X22264761Y12184000D01*
X22407619Y12231620D01*
X22502857Y12231620D01*
X22645714Y12184000D01*
X22693333Y12136381D01*
X23645714Y11231620D02*
X23074285Y11231620D01*
X23360000Y11231620D02*
X23360000Y12231620D01*
X23264761Y12088762D01*
X23169523Y11993524D01*
X23074285Y11945905D01*
X22129904Y10374286D02*
X22129904Y9707620D01*
X21891809Y10755239D02*
X21653714Y10040953D01*
X22272761Y10040953D01*
X22558476Y10707620D02*
X23225142Y10707620D01*
X22796571Y9707620D01*
X23606095Y10374286D02*
X23606095Y9374286D01*
X24082285Y9850477D02*
X24129904Y9755239D01*
X24225142Y9707620D01*
X23606095Y9850477D02*
X23653714Y9755239D01*
X23748952Y9707620D01*
X23939428Y9707620D01*
X24034666Y9755239D01*
X24082285Y9850477D01*
X24082285Y10374286D01*
X24987047Y10231429D02*
X24653714Y10231429D01*
X24653714Y9707620D02*
X24653714Y10707620D01*
X25129904Y10707620D01*
%TO.C,J1*%
X14398666Y4865620D02*
X14398666Y4151334D01*
X14351047Y4008477D01*
X14255809Y3913239D01*
X14112952Y3865620D01*
X14017714Y3865620D01*
X15398666Y3865620D02*
X14827238Y3865620D01*
X15112952Y3865620D02*
X15112952Y4865620D01*
X15017714Y4722762D01*
X14922476Y4627524D01*
X14827238Y4579905D01*
%TD*%
M02*
