%TF.GenerationSoftware,KiCad,Pcbnew,(5.1.12)-1*%
%TF.CreationDate,2022-12-04T09:13:40+01:00*%
%TF.ProjectId,RTC,5254432e-6b69-4636-9164-5f7063625858,1.0*%
%TF.SameCoordinates,PX6d01460PY60e4b00*%
%TF.FileFunction,Copper,L2,Bot*%
%TF.FilePolarity,Positive*%
%FSLAX46Y46*%
G04 Gerber Fmt 4.6, Leading zero omitted, Abs format (unit mm)*
G04 Created by KiCad (PCBNEW (5.1.12)-1) date 2022-12-04 09:13:40*
%MOMM*%
%LPD*%
G01*
G04 APERTURE LIST*
%TA.AperFunction,ComponentPad*%
%ADD10O,1.600000X1.600000*%
%TD*%
%TA.AperFunction,ComponentPad*%
%ADD11R,1.600000X1.600000*%
%TD*%
%TA.AperFunction,ComponentPad*%
%ADD12C,2.500000*%
%TD*%
%TA.AperFunction,ComponentPad*%
%ADD13O,2.400000X1.600000*%
%TD*%
%TA.AperFunction,ComponentPad*%
%ADD14R,2.400000X1.600000*%
%TD*%
%TA.AperFunction,ComponentPad*%
%ADD15O,1.600000X2.400000*%
%TD*%
%TA.AperFunction,ComponentPad*%
%ADD16R,1.600000X2.400000*%
%TD*%
%TA.AperFunction,ComponentPad*%
%ADD17R,1.500000X1.500000*%
%TD*%
%TA.AperFunction,ComponentPad*%
%ADD18C,1.800000*%
%TD*%
%TA.AperFunction,ComponentPad*%
%ADD19O,1.700000X2.300000*%
%TD*%
%TA.AperFunction,ComponentPad*%
%ADD20R,1.600000X2.300000*%
%TD*%
%TA.AperFunction,ComponentPad*%
%ADD21O,2.300000X1.700000*%
%TD*%
%TA.AperFunction,ComponentPad*%
%ADD22R,2.300000X1.600000*%
%TD*%
%TA.AperFunction,ComponentPad*%
%ADD23O,1.800000X1.800000*%
%TD*%
%TA.AperFunction,ComponentPad*%
%ADD24R,1.700000X2.300000*%
%TD*%
%TA.AperFunction,ComponentPad*%
%ADD25C,1.600000*%
%TD*%
%TA.AperFunction,ComponentPad*%
%ADD26C,1.700000*%
%TD*%
%TA.AperFunction,ViaPad*%
%ADD27C,1.300000*%
%TD*%
%TA.AperFunction,Conductor*%
%ADD28C,0.800000*%
%TD*%
%TA.AperFunction,Conductor*%
%ADD29C,0.600000*%
%TD*%
%TA.AperFunction,Conductor*%
%ADD30C,0.400000*%
%TD*%
%TA.AperFunction,Conductor*%
%ADD31C,0.250000*%
%TD*%
%TA.AperFunction,Conductor*%
%ADD32C,0.254000*%
%TD*%
%TA.AperFunction,Conductor*%
%ADD33C,0.100000*%
%TD*%
G04 APERTURE END LIST*
D10*
%TO.P,D1,2*%
%TO.N,/~IOCTRL*%
X36703000Y16002000D03*
D11*
%TO.P,D1,1*%
%TO.N,Net-(D1-Pad1)*%
X29083000Y16002000D03*
%TD*%
D12*
%TO.P,C5,1*%
%TO.N,Net-(C5-Pad1)*%
X67310000Y13335000D03*
%TO.P,C5,2*%
%TO.N,Net-(C5-Pad2)*%
X67310000Y18415000D03*
%TD*%
D13*
%TO.P,U2,20*%
%TO.N,VCC*%
X5461000Y15875000D03*
%TO.P,U2,10*%
%TO.N,GND*%
X13081000Y38735000D03*
%TO.P,U2,19*%
%TO.N,/PHI2*%
X5461000Y18415000D03*
%TO.P,U2,9*%
%TO.N,/A0*%
X13081000Y36195000D03*
%TO.P,U2,18*%
%TO.N,Net-(U2-Pad18)*%
X5461000Y20955000D03*
%TO.P,U2,8*%
%TO.N,/A1*%
X13081000Y33655000D03*
%TO.P,U2,17*%
%TO.N,Net-(D1-Pad1)*%
X5461000Y23495000D03*
%TO.P,U2,7*%
%TO.N,/A2*%
X13081000Y31115000D03*
%TO.P,U2,16*%
%TO.N,Net-(U2-Pad16)*%
X5461000Y26035000D03*
%TO.P,U2,6*%
%TO.N,/A3*%
X13081000Y28575000D03*
%TO.P,U2,15*%
%TO.N,Net-(U2-Pad15)*%
X5461000Y28575000D03*
%TO.P,U2,5*%
%TO.N,/A4*%
X13081000Y26035000D03*
%TO.P,U2,14*%
%TO.N,/~W_RTC*%
X5461000Y31115000D03*
%TO.P,U2,4*%
%TO.N,/A5*%
X13081000Y23495000D03*
%TO.P,U2,13*%
%TO.N,/~R_RTC*%
X5461000Y33655000D03*
%TO.P,U2,3*%
%TO.N,/A6*%
X13081000Y20955000D03*
%TO.P,U2,12*%
%TO.N,/~CSRTC*%
X5461000Y36195000D03*
%TO.P,U2,2*%
%TO.N,/A7*%
X13081000Y18415000D03*
%TO.P,U2,11*%
%TO.N,/R_~W*%
X5461000Y38735000D03*
D14*
%TO.P,U2,1*%
%TO.N,/~IO*%
X13081000Y15875000D03*
%TD*%
D15*
%TO.P,U1,24*%
%TO.N,/~R_RTC*%
X24130000Y36195000D03*
%TO.P,U1,12*%
%TO.N,Net-(JP1-Pad1)*%
X52070000Y20955000D03*
%TO.P,U1,23*%
%TO.N,VCC*%
X26670000Y36195000D03*
%TO.P,U1,11*%
%TO.N,GND*%
X49530000Y20955000D03*
%TO.P,U1,22*%
%TO.N,/D7*%
X29210000Y36195000D03*
%TO.P,U1,10*%
%TO.N,Net-(C3-Pad2)*%
X46990000Y20955000D03*
%TO.P,U1,21*%
%TO.N,/D6*%
X31750000Y36195000D03*
%TO.P,U1,9*%
%TO.N,Net-(C5-Pad1)*%
X44450000Y20955000D03*
%TO.P,U1,20*%
%TO.N,/D5*%
X34290000Y36195000D03*
%TO.P,U1,8*%
%TO.N,/A0*%
X41910000Y20955000D03*
%TO.P,U1,19*%
%TO.N,/D4*%
X36830000Y36195000D03*
%TO.P,U1,7*%
%TO.N,/A1*%
X39370000Y20955000D03*
%TO.P,U1,18*%
%TO.N,/D3*%
X39370000Y36195000D03*
%TO.P,U1,6*%
%TO.N,/A2*%
X36830000Y20955000D03*
%TO.P,U1,17*%
%TO.N,/D2*%
X41910000Y36195000D03*
%TO.P,U1,5*%
%TO.N,/A3*%
X34290000Y20955000D03*
%TO.P,U1,16*%
%TO.N,/D1*%
X44450000Y36195000D03*
%TO.P,U1,4*%
%TO.N,/A4*%
X31750000Y20955000D03*
%TO.P,U1,15*%
%TO.N,/D0*%
X46990000Y36195000D03*
%TO.P,U1,3*%
%TO.N,/~CSRTC*%
X29210000Y20955000D03*
%TO.P,U1,14*%
%TO.N,VMEM*%
X49530000Y36195000D03*
%TO.P,U1,2*%
%TO.N,VCC*%
X26670000Y20955000D03*
%TO.P,U1,13*%
%TO.N,GND*%
X52070000Y36195000D03*
D16*
%TO.P,U1,1*%
%TO.N,/~W_RTC*%
X24130000Y20955000D03*
%TD*%
D17*
%TO.P,Y1,3*%
%TO.N,N/C*%
X65405000Y24860000D03*
X65405000Y20860000D03*
D18*
%TO.P,Y1,2*%
%TO.N,Net-(C3-Pad2)*%
X56655000Y24130000D03*
%TO.P,Y1,1*%
%TO.N,Net-(C5-Pad2)*%
X56655000Y21590000D03*
%TD*%
D19*
%TO.P,RN2,9*%
%TO.N,/D0*%
X46990000Y40005000D03*
%TO.P,RN2,8*%
%TO.N,/D1*%
X44450000Y40005000D03*
%TO.P,RN2,7*%
%TO.N,/D2*%
X41910000Y40005000D03*
%TO.P,RN2,6*%
%TO.N,/D3*%
X39370000Y40005000D03*
%TO.P,RN2,5*%
%TO.N,/D4*%
X36830000Y40005000D03*
%TO.P,RN2,4*%
%TO.N,/D5*%
X34290000Y40005000D03*
%TO.P,RN2,3*%
%TO.N,/D6*%
X31750000Y40005000D03*
%TO.P,RN2,2*%
%TO.N,/D7*%
X29210000Y40005000D03*
D20*
%TO.P,RN2,1*%
%TO.N,VCC*%
X26670000Y40005000D03*
%TD*%
D21*
%TO.P,RN1,5*%
%TO.N,Net-(RN1-Pad5)*%
X19685000Y41275000D03*
%TO.P,RN1,4*%
%TO.N,/~CSRTC*%
X19685000Y38735000D03*
%TO.P,RN1,3*%
%TO.N,/~R_RTC*%
X19685000Y36195000D03*
%TO.P,RN1,2*%
%TO.N,/~W_RTC*%
X19685000Y33655000D03*
D22*
%TO.P,RN1,1*%
%TO.N,VCC*%
X19685000Y31115000D03*
%TD*%
D23*
%TO.P,R1,2*%
%TO.N,VMEM*%
X49530000Y43180000D03*
D18*
%TO.P,R1,1*%
%TO.N,Net-(BT1-Pad2)*%
X41910000Y43180000D03*
%TD*%
D24*
%TO.P,JP1,2*%
%TO.N,/~IRQ*%
X49530000Y13335000D03*
%TO.P,JP1,1*%
%TO.N,Net-(JP1-Pad1)*%
X52070000Y13335000D03*
%TD*%
D18*
%TO.P,C6,2*%
%TO.N,Net-(C5-Pad1)*%
X57865000Y14605000D03*
%TO.P,C6,1*%
%TO.N,VCC*%
X62865000Y14605000D03*
%TD*%
%TO.P,C3,2*%
%TO.N,Net-(C3-Pad2)*%
X57865000Y17780000D03*
%TO.P,C3,1*%
%TO.N,VCC*%
X62865000Y17780000D03*
%TD*%
%TO.P,C2,2*%
%TO.N,VCC*%
X6557000Y42799000D03*
%TO.P,C2,1*%
%TO.N,GND*%
X11557000Y42799000D03*
%TD*%
D25*
%TO.P,C1,2*%
%TO.N,GND*%
X19050000Y11843000D03*
D11*
%TO.P,C1,1*%
%TO.N,VCC*%
X19050000Y13843000D03*
%TD*%
D26*
%TO.P,J1,34*%
%TO.N,GND*%
X17780000Y3175000D03*
%TO.P,J1,32*%
%TO.N,/A11*%
X20320000Y3175000D03*
%TO.P,J1,30*%
%TO.N,/A12*%
X22860000Y3175000D03*
%TO.P,J1,28*%
%TO.N,/A13*%
X25400000Y3175000D03*
%TO.P,J1,26*%
%TO.N,/A14*%
X27940000Y3175000D03*
%TO.P,J1,24*%
%TO.N,/A15*%
X30480000Y3175000D03*
%TO.P,J1,22*%
%TO.N,/D7*%
X33020000Y3175000D03*
%TO.P,J1,20*%
%TO.N,/A4*%
X35560000Y3175000D03*
%TO.P,J1,18*%
%TO.N,/D4*%
X38100000Y3175000D03*
%TO.P,J1,16*%
%TO.N,/D3*%
X40640000Y3175000D03*
%TO.P,J1,14*%
%TO.N,/D6*%
X43180000Y3175000D03*
%TO.P,J1,12*%
%TO.N,/D1*%
X45720000Y3175000D03*
%TO.P,J1,10*%
%TO.N,/D0*%
X48260000Y3175000D03*
%TO.P,J1,8*%
%TO.N,/~IRQ*%
X50800000Y3175000D03*
%TO.P,J1,6*%
%TO.N,/~IOCTRL*%
X53340000Y3175000D03*
%TO.P,J1,4*%
%TO.N,/~RESET*%
X55880000Y3175000D03*
%TO.P,J1,2*%
%TO.N,/~ROMDIS*%
X58420000Y3175000D03*
%TO.P,J1,33*%
%TO.N,VCC*%
X17780000Y5715000D03*
%TO.P,J1,31*%
%TO.N,/A10*%
X20320000Y5715000D03*
%TO.P,J1,29*%
%TO.N,/A9*%
X22860000Y5715000D03*
%TO.P,J1,27*%
%TO.N,/A8*%
X25400000Y5715000D03*
%TO.P,J1,25*%
%TO.N,/A7*%
X27940000Y5715000D03*
%TO.P,J1,23*%
%TO.N,/A6*%
X30480000Y5715000D03*
%TO.P,J1,21*%
%TO.N,/A5*%
X33020000Y5715000D03*
%TO.P,J1,19*%
%TO.N,/D5*%
X35560000Y5715000D03*
%TO.P,J1,17*%
%TO.N,/A2*%
X38100000Y5715000D03*
%TO.P,J1,15*%
%TO.N,/A1*%
X40640000Y5715000D03*
%TO.P,J1,13*%
%TO.N,/A0*%
X43180000Y5715000D03*
%TO.P,J1,11*%
%TO.N,/A3*%
X45720000Y5715000D03*
%TO.P,J1,9*%
%TO.N,/D2*%
X48260000Y5715000D03*
%TO.P,J1,7*%
%TO.N,/R_~W*%
X50800000Y5715000D03*
%TO.P,J1,5*%
%TO.N,/~IO*%
X53340000Y5715000D03*
%TO.P,J1,3*%
%TO.N,/PHI2*%
X55880000Y5715000D03*
%TO.P,J1,1*%
%TO.N,/~MAP*%
%TA.AperFunction,ComponentPad*%
G36*
G01*
X57820000Y6565000D02*
X59020000Y6565000D01*
G75*
G02*
X59270000Y6315000I0J-250000D01*
G01*
X59270000Y5115000D01*
G75*
G02*
X59020000Y4865000I-250000J0D01*
G01*
X57820000Y4865000D01*
G75*
G02*
X57570000Y5115000I0J250000D01*
G01*
X57570000Y6315000D01*
G75*
G02*
X57820000Y6565000I250000J0D01*
G01*
G37*
%TD.AperFunction*%
%TD*%
D27*
%TO.N,VCC*%
X26670000Y12065000D03*
%TO.N,/D2*%
X48260000Y31115000D03*
%TO.N,/D6*%
X40640000Y32512000D03*
%TO.N,/D7*%
X30480000Y11938000D03*
%TO.N,/A3*%
X35179000Y10922000D03*
%TO.N,/R_~W*%
X51816000Y25781000D03*
%TO.N,/~CSRTC*%
X29210000Y31877000D03*
%TD*%
D28*
%TO.N,GND*%
X49530000Y20955000D02*
X49530000Y26670000D01*
X52070000Y29210000D02*
X52070000Y36195000D01*
X49530000Y26670000D02*
X52070000Y29210000D01*
X13081000Y41275000D02*
X11557000Y42799000D01*
X13081000Y38735000D02*
X13081000Y41275000D01*
X52070000Y36195000D02*
X52070000Y44196000D01*
X52070000Y44196000D02*
X50800000Y45466000D01*
X14224000Y45466000D02*
X11557000Y42799000D01*
X50800000Y45466000D02*
X14224000Y45466000D01*
X16383000Y3175000D02*
X17780000Y3175000D01*
X15113000Y4445000D02*
X16383000Y3175000D01*
X15113000Y9398000D02*
X15113000Y4445000D01*
X17558000Y11843000D02*
X15113000Y9398000D01*
X19050000Y11843000D02*
X17558000Y11843000D01*
X8890000Y45466000D02*
X11557000Y42799000D01*
X3937000Y45466000D02*
X8890000Y45466000D01*
X1905000Y43434000D02*
X3937000Y45466000D01*
X1905000Y14351000D02*
X1905000Y43434000D01*
X6858000Y9398000D02*
X1905000Y14351000D01*
X15113000Y9398000D02*
X6858000Y9398000D01*
%TO.N,VCC*%
X26670000Y40005000D02*
X26670000Y36195000D01*
X19685000Y31115000D02*
X24130000Y31115000D01*
X26670000Y33655000D02*
X26670000Y36195000D01*
X24130000Y31115000D02*
X26670000Y33655000D01*
X26670000Y28575000D02*
X24130000Y31115000D01*
X26670000Y20955000D02*
X26670000Y28575000D01*
X7747000Y15875000D02*
X5461000Y15875000D01*
X9779000Y13843000D02*
X7747000Y15875000D01*
X19050000Y13843000D02*
X9779000Y13843000D01*
X26670000Y12065000D02*
X26670000Y20955000D01*
D29*
X62865000Y17780000D02*
X62865000Y14605000D01*
%TO.N,/D0*%
X46990000Y40005000D02*
X46990000Y36195000D01*
D30*
X46990000Y26035000D02*
X46990000Y36195000D01*
X45720000Y24765000D02*
X46990000Y26035000D01*
X45720000Y9906000D02*
X45720000Y24765000D01*
X46990000Y8636000D02*
X45720000Y9906000D01*
X46990000Y4445000D02*
X46990000Y8636000D01*
X48260000Y3175000D02*
X46990000Y4445000D01*
D29*
%TO.N,/D1*%
X44450000Y40005000D02*
X44450000Y36195000D01*
D30*
X44450000Y26670000D02*
X44450000Y36195000D01*
X43180000Y25400000D02*
X44450000Y26670000D01*
X43180000Y18923000D02*
X43180000Y25400000D01*
X44450000Y17653000D02*
X43180000Y18923000D01*
X44450000Y4445000D02*
X44450000Y17653000D01*
X45720000Y3175000D02*
X44450000Y4445000D01*
D29*
%TO.N,/D2*%
X41910000Y40005000D02*
X41910000Y36195000D01*
D30*
X48260000Y5715000D02*
X48260000Y9398000D01*
X48260000Y9398000D02*
X46863000Y10795000D01*
X46863000Y10795000D02*
X46863000Y16891000D01*
X46863000Y16891000D02*
X48260000Y18288000D01*
X48260000Y18288000D02*
X48260000Y31115000D01*
D29*
%TO.N,/D3*%
X39370000Y40005000D02*
X39370000Y36195000D01*
D30*
X39370000Y26670000D02*
X39370000Y36195000D01*
X38100000Y25400000D02*
X39370000Y26670000D01*
X38100000Y18542000D02*
X38100000Y25400000D01*
X39370000Y17272000D02*
X38100000Y18542000D01*
X39370000Y4445000D02*
X39370000Y17272000D01*
X40640000Y3175000D02*
X39370000Y4445000D01*
D29*
%TO.N,/D4*%
X36830000Y40005000D02*
X36830000Y36195000D01*
D30*
X36830000Y36195000D02*
X36830000Y26670000D01*
X36830000Y26670000D02*
X35560000Y25400000D01*
X36830000Y4445000D02*
X38100000Y3175000D01*
X36830000Y12065000D02*
X36830000Y4445000D01*
D31*
X35560000Y18415000D02*
X35560000Y18161000D01*
D30*
X35560000Y18669000D02*
X35560000Y17526000D01*
X35560000Y25400000D02*
X35560000Y18669000D01*
X35560000Y18669000D02*
X35560000Y18415000D01*
X35560000Y17526000D02*
X35052000Y17018000D01*
X35052000Y13843000D02*
X36830000Y12065000D01*
X35052000Y17018000D02*
X35052000Y13843000D01*
D29*
%TO.N,/D5*%
X34290000Y36830000D02*
X34290000Y40005000D01*
D30*
X34290000Y27305000D02*
X34290000Y36195000D01*
X33020000Y26035000D02*
X34290000Y27305000D01*
X33020000Y11430000D02*
X33020000Y26035000D01*
X35560000Y8890000D02*
X33020000Y11430000D01*
X35560000Y5715000D02*
X35560000Y8890000D01*
D29*
%TO.N,/D6*%
X31750000Y40005000D02*
X31750000Y36195000D01*
D30*
X40640000Y18542000D02*
X40640000Y32512000D01*
X41910000Y17272000D02*
X40640000Y18542000D01*
X41910000Y4445000D02*
X41910000Y17272000D01*
X43180000Y3175000D02*
X41910000Y4445000D01*
D29*
%TO.N,/D7*%
X29210000Y36195000D02*
X29210000Y40005000D01*
D30*
X29210000Y34798000D02*
X29210000Y36195000D01*
X30480000Y33528000D02*
X29210000Y34798000D01*
X30480000Y11938000D02*
X30480000Y33528000D01*
%TO.N,/A0*%
X41910000Y18923000D02*
X41910000Y20955000D01*
X43180000Y17653000D02*
X41910000Y18923000D01*
X43180000Y5715000D02*
X43180000Y17653000D01*
%TO.N,/A1*%
X40640000Y17272000D02*
X40640000Y5715000D01*
X39370000Y18542000D02*
X40640000Y17272000D01*
X39370000Y20955000D02*
X39370000Y18542000D01*
%TO.N,/A2*%
X36830000Y18542000D02*
X36830000Y20955000D01*
X38100000Y17272000D02*
X36830000Y18542000D01*
X38100000Y5715000D02*
X38100000Y17272000D01*
%TO.N,/A3*%
X34290000Y11811000D02*
X34290000Y20955000D01*
X35179000Y10922000D02*
X34290000Y11811000D01*
%TO.N,/A4*%
X34290000Y4445000D02*
X35560000Y3175000D01*
X34290000Y8636000D02*
X34290000Y4445000D01*
X31750000Y11176000D02*
X34290000Y8636000D01*
X31750000Y20955000D02*
X31750000Y11176000D01*
D29*
%TO.N,/A5*%
X33020000Y7620000D02*
X33020000Y5715000D01*
X30099000Y10541000D02*
X33020000Y7620000D01*
X26289000Y10541000D02*
X30099000Y10541000D01*
X24003000Y12827000D02*
X26289000Y10541000D01*
X24003000Y16637000D02*
X24003000Y12827000D01*
X17145000Y23495000D02*
X24003000Y16637000D01*
X13081000Y23495000D02*
X17145000Y23495000D01*
%TO.N,/A6*%
X30480000Y8255000D02*
X30480000Y5715000D01*
X29337000Y9398000D02*
X30480000Y8255000D01*
X25400000Y9398000D02*
X29337000Y9398000D01*
X22987000Y11811000D02*
X25400000Y9398000D01*
X22987000Y15748000D02*
X22987000Y11811000D01*
X17780000Y20955000D02*
X22987000Y15748000D01*
X13081000Y20955000D02*
X17780000Y20955000D01*
%TO.N,/A7*%
X27940000Y7620000D02*
X27940000Y5715000D01*
X27178000Y8382000D02*
X27940000Y7620000D01*
X24384000Y8382000D02*
X27178000Y8382000D01*
X21844000Y10922000D02*
X24384000Y8382000D01*
X21844000Y14986000D02*
X21844000Y10922000D01*
X18415000Y18415000D02*
X21844000Y14986000D01*
X13081000Y18415000D02*
X18415000Y18415000D01*
%TO.N,Net-(C3-Pad2)*%
X55880000Y17780000D02*
X56595000Y17780000D01*
X54610000Y19050000D02*
X55880000Y17780000D01*
X54610000Y22860000D02*
X54610000Y19050000D01*
X55880000Y24130000D02*
X54610000Y22860000D01*
X56655000Y24130000D02*
X55880000Y24130000D01*
X57865000Y17780000D02*
X55880000Y17780000D01*
%TO.N,Net-(C5-Pad2)*%
X56655000Y21590000D02*
X61595000Y21590000D01*
X64770000Y18415000D02*
X67310000Y18415000D01*
X61595000Y21590000D02*
X64770000Y18415000D01*
%TO.N,Net-(C5-Pad1)*%
X60405000Y12065000D02*
X57865000Y14605000D01*
X66040000Y12065000D02*
X67310000Y13335000D01*
X60405000Y12065000D02*
X66040000Y12065000D01*
D30*
%TO.N,/~IRQ*%
X49530000Y13335000D02*
X49530000Y12065000D01*
X49530000Y12065000D02*
X52070000Y9525000D01*
X52070000Y4445000D02*
X50800000Y3175000D01*
X52070000Y9525000D02*
X52070000Y4445000D01*
%TO.N,/R_~W*%
X50800000Y5715000D02*
X50800000Y8763000D01*
X50800000Y8763000D02*
X47879000Y11684000D01*
X47879000Y11684000D02*
X47879000Y15240000D01*
X47879000Y15240000D02*
X50800000Y18161000D01*
X50800000Y24765000D02*
X51816000Y25781000D01*
X50800000Y18161000D02*
X50800000Y24765000D01*
D29*
%TO.N,Net-(JP1-Pad1)*%
X52070000Y20955000D02*
X52070000Y15240000D01*
X52070000Y20955000D02*
X52070000Y13335000D01*
%TO.N,VMEM*%
X49530000Y43180000D02*
X49530000Y36195000D01*
D30*
%TO.N,/~CSRTC*%
X17145000Y38735000D02*
X15875000Y37465000D01*
X15875000Y37465000D02*
X10795000Y37465000D01*
X19685000Y38735000D02*
X17145000Y38735000D01*
X9525000Y36195000D02*
X10795000Y37465000D01*
X5461000Y36195000D02*
X9525000Y36195000D01*
X29210000Y31877000D02*
X29210000Y20955000D01*
D29*
%TO.N,/~R_RTC*%
X24130000Y36195000D02*
X19685000Y36195000D01*
D30*
X15875000Y34925000D02*
X11430000Y34925000D01*
X17145000Y36195000D02*
X15875000Y34925000D01*
X19685000Y36195000D02*
X17145000Y36195000D01*
X10160000Y33655000D02*
X11430000Y34925000D01*
X5461000Y33655000D02*
X10160000Y33655000D01*
%TO.N,/~W_RTC*%
X10795000Y32385000D02*
X15875000Y32385000D01*
X17145000Y33655000D02*
X19685000Y33655000D01*
X15875000Y32385000D02*
X17145000Y33655000D01*
X5461000Y31115000D02*
X9525000Y31115000D01*
X9525000Y31115000D02*
X10795000Y32385000D01*
D29*
X24130000Y20955000D02*
X22479000Y20955000D01*
X15875000Y27559000D02*
X15875000Y32385000D01*
X22479000Y20955000D02*
X15875000Y27559000D01*
%TD*%
D32*
%TO.N,GND*%
X75540000Y660000D02*
X660000Y660000D01*
X660000Y2146603D01*
X16931208Y2146603D01*
X17008843Y1897528D01*
X17272883Y1771629D01*
X17556411Y1699661D01*
X17848531Y1684389D01*
X18138019Y1726401D01*
X18413747Y1824081D01*
X18551157Y1897528D01*
X18628792Y2146603D01*
X17780000Y2995395D01*
X16931208Y2146603D01*
X660000Y2146603D01*
X660000Y3106469D01*
X16289389Y3106469D01*
X16331401Y2816981D01*
X16429081Y2541253D01*
X16502528Y2403843D01*
X16751603Y2326208D01*
X17600395Y3175000D01*
X16751603Y4023792D01*
X16502528Y3946157D01*
X16376629Y3682117D01*
X16304661Y3398589D01*
X16289389Y3106469D01*
X660000Y3106469D01*
X660000Y10850298D01*
X18236903Y10850298D01*
X18308486Y10606329D01*
X18563996Y10485429D01*
X18838184Y10416700D01*
X19120512Y10402783D01*
X19400130Y10444213D01*
X19666292Y10539397D01*
X19791514Y10606329D01*
X19863097Y10850298D01*
X19050000Y11663395D01*
X18236903Y10850298D01*
X660000Y10850298D01*
X660000Y38735000D01*
X3619057Y38735000D01*
X3646764Y38453691D01*
X3728818Y38183192D01*
X3862068Y37933899D01*
X4041392Y37715392D01*
X4259899Y37536068D01*
X4392858Y37465000D01*
X4259899Y37393932D01*
X4041392Y37214608D01*
X3862068Y36996101D01*
X3728818Y36746808D01*
X3646764Y36476309D01*
X3619057Y36195000D01*
X3646764Y35913691D01*
X3728818Y35643192D01*
X3862068Y35393899D01*
X4041392Y35175392D01*
X4259899Y34996068D01*
X4392858Y34925000D01*
X4259899Y34853932D01*
X4041392Y34674608D01*
X3862068Y34456101D01*
X3728818Y34206808D01*
X3646764Y33936309D01*
X3619057Y33655000D01*
X3646764Y33373691D01*
X3728818Y33103192D01*
X3862068Y32853899D01*
X4041392Y32635392D01*
X4259899Y32456068D01*
X4392858Y32385000D01*
X4259899Y32313932D01*
X4041392Y32134608D01*
X3862068Y31916101D01*
X3728818Y31666808D01*
X3646764Y31396309D01*
X3619057Y31115000D01*
X3646764Y30833691D01*
X3728818Y30563192D01*
X3862068Y30313899D01*
X4041392Y30095392D01*
X4259899Y29916068D01*
X4392858Y29845000D01*
X4259899Y29773932D01*
X4041392Y29594608D01*
X3862068Y29376101D01*
X3728818Y29126808D01*
X3646764Y28856309D01*
X3619057Y28575000D01*
X3646764Y28293691D01*
X3728818Y28023192D01*
X3862068Y27773899D01*
X4041392Y27555392D01*
X4259899Y27376068D01*
X4392858Y27305000D01*
X4259899Y27233932D01*
X4041392Y27054608D01*
X3862068Y26836101D01*
X3728818Y26586808D01*
X3646764Y26316309D01*
X3619057Y26035000D01*
X3646764Y25753691D01*
X3728818Y25483192D01*
X3862068Y25233899D01*
X4041392Y25015392D01*
X4259899Y24836068D01*
X4392858Y24765000D01*
X4259899Y24693932D01*
X4041392Y24514608D01*
X3862068Y24296101D01*
X3728818Y24046808D01*
X3646764Y23776309D01*
X3619057Y23495000D01*
X3646764Y23213691D01*
X3728818Y22943192D01*
X3862068Y22693899D01*
X4041392Y22475392D01*
X4259899Y22296068D01*
X4392858Y22225000D01*
X4259899Y22153932D01*
X4041392Y21974608D01*
X3862068Y21756101D01*
X3728818Y21506808D01*
X3646764Y21236309D01*
X3619057Y20955000D01*
X3646764Y20673691D01*
X3728818Y20403192D01*
X3862068Y20153899D01*
X4041392Y19935392D01*
X4259899Y19756068D01*
X4392858Y19685000D01*
X4259899Y19613932D01*
X4041392Y19434608D01*
X3862068Y19216101D01*
X3728818Y18966808D01*
X3646764Y18696309D01*
X3619057Y18415000D01*
X3646764Y18133691D01*
X3728818Y17863192D01*
X3862068Y17613899D01*
X4041392Y17395392D01*
X4259899Y17216068D01*
X4392858Y17145000D01*
X4259899Y17073932D01*
X4041392Y16894608D01*
X3862068Y16676101D01*
X3728818Y16426808D01*
X3646764Y16156309D01*
X3619057Y15875000D01*
X3646764Y15593691D01*
X3728818Y15323192D01*
X3862068Y15073899D01*
X4041392Y14855392D01*
X4259899Y14676068D01*
X4509192Y14542818D01*
X4779691Y14460764D01*
X4990508Y14440000D01*
X5931492Y14440000D01*
X6142309Y14460764D01*
X6412808Y14542818D01*
X6662101Y14676068D01*
X6861853Y14840000D01*
X7318290Y14840000D01*
X9011197Y13147092D01*
X9043604Y13107604D01*
X9083092Y13075197D01*
X9201202Y12978266D01*
X9280043Y12936125D01*
X9381007Y12882159D01*
X9576105Y12822976D01*
X9728162Y12808000D01*
X9728164Y12808000D01*
X9779000Y12802993D01*
X9829835Y12808000D01*
X17657713Y12808000D01*
X17660498Y12798820D01*
X17719463Y12688506D01*
X17798815Y12591815D01*
X17811758Y12581193D01*
X17692429Y12329004D01*
X17623700Y12054816D01*
X17609783Y11772488D01*
X17651213Y11492870D01*
X17746397Y11226708D01*
X17813329Y11101486D01*
X18057298Y11029903D01*
X18870395Y11843000D01*
X18856253Y11857142D01*
X19035858Y12036747D01*
X19050000Y12022605D01*
X19064143Y12036747D01*
X19243748Y11857142D01*
X19229605Y11843000D01*
X20042702Y11029903D01*
X20286671Y11101486D01*
X20407571Y11356996D01*
X20476300Y11631184D01*
X20490217Y11913512D01*
X20448787Y12193130D01*
X20353603Y12459292D01*
X20288384Y12581309D01*
X20301185Y12591815D01*
X20380537Y12688506D01*
X20439502Y12798820D01*
X20475812Y12918518D01*
X20488072Y13043000D01*
X20488072Y14643000D01*
X20475812Y14767482D01*
X20439502Y14887180D01*
X20380537Y14997494D01*
X20301185Y15094185D01*
X20204494Y15173537D01*
X20094180Y15232502D01*
X19974482Y15268812D01*
X19850000Y15281072D01*
X18250000Y15281072D01*
X18125518Y15268812D01*
X18005820Y15232502D01*
X17895506Y15173537D01*
X17798815Y15094185D01*
X17719463Y14997494D01*
X17660498Y14887180D01*
X17657713Y14878000D01*
X14884814Y14878000D01*
X14906812Y14950518D01*
X14919072Y15075000D01*
X14919072Y16675000D01*
X14906812Y16799482D01*
X14870502Y16919180D01*
X14811537Y17029494D01*
X14732185Y17126185D01*
X14635494Y17205537D01*
X14525180Y17264502D01*
X14405482Y17300812D01*
X14387518Y17302581D01*
X14500608Y17395392D01*
X14570044Y17480000D01*
X18027711Y17480000D01*
X20909000Y14598710D01*
X20909001Y10967942D01*
X20904476Y10922000D01*
X20922529Y10738709D01*
X20975994Y10562460D01*
X21062815Y10400028D01*
X21179657Y10257656D01*
X21215336Y10228375D01*
X23690374Y7753336D01*
X23719656Y7717656D01*
X23862028Y7600814D01*
X24024460Y7513993D01*
X24147243Y7476747D01*
X24200707Y7460529D01*
X24219110Y7458717D01*
X24338068Y7447000D01*
X24338074Y7447000D01*
X24383999Y7442477D01*
X24429924Y7447000D01*
X26790711Y7447000D01*
X27005000Y7232711D01*
X27005000Y6876248D01*
X26993368Y6868475D01*
X26786525Y6661632D01*
X26670000Y6487240D01*
X26553475Y6661632D01*
X26346632Y6868475D01*
X26103411Y7030990D01*
X25833158Y7142932D01*
X25546260Y7200000D01*
X25253740Y7200000D01*
X24966842Y7142932D01*
X24696589Y7030990D01*
X24453368Y6868475D01*
X24246525Y6661632D01*
X24130000Y6487240D01*
X24013475Y6661632D01*
X23806632Y6868475D01*
X23563411Y7030990D01*
X23293158Y7142932D01*
X23006260Y7200000D01*
X22713740Y7200000D01*
X22426842Y7142932D01*
X22156589Y7030990D01*
X21913368Y6868475D01*
X21706525Y6661632D01*
X21590000Y6487240D01*
X21473475Y6661632D01*
X21266632Y6868475D01*
X21023411Y7030990D01*
X20753158Y7142932D01*
X20466260Y7200000D01*
X20173740Y7200000D01*
X19886842Y7142932D01*
X19616589Y7030990D01*
X19373368Y6868475D01*
X19166525Y6661632D01*
X19050000Y6487240D01*
X18933475Y6661632D01*
X18726632Y6868475D01*
X18483411Y7030990D01*
X18213158Y7142932D01*
X17926260Y7200000D01*
X17633740Y7200000D01*
X17346842Y7142932D01*
X17076589Y7030990D01*
X16833368Y6868475D01*
X16626525Y6661632D01*
X16464010Y6418411D01*
X16352068Y6148158D01*
X16295000Y5861260D01*
X16295000Y5568740D01*
X16352068Y5281842D01*
X16464010Y5011589D01*
X16626525Y4768368D01*
X16833368Y4561525D01*
X17006729Y4445689D01*
X16931208Y4203397D01*
X17780000Y3354605D01*
X18628792Y4203397D01*
X18553271Y4445689D01*
X18726632Y4561525D01*
X18933475Y4768368D01*
X19050000Y4942760D01*
X19166525Y4768368D01*
X19373368Y4561525D01*
X19547760Y4445000D01*
X19373368Y4328475D01*
X19166525Y4121632D01*
X19050689Y3948271D01*
X18808397Y4023792D01*
X17959605Y3175000D01*
X18808397Y2326208D01*
X19050689Y2401729D01*
X19166525Y2228368D01*
X19373368Y2021525D01*
X19616589Y1859010D01*
X19886842Y1747068D01*
X20173740Y1690000D01*
X20466260Y1690000D01*
X20753158Y1747068D01*
X21023411Y1859010D01*
X21266632Y2021525D01*
X21473475Y2228368D01*
X21590000Y2402760D01*
X21706525Y2228368D01*
X21913368Y2021525D01*
X22156589Y1859010D01*
X22426842Y1747068D01*
X22713740Y1690000D01*
X23006260Y1690000D01*
X23293158Y1747068D01*
X23563411Y1859010D01*
X23806632Y2021525D01*
X24013475Y2228368D01*
X24130000Y2402760D01*
X24246525Y2228368D01*
X24453368Y2021525D01*
X24696589Y1859010D01*
X24966842Y1747068D01*
X25253740Y1690000D01*
X25546260Y1690000D01*
X25833158Y1747068D01*
X26103411Y1859010D01*
X26346632Y2021525D01*
X26553475Y2228368D01*
X26670000Y2402760D01*
X26786525Y2228368D01*
X26993368Y2021525D01*
X27236589Y1859010D01*
X27506842Y1747068D01*
X27793740Y1690000D01*
X28086260Y1690000D01*
X28373158Y1747068D01*
X28643411Y1859010D01*
X28886632Y2021525D01*
X29093475Y2228368D01*
X29210000Y2402760D01*
X29326525Y2228368D01*
X29533368Y2021525D01*
X29776589Y1859010D01*
X30046842Y1747068D01*
X30333740Y1690000D01*
X30626260Y1690000D01*
X30913158Y1747068D01*
X31183411Y1859010D01*
X31426632Y2021525D01*
X31633475Y2228368D01*
X31750000Y2402760D01*
X31866525Y2228368D01*
X32073368Y2021525D01*
X32316589Y1859010D01*
X32586842Y1747068D01*
X32873740Y1690000D01*
X33166260Y1690000D01*
X33453158Y1747068D01*
X33723411Y1859010D01*
X33966632Y2021525D01*
X34173475Y2228368D01*
X34290000Y2402760D01*
X34406525Y2228368D01*
X34613368Y2021525D01*
X34856589Y1859010D01*
X35126842Y1747068D01*
X35413740Y1690000D01*
X35706260Y1690000D01*
X35993158Y1747068D01*
X36263411Y1859010D01*
X36506632Y2021525D01*
X36713475Y2228368D01*
X36830000Y2402760D01*
X36946525Y2228368D01*
X37153368Y2021525D01*
X37396589Y1859010D01*
X37666842Y1747068D01*
X37953740Y1690000D01*
X38246260Y1690000D01*
X38533158Y1747068D01*
X38803411Y1859010D01*
X39046632Y2021525D01*
X39253475Y2228368D01*
X39370000Y2402760D01*
X39486525Y2228368D01*
X39693368Y2021525D01*
X39936589Y1859010D01*
X40206842Y1747068D01*
X40493740Y1690000D01*
X40786260Y1690000D01*
X41073158Y1747068D01*
X41343411Y1859010D01*
X41586632Y2021525D01*
X41793475Y2228368D01*
X41910000Y2402760D01*
X42026525Y2228368D01*
X42233368Y2021525D01*
X42476589Y1859010D01*
X42746842Y1747068D01*
X43033740Y1690000D01*
X43326260Y1690000D01*
X43613158Y1747068D01*
X43883411Y1859010D01*
X44126632Y2021525D01*
X44333475Y2228368D01*
X44450000Y2402760D01*
X44566525Y2228368D01*
X44773368Y2021525D01*
X45016589Y1859010D01*
X45286842Y1747068D01*
X45573740Y1690000D01*
X45866260Y1690000D01*
X46153158Y1747068D01*
X46423411Y1859010D01*
X46666632Y2021525D01*
X46873475Y2228368D01*
X46990000Y2402760D01*
X47106525Y2228368D01*
X47313368Y2021525D01*
X47556589Y1859010D01*
X47826842Y1747068D01*
X48113740Y1690000D01*
X48406260Y1690000D01*
X48693158Y1747068D01*
X48963411Y1859010D01*
X49206632Y2021525D01*
X49413475Y2228368D01*
X49530000Y2402760D01*
X49646525Y2228368D01*
X49853368Y2021525D01*
X50096589Y1859010D01*
X50366842Y1747068D01*
X50653740Y1690000D01*
X50946260Y1690000D01*
X51233158Y1747068D01*
X51503411Y1859010D01*
X51746632Y2021525D01*
X51953475Y2228368D01*
X52070000Y2402760D01*
X52186525Y2228368D01*
X52393368Y2021525D01*
X52636589Y1859010D01*
X52906842Y1747068D01*
X53193740Y1690000D01*
X53486260Y1690000D01*
X53773158Y1747068D01*
X54043411Y1859010D01*
X54286632Y2021525D01*
X54493475Y2228368D01*
X54610000Y2402760D01*
X54726525Y2228368D01*
X54933368Y2021525D01*
X55176589Y1859010D01*
X55446842Y1747068D01*
X55733740Y1690000D01*
X56026260Y1690000D01*
X56313158Y1747068D01*
X56583411Y1859010D01*
X56826632Y2021525D01*
X57033475Y2228368D01*
X57150000Y2402760D01*
X57266525Y2228368D01*
X57473368Y2021525D01*
X57716589Y1859010D01*
X57986842Y1747068D01*
X58273740Y1690000D01*
X58566260Y1690000D01*
X58853158Y1747068D01*
X59123411Y1859010D01*
X59366632Y2021525D01*
X59573475Y2228368D01*
X59735990Y2471589D01*
X59847932Y2741842D01*
X59905000Y3028740D01*
X59905000Y3321260D01*
X59847932Y3608158D01*
X59735990Y3878411D01*
X59573475Y4121632D01*
X59386392Y4308715D01*
X59513386Y4376595D01*
X59647962Y4487038D01*
X59758405Y4621614D01*
X59840472Y4775150D01*
X59891008Y4941746D01*
X59908072Y5115000D01*
X59908072Y6315000D01*
X59891008Y6488254D01*
X59840472Y6654850D01*
X59758405Y6808386D01*
X59647962Y6942962D01*
X59513386Y7053405D01*
X59359850Y7135472D01*
X59193254Y7186008D01*
X59020000Y7203072D01*
X57820000Y7203072D01*
X57646746Y7186008D01*
X57480150Y7135472D01*
X57326614Y7053405D01*
X57192038Y6942962D01*
X57081595Y6808386D01*
X57013715Y6681392D01*
X56826632Y6868475D01*
X56583411Y7030990D01*
X56313158Y7142932D01*
X56026260Y7200000D01*
X55733740Y7200000D01*
X55446842Y7142932D01*
X55176589Y7030990D01*
X54933368Y6868475D01*
X54726525Y6661632D01*
X54610000Y6487240D01*
X54493475Y6661632D01*
X54286632Y6868475D01*
X54043411Y7030990D01*
X53773158Y7142932D01*
X53486260Y7200000D01*
X53193740Y7200000D01*
X52906842Y7142932D01*
X52905000Y7142169D01*
X52905000Y9483993D01*
X52909039Y9525001D01*
X52905000Y9566009D01*
X52905000Y9566019D01*
X52892918Y9688689D01*
X52845172Y9846087D01*
X52767636Y9991146D01*
X52663291Y10118291D01*
X52631428Y10144440D01*
X51228939Y11546928D01*
X52920000Y11546928D01*
X53044482Y11559188D01*
X53164180Y11595498D01*
X53274494Y11654463D01*
X53371185Y11733815D01*
X53450537Y11830506D01*
X53509502Y11940820D01*
X53545812Y12060518D01*
X53558072Y12185000D01*
X53558072Y14485000D01*
X53545812Y14609482D01*
X53509502Y14729180D01*
X53495068Y14756184D01*
X56330000Y14756184D01*
X56330000Y14453816D01*
X56388989Y14157257D01*
X56504701Y13877905D01*
X56672688Y13626495D01*
X56886495Y13412688D01*
X57137905Y13244701D01*
X57417257Y13128989D01*
X57713816Y13070000D01*
X58016184Y13070000D01*
X58067503Y13080208D01*
X59711374Y11436336D01*
X59740656Y11400656D01*
X59883028Y11283814D01*
X60045460Y11196993D01*
X60168243Y11159747D01*
X60221707Y11143529D01*
X60240110Y11141717D01*
X60359068Y11130000D01*
X60359074Y11130000D01*
X60404999Y11125477D01*
X60450924Y11130000D01*
X65994068Y11130000D01*
X66040000Y11125476D01*
X66085932Y11130000D01*
X66223292Y11143529D01*
X66399540Y11196993D01*
X66561972Y11283814D01*
X66704344Y11400656D01*
X66733630Y11436341D01*
X66809846Y11512557D01*
X67124344Y11450000D01*
X67495656Y11450000D01*
X67859834Y11522439D01*
X68202882Y11664534D01*
X68511618Y11870825D01*
X68774175Y12133382D01*
X68980466Y12442118D01*
X69122561Y12785166D01*
X69195000Y13149344D01*
X69195000Y13520656D01*
X69122561Y13884834D01*
X68980466Y14227882D01*
X68774175Y14536618D01*
X68511618Y14799175D01*
X68202882Y15005466D01*
X67859834Y15147561D01*
X67495656Y15220000D01*
X67124344Y15220000D01*
X66760166Y15147561D01*
X66417118Y15005466D01*
X66108382Y14799175D01*
X65845825Y14536618D01*
X65639534Y14227882D01*
X65497439Y13884834D01*
X65425000Y13520656D01*
X65425000Y13149344D01*
X65454706Y13000000D01*
X60792290Y13000000D01*
X59389792Y14402497D01*
X59400000Y14453816D01*
X59400000Y14756184D01*
X59341011Y15052743D01*
X59225299Y15332095D01*
X59057312Y15583505D01*
X58843505Y15797312D01*
X58592095Y15965299D01*
X58312743Y16081011D01*
X58016184Y16140000D01*
X57713816Y16140000D01*
X57417257Y16081011D01*
X57137905Y15965299D01*
X56886495Y15797312D01*
X56672688Y15583505D01*
X56504701Y15332095D01*
X56388989Y15052743D01*
X56330000Y14756184D01*
X53495068Y14756184D01*
X53450537Y14839494D01*
X53371185Y14936185D01*
X53274494Y15015537D01*
X53164180Y15074502D01*
X53044482Y15110812D01*
X53005000Y15114701D01*
X53005000Y19465956D01*
X53089608Y19535392D01*
X53268932Y19753899D01*
X53402182Y20003192D01*
X53484236Y20273691D01*
X53505000Y20484509D01*
X53505000Y21425492D01*
X53484236Y21636309D01*
X53402182Y21906808D01*
X53268932Y22156101D01*
X53089607Y22374608D01*
X52871100Y22553932D01*
X52621807Y22687182D01*
X52351308Y22769236D01*
X52070000Y22796943D01*
X51788691Y22769236D01*
X51635000Y22722615D01*
X51635000Y22860000D01*
X53670476Y22860000D01*
X53675000Y22814068D01*
X53675001Y19095942D01*
X53670476Y19050000D01*
X53688529Y18866709D01*
X53734550Y18715000D01*
X53741994Y18690460D01*
X53828815Y18528028D01*
X53945657Y18385656D01*
X53981336Y18356375D01*
X55186374Y17151336D01*
X55215656Y17115656D01*
X55358028Y16998814D01*
X55520460Y16911993D01*
X55643243Y16874747D01*
X55696707Y16858529D01*
X55879999Y16840476D01*
X55925931Y16845000D01*
X56643619Y16845000D01*
X56672688Y16801495D01*
X56886495Y16587688D01*
X57137905Y16419701D01*
X57417257Y16303989D01*
X57713816Y16245000D01*
X58016184Y16245000D01*
X58312743Y16303989D01*
X58592095Y16419701D01*
X58843505Y16587688D01*
X59057312Y16801495D01*
X59225299Y17052905D01*
X59341011Y17332257D01*
X59400000Y17628816D01*
X59400000Y17931184D01*
X59341011Y18227743D01*
X59225299Y18507095D01*
X59057312Y18758505D01*
X58843505Y18972312D01*
X58592095Y19140299D01*
X58312743Y19256011D01*
X58016184Y19315000D01*
X57713816Y19315000D01*
X57417257Y19256011D01*
X57137905Y19140299D01*
X56886495Y18972312D01*
X56672688Y18758505D01*
X56643619Y18715000D01*
X56267290Y18715000D01*
X55545000Y19437289D01*
X55545000Y20529183D01*
X55676495Y20397688D01*
X55927905Y20229701D01*
X56207257Y20113989D01*
X56503816Y20055000D01*
X56806184Y20055000D01*
X57102743Y20113989D01*
X57382095Y20229701D01*
X57633505Y20397688D01*
X57847312Y20611495D01*
X57876381Y20655000D01*
X61207711Y20655000D01*
X62575269Y19287441D01*
X62417257Y19256011D01*
X62137905Y19140299D01*
X61886495Y18972312D01*
X61672688Y18758505D01*
X61504701Y18507095D01*
X61388989Y18227743D01*
X61330000Y17931184D01*
X61330000Y17628816D01*
X61388989Y17332257D01*
X61504701Y17052905D01*
X61672688Y16801495D01*
X61886495Y16587688D01*
X61930000Y16558619D01*
X61930001Y15826382D01*
X61886495Y15797312D01*
X61672688Y15583505D01*
X61504701Y15332095D01*
X61388989Y15052743D01*
X61330000Y14756184D01*
X61330000Y14453816D01*
X61388989Y14157257D01*
X61504701Y13877905D01*
X61672688Y13626495D01*
X61886495Y13412688D01*
X62137905Y13244701D01*
X62417257Y13128989D01*
X62713816Y13070000D01*
X63016184Y13070000D01*
X63312743Y13128989D01*
X63592095Y13244701D01*
X63843505Y13412688D01*
X64057312Y13626495D01*
X64225299Y13877905D01*
X64341011Y14157257D01*
X64400000Y14453816D01*
X64400000Y14756184D01*
X64341011Y15052743D01*
X64225299Y15332095D01*
X64057312Y15583505D01*
X63843505Y15797312D01*
X63800000Y15826381D01*
X63800000Y16558619D01*
X63843505Y16587688D01*
X64057312Y16801495D01*
X64225299Y17052905D01*
X64341011Y17332257D01*
X64386294Y17559910D01*
X64410460Y17546993D01*
X64533243Y17509747D01*
X64586707Y17493529D01*
X64769999Y17475476D01*
X64815931Y17480000D01*
X65667676Y17480000D01*
X65845825Y17213382D01*
X66108382Y16950825D01*
X66417118Y16744534D01*
X66760166Y16602439D01*
X67124344Y16530000D01*
X67495656Y16530000D01*
X67859834Y16602439D01*
X68202882Y16744534D01*
X68511618Y16950825D01*
X68774175Y17213382D01*
X68980466Y17522118D01*
X69122561Y17865166D01*
X69195000Y18229344D01*
X69195000Y18600656D01*
X69122561Y18964834D01*
X68980466Y19307882D01*
X68774175Y19616618D01*
X68511618Y19879175D01*
X68202882Y20085466D01*
X67859834Y20227561D01*
X67495656Y20300000D01*
X67124344Y20300000D01*
X66793072Y20234106D01*
X66793072Y21610000D01*
X66780812Y21734482D01*
X66744502Y21854180D01*
X66685537Y21964494D01*
X66606185Y22061185D01*
X66509494Y22140537D01*
X66399180Y22199502D01*
X66279482Y22235812D01*
X66155000Y22248072D01*
X64655000Y22248072D01*
X64530518Y22235812D01*
X64410820Y22199502D01*
X64300506Y22140537D01*
X64203815Y22061185D01*
X64124463Y21964494D01*
X64065498Y21854180D01*
X64029188Y21734482D01*
X64016928Y21610000D01*
X64016928Y20490362D01*
X62288630Y22218659D01*
X62259344Y22254344D01*
X62116972Y22371186D01*
X61954540Y22458007D01*
X61778292Y22511471D01*
X61640932Y22525000D01*
X61595000Y22529524D01*
X61549068Y22525000D01*
X57876381Y22525000D01*
X57847312Y22568505D01*
X57633505Y22782312D01*
X57517237Y22860000D01*
X57633505Y22937688D01*
X57847312Y23151495D01*
X58015299Y23402905D01*
X58131011Y23682257D01*
X58190000Y23978816D01*
X58190000Y24281184D01*
X58131011Y24577743D01*
X58015299Y24857095D01*
X57847312Y25108505D01*
X57633505Y25322312D01*
X57382095Y25490299D01*
X57102743Y25606011D01*
X57082689Y25610000D01*
X64016928Y25610000D01*
X64016928Y24110000D01*
X64029188Y23985518D01*
X64065498Y23865820D01*
X64124463Y23755506D01*
X64203815Y23658815D01*
X64300506Y23579463D01*
X64410820Y23520498D01*
X64530518Y23484188D01*
X64655000Y23471928D01*
X66155000Y23471928D01*
X66279482Y23484188D01*
X66399180Y23520498D01*
X66509494Y23579463D01*
X66606185Y23658815D01*
X66685537Y23755506D01*
X66744502Y23865820D01*
X66780812Y23985518D01*
X66793072Y24110000D01*
X66793072Y25610000D01*
X66780812Y25734482D01*
X66744502Y25854180D01*
X66685537Y25964494D01*
X66606185Y26061185D01*
X66509494Y26140537D01*
X66399180Y26199502D01*
X66279482Y26235812D01*
X66155000Y26248072D01*
X64655000Y26248072D01*
X64530518Y26235812D01*
X64410820Y26199502D01*
X64300506Y26140537D01*
X64203815Y26061185D01*
X64124463Y25964494D01*
X64065498Y25854180D01*
X64029188Y25734482D01*
X64016928Y25610000D01*
X57082689Y25610000D01*
X56806184Y25665000D01*
X56503816Y25665000D01*
X56207257Y25606011D01*
X55927905Y25490299D01*
X55676495Y25322312D01*
X55462688Y25108505D01*
X55297837Y24861788D01*
X55215656Y24794344D01*
X55186374Y24758664D01*
X53981341Y23553630D01*
X53945656Y23524344D01*
X53828814Y23381971D01*
X53741993Y23219539D01*
X53716488Y23135460D01*
X53688529Y23043291D01*
X53670476Y22860000D01*
X51635000Y22860000D01*
X51635000Y24419133D01*
X51711867Y24496000D01*
X51942561Y24496000D01*
X52190821Y24545381D01*
X52424676Y24642247D01*
X52635140Y24782875D01*
X52814125Y24961860D01*
X52954753Y25172324D01*
X53051619Y25406179D01*
X53101000Y25654439D01*
X53101000Y25907561D01*
X53051619Y26155821D01*
X52954753Y26389676D01*
X52814125Y26600140D01*
X52635140Y26779125D01*
X52424676Y26919753D01*
X52190821Y27016619D01*
X51942561Y27066000D01*
X51689439Y27066000D01*
X51441179Y27016619D01*
X51207324Y26919753D01*
X50996860Y26779125D01*
X50817875Y26600140D01*
X50677247Y26389676D01*
X50580381Y26155821D01*
X50531000Y25907561D01*
X50531000Y25676867D01*
X50238574Y25384441D01*
X50206710Y25358291D01*
X50125907Y25259832D01*
X50102364Y25231145D01*
X50024828Y25086086D01*
X49977082Y24928688D01*
X49960960Y24765000D01*
X49965001Y24723972D01*
X49965001Y22728012D01*
X49961818Y22729367D01*
X49879039Y22746904D01*
X49657000Y22624915D01*
X49657000Y21082000D01*
X49677000Y21082000D01*
X49677000Y20828000D01*
X49657000Y20828000D01*
X49657000Y19285085D01*
X49879039Y19163096D01*
X49961818Y19180633D01*
X49965000Y19181988D01*
X49965000Y18506869D01*
X47698000Y16239867D01*
X47698000Y16545133D01*
X48821428Y17668560D01*
X48853291Y17694709D01*
X48957636Y17821854D01*
X49035172Y17966913D01*
X49082918Y18124311D01*
X49095000Y18246981D01*
X49095000Y18246991D01*
X49099039Y18287999D01*
X49095000Y18329007D01*
X49095000Y19181988D01*
X49098182Y19180633D01*
X49180961Y19163096D01*
X49403000Y19285085D01*
X49403000Y20828000D01*
X49383000Y20828000D01*
X49383000Y21082000D01*
X49403000Y21082000D01*
X49403000Y22624915D01*
X49180961Y22746904D01*
X49098182Y22729367D01*
X49095000Y22728012D01*
X49095000Y30132735D01*
X49258125Y30295860D01*
X49398753Y30506324D01*
X49495619Y30740179D01*
X49545000Y30988439D01*
X49545000Y31241561D01*
X49495619Y31489821D01*
X49398753Y31723676D01*
X49258125Y31934140D01*
X49079140Y32113125D01*
X48868676Y32253753D01*
X48634821Y32350619D01*
X48386561Y32400000D01*
X48133439Y32400000D01*
X47885179Y32350619D01*
X47825000Y32325692D01*
X47825000Y33591561D01*
X63485000Y33591561D01*
X63485000Y33338439D01*
X63534381Y33090179D01*
X63631247Y32856324D01*
X63771875Y32645860D01*
X63950860Y32466875D01*
X64161324Y32326247D01*
X64395179Y32229381D01*
X64643439Y32180000D01*
X64896561Y32180000D01*
X65144821Y32229381D01*
X65378676Y32326247D01*
X65589140Y32466875D01*
X65768125Y32645860D01*
X65908753Y32856324D01*
X66005619Y33090179D01*
X66055000Y33338439D01*
X66055000Y33591561D01*
X66005619Y33839821D01*
X65908753Y34073676D01*
X65768125Y34284140D01*
X65589140Y34463125D01*
X65378676Y34603753D01*
X65144821Y34700619D01*
X64896561Y34750000D01*
X64643439Y34750000D01*
X64395179Y34700619D01*
X64161324Y34603753D01*
X63950860Y34463125D01*
X63771875Y34284140D01*
X63631247Y34073676D01*
X63534381Y33839821D01*
X63485000Y33591561D01*
X47825000Y33591561D01*
X47825000Y34623888D01*
X48009608Y34775392D01*
X48188932Y34993899D01*
X48260000Y35126858D01*
X48331068Y34993899D01*
X48510393Y34775392D01*
X48728900Y34596068D01*
X48978193Y34462818D01*
X49248692Y34380764D01*
X49530000Y34353057D01*
X49811309Y34380764D01*
X50081808Y34462818D01*
X50331101Y34596068D01*
X50549608Y34775392D01*
X50728932Y34993899D01*
X50797265Y35121741D01*
X50947399Y34892161D01*
X51145105Y34690500D01*
X51378354Y34531285D01*
X51638182Y34420633D01*
X51720961Y34403096D01*
X51943000Y34525085D01*
X51943000Y36068000D01*
X52197000Y36068000D01*
X52197000Y34525085D01*
X52419039Y34403096D01*
X52501818Y34420633D01*
X52761646Y34531285D01*
X52994895Y34690500D01*
X53192601Y34892161D01*
X53347166Y35128517D01*
X53452650Y35390486D01*
X53505000Y35668000D01*
X53505000Y36068000D01*
X52197000Y36068000D01*
X51943000Y36068000D01*
X51923000Y36068000D01*
X51923000Y36322000D01*
X51943000Y36322000D01*
X51943000Y37864915D01*
X52197000Y37864915D01*
X52197000Y36322000D01*
X53505000Y36322000D01*
X53505000Y36722000D01*
X53452650Y36999514D01*
X53347166Y37261483D01*
X53192601Y37497839D01*
X52994895Y37699500D01*
X52761646Y37858715D01*
X52501818Y37969367D01*
X52419039Y37986904D01*
X52197000Y37864915D01*
X51943000Y37864915D01*
X51720961Y37986904D01*
X51638182Y37969367D01*
X51378354Y37858715D01*
X51145105Y37699500D01*
X50947399Y37497839D01*
X50797265Y37268259D01*
X50728932Y37396101D01*
X50549607Y37614608D01*
X50465000Y37684043D01*
X50465000Y41076788D01*
X63635000Y41076788D01*
X63635000Y40853212D01*
X63678617Y40633933D01*
X63764176Y40427376D01*
X63888388Y40241480D01*
X64046480Y40083388D01*
X64232376Y39959176D01*
X64438933Y39873617D01*
X64658212Y39830000D01*
X64881788Y39830000D01*
X65101067Y39873617D01*
X65307624Y39959176D01*
X65493520Y40083388D01*
X65651612Y40241480D01*
X65775824Y40427376D01*
X65861383Y40633933D01*
X65905000Y40853212D01*
X65905000Y41076788D01*
X65861383Y41296067D01*
X65775824Y41502624D01*
X65651612Y41688520D01*
X65493520Y41846612D01*
X65307624Y41970824D01*
X65101067Y42056383D01*
X64881788Y42100000D01*
X64658212Y42100000D01*
X64438933Y42056383D01*
X64232376Y41970824D01*
X64046480Y41846612D01*
X63888388Y41688520D01*
X63764176Y41502624D01*
X63678617Y41296067D01*
X63635000Y41076788D01*
X50465000Y41076788D01*
X50465000Y41958619D01*
X50508505Y41987688D01*
X50722312Y42201495D01*
X50890299Y42452905D01*
X51006011Y42732257D01*
X51065000Y43028816D01*
X51065000Y43331184D01*
X51006011Y43627743D01*
X50890299Y43907095D01*
X50722312Y44158505D01*
X50508505Y44372312D01*
X50257095Y44540299D01*
X49977743Y44656011D01*
X49681184Y44715000D01*
X49378816Y44715000D01*
X49082257Y44656011D01*
X48802905Y44540299D01*
X48551495Y44372312D01*
X48337688Y44158505D01*
X48169701Y43907095D01*
X48053989Y43627743D01*
X47995000Y43331184D01*
X47995000Y43028816D01*
X48053989Y42732257D01*
X48169701Y42452905D01*
X48337688Y42201495D01*
X48551495Y41987688D01*
X48595000Y41958619D01*
X48595001Y37684044D01*
X48510392Y37614607D01*
X48331068Y37396100D01*
X48260000Y37263142D01*
X48188932Y37396101D01*
X48009607Y37614608D01*
X47925000Y37684043D01*
X47925000Y38551275D01*
X48045134Y38649866D01*
X48230706Y38875986D01*
X48368599Y39133966D01*
X48453513Y39413890D01*
X48475000Y39632051D01*
X48475000Y40377950D01*
X48453513Y40596111D01*
X48368599Y40876034D01*
X48230706Y41134014D01*
X48045134Y41360134D01*
X47819013Y41545706D01*
X47561033Y41683599D01*
X47281110Y41768513D01*
X46990000Y41797185D01*
X46698889Y41768513D01*
X46418966Y41683599D01*
X46160986Y41545706D01*
X45934866Y41360134D01*
X45749294Y41134013D01*
X45720000Y41079208D01*
X45690706Y41134014D01*
X45505134Y41360134D01*
X45279013Y41545706D01*
X45021033Y41683599D01*
X44741110Y41768513D01*
X44450000Y41797185D01*
X44158889Y41768513D01*
X43878966Y41683599D01*
X43620986Y41545706D01*
X43394866Y41360134D01*
X43209294Y41134013D01*
X43180000Y41079208D01*
X43150706Y41134014D01*
X42965134Y41360134D01*
X42739013Y41545706D01*
X42481033Y41683599D01*
X42381448Y41713808D01*
X42637095Y41819701D01*
X42888505Y41987688D01*
X43102312Y42201495D01*
X43270299Y42452905D01*
X43386011Y42732257D01*
X43445000Y43028816D01*
X43445000Y43331184D01*
X43386011Y43627743D01*
X43270299Y43907095D01*
X43102312Y44158505D01*
X42888505Y44372312D01*
X42637095Y44540299D01*
X42357743Y44656011D01*
X42061184Y44715000D01*
X41758816Y44715000D01*
X41462257Y44656011D01*
X41182905Y44540299D01*
X40931495Y44372312D01*
X40717688Y44158505D01*
X40549701Y43907095D01*
X40433989Y43627743D01*
X40375000Y43331184D01*
X40375000Y43028816D01*
X40433989Y42732257D01*
X40549701Y42452905D01*
X40717688Y42201495D01*
X40931495Y41987688D01*
X41182905Y41819701D01*
X41438552Y41713808D01*
X41338966Y41683599D01*
X41080986Y41545706D01*
X40854866Y41360134D01*
X40669294Y41134013D01*
X40640000Y41079208D01*
X40610706Y41134014D01*
X40425134Y41360134D01*
X40199013Y41545706D01*
X39941033Y41683599D01*
X39661110Y41768513D01*
X39370000Y41797185D01*
X39078889Y41768513D01*
X38798966Y41683599D01*
X38540986Y41545706D01*
X38314866Y41360134D01*
X38129294Y41134013D01*
X38100000Y41079208D01*
X38070706Y41134014D01*
X37885134Y41360134D01*
X37659013Y41545706D01*
X37401033Y41683599D01*
X37121110Y41768513D01*
X36830000Y41797185D01*
X36538889Y41768513D01*
X36258966Y41683599D01*
X36000986Y41545706D01*
X35774866Y41360134D01*
X35589294Y41134013D01*
X35560000Y41079208D01*
X35530706Y41134014D01*
X35345134Y41360134D01*
X35119013Y41545706D01*
X34861033Y41683599D01*
X34581110Y41768513D01*
X34290000Y41797185D01*
X33998889Y41768513D01*
X33718966Y41683599D01*
X33460986Y41545706D01*
X33234866Y41360134D01*
X33049294Y41134013D01*
X33020000Y41079208D01*
X32990706Y41134014D01*
X32805134Y41360134D01*
X32579013Y41545706D01*
X32321033Y41683599D01*
X32041110Y41768513D01*
X31750000Y41797185D01*
X31458889Y41768513D01*
X31178966Y41683599D01*
X30920986Y41545706D01*
X30694866Y41360134D01*
X30509294Y41134013D01*
X30480000Y41079208D01*
X30450706Y41134014D01*
X30265134Y41360134D01*
X30039013Y41545706D01*
X29781033Y41683599D01*
X29501110Y41768513D01*
X29210000Y41797185D01*
X28918889Y41768513D01*
X28638966Y41683599D01*
X28380986Y41545706D01*
X28154866Y41360134D01*
X28093886Y41285830D01*
X28059502Y41399180D01*
X28000537Y41509494D01*
X27921185Y41606185D01*
X27824494Y41685537D01*
X27714180Y41744502D01*
X27594482Y41780812D01*
X27470000Y41793072D01*
X25870000Y41793072D01*
X25745518Y41780812D01*
X25625820Y41744502D01*
X25515506Y41685537D01*
X25418815Y41606185D01*
X25339463Y41509494D01*
X25280498Y41399180D01*
X25244188Y41279482D01*
X25231928Y41155000D01*
X25231928Y38855000D01*
X25244188Y38730518D01*
X25280498Y38610820D01*
X25339463Y38500506D01*
X25418815Y38403815D01*
X25515506Y38324463D01*
X25625820Y38265498D01*
X25635000Y38262713D01*
X25635001Y37595853D01*
X25471068Y37396100D01*
X25400000Y37263142D01*
X25328932Y37396101D01*
X25149607Y37614608D01*
X24931100Y37793932D01*
X24681807Y37927182D01*
X24411308Y38009236D01*
X24130000Y38036943D01*
X23848691Y38009236D01*
X23578192Y37927182D01*
X23328899Y37793932D01*
X23110392Y37614607D01*
X22931068Y37396100D01*
X22797818Y37146807D01*
X22792720Y37130000D01*
X21138725Y37130000D01*
X21040134Y37250134D01*
X20814014Y37435706D01*
X20759209Y37465000D01*
X20814014Y37494294D01*
X21040134Y37679866D01*
X21225706Y37905986D01*
X21363599Y38163966D01*
X21448513Y38443889D01*
X21477185Y38735000D01*
X21448513Y39026111D01*
X21363599Y39306034D01*
X21225706Y39564014D01*
X21040134Y39790134D01*
X20814014Y39975706D01*
X20759209Y40005000D01*
X20814014Y40034294D01*
X21040134Y40219866D01*
X21225706Y40445986D01*
X21363599Y40703966D01*
X21448513Y40983889D01*
X21477185Y41275000D01*
X21448513Y41566111D01*
X21363599Y41846034D01*
X21225706Y42104014D01*
X21040134Y42330134D01*
X20814014Y42515706D01*
X20556034Y42653599D01*
X20276111Y42738513D01*
X20057950Y42760000D01*
X19312050Y42760000D01*
X19093889Y42738513D01*
X18813966Y42653599D01*
X18555986Y42515706D01*
X18329866Y42330134D01*
X18144294Y42104014D01*
X18006401Y41846034D01*
X17921487Y41566111D01*
X17892815Y41275000D01*
X17921487Y40983889D01*
X18006401Y40703966D01*
X18144294Y40445986D01*
X18329866Y40219866D01*
X18555986Y40034294D01*
X18610791Y40005000D01*
X18555986Y39975706D01*
X18329866Y39790134D01*
X18149207Y39570000D01*
X17186015Y39570000D01*
X17144999Y39574040D01*
X17103983Y39570000D01*
X17103981Y39570000D01*
X16981311Y39557918D01*
X16823913Y39510172D01*
X16678854Y39432636D01*
X16551709Y39328291D01*
X16525558Y39296426D01*
X15529133Y38300000D01*
X14854012Y38300000D01*
X14855367Y38303182D01*
X14872904Y38385961D01*
X14750915Y38608000D01*
X13208000Y38608000D01*
X13208000Y38588000D01*
X12954000Y38588000D01*
X12954000Y38608000D01*
X11411085Y38608000D01*
X11289096Y38385961D01*
X11306633Y38303182D01*
X11307988Y38300000D01*
X10836015Y38300000D01*
X10794999Y38304040D01*
X10753983Y38300000D01*
X10753981Y38300000D01*
X10631311Y38287918D01*
X10473913Y38240172D01*
X10328854Y38162636D01*
X10201709Y38058291D01*
X10175561Y38026429D01*
X9179133Y37030000D01*
X7032112Y37030000D01*
X6880608Y37214608D01*
X6662101Y37393932D01*
X6529142Y37465000D01*
X6662101Y37536068D01*
X6880608Y37715392D01*
X7059932Y37933899D01*
X7193182Y38183192D01*
X7275236Y38453691D01*
X7302943Y38735000D01*
X7275236Y39016309D01*
X7254691Y39084039D01*
X11289096Y39084039D01*
X11411085Y38862000D01*
X12954000Y38862000D01*
X12954000Y40170000D01*
X13208000Y40170000D01*
X13208000Y38862000D01*
X14750915Y38862000D01*
X14872904Y39084039D01*
X14855367Y39166818D01*
X14744715Y39426646D01*
X14585500Y39659895D01*
X14383839Y39857601D01*
X14147483Y40012166D01*
X13885514Y40117650D01*
X13608000Y40170000D01*
X13208000Y40170000D01*
X12954000Y40170000D01*
X12554000Y40170000D01*
X12276486Y40117650D01*
X12014517Y40012166D01*
X11778161Y39857601D01*
X11576500Y39659895D01*
X11417285Y39426646D01*
X11306633Y39166818D01*
X11289096Y39084039D01*
X7254691Y39084039D01*
X7193182Y39286808D01*
X7059932Y39536101D01*
X6880608Y39754608D01*
X6662101Y39933932D01*
X6412808Y40067182D01*
X6142309Y40149236D01*
X5931492Y40170000D01*
X4990508Y40170000D01*
X4779691Y40149236D01*
X4509192Y40067182D01*
X4259899Y39933932D01*
X4041392Y39754608D01*
X3862068Y39536101D01*
X3728818Y39286808D01*
X3646764Y39016309D01*
X3619057Y38735000D01*
X660000Y38735000D01*
X660000Y42950184D01*
X5022000Y42950184D01*
X5022000Y42647816D01*
X5080989Y42351257D01*
X5196701Y42071905D01*
X5364688Y41820495D01*
X5578495Y41606688D01*
X5829905Y41438701D01*
X6109257Y41322989D01*
X6405816Y41264000D01*
X6708184Y41264000D01*
X7004743Y41322989D01*
X7284095Y41438701D01*
X7535505Y41606688D01*
X7663737Y41734920D01*
X10672525Y41734920D01*
X10756208Y41480739D01*
X11028775Y41349842D01*
X11321642Y41274635D01*
X11623553Y41258009D01*
X11922907Y41300603D01*
X12208199Y41400778D01*
X12357792Y41480739D01*
X12441475Y41734920D01*
X11557000Y42619395D01*
X10672525Y41734920D01*
X7663737Y41734920D01*
X7749312Y41820495D01*
X7917299Y42071905D01*
X8033011Y42351257D01*
X8092000Y42647816D01*
X8092000Y42732447D01*
X10016009Y42732447D01*
X10058603Y42433093D01*
X10158778Y42147801D01*
X10238739Y41998208D01*
X10492920Y41914525D01*
X11377395Y42799000D01*
X11736605Y42799000D01*
X12621080Y41914525D01*
X12875261Y41998208D01*
X13006158Y42270775D01*
X13081365Y42563642D01*
X13097991Y42865553D01*
X13055397Y43164907D01*
X12955222Y43450199D01*
X12875261Y43599792D01*
X12621080Y43683475D01*
X11736605Y42799000D01*
X11377395Y42799000D01*
X10492920Y43683475D01*
X10238739Y43599792D01*
X10107842Y43327225D01*
X10032635Y43034358D01*
X10016009Y42732447D01*
X8092000Y42732447D01*
X8092000Y42950184D01*
X8033011Y43246743D01*
X7917299Y43526095D01*
X7749312Y43777505D01*
X7663737Y43863080D01*
X10672525Y43863080D01*
X11557000Y42978605D01*
X12441475Y43863080D01*
X12357792Y44117261D01*
X12085225Y44248158D01*
X11792358Y44323365D01*
X11490447Y44339991D01*
X11191093Y44297397D01*
X10905801Y44197222D01*
X10756208Y44117261D01*
X10672525Y43863080D01*
X7663737Y43863080D01*
X7535505Y43991312D01*
X7284095Y44159299D01*
X7004743Y44275011D01*
X6708184Y44334000D01*
X6405816Y44334000D01*
X6109257Y44275011D01*
X5829905Y44159299D01*
X5578495Y43991312D01*
X5364688Y43777505D01*
X5196701Y43526095D01*
X5080989Y43246743D01*
X5022000Y42950184D01*
X660000Y42950184D01*
X660000Y48870000D01*
X75540001Y48870000D01*
X75540000Y660000D01*
%TA.AperFunction,Conductor*%
D33*
G36*
X75540000Y660000D02*
G01*
X660000Y660000D01*
X660000Y2146603D01*
X16931208Y2146603D01*
X17008843Y1897528D01*
X17272883Y1771629D01*
X17556411Y1699661D01*
X17848531Y1684389D01*
X18138019Y1726401D01*
X18413747Y1824081D01*
X18551157Y1897528D01*
X18628792Y2146603D01*
X17780000Y2995395D01*
X16931208Y2146603D01*
X660000Y2146603D01*
X660000Y3106469D01*
X16289389Y3106469D01*
X16331401Y2816981D01*
X16429081Y2541253D01*
X16502528Y2403843D01*
X16751603Y2326208D01*
X17600395Y3175000D01*
X16751603Y4023792D01*
X16502528Y3946157D01*
X16376629Y3682117D01*
X16304661Y3398589D01*
X16289389Y3106469D01*
X660000Y3106469D01*
X660000Y10850298D01*
X18236903Y10850298D01*
X18308486Y10606329D01*
X18563996Y10485429D01*
X18838184Y10416700D01*
X19120512Y10402783D01*
X19400130Y10444213D01*
X19666292Y10539397D01*
X19791514Y10606329D01*
X19863097Y10850298D01*
X19050000Y11663395D01*
X18236903Y10850298D01*
X660000Y10850298D01*
X660000Y38735000D01*
X3619057Y38735000D01*
X3646764Y38453691D01*
X3728818Y38183192D01*
X3862068Y37933899D01*
X4041392Y37715392D01*
X4259899Y37536068D01*
X4392858Y37465000D01*
X4259899Y37393932D01*
X4041392Y37214608D01*
X3862068Y36996101D01*
X3728818Y36746808D01*
X3646764Y36476309D01*
X3619057Y36195000D01*
X3646764Y35913691D01*
X3728818Y35643192D01*
X3862068Y35393899D01*
X4041392Y35175392D01*
X4259899Y34996068D01*
X4392858Y34925000D01*
X4259899Y34853932D01*
X4041392Y34674608D01*
X3862068Y34456101D01*
X3728818Y34206808D01*
X3646764Y33936309D01*
X3619057Y33655000D01*
X3646764Y33373691D01*
X3728818Y33103192D01*
X3862068Y32853899D01*
X4041392Y32635392D01*
X4259899Y32456068D01*
X4392858Y32385000D01*
X4259899Y32313932D01*
X4041392Y32134608D01*
X3862068Y31916101D01*
X3728818Y31666808D01*
X3646764Y31396309D01*
X3619057Y31115000D01*
X3646764Y30833691D01*
X3728818Y30563192D01*
X3862068Y30313899D01*
X4041392Y30095392D01*
X4259899Y29916068D01*
X4392858Y29845000D01*
X4259899Y29773932D01*
X4041392Y29594608D01*
X3862068Y29376101D01*
X3728818Y29126808D01*
X3646764Y28856309D01*
X3619057Y28575000D01*
X3646764Y28293691D01*
X3728818Y28023192D01*
X3862068Y27773899D01*
X4041392Y27555392D01*
X4259899Y27376068D01*
X4392858Y27305000D01*
X4259899Y27233932D01*
X4041392Y27054608D01*
X3862068Y26836101D01*
X3728818Y26586808D01*
X3646764Y26316309D01*
X3619057Y26035000D01*
X3646764Y25753691D01*
X3728818Y25483192D01*
X3862068Y25233899D01*
X4041392Y25015392D01*
X4259899Y24836068D01*
X4392858Y24765000D01*
X4259899Y24693932D01*
X4041392Y24514608D01*
X3862068Y24296101D01*
X3728818Y24046808D01*
X3646764Y23776309D01*
X3619057Y23495000D01*
X3646764Y23213691D01*
X3728818Y22943192D01*
X3862068Y22693899D01*
X4041392Y22475392D01*
X4259899Y22296068D01*
X4392858Y22225000D01*
X4259899Y22153932D01*
X4041392Y21974608D01*
X3862068Y21756101D01*
X3728818Y21506808D01*
X3646764Y21236309D01*
X3619057Y20955000D01*
X3646764Y20673691D01*
X3728818Y20403192D01*
X3862068Y20153899D01*
X4041392Y19935392D01*
X4259899Y19756068D01*
X4392858Y19685000D01*
X4259899Y19613932D01*
X4041392Y19434608D01*
X3862068Y19216101D01*
X3728818Y18966808D01*
X3646764Y18696309D01*
X3619057Y18415000D01*
X3646764Y18133691D01*
X3728818Y17863192D01*
X3862068Y17613899D01*
X4041392Y17395392D01*
X4259899Y17216068D01*
X4392858Y17145000D01*
X4259899Y17073932D01*
X4041392Y16894608D01*
X3862068Y16676101D01*
X3728818Y16426808D01*
X3646764Y16156309D01*
X3619057Y15875000D01*
X3646764Y15593691D01*
X3728818Y15323192D01*
X3862068Y15073899D01*
X4041392Y14855392D01*
X4259899Y14676068D01*
X4509192Y14542818D01*
X4779691Y14460764D01*
X4990508Y14440000D01*
X5931492Y14440000D01*
X6142309Y14460764D01*
X6412808Y14542818D01*
X6662101Y14676068D01*
X6861853Y14840000D01*
X7318290Y14840000D01*
X9011197Y13147092D01*
X9043604Y13107604D01*
X9083092Y13075197D01*
X9201202Y12978266D01*
X9280043Y12936125D01*
X9381007Y12882159D01*
X9576105Y12822976D01*
X9728162Y12808000D01*
X9728164Y12808000D01*
X9779000Y12802993D01*
X9829835Y12808000D01*
X17657713Y12808000D01*
X17660498Y12798820D01*
X17719463Y12688506D01*
X17798815Y12591815D01*
X17811758Y12581193D01*
X17692429Y12329004D01*
X17623700Y12054816D01*
X17609783Y11772488D01*
X17651213Y11492870D01*
X17746397Y11226708D01*
X17813329Y11101486D01*
X18057298Y11029903D01*
X18870395Y11843000D01*
X18856253Y11857142D01*
X19035858Y12036747D01*
X19050000Y12022605D01*
X19064143Y12036747D01*
X19243748Y11857142D01*
X19229605Y11843000D01*
X20042702Y11029903D01*
X20286671Y11101486D01*
X20407571Y11356996D01*
X20476300Y11631184D01*
X20490217Y11913512D01*
X20448787Y12193130D01*
X20353603Y12459292D01*
X20288384Y12581309D01*
X20301185Y12591815D01*
X20380537Y12688506D01*
X20439502Y12798820D01*
X20475812Y12918518D01*
X20488072Y13043000D01*
X20488072Y14643000D01*
X20475812Y14767482D01*
X20439502Y14887180D01*
X20380537Y14997494D01*
X20301185Y15094185D01*
X20204494Y15173537D01*
X20094180Y15232502D01*
X19974482Y15268812D01*
X19850000Y15281072D01*
X18250000Y15281072D01*
X18125518Y15268812D01*
X18005820Y15232502D01*
X17895506Y15173537D01*
X17798815Y15094185D01*
X17719463Y14997494D01*
X17660498Y14887180D01*
X17657713Y14878000D01*
X14884814Y14878000D01*
X14906812Y14950518D01*
X14919072Y15075000D01*
X14919072Y16675000D01*
X14906812Y16799482D01*
X14870502Y16919180D01*
X14811537Y17029494D01*
X14732185Y17126185D01*
X14635494Y17205537D01*
X14525180Y17264502D01*
X14405482Y17300812D01*
X14387518Y17302581D01*
X14500608Y17395392D01*
X14570044Y17480000D01*
X18027711Y17480000D01*
X20909000Y14598710D01*
X20909001Y10967942D01*
X20904476Y10922000D01*
X20922529Y10738709D01*
X20975994Y10562460D01*
X21062815Y10400028D01*
X21179657Y10257656D01*
X21215336Y10228375D01*
X23690374Y7753336D01*
X23719656Y7717656D01*
X23862028Y7600814D01*
X24024460Y7513993D01*
X24147243Y7476747D01*
X24200707Y7460529D01*
X24219110Y7458717D01*
X24338068Y7447000D01*
X24338074Y7447000D01*
X24383999Y7442477D01*
X24429924Y7447000D01*
X26790711Y7447000D01*
X27005000Y7232711D01*
X27005000Y6876248D01*
X26993368Y6868475D01*
X26786525Y6661632D01*
X26670000Y6487240D01*
X26553475Y6661632D01*
X26346632Y6868475D01*
X26103411Y7030990D01*
X25833158Y7142932D01*
X25546260Y7200000D01*
X25253740Y7200000D01*
X24966842Y7142932D01*
X24696589Y7030990D01*
X24453368Y6868475D01*
X24246525Y6661632D01*
X24130000Y6487240D01*
X24013475Y6661632D01*
X23806632Y6868475D01*
X23563411Y7030990D01*
X23293158Y7142932D01*
X23006260Y7200000D01*
X22713740Y7200000D01*
X22426842Y7142932D01*
X22156589Y7030990D01*
X21913368Y6868475D01*
X21706525Y6661632D01*
X21590000Y6487240D01*
X21473475Y6661632D01*
X21266632Y6868475D01*
X21023411Y7030990D01*
X20753158Y7142932D01*
X20466260Y7200000D01*
X20173740Y7200000D01*
X19886842Y7142932D01*
X19616589Y7030990D01*
X19373368Y6868475D01*
X19166525Y6661632D01*
X19050000Y6487240D01*
X18933475Y6661632D01*
X18726632Y6868475D01*
X18483411Y7030990D01*
X18213158Y7142932D01*
X17926260Y7200000D01*
X17633740Y7200000D01*
X17346842Y7142932D01*
X17076589Y7030990D01*
X16833368Y6868475D01*
X16626525Y6661632D01*
X16464010Y6418411D01*
X16352068Y6148158D01*
X16295000Y5861260D01*
X16295000Y5568740D01*
X16352068Y5281842D01*
X16464010Y5011589D01*
X16626525Y4768368D01*
X16833368Y4561525D01*
X17006729Y4445689D01*
X16931208Y4203397D01*
X17780000Y3354605D01*
X18628792Y4203397D01*
X18553271Y4445689D01*
X18726632Y4561525D01*
X18933475Y4768368D01*
X19050000Y4942760D01*
X19166525Y4768368D01*
X19373368Y4561525D01*
X19547760Y4445000D01*
X19373368Y4328475D01*
X19166525Y4121632D01*
X19050689Y3948271D01*
X18808397Y4023792D01*
X17959605Y3175000D01*
X18808397Y2326208D01*
X19050689Y2401729D01*
X19166525Y2228368D01*
X19373368Y2021525D01*
X19616589Y1859010D01*
X19886842Y1747068D01*
X20173740Y1690000D01*
X20466260Y1690000D01*
X20753158Y1747068D01*
X21023411Y1859010D01*
X21266632Y2021525D01*
X21473475Y2228368D01*
X21590000Y2402760D01*
X21706525Y2228368D01*
X21913368Y2021525D01*
X22156589Y1859010D01*
X22426842Y1747068D01*
X22713740Y1690000D01*
X23006260Y1690000D01*
X23293158Y1747068D01*
X23563411Y1859010D01*
X23806632Y2021525D01*
X24013475Y2228368D01*
X24130000Y2402760D01*
X24246525Y2228368D01*
X24453368Y2021525D01*
X24696589Y1859010D01*
X24966842Y1747068D01*
X25253740Y1690000D01*
X25546260Y1690000D01*
X25833158Y1747068D01*
X26103411Y1859010D01*
X26346632Y2021525D01*
X26553475Y2228368D01*
X26670000Y2402760D01*
X26786525Y2228368D01*
X26993368Y2021525D01*
X27236589Y1859010D01*
X27506842Y1747068D01*
X27793740Y1690000D01*
X28086260Y1690000D01*
X28373158Y1747068D01*
X28643411Y1859010D01*
X28886632Y2021525D01*
X29093475Y2228368D01*
X29210000Y2402760D01*
X29326525Y2228368D01*
X29533368Y2021525D01*
X29776589Y1859010D01*
X30046842Y1747068D01*
X30333740Y1690000D01*
X30626260Y1690000D01*
X30913158Y1747068D01*
X31183411Y1859010D01*
X31426632Y2021525D01*
X31633475Y2228368D01*
X31750000Y2402760D01*
X31866525Y2228368D01*
X32073368Y2021525D01*
X32316589Y1859010D01*
X32586842Y1747068D01*
X32873740Y1690000D01*
X33166260Y1690000D01*
X33453158Y1747068D01*
X33723411Y1859010D01*
X33966632Y2021525D01*
X34173475Y2228368D01*
X34290000Y2402760D01*
X34406525Y2228368D01*
X34613368Y2021525D01*
X34856589Y1859010D01*
X35126842Y1747068D01*
X35413740Y1690000D01*
X35706260Y1690000D01*
X35993158Y1747068D01*
X36263411Y1859010D01*
X36506632Y2021525D01*
X36713475Y2228368D01*
X36830000Y2402760D01*
X36946525Y2228368D01*
X37153368Y2021525D01*
X37396589Y1859010D01*
X37666842Y1747068D01*
X37953740Y1690000D01*
X38246260Y1690000D01*
X38533158Y1747068D01*
X38803411Y1859010D01*
X39046632Y2021525D01*
X39253475Y2228368D01*
X39370000Y2402760D01*
X39486525Y2228368D01*
X39693368Y2021525D01*
X39936589Y1859010D01*
X40206842Y1747068D01*
X40493740Y1690000D01*
X40786260Y1690000D01*
X41073158Y1747068D01*
X41343411Y1859010D01*
X41586632Y2021525D01*
X41793475Y2228368D01*
X41910000Y2402760D01*
X42026525Y2228368D01*
X42233368Y2021525D01*
X42476589Y1859010D01*
X42746842Y1747068D01*
X43033740Y1690000D01*
X43326260Y1690000D01*
X43613158Y1747068D01*
X43883411Y1859010D01*
X44126632Y2021525D01*
X44333475Y2228368D01*
X44450000Y2402760D01*
X44566525Y2228368D01*
X44773368Y2021525D01*
X45016589Y1859010D01*
X45286842Y1747068D01*
X45573740Y1690000D01*
X45866260Y1690000D01*
X46153158Y1747068D01*
X46423411Y1859010D01*
X46666632Y2021525D01*
X46873475Y2228368D01*
X46990000Y2402760D01*
X47106525Y2228368D01*
X47313368Y2021525D01*
X47556589Y1859010D01*
X47826842Y1747068D01*
X48113740Y1690000D01*
X48406260Y1690000D01*
X48693158Y1747068D01*
X48963411Y1859010D01*
X49206632Y2021525D01*
X49413475Y2228368D01*
X49530000Y2402760D01*
X49646525Y2228368D01*
X49853368Y2021525D01*
X50096589Y1859010D01*
X50366842Y1747068D01*
X50653740Y1690000D01*
X50946260Y1690000D01*
X51233158Y1747068D01*
X51503411Y1859010D01*
X51746632Y2021525D01*
X51953475Y2228368D01*
X52070000Y2402760D01*
X52186525Y2228368D01*
X52393368Y2021525D01*
X52636589Y1859010D01*
X52906842Y1747068D01*
X53193740Y1690000D01*
X53486260Y1690000D01*
X53773158Y1747068D01*
X54043411Y1859010D01*
X54286632Y2021525D01*
X54493475Y2228368D01*
X54610000Y2402760D01*
X54726525Y2228368D01*
X54933368Y2021525D01*
X55176589Y1859010D01*
X55446842Y1747068D01*
X55733740Y1690000D01*
X56026260Y1690000D01*
X56313158Y1747068D01*
X56583411Y1859010D01*
X56826632Y2021525D01*
X57033475Y2228368D01*
X57150000Y2402760D01*
X57266525Y2228368D01*
X57473368Y2021525D01*
X57716589Y1859010D01*
X57986842Y1747068D01*
X58273740Y1690000D01*
X58566260Y1690000D01*
X58853158Y1747068D01*
X59123411Y1859010D01*
X59366632Y2021525D01*
X59573475Y2228368D01*
X59735990Y2471589D01*
X59847932Y2741842D01*
X59905000Y3028740D01*
X59905000Y3321260D01*
X59847932Y3608158D01*
X59735990Y3878411D01*
X59573475Y4121632D01*
X59386392Y4308715D01*
X59513386Y4376595D01*
X59647962Y4487038D01*
X59758405Y4621614D01*
X59840472Y4775150D01*
X59891008Y4941746D01*
X59908072Y5115000D01*
X59908072Y6315000D01*
X59891008Y6488254D01*
X59840472Y6654850D01*
X59758405Y6808386D01*
X59647962Y6942962D01*
X59513386Y7053405D01*
X59359850Y7135472D01*
X59193254Y7186008D01*
X59020000Y7203072D01*
X57820000Y7203072D01*
X57646746Y7186008D01*
X57480150Y7135472D01*
X57326614Y7053405D01*
X57192038Y6942962D01*
X57081595Y6808386D01*
X57013715Y6681392D01*
X56826632Y6868475D01*
X56583411Y7030990D01*
X56313158Y7142932D01*
X56026260Y7200000D01*
X55733740Y7200000D01*
X55446842Y7142932D01*
X55176589Y7030990D01*
X54933368Y6868475D01*
X54726525Y6661632D01*
X54610000Y6487240D01*
X54493475Y6661632D01*
X54286632Y6868475D01*
X54043411Y7030990D01*
X53773158Y7142932D01*
X53486260Y7200000D01*
X53193740Y7200000D01*
X52906842Y7142932D01*
X52905000Y7142169D01*
X52905000Y9483993D01*
X52909039Y9525001D01*
X52905000Y9566009D01*
X52905000Y9566019D01*
X52892918Y9688689D01*
X52845172Y9846087D01*
X52767636Y9991146D01*
X52663291Y10118291D01*
X52631428Y10144440D01*
X51228939Y11546928D01*
X52920000Y11546928D01*
X53044482Y11559188D01*
X53164180Y11595498D01*
X53274494Y11654463D01*
X53371185Y11733815D01*
X53450537Y11830506D01*
X53509502Y11940820D01*
X53545812Y12060518D01*
X53558072Y12185000D01*
X53558072Y14485000D01*
X53545812Y14609482D01*
X53509502Y14729180D01*
X53495068Y14756184D01*
X56330000Y14756184D01*
X56330000Y14453816D01*
X56388989Y14157257D01*
X56504701Y13877905D01*
X56672688Y13626495D01*
X56886495Y13412688D01*
X57137905Y13244701D01*
X57417257Y13128989D01*
X57713816Y13070000D01*
X58016184Y13070000D01*
X58067503Y13080208D01*
X59711374Y11436336D01*
X59740656Y11400656D01*
X59883028Y11283814D01*
X60045460Y11196993D01*
X60168243Y11159747D01*
X60221707Y11143529D01*
X60240110Y11141717D01*
X60359068Y11130000D01*
X60359074Y11130000D01*
X60404999Y11125477D01*
X60450924Y11130000D01*
X65994068Y11130000D01*
X66040000Y11125476D01*
X66085932Y11130000D01*
X66223292Y11143529D01*
X66399540Y11196993D01*
X66561972Y11283814D01*
X66704344Y11400656D01*
X66733630Y11436341D01*
X66809846Y11512557D01*
X67124344Y11450000D01*
X67495656Y11450000D01*
X67859834Y11522439D01*
X68202882Y11664534D01*
X68511618Y11870825D01*
X68774175Y12133382D01*
X68980466Y12442118D01*
X69122561Y12785166D01*
X69195000Y13149344D01*
X69195000Y13520656D01*
X69122561Y13884834D01*
X68980466Y14227882D01*
X68774175Y14536618D01*
X68511618Y14799175D01*
X68202882Y15005466D01*
X67859834Y15147561D01*
X67495656Y15220000D01*
X67124344Y15220000D01*
X66760166Y15147561D01*
X66417118Y15005466D01*
X66108382Y14799175D01*
X65845825Y14536618D01*
X65639534Y14227882D01*
X65497439Y13884834D01*
X65425000Y13520656D01*
X65425000Y13149344D01*
X65454706Y13000000D01*
X60792290Y13000000D01*
X59389792Y14402497D01*
X59400000Y14453816D01*
X59400000Y14756184D01*
X59341011Y15052743D01*
X59225299Y15332095D01*
X59057312Y15583505D01*
X58843505Y15797312D01*
X58592095Y15965299D01*
X58312743Y16081011D01*
X58016184Y16140000D01*
X57713816Y16140000D01*
X57417257Y16081011D01*
X57137905Y15965299D01*
X56886495Y15797312D01*
X56672688Y15583505D01*
X56504701Y15332095D01*
X56388989Y15052743D01*
X56330000Y14756184D01*
X53495068Y14756184D01*
X53450537Y14839494D01*
X53371185Y14936185D01*
X53274494Y15015537D01*
X53164180Y15074502D01*
X53044482Y15110812D01*
X53005000Y15114701D01*
X53005000Y19465956D01*
X53089608Y19535392D01*
X53268932Y19753899D01*
X53402182Y20003192D01*
X53484236Y20273691D01*
X53505000Y20484509D01*
X53505000Y21425492D01*
X53484236Y21636309D01*
X53402182Y21906808D01*
X53268932Y22156101D01*
X53089607Y22374608D01*
X52871100Y22553932D01*
X52621807Y22687182D01*
X52351308Y22769236D01*
X52070000Y22796943D01*
X51788691Y22769236D01*
X51635000Y22722615D01*
X51635000Y22860000D01*
X53670476Y22860000D01*
X53675000Y22814068D01*
X53675001Y19095942D01*
X53670476Y19050000D01*
X53688529Y18866709D01*
X53734550Y18715000D01*
X53741994Y18690460D01*
X53828815Y18528028D01*
X53945657Y18385656D01*
X53981336Y18356375D01*
X55186374Y17151336D01*
X55215656Y17115656D01*
X55358028Y16998814D01*
X55520460Y16911993D01*
X55643243Y16874747D01*
X55696707Y16858529D01*
X55879999Y16840476D01*
X55925931Y16845000D01*
X56643619Y16845000D01*
X56672688Y16801495D01*
X56886495Y16587688D01*
X57137905Y16419701D01*
X57417257Y16303989D01*
X57713816Y16245000D01*
X58016184Y16245000D01*
X58312743Y16303989D01*
X58592095Y16419701D01*
X58843505Y16587688D01*
X59057312Y16801495D01*
X59225299Y17052905D01*
X59341011Y17332257D01*
X59400000Y17628816D01*
X59400000Y17931184D01*
X59341011Y18227743D01*
X59225299Y18507095D01*
X59057312Y18758505D01*
X58843505Y18972312D01*
X58592095Y19140299D01*
X58312743Y19256011D01*
X58016184Y19315000D01*
X57713816Y19315000D01*
X57417257Y19256011D01*
X57137905Y19140299D01*
X56886495Y18972312D01*
X56672688Y18758505D01*
X56643619Y18715000D01*
X56267290Y18715000D01*
X55545000Y19437289D01*
X55545000Y20529183D01*
X55676495Y20397688D01*
X55927905Y20229701D01*
X56207257Y20113989D01*
X56503816Y20055000D01*
X56806184Y20055000D01*
X57102743Y20113989D01*
X57382095Y20229701D01*
X57633505Y20397688D01*
X57847312Y20611495D01*
X57876381Y20655000D01*
X61207711Y20655000D01*
X62575269Y19287441D01*
X62417257Y19256011D01*
X62137905Y19140299D01*
X61886495Y18972312D01*
X61672688Y18758505D01*
X61504701Y18507095D01*
X61388989Y18227743D01*
X61330000Y17931184D01*
X61330000Y17628816D01*
X61388989Y17332257D01*
X61504701Y17052905D01*
X61672688Y16801495D01*
X61886495Y16587688D01*
X61930000Y16558619D01*
X61930001Y15826382D01*
X61886495Y15797312D01*
X61672688Y15583505D01*
X61504701Y15332095D01*
X61388989Y15052743D01*
X61330000Y14756184D01*
X61330000Y14453816D01*
X61388989Y14157257D01*
X61504701Y13877905D01*
X61672688Y13626495D01*
X61886495Y13412688D01*
X62137905Y13244701D01*
X62417257Y13128989D01*
X62713816Y13070000D01*
X63016184Y13070000D01*
X63312743Y13128989D01*
X63592095Y13244701D01*
X63843505Y13412688D01*
X64057312Y13626495D01*
X64225299Y13877905D01*
X64341011Y14157257D01*
X64400000Y14453816D01*
X64400000Y14756184D01*
X64341011Y15052743D01*
X64225299Y15332095D01*
X64057312Y15583505D01*
X63843505Y15797312D01*
X63800000Y15826381D01*
X63800000Y16558619D01*
X63843505Y16587688D01*
X64057312Y16801495D01*
X64225299Y17052905D01*
X64341011Y17332257D01*
X64386294Y17559910D01*
X64410460Y17546993D01*
X64533243Y17509747D01*
X64586707Y17493529D01*
X64769999Y17475476D01*
X64815931Y17480000D01*
X65667676Y17480000D01*
X65845825Y17213382D01*
X66108382Y16950825D01*
X66417118Y16744534D01*
X66760166Y16602439D01*
X67124344Y16530000D01*
X67495656Y16530000D01*
X67859834Y16602439D01*
X68202882Y16744534D01*
X68511618Y16950825D01*
X68774175Y17213382D01*
X68980466Y17522118D01*
X69122561Y17865166D01*
X69195000Y18229344D01*
X69195000Y18600656D01*
X69122561Y18964834D01*
X68980466Y19307882D01*
X68774175Y19616618D01*
X68511618Y19879175D01*
X68202882Y20085466D01*
X67859834Y20227561D01*
X67495656Y20300000D01*
X67124344Y20300000D01*
X66793072Y20234106D01*
X66793072Y21610000D01*
X66780812Y21734482D01*
X66744502Y21854180D01*
X66685537Y21964494D01*
X66606185Y22061185D01*
X66509494Y22140537D01*
X66399180Y22199502D01*
X66279482Y22235812D01*
X66155000Y22248072D01*
X64655000Y22248072D01*
X64530518Y22235812D01*
X64410820Y22199502D01*
X64300506Y22140537D01*
X64203815Y22061185D01*
X64124463Y21964494D01*
X64065498Y21854180D01*
X64029188Y21734482D01*
X64016928Y21610000D01*
X64016928Y20490362D01*
X62288630Y22218659D01*
X62259344Y22254344D01*
X62116972Y22371186D01*
X61954540Y22458007D01*
X61778292Y22511471D01*
X61640932Y22525000D01*
X61595000Y22529524D01*
X61549068Y22525000D01*
X57876381Y22525000D01*
X57847312Y22568505D01*
X57633505Y22782312D01*
X57517237Y22860000D01*
X57633505Y22937688D01*
X57847312Y23151495D01*
X58015299Y23402905D01*
X58131011Y23682257D01*
X58190000Y23978816D01*
X58190000Y24281184D01*
X58131011Y24577743D01*
X58015299Y24857095D01*
X57847312Y25108505D01*
X57633505Y25322312D01*
X57382095Y25490299D01*
X57102743Y25606011D01*
X57082689Y25610000D01*
X64016928Y25610000D01*
X64016928Y24110000D01*
X64029188Y23985518D01*
X64065498Y23865820D01*
X64124463Y23755506D01*
X64203815Y23658815D01*
X64300506Y23579463D01*
X64410820Y23520498D01*
X64530518Y23484188D01*
X64655000Y23471928D01*
X66155000Y23471928D01*
X66279482Y23484188D01*
X66399180Y23520498D01*
X66509494Y23579463D01*
X66606185Y23658815D01*
X66685537Y23755506D01*
X66744502Y23865820D01*
X66780812Y23985518D01*
X66793072Y24110000D01*
X66793072Y25610000D01*
X66780812Y25734482D01*
X66744502Y25854180D01*
X66685537Y25964494D01*
X66606185Y26061185D01*
X66509494Y26140537D01*
X66399180Y26199502D01*
X66279482Y26235812D01*
X66155000Y26248072D01*
X64655000Y26248072D01*
X64530518Y26235812D01*
X64410820Y26199502D01*
X64300506Y26140537D01*
X64203815Y26061185D01*
X64124463Y25964494D01*
X64065498Y25854180D01*
X64029188Y25734482D01*
X64016928Y25610000D01*
X57082689Y25610000D01*
X56806184Y25665000D01*
X56503816Y25665000D01*
X56207257Y25606011D01*
X55927905Y25490299D01*
X55676495Y25322312D01*
X55462688Y25108505D01*
X55297837Y24861788D01*
X55215656Y24794344D01*
X55186374Y24758664D01*
X53981341Y23553630D01*
X53945656Y23524344D01*
X53828814Y23381971D01*
X53741993Y23219539D01*
X53716488Y23135460D01*
X53688529Y23043291D01*
X53670476Y22860000D01*
X51635000Y22860000D01*
X51635000Y24419133D01*
X51711867Y24496000D01*
X51942561Y24496000D01*
X52190821Y24545381D01*
X52424676Y24642247D01*
X52635140Y24782875D01*
X52814125Y24961860D01*
X52954753Y25172324D01*
X53051619Y25406179D01*
X53101000Y25654439D01*
X53101000Y25907561D01*
X53051619Y26155821D01*
X52954753Y26389676D01*
X52814125Y26600140D01*
X52635140Y26779125D01*
X52424676Y26919753D01*
X52190821Y27016619D01*
X51942561Y27066000D01*
X51689439Y27066000D01*
X51441179Y27016619D01*
X51207324Y26919753D01*
X50996860Y26779125D01*
X50817875Y26600140D01*
X50677247Y26389676D01*
X50580381Y26155821D01*
X50531000Y25907561D01*
X50531000Y25676867D01*
X50238574Y25384441D01*
X50206710Y25358291D01*
X50125907Y25259832D01*
X50102364Y25231145D01*
X50024828Y25086086D01*
X49977082Y24928688D01*
X49960960Y24765000D01*
X49965001Y24723972D01*
X49965001Y22728012D01*
X49961818Y22729367D01*
X49879039Y22746904D01*
X49657000Y22624915D01*
X49657000Y21082000D01*
X49677000Y21082000D01*
X49677000Y20828000D01*
X49657000Y20828000D01*
X49657000Y19285085D01*
X49879039Y19163096D01*
X49961818Y19180633D01*
X49965000Y19181988D01*
X49965000Y18506869D01*
X47698000Y16239867D01*
X47698000Y16545133D01*
X48821428Y17668560D01*
X48853291Y17694709D01*
X48957636Y17821854D01*
X49035172Y17966913D01*
X49082918Y18124311D01*
X49095000Y18246981D01*
X49095000Y18246991D01*
X49099039Y18287999D01*
X49095000Y18329007D01*
X49095000Y19181988D01*
X49098182Y19180633D01*
X49180961Y19163096D01*
X49403000Y19285085D01*
X49403000Y20828000D01*
X49383000Y20828000D01*
X49383000Y21082000D01*
X49403000Y21082000D01*
X49403000Y22624915D01*
X49180961Y22746904D01*
X49098182Y22729367D01*
X49095000Y22728012D01*
X49095000Y30132735D01*
X49258125Y30295860D01*
X49398753Y30506324D01*
X49495619Y30740179D01*
X49545000Y30988439D01*
X49545000Y31241561D01*
X49495619Y31489821D01*
X49398753Y31723676D01*
X49258125Y31934140D01*
X49079140Y32113125D01*
X48868676Y32253753D01*
X48634821Y32350619D01*
X48386561Y32400000D01*
X48133439Y32400000D01*
X47885179Y32350619D01*
X47825000Y32325692D01*
X47825000Y33591561D01*
X63485000Y33591561D01*
X63485000Y33338439D01*
X63534381Y33090179D01*
X63631247Y32856324D01*
X63771875Y32645860D01*
X63950860Y32466875D01*
X64161324Y32326247D01*
X64395179Y32229381D01*
X64643439Y32180000D01*
X64896561Y32180000D01*
X65144821Y32229381D01*
X65378676Y32326247D01*
X65589140Y32466875D01*
X65768125Y32645860D01*
X65908753Y32856324D01*
X66005619Y33090179D01*
X66055000Y33338439D01*
X66055000Y33591561D01*
X66005619Y33839821D01*
X65908753Y34073676D01*
X65768125Y34284140D01*
X65589140Y34463125D01*
X65378676Y34603753D01*
X65144821Y34700619D01*
X64896561Y34750000D01*
X64643439Y34750000D01*
X64395179Y34700619D01*
X64161324Y34603753D01*
X63950860Y34463125D01*
X63771875Y34284140D01*
X63631247Y34073676D01*
X63534381Y33839821D01*
X63485000Y33591561D01*
X47825000Y33591561D01*
X47825000Y34623888D01*
X48009608Y34775392D01*
X48188932Y34993899D01*
X48260000Y35126858D01*
X48331068Y34993899D01*
X48510393Y34775392D01*
X48728900Y34596068D01*
X48978193Y34462818D01*
X49248692Y34380764D01*
X49530000Y34353057D01*
X49811309Y34380764D01*
X50081808Y34462818D01*
X50331101Y34596068D01*
X50549608Y34775392D01*
X50728932Y34993899D01*
X50797265Y35121741D01*
X50947399Y34892161D01*
X51145105Y34690500D01*
X51378354Y34531285D01*
X51638182Y34420633D01*
X51720961Y34403096D01*
X51943000Y34525085D01*
X51943000Y36068000D01*
X52197000Y36068000D01*
X52197000Y34525085D01*
X52419039Y34403096D01*
X52501818Y34420633D01*
X52761646Y34531285D01*
X52994895Y34690500D01*
X53192601Y34892161D01*
X53347166Y35128517D01*
X53452650Y35390486D01*
X53505000Y35668000D01*
X53505000Y36068000D01*
X52197000Y36068000D01*
X51943000Y36068000D01*
X51923000Y36068000D01*
X51923000Y36322000D01*
X51943000Y36322000D01*
X51943000Y37864915D01*
X52197000Y37864915D01*
X52197000Y36322000D01*
X53505000Y36322000D01*
X53505000Y36722000D01*
X53452650Y36999514D01*
X53347166Y37261483D01*
X53192601Y37497839D01*
X52994895Y37699500D01*
X52761646Y37858715D01*
X52501818Y37969367D01*
X52419039Y37986904D01*
X52197000Y37864915D01*
X51943000Y37864915D01*
X51720961Y37986904D01*
X51638182Y37969367D01*
X51378354Y37858715D01*
X51145105Y37699500D01*
X50947399Y37497839D01*
X50797265Y37268259D01*
X50728932Y37396101D01*
X50549607Y37614608D01*
X50465000Y37684043D01*
X50465000Y41076788D01*
X63635000Y41076788D01*
X63635000Y40853212D01*
X63678617Y40633933D01*
X63764176Y40427376D01*
X63888388Y40241480D01*
X64046480Y40083388D01*
X64232376Y39959176D01*
X64438933Y39873617D01*
X64658212Y39830000D01*
X64881788Y39830000D01*
X65101067Y39873617D01*
X65307624Y39959176D01*
X65493520Y40083388D01*
X65651612Y40241480D01*
X65775824Y40427376D01*
X65861383Y40633933D01*
X65905000Y40853212D01*
X65905000Y41076788D01*
X65861383Y41296067D01*
X65775824Y41502624D01*
X65651612Y41688520D01*
X65493520Y41846612D01*
X65307624Y41970824D01*
X65101067Y42056383D01*
X64881788Y42100000D01*
X64658212Y42100000D01*
X64438933Y42056383D01*
X64232376Y41970824D01*
X64046480Y41846612D01*
X63888388Y41688520D01*
X63764176Y41502624D01*
X63678617Y41296067D01*
X63635000Y41076788D01*
X50465000Y41076788D01*
X50465000Y41958619D01*
X50508505Y41987688D01*
X50722312Y42201495D01*
X50890299Y42452905D01*
X51006011Y42732257D01*
X51065000Y43028816D01*
X51065000Y43331184D01*
X51006011Y43627743D01*
X50890299Y43907095D01*
X50722312Y44158505D01*
X50508505Y44372312D01*
X50257095Y44540299D01*
X49977743Y44656011D01*
X49681184Y44715000D01*
X49378816Y44715000D01*
X49082257Y44656011D01*
X48802905Y44540299D01*
X48551495Y44372312D01*
X48337688Y44158505D01*
X48169701Y43907095D01*
X48053989Y43627743D01*
X47995000Y43331184D01*
X47995000Y43028816D01*
X48053989Y42732257D01*
X48169701Y42452905D01*
X48337688Y42201495D01*
X48551495Y41987688D01*
X48595000Y41958619D01*
X48595001Y37684044D01*
X48510392Y37614607D01*
X48331068Y37396100D01*
X48260000Y37263142D01*
X48188932Y37396101D01*
X48009607Y37614608D01*
X47925000Y37684043D01*
X47925000Y38551275D01*
X48045134Y38649866D01*
X48230706Y38875986D01*
X48368599Y39133966D01*
X48453513Y39413890D01*
X48475000Y39632051D01*
X48475000Y40377950D01*
X48453513Y40596111D01*
X48368599Y40876034D01*
X48230706Y41134014D01*
X48045134Y41360134D01*
X47819013Y41545706D01*
X47561033Y41683599D01*
X47281110Y41768513D01*
X46990000Y41797185D01*
X46698889Y41768513D01*
X46418966Y41683599D01*
X46160986Y41545706D01*
X45934866Y41360134D01*
X45749294Y41134013D01*
X45720000Y41079208D01*
X45690706Y41134014D01*
X45505134Y41360134D01*
X45279013Y41545706D01*
X45021033Y41683599D01*
X44741110Y41768513D01*
X44450000Y41797185D01*
X44158889Y41768513D01*
X43878966Y41683599D01*
X43620986Y41545706D01*
X43394866Y41360134D01*
X43209294Y41134013D01*
X43180000Y41079208D01*
X43150706Y41134014D01*
X42965134Y41360134D01*
X42739013Y41545706D01*
X42481033Y41683599D01*
X42381448Y41713808D01*
X42637095Y41819701D01*
X42888505Y41987688D01*
X43102312Y42201495D01*
X43270299Y42452905D01*
X43386011Y42732257D01*
X43445000Y43028816D01*
X43445000Y43331184D01*
X43386011Y43627743D01*
X43270299Y43907095D01*
X43102312Y44158505D01*
X42888505Y44372312D01*
X42637095Y44540299D01*
X42357743Y44656011D01*
X42061184Y44715000D01*
X41758816Y44715000D01*
X41462257Y44656011D01*
X41182905Y44540299D01*
X40931495Y44372312D01*
X40717688Y44158505D01*
X40549701Y43907095D01*
X40433989Y43627743D01*
X40375000Y43331184D01*
X40375000Y43028816D01*
X40433989Y42732257D01*
X40549701Y42452905D01*
X40717688Y42201495D01*
X40931495Y41987688D01*
X41182905Y41819701D01*
X41438552Y41713808D01*
X41338966Y41683599D01*
X41080986Y41545706D01*
X40854866Y41360134D01*
X40669294Y41134013D01*
X40640000Y41079208D01*
X40610706Y41134014D01*
X40425134Y41360134D01*
X40199013Y41545706D01*
X39941033Y41683599D01*
X39661110Y41768513D01*
X39370000Y41797185D01*
X39078889Y41768513D01*
X38798966Y41683599D01*
X38540986Y41545706D01*
X38314866Y41360134D01*
X38129294Y41134013D01*
X38100000Y41079208D01*
X38070706Y41134014D01*
X37885134Y41360134D01*
X37659013Y41545706D01*
X37401033Y41683599D01*
X37121110Y41768513D01*
X36830000Y41797185D01*
X36538889Y41768513D01*
X36258966Y41683599D01*
X36000986Y41545706D01*
X35774866Y41360134D01*
X35589294Y41134013D01*
X35560000Y41079208D01*
X35530706Y41134014D01*
X35345134Y41360134D01*
X35119013Y41545706D01*
X34861033Y41683599D01*
X34581110Y41768513D01*
X34290000Y41797185D01*
X33998889Y41768513D01*
X33718966Y41683599D01*
X33460986Y41545706D01*
X33234866Y41360134D01*
X33049294Y41134013D01*
X33020000Y41079208D01*
X32990706Y41134014D01*
X32805134Y41360134D01*
X32579013Y41545706D01*
X32321033Y41683599D01*
X32041110Y41768513D01*
X31750000Y41797185D01*
X31458889Y41768513D01*
X31178966Y41683599D01*
X30920986Y41545706D01*
X30694866Y41360134D01*
X30509294Y41134013D01*
X30480000Y41079208D01*
X30450706Y41134014D01*
X30265134Y41360134D01*
X30039013Y41545706D01*
X29781033Y41683599D01*
X29501110Y41768513D01*
X29210000Y41797185D01*
X28918889Y41768513D01*
X28638966Y41683599D01*
X28380986Y41545706D01*
X28154866Y41360134D01*
X28093886Y41285830D01*
X28059502Y41399180D01*
X28000537Y41509494D01*
X27921185Y41606185D01*
X27824494Y41685537D01*
X27714180Y41744502D01*
X27594482Y41780812D01*
X27470000Y41793072D01*
X25870000Y41793072D01*
X25745518Y41780812D01*
X25625820Y41744502D01*
X25515506Y41685537D01*
X25418815Y41606185D01*
X25339463Y41509494D01*
X25280498Y41399180D01*
X25244188Y41279482D01*
X25231928Y41155000D01*
X25231928Y38855000D01*
X25244188Y38730518D01*
X25280498Y38610820D01*
X25339463Y38500506D01*
X25418815Y38403815D01*
X25515506Y38324463D01*
X25625820Y38265498D01*
X25635000Y38262713D01*
X25635001Y37595853D01*
X25471068Y37396100D01*
X25400000Y37263142D01*
X25328932Y37396101D01*
X25149607Y37614608D01*
X24931100Y37793932D01*
X24681807Y37927182D01*
X24411308Y38009236D01*
X24130000Y38036943D01*
X23848691Y38009236D01*
X23578192Y37927182D01*
X23328899Y37793932D01*
X23110392Y37614607D01*
X22931068Y37396100D01*
X22797818Y37146807D01*
X22792720Y37130000D01*
X21138725Y37130000D01*
X21040134Y37250134D01*
X20814014Y37435706D01*
X20759209Y37465000D01*
X20814014Y37494294D01*
X21040134Y37679866D01*
X21225706Y37905986D01*
X21363599Y38163966D01*
X21448513Y38443889D01*
X21477185Y38735000D01*
X21448513Y39026111D01*
X21363599Y39306034D01*
X21225706Y39564014D01*
X21040134Y39790134D01*
X20814014Y39975706D01*
X20759209Y40005000D01*
X20814014Y40034294D01*
X21040134Y40219866D01*
X21225706Y40445986D01*
X21363599Y40703966D01*
X21448513Y40983889D01*
X21477185Y41275000D01*
X21448513Y41566111D01*
X21363599Y41846034D01*
X21225706Y42104014D01*
X21040134Y42330134D01*
X20814014Y42515706D01*
X20556034Y42653599D01*
X20276111Y42738513D01*
X20057950Y42760000D01*
X19312050Y42760000D01*
X19093889Y42738513D01*
X18813966Y42653599D01*
X18555986Y42515706D01*
X18329866Y42330134D01*
X18144294Y42104014D01*
X18006401Y41846034D01*
X17921487Y41566111D01*
X17892815Y41275000D01*
X17921487Y40983889D01*
X18006401Y40703966D01*
X18144294Y40445986D01*
X18329866Y40219866D01*
X18555986Y40034294D01*
X18610791Y40005000D01*
X18555986Y39975706D01*
X18329866Y39790134D01*
X18149207Y39570000D01*
X17186015Y39570000D01*
X17144999Y39574040D01*
X17103983Y39570000D01*
X17103981Y39570000D01*
X16981311Y39557918D01*
X16823913Y39510172D01*
X16678854Y39432636D01*
X16551709Y39328291D01*
X16525558Y39296426D01*
X15529133Y38300000D01*
X14854012Y38300000D01*
X14855367Y38303182D01*
X14872904Y38385961D01*
X14750915Y38608000D01*
X13208000Y38608000D01*
X13208000Y38588000D01*
X12954000Y38588000D01*
X12954000Y38608000D01*
X11411085Y38608000D01*
X11289096Y38385961D01*
X11306633Y38303182D01*
X11307988Y38300000D01*
X10836015Y38300000D01*
X10794999Y38304040D01*
X10753983Y38300000D01*
X10753981Y38300000D01*
X10631311Y38287918D01*
X10473913Y38240172D01*
X10328854Y38162636D01*
X10201709Y38058291D01*
X10175561Y38026429D01*
X9179133Y37030000D01*
X7032112Y37030000D01*
X6880608Y37214608D01*
X6662101Y37393932D01*
X6529142Y37465000D01*
X6662101Y37536068D01*
X6880608Y37715392D01*
X7059932Y37933899D01*
X7193182Y38183192D01*
X7275236Y38453691D01*
X7302943Y38735000D01*
X7275236Y39016309D01*
X7254691Y39084039D01*
X11289096Y39084039D01*
X11411085Y38862000D01*
X12954000Y38862000D01*
X12954000Y40170000D01*
X13208000Y40170000D01*
X13208000Y38862000D01*
X14750915Y38862000D01*
X14872904Y39084039D01*
X14855367Y39166818D01*
X14744715Y39426646D01*
X14585500Y39659895D01*
X14383839Y39857601D01*
X14147483Y40012166D01*
X13885514Y40117650D01*
X13608000Y40170000D01*
X13208000Y40170000D01*
X12954000Y40170000D01*
X12554000Y40170000D01*
X12276486Y40117650D01*
X12014517Y40012166D01*
X11778161Y39857601D01*
X11576500Y39659895D01*
X11417285Y39426646D01*
X11306633Y39166818D01*
X11289096Y39084039D01*
X7254691Y39084039D01*
X7193182Y39286808D01*
X7059932Y39536101D01*
X6880608Y39754608D01*
X6662101Y39933932D01*
X6412808Y40067182D01*
X6142309Y40149236D01*
X5931492Y40170000D01*
X4990508Y40170000D01*
X4779691Y40149236D01*
X4509192Y40067182D01*
X4259899Y39933932D01*
X4041392Y39754608D01*
X3862068Y39536101D01*
X3728818Y39286808D01*
X3646764Y39016309D01*
X3619057Y38735000D01*
X660000Y38735000D01*
X660000Y42950184D01*
X5022000Y42950184D01*
X5022000Y42647816D01*
X5080989Y42351257D01*
X5196701Y42071905D01*
X5364688Y41820495D01*
X5578495Y41606688D01*
X5829905Y41438701D01*
X6109257Y41322989D01*
X6405816Y41264000D01*
X6708184Y41264000D01*
X7004743Y41322989D01*
X7284095Y41438701D01*
X7535505Y41606688D01*
X7663737Y41734920D01*
X10672525Y41734920D01*
X10756208Y41480739D01*
X11028775Y41349842D01*
X11321642Y41274635D01*
X11623553Y41258009D01*
X11922907Y41300603D01*
X12208199Y41400778D01*
X12357792Y41480739D01*
X12441475Y41734920D01*
X11557000Y42619395D01*
X10672525Y41734920D01*
X7663737Y41734920D01*
X7749312Y41820495D01*
X7917299Y42071905D01*
X8033011Y42351257D01*
X8092000Y42647816D01*
X8092000Y42732447D01*
X10016009Y42732447D01*
X10058603Y42433093D01*
X10158778Y42147801D01*
X10238739Y41998208D01*
X10492920Y41914525D01*
X11377395Y42799000D01*
X11736605Y42799000D01*
X12621080Y41914525D01*
X12875261Y41998208D01*
X13006158Y42270775D01*
X13081365Y42563642D01*
X13097991Y42865553D01*
X13055397Y43164907D01*
X12955222Y43450199D01*
X12875261Y43599792D01*
X12621080Y43683475D01*
X11736605Y42799000D01*
X11377395Y42799000D01*
X10492920Y43683475D01*
X10238739Y43599792D01*
X10107842Y43327225D01*
X10032635Y43034358D01*
X10016009Y42732447D01*
X8092000Y42732447D01*
X8092000Y42950184D01*
X8033011Y43246743D01*
X7917299Y43526095D01*
X7749312Y43777505D01*
X7663737Y43863080D01*
X10672525Y43863080D01*
X11557000Y42978605D01*
X12441475Y43863080D01*
X12357792Y44117261D01*
X12085225Y44248158D01*
X11792358Y44323365D01*
X11490447Y44339991D01*
X11191093Y44297397D01*
X10905801Y44197222D01*
X10756208Y44117261D01*
X10672525Y43863080D01*
X7663737Y43863080D01*
X7535505Y43991312D01*
X7284095Y44159299D01*
X7004743Y44275011D01*
X6708184Y44334000D01*
X6405816Y44334000D01*
X6109257Y44275011D01*
X5829905Y44159299D01*
X5578495Y43991312D01*
X5364688Y43777505D01*
X5196701Y43526095D01*
X5080989Y43246743D01*
X5022000Y42950184D01*
X660000Y42950184D01*
X660000Y48870000D01*
X75540001Y48870000D01*
X75540000Y660000D01*
G37*
%TD.AperFunction*%
%TD*%
M02*
