%TF.GenerationSoftware,KiCad,Pcbnew,(5.1.12)-1*%
%TF.CreationDate,2022-12-03T13:40:17+01:00*%
%TF.ProjectId,RTC,5254432e-6b69-4636-9164-5f7063625858,1.0*%
%TF.SameCoordinates,PX6d01460PY60e4b00*%
%TF.FileFunction,Copper,L1,Top*%
%TF.FilePolarity,Positive*%
%FSLAX46Y46*%
G04 Gerber Fmt 4.6, Leading zero omitted, Abs format (unit mm)*
G04 Created by KiCad (PCBNEW (5.1.12)-1) date 2022-12-03 13:40:17*
%MOMM*%
%LPD*%
G01*
G04 APERTURE LIST*
%TA.AperFunction,ComponentPad*%
%ADD10O,1.600000X1.600000*%
%TD*%
%TA.AperFunction,ComponentPad*%
%ADD11R,1.600000X1.600000*%
%TD*%
%TA.AperFunction,ComponentPad*%
%ADD12C,2.500000*%
%TD*%
%TA.AperFunction,SMDPad,CuDef*%
%ADD13R,2.600000X3.540000*%
%TD*%
%TA.AperFunction,SMDPad,CuDef*%
%ADD14R,2.600000X3.660000*%
%TD*%
%TA.AperFunction,ComponentPad*%
%ADD15O,2.400000X1.600000*%
%TD*%
%TA.AperFunction,ComponentPad*%
%ADD16R,2.400000X1.600000*%
%TD*%
%TA.AperFunction,ComponentPad*%
%ADD17O,1.600000X2.400000*%
%TD*%
%TA.AperFunction,ComponentPad*%
%ADD18R,1.600000X2.400000*%
%TD*%
%TA.AperFunction,ComponentPad*%
%ADD19R,1.500000X1.500000*%
%TD*%
%TA.AperFunction,SMDPad,CuDef*%
%ADD20R,10.500000X3.200000*%
%TD*%
%TA.AperFunction,ComponentPad*%
%ADD21C,1.800000*%
%TD*%
%TA.AperFunction,ComponentPad*%
%ADD22O,1.700000X2.300000*%
%TD*%
%TA.AperFunction,ComponentPad*%
%ADD23R,1.600000X2.300000*%
%TD*%
%TA.AperFunction,ComponentPad*%
%ADD24O,2.300000X1.700000*%
%TD*%
%TA.AperFunction,ComponentPad*%
%ADD25R,2.300000X1.600000*%
%TD*%
%TA.AperFunction,ComponentPad*%
%ADD26O,1.800000X1.800000*%
%TD*%
%TA.AperFunction,ComponentPad*%
%ADD27R,1.700000X2.300000*%
%TD*%
%TA.AperFunction,ComponentPad*%
%ADD28C,1.600000*%
%TD*%
%TA.AperFunction,ComponentPad*%
%ADD29C,1.700000*%
%TD*%
%TA.AperFunction,ViaPad*%
%ADD30C,1.300000*%
%TD*%
%TA.AperFunction,Conductor*%
%ADD31C,0.800000*%
%TD*%
%TA.AperFunction,Conductor*%
%ADD32C,0.600000*%
%TD*%
%TA.AperFunction,Conductor*%
%ADD33C,0.400000*%
%TD*%
G04 APERTURE END LIST*
D10*
%TO.P,D1,2*%
%TO.N,/~IOCTRL*%
X36703000Y16002000D03*
D11*
%TO.P,D1,1*%
%TO.N,Net-(D1-Pad1)*%
X29083000Y16002000D03*
%TD*%
D12*
%TO.P,C5,1*%
%TO.N,Net-(C5-Pad1)*%
X67310000Y13335000D03*
%TO.P,C5,2*%
%TO.N,Net-(C5-Pad2)*%
X67310000Y18415000D03*
%TD*%
D13*
%TO.P,BT1,1*%
%TO.N,VCC*%
X64770000Y29235000D03*
D14*
%TO.P,BT1,2*%
%TO.N,Net-(BT1-Pad2)*%
X64770000Y45035000D03*
%TD*%
D15*
%TO.P,U2,20*%
%TO.N,VCC*%
X5461000Y15875000D03*
%TO.P,U2,10*%
%TO.N,GND*%
X13081000Y38735000D03*
%TO.P,U2,19*%
%TO.N,/PHI2*%
X5461000Y18415000D03*
%TO.P,U2,9*%
%TO.N,/A0*%
X13081000Y36195000D03*
%TO.P,U2,18*%
%TO.N,Net-(U2-Pad18)*%
X5461000Y20955000D03*
%TO.P,U2,8*%
%TO.N,/A1*%
X13081000Y33655000D03*
%TO.P,U2,17*%
%TO.N,Net-(D1-Pad1)*%
X5461000Y23495000D03*
%TO.P,U2,7*%
%TO.N,/A2*%
X13081000Y31115000D03*
%TO.P,U2,16*%
%TO.N,Net-(U2-Pad16)*%
X5461000Y26035000D03*
%TO.P,U2,6*%
%TO.N,/A3*%
X13081000Y28575000D03*
%TO.P,U2,15*%
%TO.N,Net-(U2-Pad15)*%
X5461000Y28575000D03*
%TO.P,U2,5*%
%TO.N,/A4*%
X13081000Y26035000D03*
%TO.P,U2,14*%
%TO.N,/~W_RTC*%
X5461000Y31115000D03*
%TO.P,U2,4*%
%TO.N,/A5*%
X13081000Y23495000D03*
%TO.P,U2,13*%
%TO.N,/~R_RTC*%
X5461000Y33655000D03*
%TO.P,U2,3*%
%TO.N,/A6*%
X13081000Y20955000D03*
%TO.P,U2,12*%
%TO.N,/~CSRTC*%
X5461000Y36195000D03*
%TO.P,U2,2*%
%TO.N,/A7*%
X13081000Y18415000D03*
%TO.P,U2,11*%
%TO.N,/R_~W*%
X5461000Y38735000D03*
D16*
%TO.P,U2,1*%
%TO.N,/~IO*%
X13081000Y15875000D03*
%TD*%
D17*
%TO.P,U1,24*%
%TO.N,/~R_RTC*%
X24130000Y36195000D03*
%TO.P,U1,12*%
%TO.N,Net-(JP1-Pad1)*%
X52070000Y20955000D03*
%TO.P,U1,23*%
%TO.N,VCC*%
X26670000Y36195000D03*
%TO.P,U1,11*%
%TO.N,GND*%
X49530000Y20955000D03*
%TO.P,U1,22*%
%TO.N,/D7*%
X29210000Y36195000D03*
%TO.P,U1,10*%
%TO.N,Net-(C3-Pad2)*%
X46990000Y20955000D03*
%TO.P,U1,21*%
%TO.N,/D6*%
X31750000Y36195000D03*
%TO.P,U1,9*%
%TO.N,Net-(C5-Pad1)*%
X44450000Y20955000D03*
%TO.P,U1,20*%
%TO.N,/D5*%
X34290000Y36195000D03*
%TO.P,U1,8*%
%TO.N,/A0*%
X41910000Y20955000D03*
%TO.P,U1,19*%
%TO.N,/D4*%
X36830000Y36195000D03*
%TO.P,U1,7*%
%TO.N,/A1*%
X39370000Y20955000D03*
%TO.P,U1,18*%
%TO.N,/D3*%
X39370000Y36195000D03*
%TO.P,U1,6*%
%TO.N,/A2*%
X36830000Y20955000D03*
%TO.P,U1,17*%
%TO.N,/D2*%
X41910000Y36195000D03*
%TO.P,U1,5*%
%TO.N,/A3*%
X34290000Y20955000D03*
%TO.P,U1,16*%
%TO.N,/D1*%
X44450000Y36195000D03*
%TO.P,U1,4*%
%TO.N,/A4*%
X31750000Y20955000D03*
%TO.P,U1,15*%
%TO.N,/D0*%
X46990000Y36195000D03*
%TO.P,U1,3*%
%TO.N,/~CSRTC*%
X29210000Y20955000D03*
%TO.P,U1,14*%
%TO.N,VMEM*%
X49530000Y36195000D03*
%TO.P,U1,2*%
%TO.N,VCC*%
X26670000Y20955000D03*
%TO.P,U1,13*%
%TO.N,GND*%
X52070000Y36195000D03*
D18*
%TO.P,U1,1*%
%TO.N,/~W_RTC*%
X24130000Y20955000D03*
%TD*%
D19*
%TO.P,Y1,3*%
%TO.N,N/C*%
X65405000Y24860000D03*
X65405000Y20860000D03*
D20*
X65405000Y22860000D03*
D21*
%TO.P,Y1,2*%
%TO.N,Net-(C3-Pad2)*%
X56655000Y24130000D03*
%TO.P,Y1,1*%
%TO.N,Net-(C5-Pad2)*%
X56655000Y21590000D03*
%TD*%
D22*
%TO.P,RN2,9*%
%TO.N,/D0*%
X46990000Y40005000D03*
%TO.P,RN2,8*%
%TO.N,/D1*%
X44450000Y40005000D03*
%TO.P,RN2,7*%
%TO.N,/D2*%
X41910000Y40005000D03*
%TO.P,RN2,6*%
%TO.N,/D3*%
X39370000Y40005000D03*
%TO.P,RN2,5*%
%TO.N,/D4*%
X36830000Y40005000D03*
%TO.P,RN2,4*%
%TO.N,/D5*%
X34290000Y40005000D03*
%TO.P,RN2,3*%
%TO.N,/D6*%
X31750000Y40005000D03*
%TO.P,RN2,2*%
%TO.N,/D7*%
X29210000Y40005000D03*
D23*
%TO.P,RN2,1*%
%TO.N,VCC*%
X26670000Y40005000D03*
%TD*%
D24*
%TO.P,RN1,5*%
%TO.N,Net-(RN1-Pad5)*%
X19685000Y41275000D03*
%TO.P,RN1,4*%
%TO.N,/~CSRTC*%
X19685000Y38735000D03*
%TO.P,RN1,3*%
%TO.N,/~R_RTC*%
X19685000Y36195000D03*
%TO.P,RN1,2*%
%TO.N,/~W_RTC*%
X19685000Y33655000D03*
D25*
%TO.P,RN1,1*%
%TO.N,VCC*%
X19685000Y31115000D03*
%TD*%
D26*
%TO.P,R1,2*%
%TO.N,VMEM*%
X49530000Y43180000D03*
D21*
%TO.P,R1,1*%
%TO.N,Net-(BT1-Pad2)*%
X41910000Y43180000D03*
%TD*%
D27*
%TO.P,JP1,2*%
%TO.N,/~IRQ*%
X49530000Y13335000D03*
%TO.P,JP1,1*%
%TO.N,Net-(JP1-Pad1)*%
X52070000Y13335000D03*
%TD*%
D21*
%TO.P,C6,2*%
%TO.N,Net-(C5-Pad1)*%
X57865000Y14605000D03*
%TO.P,C6,1*%
%TO.N,VCC*%
X62865000Y14605000D03*
%TD*%
%TO.P,C3,2*%
%TO.N,Net-(C3-Pad2)*%
X57865000Y17780000D03*
%TO.P,C3,1*%
%TO.N,VCC*%
X62865000Y17780000D03*
%TD*%
%TO.P,C2,2*%
%TO.N,VCC*%
X6557000Y42799000D03*
%TO.P,C2,1*%
%TO.N,GND*%
X11557000Y42799000D03*
%TD*%
D28*
%TO.P,C1,2*%
%TO.N,GND*%
X19050000Y11843000D03*
D11*
%TO.P,C1,1*%
%TO.N,VCC*%
X19050000Y13843000D03*
%TD*%
D29*
%TO.P,J1,34*%
%TO.N,GND*%
X17780000Y3175000D03*
%TO.P,J1,32*%
%TO.N,/A11*%
X20320000Y3175000D03*
%TO.P,J1,30*%
%TO.N,/A12*%
X22860000Y3175000D03*
%TO.P,J1,28*%
%TO.N,/A13*%
X25400000Y3175000D03*
%TO.P,J1,26*%
%TO.N,/A14*%
X27940000Y3175000D03*
%TO.P,J1,24*%
%TO.N,/A15*%
X30480000Y3175000D03*
%TO.P,J1,22*%
%TO.N,/D7*%
X33020000Y3175000D03*
%TO.P,J1,20*%
%TO.N,/A4*%
X35560000Y3175000D03*
%TO.P,J1,18*%
%TO.N,/D4*%
X38100000Y3175000D03*
%TO.P,J1,16*%
%TO.N,/D3*%
X40640000Y3175000D03*
%TO.P,J1,14*%
%TO.N,/D6*%
X43180000Y3175000D03*
%TO.P,J1,12*%
%TO.N,/D1*%
X45720000Y3175000D03*
%TO.P,J1,10*%
%TO.N,/D0*%
X48260000Y3175000D03*
%TO.P,J1,8*%
%TO.N,/~IRQ*%
X50800000Y3175000D03*
%TO.P,J1,6*%
%TO.N,/~IOCTRL*%
X53340000Y3175000D03*
%TO.P,J1,4*%
%TO.N,/~RESET*%
X55880000Y3175000D03*
%TO.P,J1,2*%
%TO.N,/~ROMDIS*%
X58420000Y3175000D03*
%TO.P,J1,33*%
%TO.N,VCC*%
X17780000Y5715000D03*
%TO.P,J1,31*%
%TO.N,/A10*%
X20320000Y5715000D03*
%TO.P,J1,29*%
%TO.N,/A9*%
X22860000Y5715000D03*
%TO.P,J1,27*%
%TO.N,/A8*%
X25400000Y5715000D03*
%TO.P,J1,25*%
%TO.N,/A7*%
X27940000Y5715000D03*
%TO.P,J1,23*%
%TO.N,/A6*%
X30480000Y5715000D03*
%TO.P,J1,21*%
%TO.N,/A5*%
X33020000Y5715000D03*
%TO.P,J1,19*%
%TO.N,/D5*%
X35560000Y5715000D03*
%TO.P,J1,17*%
%TO.N,/A2*%
X38100000Y5715000D03*
%TO.P,J1,15*%
%TO.N,/A1*%
X40640000Y5715000D03*
%TO.P,J1,13*%
%TO.N,/A0*%
X43180000Y5715000D03*
%TO.P,J1,11*%
%TO.N,/A3*%
X45720000Y5715000D03*
%TO.P,J1,9*%
%TO.N,/D2*%
X48260000Y5715000D03*
%TO.P,J1,7*%
%TO.N,/R_~W*%
X50800000Y5715000D03*
%TO.P,J1,5*%
%TO.N,/~IO*%
X53340000Y5715000D03*
%TO.P,J1,3*%
%TO.N,/PHI2*%
X55880000Y5715000D03*
%TO.P,J1,1*%
%TO.N,/~MAP*%
%TA.AperFunction,ComponentPad*%
G36*
G01*
X57820000Y6565000D02*
X59020000Y6565000D01*
G75*
G02*
X59270000Y6315000I0J-250000D01*
G01*
X59270000Y5115000D01*
G75*
G02*
X59020000Y4865000I-250000J0D01*
G01*
X57820000Y4865000D01*
G75*
G02*
X57570000Y5115000I0J250000D01*
G01*
X57570000Y6315000D01*
G75*
G02*
X57820000Y6565000I250000J0D01*
G01*
G37*
%TD.AperFunction*%
%TD*%
D30*
%TO.N,VCC*%
X26670000Y12065000D03*
%TO.N,/D2*%
X48260000Y31115000D03*
%TO.N,/D6*%
X40640000Y32512000D03*
%TO.N,/D7*%
X30480000Y11938000D03*
%TO.N,/A3*%
X35179000Y10922000D03*
%TO.N,/R_~W*%
X51816000Y25781000D03*
%TO.N,/~CSRTC*%
X29210000Y31877000D03*
%TD*%
D31*
%TO.N,VCC*%
X17780000Y5715000D02*
X17780000Y8255000D01*
X17780000Y8255000D02*
X16764000Y9271000D01*
X16764000Y9271000D02*
X8255000Y9271000D01*
X5461000Y12065000D02*
X5461000Y15875000D01*
X8255000Y9271000D02*
X5461000Y12065000D01*
X6557000Y42799000D02*
X4445000Y42799000D01*
X4445000Y42799000D02*
X1905000Y40259000D01*
X1905000Y40259000D02*
X1905000Y17145000D01*
X3175000Y15875000D02*
X5461000Y15875000D01*
X1905000Y17145000D02*
X3175000Y15875000D01*
X64770000Y29235000D02*
X71476000Y29235000D01*
X71476000Y29235000D02*
X73152000Y27559000D01*
X22860000Y8255000D02*
X17780000Y8255000D01*
X26670000Y12065000D02*
X22860000Y8255000D01*
X73152000Y27559000D02*
X73152000Y17653000D01*
X73152000Y17653000D02*
X71374000Y15875000D01*
D32*
X69215000Y15875000D02*
X64135000Y15875000D01*
D31*
X71374000Y15875000D02*
X69215000Y15875000D01*
X64135000Y15875000D02*
X62865000Y14605000D01*
X71374000Y15875000D02*
X64135000Y15875000D01*
X62865000Y12700000D02*
X62865000Y14605000D01*
X48133000Y10541000D02*
X60706000Y10541000D01*
X40894000Y17780000D02*
X48133000Y10541000D01*
X27559000Y17780000D02*
X40894000Y17780000D01*
X26670000Y18669000D02*
X27559000Y17780000D01*
X60706000Y10541000D02*
X62865000Y12700000D01*
X26670000Y20955000D02*
X26670000Y18669000D01*
D33*
%TO.N,/D2*%
X48260000Y31115000D02*
X44958000Y31115000D01*
X41910000Y34163000D02*
X41910000Y36195000D01*
X44958000Y31115000D02*
X41910000Y34163000D01*
%TO.N,/D6*%
X40640000Y32512000D02*
X32639000Y32512000D01*
X31750000Y33401000D02*
X31750000Y36195000D01*
X32639000Y32512000D02*
X31750000Y33401000D01*
%TO.N,/D7*%
X31730001Y4464999D02*
X31730001Y10687999D01*
X31730001Y10687999D02*
X30480000Y11938000D01*
X33020000Y3175000D02*
X31730001Y4464999D01*
%TO.N,/A0*%
X13081000Y36195000D02*
X13335000Y36195000D01*
D32*
X13081000Y36195000D02*
X15875000Y36195000D01*
X15875000Y36195000D02*
X17399000Y34671000D01*
X17399000Y34671000D02*
X17399000Y30480000D01*
X17399000Y30480000D02*
X19431000Y28448000D01*
X19431000Y28448000D02*
X39497000Y28448000D01*
X41910000Y26035000D02*
X41910000Y20955000D01*
X39497000Y28448000D02*
X41910000Y26035000D01*
%TO.N,/A1*%
X14605000Y33655000D02*
X13081000Y33655000D01*
X15875000Y32385000D02*
X14605000Y33655000D01*
X15875000Y30353000D02*
X15875000Y32385000D01*
X18923000Y27305000D02*
X15875000Y30353000D01*
X36195000Y27305000D02*
X18923000Y27305000D01*
X39370000Y24130000D02*
X36195000Y27305000D01*
X39370000Y20955000D02*
X39370000Y24130000D01*
%TO.N,/A2*%
X13462000Y31115000D02*
X13081000Y31115000D01*
X18542000Y26035000D02*
X13462000Y31115000D01*
X34290000Y26035000D02*
X18542000Y26035000D01*
X36830000Y23495000D02*
X34290000Y26035000D01*
X36830000Y20955000D02*
X36830000Y23495000D01*
%TO.N,/A3*%
X34290000Y22860000D02*
X34290000Y20955000D01*
X32385000Y24765000D02*
X34290000Y22860000D01*
X17907000Y24765000D02*
X32385000Y24765000D01*
X14097000Y28575000D02*
X17907000Y24765000D01*
X13081000Y28575000D02*
X14097000Y28575000D01*
D33*
X45720000Y5969000D02*
X45720000Y5715000D01*
X40894000Y10795000D02*
X45720000Y5969000D01*
X35306000Y10795000D02*
X40894000Y10795000D01*
X35179000Y10922000D02*
X35306000Y10795000D01*
D32*
%TO.N,/A4*%
X31750000Y22860000D02*
X31750000Y20955000D01*
X31115000Y23495000D02*
X31750000Y22860000D01*
X17399000Y23495000D02*
X31115000Y23495000D01*
X14859000Y26035000D02*
X17399000Y23495000D01*
X13081000Y26035000D02*
X14859000Y26035000D01*
%TO.N,Net-(C3-Pad2)*%
X46990000Y19685000D02*
X46990000Y20955000D01*
X48895000Y17780000D02*
X46990000Y19685000D01*
X53975000Y17780000D02*
X57865000Y17780000D01*
X56595000Y17780000D02*
X53975000Y17780000D01*
X53975000Y17780000D02*
X48895000Y17780000D01*
%TO.N,Net-(C5-Pad1)*%
X54610000Y14605000D02*
X56515000Y14605000D01*
X52705000Y16510000D02*
X54610000Y14605000D01*
X46990000Y16510000D02*
X52705000Y16510000D01*
X44450000Y19050000D02*
X46990000Y16510000D01*
X44450000Y20955000D02*
X44450000Y19050000D01*
X54610000Y14605000D02*
X57865000Y14605000D01*
D33*
%TO.N,/~IOCTRL*%
X57150000Y4953000D02*
X56642000Y4445000D01*
X56642000Y4445000D02*
X54610000Y4445000D01*
X57150000Y7620000D02*
X57150000Y4953000D01*
X55118000Y9652000D02*
X57150000Y7620000D01*
X47117000Y9652000D02*
X55118000Y9652000D01*
X54610000Y4445000D02*
X53340000Y3175000D01*
X40767000Y16002000D02*
X47117000Y9652000D01*
X36703000Y16002000D02*
X40767000Y16002000D01*
%TO.N,/R_~W*%
X8763000Y38735000D02*
X5461000Y38735000D01*
X10033000Y37465000D02*
X8763000Y38735000D01*
X16002000Y37465000D02*
X10033000Y37465000D01*
X18542000Y34925000D02*
X16002000Y37465000D01*
X21082000Y34925000D02*
X18542000Y34925000D01*
X26035000Y29972000D02*
X21082000Y34925000D01*
X41910000Y29972000D02*
X26035000Y29972000D01*
X44196000Y27686000D02*
X41910000Y29972000D01*
X49911000Y27686000D02*
X44196000Y27686000D01*
X51816000Y25781000D02*
X49911000Y27686000D01*
%TO.N,/~IO*%
X53340000Y6985000D02*
X53340000Y5715000D01*
X52324000Y8001000D02*
X53340000Y6985000D01*
X45593000Y8001000D02*
X52324000Y8001000D01*
X40386000Y13208000D02*
X45593000Y8001000D01*
X24511000Y13208000D02*
X40386000Y13208000D01*
X21082000Y16637000D02*
X24511000Y13208000D01*
X15875000Y16637000D02*
X21082000Y16637000D01*
X15113000Y15875000D02*
X15875000Y16637000D01*
X13081000Y15875000D02*
X15113000Y15875000D01*
%TO.N,/PHI2*%
X55880000Y7620000D02*
X55880000Y5715000D01*
X54610000Y8890000D02*
X55880000Y7620000D01*
X46101000Y8890000D02*
X54610000Y8890000D01*
X40894000Y14097000D02*
X46101000Y8890000D01*
X25146000Y14097000D02*
X40894000Y14097000D01*
X19558000Y19685000D02*
X25146000Y14097000D01*
X8128000Y18415000D02*
X9398000Y19685000D01*
X9398000Y19685000D02*
X19558000Y19685000D01*
X5461000Y18415000D02*
X8128000Y18415000D01*
D32*
%TO.N,Net-(BT1-Pad2)*%
X43765000Y45035000D02*
X41910000Y43180000D01*
X64770000Y45035000D02*
X43765000Y45035000D01*
D33*
%TO.N,/~CSRTC*%
X19685000Y38735000D02*
X21082000Y38735000D01*
X21082000Y38735000D02*
X22098000Y37719000D01*
X22098000Y37719000D02*
X22098000Y34925000D01*
X25146000Y31877000D02*
X29210000Y31877000D01*
X22098000Y34925000D02*
X25146000Y31877000D01*
%TO.N,Net-(D1-Pad1)*%
X8001000Y23495000D02*
X5461000Y23495000D01*
X9271000Y22225000D02*
X8001000Y23495000D01*
X18923000Y22225000D02*
X9271000Y22225000D01*
X25146000Y16002000D02*
X29083000Y16002000D01*
X18923000Y22225000D02*
X25146000Y16002000D01*
%TD*%
M02*
