%TF.GenerationSoftware,KiCad,Pcbnew,(5.1.12)-1*%
%TF.CreationDate,2022-12-04T09:13:40+01:00*%
%TF.ProjectId,RTC,5254432e-6b69-4636-9164-5f7063625858,1.0*%
%TF.SameCoordinates,PX6d01460PY60e4b00*%
%TF.FileFunction,Soldermask,Bot*%
%TF.FilePolarity,Negative*%
%FSLAX46Y46*%
G04 Gerber Fmt 4.6, Leading zero omitted, Abs format (unit mm)*
G04 Created by KiCad (PCBNEW (5.1.12)-1) date 2022-12-04 09:13:40*
%MOMM*%
%LPD*%
G01*
G04 APERTURE LIST*
%ADD10O,1.600000X1.600000*%
%ADD11R,1.600000X1.600000*%
%ADD12C,2.500000*%
%ADD13C,1.300000*%
%ADD14C,1.000000*%
%ADD15O,2.400000X1.600000*%
%ADD16R,2.400000X1.600000*%
%ADD17O,1.600000X2.400000*%
%ADD18R,1.600000X2.400000*%
%ADD19R,1.500000X1.500000*%
%ADD20C,1.800000*%
%ADD21O,1.700000X2.300000*%
%ADD22R,1.600000X2.300000*%
%ADD23O,2.300000X1.700000*%
%ADD24R,2.300000X1.600000*%
%ADD25O,1.800000X1.800000*%
%ADD26R,1.700000X2.300000*%
%ADD27C,1.600000*%
%ADD28C,1.700000*%
G04 APERTURE END LIST*
D10*
%TO.C,D1*%
X36703000Y16002000D03*
D11*
X29083000Y16002000D03*
%TD*%
D12*
%TO.C,C5*%
X67310000Y13335000D03*
X67310000Y18415000D03*
%TD*%
D13*
%TO.C,BT1*%
X64770000Y33465000D03*
D14*
X64770000Y40965000D03*
%TD*%
D15*
%TO.C,U2*%
X5461000Y15875000D03*
X13081000Y38735000D03*
X5461000Y18415000D03*
X13081000Y36195000D03*
X5461000Y20955000D03*
X13081000Y33655000D03*
X5461000Y23495000D03*
X13081000Y31115000D03*
X5461000Y26035000D03*
X13081000Y28575000D03*
X5461000Y28575000D03*
X13081000Y26035000D03*
X5461000Y31115000D03*
X13081000Y23495000D03*
X5461000Y33655000D03*
X13081000Y20955000D03*
X5461000Y36195000D03*
X13081000Y18415000D03*
X5461000Y38735000D03*
D16*
X13081000Y15875000D03*
%TD*%
D17*
%TO.C,U1*%
X24130000Y36195000D03*
X52070000Y20955000D03*
X26670000Y36195000D03*
X49530000Y20955000D03*
X29210000Y36195000D03*
X46990000Y20955000D03*
X31750000Y36195000D03*
X44450000Y20955000D03*
X34290000Y36195000D03*
X41910000Y20955000D03*
X36830000Y36195000D03*
X39370000Y20955000D03*
X39370000Y36195000D03*
X36830000Y20955000D03*
X41910000Y36195000D03*
X34290000Y20955000D03*
X44450000Y36195000D03*
X31750000Y20955000D03*
X46990000Y36195000D03*
X29210000Y20955000D03*
X49530000Y36195000D03*
X26670000Y20955000D03*
X52070000Y36195000D03*
D18*
X24130000Y20955000D03*
%TD*%
D19*
%TO.C,Y1*%
X65405000Y24860000D03*
X65405000Y20860000D03*
D20*
X56655000Y24130000D03*
X56655000Y21590000D03*
%TD*%
D21*
%TO.C,RN2*%
X46990000Y40005000D03*
X44450000Y40005000D03*
X41910000Y40005000D03*
X39370000Y40005000D03*
X36830000Y40005000D03*
X34290000Y40005000D03*
X31750000Y40005000D03*
X29210000Y40005000D03*
D22*
X26670000Y40005000D03*
%TD*%
D23*
%TO.C,RN1*%
X19685000Y41275000D03*
X19685000Y38735000D03*
X19685000Y36195000D03*
X19685000Y33655000D03*
D24*
X19685000Y31115000D03*
%TD*%
D25*
%TO.C,R1*%
X49530000Y43180000D03*
D20*
X41910000Y43180000D03*
%TD*%
D26*
%TO.C,JP1*%
X49530000Y13335000D03*
X52070000Y13335000D03*
%TD*%
D20*
%TO.C,C6*%
X57865000Y14605000D03*
X62865000Y14605000D03*
%TD*%
%TO.C,C3*%
X57865000Y17780000D03*
X62865000Y17780000D03*
%TD*%
%TO.C,C2*%
X6557000Y42799000D03*
X11557000Y42799000D03*
%TD*%
D27*
%TO.C,C1*%
X19050000Y11843000D03*
D11*
X19050000Y13843000D03*
%TD*%
D28*
%TO.C,J1*%
X17780000Y3175000D03*
X20320000Y3175000D03*
X22860000Y3175000D03*
X25400000Y3175000D03*
X27940000Y3175000D03*
X30480000Y3175000D03*
X33020000Y3175000D03*
X35560000Y3175000D03*
X38100000Y3175000D03*
X40640000Y3175000D03*
X43180000Y3175000D03*
X45720000Y3175000D03*
X48260000Y3175000D03*
X50800000Y3175000D03*
X53340000Y3175000D03*
X55880000Y3175000D03*
X58420000Y3175000D03*
X17780000Y5715000D03*
X20320000Y5715000D03*
X22860000Y5715000D03*
X25400000Y5715000D03*
X27940000Y5715000D03*
X30480000Y5715000D03*
X33020000Y5715000D03*
X35560000Y5715000D03*
X38100000Y5715000D03*
X40640000Y5715000D03*
X43180000Y5715000D03*
X45720000Y5715000D03*
X48260000Y5715000D03*
X50800000Y5715000D03*
X53340000Y5715000D03*
X55880000Y5715000D03*
G36*
G01*
X57820000Y6565000D02*
X59020000Y6565000D01*
G75*
G02*
X59270000Y6315000I0J-250000D01*
G01*
X59270000Y5115000D01*
G75*
G02*
X59020000Y4865000I-250000J0D01*
G01*
X57820000Y4865000D01*
G75*
G02*
X57570000Y5115000I0J250000D01*
G01*
X57570000Y6315000D01*
G75*
G02*
X57820000Y6565000I250000J0D01*
G01*
G37*
%TD*%
M02*
