G04 (created by PCBNEW (2013-07-07 BZR 4022)-stable) date 19/03/2022 16:52:54*
%MOIN*%
G04 Gerber Fmt 3.4, Leading zero omitted, Abs format*
%FSLAX34Y34*%
G01*
G70*
G90*
G04 APERTURE LIST*
%ADD10C,0.00590551*%
%ADD11C,0.00393701*%
%ADD12O,0.189X0.177165*%
%ADD13O,0.204724X0.177165*%
%ADD14O,0.137795X0.189*%
%ADD15O,0.0866142X0.11811*%
%ADD16O,0.0787402X0.1*%
%ADD17R,0.0629921X0.0905512*%
%ADD18O,0.0629921X0.0905512*%
%ADD19C,0.0669291*%
%ADD20C,0.0708661*%
%ADD21R,0.0629921X0.0629921*%
%ADD22O,0.0629921X0.0748031*%
%ADD23O,0.0748031X0.0629921*%
%ADD24C,0.0649606*%
%ADD25C,0.0629921*%
%ADD26R,0.062X0.09*%
%ADD27O,0.062X0.09*%
%ADD28R,0.0708661X0.0708661*%
%ADD29R,0.035X0.055*%
%ADD30R,0.055X0.035*%
%ADD31C,0.0905512*%
%ADD32R,0.0905512X0.0905512*%
%ADD33C,0.102362*%
%ADD34R,0.11811X0.11811*%
%ADD35C,0.11811*%
%ADD36C,0.16*%
%ADD37C,0.0590551*%
%ADD38C,0.0787402*%
%ADD39C,0.019685*%
%ADD40C,0.0137795*%
%ADD41C,0.0314961*%
%ADD42C,0.0472441*%
%ADD43C,0.01*%
G04 APERTURE END LIST*
G54D10*
G54D11*
X-9000Y65200D02*
X-9000Y13950D01*
X30250Y65200D02*
X-9000Y65200D01*
X30250Y13950D02*
X30250Y65200D01*
X-9000Y13950D02*
X30250Y13950D01*
G54D12*
X-3000Y63450D03*
G54D13*
X-3000Y61050D03*
G54D14*
X-4700Y62550D03*
G54D15*
X-6900Y55050D03*
G54D16*
X-7900Y55550D03*
X-7900Y57350D03*
G54D15*
X-6900Y57850D03*
G54D17*
X15500Y19357D03*
G54D18*
X15500Y18042D03*
X14500Y19357D03*
X14500Y18042D03*
X13500Y19357D03*
X13500Y18042D03*
X12500Y19357D03*
X12500Y18042D03*
X11500Y19357D03*
X11500Y18042D03*
X10500Y19357D03*
X10500Y18042D03*
X9500Y19357D03*
X9500Y18042D03*
X8500Y19357D03*
X8500Y18042D03*
X7500Y19357D03*
X7500Y18042D03*
X6500Y19357D03*
X6500Y18042D03*
X5500Y19357D03*
X5500Y18042D03*
X4500Y19357D03*
X4500Y18042D03*
X3500Y19357D03*
X3500Y18042D03*
X2500Y19357D03*
X2500Y18042D03*
X1500Y19357D03*
X1500Y18042D03*
X500Y19357D03*
X500Y18042D03*
X-500Y19357D03*
X-500Y18042D03*
G54D17*
X6750Y61542D03*
G54D18*
X6750Y62857D03*
X7750Y61542D03*
X7750Y62857D03*
X8750Y61542D03*
X8750Y62857D03*
X9750Y61542D03*
X9750Y62857D03*
X10750Y61542D03*
X10750Y62857D03*
X11750Y61542D03*
X11750Y62857D03*
X12750Y61542D03*
X12750Y62857D03*
X13750Y61542D03*
X13750Y62857D03*
X14750Y61542D03*
X14750Y62857D03*
X15750Y61542D03*
X15750Y62857D03*
X16750Y61542D03*
X16750Y62857D03*
X17750Y61542D03*
X17750Y62857D03*
X18750Y61542D03*
X18750Y62857D03*
X19750Y61542D03*
X19750Y62857D03*
X20750Y61542D03*
X20750Y62857D03*
X21750Y61542D03*
X21750Y62857D03*
X22750Y61542D03*
X22750Y62857D03*
G54D19*
X9000Y56700D03*
X9000Y59700D03*
G54D20*
X0Y49950D03*
X-3000Y49950D03*
X-6000Y44450D03*
X-3000Y44450D03*
X0Y51200D03*
X-3000Y51200D03*
G54D19*
X-3000Y52450D03*
X0Y52450D03*
X-3000Y54950D03*
X0Y54950D03*
X-3000Y53700D03*
X0Y53700D03*
X-3000Y56200D03*
X0Y56200D03*
G54D21*
X19500Y42200D03*
G54D22*
X19500Y41121D03*
X18500Y42278D03*
X18500Y41121D03*
X17500Y42278D03*
X17500Y41121D03*
X16500Y42278D03*
X16500Y41121D03*
X15500Y42278D03*
X15500Y41121D03*
X14500Y42278D03*
G54D23*
X13421Y41200D03*
G54D19*
X14500Y41200D03*
G54D23*
X13421Y40200D03*
X14578Y40200D03*
X13421Y39200D03*
X14578Y39200D03*
X13421Y38200D03*
X14578Y38200D03*
X13421Y37200D03*
X14578Y37200D03*
X13421Y36200D03*
X14578Y36200D03*
X13421Y35200D03*
X14578Y35200D03*
X13421Y34200D03*
X14578Y34200D03*
X13421Y33200D03*
X14578Y33200D03*
X13421Y32200D03*
X14578Y32200D03*
X13421Y31200D03*
G54D22*
X14500Y30121D03*
G54D24*
X14500Y31200D03*
G54D22*
X15500Y30121D03*
X15500Y31278D03*
X16500Y30121D03*
X16500Y31278D03*
X17500Y30121D03*
X17500Y31278D03*
X18500Y30121D03*
X18500Y31278D03*
X19500Y30121D03*
X19500Y31278D03*
X20500Y30121D03*
X20500Y31278D03*
X21500Y30121D03*
X21500Y31278D03*
X22500Y30121D03*
X22500Y31278D03*
X23500Y30121D03*
X23500Y31278D03*
X24500Y30121D03*
G54D23*
X25578Y31200D03*
G54D24*
X24500Y31200D03*
G54D23*
X25578Y32200D03*
X24421Y32200D03*
X25578Y33200D03*
X24421Y33200D03*
X25578Y34200D03*
X24421Y34200D03*
X25578Y35200D03*
X24421Y35200D03*
X25578Y36200D03*
X24421Y36200D03*
X25578Y37200D03*
X24421Y37200D03*
X25578Y38200D03*
X24421Y38200D03*
X25578Y39200D03*
X24421Y39200D03*
X25578Y40200D03*
X24421Y40200D03*
X25578Y41200D03*
G54D22*
X24500Y42278D03*
G54D25*
X24500Y41200D03*
G54D22*
X23500Y42278D03*
X23500Y41121D03*
X22500Y42278D03*
X22500Y41121D03*
X21500Y42278D03*
X21500Y41121D03*
X20500Y42278D03*
X20500Y41121D03*
G54D26*
X2750Y51200D03*
G54D27*
X3750Y51200D03*
X4750Y51200D03*
X5750Y51200D03*
X5750Y54200D03*
X4750Y54200D03*
X3750Y54200D03*
X2750Y54200D03*
G54D26*
X8750Y48200D03*
G54D27*
X9750Y48200D03*
X10750Y48200D03*
X11750Y48200D03*
X12750Y48200D03*
X13750Y48200D03*
X14750Y48200D03*
X15750Y48200D03*
X16750Y48200D03*
X17750Y48200D03*
X18750Y48200D03*
X19750Y48200D03*
X20750Y48200D03*
X21750Y48200D03*
X22750Y48200D03*
X23750Y48200D03*
X24750Y48200D03*
X25750Y48200D03*
X26750Y48200D03*
X27750Y48200D03*
X27750Y54200D03*
X26750Y54200D03*
X25750Y54200D03*
X24750Y54200D03*
X23750Y54200D03*
X22750Y54200D03*
X21750Y54200D03*
X20750Y54200D03*
X19750Y54200D03*
X18750Y54200D03*
X17750Y54200D03*
X16750Y54200D03*
X15750Y54200D03*
X14750Y54200D03*
X13750Y54200D03*
X12750Y54200D03*
X11750Y54200D03*
X10750Y54200D03*
X9750Y54200D03*
X8750Y54200D03*
G54D26*
X-7000Y29450D03*
G54D27*
X-6000Y29450D03*
X-5000Y29450D03*
X-4000Y29450D03*
X-3000Y29450D03*
X-2000Y29450D03*
X-1000Y29450D03*
X0Y29450D03*
X1000Y29450D03*
X2000Y29450D03*
X3000Y29450D03*
X4000Y29450D03*
X5000Y29450D03*
X6000Y29450D03*
X6000Y35450D03*
X5000Y35450D03*
X4000Y35450D03*
X3000Y35450D03*
X2000Y35450D03*
X1000Y35450D03*
X0Y35450D03*
X-1000Y35450D03*
X-2000Y35450D03*
X-3000Y35450D03*
X-4000Y35450D03*
X-5000Y35450D03*
X-6000Y35450D03*
X-7000Y35450D03*
G54D26*
X17500Y22700D03*
G54D27*
X18500Y22700D03*
X19500Y22700D03*
X20500Y22700D03*
X21500Y22700D03*
X22500Y22700D03*
X23500Y22700D03*
X24500Y22700D03*
X25500Y22700D03*
X26500Y22700D03*
X26500Y25700D03*
X25500Y25700D03*
X24500Y25700D03*
X23500Y25700D03*
X22500Y25700D03*
X21500Y25700D03*
X20500Y25700D03*
X19500Y25700D03*
X18500Y25700D03*
X17500Y25700D03*
G54D26*
X-7000Y22700D03*
G54D27*
X-6000Y22700D03*
X-5000Y22700D03*
X-4000Y22700D03*
X-3000Y22700D03*
X-2000Y22700D03*
X-1000Y22700D03*
X0Y22700D03*
X1000Y22700D03*
X2000Y22700D03*
X2000Y25700D03*
X1000Y25700D03*
X0Y25700D03*
X-1000Y25700D03*
X-2000Y25700D03*
X-3000Y25700D03*
X-4000Y25700D03*
X-5000Y25700D03*
X-6000Y25700D03*
X-7000Y25700D03*
G54D26*
X5250Y22700D03*
G54D27*
X6250Y22700D03*
X7250Y22700D03*
X8250Y22700D03*
X9250Y22700D03*
X10250Y22700D03*
X11250Y22700D03*
X12250Y22700D03*
X13250Y22700D03*
X14250Y22700D03*
X14250Y25700D03*
X13250Y25700D03*
X12250Y25700D03*
X11250Y25700D03*
X10250Y25700D03*
X9250Y25700D03*
X8250Y25700D03*
X7250Y25700D03*
X6250Y25700D03*
X5250Y25700D03*
G54D26*
X-7000Y38700D03*
G54D27*
X-6000Y38700D03*
X-5000Y38700D03*
X-4000Y38700D03*
X-3000Y38700D03*
X-2000Y38700D03*
X-1000Y38700D03*
X0Y38700D03*
X1000Y38700D03*
X2000Y38700D03*
X2000Y41700D03*
X1000Y41700D03*
X0Y41700D03*
X-1000Y41700D03*
X-2000Y41700D03*
X-3000Y41700D03*
X-4000Y41700D03*
X-5000Y41700D03*
X-6000Y41700D03*
X-7000Y41700D03*
G54D26*
X10750Y56700D03*
G54D27*
X11750Y56700D03*
X12750Y56700D03*
X13750Y56700D03*
X14750Y56700D03*
X15750Y56700D03*
X16750Y56700D03*
X17750Y56700D03*
X17750Y59700D03*
X16750Y59700D03*
X15750Y59700D03*
X14750Y59700D03*
X13750Y59700D03*
X12750Y59700D03*
X11750Y59700D03*
X10750Y59700D03*
G54D26*
X-7000Y45700D03*
G54D27*
X-6000Y45700D03*
X-5000Y45700D03*
X-4000Y45700D03*
X-3000Y45700D03*
X-2000Y45700D03*
X-1000Y45700D03*
X0Y45700D03*
X0Y48700D03*
X-1000Y48700D03*
X-2000Y48700D03*
X-3000Y48700D03*
X-4000Y48700D03*
X-5000Y48700D03*
X-6000Y48700D03*
X-7000Y48700D03*
G54D26*
X21750Y56700D03*
G54D27*
X22750Y56700D03*
X23750Y56700D03*
X24750Y56700D03*
X25750Y56700D03*
X26750Y56700D03*
X27750Y56700D03*
X27750Y59700D03*
X26750Y59700D03*
X25750Y59700D03*
X24750Y59700D03*
X23750Y59700D03*
X22750Y59700D03*
X21750Y59700D03*
G54D20*
X-1000Y44450D03*
X-2000Y44450D03*
X-6000Y49950D03*
X-5000Y49950D03*
G54D28*
X9250Y38200D03*
G54D20*
X6250Y38200D03*
X6250Y44200D03*
X9250Y44200D03*
G54D19*
X7750Y56700D03*
X7750Y59700D03*
G54D29*
X27125Y52950D03*
X27875Y52950D03*
X17625Y32950D03*
X18375Y32950D03*
G54D30*
X16500Y37325D03*
X16500Y38075D03*
X22750Y35825D03*
X22750Y35075D03*
G54D29*
X20625Y39450D03*
X21375Y39450D03*
G54D31*
X-5500Y58450D03*
G54D32*
X-1500Y58450D03*
G54D30*
X4500Y24575D03*
X4500Y23825D03*
X-7000Y24575D03*
X-7000Y23825D03*
X2750Y53075D03*
X2750Y52325D03*
X-7000Y40575D03*
X-7000Y39825D03*
G54D33*
X6250Y46950D03*
X2250Y47950D03*
X6250Y48950D03*
G54D34*
X500Y61950D03*
G54D35*
X2500Y61950D03*
G54D36*
X-7500Y63700D03*
X28750Y63700D03*
X28750Y15450D03*
X-7500Y15450D03*
G54D19*
X24750Y17450D03*
X24750Y20450D03*
X26000Y17450D03*
X26000Y20450D03*
X23500Y20450D03*
X23500Y17450D03*
G54D30*
X9000Y58575D03*
X9000Y57825D03*
G54D29*
X20875Y59700D03*
X20125Y59700D03*
X17625Y24450D03*
X18375Y24450D03*
G54D19*
X12000Y37700D03*
X12000Y40700D03*
X6500Y59700D03*
X6500Y56700D03*
G54D37*
X16750Y51200D03*
X7250Y50450D03*
X11000Y44700D03*
X10000Y51200D03*
X13250Y51200D03*
X-1500Y33450D03*
X15250Y23950D03*
X15250Y24950D03*
X28000Y37200D03*
X26250Y55200D03*
X22750Y55200D03*
X26500Y44950D03*
X3500Y39200D03*
X3000Y37700D03*
X22500Y17950D03*
X20500Y17950D03*
X27250Y55700D03*
X22250Y55700D03*
X28000Y43950D03*
X18250Y50700D03*
X18250Y52200D03*
X20500Y49700D03*
X22000Y51950D03*
X14500Y20950D03*
X28000Y34200D03*
X28000Y36200D03*
X4250Y62450D03*
X18250Y18200D03*
X28000Y35200D03*
X10750Y29950D03*
X14750Y26700D03*
X7250Y41700D03*
X16000Y22700D03*
X25500Y44950D03*
X21000Y47200D03*
X22750Y47200D03*
G54D38*
X5550Y58450D03*
X11750Y31450D03*
X-3500Y17700D03*
X27850Y40250D03*
X16750Y43700D03*
X3750Y43450D03*
X11750Y43200D03*
G54D37*
X9250Y50450D03*
X-750Y46950D03*
X29000Y59700D03*
X18250Y20450D03*
X16500Y39450D03*
X23250Y32450D03*
X22750Y36700D03*
X19250Y39450D03*
X22750Y39700D03*
X16500Y34950D03*
X17000Y32700D03*
G54D38*
X10250Y35700D03*
G54D39*
X24250Y52450D02*
X19750Y52450D01*
X19750Y52450D02*
X19000Y51700D01*
X24750Y54200D02*
X24750Y52950D01*
X24250Y52450D02*
X24750Y52950D01*
X17250Y51700D02*
X19000Y51700D01*
X16750Y51200D02*
X17250Y51700D01*
X11000Y44700D02*
X9750Y45950D01*
X9750Y45950D02*
X8000Y45950D01*
X7250Y50450D02*
X8000Y49700D01*
X8000Y49700D02*
X8000Y45950D01*
X8000Y45950D02*
X6250Y44200D01*
X14250Y50200D02*
X14250Y49200D01*
X17500Y42200D02*
X17500Y44200D01*
X5750Y53700D02*
X8250Y51200D01*
X8250Y51200D02*
X10000Y51200D01*
X13250Y51200D02*
X14250Y50200D01*
G54D40*
X14250Y49200D02*
X14250Y47450D01*
G54D39*
X5750Y54200D02*
X5750Y53700D01*
X17500Y44200D02*
X14250Y47450D01*
X13250Y52200D02*
X15250Y50200D01*
X11750Y52950D02*
X11750Y54200D01*
X12500Y52200D02*
X11750Y52950D01*
X13250Y52200D02*
X12500Y52200D01*
X18000Y44450D02*
X15250Y47200D01*
G54D40*
X15250Y47200D02*
X15250Y49200D01*
X18000Y41700D02*
X18000Y42950D01*
G54D39*
X17500Y41200D02*
X18000Y41700D01*
X15250Y50200D02*
X15250Y49200D01*
X18000Y44450D02*
X18000Y42950D01*
G54D40*
X9500Y19200D02*
X9500Y19700D01*
X11500Y21700D02*
X12000Y21700D01*
X9500Y19700D02*
X11500Y21700D01*
X12250Y21950D02*
X12250Y22700D01*
X12000Y21700D02*
X12250Y21950D01*
X10250Y28450D02*
X11750Y28450D01*
X13250Y26950D02*
X13250Y25700D01*
X11750Y28450D02*
X13250Y26950D01*
X10250Y28450D02*
X2250Y28450D01*
X2250Y28450D02*
X2000Y28700D01*
X2000Y28700D02*
X2000Y29450D01*
X10750Y21450D02*
X10750Y23450D01*
G54D39*
X12250Y24950D02*
X12250Y25700D01*
X10750Y23450D02*
X12250Y24950D01*
G54D40*
X8500Y19200D02*
X8500Y19950D01*
X9750Y20450D02*
X10750Y21450D01*
X9000Y20450D02*
X9750Y20450D01*
X8500Y19950D02*
X9000Y20450D01*
G54D39*
X-4500Y23950D02*
X-4500Y23450D01*
G54D40*
X500Y19200D02*
X500Y19950D01*
X-3500Y20450D02*
X-4500Y21450D01*
X0Y20450D02*
X-3500Y20450D01*
X500Y19950D02*
X0Y20450D01*
G54D39*
X-4000Y25700D02*
X-4000Y24450D01*
G54D40*
X-4500Y23450D02*
X-4500Y21450D01*
G54D39*
X-4000Y24450D02*
X-4500Y23950D01*
G54D40*
X0Y18700D02*
X0Y19950D01*
X-250Y20200D02*
X-3750Y20200D01*
X0Y19950D02*
X-250Y20200D01*
X-6000Y22700D02*
X-6000Y22450D01*
X-6000Y22450D02*
X-3750Y20200D01*
X0Y18700D02*
X500Y18200D01*
X-6500Y28700D02*
X-6500Y30450D01*
G54D39*
X-6500Y33450D02*
X-6500Y30450D01*
X-5750Y34200D02*
X-6500Y33450D01*
X-2500Y34200D02*
X-5750Y34200D01*
X-2000Y34700D02*
X-2500Y34200D01*
X-2000Y35450D02*
X-2000Y34700D01*
X-5000Y25950D02*
X-6500Y27450D01*
X-5000Y25700D02*
X-5000Y25950D01*
X-6500Y28700D02*
X-6500Y27450D01*
G54D40*
X-3250Y20700D02*
X500Y20700D01*
X1000Y20200D02*
X1000Y18700D01*
X500Y20700D02*
X1000Y20200D01*
X1000Y18700D02*
X1500Y18200D01*
X-3250Y20700D02*
X-4000Y21450D01*
X-4000Y21450D02*
X-4000Y22700D01*
G54D39*
X-3250Y26700D02*
X-5250Y26700D01*
X-3000Y26450D02*
X-3250Y26700D01*
X-3000Y25700D02*
X-3000Y26450D01*
X-5250Y26700D02*
X-6000Y27450D01*
X-6000Y27450D02*
X-6000Y29450D01*
G54D40*
X2000Y18700D02*
X2500Y18200D01*
X2000Y18700D02*
X2000Y20700D01*
X1500Y21200D02*
X-1750Y21200D01*
X2000Y20700D02*
X1500Y21200D01*
X-2000Y21450D02*
X-1750Y21200D01*
X-2000Y22700D02*
X-2000Y21450D01*
G54D39*
X-5500Y30450D02*
X-5500Y32700D01*
X-5500Y28200D02*
X-5500Y28700D01*
X-1250Y26450D02*
X-2500Y26450D01*
X10875Y33575D02*
X12500Y35200D01*
X10875Y33575D02*
X-625Y33575D01*
X-2250Y33450D02*
X-4750Y33450D01*
X-1750Y33950D02*
X-2250Y33450D01*
X-1000Y33950D02*
X-1750Y33950D01*
X-625Y33575D02*
X-1000Y33950D01*
G54D40*
X-5500Y30450D02*
X-5500Y28700D01*
G54D39*
X-4750Y33450D02*
X-5500Y32700D01*
X12500Y35200D02*
X13500Y35200D01*
X-4500Y27200D02*
X-5500Y28200D01*
X-3250Y27200D02*
X-4500Y27200D01*
X-1000Y26200D02*
X-1250Y26450D01*
X-1000Y25700D02*
X-1000Y26200D01*
X-2500Y26450D02*
X-3250Y27200D01*
G54D40*
X3000Y18700D02*
X3500Y18200D01*
X0Y22700D02*
X0Y22200D01*
X3000Y20950D02*
X3000Y18700D01*
X2250Y21700D02*
X3000Y20950D01*
X500Y21700D02*
X2250Y21700D01*
X0Y22200D02*
X500Y21700D01*
X14500Y35200D02*
X14000Y34700D01*
X-1250Y33200D02*
X-1500Y33450D01*
X11250Y33200D02*
X-1250Y33200D01*
X12750Y34700D02*
X11250Y33200D01*
X14000Y34700D02*
X12750Y34700D01*
G54D39*
X8250Y25700D02*
X8250Y24450D01*
X7000Y23700D02*
X6750Y23450D01*
X7500Y23700D02*
X7000Y23700D01*
X8250Y24450D02*
X7500Y23700D01*
G54D40*
X5000Y18700D02*
X4500Y18200D01*
X6750Y23450D02*
X6750Y21950D01*
X5000Y20200D02*
X6750Y21950D01*
X5000Y18700D02*
X5000Y20200D01*
X15500Y28950D02*
X15500Y30200D01*
X15750Y28700D02*
X15500Y28950D01*
X15750Y24450D02*
X15750Y28700D01*
X15250Y23950D02*
X15750Y24450D01*
G54D39*
X11250Y22700D02*
X11250Y23450D01*
X11250Y23450D02*
X12750Y24950D01*
G54D40*
X12750Y26700D02*
X11250Y28200D01*
X11250Y28200D02*
X1500Y28200D01*
X1500Y28200D02*
X1000Y28700D01*
X1000Y28700D02*
X1000Y29450D01*
X12750Y24950D02*
X12750Y26700D01*
X7500Y19200D02*
X7500Y20200D01*
X9500Y20950D02*
X10250Y21700D01*
X8250Y20950D02*
X9500Y20950D01*
X7500Y20200D02*
X8250Y20950D01*
X10250Y21700D02*
X10250Y22700D01*
X12500Y30700D02*
X12500Y31700D01*
X12000Y32200D02*
X0Y32200D01*
X12500Y31700D02*
X12000Y32200D01*
X0Y29950D02*
X-500Y30450D01*
X12750Y30450D02*
X12500Y30700D01*
X-1000Y31200D02*
X-1000Y30450D01*
X0Y32200D02*
X-1000Y31200D01*
X10250Y27950D02*
X-750Y27950D01*
X-1500Y28700D02*
X-1500Y29950D01*
X-1500Y29950D02*
X-1000Y30450D01*
X11250Y26950D02*
X10250Y27950D01*
X11250Y25700D02*
X11250Y26950D01*
X-750Y27950D02*
X-1500Y28700D01*
X-1000Y30450D02*
X-500Y30450D01*
X0Y29450D02*
X0Y29950D01*
G54D39*
X12750Y30450D02*
X13750Y30450D01*
X14500Y31200D02*
X13750Y30450D01*
X13750Y23950D02*
X13750Y23450D01*
X14250Y25700D02*
X14250Y24450D01*
G54D40*
X10500Y19950D02*
X10500Y19200D01*
X11750Y21200D02*
X10500Y19950D01*
X13250Y21200D02*
X11750Y21200D01*
X13750Y21700D02*
X13250Y21200D01*
X13750Y23450D02*
X13750Y21700D01*
G54D39*
X14250Y24450D02*
X13750Y23950D01*
G54D40*
X9500Y28700D02*
X12250Y28700D01*
X13750Y27200D02*
X13750Y25200D01*
X12250Y28700D02*
X13750Y27200D01*
G54D39*
X13750Y24950D02*
X13750Y24450D01*
X13750Y24450D02*
X13250Y23950D01*
X13250Y23950D02*
X13250Y22700D01*
G54D40*
X14500Y30200D02*
X14000Y29700D01*
X10250Y30700D02*
X9500Y29950D01*
X11250Y30700D02*
X10250Y30700D01*
X12250Y29700D02*
X11250Y30700D01*
X14000Y29700D02*
X12250Y29700D01*
X9500Y29950D02*
X9500Y28700D01*
X500Y28700D02*
X500Y30200D01*
X3750Y28700D02*
X9500Y28700D01*
X3500Y28950D02*
X3750Y28700D01*
X3500Y30200D02*
X3500Y28950D01*
X3250Y30450D02*
X3500Y30200D01*
X750Y30450D02*
X3250Y30450D01*
X500Y30200D02*
X750Y30450D01*
X-750Y28450D02*
X-1000Y28700D01*
X-1000Y28700D02*
X-1000Y29450D01*
X500Y28700D02*
X250Y28450D01*
X250Y28450D02*
X-750Y28450D01*
X13750Y25200D02*
X13750Y24950D01*
G54D39*
X9750Y23450D02*
X9750Y23700D01*
X9750Y23700D02*
X10250Y24200D01*
X10250Y24200D02*
X10250Y25700D01*
G54D40*
X7000Y20450D02*
X8000Y21450D01*
X8000Y21450D02*
X9250Y21450D01*
X6500Y18200D02*
X7000Y18700D01*
X7000Y18700D02*
X7000Y20450D01*
X9250Y21450D02*
X9750Y21950D01*
X9750Y23450D02*
X9750Y21950D01*
G54D39*
X9750Y24950D02*
X9750Y24700D01*
X9750Y24700D02*
X9250Y24200D01*
X9250Y24200D02*
X9250Y22700D01*
G54D40*
X-2000Y29450D02*
X-2000Y30950D01*
X12250Y32450D02*
X12500Y32200D01*
X-500Y32450D02*
X12250Y32450D01*
X-2000Y30950D02*
X-500Y32450D01*
X12500Y32200D02*
X13500Y32200D01*
X-1250Y27700D02*
X9250Y27700D01*
X9750Y27200D02*
X9750Y24950D01*
X9250Y27700D02*
X9750Y27200D01*
X-2000Y28450D02*
X-1250Y27700D01*
X-2000Y29450D02*
X-2000Y28450D01*
X5500Y19200D02*
X5500Y20200D01*
X7750Y21700D02*
X8250Y22200D01*
X7000Y21700D02*
X7750Y21700D01*
X5500Y20200D02*
X7000Y21700D01*
X8250Y22700D02*
X8250Y22200D01*
G54D39*
X5500Y19200D02*
X5500Y19700D01*
G54D40*
X8750Y27450D02*
X-1750Y27450D01*
X-3000Y28700D02*
X-3000Y29450D01*
X-1750Y27450D02*
X-3000Y28700D01*
X9250Y26950D02*
X9250Y25700D01*
X8750Y27450D02*
X9250Y26950D01*
X14000Y32700D02*
X-1500Y32700D01*
X-3000Y31200D02*
X-3000Y29450D01*
X-1500Y32700D02*
X-3000Y31200D01*
G54D39*
X14000Y32700D02*
X14500Y33200D01*
G54D40*
X4500Y19200D02*
X4500Y20450D01*
X4500Y20450D02*
X6250Y22200D01*
X6250Y22200D02*
X6250Y22700D01*
X-2500Y27200D02*
X6750Y27200D01*
X7250Y26700D02*
X7250Y25700D01*
X6750Y27200D02*
X7250Y26700D01*
X-4000Y28700D02*
X-2500Y27200D01*
X15250Y24950D02*
X15250Y28200D01*
X15000Y30700D02*
X15000Y28450D01*
X15500Y31200D02*
X15000Y30700D01*
X15250Y28200D02*
X15000Y28450D01*
X-4000Y29450D02*
X-4000Y28700D01*
G54D39*
X2000Y25700D02*
X2000Y23950D01*
G54D40*
X2500Y21950D02*
X3500Y20950D01*
X1750Y21950D02*
X2500Y21950D01*
X1500Y22200D02*
X1750Y21950D01*
X1500Y23450D02*
X1500Y22200D01*
G54D39*
X2000Y23950D02*
X1500Y23450D01*
G54D40*
X3500Y20950D02*
X3500Y19200D01*
X11750Y32950D02*
X-2750Y32950D01*
X-5000Y30700D02*
X-5000Y29450D01*
X-2750Y32950D02*
X-5000Y30700D01*
X12000Y33200D02*
X11750Y32950D01*
G54D39*
X13500Y33200D02*
X12000Y33200D01*
G54D40*
X-500Y21950D02*
X-500Y23450D01*
G54D39*
X-500Y23450D02*
X0Y23950D01*
G54D40*
X0Y21450D02*
X2000Y21450D01*
X2500Y20950D02*
X2500Y19200D01*
X2000Y21450D02*
X2500Y20950D01*
X-500Y21950D02*
X0Y21450D01*
G54D39*
X0Y23950D02*
X0Y25700D01*
G54D40*
X-2500Y21200D02*
X-2500Y23450D01*
G54D39*
X-2500Y23450D02*
X-2000Y23950D01*
G54D40*
X-2500Y21200D02*
X-2250Y20950D01*
X1500Y20450D02*
X1500Y19200D01*
X1000Y20950D02*
X1500Y20450D01*
X-2250Y20950D02*
X1000Y20950D01*
G54D39*
X-2000Y25700D02*
X-2000Y23950D01*
G54D40*
X26250Y36700D02*
X25000Y36700D01*
G54D39*
X26750Y37200D02*
X26250Y36700D01*
X28000Y37200D02*
X26750Y37200D01*
X25000Y36700D02*
X24500Y37200D01*
X22750Y55200D02*
X26250Y55200D01*
X25250Y41950D02*
X24500Y41200D01*
X25250Y41950D02*
X25250Y43700D01*
X25250Y43700D02*
X26500Y44950D01*
X10250Y34450D02*
X1500Y34450D01*
X1000Y34950D02*
X1000Y35450D01*
X1500Y34450D02*
X1000Y34950D01*
X10250Y34450D02*
X12500Y36700D01*
G54D40*
X12500Y36700D02*
X14000Y36700D01*
G54D39*
X14000Y36700D02*
X14500Y37200D01*
X10750Y48200D02*
X10750Y46700D01*
X14500Y42950D02*
X14500Y42200D01*
X10750Y46700D02*
X14500Y42950D01*
G54D40*
X18500Y16950D02*
X19000Y17450D01*
G54D39*
X19000Y17450D02*
X19000Y20950D01*
G54D40*
X11500Y18200D02*
X11500Y17450D01*
X11500Y17450D02*
X12000Y16950D01*
X12000Y16950D02*
X18500Y16950D01*
G54D39*
X19000Y20950D02*
X18500Y21450D01*
X18500Y21450D02*
X18500Y22700D01*
X3000Y38700D02*
X3500Y39200D01*
X3000Y37700D02*
X3000Y38700D01*
X19500Y25700D02*
X19500Y27450D01*
X20500Y28450D02*
X20500Y30200D01*
X19500Y27450D02*
X20500Y28450D01*
G54D40*
X11000Y16450D02*
X19500Y16450D01*
G54D39*
X20000Y16950D02*
X20000Y21450D01*
G54D40*
X19500Y16450D02*
X20000Y16950D01*
X10500Y18200D02*
X10500Y16950D01*
X10500Y16950D02*
X11000Y16450D01*
G54D39*
X20000Y21450D02*
X19500Y21950D01*
X19500Y22700D02*
X19500Y21950D01*
X19000Y26450D02*
X19000Y28200D01*
G54D40*
X20500Y25700D02*
X20500Y25200D01*
X19250Y24950D02*
X19000Y25200D01*
X20250Y24950D02*
X19250Y24950D01*
X20500Y25200D02*
X20250Y24950D01*
X19000Y26450D02*
X19000Y25200D01*
X20000Y30700D02*
X20000Y29200D01*
G54D39*
X20000Y29200D02*
X19000Y28200D01*
X20500Y31200D02*
X20000Y30700D01*
G54D40*
X19000Y16700D02*
X19500Y17200D01*
G54D39*
X19500Y17200D02*
X19500Y21200D01*
X19000Y21700D02*
X19000Y21950D01*
G54D40*
X11250Y16700D02*
X19000Y16700D01*
G54D39*
X19500Y21200D02*
X19000Y21700D01*
G54D40*
X19000Y21950D02*
X19000Y23450D01*
G54D39*
X19000Y23450D02*
X19250Y23700D01*
X19250Y23700D02*
X20250Y23700D01*
X20250Y23700D02*
X20500Y23450D01*
X20500Y23450D02*
X20500Y22700D01*
G54D40*
X11000Y16950D02*
X11000Y18700D01*
X11250Y16700D02*
X11000Y16950D01*
X11000Y18700D02*
X11500Y19200D01*
G54D39*
X21500Y25700D02*
X21500Y28700D01*
X21500Y28700D02*
X22000Y29200D01*
G54D40*
X22000Y29200D02*
X22000Y30700D01*
G54D39*
X22000Y30700D02*
X21500Y31200D01*
X21500Y22700D02*
X21500Y21950D01*
X21500Y21950D02*
X21000Y21450D01*
G54D40*
X20500Y15950D02*
X21000Y16450D01*
G54D39*
X21000Y16450D02*
X21000Y21450D01*
G54D40*
X9250Y15950D02*
X20500Y15950D01*
X8500Y18200D02*
X8500Y16700D01*
X8500Y16700D02*
X9250Y15950D01*
G54D39*
X22500Y25700D02*
X22500Y30200D01*
G54D40*
X22500Y22450D02*
X22500Y22700D01*
G54D39*
X21500Y21450D02*
X22500Y22450D01*
G54D40*
X21000Y15700D02*
X21500Y16200D01*
G54D39*
X21500Y16200D02*
X21500Y21450D01*
G54D40*
X8000Y15700D02*
X21000Y15700D01*
X7500Y16200D02*
X7500Y18200D01*
X8000Y15700D02*
X7500Y16200D01*
G54D39*
X23000Y29200D02*
X23000Y28700D01*
G54D40*
X23000Y30700D02*
X23000Y29200D01*
G54D39*
X22500Y31200D02*
X23000Y30700D01*
X23500Y28200D02*
X23500Y25700D01*
X23500Y28200D02*
X23000Y28700D01*
X28750Y23700D02*
X24500Y23700D01*
X29775Y24725D02*
X28750Y23700D01*
X23500Y25700D02*
X23500Y24700D01*
X24250Y47450D02*
X24250Y47200D01*
X18750Y48200D02*
X18750Y49950D01*
X18750Y49950D02*
X19750Y50950D01*
G54D40*
X24250Y48950D02*
X24250Y47450D01*
G54D39*
X23500Y50950D02*
X24250Y50200D01*
X19750Y50950D02*
X23500Y50950D01*
X24500Y46950D02*
X24250Y47200D01*
X28500Y46950D02*
X29775Y45675D01*
X24500Y46950D02*
X28500Y46950D01*
X24250Y50200D02*
X24250Y48950D01*
X29775Y45675D02*
X29775Y24725D01*
X24500Y23700D02*
X23500Y24700D01*
X23500Y22200D02*
X23500Y22700D01*
X23000Y21700D02*
X23500Y22200D01*
X22500Y21700D02*
X23000Y21700D01*
X22000Y21200D02*
X22500Y21700D01*
G54D40*
X21500Y15450D02*
X22000Y15950D01*
G54D39*
X22000Y15950D02*
X22000Y21200D01*
G54D40*
X21500Y15450D02*
X7250Y15450D01*
X6000Y18700D02*
X6000Y16700D01*
X6500Y19200D02*
X6000Y18700D01*
X6000Y16700D02*
X7250Y15450D01*
G54D39*
X24500Y25700D02*
X24500Y27950D01*
X23500Y30200D02*
X23500Y28950D01*
X24500Y27950D02*
X23500Y28950D01*
X29350Y45350D02*
X29350Y25550D01*
X25250Y24200D02*
X24500Y24950D01*
X28000Y24200D02*
X25250Y24200D01*
X29350Y25550D02*
X28000Y24200D01*
X28250Y46450D02*
X29350Y45350D01*
X19750Y48200D02*
X19750Y49950D01*
G54D40*
X23250Y48950D02*
X23250Y47200D01*
G54D39*
X22750Y50450D02*
X23250Y49950D01*
X20250Y50450D02*
X22750Y50450D01*
X19750Y49950D02*
X20250Y50450D01*
X24000Y46450D02*
X23250Y47200D01*
X28250Y46450D02*
X24000Y46450D01*
X23250Y49950D02*
X23250Y48950D01*
X24500Y25700D02*
X24500Y24950D01*
X22500Y17950D02*
X22500Y20700D01*
X24500Y21700D02*
X24500Y22700D01*
X24000Y21200D02*
X24500Y21700D01*
X23000Y21200D02*
X24000Y21200D01*
X22500Y20700D02*
X23000Y21200D01*
G54D40*
X20000Y16200D02*
X20500Y16700D01*
X20500Y16700D02*
X20500Y17950D01*
X10000Y16200D02*
X20000Y16200D01*
X9500Y16700D02*
X9500Y18200D01*
X10000Y16200D02*
X9500Y16700D01*
G54D39*
X25500Y25700D02*
X25500Y27700D01*
G54D40*
X24000Y30700D02*
X24000Y29200D01*
G54D39*
X23500Y31200D02*
X24000Y30700D01*
X25500Y27700D02*
X24000Y29200D01*
X25500Y24950D02*
X25750Y24700D01*
X27500Y24700D02*
X28925Y26125D01*
X25750Y24700D02*
X27500Y24700D01*
X25500Y24950D02*
X25500Y25700D01*
X28925Y45025D02*
X28925Y26125D01*
X20750Y48200D02*
X20750Y48950D01*
X22250Y46950D02*
X23250Y45950D01*
G54D40*
X22250Y48950D02*
X22250Y46950D01*
G54D39*
X22000Y49200D02*
X22250Y48950D01*
X21000Y49200D02*
X22000Y49200D01*
X20750Y48950D02*
X21000Y49200D01*
X23250Y45950D02*
X28000Y45950D01*
X28000Y45950D02*
X28925Y45025D01*
X25500Y21950D02*
X26750Y20700D01*
X25750Y16200D02*
X23000Y16200D01*
X26750Y17200D02*
X25750Y16200D01*
X26750Y20700D02*
X26750Y17200D01*
G54D40*
X22000Y15200D02*
X23000Y16200D01*
X6750Y15200D02*
X22000Y15200D01*
X5500Y16700D02*
X5500Y16450D01*
X5500Y16450D02*
X6750Y15200D01*
G54D39*
X25500Y21950D02*
X25500Y22700D01*
X5500Y18200D02*
X5500Y16700D01*
X26500Y25700D02*
X27750Y25700D01*
X27750Y25700D02*
X28500Y26450D01*
X27950Y31200D02*
X28050Y31200D01*
X28050Y31200D02*
X28500Y30750D01*
X28500Y30750D02*
X28500Y26450D01*
X28500Y31750D02*
X27950Y31200D01*
X25500Y31200D02*
X27950Y31200D01*
X28500Y44700D02*
X28500Y31750D01*
X27750Y45450D02*
X28500Y44700D01*
X21750Y46700D02*
X21750Y48200D01*
X23000Y45450D02*
X21750Y46700D01*
X23000Y45450D02*
X27750Y45450D01*
X16000Y43700D02*
X16000Y42950D01*
X13250Y47450D02*
X13250Y46450D01*
X13250Y50200D02*
X13250Y49200D01*
X10750Y54200D02*
X10750Y52700D01*
X10750Y52700D02*
X13250Y50200D01*
G54D40*
X13250Y49200D02*
X13250Y47450D01*
G54D39*
X13250Y46450D02*
X16000Y43700D01*
G54D40*
X16000Y42950D02*
X16000Y41700D01*
G54D39*
X16000Y41700D02*
X16500Y41200D01*
X17500Y29200D02*
X17500Y27950D01*
X17500Y27950D02*
X16750Y27200D01*
X16750Y27200D02*
X16750Y23450D01*
X16750Y23450D02*
X17500Y22700D01*
G54D40*
X17500Y30200D02*
X17500Y29200D01*
G54D39*
X18500Y30200D02*
X18500Y25700D01*
X22250Y55700D02*
X27250Y55700D01*
X28000Y42700D02*
X28000Y43950D01*
X26500Y41200D02*
X25500Y41200D01*
X26500Y41200D02*
X28000Y42700D01*
X11750Y59700D02*
X11750Y56700D01*
X18250Y46450D02*
X20250Y44450D01*
X18250Y47450D02*
X18250Y46450D01*
X18250Y48950D02*
X18250Y50700D01*
X20250Y52950D02*
X20750Y53450D01*
X20750Y53450D02*
X20750Y54200D01*
X22500Y42200D02*
X22500Y43700D01*
X21750Y44450D02*
X20250Y44450D01*
X22500Y43700D02*
X21750Y44450D01*
G54D40*
X18250Y47450D02*
X18250Y48950D01*
G54D39*
X18250Y52200D02*
X19000Y52950D01*
X19000Y52950D02*
X20250Y52950D01*
X21750Y56700D02*
X21250Y56700D01*
X20750Y56200D02*
X20750Y54200D01*
X21250Y56700D02*
X20750Y56200D01*
X20250Y49450D02*
X20250Y48950D01*
X23000Y43950D02*
X23000Y42950D01*
X20250Y47450D02*
X20250Y45700D01*
X23000Y43950D02*
X22000Y44950D01*
X21000Y44950D02*
X22000Y44950D01*
X20250Y45700D02*
X21000Y44950D01*
X22500Y41200D02*
X23000Y41700D01*
G54D40*
X23000Y41700D02*
X23000Y42950D01*
G54D39*
X20250Y49450D02*
X20500Y49700D01*
X22000Y51950D02*
X25000Y51950D01*
X25000Y51950D02*
X25750Y52700D01*
X25750Y52700D02*
X25750Y54200D01*
G54D40*
X20250Y48950D02*
X20250Y47450D01*
X14500Y20950D02*
X14000Y20450D01*
X14000Y20450D02*
X14000Y18700D01*
X15000Y22450D02*
X15000Y21450D01*
X15000Y21450D02*
X14500Y20950D01*
X13500Y18200D02*
X14000Y18700D01*
G54D39*
X16500Y30200D02*
X16500Y27700D01*
X16250Y23700D02*
X15000Y22450D01*
X16250Y27450D02*
X16250Y23700D01*
X16500Y27700D02*
X16250Y27450D01*
X10500Y38450D02*
X8500Y40450D01*
X13500Y38200D02*
X12500Y38200D01*
X12250Y38450D02*
X10500Y38450D01*
X12500Y38200D02*
X12250Y38450D01*
X8500Y40450D02*
X750Y40450D01*
X750Y40450D02*
X0Y41200D01*
X0Y41200D02*
X0Y41700D01*
X25500Y34200D02*
X28000Y34200D01*
X6500Y56700D02*
X6500Y55950D01*
X8250Y52950D02*
X9750Y52950D01*
X7000Y54200D02*
X8250Y52950D01*
X7000Y55450D02*
X7000Y54200D01*
X6500Y55950D02*
X7000Y55450D01*
X12250Y49950D02*
X12250Y49200D01*
X12250Y46700D02*
X12250Y47450D01*
G54D40*
X12250Y47450D02*
X12250Y49200D01*
G54D39*
X15500Y43450D02*
X12250Y46700D01*
X15500Y42200D02*
X15500Y43450D01*
X12250Y49950D02*
X9750Y52450D01*
X9750Y52450D02*
X9750Y52950D01*
X9750Y52950D02*
X9750Y54200D01*
X27000Y35700D02*
X26250Y35700D01*
X27500Y36200D02*
X28000Y36200D01*
X27000Y35700D02*
X27500Y36200D01*
X24500Y35200D02*
X25000Y35700D01*
G54D40*
X25000Y35700D02*
X26250Y35700D01*
G54D39*
X10500Y33950D02*
X-250Y33950D01*
X-250Y33950D02*
X-1000Y34700D01*
X12750Y36200D02*
X10500Y33950D01*
X-1000Y34700D02*
X-1000Y35450D01*
X13500Y36200D02*
X12750Y36200D01*
X-4500Y47200D02*
X-4500Y46450D01*
X-3625Y42825D02*
X2875Y42825D01*
X2875Y42825D02*
X3500Y42200D01*
X12500Y39200D02*
X12250Y39450D01*
X12250Y39450D02*
X11250Y39450D01*
X-4500Y43700D02*
X-4500Y44950D01*
G54D40*
X-4500Y46450D02*
X-4500Y44950D01*
G54D39*
X11250Y39450D02*
X8500Y42200D01*
X12500Y39200D02*
X13500Y39200D01*
X3500Y42200D02*
X8500Y42200D01*
X-4500Y43700D02*
X-3625Y42825D01*
X-4500Y47200D02*
X-4000Y47700D01*
X-4000Y47700D02*
X-4000Y48700D01*
X0Y48700D02*
X0Y47950D01*
X0Y47950D02*
X-250Y47700D01*
X-250Y47700D02*
X-4000Y47700D01*
G54D40*
X-4500Y41200D02*
X-4500Y42450D01*
G54D39*
X-4500Y42700D02*
X-4500Y42450D01*
X-5000Y43200D02*
X-4500Y42700D01*
X-5750Y43200D02*
X-5000Y43200D01*
X-7000Y44450D02*
X-5750Y43200D01*
X-7000Y45700D02*
X-7000Y44450D01*
X-1000Y40700D02*
X-500Y40700D01*
X-500Y40700D02*
X250Y39950D01*
X250Y39950D02*
X6000Y39950D01*
X6000Y39950D02*
X8500Y37450D01*
X8500Y37450D02*
X10750Y37450D01*
X10750Y37450D02*
X11250Y36950D01*
X11250Y36950D02*
X12250Y36950D01*
X12250Y36950D02*
X12500Y37200D01*
X12500Y37200D02*
X13500Y37200D01*
X-4500Y41200D02*
X-4000Y40700D01*
X-4000Y40700D02*
X-1000Y40700D01*
X-1000Y40700D02*
X-1000Y41700D01*
X-3375Y43325D02*
X2875Y43325D01*
X2875Y43325D02*
X3500Y42700D01*
X11500Y39950D02*
X12500Y39950D01*
X14000Y39700D02*
X14500Y40200D01*
G54D40*
X12750Y39700D02*
X14000Y39700D01*
G54D39*
X11500Y39950D02*
X8750Y42700D01*
X8750Y42700D02*
X3500Y42700D01*
X12500Y39950D02*
X12750Y39700D01*
X-3000Y45450D02*
X-3750Y44700D01*
X-3750Y44700D02*
X-3750Y43700D01*
X-3750Y43700D02*
X-3375Y43325D01*
X-3000Y45700D02*
X-3000Y45450D01*
X6000Y64200D02*
X4250Y62450D01*
X20500Y64200D02*
X6000Y64200D01*
X20750Y63950D02*
X20500Y64200D01*
X20750Y62700D02*
X20750Y63950D01*
X15000Y43200D02*
X15000Y42950D01*
X11750Y48200D02*
X11750Y46450D01*
X11750Y46450D02*
X15000Y43200D01*
G54D40*
X15000Y42950D02*
X15000Y41700D01*
G54D39*
X15000Y41700D02*
X15500Y41200D01*
X18250Y18200D02*
X15500Y18200D01*
X27500Y34700D02*
X26250Y34700D01*
X27500Y34700D02*
X28000Y35200D01*
X24500Y34200D02*
X25000Y34700D01*
G54D40*
X25000Y34700D02*
X26250Y34700D01*
X12750Y29075D02*
X12875Y29075D01*
X12875Y29075D02*
X14750Y27200D01*
G54D39*
X2750Y42450D02*
X-3750Y42450D01*
X-4000Y42200D02*
X-4000Y41700D01*
X-3750Y42450D02*
X-4000Y42200D01*
G54D40*
X12750Y29075D02*
X11625Y29075D01*
X11625Y29075D02*
X10750Y29950D01*
X14750Y27200D02*
X14750Y26700D01*
G54D39*
X2750Y42450D02*
X3500Y41700D01*
X7250Y41700D02*
X3500Y41700D01*
G54D40*
X14500Y18200D02*
X15000Y18700D01*
X15000Y20200D02*
X16000Y21200D01*
X15000Y18700D02*
X15000Y20200D01*
G54D39*
X16000Y22700D02*
X16000Y21200D01*
X16250Y47200D02*
X19500Y43950D01*
X26750Y48200D02*
X26750Y50450D01*
X26750Y50450D02*
X25750Y51450D01*
X19500Y51450D02*
X25750Y51450D01*
X17750Y51200D02*
X16250Y49700D01*
X17750Y51200D02*
X19250Y51200D01*
X19250Y51200D02*
X19500Y51450D01*
G54D40*
X16250Y49200D02*
X16250Y47450D01*
G54D39*
X16250Y49700D02*
X16250Y49200D01*
X16250Y47450D02*
X16250Y47200D01*
X19500Y43950D02*
X19500Y42200D01*
X1000Y41700D02*
X1000Y41200D01*
G54D40*
X12500Y38700D02*
X14000Y38700D01*
G54D39*
X14000Y38700D02*
X14500Y39200D01*
X12250Y38950D02*
X12500Y38700D01*
X10750Y38950D02*
X12250Y38950D01*
X1000Y41200D02*
X1250Y40950D01*
X1250Y40950D02*
X8750Y40950D01*
X8750Y40950D02*
X10750Y38950D01*
X17750Y59700D02*
X17750Y58700D01*
X16750Y57700D02*
X16750Y56700D01*
X17750Y58700D02*
X16750Y57700D01*
G54D40*
X16000Y62200D02*
X16250Y61950D01*
X14250Y62450D02*
X14500Y62200D01*
X11750Y63450D02*
X12000Y63700D01*
X12000Y63700D02*
X14000Y63700D01*
X16750Y59700D02*
X16750Y60200D01*
X16250Y60700D02*
X16250Y61950D01*
X16750Y60200D02*
X16250Y60700D01*
X16000Y62200D02*
X14500Y62200D01*
X11750Y63450D02*
X11750Y62700D01*
X14250Y63450D02*
X14000Y63700D01*
X14250Y62450D02*
X14250Y63450D01*
G54D39*
X15750Y56700D02*
X15750Y57700D01*
X16750Y58700D02*
X16750Y59700D01*
X15750Y57700D02*
X16750Y58700D01*
G54D40*
X15750Y59700D02*
X15750Y60450D01*
X13250Y62200D02*
X12750Y62700D01*
X13250Y60950D02*
X13250Y62200D01*
X13500Y60700D02*
X13250Y60950D01*
X15500Y60700D02*
X13500Y60700D01*
X15750Y60450D02*
X15500Y60700D01*
G54D39*
X14750Y56700D02*
X14750Y57700D01*
X15750Y58700D02*
X15750Y59700D01*
X14750Y57700D02*
X15750Y58700D01*
X13237Y59200D02*
X13237Y58212D01*
X13237Y58212D02*
X13750Y57700D01*
G54D40*
X13000Y60700D02*
X13237Y60462D01*
X13237Y60462D02*
X13237Y59200D01*
X8750Y62700D02*
X9250Y62200D01*
X11500Y60700D02*
X13000Y60700D01*
X11250Y60950D02*
X11500Y60700D01*
X11250Y61950D02*
X11250Y60950D01*
X11000Y62200D02*
X11250Y61950D01*
X9250Y62200D02*
X11000Y62200D01*
G54D39*
X14750Y58700D02*
X13750Y57700D01*
X13750Y57700D02*
X13750Y56700D01*
X14750Y58700D02*
X14750Y59700D01*
X27750Y59700D02*
X27750Y60200D01*
X27750Y60200D02*
X24250Y63700D01*
X24250Y63700D02*
X22000Y63700D01*
X22000Y63700D02*
X21750Y63450D01*
X21750Y63450D02*
X21750Y62700D01*
X24500Y44700D02*
X24500Y42200D01*
X24750Y44950D02*
X24500Y44700D01*
X25500Y44950D02*
X24750Y44950D01*
G54D40*
X25750Y60450D02*
X24000Y62200D01*
X24000Y62200D02*
X20500Y62200D01*
X20000Y63700D02*
X20250Y63450D01*
X20250Y62450D02*
X20500Y62200D01*
X20250Y63450D02*
X20250Y62450D01*
X15750Y63450D02*
X15750Y62700D01*
X16000Y63700D02*
X15750Y63450D01*
X20000Y63700D02*
X16000Y63700D01*
X25750Y59700D02*
X25750Y60450D01*
G54D39*
X23500Y42200D02*
X23500Y44200D01*
X23500Y44200D02*
X21000Y46700D01*
X21000Y46700D02*
X21000Y47200D01*
G54D40*
X22750Y47200D02*
X22750Y48200D01*
G54D39*
X17250Y58700D02*
X17250Y59200D01*
X16250Y57700D02*
X16250Y57450D01*
G54D40*
X18750Y62700D02*
X18250Y62200D01*
X17250Y61950D02*
X17250Y59200D01*
X17500Y62200D02*
X17250Y61950D01*
X18250Y62200D02*
X17500Y62200D01*
X14750Y54950D02*
X14750Y54200D01*
X15250Y55450D02*
X14750Y54950D01*
X15750Y55450D02*
X15250Y55450D01*
X16250Y55950D02*
X15750Y55450D01*
X16250Y57450D02*
X16250Y55950D01*
G54D39*
X17250Y58700D02*
X16250Y57700D01*
X9750Y48200D02*
X9750Y46700D01*
X13500Y41200D02*
X13500Y42950D01*
X9750Y46700D02*
X13500Y42950D01*
X17250Y57700D02*
X17250Y57450D01*
X19250Y60700D02*
X18500Y59950D01*
X18500Y59950D02*
X18500Y58950D01*
G54D40*
X12750Y54200D02*
X12750Y53450D01*
X12750Y53450D02*
X14000Y52200D01*
X14000Y52200D02*
X16500Y52200D01*
X16500Y52200D02*
X17250Y52950D01*
X17250Y52950D02*
X17250Y57450D01*
G54D39*
X17250Y57700D02*
X18500Y58950D01*
G54D40*
X19250Y62200D02*
X19750Y62700D01*
X19250Y60700D02*
X19250Y62200D01*
G54D41*
X9750Y61700D02*
X10750Y61700D01*
X8750Y61700D02*
X9750Y61700D01*
X14750Y61700D02*
X13750Y61700D01*
X6175Y57825D02*
X9000Y57825D01*
X5550Y58450D02*
X6175Y57825D01*
X6000Y30950D02*
X6000Y29450D01*
X6500Y31450D02*
X6000Y30950D01*
X11750Y31450D02*
X6500Y31450D01*
X-500Y18200D02*
X-3000Y18200D01*
X-3000Y18200D02*
X-3500Y17700D01*
G54D40*
X18375Y24450D02*
X20500Y24450D01*
X20500Y24450D02*
X21000Y24950D01*
G54D41*
X-7000Y38700D02*
X-7000Y38200D01*
X1000Y37950D02*
X1000Y38700D01*
X750Y37700D02*
X1000Y37950D01*
X-6500Y37700D02*
X750Y37700D01*
X-7000Y38200D02*
X-6500Y37700D01*
X27250Y58700D02*
X28500Y57450D01*
X19750Y61700D02*
X19750Y60075D01*
X19750Y60075D02*
X20125Y59700D01*
X20000Y58700D02*
X19000Y57700D01*
X19000Y57700D02*
X19000Y57200D01*
X27250Y58700D02*
X20000Y58700D01*
X20125Y58825D02*
X20125Y59700D01*
X20000Y58700D02*
X20125Y58825D01*
G54D40*
X21500Y30200D02*
X21500Y29700D01*
X21500Y29700D02*
X21000Y29200D01*
X21000Y29200D02*
X21000Y24950D01*
G54D41*
X2000Y22700D02*
X5250Y22700D01*
G54D40*
X-7000Y23825D02*
X-7000Y22700D01*
G54D39*
X4500Y23825D02*
X5125Y23825D01*
X5125Y23825D02*
X5250Y23700D01*
X5250Y22700D02*
X5250Y23700D01*
X6250Y24700D02*
X6250Y25700D01*
X5250Y23700D02*
X6250Y24700D01*
X-7000Y38700D02*
X-7000Y39825D01*
G54D40*
X-7000Y22700D02*
X-7000Y23325D01*
X-6000Y25700D02*
X-6000Y23950D01*
X-6000Y23950D02*
X-6625Y23325D01*
X-6625Y23325D02*
X-7000Y23325D01*
G54D41*
X5750Y45450D02*
X6500Y45450D01*
X7250Y49200D02*
X5750Y50700D01*
X7250Y46200D02*
X7250Y49200D01*
X6500Y45450D02*
X7250Y46200D01*
X2750Y52325D02*
X2125Y52325D01*
X2125Y52325D02*
X1750Y51950D01*
X1750Y51950D02*
X1750Y50450D01*
X1750Y50450D02*
X2000Y50200D01*
X2000Y50200D02*
X5250Y50200D01*
X5250Y50200D02*
X5750Y50700D01*
X5250Y44950D02*
X5750Y45450D01*
X5750Y50700D02*
X5750Y51200D01*
X3750Y43450D02*
X1500Y45700D01*
X1500Y45700D02*
X0Y45700D01*
G54D39*
X-7000Y38700D02*
X-7000Y39000D01*
X-7000Y39000D02*
X-6000Y40000D01*
X-6000Y40000D02*
X-6000Y41700D01*
G54D41*
X-6125Y41700D02*
X-6125Y41825D01*
X-6125Y41825D02*
X-6000Y41700D01*
X25500Y40200D02*
X27800Y40200D01*
X27800Y40200D02*
X27850Y40250D01*
X16500Y42700D02*
X16500Y42200D01*
X16750Y42950D02*
X16500Y42700D01*
X16750Y43700D02*
X16750Y42950D01*
X9250Y44200D02*
X9250Y43200D01*
G54D39*
X24000Y39700D02*
X23000Y38700D01*
X21375Y39325D02*
X21375Y39450D01*
X22000Y38700D02*
X21375Y39325D01*
X23000Y38700D02*
X22000Y38700D01*
G54D41*
X27875Y52950D02*
X28500Y52950D01*
G54D40*
X13500Y31200D02*
X14000Y31700D01*
X18375Y33325D02*
X18375Y32950D01*
X17750Y33950D02*
X18375Y33325D01*
X17250Y33950D02*
X17750Y33950D01*
X15000Y31700D02*
X17250Y33950D01*
X14000Y31700D02*
X15000Y31700D01*
X21500Y30200D02*
X21000Y30700D01*
X18625Y32700D02*
X18375Y32950D01*
X20500Y32700D02*
X18625Y32700D01*
X21000Y32200D02*
X20500Y32700D01*
X21000Y30700D02*
X21000Y32200D01*
X25500Y40200D02*
X25000Y39700D01*
X25000Y39700D02*
X24000Y39700D01*
X16500Y42200D02*
X17000Y41700D01*
X17000Y41700D02*
X17000Y38950D01*
X17000Y38950D02*
X16500Y38450D01*
X16500Y38450D02*
X16500Y38075D01*
G54D41*
X18500Y31200D02*
X18500Y32825D01*
X18500Y32825D02*
X18375Y32950D01*
X24500Y33200D02*
X23250Y33200D01*
X22750Y33700D02*
X22750Y35075D01*
X23250Y33200D02*
X22750Y33700D01*
X14500Y38200D02*
X16375Y38200D01*
X16375Y38200D02*
X16500Y38075D01*
X21500Y41200D02*
X21500Y39575D01*
X21500Y39575D02*
X21375Y39450D01*
X-7000Y22700D02*
X-7000Y22950D01*
X-7000Y22950D02*
X-7000Y23075D01*
X17750Y56700D02*
X18500Y56700D01*
X18500Y56700D02*
X19000Y57200D01*
X28500Y57450D02*
X28500Y56700D01*
X27750Y56700D02*
X28500Y56700D01*
X27750Y49700D02*
X27750Y48200D01*
X28500Y52950D02*
X28500Y50450D01*
X28500Y50450D02*
X27750Y49700D01*
X28500Y56700D02*
X28500Y52950D01*
X2000Y38700D02*
X1000Y38700D01*
X5250Y44950D02*
X5250Y43450D01*
X9000Y43200D02*
X5500Y43200D01*
X5500Y43200D02*
X5250Y43450D01*
X5250Y43450D02*
X3750Y43450D01*
X9000Y43200D02*
X11750Y43200D01*
X9250Y43200D02*
X9000Y43200D01*
G54D40*
X13500Y55700D02*
X9500Y55700D01*
X9000Y56200D02*
X9000Y56700D01*
X9500Y55700D02*
X9000Y56200D01*
X14500Y53200D02*
X14250Y53450D01*
X14250Y54950D02*
X13500Y55700D01*
X14250Y53450D02*
X14250Y54950D01*
X15750Y53450D02*
X15750Y54200D01*
X15500Y53200D02*
X15750Y53450D01*
X14500Y53200D02*
X15500Y53200D01*
X12750Y55200D02*
X8250Y55200D01*
X7750Y55700D02*
X7750Y56700D01*
X8250Y55200D02*
X7750Y55700D01*
X14000Y52700D02*
X13250Y53450D01*
X13250Y54700D02*
X12750Y55200D01*
X13250Y53450D02*
X13250Y54700D01*
X16750Y53200D02*
X16750Y54200D01*
X16250Y52700D02*
X16750Y53200D01*
X14000Y52700D02*
X16250Y52700D01*
G54D39*
X25750Y56700D02*
X25750Y57700D01*
X25750Y57700D02*
X25250Y58200D01*
X25250Y58200D02*
X21000Y58200D01*
X21000Y58200D02*
X17750Y54950D01*
X17750Y54950D02*
X17750Y54200D01*
X18750Y54200D02*
X18750Y55200D01*
X18750Y55200D02*
X21250Y57700D01*
X21250Y57700D02*
X23250Y57700D01*
X23250Y57700D02*
X23750Y57200D01*
X23750Y57200D02*
X23750Y56700D01*
X0Y49950D02*
X750Y49950D01*
X1750Y48950D02*
X6250Y48950D01*
X750Y49950D02*
X1750Y48950D01*
X-5000Y49950D02*
X-5000Y48700D01*
X3750Y51700D02*
X4500Y52450D01*
X4500Y52450D02*
X6000Y52450D01*
X6000Y52450D02*
X8000Y50450D01*
X3750Y51200D02*
X3750Y51700D01*
X8000Y50450D02*
X9250Y50450D01*
X-3000Y44450D02*
X-3000Y43950D01*
X-1000Y43950D02*
X-1000Y44450D01*
X-1250Y43700D02*
X-1000Y43950D01*
X-2750Y43700D02*
X-1250Y43700D01*
X-3000Y43950D02*
X-2750Y43700D01*
X-1000Y45700D02*
X-1000Y44450D01*
X-2000Y45700D02*
X-2000Y44450D01*
G54D40*
X-3000Y48700D02*
X-3000Y48950D01*
X-5000Y47200D02*
X-5000Y45700D01*
X-4500Y47700D02*
X-5000Y47200D01*
X-4500Y49200D02*
X-4500Y47700D01*
X-4250Y49450D02*
X-4500Y49200D01*
X-3500Y49450D02*
X-4250Y49450D01*
X-3000Y48950D02*
X-3500Y49450D01*
G54D39*
X-750Y46950D02*
X1250Y46950D01*
X1250Y46950D02*
X2250Y47950D01*
X6250Y46950D02*
X3250Y46950D01*
X3250Y46950D02*
X2250Y47950D01*
X-6000Y49950D02*
X-6000Y48700D01*
X23500Y20450D02*
X23500Y19700D01*
X24750Y18450D02*
X24750Y17450D01*
X23500Y19700D02*
X24750Y18450D01*
G54D42*
X-1500Y58450D02*
X-3000Y58450D01*
X-3000Y61050D02*
X-3000Y58450D01*
X-3000Y58450D02*
X-4750Y56700D01*
X-4750Y53950D02*
X-4750Y56700D01*
G54D39*
X18000Y29200D02*
X18000Y27450D01*
X18000Y27450D02*
X17500Y26950D01*
X17500Y26950D02*
X17500Y25700D01*
X18000Y20700D02*
X18000Y21950D01*
G54D41*
X-3000Y53700D02*
X-4500Y53700D01*
X-4500Y53700D02*
X-4750Y53950D01*
X2500Y61950D02*
X2500Y62700D01*
X24000Y64700D02*
X29000Y59700D01*
X4500Y64700D02*
X24000Y64700D01*
X2500Y62700D02*
X4500Y64700D01*
G54D39*
X17500Y25700D02*
X17500Y25200D01*
X17500Y25200D02*
X17625Y25075D01*
X17625Y25075D02*
X17625Y24450D01*
X18250Y20450D02*
X18000Y20700D01*
G54D40*
X18000Y21950D02*
X18000Y23450D01*
G54D39*
X18000Y23450D02*
X17625Y23825D01*
X17625Y23825D02*
X17625Y24450D01*
X-5750Y39700D02*
X-4250Y39700D01*
X-4000Y39450D02*
X-4000Y38700D01*
X-4250Y39700D02*
X-4000Y39450D01*
G54D41*
X4000Y36700D02*
X-7750Y36700D01*
X6250Y38200D02*
X5500Y38200D01*
X5500Y38200D02*
X4000Y36700D01*
G54D42*
X-7750Y21200D02*
X-5750Y19200D01*
X-5750Y19200D02*
X-500Y19200D01*
G54D41*
X-7000Y29450D02*
X-7750Y29450D01*
X-7000Y35450D02*
X-7750Y35450D01*
G54D42*
X-7750Y41700D02*
X-7750Y36700D01*
X-7750Y36700D02*
X-7750Y35450D01*
X-7750Y35450D02*
X-7750Y29450D01*
X-7750Y29450D02*
X-7750Y25700D01*
G54D41*
X-4000Y50450D02*
X-3500Y49950D01*
X-3500Y52450D02*
X-4000Y51950D01*
X-3000Y49950D02*
X-3500Y49950D01*
X-4000Y50450D02*
X-4000Y51950D01*
X-3500Y52450D02*
X-3000Y52450D01*
X2750Y54200D02*
X2750Y54950D01*
X4750Y56950D02*
X4750Y59700D01*
X2750Y54950D02*
X4750Y56950D01*
X6500Y59700D02*
X4750Y59700D01*
X4250Y60200D02*
X2500Y60200D01*
X4750Y59700D02*
X4250Y60200D01*
G54D42*
X-1500Y58450D02*
X750Y58450D01*
X750Y58450D02*
X2500Y60200D01*
X2500Y60200D02*
X2500Y61950D01*
G54D41*
X-7000Y48700D02*
X-7750Y48700D01*
G54D42*
X-7750Y41700D02*
X-7750Y48700D01*
X-7750Y48700D02*
X-7750Y50950D01*
X-7750Y50950D02*
X-4750Y53950D01*
G54D41*
X-7000Y41700D02*
X-7750Y41700D01*
X9000Y58575D02*
X9000Y59700D01*
G54D40*
X18000Y29200D02*
X18000Y30700D01*
G54D41*
X-7000Y25700D02*
X-7750Y25700D01*
G54D42*
X-7750Y25700D02*
X-7750Y21200D01*
G54D40*
X-7000Y24575D02*
X-7000Y25700D01*
G54D41*
X4500Y24575D02*
X4500Y25450D01*
X4500Y25450D02*
X4750Y25700D01*
X4750Y25700D02*
X5250Y25700D01*
G54D39*
X-6000Y39450D02*
X-6000Y38700D01*
X-5750Y39700D02*
X-6000Y39450D01*
X-7000Y41700D02*
X-7000Y40575D01*
G54D41*
X-2000Y48700D02*
X-2000Y49450D01*
X-2500Y49950D02*
X-3000Y49950D01*
X-2000Y49450D02*
X-2500Y49950D01*
X0Y51200D02*
X-1000Y51200D01*
X-2250Y52450D02*
X-3000Y52450D01*
X-1000Y51200D02*
X-2250Y52450D01*
X-3000Y53700D02*
X-3000Y52450D01*
X-3000Y54950D02*
X-3000Y53700D01*
X-3000Y56200D02*
X-3000Y54950D01*
X-5000Y35450D02*
X-6000Y35450D01*
X10750Y59700D02*
X9000Y59700D01*
X6500Y59700D02*
X7750Y59700D01*
X21750Y59700D02*
X20875Y59700D01*
G54D39*
X26000Y17450D02*
X24750Y17450D01*
G54D41*
X7500Y59700D02*
X8750Y59700D01*
X2750Y54200D02*
X2750Y53075D01*
X-7000Y41700D02*
X-7000Y41575D01*
X-7000Y41575D02*
X-6875Y41700D01*
G54D39*
X14500Y41200D02*
X16000Y39700D01*
X16000Y39700D02*
X16250Y39700D01*
X16250Y39700D02*
X16500Y39450D01*
G54D40*
X18500Y42200D02*
X19000Y41700D01*
X19000Y39700D02*
X19250Y39450D01*
X19000Y41700D02*
X19000Y39700D01*
G54D39*
X-6000Y45700D02*
X-6000Y46700D01*
X-6000Y46700D02*
X-7000Y47700D01*
X-7000Y47700D02*
X-7000Y48700D01*
X-1000Y48700D02*
X-2000Y48700D01*
X-6000Y44450D02*
X-6000Y45700D01*
G54D40*
X24500Y30200D02*
X25000Y30700D01*
X24000Y31700D02*
X23250Y32450D01*
X25000Y31700D02*
X24000Y31700D01*
X25000Y30700D02*
X25000Y31700D01*
G54D39*
X22750Y35825D02*
X22750Y36700D01*
X23500Y41200D02*
X23500Y40450D01*
X23500Y40450D02*
X22750Y39700D01*
G54D40*
X25500Y37200D02*
X25000Y37700D01*
X23750Y37700D02*
X22750Y36700D01*
X25000Y37700D02*
X23750Y37700D01*
G54D41*
X7000Y38200D02*
X6250Y38200D01*
X10250Y35700D02*
X10250Y36200D01*
X10250Y36200D02*
X9750Y36700D01*
X9750Y36700D02*
X8500Y36700D01*
X8500Y36700D02*
X7000Y38200D01*
G54D40*
X19250Y39450D02*
X20625Y39450D01*
X13500Y34200D02*
X14000Y33700D01*
X14000Y33700D02*
X15250Y33700D01*
X15250Y33700D02*
X16500Y34950D01*
X16500Y34950D02*
X16500Y37325D01*
X16500Y31200D02*
X17000Y30700D01*
X17000Y30700D02*
X18000Y30700D01*
X19000Y30700D02*
X19500Y30200D01*
X18000Y30700D02*
X19000Y30700D01*
G54D41*
X27125Y52950D02*
X27125Y53075D01*
X26750Y53450D02*
X26750Y54200D01*
X27125Y53075D02*
X26750Y53450D01*
X16500Y31200D02*
X16500Y32200D01*
X17500Y32950D02*
X17625Y32950D01*
X17250Y32950D02*
X17500Y32950D01*
X16500Y32200D02*
X17000Y32700D01*
X17000Y32700D02*
X17250Y32950D01*
X27750Y54200D02*
X26750Y54200D01*
X-6000Y35450D02*
X-7000Y35450D01*
X10750Y59700D02*
X10750Y56700D01*
G54D10*
G36*
X-917Y19881D02*
X-1021Y19725D01*
X-1029Y19686D01*
X-5548Y19686D01*
X-7263Y21401D01*
X-7263Y21999D01*
X-7112Y22000D01*
X-7050Y22062D01*
X-7050Y22650D01*
X-7057Y22650D01*
X-7057Y22750D01*
X-7050Y22750D01*
X-7050Y23337D01*
X-7112Y23400D01*
X-7050Y23462D01*
X-7050Y23775D01*
X-7057Y23775D01*
X-7057Y23875D01*
X-7050Y23875D01*
X-7050Y23882D01*
X-6950Y23882D01*
X-6950Y23875D01*
X-6537Y23875D01*
X-6475Y23937D01*
X-6474Y24049D01*
X-6512Y24141D01*
X-6571Y24200D01*
X-6513Y24258D01*
X-6475Y24350D01*
X-6474Y24449D01*
X-6474Y24799D01*
X-6512Y24891D01*
X-6583Y24961D01*
X-6675Y24999D01*
X-6681Y24999D01*
X-6681Y25098D01*
X-6604Y25150D01*
X-6500Y25305D01*
X-6498Y25299D01*
X-6360Y25128D01*
X-6168Y25023D01*
X-6136Y25016D01*
X-6050Y25065D01*
X-6050Y25650D01*
X-6057Y25650D01*
X-6057Y25750D01*
X-6050Y25750D01*
X-6050Y26334D01*
X-6136Y26383D01*
X-6168Y26376D01*
X-6360Y26271D01*
X-6498Y26100D01*
X-6500Y26094D01*
X-6604Y26249D01*
X-6785Y26371D01*
X-7000Y26413D01*
X-7214Y26371D01*
X-7263Y26338D01*
X-7263Y28749D01*
X-7260Y28749D01*
X-6838Y28749D01*
X-6848Y28700D01*
X-6848Y27450D01*
X-6848Y27450D01*
X-6826Y27338D01*
X-6821Y27316D01*
X-6746Y27203D01*
X-5903Y26360D01*
X-5950Y26334D01*
X-5950Y25750D01*
X-5942Y25750D01*
X-5942Y25650D01*
X-5950Y25650D01*
X-5950Y25065D01*
X-5863Y25016D01*
X-5831Y25023D01*
X-5639Y25128D01*
X-5501Y25299D01*
X-5499Y25305D01*
X-5395Y25150D01*
X-5214Y25028D01*
X-5000Y24986D01*
X-4785Y25028D01*
X-4604Y25150D01*
X-4500Y25305D01*
X-4395Y25150D01*
X-4348Y25118D01*
X-4348Y24594D01*
X-4746Y24196D01*
X-4821Y24083D01*
X-4826Y24061D01*
X-4848Y23950D01*
X-4848Y23949D01*
X-4848Y23450D01*
X-4834Y23380D01*
X-5000Y23413D01*
X-5214Y23371D01*
X-5395Y23249D01*
X-5500Y23094D01*
X-5604Y23249D01*
X-5785Y23371D01*
X-6000Y23413D01*
X-6214Y23371D01*
X-6395Y23249D01*
X-6440Y23183D01*
X-6440Y23199D01*
X-6478Y23291D01*
X-6548Y23362D01*
X-6640Y23400D01*
X-6684Y23400D01*
X-6675Y23400D01*
X-6583Y23438D01*
X-6512Y23508D01*
X-6474Y23600D01*
X-6475Y23712D01*
X-6537Y23775D01*
X-6950Y23775D01*
X-6950Y23462D01*
X-6887Y23400D01*
X-6950Y23337D01*
X-6950Y22750D01*
X-6942Y22750D01*
X-6942Y22650D01*
X-6950Y22650D01*
X-6950Y22062D01*
X-6887Y22000D01*
X-6640Y21999D01*
X-6548Y22037D01*
X-6478Y22108D01*
X-6440Y22200D01*
X-6440Y22216D01*
X-6395Y22150D01*
X-6214Y22028D01*
X-6000Y21986D01*
X-5989Y21988D01*
X-3975Y19974D01*
X-3975Y19974D01*
X-3923Y19939D01*
X-3872Y19905D01*
X-3872Y19905D01*
X-3750Y19881D01*
X-917Y19881D01*
X-917Y19881D01*
G37*
G54D43*
X-917Y19881D02*
X-1021Y19725D01*
X-1029Y19686D01*
X-5548Y19686D01*
X-7263Y21401D01*
X-7263Y21999D01*
X-7112Y22000D01*
X-7050Y22062D01*
X-7050Y22650D01*
X-7057Y22650D01*
X-7057Y22750D01*
X-7050Y22750D01*
X-7050Y23337D01*
X-7112Y23400D01*
X-7050Y23462D01*
X-7050Y23775D01*
X-7057Y23775D01*
X-7057Y23875D01*
X-7050Y23875D01*
X-7050Y23882D01*
X-6950Y23882D01*
X-6950Y23875D01*
X-6537Y23875D01*
X-6475Y23937D01*
X-6474Y24049D01*
X-6512Y24141D01*
X-6571Y24200D01*
X-6513Y24258D01*
X-6475Y24350D01*
X-6474Y24449D01*
X-6474Y24799D01*
X-6512Y24891D01*
X-6583Y24961D01*
X-6675Y24999D01*
X-6681Y24999D01*
X-6681Y25098D01*
X-6604Y25150D01*
X-6500Y25305D01*
X-6498Y25299D01*
X-6360Y25128D01*
X-6168Y25023D01*
X-6136Y25016D01*
X-6050Y25065D01*
X-6050Y25650D01*
X-6057Y25650D01*
X-6057Y25750D01*
X-6050Y25750D01*
X-6050Y26334D01*
X-6136Y26383D01*
X-6168Y26376D01*
X-6360Y26271D01*
X-6498Y26100D01*
X-6500Y26094D01*
X-6604Y26249D01*
X-6785Y26371D01*
X-7000Y26413D01*
X-7214Y26371D01*
X-7263Y26338D01*
X-7263Y28749D01*
X-7260Y28749D01*
X-6838Y28749D01*
X-6848Y28700D01*
X-6848Y27450D01*
X-6848Y27450D01*
X-6826Y27338D01*
X-6821Y27316D01*
X-6746Y27203D01*
X-5903Y26360D01*
X-5950Y26334D01*
X-5950Y25750D01*
X-5942Y25750D01*
X-5942Y25650D01*
X-5950Y25650D01*
X-5950Y25065D01*
X-5863Y25016D01*
X-5831Y25023D01*
X-5639Y25128D01*
X-5501Y25299D01*
X-5499Y25305D01*
X-5395Y25150D01*
X-5214Y25028D01*
X-5000Y24986D01*
X-4785Y25028D01*
X-4604Y25150D01*
X-4500Y25305D01*
X-4395Y25150D01*
X-4348Y25118D01*
X-4348Y24594D01*
X-4746Y24196D01*
X-4821Y24083D01*
X-4826Y24061D01*
X-4848Y23950D01*
X-4848Y23949D01*
X-4848Y23450D01*
X-4834Y23380D01*
X-5000Y23413D01*
X-5214Y23371D01*
X-5395Y23249D01*
X-5500Y23094D01*
X-5604Y23249D01*
X-5785Y23371D01*
X-6000Y23413D01*
X-6214Y23371D01*
X-6395Y23249D01*
X-6440Y23183D01*
X-6440Y23199D01*
X-6478Y23291D01*
X-6548Y23362D01*
X-6640Y23400D01*
X-6684Y23400D01*
X-6675Y23400D01*
X-6583Y23438D01*
X-6512Y23508D01*
X-6474Y23600D01*
X-6475Y23712D01*
X-6537Y23775D01*
X-6950Y23775D01*
X-6950Y23462D01*
X-6887Y23400D01*
X-6950Y23337D01*
X-6950Y22750D01*
X-6942Y22750D01*
X-6942Y22650D01*
X-6950Y22650D01*
X-6950Y22062D01*
X-6887Y22000D01*
X-6640Y21999D01*
X-6548Y22037D01*
X-6478Y22108D01*
X-6440Y22200D01*
X-6440Y22216D01*
X-6395Y22150D01*
X-6214Y22028D01*
X-6000Y21986D01*
X-5989Y21988D01*
X-3975Y19974D01*
X-3975Y19974D01*
X-3923Y19939D01*
X-3872Y19905D01*
X-3872Y19905D01*
X-3750Y19881D01*
X-917Y19881D01*
G54D10*
G36*
X6849Y38607D02*
X6697Y38607D01*
X6592Y38712D01*
X6370Y38804D01*
X6130Y38804D01*
X5908Y38712D01*
X5802Y38607D01*
X5500Y38607D01*
X5344Y38576D01*
X5211Y38488D01*
X5211Y38488D01*
X3831Y37107D01*
X1950Y37107D01*
X1950Y38065D01*
X1950Y38650D01*
X1950Y38750D01*
X1950Y39334D01*
X1863Y39383D01*
X1831Y39376D01*
X1639Y39271D01*
X1501Y39100D01*
X1500Y39094D01*
X1498Y39100D01*
X1360Y39271D01*
X1168Y39376D01*
X1136Y39383D01*
X1050Y39334D01*
X1050Y38750D01*
X1440Y38750D01*
X1560Y38750D01*
X1950Y38750D01*
X1950Y38650D01*
X1560Y38650D01*
X1440Y38650D01*
X1050Y38650D01*
X1050Y38065D01*
X1136Y38016D01*
X1168Y38023D01*
X1360Y38128D01*
X1498Y38299D01*
X1500Y38305D01*
X1501Y38299D01*
X1639Y38128D01*
X1831Y38023D01*
X1863Y38016D01*
X1950Y38065D01*
X1950Y37107D01*
X950Y37107D01*
X950Y38065D01*
X950Y38650D01*
X942Y38650D01*
X942Y38750D01*
X950Y38750D01*
X950Y39334D01*
X863Y39383D01*
X831Y39376D01*
X639Y39271D01*
X501Y39100D01*
X499Y39094D01*
X395Y39249D01*
X214Y39371D01*
X0Y39413D01*
X-214Y39371D01*
X-395Y39249D01*
X-500Y39094D01*
X-604Y39249D01*
X-785Y39371D01*
X-1000Y39413D01*
X-1214Y39371D01*
X-1395Y39249D01*
X-1500Y39094D01*
X-1604Y39249D01*
X-1785Y39371D01*
X-2000Y39413D01*
X-2214Y39371D01*
X-2395Y39249D01*
X-2500Y39094D01*
X-2604Y39249D01*
X-2785Y39371D01*
X-3000Y39413D01*
X-3214Y39371D01*
X-3395Y39249D01*
X-3500Y39094D01*
X-3604Y39249D01*
X-3651Y39281D01*
X-3651Y39450D01*
X-3678Y39583D01*
X-3753Y39696D01*
X-3753Y39696D01*
X-4003Y39946D01*
X-4116Y40021D01*
X-4138Y40026D01*
X-4250Y40048D01*
X-4250Y40048D01*
X-5750Y40048D01*
X-5883Y40021D01*
X-5996Y39946D01*
X-5996Y39946D01*
X-6246Y39696D01*
X-6321Y39583D01*
X-6326Y39561D01*
X-6348Y39450D01*
X-6348Y39449D01*
X-6348Y39281D01*
X-6395Y39249D01*
X-6440Y39183D01*
X-6440Y39199D01*
X-6478Y39291D01*
X-6548Y39362D01*
X-6640Y39400D01*
X-6684Y39400D01*
X-6675Y39400D01*
X-6583Y39438D01*
X-6512Y39508D01*
X-6474Y39600D01*
X-6475Y39712D01*
X-6537Y39775D01*
X-6950Y39775D01*
X-6950Y39462D01*
X-6887Y39400D01*
X-6950Y39337D01*
X-6950Y38750D01*
X-6942Y38750D01*
X-6942Y38650D01*
X-6950Y38650D01*
X-6950Y38062D01*
X-6887Y38000D01*
X-6640Y37999D01*
X-6548Y38037D01*
X-6478Y38108D01*
X-6440Y38200D01*
X-6440Y38216D01*
X-6395Y38150D01*
X-6214Y38028D01*
X-6000Y37986D01*
X-5785Y38028D01*
X-5604Y38150D01*
X-5500Y38305D01*
X-5395Y38150D01*
X-5214Y38028D01*
X-5000Y37986D01*
X-4785Y38028D01*
X-4604Y38150D01*
X-4500Y38305D01*
X-4395Y38150D01*
X-4214Y38028D01*
X-4000Y37986D01*
X-3785Y38028D01*
X-3604Y38150D01*
X-3500Y38305D01*
X-3395Y38150D01*
X-3214Y38028D01*
X-3000Y37986D01*
X-2785Y38028D01*
X-2604Y38150D01*
X-2500Y38305D01*
X-2395Y38150D01*
X-2214Y38028D01*
X-2000Y37986D01*
X-1785Y38028D01*
X-1604Y38150D01*
X-1500Y38305D01*
X-1395Y38150D01*
X-1214Y38028D01*
X-1000Y37986D01*
X-785Y38028D01*
X-604Y38150D01*
X-500Y38305D01*
X-395Y38150D01*
X-214Y38028D01*
X0Y37986D01*
X214Y38028D01*
X395Y38150D01*
X499Y38305D01*
X501Y38299D01*
X639Y38128D01*
X831Y38023D01*
X863Y38016D01*
X950Y38065D01*
X950Y37107D01*
X-7263Y37107D01*
X-7263Y37999D01*
X-7112Y38000D01*
X-7050Y38062D01*
X-7050Y38650D01*
X-7057Y38650D01*
X-7057Y38750D01*
X-7050Y38750D01*
X-7050Y39337D01*
X-7112Y39400D01*
X-7050Y39462D01*
X-7050Y39775D01*
X-7057Y39775D01*
X-7057Y39875D01*
X-7050Y39875D01*
X-7050Y39882D01*
X-6950Y39882D01*
X-6950Y39875D01*
X-6537Y39875D01*
X-6475Y39937D01*
X-6474Y40049D01*
X-6512Y40141D01*
X-6571Y40200D01*
X-6513Y40258D01*
X-6475Y40350D01*
X-6474Y40449D01*
X-6474Y40799D01*
X-6512Y40891D01*
X-6583Y40961D01*
X-6651Y40990D01*
X-6651Y41118D01*
X-6604Y41150D01*
X-6500Y41305D01*
X-6498Y41299D01*
X-6360Y41128D01*
X-6168Y41023D01*
X-6136Y41016D01*
X-6050Y41065D01*
X-6050Y41650D01*
X-6057Y41650D01*
X-6057Y41750D01*
X-6050Y41750D01*
X-6050Y42334D01*
X-6136Y42383D01*
X-6168Y42376D01*
X-6360Y42271D01*
X-6498Y42100D01*
X-6500Y42094D01*
X-6604Y42249D01*
X-6785Y42371D01*
X-7000Y42413D01*
X-7214Y42371D01*
X-7263Y42338D01*
X-7263Y44229D01*
X-7246Y44203D01*
X-5996Y42953D01*
X-5996Y42953D01*
X-5883Y42878D01*
X-5883Y42878D01*
X-5861Y42873D01*
X-5750Y42851D01*
X-5750Y42851D01*
X-5749Y42851D01*
X-5144Y42851D01*
X-4848Y42555D01*
X-4848Y42450D01*
X-4834Y42380D01*
X-5000Y42413D01*
X-5214Y42371D01*
X-5395Y42249D01*
X-5499Y42094D01*
X-5501Y42100D01*
X-5639Y42271D01*
X-5831Y42376D01*
X-5863Y42383D01*
X-5950Y42334D01*
X-5950Y41750D01*
X-5942Y41750D01*
X-5942Y41650D01*
X-5950Y41650D01*
X-5950Y41065D01*
X-5863Y41016D01*
X-5831Y41023D01*
X-5639Y41128D01*
X-5501Y41299D01*
X-5499Y41305D01*
X-5395Y41150D01*
X-5214Y41028D01*
X-5000Y40986D01*
X-4795Y41026D01*
X-4746Y40953D01*
X-4246Y40453D01*
X-4246Y40453D01*
X-4133Y40378D01*
X-4000Y40351D01*
X-4000Y40351D01*
X-3999Y40351D01*
X-1000Y40351D01*
X-644Y40351D01*
X3Y39703D01*
X3Y39703D01*
X116Y39628D01*
X249Y39601D01*
X249Y39601D01*
X250Y39601D01*
X3130Y39601D01*
X3038Y39509D01*
X2954Y39308D01*
X2954Y39147D01*
X2753Y38946D01*
X2678Y38833D01*
X2673Y38811D01*
X2651Y38700D01*
X2651Y38699D01*
X2651Y38122D01*
X2560Y38031D01*
X2560Y38510D01*
X2560Y38650D01*
X2560Y38750D01*
X2560Y38890D01*
X2498Y39100D01*
X2360Y39271D01*
X2168Y39376D01*
X2136Y39383D01*
X2050Y39334D01*
X2050Y38750D01*
X2560Y38750D01*
X2560Y38650D01*
X2050Y38650D01*
X2050Y38065D01*
X2136Y38016D01*
X2168Y38023D01*
X2360Y38128D01*
X2498Y38299D01*
X2560Y38510D01*
X2560Y38031D01*
X2538Y38009D01*
X2454Y37808D01*
X2454Y37592D01*
X2537Y37391D01*
X2690Y37238D01*
X2891Y37154D01*
X3107Y37154D01*
X3308Y37237D01*
X3461Y37390D01*
X3545Y37591D01*
X3545Y37807D01*
X3462Y38008D01*
X3348Y38122D01*
X3348Y38555D01*
X3447Y38654D01*
X3607Y38654D01*
X3808Y38737D01*
X3961Y38890D01*
X4045Y39091D01*
X4045Y39307D01*
X3962Y39508D01*
X3869Y39601D01*
X5855Y39601D01*
X6849Y38607D01*
X6849Y38607D01*
G37*
G54D43*
X6849Y38607D02*
X6697Y38607D01*
X6592Y38712D01*
X6370Y38804D01*
X6130Y38804D01*
X5908Y38712D01*
X5802Y38607D01*
X5500Y38607D01*
X5344Y38576D01*
X5211Y38488D01*
X5211Y38488D01*
X3831Y37107D01*
X1950Y37107D01*
X1950Y38065D01*
X1950Y38650D01*
X1950Y38750D01*
X1950Y39334D01*
X1863Y39383D01*
X1831Y39376D01*
X1639Y39271D01*
X1501Y39100D01*
X1500Y39094D01*
X1498Y39100D01*
X1360Y39271D01*
X1168Y39376D01*
X1136Y39383D01*
X1050Y39334D01*
X1050Y38750D01*
X1440Y38750D01*
X1560Y38750D01*
X1950Y38750D01*
X1950Y38650D01*
X1560Y38650D01*
X1440Y38650D01*
X1050Y38650D01*
X1050Y38065D01*
X1136Y38016D01*
X1168Y38023D01*
X1360Y38128D01*
X1498Y38299D01*
X1500Y38305D01*
X1501Y38299D01*
X1639Y38128D01*
X1831Y38023D01*
X1863Y38016D01*
X1950Y38065D01*
X1950Y37107D01*
X950Y37107D01*
X950Y38065D01*
X950Y38650D01*
X942Y38650D01*
X942Y38750D01*
X950Y38750D01*
X950Y39334D01*
X863Y39383D01*
X831Y39376D01*
X639Y39271D01*
X501Y39100D01*
X499Y39094D01*
X395Y39249D01*
X214Y39371D01*
X0Y39413D01*
X-214Y39371D01*
X-395Y39249D01*
X-500Y39094D01*
X-604Y39249D01*
X-785Y39371D01*
X-1000Y39413D01*
X-1214Y39371D01*
X-1395Y39249D01*
X-1500Y39094D01*
X-1604Y39249D01*
X-1785Y39371D01*
X-2000Y39413D01*
X-2214Y39371D01*
X-2395Y39249D01*
X-2500Y39094D01*
X-2604Y39249D01*
X-2785Y39371D01*
X-3000Y39413D01*
X-3214Y39371D01*
X-3395Y39249D01*
X-3500Y39094D01*
X-3604Y39249D01*
X-3651Y39281D01*
X-3651Y39450D01*
X-3678Y39583D01*
X-3753Y39696D01*
X-3753Y39696D01*
X-4003Y39946D01*
X-4116Y40021D01*
X-4138Y40026D01*
X-4250Y40048D01*
X-4250Y40048D01*
X-5750Y40048D01*
X-5883Y40021D01*
X-5996Y39946D01*
X-5996Y39946D01*
X-6246Y39696D01*
X-6321Y39583D01*
X-6326Y39561D01*
X-6348Y39450D01*
X-6348Y39449D01*
X-6348Y39281D01*
X-6395Y39249D01*
X-6440Y39183D01*
X-6440Y39199D01*
X-6478Y39291D01*
X-6548Y39362D01*
X-6640Y39400D01*
X-6684Y39400D01*
X-6675Y39400D01*
X-6583Y39438D01*
X-6512Y39508D01*
X-6474Y39600D01*
X-6475Y39712D01*
X-6537Y39775D01*
X-6950Y39775D01*
X-6950Y39462D01*
X-6887Y39400D01*
X-6950Y39337D01*
X-6950Y38750D01*
X-6942Y38750D01*
X-6942Y38650D01*
X-6950Y38650D01*
X-6950Y38062D01*
X-6887Y38000D01*
X-6640Y37999D01*
X-6548Y38037D01*
X-6478Y38108D01*
X-6440Y38200D01*
X-6440Y38216D01*
X-6395Y38150D01*
X-6214Y38028D01*
X-6000Y37986D01*
X-5785Y38028D01*
X-5604Y38150D01*
X-5500Y38305D01*
X-5395Y38150D01*
X-5214Y38028D01*
X-5000Y37986D01*
X-4785Y38028D01*
X-4604Y38150D01*
X-4500Y38305D01*
X-4395Y38150D01*
X-4214Y38028D01*
X-4000Y37986D01*
X-3785Y38028D01*
X-3604Y38150D01*
X-3500Y38305D01*
X-3395Y38150D01*
X-3214Y38028D01*
X-3000Y37986D01*
X-2785Y38028D01*
X-2604Y38150D01*
X-2500Y38305D01*
X-2395Y38150D01*
X-2214Y38028D01*
X-2000Y37986D01*
X-1785Y38028D01*
X-1604Y38150D01*
X-1500Y38305D01*
X-1395Y38150D01*
X-1214Y38028D01*
X-1000Y37986D01*
X-785Y38028D01*
X-604Y38150D01*
X-500Y38305D01*
X-395Y38150D01*
X-214Y38028D01*
X0Y37986D01*
X214Y38028D01*
X395Y38150D01*
X499Y38305D01*
X501Y38299D01*
X639Y38128D01*
X831Y38023D01*
X863Y38016D01*
X950Y38065D01*
X950Y37107D01*
X-7263Y37107D01*
X-7263Y37999D01*
X-7112Y38000D01*
X-7050Y38062D01*
X-7050Y38650D01*
X-7057Y38650D01*
X-7057Y38750D01*
X-7050Y38750D01*
X-7050Y39337D01*
X-7112Y39400D01*
X-7050Y39462D01*
X-7050Y39775D01*
X-7057Y39775D01*
X-7057Y39875D01*
X-7050Y39875D01*
X-7050Y39882D01*
X-6950Y39882D01*
X-6950Y39875D01*
X-6537Y39875D01*
X-6475Y39937D01*
X-6474Y40049D01*
X-6512Y40141D01*
X-6571Y40200D01*
X-6513Y40258D01*
X-6475Y40350D01*
X-6474Y40449D01*
X-6474Y40799D01*
X-6512Y40891D01*
X-6583Y40961D01*
X-6651Y40990D01*
X-6651Y41118D01*
X-6604Y41150D01*
X-6500Y41305D01*
X-6498Y41299D01*
X-6360Y41128D01*
X-6168Y41023D01*
X-6136Y41016D01*
X-6050Y41065D01*
X-6050Y41650D01*
X-6057Y41650D01*
X-6057Y41750D01*
X-6050Y41750D01*
X-6050Y42334D01*
X-6136Y42383D01*
X-6168Y42376D01*
X-6360Y42271D01*
X-6498Y42100D01*
X-6500Y42094D01*
X-6604Y42249D01*
X-6785Y42371D01*
X-7000Y42413D01*
X-7214Y42371D01*
X-7263Y42338D01*
X-7263Y44229D01*
X-7246Y44203D01*
X-5996Y42953D01*
X-5996Y42953D01*
X-5883Y42878D01*
X-5883Y42878D01*
X-5861Y42873D01*
X-5750Y42851D01*
X-5750Y42851D01*
X-5749Y42851D01*
X-5144Y42851D01*
X-4848Y42555D01*
X-4848Y42450D01*
X-4834Y42380D01*
X-5000Y42413D01*
X-5214Y42371D01*
X-5395Y42249D01*
X-5499Y42094D01*
X-5501Y42100D01*
X-5639Y42271D01*
X-5831Y42376D01*
X-5863Y42383D01*
X-5950Y42334D01*
X-5950Y41750D01*
X-5942Y41750D01*
X-5942Y41650D01*
X-5950Y41650D01*
X-5950Y41065D01*
X-5863Y41016D01*
X-5831Y41023D01*
X-5639Y41128D01*
X-5501Y41299D01*
X-5499Y41305D01*
X-5395Y41150D01*
X-5214Y41028D01*
X-5000Y40986D01*
X-4795Y41026D01*
X-4746Y40953D01*
X-4246Y40453D01*
X-4246Y40453D01*
X-4133Y40378D01*
X-4000Y40351D01*
X-4000Y40351D01*
X-3999Y40351D01*
X-1000Y40351D01*
X-644Y40351D01*
X3Y39703D01*
X3Y39703D01*
X116Y39628D01*
X249Y39601D01*
X249Y39601D01*
X250Y39601D01*
X3130Y39601D01*
X3038Y39509D01*
X2954Y39308D01*
X2954Y39147D01*
X2753Y38946D01*
X2678Y38833D01*
X2673Y38811D01*
X2651Y38700D01*
X2651Y38699D01*
X2651Y38122D01*
X2560Y38031D01*
X2560Y38510D01*
X2560Y38650D01*
X2560Y38750D01*
X2560Y38890D01*
X2498Y39100D01*
X2360Y39271D01*
X2168Y39376D01*
X2136Y39383D01*
X2050Y39334D01*
X2050Y38750D01*
X2560Y38750D01*
X2560Y38650D01*
X2050Y38650D01*
X2050Y38065D01*
X2136Y38016D01*
X2168Y38023D01*
X2360Y38128D01*
X2498Y38299D01*
X2560Y38510D01*
X2560Y38031D01*
X2538Y38009D01*
X2454Y37808D01*
X2454Y37592D01*
X2537Y37391D01*
X2690Y37238D01*
X2891Y37154D01*
X3107Y37154D01*
X3308Y37237D01*
X3461Y37390D01*
X3545Y37591D01*
X3545Y37807D01*
X3462Y38008D01*
X3348Y38122D01*
X3348Y38555D01*
X3447Y38654D01*
X3607Y38654D01*
X3808Y38737D01*
X3961Y38890D01*
X4045Y39091D01*
X4045Y39307D01*
X3962Y39508D01*
X3869Y39601D01*
X5855Y39601D01*
X6849Y38607D01*
G54D10*
G36*
X7901Y24594D02*
X7355Y24048D01*
X7000Y24048D01*
X6866Y24021D01*
X6753Y23946D01*
X6753Y23946D01*
X6503Y23696D01*
X6428Y23583D01*
X6401Y23450D01*
X6415Y23380D01*
X6250Y23413D01*
X6200Y23403D01*
X6200Y25065D01*
X6200Y25650D01*
X6192Y25650D01*
X6192Y25750D01*
X6200Y25750D01*
X6200Y26334D01*
X6113Y26383D01*
X6081Y26376D01*
X5889Y26271D01*
X5751Y26100D01*
X5749Y26094D01*
X5645Y26249D01*
X5464Y26371D01*
X5250Y26413D01*
X5035Y26371D01*
X4854Y26249D01*
X4758Y26107D01*
X4750Y26107D01*
X4594Y26076D01*
X4461Y25988D01*
X4461Y25988D01*
X4211Y25738D01*
X4123Y25605D01*
X4092Y25450D01*
X4092Y25449D01*
X4092Y24965D01*
X4083Y24962D01*
X4013Y24891D01*
X3975Y24799D01*
X3974Y24700D01*
X3974Y24350D01*
X4012Y24258D01*
X4071Y24200D01*
X4012Y24141D01*
X3974Y24049D01*
X3975Y23937D01*
X4037Y23875D01*
X4450Y23875D01*
X4450Y23882D01*
X4550Y23882D01*
X4550Y23875D01*
X4962Y23875D01*
X5025Y23937D01*
X5025Y24049D01*
X4987Y24141D01*
X4928Y24200D01*
X4986Y24258D01*
X5024Y24350D01*
X5025Y24449D01*
X5025Y24799D01*
X4987Y24891D01*
X4916Y24961D01*
X4907Y24965D01*
X4907Y25114D01*
X5035Y25028D01*
X5250Y24986D01*
X5464Y25028D01*
X5645Y25150D01*
X5749Y25305D01*
X5751Y25299D01*
X5889Y25128D01*
X6081Y25023D01*
X6113Y25016D01*
X6200Y25065D01*
X6200Y23403D01*
X6035Y23371D01*
X5854Y23249D01*
X5809Y23183D01*
X5809Y23199D01*
X5771Y23291D01*
X5701Y23362D01*
X5609Y23400D01*
X5362Y23400D01*
X5300Y23337D01*
X5300Y22750D01*
X5307Y22750D01*
X5307Y22650D01*
X5300Y22650D01*
X5300Y22062D01*
X5362Y22000D01*
X5598Y21999D01*
X5200Y21600D01*
X5200Y22062D01*
X5200Y22650D01*
X5200Y22750D01*
X5200Y23337D01*
X5137Y23400D01*
X5025Y23400D01*
X5025Y23600D01*
X5025Y23712D01*
X4962Y23775D01*
X4550Y23775D01*
X4550Y23462D01*
X4612Y23400D01*
X4725Y23399D01*
X4824Y23400D01*
X4916Y23438D01*
X4987Y23508D01*
X5025Y23600D01*
X5025Y23400D01*
X4890Y23400D01*
X4798Y23362D01*
X4728Y23291D01*
X4690Y23199D01*
X4689Y23100D01*
X4690Y22812D01*
X4752Y22750D01*
X5200Y22750D01*
X5200Y22650D01*
X4752Y22650D01*
X4690Y22587D01*
X4689Y22299D01*
X4690Y22200D01*
X4728Y22108D01*
X4798Y22037D01*
X4890Y21999D01*
X5137Y22000D01*
X5200Y22062D01*
X5200Y21600D01*
X4450Y20850D01*
X4450Y23462D01*
X4450Y23775D01*
X4037Y23775D01*
X3975Y23712D01*
X3974Y23600D01*
X4012Y23508D01*
X4083Y23438D01*
X4175Y23400D01*
X4274Y23399D01*
X4387Y23400D01*
X4450Y23462D01*
X4450Y20850D01*
X4274Y20675D01*
X4205Y20572D01*
X4181Y20450D01*
X4181Y19962D01*
X4100Y19908D01*
X4000Y19758D01*
X3899Y19908D01*
X3818Y19962D01*
X3818Y20950D01*
X3794Y21072D01*
X3794Y21072D01*
X3760Y21123D01*
X3725Y21175D01*
X3725Y21175D01*
X2725Y22175D01*
X2622Y22244D01*
X2500Y22268D01*
X2473Y22268D01*
X2498Y22299D01*
X2560Y22510D01*
X2560Y22650D01*
X2560Y22750D01*
X2560Y22890D01*
X2498Y23100D01*
X2360Y23271D01*
X2168Y23376D01*
X2136Y23383D01*
X2050Y23334D01*
X2050Y22750D01*
X2560Y22750D01*
X2560Y22650D01*
X2050Y22650D01*
X2050Y22642D01*
X1950Y22642D01*
X1950Y22650D01*
X1942Y22650D01*
X1942Y22750D01*
X1950Y22750D01*
X1950Y23334D01*
X1903Y23360D01*
X2246Y23703D01*
X2246Y23703D01*
X2246Y23703D01*
X2321Y23816D01*
X2348Y23950D01*
X2348Y23950D01*
X2348Y23950D01*
X2348Y25118D01*
X2395Y25150D01*
X2517Y25331D01*
X2560Y25546D01*
X2560Y25853D01*
X2517Y26068D01*
X2395Y26249D01*
X2214Y26371D01*
X2000Y26413D01*
X1785Y26371D01*
X1604Y26249D01*
X1500Y26094D01*
X1395Y26249D01*
X1214Y26371D01*
X1000Y26413D01*
X785Y26371D01*
X604Y26249D01*
X500Y26094D01*
X395Y26249D01*
X214Y26371D01*
X0Y26413D01*
X-214Y26371D01*
X-395Y26249D01*
X-500Y26094D01*
X-604Y26249D01*
X-670Y26293D01*
X-678Y26333D01*
X-753Y26446D01*
X-753Y26446D01*
X-1003Y26696D01*
X-1116Y26771D01*
X-1138Y26776D01*
X-1250Y26798D01*
X-1250Y26798D01*
X-2355Y26798D01*
X-2438Y26881D01*
X6617Y26881D01*
X6931Y26567D01*
X6931Y26301D01*
X6854Y26249D01*
X6750Y26094D01*
X6748Y26100D01*
X6610Y26271D01*
X6418Y26376D01*
X6386Y26383D01*
X6300Y26334D01*
X6300Y25750D01*
X6307Y25750D01*
X6307Y25650D01*
X6300Y25650D01*
X6300Y25065D01*
X6386Y25016D01*
X6418Y25023D01*
X6610Y25128D01*
X6748Y25299D01*
X6750Y25305D01*
X6854Y25150D01*
X7035Y25028D01*
X7250Y24986D01*
X7464Y25028D01*
X7645Y25150D01*
X7750Y25305D01*
X7854Y25150D01*
X7901Y25118D01*
X7901Y24594D01*
X7901Y24594D01*
G37*
G54D43*
X7901Y24594D02*
X7355Y24048D01*
X7000Y24048D01*
X6866Y24021D01*
X6753Y23946D01*
X6753Y23946D01*
X6503Y23696D01*
X6428Y23583D01*
X6401Y23450D01*
X6415Y23380D01*
X6250Y23413D01*
X6200Y23403D01*
X6200Y25065D01*
X6200Y25650D01*
X6192Y25650D01*
X6192Y25750D01*
X6200Y25750D01*
X6200Y26334D01*
X6113Y26383D01*
X6081Y26376D01*
X5889Y26271D01*
X5751Y26100D01*
X5749Y26094D01*
X5645Y26249D01*
X5464Y26371D01*
X5250Y26413D01*
X5035Y26371D01*
X4854Y26249D01*
X4758Y26107D01*
X4750Y26107D01*
X4594Y26076D01*
X4461Y25988D01*
X4461Y25988D01*
X4211Y25738D01*
X4123Y25605D01*
X4092Y25450D01*
X4092Y25449D01*
X4092Y24965D01*
X4083Y24962D01*
X4013Y24891D01*
X3975Y24799D01*
X3974Y24700D01*
X3974Y24350D01*
X4012Y24258D01*
X4071Y24200D01*
X4012Y24141D01*
X3974Y24049D01*
X3975Y23937D01*
X4037Y23875D01*
X4450Y23875D01*
X4450Y23882D01*
X4550Y23882D01*
X4550Y23875D01*
X4962Y23875D01*
X5025Y23937D01*
X5025Y24049D01*
X4987Y24141D01*
X4928Y24200D01*
X4986Y24258D01*
X5024Y24350D01*
X5025Y24449D01*
X5025Y24799D01*
X4987Y24891D01*
X4916Y24961D01*
X4907Y24965D01*
X4907Y25114D01*
X5035Y25028D01*
X5250Y24986D01*
X5464Y25028D01*
X5645Y25150D01*
X5749Y25305D01*
X5751Y25299D01*
X5889Y25128D01*
X6081Y25023D01*
X6113Y25016D01*
X6200Y25065D01*
X6200Y23403D01*
X6035Y23371D01*
X5854Y23249D01*
X5809Y23183D01*
X5809Y23199D01*
X5771Y23291D01*
X5701Y23362D01*
X5609Y23400D01*
X5362Y23400D01*
X5300Y23337D01*
X5300Y22750D01*
X5307Y22750D01*
X5307Y22650D01*
X5300Y22650D01*
X5300Y22062D01*
X5362Y22000D01*
X5598Y21999D01*
X5200Y21600D01*
X5200Y22062D01*
X5200Y22650D01*
X5200Y22750D01*
X5200Y23337D01*
X5137Y23400D01*
X5025Y23400D01*
X5025Y23600D01*
X5025Y23712D01*
X4962Y23775D01*
X4550Y23775D01*
X4550Y23462D01*
X4612Y23400D01*
X4725Y23399D01*
X4824Y23400D01*
X4916Y23438D01*
X4987Y23508D01*
X5025Y23600D01*
X5025Y23400D01*
X4890Y23400D01*
X4798Y23362D01*
X4728Y23291D01*
X4690Y23199D01*
X4689Y23100D01*
X4690Y22812D01*
X4752Y22750D01*
X5200Y22750D01*
X5200Y22650D01*
X4752Y22650D01*
X4690Y22587D01*
X4689Y22299D01*
X4690Y22200D01*
X4728Y22108D01*
X4798Y22037D01*
X4890Y21999D01*
X5137Y22000D01*
X5200Y22062D01*
X5200Y21600D01*
X4450Y20850D01*
X4450Y23462D01*
X4450Y23775D01*
X4037Y23775D01*
X3975Y23712D01*
X3974Y23600D01*
X4012Y23508D01*
X4083Y23438D01*
X4175Y23400D01*
X4274Y23399D01*
X4387Y23400D01*
X4450Y23462D01*
X4450Y20850D01*
X4274Y20675D01*
X4205Y20572D01*
X4181Y20450D01*
X4181Y19962D01*
X4100Y19908D01*
X4000Y19758D01*
X3899Y19908D01*
X3818Y19962D01*
X3818Y20950D01*
X3794Y21072D01*
X3794Y21072D01*
X3760Y21123D01*
X3725Y21175D01*
X3725Y21175D01*
X2725Y22175D01*
X2622Y22244D01*
X2500Y22268D01*
X2473Y22268D01*
X2498Y22299D01*
X2560Y22510D01*
X2560Y22650D01*
X2560Y22750D01*
X2560Y22890D01*
X2498Y23100D01*
X2360Y23271D01*
X2168Y23376D01*
X2136Y23383D01*
X2050Y23334D01*
X2050Y22750D01*
X2560Y22750D01*
X2560Y22650D01*
X2050Y22650D01*
X2050Y22642D01*
X1950Y22642D01*
X1950Y22650D01*
X1942Y22650D01*
X1942Y22750D01*
X1950Y22750D01*
X1950Y23334D01*
X1903Y23360D01*
X2246Y23703D01*
X2246Y23703D01*
X2246Y23703D01*
X2321Y23816D01*
X2348Y23950D01*
X2348Y23950D01*
X2348Y23950D01*
X2348Y25118D01*
X2395Y25150D01*
X2517Y25331D01*
X2560Y25546D01*
X2560Y25853D01*
X2517Y26068D01*
X2395Y26249D01*
X2214Y26371D01*
X2000Y26413D01*
X1785Y26371D01*
X1604Y26249D01*
X1500Y26094D01*
X1395Y26249D01*
X1214Y26371D01*
X1000Y26413D01*
X785Y26371D01*
X604Y26249D01*
X500Y26094D01*
X395Y26249D01*
X214Y26371D01*
X0Y26413D01*
X-214Y26371D01*
X-395Y26249D01*
X-500Y26094D01*
X-604Y26249D01*
X-670Y26293D01*
X-678Y26333D01*
X-753Y26446D01*
X-753Y26446D01*
X-1003Y26696D01*
X-1116Y26771D01*
X-1138Y26776D01*
X-1250Y26798D01*
X-1250Y26798D01*
X-2355Y26798D01*
X-2438Y26881D01*
X6617Y26881D01*
X6931Y26567D01*
X6931Y26301D01*
X6854Y26249D01*
X6750Y26094D01*
X6748Y26100D01*
X6610Y26271D01*
X6418Y26376D01*
X6386Y26383D01*
X6300Y26334D01*
X6300Y25750D01*
X6307Y25750D01*
X6307Y25650D01*
X6300Y25650D01*
X6300Y25065D01*
X6386Y25016D01*
X6418Y25023D01*
X6610Y25128D01*
X6748Y25299D01*
X6750Y25305D01*
X6854Y25150D01*
X7035Y25028D01*
X7250Y24986D01*
X7464Y25028D01*
X7645Y25150D01*
X7750Y25305D01*
X7854Y25150D01*
X7901Y25118D01*
X7901Y24594D01*
G54D10*
G36*
X10344Y56018D02*
X9632Y56018D01*
X9388Y56262D01*
X9495Y56368D01*
X9584Y56583D01*
X9584Y56815D01*
X9525Y56960D01*
X9525Y57600D01*
X9525Y57712D01*
X9462Y57775D01*
X9050Y57775D01*
X9050Y57462D01*
X9112Y57400D01*
X9225Y57399D01*
X9324Y57400D01*
X9416Y57438D01*
X9487Y57508D01*
X9525Y57600D01*
X9525Y56960D01*
X9495Y57030D01*
X9331Y57195D01*
X9116Y57284D01*
X8950Y57284D01*
X8950Y57462D01*
X8950Y57775D01*
X8537Y57775D01*
X8475Y57712D01*
X8474Y57600D01*
X8512Y57508D01*
X8583Y57438D01*
X8675Y57400D01*
X8774Y57399D01*
X8887Y57400D01*
X8950Y57462D01*
X8950Y57284D01*
X8884Y57284D01*
X8669Y57195D01*
X8504Y57031D01*
X8415Y56816D01*
X8415Y56584D01*
X8504Y56369D01*
X8668Y56204D01*
X8681Y56199D01*
X8705Y56077D01*
X8774Y55974D01*
X9230Y55518D01*
X8382Y55518D01*
X8068Y55832D01*
X8068Y56199D01*
X8080Y56204D01*
X8245Y56368D01*
X8334Y56583D01*
X8334Y56815D01*
X8245Y57030D01*
X8081Y57195D01*
X7866Y57284D01*
X7634Y57284D01*
X7419Y57195D01*
X7254Y57031D01*
X7165Y56816D01*
X7165Y56584D01*
X7254Y56369D01*
X7418Y56204D01*
X7431Y56199D01*
X7431Y55700D01*
X7455Y55577D01*
X7524Y55474D01*
X8024Y54974D01*
X8024Y54974D01*
X8076Y54939D01*
X8127Y54905D01*
X8127Y54905D01*
X8250Y54881D01*
X8586Y54881D01*
X8535Y54871D01*
X8354Y54749D01*
X8232Y54568D01*
X8190Y54353D01*
X8190Y54046D01*
X8232Y53831D01*
X8354Y53650D01*
X8535Y53528D01*
X8750Y53486D01*
X8964Y53528D01*
X9145Y53650D01*
X9250Y53805D01*
X9354Y53650D01*
X9401Y53618D01*
X9401Y53298D01*
X8394Y53298D01*
X7348Y54344D01*
X7348Y55449D01*
X7348Y55450D01*
X7348Y55450D01*
X7321Y55583D01*
X7246Y55696D01*
X7246Y55696D01*
X6848Y56094D01*
X6848Y56221D01*
X6995Y56368D01*
X7084Y56583D01*
X7084Y56815D01*
X6995Y57030D01*
X6831Y57195D01*
X6616Y57284D01*
X6384Y57284D01*
X6169Y57195D01*
X6004Y57031D01*
X5915Y56816D01*
X5915Y56584D01*
X6004Y56369D01*
X6151Y56221D01*
X6151Y55950D01*
X6151Y55950D01*
X6173Y55838D01*
X6178Y55816D01*
X6253Y55703D01*
X6651Y55305D01*
X6651Y54200D01*
X6651Y54200D01*
X6673Y54088D01*
X6678Y54066D01*
X6753Y53953D01*
X8003Y52703D01*
X8003Y52703D01*
X8116Y52628D01*
X8116Y52628D01*
X8138Y52623D01*
X8250Y52601D01*
X8250Y52601D01*
X8250Y52601D01*
X9401Y52601D01*
X9401Y52450D01*
X9401Y52450D01*
X9423Y52338D01*
X9428Y52316D01*
X9503Y52203D01*
X9961Y51745D01*
X9892Y51745D01*
X9691Y51662D01*
X9577Y51548D01*
X8394Y51548D01*
X6204Y53738D01*
X6267Y53831D01*
X6310Y54046D01*
X6310Y54353D01*
X6267Y54568D01*
X6145Y54749D01*
X5964Y54871D01*
X5750Y54913D01*
X5535Y54871D01*
X5354Y54749D01*
X5249Y54594D01*
X5145Y54749D01*
X4964Y54871D01*
X4750Y54913D01*
X4535Y54871D01*
X4354Y54749D01*
X4249Y54594D01*
X4145Y54749D01*
X3964Y54871D01*
X3750Y54913D01*
X3535Y54871D01*
X3354Y54749D01*
X3250Y54594D01*
X3157Y54732D01*
X3157Y54781D01*
X5038Y56661D01*
X5038Y56661D01*
X5038Y56661D01*
X5126Y56794D01*
X5126Y56794D01*
X5151Y56918D01*
X5157Y56949D01*
X5157Y56950D01*
X5157Y56950D01*
X5157Y59292D01*
X6080Y59292D01*
X6168Y59204D01*
X6383Y59115D01*
X6615Y59115D01*
X6830Y59204D01*
X6919Y59292D01*
X7330Y59292D01*
X7418Y59204D01*
X7633Y59115D01*
X7865Y59115D01*
X8080Y59204D01*
X8169Y59292D01*
X8580Y59292D01*
X8592Y59280D01*
X8592Y58965D01*
X8583Y58962D01*
X8513Y58891D01*
X8475Y58799D01*
X8474Y58700D01*
X8474Y58350D01*
X8512Y58258D01*
X8571Y58200D01*
X8512Y58141D01*
X8474Y58049D01*
X8475Y57937D01*
X8537Y57875D01*
X8950Y57875D01*
X8950Y57882D01*
X9050Y57882D01*
X9050Y57875D01*
X9462Y57875D01*
X9525Y57937D01*
X9525Y58049D01*
X9487Y58141D01*
X9428Y58200D01*
X9486Y58258D01*
X9524Y58350D01*
X9525Y58449D01*
X9525Y58799D01*
X9487Y58891D01*
X9416Y58961D01*
X9407Y58965D01*
X9407Y59280D01*
X9419Y59292D01*
X10258Y59292D01*
X10342Y59167D01*
X10342Y57380D01*
X10298Y57362D01*
X10228Y57291D01*
X10190Y57199D01*
X10189Y57100D01*
X10189Y56200D01*
X10227Y56108D01*
X10298Y56038D01*
X10344Y56018D01*
X10344Y56018D01*
G37*
G54D43*
X10344Y56018D02*
X9632Y56018D01*
X9388Y56262D01*
X9495Y56368D01*
X9584Y56583D01*
X9584Y56815D01*
X9525Y56960D01*
X9525Y57600D01*
X9525Y57712D01*
X9462Y57775D01*
X9050Y57775D01*
X9050Y57462D01*
X9112Y57400D01*
X9225Y57399D01*
X9324Y57400D01*
X9416Y57438D01*
X9487Y57508D01*
X9525Y57600D01*
X9525Y56960D01*
X9495Y57030D01*
X9331Y57195D01*
X9116Y57284D01*
X8950Y57284D01*
X8950Y57462D01*
X8950Y57775D01*
X8537Y57775D01*
X8475Y57712D01*
X8474Y57600D01*
X8512Y57508D01*
X8583Y57438D01*
X8675Y57400D01*
X8774Y57399D01*
X8887Y57400D01*
X8950Y57462D01*
X8950Y57284D01*
X8884Y57284D01*
X8669Y57195D01*
X8504Y57031D01*
X8415Y56816D01*
X8415Y56584D01*
X8504Y56369D01*
X8668Y56204D01*
X8681Y56199D01*
X8705Y56077D01*
X8774Y55974D01*
X9230Y55518D01*
X8382Y55518D01*
X8068Y55832D01*
X8068Y56199D01*
X8080Y56204D01*
X8245Y56368D01*
X8334Y56583D01*
X8334Y56815D01*
X8245Y57030D01*
X8081Y57195D01*
X7866Y57284D01*
X7634Y57284D01*
X7419Y57195D01*
X7254Y57031D01*
X7165Y56816D01*
X7165Y56584D01*
X7254Y56369D01*
X7418Y56204D01*
X7431Y56199D01*
X7431Y55700D01*
X7455Y55577D01*
X7524Y55474D01*
X8024Y54974D01*
X8024Y54974D01*
X8076Y54939D01*
X8127Y54905D01*
X8127Y54905D01*
X8250Y54881D01*
X8586Y54881D01*
X8535Y54871D01*
X8354Y54749D01*
X8232Y54568D01*
X8190Y54353D01*
X8190Y54046D01*
X8232Y53831D01*
X8354Y53650D01*
X8535Y53528D01*
X8750Y53486D01*
X8964Y53528D01*
X9145Y53650D01*
X9250Y53805D01*
X9354Y53650D01*
X9401Y53618D01*
X9401Y53298D01*
X8394Y53298D01*
X7348Y54344D01*
X7348Y55449D01*
X7348Y55450D01*
X7348Y55450D01*
X7321Y55583D01*
X7246Y55696D01*
X7246Y55696D01*
X6848Y56094D01*
X6848Y56221D01*
X6995Y56368D01*
X7084Y56583D01*
X7084Y56815D01*
X6995Y57030D01*
X6831Y57195D01*
X6616Y57284D01*
X6384Y57284D01*
X6169Y57195D01*
X6004Y57031D01*
X5915Y56816D01*
X5915Y56584D01*
X6004Y56369D01*
X6151Y56221D01*
X6151Y55950D01*
X6151Y55950D01*
X6173Y55838D01*
X6178Y55816D01*
X6253Y55703D01*
X6651Y55305D01*
X6651Y54200D01*
X6651Y54200D01*
X6673Y54088D01*
X6678Y54066D01*
X6753Y53953D01*
X8003Y52703D01*
X8003Y52703D01*
X8116Y52628D01*
X8116Y52628D01*
X8138Y52623D01*
X8250Y52601D01*
X8250Y52601D01*
X8250Y52601D01*
X9401Y52601D01*
X9401Y52450D01*
X9401Y52450D01*
X9423Y52338D01*
X9428Y52316D01*
X9503Y52203D01*
X9961Y51745D01*
X9892Y51745D01*
X9691Y51662D01*
X9577Y51548D01*
X8394Y51548D01*
X6204Y53738D01*
X6267Y53831D01*
X6310Y54046D01*
X6310Y54353D01*
X6267Y54568D01*
X6145Y54749D01*
X5964Y54871D01*
X5750Y54913D01*
X5535Y54871D01*
X5354Y54749D01*
X5249Y54594D01*
X5145Y54749D01*
X4964Y54871D01*
X4750Y54913D01*
X4535Y54871D01*
X4354Y54749D01*
X4249Y54594D01*
X4145Y54749D01*
X3964Y54871D01*
X3750Y54913D01*
X3535Y54871D01*
X3354Y54749D01*
X3250Y54594D01*
X3157Y54732D01*
X3157Y54781D01*
X5038Y56661D01*
X5038Y56661D01*
X5038Y56661D01*
X5126Y56794D01*
X5126Y56794D01*
X5151Y56918D01*
X5157Y56949D01*
X5157Y56950D01*
X5157Y56950D01*
X5157Y59292D01*
X6080Y59292D01*
X6168Y59204D01*
X6383Y59115D01*
X6615Y59115D01*
X6830Y59204D01*
X6919Y59292D01*
X7330Y59292D01*
X7418Y59204D01*
X7633Y59115D01*
X7865Y59115D01*
X8080Y59204D01*
X8169Y59292D01*
X8580Y59292D01*
X8592Y59280D01*
X8592Y58965D01*
X8583Y58962D01*
X8513Y58891D01*
X8475Y58799D01*
X8474Y58700D01*
X8474Y58350D01*
X8512Y58258D01*
X8571Y58200D01*
X8512Y58141D01*
X8474Y58049D01*
X8475Y57937D01*
X8537Y57875D01*
X8950Y57875D01*
X8950Y57882D01*
X9050Y57882D01*
X9050Y57875D01*
X9462Y57875D01*
X9525Y57937D01*
X9525Y58049D01*
X9487Y58141D01*
X9428Y58200D01*
X9486Y58258D01*
X9524Y58350D01*
X9525Y58449D01*
X9525Y58799D01*
X9487Y58891D01*
X9416Y58961D01*
X9407Y58965D01*
X9407Y59280D01*
X9419Y59292D01*
X10258Y59292D01*
X10342Y59167D01*
X10342Y57380D01*
X10298Y57362D01*
X10228Y57291D01*
X10190Y57199D01*
X10189Y57100D01*
X10189Y56200D01*
X10227Y56108D01*
X10298Y56038D01*
X10344Y56018D01*
G54D10*
G36*
X13151Y41725D02*
X13133Y41721D01*
X12950Y41599D01*
X12828Y41416D01*
X12785Y41200D01*
X12828Y40983D01*
X12950Y40800D01*
X13100Y40700D01*
X12950Y40599D01*
X12828Y40416D01*
X12785Y40200D01*
X12795Y40147D01*
X12746Y40196D01*
X12633Y40271D01*
X12611Y40276D01*
X12500Y40298D01*
X12499Y40298D01*
X12425Y40298D01*
X12495Y40368D01*
X12584Y40583D01*
X12584Y40815D01*
X12495Y41030D01*
X12331Y41195D01*
X12116Y41284D01*
X11884Y41284D01*
X11669Y41195D01*
X11504Y41031D01*
X11415Y40816D01*
X11415Y40584D01*
X11455Y40487D01*
X9858Y42083D01*
X9858Y44105D01*
X9848Y44345D01*
X9776Y44520D01*
X9675Y44554D01*
X9604Y44483D01*
X9604Y44625D01*
X9570Y44726D01*
X9344Y44808D01*
X9104Y44798D01*
X8929Y44726D01*
X8895Y44625D01*
X9250Y44270D01*
X9604Y44625D01*
X9604Y44483D01*
X9320Y44200D01*
X9675Y43845D01*
X9776Y43879D01*
X9858Y44105D01*
X9858Y42083D01*
X9604Y42338D01*
X9604Y43774D01*
X9250Y44129D01*
X9179Y44058D01*
X9179Y44200D01*
X8824Y44554D01*
X8723Y44520D01*
X8641Y44294D01*
X8651Y44054D01*
X8723Y43879D01*
X8824Y43845D01*
X9179Y44200D01*
X9179Y44058D01*
X8895Y43774D01*
X8929Y43673D01*
X9155Y43591D01*
X9395Y43601D01*
X9570Y43673D01*
X9604Y43774D01*
X9604Y42338D01*
X8996Y42946D01*
X8883Y43021D01*
X8861Y43026D01*
X8750Y43048D01*
X8749Y43048D01*
X3644Y43048D01*
X3121Y43571D01*
X3008Y43646D01*
X2986Y43651D01*
X2875Y43673D01*
X2874Y43673D01*
X560Y43673D01*
X560Y45510D01*
X560Y45650D01*
X560Y45750D01*
X560Y45890D01*
X498Y46100D01*
X360Y46271D01*
X168Y46376D01*
X136Y46383D01*
X50Y46334D01*
X50Y45750D01*
X560Y45750D01*
X560Y45650D01*
X50Y45650D01*
X50Y45065D01*
X136Y45016D01*
X168Y45023D01*
X360Y45128D01*
X498Y45299D01*
X560Y45510D01*
X560Y43673D01*
X-783Y43673D01*
X-753Y43703D01*
X-753Y43703D01*
X-753Y43703D01*
X-678Y43816D01*
X-653Y43942D01*
X-487Y44107D01*
X-395Y44329D01*
X-395Y44569D01*
X-487Y44791D01*
X-651Y44956D01*
X-651Y45118D01*
X-604Y45150D01*
X-500Y45305D01*
X-498Y45299D01*
X-360Y45128D01*
X-168Y45023D01*
X-136Y45016D01*
X-50Y45065D01*
X-50Y45650D01*
X-57Y45650D01*
X-57Y45750D01*
X-50Y45750D01*
X-50Y46334D01*
X-136Y46383D01*
X-168Y46376D01*
X-360Y46271D01*
X-498Y46100D01*
X-500Y46094D01*
X-604Y46249D01*
X-785Y46371D01*
X-1000Y46413D01*
X-1214Y46371D01*
X-1395Y46249D01*
X-1500Y46094D01*
X-1604Y46249D01*
X-1785Y46371D01*
X-2000Y46413D01*
X-2214Y46371D01*
X-2395Y46249D01*
X-2500Y46094D01*
X-2604Y46249D01*
X-2785Y46371D01*
X-3000Y46413D01*
X-3214Y46371D01*
X-3395Y46249D01*
X-3500Y46094D01*
X-3604Y46249D01*
X-3785Y46371D01*
X-4000Y46413D01*
X-4165Y46380D01*
X-4151Y46450D01*
X-4151Y47055D01*
X-3855Y47351D01*
X-1119Y47351D01*
X-1211Y47259D01*
X-1295Y47058D01*
X-1295Y46842D01*
X-1212Y46641D01*
X-1059Y46488D01*
X-858Y46404D01*
X-642Y46404D01*
X-441Y46487D01*
X-327Y46601D01*
X1249Y46601D01*
X1250Y46601D01*
X1250Y46601D01*
X1361Y46623D01*
X1383Y46628D01*
X1383Y46628D01*
X1496Y46703D01*
X2015Y47222D01*
X2097Y47188D01*
X2400Y47188D01*
X2484Y47222D01*
X3003Y46703D01*
X3003Y46703D01*
X3116Y46628D01*
X3250Y46601D01*
X5569Y46601D01*
X5603Y46519D01*
X5817Y46304D01*
X6097Y46188D01*
X6400Y46188D01*
X6680Y46303D01*
X6895Y46517D01*
X7011Y46797D01*
X7011Y47100D01*
X6896Y47380D01*
X6682Y47595D01*
X6402Y47711D01*
X6099Y47711D01*
X5819Y47596D01*
X5604Y47382D01*
X5569Y47298D01*
X3394Y47298D01*
X2977Y47715D01*
X3011Y47797D01*
X3011Y48100D01*
X2896Y48380D01*
X2682Y48595D01*
X2667Y48601D01*
X5569Y48601D01*
X5603Y48519D01*
X5817Y48304D01*
X6097Y48188D01*
X6400Y48188D01*
X6680Y48303D01*
X6895Y48517D01*
X7011Y48797D01*
X7011Y49100D01*
X6896Y49380D01*
X6682Y49595D01*
X6402Y49711D01*
X6310Y49711D01*
X6310Y51010D01*
X6310Y51150D01*
X6310Y51250D01*
X6310Y51390D01*
X6248Y51600D01*
X6110Y51771D01*
X5918Y51876D01*
X5886Y51883D01*
X5800Y51834D01*
X5800Y51250D01*
X6310Y51250D01*
X6310Y51150D01*
X5800Y51150D01*
X5800Y50565D01*
X5886Y50516D01*
X5918Y50523D01*
X6110Y50628D01*
X6248Y50799D01*
X6310Y51010D01*
X6310Y49711D01*
X6099Y49711D01*
X5819Y49596D01*
X5604Y49382D01*
X5569Y49298D01*
X1894Y49298D01*
X996Y50196D01*
X883Y50271D01*
X861Y50276D01*
X750Y50298D01*
X749Y50298D01*
X506Y50298D01*
X342Y50462D01*
X120Y50554D01*
X-119Y50554D01*
X-341Y50462D01*
X-512Y50292D01*
X-604Y50070D01*
X-604Y49830D01*
X-512Y49608D01*
X-342Y49437D01*
X-192Y49375D01*
X-214Y49371D01*
X-395Y49249D01*
X-500Y49094D01*
X-604Y49249D01*
X-785Y49371D01*
X-1000Y49413D01*
X-1214Y49371D01*
X-1395Y49249D01*
X-1500Y49094D01*
X-1592Y49232D01*
X-1592Y49449D01*
X-1592Y49450D01*
X-1592Y49450D01*
X-1623Y49605D01*
X-1623Y49605D01*
X-1658Y49658D01*
X-1711Y49738D01*
X-1711Y49738D01*
X-2211Y50238D01*
X-2344Y50326D01*
X-2500Y50357D01*
X-2500Y50357D01*
X-2552Y50357D01*
X-2657Y50462D01*
X-2879Y50554D01*
X-3119Y50554D01*
X-3341Y50462D01*
X-3389Y50415D01*
X-3592Y50618D01*
X-3592Y51051D01*
X-3512Y50858D01*
X-3342Y50687D01*
X-3120Y50595D01*
X-2880Y50595D01*
X-2658Y50687D01*
X-2487Y50857D01*
X-2395Y51079D01*
X-2395Y51319D01*
X-2487Y51541D01*
X-2657Y51712D01*
X-2879Y51804D01*
X-3119Y51804D01*
X-3341Y51712D01*
X-3512Y51542D01*
X-3592Y51348D01*
X-3592Y51781D01*
X-3375Y51998D01*
X-3331Y51954D01*
X-3116Y51865D01*
X-2884Y51865D01*
X-2669Y51954D01*
X-2580Y52042D01*
X-2418Y52042D01*
X-1288Y50911D01*
X-1288Y50911D01*
X-1155Y50823D01*
X-1000Y50792D01*
X-1000Y50792D01*
X-999Y50792D01*
X-447Y50792D01*
X-342Y50687D01*
X-120Y50595D01*
X119Y50595D01*
X341Y50687D01*
X512Y50857D01*
X604Y51079D01*
X604Y51319D01*
X584Y51367D01*
X584Y52565D01*
X584Y53815D01*
X584Y55065D01*
X584Y56315D01*
X495Y56530D01*
X331Y56695D01*
X116Y56784D01*
X-115Y56784D01*
X-330Y56695D01*
X-495Y56531D01*
X-584Y56316D01*
X-584Y56084D01*
X-495Y55869D01*
X-331Y55704D01*
X-116Y55615D01*
X115Y55615D01*
X330Y55704D01*
X495Y55868D01*
X584Y56083D01*
X584Y56315D01*
X584Y55065D01*
X495Y55280D01*
X331Y55445D01*
X116Y55534D01*
X-115Y55534D01*
X-330Y55445D01*
X-495Y55281D01*
X-584Y55066D01*
X-584Y54834D01*
X-495Y54619D01*
X-331Y54454D01*
X-116Y54365D01*
X115Y54365D01*
X330Y54454D01*
X495Y54618D01*
X584Y54833D01*
X584Y55065D01*
X584Y53815D01*
X495Y54030D01*
X331Y54195D01*
X116Y54284D01*
X-115Y54284D01*
X-330Y54195D01*
X-495Y54031D01*
X-584Y53816D01*
X-584Y53584D01*
X-495Y53369D01*
X-331Y53204D01*
X-116Y53115D01*
X115Y53115D01*
X330Y53204D01*
X495Y53368D01*
X584Y53583D01*
X584Y53815D01*
X584Y52565D01*
X495Y52780D01*
X331Y52945D01*
X116Y53034D01*
X-115Y53034D01*
X-330Y52945D01*
X-495Y52781D01*
X-584Y52566D01*
X-584Y52334D01*
X-495Y52119D01*
X-331Y51954D01*
X-116Y51865D01*
X115Y51865D01*
X330Y51954D01*
X495Y52118D01*
X584Y52333D01*
X584Y52565D01*
X584Y51367D01*
X512Y51541D01*
X342Y51712D01*
X120Y51804D01*
X-119Y51804D01*
X-341Y51712D01*
X-447Y51607D01*
X-831Y51607D01*
X-1961Y52738D01*
X-2094Y52826D01*
X-2250Y52857D01*
X-2250Y52857D01*
X-2580Y52857D01*
X-2592Y52869D01*
X-2592Y53280D01*
X-2504Y53368D01*
X-2415Y53583D01*
X-2415Y53815D01*
X-2504Y54030D01*
X-2592Y54119D01*
X-2592Y54530D01*
X-2504Y54618D01*
X-2415Y54833D01*
X-2415Y55065D01*
X-2504Y55280D01*
X-2592Y55369D01*
X-2592Y55780D01*
X-2504Y55868D01*
X-2415Y56083D01*
X-2415Y56315D01*
X-2504Y56530D01*
X-2668Y56695D01*
X-2883Y56784D01*
X-3115Y56784D01*
X-3330Y56695D01*
X-3495Y56531D01*
X-3584Y56316D01*
X-3584Y56084D01*
X-3495Y55869D01*
X-3407Y55780D01*
X-3407Y55369D01*
X-3495Y55281D01*
X-3584Y55066D01*
X-3584Y54834D01*
X-3495Y54619D01*
X-3407Y54530D01*
X-3407Y54119D01*
X-3419Y54107D01*
X-4263Y54107D01*
X-4263Y56498D01*
X-2798Y57963D01*
X-2202Y57963D01*
X-2202Y57947D01*
X-2164Y57855D01*
X-2094Y57785D01*
X-2002Y57747D01*
X-1903Y57747D01*
X-997Y57747D01*
X-905Y57785D01*
X-835Y57855D01*
X-797Y57947D01*
X-797Y57963D01*
X750Y57963D01*
X936Y58000D01*
X1093Y58106D01*
X2780Y59792D01*
X4081Y59792D01*
X4342Y59531D01*
X4342Y57118D01*
X2461Y55238D01*
X2373Y55105D01*
X2342Y54950D01*
X2342Y54949D01*
X2342Y54732D01*
X2232Y54568D01*
X2190Y54353D01*
X2190Y54046D01*
X2232Y53831D01*
X2342Y53667D01*
X2342Y53465D01*
X2333Y53462D01*
X2263Y53391D01*
X2225Y53299D01*
X2224Y53200D01*
X2224Y52850D01*
X2262Y52758D01*
X2321Y52700D01*
X2262Y52641D01*
X2224Y52549D01*
X2225Y52437D01*
X2287Y52375D01*
X2700Y52375D01*
X2700Y52382D01*
X2800Y52382D01*
X2800Y52375D01*
X3212Y52375D01*
X3275Y52437D01*
X3275Y52549D01*
X3237Y52641D01*
X3178Y52700D01*
X3236Y52758D01*
X3274Y52850D01*
X3275Y52949D01*
X3275Y53299D01*
X3237Y53391D01*
X3166Y53461D01*
X3157Y53465D01*
X3157Y53667D01*
X3250Y53805D01*
X3354Y53650D01*
X3535Y53528D01*
X3750Y53486D01*
X3964Y53528D01*
X4145Y53650D01*
X4249Y53805D01*
X4354Y53650D01*
X4535Y53528D01*
X4750Y53486D01*
X4964Y53528D01*
X5145Y53650D01*
X5249Y53805D01*
X5354Y53650D01*
X5420Y53606D01*
X5423Y53588D01*
X5428Y53566D01*
X5503Y53453D01*
X8003Y50953D01*
X8003Y50953D01*
X8116Y50878D01*
X8250Y50851D01*
X8250Y50851D01*
X8250Y50851D01*
X8880Y50851D01*
X8827Y50798D01*
X8144Y50798D01*
X6246Y52696D01*
X6133Y52771D01*
X6111Y52776D01*
X6000Y52798D01*
X5999Y52798D01*
X4500Y52798D01*
X4499Y52798D01*
X4366Y52771D01*
X4253Y52696D01*
X4253Y52696D01*
X3503Y51946D01*
X3428Y51833D01*
X3423Y51811D01*
X3420Y51793D01*
X3354Y51749D01*
X3310Y51683D01*
X3310Y51699D01*
X3272Y51791D01*
X3201Y51861D01*
X3109Y51899D01*
X3042Y51900D01*
X3074Y51900D01*
X3166Y51938D01*
X3237Y52008D01*
X3275Y52100D01*
X3275Y52212D01*
X3212Y52275D01*
X2800Y52275D01*
X2800Y52267D01*
X2700Y52267D01*
X2700Y52275D01*
X2287Y52275D01*
X2225Y52212D01*
X2224Y52100D01*
X2262Y52008D01*
X2333Y51938D01*
X2425Y51900D01*
X2425Y51900D01*
X2390Y51900D01*
X2298Y51862D01*
X2228Y51791D01*
X2190Y51699D01*
X2189Y51600D01*
X2189Y50700D01*
X2227Y50608D01*
X2298Y50538D01*
X2390Y50500D01*
X2489Y50499D01*
X3109Y50499D01*
X3201Y50537D01*
X3271Y50608D01*
X3309Y50700D01*
X3309Y50716D01*
X3354Y50650D01*
X3535Y50528D01*
X3750Y50486D01*
X3964Y50528D01*
X4145Y50650D01*
X4249Y50805D01*
X4354Y50650D01*
X4535Y50528D01*
X4750Y50486D01*
X4964Y50528D01*
X5145Y50650D01*
X5249Y50805D01*
X5251Y50799D01*
X5389Y50628D01*
X5581Y50523D01*
X5613Y50516D01*
X5700Y50565D01*
X5700Y51150D01*
X5692Y51150D01*
X5692Y51250D01*
X5700Y51250D01*
X5700Y51834D01*
X5613Y51883D01*
X5581Y51876D01*
X5389Y51771D01*
X5251Y51600D01*
X5249Y51594D01*
X5145Y51749D01*
X4964Y51871D01*
X4750Y51913D01*
X4535Y51871D01*
X4354Y51749D01*
X4249Y51594D01*
X4204Y51661D01*
X4644Y52101D01*
X5855Y52101D01*
X7014Y50942D01*
X6941Y50912D01*
X6788Y50759D01*
X6704Y50558D01*
X6704Y50342D01*
X6787Y50141D01*
X6940Y49988D01*
X7141Y49904D01*
X7302Y49904D01*
X7651Y49555D01*
X7651Y46094D01*
X6361Y44804D01*
X6130Y44804D01*
X5908Y44712D01*
X5737Y44542D01*
X5645Y44320D01*
X5645Y44080D01*
X5737Y43858D01*
X5907Y43687D01*
X6129Y43595D01*
X6369Y43595D01*
X6591Y43687D01*
X6762Y43857D01*
X6854Y44079D01*
X6854Y44311D01*
X8144Y45601D01*
X9605Y45601D01*
X10454Y44752D01*
X10454Y44592D01*
X10537Y44391D01*
X10690Y44238D01*
X10891Y44154D01*
X11107Y44154D01*
X11308Y44237D01*
X11461Y44390D01*
X11492Y44464D01*
X13151Y42805D01*
X13151Y41725D01*
X13151Y41725D01*
G37*
G54D43*
X13151Y41725D02*
X13133Y41721D01*
X12950Y41599D01*
X12828Y41416D01*
X12785Y41200D01*
X12828Y40983D01*
X12950Y40800D01*
X13100Y40700D01*
X12950Y40599D01*
X12828Y40416D01*
X12785Y40200D01*
X12795Y40147D01*
X12746Y40196D01*
X12633Y40271D01*
X12611Y40276D01*
X12500Y40298D01*
X12499Y40298D01*
X12425Y40298D01*
X12495Y40368D01*
X12584Y40583D01*
X12584Y40815D01*
X12495Y41030D01*
X12331Y41195D01*
X12116Y41284D01*
X11884Y41284D01*
X11669Y41195D01*
X11504Y41031D01*
X11415Y40816D01*
X11415Y40584D01*
X11455Y40487D01*
X9858Y42083D01*
X9858Y44105D01*
X9848Y44345D01*
X9776Y44520D01*
X9675Y44554D01*
X9604Y44483D01*
X9604Y44625D01*
X9570Y44726D01*
X9344Y44808D01*
X9104Y44798D01*
X8929Y44726D01*
X8895Y44625D01*
X9250Y44270D01*
X9604Y44625D01*
X9604Y44483D01*
X9320Y44200D01*
X9675Y43845D01*
X9776Y43879D01*
X9858Y44105D01*
X9858Y42083D01*
X9604Y42338D01*
X9604Y43774D01*
X9250Y44129D01*
X9179Y44058D01*
X9179Y44200D01*
X8824Y44554D01*
X8723Y44520D01*
X8641Y44294D01*
X8651Y44054D01*
X8723Y43879D01*
X8824Y43845D01*
X9179Y44200D01*
X9179Y44058D01*
X8895Y43774D01*
X8929Y43673D01*
X9155Y43591D01*
X9395Y43601D01*
X9570Y43673D01*
X9604Y43774D01*
X9604Y42338D01*
X8996Y42946D01*
X8883Y43021D01*
X8861Y43026D01*
X8750Y43048D01*
X8749Y43048D01*
X3644Y43048D01*
X3121Y43571D01*
X3008Y43646D01*
X2986Y43651D01*
X2875Y43673D01*
X2874Y43673D01*
X560Y43673D01*
X560Y45510D01*
X560Y45650D01*
X560Y45750D01*
X560Y45890D01*
X498Y46100D01*
X360Y46271D01*
X168Y46376D01*
X136Y46383D01*
X50Y46334D01*
X50Y45750D01*
X560Y45750D01*
X560Y45650D01*
X50Y45650D01*
X50Y45065D01*
X136Y45016D01*
X168Y45023D01*
X360Y45128D01*
X498Y45299D01*
X560Y45510D01*
X560Y43673D01*
X-783Y43673D01*
X-753Y43703D01*
X-753Y43703D01*
X-753Y43703D01*
X-678Y43816D01*
X-653Y43942D01*
X-487Y44107D01*
X-395Y44329D01*
X-395Y44569D01*
X-487Y44791D01*
X-651Y44956D01*
X-651Y45118D01*
X-604Y45150D01*
X-500Y45305D01*
X-498Y45299D01*
X-360Y45128D01*
X-168Y45023D01*
X-136Y45016D01*
X-50Y45065D01*
X-50Y45650D01*
X-57Y45650D01*
X-57Y45750D01*
X-50Y45750D01*
X-50Y46334D01*
X-136Y46383D01*
X-168Y46376D01*
X-360Y46271D01*
X-498Y46100D01*
X-500Y46094D01*
X-604Y46249D01*
X-785Y46371D01*
X-1000Y46413D01*
X-1214Y46371D01*
X-1395Y46249D01*
X-1500Y46094D01*
X-1604Y46249D01*
X-1785Y46371D01*
X-2000Y46413D01*
X-2214Y46371D01*
X-2395Y46249D01*
X-2500Y46094D01*
X-2604Y46249D01*
X-2785Y46371D01*
X-3000Y46413D01*
X-3214Y46371D01*
X-3395Y46249D01*
X-3500Y46094D01*
X-3604Y46249D01*
X-3785Y46371D01*
X-4000Y46413D01*
X-4165Y46380D01*
X-4151Y46450D01*
X-4151Y47055D01*
X-3855Y47351D01*
X-1119Y47351D01*
X-1211Y47259D01*
X-1295Y47058D01*
X-1295Y46842D01*
X-1212Y46641D01*
X-1059Y46488D01*
X-858Y46404D01*
X-642Y46404D01*
X-441Y46487D01*
X-327Y46601D01*
X1249Y46601D01*
X1250Y46601D01*
X1250Y46601D01*
X1361Y46623D01*
X1383Y46628D01*
X1383Y46628D01*
X1496Y46703D01*
X2015Y47222D01*
X2097Y47188D01*
X2400Y47188D01*
X2484Y47222D01*
X3003Y46703D01*
X3003Y46703D01*
X3116Y46628D01*
X3250Y46601D01*
X5569Y46601D01*
X5603Y46519D01*
X5817Y46304D01*
X6097Y46188D01*
X6400Y46188D01*
X6680Y46303D01*
X6895Y46517D01*
X7011Y46797D01*
X7011Y47100D01*
X6896Y47380D01*
X6682Y47595D01*
X6402Y47711D01*
X6099Y47711D01*
X5819Y47596D01*
X5604Y47382D01*
X5569Y47298D01*
X3394Y47298D01*
X2977Y47715D01*
X3011Y47797D01*
X3011Y48100D01*
X2896Y48380D01*
X2682Y48595D01*
X2667Y48601D01*
X5569Y48601D01*
X5603Y48519D01*
X5817Y48304D01*
X6097Y48188D01*
X6400Y48188D01*
X6680Y48303D01*
X6895Y48517D01*
X7011Y48797D01*
X7011Y49100D01*
X6896Y49380D01*
X6682Y49595D01*
X6402Y49711D01*
X6310Y49711D01*
X6310Y51010D01*
X6310Y51150D01*
X6310Y51250D01*
X6310Y51390D01*
X6248Y51600D01*
X6110Y51771D01*
X5918Y51876D01*
X5886Y51883D01*
X5800Y51834D01*
X5800Y51250D01*
X6310Y51250D01*
X6310Y51150D01*
X5800Y51150D01*
X5800Y50565D01*
X5886Y50516D01*
X5918Y50523D01*
X6110Y50628D01*
X6248Y50799D01*
X6310Y51010D01*
X6310Y49711D01*
X6099Y49711D01*
X5819Y49596D01*
X5604Y49382D01*
X5569Y49298D01*
X1894Y49298D01*
X996Y50196D01*
X883Y50271D01*
X861Y50276D01*
X750Y50298D01*
X749Y50298D01*
X506Y50298D01*
X342Y50462D01*
X120Y50554D01*
X-119Y50554D01*
X-341Y50462D01*
X-512Y50292D01*
X-604Y50070D01*
X-604Y49830D01*
X-512Y49608D01*
X-342Y49437D01*
X-192Y49375D01*
X-214Y49371D01*
X-395Y49249D01*
X-500Y49094D01*
X-604Y49249D01*
X-785Y49371D01*
X-1000Y49413D01*
X-1214Y49371D01*
X-1395Y49249D01*
X-1500Y49094D01*
X-1592Y49232D01*
X-1592Y49449D01*
X-1592Y49450D01*
X-1592Y49450D01*
X-1623Y49605D01*
X-1623Y49605D01*
X-1658Y49658D01*
X-1711Y49738D01*
X-1711Y49738D01*
X-2211Y50238D01*
X-2344Y50326D01*
X-2500Y50357D01*
X-2500Y50357D01*
X-2552Y50357D01*
X-2657Y50462D01*
X-2879Y50554D01*
X-3119Y50554D01*
X-3341Y50462D01*
X-3389Y50415D01*
X-3592Y50618D01*
X-3592Y51051D01*
X-3512Y50858D01*
X-3342Y50687D01*
X-3120Y50595D01*
X-2880Y50595D01*
X-2658Y50687D01*
X-2487Y50857D01*
X-2395Y51079D01*
X-2395Y51319D01*
X-2487Y51541D01*
X-2657Y51712D01*
X-2879Y51804D01*
X-3119Y51804D01*
X-3341Y51712D01*
X-3512Y51542D01*
X-3592Y51348D01*
X-3592Y51781D01*
X-3375Y51998D01*
X-3331Y51954D01*
X-3116Y51865D01*
X-2884Y51865D01*
X-2669Y51954D01*
X-2580Y52042D01*
X-2418Y52042D01*
X-1288Y50911D01*
X-1288Y50911D01*
X-1155Y50823D01*
X-1000Y50792D01*
X-1000Y50792D01*
X-999Y50792D01*
X-447Y50792D01*
X-342Y50687D01*
X-120Y50595D01*
X119Y50595D01*
X341Y50687D01*
X512Y50857D01*
X604Y51079D01*
X604Y51319D01*
X584Y51367D01*
X584Y52565D01*
X584Y53815D01*
X584Y55065D01*
X584Y56315D01*
X495Y56530D01*
X331Y56695D01*
X116Y56784D01*
X-115Y56784D01*
X-330Y56695D01*
X-495Y56531D01*
X-584Y56316D01*
X-584Y56084D01*
X-495Y55869D01*
X-331Y55704D01*
X-116Y55615D01*
X115Y55615D01*
X330Y55704D01*
X495Y55868D01*
X584Y56083D01*
X584Y56315D01*
X584Y55065D01*
X495Y55280D01*
X331Y55445D01*
X116Y55534D01*
X-115Y55534D01*
X-330Y55445D01*
X-495Y55281D01*
X-584Y55066D01*
X-584Y54834D01*
X-495Y54619D01*
X-331Y54454D01*
X-116Y54365D01*
X115Y54365D01*
X330Y54454D01*
X495Y54618D01*
X584Y54833D01*
X584Y55065D01*
X584Y53815D01*
X495Y54030D01*
X331Y54195D01*
X116Y54284D01*
X-115Y54284D01*
X-330Y54195D01*
X-495Y54031D01*
X-584Y53816D01*
X-584Y53584D01*
X-495Y53369D01*
X-331Y53204D01*
X-116Y53115D01*
X115Y53115D01*
X330Y53204D01*
X495Y53368D01*
X584Y53583D01*
X584Y53815D01*
X584Y52565D01*
X495Y52780D01*
X331Y52945D01*
X116Y53034D01*
X-115Y53034D01*
X-330Y52945D01*
X-495Y52781D01*
X-584Y52566D01*
X-584Y52334D01*
X-495Y52119D01*
X-331Y51954D01*
X-116Y51865D01*
X115Y51865D01*
X330Y51954D01*
X495Y52118D01*
X584Y52333D01*
X584Y52565D01*
X584Y51367D01*
X512Y51541D01*
X342Y51712D01*
X120Y51804D01*
X-119Y51804D01*
X-341Y51712D01*
X-447Y51607D01*
X-831Y51607D01*
X-1961Y52738D01*
X-2094Y52826D01*
X-2250Y52857D01*
X-2250Y52857D01*
X-2580Y52857D01*
X-2592Y52869D01*
X-2592Y53280D01*
X-2504Y53368D01*
X-2415Y53583D01*
X-2415Y53815D01*
X-2504Y54030D01*
X-2592Y54119D01*
X-2592Y54530D01*
X-2504Y54618D01*
X-2415Y54833D01*
X-2415Y55065D01*
X-2504Y55280D01*
X-2592Y55369D01*
X-2592Y55780D01*
X-2504Y55868D01*
X-2415Y56083D01*
X-2415Y56315D01*
X-2504Y56530D01*
X-2668Y56695D01*
X-2883Y56784D01*
X-3115Y56784D01*
X-3330Y56695D01*
X-3495Y56531D01*
X-3584Y56316D01*
X-3584Y56084D01*
X-3495Y55869D01*
X-3407Y55780D01*
X-3407Y55369D01*
X-3495Y55281D01*
X-3584Y55066D01*
X-3584Y54834D01*
X-3495Y54619D01*
X-3407Y54530D01*
X-3407Y54119D01*
X-3419Y54107D01*
X-4263Y54107D01*
X-4263Y56498D01*
X-2798Y57963D01*
X-2202Y57963D01*
X-2202Y57947D01*
X-2164Y57855D01*
X-2094Y57785D01*
X-2002Y57747D01*
X-1903Y57747D01*
X-997Y57747D01*
X-905Y57785D01*
X-835Y57855D01*
X-797Y57947D01*
X-797Y57963D01*
X750Y57963D01*
X936Y58000D01*
X1093Y58106D01*
X2780Y59792D01*
X4081Y59792D01*
X4342Y59531D01*
X4342Y57118D01*
X2461Y55238D01*
X2373Y55105D01*
X2342Y54950D01*
X2342Y54949D01*
X2342Y54732D01*
X2232Y54568D01*
X2190Y54353D01*
X2190Y54046D01*
X2232Y53831D01*
X2342Y53667D01*
X2342Y53465D01*
X2333Y53462D01*
X2263Y53391D01*
X2225Y53299D01*
X2224Y53200D01*
X2224Y52850D01*
X2262Y52758D01*
X2321Y52700D01*
X2262Y52641D01*
X2224Y52549D01*
X2225Y52437D01*
X2287Y52375D01*
X2700Y52375D01*
X2700Y52382D01*
X2800Y52382D01*
X2800Y52375D01*
X3212Y52375D01*
X3275Y52437D01*
X3275Y52549D01*
X3237Y52641D01*
X3178Y52700D01*
X3236Y52758D01*
X3274Y52850D01*
X3275Y52949D01*
X3275Y53299D01*
X3237Y53391D01*
X3166Y53461D01*
X3157Y53465D01*
X3157Y53667D01*
X3250Y53805D01*
X3354Y53650D01*
X3535Y53528D01*
X3750Y53486D01*
X3964Y53528D01*
X4145Y53650D01*
X4249Y53805D01*
X4354Y53650D01*
X4535Y53528D01*
X4750Y53486D01*
X4964Y53528D01*
X5145Y53650D01*
X5249Y53805D01*
X5354Y53650D01*
X5420Y53606D01*
X5423Y53588D01*
X5428Y53566D01*
X5503Y53453D01*
X8003Y50953D01*
X8003Y50953D01*
X8116Y50878D01*
X8250Y50851D01*
X8250Y50851D01*
X8250Y50851D01*
X8880Y50851D01*
X8827Y50798D01*
X8144Y50798D01*
X6246Y52696D01*
X6133Y52771D01*
X6111Y52776D01*
X6000Y52798D01*
X5999Y52798D01*
X4500Y52798D01*
X4499Y52798D01*
X4366Y52771D01*
X4253Y52696D01*
X4253Y52696D01*
X3503Y51946D01*
X3428Y51833D01*
X3423Y51811D01*
X3420Y51793D01*
X3354Y51749D01*
X3310Y51683D01*
X3310Y51699D01*
X3272Y51791D01*
X3201Y51861D01*
X3109Y51899D01*
X3042Y51900D01*
X3074Y51900D01*
X3166Y51938D01*
X3237Y52008D01*
X3275Y52100D01*
X3275Y52212D01*
X3212Y52275D01*
X2800Y52275D01*
X2800Y52267D01*
X2700Y52267D01*
X2700Y52275D01*
X2287Y52275D01*
X2225Y52212D01*
X2224Y52100D01*
X2262Y52008D01*
X2333Y51938D01*
X2425Y51900D01*
X2425Y51900D01*
X2390Y51900D01*
X2298Y51862D01*
X2228Y51791D01*
X2190Y51699D01*
X2189Y51600D01*
X2189Y50700D01*
X2227Y50608D01*
X2298Y50538D01*
X2390Y50500D01*
X2489Y50499D01*
X3109Y50499D01*
X3201Y50537D01*
X3271Y50608D01*
X3309Y50700D01*
X3309Y50716D01*
X3354Y50650D01*
X3535Y50528D01*
X3750Y50486D01*
X3964Y50528D01*
X4145Y50650D01*
X4249Y50805D01*
X4354Y50650D01*
X4535Y50528D01*
X4750Y50486D01*
X4964Y50528D01*
X5145Y50650D01*
X5249Y50805D01*
X5251Y50799D01*
X5389Y50628D01*
X5581Y50523D01*
X5613Y50516D01*
X5700Y50565D01*
X5700Y51150D01*
X5692Y51150D01*
X5692Y51250D01*
X5700Y51250D01*
X5700Y51834D01*
X5613Y51883D01*
X5581Y51876D01*
X5389Y51771D01*
X5251Y51600D01*
X5249Y51594D01*
X5145Y51749D01*
X4964Y51871D01*
X4750Y51913D01*
X4535Y51871D01*
X4354Y51749D01*
X4249Y51594D01*
X4204Y51661D01*
X4644Y52101D01*
X5855Y52101D01*
X7014Y50942D01*
X6941Y50912D01*
X6788Y50759D01*
X6704Y50558D01*
X6704Y50342D01*
X6787Y50141D01*
X6940Y49988D01*
X7141Y49904D01*
X7302Y49904D01*
X7651Y49555D01*
X7651Y46094D01*
X6361Y44804D01*
X6130Y44804D01*
X5908Y44712D01*
X5737Y44542D01*
X5645Y44320D01*
X5645Y44080D01*
X5737Y43858D01*
X5907Y43687D01*
X6129Y43595D01*
X6369Y43595D01*
X6591Y43687D01*
X6762Y43857D01*
X6854Y44079D01*
X6854Y44311D01*
X8144Y45601D01*
X9605Y45601D01*
X10454Y44752D01*
X10454Y44592D01*
X10537Y44391D01*
X10690Y44238D01*
X10891Y44154D01*
X11107Y44154D01*
X11308Y44237D01*
X11461Y44390D01*
X11492Y44464D01*
X13151Y42805D01*
X13151Y41725D01*
G54D10*
G36*
X13401Y57281D02*
X13354Y57249D01*
X13250Y57094D01*
X13145Y57249D01*
X12964Y57371D01*
X12750Y57413D01*
X12535Y57371D01*
X12354Y57249D01*
X12250Y57094D01*
X12145Y57249D01*
X12098Y57281D01*
X12098Y59118D01*
X12145Y59150D01*
X12249Y59305D01*
X12251Y59299D01*
X12389Y59128D01*
X12581Y59023D01*
X12613Y59016D01*
X12700Y59065D01*
X12700Y59650D01*
X12692Y59650D01*
X12692Y59750D01*
X12700Y59750D01*
X12700Y59757D01*
X12800Y59757D01*
X12800Y59750D01*
X12807Y59750D01*
X12807Y59650D01*
X12800Y59650D01*
X12800Y59065D01*
X12886Y59016D01*
X12889Y59017D01*
X12889Y58212D01*
X12889Y58212D01*
X12911Y58100D01*
X12915Y58078D01*
X12991Y57965D01*
X13401Y57555D01*
X13401Y57281D01*
X13401Y57281D01*
G37*
G54D43*
X13401Y57281D02*
X13354Y57249D01*
X13250Y57094D01*
X13145Y57249D01*
X12964Y57371D01*
X12750Y57413D01*
X12535Y57371D01*
X12354Y57249D01*
X12250Y57094D01*
X12145Y57249D01*
X12098Y57281D01*
X12098Y59118D01*
X12145Y59150D01*
X12249Y59305D01*
X12251Y59299D01*
X12389Y59128D01*
X12581Y59023D01*
X12613Y59016D01*
X12700Y59065D01*
X12700Y59650D01*
X12692Y59650D01*
X12692Y59750D01*
X12700Y59750D01*
X12700Y59757D01*
X12800Y59757D01*
X12800Y59750D01*
X12807Y59750D01*
X12807Y59650D01*
X12800Y59650D01*
X12800Y59065D01*
X12886Y59016D01*
X12889Y59017D01*
X12889Y58212D01*
X12889Y58212D01*
X12911Y58100D01*
X12915Y58078D01*
X12991Y57965D01*
X13401Y57555D01*
X13401Y57281D01*
G54D10*
G36*
X13935Y30086D02*
X13867Y30018D01*
X12382Y30018D01*
X11475Y30925D01*
X11372Y30994D01*
X11250Y31018D01*
X10250Y31018D01*
X10127Y30994D01*
X10024Y30925D01*
X9274Y30175D01*
X9205Y30072D01*
X9181Y29950D01*
X9181Y29018D01*
X6473Y29018D01*
X6498Y29049D01*
X6560Y29260D01*
X6560Y29400D01*
X6560Y29500D01*
X6560Y29640D01*
X6498Y29850D01*
X6360Y30021D01*
X6168Y30126D01*
X6136Y30133D01*
X6050Y30084D01*
X6050Y29500D01*
X6560Y29500D01*
X6560Y29400D01*
X6050Y29400D01*
X6050Y29392D01*
X5950Y29392D01*
X5950Y29400D01*
X5942Y29400D01*
X5942Y29500D01*
X5950Y29500D01*
X5950Y30084D01*
X5863Y30133D01*
X5831Y30126D01*
X5639Y30021D01*
X5501Y29850D01*
X5499Y29844D01*
X5395Y29999D01*
X5214Y30121D01*
X5000Y30163D01*
X4785Y30121D01*
X4604Y29999D01*
X4500Y29844D01*
X4395Y29999D01*
X4214Y30121D01*
X4000Y30163D01*
X3818Y30127D01*
X3818Y30200D01*
X3794Y30322D01*
X3794Y30322D01*
X3760Y30373D01*
X3725Y30425D01*
X3725Y30425D01*
X3475Y30675D01*
X3372Y30744D01*
X3250Y30768D01*
X750Y30768D01*
X627Y30744D01*
X576Y30710D01*
X524Y30675D01*
X274Y30425D01*
X205Y30322D01*
X184Y30216D01*
X-274Y30675D01*
X-377Y30744D01*
X-500Y30768D01*
X-681Y30768D01*
X-681Y31067D01*
X132Y31881D01*
X11867Y31881D01*
X12181Y31567D01*
X12181Y30700D01*
X12205Y30577D01*
X12274Y30474D01*
X12427Y30321D01*
X12428Y30316D01*
X12503Y30203D01*
X12616Y30128D01*
X12750Y30101D01*
X13749Y30101D01*
X13750Y30101D01*
X13750Y30101D01*
X13861Y30123D01*
X13883Y30128D01*
X13883Y30128D01*
X13935Y30162D01*
X13935Y30086D01*
X13935Y30086D01*
G37*
G54D43*
X13935Y30086D02*
X13867Y30018D01*
X12382Y30018D01*
X11475Y30925D01*
X11372Y30994D01*
X11250Y31018D01*
X10250Y31018D01*
X10127Y30994D01*
X10024Y30925D01*
X9274Y30175D01*
X9205Y30072D01*
X9181Y29950D01*
X9181Y29018D01*
X6473Y29018D01*
X6498Y29049D01*
X6560Y29260D01*
X6560Y29400D01*
X6560Y29500D01*
X6560Y29640D01*
X6498Y29850D01*
X6360Y30021D01*
X6168Y30126D01*
X6136Y30133D01*
X6050Y30084D01*
X6050Y29500D01*
X6560Y29500D01*
X6560Y29400D01*
X6050Y29400D01*
X6050Y29392D01*
X5950Y29392D01*
X5950Y29400D01*
X5942Y29400D01*
X5942Y29500D01*
X5950Y29500D01*
X5950Y30084D01*
X5863Y30133D01*
X5831Y30126D01*
X5639Y30021D01*
X5501Y29850D01*
X5499Y29844D01*
X5395Y29999D01*
X5214Y30121D01*
X5000Y30163D01*
X4785Y30121D01*
X4604Y29999D01*
X4500Y29844D01*
X4395Y29999D01*
X4214Y30121D01*
X4000Y30163D01*
X3818Y30127D01*
X3818Y30200D01*
X3794Y30322D01*
X3794Y30322D01*
X3760Y30373D01*
X3725Y30425D01*
X3725Y30425D01*
X3475Y30675D01*
X3372Y30744D01*
X3250Y30768D01*
X750Y30768D01*
X627Y30744D01*
X576Y30710D01*
X524Y30675D01*
X274Y30425D01*
X205Y30322D01*
X184Y30216D01*
X-274Y30675D01*
X-377Y30744D01*
X-500Y30768D01*
X-681Y30768D01*
X-681Y31067D01*
X132Y31881D01*
X11867Y31881D01*
X12181Y31567D01*
X12181Y30700D01*
X12205Y30577D01*
X12274Y30474D01*
X12427Y30321D01*
X12428Y30316D01*
X12503Y30203D01*
X12616Y30128D01*
X12750Y30101D01*
X13749Y30101D01*
X13750Y30101D01*
X13750Y30101D01*
X13861Y30123D01*
X13883Y30128D01*
X13883Y30128D01*
X13935Y30162D01*
X13935Y30086D01*
G54D10*
G36*
X14237Y31713D02*
X14174Y31687D01*
X14012Y31526D01*
X13978Y31443D01*
X13932Y31539D01*
X13767Y31686D01*
X13737Y31697D01*
X13892Y31800D01*
X14000Y31962D01*
X14107Y31800D01*
X14237Y31713D01*
X14237Y31713D01*
G37*
G54D43*
X14237Y31713D02*
X14174Y31687D01*
X14012Y31526D01*
X13978Y31443D01*
X13932Y31539D01*
X13767Y31686D01*
X13737Y31697D01*
X13892Y31800D01*
X14000Y31962D01*
X14107Y31800D01*
X14237Y31713D01*
G54D10*
G36*
X15535Y23477D02*
X14810Y22752D01*
X14810Y22890D01*
X14748Y23100D01*
X14610Y23271D01*
X14418Y23376D01*
X14386Y23383D01*
X14300Y23334D01*
X14300Y22750D01*
X14307Y22750D01*
X14307Y22650D01*
X14300Y22650D01*
X14300Y22065D01*
X14386Y22016D01*
X14418Y22023D01*
X14610Y22128D01*
X14681Y22216D01*
X14681Y21582D01*
X14594Y21495D01*
X14392Y21495D01*
X14191Y21412D01*
X14038Y21259D01*
X13954Y21058D01*
X13954Y20855D01*
X13774Y20675D01*
X13705Y20572D01*
X13681Y20450D01*
X13681Y20037D01*
X13500Y20074D01*
X13283Y20030D01*
X13100Y19908D01*
X13000Y19758D01*
X12899Y19908D01*
X12716Y20030D01*
X12500Y20074D01*
X12283Y20030D01*
X12100Y19908D01*
X12000Y19758D01*
X11899Y19908D01*
X11716Y20030D01*
X11500Y20074D01*
X11283Y20030D01*
X11100Y19908D01*
X11000Y19758D01*
X10903Y19902D01*
X11882Y20881D01*
X13250Y20881D01*
X13250Y20881D01*
X13372Y20905D01*
X13372Y20905D01*
X13475Y20974D01*
X13975Y21474D01*
X13975Y21474D01*
X14010Y21526D01*
X14044Y21577D01*
X14044Y21577D01*
X14068Y21700D01*
X14068Y21700D01*
X14068Y22030D01*
X14081Y22023D01*
X14113Y22016D01*
X14200Y22065D01*
X14200Y22650D01*
X14192Y22650D01*
X14192Y22750D01*
X14200Y22750D01*
X14200Y23334D01*
X14113Y23383D01*
X14083Y23376D01*
X14098Y23450D01*
X14098Y23805D01*
X14496Y24203D01*
X14496Y24203D01*
X14496Y24203D01*
X14571Y24316D01*
X14598Y24450D01*
X14598Y24450D01*
X14598Y24450D01*
X14598Y25118D01*
X14645Y25150D01*
X14767Y25331D01*
X14810Y25546D01*
X14810Y25853D01*
X14767Y26068D01*
X14709Y26154D01*
X14857Y26154D01*
X14931Y26184D01*
X14931Y25402D01*
X14788Y25259D01*
X14704Y25058D01*
X14704Y24842D01*
X14787Y24641D01*
X14940Y24488D01*
X15032Y24450D01*
X14941Y24412D01*
X14788Y24259D01*
X14704Y24058D01*
X14704Y23842D01*
X14787Y23641D01*
X14940Y23488D01*
X15141Y23404D01*
X15357Y23404D01*
X15535Y23477D01*
X15535Y23477D01*
G37*
G54D43*
X15535Y23477D02*
X14810Y22752D01*
X14810Y22890D01*
X14748Y23100D01*
X14610Y23271D01*
X14418Y23376D01*
X14386Y23383D01*
X14300Y23334D01*
X14300Y22750D01*
X14307Y22750D01*
X14307Y22650D01*
X14300Y22650D01*
X14300Y22065D01*
X14386Y22016D01*
X14418Y22023D01*
X14610Y22128D01*
X14681Y22216D01*
X14681Y21582D01*
X14594Y21495D01*
X14392Y21495D01*
X14191Y21412D01*
X14038Y21259D01*
X13954Y21058D01*
X13954Y20855D01*
X13774Y20675D01*
X13705Y20572D01*
X13681Y20450D01*
X13681Y20037D01*
X13500Y20074D01*
X13283Y20030D01*
X13100Y19908D01*
X13000Y19758D01*
X12899Y19908D01*
X12716Y20030D01*
X12500Y20074D01*
X12283Y20030D01*
X12100Y19908D01*
X12000Y19758D01*
X11899Y19908D01*
X11716Y20030D01*
X11500Y20074D01*
X11283Y20030D01*
X11100Y19908D01*
X11000Y19758D01*
X10903Y19902D01*
X11882Y20881D01*
X13250Y20881D01*
X13250Y20881D01*
X13372Y20905D01*
X13372Y20905D01*
X13475Y20974D01*
X13975Y21474D01*
X13975Y21474D01*
X14010Y21526D01*
X14044Y21577D01*
X14044Y21577D01*
X14068Y21700D01*
X14068Y21700D01*
X14068Y22030D01*
X14081Y22023D01*
X14113Y22016D01*
X14200Y22065D01*
X14200Y22650D01*
X14192Y22650D01*
X14192Y22750D01*
X14200Y22750D01*
X14200Y23334D01*
X14113Y23383D01*
X14083Y23376D01*
X14098Y23450D01*
X14098Y23805D01*
X14496Y24203D01*
X14496Y24203D01*
X14496Y24203D01*
X14571Y24316D01*
X14598Y24450D01*
X14598Y24450D01*
X14598Y24450D01*
X14598Y25118D01*
X14645Y25150D01*
X14767Y25331D01*
X14810Y25546D01*
X14810Y25853D01*
X14767Y26068D01*
X14709Y26154D01*
X14857Y26154D01*
X14931Y26184D01*
X14931Y25402D01*
X14788Y25259D01*
X14704Y25058D01*
X14704Y24842D01*
X14787Y24641D01*
X14940Y24488D01*
X15032Y24450D01*
X14941Y24412D01*
X14788Y24259D01*
X14704Y24058D01*
X14704Y23842D01*
X14787Y23641D01*
X14940Y23488D01*
X15141Y23404D01*
X15357Y23404D01*
X15535Y23477D01*
G54D10*
G36*
X17151Y42783D02*
X17100Y42749D01*
X16997Y42595D01*
X16986Y42625D01*
X16839Y42789D01*
X16640Y42885D01*
X16637Y42885D01*
X16550Y42837D01*
X16550Y42328D01*
X16557Y42328D01*
X16557Y42228D01*
X16550Y42228D01*
X16550Y42220D01*
X16450Y42220D01*
X16450Y42228D01*
X16442Y42228D01*
X16442Y42328D01*
X16450Y42328D01*
X16450Y42837D01*
X16362Y42885D01*
X16359Y42885D01*
X16333Y42872D01*
X16348Y42950D01*
X16348Y43700D01*
X16348Y43700D01*
X16348Y43700D01*
X16321Y43833D01*
X16246Y43946D01*
X16246Y43946D01*
X13598Y46594D01*
X13598Y47450D01*
X13584Y47519D01*
X13750Y47486D01*
X13915Y47519D01*
X13901Y47450D01*
X13928Y47316D01*
X14003Y47203D01*
X17151Y44055D01*
X17151Y42783D01*
X17151Y42783D01*
G37*
G54D43*
X17151Y42783D02*
X17100Y42749D01*
X16997Y42595D01*
X16986Y42625D01*
X16839Y42789D01*
X16640Y42885D01*
X16637Y42885D01*
X16550Y42837D01*
X16550Y42328D01*
X16557Y42328D01*
X16557Y42228D01*
X16550Y42228D01*
X16550Y42220D01*
X16450Y42220D01*
X16450Y42228D01*
X16442Y42228D01*
X16442Y42328D01*
X16450Y42328D01*
X16450Y42837D01*
X16362Y42885D01*
X16359Y42885D01*
X16333Y42872D01*
X16348Y42950D01*
X16348Y43700D01*
X16348Y43700D01*
X16348Y43700D01*
X16321Y43833D01*
X16246Y43946D01*
X16246Y43946D01*
X13598Y46594D01*
X13598Y47450D01*
X13584Y47519D01*
X13750Y47486D01*
X13915Y47519D01*
X13901Y47450D01*
X13928Y47316D01*
X14003Y47203D01*
X17151Y44055D01*
X17151Y42783D01*
G54D10*
G36*
X17262Y41700D02*
X17100Y41592D01*
X17000Y41441D01*
X16899Y41592D01*
X16721Y41710D01*
X16839Y41767D01*
X16986Y41932D01*
X16997Y41962D01*
X17100Y41807D01*
X17262Y41700D01*
X17262Y41700D01*
G37*
G54D43*
X17262Y41700D02*
X17100Y41592D01*
X17000Y41441D01*
X16899Y41592D01*
X16721Y41710D01*
X16839Y41767D01*
X16986Y41932D01*
X16997Y41962D01*
X17100Y41807D01*
X17262Y41700D01*
G54D10*
G36*
X21278Y30689D02*
X21160Y30632D01*
X21013Y30467D01*
X21002Y30437D01*
X20899Y30592D01*
X20737Y30700D01*
X20899Y30807D01*
X21000Y30958D01*
X21100Y30807D01*
X21278Y30689D01*
X21278Y30689D01*
G37*
G54D43*
X21278Y30689D02*
X21160Y30632D01*
X21013Y30467D01*
X21002Y30437D01*
X20899Y30592D01*
X20737Y30700D01*
X20899Y30807D01*
X21000Y30958D01*
X21100Y30807D01*
X21278Y30689D01*
G54D10*
G36*
X21681Y29373D02*
X21253Y28946D01*
X21178Y28833D01*
X21173Y28811D01*
X21151Y28700D01*
X21151Y28699D01*
X21151Y26281D01*
X21104Y26249D01*
X21000Y26094D01*
X20895Y26249D01*
X20714Y26371D01*
X20500Y26413D01*
X20285Y26371D01*
X20104Y26249D01*
X20000Y26094D01*
X19895Y26249D01*
X19848Y26281D01*
X19848Y27305D01*
X20746Y28203D01*
X20746Y28203D01*
X20746Y28203D01*
X20821Y28316D01*
X20848Y28450D01*
X20848Y29616D01*
X20899Y29650D01*
X21002Y29804D01*
X21013Y29774D01*
X21160Y29610D01*
X21359Y29514D01*
X21362Y29514D01*
X21450Y29562D01*
X21450Y30071D01*
X21442Y30071D01*
X21442Y30171D01*
X21450Y30171D01*
X21450Y30179D01*
X21550Y30179D01*
X21550Y30171D01*
X21557Y30171D01*
X21557Y30071D01*
X21550Y30071D01*
X21550Y29562D01*
X21637Y29514D01*
X21640Y29514D01*
X21681Y29533D01*
X21681Y29373D01*
X21681Y29373D01*
G37*
G54D43*
X21681Y29373D02*
X21253Y28946D01*
X21178Y28833D01*
X21173Y28811D01*
X21151Y28700D01*
X21151Y28699D01*
X21151Y26281D01*
X21104Y26249D01*
X21000Y26094D01*
X20895Y26249D01*
X20714Y26371D01*
X20500Y26413D01*
X20285Y26371D01*
X20104Y26249D01*
X20000Y26094D01*
X19895Y26249D01*
X19848Y26281D01*
X19848Y27305D01*
X20746Y28203D01*
X20746Y28203D01*
X20746Y28203D01*
X20821Y28316D01*
X20848Y28450D01*
X20848Y29616D01*
X20899Y29650D01*
X21002Y29804D01*
X21013Y29774D01*
X21160Y29610D01*
X21359Y29514D01*
X21362Y29514D01*
X21450Y29562D01*
X21450Y30071D01*
X21442Y30071D01*
X21442Y30171D01*
X21450Y30171D01*
X21450Y30179D01*
X21550Y30179D01*
X21550Y30171D01*
X21557Y30171D01*
X21557Y30071D01*
X21550Y30071D01*
X21550Y29562D01*
X21637Y29514D01*
X21640Y29514D01*
X21681Y29533D01*
X21681Y29373D01*
G54D10*
G36*
X24356Y23385D02*
X24285Y23371D01*
X24104Y23249D01*
X23999Y23094D01*
X23895Y23249D01*
X23714Y23371D01*
X23500Y23413D01*
X23285Y23371D01*
X23104Y23249D01*
X22999Y23094D01*
X22895Y23249D01*
X22714Y23371D01*
X22500Y23413D01*
X22285Y23371D01*
X22104Y23249D01*
X22000Y23094D01*
X21895Y23249D01*
X21714Y23371D01*
X21500Y23413D01*
X21285Y23371D01*
X21104Y23249D01*
X21000Y23094D01*
X20895Y23249D01*
X20848Y23281D01*
X20848Y23450D01*
X20821Y23583D01*
X20746Y23696D01*
X20746Y23696D01*
X20496Y23946D01*
X20383Y24021D01*
X20361Y24026D01*
X20250Y24048D01*
X20249Y24048D01*
X19250Y24048D01*
X19116Y24021D01*
X19003Y23946D01*
X19003Y23946D01*
X18800Y23742D01*
X18800Y24224D01*
X18800Y24675D01*
X18799Y24774D01*
X18761Y24866D01*
X18691Y24937D01*
X18599Y24975D01*
X18487Y24975D01*
X18425Y24912D01*
X18425Y24500D01*
X18737Y24500D01*
X18800Y24562D01*
X18800Y24675D01*
X18800Y24224D01*
X18800Y24337D01*
X18737Y24400D01*
X18425Y24400D01*
X18425Y23987D01*
X18487Y23925D01*
X18599Y23924D01*
X18691Y23962D01*
X18761Y24033D01*
X18799Y24125D01*
X18800Y24224D01*
X18800Y23742D01*
X18753Y23696D01*
X18678Y23583D01*
X18651Y23450D01*
X18665Y23380D01*
X18500Y23413D01*
X18334Y23380D01*
X18348Y23450D01*
X18321Y23583D01*
X18246Y23696D01*
X17973Y23969D01*
X17973Y23994D01*
X17999Y24021D01*
X18058Y23962D01*
X18150Y23924D01*
X18262Y23925D01*
X18325Y23987D01*
X18325Y24400D01*
X18317Y24400D01*
X18317Y24500D01*
X18325Y24500D01*
X18325Y24912D01*
X18262Y24975D01*
X18150Y24975D01*
X18058Y24937D01*
X17999Y24878D01*
X17973Y24905D01*
X17973Y25075D01*
X17973Y25075D01*
X17973Y25075D01*
X17946Y25208D01*
X17940Y25217D01*
X18000Y25305D01*
X18104Y25150D01*
X18285Y25028D01*
X18500Y24986D01*
X18714Y25028D01*
X18730Y25039D01*
X18774Y24974D01*
X19024Y24724D01*
X19024Y24724D01*
X19076Y24689D01*
X19127Y24655D01*
X19127Y24655D01*
X19250Y24631D01*
X20250Y24631D01*
X20250Y24631D01*
X20372Y24655D01*
X20372Y24655D01*
X20475Y24724D01*
X20725Y24974D01*
X20725Y24974D01*
X20760Y25026D01*
X20794Y25077D01*
X20794Y25077D01*
X20795Y25083D01*
X20795Y25083D01*
X20895Y25150D01*
X21000Y25305D01*
X21104Y25150D01*
X21285Y25028D01*
X21500Y24986D01*
X21714Y25028D01*
X21895Y25150D01*
X22000Y25305D01*
X22104Y25150D01*
X22285Y25028D01*
X22500Y24986D01*
X22714Y25028D01*
X22895Y25150D01*
X22999Y25305D01*
X23104Y25150D01*
X23151Y25118D01*
X23151Y24700D01*
X23151Y24700D01*
X23173Y24588D01*
X23178Y24566D01*
X23253Y24453D01*
X24253Y23453D01*
X24253Y23453D01*
X24356Y23385D01*
X24356Y23385D01*
G37*
G54D43*
X24356Y23385D02*
X24285Y23371D01*
X24104Y23249D01*
X23999Y23094D01*
X23895Y23249D01*
X23714Y23371D01*
X23500Y23413D01*
X23285Y23371D01*
X23104Y23249D01*
X22999Y23094D01*
X22895Y23249D01*
X22714Y23371D01*
X22500Y23413D01*
X22285Y23371D01*
X22104Y23249D01*
X22000Y23094D01*
X21895Y23249D01*
X21714Y23371D01*
X21500Y23413D01*
X21285Y23371D01*
X21104Y23249D01*
X21000Y23094D01*
X20895Y23249D01*
X20848Y23281D01*
X20848Y23450D01*
X20821Y23583D01*
X20746Y23696D01*
X20746Y23696D01*
X20496Y23946D01*
X20383Y24021D01*
X20361Y24026D01*
X20250Y24048D01*
X20249Y24048D01*
X19250Y24048D01*
X19116Y24021D01*
X19003Y23946D01*
X19003Y23946D01*
X18800Y23742D01*
X18800Y24224D01*
X18800Y24675D01*
X18799Y24774D01*
X18761Y24866D01*
X18691Y24937D01*
X18599Y24975D01*
X18487Y24975D01*
X18425Y24912D01*
X18425Y24500D01*
X18737Y24500D01*
X18800Y24562D01*
X18800Y24675D01*
X18800Y24224D01*
X18800Y24337D01*
X18737Y24400D01*
X18425Y24400D01*
X18425Y23987D01*
X18487Y23925D01*
X18599Y23924D01*
X18691Y23962D01*
X18761Y24033D01*
X18799Y24125D01*
X18800Y24224D01*
X18800Y23742D01*
X18753Y23696D01*
X18678Y23583D01*
X18651Y23450D01*
X18665Y23380D01*
X18500Y23413D01*
X18334Y23380D01*
X18348Y23450D01*
X18321Y23583D01*
X18246Y23696D01*
X17973Y23969D01*
X17973Y23994D01*
X17999Y24021D01*
X18058Y23962D01*
X18150Y23924D01*
X18262Y23925D01*
X18325Y23987D01*
X18325Y24400D01*
X18317Y24400D01*
X18317Y24500D01*
X18325Y24500D01*
X18325Y24912D01*
X18262Y24975D01*
X18150Y24975D01*
X18058Y24937D01*
X17999Y24878D01*
X17973Y24905D01*
X17973Y25075D01*
X17973Y25075D01*
X17973Y25075D01*
X17946Y25208D01*
X17940Y25217D01*
X18000Y25305D01*
X18104Y25150D01*
X18285Y25028D01*
X18500Y24986D01*
X18714Y25028D01*
X18730Y25039D01*
X18774Y24974D01*
X19024Y24724D01*
X19024Y24724D01*
X19076Y24689D01*
X19127Y24655D01*
X19127Y24655D01*
X19250Y24631D01*
X20250Y24631D01*
X20250Y24631D01*
X20372Y24655D01*
X20372Y24655D01*
X20475Y24724D01*
X20725Y24974D01*
X20725Y24974D01*
X20760Y25026D01*
X20794Y25077D01*
X20794Y25077D01*
X20795Y25083D01*
X20795Y25083D01*
X20895Y25150D01*
X21000Y25305D01*
X21104Y25150D01*
X21285Y25028D01*
X21500Y24986D01*
X21714Y25028D01*
X21895Y25150D01*
X22000Y25305D01*
X22104Y25150D01*
X22285Y25028D01*
X22500Y24986D01*
X22714Y25028D01*
X22895Y25150D01*
X22999Y25305D01*
X23104Y25150D01*
X23151Y25118D01*
X23151Y24700D01*
X23151Y24700D01*
X23173Y24588D01*
X23178Y24566D01*
X23253Y24453D01*
X24253Y23453D01*
X24253Y23453D01*
X24356Y23385D01*
G54D10*
G36*
X24479Y33150D02*
X24471Y33150D01*
X24471Y33142D01*
X24371Y33142D01*
X24371Y33150D01*
X23862Y33150D01*
X23814Y33062D01*
X23814Y33059D01*
X23910Y32860D01*
X24074Y32713D01*
X24104Y32702D01*
X23950Y32599D01*
X23828Y32416D01*
X23812Y32338D01*
X23795Y32355D01*
X23795Y32557D01*
X23712Y32758D01*
X23559Y32911D01*
X23358Y32995D01*
X23275Y32995D01*
X23275Y34850D01*
X23275Y34962D01*
X23212Y35025D01*
X22800Y35025D01*
X22800Y34712D01*
X22862Y34650D01*
X22975Y34649D01*
X23074Y34650D01*
X23166Y34688D01*
X23237Y34758D01*
X23275Y34850D01*
X23275Y32995D01*
X23142Y32995D01*
X22941Y32912D01*
X22788Y32759D01*
X22704Y32558D01*
X22704Y32342D01*
X22787Y32141D01*
X22940Y31988D01*
X23141Y31904D01*
X23344Y31904D01*
X23361Y31887D01*
X23283Y31871D01*
X23100Y31749D01*
X23000Y31599D01*
X22899Y31749D01*
X22716Y31871D01*
X22700Y31875D01*
X22700Y34712D01*
X22700Y35025D01*
X22287Y35025D01*
X22225Y34962D01*
X22224Y34850D01*
X22262Y34758D01*
X22333Y34688D01*
X22425Y34650D01*
X22524Y34649D01*
X22637Y34650D01*
X22700Y34712D01*
X22700Y31875D01*
X22500Y31914D01*
X22283Y31871D01*
X22100Y31749D01*
X22000Y31599D01*
X21899Y31749D01*
X21800Y31815D01*
X21800Y39224D01*
X21800Y39675D01*
X21799Y39774D01*
X21761Y39866D01*
X21691Y39937D01*
X21599Y39975D01*
X21487Y39975D01*
X21425Y39912D01*
X21425Y39500D01*
X21737Y39500D01*
X21800Y39562D01*
X21800Y39675D01*
X21800Y39224D01*
X21800Y39337D01*
X21737Y39400D01*
X21425Y39400D01*
X21425Y38987D01*
X21487Y38925D01*
X21599Y38924D01*
X21691Y38962D01*
X21761Y39033D01*
X21799Y39125D01*
X21800Y39224D01*
X21800Y31815D01*
X21716Y31871D01*
X21500Y31914D01*
X21283Y31871D01*
X21100Y31749D01*
X21000Y31599D01*
X20899Y31749D01*
X20716Y31871D01*
X20500Y31914D01*
X20283Y31871D01*
X20100Y31749D01*
X20000Y31599D01*
X19899Y31749D01*
X19716Y31871D01*
X19500Y31914D01*
X19283Y31871D01*
X19100Y31749D01*
X18997Y31595D01*
X18986Y31625D01*
X18839Y31789D01*
X18800Y31808D01*
X18800Y32724D01*
X18800Y33175D01*
X18799Y33274D01*
X18761Y33366D01*
X18691Y33437D01*
X18599Y33475D01*
X18487Y33475D01*
X18425Y33412D01*
X18425Y33000D01*
X18737Y33000D01*
X18800Y33062D01*
X18800Y33175D01*
X18800Y32724D01*
X18800Y32837D01*
X18737Y32900D01*
X18425Y32900D01*
X18425Y32487D01*
X18487Y32425D01*
X18599Y32424D01*
X18691Y32462D01*
X18761Y32533D01*
X18799Y32625D01*
X18800Y32724D01*
X18800Y31808D01*
X18640Y31885D01*
X18637Y31885D01*
X18550Y31837D01*
X18550Y31328D01*
X18557Y31328D01*
X18557Y31228D01*
X18550Y31228D01*
X18550Y31220D01*
X18450Y31220D01*
X18450Y31228D01*
X18442Y31228D01*
X18442Y31328D01*
X18450Y31328D01*
X18450Y31837D01*
X18362Y31885D01*
X18359Y31885D01*
X18160Y31789D01*
X18013Y31625D01*
X18002Y31595D01*
X17899Y31749D01*
X17716Y31871D01*
X17500Y31914D01*
X17283Y31871D01*
X17100Y31749D01*
X17000Y31599D01*
X16907Y31737D01*
X16907Y32031D01*
X17030Y32154D01*
X17107Y32154D01*
X17308Y32237D01*
X17461Y32390D01*
X17476Y32424D01*
X17499Y32424D01*
X17849Y32424D01*
X17941Y32462D01*
X17999Y32521D01*
X18058Y32462D01*
X18150Y32424D01*
X18262Y32425D01*
X18325Y32487D01*
X18325Y32900D01*
X18317Y32900D01*
X18317Y33000D01*
X18325Y33000D01*
X18325Y33412D01*
X18262Y33475D01*
X18150Y33475D01*
X18058Y33437D01*
X17999Y33378D01*
X17941Y33436D01*
X17849Y33474D01*
X17750Y33475D01*
X17400Y33475D01*
X17308Y33437D01*
X17238Y33366D01*
X17232Y33354D01*
X17094Y33326D01*
X16972Y33245D01*
X16972Y33245D01*
X16892Y33245D01*
X16691Y33162D01*
X16538Y33009D01*
X16454Y32808D01*
X16454Y32731D01*
X16211Y32488D01*
X16123Y32355D01*
X16092Y32200D01*
X16092Y32199D01*
X16092Y31737D01*
X16000Y31599D01*
X15899Y31749D01*
X15716Y31871D01*
X15500Y31914D01*
X15283Y31871D01*
X15100Y31749D01*
X14978Y31566D01*
X14972Y31539D01*
X14840Y31672D01*
X14866Y31678D01*
X15049Y31800D01*
X15171Y31983D01*
X15214Y32200D01*
X15171Y32416D01*
X15049Y32599D01*
X14899Y32700D01*
X15049Y32800D01*
X15171Y32983D01*
X15214Y33200D01*
X15178Y33381D01*
X15250Y33381D01*
X15250Y33381D01*
X15372Y33405D01*
X15372Y33405D01*
X15475Y33474D01*
X16405Y34404D01*
X16607Y34404D01*
X16808Y34487D01*
X16961Y34640D01*
X17045Y34841D01*
X17045Y35057D01*
X16962Y35258D01*
X16818Y35402D01*
X16818Y36899D01*
X16824Y36899D01*
X16916Y36937D01*
X16986Y37008D01*
X17024Y37100D01*
X17025Y37199D01*
X17025Y37549D01*
X16987Y37641D01*
X16928Y37700D01*
X16987Y37758D01*
X17025Y37850D01*
X17025Y38299D01*
X16987Y38391D01*
X16916Y38461D01*
X16824Y38499D01*
X16725Y38500D01*
X16612Y38500D01*
X16550Y38437D01*
X16550Y38125D01*
X16962Y38125D01*
X17025Y38187D01*
X17025Y38299D01*
X17025Y37850D01*
X17025Y37962D01*
X16962Y38025D01*
X16550Y38025D01*
X16550Y38017D01*
X16450Y38017D01*
X16450Y38025D01*
X16450Y38125D01*
X16450Y38437D01*
X16387Y38500D01*
X16274Y38500D01*
X16175Y38499D01*
X16083Y38461D01*
X16012Y38391D01*
X15974Y38299D01*
X15975Y38187D01*
X16037Y38125D01*
X16450Y38125D01*
X16450Y38025D01*
X16037Y38025D01*
X15975Y37962D01*
X15974Y37850D01*
X16012Y37758D01*
X16071Y37699D01*
X16013Y37641D01*
X15975Y37549D01*
X15974Y37450D01*
X15974Y37100D01*
X16012Y37008D01*
X16083Y36938D01*
X16175Y36900D01*
X16181Y36900D01*
X16181Y35402D01*
X16038Y35259D01*
X15954Y35058D01*
X15954Y34855D01*
X15194Y34095D01*
X15214Y34200D01*
X15171Y34416D01*
X15049Y34599D01*
X14899Y34700D01*
X15049Y34800D01*
X15171Y34983D01*
X15214Y35200D01*
X15171Y35416D01*
X15049Y35599D01*
X14899Y35700D01*
X15049Y35800D01*
X15171Y35983D01*
X15214Y36200D01*
X15171Y36416D01*
X15049Y36599D01*
X14899Y36700D01*
X15049Y36800D01*
X15171Y36983D01*
X15214Y37200D01*
X15171Y37416D01*
X15049Y37599D01*
X14895Y37702D01*
X14925Y37713D01*
X15089Y37860D01*
X15185Y38059D01*
X15185Y38062D01*
X15137Y38150D01*
X14628Y38150D01*
X14628Y38142D01*
X14528Y38142D01*
X14528Y38150D01*
X14520Y38150D01*
X14520Y38250D01*
X14528Y38250D01*
X14528Y38257D01*
X14628Y38257D01*
X14628Y38250D01*
X15137Y38250D01*
X15185Y38337D01*
X15185Y38340D01*
X15089Y38539D01*
X14925Y38686D01*
X14895Y38697D01*
X15049Y38800D01*
X15171Y38983D01*
X15214Y39200D01*
X15171Y39416D01*
X15049Y39599D01*
X14899Y39700D01*
X15049Y39800D01*
X15171Y39983D01*
X15180Y40026D01*
X15753Y39453D01*
X15753Y39453D01*
X15866Y39378D01*
X15954Y39360D01*
X15954Y39342D01*
X16037Y39141D01*
X16190Y38988D01*
X16391Y38904D01*
X16607Y38904D01*
X16808Y38987D01*
X16961Y39140D01*
X17045Y39341D01*
X17045Y39557D01*
X16962Y39758D01*
X16809Y39911D01*
X16608Y39995D01*
X16423Y39995D01*
X16423Y39995D01*
X16383Y40021D01*
X16361Y40026D01*
X16250Y40048D01*
X16249Y40048D01*
X16144Y40048D01*
X15673Y40519D01*
X15716Y40528D01*
X15899Y40650D01*
X16000Y40800D01*
X16100Y40650D01*
X16283Y40528D01*
X16500Y40485D01*
X16716Y40528D01*
X16899Y40650D01*
X17000Y40800D01*
X17100Y40650D01*
X17283Y40528D01*
X17500Y40485D01*
X17716Y40528D01*
X17899Y40650D01*
X18000Y40800D01*
X18100Y40650D01*
X18283Y40528D01*
X18500Y40485D01*
X18681Y40521D01*
X18681Y39700D01*
X18705Y39577D01*
X18709Y39571D01*
X18709Y39571D01*
X18704Y39558D01*
X18704Y39342D01*
X18787Y39141D01*
X18940Y38988D01*
X19141Y38904D01*
X19357Y38904D01*
X19558Y38987D01*
X19702Y39131D01*
X20199Y39131D01*
X20199Y39125D01*
X20237Y39033D01*
X20308Y38963D01*
X20400Y38925D01*
X20499Y38924D01*
X20849Y38924D01*
X20941Y38962D01*
X21000Y39021D01*
X21058Y38962D01*
X21150Y38924D01*
X21262Y38925D01*
X21325Y38987D01*
X21325Y39400D01*
X21317Y39400D01*
X21317Y39500D01*
X21325Y39500D01*
X21325Y39912D01*
X21262Y39975D01*
X21150Y39975D01*
X21058Y39937D01*
X20999Y39878D01*
X20941Y39936D01*
X20849Y39974D01*
X20750Y39975D01*
X20400Y39975D01*
X20308Y39937D01*
X20238Y39866D01*
X20200Y39774D01*
X20200Y39768D01*
X19702Y39768D01*
X19559Y39911D01*
X19358Y39995D01*
X19318Y39995D01*
X19318Y40521D01*
X19500Y40485D01*
X19716Y40528D01*
X19899Y40650D01*
X20000Y40800D01*
X20100Y40650D01*
X20283Y40528D01*
X20500Y40485D01*
X20716Y40528D01*
X20899Y40650D01*
X21002Y40804D01*
X21013Y40774D01*
X21160Y40610D01*
X21359Y40514D01*
X21362Y40514D01*
X21450Y40562D01*
X21450Y41071D01*
X21442Y41071D01*
X21442Y41171D01*
X21450Y41171D01*
X21450Y41179D01*
X21550Y41179D01*
X21550Y41171D01*
X21557Y41171D01*
X21557Y41071D01*
X21550Y41071D01*
X21550Y40562D01*
X21637Y40514D01*
X21640Y40514D01*
X21839Y40610D01*
X21986Y40774D01*
X21997Y40804D01*
X22100Y40650D01*
X22283Y40528D01*
X22500Y40485D01*
X22716Y40528D01*
X22899Y40650D01*
X23000Y40800D01*
X23100Y40650D01*
X23151Y40616D01*
X23151Y40594D01*
X22802Y40245D01*
X22642Y40245D01*
X22441Y40162D01*
X22288Y40009D01*
X22204Y39808D01*
X22204Y39592D01*
X22287Y39391D01*
X22440Y39238D01*
X22641Y39154D01*
X22857Y39154D01*
X23058Y39237D01*
X23211Y39390D01*
X23295Y39591D01*
X23295Y39752D01*
X23746Y40203D01*
X23746Y40203D01*
X23746Y40203D01*
X23802Y40287D01*
X23785Y40200D01*
X23828Y39983D01*
X23950Y39800D01*
X24100Y39700D01*
X23950Y39599D01*
X23828Y39416D01*
X23785Y39200D01*
X23828Y38983D01*
X23950Y38800D01*
X24100Y38700D01*
X23950Y38599D01*
X23828Y38416D01*
X23785Y38200D01*
X23821Y38018D01*
X23750Y38018D01*
X23627Y37994D01*
X23576Y37960D01*
X23524Y37925D01*
X22844Y37245D01*
X22642Y37245D01*
X22441Y37162D01*
X22288Y37009D01*
X22204Y36808D01*
X22204Y36592D01*
X22287Y36391D01*
X22401Y36277D01*
X22401Y36240D01*
X22333Y36212D01*
X22263Y36141D01*
X22225Y36049D01*
X22224Y35950D01*
X22224Y35600D01*
X22262Y35508D01*
X22321Y35450D01*
X22262Y35391D01*
X22224Y35299D01*
X22225Y35187D01*
X22287Y35125D01*
X22700Y35125D01*
X22700Y35132D01*
X22800Y35132D01*
X22800Y35125D01*
X23212Y35125D01*
X23275Y35187D01*
X23275Y35299D01*
X23237Y35391D01*
X23178Y35450D01*
X23236Y35508D01*
X23274Y35600D01*
X23275Y35699D01*
X23275Y36049D01*
X23237Y36141D01*
X23166Y36211D01*
X23098Y36240D01*
X23098Y36277D01*
X23211Y36390D01*
X23295Y36591D01*
X23295Y36794D01*
X23805Y37304D01*
X23785Y37200D01*
X23828Y36983D01*
X23950Y36800D01*
X24100Y36700D01*
X23950Y36599D01*
X23828Y36416D01*
X23785Y36200D01*
X23828Y35983D01*
X23950Y35800D01*
X24100Y35700D01*
X23950Y35599D01*
X23828Y35416D01*
X23785Y35200D01*
X23828Y34983D01*
X23950Y34800D01*
X24100Y34700D01*
X23950Y34599D01*
X23828Y34416D01*
X23785Y34200D01*
X23828Y33983D01*
X23950Y33800D01*
X24104Y33697D01*
X24074Y33686D01*
X23910Y33539D01*
X23814Y33340D01*
X23814Y33337D01*
X23862Y33250D01*
X24371Y33250D01*
X24371Y33257D01*
X24471Y33257D01*
X24471Y33250D01*
X24479Y33250D01*
X24479Y33150D01*
X24479Y33150D01*
G37*
G54D43*
X24479Y33150D02*
X24471Y33150D01*
X24471Y33142D01*
X24371Y33142D01*
X24371Y33150D01*
X23862Y33150D01*
X23814Y33062D01*
X23814Y33059D01*
X23910Y32860D01*
X24074Y32713D01*
X24104Y32702D01*
X23950Y32599D01*
X23828Y32416D01*
X23812Y32338D01*
X23795Y32355D01*
X23795Y32557D01*
X23712Y32758D01*
X23559Y32911D01*
X23358Y32995D01*
X23275Y32995D01*
X23275Y34850D01*
X23275Y34962D01*
X23212Y35025D01*
X22800Y35025D01*
X22800Y34712D01*
X22862Y34650D01*
X22975Y34649D01*
X23074Y34650D01*
X23166Y34688D01*
X23237Y34758D01*
X23275Y34850D01*
X23275Y32995D01*
X23142Y32995D01*
X22941Y32912D01*
X22788Y32759D01*
X22704Y32558D01*
X22704Y32342D01*
X22787Y32141D01*
X22940Y31988D01*
X23141Y31904D01*
X23344Y31904D01*
X23361Y31887D01*
X23283Y31871D01*
X23100Y31749D01*
X23000Y31599D01*
X22899Y31749D01*
X22716Y31871D01*
X22700Y31875D01*
X22700Y34712D01*
X22700Y35025D01*
X22287Y35025D01*
X22225Y34962D01*
X22224Y34850D01*
X22262Y34758D01*
X22333Y34688D01*
X22425Y34650D01*
X22524Y34649D01*
X22637Y34650D01*
X22700Y34712D01*
X22700Y31875D01*
X22500Y31914D01*
X22283Y31871D01*
X22100Y31749D01*
X22000Y31599D01*
X21899Y31749D01*
X21800Y31815D01*
X21800Y39224D01*
X21800Y39675D01*
X21799Y39774D01*
X21761Y39866D01*
X21691Y39937D01*
X21599Y39975D01*
X21487Y39975D01*
X21425Y39912D01*
X21425Y39500D01*
X21737Y39500D01*
X21800Y39562D01*
X21800Y39675D01*
X21800Y39224D01*
X21800Y39337D01*
X21737Y39400D01*
X21425Y39400D01*
X21425Y38987D01*
X21487Y38925D01*
X21599Y38924D01*
X21691Y38962D01*
X21761Y39033D01*
X21799Y39125D01*
X21800Y39224D01*
X21800Y31815D01*
X21716Y31871D01*
X21500Y31914D01*
X21283Y31871D01*
X21100Y31749D01*
X21000Y31599D01*
X20899Y31749D01*
X20716Y31871D01*
X20500Y31914D01*
X20283Y31871D01*
X20100Y31749D01*
X20000Y31599D01*
X19899Y31749D01*
X19716Y31871D01*
X19500Y31914D01*
X19283Y31871D01*
X19100Y31749D01*
X18997Y31595D01*
X18986Y31625D01*
X18839Y31789D01*
X18800Y31808D01*
X18800Y32724D01*
X18800Y33175D01*
X18799Y33274D01*
X18761Y33366D01*
X18691Y33437D01*
X18599Y33475D01*
X18487Y33475D01*
X18425Y33412D01*
X18425Y33000D01*
X18737Y33000D01*
X18800Y33062D01*
X18800Y33175D01*
X18800Y32724D01*
X18800Y32837D01*
X18737Y32900D01*
X18425Y32900D01*
X18425Y32487D01*
X18487Y32425D01*
X18599Y32424D01*
X18691Y32462D01*
X18761Y32533D01*
X18799Y32625D01*
X18800Y32724D01*
X18800Y31808D01*
X18640Y31885D01*
X18637Y31885D01*
X18550Y31837D01*
X18550Y31328D01*
X18557Y31328D01*
X18557Y31228D01*
X18550Y31228D01*
X18550Y31220D01*
X18450Y31220D01*
X18450Y31228D01*
X18442Y31228D01*
X18442Y31328D01*
X18450Y31328D01*
X18450Y31837D01*
X18362Y31885D01*
X18359Y31885D01*
X18160Y31789D01*
X18013Y31625D01*
X18002Y31595D01*
X17899Y31749D01*
X17716Y31871D01*
X17500Y31914D01*
X17283Y31871D01*
X17100Y31749D01*
X17000Y31599D01*
X16907Y31737D01*
X16907Y32031D01*
X17030Y32154D01*
X17107Y32154D01*
X17308Y32237D01*
X17461Y32390D01*
X17476Y32424D01*
X17499Y32424D01*
X17849Y32424D01*
X17941Y32462D01*
X17999Y32521D01*
X18058Y32462D01*
X18150Y32424D01*
X18262Y32425D01*
X18325Y32487D01*
X18325Y32900D01*
X18317Y32900D01*
X18317Y33000D01*
X18325Y33000D01*
X18325Y33412D01*
X18262Y33475D01*
X18150Y33475D01*
X18058Y33437D01*
X17999Y33378D01*
X17941Y33436D01*
X17849Y33474D01*
X17750Y33475D01*
X17400Y33475D01*
X17308Y33437D01*
X17238Y33366D01*
X17232Y33354D01*
X17094Y33326D01*
X16972Y33245D01*
X16972Y33245D01*
X16892Y33245D01*
X16691Y33162D01*
X16538Y33009D01*
X16454Y32808D01*
X16454Y32731D01*
X16211Y32488D01*
X16123Y32355D01*
X16092Y32200D01*
X16092Y32199D01*
X16092Y31737D01*
X16000Y31599D01*
X15899Y31749D01*
X15716Y31871D01*
X15500Y31914D01*
X15283Y31871D01*
X15100Y31749D01*
X14978Y31566D01*
X14972Y31539D01*
X14840Y31672D01*
X14866Y31678D01*
X15049Y31800D01*
X15171Y31983D01*
X15214Y32200D01*
X15171Y32416D01*
X15049Y32599D01*
X14899Y32700D01*
X15049Y32800D01*
X15171Y32983D01*
X15214Y33200D01*
X15178Y33381D01*
X15250Y33381D01*
X15250Y33381D01*
X15372Y33405D01*
X15372Y33405D01*
X15475Y33474D01*
X16405Y34404D01*
X16607Y34404D01*
X16808Y34487D01*
X16961Y34640D01*
X17045Y34841D01*
X17045Y35057D01*
X16962Y35258D01*
X16818Y35402D01*
X16818Y36899D01*
X16824Y36899D01*
X16916Y36937D01*
X16986Y37008D01*
X17024Y37100D01*
X17025Y37199D01*
X17025Y37549D01*
X16987Y37641D01*
X16928Y37700D01*
X16987Y37758D01*
X17025Y37850D01*
X17025Y38299D01*
X16987Y38391D01*
X16916Y38461D01*
X16824Y38499D01*
X16725Y38500D01*
X16612Y38500D01*
X16550Y38437D01*
X16550Y38125D01*
X16962Y38125D01*
X17025Y38187D01*
X17025Y38299D01*
X17025Y37850D01*
X17025Y37962D01*
X16962Y38025D01*
X16550Y38025D01*
X16550Y38017D01*
X16450Y38017D01*
X16450Y38025D01*
X16450Y38125D01*
X16450Y38437D01*
X16387Y38500D01*
X16274Y38500D01*
X16175Y38499D01*
X16083Y38461D01*
X16012Y38391D01*
X15974Y38299D01*
X15975Y38187D01*
X16037Y38125D01*
X16450Y38125D01*
X16450Y38025D01*
X16037Y38025D01*
X15975Y37962D01*
X15974Y37850D01*
X16012Y37758D01*
X16071Y37699D01*
X16013Y37641D01*
X15975Y37549D01*
X15974Y37450D01*
X15974Y37100D01*
X16012Y37008D01*
X16083Y36938D01*
X16175Y36900D01*
X16181Y36900D01*
X16181Y35402D01*
X16038Y35259D01*
X15954Y35058D01*
X15954Y34855D01*
X15194Y34095D01*
X15214Y34200D01*
X15171Y34416D01*
X15049Y34599D01*
X14899Y34700D01*
X15049Y34800D01*
X15171Y34983D01*
X15214Y35200D01*
X15171Y35416D01*
X15049Y35599D01*
X14899Y35700D01*
X15049Y35800D01*
X15171Y35983D01*
X15214Y36200D01*
X15171Y36416D01*
X15049Y36599D01*
X14899Y36700D01*
X15049Y36800D01*
X15171Y36983D01*
X15214Y37200D01*
X15171Y37416D01*
X15049Y37599D01*
X14895Y37702D01*
X14925Y37713D01*
X15089Y37860D01*
X15185Y38059D01*
X15185Y38062D01*
X15137Y38150D01*
X14628Y38150D01*
X14628Y38142D01*
X14528Y38142D01*
X14528Y38150D01*
X14520Y38150D01*
X14520Y38250D01*
X14528Y38250D01*
X14528Y38257D01*
X14628Y38257D01*
X14628Y38250D01*
X15137Y38250D01*
X15185Y38337D01*
X15185Y38340D01*
X15089Y38539D01*
X14925Y38686D01*
X14895Y38697D01*
X15049Y38800D01*
X15171Y38983D01*
X15214Y39200D01*
X15171Y39416D01*
X15049Y39599D01*
X14899Y39700D01*
X15049Y39800D01*
X15171Y39983D01*
X15180Y40026D01*
X15753Y39453D01*
X15753Y39453D01*
X15866Y39378D01*
X15954Y39360D01*
X15954Y39342D01*
X16037Y39141D01*
X16190Y38988D01*
X16391Y38904D01*
X16607Y38904D01*
X16808Y38987D01*
X16961Y39140D01*
X17045Y39341D01*
X17045Y39557D01*
X16962Y39758D01*
X16809Y39911D01*
X16608Y39995D01*
X16423Y39995D01*
X16423Y39995D01*
X16383Y40021D01*
X16361Y40026D01*
X16250Y40048D01*
X16249Y40048D01*
X16144Y40048D01*
X15673Y40519D01*
X15716Y40528D01*
X15899Y40650D01*
X16000Y40800D01*
X16100Y40650D01*
X16283Y40528D01*
X16500Y40485D01*
X16716Y40528D01*
X16899Y40650D01*
X17000Y40800D01*
X17100Y40650D01*
X17283Y40528D01*
X17500Y40485D01*
X17716Y40528D01*
X17899Y40650D01*
X18000Y40800D01*
X18100Y40650D01*
X18283Y40528D01*
X18500Y40485D01*
X18681Y40521D01*
X18681Y39700D01*
X18705Y39577D01*
X18709Y39571D01*
X18709Y39571D01*
X18704Y39558D01*
X18704Y39342D01*
X18787Y39141D01*
X18940Y38988D01*
X19141Y38904D01*
X19357Y38904D01*
X19558Y38987D01*
X19702Y39131D01*
X20199Y39131D01*
X20199Y39125D01*
X20237Y39033D01*
X20308Y38963D01*
X20400Y38925D01*
X20499Y38924D01*
X20849Y38924D01*
X20941Y38962D01*
X21000Y39021D01*
X21058Y38962D01*
X21150Y38924D01*
X21262Y38925D01*
X21325Y38987D01*
X21325Y39400D01*
X21317Y39400D01*
X21317Y39500D01*
X21325Y39500D01*
X21325Y39912D01*
X21262Y39975D01*
X21150Y39975D01*
X21058Y39937D01*
X20999Y39878D01*
X20941Y39936D01*
X20849Y39974D01*
X20750Y39975D01*
X20400Y39975D01*
X20308Y39937D01*
X20238Y39866D01*
X20200Y39774D01*
X20200Y39768D01*
X19702Y39768D01*
X19559Y39911D01*
X19358Y39995D01*
X19318Y39995D01*
X19318Y40521D01*
X19500Y40485D01*
X19716Y40528D01*
X19899Y40650D01*
X20000Y40800D01*
X20100Y40650D01*
X20283Y40528D01*
X20500Y40485D01*
X20716Y40528D01*
X20899Y40650D01*
X21002Y40804D01*
X21013Y40774D01*
X21160Y40610D01*
X21359Y40514D01*
X21362Y40514D01*
X21450Y40562D01*
X21450Y41071D01*
X21442Y41071D01*
X21442Y41171D01*
X21450Y41171D01*
X21450Y41179D01*
X21550Y41179D01*
X21550Y41171D01*
X21557Y41171D01*
X21557Y41071D01*
X21550Y41071D01*
X21550Y40562D01*
X21637Y40514D01*
X21640Y40514D01*
X21839Y40610D01*
X21986Y40774D01*
X21997Y40804D01*
X22100Y40650D01*
X22283Y40528D01*
X22500Y40485D01*
X22716Y40528D01*
X22899Y40650D01*
X23000Y40800D01*
X23100Y40650D01*
X23151Y40616D01*
X23151Y40594D01*
X22802Y40245D01*
X22642Y40245D01*
X22441Y40162D01*
X22288Y40009D01*
X22204Y39808D01*
X22204Y39592D01*
X22287Y39391D01*
X22440Y39238D01*
X22641Y39154D01*
X22857Y39154D01*
X23058Y39237D01*
X23211Y39390D01*
X23295Y39591D01*
X23295Y39752D01*
X23746Y40203D01*
X23746Y40203D01*
X23746Y40203D01*
X23802Y40287D01*
X23785Y40200D01*
X23828Y39983D01*
X23950Y39800D01*
X24100Y39700D01*
X23950Y39599D01*
X23828Y39416D01*
X23785Y39200D01*
X23828Y38983D01*
X23950Y38800D01*
X24100Y38700D01*
X23950Y38599D01*
X23828Y38416D01*
X23785Y38200D01*
X23821Y38018D01*
X23750Y38018D01*
X23627Y37994D01*
X23576Y37960D01*
X23524Y37925D01*
X22844Y37245D01*
X22642Y37245D01*
X22441Y37162D01*
X22288Y37009D01*
X22204Y36808D01*
X22204Y36592D01*
X22287Y36391D01*
X22401Y36277D01*
X22401Y36240D01*
X22333Y36212D01*
X22263Y36141D01*
X22225Y36049D01*
X22224Y35950D01*
X22224Y35600D01*
X22262Y35508D01*
X22321Y35450D01*
X22262Y35391D01*
X22224Y35299D01*
X22225Y35187D01*
X22287Y35125D01*
X22700Y35125D01*
X22700Y35132D01*
X22800Y35132D01*
X22800Y35125D01*
X23212Y35125D01*
X23275Y35187D01*
X23275Y35299D01*
X23237Y35391D01*
X23178Y35450D01*
X23236Y35508D01*
X23274Y35600D01*
X23275Y35699D01*
X23275Y36049D01*
X23237Y36141D01*
X23166Y36211D01*
X23098Y36240D01*
X23098Y36277D01*
X23211Y36390D01*
X23295Y36591D01*
X23295Y36794D01*
X23805Y37304D01*
X23785Y37200D01*
X23828Y36983D01*
X23950Y36800D01*
X24100Y36700D01*
X23950Y36599D01*
X23828Y36416D01*
X23785Y36200D01*
X23828Y35983D01*
X23950Y35800D01*
X24100Y35700D01*
X23950Y35599D01*
X23828Y35416D01*
X23785Y35200D01*
X23828Y34983D01*
X23950Y34800D01*
X24100Y34700D01*
X23950Y34599D01*
X23828Y34416D01*
X23785Y34200D01*
X23828Y33983D01*
X23950Y33800D01*
X24104Y33697D01*
X24074Y33686D01*
X23910Y33539D01*
X23814Y33340D01*
X23814Y33337D01*
X23862Y33250D01*
X24371Y33250D01*
X24371Y33257D01*
X24471Y33257D01*
X24471Y33250D01*
X24479Y33250D01*
X24479Y33150D01*
G54D10*
G36*
X25262Y39702D02*
X25107Y39599D01*
X25000Y39437D01*
X24892Y39599D01*
X24741Y39700D01*
X24892Y39800D01*
X25010Y39978D01*
X25067Y39860D01*
X25232Y39713D01*
X25262Y39702D01*
X25262Y39702D01*
G37*
G54D43*
X25262Y39702D02*
X25107Y39599D01*
X25000Y39437D01*
X24892Y39599D01*
X24741Y39700D01*
X24892Y39800D01*
X25010Y39978D01*
X25067Y39860D01*
X25232Y39713D01*
X25262Y39702D01*
G54D10*
G36*
X28151Y37727D02*
X28108Y37745D01*
X27892Y37745D01*
X27691Y37662D01*
X27577Y37548D01*
X26750Y37548D01*
X26750Y37548D01*
X26616Y37521D01*
X26503Y37446D01*
X26503Y37446D01*
X26204Y37147D01*
X26214Y37200D01*
X26171Y37416D01*
X26049Y37599D01*
X25899Y37700D01*
X26049Y37800D01*
X26171Y37983D01*
X26214Y38200D01*
X26171Y38416D01*
X26049Y38599D01*
X25899Y38700D01*
X26049Y38800D01*
X26171Y38983D01*
X26214Y39200D01*
X26171Y39416D01*
X26049Y39599D01*
X25895Y39702D01*
X25925Y39713D01*
X26089Y39860D01*
X26185Y40059D01*
X26185Y40062D01*
X26137Y40150D01*
X25628Y40150D01*
X25628Y40142D01*
X25528Y40142D01*
X25528Y40150D01*
X25520Y40150D01*
X25520Y40250D01*
X25528Y40250D01*
X25528Y40257D01*
X25628Y40257D01*
X25628Y40250D01*
X26137Y40250D01*
X26185Y40337D01*
X26185Y40340D01*
X26089Y40539D01*
X25925Y40686D01*
X25895Y40697D01*
X26049Y40800D01*
X26083Y40851D01*
X26499Y40851D01*
X26500Y40851D01*
X26500Y40851D01*
X26611Y40873D01*
X26633Y40878D01*
X26633Y40878D01*
X26746Y40953D01*
X28151Y42358D01*
X28151Y37727D01*
X28151Y37727D01*
G37*
G54D43*
X28151Y37727D02*
X28108Y37745D01*
X27892Y37745D01*
X27691Y37662D01*
X27577Y37548D01*
X26750Y37548D01*
X26750Y37548D01*
X26616Y37521D01*
X26503Y37446D01*
X26503Y37446D01*
X26204Y37147D01*
X26214Y37200D01*
X26171Y37416D01*
X26049Y37599D01*
X25899Y37700D01*
X26049Y37800D01*
X26171Y37983D01*
X26214Y38200D01*
X26171Y38416D01*
X26049Y38599D01*
X25899Y38700D01*
X26049Y38800D01*
X26171Y38983D01*
X26214Y39200D01*
X26171Y39416D01*
X26049Y39599D01*
X25895Y39702D01*
X25925Y39713D01*
X26089Y39860D01*
X26185Y40059D01*
X26185Y40062D01*
X26137Y40150D01*
X25628Y40150D01*
X25628Y40142D01*
X25528Y40142D01*
X25528Y40150D01*
X25520Y40150D01*
X25520Y40250D01*
X25528Y40250D01*
X25528Y40257D01*
X25628Y40257D01*
X25628Y40250D01*
X26137Y40250D01*
X26185Y40337D01*
X26185Y40340D01*
X26089Y40539D01*
X25925Y40686D01*
X25895Y40697D01*
X26049Y40800D01*
X26083Y40851D01*
X26499Y40851D01*
X26500Y40851D01*
X26500Y40851D01*
X26611Y40873D01*
X26633Y40878D01*
X26633Y40878D01*
X26746Y40953D01*
X28151Y42358D01*
X28151Y37727D01*
G54D10*
G36*
X29980Y45962D02*
X29800Y46142D01*
X29800Y63907D01*
X29640Y64294D01*
X29345Y64589D01*
X28959Y64749D01*
X28542Y64750D01*
X28156Y64590D01*
X27860Y64295D01*
X27700Y63909D01*
X27699Y63492D01*
X27859Y63106D01*
X28154Y62810D01*
X28540Y62650D01*
X28957Y62649D01*
X29344Y62809D01*
X29639Y63104D01*
X29799Y63490D01*
X29800Y63907D01*
X29800Y46142D01*
X28746Y47196D01*
X28633Y47271D01*
X28611Y47276D01*
X28500Y47298D01*
X28499Y47298D01*
X28310Y47298D01*
X28310Y48010D01*
X28310Y48150D01*
X28310Y48250D01*
X28310Y48390D01*
X28300Y48423D01*
X28300Y52724D01*
X28300Y53175D01*
X28299Y53274D01*
X28261Y53366D01*
X28191Y53437D01*
X28099Y53475D01*
X27987Y53475D01*
X27925Y53412D01*
X27925Y53000D01*
X28237Y53000D01*
X28300Y53062D01*
X28300Y53175D01*
X28300Y52724D01*
X28300Y52837D01*
X28237Y52900D01*
X27925Y52900D01*
X27925Y52487D01*
X27987Y52425D01*
X28099Y52424D01*
X28191Y52462D01*
X28261Y52533D01*
X28299Y52625D01*
X28300Y52724D01*
X28300Y48423D01*
X28248Y48600D01*
X28110Y48771D01*
X27918Y48876D01*
X27886Y48883D01*
X27800Y48834D01*
X27800Y48250D01*
X28310Y48250D01*
X28310Y48150D01*
X27800Y48150D01*
X27800Y47565D01*
X27886Y47516D01*
X27918Y47523D01*
X28110Y47628D01*
X28248Y47799D01*
X28310Y48010D01*
X28310Y47298D01*
X24644Y47298D01*
X24598Y47344D01*
X24598Y47450D01*
X24584Y47519D01*
X24750Y47486D01*
X24964Y47528D01*
X25145Y47650D01*
X25250Y47805D01*
X25354Y47650D01*
X25535Y47528D01*
X25750Y47486D01*
X25964Y47528D01*
X26145Y47650D01*
X26250Y47805D01*
X26354Y47650D01*
X26535Y47528D01*
X26750Y47486D01*
X26964Y47528D01*
X27145Y47650D01*
X27249Y47805D01*
X27251Y47799D01*
X27389Y47628D01*
X27581Y47523D01*
X27613Y47516D01*
X27700Y47565D01*
X27700Y48150D01*
X27692Y48150D01*
X27692Y48250D01*
X27700Y48250D01*
X27700Y48834D01*
X27613Y48883D01*
X27581Y48876D01*
X27389Y48771D01*
X27251Y48600D01*
X27249Y48594D01*
X27145Y48749D01*
X27098Y48781D01*
X27098Y50450D01*
X27071Y50583D01*
X26996Y50696D01*
X26996Y50696D01*
X25996Y51696D01*
X25883Y51771D01*
X25861Y51776D01*
X25750Y51798D01*
X25749Y51798D01*
X25341Y51798D01*
X25996Y52453D01*
X25996Y52453D01*
X25996Y52453D01*
X26071Y52566D01*
X26098Y52699D01*
X26098Y52700D01*
X26098Y52700D01*
X26098Y53618D01*
X26145Y53650D01*
X26250Y53805D01*
X26342Y53667D01*
X26342Y53450D01*
X26342Y53450D01*
X26373Y53294D01*
X26461Y53161D01*
X26699Y52923D01*
X26699Y52625D01*
X26737Y52533D01*
X26808Y52463D01*
X26900Y52425D01*
X26999Y52424D01*
X27349Y52424D01*
X27441Y52462D01*
X27499Y52521D01*
X27558Y52462D01*
X27650Y52424D01*
X27762Y52425D01*
X27825Y52487D01*
X27825Y52900D01*
X27817Y52900D01*
X27817Y53000D01*
X27825Y53000D01*
X27825Y53412D01*
X27762Y53475D01*
X27650Y53475D01*
X27558Y53437D01*
X27499Y53378D01*
X27441Y53436D01*
X27349Y53474D01*
X27301Y53474D01*
X27157Y53618D01*
X27157Y53667D01*
X27241Y53792D01*
X27258Y53792D01*
X27354Y53650D01*
X27535Y53528D01*
X27750Y53486D01*
X27964Y53528D01*
X28145Y53650D01*
X28267Y53831D01*
X28310Y54046D01*
X28310Y54353D01*
X28310Y56510D01*
X28310Y56650D01*
X28310Y56750D01*
X28310Y56890D01*
X28248Y57100D01*
X28110Y57271D01*
X27918Y57376D01*
X27886Y57383D01*
X27800Y57334D01*
X27800Y56750D01*
X28310Y56750D01*
X28310Y56650D01*
X27800Y56650D01*
X27800Y56065D01*
X27886Y56016D01*
X27918Y56023D01*
X28110Y56128D01*
X28248Y56299D01*
X28310Y56510D01*
X28310Y54353D01*
X28267Y54568D01*
X28145Y54749D01*
X27964Y54871D01*
X27750Y54913D01*
X27535Y54871D01*
X27354Y54749D01*
X27258Y54607D01*
X27241Y54607D01*
X27145Y54749D01*
X26964Y54871D01*
X26750Y54913D01*
X26718Y54907D01*
X26795Y55091D01*
X26795Y55307D01*
X26777Y55351D01*
X26827Y55351D01*
X26940Y55238D01*
X27141Y55154D01*
X27357Y55154D01*
X27558Y55237D01*
X27711Y55390D01*
X27795Y55591D01*
X27795Y55807D01*
X27712Y56008D01*
X27671Y56049D01*
X27700Y56065D01*
X27700Y56650D01*
X27692Y56650D01*
X27692Y56750D01*
X27700Y56750D01*
X27700Y57334D01*
X27613Y57383D01*
X27581Y57376D01*
X27389Y57271D01*
X27251Y57100D01*
X27249Y57094D01*
X27145Y57249D01*
X26964Y57371D01*
X26750Y57413D01*
X26535Y57371D01*
X26354Y57249D01*
X26250Y57094D01*
X26145Y57249D01*
X26098Y57281D01*
X26098Y57699D01*
X26098Y57700D01*
X26098Y57700D01*
X26071Y57833D01*
X25996Y57946D01*
X25996Y57946D01*
X25496Y58446D01*
X25383Y58521D01*
X25361Y58526D01*
X25250Y58548D01*
X25249Y58548D01*
X21000Y58548D01*
X20999Y58548D01*
X20866Y58521D01*
X20753Y58446D01*
X20753Y58446D01*
X20075Y57767D01*
X20075Y59237D01*
X20075Y59650D01*
X20075Y59750D01*
X20075Y60162D01*
X20012Y60225D01*
X19900Y60225D01*
X19808Y60187D01*
X19738Y60116D01*
X19700Y60024D01*
X19699Y59925D01*
X19700Y59812D01*
X19762Y59750D01*
X20075Y59750D01*
X20075Y59650D01*
X19762Y59650D01*
X19700Y59587D01*
X19699Y59474D01*
X19700Y59375D01*
X19738Y59283D01*
X19808Y59212D01*
X19900Y59174D01*
X20012Y59175D01*
X20075Y59237D01*
X20075Y57767D01*
X18310Y56002D01*
X18310Y56510D01*
X18310Y56650D01*
X18310Y56750D01*
X18310Y56890D01*
X18248Y57100D01*
X18110Y57271D01*
X17918Y57376D01*
X17886Y57383D01*
X17800Y57334D01*
X17800Y56750D01*
X18310Y56750D01*
X18310Y56650D01*
X17800Y56650D01*
X17800Y56065D01*
X17886Y56016D01*
X17918Y56023D01*
X18110Y56128D01*
X18248Y56299D01*
X18310Y56510D01*
X18310Y56002D01*
X17568Y55261D01*
X17568Y56030D01*
X17581Y56023D01*
X17613Y56016D01*
X17700Y56065D01*
X17700Y56650D01*
X17692Y56650D01*
X17692Y56750D01*
X17700Y56750D01*
X17700Y57334D01*
X17613Y57383D01*
X17583Y57376D01*
X17598Y57450D01*
X17598Y57555D01*
X18746Y58703D01*
X18746Y58703D01*
X18746Y58703D01*
X18821Y58816D01*
X18821Y58816D01*
X18826Y58838D01*
X18848Y58950D01*
X18848Y58950D01*
X18848Y58950D01*
X18848Y59805D01*
X19496Y60453D01*
X19571Y60566D01*
X19598Y60699D01*
X19571Y60833D01*
X19568Y60837D01*
X19568Y60869D01*
X19579Y60863D01*
X19612Y60856D01*
X19700Y60904D01*
X19700Y61492D01*
X19692Y61492D01*
X19692Y61592D01*
X19700Y61592D01*
X19700Y61600D01*
X19800Y61600D01*
X19800Y61592D01*
X20185Y61592D01*
X20314Y61592D01*
X20700Y61592D01*
X20700Y61600D01*
X20800Y61600D01*
X20800Y61592D01*
X21185Y61592D01*
X21314Y61592D01*
X21700Y61592D01*
X21700Y61600D01*
X21800Y61600D01*
X21800Y61592D01*
X22185Y61592D01*
X22314Y61592D01*
X22700Y61592D01*
X22700Y61600D01*
X22800Y61600D01*
X22800Y61592D01*
X23314Y61592D01*
X23314Y61730D01*
X23270Y61881D01*
X23867Y61881D01*
X25431Y60317D01*
X25431Y60301D01*
X25354Y60249D01*
X25250Y60094D01*
X25145Y60249D01*
X24964Y60371D01*
X24750Y60413D01*
X24535Y60371D01*
X24354Y60249D01*
X24250Y60094D01*
X24145Y60249D01*
X23964Y60371D01*
X23750Y60413D01*
X23535Y60371D01*
X23354Y60249D01*
X23314Y60191D01*
X23314Y61354D01*
X23314Y61492D01*
X22800Y61492D01*
X22800Y60904D01*
X22887Y60856D01*
X22920Y60863D01*
X23114Y60969D01*
X23252Y61142D01*
X23314Y61354D01*
X23314Y60191D01*
X23250Y60094D01*
X23145Y60249D01*
X22964Y60371D01*
X22750Y60413D01*
X22700Y60403D01*
X22700Y60904D01*
X22700Y61492D01*
X22314Y61492D01*
X22185Y61492D01*
X21800Y61492D01*
X21800Y60904D01*
X21887Y60856D01*
X21920Y60863D01*
X22114Y60969D01*
X22250Y61138D01*
X22385Y60969D01*
X22579Y60863D01*
X22612Y60856D01*
X22700Y60904D01*
X22700Y60403D01*
X22535Y60371D01*
X22354Y60249D01*
X22250Y60094D01*
X22145Y60249D01*
X21964Y60371D01*
X21750Y60413D01*
X21700Y60403D01*
X21700Y60904D01*
X21700Y61492D01*
X21314Y61492D01*
X21185Y61492D01*
X20800Y61492D01*
X20800Y60904D01*
X20887Y60856D01*
X20920Y60863D01*
X21114Y60969D01*
X21250Y61138D01*
X21385Y60969D01*
X21579Y60863D01*
X21612Y60856D01*
X21700Y60904D01*
X21700Y60403D01*
X21535Y60371D01*
X21354Y60249D01*
X21263Y60113D01*
X21262Y60116D01*
X21191Y60186D01*
X21099Y60224D01*
X21000Y60225D01*
X20700Y60225D01*
X20700Y60904D01*
X20700Y61492D01*
X20314Y61492D01*
X20185Y61492D01*
X19800Y61492D01*
X19800Y60904D01*
X19887Y60856D01*
X19920Y60863D01*
X20114Y60969D01*
X20250Y61138D01*
X20385Y60969D01*
X20579Y60863D01*
X20612Y60856D01*
X20700Y60904D01*
X20700Y60225D01*
X20650Y60225D01*
X20558Y60187D01*
X20500Y60128D01*
X20441Y60187D01*
X20349Y60225D01*
X20237Y60225D01*
X20175Y60162D01*
X20175Y59750D01*
X20182Y59750D01*
X20182Y59650D01*
X20175Y59650D01*
X20175Y59237D01*
X20237Y59175D01*
X20349Y59174D01*
X20441Y59212D01*
X20500Y59271D01*
X20558Y59213D01*
X20650Y59175D01*
X20749Y59174D01*
X21099Y59174D01*
X21191Y59212D01*
X21261Y59283D01*
X21263Y59286D01*
X21354Y59150D01*
X21535Y59028D01*
X21750Y58986D01*
X21964Y59028D01*
X22145Y59150D01*
X22250Y59305D01*
X22354Y59150D01*
X22535Y59028D01*
X22750Y58986D01*
X22964Y59028D01*
X23145Y59150D01*
X23250Y59305D01*
X23354Y59150D01*
X23535Y59028D01*
X23750Y58986D01*
X23964Y59028D01*
X24145Y59150D01*
X24250Y59305D01*
X24354Y59150D01*
X24535Y59028D01*
X24750Y58986D01*
X24964Y59028D01*
X25145Y59150D01*
X25250Y59305D01*
X25354Y59150D01*
X25535Y59028D01*
X25750Y58986D01*
X25964Y59028D01*
X26145Y59150D01*
X26250Y59305D01*
X26354Y59150D01*
X26535Y59028D01*
X26750Y58986D01*
X26964Y59028D01*
X27145Y59150D01*
X27250Y59305D01*
X27354Y59150D01*
X27535Y59028D01*
X27750Y58986D01*
X27964Y59028D01*
X28145Y59150D01*
X28267Y59331D01*
X28310Y59546D01*
X28310Y59813D01*
X28454Y59669D01*
X28454Y59592D01*
X28537Y59391D01*
X28690Y59238D01*
X28891Y59154D01*
X29107Y59154D01*
X29308Y59237D01*
X29461Y59390D01*
X29545Y59591D01*
X29545Y59807D01*
X29462Y60008D01*
X29309Y60161D01*
X29108Y60245D01*
X29031Y60245D01*
X24345Y64930D01*
X29980Y64930D01*
X29980Y45962D01*
X29980Y45962D01*
G37*
G54D43*
X29980Y45962D02*
X29800Y46142D01*
X29800Y63907D01*
X29640Y64294D01*
X29345Y64589D01*
X28959Y64749D01*
X28542Y64750D01*
X28156Y64590D01*
X27860Y64295D01*
X27700Y63909D01*
X27699Y63492D01*
X27859Y63106D01*
X28154Y62810D01*
X28540Y62650D01*
X28957Y62649D01*
X29344Y62809D01*
X29639Y63104D01*
X29799Y63490D01*
X29800Y63907D01*
X29800Y46142D01*
X28746Y47196D01*
X28633Y47271D01*
X28611Y47276D01*
X28500Y47298D01*
X28499Y47298D01*
X28310Y47298D01*
X28310Y48010D01*
X28310Y48150D01*
X28310Y48250D01*
X28310Y48390D01*
X28300Y48423D01*
X28300Y52724D01*
X28300Y53175D01*
X28299Y53274D01*
X28261Y53366D01*
X28191Y53437D01*
X28099Y53475D01*
X27987Y53475D01*
X27925Y53412D01*
X27925Y53000D01*
X28237Y53000D01*
X28300Y53062D01*
X28300Y53175D01*
X28300Y52724D01*
X28300Y52837D01*
X28237Y52900D01*
X27925Y52900D01*
X27925Y52487D01*
X27987Y52425D01*
X28099Y52424D01*
X28191Y52462D01*
X28261Y52533D01*
X28299Y52625D01*
X28300Y52724D01*
X28300Y48423D01*
X28248Y48600D01*
X28110Y48771D01*
X27918Y48876D01*
X27886Y48883D01*
X27800Y48834D01*
X27800Y48250D01*
X28310Y48250D01*
X28310Y48150D01*
X27800Y48150D01*
X27800Y47565D01*
X27886Y47516D01*
X27918Y47523D01*
X28110Y47628D01*
X28248Y47799D01*
X28310Y48010D01*
X28310Y47298D01*
X24644Y47298D01*
X24598Y47344D01*
X24598Y47450D01*
X24584Y47519D01*
X24750Y47486D01*
X24964Y47528D01*
X25145Y47650D01*
X25250Y47805D01*
X25354Y47650D01*
X25535Y47528D01*
X25750Y47486D01*
X25964Y47528D01*
X26145Y47650D01*
X26250Y47805D01*
X26354Y47650D01*
X26535Y47528D01*
X26750Y47486D01*
X26964Y47528D01*
X27145Y47650D01*
X27249Y47805D01*
X27251Y47799D01*
X27389Y47628D01*
X27581Y47523D01*
X27613Y47516D01*
X27700Y47565D01*
X27700Y48150D01*
X27692Y48150D01*
X27692Y48250D01*
X27700Y48250D01*
X27700Y48834D01*
X27613Y48883D01*
X27581Y48876D01*
X27389Y48771D01*
X27251Y48600D01*
X27249Y48594D01*
X27145Y48749D01*
X27098Y48781D01*
X27098Y50450D01*
X27071Y50583D01*
X26996Y50696D01*
X26996Y50696D01*
X25996Y51696D01*
X25883Y51771D01*
X25861Y51776D01*
X25750Y51798D01*
X25749Y51798D01*
X25341Y51798D01*
X25996Y52453D01*
X25996Y52453D01*
X25996Y52453D01*
X26071Y52566D01*
X26098Y52699D01*
X26098Y52700D01*
X26098Y52700D01*
X26098Y53618D01*
X26145Y53650D01*
X26250Y53805D01*
X26342Y53667D01*
X26342Y53450D01*
X26342Y53450D01*
X26373Y53294D01*
X26461Y53161D01*
X26699Y52923D01*
X26699Y52625D01*
X26737Y52533D01*
X26808Y52463D01*
X26900Y52425D01*
X26999Y52424D01*
X27349Y52424D01*
X27441Y52462D01*
X27499Y52521D01*
X27558Y52462D01*
X27650Y52424D01*
X27762Y52425D01*
X27825Y52487D01*
X27825Y52900D01*
X27817Y52900D01*
X27817Y53000D01*
X27825Y53000D01*
X27825Y53412D01*
X27762Y53475D01*
X27650Y53475D01*
X27558Y53437D01*
X27499Y53378D01*
X27441Y53436D01*
X27349Y53474D01*
X27301Y53474D01*
X27157Y53618D01*
X27157Y53667D01*
X27241Y53792D01*
X27258Y53792D01*
X27354Y53650D01*
X27535Y53528D01*
X27750Y53486D01*
X27964Y53528D01*
X28145Y53650D01*
X28267Y53831D01*
X28310Y54046D01*
X28310Y54353D01*
X28310Y56510D01*
X28310Y56650D01*
X28310Y56750D01*
X28310Y56890D01*
X28248Y57100D01*
X28110Y57271D01*
X27918Y57376D01*
X27886Y57383D01*
X27800Y57334D01*
X27800Y56750D01*
X28310Y56750D01*
X28310Y56650D01*
X27800Y56650D01*
X27800Y56065D01*
X27886Y56016D01*
X27918Y56023D01*
X28110Y56128D01*
X28248Y56299D01*
X28310Y56510D01*
X28310Y54353D01*
X28267Y54568D01*
X28145Y54749D01*
X27964Y54871D01*
X27750Y54913D01*
X27535Y54871D01*
X27354Y54749D01*
X27258Y54607D01*
X27241Y54607D01*
X27145Y54749D01*
X26964Y54871D01*
X26750Y54913D01*
X26718Y54907D01*
X26795Y55091D01*
X26795Y55307D01*
X26777Y55351D01*
X26827Y55351D01*
X26940Y55238D01*
X27141Y55154D01*
X27357Y55154D01*
X27558Y55237D01*
X27711Y55390D01*
X27795Y55591D01*
X27795Y55807D01*
X27712Y56008D01*
X27671Y56049D01*
X27700Y56065D01*
X27700Y56650D01*
X27692Y56650D01*
X27692Y56750D01*
X27700Y56750D01*
X27700Y57334D01*
X27613Y57383D01*
X27581Y57376D01*
X27389Y57271D01*
X27251Y57100D01*
X27249Y57094D01*
X27145Y57249D01*
X26964Y57371D01*
X26750Y57413D01*
X26535Y57371D01*
X26354Y57249D01*
X26250Y57094D01*
X26145Y57249D01*
X26098Y57281D01*
X26098Y57699D01*
X26098Y57700D01*
X26098Y57700D01*
X26071Y57833D01*
X25996Y57946D01*
X25996Y57946D01*
X25496Y58446D01*
X25383Y58521D01*
X25361Y58526D01*
X25250Y58548D01*
X25249Y58548D01*
X21000Y58548D01*
X20999Y58548D01*
X20866Y58521D01*
X20753Y58446D01*
X20753Y58446D01*
X20075Y57767D01*
X20075Y59237D01*
X20075Y59650D01*
X20075Y59750D01*
X20075Y60162D01*
X20012Y60225D01*
X19900Y60225D01*
X19808Y60187D01*
X19738Y60116D01*
X19700Y60024D01*
X19699Y59925D01*
X19700Y59812D01*
X19762Y59750D01*
X20075Y59750D01*
X20075Y59650D01*
X19762Y59650D01*
X19700Y59587D01*
X19699Y59474D01*
X19700Y59375D01*
X19738Y59283D01*
X19808Y59212D01*
X19900Y59174D01*
X20012Y59175D01*
X20075Y59237D01*
X20075Y57767D01*
X18310Y56002D01*
X18310Y56510D01*
X18310Y56650D01*
X18310Y56750D01*
X18310Y56890D01*
X18248Y57100D01*
X18110Y57271D01*
X17918Y57376D01*
X17886Y57383D01*
X17800Y57334D01*
X17800Y56750D01*
X18310Y56750D01*
X18310Y56650D01*
X17800Y56650D01*
X17800Y56065D01*
X17886Y56016D01*
X17918Y56023D01*
X18110Y56128D01*
X18248Y56299D01*
X18310Y56510D01*
X18310Y56002D01*
X17568Y55261D01*
X17568Y56030D01*
X17581Y56023D01*
X17613Y56016D01*
X17700Y56065D01*
X17700Y56650D01*
X17692Y56650D01*
X17692Y56750D01*
X17700Y56750D01*
X17700Y57334D01*
X17613Y57383D01*
X17583Y57376D01*
X17598Y57450D01*
X17598Y57555D01*
X18746Y58703D01*
X18746Y58703D01*
X18746Y58703D01*
X18821Y58816D01*
X18821Y58816D01*
X18826Y58838D01*
X18848Y58950D01*
X18848Y58950D01*
X18848Y58950D01*
X18848Y59805D01*
X19496Y60453D01*
X19571Y60566D01*
X19598Y60699D01*
X19571Y60833D01*
X19568Y60837D01*
X19568Y60869D01*
X19579Y60863D01*
X19612Y60856D01*
X19700Y60904D01*
X19700Y61492D01*
X19692Y61492D01*
X19692Y61592D01*
X19700Y61592D01*
X19700Y61600D01*
X19800Y61600D01*
X19800Y61592D01*
X20185Y61592D01*
X20314Y61592D01*
X20700Y61592D01*
X20700Y61600D01*
X20800Y61600D01*
X20800Y61592D01*
X21185Y61592D01*
X21314Y61592D01*
X21700Y61592D01*
X21700Y61600D01*
X21800Y61600D01*
X21800Y61592D01*
X22185Y61592D01*
X22314Y61592D01*
X22700Y61592D01*
X22700Y61600D01*
X22800Y61600D01*
X22800Y61592D01*
X23314Y61592D01*
X23314Y61730D01*
X23270Y61881D01*
X23867Y61881D01*
X25431Y60317D01*
X25431Y60301D01*
X25354Y60249D01*
X25250Y60094D01*
X25145Y60249D01*
X24964Y60371D01*
X24750Y60413D01*
X24535Y60371D01*
X24354Y60249D01*
X24250Y60094D01*
X24145Y60249D01*
X23964Y60371D01*
X23750Y60413D01*
X23535Y60371D01*
X23354Y60249D01*
X23314Y60191D01*
X23314Y61354D01*
X23314Y61492D01*
X22800Y61492D01*
X22800Y60904D01*
X22887Y60856D01*
X22920Y60863D01*
X23114Y60969D01*
X23252Y61142D01*
X23314Y61354D01*
X23314Y60191D01*
X23250Y60094D01*
X23145Y60249D01*
X22964Y60371D01*
X22750Y60413D01*
X22700Y60403D01*
X22700Y60904D01*
X22700Y61492D01*
X22314Y61492D01*
X22185Y61492D01*
X21800Y61492D01*
X21800Y60904D01*
X21887Y60856D01*
X21920Y60863D01*
X22114Y60969D01*
X22250Y61138D01*
X22385Y60969D01*
X22579Y60863D01*
X22612Y60856D01*
X22700Y60904D01*
X22700Y60403D01*
X22535Y60371D01*
X22354Y60249D01*
X22250Y60094D01*
X22145Y60249D01*
X21964Y60371D01*
X21750Y60413D01*
X21700Y60403D01*
X21700Y60904D01*
X21700Y61492D01*
X21314Y61492D01*
X21185Y61492D01*
X20800Y61492D01*
X20800Y60904D01*
X20887Y60856D01*
X20920Y60863D01*
X21114Y60969D01*
X21250Y61138D01*
X21385Y60969D01*
X21579Y60863D01*
X21612Y60856D01*
X21700Y60904D01*
X21700Y60403D01*
X21535Y60371D01*
X21354Y60249D01*
X21263Y60113D01*
X21262Y60116D01*
X21191Y60186D01*
X21099Y60224D01*
X21000Y60225D01*
X20700Y60225D01*
X20700Y60904D01*
X20700Y61492D01*
X20314Y61492D01*
X20185Y61492D01*
X19800Y61492D01*
X19800Y60904D01*
X19887Y60856D01*
X19920Y60863D01*
X20114Y60969D01*
X20250Y61138D01*
X20385Y60969D01*
X20579Y60863D01*
X20612Y60856D01*
X20700Y60904D01*
X20700Y60225D01*
X20650Y60225D01*
X20558Y60187D01*
X20500Y60128D01*
X20441Y60187D01*
X20349Y60225D01*
X20237Y60225D01*
X20175Y60162D01*
X20175Y59750D01*
X20182Y59750D01*
X20182Y59650D01*
X20175Y59650D01*
X20175Y59237D01*
X20237Y59175D01*
X20349Y59174D01*
X20441Y59212D01*
X20500Y59271D01*
X20558Y59213D01*
X20650Y59175D01*
X20749Y59174D01*
X21099Y59174D01*
X21191Y59212D01*
X21261Y59283D01*
X21263Y59286D01*
X21354Y59150D01*
X21535Y59028D01*
X21750Y58986D01*
X21964Y59028D01*
X22145Y59150D01*
X22250Y59305D01*
X22354Y59150D01*
X22535Y59028D01*
X22750Y58986D01*
X22964Y59028D01*
X23145Y59150D01*
X23250Y59305D01*
X23354Y59150D01*
X23535Y59028D01*
X23750Y58986D01*
X23964Y59028D01*
X24145Y59150D01*
X24250Y59305D01*
X24354Y59150D01*
X24535Y59028D01*
X24750Y58986D01*
X24964Y59028D01*
X25145Y59150D01*
X25250Y59305D01*
X25354Y59150D01*
X25535Y59028D01*
X25750Y58986D01*
X25964Y59028D01*
X26145Y59150D01*
X26250Y59305D01*
X26354Y59150D01*
X26535Y59028D01*
X26750Y58986D01*
X26964Y59028D01*
X27145Y59150D01*
X27250Y59305D01*
X27354Y59150D01*
X27535Y59028D01*
X27750Y58986D01*
X27964Y59028D01*
X28145Y59150D01*
X28267Y59331D01*
X28310Y59546D01*
X28310Y59813D01*
X28454Y59669D01*
X28454Y59592D01*
X28537Y59391D01*
X28690Y59238D01*
X28891Y59154D01*
X29107Y59154D01*
X29308Y59237D01*
X29461Y59390D01*
X29545Y59591D01*
X29545Y59807D01*
X29462Y60008D01*
X29309Y60161D01*
X29108Y60245D01*
X29031Y60245D01*
X24345Y64930D01*
X29980Y64930D01*
X29980Y45962D01*
G54D10*
G36*
X29980Y14219D02*
X29800Y14219D01*
X29800Y15657D01*
X29640Y16044D01*
X29345Y16339D01*
X28959Y16499D01*
X28542Y16500D01*
X28156Y16340D01*
X27860Y16045D01*
X27700Y15659D01*
X27699Y15242D01*
X27859Y14856D01*
X28154Y14560D01*
X28540Y14400D01*
X28957Y14399D01*
X29344Y14559D01*
X29639Y14854D01*
X29799Y15240D01*
X29800Y15657D01*
X29800Y14219D01*
X-550Y14219D01*
X-550Y17404D01*
X-550Y17992D01*
X-1064Y17992D01*
X-1064Y17854D01*
X-1002Y17642D01*
X-864Y17469D01*
X-670Y17363D01*
X-637Y17356D01*
X-550Y17404D01*
X-550Y14219D01*
X-6449Y14219D01*
X-6449Y15657D01*
X-6609Y16044D01*
X-6904Y16339D01*
X-7290Y16499D01*
X-7707Y16500D01*
X-8094Y16340D01*
X-8389Y16045D01*
X-8549Y15659D01*
X-8550Y15242D01*
X-8390Y14856D01*
X-8095Y14560D01*
X-7709Y14400D01*
X-7292Y14399D01*
X-6906Y14559D01*
X-6610Y14854D01*
X-6450Y15240D01*
X-6449Y15657D01*
X-6449Y14219D01*
X-8730Y14219D01*
X-8730Y64930D01*
X4154Y64930D01*
X2211Y62988D01*
X2123Y62855D01*
X2092Y62700D01*
X2092Y62699D01*
X2092Y62691D01*
X2024Y62663D01*
X1787Y62426D01*
X1659Y62117D01*
X1659Y61783D01*
X1787Y61474D01*
X2013Y61247D01*
X2013Y60401D01*
X1340Y59728D01*
X1340Y61408D01*
X1340Y62491D01*
X1340Y62590D01*
X1302Y62682D01*
X1231Y62752D01*
X1140Y62790D01*
X612Y62790D01*
X550Y62728D01*
X550Y62000D01*
X1278Y62000D01*
X1340Y62062D01*
X1340Y62491D01*
X1340Y61408D01*
X1340Y61837D01*
X1278Y61900D01*
X550Y61900D01*
X550Y61171D01*
X612Y61109D01*
X1140Y61109D01*
X1231Y61147D01*
X1302Y61217D01*
X1340Y61309D01*
X1340Y61408D01*
X1340Y59728D01*
X548Y58936D01*
X450Y58936D01*
X450Y61171D01*
X450Y61900D01*
X450Y62000D01*
X450Y62728D01*
X387Y62790D01*
X-140Y62790D01*
X-231Y62752D01*
X-302Y62682D01*
X-340Y62590D01*
X-340Y62491D01*
X-340Y62062D01*
X-278Y62000D01*
X450Y62000D01*
X450Y61900D01*
X-278Y61900D01*
X-340Y61837D01*
X-340Y61408D01*
X-340Y61309D01*
X-302Y61217D01*
X-231Y61147D01*
X-140Y61109D01*
X387Y61109D01*
X450Y61171D01*
X450Y58936D01*
X-797Y58936D01*
X-797Y58952D01*
X-835Y59044D01*
X-905Y59114D01*
X-997Y59152D01*
X-1096Y59152D01*
X-2002Y59152D01*
X-2094Y59114D01*
X-2164Y59044D01*
X-2202Y58952D01*
X-2202Y58936D01*
X-2513Y58936D01*
X-2513Y59978D01*
X-2402Y60000D01*
X-2034Y60246D01*
X-1787Y60615D01*
X-1701Y61050D01*
X-1787Y61484D01*
X-1827Y61544D01*
X-1827Y63223D01*
X-1827Y63676D01*
X-1838Y63724D01*
X-2027Y64125D01*
X-2355Y64423D01*
X-2772Y64573D01*
X-2950Y64523D01*
X-2950Y63500D01*
X-1868Y63500D01*
X-1827Y63676D01*
X-1827Y63223D01*
X-1868Y63400D01*
X-2950Y63400D01*
X-2950Y62376D01*
X-2772Y62326D01*
X-2355Y62476D01*
X-2027Y62774D01*
X-1838Y63175D01*
X-1827Y63223D01*
X-1827Y61544D01*
X-2034Y61853D01*
X-2402Y62099D01*
X-2837Y62185D01*
X-3162Y62185D01*
X-3597Y62099D01*
X-3825Y61947D01*
X-3761Y62270D01*
X-3761Y62582D01*
X-3644Y62476D01*
X-3227Y62326D01*
X-3050Y62376D01*
X-3050Y63400D01*
X-3057Y63400D01*
X-3057Y63500D01*
X-3050Y63500D01*
X-3050Y64523D01*
X-3227Y64573D01*
X-3644Y64423D01*
X-3972Y64125D01*
X-4161Y63724D01*
X-4172Y63676D01*
X-4146Y63567D01*
X-4340Y63696D01*
X-4700Y63768D01*
X-5059Y63696D01*
X-5363Y63493D01*
X-5567Y63188D01*
X-5638Y62829D01*
X-5638Y62270D01*
X-5567Y61911D01*
X-5363Y61606D01*
X-5059Y61403D01*
X-4700Y61331D01*
X-4340Y61403D01*
X-4206Y61492D01*
X-4212Y61484D01*
X-4298Y61050D01*
X-4212Y60615D01*
X-3965Y60246D01*
X-3597Y60000D01*
X-3486Y59978D01*
X-3486Y58651D01*
X-4793Y57344D01*
X-4793Y58331D01*
X-4801Y58611D01*
X-4892Y58829D01*
X-5003Y58875D01*
X-5074Y58805D01*
X-5074Y58946D01*
X-5120Y59057D01*
X-5381Y59156D01*
X-5661Y59148D01*
X-5879Y59057D01*
X-5925Y58946D01*
X-5500Y58520D01*
X-5074Y58946D01*
X-5074Y58805D01*
X-5429Y58450D01*
X-5003Y58024D01*
X-4892Y58070D01*
X-4793Y58331D01*
X-4793Y57344D01*
X-5074Y57063D01*
X-5074Y57953D01*
X-5500Y58379D01*
X-5570Y58308D01*
X-5570Y58450D01*
X-5996Y58875D01*
X-6107Y58829D01*
X-6206Y58568D01*
X-6198Y58288D01*
X-6107Y58070D01*
X-5996Y58024D01*
X-5570Y58450D01*
X-5570Y58308D01*
X-5925Y57953D01*
X-5879Y57842D01*
X-5618Y57743D01*
X-5338Y57751D01*
X-5120Y57842D01*
X-5074Y57953D01*
X-5074Y57063D01*
X-5093Y57043D01*
X-5199Y56886D01*
X-5236Y56700D01*
X-5236Y54151D01*
X-6216Y53170D01*
X-6216Y54842D01*
X-6216Y55000D01*
X-6216Y55100D01*
X-6216Y55257D01*
X-6216Y57642D01*
X-6216Y57800D01*
X-6216Y57900D01*
X-6216Y58057D01*
X-6288Y58315D01*
X-6449Y58522D01*
X-6449Y63907D01*
X-6609Y64294D01*
X-6904Y64589D01*
X-7290Y64749D01*
X-7707Y64750D01*
X-8094Y64590D01*
X-8389Y64295D01*
X-8549Y63909D01*
X-8550Y63492D01*
X-8390Y63106D01*
X-8095Y62810D01*
X-7709Y62650D01*
X-7292Y62649D01*
X-6906Y62809D01*
X-6610Y63104D01*
X-6450Y63490D01*
X-6449Y63907D01*
X-6449Y58522D01*
X-6452Y58525D01*
X-6684Y58657D01*
X-6744Y58672D01*
X-6850Y58626D01*
X-6850Y57900D01*
X-6216Y57900D01*
X-6216Y57800D01*
X-6850Y57800D01*
X-6850Y57073D01*
X-6744Y57027D01*
X-6684Y57042D01*
X-6452Y57174D01*
X-6288Y57384D01*
X-6216Y57642D01*
X-6216Y55257D01*
X-6288Y55515D01*
X-6452Y55725D01*
X-6684Y55857D01*
X-6744Y55872D01*
X-6850Y55826D01*
X-6850Y55100D01*
X-6216Y55100D01*
X-6216Y55000D01*
X-6850Y55000D01*
X-6850Y54273D01*
X-6744Y54227D01*
X-6684Y54242D01*
X-6452Y54374D01*
X-6288Y54584D01*
X-6216Y54842D01*
X-6216Y53170D01*
X-6950Y52437D01*
X-6950Y54273D01*
X-6950Y55000D01*
X-6957Y55000D01*
X-6957Y55100D01*
X-6950Y55100D01*
X-6950Y55826D01*
X-6950Y57073D01*
X-6950Y57800D01*
X-6957Y57800D01*
X-6957Y57900D01*
X-6950Y57900D01*
X-6950Y58626D01*
X-7055Y58672D01*
X-7115Y58657D01*
X-7347Y58525D01*
X-7511Y58315D01*
X-7583Y58057D01*
X-7583Y58004D01*
X-7699Y58070D01*
X-7750Y58082D01*
X-7850Y58035D01*
X-7850Y57400D01*
X-7842Y57400D01*
X-7842Y57300D01*
X-7850Y57300D01*
X-7850Y56664D01*
X-7750Y56617D01*
X-7699Y56629D01*
X-7480Y56753D01*
X-7324Y56951D01*
X-7273Y57132D01*
X-7115Y57042D01*
X-7055Y57027D01*
X-6950Y57073D01*
X-6950Y55826D01*
X-7055Y55872D01*
X-7115Y55857D01*
X-7275Y55766D01*
X-7305Y55917D01*
X-7444Y56126D01*
X-7653Y56265D01*
X-7900Y56314D01*
X-7950Y56304D01*
X-7950Y56664D01*
X-7950Y57300D01*
X-7950Y57400D01*
X-7950Y58035D01*
X-8049Y58082D01*
X-8100Y58070D01*
X-8319Y57946D01*
X-8475Y57748D01*
X-8543Y57506D01*
X-8543Y57400D01*
X-7950Y57400D01*
X-7950Y57300D01*
X-8543Y57300D01*
X-8543Y57193D01*
X-8475Y56951D01*
X-8319Y56753D01*
X-8100Y56629D01*
X-8049Y56617D01*
X-7950Y56664D01*
X-7950Y56304D01*
X-8146Y56265D01*
X-8355Y56126D01*
X-8494Y55917D01*
X-8543Y55670D01*
X-8543Y55429D01*
X-8494Y55182D01*
X-8355Y54973D01*
X-8146Y54834D01*
X-7900Y54785D01*
X-7653Y54834D01*
X-7583Y54881D01*
X-7583Y54842D01*
X-7511Y54584D01*
X-7347Y54374D01*
X-7115Y54242D01*
X-7055Y54227D01*
X-6950Y54273D01*
X-6950Y52437D01*
X-8093Y51293D01*
X-8199Y51136D01*
X-8236Y50950D01*
X-8236Y48700D01*
X-8236Y41700D01*
X-8236Y36700D01*
X-8236Y35450D01*
X-8236Y29450D01*
X-8236Y25700D01*
X-8236Y21200D01*
X-8199Y21013D01*
X-8093Y20856D01*
X-6093Y18856D01*
X-6093Y18856D01*
X-5936Y18750D01*
X-5936Y18750D01*
X-5787Y18721D01*
X-5750Y18713D01*
X-5750Y18713D01*
X-5750Y18713D01*
X-760Y18713D01*
X-726Y18690D01*
X-864Y18615D01*
X-1002Y18442D01*
X-1064Y18230D01*
X-1064Y18092D01*
X-550Y18092D01*
X-550Y18100D01*
X-450Y18100D01*
X-450Y18092D01*
X-442Y18092D01*
X-442Y17992D01*
X-450Y17992D01*
X-450Y17404D01*
X-362Y17356D01*
X-329Y17363D01*
X-135Y17469D01*
X1Y17640D01*
X100Y17491D01*
X283Y17369D01*
X500Y17325D01*
X716Y17369D01*
X899Y17491D01*
X999Y17641D01*
X1100Y17491D01*
X1283Y17369D01*
X1500Y17325D01*
X1716Y17369D01*
X1899Y17491D01*
X2000Y17641D01*
X2100Y17491D01*
X2283Y17369D01*
X2500Y17325D01*
X2716Y17369D01*
X2899Y17491D01*
X3000Y17641D01*
X3100Y17491D01*
X3283Y17369D01*
X3500Y17325D01*
X3716Y17369D01*
X3899Y17491D01*
X4000Y17641D01*
X4100Y17491D01*
X4283Y17369D01*
X4500Y17325D01*
X4716Y17369D01*
X4899Y17491D01*
X5000Y17641D01*
X5100Y17491D01*
X5151Y17457D01*
X5151Y16700D01*
X5178Y16566D01*
X5181Y16562D01*
X5181Y16450D01*
X5205Y16327D01*
X5274Y16224D01*
X6524Y14974D01*
X6524Y14974D01*
X6576Y14939D01*
X6627Y14905D01*
X6627Y14905D01*
X6750Y14881D01*
X22000Y14881D01*
X22000Y14881D01*
X22122Y14905D01*
X22122Y14905D01*
X22225Y14974D01*
X23102Y15851D01*
X25749Y15851D01*
X25750Y15851D01*
X25750Y15851D01*
X25861Y15873D01*
X25883Y15878D01*
X25883Y15878D01*
X25996Y15953D01*
X26996Y16953D01*
X26996Y16953D01*
X26996Y16953D01*
X27071Y17066D01*
X27098Y17200D01*
X27098Y20699D01*
X27098Y20700D01*
X27098Y20700D01*
X27076Y20811D01*
X27071Y20833D01*
X27071Y20833D01*
X27060Y20851D01*
X27060Y22510D01*
X27060Y22650D01*
X26550Y22650D01*
X26550Y22065D01*
X26636Y22016D01*
X26668Y22023D01*
X26860Y22128D01*
X26998Y22299D01*
X27060Y22510D01*
X27060Y20851D01*
X26996Y20946D01*
X26996Y20946D01*
X25848Y22094D01*
X25848Y22118D01*
X25895Y22150D01*
X25999Y22305D01*
X26001Y22299D01*
X26139Y22128D01*
X26331Y22023D01*
X26363Y22016D01*
X26450Y22065D01*
X26450Y22650D01*
X26442Y22650D01*
X26442Y22750D01*
X26450Y22750D01*
X26450Y22757D01*
X26550Y22757D01*
X26550Y22750D01*
X27060Y22750D01*
X27060Y22890D01*
X26998Y23100D01*
X26860Y23271D01*
X26713Y23351D01*
X28749Y23351D01*
X28750Y23351D01*
X28750Y23351D01*
X28861Y23373D01*
X28883Y23378D01*
X28883Y23378D01*
X28996Y23453D01*
X29980Y24437D01*
X29980Y14219D01*
X29980Y14219D01*
G37*
G54D43*
X29980Y14219D02*
X29800Y14219D01*
X29800Y15657D01*
X29640Y16044D01*
X29345Y16339D01*
X28959Y16499D01*
X28542Y16500D01*
X28156Y16340D01*
X27860Y16045D01*
X27700Y15659D01*
X27699Y15242D01*
X27859Y14856D01*
X28154Y14560D01*
X28540Y14400D01*
X28957Y14399D01*
X29344Y14559D01*
X29639Y14854D01*
X29799Y15240D01*
X29800Y15657D01*
X29800Y14219D01*
X-550Y14219D01*
X-550Y17404D01*
X-550Y17992D01*
X-1064Y17992D01*
X-1064Y17854D01*
X-1002Y17642D01*
X-864Y17469D01*
X-670Y17363D01*
X-637Y17356D01*
X-550Y17404D01*
X-550Y14219D01*
X-6449Y14219D01*
X-6449Y15657D01*
X-6609Y16044D01*
X-6904Y16339D01*
X-7290Y16499D01*
X-7707Y16500D01*
X-8094Y16340D01*
X-8389Y16045D01*
X-8549Y15659D01*
X-8550Y15242D01*
X-8390Y14856D01*
X-8095Y14560D01*
X-7709Y14400D01*
X-7292Y14399D01*
X-6906Y14559D01*
X-6610Y14854D01*
X-6450Y15240D01*
X-6449Y15657D01*
X-6449Y14219D01*
X-8730Y14219D01*
X-8730Y64930D01*
X4154Y64930D01*
X2211Y62988D01*
X2123Y62855D01*
X2092Y62700D01*
X2092Y62699D01*
X2092Y62691D01*
X2024Y62663D01*
X1787Y62426D01*
X1659Y62117D01*
X1659Y61783D01*
X1787Y61474D01*
X2013Y61247D01*
X2013Y60401D01*
X1340Y59728D01*
X1340Y61408D01*
X1340Y62491D01*
X1340Y62590D01*
X1302Y62682D01*
X1231Y62752D01*
X1140Y62790D01*
X612Y62790D01*
X550Y62728D01*
X550Y62000D01*
X1278Y62000D01*
X1340Y62062D01*
X1340Y62491D01*
X1340Y61408D01*
X1340Y61837D01*
X1278Y61900D01*
X550Y61900D01*
X550Y61171D01*
X612Y61109D01*
X1140Y61109D01*
X1231Y61147D01*
X1302Y61217D01*
X1340Y61309D01*
X1340Y61408D01*
X1340Y59728D01*
X548Y58936D01*
X450Y58936D01*
X450Y61171D01*
X450Y61900D01*
X450Y62000D01*
X450Y62728D01*
X387Y62790D01*
X-140Y62790D01*
X-231Y62752D01*
X-302Y62682D01*
X-340Y62590D01*
X-340Y62491D01*
X-340Y62062D01*
X-278Y62000D01*
X450Y62000D01*
X450Y61900D01*
X-278Y61900D01*
X-340Y61837D01*
X-340Y61408D01*
X-340Y61309D01*
X-302Y61217D01*
X-231Y61147D01*
X-140Y61109D01*
X387Y61109D01*
X450Y61171D01*
X450Y58936D01*
X-797Y58936D01*
X-797Y58952D01*
X-835Y59044D01*
X-905Y59114D01*
X-997Y59152D01*
X-1096Y59152D01*
X-2002Y59152D01*
X-2094Y59114D01*
X-2164Y59044D01*
X-2202Y58952D01*
X-2202Y58936D01*
X-2513Y58936D01*
X-2513Y59978D01*
X-2402Y60000D01*
X-2034Y60246D01*
X-1787Y60615D01*
X-1701Y61050D01*
X-1787Y61484D01*
X-1827Y61544D01*
X-1827Y63223D01*
X-1827Y63676D01*
X-1838Y63724D01*
X-2027Y64125D01*
X-2355Y64423D01*
X-2772Y64573D01*
X-2950Y64523D01*
X-2950Y63500D01*
X-1868Y63500D01*
X-1827Y63676D01*
X-1827Y63223D01*
X-1868Y63400D01*
X-2950Y63400D01*
X-2950Y62376D01*
X-2772Y62326D01*
X-2355Y62476D01*
X-2027Y62774D01*
X-1838Y63175D01*
X-1827Y63223D01*
X-1827Y61544D01*
X-2034Y61853D01*
X-2402Y62099D01*
X-2837Y62185D01*
X-3162Y62185D01*
X-3597Y62099D01*
X-3825Y61947D01*
X-3761Y62270D01*
X-3761Y62582D01*
X-3644Y62476D01*
X-3227Y62326D01*
X-3050Y62376D01*
X-3050Y63400D01*
X-3057Y63400D01*
X-3057Y63500D01*
X-3050Y63500D01*
X-3050Y64523D01*
X-3227Y64573D01*
X-3644Y64423D01*
X-3972Y64125D01*
X-4161Y63724D01*
X-4172Y63676D01*
X-4146Y63567D01*
X-4340Y63696D01*
X-4700Y63768D01*
X-5059Y63696D01*
X-5363Y63493D01*
X-5567Y63188D01*
X-5638Y62829D01*
X-5638Y62270D01*
X-5567Y61911D01*
X-5363Y61606D01*
X-5059Y61403D01*
X-4700Y61331D01*
X-4340Y61403D01*
X-4206Y61492D01*
X-4212Y61484D01*
X-4298Y61050D01*
X-4212Y60615D01*
X-3965Y60246D01*
X-3597Y60000D01*
X-3486Y59978D01*
X-3486Y58651D01*
X-4793Y57344D01*
X-4793Y58331D01*
X-4801Y58611D01*
X-4892Y58829D01*
X-5003Y58875D01*
X-5074Y58805D01*
X-5074Y58946D01*
X-5120Y59057D01*
X-5381Y59156D01*
X-5661Y59148D01*
X-5879Y59057D01*
X-5925Y58946D01*
X-5500Y58520D01*
X-5074Y58946D01*
X-5074Y58805D01*
X-5429Y58450D01*
X-5003Y58024D01*
X-4892Y58070D01*
X-4793Y58331D01*
X-4793Y57344D01*
X-5074Y57063D01*
X-5074Y57953D01*
X-5500Y58379D01*
X-5570Y58308D01*
X-5570Y58450D01*
X-5996Y58875D01*
X-6107Y58829D01*
X-6206Y58568D01*
X-6198Y58288D01*
X-6107Y58070D01*
X-5996Y58024D01*
X-5570Y58450D01*
X-5570Y58308D01*
X-5925Y57953D01*
X-5879Y57842D01*
X-5618Y57743D01*
X-5338Y57751D01*
X-5120Y57842D01*
X-5074Y57953D01*
X-5074Y57063D01*
X-5093Y57043D01*
X-5199Y56886D01*
X-5236Y56700D01*
X-5236Y54151D01*
X-6216Y53170D01*
X-6216Y54842D01*
X-6216Y55000D01*
X-6216Y55100D01*
X-6216Y55257D01*
X-6216Y57642D01*
X-6216Y57800D01*
X-6216Y57900D01*
X-6216Y58057D01*
X-6288Y58315D01*
X-6449Y58522D01*
X-6449Y63907D01*
X-6609Y64294D01*
X-6904Y64589D01*
X-7290Y64749D01*
X-7707Y64750D01*
X-8094Y64590D01*
X-8389Y64295D01*
X-8549Y63909D01*
X-8550Y63492D01*
X-8390Y63106D01*
X-8095Y62810D01*
X-7709Y62650D01*
X-7292Y62649D01*
X-6906Y62809D01*
X-6610Y63104D01*
X-6450Y63490D01*
X-6449Y63907D01*
X-6449Y58522D01*
X-6452Y58525D01*
X-6684Y58657D01*
X-6744Y58672D01*
X-6850Y58626D01*
X-6850Y57900D01*
X-6216Y57900D01*
X-6216Y57800D01*
X-6850Y57800D01*
X-6850Y57073D01*
X-6744Y57027D01*
X-6684Y57042D01*
X-6452Y57174D01*
X-6288Y57384D01*
X-6216Y57642D01*
X-6216Y55257D01*
X-6288Y55515D01*
X-6452Y55725D01*
X-6684Y55857D01*
X-6744Y55872D01*
X-6850Y55826D01*
X-6850Y55100D01*
X-6216Y55100D01*
X-6216Y55000D01*
X-6850Y55000D01*
X-6850Y54273D01*
X-6744Y54227D01*
X-6684Y54242D01*
X-6452Y54374D01*
X-6288Y54584D01*
X-6216Y54842D01*
X-6216Y53170D01*
X-6950Y52437D01*
X-6950Y54273D01*
X-6950Y55000D01*
X-6957Y55000D01*
X-6957Y55100D01*
X-6950Y55100D01*
X-6950Y55826D01*
X-6950Y57073D01*
X-6950Y57800D01*
X-6957Y57800D01*
X-6957Y57900D01*
X-6950Y57900D01*
X-6950Y58626D01*
X-7055Y58672D01*
X-7115Y58657D01*
X-7347Y58525D01*
X-7511Y58315D01*
X-7583Y58057D01*
X-7583Y58004D01*
X-7699Y58070D01*
X-7750Y58082D01*
X-7850Y58035D01*
X-7850Y57400D01*
X-7842Y57400D01*
X-7842Y57300D01*
X-7850Y57300D01*
X-7850Y56664D01*
X-7750Y56617D01*
X-7699Y56629D01*
X-7480Y56753D01*
X-7324Y56951D01*
X-7273Y57132D01*
X-7115Y57042D01*
X-7055Y57027D01*
X-6950Y57073D01*
X-6950Y55826D01*
X-7055Y55872D01*
X-7115Y55857D01*
X-7275Y55766D01*
X-7305Y55917D01*
X-7444Y56126D01*
X-7653Y56265D01*
X-7900Y56314D01*
X-7950Y56304D01*
X-7950Y56664D01*
X-7950Y57300D01*
X-7950Y57400D01*
X-7950Y58035D01*
X-8049Y58082D01*
X-8100Y58070D01*
X-8319Y57946D01*
X-8475Y57748D01*
X-8543Y57506D01*
X-8543Y57400D01*
X-7950Y57400D01*
X-7950Y57300D01*
X-8543Y57300D01*
X-8543Y57193D01*
X-8475Y56951D01*
X-8319Y56753D01*
X-8100Y56629D01*
X-8049Y56617D01*
X-7950Y56664D01*
X-7950Y56304D01*
X-8146Y56265D01*
X-8355Y56126D01*
X-8494Y55917D01*
X-8543Y55670D01*
X-8543Y55429D01*
X-8494Y55182D01*
X-8355Y54973D01*
X-8146Y54834D01*
X-7900Y54785D01*
X-7653Y54834D01*
X-7583Y54881D01*
X-7583Y54842D01*
X-7511Y54584D01*
X-7347Y54374D01*
X-7115Y54242D01*
X-7055Y54227D01*
X-6950Y54273D01*
X-6950Y52437D01*
X-8093Y51293D01*
X-8199Y51136D01*
X-8236Y50950D01*
X-8236Y48700D01*
X-8236Y41700D01*
X-8236Y36700D01*
X-8236Y35450D01*
X-8236Y29450D01*
X-8236Y25700D01*
X-8236Y21200D01*
X-8199Y21013D01*
X-8093Y20856D01*
X-6093Y18856D01*
X-6093Y18856D01*
X-5936Y18750D01*
X-5936Y18750D01*
X-5787Y18721D01*
X-5750Y18713D01*
X-5750Y18713D01*
X-5750Y18713D01*
X-760Y18713D01*
X-726Y18690D01*
X-864Y18615D01*
X-1002Y18442D01*
X-1064Y18230D01*
X-1064Y18092D01*
X-550Y18092D01*
X-550Y18100D01*
X-450Y18100D01*
X-450Y18092D01*
X-442Y18092D01*
X-442Y17992D01*
X-450Y17992D01*
X-450Y17404D01*
X-362Y17356D01*
X-329Y17363D01*
X-135Y17469D01*
X1Y17640D01*
X100Y17491D01*
X283Y17369D01*
X500Y17325D01*
X716Y17369D01*
X899Y17491D01*
X999Y17641D01*
X1100Y17491D01*
X1283Y17369D01*
X1500Y17325D01*
X1716Y17369D01*
X1899Y17491D01*
X2000Y17641D01*
X2100Y17491D01*
X2283Y17369D01*
X2500Y17325D01*
X2716Y17369D01*
X2899Y17491D01*
X3000Y17641D01*
X3100Y17491D01*
X3283Y17369D01*
X3500Y17325D01*
X3716Y17369D01*
X3899Y17491D01*
X4000Y17641D01*
X4100Y17491D01*
X4283Y17369D01*
X4500Y17325D01*
X4716Y17369D01*
X4899Y17491D01*
X5000Y17641D01*
X5100Y17491D01*
X5151Y17457D01*
X5151Y16700D01*
X5178Y16566D01*
X5181Y16562D01*
X5181Y16450D01*
X5205Y16327D01*
X5274Y16224D01*
X6524Y14974D01*
X6524Y14974D01*
X6576Y14939D01*
X6627Y14905D01*
X6627Y14905D01*
X6750Y14881D01*
X22000Y14881D01*
X22000Y14881D01*
X22122Y14905D01*
X22122Y14905D01*
X22225Y14974D01*
X23102Y15851D01*
X25749Y15851D01*
X25750Y15851D01*
X25750Y15851D01*
X25861Y15873D01*
X25883Y15878D01*
X25883Y15878D01*
X25996Y15953D01*
X26996Y16953D01*
X26996Y16953D01*
X26996Y16953D01*
X27071Y17066D01*
X27098Y17200D01*
X27098Y20699D01*
X27098Y20700D01*
X27098Y20700D01*
X27076Y20811D01*
X27071Y20833D01*
X27071Y20833D01*
X27060Y20851D01*
X27060Y22510D01*
X27060Y22650D01*
X26550Y22650D01*
X26550Y22065D01*
X26636Y22016D01*
X26668Y22023D01*
X26860Y22128D01*
X26998Y22299D01*
X27060Y22510D01*
X27060Y20851D01*
X26996Y20946D01*
X26996Y20946D01*
X25848Y22094D01*
X25848Y22118D01*
X25895Y22150D01*
X25999Y22305D01*
X26001Y22299D01*
X26139Y22128D01*
X26331Y22023D01*
X26363Y22016D01*
X26450Y22065D01*
X26450Y22650D01*
X26442Y22650D01*
X26442Y22750D01*
X26450Y22750D01*
X26450Y22757D01*
X26550Y22757D01*
X26550Y22750D01*
X27060Y22750D01*
X27060Y22890D01*
X26998Y23100D01*
X26860Y23271D01*
X26713Y23351D01*
X28749Y23351D01*
X28750Y23351D01*
X28750Y23351D01*
X28861Y23373D01*
X28883Y23378D01*
X28883Y23378D01*
X28996Y23453D01*
X29980Y24437D01*
X29980Y14219D01*
M02*
