G04 (created by PCBNEW (2013-07-07 BZR 4022)-stable) date 19/03/2022 16:52:54*
%MOIN*%
G04 Gerber Fmt 3.4, Leading zero omitted, Abs format*
%FSLAX34Y34*%
G01*
G70*
G90*
G04 APERTURE LIST*
%ADD10C,0.00590551*%
%ADD11C,0.00393701*%
%ADD12O,0.189X0.177165*%
%ADD13O,0.204724X0.177165*%
%ADD14O,0.137795X0.189*%
%ADD15O,0.0866142X0.11811*%
%ADD16O,0.0787402X0.1*%
%ADD17R,0.0629921X0.0905512*%
%ADD18O,0.0629921X0.0905512*%
%ADD19C,0.0669291*%
%ADD20C,0.0708661*%
%ADD21R,0.0629921X0.0629921*%
%ADD22O,0.0629921X0.0748031*%
%ADD23O,0.0748031X0.0629921*%
%ADD24C,0.0649606*%
%ADD25C,0.0629921*%
%ADD26R,0.062X0.09*%
%ADD27O,0.062X0.09*%
%ADD28R,0.0708661X0.0708661*%
%ADD29C,0.0905512*%
%ADD30R,0.0905512X0.0905512*%
%ADD31C,0.102362*%
%ADD32R,0.11811X0.11811*%
%ADD33C,0.11811*%
%ADD34C,0.16*%
%ADD35R,0.063X0.1024*%
%ADD36R,0.1378X0.0945*%
%ADD37R,0.1417X0.063*%
G04 APERTURE END LIST*
G54D10*
G54D11*
X-9000Y65200D02*
X-9000Y13950D01*
X30250Y65200D02*
X-9000Y65200D01*
X30250Y13950D02*
X30250Y65200D01*
X-9000Y13950D02*
X30250Y13950D01*
G54D12*
X-3000Y63450D03*
G54D13*
X-3000Y61050D03*
G54D14*
X-4700Y62550D03*
G54D15*
X-6900Y55050D03*
G54D16*
X-7900Y55550D03*
X-7900Y57350D03*
G54D15*
X-6900Y57850D03*
G54D17*
X15500Y19357D03*
G54D18*
X15500Y18042D03*
X14500Y19357D03*
X14500Y18042D03*
X13500Y19357D03*
X13500Y18042D03*
X12500Y19357D03*
X12500Y18042D03*
X11500Y19357D03*
X11500Y18042D03*
X10500Y19357D03*
X10500Y18042D03*
X9500Y19357D03*
X9500Y18042D03*
X8500Y19357D03*
X8500Y18042D03*
X7500Y19357D03*
X7500Y18042D03*
X6500Y19357D03*
X6500Y18042D03*
X5500Y19357D03*
X5500Y18042D03*
X4500Y19357D03*
X4500Y18042D03*
X3500Y19357D03*
X3500Y18042D03*
X2500Y19357D03*
X2500Y18042D03*
X1500Y19357D03*
X1500Y18042D03*
X500Y19357D03*
X500Y18042D03*
X-500Y19357D03*
X-500Y18042D03*
G54D17*
X6750Y61542D03*
G54D18*
X6750Y62857D03*
X7750Y61542D03*
X7750Y62857D03*
X8750Y61542D03*
X8750Y62857D03*
X9750Y61542D03*
X9750Y62857D03*
X10750Y61542D03*
X10750Y62857D03*
X11750Y61542D03*
X11750Y62857D03*
X12750Y61542D03*
X12750Y62857D03*
X13750Y61542D03*
X13750Y62857D03*
X14750Y61542D03*
X14750Y62857D03*
X15750Y61542D03*
X15750Y62857D03*
X16750Y61542D03*
X16750Y62857D03*
X17750Y61542D03*
X17750Y62857D03*
X18750Y61542D03*
X18750Y62857D03*
X19750Y61542D03*
X19750Y62857D03*
X20750Y61542D03*
X20750Y62857D03*
X21750Y61542D03*
X21750Y62857D03*
X22750Y61542D03*
X22750Y62857D03*
G54D19*
X9000Y56700D03*
X9000Y59700D03*
G54D20*
X0Y49950D03*
X-3000Y49950D03*
X-6000Y44450D03*
X-3000Y44450D03*
X0Y51200D03*
X-3000Y51200D03*
G54D19*
X-3000Y52450D03*
X0Y52450D03*
X-3000Y54950D03*
X0Y54950D03*
X-3000Y53700D03*
X0Y53700D03*
X-3000Y56200D03*
X0Y56200D03*
G54D21*
X19500Y42200D03*
G54D22*
X19500Y41121D03*
X18500Y42278D03*
X18500Y41121D03*
X17500Y42278D03*
X17500Y41121D03*
X16500Y42278D03*
X16500Y41121D03*
X15500Y42278D03*
X15500Y41121D03*
X14500Y42278D03*
G54D23*
X13421Y41200D03*
G54D19*
X14500Y41200D03*
G54D23*
X13421Y40200D03*
X14578Y40200D03*
X13421Y39200D03*
X14578Y39200D03*
X13421Y38200D03*
X14578Y38200D03*
X13421Y37200D03*
X14578Y37200D03*
X13421Y36200D03*
X14578Y36200D03*
X13421Y35200D03*
X14578Y35200D03*
X13421Y34200D03*
X14578Y34200D03*
X13421Y33200D03*
X14578Y33200D03*
X13421Y32200D03*
X14578Y32200D03*
X13421Y31200D03*
G54D22*
X14500Y30121D03*
G54D24*
X14500Y31200D03*
G54D22*
X15500Y30121D03*
X15500Y31278D03*
X16500Y30121D03*
X16500Y31278D03*
X17500Y30121D03*
X17500Y31278D03*
X18500Y30121D03*
X18500Y31278D03*
X19500Y30121D03*
X19500Y31278D03*
X20500Y30121D03*
X20500Y31278D03*
X21500Y30121D03*
X21500Y31278D03*
X22500Y30121D03*
X22500Y31278D03*
X23500Y30121D03*
X23500Y31278D03*
X24500Y30121D03*
G54D23*
X25578Y31200D03*
G54D24*
X24500Y31200D03*
G54D23*
X25578Y32200D03*
X24421Y32200D03*
X25578Y33200D03*
X24421Y33200D03*
X25578Y34200D03*
X24421Y34200D03*
X25578Y35200D03*
X24421Y35200D03*
X25578Y36200D03*
X24421Y36200D03*
X25578Y37200D03*
X24421Y37200D03*
X25578Y38200D03*
X24421Y38200D03*
X25578Y39200D03*
X24421Y39200D03*
X25578Y40200D03*
X24421Y40200D03*
X25578Y41200D03*
G54D22*
X24500Y42278D03*
G54D25*
X24500Y41200D03*
G54D22*
X23500Y42278D03*
X23500Y41121D03*
X22500Y42278D03*
X22500Y41121D03*
X21500Y42278D03*
X21500Y41121D03*
X20500Y42278D03*
X20500Y41121D03*
G54D26*
X2750Y51200D03*
G54D27*
X3750Y51200D03*
X4750Y51200D03*
X5750Y51200D03*
X5750Y54200D03*
X4750Y54200D03*
X3750Y54200D03*
X2750Y54200D03*
G54D26*
X8750Y48200D03*
G54D27*
X9750Y48200D03*
X10750Y48200D03*
X11750Y48200D03*
X12750Y48200D03*
X13750Y48200D03*
X14750Y48200D03*
X15750Y48200D03*
X16750Y48200D03*
X17750Y48200D03*
X18750Y48200D03*
X19750Y48200D03*
X20750Y48200D03*
X21750Y48200D03*
X22750Y48200D03*
X23750Y48200D03*
X24750Y48200D03*
X25750Y48200D03*
X26750Y48200D03*
X27750Y48200D03*
X27750Y54200D03*
X26750Y54200D03*
X25750Y54200D03*
X24750Y54200D03*
X23750Y54200D03*
X22750Y54200D03*
X21750Y54200D03*
X20750Y54200D03*
X19750Y54200D03*
X18750Y54200D03*
X17750Y54200D03*
X16750Y54200D03*
X15750Y54200D03*
X14750Y54200D03*
X13750Y54200D03*
X12750Y54200D03*
X11750Y54200D03*
X10750Y54200D03*
X9750Y54200D03*
X8750Y54200D03*
G54D26*
X-7000Y29450D03*
G54D27*
X-6000Y29450D03*
X-5000Y29450D03*
X-4000Y29450D03*
X-3000Y29450D03*
X-2000Y29450D03*
X-1000Y29450D03*
X0Y29450D03*
X1000Y29450D03*
X2000Y29450D03*
X3000Y29450D03*
X4000Y29450D03*
X5000Y29450D03*
X6000Y29450D03*
X6000Y35450D03*
X5000Y35450D03*
X4000Y35450D03*
X3000Y35450D03*
X2000Y35450D03*
X1000Y35450D03*
X0Y35450D03*
X-1000Y35450D03*
X-2000Y35450D03*
X-3000Y35450D03*
X-4000Y35450D03*
X-5000Y35450D03*
X-6000Y35450D03*
X-7000Y35450D03*
G54D26*
X17500Y22700D03*
G54D27*
X18500Y22700D03*
X19500Y22700D03*
X20500Y22700D03*
X21500Y22700D03*
X22500Y22700D03*
X23500Y22700D03*
X24500Y22700D03*
X25500Y22700D03*
X26500Y22700D03*
X26500Y25700D03*
X25500Y25700D03*
X24500Y25700D03*
X23500Y25700D03*
X22500Y25700D03*
X21500Y25700D03*
X20500Y25700D03*
X19500Y25700D03*
X18500Y25700D03*
X17500Y25700D03*
G54D26*
X-7000Y22700D03*
G54D27*
X-6000Y22700D03*
X-5000Y22700D03*
X-4000Y22700D03*
X-3000Y22700D03*
X-2000Y22700D03*
X-1000Y22700D03*
X0Y22700D03*
X1000Y22700D03*
X2000Y22700D03*
X2000Y25700D03*
X1000Y25700D03*
X0Y25700D03*
X-1000Y25700D03*
X-2000Y25700D03*
X-3000Y25700D03*
X-4000Y25700D03*
X-5000Y25700D03*
X-6000Y25700D03*
X-7000Y25700D03*
G54D26*
X5250Y22700D03*
G54D27*
X6250Y22700D03*
X7250Y22700D03*
X8250Y22700D03*
X9250Y22700D03*
X10250Y22700D03*
X11250Y22700D03*
X12250Y22700D03*
X13250Y22700D03*
X14250Y22700D03*
X14250Y25700D03*
X13250Y25700D03*
X12250Y25700D03*
X11250Y25700D03*
X10250Y25700D03*
X9250Y25700D03*
X8250Y25700D03*
X7250Y25700D03*
X6250Y25700D03*
X5250Y25700D03*
G54D26*
X-7000Y38700D03*
G54D27*
X-6000Y38700D03*
X-5000Y38700D03*
X-4000Y38700D03*
X-3000Y38700D03*
X-2000Y38700D03*
X-1000Y38700D03*
X0Y38700D03*
X1000Y38700D03*
X2000Y38700D03*
X2000Y41700D03*
X1000Y41700D03*
X0Y41700D03*
X-1000Y41700D03*
X-2000Y41700D03*
X-3000Y41700D03*
X-4000Y41700D03*
X-5000Y41700D03*
X-6000Y41700D03*
X-7000Y41700D03*
G54D26*
X10750Y56700D03*
G54D27*
X11750Y56700D03*
X12750Y56700D03*
X13750Y56700D03*
X14750Y56700D03*
X15750Y56700D03*
X16750Y56700D03*
X17750Y56700D03*
X17750Y59700D03*
X16750Y59700D03*
X15750Y59700D03*
X14750Y59700D03*
X13750Y59700D03*
X12750Y59700D03*
X11750Y59700D03*
X10750Y59700D03*
G54D26*
X-7000Y45700D03*
G54D27*
X-6000Y45700D03*
X-5000Y45700D03*
X-4000Y45700D03*
X-3000Y45700D03*
X-2000Y45700D03*
X-1000Y45700D03*
X0Y45700D03*
X0Y48700D03*
X-1000Y48700D03*
X-2000Y48700D03*
X-3000Y48700D03*
X-4000Y48700D03*
X-5000Y48700D03*
X-6000Y48700D03*
X-7000Y48700D03*
G54D26*
X21750Y56700D03*
G54D27*
X22750Y56700D03*
X23750Y56700D03*
X24750Y56700D03*
X25750Y56700D03*
X26750Y56700D03*
X27750Y56700D03*
X27750Y59700D03*
X26750Y59700D03*
X25750Y59700D03*
X24750Y59700D03*
X23750Y59700D03*
X22750Y59700D03*
X21750Y59700D03*
G54D20*
X-1000Y44450D03*
X-2000Y44450D03*
X-6000Y49950D03*
X-5000Y49950D03*
G54D28*
X9250Y38200D03*
G54D20*
X6250Y38200D03*
X6250Y44200D03*
X9250Y44200D03*
G54D19*
X7750Y56700D03*
X7750Y59700D03*
G54D29*
X-5500Y58450D03*
G54D30*
X-1500Y58450D03*
G54D31*
X6250Y46950D03*
X2250Y47950D03*
X6250Y48950D03*
G54D32*
X500Y61950D03*
G54D33*
X2500Y61950D03*
G54D34*
X-7500Y63700D03*
X28750Y63700D03*
X28750Y15450D03*
X-7500Y15450D03*
G54D19*
X24750Y17450D03*
X24750Y20450D03*
X26000Y17450D03*
X26000Y20450D03*
X23500Y20450D03*
X23500Y17450D03*
X12000Y37700D03*
X12000Y40700D03*
X6500Y59700D03*
X6500Y56700D03*
G54D35*
X-4750Y52991D03*
X-4750Y54409D03*
G54D36*
X220Y58450D03*
X2780Y58450D03*
G54D37*
X-4167Y19700D03*
X-6333Y19700D03*
M02*
