M48
;DRILL file {Pcbnew (2013-07-07 BZR 4022)-stable} date 19/03/2022 16:52:56
;FORMAT={-:-/ absolute / inch / decimal}
FMAT,2
INCH,TZ
T1C0.025
T2C0.032
T3C0.040
T4C0.043
T5C0.047
T6C0.050
T7C0.059
T8C0.120
%
G90
G05
M72
T1
X-0.15Y3.345
X-0.075Y4.695
X0.3Y3.77
X0.35Y3.92
X0.425Y6.245
X0.725Y5.045
X0.725Y4.17
X0.925Y5.045
X1.Y5.12
X1.025Y3.57
X1.075Y2.995
X1.1Y4.47
X1.325Y5.12
X1.45Y2.095
X1.475Y2.67
X1.525Y2.495
X1.525Y2.395
X1.6Y2.27
X1.65Y3.945
X1.65Y3.495
X1.675Y5.12
X1.7Y3.27
X1.825Y5.22
X1.825Y5.07
X1.825Y2.045
X1.825Y1.82
X1.925Y3.945
X2.05Y4.97
X2.05Y1.795
X2.1Y4.72
X2.2Y5.195
X2.225Y5.57
X2.25Y1.795
X2.275Y5.52
X2.275Y4.72
X2.275Y3.97
X2.275Y3.67
X2.325Y3.245
X2.55Y4.495
X2.625Y5.52
X2.65Y4.495
X2.725Y5.57
X2.8Y4.395
X2.8Y3.72
X2.8Y3.62
X2.8Y3.52
X2.8Y3.42
X2.9Y5.97
T2
X-0.7Y4.87
X-0.7Y4.57
X-0.7Y4.17
X-0.7Y3.87
X-0.7Y3.545
X-0.7Y2.945
X-0.7Y2.57
X-0.7Y2.27
X-0.6Y4.995
X-0.6Y4.87
X-0.6Y4.57
X-0.6Y4.445
X-0.6Y4.17
X-0.6Y3.87
X-0.6Y3.545
X-0.6Y2.945
X-0.6Y2.57
X-0.6Y2.27
X-0.5Y4.995
X-0.5Y4.87
X-0.5Y4.57
X-0.5Y4.17
X-0.5Y3.87
X-0.5Y3.545
X-0.5Y2.945
X-0.5Y2.57
X-0.5Y2.27
X-0.4Y4.87
X-0.4Y4.57
X-0.4Y4.17
X-0.4Y3.87
X-0.4Y3.545
X-0.4Y2.945
X-0.4Y2.57
X-0.4Y2.27
X-0.35Y1.77
X-0.3Y5.62
X-0.3Y5.495
X-0.3Y5.37
X-0.3Y5.245
X-0.3Y5.12
X-0.3Y4.995
X-0.3Y4.87
X-0.3Y4.57
X-0.3Y4.445
X-0.3Y4.17
X-0.3Y3.87
X-0.3Y3.545
X-0.3Y2.945
X-0.3Y2.57
X-0.3Y2.27
X-0.2Y4.87
X-0.2Y4.57
X-0.2Y4.445
X-0.2Y4.17
X-0.2Y3.87
X-0.2Y3.545
X-0.2Y2.945
X-0.2Y2.57
X-0.2Y2.27
X-0.1Y4.87
X-0.1Y4.57
X-0.1Y4.445
X-0.1Y4.17
X-0.1Y3.87
X-0.1Y3.545
X-0.1Y2.945
X-0.1Y2.57
X-0.1Y2.27
X0.Y5.62
X0.Y5.495
X0.Y5.37
X0.Y5.245
X0.Y5.12
X0.Y4.995
X0.Y4.87
X0.Y4.57
X0.Y4.17
X0.Y3.87
X0.Y3.545
X0.Y2.945
X0.Y2.57
X0.Y2.27
X0.1Y4.17
X0.1Y3.87
X0.1Y3.545
X0.1Y2.945
X0.1Y2.57
X0.1Y2.27
X0.2Y4.17
X0.2Y3.87
X0.2Y3.545
X0.2Y2.945
X0.2Y2.57
X0.2Y2.27
X0.275Y5.42
X0.275Y5.12
X0.3Y3.545
X0.3Y2.945
X0.375Y5.42
X0.375Y5.12
X0.375Y4.345
X0.4Y3.545
X0.4Y2.945
X0.475Y5.42
X0.475Y5.12
X0.5Y3.545
X0.5Y2.945
X0.525Y2.57
X0.525Y2.27
X0.555Y5.845
X0.575Y5.42
X0.575Y5.12
X0.6Y3.545
X0.6Y2.945
X0.625Y4.42
X0.625Y3.82
X0.625Y2.57
X0.625Y2.27
X0.65Y5.97
X0.65Y5.67
X0.725Y2.57
X0.725Y2.27
X0.775Y5.97
X0.775Y5.67
X0.825Y2.57
X0.825Y2.27
X0.875Y5.42
X0.875Y4.82
X0.9Y5.97
X0.9Y5.67
X0.925Y4.42
X0.925Y3.82
X0.925Y2.57
X0.925Y2.27
X0.975Y5.42
X0.975Y4.82
X1.025Y2.57
X1.025Y2.27
X1.075Y5.97
X1.075Y5.67
X1.075Y5.42
X1.075Y4.82
X1.125Y2.57
X1.125Y2.27
X1.175Y5.97
X1.175Y5.67
X1.175Y5.42
X1.175Y4.82
X1.175Y4.32
X1.175Y3.145
X1.2Y4.07
X1.2Y3.77
X1.225Y2.57
X1.225Y2.27
X1.275Y5.97
X1.275Y5.67
X1.275Y5.42
X1.275Y4.82
X1.325Y2.57
X1.325Y2.27
X1.35Y4.12
X1.35Y4.02
X1.35Y3.92
X1.35Y3.82
X1.35Y3.72
X1.35Y3.62
X1.35Y3.52
X1.35Y3.42
X1.35Y3.32
X1.35Y3.22
X1.35Y3.12
X1.375Y5.97
X1.375Y5.67
X1.375Y5.42
X1.375Y4.82
X1.425Y2.57
X1.425Y2.27
X1.45Y4.22
X1.45Y4.12
X1.45Y4.02
X1.45Y3.92
X1.45Y3.82
X1.45Y3.72
X1.45Y3.62
X1.45Y3.52
X1.45Y3.42
X1.45Y3.32
X1.45Y3.22
X1.45Y3.12
X1.45Y3.02
X1.475Y5.97
X1.475Y5.67
X1.475Y5.42
X1.475Y4.82
X1.55Y4.22
X1.55Y4.12
X1.55Y3.12
X1.55Y3.02
X1.575Y5.97
X1.575Y5.67
X1.575Y5.42
X1.575Y4.82
X1.65Y4.22
X1.65Y4.12
X1.65Y3.12
X1.65Y3.02
X1.675Y5.97
X1.675Y5.67
X1.675Y5.42
X1.675Y4.82
X1.675Y4.37
X1.75Y4.22
X1.75Y4.12
X1.75Y3.12
X1.75Y3.02
X1.75Y2.57
X1.75Y2.27
X1.775Y5.97
X1.775Y5.67
X1.775Y5.42
X1.775Y4.82
X1.85Y4.22
X1.85Y4.12
X1.85Y3.12
X1.85Y3.02
X1.85Y2.57
X1.85Y2.27
X1.875Y5.42
X1.875Y4.82
X1.95Y4.22
X1.95Y4.12
X1.95Y3.12
X1.95Y3.02
X1.95Y2.57
X1.95Y2.27
X1.975Y5.42
X1.975Y4.82
X2.05Y4.22
X2.05Y4.12
X2.05Y3.12
X2.05Y3.02
X2.05Y2.57
X2.05Y2.27
X2.075Y5.42
X2.075Y4.82
X2.15Y4.22
X2.15Y4.12
X2.15Y3.12
X2.15Y3.02
X2.15Y2.57
X2.15Y2.27
X2.175Y5.97
X2.175Y5.67
X2.175Y5.42
X2.175Y4.82
X2.25Y4.22
X2.25Y4.12
X2.25Y3.12
X2.25Y3.02
X2.25Y2.57
X2.25Y2.27
X2.275Y5.97
X2.275Y5.67
X2.275Y5.42
X2.275Y4.82
X2.35Y4.22
X2.35Y4.12
X2.35Y3.12
X2.35Y3.02
X2.35Y2.57
X2.35Y2.27
X2.35Y2.045
X2.35Y1.745
X2.375Y5.97
X2.375Y5.67
X2.375Y5.42
X2.375Y4.82
X2.45Y4.22
X2.45Y4.12
X2.45Y4.02
X2.45Y3.92
X2.45Y3.82
X2.45Y3.72
X2.45Y3.62
X2.45Y3.52
X2.45Y3.42
X2.45Y3.32
X2.45Y3.22
X2.45Y3.12
X2.45Y3.02
X2.45Y2.57
X2.45Y2.27
X2.475Y5.97
X2.475Y5.67
X2.475Y5.42
X2.475Y4.82
X2.475Y2.045
X2.475Y1.745
X2.55Y4.12
X2.55Y4.02
X2.55Y3.92
X2.55Y3.82
X2.55Y3.72
X2.55Y3.62
X2.55Y3.52
X2.55Y3.42
X2.55Y3.32
X2.55Y3.22
X2.55Y3.12
X2.55Y2.57
X2.55Y2.27
X2.575Y5.97
X2.575Y5.67
X2.575Y5.42
X2.575Y4.82
X2.6Y2.045
X2.6Y1.745
X2.65Y2.57
X2.65Y2.27
X2.675Y5.97
X2.675Y5.67
X2.675Y5.42
X2.675Y4.82
X2.775Y5.97
X2.775Y5.67
X2.775Y5.42
X2.775Y4.82
X2.785Y4.025
T3
X-0.79Y5.735
X-0.79Y5.555
X-0.55Y5.845
X-0.15Y5.845
X-0.05Y1.92
X-0.05Y1.82
X0.05Y1.92
X0.05Y1.82
X0.15Y1.92
X0.15Y1.82
X0.25Y1.92
X0.25Y1.82
X0.35Y1.92
X0.35Y1.82
X0.45Y1.92
X0.45Y1.82
X0.55Y1.92
X0.55Y1.82
X0.65Y1.92
X0.65Y1.82
X0.675Y6.27
X0.675Y6.17
X0.75Y1.92
X0.75Y1.82
X0.775Y6.27
X0.775Y6.17
X0.85Y1.92
X0.85Y1.82
X0.875Y6.27
X0.875Y6.17
X0.95Y1.92
X0.95Y1.82
X0.975Y6.27
X0.975Y6.17
X1.05Y1.92
X1.05Y1.82
X1.075Y6.27
X1.075Y6.17
X1.15Y1.92
X1.15Y1.82
X1.175Y6.27
X1.175Y6.17
X1.25Y1.92
X1.25Y1.82
X1.275Y6.27
X1.275Y6.17
X1.35Y1.92
X1.35Y1.82
X1.375Y6.27
X1.375Y6.17
X1.45Y1.92
X1.45Y1.82
X1.475Y6.27
X1.475Y6.17
X1.55Y1.92
X1.55Y1.82
X1.575Y6.27
X1.575Y6.17
X1.675Y6.27
X1.675Y6.17
X1.775Y6.27
X1.775Y6.17
X1.875Y6.27
X1.875Y6.17
X1.975Y6.27
X1.975Y6.17
X2.075Y6.27
X2.075Y6.17
X2.175Y6.27
X2.175Y6.17
X2.275Y6.27
X2.275Y6.17
T5
X0.05Y6.195
X0.25Y6.195
T6
X0.225Y4.795
X0.625Y4.895
X0.625Y4.695
T7
X-0.69Y5.785
X-0.69Y5.505
T8
X-0.75Y6.37
X-0.75Y1.545
X2.875Y6.37
X2.875Y1.545
T3
X-0.2708Y6.345G85X-0.3292Y6.345
G05
X-0.257Y6.105G85X-0.343Y6.105
G05
T4
X-0.47Y6.2885G85X-0.47Y6.2215
G05
T0
M30
