G04 (created by PCBNEW (2013-07-07 BZR 4022)-stable) date 19/03/2022 16:52:54*
%MOIN*%
G04 Gerber Fmt 3.4, Leading zero omitted, Abs format*
%FSLAX34Y34*%
G01*
G70*
G90*
G04 APERTURE LIST*
%ADD10C,0.00590551*%
%ADD11C,0.00393701*%
%ADD12C,0.011811*%
%ADD13O,0.189X0.177165*%
%ADD14O,0.204724X0.177165*%
%ADD15O,0.137795X0.189*%
%ADD16O,0.0866142X0.11811*%
%ADD17O,0.0787402X0.1*%
%ADD18R,0.0629921X0.0905512*%
%ADD19O,0.0629921X0.0905512*%
%ADD20C,0.0669291*%
%ADD21C,0.0708661*%
%ADD22R,0.0629921X0.0629921*%
%ADD23O,0.0629921X0.0748031*%
%ADD24O,0.0748031X0.0629921*%
%ADD25C,0.0649606*%
%ADD26C,0.0629921*%
%ADD27R,0.062X0.09*%
%ADD28O,0.062X0.09*%
%ADD29R,0.0708661X0.0708661*%
%ADD30C,0.0905512*%
%ADD31R,0.0905512X0.0905512*%
%ADD32C,0.102362*%
%ADD33R,0.11811X0.11811*%
%ADD34C,0.11811*%
%ADD35C,0.16*%
%ADD36R,0.063X0.1024*%
%ADD37R,0.1378X0.0945*%
%ADD38R,0.1417X0.063*%
%ADD39C,0.0590551*%
%ADD40C,0.0787402*%
%ADD41C,0.019685*%
%ADD42C,0.0137795*%
%ADD43C,0.0314961*%
%ADD44C,0.0472441*%
%ADD45C,0.01*%
G04 APERTURE END LIST*
G54D10*
G54D11*
X-9000Y65200D02*
X-9000Y13950D01*
X30250Y65200D02*
X-9000Y65200D01*
X30250Y13950D02*
X30250Y65200D01*
X-9000Y13950D02*
X30250Y13950D01*
G54D12*
X10006Y15301D02*
X10062Y15301D01*
X10118Y15273D01*
X10147Y15245D01*
X10175Y15189D01*
X10203Y15076D01*
X10203Y14935D01*
X10175Y14823D01*
X10147Y14767D01*
X10118Y14739D01*
X10062Y14710D01*
X10006Y14710D01*
X9950Y14739D01*
X9922Y14767D01*
X9893Y14823D01*
X9865Y14935D01*
X9865Y15076D01*
X9893Y15189D01*
X9922Y15245D01*
X9950Y15273D01*
X10006Y15301D01*
X10709Y15104D02*
X10709Y14710D01*
X10568Y15329D02*
X10428Y14907D01*
X10793Y14907D01*
X11440Y15329D02*
X10934Y14570D01*
X11609Y15245D02*
X11637Y15273D01*
X11693Y15301D01*
X11834Y15301D01*
X11890Y15273D01*
X11918Y15245D01*
X11946Y15189D01*
X11946Y15132D01*
X11918Y15048D01*
X11581Y14710D01*
X11946Y14710D01*
X12312Y15301D02*
X12368Y15301D01*
X12424Y15273D01*
X12453Y15245D01*
X12481Y15189D01*
X12509Y15076D01*
X12509Y14935D01*
X12481Y14823D01*
X12453Y14767D01*
X12424Y14739D01*
X12368Y14710D01*
X12312Y14710D01*
X12256Y14739D01*
X12228Y14767D01*
X12199Y14823D01*
X12171Y14935D01*
X12171Y15076D01*
X12199Y15189D01*
X12228Y15245D01*
X12256Y15273D01*
X12312Y15301D01*
X13071Y14710D02*
X12734Y14710D01*
X12902Y14710D02*
X12902Y15301D01*
X12846Y15217D01*
X12790Y15160D01*
X12734Y15132D01*
X13409Y15048D02*
X13352Y15076D01*
X13324Y15104D01*
X13296Y15160D01*
X13296Y15189D01*
X13324Y15245D01*
X13352Y15273D01*
X13409Y15301D01*
X13521Y15301D01*
X13577Y15273D01*
X13606Y15245D01*
X13634Y15189D01*
X13634Y15160D01*
X13606Y15104D01*
X13577Y15076D01*
X13521Y15048D01*
X13409Y15048D01*
X13352Y15020D01*
X13324Y14992D01*
X13296Y14935D01*
X13296Y14823D01*
X13324Y14767D01*
X13352Y14739D01*
X13409Y14710D01*
X13521Y14710D01*
X13577Y14739D01*
X13606Y14767D01*
X13634Y14823D01*
X13634Y14935D01*
X13606Y14992D01*
X13577Y15020D01*
X13521Y15048D01*
X-4644Y14767D02*
X-4672Y14739D01*
X-4757Y14710D01*
X-4813Y14710D01*
X-4897Y14739D01*
X-4953Y14795D01*
X-4982Y14851D01*
X-5010Y14964D01*
X-5010Y15048D01*
X-4982Y15160D01*
X-4953Y15217D01*
X-4897Y15273D01*
X-4813Y15301D01*
X-4757Y15301D01*
X-4672Y15273D01*
X-4644Y15245D01*
X-4278Y15301D02*
X-4166Y15301D01*
X-4110Y15273D01*
X-4053Y15217D01*
X-4025Y15104D01*
X-4025Y14907D01*
X-4053Y14795D01*
X-4110Y14739D01*
X-4166Y14710D01*
X-4278Y14710D01*
X-4335Y14739D01*
X-4391Y14795D01*
X-4419Y14907D01*
X-4419Y15104D01*
X-4391Y15217D01*
X-4335Y15273D01*
X-4278Y15301D01*
X-3772Y14710D02*
X-3772Y15301D01*
X-3435Y14710D01*
X-3435Y15301D01*
X-3238Y15301D02*
X-2901Y15301D01*
X-3069Y14710D02*
X-3069Y15301D01*
X-2366Y14710D02*
X-2563Y14992D01*
X-2704Y14710D02*
X-2704Y15301D01*
X-2479Y15301D01*
X-2422Y15273D01*
X-2394Y15245D01*
X-2366Y15189D01*
X-2366Y15104D01*
X-2394Y15048D01*
X-2422Y15020D01*
X-2479Y14992D01*
X-2704Y14992D01*
X-2001Y15301D02*
X-1888Y15301D01*
X-1832Y15273D01*
X-1776Y15217D01*
X-1748Y15104D01*
X-1748Y14907D01*
X-1776Y14795D01*
X-1832Y14739D01*
X-1888Y14710D01*
X-2001Y14710D01*
X-2057Y14739D01*
X-2113Y14795D01*
X-2141Y14907D01*
X-2141Y15104D01*
X-2113Y15217D01*
X-2057Y15273D01*
X-2001Y15301D01*
X-1213Y14710D02*
X-1494Y14710D01*
X-1494Y15301D01*
X-1016Y15020D02*
X-820Y15020D01*
X-735Y14710D02*
X-1016Y14710D01*
X-1016Y15301D01*
X-735Y15301D01*
X-482Y15301D02*
X-482Y14823D01*
X-454Y14767D01*
X-426Y14739D01*
X-370Y14710D01*
X-257Y14710D01*
X-201Y14739D01*
X-173Y14767D01*
X-145Y14823D01*
X-145Y15301D01*
X473Y14710D02*
X276Y14992D01*
X136Y14710D02*
X136Y15301D01*
X361Y15301D01*
X417Y15273D01*
X445Y15245D01*
X473Y15189D01*
X473Y15104D01*
X445Y15048D01*
X417Y15020D01*
X361Y14992D01*
X136Y14992D01*
X1176Y14710D02*
X1176Y15301D01*
X1373Y14879D01*
X1570Y15301D01*
X1570Y14710D01*
X1851Y14710D02*
X1851Y15301D01*
X2470Y14767D02*
X2442Y14739D01*
X2357Y14710D01*
X2301Y14710D01*
X2217Y14739D01*
X2160Y14795D01*
X2132Y14851D01*
X2104Y14964D01*
X2104Y15048D01*
X2132Y15160D01*
X2160Y15217D01*
X2217Y15273D01*
X2301Y15301D01*
X2357Y15301D01*
X2442Y15273D01*
X2470Y15245D01*
X3060Y14710D02*
X2863Y14992D01*
X2723Y14710D02*
X2723Y15301D01*
X2948Y15301D01*
X3004Y15273D01*
X3032Y15245D01*
X3060Y15189D01*
X3060Y15104D01*
X3032Y15048D01*
X3004Y15020D01*
X2948Y14992D01*
X2723Y14992D01*
X3426Y15301D02*
X3538Y15301D01*
X3595Y15273D01*
X3651Y15217D01*
X3679Y15104D01*
X3679Y14907D01*
X3651Y14795D01*
X3595Y14739D01*
X3538Y14710D01*
X3426Y14710D01*
X3370Y14739D01*
X3313Y14795D01*
X3285Y14907D01*
X3285Y15104D01*
X3313Y15217D01*
X3370Y15273D01*
X3426Y15301D01*
X3932Y14710D02*
X3932Y15301D01*
X4073Y15301D01*
X4157Y15273D01*
X4213Y15217D01*
X4241Y15160D01*
X4269Y15048D01*
X4269Y14964D01*
X4241Y14851D01*
X4213Y14795D01*
X4157Y14739D01*
X4073Y14710D01*
X3932Y14710D01*
X4523Y14710D02*
X4523Y15301D01*
X4776Y14739D02*
X4860Y14710D01*
X5001Y14710D01*
X5057Y14739D01*
X5085Y14767D01*
X5113Y14823D01*
X5113Y14879D01*
X5085Y14935D01*
X5057Y14964D01*
X5001Y14992D01*
X4888Y15020D01*
X4832Y15048D01*
X4804Y15076D01*
X4776Y15132D01*
X4776Y15189D01*
X4804Y15245D01*
X4832Y15273D01*
X4888Y15301D01*
X5029Y15301D01*
X5113Y15273D01*
X5704Y14767D02*
X5676Y14739D01*
X5591Y14710D01*
X5535Y14710D01*
X5451Y14739D01*
X5394Y14795D01*
X5366Y14851D01*
X5338Y14964D01*
X5338Y15048D01*
X5366Y15160D01*
X5394Y15217D01*
X5451Y15273D01*
X5535Y15301D01*
X5591Y15301D01*
X5676Y15273D01*
X5704Y15245D01*
X6350Y15104D02*
X6491Y14710D01*
X6632Y15104D01*
X6800Y15301D02*
X7166Y15301D01*
X6969Y15076D01*
X7053Y15076D01*
X7110Y15048D01*
X7138Y15020D01*
X7166Y14964D01*
X7166Y14823D01*
X7138Y14767D01*
X7110Y14739D01*
X7053Y14710D01*
X6885Y14710D01*
X6829Y14739D01*
X6800Y14767D01*
X7419Y14767D02*
X7447Y14739D01*
X7419Y14710D01*
X7391Y14739D01*
X7419Y14767D01*
X7419Y14710D01*
X7953Y15104D02*
X7953Y14710D01*
X7813Y15329D02*
X7672Y14907D01*
X8038Y14907D01*
G54D13*
X-3000Y63450D03*
G54D14*
X-3000Y61050D03*
G54D15*
X-4700Y62550D03*
G54D16*
X-6900Y55050D03*
G54D17*
X-7900Y55550D03*
X-7900Y57350D03*
G54D16*
X-6900Y57850D03*
G54D18*
X15500Y19357D03*
G54D19*
X15500Y18042D03*
X14500Y19357D03*
X14500Y18042D03*
X13500Y19357D03*
X13500Y18042D03*
X12500Y19357D03*
X12500Y18042D03*
X11500Y19357D03*
X11500Y18042D03*
X10500Y19357D03*
X10500Y18042D03*
X9500Y19357D03*
X9500Y18042D03*
X8500Y19357D03*
X8500Y18042D03*
X7500Y19357D03*
X7500Y18042D03*
X6500Y19357D03*
X6500Y18042D03*
X5500Y19357D03*
X5500Y18042D03*
X4500Y19357D03*
X4500Y18042D03*
X3500Y19357D03*
X3500Y18042D03*
X2500Y19357D03*
X2500Y18042D03*
X1500Y19357D03*
X1500Y18042D03*
X500Y19357D03*
X500Y18042D03*
X-500Y19357D03*
X-500Y18042D03*
G54D18*
X6750Y61542D03*
G54D19*
X6750Y62857D03*
X7750Y61542D03*
X7750Y62857D03*
X8750Y61542D03*
X8750Y62857D03*
X9750Y61542D03*
X9750Y62857D03*
X10750Y61542D03*
X10750Y62857D03*
X11750Y61542D03*
X11750Y62857D03*
X12750Y61542D03*
X12750Y62857D03*
X13750Y61542D03*
X13750Y62857D03*
X14750Y61542D03*
X14750Y62857D03*
X15750Y61542D03*
X15750Y62857D03*
X16750Y61542D03*
X16750Y62857D03*
X17750Y61542D03*
X17750Y62857D03*
X18750Y61542D03*
X18750Y62857D03*
X19750Y61542D03*
X19750Y62857D03*
X20750Y61542D03*
X20750Y62857D03*
X21750Y61542D03*
X21750Y62857D03*
X22750Y61542D03*
X22750Y62857D03*
G54D20*
X9000Y56700D03*
X9000Y59700D03*
G54D21*
X0Y49950D03*
X-3000Y49950D03*
X-6000Y44450D03*
X-3000Y44450D03*
X0Y51200D03*
X-3000Y51200D03*
G54D20*
X-3000Y52450D03*
X0Y52450D03*
X-3000Y54950D03*
X0Y54950D03*
X-3000Y53700D03*
X0Y53700D03*
X-3000Y56200D03*
X0Y56200D03*
G54D22*
X19500Y42200D03*
G54D23*
X19500Y41121D03*
X18500Y42278D03*
X18500Y41121D03*
X17500Y42278D03*
X17500Y41121D03*
X16500Y42278D03*
X16500Y41121D03*
X15500Y42278D03*
X15500Y41121D03*
X14500Y42278D03*
G54D24*
X13421Y41200D03*
G54D20*
X14500Y41200D03*
G54D24*
X13421Y40200D03*
X14578Y40200D03*
X13421Y39200D03*
X14578Y39200D03*
X13421Y38200D03*
X14578Y38200D03*
X13421Y37200D03*
X14578Y37200D03*
X13421Y36200D03*
X14578Y36200D03*
X13421Y35200D03*
X14578Y35200D03*
X13421Y34200D03*
X14578Y34200D03*
X13421Y33200D03*
X14578Y33200D03*
X13421Y32200D03*
X14578Y32200D03*
X13421Y31200D03*
G54D23*
X14500Y30121D03*
G54D25*
X14500Y31200D03*
G54D23*
X15500Y30121D03*
X15500Y31278D03*
X16500Y30121D03*
X16500Y31278D03*
X17500Y30121D03*
X17500Y31278D03*
X18500Y30121D03*
X18500Y31278D03*
X19500Y30121D03*
X19500Y31278D03*
X20500Y30121D03*
X20500Y31278D03*
X21500Y30121D03*
X21500Y31278D03*
X22500Y30121D03*
X22500Y31278D03*
X23500Y30121D03*
X23500Y31278D03*
X24500Y30121D03*
G54D24*
X25578Y31200D03*
G54D25*
X24500Y31200D03*
G54D24*
X25578Y32200D03*
X24421Y32200D03*
X25578Y33200D03*
X24421Y33200D03*
X25578Y34200D03*
X24421Y34200D03*
X25578Y35200D03*
X24421Y35200D03*
X25578Y36200D03*
X24421Y36200D03*
X25578Y37200D03*
X24421Y37200D03*
X25578Y38200D03*
X24421Y38200D03*
X25578Y39200D03*
X24421Y39200D03*
X25578Y40200D03*
X24421Y40200D03*
X25578Y41200D03*
G54D23*
X24500Y42278D03*
G54D26*
X24500Y41200D03*
G54D23*
X23500Y42278D03*
X23500Y41121D03*
X22500Y42278D03*
X22500Y41121D03*
X21500Y42278D03*
X21500Y41121D03*
X20500Y42278D03*
X20500Y41121D03*
G54D27*
X2750Y51200D03*
G54D28*
X3750Y51200D03*
X4750Y51200D03*
X5750Y51200D03*
X5750Y54200D03*
X4750Y54200D03*
X3750Y54200D03*
X2750Y54200D03*
G54D27*
X8750Y48200D03*
G54D28*
X9750Y48200D03*
X10750Y48200D03*
X11750Y48200D03*
X12750Y48200D03*
X13750Y48200D03*
X14750Y48200D03*
X15750Y48200D03*
X16750Y48200D03*
X17750Y48200D03*
X18750Y48200D03*
X19750Y48200D03*
X20750Y48200D03*
X21750Y48200D03*
X22750Y48200D03*
X23750Y48200D03*
X24750Y48200D03*
X25750Y48200D03*
X26750Y48200D03*
X27750Y48200D03*
X27750Y54200D03*
X26750Y54200D03*
X25750Y54200D03*
X24750Y54200D03*
X23750Y54200D03*
X22750Y54200D03*
X21750Y54200D03*
X20750Y54200D03*
X19750Y54200D03*
X18750Y54200D03*
X17750Y54200D03*
X16750Y54200D03*
X15750Y54200D03*
X14750Y54200D03*
X13750Y54200D03*
X12750Y54200D03*
X11750Y54200D03*
X10750Y54200D03*
X9750Y54200D03*
X8750Y54200D03*
G54D27*
X-7000Y29450D03*
G54D28*
X-6000Y29450D03*
X-5000Y29450D03*
X-4000Y29450D03*
X-3000Y29450D03*
X-2000Y29450D03*
X-1000Y29450D03*
X0Y29450D03*
X1000Y29450D03*
X2000Y29450D03*
X3000Y29450D03*
X4000Y29450D03*
X5000Y29450D03*
X6000Y29450D03*
X6000Y35450D03*
X5000Y35450D03*
X4000Y35450D03*
X3000Y35450D03*
X2000Y35450D03*
X1000Y35450D03*
X0Y35450D03*
X-1000Y35450D03*
X-2000Y35450D03*
X-3000Y35450D03*
X-4000Y35450D03*
X-5000Y35450D03*
X-6000Y35450D03*
X-7000Y35450D03*
G54D27*
X17500Y22700D03*
G54D28*
X18500Y22700D03*
X19500Y22700D03*
X20500Y22700D03*
X21500Y22700D03*
X22500Y22700D03*
X23500Y22700D03*
X24500Y22700D03*
X25500Y22700D03*
X26500Y22700D03*
X26500Y25700D03*
X25500Y25700D03*
X24500Y25700D03*
X23500Y25700D03*
X22500Y25700D03*
X21500Y25700D03*
X20500Y25700D03*
X19500Y25700D03*
X18500Y25700D03*
X17500Y25700D03*
G54D27*
X-7000Y22700D03*
G54D28*
X-6000Y22700D03*
X-5000Y22700D03*
X-4000Y22700D03*
X-3000Y22700D03*
X-2000Y22700D03*
X-1000Y22700D03*
X0Y22700D03*
X1000Y22700D03*
X2000Y22700D03*
X2000Y25700D03*
X1000Y25700D03*
X0Y25700D03*
X-1000Y25700D03*
X-2000Y25700D03*
X-3000Y25700D03*
X-4000Y25700D03*
X-5000Y25700D03*
X-6000Y25700D03*
X-7000Y25700D03*
G54D27*
X5250Y22700D03*
G54D28*
X6250Y22700D03*
X7250Y22700D03*
X8250Y22700D03*
X9250Y22700D03*
X10250Y22700D03*
X11250Y22700D03*
X12250Y22700D03*
X13250Y22700D03*
X14250Y22700D03*
X14250Y25700D03*
X13250Y25700D03*
X12250Y25700D03*
X11250Y25700D03*
X10250Y25700D03*
X9250Y25700D03*
X8250Y25700D03*
X7250Y25700D03*
X6250Y25700D03*
X5250Y25700D03*
G54D27*
X-7000Y38700D03*
G54D28*
X-6000Y38700D03*
X-5000Y38700D03*
X-4000Y38700D03*
X-3000Y38700D03*
X-2000Y38700D03*
X-1000Y38700D03*
X0Y38700D03*
X1000Y38700D03*
X2000Y38700D03*
X2000Y41700D03*
X1000Y41700D03*
X0Y41700D03*
X-1000Y41700D03*
X-2000Y41700D03*
X-3000Y41700D03*
X-4000Y41700D03*
X-5000Y41700D03*
X-6000Y41700D03*
X-7000Y41700D03*
G54D27*
X10750Y56700D03*
G54D28*
X11750Y56700D03*
X12750Y56700D03*
X13750Y56700D03*
X14750Y56700D03*
X15750Y56700D03*
X16750Y56700D03*
X17750Y56700D03*
X17750Y59700D03*
X16750Y59700D03*
X15750Y59700D03*
X14750Y59700D03*
X13750Y59700D03*
X12750Y59700D03*
X11750Y59700D03*
X10750Y59700D03*
G54D27*
X-7000Y45700D03*
G54D28*
X-6000Y45700D03*
X-5000Y45700D03*
X-4000Y45700D03*
X-3000Y45700D03*
X-2000Y45700D03*
X-1000Y45700D03*
X0Y45700D03*
X0Y48700D03*
X-1000Y48700D03*
X-2000Y48700D03*
X-3000Y48700D03*
X-4000Y48700D03*
X-5000Y48700D03*
X-6000Y48700D03*
X-7000Y48700D03*
G54D27*
X21750Y56700D03*
G54D28*
X22750Y56700D03*
X23750Y56700D03*
X24750Y56700D03*
X25750Y56700D03*
X26750Y56700D03*
X27750Y56700D03*
X27750Y59700D03*
X26750Y59700D03*
X25750Y59700D03*
X24750Y59700D03*
X23750Y59700D03*
X22750Y59700D03*
X21750Y59700D03*
G54D21*
X-1000Y44450D03*
X-2000Y44450D03*
X-6000Y49950D03*
X-5000Y49950D03*
G54D29*
X9250Y38200D03*
G54D21*
X6250Y38200D03*
X6250Y44200D03*
X9250Y44200D03*
G54D20*
X7750Y56700D03*
X7750Y59700D03*
G54D30*
X-5500Y58450D03*
G54D31*
X-1500Y58450D03*
G54D32*
X6250Y46950D03*
X2250Y47950D03*
X6250Y48950D03*
G54D33*
X500Y61950D03*
G54D34*
X2500Y61950D03*
G54D35*
X-7500Y63700D03*
X28750Y63700D03*
X28750Y15450D03*
X-7500Y15450D03*
G54D20*
X24750Y17450D03*
X24750Y20450D03*
X26000Y17450D03*
X26000Y20450D03*
X23500Y20450D03*
X23500Y17450D03*
X12000Y37700D03*
X12000Y40700D03*
X6500Y59700D03*
X6500Y56700D03*
G54D36*
X-4750Y52991D03*
X-4750Y54409D03*
G54D37*
X220Y58450D03*
X2780Y58450D03*
G54D38*
X-4167Y19700D03*
X-6333Y19700D03*
G54D39*
X16750Y51200D03*
X7250Y50450D03*
X11000Y44700D03*
X10000Y51200D03*
X13250Y51200D03*
X-1500Y33450D03*
X15250Y23950D03*
X15250Y24950D03*
X28000Y37200D03*
X26250Y55200D03*
X22750Y55200D03*
X26500Y44950D03*
X3500Y39200D03*
X3000Y37700D03*
X22500Y17950D03*
X20500Y17950D03*
X27250Y55700D03*
X22250Y55700D03*
X28000Y43950D03*
X18250Y50700D03*
X18250Y52200D03*
X20500Y49700D03*
X22000Y51950D03*
X14500Y20950D03*
X28000Y34200D03*
X28000Y36200D03*
X4250Y62450D03*
X18250Y18200D03*
X28000Y35200D03*
X10750Y29950D03*
X14750Y26700D03*
X7250Y41700D03*
X16000Y22700D03*
X25500Y44950D03*
X21000Y47200D03*
X22750Y47200D03*
G54D40*
X5550Y58450D03*
X11750Y31450D03*
X-3500Y17700D03*
X27850Y40250D03*
X16750Y43700D03*
X3750Y43450D03*
X11750Y43200D03*
G54D39*
X9250Y50450D03*
X-750Y46950D03*
X29000Y59700D03*
X18250Y20450D03*
X16500Y39450D03*
X23250Y32450D03*
X22750Y36700D03*
X19250Y39450D03*
X22750Y39700D03*
X16500Y34950D03*
X17000Y32700D03*
G54D40*
X10250Y35700D03*
G54D41*
X21500Y44200D02*
X21500Y42200D01*
X15250Y49700D02*
X15250Y48950D01*
G54D42*
X15250Y48950D02*
X15250Y47450D01*
G54D41*
X18500Y44950D02*
X20750Y44950D01*
X20750Y44950D02*
X21500Y44200D01*
X16000Y46700D02*
X16750Y46700D01*
X16750Y46700D02*
X18500Y44950D01*
X15250Y47450D02*
X16000Y46700D01*
X15250Y49700D02*
X16750Y51200D01*
X7250Y50450D02*
X5000Y50450D01*
X4750Y50700D02*
X4750Y51200D01*
X5000Y50450D02*
X4750Y50700D01*
X20500Y43950D02*
X20500Y42200D01*
X11500Y45200D02*
X17500Y45200D01*
X18250Y44450D02*
X17500Y45200D01*
X20500Y43950D02*
X20000Y44450D01*
X20000Y44450D02*
X18250Y44450D01*
X11500Y45200D02*
X11000Y44700D01*
X10000Y51200D02*
X13250Y51200D01*
X11750Y54200D02*
X11750Y54450D01*
X11750Y54450D02*
X11250Y54950D01*
X4750Y54200D02*
X4750Y54450D01*
X4750Y54450D02*
X5250Y54950D01*
X5250Y54950D02*
X11250Y54950D01*
X12750Y48200D02*
X12750Y47450D01*
X12750Y47450D02*
X12250Y46950D01*
X7750Y46950D02*
X6250Y45450D01*
X12250Y46950D02*
X7750Y46950D01*
X1500Y40950D02*
X1500Y39450D01*
X1500Y34700D02*
X1500Y32700D01*
G54D42*
X1500Y42450D02*
X1500Y40950D01*
X1500Y39450D02*
X1500Y34700D01*
G54D41*
X1500Y42450D02*
X4500Y45450D01*
X4500Y45450D02*
X6250Y45450D01*
X2000Y32200D02*
X1500Y32700D01*
X2000Y32200D02*
X2000Y29450D01*
X-4250Y36200D02*
X-250Y36200D01*
X-5500Y30200D02*
X-5500Y33450D01*
X-5500Y23950D02*
X-5500Y24950D01*
X-5000Y22700D02*
X-5000Y23450D01*
X0Y35950D02*
X0Y35450D01*
X-5500Y33450D02*
X-4500Y34450D01*
G54D42*
X-4500Y34700D02*
X-4500Y35950D01*
G54D41*
X-4500Y35950D02*
X-4250Y36200D01*
X-250Y36200D02*
X0Y35950D01*
G54D42*
X-5500Y24950D02*
X-5500Y30200D01*
G54D41*
X-5000Y23450D02*
X-5500Y23950D01*
X-4500Y34450D02*
X-4500Y34700D01*
X-2500Y30200D02*
X-2500Y32450D01*
X-2500Y32450D02*
X-1500Y33450D01*
X-2500Y28700D02*
X-2500Y28450D01*
X-2500Y28450D02*
X-1500Y27450D01*
X-1500Y27450D02*
X250Y27450D01*
X250Y27450D02*
X1000Y26700D01*
X1000Y26700D02*
X1000Y25700D01*
G54D42*
X-2500Y30200D02*
X-2500Y28700D01*
G54D41*
X7250Y22700D02*
X7250Y23450D01*
X7750Y23950D02*
X15250Y23950D01*
X7250Y23450D02*
X7750Y23950D01*
X500Y42450D02*
X4500Y46450D01*
X4500Y46950D02*
X5500Y47950D01*
X4500Y46450D02*
X4500Y46950D01*
X500Y40950D02*
X500Y39450D01*
X500Y32450D02*
X1000Y31950D01*
X1000Y31950D02*
X1000Y29450D01*
G54D42*
X500Y39450D02*
X500Y34700D01*
X500Y42450D02*
X500Y40950D01*
G54D41*
X13750Y49200D02*
X13500Y49450D01*
X8500Y49450D02*
X7000Y47950D01*
X7000Y47950D02*
X5500Y47950D01*
X13750Y48200D02*
X13750Y49200D01*
X13500Y49450D02*
X8500Y49450D01*
X500Y34700D02*
X500Y32450D01*
G54D42*
X-1000Y29200D02*
X-1000Y29450D01*
G54D41*
X15250Y24950D02*
X7500Y24950D01*
X7500Y24950D02*
X7250Y25200D01*
X7250Y25200D02*
X7250Y25700D01*
X-4500Y26450D02*
X-4500Y26700D01*
X-4500Y26700D02*
X-5000Y27200D01*
X-5000Y27200D02*
X-5000Y29450D01*
X-4500Y23450D02*
X-4500Y24950D01*
X1000Y22700D02*
X1000Y21950D01*
X-500Y21700D02*
X-1000Y21200D01*
X750Y21700D02*
X-500Y21700D01*
X1000Y21950D02*
X750Y21700D01*
X-3750Y21200D02*
X-4500Y21950D01*
X-1000Y21200D02*
X-3750Y21200D01*
G54D42*
X-4500Y26450D02*
X-4500Y24950D01*
X-4500Y23450D02*
X-4500Y21950D01*
G54D41*
X-4500Y30200D02*
X-4500Y31950D01*
X-4500Y27450D02*
X-4500Y28700D01*
X-3500Y23450D02*
X-3500Y24950D01*
X-1000Y21950D02*
X-1250Y21700D01*
X-3250Y21700D02*
X-3500Y21950D01*
X-1250Y21700D02*
X-3250Y21700D01*
X-4000Y35450D02*
X-4000Y32450D01*
G54D42*
X-4500Y30200D02*
X-4500Y28700D01*
G54D41*
X-4000Y32450D02*
X-4500Y31950D01*
X-4500Y27450D02*
X-3500Y26450D01*
G54D42*
X-3500Y26450D02*
X-3500Y24950D01*
X-3500Y23450D02*
X-3500Y21950D01*
G54D41*
X-1000Y21950D02*
X-1000Y22700D01*
X-3500Y30200D02*
X-3500Y31200D01*
X-3500Y28700D02*
X-3500Y28450D01*
X-3500Y28450D02*
X-2500Y27450D01*
X-2500Y27450D02*
X-2500Y26450D01*
X-2500Y24200D02*
X-2500Y24950D01*
X-3000Y22700D02*
X-3000Y23700D01*
X-3000Y31700D02*
X-3000Y35450D01*
X-3500Y31200D02*
X-3000Y31700D01*
G54D42*
X-3500Y28700D02*
X-3500Y30200D01*
X-2500Y24950D02*
X-2500Y26450D01*
G54D41*
X-3000Y23700D02*
X-2500Y24200D01*
X14250Y64450D02*
X24500Y64450D01*
X28250Y60700D02*
X29250Y60700D01*
X24500Y64450D02*
X28250Y60700D01*
X29250Y60700D02*
X29750Y60200D01*
X13250Y63450D02*
X14250Y64450D01*
G54D42*
X13250Y60950D02*
X13250Y63450D01*
G54D41*
X29750Y60200D02*
X29750Y54700D01*
X13750Y60450D02*
X13250Y60950D01*
X13750Y59700D02*
X13750Y60450D01*
X29500Y38700D02*
X28000Y37200D01*
X29500Y54450D02*
X29500Y38700D01*
X29750Y54700D02*
X29500Y54450D01*
X26250Y53450D02*
X26250Y51200D01*
X26250Y51200D02*
X27250Y50200D01*
X27250Y47450D02*
X27250Y47200D01*
X27250Y50200D02*
X27250Y48950D01*
G54D42*
X26250Y55200D02*
X26250Y53450D01*
G54D41*
X12750Y57200D02*
X13250Y57700D01*
X13250Y57700D02*
X18500Y57700D01*
X18500Y57700D02*
X21000Y55200D01*
X21000Y55200D02*
X22750Y55200D01*
X12750Y57200D02*
X12750Y56700D01*
X26500Y46450D02*
X27250Y47200D01*
X26500Y44950D02*
X26500Y46450D01*
G54D42*
X27250Y48950D02*
X27250Y47450D01*
G54D41*
X2500Y36200D02*
X2500Y37200D01*
X2500Y37200D02*
X3000Y37700D01*
X13750Y46200D02*
X9250Y46200D01*
X9250Y46200D02*
X7750Y44700D01*
G54D42*
X3750Y27700D02*
X3000Y28450D01*
G54D41*
X2500Y34700D02*
X2500Y33200D01*
G54D42*
X3750Y27700D02*
X19000Y27700D01*
G54D41*
X19500Y27200D02*
X19500Y25700D01*
G54D42*
X19000Y27700D02*
X19500Y27200D01*
G54D41*
X3000Y29450D02*
X3000Y28450D01*
X3500Y41950D02*
X3500Y39200D01*
X14750Y47200D02*
X14750Y48200D01*
X13750Y46200D02*
X14750Y47200D01*
X4250Y42700D02*
X7000Y42700D01*
X7750Y44700D02*
X7750Y43450D01*
X7750Y43450D02*
X7000Y42700D01*
X3500Y41950D02*
X4250Y42700D01*
G54D42*
X2500Y34700D02*
X2500Y36200D01*
G54D41*
X3000Y32700D02*
X2500Y33200D01*
X3000Y29450D02*
X3000Y32700D01*
G54D42*
X4750Y27950D02*
X4000Y28700D01*
X20000Y27950D02*
X20500Y27450D01*
X4750Y27950D02*
X20000Y27950D01*
G54D41*
X20500Y27450D02*
X20500Y25700D01*
X4000Y28700D02*
X4000Y29450D01*
X27500Y23700D02*
X21500Y23700D01*
X21500Y23700D02*
X20500Y24700D01*
X20500Y24700D02*
X20500Y25700D01*
X19250Y47450D02*
X19250Y47200D01*
X15750Y48950D02*
X16500Y49700D01*
X15750Y48200D02*
X15750Y48950D01*
X19250Y47200D02*
X20000Y46450D01*
G54D42*
X19250Y48950D02*
X19250Y47450D01*
G54D41*
X18750Y49700D02*
X19250Y49200D01*
X16500Y49700D02*
X18750Y49700D01*
X19250Y49200D02*
X19250Y48950D01*
X28250Y24450D02*
X28250Y27700D01*
X27500Y23700D02*
X28250Y24450D01*
X27250Y28700D02*
X27250Y42200D01*
X20000Y46450D02*
X23000Y46450D01*
X28250Y27700D02*
X27250Y28700D01*
X27250Y42200D02*
X23000Y46450D01*
G54D42*
X5500Y28200D02*
X21000Y28200D01*
G54D41*
X21500Y27700D02*
X21500Y25700D01*
G54D42*
X21000Y28200D02*
X21500Y27700D01*
G54D41*
X5000Y29450D02*
X5000Y28700D01*
G54D42*
X5000Y28700D02*
X5500Y28200D01*
G54D41*
X27750Y27450D02*
X27750Y24450D01*
X22250Y24200D02*
X21500Y24950D01*
X27500Y24200D02*
X22250Y24200D01*
X27750Y24450D02*
X27500Y24200D01*
X21500Y24950D02*
X21500Y25700D01*
X18250Y47450D02*
X18250Y46950D01*
X26750Y41950D02*
X26750Y28450D01*
X26750Y28450D02*
X27750Y27450D01*
X16750Y48950D02*
X17000Y49200D01*
X18000Y49200D02*
X18250Y48950D01*
X17000Y49200D02*
X18000Y49200D01*
X22750Y45950D02*
X19250Y45950D01*
X19250Y45950D02*
X18250Y46950D01*
G54D42*
X18250Y47450D02*
X18250Y48950D01*
G54D41*
X16750Y48950D02*
X16750Y48200D01*
X22750Y45950D02*
X26750Y41950D01*
G54D42*
X8250Y28450D02*
X7250Y29450D01*
G54D41*
X7250Y31700D02*
X7250Y29450D01*
X6000Y32950D02*
X7250Y31700D01*
X6000Y35450D02*
X6000Y32950D01*
G54D42*
X21500Y28450D02*
X8250Y28450D01*
X21500Y28450D02*
X22500Y27450D01*
G54D41*
X22500Y27450D02*
X22500Y25700D01*
X27250Y27200D02*
X27250Y24950D01*
X23000Y24700D02*
X22500Y25200D01*
X27000Y24700D02*
X23000Y24700D01*
X27250Y24950D02*
X27000Y24700D01*
X22500Y25700D02*
X22500Y25200D01*
X18750Y45450D02*
X17750Y46450D01*
X27250Y27200D02*
X26250Y28200D01*
X26250Y28200D02*
X26250Y41700D01*
X22500Y45450D02*
X26250Y41700D01*
X18750Y45450D02*
X22500Y45450D01*
X17750Y46450D02*
X17750Y48200D01*
G54D42*
X9000Y28700D02*
X8000Y29700D01*
X9000Y28700D02*
X22250Y28700D01*
G54D41*
X23500Y27450D02*
X23500Y25700D01*
G54D42*
X22250Y28700D02*
X23500Y27450D01*
G54D41*
X6750Y36200D02*
X6750Y32950D01*
X6750Y32950D02*
X8000Y31700D01*
X5000Y35450D02*
X5000Y36200D01*
X5000Y36200D02*
X5250Y36450D01*
X6500Y36450D02*
X6750Y36200D01*
X6500Y36450D02*
X5250Y36450D01*
X8000Y31700D02*
X8000Y29700D01*
G54D42*
X9500Y28950D02*
X22750Y28950D01*
G54D41*
X4000Y36450D02*
X4000Y35450D01*
X7250Y33200D02*
X8750Y31700D01*
X7250Y33200D02*
X7250Y36450D01*
G54D42*
X9500Y28950D02*
X8750Y29700D01*
G54D41*
X6750Y36950D02*
X4500Y36950D01*
X4500Y36950D02*
X4000Y36450D01*
X7250Y36450D02*
X6750Y36950D01*
X8750Y31700D02*
X8750Y29700D01*
G54D42*
X22750Y28950D02*
X24500Y27200D01*
G54D41*
X24500Y27200D02*
X24500Y25700D01*
X20500Y17950D02*
X22500Y17950D01*
X9500Y31700D02*
X9500Y29712D01*
G54D42*
X23500Y29200D02*
X10012Y29200D01*
G54D41*
X7750Y38200D02*
X7750Y33450D01*
X3000Y35450D02*
X3000Y36700D01*
X7750Y33450D02*
X9500Y31700D01*
X3000Y36700D02*
X5250Y38950D01*
X5250Y38950D02*
X7000Y38950D01*
X7000Y38950D02*
X7750Y38200D01*
G54D42*
X23500Y29200D02*
X25500Y27200D01*
G54D41*
X25500Y27200D02*
X25500Y25700D01*
G54D42*
X10012Y29200D02*
X9512Y29700D01*
G54D41*
X9500Y29712D02*
X9512Y29700D01*
G54D42*
X10500Y29450D02*
X24000Y29450D01*
G54D41*
X8250Y38700D02*
X7500Y39450D01*
X4750Y39450D02*
X3750Y38450D01*
X7500Y39450D02*
X4750Y39450D01*
G54D42*
X10500Y29450D02*
X10000Y29950D01*
G54D41*
X8250Y33700D02*
X10000Y31950D01*
X8250Y33700D02*
X8250Y38700D01*
X2000Y37450D02*
X3000Y38450D01*
X2000Y35450D02*
X2000Y37450D01*
X3000Y38450D02*
X3750Y38450D01*
X10000Y31950D02*
X10000Y29950D01*
X26500Y26950D02*
X24000Y29450D01*
X26500Y25700D02*
X26500Y26950D01*
G54D42*
X14750Y62700D02*
X15250Y62200D01*
G54D41*
X23750Y61700D02*
X23750Y59700D01*
X23250Y62200D02*
X23750Y61700D01*
G54D42*
X15250Y62200D02*
X23250Y62200D01*
X12000Y40700D02*
X12000Y42200D01*
X16000Y41700D02*
X16500Y41200D01*
X16000Y42700D02*
X16000Y41700D01*
X15500Y43200D02*
X16000Y42700D01*
X13000Y43200D02*
X15500Y43200D01*
X12000Y42200D02*
X13000Y43200D01*
G54D41*
X29000Y44950D02*
X29000Y52700D01*
X28500Y53200D02*
X27500Y53200D01*
X29000Y52700D02*
X28500Y53200D01*
G54D42*
X27250Y55700D02*
X27250Y53450D01*
G54D41*
X27250Y53450D02*
X27500Y53200D01*
X11750Y56700D02*
X11750Y57450D01*
X21250Y55700D02*
X22250Y55700D01*
X18750Y58200D02*
X21250Y55700D01*
X12500Y58200D02*
X18750Y58200D01*
X11750Y57450D02*
X12500Y58200D01*
X28000Y43950D02*
X29000Y44950D01*
X18250Y50700D02*
X18250Y52200D01*
X20500Y49700D02*
X20500Y50950D01*
X20500Y50950D02*
X21500Y51950D01*
X21500Y51950D02*
X22000Y51950D01*
X24750Y20450D02*
X24750Y20200D01*
X24750Y20200D02*
X24250Y19700D01*
X16750Y20950D02*
X18000Y19700D01*
X14500Y20950D02*
X16750Y20950D01*
X18000Y19700D02*
X24250Y19700D01*
X2250Y53200D02*
X12000Y53200D01*
G54D42*
X12250Y53450D02*
X12250Y54750D01*
G54D41*
X12000Y53200D02*
X12250Y53450D01*
G54D42*
X9250Y62200D02*
X9250Y60950D01*
G54D41*
X9750Y62700D02*
X9250Y62200D01*
X4500Y56200D02*
X2000Y56200D01*
X9250Y60950D02*
X8350Y60050D01*
X8350Y60050D02*
X8350Y58050D01*
X8350Y58050D02*
X7950Y57650D01*
X7950Y57650D02*
X5950Y57650D01*
X5950Y57650D02*
X4500Y56200D01*
X2000Y53450D02*
X2000Y56200D01*
X2000Y56200D02*
X0Y56200D01*
X2000Y53450D02*
X2250Y53200D01*
X13750Y54700D02*
X13400Y55050D01*
X12550Y55050D02*
X13400Y55050D01*
X12250Y54750D02*
X12550Y55050D01*
X13750Y54200D02*
X13750Y54700D01*
X13500Y19200D02*
X14000Y18700D01*
X-8000Y36700D02*
X-7500Y37200D01*
X-7500Y37200D02*
X-2000Y37200D01*
X-2000Y37200D02*
X-1000Y38200D01*
X-1000Y38200D02*
X-1000Y38700D01*
X-8000Y18700D02*
X-8000Y36700D01*
X-6000Y17700D02*
X-4750Y16450D01*
X-4750Y16450D02*
X13500Y16450D01*
X-8000Y18700D02*
X-7000Y17700D01*
X-7000Y17700D02*
X-6000Y17700D01*
G54D42*
X14000Y18700D02*
X14000Y16950D01*
G54D41*
X14000Y16950D02*
X13500Y16450D01*
X26000Y20450D02*
X26953Y20450D01*
X26953Y20450D02*
X28750Y22246D01*
X26000Y20450D02*
X26000Y20200D01*
X26000Y20200D02*
X25000Y19200D01*
X13250Y20200D02*
X16500Y20200D01*
G54D42*
X13000Y18700D02*
X13000Y19950D01*
G54D41*
X13000Y19950D02*
X13250Y20200D01*
G54D42*
X12500Y18200D02*
X13000Y18700D01*
G54D41*
X16500Y20200D02*
X17500Y19200D01*
X17500Y19200D02*
X25000Y19200D01*
X28750Y22246D02*
X28750Y33450D01*
X28750Y33450D02*
X28000Y34200D01*
X29750Y21700D02*
X26250Y18200D01*
X26250Y18200D02*
X24250Y18200D01*
X24250Y18200D02*
X23500Y17450D01*
X23500Y17450D02*
X22500Y16450D01*
X17750Y16450D02*
X22500Y16450D01*
X16750Y17450D02*
X17750Y16450D01*
X16750Y18950D02*
X16750Y17450D01*
X16500Y19200D02*
X16750Y18950D01*
X15500Y19200D02*
X16500Y19200D01*
X29750Y21700D02*
X29750Y35650D01*
X29200Y36200D02*
X28000Y36200D01*
X29750Y35650D02*
X29200Y36200D01*
X22250Y58950D02*
X22250Y57950D01*
X22250Y57950D02*
X22750Y57450D01*
X22750Y57450D02*
X22750Y56700D01*
G54D42*
X13750Y62700D02*
X14250Y62200D01*
X22250Y60450D02*
X22250Y58950D01*
G54D41*
X22000Y60700D02*
X22250Y60450D01*
X14500Y60700D02*
X22000Y60700D01*
X14250Y60950D02*
X14500Y60700D01*
G54D42*
X14250Y62200D02*
X14250Y60950D01*
G54D41*
X14500Y19200D02*
X15000Y18700D01*
X-2000Y38200D02*
X-2500Y37700D01*
X-2500Y37700D02*
X-8250Y37700D01*
X-8250Y37700D02*
X-8500Y37450D01*
X-8500Y37450D02*
X-8500Y18450D01*
X-2000Y38700D02*
X-2000Y38200D01*
X-6250Y17200D02*
X-5000Y15950D01*
X-5000Y15950D02*
X14000Y15950D01*
X-8500Y18450D02*
X-7250Y17200D01*
X-7250Y17200D02*
X-6250Y17200D01*
G54D42*
X15000Y18700D02*
X15000Y16950D01*
G54D41*
X15000Y16950D02*
X14000Y15950D01*
X750Y51950D02*
X750Y44200D01*
G54D42*
X-2500Y42450D02*
X-2500Y40950D01*
G54D41*
X-1750Y43200D02*
X-2500Y42450D01*
X-250Y43200D02*
X-1750Y43200D01*
X750Y44200D02*
X-250Y43200D01*
X-2500Y40950D02*
X-2500Y40200D01*
X0Y52450D02*
X-500Y52450D01*
X-500Y52450D02*
X-1000Y52950D01*
X-1000Y52950D02*
X-1000Y56450D01*
X-1000Y56450D02*
X-500Y56950D01*
X-500Y56950D02*
X3750Y56950D01*
X3750Y56950D02*
X4250Y57450D01*
X4250Y57450D02*
X4250Y62450D01*
X0Y52450D02*
X250Y52450D01*
X250Y52450D02*
X750Y51950D01*
X-3000Y39700D02*
X-3000Y38700D01*
X-2500Y40200D02*
X-3000Y39700D01*
X29250Y21950D02*
X26000Y18700D01*
X26000Y18700D02*
X18750Y18700D01*
X18750Y18700D02*
X18250Y18200D01*
X29250Y21950D02*
X29250Y34700D01*
X28750Y35200D02*
X28000Y35200D01*
X29250Y34700D02*
X28750Y35200D01*
X10750Y31950D02*
X10750Y29950D01*
X16000Y22700D02*
X16000Y25450D01*
X16000Y25450D02*
X14750Y26700D01*
X10250Y40450D02*
X10250Y37950D01*
X8750Y33950D02*
X10750Y31950D01*
X10250Y40450D02*
X9000Y41700D01*
X10250Y37950D02*
X8750Y36450D01*
X8750Y36450D02*
X8750Y33950D01*
X9000Y41700D02*
X7250Y41700D01*
X19000Y43950D02*
X19500Y43450D01*
X11750Y44450D02*
X9000Y41700D01*
X19000Y43950D02*
X18000Y43950D01*
X18000Y43950D02*
X17500Y44450D01*
X11750Y44450D02*
X17500Y44450D01*
X19500Y43450D02*
X19500Y42200D01*
X-6500Y30200D02*
X-6500Y34700D01*
G54D42*
X-6500Y25200D02*
X-6500Y30200D01*
X-6500Y34700D02*
X-6500Y36200D01*
G54D41*
X-750Y36700D02*
X0Y37450D01*
X-6000Y36700D02*
X-750Y36700D01*
X-6500Y36200D02*
X-6000Y36700D01*
X-6500Y25200D02*
X-6500Y23450D01*
X0Y38700D02*
X0Y37450D01*
X-5250Y18950D02*
X-5000Y18700D01*
X-3000Y18700D02*
X-1250Y16950D01*
X-5000Y18700D02*
X-3000Y18700D01*
X-5250Y20700D02*
X-5250Y18950D01*
X-1250Y16950D02*
X11750Y16950D01*
X-5250Y20700D02*
X-6500Y21950D01*
G54D42*
X12500Y19200D02*
X12000Y18700D01*
X12000Y18700D02*
X12000Y17200D01*
G54D41*
X12000Y17200D02*
X11750Y16950D01*
G54D42*
X-6500Y23450D02*
X-6500Y21950D01*
G54D41*
X10750Y62700D02*
X10250Y62200D01*
G54D42*
X10250Y62200D02*
X10250Y60950D01*
G54D41*
X10250Y60950D02*
X9750Y60450D01*
X9750Y60450D02*
X9750Y56200D01*
X9750Y56200D02*
X10000Y55950D01*
X10000Y55950D02*
X16500Y55950D01*
X16500Y55950D02*
X16750Y56200D01*
X16750Y56200D02*
X16750Y56700D01*
X25750Y55700D02*
X26000Y55700D01*
G54D42*
X26250Y55950D02*
X26250Y57450D01*
G54D41*
X26000Y55700D02*
X26250Y55950D01*
X26250Y58450D02*
X26250Y57450D01*
X25250Y54950D02*
X25250Y55200D01*
X25250Y53450D02*
X25250Y51200D01*
X26250Y50200D02*
X26250Y48950D01*
X26250Y47450D02*
X26250Y47200D01*
X25250Y55200D02*
X25750Y55700D01*
X26750Y59700D02*
X26750Y58950D01*
X26750Y58950D02*
X26250Y58450D01*
X26250Y47200D02*
X25500Y46450D01*
X25500Y46450D02*
X25500Y44950D01*
G54D42*
X26250Y48950D02*
X26250Y47450D01*
X25250Y54950D02*
X25250Y53450D01*
G54D41*
X25250Y51200D02*
X26250Y50200D01*
X25000Y47200D02*
X22750Y47200D01*
X25250Y57450D02*
X25250Y58450D01*
X24250Y53450D02*
X24250Y50950D01*
X25250Y49950D02*
X25250Y48950D01*
X24250Y54950D02*
X25250Y55950D01*
X24750Y58950D02*
X25250Y58450D01*
X24750Y59700D02*
X24750Y58950D01*
G54D42*
X25250Y48950D02*
X25250Y47450D01*
X25250Y57450D02*
X25250Y55950D01*
G54D41*
X25250Y47450D02*
X25000Y47200D01*
G54D42*
X24250Y54950D02*
X24250Y53450D01*
G54D41*
X24250Y50950D02*
X25250Y49950D01*
X21000Y47200D02*
X22750Y47200D01*
X22750Y47200D02*
X22750Y48200D01*
X14000Y52200D02*
X1500Y52200D01*
X14000Y52200D02*
X14750Y52950D01*
X14750Y52950D02*
X14750Y54200D01*
X500Y53700D02*
X1000Y53200D01*
X1000Y53200D02*
X1000Y52700D01*
X1000Y52700D02*
X1500Y52200D01*
X0Y53700D02*
X500Y53700D01*
X27250Y58950D02*
X27250Y58450D01*
X27250Y58450D02*
X26750Y57950D01*
X26750Y57950D02*
X26750Y56700D01*
X27250Y60950D02*
X27250Y60450D01*
X17150Y64050D02*
X24150Y64050D01*
G54D42*
X27250Y60450D02*
X27250Y58950D01*
G54D41*
X24150Y64050D02*
X27250Y60950D01*
X16750Y63650D02*
X16750Y62700D01*
X17150Y64050D02*
X16750Y63650D01*
X24250Y63200D02*
X24250Y60450D01*
X24250Y58950D02*
X24250Y58450D01*
G54D42*
X24250Y58950D02*
X24250Y60450D01*
G54D41*
X24750Y57950D02*
X24750Y56700D01*
X24250Y58450D02*
X24750Y57950D01*
X17750Y63450D02*
X17750Y62700D01*
X18000Y63700D02*
X17750Y63450D01*
X23750Y63700D02*
X18000Y63700D01*
X24250Y63200D02*
X23750Y63700D01*
X1750Y52650D02*
X12450Y52650D01*
X12750Y52950D02*
X12750Y54200D01*
X1500Y52900D02*
X1750Y52650D01*
X12450Y52650D02*
X12750Y52950D01*
X1500Y53950D02*
X1500Y52900D01*
X500Y54950D02*
X1500Y53950D01*
X0Y54950D02*
X500Y54950D01*
G54D43*
X17750Y61700D02*
X18750Y61700D01*
X20750Y61700D02*
X19750Y61700D01*
X21750Y61700D02*
X20750Y61700D01*
X22750Y61700D02*
X21750Y61700D01*
X14750Y61700D02*
X15750Y61700D01*
X12750Y61700D02*
X11750Y61700D01*
X7750Y61700D02*
X8750Y61700D01*
X6750Y61700D02*
X7750Y61700D01*
X10750Y61700D02*
X11750Y61700D01*
X19750Y61700D02*
X18750Y61700D01*
X17750Y61700D02*
X16750Y61700D01*
X16750Y61700D02*
X15750Y61700D01*
X6750Y61700D02*
X5750Y61700D01*
X5750Y61700D02*
X5550Y61500D01*
X5550Y61500D02*
X5550Y58450D01*
X11750Y43200D02*
X11750Y42950D01*
X11750Y32700D02*
X11750Y31450D01*
X9500Y34950D02*
X11750Y32700D01*
X9500Y36200D02*
X9500Y34950D01*
X11000Y37700D02*
X9500Y36200D01*
X11000Y42200D02*
X11000Y37700D01*
X11750Y42950D02*
X11000Y42200D01*
X-6333Y19033D02*
X-6333Y19700D01*
X-5000Y17700D02*
X-6333Y19033D01*
X-3500Y17700D02*
X-5000Y17700D01*
X500Y63200D02*
X500Y61950D01*
X1250Y63950D02*
X500Y63200D01*
X4250Y63950D02*
X1250Y63950D01*
X5500Y62700D02*
X4250Y63950D01*
X5500Y61950D02*
X5500Y62700D01*
X5750Y61700D02*
X5500Y61950D01*
X500Y61950D02*
X500Y60950D01*
X500Y60950D02*
X1250Y60200D01*
X1250Y60200D02*
X2250Y60200D01*
X2250Y60200D02*
X2780Y59670D01*
X2780Y59670D02*
X2780Y58450D01*
X14250Y21700D02*
X14250Y22700D01*
X26250Y21700D02*
X14250Y21700D01*
X14250Y21700D02*
X5500Y21700D01*
X26500Y21950D02*
X26500Y22700D01*
X26250Y21700D02*
X26500Y21950D01*
X5500Y21700D02*
X5250Y21950D01*
X5250Y21950D02*
X5250Y22700D01*
X12750Y61700D02*
X12750Y59700D01*
X-7000Y22700D02*
X-7000Y20367D01*
X-7000Y20367D02*
X-6333Y19700D01*
X27750Y45350D02*
X27750Y48200D01*
X27250Y44850D02*
X27750Y45350D01*
X27250Y43450D02*
X27250Y44850D01*
X27850Y42850D02*
X27250Y43450D01*
X27850Y40250D02*
X27850Y42850D01*
X2000Y38700D02*
X2000Y38950D01*
X2000Y38950D02*
X2750Y39700D01*
X12250Y43700D02*
X16750Y43700D01*
X11750Y43200D02*
X12250Y43700D01*
X2750Y42450D02*
X3750Y43450D01*
X2750Y39700D02*
X2750Y42450D01*
G54D41*
X1250Y50700D02*
X1250Y43950D01*
X0Y42700D02*
X-1250Y42700D01*
X1250Y43950D02*
X0Y42700D01*
X1750Y51200D02*
X2750Y51200D01*
X1250Y50700D02*
X1750Y51200D01*
X-2000Y41950D02*
X-2000Y41700D01*
X-1250Y42700D02*
X-2000Y41950D01*
G54D42*
X-5500Y42450D02*
X-5500Y40950D01*
G54D41*
X-5000Y38700D02*
X-5000Y39700D01*
X-5000Y39700D02*
X-5500Y40200D01*
X-5500Y40950D02*
X-5500Y40200D01*
X-8000Y43950D02*
X-8000Y49700D01*
X-8000Y49700D02*
X-6500Y51200D01*
X-6500Y51200D02*
X-4750Y51200D01*
X-8000Y43950D02*
X-7500Y43450D01*
X-7500Y43450D02*
X-6250Y43450D01*
X-6250Y43450D02*
X-5500Y42700D01*
X-5500Y42700D02*
X-5500Y42450D01*
X-7900Y55550D02*
X-7900Y55800D01*
X-5041Y52991D02*
X-4750Y52991D01*
X-5750Y53700D02*
X-5041Y52991D01*
X-5750Y55950D02*
X-5750Y53700D01*
X-6250Y56450D02*
X-5750Y55950D01*
X-7250Y56450D02*
X-6250Y56450D01*
X-7900Y55800D02*
X-7250Y56450D01*
X-4750Y52991D02*
X-4750Y51200D01*
X-4750Y51200D02*
X-3000Y51200D01*
G54D42*
X17250Y54950D02*
X17250Y53450D01*
G54D41*
X17500Y53200D02*
X21250Y53200D01*
X17250Y53450D02*
X17500Y53200D01*
X16975Y55475D02*
X4525Y55475D01*
X17250Y55200D02*
X17250Y54950D01*
X21750Y53700D02*
X21250Y53200D01*
X21750Y53700D02*
X21750Y54200D01*
X3750Y54700D02*
X4525Y55475D01*
X3750Y54200D02*
X3750Y54700D01*
X16975Y55475D02*
X17250Y55200D01*
X22000Y52700D02*
X15500Y52700D01*
X9250Y50450D02*
X13750Y50450D01*
X22750Y53450D02*
X22000Y52700D01*
X14250Y50950D02*
X13750Y50450D01*
X22750Y54200D02*
X22750Y53450D01*
X15500Y52700D02*
X14250Y51450D01*
X14250Y51450D02*
X14250Y50950D01*
X23250Y54950D02*
X23250Y55950D01*
X23250Y57950D02*
X23250Y57450D01*
G54D42*
X23250Y57450D02*
X23250Y55950D01*
G54D41*
X22750Y58450D02*
X23250Y57950D01*
X22750Y59700D02*
X22750Y58450D01*
X23250Y53450D02*
X23250Y50700D01*
G54D42*
X23250Y54950D02*
X23250Y53450D01*
G54D41*
X23250Y50700D02*
X23750Y50200D01*
X23750Y50200D02*
X23750Y48200D01*
X-6000Y48700D02*
X-6000Y47450D01*
X-5500Y46950D02*
X-750Y46950D01*
X-6000Y47450D02*
X-5500Y46950D01*
G54D43*
X250Y21200D02*
X3250Y21200D01*
X4250Y24700D02*
X5250Y25700D01*
X4250Y22200D02*
X4250Y24700D01*
X3250Y21200D02*
X4250Y22200D01*
X29000Y55450D02*
X27750Y54200D01*
X29000Y59700D02*
X29000Y55450D01*
G54D41*
X23500Y20450D02*
X18250Y20450D01*
G54D43*
X-6000Y38700D02*
X-6000Y39450D01*
X-7000Y40450D02*
X-7000Y41700D01*
X-6000Y39450D02*
X-7000Y40450D01*
G54D44*
X-1500Y58450D02*
X220Y58450D01*
G54D43*
X-500Y19200D02*
X-500Y20450D01*
X-500Y20450D02*
X250Y21200D01*
G54D44*
X-4167Y19700D02*
X-1955Y19700D01*
X-1455Y19200D02*
X-500Y19200D01*
X-1955Y19700D02*
X-1455Y19200D01*
G54D41*
X12500Y39700D02*
X12000Y39200D01*
X12000Y39200D02*
X12000Y37700D01*
X10750Y35700D02*
X12000Y36950D01*
X12000Y36950D02*
X12000Y37700D01*
G54D42*
X12750Y34700D02*
X16000Y34700D01*
X16250Y34950D02*
X16500Y34950D01*
X16000Y34700D02*
X16250Y34950D01*
G54D41*
X11750Y34700D02*
X12750Y34700D01*
X12500Y39700D02*
X12750Y39700D01*
X11750Y34700D02*
X10750Y35700D01*
G54D42*
X10750Y35700D02*
X10250Y35700D01*
X12750Y39700D02*
X16250Y39700D01*
X16250Y39700D02*
X16500Y39450D01*
X21500Y35450D02*
X22750Y36700D01*
X21500Y34200D02*
X21500Y35450D01*
X23250Y32450D02*
X21500Y34200D01*
G54D41*
X16500Y39450D02*
X19250Y39450D01*
X22250Y37200D02*
X22250Y37950D01*
X22750Y36700D02*
X22250Y37200D01*
X20750Y37950D02*
X19250Y39450D01*
X22250Y37950D02*
X20750Y37950D01*
X22750Y38450D02*
X22250Y37950D01*
X22750Y39700D02*
X22750Y38450D01*
X17000Y32700D02*
X17000Y34450D01*
X17000Y34450D02*
X16500Y34950D01*
G54D43*
X10750Y59700D02*
X10750Y59200D01*
X20250Y59700D02*
X21750Y59700D01*
X19250Y58700D02*
X20250Y59700D01*
X11250Y58700D02*
X19250Y58700D01*
X10750Y59200D02*
X11250Y58700D01*
G54D10*
G36*
X23450Y32250D02*
X15550Y32250D01*
X15550Y40150D01*
X23450Y40150D01*
X23450Y32250D01*
X23450Y32250D01*
G37*
G54D45*
X23450Y32250D02*
X15550Y32250D01*
X15550Y40150D01*
X23450Y40150D01*
X23450Y32250D01*
G54D10*
G36*
X-5348Y23281D02*
X-5395Y23249D01*
X-5500Y23094D01*
X-5604Y23249D01*
X-5785Y23371D01*
X-6000Y23413D01*
X-6165Y23380D01*
X-6151Y23450D01*
X-6151Y25020D01*
X-6136Y25016D01*
X-6050Y25065D01*
X-6050Y25650D01*
X-6057Y25650D01*
X-6057Y25750D01*
X-6050Y25750D01*
X-6050Y26334D01*
X-6136Y26383D01*
X-6168Y26376D01*
X-6181Y26369D01*
X-6181Y28772D01*
X-6000Y28736D01*
X-5818Y28772D01*
X-5818Y26369D01*
X-5831Y26376D01*
X-5863Y26383D01*
X-5950Y26334D01*
X-5950Y25750D01*
X-5942Y25750D01*
X-5942Y25650D01*
X-5950Y25650D01*
X-5950Y25065D01*
X-5863Y25016D01*
X-5833Y25023D01*
X-5848Y24950D01*
X-5848Y23950D01*
X-5848Y23950D01*
X-5826Y23838D01*
X-5821Y23816D01*
X-5746Y23703D01*
X-5348Y23305D01*
X-5348Y23281D01*
X-5348Y23281D01*
G37*
G54D45*
X-5348Y23281D02*
X-5395Y23249D01*
X-5500Y23094D01*
X-5604Y23249D01*
X-5785Y23371D01*
X-6000Y23413D01*
X-6165Y23380D01*
X-6151Y23450D01*
X-6151Y25020D01*
X-6136Y25016D01*
X-6050Y25065D01*
X-6050Y25650D01*
X-6057Y25650D01*
X-6057Y25750D01*
X-6050Y25750D01*
X-6050Y26334D01*
X-6136Y26383D01*
X-6168Y26376D01*
X-6181Y26369D01*
X-6181Y28772D01*
X-6000Y28736D01*
X-5818Y28772D01*
X-5818Y26369D01*
X-5831Y26376D01*
X-5863Y26383D01*
X-5950Y26334D01*
X-5950Y25750D01*
X-5942Y25750D01*
X-5942Y25650D01*
X-5950Y25650D01*
X-5950Y25065D01*
X-5863Y25016D01*
X-5833Y25023D01*
X-5848Y24950D01*
X-5848Y23950D01*
X-5848Y23950D01*
X-5826Y23838D01*
X-5821Y23816D01*
X-5746Y23703D01*
X-5348Y23305D01*
X-5348Y23281D01*
G54D10*
G36*
X-1591Y16798D02*
X-4605Y16798D01*
X-5753Y17946D01*
X-5866Y18021D01*
X-5888Y18026D01*
X-6000Y18048D01*
X-6000Y18048D01*
X-6383Y18048D01*
X-6383Y19197D01*
X-6383Y19650D01*
X-6383Y19750D01*
X-6383Y20202D01*
X-6445Y20265D01*
X-7050Y20265D01*
X-7050Y22062D01*
X-7050Y22650D01*
X-7050Y22750D01*
X-7050Y23337D01*
X-7112Y23400D01*
X-7359Y23400D01*
X-7451Y23362D01*
X-7521Y23291D01*
X-7559Y23199D01*
X-7560Y23100D01*
X-7560Y22812D01*
X-7497Y22750D01*
X-7050Y22750D01*
X-7050Y22650D01*
X-7497Y22650D01*
X-7560Y22587D01*
X-7560Y22299D01*
X-7559Y22200D01*
X-7521Y22108D01*
X-7451Y22037D01*
X-7359Y21999D01*
X-7112Y22000D01*
X-7050Y22062D01*
X-7050Y20265D01*
X-7091Y20265D01*
X-7182Y20227D01*
X-7253Y20156D01*
X-7291Y20064D01*
X-7291Y19965D01*
X-7291Y19812D01*
X-7229Y19750D01*
X-6383Y19750D01*
X-6383Y19650D01*
X-7229Y19650D01*
X-7291Y19587D01*
X-7291Y19434D01*
X-7291Y19335D01*
X-7253Y19243D01*
X-7182Y19172D01*
X-7091Y19134D01*
X-6445Y19135D01*
X-6383Y19197D01*
X-6383Y18048D01*
X-6855Y18048D01*
X-7651Y18844D01*
X-7651Y36555D01*
X-7355Y36851D01*
X-6341Y36851D01*
X-6746Y36446D01*
X-6821Y36333D01*
X-6848Y36200D01*
X-6834Y36130D01*
X-7000Y36163D01*
X-7214Y36121D01*
X-7395Y35999D01*
X-7517Y35818D01*
X-7560Y35603D01*
X-7560Y35296D01*
X-7517Y35081D01*
X-7395Y34900D01*
X-7214Y34778D01*
X-7000Y34736D01*
X-6834Y34769D01*
X-6848Y34700D01*
X-6848Y30200D01*
X-6838Y30150D01*
X-7359Y30150D01*
X-7451Y30112D01*
X-7521Y30041D01*
X-7559Y29949D01*
X-7560Y29850D01*
X-7560Y28950D01*
X-7522Y28858D01*
X-7451Y28788D01*
X-7359Y28750D01*
X-7260Y28749D01*
X-6818Y28749D01*
X-6818Y26377D01*
X-7000Y26413D01*
X-7214Y26371D01*
X-7395Y26249D01*
X-7517Y26068D01*
X-7560Y25853D01*
X-7560Y25546D01*
X-7517Y25331D01*
X-7395Y25150D01*
X-7214Y25028D01*
X-7000Y24986D01*
X-6848Y25016D01*
X-6848Y23450D01*
X-6838Y23400D01*
X-6887Y23400D01*
X-6950Y23337D01*
X-6950Y22750D01*
X-6942Y22750D01*
X-6942Y22650D01*
X-6950Y22650D01*
X-6950Y22062D01*
X-6887Y22000D01*
X-6838Y21999D01*
X-6848Y21950D01*
X-6821Y21816D01*
X-6746Y21703D01*
X-5598Y20555D01*
X-5598Y20265D01*
X-6220Y20265D01*
X-6283Y20202D01*
X-6283Y19750D01*
X-6275Y19750D01*
X-6275Y19650D01*
X-6283Y19650D01*
X-6283Y19197D01*
X-6220Y19135D01*
X-5598Y19134D01*
X-5598Y18950D01*
X-5598Y18950D01*
X-5576Y18838D01*
X-5571Y18816D01*
X-5496Y18703D01*
X-5246Y18453D01*
X-5246Y18453D01*
X-5133Y18378D01*
X-5000Y18351D01*
X-3144Y18351D01*
X-1591Y16798D01*
X-1591Y16798D01*
G37*
G54D45*
X-1591Y16798D02*
X-4605Y16798D01*
X-5753Y17946D01*
X-5866Y18021D01*
X-5888Y18026D01*
X-6000Y18048D01*
X-6000Y18048D01*
X-6383Y18048D01*
X-6383Y19197D01*
X-6383Y19650D01*
X-6383Y19750D01*
X-6383Y20202D01*
X-6445Y20265D01*
X-7050Y20265D01*
X-7050Y22062D01*
X-7050Y22650D01*
X-7050Y22750D01*
X-7050Y23337D01*
X-7112Y23400D01*
X-7359Y23400D01*
X-7451Y23362D01*
X-7521Y23291D01*
X-7559Y23199D01*
X-7560Y23100D01*
X-7560Y22812D01*
X-7497Y22750D01*
X-7050Y22750D01*
X-7050Y22650D01*
X-7497Y22650D01*
X-7560Y22587D01*
X-7560Y22299D01*
X-7559Y22200D01*
X-7521Y22108D01*
X-7451Y22037D01*
X-7359Y21999D01*
X-7112Y22000D01*
X-7050Y22062D01*
X-7050Y20265D01*
X-7091Y20265D01*
X-7182Y20227D01*
X-7253Y20156D01*
X-7291Y20064D01*
X-7291Y19965D01*
X-7291Y19812D01*
X-7229Y19750D01*
X-6383Y19750D01*
X-6383Y19650D01*
X-7229Y19650D01*
X-7291Y19587D01*
X-7291Y19434D01*
X-7291Y19335D01*
X-7253Y19243D01*
X-7182Y19172D01*
X-7091Y19134D01*
X-6445Y19135D01*
X-6383Y19197D01*
X-6383Y18048D01*
X-6855Y18048D01*
X-7651Y18844D01*
X-7651Y36555D01*
X-7355Y36851D01*
X-6341Y36851D01*
X-6746Y36446D01*
X-6821Y36333D01*
X-6848Y36200D01*
X-6834Y36130D01*
X-7000Y36163D01*
X-7214Y36121D01*
X-7395Y35999D01*
X-7517Y35818D01*
X-7560Y35603D01*
X-7560Y35296D01*
X-7517Y35081D01*
X-7395Y34900D01*
X-7214Y34778D01*
X-7000Y34736D01*
X-6834Y34769D01*
X-6848Y34700D01*
X-6848Y30200D01*
X-6838Y30150D01*
X-7359Y30150D01*
X-7451Y30112D01*
X-7521Y30041D01*
X-7559Y29949D01*
X-7560Y29850D01*
X-7560Y28950D01*
X-7522Y28858D01*
X-7451Y28788D01*
X-7359Y28750D01*
X-7260Y28749D01*
X-6818Y28749D01*
X-6818Y26377D01*
X-7000Y26413D01*
X-7214Y26371D01*
X-7395Y26249D01*
X-7517Y26068D01*
X-7560Y25853D01*
X-7560Y25546D01*
X-7517Y25331D01*
X-7395Y25150D01*
X-7214Y25028D01*
X-7000Y24986D01*
X-6848Y25016D01*
X-6848Y23450D01*
X-6838Y23400D01*
X-6887Y23400D01*
X-6950Y23337D01*
X-6950Y22750D01*
X-6942Y22750D01*
X-6942Y22650D01*
X-6950Y22650D01*
X-6950Y22062D01*
X-6887Y22000D01*
X-6838Y21999D01*
X-6848Y21950D01*
X-6821Y21816D01*
X-6746Y21703D01*
X-5598Y20555D01*
X-5598Y20265D01*
X-6220Y20265D01*
X-6283Y20202D01*
X-6283Y19750D01*
X-6275Y19750D01*
X-6275Y19650D01*
X-6283Y19650D01*
X-6283Y19197D01*
X-6220Y19135D01*
X-5598Y19134D01*
X-5598Y18950D01*
X-5598Y18950D01*
X-5576Y18838D01*
X-5571Y18816D01*
X-5496Y18703D01*
X-5246Y18453D01*
X-5246Y18453D01*
X-5133Y18378D01*
X-5000Y18351D01*
X-3144Y18351D01*
X-1591Y16798D01*
G54D10*
G36*
X1181Y36127D02*
X1000Y36163D01*
X818Y36127D01*
X818Y38030D01*
X831Y38023D01*
X863Y38016D01*
X950Y38065D01*
X950Y38650D01*
X942Y38650D01*
X942Y38750D01*
X950Y38750D01*
X950Y39334D01*
X863Y39383D01*
X833Y39376D01*
X848Y39450D01*
X848Y40950D01*
X834Y41019D01*
X1000Y40986D01*
X1165Y41019D01*
X1151Y40950D01*
X1151Y39450D01*
X1166Y39376D01*
X1136Y39383D01*
X1050Y39334D01*
X1050Y38750D01*
X1057Y38750D01*
X1057Y38650D01*
X1050Y38650D01*
X1050Y38065D01*
X1136Y38016D01*
X1168Y38023D01*
X1181Y38030D01*
X1181Y36127D01*
X1181Y36127D01*
G37*
G54D45*
X1181Y36127D02*
X1000Y36163D01*
X818Y36127D01*
X818Y38030D01*
X831Y38023D01*
X863Y38016D01*
X950Y38065D01*
X950Y38650D01*
X942Y38650D01*
X942Y38750D01*
X950Y38750D01*
X950Y39334D01*
X863Y39383D01*
X833Y39376D01*
X848Y39450D01*
X848Y40950D01*
X834Y41019D01*
X1000Y40986D01*
X1165Y41019D01*
X1151Y40950D01*
X1151Y39450D01*
X1166Y39376D01*
X1136Y39383D01*
X1050Y39334D01*
X1050Y38750D01*
X1057Y38750D01*
X1057Y38650D01*
X1050Y38650D01*
X1050Y38065D01*
X1136Y38016D01*
X1168Y38023D01*
X1181Y38030D01*
X1181Y36127D01*
G54D10*
G36*
X7730Y28518D02*
X6560Y28518D01*
X6560Y29260D01*
X6560Y29400D01*
X6560Y29500D01*
X6560Y29640D01*
X6498Y29850D01*
X6360Y30021D01*
X6168Y30126D01*
X6136Y30133D01*
X6050Y30084D01*
X6050Y29500D01*
X6560Y29500D01*
X6560Y29400D01*
X6050Y29400D01*
X6050Y28815D01*
X6136Y28766D01*
X6168Y28773D01*
X6360Y28878D01*
X6498Y29049D01*
X6560Y29260D01*
X6560Y28518D01*
X5632Y28518D01*
X5348Y28802D01*
X5348Y28868D01*
X5395Y28900D01*
X5499Y29055D01*
X5501Y29049D01*
X5639Y28878D01*
X5831Y28773D01*
X5863Y28766D01*
X5950Y28815D01*
X5950Y29400D01*
X5942Y29400D01*
X5942Y29500D01*
X5950Y29500D01*
X5950Y30084D01*
X5863Y30133D01*
X5831Y30126D01*
X5639Y30021D01*
X5501Y29850D01*
X5499Y29844D01*
X5395Y29999D01*
X5214Y30121D01*
X5000Y30163D01*
X4785Y30121D01*
X4604Y29999D01*
X4500Y29844D01*
X4395Y29999D01*
X4214Y30121D01*
X4000Y30163D01*
X3785Y30121D01*
X3604Y29999D01*
X3500Y29844D01*
X3395Y29999D01*
X3348Y30031D01*
X3348Y32699D01*
X3348Y32700D01*
X3348Y32700D01*
X3321Y32833D01*
X3246Y32946D01*
X3246Y32946D01*
X2848Y33344D01*
X2848Y34700D01*
X2834Y34769D01*
X3000Y34736D01*
X3214Y34778D01*
X3395Y34900D01*
X3500Y35055D01*
X3604Y34900D01*
X3785Y34778D01*
X4000Y34736D01*
X4214Y34778D01*
X4395Y34900D01*
X4500Y35055D01*
X4604Y34900D01*
X4785Y34778D01*
X5000Y34736D01*
X5214Y34778D01*
X5395Y34900D01*
X5500Y35055D01*
X5604Y34900D01*
X5651Y34868D01*
X5651Y32950D01*
X5651Y32950D01*
X5673Y32838D01*
X5678Y32816D01*
X5753Y32703D01*
X6901Y31555D01*
X6901Y29450D01*
X6928Y29316D01*
X7003Y29203D01*
X7116Y29128D01*
X7121Y29127D01*
X7730Y28518D01*
X7730Y28518D01*
G37*
G54D45*
X7730Y28518D02*
X6560Y28518D01*
X6560Y29260D01*
X6560Y29400D01*
X6560Y29500D01*
X6560Y29640D01*
X6498Y29850D01*
X6360Y30021D01*
X6168Y30126D01*
X6136Y30133D01*
X6050Y30084D01*
X6050Y29500D01*
X6560Y29500D01*
X6560Y29400D01*
X6050Y29400D01*
X6050Y28815D01*
X6136Y28766D01*
X6168Y28773D01*
X6360Y28878D01*
X6498Y29049D01*
X6560Y29260D01*
X6560Y28518D01*
X5632Y28518D01*
X5348Y28802D01*
X5348Y28868D01*
X5395Y28900D01*
X5499Y29055D01*
X5501Y29049D01*
X5639Y28878D01*
X5831Y28773D01*
X5863Y28766D01*
X5950Y28815D01*
X5950Y29400D01*
X5942Y29400D01*
X5942Y29500D01*
X5950Y29500D01*
X5950Y30084D01*
X5863Y30133D01*
X5831Y30126D01*
X5639Y30021D01*
X5501Y29850D01*
X5499Y29844D01*
X5395Y29999D01*
X5214Y30121D01*
X5000Y30163D01*
X4785Y30121D01*
X4604Y29999D01*
X4500Y29844D01*
X4395Y29999D01*
X4214Y30121D01*
X4000Y30163D01*
X3785Y30121D01*
X3604Y29999D01*
X3500Y29844D01*
X3395Y29999D01*
X3348Y30031D01*
X3348Y32699D01*
X3348Y32700D01*
X3348Y32700D01*
X3321Y32833D01*
X3246Y32946D01*
X3246Y32946D01*
X2848Y33344D01*
X2848Y34700D01*
X2834Y34769D01*
X3000Y34736D01*
X3214Y34778D01*
X3395Y34900D01*
X3500Y35055D01*
X3604Y34900D01*
X3785Y34778D01*
X4000Y34736D01*
X4214Y34778D01*
X4395Y34900D01*
X4500Y35055D01*
X4604Y34900D01*
X4785Y34778D01*
X5000Y34736D01*
X5214Y34778D01*
X5395Y34900D01*
X5500Y35055D01*
X5604Y34900D01*
X5651Y34868D01*
X5651Y32950D01*
X5651Y32950D01*
X5673Y32838D01*
X5678Y32816D01*
X5753Y32703D01*
X6901Y31555D01*
X6901Y29450D01*
X6928Y29316D01*
X7003Y29203D01*
X7116Y29128D01*
X7121Y29127D01*
X7730Y28518D01*
G54D10*
G36*
X13401Y60281D02*
X13354Y60249D01*
X13250Y60094D01*
X13248Y60100D01*
X13110Y60271D01*
X12918Y60376D01*
X12886Y60383D01*
X12800Y60334D01*
X12800Y59750D01*
X12807Y59750D01*
X12807Y59650D01*
X12800Y59650D01*
X12800Y59642D01*
X12700Y59642D01*
X12700Y59650D01*
X12692Y59650D01*
X12692Y59750D01*
X12700Y59750D01*
X12700Y60334D01*
X12700Y60904D01*
X12700Y61492D01*
X12314Y61492D01*
X12185Y61492D01*
X11800Y61492D01*
X11800Y60904D01*
X11887Y60856D01*
X11920Y60863D01*
X12114Y60969D01*
X12250Y61138D01*
X12385Y60969D01*
X12579Y60863D01*
X12612Y60856D01*
X12700Y60904D01*
X12700Y60334D01*
X12613Y60383D01*
X12581Y60376D01*
X12389Y60271D01*
X12251Y60100D01*
X12249Y60094D01*
X12145Y60249D01*
X11964Y60371D01*
X11750Y60413D01*
X11700Y60403D01*
X11700Y60904D01*
X11700Y61492D01*
X11314Y61492D01*
X11185Y61492D01*
X10800Y61492D01*
X10800Y60904D01*
X10887Y60856D01*
X10920Y60863D01*
X11114Y60969D01*
X11250Y61138D01*
X11385Y60969D01*
X11579Y60863D01*
X11612Y60856D01*
X11700Y60904D01*
X11700Y60403D01*
X11535Y60371D01*
X11354Y60249D01*
X11250Y60094D01*
X11145Y60249D01*
X10964Y60371D01*
X10750Y60413D01*
X10535Y60371D01*
X10354Y60249D01*
X10232Y60068D01*
X10190Y59853D01*
X10190Y59546D01*
X10232Y59331D01*
X10351Y59153D01*
X10351Y59153D01*
X10373Y59044D01*
X10461Y58911D01*
X10961Y58411D01*
X10961Y58411D01*
X11041Y58358D01*
X11094Y58323D01*
X11094Y58323D01*
X11250Y58292D01*
X11250Y58292D01*
X11250Y58292D01*
X12099Y58292D01*
X11503Y57696D01*
X11428Y57583D01*
X11423Y57561D01*
X11401Y57450D01*
X11401Y57449D01*
X11401Y57281D01*
X11354Y57249D01*
X11310Y57183D01*
X11310Y57199D01*
X11272Y57291D01*
X11201Y57361D01*
X11109Y57399D01*
X11010Y57400D01*
X10390Y57400D01*
X10298Y57362D01*
X10228Y57291D01*
X10190Y57199D01*
X10189Y57100D01*
X10189Y56298D01*
X10144Y56298D01*
X10098Y56344D01*
X10098Y60305D01*
X10496Y60703D01*
X10571Y60816D01*
X10581Y60863D01*
X10612Y60856D01*
X10700Y60904D01*
X10700Y61492D01*
X10692Y61492D01*
X10692Y61592D01*
X10700Y61592D01*
X10700Y61600D01*
X10800Y61600D01*
X10800Y61592D01*
X11185Y61592D01*
X11314Y61592D01*
X11700Y61592D01*
X11700Y61600D01*
X11800Y61600D01*
X11800Y61592D01*
X12185Y61592D01*
X12314Y61592D01*
X12700Y61592D01*
X12700Y61600D01*
X12800Y61600D01*
X12800Y61592D01*
X12807Y61592D01*
X12807Y61492D01*
X12800Y61492D01*
X12800Y60904D01*
X12887Y60856D01*
X12918Y60863D01*
X12928Y60816D01*
X13003Y60703D01*
X13401Y60305D01*
X13401Y60281D01*
X13401Y60281D01*
G37*
G54D45*
X13401Y60281D02*
X13354Y60249D01*
X13250Y60094D01*
X13248Y60100D01*
X13110Y60271D01*
X12918Y60376D01*
X12886Y60383D01*
X12800Y60334D01*
X12800Y59750D01*
X12807Y59750D01*
X12807Y59650D01*
X12800Y59650D01*
X12800Y59642D01*
X12700Y59642D01*
X12700Y59650D01*
X12692Y59650D01*
X12692Y59750D01*
X12700Y59750D01*
X12700Y60334D01*
X12700Y60904D01*
X12700Y61492D01*
X12314Y61492D01*
X12185Y61492D01*
X11800Y61492D01*
X11800Y60904D01*
X11887Y60856D01*
X11920Y60863D01*
X12114Y60969D01*
X12250Y61138D01*
X12385Y60969D01*
X12579Y60863D01*
X12612Y60856D01*
X12700Y60904D01*
X12700Y60334D01*
X12613Y60383D01*
X12581Y60376D01*
X12389Y60271D01*
X12251Y60100D01*
X12249Y60094D01*
X12145Y60249D01*
X11964Y60371D01*
X11750Y60413D01*
X11700Y60403D01*
X11700Y60904D01*
X11700Y61492D01*
X11314Y61492D01*
X11185Y61492D01*
X10800Y61492D01*
X10800Y60904D01*
X10887Y60856D01*
X10920Y60863D01*
X11114Y60969D01*
X11250Y61138D01*
X11385Y60969D01*
X11579Y60863D01*
X11612Y60856D01*
X11700Y60904D01*
X11700Y60403D01*
X11535Y60371D01*
X11354Y60249D01*
X11250Y60094D01*
X11145Y60249D01*
X10964Y60371D01*
X10750Y60413D01*
X10535Y60371D01*
X10354Y60249D01*
X10232Y60068D01*
X10190Y59853D01*
X10190Y59546D01*
X10232Y59331D01*
X10351Y59153D01*
X10351Y59153D01*
X10373Y59044D01*
X10461Y58911D01*
X10961Y58411D01*
X10961Y58411D01*
X11041Y58358D01*
X11094Y58323D01*
X11094Y58323D01*
X11250Y58292D01*
X11250Y58292D01*
X11250Y58292D01*
X12099Y58292D01*
X11503Y57696D01*
X11428Y57583D01*
X11423Y57561D01*
X11401Y57450D01*
X11401Y57449D01*
X11401Y57281D01*
X11354Y57249D01*
X11310Y57183D01*
X11310Y57199D01*
X11272Y57291D01*
X11201Y57361D01*
X11109Y57399D01*
X11010Y57400D01*
X10390Y57400D01*
X10298Y57362D01*
X10228Y57291D01*
X10190Y57199D01*
X10189Y57100D01*
X10189Y56298D01*
X10144Y56298D01*
X10098Y56344D01*
X10098Y60305D01*
X10496Y60703D01*
X10571Y60816D01*
X10581Y60863D01*
X10612Y60856D01*
X10700Y60904D01*
X10700Y61492D01*
X10692Y61492D01*
X10692Y61592D01*
X10700Y61592D01*
X10700Y61600D01*
X10800Y61600D01*
X10800Y61592D01*
X11185Y61592D01*
X11314Y61592D01*
X11700Y61592D01*
X11700Y61600D01*
X11800Y61600D01*
X11800Y61592D01*
X12185Y61592D01*
X12314Y61592D01*
X12700Y61592D01*
X12700Y61600D01*
X12800Y61600D01*
X12800Y61592D01*
X12807Y61592D01*
X12807Y61492D01*
X12800Y61492D01*
X12800Y60904D01*
X12887Y60856D01*
X12918Y60863D01*
X12928Y60816D01*
X13003Y60703D01*
X13401Y60305D01*
X13401Y60281D01*
G54D10*
G36*
X14401Y47344D02*
X13605Y46548D01*
X9250Y46548D01*
X9116Y46521D01*
X9003Y46446D01*
X9003Y46446D01*
X7503Y44946D01*
X7428Y44833D01*
X7423Y44811D01*
X7401Y44700D01*
X7401Y44699D01*
X7401Y43594D01*
X6855Y43048D01*
X6854Y43048D01*
X6854Y44319D01*
X6762Y44541D01*
X6592Y44712D01*
X6370Y44804D01*
X6130Y44804D01*
X5908Y44712D01*
X5737Y44542D01*
X5645Y44320D01*
X5645Y44080D01*
X5737Y43858D01*
X5907Y43687D01*
X6129Y43595D01*
X6369Y43595D01*
X6591Y43687D01*
X6762Y43857D01*
X6854Y44079D01*
X6854Y44319D01*
X6854Y43048D01*
X4250Y43048D01*
X4249Y43048D01*
X4116Y43021D01*
X4003Y42946D01*
X4003Y42946D01*
X3253Y42196D01*
X3178Y42083D01*
X3173Y42061D01*
X3151Y41950D01*
X3151Y41949D01*
X3151Y39622D01*
X3038Y39509D01*
X2954Y39308D01*
X2954Y39092D01*
X3037Y38891D01*
X3130Y38798D01*
X3000Y38798D01*
X2866Y38771D01*
X2753Y38696D01*
X2753Y38696D01*
X2556Y38499D01*
X2560Y38510D01*
X2560Y38650D01*
X2560Y38750D01*
X2560Y38890D01*
X2498Y39100D01*
X2360Y39271D01*
X2168Y39376D01*
X2136Y39383D01*
X2050Y39334D01*
X2050Y38750D01*
X2560Y38750D01*
X2560Y38650D01*
X2050Y38650D01*
X2050Y38065D01*
X2096Y38039D01*
X1818Y37761D01*
X1818Y38030D01*
X1831Y38023D01*
X1863Y38016D01*
X1950Y38065D01*
X1950Y38650D01*
X1942Y38650D01*
X1942Y38750D01*
X1950Y38750D01*
X1950Y39334D01*
X1863Y39383D01*
X1833Y39376D01*
X1848Y39450D01*
X1848Y40950D01*
X1834Y41019D01*
X2000Y40986D01*
X2214Y41028D01*
X2395Y41150D01*
X2517Y41331D01*
X2560Y41546D01*
X2560Y41853D01*
X2517Y42068D01*
X2395Y42249D01*
X2214Y42371D01*
X2000Y42413D01*
X1945Y42402D01*
X4644Y45101D01*
X6249Y45101D01*
X6250Y45101D01*
X6250Y45101D01*
X6361Y45123D01*
X6383Y45128D01*
X6383Y45128D01*
X6496Y45203D01*
X7894Y46601D01*
X12249Y46601D01*
X12250Y46601D01*
X12250Y46601D01*
X12361Y46623D01*
X12383Y46628D01*
X12383Y46628D01*
X12496Y46703D01*
X12996Y47203D01*
X12996Y47203D01*
X12996Y47203D01*
X13071Y47316D01*
X13098Y47450D01*
X13098Y47450D01*
X13098Y47450D01*
X13098Y47618D01*
X13145Y47650D01*
X13250Y47805D01*
X13354Y47650D01*
X13535Y47528D01*
X13750Y47486D01*
X13964Y47528D01*
X14145Y47650D01*
X14250Y47805D01*
X14354Y47650D01*
X14401Y47618D01*
X14401Y47344D01*
X14401Y47344D01*
G37*
G54D45*
X14401Y47344D02*
X13605Y46548D01*
X9250Y46548D01*
X9116Y46521D01*
X9003Y46446D01*
X9003Y46446D01*
X7503Y44946D01*
X7428Y44833D01*
X7423Y44811D01*
X7401Y44700D01*
X7401Y44699D01*
X7401Y43594D01*
X6855Y43048D01*
X6854Y43048D01*
X6854Y44319D01*
X6762Y44541D01*
X6592Y44712D01*
X6370Y44804D01*
X6130Y44804D01*
X5908Y44712D01*
X5737Y44542D01*
X5645Y44320D01*
X5645Y44080D01*
X5737Y43858D01*
X5907Y43687D01*
X6129Y43595D01*
X6369Y43595D01*
X6591Y43687D01*
X6762Y43857D01*
X6854Y44079D01*
X6854Y44319D01*
X6854Y43048D01*
X4250Y43048D01*
X4249Y43048D01*
X4116Y43021D01*
X4003Y42946D01*
X4003Y42946D01*
X3253Y42196D01*
X3178Y42083D01*
X3173Y42061D01*
X3151Y41950D01*
X3151Y41949D01*
X3151Y39622D01*
X3038Y39509D01*
X2954Y39308D01*
X2954Y39092D01*
X3037Y38891D01*
X3130Y38798D01*
X3000Y38798D01*
X2866Y38771D01*
X2753Y38696D01*
X2753Y38696D01*
X2556Y38499D01*
X2560Y38510D01*
X2560Y38650D01*
X2560Y38750D01*
X2560Y38890D01*
X2498Y39100D01*
X2360Y39271D01*
X2168Y39376D01*
X2136Y39383D01*
X2050Y39334D01*
X2050Y38750D01*
X2560Y38750D01*
X2560Y38650D01*
X2050Y38650D01*
X2050Y38065D01*
X2096Y38039D01*
X1818Y37761D01*
X1818Y38030D01*
X1831Y38023D01*
X1863Y38016D01*
X1950Y38065D01*
X1950Y38650D01*
X1942Y38650D01*
X1942Y38750D01*
X1950Y38750D01*
X1950Y39334D01*
X1863Y39383D01*
X1833Y39376D01*
X1848Y39450D01*
X1848Y40950D01*
X1834Y41019D01*
X2000Y40986D01*
X2214Y41028D01*
X2395Y41150D01*
X2517Y41331D01*
X2560Y41546D01*
X2560Y41853D01*
X2517Y42068D01*
X2395Y42249D01*
X2214Y42371D01*
X2000Y42413D01*
X1945Y42402D01*
X4644Y45101D01*
X6249Y45101D01*
X6250Y45101D01*
X6250Y45101D01*
X6361Y45123D01*
X6383Y45128D01*
X6383Y45128D01*
X6496Y45203D01*
X7894Y46601D01*
X12249Y46601D01*
X12250Y46601D01*
X12250Y46601D01*
X12361Y46623D01*
X12383Y46628D01*
X12383Y46628D01*
X12496Y46703D01*
X12996Y47203D01*
X12996Y47203D01*
X12996Y47203D01*
X13071Y47316D01*
X13098Y47450D01*
X13098Y47450D01*
X13098Y47450D01*
X13098Y47618D01*
X13145Y47650D01*
X13250Y47805D01*
X13354Y47650D01*
X13535Y47528D01*
X13750Y47486D01*
X13964Y47528D01*
X14145Y47650D01*
X14250Y47805D01*
X14354Y47650D01*
X14401Y47618D01*
X14401Y47344D01*
G54D10*
G36*
X17408Y45548D02*
X11500Y45548D01*
X11500Y45548D01*
X11366Y45521D01*
X11253Y45446D01*
X11253Y45446D01*
X11052Y45245D01*
X10892Y45245D01*
X10691Y45162D01*
X10538Y45009D01*
X10454Y44808D01*
X10454Y44592D01*
X10537Y44391D01*
X10690Y44238D01*
X10891Y44154D01*
X10962Y44154D01*
X9858Y43051D01*
X9858Y44105D01*
X9848Y44345D01*
X9776Y44520D01*
X9675Y44554D01*
X9604Y44483D01*
X9604Y44625D01*
X9570Y44726D01*
X9344Y44808D01*
X9104Y44798D01*
X8929Y44726D01*
X8895Y44625D01*
X9250Y44270D01*
X9604Y44625D01*
X9604Y44483D01*
X9320Y44200D01*
X9675Y43845D01*
X9776Y43879D01*
X9858Y44105D01*
X9858Y43051D01*
X9604Y42797D01*
X9604Y43774D01*
X9250Y44129D01*
X9179Y44058D01*
X9179Y44200D01*
X8824Y44554D01*
X8723Y44520D01*
X8641Y44294D01*
X8651Y44054D01*
X8723Y43879D01*
X8824Y43845D01*
X9179Y44200D01*
X9179Y44058D01*
X8895Y43774D01*
X8929Y43673D01*
X9155Y43591D01*
X9395Y43601D01*
X9570Y43673D01*
X9604Y43774D01*
X9604Y42797D01*
X8855Y42048D01*
X7672Y42048D01*
X7559Y42161D01*
X7358Y42245D01*
X7142Y42245D01*
X6941Y42162D01*
X6788Y42009D01*
X6704Y41808D01*
X6704Y41592D01*
X6787Y41391D01*
X6940Y41238D01*
X7141Y41154D01*
X7357Y41154D01*
X7558Y41237D01*
X7672Y41351D01*
X8855Y41351D01*
X9901Y40305D01*
X9901Y38094D01*
X9854Y38047D01*
X9854Y38603D01*
X9816Y38695D01*
X9746Y38766D01*
X9654Y38804D01*
X9554Y38804D01*
X8846Y38804D01*
X8754Y38766D01*
X8683Y38696D01*
X8645Y38604D01*
X8645Y38504D01*
X8645Y37796D01*
X8683Y37704D01*
X8753Y37633D01*
X8845Y37595D01*
X8945Y37595D01*
X9402Y37595D01*
X8598Y36791D01*
X8598Y38700D01*
X8598Y38700D01*
X8598Y38700D01*
X8571Y38833D01*
X8496Y38946D01*
X8496Y38946D01*
X7746Y39696D01*
X7633Y39771D01*
X7611Y39776D01*
X7500Y39798D01*
X7499Y39798D01*
X4750Y39798D01*
X4616Y39771D01*
X4503Y39696D01*
X4503Y39696D01*
X4045Y39238D01*
X4045Y39307D01*
X3962Y39508D01*
X3848Y39622D01*
X3848Y41805D01*
X4394Y42351D01*
X6999Y42351D01*
X7000Y42351D01*
X7000Y42351D01*
X7111Y42373D01*
X7133Y42378D01*
X7133Y42378D01*
X7246Y42453D01*
X7996Y43203D01*
X7996Y43203D01*
X7996Y43203D01*
X8071Y43316D01*
X8098Y43449D01*
X8098Y43450D01*
X8098Y43450D01*
X8098Y44555D01*
X9394Y45851D01*
X13749Y45851D01*
X13750Y45851D01*
X13750Y45851D01*
X13861Y45873D01*
X13883Y45878D01*
X13883Y45878D01*
X13996Y45953D01*
X14996Y46953D01*
X14996Y46953D01*
X14996Y46953D01*
X15071Y47066D01*
X15083Y47123D01*
X15753Y46453D01*
X15753Y46453D01*
X15866Y46378D01*
X15999Y46351D01*
X15999Y46351D01*
X16000Y46351D01*
X16605Y46351D01*
X17408Y45548D01*
X17408Y45548D01*
G37*
G54D45*
X17408Y45548D02*
X11500Y45548D01*
X11500Y45548D01*
X11366Y45521D01*
X11253Y45446D01*
X11253Y45446D01*
X11052Y45245D01*
X10892Y45245D01*
X10691Y45162D01*
X10538Y45009D01*
X10454Y44808D01*
X10454Y44592D01*
X10537Y44391D01*
X10690Y44238D01*
X10891Y44154D01*
X10962Y44154D01*
X9858Y43051D01*
X9858Y44105D01*
X9848Y44345D01*
X9776Y44520D01*
X9675Y44554D01*
X9604Y44483D01*
X9604Y44625D01*
X9570Y44726D01*
X9344Y44808D01*
X9104Y44798D01*
X8929Y44726D01*
X8895Y44625D01*
X9250Y44270D01*
X9604Y44625D01*
X9604Y44483D01*
X9320Y44200D01*
X9675Y43845D01*
X9776Y43879D01*
X9858Y44105D01*
X9858Y43051D01*
X9604Y42797D01*
X9604Y43774D01*
X9250Y44129D01*
X9179Y44058D01*
X9179Y44200D01*
X8824Y44554D01*
X8723Y44520D01*
X8641Y44294D01*
X8651Y44054D01*
X8723Y43879D01*
X8824Y43845D01*
X9179Y44200D01*
X9179Y44058D01*
X8895Y43774D01*
X8929Y43673D01*
X9155Y43591D01*
X9395Y43601D01*
X9570Y43673D01*
X9604Y43774D01*
X9604Y42797D01*
X8855Y42048D01*
X7672Y42048D01*
X7559Y42161D01*
X7358Y42245D01*
X7142Y42245D01*
X6941Y42162D01*
X6788Y42009D01*
X6704Y41808D01*
X6704Y41592D01*
X6787Y41391D01*
X6940Y41238D01*
X7141Y41154D01*
X7357Y41154D01*
X7558Y41237D01*
X7672Y41351D01*
X8855Y41351D01*
X9901Y40305D01*
X9901Y38094D01*
X9854Y38047D01*
X9854Y38603D01*
X9816Y38695D01*
X9746Y38766D01*
X9654Y38804D01*
X9554Y38804D01*
X8846Y38804D01*
X8754Y38766D01*
X8683Y38696D01*
X8645Y38604D01*
X8645Y38504D01*
X8645Y37796D01*
X8683Y37704D01*
X8753Y37633D01*
X8845Y37595D01*
X8945Y37595D01*
X9402Y37595D01*
X8598Y36791D01*
X8598Y38700D01*
X8598Y38700D01*
X8598Y38700D01*
X8571Y38833D01*
X8496Y38946D01*
X8496Y38946D01*
X7746Y39696D01*
X7633Y39771D01*
X7611Y39776D01*
X7500Y39798D01*
X7499Y39798D01*
X4750Y39798D01*
X4616Y39771D01*
X4503Y39696D01*
X4503Y39696D01*
X4045Y39238D01*
X4045Y39307D01*
X3962Y39508D01*
X3848Y39622D01*
X3848Y41805D01*
X4394Y42351D01*
X6999Y42351D01*
X7000Y42351D01*
X7000Y42351D01*
X7111Y42373D01*
X7133Y42378D01*
X7133Y42378D01*
X7246Y42453D01*
X7996Y43203D01*
X7996Y43203D01*
X7996Y43203D01*
X8071Y43316D01*
X8098Y43449D01*
X8098Y43450D01*
X8098Y43450D01*
X8098Y44555D01*
X9394Y45851D01*
X13749Y45851D01*
X13750Y45851D01*
X13750Y45851D01*
X13861Y45873D01*
X13883Y45878D01*
X13883Y45878D01*
X13996Y45953D01*
X14996Y46953D01*
X14996Y46953D01*
X14996Y46953D01*
X15071Y47066D01*
X15083Y47123D01*
X15753Y46453D01*
X15753Y46453D01*
X15866Y46378D01*
X15999Y46351D01*
X15999Y46351D01*
X16000Y46351D01*
X16605Y46351D01*
X17408Y45548D01*
G54D10*
G36*
X19151Y42765D02*
X19135Y42765D01*
X19043Y42727D01*
X18973Y42656D01*
X18968Y42645D01*
X18899Y42749D01*
X18716Y42871D01*
X18500Y42914D01*
X18283Y42871D01*
X18100Y42749D01*
X18000Y42599D01*
X17899Y42749D01*
X17716Y42871D01*
X17500Y42914D01*
X17283Y42871D01*
X17100Y42749D01*
X16997Y42595D01*
X16986Y42625D01*
X16839Y42789D01*
X16640Y42885D01*
X16637Y42885D01*
X16550Y42837D01*
X16550Y42454D01*
X16450Y42455D01*
X16450Y42837D01*
X16362Y42885D01*
X16359Y42885D01*
X16278Y42846D01*
X16260Y42873D01*
X16225Y42925D01*
X16225Y42925D01*
X15725Y43425D01*
X15622Y43494D01*
X15500Y43518D01*
X13000Y43518D01*
X12877Y43494D01*
X12826Y43460D01*
X12774Y43425D01*
X11774Y42425D01*
X11705Y42322D01*
X11681Y42200D01*
X11681Y41200D01*
X11669Y41195D01*
X11504Y41031D01*
X11415Y40816D01*
X11415Y40584D01*
X11504Y40369D01*
X11668Y40204D01*
X11883Y40115D01*
X12115Y40115D01*
X12330Y40204D01*
X12495Y40368D01*
X12584Y40583D01*
X12584Y40815D01*
X12495Y41030D01*
X12331Y41195D01*
X12318Y41200D01*
X12318Y42067D01*
X13132Y42881D01*
X14329Y42881D01*
X14283Y42871D01*
X14100Y42749D01*
X13978Y42566D01*
X13963Y42493D01*
X13450Y42500D01*
X13450Y41764D01*
X13349Y41764D01*
X13133Y41721D01*
X12950Y41599D01*
X12828Y41416D01*
X12785Y41200D01*
X12828Y40983D01*
X12950Y40800D01*
X13100Y40700D01*
X12950Y40599D01*
X12828Y40416D01*
X12785Y40200D01*
X12817Y40034D01*
X12750Y40048D01*
X12500Y40048D01*
X12500Y40048D01*
X12366Y40021D01*
X12253Y39946D01*
X12253Y39946D01*
X11753Y39446D01*
X11678Y39333D01*
X11673Y39311D01*
X11651Y39200D01*
X11651Y39199D01*
X11651Y38178D01*
X11504Y38031D01*
X11415Y37816D01*
X11415Y37584D01*
X11504Y37369D01*
X11651Y37221D01*
X11651Y37094D01*
X10708Y36151D01*
X10615Y36245D01*
X10378Y36343D01*
X10122Y36343D01*
X9885Y36246D01*
X9704Y36065D01*
X9606Y35828D01*
X9606Y35572D01*
X9703Y35335D01*
X9884Y35154D01*
X10121Y35056D01*
X10377Y35056D01*
X10614Y35153D01*
X10708Y35248D01*
X11503Y34453D01*
X11503Y34453D01*
X11616Y34378D01*
X11750Y34351D01*
X12750Y34351D01*
X12817Y34365D01*
X12785Y34200D01*
X12828Y33983D01*
X12950Y33800D01*
X13100Y33700D01*
X12950Y33599D01*
X12828Y33416D01*
X12785Y33200D01*
X12828Y32983D01*
X12950Y32800D01*
X13100Y32700D01*
X12950Y32599D01*
X12828Y32416D01*
X12785Y32200D01*
X12828Y31983D01*
X12950Y31800D01*
X13104Y31697D01*
X13074Y31686D01*
X12910Y31539D01*
X12814Y31340D01*
X12814Y31337D01*
X12862Y31250D01*
X13371Y31250D01*
X13371Y31257D01*
X13450Y31257D01*
X13450Y29892D01*
X13952Y29960D01*
X13978Y29833D01*
X14021Y29768D01*
X13371Y29768D01*
X13371Y30697D01*
X13371Y31150D01*
X12862Y31150D01*
X12814Y31062D01*
X12814Y31059D01*
X12910Y30860D01*
X13074Y30713D01*
X13282Y30640D01*
X13371Y30697D01*
X13371Y29768D01*
X11265Y29768D01*
X11295Y29841D01*
X11295Y30057D01*
X11212Y30258D01*
X11098Y30372D01*
X11098Y31950D01*
X11098Y31950D01*
X11098Y31950D01*
X11071Y32083D01*
X10996Y32196D01*
X10996Y32196D01*
X9098Y34094D01*
X9098Y36305D01*
X10496Y37703D01*
X10496Y37703D01*
X10496Y37703D01*
X10571Y37816D01*
X10598Y37950D01*
X10598Y40449D01*
X10598Y40450D01*
X10598Y40450D01*
X10576Y40561D01*
X10571Y40583D01*
X10571Y40583D01*
X10496Y40696D01*
X10496Y40696D01*
X9492Y41700D01*
X11894Y44101D01*
X17355Y44101D01*
X17753Y43703D01*
X17753Y43703D01*
X17866Y43628D01*
X18000Y43601D01*
X18000Y43601D01*
X18000Y43601D01*
X18855Y43601D01*
X19151Y43305D01*
X19151Y42765D01*
X19151Y42765D01*
G37*
G54D45*
X19151Y42765D02*
X19135Y42765D01*
X19043Y42727D01*
X18973Y42656D01*
X18968Y42645D01*
X18899Y42749D01*
X18716Y42871D01*
X18500Y42914D01*
X18283Y42871D01*
X18100Y42749D01*
X18000Y42599D01*
X17899Y42749D01*
X17716Y42871D01*
X17500Y42914D01*
X17283Y42871D01*
X17100Y42749D01*
X16997Y42595D01*
X16986Y42625D01*
X16839Y42789D01*
X16640Y42885D01*
X16637Y42885D01*
X16550Y42837D01*
X16550Y42454D01*
X16450Y42455D01*
X16450Y42837D01*
X16362Y42885D01*
X16359Y42885D01*
X16278Y42846D01*
X16260Y42873D01*
X16225Y42925D01*
X16225Y42925D01*
X15725Y43425D01*
X15622Y43494D01*
X15500Y43518D01*
X13000Y43518D01*
X12877Y43494D01*
X12826Y43460D01*
X12774Y43425D01*
X11774Y42425D01*
X11705Y42322D01*
X11681Y42200D01*
X11681Y41200D01*
X11669Y41195D01*
X11504Y41031D01*
X11415Y40816D01*
X11415Y40584D01*
X11504Y40369D01*
X11668Y40204D01*
X11883Y40115D01*
X12115Y40115D01*
X12330Y40204D01*
X12495Y40368D01*
X12584Y40583D01*
X12584Y40815D01*
X12495Y41030D01*
X12331Y41195D01*
X12318Y41200D01*
X12318Y42067D01*
X13132Y42881D01*
X14329Y42881D01*
X14283Y42871D01*
X14100Y42749D01*
X13978Y42566D01*
X13963Y42493D01*
X13450Y42500D01*
X13450Y41764D01*
X13349Y41764D01*
X13133Y41721D01*
X12950Y41599D01*
X12828Y41416D01*
X12785Y41200D01*
X12828Y40983D01*
X12950Y40800D01*
X13100Y40700D01*
X12950Y40599D01*
X12828Y40416D01*
X12785Y40200D01*
X12817Y40034D01*
X12750Y40048D01*
X12500Y40048D01*
X12500Y40048D01*
X12366Y40021D01*
X12253Y39946D01*
X12253Y39946D01*
X11753Y39446D01*
X11678Y39333D01*
X11673Y39311D01*
X11651Y39200D01*
X11651Y39199D01*
X11651Y38178D01*
X11504Y38031D01*
X11415Y37816D01*
X11415Y37584D01*
X11504Y37369D01*
X11651Y37221D01*
X11651Y37094D01*
X10708Y36151D01*
X10615Y36245D01*
X10378Y36343D01*
X10122Y36343D01*
X9885Y36246D01*
X9704Y36065D01*
X9606Y35828D01*
X9606Y35572D01*
X9703Y35335D01*
X9884Y35154D01*
X10121Y35056D01*
X10377Y35056D01*
X10614Y35153D01*
X10708Y35248D01*
X11503Y34453D01*
X11503Y34453D01*
X11616Y34378D01*
X11750Y34351D01*
X12750Y34351D01*
X12817Y34365D01*
X12785Y34200D01*
X12828Y33983D01*
X12950Y33800D01*
X13100Y33700D01*
X12950Y33599D01*
X12828Y33416D01*
X12785Y33200D01*
X12828Y32983D01*
X12950Y32800D01*
X13100Y32700D01*
X12950Y32599D01*
X12828Y32416D01*
X12785Y32200D01*
X12828Y31983D01*
X12950Y31800D01*
X13104Y31697D01*
X13074Y31686D01*
X12910Y31539D01*
X12814Y31340D01*
X12814Y31337D01*
X12862Y31250D01*
X13371Y31250D01*
X13371Y31257D01*
X13450Y31257D01*
X13450Y29892D01*
X13952Y29960D01*
X13978Y29833D01*
X14021Y29768D01*
X13371Y29768D01*
X13371Y30697D01*
X13371Y31150D01*
X12862Y31150D01*
X12814Y31062D01*
X12814Y31059D01*
X12910Y30860D01*
X13074Y30713D01*
X13282Y30640D01*
X13371Y30697D01*
X13371Y29768D01*
X11265Y29768D01*
X11295Y29841D01*
X11295Y30057D01*
X11212Y30258D01*
X11098Y30372D01*
X11098Y31950D01*
X11098Y31950D01*
X11098Y31950D01*
X11071Y32083D01*
X10996Y32196D01*
X10996Y32196D01*
X9098Y34094D01*
X9098Y36305D01*
X10496Y37703D01*
X10496Y37703D01*
X10496Y37703D01*
X10571Y37816D01*
X10598Y37950D01*
X10598Y40449D01*
X10598Y40450D01*
X10598Y40450D01*
X10576Y40561D01*
X10571Y40583D01*
X10571Y40583D01*
X10496Y40696D01*
X10496Y40696D01*
X9492Y41700D01*
X11894Y44101D01*
X17355Y44101D01*
X17753Y43703D01*
X17753Y43703D01*
X17866Y43628D01*
X18000Y43601D01*
X18000Y43601D01*
X18000Y43601D01*
X18855Y43601D01*
X19151Y43305D01*
X19151Y42765D01*
G54D10*
G36*
X20840Y54895D02*
X20750Y54913D01*
X20535Y54871D01*
X20354Y54749D01*
X20250Y54594D01*
X20145Y54749D01*
X19964Y54871D01*
X19750Y54913D01*
X19535Y54871D01*
X19354Y54749D01*
X19250Y54594D01*
X19145Y54749D01*
X18964Y54871D01*
X18750Y54913D01*
X18535Y54871D01*
X18354Y54749D01*
X18310Y54683D01*
X18310Y56510D01*
X18310Y56650D01*
X17800Y56650D01*
X17800Y56065D01*
X17886Y56016D01*
X17918Y56023D01*
X18110Y56128D01*
X18248Y56299D01*
X18310Y56510D01*
X18310Y54683D01*
X18249Y54594D01*
X18145Y54749D01*
X17964Y54871D01*
X17750Y54913D01*
X17584Y54880D01*
X17598Y54950D01*
X17598Y55199D01*
X17598Y55200D01*
X17598Y55200D01*
X17571Y55333D01*
X17496Y55446D01*
X17496Y55446D01*
X17221Y55721D01*
X17108Y55796D01*
X17086Y55801D01*
X16975Y55823D01*
X16974Y55823D01*
X16866Y55823D01*
X16996Y55953D01*
X16996Y55953D01*
X16996Y55953D01*
X17071Y56066D01*
X17079Y56106D01*
X17145Y56150D01*
X17249Y56305D01*
X17251Y56299D01*
X17389Y56128D01*
X17581Y56023D01*
X17613Y56016D01*
X17700Y56065D01*
X17700Y56650D01*
X17692Y56650D01*
X17692Y56750D01*
X17700Y56750D01*
X17700Y56757D01*
X17800Y56757D01*
X17800Y56750D01*
X18310Y56750D01*
X18310Y56890D01*
X18248Y57100D01*
X18110Y57271D01*
X17963Y57351D01*
X18355Y57351D01*
X20753Y54953D01*
X20753Y54953D01*
X20840Y54895D01*
X20840Y54895D01*
G37*
G54D45*
X20840Y54895D02*
X20750Y54913D01*
X20535Y54871D01*
X20354Y54749D01*
X20250Y54594D01*
X20145Y54749D01*
X19964Y54871D01*
X19750Y54913D01*
X19535Y54871D01*
X19354Y54749D01*
X19250Y54594D01*
X19145Y54749D01*
X18964Y54871D01*
X18750Y54913D01*
X18535Y54871D01*
X18354Y54749D01*
X18310Y54683D01*
X18310Y56510D01*
X18310Y56650D01*
X17800Y56650D01*
X17800Y56065D01*
X17886Y56016D01*
X17918Y56023D01*
X18110Y56128D01*
X18248Y56299D01*
X18310Y56510D01*
X18310Y54683D01*
X18249Y54594D01*
X18145Y54749D01*
X17964Y54871D01*
X17750Y54913D01*
X17584Y54880D01*
X17598Y54950D01*
X17598Y55199D01*
X17598Y55200D01*
X17598Y55200D01*
X17571Y55333D01*
X17496Y55446D01*
X17496Y55446D01*
X17221Y55721D01*
X17108Y55796D01*
X17086Y55801D01*
X16975Y55823D01*
X16974Y55823D01*
X16866Y55823D01*
X16996Y55953D01*
X16996Y55953D01*
X16996Y55953D01*
X17071Y56066D01*
X17079Y56106D01*
X17145Y56150D01*
X17249Y56305D01*
X17251Y56299D01*
X17389Y56128D01*
X17581Y56023D01*
X17613Y56016D01*
X17700Y56065D01*
X17700Y56650D01*
X17692Y56650D01*
X17692Y56750D01*
X17700Y56750D01*
X17700Y56757D01*
X17800Y56757D01*
X17800Y56750D01*
X18310Y56750D01*
X18310Y56890D01*
X18248Y57100D01*
X18110Y57271D01*
X17963Y57351D01*
X18355Y57351D01*
X20753Y54953D01*
X20753Y54953D01*
X20840Y54895D01*
G54D10*
G36*
X23401Y48781D02*
X23354Y48749D01*
X23250Y48594D01*
X23145Y48749D01*
X22964Y48871D01*
X22750Y48913D01*
X22535Y48871D01*
X22354Y48749D01*
X22250Y48594D01*
X22145Y48749D01*
X21964Y48871D01*
X21750Y48913D01*
X21535Y48871D01*
X21354Y48749D01*
X21250Y48594D01*
X21145Y48749D01*
X20964Y48871D01*
X20750Y48913D01*
X20535Y48871D01*
X20354Y48749D01*
X20250Y48594D01*
X20145Y48749D01*
X19964Y48871D01*
X19750Y48913D01*
X19584Y48880D01*
X19598Y48950D01*
X19598Y49199D01*
X19598Y49200D01*
X19598Y49200D01*
X19571Y49333D01*
X19496Y49446D01*
X19496Y49446D01*
X18996Y49946D01*
X18883Y50021D01*
X18861Y50026D01*
X18750Y50048D01*
X18749Y50048D01*
X16500Y50048D01*
X16499Y50048D01*
X16366Y50021D01*
X16253Y49946D01*
X16253Y49946D01*
X15598Y49291D01*
X15598Y49555D01*
X16697Y50654D01*
X16857Y50654D01*
X17058Y50737D01*
X17211Y50890D01*
X17295Y51091D01*
X17295Y51307D01*
X17212Y51508D01*
X17059Y51661D01*
X16858Y51745D01*
X16642Y51745D01*
X16441Y51662D01*
X16288Y51509D01*
X16204Y51308D01*
X16204Y51147D01*
X15003Y49946D01*
X14928Y49833D01*
X14923Y49811D01*
X14901Y49700D01*
X14901Y49699D01*
X14901Y48950D01*
X14915Y48880D01*
X14750Y48913D01*
X14535Y48871D01*
X14354Y48749D01*
X14250Y48594D01*
X14145Y48749D01*
X14098Y48781D01*
X14098Y49200D01*
X14071Y49333D01*
X13996Y49446D01*
X13996Y49446D01*
X13746Y49696D01*
X13633Y49771D01*
X13611Y49776D01*
X13500Y49798D01*
X13499Y49798D01*
X8500Y49798D01*
X8366Y49771D01*
X8253Y49696D01*
X8253Y49696D01*
X6855Y48298D01*
X6667Y48298D01*
X6680Y48303D01*
X6895Y48517D01*
X7011Y48797D01*
X7011Y49100D01*
X6896Y49380D01*
X6682Y49595D01*
X6402Y49711D01*
X6099Y49711D01*
X5819Y49596D01*
X5604Y49382D01*
X5488Y49102D01*
X5488Y48799D01*
X5603Y48519D01*
X5817Y48304D01*
X5832Y48298D01*
X5500Y48298D01*
X5366Y48271D01*
X5253Y48196D01*
X5253Y48196D01*
X4253Y47196D01*
X4178Y47083D01*
X4173Y47061D01*
X4151Y46950D01*
X4151Y46949D01*
X4151Y46594D01*
X1598Y44041D01*
X1598Y47532D01*
X1603Y47519D01*
X1817Y47304D01*
X2097Y47188D01*
X2400Y47188D01*
X2680Y47303D01*
X2895Y47517D01*
X3011Y47797D01*
X3011Y48100D01*
X2896Y48380D01*
X2682Y48595D01*
X2402Y48711D01*
X2099Y48711D01*
X1819Y48596D01*
X1604Y48382D01*
X1598Y48367D01*
X1598Y50555D01*
X1894Y50851D01*
X2189Y50851D01*
X2189Y50700D01*
X2227Y50608D01*
X2298Y50538D01*
X2390Y50500D01*
X2489Y50499D01*
X3109Y50499D01*
X3201Y50537D01*
X3271Y50608D01*
X3309Y50700D01*
X3309Y50716D01*
X3354Y50650D01*
X3535Y50528D01*
X3750Y50486D01*
X3964Y50528D01*
X4145Y50650D01*
X4249Y50805D01*
X4354Y50650D01*
X4420Y50606D01*
X4423Y50588D01*
X4428Y50566D01*
X4503Y50453D01*
X4753Y50203D01*
X4753Y50203D01*
X4866Y50128D01*
X5000Y50101D01*
X6827Y50101D01*
X6940Y49988D01*
X7141Y49904D01*
X7357Y49904D01*
X7558Y49987D01*
X7711Y50140D01*
X7795Y50341D01*
X7795Y50557D01*
X7712Y50758D01*
X7559Y50911D01*
X7358Y50995D01*
X7142Y50995D01*
X6941Y50912D01*
X6827Y50798D01*
X6247Y50798D01*
X6248Y50799D01*
X6310Y51010D01*
X6310Y51150D01*
X5800Y51150D01*
X5800Y51142D01*
X5700Y51142D01*
X5700Y51150D01*
X5692Y51150D01*
X5692Y51250D01*
X5700Y51250D01*
X5700Y51257D01*
X5800Y51257D01*
X5800Y51250D01*
X6310Y51250D01*
X6310Y51390D01*
X6248Y51600D01*
X6110Y51771D01*
X5963Y51851D01*
X13999Y51851D01*
X14000Y51851D01*
X14000Y51851D01*
X14111Y51873D01*
X14133Y51878D01*
X14133Y51878D01*
X14246Y51953D01*
X14996Y52703D01*
X14996Y52703D01*
X14996Y52703D01*
X15071Y52816D01*
X15098Y52949D01*
X15098Y52950D01*
X15098Y52950D01*
X15098Y53618D01*
X15145Y53650D01*
X15250Y53805D01*
X15354Y53650D01*
X15535Y53528D01*
X15750Y53486D01*
X15964Y53528D01*
X16145Y53650D01*
X16250Y53805D01*
X16354Y53650D01*
X16535Y53528D01*
X16750Y53486D01*
X16915Y53519D01*
X16901Y53450D01*
X16928Y53316D01*
X17003Y53203D01*
X17158Y53048D01*
X15500Y53048D01*
X15500Y53048D01*
X15388Y53026D01*
X15366Y53021D01*
X15253Y52946D01*
X15253Y52946D01*
X14003Y51696D01*
X13928Y51583D01*
X13923Y51561D01*
X13901Y51450D01*
X13901Y51449D01*
X13901Y51094D01*
X13721Y50914D01*
X13795Y51091D01*
X13795Y51307D01*
X13712Y51508D01*
X13559Y51661D01*
X13358Y51745D01*
X13142Y51745D01*
X12941Y51662D01*
X12827Y51548D01*
X10422Y51548D01*
X10309Y51661D01*
X10108Y51745D01*
X9892Y51745D01*
X9691Y51662D01*
X9538Y51509D01*
X9454Y51308D01*
X9454Y51092D01*
X9522Y50927D01*
X9358Y50995D01*
X9142Y50995D01*
X8941Y50912D01*
X8788Y50759D01*
X8704Y50558D01*
X8704Y50342D01*
X8787Y50141D01*
X8940Y49988D01*
X9141Y49904D01*
X9357Y49904D01*
X9558Y49987D01*
X9672Y50101D01*
X13749Y50101D01*
X13750Y50101D01*
X13750Y50101D01*
X13861Y50123D01*
X13883Y50128D01*
X13883Y50128D01*
X13996Y50203D01*
X14496Y50703D01*
X14496Y50703D01*
X14496Y50703D01*
X14571Y50816D01*
X14598Y50950D01*
X14598Y50950D01*
X14598Y50950D01*
X14598Y51305D01*
X15644Y52351D01*
X17722Y52351D01*
X17704Y52308D01*
X17704Y52092D01*
X17787Y51891D01*
X17901Y51777D01*
X17901Y51122D01*
X17788Y51009D01*
X17704Y50808D01*
X17704Y50592D01*
X17787Y50391D01*
X17940Y50238D01*
X18141Y50154D01*
X18357Y50154D01*
X18558Y50237D01*
X18711Y50390D01*
X18795Y50591D01*
X18795Y50807D01*
X18712Y51008D01*
X18598Y51122D01*
X18598Y51777D01*
X18711Y51890D01*
X18795Y52091D01*
X18795Y52307D01*
X18777Y52351D01*
X21630Y52351D01*
X21577Y52298D01*
X21500Y52298D01*
X21366Y52271D01*
X21253Y52196D01*
X21253Y52196D01*
X20253Y51196D01*
X20178Y51083D01*
X20173Y51061D01*
X20151Y50950D01*
X20151Y50949D01*
X20151Y50122D01*
X20038Y50009D01*
X19954Y49808D01*
X19954Y49592D01*
X20037Y49391D01*
X20190Y49238D01*
X20391Y49154D01*
X20607Y49154D01*
X20808Y49237D01*
X20961Y49390D01*
X21045Y49591D01*
X21045Y49807D01*
X20962Y50008D01*
X20848Y50122D01*
X20848Y50805D01*
X21610Y51568D01*
X21690Y51488D01*
X21891Y51404D01*
X22107Y51404D01*
X22308Y51487D01*
X22461Y51640D01*
X22545Y51841D01*
X22545Y52057D01*
X22462Y52258D01*
X22309Y52411D01*
X22232Y52444D01*
X22246Y52453D01*
X22901Y53108D01*
X22901Y50700D01*
X22901Y50700D01*
X22923Y50588D01*
X22928Y50566D01*
X23003Y50453D01*
X23401Y50055D01*
X23401Y48781D01*
X23401Y48781D01*
G37*
G54D45*
X23401Y48781D02*
X23354Y48749D01*
X23250Y48594D01*
X23145Y48749D01*
X22964Y48871D01*
X22750Y48913D01*
X22535Y48871D01*
X22354Y48749D01*
X22250Y48594D01*
X22145Y48749D01*
X21964Y48871D01*
X21750Y48913D01*
X21535Y48871D01*
X21354Y48749D01*
X21250Y48594D01*
X21145Y48749D01*
X20964Y48871D01*
X20750Y48913D01*
X20535Y48871D01*
X20354Y48749D01*
X20250Y48594D01*
X20145Y48749D01*
X19964Y48871D01*
X19750Y48913D01*
X19584Y48880D01*
X19598Y48950D01*
X19598Y49199D01*
X19598Y49200D01*
X19598Y49200D01*
X19571Y49333D01*
X19496Y49446D01*
X19496Y49446D01*
X18996Y49946D01*
X18883Y50021D01*
X18861Y50026D01*
X18750Y50048D01*
X18749Y50048D01*
X16500Y50048D01*
X16499Y50048D01*
X16366Y50021D01*
X16253Y49946D01*
X16253Y49946D01*
X15598Y49291D01*
X15598Y49555D01*
X16697Y50654D01*
X16857Y50654D01*
X17058Y50737D01*
X17211Y50890D01*
X17295Y51091D01*
X17295Y51307D01*
X17212Y51508D01*
X17059Y51661D01*
X16858Y51745D01*
X16642Y51745D01*
X16441Y51662D01*
X16288Y51509D01*
X16204Y51308D01*
X16204Y51147D01*
X15003Y49946D01*
X14928Y49833D01*
X14923Y49811D01*
X14901Y49700D01*
X14901Y49699D01*
X14901Y48950D01*
X14915Y48880D01*
X14750Y48913D01*
X14535Y48871D01*
X14354Y48749D01*
X14250Y48594D01*
X14145Y48749D01*
X14098Y48781D01*
X14098Y49200D01*
X14071Y49333D01*
X13996Y49446D01*
X13996Y49446D01*
X13746Y49696D01*
X13633Y49771D01*
X13611Y49776D01*
X13500Y49798D01*
X13499Y49798D01*
X8500Y49798D01*
X8366Y49771D01*
X8253Y49696D01*
X8253Y49696D01*
X6855Y48298D01*
X6667Y48298D01*
X6680Y48303D01*
X6895Y48517D01*
X7011Y48797D01*
X7011Y49100D01*
X6896Y49380D01*
X6682Y49595D01*
X6402Y49711D01*
X6099Y49711D01*
X5819Y49596D01*
X5604Y49382D01*
X5488Y49102D01*
X5488Y48799D01*
X5603Y48519D01*
X5817Y48304D01*
X5832Y48298D01*
X5500Y48298D01*
X5366Y48271D01*
X5253Y48196D01*
X5253Y48196D01*
X4253Y47196D01*
X4178Y47083D01*
X4173Y47061D01*
X4151Y46950D01*
X4151Y46949D01*
X4151Y46594D01*
X1598Y44041D01*
X1598Y47532D01*
X1603Y47519D01*
X1817Y47304D01*
X2097Y47188D01*
X2400Y47188D01*
X2680Y47303D01*
X2895Y47517D01*
X3011Y47797D01*
X3011Y48100D01*
X2896Y48380D01*
X2682Y48595D01*
X2402Y48711D01*
X2099Y48711D01*
X1819Y48596D01*
X1604Y48382D01*
X1598Y48367D01*
X1598Y50555D01*
X1894Y50851D01*
X2189Y50851D01*
X2189Y50700D01*
X2227Y50608D01*
X2298Y50538D01*
X2390Y50500D01*
X2489Y50499D01*
X3109Y50499D01*
X3201Y50537D01*
X3271Y50608D01*
X3309Y50700D01*
X3309Y50716D01*
X3354Y50650D01*
X3535Y50528D01*
X3750Y50486D01*
X3964Y50528D01*
X4145Y50650D01*
X4249Y50805D01*
X4354Y50650D01*
X4420Y50606D01*
X4423Y50588D01*
X4428Y50566D01*
X4503Y50453D01*
X4753Y50203D01*
X4753Y50203D01*
X4866Y50128D01*
X5000Y50101D01*
X6827Y50101D01*
X6940Y49988D01*
X7141Y49904D01*
X7357Y49904D01*
X7558Y49987D01*
X7711Y50140D01*
X7795Y50341D01*
X7795Y50557D01*
X7712Y50758D01*
X7559Y50911D01*
X7358Y50995D01*
X7142Y50995D01*
X6941Y50912D01*
X6827Y50798D01*
X6247Y50798D01*
X6248Y50799D01*
X6310Y51010D01*
X6310Y51150D01*
X5800Y51150D01*
X5800Y51142D01*
X5700Y51142D01*
X5700Y51150D01*
X5692Y51150D01*
X5692Y51250D01*
X5700Y51250D01*
X5700Y51257D01*
X5800Y51257D01*
X5800Y51250D01*
X6310Y51250D01*
X6310Y51390D01*
X6248Y51600D01*
X6110Y51771D01*
X5963Y51851D01*
X13999Y51851D01*
X14000Y51851D01*
X14000Y51851D01*
X14111Y51873D01*
X14133Y51878D01*
X14133Y51878D01*
X14246Y51953D01*
X14996Y52703D01*
X14996Y52703D01*
X14996Y52703D01*
X15071Y52816D01*
X15098Y52949D01*
X15098Y52950D01*
X15098Y52950D01*
X15098Y53618D01*
X15145Y53650D01*
X15250Y53805D01*
X15354Y53650D01*
X15535Y53528D01*
X15750Y53486D01*
X15964Y53528D01*
X16145Y53650D01*
X16250Y53805D01*
X16354Y53650D01*
X16535Y53528D01*
X16750Y53486D01*
X16915Y53519D01*
X16901Y53450D01*
X16928Y53316D01*
X17003Y53203D01*
X17158Y53048D01*
X15500Y53048D01*
X15500Y53048D01*
X15388Y53026D01*
X15366Y53021D01*
X15253Y52946D01*
X15253Y52946D01*
X14003Y51696D01*
X13928Y51583D01*
X13923Y51561D01*
X13901Y51450D01*
X13901Y51449D01*
X13901Y51094D01*
X13721Y50914D01*
X13795Y51091D01*
X13795Y51307D01*
X13712Y51508D01*
X13559Y51661D01*
X13358Y51745D01*
X13142Y51745D01*
X12941Y51662D01*
X12827Y51548D01*
X10422Y51548D01*
X10309Y51661D01*
X10108Y51745D01*
X9892Y51745D01*
X9691Y51662D01*
X9538Y51509D01*
X9454Y51308D01*
X9454Y51092D01*
X9522Y50927D01*
X9358Y50995D01*
X9142Y50995D01*
X8941Y50912D01*
X8788Y50759D01*
X8704Y50558D01*
X8704Y50342D01*
X8787Y50141D01*
X8940Y49988D01*
X9141Y49904D01*
X9357Y49904D01*
X9558Y49987D01*
X9672Y50101D01*
X13749Y50101D01*
X13750Y50101D01*
X13750Y50101D01*
X13861Y50123D01*
X13883Y50128D01*
X13883Y50128D01*
X13996Y50203D01*
X14496Y50703D01*
X14496Y50703D01*
X14496Y50703D01*
X14571Y50816D01*
X14598Y50950D01*
X14598Y50950D01*
X14598Y50950D01*
X14598Y51305D01*
X15644Y52351D01*
X17722Y52351D01*
X17704Y52308D01*
X17704Y52092D01*
X17787Y51891D01*
X17901Y51777D01*
X17901Y51122D01*
X17788Y51009D01*
X17704Y50808D01*
X17704Y50592D01*
X17787Y50391D01*
X17940Y50238D01*
X18141Y50154D01*
X18357Y50154D01*
X18558Y50237D01*
X18711Y50390D01*
X18795Y50591D01*
X18795Y50807D01*
X18712Y51008D01*
X18598Y51122D01*
X18598Y51777D01*
X18711Y51890D01*
X18795Y52091D01*
X18795Y52307D01*
X18777Y52351D01*
X21630Y52351D01*
X21577Y52298D01*
X21500Y52298D01*
X21366Y52271D01*
X21253Y52196D01*
X21253Y52196D01*
X20253Y51196D01*
X20178Y51083D01*
X20173Y51061D01*
X20151Y50950D01*
X20151Y50949D01*
X20151Y50122D01*
X20038Y50009D01*
X19954Y49808D01*
X19954Y49592D01*
X20037Y49391D01*
X20190Y49238D01*
X20391Y49154D01*
X20607Y49154D01*
X20808Y49237D01*
X20961Y49390D01*
X21045Y49591D01*
X21045Y49807D01*
X20962Y50008D01*
X20848Y50122D01*
X20848Y50805D01*
X21610Y51568D01*
X21690Y51488D01*
X21891Y51404D01*
X22107Y51404D01*
X22308Y51487D01*
X22461Y51640D01*
X22545Y51841D01*
X22545Y52057D01*
X22462Y52258D01*
X22309Y52411D01*
X22232Y52444D01*
X22246Y52453D01*
X22901Y53108D01*
X22901Y50700D01*
X22901Y50700D01*
X22923Y50588D01*
X22928Y50566D01*
X23003Y50453D01*
X23401Y50055D01*
X23401Y48781D01*
G54D10*
G36*
X28401Y22391D02*
X27060Y21049D01*
X27060Y22510D01*
X27060Y22650D01*
X26550Y22650D01*
X26550Y22065D01*
X26636Y22016D01*
X26668Y22023D01*
X26860Y22128D01*
X26998Y22299D01*
X27060Y22510D01*
X27060Y21049D01*
X26808Y20798D01*
X26478Y20798D01*
X26331Y20945D01*
X26116Y21034D01*
X25884Y21034D01*
X25669Y20945D01*
X25504Y20781D01*
X25415Y20566D01*
X25415Y20334D01*
X25481Y20174D01*
X24855Y19548D01*
X24591Y19548D01*
X24937Y19894D01*
X25080Y19954D01*
X25245Y20118D01*
X25334Y20333D01*
X25334Y20565D01*
X25245Y20780D01*
X25081Y20945D01*
X24866Y21034D01*
X24634Y21034D01*
X24419Y20945D01*
X24254Y20781D01*
X24165Y20566D01*
X24165Y20334D01*
X24231Y20174D01*
X24105Y20048D01*
X23925Y20048D01*
X23995Y20118D01*
X24084Y20333D01*
X24084Y20565D01*
X23995Y20780D01*
X23831Y20945D01*
X23616Y21034D01*
X23384Y21034D01*
X23169Y20945D01*
X23021Y20798D01*
X18672Y20798D01*
X18559Y20911D01*
X18358Y20995D01*
X18142Y20995D01*
X17941Y20912D01*
X17788Y20759D01*
X17704Y20558D01*
X17704Y20487D01*
X16996Y21196D01*
X16883Y21271D01*
X16861Y21276D01*
X16750Y21298D01*
X16749Y21298D01*
X16545Y21298D01*
X16545Y22807D01*
X16462Y23008D01*
X16348Y23122D01*
X16348Y25449D01*
X16348Y25450D01*
X16348Y25450D01*
X16326Y25561D01*
X16321Y25583D01*
X16321Y25583D01*
X16246Y25696D01*
X16246Y25696D01*
X15295Y26647D01*
X15295Y26807D01*
X15212Y27008D01*
X15059Y27161D01*
X14858Y27245D01*
X14642Y27245D01*
X14441Y27162D01*
X14288Y27009D01*
X14204Y26808D01*
X14204Y26592D01*
X14280Y26407D01*
X14250Y26413D01*
X14035Y26371D01*
X13854Y26249D01*
X13750Y26094D01*
X13645Y26249D01*
X13464Y26371D01*
X13250Y26413D01*
X13035Y26371D01*
X12854Y26249D01*
X12750Y26094D01*
X12645Y26249D01*
X12464Y26371D01*
X12250Y26413D01*
X12035Y26371D01*
X11854Y26249D01*
X11750Y26094D01*
X11645Y26249D01*
X11464Y26371D01*
X11250Y26413D01*
X11035Y26371D01*
X10854Y26249D01*
X10750Y26094D01*
X10645Y26249D01*
X10464Y26371D01*
X10250Y26413D01*
X10035Y26371D01*
X9854Y26249D01*
X9750Y26094D01*
X9645Y26249D01*
X9464Y26371D01*
X9250Y26413D01*
X9035Y26371D01*
X8854Y26249D01*
X8750Y26094D01*
X8645Y26249D01*
X8464Y26371D01*
X8250Y26413D01*
X8035Y26371D01*
X7854Y26249D01*
X7750Y26094D01*
X7645Y26249D01*
X7464Y26371D01*
X7250Y26413D01*
X7035Y26371D01*
X6854Y26249D01*
X6750Y26094D01*
X6748Y26100D01*
X6610Y26271D01*
X6418Y26376D01*
X6386Y26383D01*
X6300Y26334D01*
X6300Y25750D01*
X6307Y25750D01*
X6307Y25650D01*
X6300Y25650D01*
X6300Y25065D01*
X6386Y25016D01*
X6418Y25023D01*
X6610Y25128D01*
X6748Y25299D01*
X6750Y25305D01*
X6854Y25150D01*
X6920Y25106D01*
X6923Y25088D01*
X6928Y25066D01*
X7003Y24953D01*
X7253Y24703D01*
X7253Y24703D01*
X7366Y24628D01*
X7500Y24601D01*
X14827Y24601D01*
X14940Y24488D01*
X15032Y24450D01*
X14941Y24412D01*
X14827Y24298D01*
X7750Y24298D01*
X7750Y24298D01*
X7616Y24271D01*
X7503Y24196D01*
X7503Y24196D01*
X7003Y23696D01*
X6928Y23583D01*
X6923Y23561D01*
X6901Y23450D01*
X6901Y23449D01*
X6901Y23281D01*
X6854Y23249D01*
X6750Y23094D01*
X6645Y23249D01*
X6464Y23371D01*
X6250Y23413D01*
X6035Y23371D01*
X5854Y23249D01*
X5809Y23183D01*
X5809Y23199D01*
X5771Y23291D01*
X5701Y23362D01*
X5609Y23400D01*
X5362Y23400D01*
X5300Y23337D01*
X5300Y22750D01*
X5307Y22750D01*
X5307Y22650D01*
X5300Y22650D01*
X5300Y22062D01*
X5362Y22000D01*
X5609Y21999D01*
X5701Y22037D01*
X5771Y22108D01*
X5809Y22200D01*
X5809Y22216D01*
X5854Y22150D01*
X6035Y22028D01*
X6250Y21986D01*
X6464Y22028D01*
X6645Y22150D01*
X6750Y22305D01*
X6854Y22150D01*
X7035Y22028D01*
X7250Y21986D01*
X7464Y22028D01*
X7645Y22150D01*
X7750Y22305D01*
X7854Y22150D01*
X8035Y22028D01*
X8250Y21986D01*
X8464Y22028D01*
X8645Y22150D01*
X8750Y22305D01*
X8854Y22150D01*
X9035Y22028D01*
X9250Y21986D01*
X9464Y22028D01*
X9645Y22150D01*
X9750Y22305D01*
X9854Y22150D01*
X10035Y22028D01*
X10250Y21986D01*
X10464Y22028D01*
X10645Y22150D01*
X10750Y22305D01*
X10854Y22150D01*
X11035Y22028D01*
X11250Y21986D01*
X11464Y22028D01*
X11645Y22150D01*
X11750Y22305D01*
X11854Y22150D01*
X12035Y22028D01*
X12250Y21986D01*
X12464Y22028D01*
X12645Y22150D01*
X12750Y22305D01*
X12854Y22150D01*
X13035Y22028D01*
X13250Y21986D01*
X13464Y22028D01*
X13645Y22150D01*
X13749Y22305D01*
X13751Y22299D01*
X13889Y22128D01*
X14081Y22023D01*
X14113Y22016D01*
X14200Y22065D01*
X14200Y22650D01*
X14192Y22650D01*
X14192Y22750D01*
X14200Y22750D01*
X14200Y23334D01*
X14113Y23383D01*
X14081Y23376D01*
X13889Y23271D01*
X13751Y23100D01*
X13749Y23094D01*
X13645Y23249D01*
X13464Y23371D01*
X13250Y23413D01*
X13035Y23371D01*
X12854Y23249D01*
X12750Y23094D01*
X12645Y23249D01*
X12464Y23371D01*
X12250Y23413D01*
X12035Y23371D01*
X11854Y23249D01*
X11750Y23094D01*
X11645Y23249D01*
X11464Y23371D01*
X11250Y23413D01*
X11035Y23371D01*
X10854Y23249D01*
X10750Y23094D01*
X10645Y23249D01*
X10464Y23371D01*
X10250Y23413D01*
X10035Y23371D01*
X9854Y23249D01*
X9750Y23094D01*
X9645Y23249D01*
X9464Y23371D01*
X9250Y23413D01*
X9035Y23371D01*
X8854Y23249D01*
X8750Y23094D01*
X8645Y23249D01*
X8464Y23371D01*
X8250Y23413D01*
X8035Y23371D01*
X7854Y23249D01*
X7750Y23094D01*
X7645Y23249D01*
X7598Y23281D01*
X7598Y23305D01*
X7894Y23601D01*
X14827Y23601D01*
X14940Y23488D01*
X15141Y23404D01*
X15357Y23404D01*
X15558Y23487D01*
X15651Y23580D01*
X15651Y23122D01*
X15538Y23009D01*
X15454Y22808D01*
X15454Y22592D01*
X15537Y22391D01*
X15690Y22238D01*
X15891Y22154D01*
X16107Y22154D01*
X16308Y22237D01*
X16461Y22390D01*
X16545Y22591D01*
X16545Y22807D01*
X16545Y21298D01*
X14922Y21298D01*
X14810Y21411D01*
X14810Y22510D01*
X14810Y22650D01*
X14810Y22750D01*
X14810Y22890D01*
X14748Y23100D01*
X14610Y23271D01*
X14418Y23376D01*
X14386Y23383D01*
X14300Y23334D01*
X14300Y22750D01*
X14810Y22750D01*
X14810Y22650D01*
X14300Y22650D01*
X14300Y22065D01*
X14386Y22016D01*
X14418Y22023D01*
X14610Y22128D01*
X14748Y22299D01*
X14810Y22510D01*
X14810Y21411D01*
X14809Y21411D01*
X14608Y21495D01*
X14392Y21495D01*
X14191Y21412D01*
X14038Y21259D01*
X13954Y21058D01*
X13954Y20842D01*
X14037Y20641D01*
X14130Y20548D01*
X13250Y20548D01*
X13116Y20521D01*
X13003Y20446D01*
X13003Y20446D01*
X12753Y20196D01*
X12678Y20083D01*
X12669Y20040D01*
X12500Y20074D01*
X12283Y20030D01*
X12100Y19908D01*
X12000Y19758D01*
X11899Y19908D01*
X11716Y20030D01*
X11500Y20074D01*
X11283Y20030D01*
X11100Y19908D01*
X11000Y19758D01*
X10899Y19908D01*
X10716Y20030D01*
X10500Y20074D01*
X10283Y20030D01*
X10100Y19908D01*
X10000Y19758D01*
X9899Y19908D01*
X9716Y20030D01*
X9500Y20074D01*
X9283Y20030D01*
X9100Y19908D01*
X9000Y19758D01*
X8899Y19908D01*
X8716Y20030D01*
X8500Y20074D01*
X8283Y20030D01*
X8100Y19908D01*
X8000Y19758D01*
X7899Y19908D01*
X7716Y20030D01*
X7500Y20074D01*
X7283Y20030D01*
X7100Y19908D01*
X7000Y19758D01*
X6899Y19908D01*
X6716Y20030D01*
X6500Y20074D01*
X6283Y20030D01*
X6100Y19908D01*
X5999Y19758D01*
X5899Y19908D01*
X5716Y20030D01*
X5500Y20074D01*
X5283Y20030D01*
X5200Y19975D01*
X5200Y22062D01*
X5200Y22650D01*
X5200Y22750D01*
X5200Y23337D01*
X5137Y23400D01*
X4890Y23400D01*
X4798Y23362D01*
X4728Y23291D01*
X4690Y23199D01*
X4689Y23100D01*
X4690Y22812D01*
X4752Y22750D01*
X5200Y22750D01*
X5200Y22650D01*
X4752Y22650D01*
X4690Y22587D01*
X4689Y22299D01*
X4690Y22200D01*
X4728Y22108D01*
X4798Y22037D01*
X4890Y21999D01*
X5137Y22000D01*
X5200Y22062D01*
X5200Y19975D01*
X5100Y19908D01*
X5000Y19758D01*
X4899Y19908D01*
X4716Y20030D01*
X4500Y20074D01*
X4283Y20030D01*
X4100Y19908D01*
X4000Y19758D01*
X3899Y19908D01*
X3716Y20030D01*
X3500Y20074D01*
X3283Y20030D01*
X3100Y19908D01*
X3000Y19758D01*
X2899Y19908D01*
X2716Y20030D01*
X2500Y20074D01*
X2283Y20030D01*
X2100Y19908D01*
X2000Y19758D01*
X1899Y19908D01*
X1716Y20030D01*
X1500Y20074D01*
X1283Y20030D01*
X1100Y19908D01*
X999Y19758D01*
X899Y19908D01*
X716Y20030D01*
X500Y20074D01*
X283Y20030D01*
X100Y19908D01*
X0Y19758D01*
X-92Y19896D01*
X-92Y20281D01*
X418Y20792D01*
X3249Y20792D01*
X3250Y20792D01*
X3250Y20792D01*
X3405Y20823D01*
X3538Y20911D01*
X4538Y21911D01*
X4538Y21911D01*
X4538Y21911D01*
X4591Y21991D01*
X4626Y22044D01*
X4626Y22044D01*
X4657Y22200D01*
X4657Y24531D01*
X5135Y25009D01*
X5250Y24986D01*
X5464Y25028D01*
X5645Y25150D01*
X5749Y25305D01*
X5751Y25299D01*
X5889Y25128D01*
X6081Y25023D01*
X6113Y25016D01*
X6200Y25065D01*
X6200Y25650D01*
X6192Y25650D01*
X6192Y25750D01*
X6200Y25750D01*
X6200Y26334D01*
X6113Y26383D01*
X6081Y26376D01*
X5889Y26271D01*
X5751Y26100D01*
X5749Y26094D01*
X5645Y26249D01*
X5464Y26371D01*
X5250Y26413D01*
X5035Y26371D01*
X4854Y26249D01*
X4732Y26068D01*
X4690Y25853D01*
X4690Y25716D01*
X3961Y24988D01*
X3873Y24855D01*
X3842Y24700D01*
X3842Y24699D01*
X3842Y22368D01*
X3081Y21607D01*
X2560Y21607D01*
X2560Y22510D01*
X2560Y22650D01*
X2560Y22750D01*
X2560Y22890D01*
X2498Y23100D01*
X2360Y23271D01*
X2168Y23376D01*
X2136Y23383D01*
X2050Y23334D01*
X2050Y22750D01*
X2560Y22750D01*
X2560Y22650D01*
X2050Y22650D01*
X2050Y22065D01*
X2136Y22016D01*
X2168Y22023D01*
X2360Y22128D01*
X2498Y22299D01*
X2560Y22510D01*
X2560Y21607D01*
X1150Y21607D01*
X1246Y21703D01*
X1246Y21703D01*
X1246Y21703D01*
X1321Y21816D01*
X1348Y21950D01*
X1348Y22118D01*
X1395Y22150D01*
X1499Y22305D01*
X1501Y22299D01*
X1639Y22128D01*
X1831Y22023D01*
X1863Y22016D01*
X1950Y22065D01*
X1950Y22650D01*
X1942Y22650D01*
X1942Y22750D01*
X1950Y22750D01*
X1950Y23334D01*
X1863Y23383D01*
X1831Y23376D01*
X1639Y23271D01*
X1501Y23100D01*
X1499Y23094D01*
X1395Y23249D01*
X1214Y23371D01*
X1000Y23413D01*
X785Y23371D01*
X604Y23249D01*
X500Y23094D01*
X395Y23249D01*
X214Y23371D01*
X0Y23413D01*
X-214Y23371D01*
X-395Y23249D01*
X-500Y23094D01*
X-604Y23249D01*
X-785Y23371D01*
X-1000Y23413D01*
X-1214Y23371D01*
X-1395Y23249D01*
X-1500Y23094D01*
X-1604Y23249D01*
X-1785Y23371D01*
X-2000Y23413D01*
X-2214Y23371D01*
X-2395Y23249D01*
X-2500Y23094D01*
X-2604Y23249D01*
X-2651Y23281D01*
X-2651Y23555D01*
X-2253Y23953D01*
X-2253Y23953D01*
X-2253Y23953D01*
X-2178Y24066D01*
X-2151Y24200D01*
X-2151Y24200D01*
X-2151Y24200D01*
X-2151Y24950D01*
X-2165Y25019D01*
X-2000Y24986D01*
X-1785Y25028D01*
X-1604Y25150D01*
X-1500Y25305D01*
X-1395Y25150D01*
X-1214Y25028D01*
X-1000Y24986D01*
X-785Y25028D01*
X-604Y25150D01*
X-500Y25305D01*
X-395Y25150D01*
X-214Y25028D01*
X0Y24986D01*
X214Y25028D01*
X395Y25150D01*
X500Y25305D01*
X604Y25150D01*
X785Y25028D01*
X1000Y24986D01*
X1214Y25028D01*
X1395Y25150D01*
X1500Y25305D01*
X1604Y25150D01*
X1785Y25028D01*
X2000Y24986D01*
X2214Y25028D01*
X2395Y25150D01*
X2517Y25331D01*
X2560Y25546D01*
X2560Y25853D01*
X2517Y26068D01*
X2395Y26249D01*
X2214Y26371D01*
X2000Y26413D01*
X1785Y26371D01*
X1604Y26249D01*
X1500Y26094D01*
X1395Y26249D01*
X1348Y26281D01*
X1348Y26700D01*
X1348Y26700D01*
X1348Y26700D01*
X1321Y26833D01*
X1246Y26946D01*
X1246Y26946D01*
X496Y27696D01*
X383Y27771D01*
X361Y27776D01*
X250Y27798D01*
X249Y27798D01*
X-1355Y27798D01*
X-2151Y28594D01*
X-2151Y28700D01*
X-2165Y28769D01*
X-2000Y28736D01*
X-1785Y28778D01*
X-1604Y28900D01*
X-1500Y29055D01*
X-1395Y28900D01*
X-1214Y28778D01*
X-1000Y28736D01*
X-785Y28778D01*
X-604Y28900D01*
X-500Y29055D01*
X-395Y28900D01*
X-214Y28778D01*
X0Y28736D01*
X214Y28778D01*
X395Y28900D01*
X500Y29055D01*
X604Y28900D01*
X785Y28778D01*
X1000Y28736D01*
X1214Y28778D01*
X1395Y28900D01*
X1500Y29055D01*
X1604Y28900D01*
X1785Y28778D01*
X2000Y28736D01*
X2214Y28778D01*
X2395Y28900D01*
X2500Y29055D01*
X2604Y28900D01*
X2651Y28868D01*
X2651Y28450D01*
X2678Y28316D01*
X2753Y28203D01*
X2866Y28128D01*
X2871Y28127D01*
X3524Y27474D01*
X3524Y27474D01*
X3627Y27405D01*
X3749Y27381D01*
X3750Y27381D01*
X18867Y27381D01*
X19151Y27097D01*
X19151Y26281D01*
X19104Y26249D01*
X19000Y26094D01*
X18895Y26249D01*
X18714Y26371D01*
X18500Y26413D01*
X18285Y26371D01*
X18104Y26249D01*
X18000Y26094D01*
X17895Y26249D01*
X17714Y26371D01*
X17500Y26413D01*
X17285Y26371D01*
X17104Y26249D01*
X16982Y26068D01*
X16940Y25853D01*
X16940Y25546D01*
X16982Y25331D01*
X17104Y25150D01*
X17285Y25028D01*
X17500Y24986D01*
X17714Y25028D01*
X17895Y25150D01*
X18000Y25305D01*
X18104Y25150D01*
X18285Y25028D01*
X18500Y24986D01*
X18714Y25028D01*
X18895Y25150D01*
X19000Y25305D01*
X19104Y25150D01*
X19285Y25028D01*
X19500Y24986D01*
X19714Y25028D01*
X19895Y25150D01*
X20000Y25305D01*
X20104Y25150D01*
X20151Y25118D01*
X20151Y24700D01*
X20151Y24700D01*
X20173Y24588D01*
X20178Y24566D01*
X20253Y24453D01*
X21253Y23453D01*
X21253Y23453D01*
X21356Y23385D01*
X21285Y23371D01*
X21104Y23249D01*
X21000Y23094D01*
X20895Y23249D01*
X20714Y23371D01*
X20500Y23413D01*
X20285Y23371D01*
X20104Y23249D01*
X20000Y23094D01*
X19895Y23249D01*
X19714Y23371D01*
X19500Y23413D01*
X19285Y23371D01*
X19104Y23249D01*
X19000Y23094D01*
X18895Y23249D01*
X18714Y23371D01*
X18500Y23413D01*
X18285Y23371D01*
X18104Y23249D01*
X18060Y23183D01*
X18060Y23199D01*
X18022Y23291D01*
X17951Y23361D01*
X17859Y23399D01*
X17760Y23400D01*
X17140Y23400D01*
X17048Y23362D01*
X16978Y23291D01*
X16940Y23199D01*
X16939Y23100D01*
X16939Y22200D01*
X16977Y22108D01*
X17048Y22038D01*
X17140Y22000D01*
X17239Y21999D01*
X17859Y21999D01*
X17951Y22037D01*
X18021Y22108D01*
X18059Y22200D01*
X18059Y22216D01*
X18104Y22150D01*
X18285Y22028D01*
X18500Y21986D01*
X18714Y22028D01*
X18895Y22150D01*
X19000Y22305D01*
X19104Y22150D01*
X19285Y22028D01*
X19500Y21986D01*
X19714Y22028D01*
X19895Y22150D01*
X20000Y22305D01*
X20104Y22150D01*
X20285Y22028D01*
X20500Y21986D01*
X20714Y22028D01*
X20895Y22150D01*
X21000Y22305D01*
X21104Y22150D01*
X21285Y22028D01*
X21500Y21986D01*
X21714Y22028D01*
X21895Y22150D01*
X22000Y22305D01*
X22104Y22150D01*
X22285Y22028D01*
X22500Y21986D01*
X22714Y22028D01*
X22895Y22150D01*
X22999Y22305D01*
X23104Y22150D01*
X23285Y22028D01*
X23500Y21986D01*
X23714Y22028D01*
X23895Y22150D01*
X23999Y22305D01*
X24104Y22150D01*
X24285Y22028D01*
X24500Y21986D01*
X24714Y22028D01*
X24895Y22150D01*
X24999Y22305D01*
X25104Y22150D01*
X25285Y22028D01*
X25500Y21986D01*
X25714Y22028D01*
X25895Y22150D01*
X25999Y22305D01*
X26001Y22299D01*
X26139Y22128D01*
X26331Y22023D01*
X26363Y22016D01*
X26450Y22065D01*
X26450Y22650D01*
X26442Y22650D01*
X26442Y22750D01*
X26450Y22750D01*
X26450Y22757D01*
X26550Y22757D01*
X26550Y22750D01*
X27060Y22750D01*
X27060Y22890D01*
X26998Y23100D01*
X26860Y23271D01*
X26713Y23351D01*
X27499Y23351D01*
X27500Y23351D01*
X27500Y23351D01*
X27611Y23373D01*
X27633Y23378D01*
X27633Y23378D01*
X27746Y23453D01*
X28401Y24108D01*
X28401Y22391D01*
X28401Y22391D01*
G37*
G54D45*
X28401Y22391D02*
X27060Y21049D01*
X27060Y22510D01*
X27060Y22650D01*
X26550Y22650D01*
X26550Y22065D01*
X26636Y22016D01*
X26668Y22023D01*
X26860Y22128D01*
X26998Y22299D01*
X27060Y22510D01*
X27060Y21049D01*
X26808Y20798D01*
X26478Y20798D01*
X26331Y20945D01*
X26116Y21034D01*
X25884Y21034D01*
X25669Y20945D01*
X25504Y20781D01*
X25415Y20566D01*
X25415Y20334D01*
X25481Y20174D01*
X24855Y19548D01*
X24591Y19548D01*
X24937Y19894D01*
X25080Y19954D01*
X25245Y20118D01*
X25334Y20333D01*
X25334Y20565D01*
X25245Y20780D01*
X25081Y20945D01*
X24866Y21034D01*
X24634Y21034D01*
X24419Y20945D01*
X24254Y20781D01*
X24165Y20566D01*
X24165Y20334D01*
X24231Y20174D01*
X24105Y20048D01*
X23925Y20048D01*
X23995Y20118D01*
X24084Y20333D01*
X24084Y20565D01*
X23995Y20780D01*
X23831Y20945D01*
X23616Y21034D01*
X23384Y21034D01*
X23169Y20945D01*
X23021Y20798D01*
X18672Y20798D01*
X18559Y20911D01*
X18358Y20995D01*
X18142Y20995D01*
X17941Y20912D01*
X17788Y20759D01*
X17704Y20558D01*
X17704Y20487D01*
X16996Y21196D01*
X16883Y21271D01*
X16861Y21276D01*
X16750Y21298D01*
X16749Y21298D01*
X16545Y21298D01*
X16545Y22807D01*
X16462Y23008D01*
X16348Y23122D01*
X16348Y25449D01*
X16348Y25450D01*
X16348Y25450D01*
X16326Y25561D01*
X16321Y25583D01*
X16321Y25583D01*
X16246Y25696D01*
X16246Y25696D01*
X15295Y26647D01*
X15295Y26807D01*
X15212Y27008D01*
X15059Y27161D01*
X14858Y27245D01*
X14642Y27245D01*
X14441Y27162D01*
X14288Y27009D01*
X14204Y26808D01*
X14204Y26592D01*
X14280Y26407D01*
X14250Y26413D01*
X14035Y26371D01*
X13854Y26249D01*
X13750Y26094D01*
X13645Y26249D01*
X13464Y26371D01*
X13250Y26413D01*
X13035Y26371D01*
X12854Y26249D01*
X12750Y26094D01*
X12645Y26249D01*
X12464Y26371D01*
X12250Y26413D01*
X12035Y26371D01*
X11854Y26249D01*
X11750Y26094D01*
X11645Y26249D01*
X11464Y26371D01*
X11250Y26413D01*
X11035Y26371D01*
X10854Y26249D01*
X10750Y26094D01*
X10645Y26249D01*
X10464Y26371D01*
X10250Y26413D01*
X10035Y26371D01*
X9854Y26249D01*
X9750Y26094D01*
X9645Y26249D01*
X9464Y26371D01*
X9250Y26413D01*
X9035Y26371D01*
X8854Y26249D01*
X8750Y26094D01*
X8645Y26249D01*
X8464Y26371D01*
X8250Y26413D01*
X8035Y26371D01*
X7854Y26249D01*
X7750Y26094D01*
X7645Y26249D01*
X7464Y26371D01*
X7250Y26413D01*
X7035Y26371D01*
X6854Y26249D01*
X6750Y26094D01*
X6748Y26100D01*
X6610Y26271D01*
X6418Y26376D01*
X6386Y26383D01*
X6300Y26334D01*
X6300Y25750D01*
X6307Y25750D01*
X6307Y25650D01*
X6300Y25650D01*
X6300Y25065D01*
X6386Y25016D01*
X6418Y25023D01*
X6610Y25128D01*
X6748Y25299D01*
X6750Y25305D01*
X6854Y25150D01*
X6920Y25106D01*
X6923Y25088D01*
X6928Y25066D01*
X7003Y24953D01*
X7253Y24703D01*
X7253Y24703D01*
X7366Y24628D01*
X7500Y24601D01*
X14827Y24601D01*
X14940Y24488D01*
X15032Y24450D01*
X14941Y24412D01*
X14827Y24298D01*
X7750Y24298D01*
X7750Y24298D01*
X7616Y24271D01*
X7503Y24196D01*
X7503Y24196D01*
X7003Y23696D01*
X6928Y23583D01*
X6923Y23561D01*
X6901Y23450D01*
X6901Y23449D01*
X6901Y23281D01*
X6854Y23249D01*
X6750Y23094D01*
X6645Y23249D01*
X6464Y23371D01*
X6250Y23413D01*
X6035Y23371D01*
X5854Y23249D01*
X5809Y23183D01*
X5809Y23199D01*
X5771Y23291D01*
X5701Y23362D01*
X5609Y23400D01*
X5362Y23400D01*
X5300Y23337D01*
X5300Y22750D01*
X5307Y22750D01*
X5307Y22650D01*
X5300Y22650D01*
X5300Y22062D01*
X5362Y22000D01*
X5609Y21999D01*
X5701Y22037D01*
X5771Y22108D01*
X5809Y22200D01*
X5809Y22216D01*
X5854Y22150D01*
X6035Y22028D01*
X6250Y21986D01*
X6464Y22028D01*
X6645Y22150D01*
X6750Y22305D01*
X6854Y22150D01*
X7035Y22028D01*
X7250Y21986D01*
X7464Y22028D01*
X7645Y22150D01*
X7750Y22305D01*
X7854Y22150D01*
X8035Y22028D01*
X8250Y21986D01*
X8464Y22028D01*
X8645Y22150D01*
X8750Y22305D01*
X8854Y22150D01*
X9035Y22028D01*
X9250Y21986D01*
X9464Y22028D01*
X9645Y22150D01*
X9750Y22305D01*
X9854Y22150D01*
X10035Y22028D01*
X10250Y21986D01*
X10464Y22028D01*
X10645Y22150D01*
X10750Y22305D01*
X10854Y22150D01*
X11035Y22028D01*
X11250Y21986D01*
X11464Y22028D01*
X11645Y22150D01*
X11750Y22305D01*
X11854Y22150D01*
X12035Y22028D01*
X12250Y21986D01*
X12464Y22028D01*
X12645Y22150D01*
X12750Y22305D01*
X12854Y22150D01*
X13035Y22028D01*
X13250Y21986D01*
X13464Y22028D01*
X13645Y22150D01*
X13749Y22305D01*
X13751Y22299D01*
X13889Y22128D01*
X14081Y22023D01*
X14113Y22016D01*
X14200Y22065D01*
X14200Y22650D01*
X14192Y22650D01*
X14192Y22750D01*
X14200Y22750D01*
X14200Y23334D01*
X14113Y23383D01*
X14081Y23376D01*
X13889Y23271D01*
X13751Y23100D01*
X13749Y23094D01*
X13645Y23249D01*
X13464Y23371D01*
X13250Y23413D01*
X13035Y23371D01*
X12854Y23249D01*
X12750Y23094D01*
X12645Y23249D01*
X12464Y23371D01*
X12250Y23413D01*
X12035Y23371D01*
X11854Y23249D01*
X11750Y23094D01*
X11645Y23249D01*
X11464Y23371D01*
X11250Y23413D01*
X11035Y23371D01*
X10854Y23249D01*
X10750Y23094D01*
X10645Y23249D01*
X10464Y23371D01*
X10250Y23413D01*
X10035Y23371D01*
X9854Y23249D01*
X9750Y23094D01*
X9645Y23249D01*
X9464Y23371D01*
X9250Y23413D01*
X9035Y23371D01*
X8854Y23249D01*
X8750Y23094D01*
X8645Y23249D01*
X8464Y23371D01*
X8250Y23413D01*
X8035Y23371D01*
X7854Y23249D01*
X7750Y23094D01*
X7645Y23249D01*
X7598Y23281D01*
X7598Y23305D01*
X7894Y23601D01*
X14827Y23601D01*
X14940Y23488D01*
X15141Y23404D01*
X15357Y23404D01*
X15558Y23487D01*
X15651Y23580D01*
X15651Y23122D01*
X15538Y23009D01*
X15454Y22808D01*
X15454Y22592D01*
X15537Y22391D01*
X15690Y22238D01*
X15891Y22154D01*
X16107Y22154D01*
X16308Y22237D01*
X16461Y22390D01*
X16545Y22591D01*
X16545Y22807D01*
X16545Y21298D01*
X14922Y21298D01*
X14810Y21411D01*
X14810Y22510D01*
X14810Y22650D01*
X14810Y22750D01*
X14810Y22890D01*
X14748Y23100D01*
X14610Y23271D01*
X14418Y23376D01*
X14386Y23383D01*
X14300Y23334D01*
X14300Y22750D01*
X14810Y22750D01*
X14810Y22650D01*
X14300Y22650D01*
X14300Y22065D01*
X14386Y22016D01*
X14418Y22023D01*
X14610Y22128D01*
X14748Y22299D01*
X14810Y22510D01*
X14810Y21411D01*
X14809Y21411D01*
X14608Y21495D01*
X14392Y21495D01*
X14191Y21412D01*
X14038Y21259D01*
X13954Y21058D01*
X13954Y20842D01*
X14037Y20641D01*
X14130Y20548D01*
X13250Y20548D01*
X13116Y20521D01*
X13003Y20446D01*
X13003Y20446D01*
X12753Y20196D01*
X12678Y20083D01*
X12669Y20040D01*
X12500Y20074D01*
X12283Y20030D01*
X12100Y19908D01*
X12000Y19758D01*
X11899Y19908D01*
X11716Y20030D01*
X11500Y20074D01*
X11283Y20030D01*
X11100Y19908D01*
X11000Y19758D01*
X10899Y19908D01*
X10716Y20030D01*
X10500Y20074D01*
X10283Y20030D01*
X10100Y19908D01*
X10000Y19758D01*
X9899Y19908D01*
X9716Y20030D01*
X9500Y20074D01*
X9283Y20030D01*
X9100Y19908D01*
X9000Y19758D01*
X8899Y19908D01*
X8716Y20030D01*
X8500Y20074D01*
X8283Y20030D01*
X8100Y19908D01*
X8000Y19758D01*
X7899Y19908D01*
X7716Y20030D01*
X7500Y20074D01*
X7283Y20030D01*
X7100Y19908D01*
X7000Y19758D01*
X6899Y19908D01*
X6716Y20030D01*
X6500Y20074D01*
X6283Y20030D01*
X6100Y19908D01*
X5999Y19758D01*
X5899Y19908D01*
X5716Y20030D01*
X5500Y20074D01*
X5283Y20030D01*
X5200Y19975D01*
X5200Y22062D01*
X5200Y22650D01*
X5200Y22750D01*
X5200Y23337D01*
X5137Y23400D01*
X4890Y23400D01*
X4798Y23362D01*
X4728Y23291D01*
X4690Y23199D01*
X4689Y23100D01*
X4690Y22812D01*
X4752Y22750D01*
X5200Y22750D01*
X5200Y22650D01*
X4752Y22650D01*
X4690Y22587D01*
X4689Y22299D01*
X4690Y22200D01*
X4728Y22108D01*
X4798Y22037D01*
X4890Y21999D01*
X5137Y22000D01*
X5200Y22062D01*
X5200Y19975D01*
X5100Y19908D01*
X5000Y19758D01*
X4899Y19908D01*
X4716Y20030D01*
X4500Y20074D01*
X4283Y20030D01*
X4100Y19908D01*
X4000Y19758D01*
X3899Y19908D01*
X3716Y20030D01*
X3500Y20074D01*
X3283Y20030D01*
X3100Y19908D01*
X3000Y19758D01*
X2899Y19908D01*
X2716Y20030D01*
X2500Y20074D01*
X2283Y20030D01*
X2100Y19908D01*
X2000Y19758D01*
X1899Y19908D01*
X1716Y20030D01*
X1500Y20074D01*
X1283Y20030D01*
X1100Y19908D01*
X999Y19758D01*
X899Y19908D01*
X716Y20030D01*
X500Y20074D01*
X283Y20030D01*
X100Y19908D01*
X0Y19758D01*
X-92Y19896D01*
X-92Y20281D01*
X418Y20792D01*
X3249Y20792D01*
X3250Y20792D01*
X3250Y20792D01*
X3405Y20823D01*
X3538Y20911D01*
X4538Y21911D01*
X4538Y21911D01*
X4538Y21911D01*
X4591Y21991D01*
X4626Y22044D01*
X4626Y22044D01*
X4657Y22200D01*
X4657Y24531D01*
X5135Y25009D01*
X5250Y24986D01*
X5464Y25028D01*
X5645Y25150D01*
X5749Y25305D01*
X5751Y25299D01*
X5889Y25128D01*
X6081Y25023D01*
X6113Y25016D01*
X6200Y25065D01*
X6200Y25650D01*
X6192Y25650D01*
X6192Y25750D01*
X6200Y25750D01*
X6200Y26334D01*
X6113Y26383D01*
X6081Y26376D01*
X5889Y26271D01*
X5751Y26100D01*
X5749Y26094D01*
X5645Y26249D01*
X5464Y26371D01*
X5250Y26413D01*
X5035Y26371D01*
X4854Y26249D01*
X4732Y26068D01*
X4690Y25853D01*
X4690Y25716D01*
X3961Y24988D01*
X3873Y24855D01*
X3842Y24700D01*
X3842Y24699D01*
X3842Y22368D01*
X3081Y21607D01*
X2560Y21607D01*
X2560Y22510D01*
X2560Y22650D01*
X2560Y22750D01*
X2560Y22890D01*
X2498Y23100D01*
X2360Y23271D01*
X2168Y23376D01*
X2136Y23383D01*
X2050Y23334D01*
X2050Y22750D01*
X2560Y22750D01*
X2560Y22650D01*
X2050Y22650D01*
X2050Y22065D01*
X2136Y22016D01*
X2168Y22023D01*
X2360Y22128D01*
X2498Y22299D01*
X2560Y22510D01*
X2560Y21607D01*
X1150Y21607D01*
X1246Y21703D01*
X1246Y21703D01*
X1246Y21703D01*
X1321Y21816D01*
X1348Y21950D01*
X1348Y22118D01*
X1395Y22150D01*
X1499Y22305D01*
X1501Y22299D01*
X1639Y22128D01*
X1831Y22023D01*
X1863Y22016D01*
X1950Y22065D01*
X1950Y22650D01*
X1942Y22650D01*
X1942Y22750D01*
X1950Y22750D01*
X1950Y23334D01*
X1863Y23383D01*
X1831Y23376D01*
X1639Y23271D01*
X1501Y23100D01*
X1499Y23094D01*
X1395Y23249D01*
X1214Y23371D01*
X1000Y23413D01*
X785Y23371D01*
X604Y23249D01*
X500Y23094D01*
X395Y23249D01*
X214Y23371D01*
X0Y23413D01*
X-214Y23371D01*
X-395Y23249D01*
X-500Y23094D01*
X-604Y23249D01*
X-785Y23371D01*
X-1000Y23413D01*
X-1214Y23371D01*
X-1395Y23249D01*
X-1500Y23094D01*
X-1604Y23249D01*
X-1785Y23371D01*
X-2000Y23413D01*
X-2214Y23371D01*
X-2395Y23249D01*
X-2500Y23094D01*
X-2604Y23249D01*
X-2651Y23281D01*
X-2651Y23555D01*
X-2253Y23953D01*
X-2253Y23953D01*
X-2253Y23953D01*
X-2178Y24066D01*
X-2151Y24200D01*
X-2151Y24200D01*
X-2151Y24200D01*
X-2151Y24950D01*
X-2165Y25019D01*
X-2000Y24986D01*
X-1785Y25028D01*
X-1604Y25150D01*
X-1500Y25305D01*
X-1395Y25150D01*
X-1214Y25028D01*
X-1000Y24986D01*
X-785Y25028D01*
X-604Y25150D01*
X-500Y25305D01*
X-395Y25150D01*
X-214Y25028D01*
X0Y24986D01*
X214Y25028D01*
X395Y25150D01*
X500Y25305D01*
X604Y25150D01*
X785Y25028D01*
X1000Y24986D01*
X1214Y25028D01*
X1395Y25150D01*
X1500Y25305D01*
X1604Y25150D01*
X1785Y25028D01*
X2000Y24986D01*
X2214Y25028D01*
X2395Y25150D01*
X2517Y25331D01*
X2560Y25546D01*
X2560Y25853D01*
X2517Y26068D01*
X2395Y26249D01*
X2214Y26371D01*
X2000Y26413D01*
X1785Y26371D01*
X1604Y26249D01*
X1500Y26094D01*
X1395Y26249D01*
X1348Y26281D01*
X1348Y26700D01*
X1348Y26700D01*
X1348Y26700D01*
X1321Y26833D01*
X1246Y26946D01*
X1246Y26946D01*
X496Y27696D01*
X383Y27771D01*
X361Y27776D01*
X250Y27798D01*
X249Y27798D01*
X-1355Y27798D01*
X-2151Y28594D01*
X-2151Y28700D01*
X-2165Y28769D01*
X-2000Y28736D01*
X-1785Y28778D01*
X-1604Y28900D01*
X-1500Y29055D01*
X-1395Y28900D01*
X-1214Y28778D01*
X-1000Y28736D01*
X-785Y28778D01*
X-604Y28900D01*
X-500Y29055D01*
X-395Y28900D01*
X-214Y28778D01*
X0Y28736D01*
X214Y28778D01*
X395Y28900D01*
X500Y29055D01*
X604Y28900D01*
X785Y28778D01*
X1000Y28736D01*
X1214Y28778D01*
X1395Y28900D01*
X1500Y29055D01*
X1604Y28900D01*
X1785Y28778D01*
X2000Y28736D01*
X2214Y28778D01*
X2395Y28900D01*
X2500Y29055D01*
X2604Y28900D01*
X2651Y28868D01*
X2651Y28450D01*
X2678Y28316D01*
X2753Y28203D01*
X2866Y28128D01*
X2871Y28127D01*
X3524Y27474D01*
X3524Y27474D01*
X3627Y27405D01*
X3749Y27381D01*
X3750Y27381D01*
X18867Y27381D01*
X19151Y27097D01*
X19151Y26281D01*
X19104Y26249D01*
X19000Y26094D01*
X18895Y26249D01*
X18714Y26371D01*
X18500Y26413D01*
X18285Y26371D01*
X18104Y26249D01*
X18000Y26094D01*
X17895Y26249D01*
X17714Y26371D01*
X17500Y26413D01*
X17285Y26371D01*
X17104Y26249D01*
X16982Y26068D01*
X16940Y25853D01*
X16940Y25546D01*
X16982Y25331D01*
X17104Y25150D01*
X17285Y25028D01*
X17500Y24986D01*
X17714Y25028D01*
X17895Y25150D01*
X18000Y25305D01*
X18104Y25150D01*
X18285Y25028D01*
X18500Y24986D01*
X18714Y25028D01*
X18895Y25150D01*
X19000Y25305D01*
X19104Y25150D01*
X19285Y25028D01*
X19500Y24986D01*
X19714Y25028D01*
X19895Y25150D01*
X20000Y25305D01*
X20104Y25150D01*
X20151Y25118D01*
X20151Y24700D01*
X20151Y24700D01*
X20173Y24588D01*
X20178Y24566D01*
X20253Y24453D01*
X21253Y23453D01*
X21253Y23453D01*
X21356Y23385D01*
X21285Y23371D01*
X21104Y23249D01*
X21000Y23094D01*
X20895Y23249D01*
X20714Y23371D01*
X20500Y23413D01*
X20285Y23371D01*
X20104Y23249D01*
X20000Y23094D01*
X19895Y23249D01*
X19714Y23371D01*
X19500Y23413D01*
X19285Y23371D01*
X19104Y23249D01*
X19000Y23094D01*
X18895Y23249D01*
X18714Y23371D01*
X18500Y23413D01*
X18285Y23371D01*
X18104Y23249D01*
X18060Y23183D01*
X18060Y23199D01*
X18022Y23291D01*
X17951Y23361D01*
X17859Y23399D01*
X17760Y23400D01*
X17140Y23400D01*
X17048Y23362D01*
X16978Y23291D01*
X16940Y23199D01*
X16939Y23100D01*
X16939Y22200D01*
X16977Y22108D01*
X17048Y22038D01*
X17140Y22000D01*
X17239Y21999D01*
X17859Y21999D01*
X17951Y22037D01*
X18021Y22108D01*
X18059Y22200D01*
X18059Y22216D01*
X18104Y22150D01*
X18285Y22028D01*
X18500Y21986D01*
X18714Y22028D01*
X18895Y22150D01*
X19000Y22305D01*
X19104Y22150D01*
X19285Y22028D01*
X19500Y21986D01*
X19714Y22028D01*
X19895Y22150D01*
X20000Y22305D01*
X20104Y22150D01*
X20285Y22028D01*
X20500Y21986D01*
X20714Y22028D01*
X20895Y22150D01*
X21000Y22305D01*
X21104Y22150D01*
X21285Y22028D01*
X21500Y21986D01*
X21714Y22028D01*
X21895Y22150D01*
X22000Y22305D01*
X22104Y22150D01*
X22285Y22028D01*
X22500Y21986D01*
X22714Y22028D01*
X22895Y22150D01*
X22999Y22305D01*
X23104Y22150D01*
X23285Y22028D01*
X23500Y21986D01*
X23714Y22028D01*
X23895Y22150D01*
X23999Y22305D01*
X24104Y22150D01*
X24285Y22028D01*
X24500Y21986D01*
X24714Y22028D01*
X24895Y22150D01*
X24999Y22305D01*
X25104Y22150D01*
X25285Y22028D01*
X25500Y21986D01*
X25714Y22028D01*
X25895Y22150D01*
X25999Y22305D01*
X26001Y22299D01*
X26139Y22128D01*
X26331Y22023D01*
X26363Y22016D01*
X26450Y22065D01*
X26450Y22650D01*
X26442Y22650D01*
X26442Y22750D01*
X26450Y22750D01*
X26450Y22757D01*
X26550Y22757D01*
X26550Y22750D01*
X27060Y22750D01*
X27060Y22890D01*
X26998Y23100D01*
X26860Y23271D01*
X26713Y23351D01*
X27499Y23351D01*
X27500Y23351D01*
X27500Y23351D01*
X27611Y23373D01*
X27633Y23378D01*
X27633Y23378D01*
X27746Y23453D01*
X28401Y24108D01*
X28401Y22391D01*
G54D10*
G36*
X29151Y38844D02*
X28052Y37745D01*
X27892Y37745D01*
X27691Y37662D01*
X27598Y37569D01*
X27598Y42200D01*
X27571Y42333D01*
X27496Y42446D01*
X27496Y42446D01*
X25538Y44404D01*
X25607Y44404D01*
X25808Y44487D01*
X25961Y44640D01*
X25999Y44732D01*
X26037Y44641D01*
X26190Y44488D01*
X26391Y44404D01*
X26607Y44404D01*
X26808Y44487D01*
X26961Y44640D01*
X27045Y44841D01*
X27045Y45057D01*
X26962Y45258D01*
X26848Y45372D01*
X26848Y46305D01*
X27496Y46953D01*
X27496Y46953D01*
X27496Y46953D01*
X27571Y47066D01*
X27598Y47199D01*
X27598Y47200D01*
X27598Y47200D01*
X27598Y47450D01*
X27583Y47523D01*
X27613Y47516D01*
X27700Y47565D01*
X27700Y48150D01*
X27692Y48150D01*
X27692Y48250D01*
X27700Y48250D01*
X27700Y48834D01*
X27613Y48883D01*
X27583Y48876D01*
X27598Y48950D01*
X27598Y50200D01*
X27571Y50333D01*
X27496Y50446D01*
X27496Y50446D01*
X26598Y51344D01*
X26598Y53450D01*
X26584Y53519D01*
X26750Y53486D01*
X26915Y53519D01*
X26901Y53450D01*
X26928Y53316D01*
X27003Y53203D01*
X27253Y52953D01*
X27253Y52953D01*
X27366Y52878D01*
X27500Y52851D01*
X28355Y52851D01*
X28651Y52555D01*
X28651Y45094D01*
X28310Y44752D01*
X28310Y48010D01*
X28310Y48150D01*
X28310Y48250D01*
X28310Y48390D01*
X28248Y48600D01*
X28110Y48771D01*
X27918Y48876D01*
X27886Y48883D01*
X27800Y48834D01*
X27800Y48250D01*
X28310Y48250D01*
X28310Y48150D01*
X27800Y48150D01*
X27800Y47565D01*
X27886Y47516D01*
X27918Y47523D01*
X28110Y47628D01*
X28248Y47799D01*
X28310Y48010D01*
X28310Y44752D01*
X28052Y44495D01*
X27892Y44495D01*
X27691Y44412D01*
X27538Y44259D01*
X27454Y44058D01*
X27454Y43842D01*
X27537Y43641D01*
X27690Y43488D01*
X27891Y43404D01*
X28107Y43404D01*
X28308Y43487D01*
X28461Y43640D01*
X28545Y43841D01*
X28545Y44002D01*
X29151Y44608D01*
X29151Y38844D01*
X29151Y38844D01*
G37*
G54D45*
X29151Y38844D02*
X28052Y37745D01*
X27892Y37745D01*
X27691Y37662D01*
X27598Y37569D01*
X27598Y42200D01*
X27571Y42333D01*
X27496Y42446D01*
X27496Y42446D01*
X25538Y44404D01*
X25607Y44404D01*
X25808Y44487D01*
X25961Y44640D01*
X25999Y44732D01*
X26037Y44641D01*
X26190Y44488D01*
X26391Y44404D01*
X26607Y44404D01*
X26808Y44487D01*
X26961Y44640D01*
X27045Y44841D01*
X27045Y45057D01*
X26962Y45258D01*
X26848Y45372D01*
X26848Y46305D01*
X27496Y46953D01*
X27496Y46953D01*
X27496Y46953D01*
X27571Y47066D01*
X27598Y47199D01*
X27598Y47200D01*
X27598Y47200D01*
X27598Y47450D01*
X27583Y47523D01*
X27613Y47516D01*
X27700Y47565D01*
X27700Y48150D01*
X27692Y48150D01*
X27692Y48250D01*
X27700Y48250D01*
X27700Y48834D01*
X27613Y48883D01*
X27583Y48876D01*
X27598Y48950D01*
X27598Y50200D01*
X27571Y50333D01*
X27496Y50446D01*
X27496Y50446D01*
X26598Y51344D01*
X26598Y53450D01*
X26584Y53519D01*
X26750Y53486D01*
X26915Y53519D01*
X26901Y53450D01*
X26928Y53316D01*
X27003Y53203D01*
X27253Y52953D01*
X27253Y52953D01*
X27366Y52878D01*
X27500Y52851D01*
X28355Y52851D01*
X28651Y52555D01*
X28651Y45094D01*
X28310Y44752D01*
X28310Y48010D01*
X28310Y48150D01*
X28310Y48250D01*
X28310Y48390D01*
X28248Y48600D01*
X28110Y48771D01*
X27918Y48876D01*
X27886Y48883D01*
X27800Y48834D01*
X27800Y48250D01*
X28310Y48250D01*
X28310Y48150D01*
X27800Y48150D01*
X27800Y47565D01*
X27886Y47516D01*
X27918Y47523D01*
X28110Y47628D01*
X28248Y47799D01*
X28310Y48010D01*
X28310Y44752D01*
X28052Y44495D01*
X27892Y44495D01*
X27691Y44412D01*
X27538Y44259D01*
X27454Y44058D01*
X27454Y43842D01*
X27537Y43641D01*
X27690Y43488D01*
X27891Y43404D01*
X28107Y43404D01*
X28308Y43487D01*
X28461Y43640D01*
X28545Y43841D01*
X28545Y44002D01*
X29151Y44608D01*
X29151Y38844D01*
G54D10*
G36*
X29285Y60171D02*
X29108Y60245D01*
X28892Y60245D01*
X28691Y60162D01*
X28538Y60009D01*
X28454Y59808D01*
X28454Y59592D01*
X28537Y59391D01*
X28592Y59336D01*
X28592Y55618D01*
X28310Y55336D01*
X28310Y56510D01*
X28310Y56650D01*
X28310Y56750D01*
X28310Y56890D01*
X28248Y57100D01*
X28110Y57271D01*
X27918Y57376D01*
X27886Y57383D01*
X27800Y57334D01*
X27800Y56750D01*
X28310Y56750D01*
X28310Y56650D01*
X27800Y56650D01*
X27800Y56065D01*
X27886Y56016D01*
X27918Y56023D01*
X28110Y56128D01*
X28248Y56299D01*
X28310Y56510D01*
X28310Y55336D01*
X27864Y54890D01*
X27750Y54913D01*
X27568Y54877D01*
X27568Y55247D01*
X27711Y55390D01*
X27795Y55591D01*
X27795Y55807D01*
X27712Y56008D01*
X27671Y56049D01*
X27700Y56065D01*
X27700Y56650D01*
X27692Y56650D01*
X27692Y56750D01*
X27700Y56750D01*
X27700Y57334D01*
X27613Y57383D01*
X27581Y57376D01*
X27389Y57271D01*
X27251Y57100D01*
X27249Y57094D01*
X27145Y57249D01*
X27098Y57281D01*
X27098Y57805D01*
X27496Y58203D01*
X27496Y58203D01*
X27496Y58203D01*
X27571Y58316D01*
X27598Y58450D01*
X27598Y58450D01*
X27598Y58450D01*
X27598Y58950D01*
X27584Y59019D01*
X27750Y58986D01*
X27964Y59028D01*
X28145Y59150D01*
X28267Y59331D01*
X28310Y59546D01*
X28310Y59853D01*
X28267Y60068D01*
X28145Y60249D01*
X27964Y60371D01*
X27750Y60413D01*
X27584Y60380D01*
X27598Y60450D01*
X27598Y60858D01*
X28003Y60453D01*
X28003Y60453D01*
X28116Y60378D01*
X28250Y60351D01*
X28250Y60351D01*
X28250Y60351D01*
X29105Y60351D01*
X29285Y60171D01*
X29285Y60171D01*
G37*
G54D45*
X29285Y60171D02*
X29108Y60245D01*
X28892Y60245D01*
X28691Y60162D01*
X28538Y60009D01*
X28454Y59808D01*
X28454Y59592D01*
X28537Y59391D01*
X28592Y59336D01*
X28592Y55618D01*
X28310Y55336D01*
X28310Y56510D01*
X28310Y56650D01*
X28310Y56750D01*
X28310Y56890D01*
X28248Y57100D01*
X28110Y57271D01*
X27918Y57376D01*
X27886Y57383D01*
X27800Y57334D01*
X27800Y56750D01*
X28310Y56750D01*
X28310Y56650D01*
X27800Y56650D01*
X27800Y56065D01*
X27886Y56016D01*
X27918Y56023D01*
X28110Y56128D01*
X28248Y56299D01*
X28310Y56510D01*
X28310Y55336D01*
X27864Y54890D01*
X27750Y54913D01*
X27568Y54877D01*
X27568Y55247D01*
X27711Y55390D01*
X27795Y55591D01*
X27795Y55807D01*
X27712Y56008D01*
X27671Y56049D01*
X27700Y56065D01*
X27700Y56650D01*
X27692Y56650D01*
X27692Y56750D01*
X27700Y56750D01*
X27700Y57334D01*
X27613Y57383D01*
X27581Y57376D01*
X27389Y57271D01*
X27251Y57100D01*
X27249Y57094D01*
X27145Y57249D01*
X27098Y57281D01*
X27098Y57805D01*
X27496Y58203D01*
X27496Y58203D01*
X27496Y58203D01*
X27571Y58316D01*
X27598Y58450D01*
X27598Y58450D01*
X27598Y58450D01*
X27598Y58950D01*
X27584Y59019D01*
X27750Y58986D01*
X27964Y59028D01*
X28145Y59150D01*
X28267Y59331D01*
X28310Y59546D01*
X28310Y59853D01*
X28267Y60068D01*
X28145Y60249D01*
X27964Y60371D01*
X27750Y60413D01*
X27584Y60380D01*
X27598Y60450D01*
X27598Y60858D01*
X28003Y60453D01*
X28003Y60453D01*
X28116Y60378D01*
X28250Y60351D01*
X28250Y60351D01*
X28250Y60351D01*
X29105Y60351D01*
X29285Y60171D01*
G54D10*
G36*
X29980Y60462D02*
X29800Y60642D01*
X29800Y63907D01*
X29640Y64294D01*
X29345Y64589D01*
X28959Y64749D01*
X28542Y64750D01*
X28156Y64590D01*
X27860Y64295D01*
X27700Y63909D01*
X27699Y63492D01*
X27859Y63106D01*
X28154Y62810D01*
X28540Y62650D01*
X28957Y62649D01*
X29344Y62809D01*
X29639Y63104D01*
X29799Y63490D01*
X29800Y63907D01*
X29800Y60642D01*
X29496Y60946D01*
X29383Y61021D01*
X29361Y61026D01*
X29250Y61048D01*
X29249Y61048D01*
X28394Y61048D01*
X24746Y64696D01*
X24633Y64771D01*
X24611Y64776D01*
X24500Y64798D01*
X24499Y64798D01*
X14250Y64798D01*
X14116Y64771D01*
X14003Y64696D01*
X14003Y64696D01*
X13003Y63696D01*
X12928Y63583D01*
X12919Y63540D01*
X12750Y63574D01*
X12533Y63530D01*
X12350Y63408D01*
X12250Y63258D01*
X12149Y63408D01*
X11966Y63530D01*
X11750Y63574D01*
X11533Y63530D01*
X11350Y63408D01*
X11250Y63258D01*
X11149Y63408D01*
X10966Y63530D01*
X10750Y63574D01*
X10533Y63530D01*
X10350Y63408D01*
X10250Y63258D01*
X10149Y63408D01*
X9966Y63530D01*
X9750Y63574D01*
X9533Y63530D01*
X9350Y63408D01*
X9250Y63258D01*
X9149Y63408D01*
X8966Y63530D01*
X8750Y63574D01*
X8533Y63530D01*
X8350Y63408D01*
X8250Y63258D01*
X8149Y63408D01*
X7966Y63530D01*
X7750Y63574D01*
X7533Y63530D01*
X7350Y63408D01*
X7249Y63258D01*
X7149Y63408D01*
X6966Y63530D01*
X6750Y63574D01*
X6533Y63530D01*
X6350Y63408D01*
X6228Y63225D01*
X6185Y63009D01*
X6185Y62705D01*
X6228Y62489D01*
X6350Y62306D01*
X6441Y62245D01*
X6385Y62245D01*
X6293Y62207D01*
X6223Y62137D01*
X6185Y62045D01*
X6184Y61945D01*
X6185Y61655D01*
X6247Y61592D01*
X6700Y61592D01*
X6700Y61600D01*
X6800Y61600D01*
X6800Y61592D01*
X7185Y61592D01*
X7252Y61592D01*
X7700Y61592D01*
X7700Y61600D01*
X7800Y61600D01*
X7800Y61592D01*
X8185Y61592D01*
X8314Y61592D01*
X8700Y61592D01*
X8700Y61600D01*
X8800Y61600D01*
X8800Y61592D01*
X8807Y61592D01*
X8807Y61492D01*
X8800Y61492D01*
X8800Y61484D01*
X8700Y61484D01*
X8700Y61492D01*
X8314Y61492D01*
X8185Y61492D01*
X7800Y61492D01*
X7800Y60904D01*
X7887Y60856D01*
X7920Y60863D01*
X8114Y60969D01*
X8250Y61138D01*
X8385Y60969D01*
X8579Y60863D01*
X8612Y60856D01*
X8699Y60904D01*
X8699Y60892D01*
X8103Y60296D01*
X8046Y60210D01*
X7866Y60284D01*
X7700Y60284D01*
X7700Y60904D01*
X7700Y61492D01*
X7252Y61492D01*
X7185Y61492D01*
X6800Y61492D01*
X6800Y60902D01*
X6862Y60839D01*
X7114Y60839D01*
X7206Y60877D01*
X7276Y60947D01*
X7314Y61039D01*
X7314Y61058D01*
X7385Y60969D01*
X7579Y60863D01*
X7612Y60856D01*
X7700Y60904D01*
X7700Y60284D01*
X7634Y60284D01*
X7419Y60195D01*
X7254Y60031D01*
X7165Y59816D01*
X7165Y59584D01*
X7254Y59369D01*
X7418Y59204D01*
X7633Y59115D01*
X7865Y59115D01*
X8001Y59171D01*
X8001Y58194D01*
X7805Y57998D01*
X7084Y57998D01*
X7084Y59815D01*
X6995Y60030D01*
X6831Y60195D01*
X6700Y60249D01*
X6700Y60902D01*
X6700Y61492D01*
X6247Y61492D01*
X6185Y61430D01*
X6184Y61139D01*
X6185Y61039D01*
X6223Y60947D01*
X6293Y60877D01*
X6385Y60839D01*
X6637Y60839D01*
X6700Y60902D01*
X6700Y60249D01*
X6616Y60284D01*
X6384Y60284D01*
X6169Y60195D01*
X6004Y60031D01*
X5915Y59816D01*
X5915Y59584D01*
X6004Y59369D01*
X6168Y59204D01*
X6383Y59115D01*
X6615Y59115D01*
X6830Y59204D01*
X6995Y59368D01*
X7084Y59583D01*
X7084Y59815D01*
X7084Y57998D01*
X5950Y57998D01*
X5816Y57971D01*
X5703Y57896D01*
X5703Y57896D01*
X4355Y56548D01*
X2000Y56548D01*
X478Y56548D01*
X425Y56601D01*
X3749Y56601D01*
X3750Y56601D01*
X3750Y56601D01*
X3861Y56623D01*
X3883Y56628D01*
X3883Y56628D01*
X3996Y56703D01*
X4496Y57203D01*
X4496Y57203D01*
X4496Y57203D01*
X4571Y57316D01*
X4598Y57450D01*
X4598Y57450D01*
X4598Y57450D01*
X4598Y62027D01*
X4711Y62140D01*
X4795Y62341D01*
X4795Y62557D01*
X4712Y62758D01*
X4559Y62911D01*
X4358Y62995D01*
X4142Y62995D01*
X3941Y62912D01*
X3788Y62759D01*
X3704Y62558D01*
X3704Y62342D01*
X3787Y62141D01*
X3901Y62027D01*
X3901Y57594D01*
X3719Y57411D01*
X3719Y58027D01*
X3719Y58872D01*
X3718Y58972D01*
X3680Y59064D01*
X3610Y59134D01*
X3518Y59172D01*
X3340Y59172D01*
X3340Y62116D01*
X3213Y62425D01*
X2976Y62662D01*
X2667Y62790D01*
X2333Y62790D01*
X2024Y62663D01*
X1787Y62426D01*
X1659Y62117D01*
X1659Y61783D01*
X1787Y61474D01*
X2023Y61237D01*
X2332Y61109D01*
X2666Y61109D01*
X2975Y61237D01*
X3212Y61473D01*
X3340Y61782D01*
X3340Y62116D01*
X3340Y59172D01*
X2892Y59172D01*
X2830Y59110D01*
X2830Y58500D01*
X3656Y58500D01*
X3719Y58562D01*
X3719Y58872D01*
X3719Y58027D01*
X3719Y58337D01*
X3656Y58400D01*
X2830Y58400D01*
X2830Y57790D01*
X2892Y57727D01*
X3518Y57727D01*
X3610Y57765D01*
X3680Y57835D01*
X3718Y57927D01*
X3719Y58027D01*
X3719Y57411D01*
X3605Y57298D01*
X2730Y57298D01*
X2730Y57790D01*
X2730Y58400D01*
X2730Y58500D01*
X2730Y59110D01*
X2667Y59172D01*
X2041Y59172D01*
X1949Y59134D01*
X1879Y59064D01*
X1841Y58972D01*
X1840Y58872D01*
X1841Y58562D01*
X1903Y58500D01*
X2730Y58500D01*
X2730Y58400D01*
X1903Y58400D01*
X1841Y58337D01*
X1840Y58027D01*
X1841Y57927D01*
X1879Y57835D01*
X1949Y57765D01*
X2041Y57727D01*
X2667Y57727D01*
X2730Y57790D01*
X2730Y57298D01*
X1340Y57298D01*
X1340Y61408D01*
X1340Y62491D01*
X1340Y62590D01*
X1302Y62682D01*
X1231Y62752D01*
X1140Y62790D01*
X612Y62790D01*
X550Y62728D01*
X550Y62000D01*
X1278Y62000D01*
X1340Y62062D01*
X1340Y62491D01*
X1340Y61408D01*
X1340Y61837D01*
X1278Y61900D01*
X550Y61900D01*
X550Y61171D01*
X612Y61109D01*
X1140Y61109D01*
X1231Y61147D01*
X1302Y61217D01*
X1340Y61309D01*
X1340Y61408D01*
X1340Y57298D01*
X1159Y57298D01*
X1159Y58027D01*
X1159Y58972D01*
X1121Y59063D01*
X1050Y59134D01*
X958Y59172D01*
X859Y59172D01*
X450Y59172D01*
X450Y61171D01*
X450Y61900D01*
X450Y62000D01*
X450Y62728D01*
X387Y62790D01*
X-140Y62790D01*
X-231Y62752D01*
X-302Y62682D01*
X-340Y62590D01*
X-340Y62491D01*
X-340Y62062D01*
X-278Y62000D01*
X450Y62000D01*
X450Y61900D01*
X-278Y61900D01*
X-340Y61837D01*
X-340Y61408D01*
X-340Y61309D01*
X-302Y61217D01*
X-231Y61147D01*
X-140Y61109D01*
X387Y61109D01*
X450Y61171D01*
X450Y59172D01*
X-518Y59172D01*
X-610Y59134D01*
X-680Y59064D01*
X-718Y58972D01*
X-718Y58936D01*
X-797Y58936D01*
X-797Y58952D01*
X-835Y59044D01*
X-905Y59114D01*
X-997Y59152D01*
X-1096Y59152D01*
X-1701Y59152D01*
X-1701Y61050D01*
X-1787Y61484D01*
X-1827Y61544D01*
X-1827Y63223D01*
X-1827Y63676D01*
X-1838Y63724D01*
X-2027Y64125D01*
X-2355Y64423D01*
X-2772Y64573D01*
X-2950Y64523D01*
X-2950Y63500D01*
X-1868Y63500D01*
X-1827Y63676D01*
X-1827Y63223D01*
X-1868Y63400D01*
X-2950Y63400D01*
X-2950Y62376D01*
X-2772Y62326D01*
X-2355Y62476D01*
X-2027Y62774D01*
X-1838Y63175D01*
X-1827Y63223D01*
X-1827Y61544D01*
X-2034Y61853D01*
X-2402Y62099D01*
X-2837Y62185D01*
X-3162Y62185D01*
X-3597Y62099D01*
X-3825Y61947D01*
X-3761Y62270D01*
X-3761Y62582D01*
X-3644Y62476D01*
X-3227Y62326D01*
X-3050Y62376D01*
X-3050Y63400D01*
X-3057Y63400D01*
X-3057Y63500D01*
X-3050Y63500D01*
X-3050Y64523D01*
X-3227Y64573D01*
X-3644Y64423D01*
X-3972Y64125D01*
X-4161Y63724D01*
X-4172Y63676D01*
X-4146Y63567D01*
X-4340Y63696D01*
X-4700Y63768D01*
X-5059Y63696D01*
X-5363Y63493D01*
X-5567Y63188D01*
X-5638Y62829D01*
X-5638Y62270D01*
X-5567Y61911D01*
X-5363Y61606D01*
X-5059Y61403D01*
X-4700Y61331D01*
X-4340Y61403D01*
X-4206Y61492D01*
X-4212Y61484D01*
X-4298Y61050D01*
X-4212Y60615D01*
X-3965Y60246D01*
X-3597Y60000D01*
X-3162Y59914D01*
X-2837Y59914D01*
X-2402Y60000D01*
X-2034Y60246D01*
X-1787Y60615D01*
X-1701Y61050D01*
X-1701Y59152D01*
X-2002Y59152D01*
X-2094Y59114D01*
X-2164Y59044D01*
X-2202Y58952D01*
X-2202Y58853D01*
X-2202Y57947D01*
X-2164Y57855D01*
X-2094Y57785D01*
X-2002Y57747D01*
X-1903Y57747D01*
X-997Y57747D01*
X-905Y57785D01*
X-835Y57855D01*
X-797Y57947D01*
X-797Y57963D01*
X-719Y57963D01*
X-719Y57927D01*
X-681Y57836D01*
X-610Y57765D01*
X-518Y57727D01*
X-419Y57727D01*
X958Y57727D01*
X1050Y57765D01*
X1120Y57835D01*
X1158Y57927D01*
X1159Y58027D01*
X1159Y57298D01*
X-499Y57298D01*
X-500Y57298D01*
X-633Y57271D01*
X-746Y57196D01*
X-746Y57196D01*
X-1246Y56696D01*
X-1321Y56583D01*
X-1326Y56561D01*
X-1348Y56450D01*
X-1348Y56449D01*
X-1348Y52950D01*
X-1348Y52950D01*
X-1326Y52838D01*
X-1321Y52816D01*
X-1246Y52703D01*
X-746Y52203D01*
X-746Y52203D01*
X-633Y52128D01*
X-500Y52101D01*
X-500Y52101D01*
X-499Y52101D01*
X-478Y52101D01*
X-331Y51954D01*
X-116Y51865D01*
X115Y51865D01*
X275Y51931D01*
X401Y51805D01*
X401Y51653D01*
X342Y51712D01*
X120Y51804D01*
X-119Y51804D01*
X-341Y51712D01*
X-512Y51542D01*
X-604Y51320D01*
X-604Y51080D01*
X-512Y50858D01*
X-342Y50687D01*
X-120Y50595D01*
X119Y50595D01*
X341Y50687D01*
X401Y50746D01*
X401Y50403D01*
X342Y50462D01*
X120Y50554D01*
X-119Y50554D01*
X-341Y50462D01*
X-512Y50292D01*
X-604Y50070D01*
X-604Y49830D01*
X-512Y49608D01*
X-342Y49437D01*
X-192Y49375D01*
X-214Y49371D01*
X-395Y49249D01*
X-500Y49094D01*
X-604Y49249D01*
X-785Y49371D01*
X-1000Y49413D01*
X-1214Y49371D01*
X-1395Y49249D01*
X-1500Y49094D01*
X-1604Y49249D01*
X-1785Y49371D01*
X-2000Y49413D01*
X-2214Y49371D01*
X-2395Y49249D01*
X-2500Y49094D01*
X-2604Y49249D01*
X-2785Y49371D01*
X-2807Y49375D01*
X-2658Y49437D01*
X-2487Y49607D01*
X-2395Y49829D01*
X-2395Y50069D01*
X-2487Y50291D01*
X-2657Y50462D01*
X-2879Y50554D01*
X-3119Y50554D01*
X-3341Y50462D01*
X-3512Y50292D01*
X-3604Y50070D01*
X-3604Y49830D01*
X-3512Y49608D01*
X-3342Y49437D01*
X-3192Y49375D01*
X-3214Y49371D01*
X-3395Y49249D01*
X-3500Y49094D01*
X-3604Y49249D01*
X-3785Y49371D01*
X-4000Y49413D01*
X-4214Y49371D01*
X-4395Y49249D01*
X-4500Y49094D01*
X-4604Y49249D01*
X-4785Y49371D01*
X-4807Y49375D01*
X-4658Y49437D01*
X-4487Y49607D01*
X-4395Y49829D01*
X-4395Y50069D01*
X-4487Y50291D01*
X-4657Y50462D01*
X-4879Y50554D01*
X-5119Y50554D01*
X-5341Y50462D01*
X-5500Y50304D01*
X-5657Y50462D01*
X-5879Y50554D01*
X-6119Y50554D01*
X-6341Y50462D01*
X-6512Y50292D01*
X-6604Y50070D01*
X-6604Y49830D01*
X-6512Y49608D01*
X-6342Y49437D01*
X-6192Y49375D01*
X-6214Y49371D01*
X-6395Y49249D01*
X-6500Y49094D01*
X-6604Y49249D01*
X-6785Y49371D01*
X-7000Y49413D01*
X-7214Y49371D01*
X-7395Y49249D01*
X-7517Y49068D01*
X-7560Y48853D01*
X-7560Y48546D01*
X-7517Y48331D01*
X-7395Y48150D01*
X-7214Y48028D01*
X-7000Y47986D01*
X-6785Y48028D01*
X-6604Y48150D01*
X-6500Y48305D01*
X-6395Y48150D01*
X-6348Y48118D01*
X-6348Y47450D01*
X-6348Y47450D01*
X-6326Y47338D01*
X-6321Y47316D01*
X-6246Y47203D01*
X-5746Y46703D01*
X-5746Y46703D01*
X-5633Y46628D01*
X-5500Y46601D01*
X-5500Y46601D01*
X-5499Y46601D01*
X-1172Y46601D01*
X-1059Y46488D01*
X-858Y46404D01*
X-642Y46404D01*
X-441Y46487D01*
X-288Y46640D01*
X-204Y46841D01*
X-204Y47057D01*
X-287Y47258D01*
X-440Y47411D01*
X-641Y47495D01*
X-857Y47495D01*
X-1058Y47412D01*
X-1172Y47298D01*
X-5355Y47298D01*
X-5651Y47594D01*
X-5651Y48118D01*
X-5604Y48150D01*
X-5500Y48305D01*
X-5395Y48150D01*
X-5214Y48028D01*
X-5000Y47986D01*
X-4785Y48028D01*
X-4604Y48150D01*
X-4500Y48305D01*
X-4395Y48150D01*
X-4214Y48028D01*
X-4000Y47986D01*
X-3785Y48028D01*
X-3604Y48150D01*
X-3500Y48305D01*
X-3395Y48150D01*
X-3214Y48028D01*
X-3000Y47986D01*
X-2785Y48028D01*
X-2604Y48150D01*
X-2500Y48305D01*
X-2395Y48150D01*
X-2214Y48028D01*
X-2000Y47986D01*
X-1785Y48028D01*
X-1604Y48150D01*
X-1500Y48305D01*
X-1395Y48150D01*
X-1214Y48028D01*
X-1000Y47986D01*
X-785Y48028D01*
X-604Y48150D01*
X-500Y48305D01*
X-395Y48150D01*
X-214Y48028D01*
X0Y47986D01*
X214Y48028D01*
X395Y48150D01*
X401Y48158D01*
X401Y46220D01*
X360Y46271D01*
X168Y46376D01*
X136Y46383D01*
X50Y46334D01*
X50Y45750D01*
X57Y45750D01*
X57Y45650D01*
X50Y45650D01*
X50Y45065D01*
X136Y45016D01*
X168Y45023D01*
X360Y45128D01*
X401Y45179D01*
X401Y44344D01*
X-50Y43892D01*
X-50Y45065D01*
X-50Y45650D01*
X-57Y45650D01*
X-57Y45750D01*
X-50Y45750D01*
X-50Y46334D01*
X-136Y46383D01*
X-168Y46376D01*
X-360Y46271D01*
X-498Y46100D01*
X-500Y46094D01*
X-604Y46249D01*
X-785Y46371D01*
X-1000Y46413D01*
X-1214Y46371D01*
X-1395Y46249D01*
X-1500Y46094D01*
X-1604Y46249D01*
X-1785Y46371D01*
X-2000Y46413D01*
X-2214Y46371D01*
X-2395Y46249D01*
X-2500Y46094D01*
X-2604Y46249D01*
X-2785Y46371D01*
X-3000Y46413D01*
X-3214Y46371D01*
X-3395Y46249D01*
X-3500Y46094D01*
X-3604Y46249D01*
X-3785Y46371D01*
X-4000Y46413D01*
X-4214Y46371D01*
X-4395Y46249D01*
X-4500Y46094D01*
X-4604Y46249D01*
X-4785Y46371D01*
X-5000Y46413D01*
X-5214Y46371D01*
X-5395Y46249D01*
X-5500Y46094D01*
X-5604Y46249D01*
X-5785Y46371D01*
X-6000Y46413D01*
X-6214Y46371D01*
X-6395Y46249D01*
X-6439Y46183D01*
X-6439Y46199D01*
X-6477Y46291D01*
X-6548Y46361D01*
X-6640Y46399D01*
X-6739Y46400D01*
X-7359Y46400D01*
X-7451Y46362D01*
X-7521Y46291D01*
X-7559Y46199D01*
X-7560Y46100D01*
X-7560Y45200D01*
X-7522Y45108D01*
X-7451Y45038D01*
X-7359Y45000D01*
X-7260Y44999D01*
X-6640Y44999D01*
X-6548Y45037D01*
X-6478Y45108D01*
X-6440Y45200D01*
X-6440Y45216D01*
X-6395Y45150D01*
X-6214Y45028D01*
X-6192Y45024D01*
X-6341Y44962D01*
X-6512Y44792D01*
X-6604Y44570D01*
X-6604Y44330D01*
X-6512Y44108D01*
X-6342Y43937D01*
X-6120Y43845D01*
X-5880Y43845D01*
X-5658Y43937D01*
X-5487Y44107D01*
X-5395Y44329D01*
X-5395Y44569D01*
X-5487Y44791D01*
X-5657Y44962D01*
X-5807Y45024D01*
X-5785Y45028D01*
X-5604Y45150D01*
X-5500Y45305D01*
X-5395Y45150D01*
X-5214Y45028D01*
X-5000Y44986D01*
X-4785Y45028D01*
X-4604Y45150D01*
X-4500Y45305D01*
X-4395Y45150D01*
X-4214Y45028D01*
X-4000Y44986D01*
X-3785Y45028D01*
X-3604Y45150D01*
X-3500Y45305D01*
X-3395Y45150D01*
X-3214Y45028D01*
X-3192Y45024D01*
X-3341Y44962D01*
X-3512Y44792D01*
X-3604Y44570D01*
X-3604Y44330D01*
X-3512Y44108D01*
X-3342Y43937D01*
X-3120Y43845D01*
X-2880Y43845D01*
X-2658Y43937D01*
X-2499Y44095D01*
X-2342Y43937D01*
X-2120Y43845D01*
X-1880Y43845D01*
X-1658Y43937D01*
X-1499Y44095D01*
X-1342Y43937D01*
X-1120Y43845D01*
X-880Y43845D01*
X-658Y43937D01*
X-487Y44107D01*
X-395Y44329D01*
X-395Y44569D01*
X-487Y44791D01*
X-657Y44962D01*
X-807Y45024D01*
X-785Y45028D01*
X-604Y45150D01*
X-500Y45305D01*
X-498Y45299D01*
X-360Y45128D01*
X-168Y45023D01*
X-136Y45016D01*
X-50Y45065D01*
X-50Y43892D01*
X-394Y43548D01*
X-1750Y43548D01*
X-1750Y43548D01*
X-1883Y43521D01*
X-1996Y43446D01*
X-1996Y43446D01*
X-2746Y42696D01*
X-2821Y42583D01*
X-2848Y42450D01*
X-2834Y42380D01*
X-3000Y42413D01*
X-3214Y42371D01*
X-3395Y42249D01*
X-3500Y42094D01*
X-3604Y42249D01*
X-3785Y42371D01*
X-4000Y42413D01*
X-4214Y42371D01*
X-4395Y42249D01*
X-4500Y42094D01*
X-4604Y42249D01*
X-4785Y42371D01*
X-5000Y42413D01*
X-5165Y42380D01*
X-5151Y42450D01*
X-5151Y42700D01*
X-5151Y42700D01*
X-5151Y42700D01*
X-5178Y42833D01*
X-5253Y42946D01*
X-5253Y42946D01*
X-6003Y43696D01*
X-6116Y43771D01*
X-6138Y43776D01*
X-6250Y43798D01*
X-6250Y43798D01*
X-7355Y43798D01*
X-7651Y44094D01*
X-7651Y49555D01*
X-6355Y50851D01*
X-4750Y50851D01*
X-3506Y50851D01*
X-3342Y50687D01*
X-3120Y50595D01*
X-2880Y50595D01*
X-2658Y50687D01*
X-2487Y50857D01*
X-2395Y51079D01*
X-2395Y51319D01*
X-2415Y51367D01*
X-2415Y52565D01*
X-2415Y53815D01*
X-2415Y55065D01*
X-2415Y56315D01*
X-2504Y56530D01*
X-2668Y56695D01*
X-2883Y56784D01*
X-3115Y56784D01*
X-3330Y56695D01*
X-3495Y56531D01*
X-3584Y56316D01*
X-3584Y56084D01*
X-3495Y55869D01*
X-3331Y55704D01*
X-3116Y55615D01*
X-2884Y55615D01*
X-2669Y55704D01*
X-2504Y55868D01*
X-2415Y56083D01*
X-2415Y56315D01*
X-2415Y55065D01*
X-2504Y55280D01*
X-2668Y55445D01*
X-2883Y55534D01*
X-3115Y55534D01*
X-3330Y55445D01*
X-3495Y55281D01*
X-3584Y55066D01*
X-3584Y54834D01*
X-3495Y54619D01*
X-3331Y54454D01*
X-3116Y54365D01*
X-2884Y54365D01*
X-2669Y54454D01*
X-2504Y54618D01*
X-2415Y54833D01*
X-2415Y55065D01*
X-2415Y53815D01*
X-2504Y54030D01*
X-2668Y54195D01*
X-2883Y54284D01*
X-3115Y54284D01*
X-3330Y54195D01*
X-3495Y54031D01*
X-3584Y53816D01*
X-3584Y53584D01*
X-3495Y53369D01*
X-3331Y53204D01*
X-3116Y53115D01*
X-2884Y53115D01*
X-2669Y53204D01*
X-2504Y53368D01*
X-2415Y53583D01*
X-2415Y53815D01*
X-2415Y52565D01*
X-2504Y52780D01*
X-2668Y52945D01*
X-2883Y53034D01*
X-3115Y53034D01*
X-3330Y52945D01*
X-3495Y52781D01*
X-3584Y52566D01*
X-3584Y52334D01*
X-3495Y52119D01*
X-3331Y51954D01*
X-3116Y51865D01*
X-2884Y51865D01*
X-2669Y51954D01*
X-2504Y52118D01*
X-2415Y52333D01*
X-2415Y52565D01*
X-2415Y51367D01*
X-2487Y51541D01*
X-2657Y51712D01*
X-2879Y51804D01*
X-3119Y51804D01*
X-3341Y51712D01*
X-3506Y51548D01*
X-4401Y51548D01*
X-4401Y52228D01*
X-4385Y52228D01*
X-4293Y52266D01*
X-4223Y52337D01*
X-4185Y52429D01*
X-4184Y52528D01*
X-4184Y53552D01*
X-4222Y53644D01*
X-4278Y53700D01*
X-4222Y53755D01*
X-4184Y53847D01*
X-4184Y54970D01*
X-4222Y55062D01*
X-4293Y55132D01*
X-4385Y55170D01*
X-4484Y55171D01*
X-4637Y55171D01*
X-4700Y55108D01*
X-4700Y54459D01*
X-4247Y54459D01*
X-4185Y54521D01*
X-4184Y54970D01*
X-4184Y53847D01*
X-4185Y54296D01*
X-4247Y54359D01*
X-4700Y54359D01*
X-4700Y54351D01*
X-4793Y54351D01*
X-4793Y58331D01*
X-4801Y58611D01*
X-4892Y58829D01*
X-5003Y58875D01*
X-5074Y58805D01*
X-5074Y58946D01*
X-5120Y59057D01*
X-5381Y59156D01*
X-5661Y59148D01*
X-5879Y59057D01*
X-5925Y58946D01*
X-5500Y58520D01*
X-5074Y58946D01*
X-5074Y58805D01*
X-5429Y58450D01*
X-5003Y58024D01*
X-4892Y58070D01*
X-4793Y58331D01*
X-4793Y54351D01*
X-4800Y54351D01*
X-4800Y54359D01*
X-4800Y54459D01*
X-4800Y55108D01*
X-4862Y55171D01*
X-5015Y55171D01*
X-5074Y55170D01*
X-5074Y57953D01*
X-5500Y58379D01*
X-5570Y58308D01*
X-5570Y58450D01*
X-5996Y58875D01*
X-6107Y58829D01*
X-6206Y58568D01*
X-6198Y58288D01*
X-6107Y58070D01*
X-5996Y58024D01*
X-5570Y58450D01*
X-5570Y58308D01*
X-5925Y57953D01*
X-5879Y57842D01*
X-5618Y57743D01*
X-5338Y57751D01*
X-5120Y57842D01*
X-5074Y57953D01*
X-5074Y55170D01*
X-5114Y55170D01*
X-5206Y55132D01*
X-5277Y55062D01*
X-5315Y54970D01*
X-5315Y54521D01*
X-5252Y54459D01*
X-4800Y54459D01*
X-4800Y54359D01*
X-5252Y54359D01*
X-5315Y54296D01*
X-5315Y53847D01*
X-5277Y53755D01*
X-5221Y53699D01*
X-5239Y53682D01*
X-5401Y53844D01*
X-5401Y55949D01*
X-5401Y55950D01*
X-5401Y55950D01*
X-5428Y56083D01*
X-5503Y56196D01*
X-5503Y56196D01*
X-6003Y56696D01*
X-6116Y56771D01*
X-6138Y56776D01*
X-6216Y56791D01*
X-6216Y57642D01*
X-6216Y57800D01*
X-6216Y57900D01*
X-6216Y58057D01*
X-6288Y58315D01*
X-6449Y58522D01*
X-6449Y63907D01*
X-6609Y64294D01*
X-6904Y64589D01*
X-7290Y64749D01*
X-7707Y64750D01*
X-8094Y64590D01*
X-8389Y64295D01*
X-8549Y63909D01*
X-8550Y63492D01*
X-8390Y63106D01*
X-8095Y62810D01*
X-7709Y62650D01*
X-7292Y62649D01*
X-6906Y62809D01*
X-6610Y63104D01*
X-6450Y63490D01*
X-6449Y63907D01*
X-6449Y58522D01*
X-6452Y58525D01*
X-6684Y58657D01*
X-6744Y58672D01*
X-6850Y58626D01*
X-6850Y57900D01*
X-6216Y57900D01*
X-6216Y57800D01*
X-6850Y57800D01*
X-6850Y57073D01*
X-6744Y57027D01*
X-6684Y57042D01*
X-6452Y57174D01*
X-6288Y57384D01*
X-6216Y57642D01*
X-6216Y56791D01*
X-6250Y56798D01*
X-6250Y56798D01*
X-6950Y56798D01*
X-6950Y57073D01*
X-6950Y57800D01*
X-6957Y57800D01*
X-6957Y57900D01*
X-6950Y57900D01*
X-6950Y58626D01*
X-7055Y58672D01*
X-7115Y58657D01*
X-7347Y58525D01*
X-7511Y58315D01*
X-7583Y58057D01*
X-7583Y58004D01*
X-7699Y58070D01*
X-7750Y58082D01*
X-7850Y58035D01*
X-7850Y57400D01*
X-7842Y57400D01*
X-7842Y57300D01*
X-7850Y57300D01*
X-7850Y56664D01*
X-7750Y56617D01*
X-7699Y56629D01*
X-7480Y56753D01*
X-7324Y56951D01*
X-7273Y57132D01*
X-7115Y57042D01*
X-7055Y57027D01*
X-6950Y57073D01*
X-6950Y56798D01*
X-7250Y56798D01*
X-7383Y56771D01*
X-7496Y56696D01*
X-7496Y56696D01*
X-7881Y56311D01*
X-7900Y56314D01*
X-7950Y56304D01*
X-7950Y56664D01*
X-7950Y57300D01*
X-7950Y57400D01*
X-7950Y58035D01*
X-8049Y58082D01*
X-8100Y58070D01*
X-8319Y57946D01*
X-8475Y57748D01*
X-8543Y57506D01*
X-8543Y57400D01*
X-7950Y57400D01*
X-7950Y57300D01*
X-8543Y57300D01*
X-8543Y57193D01*
X-8475Y56951D01*
X-8319Y56753D01*
X-8100Y56629D01*
X-8049Y56617D01*
X-7950Y56664D01*
X-7950Y56304D01*
X-8146Y56265D01*
X-8355Y56126D01*
X-8494Y55917D01*
X-8543Y55670D01*
X-8543Y55429D01*
X-8494Y55182D01*
X-8355Y54973D01*
X-8146Y54834D01*
X-7900Y54785D01*
X-7653Y54834D01*
X-7583Y54881D01*
X-7583Y54842D01*
X-7511Y54584D01*
X-7347Y54374D01*
X-7115Y54242D01*
X-7055Y54227D01*
X-6950Y54273D01*
X-6950Y55000D01*
X-6957Y55000D01*
X-6957Y55100D01*
X-6950Y55100D01*
X-6950Y55826D01*
X-7055Y55872D01*
X-7115Y55857D01*
X-7275Y55766D01*
X-7302Y55904D01*
X-7105Y56101D01*
X-6394Y56101D01*
X-6098Y55805D01*
X-6098Y53700D01*
X-6098Y53700D01*
X-6076Y53588D01*
X-6071Y53566D01*
X-5996Y53453D01*
X-5315Y52772D01*
X-5315Y52429D01*
X-5277Y52337D01*
X-5206Y52267D01*
X-5114Y52229D01*
X-5098Y52229D01*
X-5098Y51548D01*
X-6216Y51548D01*
X-6216Y54842D01*
X-6216Y55000D01*
X-6216Y55100D01*
X-6216Y55257D01*
X-6288Y55515D01*
X-6452Y55725D01*
X-6684Y55857D01*
X-6744Y55872D01*
X-6850Y55826D01*
X-6850Y55100D01*
X-6216Y55100D01*
X-6216Y55000D01*
X-6850Y55000D01*
X-6850Y54273D01*
X-6744Y54227D01*
X-6684Y54242D01*
X-6452Y54374D01*
X-6288Y54584D01*
X-6216Y54842D01*
X-6216Y51548D01*
X-6500Y51548D01*
X-6633Y51521D01*
X-6746Y51446D01*
X-6746Y51446D01*
X-8246Y49946D01*
X-8321Y49833D01*
X-8326Y49811D01*
X-8348Y49700D01*
X-8348Y49699D01*
X-8348Y43950D01*
X-8348Y43950D01*
X-8326Y43838D01*
X-8321Y43816D01*
X-8246Y43703D01*
X-7746Y43203D01*
X-7746Y43203D01*
X-7633Y43128D01*
X-7500Y43101D01*
X-7500Y43101D01*
X-7499Y43101D01*
X-6394Y43101D01*
X-5848Y42555D01*
X-5848Y42450D01*
X-5833Y42376D01*
X-5863Y42383D01*
X-5950Y42334D01*
X-5950Y41750D01*
X-5942Y41750D01*
X-5942Y41650D01*
X-5950Y41650D01*
X-5950Y41065D01*
X-5863Y41016D01*
X-5833Y41023D01*
X-5848Y40950D01*
X-5848Y40200D01*
X-5848Y40200D01*
X-5826Y40088D01*
X-5821Y40066D01*
X-5746Y39953D01*
X-5348Y39555D01*
X-5348Y39281D01*
X-5395Y39249D01*
X-5500Y39094D01*
X-5592Y39232D01*
X-5592Y39450D01*
X-5623Y39605D01*
X-5623Y39605D01*
X-5658Y39658D01*
X-5711Y39738D01*
X-5711Y39738D01*
X-6592Y40618D01*
X-6592Y41167D01*
X-6500Y41305D01*
X-6498Y41299D01*
X-6360Y41128D01*
X-6168Y41023D01*
X-6136Y41016D01*
X-6050Y41065D01*
X-6050Y41650D01*
X-6057Y41650D01*
X-6057Y41750D01*
X-6050Y41750D01*
X-6050Y42334D01*
X-6136Y42383D01*
X-6168Y42376D01*
X-6360Y42271D01*
X-6498Y42100D01*
X-6500Y42094D01*
X-6604Y42249D01*
X-6785Y42371D01*
X-7000Y42413D01*
X-7214Y42371D01*
X-7395Y42249D01*
X-7517Y42068D01*
X-7560Y41853D01*
X-7560Y41546D01*
X-7517Y41331D01*
X-7407Y41167D01*
X-7407Y40450D01*
X-7407Y40450D01*
X-7376Y40294D01*
X-7288Y40161D01*
X-6407Y39281D01*
X-6407Y39232D01*
X-6440Y39183D01*
X-6440Y39199D01*
X-6478Y39291D01*
X-6548Y39362D01*
X-6640Y39400D01*
X-6887Y39400D01*
X-6950Y39337D01*
X-6950Y38750D01*
X-6942Y38750D01*
X-6942Y38650D01*
X-6950Y38650D01*
X-6950Y38642D01*
X-7050Y38642D01*
X-7050Y38650D01*
X-7050Y38750D01*
X-7050Y39337D01*
X-7112Y39400D01*
X-7359Y39400D01*
X-7451Y39362D01*
X-7521Y39291D01*
X-7559Y39199D01*
X-7560Y39100D01*
X-7560Y38812D01*
X-7497Y38750D01*
X-7050Y38750D01*
X-7050Y38650D01*
X-7497Y38650D01*
X-7560Y38587D01*
X-7560Y38299D01*
X-7559Y38200D01*
X-7521Y38108D01*
X-7461Y38048D01*
X-8250Y38048D01*
X-8383Y38021D01*
X-8496Y37946D01*
X-8496Y37946D01*
X-8730Y37712D01*
X-8730Y64930D01*
X29980Y64930D01*
X29980Y60462D01*
X29980Y60462D01*
G37*
G54D45*
X29980Y60462D02*
X29800Y60642D01*
X29800Y63907D01*
X29640Y64294D01*
X29345Y64589D01*
X28959Y64749D01*
X28542Y64750D01*
X28156Y64590D01*
X27860Y64295D01*
X27700Y63909D01*
X27699Y63492D01*
X27859Y63106D01*
X28154Y62810D01*
X28540Y62650D01*
X28957Y62649D01*
X29344Y62809D01*
X29639Y63104D01*
X29799Y63490D01*
X29800Y63907D01*
X29800Y60642D01*
X29496Y60946D01*
X29383Y61021D01*
X29361Y61026D01*
X29250Y61048D01*
X29249Y61048D01*
X28394Y61048D01*
X24746Y64696D01*
X24633Y64771D01*
X24611Y64776D01*
X24500Y64798D01*
X24499Y64798D01*
X14250Y64798D01*
X14116Y64771D01*
X14003Y64696D01*
X14003Y64696D01*
X13003Y63696D01*
X12928Y63583D01*
X12919Y63540D01*
X12750Y63574D01*
X12533Y63530D01*
X12350Y63408D01*
X12250Y63258D01*
X12149Y63408D01*
X11966Y63530D01*
X11750Y63574D01*
X11533Y63530D01*
X11350Y63408D01*
X11250Y63258D01*
X11149Y63408D01*
X10966Y63530D01*
X10750Y63574D01*
X10533Y63530D01*
X10350Y63408D01*
X10250Y63258D01*
X10149Y63408D01*
X9966Y63530D01*
X9750Y63574D01*
X9533Y63530D01*
X9350Y63408D01*
X9250Y63258D01*
X9149Y63408D01*
X8966Y63530D01*
X8750Y63574D01*
X8533Y63530D01*
X8350Y63408D01*
X8250Y63258D01*
X8149Y63408D01*
X7966Y63530D01*
X7750Y63574D01*
X7533Y63530D01*
X7350Y63408D01*
X7249Y63258D01*
X7149Y63408D01*
X6966Y63530D01*
X6750Y63574D01*
X6533Y63530D01*
X6350Y63408D01*
X6228Y63225D01*
X6185Y63009D01*
X6185Y62705D01*
X6228Y62489D01*
X6350Y62306D01*
X6441Y62245D01*
X6385Y62245D01*
X6293Y62207D01*
X6223Y62137D01*
X6185Y62045D01*
X6184Y61945D01*
X6185Y61655D01*
X6247Y61592D01*
X6700Y61592D01*
X6700Y61600D01*
X6800Y61600D01*
X6800Y61592D01*
X7185Y61592D01*
X7252Y61592D01*
X7700Y61592D01*
X7700Y61600D01*
X7800Y61600D01*
X7800Y61592D01*
X8185Y61592D01*
X8314Y61592D01*
X8700Y61592D01*
X8700Y61600D01*
X8800Y61600D01*
X8800Y61592D01*
X8807Y61592D01*
X8807Y61492D01*
X8800Y61492D01*
X8800Y61484D01*
X8700Y61484D01*
X8700Y61492D01*
X8314Y61492D01*
X8185Y61492D01*
X7800Y61492D01*
X7800Y60904D01*
X7887Y60856D01*
X7920Y60863D01*
X8114Y60969D01*
X8250Y61138D01*
X8385Y60969D01*
X8579Y60863D01*
X8612Y60856D01*
X8699Y60904D01*
X8699Y60892D01*
X8103Y60296D01*
X8046Y60210D01*
X7866Y60284D01*
X7700Y60284D01*
X7700Y60904D01*
X7700Y61492D01*
X7252Y61492D01*
X7185Y61492D01*
X6800Y61492D01*
X6800Y60902D01*
X6862Y60839D01*
X7114Y60839D01*
X7206Y60877D01*
X7276Y60947D01*
X7314Y61039D01*
X7314Y61058D01*
X7385Y60969D01*
X7579Y60863D01*
X7612Y60856D01*
X7700Y60904D01*
X7700Y60284D01*
X7634Y60284D01*
X7419Y60195D01*
X7254Y60031D01*
X7165Y59816D01*
X7165Y59584D01*
X7254Y59369D01*
X7418Y59204D01*
X7633Y59115D01*
X7865Y59115D01*
X8001Y59171D01*
X8001Y58194D01*
X7805Y57998D01*
X7084Y57998D01*
X7084Y59815D01*
X6995Y60030D01*
X6831Y60195D01*
X6700Y60249D01*
X6700Y60902D01*
X6700Y61492D01*
X6247Y61492D01*
X6185Y61430D01*
X6184Y61139D01*
X6185Y61039D01*
X6223Y60947D01*
X6293Y60877D01*
X6385Y60839D01*
X6637Y60839D01*
X6700Y60902D01*
X6700Y60249D01*
X6616Y60284D01*
X6384Y60284D01*
X6169Y60195D01*
X6004Y60031D01*
X5915Y59816D01*
X5915Y59584D01*
X6004Y59369D01*
X6168Y59204D01*
X6383Y59115D01*
X6615Y59115D01*
X6830Y59204D01*
X6995Y59368D01*
X7084Y59583D01*
X7084Y59815D01*
X7084Y57998D01*
X5950Y57998D01*
X5816Y57971D01*
X5703Y57896D01*
X5703Y57896D01*
X4355Y56548D01*
X2000Y56548D01*
X478Y56548D01*
X425Y56601D01*
X3749Y56601D01*
X3750Y56601D01*
X3750Y56601D01*
X3861Y56623D01*
X3883Y56628D01*
X3883Y56628D01*
X3996Y56703D01*
X4496Y57203D01*
X4496Y57203D01*
X4496Y57203D01*
X4571Y57316D01*
X4598Y57450D01*
X4598Y57450D01*
X4598Y57450D01*
X4598Y62027D01*
X4711Y62140D01*
X4795Y62341D01*
X4795Y62557D01*
X4712Y62758D01*
X4559Y62911D01*
X4358Y62995D01*
X4142Y62995D01*
X3941Y62912D01*
X3788Y62759D01*
X3704Y62558D01*
X3704Y62342D01*
X3787Y62141D01*
X3901Y62027D01*
X3901Y57594D01*
X3719Y57411D01*
X3719Y58027D01*
X3719Y58872D01*
X3718Y58972D01*
X3680Y59064D01*
X3610Y59134D01*
X3518Y59172D01*
X3340Y59172D01*
X3340Y62116D01*
X3213Y62425D01*
X2976Y62662D01*
X2667Y62790D01*
X2333Y62790D01*
X2024Y62663D01*
X1787Y62426D01*
X1659Y62117D01*
X1659Y61783D01*
X1787Y61474D01*
X2023Y61237D01*
X2332Y61109D01*
X2666Y61109D01*
X2975Y61237D01*
X3212Y61473D01*
X3340Y61782D01*
X3340Y62116D01*
X3340Y59172D01*
X2892Y59172D01*
X2830Y59110D01*
X2830Y58500D01*
X3656Y58500D01*
X3719Y58562D01*
X3719Y58872D01*
X3719Y58027D01*
X3719Y58337D01*
X3656Y58400D01*
X2830Y58400D01*
X2830Y57790D01*
X2892Y57727D01*
X3518Y57727D01*
X3610Y57765D01*
X3680Y57835D01*
X3718Y57927D01*
X3719Y58027D01*
X3719Y57411D01*
X3605Y57298D01*
X2730Y57298D01*
X2730Y57790D01*
X2730Y58400D01*
X2730Y58500D01*
X2730Y59110D01*
X2667Y59172D01*
X2041Y59172D01*
X1949Y59134D01*
X1879Y59064D01*
X1841Y58972D01*
X1840Y58872D01*
X1841Y58562D01*
X1903Y58500D01*
X2730Y58500D01*
X2730Y58400D01*
X1903Y58400D01*
X1841Y58337D01*
X1840Y58027D01*
X1841Y57927D01*
X1879Y57835D01*
X1949Y57765D01*
X2041Y57727D01*
X2667Y57727D01*
X2730Y57790D01*
X2730Y57298D01*
X1340Y57298D01*
X1340Y61408D01*
X1340Y62491D01*
X1340Y62590D01*
X1302Y62682D01*
X1231Y62752D01*
X1140Y62790D01*
X612Y62790D01*
X550Y62728D01*
X550Y62000D01*
X1278Y62000D01*
X1340Y62062D01*
X1340Y62491D01*
X1340Y61408D01*
X1340Y61837D01*
X1278Y61900D01*
X550Y61900D01*
X550Y61171D01*
X612Y61109D01*
X1140Y61109D01*
X1231Y61147D01*
X1302Y61217D01*
X1340Y61309D01*
X1340Y61408D01*
X1340Y57298D01*
X1159Y57298D01*
X1159Y58027D01*
X1159Y58972D01*
X1121Y59063D01*
X1050Y59134D01*
X958Y59172D01*
X859Y59172D01*
X450Y59172D01*
X450Y61171D01*
X450Y61900D01*
X450Y62000D01*
X450Y62728D01*
X387Y62790D01*
X-140Y62790D01*
X-231Y62752D01*
X-302Y62682D01*
X-340Y62590D01*
X-340Y62491D01*
X-340Y62062D01*
X-278Y62000D01*
X450Y62000D01*
X450Y61900D01*
X-278Y61900D01*
X-340Y61837D01*
X-340Y61408D01*
X-340Y61309D01*
X-302Y61217D01*
X-231Y61147D01*
X-140Y61109D01*
X387Y61109D01*
X450Y61171D01*
X450Y59172D01*
X-518Y59172D01*
X-610Y59134D01*
X-680Y59064D01*
X-718Y58972D01*
X-718Y58936D01*
X-797Y58936D01*
X-797Y58952D01*
X-835Y59044D01*
X-905Y59114D01*
X-997Y59152D01*
X-1096Y59152D01*
X-1701Y59152D01*
X-1701Y61050D01*
X-1787Y61484D01*
X-1827Y61544D01*
X-1827Y63223D01*
X-1827Y63676D01*
X-1838Y63724D01*
X-2027Y64125D01*
X-2355Y64423D01*
X-2772Y64573D01*
X-2950Y64523D01*
X-2950Y63500D01*
X-1868Y63500D01*
X-1827Y63676D01*
X-1827Y63223D01*
X-1868Y63400D01*
X-2950Y63400D01*
X-2950Y62376D01*
X-2772Y62326D01*
X-2355Y62476D01*
X-2027Y62774D01*
X-1838Y63175D01*
X-1827Y63223D01*
X-1827Y61544D01*
X-2034Y61853D01*
X-2402Y62099D01*
X-2837Y62185D01*
X-3162Y62185D01*
X-3597Y62099D01*
X-3825Y61947D01*
X-3761Y62270D01*
X-3761Y62582D01*
X-3644Y62476D01*
X-3227Y62326D01*
X-3050Y62376D01*
X-3050Y63400D01*
X-3057Y63400D01*
X-3057Y63500D01*
X-3050Y63500D01*
X-3050Y64523D01*
X-3227Y64573D01*
X-3644Y64423D01*
X-3972Y64125D01*
X-4161Y63724D01*
X-4172Y63676D01*
X-4146Y63567D01*
X-4340Y63696D01*
X-4700Y63768D01*
X-5059Y63696D01*
X-5363Y63493D01*
X-5567Y63188D01*
X-5638Y62829D01*
X-5638Y62270D01*
X-5567Y61911D01*
X-5363Y61606D01*
X-5059Y61403D01*
X-4700Y61331D01*
X-4340Y61403D01*
X-4206Y61492D01*
X-4212Y61484D01*
X-4298Y61050D01*
X-4212Y60615D01*
X-3965Y60246D01*
X-3597Y60000D01*
X-3162Y59914D01*
X-2837Y59914D01*
X-2402Y60000D01*
X-2034Y60246D01*
X-1787Y60615D01*
X-1701Y61050D01*
X-1701Y59152D01*
X-2002Y59152D01*
X-2094Y59114D01*
X-2164Y59044D01*
X-2202Y58952D01*
X-2202Y58853D01*
X-2202Y57947D01*
X-2164Y57855D01*
X-2094Y57785D01*
X-2002Y57747D01*
X-1903Y57747D01*
X-997Y57747D01*
X-905Y57785D01*
X-835Y57855D01*
X-797Y57947D01*
X-797Y57963D01*
X-719Y57963D01*
X-719Y57927D01*
X-681Y57836D01*
X-610Y57765D01*
X-518Y57727D01*
X-419Y57727D01*
X958Y57727D01*
X1050Y57765D01*
X1120Y57835D01*
X1158Y57927D01*
X1159Y58027D01*
X1159Y57298D01*
X-499Y57298D01*
X-500Y57298D01*
X-633Y57271D01*
X-746Y57196D01*
X-746Y57196D01*
X-1246Y56696D01*
X-1321Y56583D01*
X-1326Y56561D01*
X-1348Y56450D01*
X-1348Y56449D01*
X-1348Y52950D01*
X-1348Y52950D01*
X-1326Y52838D01*
X-1321Y52816D01*
X-1246Y52703D01*
X-746Y52203D01*
X-746Y52203D01*
X-633Y52128D01*
X-500Y52101D01*
X-500Y52101D01*
X-499Y52101D01*
X-478Y52101D01*
X-331Y51954D01*
X-116Y51865D01*
X115Y51865D01*
X275Y51931D01*
X401Y51805D01*
X401Y51653D01*
X342Y51712D01*
X120Y51804D01*
X-119Y51804D01*
X-341Y51712D01*
X-512Y51542D01*
X-604Y51320D01*
X-604Y51080D01*
X-512Y50858D01*
X-342Y50687D01*
X-120Y50595D01*
X119Y50595D01*
X341Y50687D01*
X401Y50746D01*
X401Y50403D01*
X342Y50462D01*
X120Y50554D01*
X-119Y50554D01*
X-341Y50462D01*
X-512Y50292D01*
X-604Y50070D01*
X-604Y49830D01*
X-512Y49608D01*
X-342Y49437D01*
X-192Y49375D01*
X-214Y49371D01*
X-395Y49249D01*
X-500Y49094D01*
X-604Y49249D01*
X-785Y49371D01*
X-1000Y49413D01*
X-1214Y49371D01*
X-1395Y49249D01*
X-1500Y49094D01*
X-1604Y49249D01*
X-1785Y49371D01*
X-2000Y49413D01*
X-2214Y49371D01*
X-2395Y49249D01*
X-2500Y49094D01*
X-2604Y49249D01*
X-2785Y49371D01*
X-2807Y49375D01*
X-2658Y49437D01*
X-2487Y49607D01*
X-2395Y49829D01*
X-2395Y50069D01*
X-2487Y50291D01*
X-2657Y50462D01*
X-2879Y50554D01*
X-3119Y50554D01*
X-3341Y50462D01*
X-3512Y50292D01*
X-3604Y50070D01*
X-3604Y49830D01*
X-3512Y49608D01*
X-3342Y49437D01*
X-3192Y49375D01*
X-3214Y49371D01*
X-3395Y49249D01*
X-3500Y49094D01*
X-3604Y49249D01*
X-3785Y49371D01*
X-4000Y49413D01*
X-4214Y49371D01*
X-4395Y49249D01*
X-4500Y49094D01*
X-4604Y49249D01*
X-4785Y49371D01*
X-4807Y49375D01*
X-4658Y49437D01*
X-4487Y49607D01*
X-4395Y49829D01*
X-4395Y50069D01*
X-4487Y50291D01*
X-4657Y50462D01*
X-4879Y50554D01*
X-5119Y50554D01*
X-5341Y50462D01*
X-5500Y50304D01*
X-5657Y50462D01*
X-5879Y50554D01*
X-6119Y50554D01*
X-6341Y50462D01*
X-6512Y50292D01*
X-6604Y50070D01*
X-6604Y49830D01*
X-6512Y49608D01*
X-6342Y49437D01*
X-6192Y49375D01*
X-6214Y49371D01*
X-6395Y49249D01*
X-6500Y49094D01*
X-6604Y49249D01*
X-6785Y49371D01*
X-7000Y49413D01*
X-7214Y49371D01*
X-7395Y49249D01*
X-7517Y49068D01*
X-7560Y48853D01*
X-7560Y48546D01*
X-7517Y48331D01*
X-7395Y48150D01*
X-7214Y48028D01*
X-7000Y47986D01*
X-6785Y48028D01*
X-6604Y48150D01*
X-6500Y48305D01*
X-6395Y48150D01*
X-6348Y48118D01*
X-6348Y47450D01*
X-6348Y47450D01*
X-6326Y47338D01*
X-6321Y47316D01*
X-6246Y47203D01*
X-5746Y46703D01*
X-5746Y46703D01*
X-5633Y46628D01*
X-5500Y46601D01*
X-5500Y46601D01*
X-5499Y46601D01*
X-1172Y46601D01*
X-1059Y46488D01*
X-858Y46404D01*
X-642Y46404D01*
X-441Y46487D01*
X-288Y46640D01*
X-204Y46841D01*
X-204Y47057D01*
X-287Y47258D01*
X-440Y47411D01*
X-641Y47495D01*
X-857Y47495D01*
X-1058Y47412D01*
X-1172Y47298D01*
X-5355Y47298D01*
X-5651Y47594D01*
X-5651Y48118D01*
X-5604Y48150D01*
X-5500Y48305D01*
X-5395Y48150D01*
X-5214Y48028D01*
X-5000Y47986D01*
X-4785Y48028D01*
X-4604Y48150D01*
X-4500Y48305D01*
X-4395Y48150D01*
X-4214Y48028D01*
X-4000Y47986D01*
X-3785Y48028D01*
X-3604Y48150D01*
X-3500Y48305D01*
X-3395Y48150D01*
X-3214Y48028D01*
X-3000Y47986D01*
X-2785Y48028D01*
X-2604Y48150D01*
X-2500Y48305D01*
X-2395Y48150D01*
X-2214Y48028D01*
X-2000Y47986D01*
X-1785Y48028D01*
X-1604Y48150D01*
X-1500Y48305D01*
X-1395Y48150D01*
X-1214Y48028D01*
X-1000Y47986D01*
X-785Y48028D01*
X-604Y48150D01*
X-500Y48305D01*
X-395Y48150D01*
X-214Y48028D01*
X0Y47986D01*
X214Y48028D01*
X395Y48150D01*
X401Y48158D01*
X401Y46220D01*
X360Y46271D01*
X168Y46376D01*
X136Y46383D01*
X50Y46334D01*
X50Y45750D01*
X57Y45750D01*
X57Y45650D01*
X50Y45650D01*
X50Y45065D01*
X136Y45016D01*
X168Y45023D01*
X360Y45128D01*
X401Y45179D01*
X401Y44344D01*
X-50Y43892D01*
X-50Y45065D01*
X-50Y45650D01*
X-57Y45650D01*
X-57Y45750D01*
X-50Y45750D01*
X-50Y46334D01*
X-136Y46383D01*
X-168Y46376D01*
X-360Y46271D01*
X-498Y46100D01*
X-500Y46094D01*
X-604Y46249D01*
X-785Y46371D01*
X-1000Y46413D01*
X-1214Y46371D01*
X-1395Y46249D01*
X-1500Y46094D01*
X-1604Y46249D01*
X-1785Y46371D01*
X-2000Y46413D01*
X-2214Y46371D01*
X-2395Y46249D01*
X-2500Y46094D01*
X-2604Y46249D01*
X-2785Y46371D01*
X-3000Y46413D01*
X-3214Y46371D01*
X-3395Y46249D01*
X-3500Y46094D01*
X-3604Y46249D01*
X-3785Y46371D01*
X-4000Y46413D01*
X-4214Y46371D01*
X-4395Y46249D01*
X-4500Y46094D01*
X-4604Y46249D01*
X-4785Y46371D01*
X-5000Y46413D01*
X-5214Y46371D01*
X-5395Y46249D01*
X-5500Y46094D01*
X-5604Y46249D01*
X-5785Y46371D01*
X-6000Y46413D01*
X-6214Y46371D01*
X-6395Y46249D01*
X-6439Y46183D01*
X-6439Y46199D01*
X-6477Y46291D01*
X-6548Y46361D01*
X-6640Y46399D01*
X-6739Y46400D01*
X-7359Y46400D01*
X-7451Y46362D01*
X-7521Y46291D01*
X-7559Y46199D01*
X-7560Y46100D01*
X-7560Y45200D01*
X-7522Y45108D01*
X-7451Y45038D01*
X-7359Y45000D01*
X-7260Y44999D01*
X-6640Y44999D01*
X-6548Y45037D01*
X-6478Y45108D01*
X-6440Y45200D01*
X-6440Y45216D01*
X-6395Y45150D01*
X-6214Y45028D01*
X-6192Y45024D01*
X-6341Y44962D01*
X-6512Y44792D01*
X-6604Y44570D01*
X-6604Y44330D01*
X-6512Y44108D01*
X-6342Y43937D01*
X-6120Y43845D01*
X-5880Y43845D01*
X-5658Y43937D01*
X-5487Y44107D01*
X-5395Y44329D01*
X-5395Y44569D01*
X-5487Y44791D01*
X-5657Y44962D01*
X-5807Y45024D01*
X-5785Y45028D01*
X-5604Y45150D01*
X-5500Y45305D01*
X-5395Y45150D01*
X-5214Y45028D01*
X-5000Y44986D01*
X-4785Y45028D01*
X-4604Y45150D01*
X-4500Y45305D01*
X-4395Y45150D01*
X-4214Y45028D01*
X-4000Y44986D01*
X-3785Y45028D01*
X-3604Y45150D01*
X-3500Y45305D01*
X-3395Y45150D01*
X-3214Y45028D01*
X-3192Y45024D01*
X-3341Y44962D01*
X-3512Y44792D01*
X-3604Y44570D01*
X-3604Y44330D01*
X-3512Y44108D01*
X-3342Y43937D01*
X-3120Y43845D01*
X-2880Y43845D01*
X-2658Y43937D01*
X-2499Y44095D01*
X-2342Y43937D01*
X-2120Y43845D01*
X-1880Y43845D01*
X-1658Y43937D01*
X-1499Y44095D01*
X-1342Y43937D01*
X-1120Y43845D01*
X-880Y43845D01*
X-658Y43937D01*
X-487Y44107D01*
X-395Y44329D01*
X-395Y44569D01*
X-487Y44791D01*
X-657Y44962D01*
X-807Y45024D01*
X-785Y45028D01*
X-604Y45150D01*
X-500Y45305D01*
X-498Y45299D01*
X-360Y45128D01*
X-168Y45023D01*
X-136Y45016D01*
X-50Y45065D01*
X-50Y43892D01*
X-394Y43548D01*
X-1750Y43548D01*
X-1750Y43548D01*
X-1883Y43521D01*
X-1996Y43446D01*
X-1996Y43446D01*
X-2746Y42696D01*
X-2821Y42583D01*
X-2848Y42450D01*
X-2834Y42380D01*
X-3000Y42413D01*
X-3214Y42371D01*
X-3395Y42249D01*
X-3500Y42094D01*
X-3604Y42249D01*
X-3785Y42371D01*
X-4000Y42413D01*
X-4214Y42371D01*
X-4395Y42249D01*
X-4500Y42094D01*
X-4604Y42249D01*
X-4785Y42371D01*
X-5000Y42413D01*
X-5165Y42380D01*
X-5151Y42450D01*
X-5151Y42700D01*
X-5151Y42700D01*
X-5151Y42700D01*
X-5178Y42833D01*
X-5253Y42946D01*
X-5253Y42946D01*
X-6003Y43696D01*
X-6116Y43771D01*
X-6138Y43776D01*
X-6250Y43798D01*
X-6250Y43798D01*
X-7355Y43798D01*
X-7651Y44094D01*
X-7651Y49555D01*
X-6355Y50851D01*
X-4750Y50851D01*
X-3506Y50851D01*
X-3342Y50687D01*
X-3120Y50595D01*
X-2880Y50595D01*
X-2658Y50687D01*
X-2487Y50857D01*
X-2395Y51079D01*
X-2395Y51319D01*
X-2415Y51367D01*
X-2415Y52565D01*
X-2415Y53815D01*
X-2415Y55065D01*
X-2415Y56315D01*
X-2504Y56530D01*
X-2668Y56695D01*
X-2883Y56784D01*
X-3115Y56784D01*
X-3330Y56695D01*
X-3495Y56531D01*
X-3584Y56316D01*
X-3584Y56084D01*
X-3495Y55869D01*
X-3331Y55704D01*
X-3116Y55615D01*
X-2884Y55615D01*
X-2669Y55704D01*
X-2504Y55868D01*
X-2415Y56083D01*
X-2415Y56315D01*
X-2415Y55065D01*
X-2504Y55280D01*
X-2668Y55445D01*
X-2883Y55534D01*
X-3115Y55534D01*
X-3330Y55445D01*
X-3495Y55281D01*
X-3584Y55066D01*
X-3584Y54834D01*
X-3495Y54619D01*
X-3331Y54454D01*
X-3116Y54365D01*
X-2884Y54365D01*
X-2669Y54454D01*
X-2504Y54618D01*
X-2415Y54833D01*
X-2415Y55065D01*
X-2415Y53815D01*
X-2504Y54030D01*
X-2668Y54195D01*
X-2883Y54284D01*
X-3115Y54284D01*
X-3330Y54195D01*
X-3495Y54031D01*
X-3584Y53816D01*
X-3584Y53584D01*
X-3495Y53369D01*
X-3331Y53204D01*
X-3116Y53115D01*
X-2884Y53115D01*
X-2669Y53204D01*
X-2504Y53368D01*
X-2415Y53583D01*
X-2415Y53815D01*
X-2415Y52565D01*
X-2504Y52780D01*
X-2668Y52945D01*
X-2883Y53034D01*
X-3115Y53034D01*
X-3330Y52945D01*
X-3495Y52781D01*
X-3584Y52566D01*
X-3584Y52334D01*
X-3495Y52119D01*
X-3331Y51954D01*
X-3116Y51865D01*
X-2884Y51865D01*
X-2669Y51954D01*
X-2504Y52118D01*
X-2415Y52333D01*
X-2415Y52565D01*
X-2415Y51367D01*
X-2487Y51541D01*
X-2657Y51712D01*
X-2879Y51804D01*
X-3119Y51804D01*
X-3341Y51712D01*
X-3506Y51548D01*
X-4401Y51548D01*
X-4401Y52228D01*
X-4385Y52228D01*
X-4293Y52266D01*
X-4223Y52337D01*
X-4185Y52429D01*
X-4184Y52528D01*
X-4184Y53552D01*
X-4222Y53644D01*
X-4278Y53700D01*
X-4222Y53755D01*
X-4184Y53847D01*
X-4184Y54970D01*
X-4222Y55062D01*
X-4293Y55132D01*
X-4385Y55170D01*
X-4484Y55171D01*
X-4637Y55171D01*
X-4700Y55108D01*
X-4700Y54459D01*
X-4247Y54459D01*
X-4185Y54521D01*
X-4184Y54970D01*
X-4184Y53847D01*
X-4185Y54296D01*
X-4247Y54359D01*
X-4700Y54359D01*
X-4700Y54351D01*
X-4793Y54351D01*
X-4793Y58331D01*
X-4801Y58611D01*
X-4892Y58829D01*
X-5003Y58875D01*
X-5074Y58805D01*
X-5074Y58946D01*
X-5120Y59057D01*
X-5381Y59156D01*
X-5661Y59148D01*
X-5879Y59057D01*
X-5925Y58946D01*
X-5500Y58520D01*
X-5074Y58946D01*
X-5074Y58805D01*
X-5429Y58450D01*
X-5003Y58024D01*
X-4892Y58070D01*
X-4793Y58331D01*
X-4793Y54351D01*
X-4800Y54351D01*
X-4800Y54359D01*
X-4800Y54459D01*
X-4800Y55108D01*
X-4862Y55171D01*
X-5015Y55171D01*
X-5074Y55170D01*
X-5074Y57953D01*
X-5500Y58379D01*
X-5570Y58308D01*
X-5570Y58450D01*
X-5996Y58875D01*
X-6107Y58829D01*
X-6206Y58568D01*
X-6198Y58288D01*
X-6107Y58070D01*
X-5996Y58024D01*
X-5570Y58450D01*
X-5570Y58308D01*
X-5925Y57953D01*
X-5879Y57842D01*
X-5618Y57743D01*
X-5338Y57751D01*
X-5120Y57842D01*
X-5074Y57953D01*
X-5074Y55170D01*
X-5114Y55170D01*
X-5206Y55132D01*
X-5277Y55062D01*
X-5315Y54970D01*
X-5315Y54521D01*
X-5252Y54459D01*
X-4800Y54459D01*
X-4800Y54359D01*
X-5252Y54359D01*
X-5315Y54296D01*
X-5315Y53847D01*
X-5277Y53755D01*
X-5221Y53699D01*
X-5239Y53682D01*
X-5401Y53844D01*
X-5401Y55949D01*
X-5401Y55950D01*
X-5401Y55950D01*
X-5428Y56083D01*
X-5503Y56196D01*
X-5503Y56196D01*
X-6003Y56696D01*
X-6116Y56771D01*
X-6138Y56776D01*
X-6216Y56791D01*
X-6216Y57642D01*
X-6216Y57800D01*
X-6216Y57900D01*
X-6216Y58057D01*
X-6288Y58315D01*
X-6449Y58522D01*
X-6449Y63907D01*
X-6609Y64294D01*
X-6904Y64589D01*
X-7290Y64749D01*
X-7707Y64750D01*
X-8094Y64590D01*
X-8389Y64295D01*
X-8549Y63909D01*
X-8550Y63492D01*
X-8390Y63106D01*
X-8095Y62810D01*
X-7709Y62650D01*
X-7292Y62649D01*
X-6906Y62809D01*
X-6610Y63104D01*
X-6450Y63490D01*
X-6449Y63907D01*
X-6449Y58522D01*
X-6452Y58525D01*
X-6684Y58657D01*
X-6744Y58672D01*
X-6850Y58626D01*
X-6850Y57900D01*
X-6216Y57900D01*
X-6216Y57800D01*
X-6850Y57800D01*
X-6850Y57073D01*
X-6744Y57027D01*
X-6684Y57042D01*
X-6452Y57174D01*
X-6288Y57384D01*
X-6216Y57642D01*
X-6216Y56791D01*
X-6250Y56798D01*
X-6250Y56798D01*
X-6950Y56798D01*
X-6950Y57073D01*
X-6950Y57800D01*
X-6957Y57800D01*
X-6957Y57900D01*
X-6950Y57900D01*
X-6950Y58626D01*
X-7055Y58672D01*
X-7115Y58657D01*
X-7347Y58525D01*
X-7511Y58315D01*
X-7583Y58057D01*
X-7583Y58004D01*
X-7699Y58070D01*
X-7750Y58082D01*
X-7850Y58035D01*
X-7850Y57400D01*
X-7842Y57400D01*
X-7842Y57300D01*
X-7850Y57300D01*
X-7850Y56664D01*
X-7750Y56617D01*
X-7699Y56629D01*
X-7480Y56753D01*
X-7324Y56951D01*
X-7273Y57132D01*
X-7115Y57042D01*
X-7055Y57027D01*
X-6950Y57073D01*
X-6950Y56798D01*
X-7250Y56798D01*
X-7383Y56771D01*
X-7496Y56696D01*
X-7496Y56696D01*
X-7881Y56311D01*
X-7900Y56314D01*
X-7950Y56304D01*
X-7950Y56664D01*
X-7950Y57300D01*
X-7950Y57400D01*
X-7950Y58035D01*
X-8049Y58082D01*
X-8100Y58070D01*
X-8319Y57946D01*
X-8475Y57748D01*
X-8543Y57506D01*
X-8543Y57400D01*
X-7950Y57400D01*
X-7950Y57300D01*
X-8543Y57300D01*
X-8543Y57193D01*
X-8475Y56951D01*
X-8319Y56753D01*
X-8100Y56629D01*
X-8049Y56617D01*
X-7950Y56664D01*
X-7950Y56304D01*
X-8146Y56265D01*
X-8355Y56126D01*
X-8494Y55917D01*
X-8543Y55670D01*
X-8543Y55429D01*
X-8494Y55182D01*
X-8355Y54973D01*
X-8146Y54834D01*
X-7900Y54785D01*
X-7653Y54834D01*
X-7583Y54881D01*
X-7583Y54842D01*
X-7511Y54584D01*
X-7347Y54374D01*
X-7115Y54242D01*
X-7055Y54227D01*
X-6950Y54273D01*
X-6950Y55000D01*
X-6957Y55000D01*
X-6957Y55100D01*
X-6950Y55100D01*
X-6950Y55826D01*
X-7055Y55872D01*
X-7115Y55857D01*
X-7275Y55766D01*
X-7302Y55904D01*
X-7105Y56101D01*
X-6394Y56101D01*
X-6098Y55805D01*
X-6098Y53700D01*
X-6098Y53700D01*
X-6076Y53588D01*
X-6071Y53566D01*
X-5996Y53453D01*
X-5315Y52772D01*
X-5315Y52429D01*
X-5277Y52337D01*
X-5206Y52267D01*
X-5114Y52229D01*
X-5098Y52229D01*
X-5098Y51548D01*
X-6216Y51548D01*
X-6216Y54842D01*
X-6216Y55000D01*
X-6216Y55100D01*
X-6216Y55257D01*
X-6288Y55515D01*
X-6452Y55725D01*
X-6684Y55857D01*
X-6744Y55872D01*
X-6850Y55826D01*
X-6850Y55100D01*
X-6216Y55100D01*
X-6216Y55000D01*
X-6850Y55000D01*
X-6850Y54273D01*
X-6744Y54227D01*
X-6684Y54242D01*
X-6452Y54374D01*
X-6288Y54584D01*
X-6216Y54842D01*
X-6216Y51548D01*
X-6500Y51548D01*
X-6633Y51521D01*
X-6746Y51446D01*
X-6746Y51446D01*
X-8246Y49946D01*
X-8321Y49833D01*
X-8326Y49811D01*
X-8348Y49700D01*
X-8348Y49699D01*
X-8348Y43950D01*
X-8348Y43950D01*
X-8326Y43838D01*
X-8321Y43816D01*
X-8246Y43703D01*
X-7746Y43203D01*
X-7746Y43203D01*
X-7633Y43128D01*
X-7500Y43101D01*
X-7500Y43101D01*
X-7499Y43101D01*
X-6394Y43101D01*
X-5848Y42555D01*
X-5848Y42450D01*
X-5833Y42376D01*
X-5863Y42383D01*
X-5950Y42334D01*
X-5950Y41750D01*
X-5942Y41750D01*
X-5942Y41650D01*
X-5950Y41650D01*
X-5950Y41065D01*
X-5863Y41016D01*
X-5833Y41023D01*
X-5848Y40950D01*
X-5848Y40200D01*
X-5848Y40200D01*
X-5826Y40088D01*
X-5821Y40066D01*
X-5746Y39953D01*
X-5348Y39555D01*
X-5348Y39281D01*
X-5395Y39249D01*
X-5500Y39094D01*
X-5592Y39232D01*
X-5592Y39450D01*
X-5623Y39605D01*
X-5623Y39605D01*
X-5658Y39658D01*
X-5711Y39738D01*
X-5711Y39738D01*
X-6592Y40618D01*
X-6592Y41167D01*
X-6500Y41305D01*
X-6498Y41299D01*
X-6360Y41128D01*
X-6168Y41023D01*
X-6136Y41016D01*
X-6050Y41065D01*
X-6050Y41650D01*
X-6057Y41650D01*
X-6057Y41750D01*
X-6050Y41750D01*
X-6050Y42334D01*
X-6136Y42383D01*
X-6168Y42376D01*
X-6360Y42271D01*
X-6498Y42100D01*
X-6500Y42094D01*
X-6604Y42249D01*
X-6785Y42371D01*
X-7000Y42413D01*
X-7214Y42371D01*
X-7395Y42249D01*
X-7517Y42068D01*
X-7560Y41853D01*
X-7560Y41546D01*
X-7517Y41331D01*
X-7407Y41167D01*
X-7407Y40450D01*
X-7407Y40450D01*
X-7376Y40294D01*
X-7288Y40161D01*
X-6407Y39281D01*
X-6407Y39232D01*
X-6440Y39183D01*
X-6440Y39199D01*
X-6478Y39291D01*
X-6548Y39362D01*
X-6640Y39400D01*
X-6887Y39400D01*
X-6950Y39337D01*
X-6950Y38750D01*
X-6942Y38750D01*
X-6942Y38650D01*
X-6950Y38650D01*
X-6950Y38642D01*
X-7050Y38642D01*
X-7050Y38650D01*
X-7050Y38750D01*
X-7050Y39337D01*
X-7112Y39400D01*
X-7359Y39400D01*
X-7451Y39362D01*
X-7521Y39291D01*
X-7559Y39199D01*
X-7560Y39100D01*
X-7560Y38812D01*
X-7497Y38750D01*
X-7050Y38750D01*
X-7050Y38650D01*
X-7497Y38650D01*
X-7560Y38587D01*
X-7560Y38299D01*
X-7559Y38200D01*
X-7521Y38108D01*
X-7461Y38048D01*
X-8250Y38048D01*
X-8383Y38021D01*
X-8496Y37946D01*
X-8496Y37946D01*
X-8730Y37712D01*
X-8730Y64930D01*
X29980Y64930D01*
X29980Y60462D01*
M02*
