%TF.GenerationSoftware,KiCad,Pcbnew,(5.1.10)-1*%
%TF.CreationDate,2022-01-30T13:18:58+01:00*%
%TF.ProjectId,MEA8000,4d454138-3030-4302-9e6b-696361645f70,1.0*%
%TF.SameCoordinates,PX6d01460PY60e4b00*%
%TF.FileFunction,Copper,L2,Bot*%
%TF.FilePolarity,Positive*%
%FSLAX46Y46*%
G04 Gerber Fmt 4.6, Leading zero omitted, Abs format (unit mm)*
G04 Created by KiCad (PCBNEW (5.1.10)-1) date 2022-01-30 13:18:58*
%MOMM*%
%LPD*%
G01*
G04 APERTURE LIST*
%TA.AperFunction,ComponentPad*%
%ADD10O,2.400000X1.600000*%
%TD*%
%TA.AperFunction,ComponentPad*%
%ADD11R,2.400000X1.600000*%
%TD*%
%TA.AperFunction,ComponentPad*%
%ADD12C,1.500000*%
%TD*%
%TA.AperFunction,ComponentPad*%
%ADD13O,1.600000X2.400000*%
%TD*%
%TA.AperFunction,ComponentPad*%
%ADD14R,1.600000X2.400000*%
%TD*%
%TA.AperFunction,ComponentPad*%
%ADD15O,1.600000X1.600000*%
%TD*%
%TA.AperFunction,ComponentPad*%
%ADD16C,1.600000*%
%TD*%
%TA.AperFunction,ComponentPad*%
%ADD17C,1.700000*%
%TD*%
%TA.AperFunction,ComponentPad*%
%ADD18R,1.600000X1.600000*%
%TD*%
%TA.AperFunction,WasherPad*%
%ADD19C,1.200000*%
%TD*%
%TA.AperFunction,ComponentPad*%
%ADD20O,2.500000X1.800000*%
%TD*%
%TA.AperFunction,ComponentPad*%
%ADD21O,1.800000X2.500000*%
%TD*%
%TA.AperFunction,ComponentPad*%
%ADD22R,1.300000X1.300000*%
%TD*%
%TA.AperFunction,ComponentPad*%
%ADD23C,1.300000*%
%TD*%
%TA.AperFunction,ViaPad*%
%ADD24C,1.300000*%
%TD*%
%TA.AperFunction,Conductor*%
%ADD25C,0.800000*%
%TD*%
%TA.AperFunction,Conductor*%
%ADD26C,0.400000*%
%TD*%
%TA.AperFunction,Conductor*%
%ADD27C,0.600000*%
%TD*%
%TA.AperFunction,Conductor*%
%ADD28C,0.254000*%
%TD*%
%TA.AperFunction,Conductor*%
%ADD29C,0.100000*%
%TD*%
G04 APERTURE END LIST*
D10*
%TO.P,U3,24*%
%TO.N,GND*%
X41275000Y41910000D03*
%TO.P,U3,12*%
%TO.N,Net-(D1-Pad1)*%
X26035000Y13970000D03*
%TO.P,U3,23*%
%TO.N,GND*%
X41275000Y39370000D03*
%TO.P,U3,11*%
%TO.N,/A0*%
X26035000Y16510000D03*
%TO.P,U3,22*%
%TO.N,Net-(U1-Pad4)*%
X41275000Y36830000D03*
%TO.P,U3,10*%
%TO.N,/D0*%
X26035000Y19050000D03*
%TO.P,U3,21*%
%TO.N,Net-(U3-Pad21)*%
X41275000Y34290000D03*
%TO.P,U3,9*%
%TO.N,/D1*%
X26035000Y21590000D03*
%TO.P,U3,20*%
%TO.N,Net-(C5-Pad2)*%
X41275000Y31750000D03*
%TO.P,U3,8*%
%TO.N,/D2*%
X26035000Y24130000D03*
%TO.P,U3,19*%
%TO.N,Net-(C4-Pad2)*%
X41275000Y29210000D03*
%TO.P,U3,7*%
%TO.N,/D3*%
X26035000Y26670000D03*
%TO.P,U3,18*%
%TO.N,GND*%
X41275000Y26670000D03*
%TO.P,U3,6*%
%TO.N,/D4*%
X26035000Y29210000D03*
%TO.P,U3,17*%
%TO.N,Net-(C3-Pad2)*%
X41275000Y24130000D03*
%TO.P,U3,5*%
%TO.N,/D5*%
X26035000Y31750000D03*
%TO.P,U3,16*%
%TO.N,Net-(R1-Pad1)*%
X41275000Y21590000D03*
%TO.P,U3,4*%
%TO.N,/D6*%
X26035000Y34290000D03*
%TO.P,U3,15*%
%TO.N,GND*%
X41275000Y19050000D03*
%TO.P,U3,3*%
%TO.N,/D7*%
X26035000Y36830000D03*
%TO.P,U3,14*%
%TO.N,Net-(U3-Pad14)*%
X41275000Y16510000D03*
%TO.P,U3,2*%
%TO.N,Net-(U3-Pad2)*%
X26035000Y39370000D03*
%TO.P,U3,13*%
%TO.N,VCC*%
X41275000Y13970000D03*
D11*
%TO.P,U3,1*%
%TO.N,GND*%
X26035000Y41910000D03*
%TD*%
D12*
%TO.P,Y1,2*%
%TO.N,Net-(C3-Pad2)*%
X48895000Y23930000D03*
%TO.P,Y1,1*%
%TO.N,Net-(R1-Pad1)*%
X48895000Y19050000D03*
%TD*%
D13*
%TO.P,U1,14*%
%TO.N,VCC*%
X6350000Y36830000D03*
%TO.P,U1,7*%
%TO.N,GND*%
X21590000Y29210000D03*
%TO.P,U1,13*%
%TO.N,N/C*%
X8890000Y36830000D03*
%TO.P,U1,6*%
X19050000Y29210000D03*
%TO.P,U1,12*%
X11430000Y36830000D03*
%TO.P,U1,5*%
X16510000Y29210000D03*
%TO.P,U1,11*%
X13970000Y36830000D03*
%TO.P,U1,4*%
%TO.N,Net-(U1-Pad4)*%
X13970000Y29210000D03*
%TO.P,U1,10*%
%TO.N,N/C*%
X16510000Y36830000D03*
%TO.P,U1,3*%
%TO.N,/R_~W*%
X11430000Y29210000D03*
%TO.P,U1,9*%
%TO.N,N/C*%
X19050000Y36830000D03*
%TO.P,U1,2*%
%TO.N,Net-(U1-Pad2)*%
X8890000Y29210000D03*
%TO.P,U1,8*%
%TO.N,N/C*%
X21590000Y36830000D03*
D14*
%TO.P,U1,1*%
%TO.N,/~IO*%
X6350000Y29210000D03*
%TD*%
D15*
%TO.P,R1,2*%
%TO.N,Net-(C3-Pad2)*%
X44450000Y24130000D03*
D16*
%TO.P,R1,1*%
%TO.N,Net-(R1-Pad1)*%
X44450000Y13970000D03*
%TD*%
D17*
%TO.P,J1,34*%
%TO.N,GND*%
X17780000Y3175000D03*
%TO.P,J1,32*%
%TO.N,/A11*%
X20320000Y3175000D03*
%TO.P,J1,30*%
%TO.N,/A12*%
X22860000Y3175000D03*
%TO.P,J1,28*%
%TO.N,/A13*%
X25400000Y3175000D03*
%TO.P,J1,26*%
%TO.N,/A14*%
X27940000Y3175000D03*
%TO.P,J1,24*%
%TO.N,/A15*%
X30480000Y3175000D03*
%TO.P,J1,22*%
%TO.N,/D7*%
X33020000Y3175000D03*
%TO.P,J1,20*%
%TO.N,/A4*%
X35560000Y3175000D03*
%TO.P,J1,18*%
%TO.N,/D4*%
X38100000Y3175000D03*
%TO.P,J1,16*%
%TO.N,/D3*%
X40640000Y3175000D03*
%TO.P,J1,14*%
%TO.N,/D6*%
X43180000Y3175000D03*
%TO.P,J1,12*%
%TO.N,/D1*%
X45720000Y3175000D03*
%TO.P,J1,10*%
%TO.N,/D0*%
X48260000Y3175000D03*
%TO.P,J1,8*%
%TO.N,/~IRQ*%
X50800000Y3175000D03*
%TO.P,J1,6*%
%TO.N,/~IOCTRL*%
X53340000Y3175000D03*
%TO.P,J1,4*%
%TO.N,/~RESET*%
X55880000Y3175000D03*
%TO.P,J1,2*%
%TO.N,/~ROMDIS*%
X58420000Y3175000D03*
%TO.P,J1,33*%
%TO.N,VCC*%
X17780000Y5715000D03*
%TO.P,J1,31*%
%TO.N,/A10*%
X20320000Y5715000D03*
%TO.P,J1,29*%
%TO.N,/A9*%
X22860000Y5715000D03*
%TO.P,J1,27*%
%TO.N,/A8*%
X25400000Y5715000D03*
%TO.P,J1,25*%
%TO.N,/A7*%
X27940000Y5715000D03*
%TO.P,J1,23*%
%TO.N,/A6*%
X30480000Y5715000D03*
%TO.P,J1,21*%
%TO.N,/A5*%
X33020000Y5715000D03*
%TO.P,J1,19*%
%TO.N,/D5*%
X35560000Y5715000D03*
%TO.P,J1,17*%
%TO.N,/A2*%
X38100000Y5715000D03*
%TO.P,J1,15*%
%TO.N,/A1*%
X40640000Y5715000D03*
%TO.P,J1,13*%
%TO.N,/A0*%
X43180000Y5715000D03*
%TO.P,J1,11*%
%TO.N,/A3*%
X45720000Y5715000D03*
%TO.P,J1,9*%
%TO.N,/D2*%
X48260000Y5715000D03*
%TO.P,J1,7*%
%TO.N,/R_~W*%
X50800000Y5715000D03*
%TO.P,J1,5*%
%TO.N,/~IO*%
X53340000Y5715000D03*
%TO.P,J1,3*%
%TO.N,/PHI2*%
X55880000Y5715000D03*
%TO.P,J1,1*%
%TO.N,/~MAP*%
%TA.AperFunction,ComponentPad*%
G36*
G01*
X57820000Y6565000D02*
X59020000Y6565000D01*
G75*
G02*
X59270000Y6315000I0J-250000D01*
G01*
X59270000Y5115000D01*
G75*
G02*
X59020000Y4865000I-250000J0D01*
G01*
X57820000Y4865000D01*
G75*
G02*
X57570000Y5115000I0J250000D01*
G01*
X57570000Y6315000D01*
G75*
G02*
X57820000Y6565000I250000J0D01*
G01*
G37*
%TD.AperFunction*%
%TD*%
D15*
%TO.P,D1,2*%
%TO.N,/~IOCTRL*%
X53975000Y10160000D03*
D18*
%TO.P,D1,1*%
%TO.N,Net-(D1-Pad1)*%
X53975000Y17780000D03*
%TD*%
D16*
%TO.P,C3,2*%
%TO.N,Net-(C3-Pad2)*%
X44450000Y26750000D03*
%TO.P,C3,1*%
%TO.N,GND*%
X44450000Y31750000D03*
%TD*%
D19*
%TO.P,J2,*%
%TO.N,*%
X70310000Y34370000D03*
X70310000Y44370000D03*
X72810000Y44370000D03*
X72810000Y34370000D03*
X65310000Y39370000D03*
D20*
%TO.P,J2,RN*%
%TO.N,Net-(J2-PadRN)*%
X65310000Y36870000D03*
%TO.P,J2,R*%
%TO.N,Net-(J2-PadR)*%
X65310000Y34370000D03*
%TO.P,J2,TN*%
%TO.N,Net-(J2-PadT)*%
X65310000Y41870000D03*
%TO.P,J2,T*%
X65310000Y44370000D03*
D21*
%TO.P,J2,S*%
%TO.N,GND*%
X70310000Y39370000D03*
%TD*%
D16*
%TO.P,C2,2*%
%TO.N,VCC*%
X54055000Y21590000D03*
%TO.P,C2,1*%
%TO.N,GND*%
X59055000Y21590000D03*
%TD*%
%TO.P,C1,2*%
%TO.N,VCC*%
X3175000Y35560000D03*
%TO.P,C1,1*%
%TO.N,GND*%
X3175000Y30560000D03*
%TD*%
D22*
%TO.P,Q1,1*%
%TO.N,Net-(C8-Pad1)*%
X66675000Y24130000D03*
D23*
%TO.P,Q1,3*%
%TO.N,Net-(C5-Pad1)*%
X69215000Y24130000D03*
%TO.P,Q1,2*%
%TO.N,Net-(C5-Pad2)*%
X67945000Y25400000D03*
%TD*%
D13*
%TO.P,U2,14*%
%TO.N,VCC*%
X6350000Y24130000D03*
%TO.P,U2,7*%
%TO.N,GND*%
X21590000Y16510000D03*
%TO.P,U2,13*%
%TO.N,N/C*%
X8890000Y24130000D03*
%TO.P,U2,6*%
%TO.N,/A3*%
X19050000Y16510000D03*
%TO.P,U2,12*%
%TO.N,Net-(U1-Pad2)*%
X11430000Y24130000D03*
%TO.P,U2,5*%
%TO.N,/A1*%
X16510000Y16510000D03*
%TO.P,U2,11*%
%TO.N,/A2*%
X13970000Y24130000D03*
%TO.P,U2,4*%
%TO.N,/A4*%
X13970000Y16510000D03*
%TO.P,U2,10*%
%TO.N,N/C*%
X16510000Y24130000D03*
%TO.P,U2,3*%
%TO.N,/A5*%
X11430000Y16510000D03*
%TO.P,U2,9*%
%TO.N,N/C*%
X19050000Y24130000D03*
%TO.P,U2,2*%
%TO.N,/A6*%
X8890000Y16510000D03*
%TO.P,U2,8*%
%TO.N,Net-(D1-Pad1)*%
X21590000Y24130000D03*
D14*
%TO.P,U2,1*%
%TO.N,/A7*%
X6350000Y16510000D03*
%TD*%
D15*
%TO.P,R6,2*%
%TO.N,GND*%
X72390000Y29845000D03*
D16*
%TO.P,R6,1*%
%TO.N,Net-(C5-Pad1)*%
X62230000Y29845000D03*
%TD*%
D15*
%TO.P,R8,2*%
%TO.N,Net-(C6-Pad2)*%
X48895000Y39370000D03*
D16*
%TO.P,R8,1*%
%TO.N,Net-(J2-PadT)*%
X59055000Y39370000D03*
%TD*%
D15*
%TO.P,R7,2*%
%TO.N,GND*%
X73660000Y8890000D03*
D16*
%TO.P,R7,1*%
%TO.N,Net-(C6-Pad2)*%
X73660000Y19050000D03*
%TD*%
D15*
%TO.P,R4,2*%
%TO.N,Net-(C5-Pad1)*%
X59055000Y33020000D03*
D16*
%TO.P,R4,1*%
%TO.N,Net-(C5-Pad2)*%
X48895000Y33020000D03*
%TD*%
D15*
%TO.P,R3,2*%
%TO.N,Net-(C5-Pad2)*%
X62230000Y26035000D03*
D16*
%TO.P,R3,1*%
%TO.N,Net-(C8-Pad1)*%
X62230000Y15875000D03*
%TD*%
D15*
%TO.P,R2,2*%
%TO.N,Net-(C4-Pad2)*%
X48895000Y29845000D03*
D16*
%TO.P,R2,1*%
%TO.N,Net-(C8-Pad1)*%
X59055000Y29845000D03*
%TD*%
D15*
%TO.P,R5,2*%
%TO.N,Net-(C8-Pad1)*%
X66040000Y19050000D03*
D16*
%TO.P,R5,1*%
%TO.N,VCC*%
X66040000Y8890000D03*
%TD*%
%TO.P,C8,2*%
%TO.N,GND*%
X59690000Y10065000D03*
D18*
%TO.P,C8,1*%
%TO.N,Net-(C8-Pad1)*%
X59690000Y12065000D03*
%TD*%
D16*
%TO.P,C6,2*%
%TO.N,Net-(C6-Pad2)*%
X69850000Y14050000D03*
%TO.P,C6,1*%
%TO.N,Net-(C5-Pad1)*%
X69850000Y19050000D03*
%TD*%
%TO.P,C9,2*%
%TO.N,Net-(C6-Pad2)*%
X45720000Y36830000D03*
%TO.P,C9,1*%
%TO.N,GND*%
X45720000Y41830000D03*
%TD*%
%TO.P,C5,2*%
%TO.N,Net-(C5-Pad2)*%
X54055000Y36195000D03*
%TO.P,C5,1*%
%TO.N,Net-(C5-Pad1)*%
X59055000Y36195000D03*
%TD*%
%TO.P,C4,2*%
%TO.N,Net-(C4-Pad2)*%
X54055000Y26035000D03*
%TO.P,C4,1*%
%TO.N,GND*%
X59055000Y26035000D03*
%TD*%
%TO.P,C7,2*%
%TO.N,GND*%
X13875000Y43180000D03*
D18*
%TO.P,C7,1*%
%TO.N,VCC*%
X15875000Y43180000D03*
%TD*%
D24*
%TO.N,/D0*%
X36195000Y19050000D03*
%TO.N,/D1*%
X34925000Y21590000D03*
%TO.N,/D2*%
X34925000Y24130000D03*
%TO.N,/D3*%
X32385000Y26670000D03*
%TO.N,/D4*%
X31115000Y28575000D03*
%TO.N,/D7*%
X28575000Y29845000D03*
%TO.N,Net-(U1-Pad4)*%
X18415000Y33020000D03*
%TD*%
D25*
%TO.N,GND*%
X41275000Y26670000D02*
X39370000Y26670000D01*
X39370000Y26670000D02*
X38735000Y26035000D01*
X38735000Y26035000D02*
X38735000Y19685000D01*
X39370000Y19050000D02*
X41275000Y19050000D01*
X38735000Y19685000D02*
X39370000Y19050000D01*
%TO.N,VCC*%
X6350000Y38735000D02*
X6350000Y36830000D01*
X8255000Y40640000D02*
X6350000Y38735000D01*
X15875000Y41275000D02*
X15240000Y40640000D01*
X15240000Y40640000D02*
X8255000Y40640000D01*
X15875000Y43180000D02*
X15875000Y41275000D01*
X41275000Y13970000D02*
X41275000Y12700000D01*
X41275000Y12700000D02*
X41910000Y12065000D01*
X41910000Y12065000D02*
X49530000Y12065000D01*
X49530000Y12065000D02*
X51435000Y13970000D01*
X51435000Y13970000D02*
X51435000Y19685000D01*
X53340000Y21590000D02*
X54055000Y21590000D01*
X51435000Y19685000D02*
X53340000Y21590000D01*
X66040000Y8890000D02*
X62865000Y8890000D01*
X62865000Y8890000D02*
X61595000Y7620000D01*
X61595000Y7620000D02*
X58420000Y7620000D01*
X58420000Y7620000D02*
X56515000Y9525000D01*
X56515000Y9525000D02*
X56515000Y12700000D01*
X55245000Y13970000D02*
X51435000Y13970000D01*
X56515000Y12700000D02*
X55245000Y13970000D01*
D26*
%TO.N,/D0*%
X46990000Y4445000D02*
X48260000Y3175000D01*
X46990000Y8255000D02*
X46990000Y4445000D01*
X45085000Y10160000D02*
X46990000Y8255000D01*
X39370000Y10160000D02*
X45085000Y10160000D01*
X36195000Y13335000D02*
X39370000Y10160000D01*
X36195000Y19050000D02*
X36195000Y13335000D01*
%TO.N,/D1*%
X34925000Y21590000D02*
X34925000Y12700000D01*
X38100000Y9525000D02*
X43180000Y9525000D01*
X34925000Y12700000D02*
X38100000Y9525000D01*
X43180000Y9525000D02*
X44450000Y8255000D01*
X44450000Y4445000D02*
X45085000Y3810000D01*
X44450000Y8255000D02*
X44450000Y4445000D01*
X45085000Y3810000D02*
X45720000Y3175000D01*
%TO.N,/D2*%
X48260000Y8890000D02*
X48260000Y5715000D01*
X46355000Y10795000D02*
X48260000Y8890000D01*
X36195000Y24130000D02*
X37465000Y22860000D01*
X34925000Y24130000D02*
X36195000Y24130000D01*
X37465000Y13970000D02*
X40640000Y10795000D01*
X40640000Y10795000D02*
X46355000Y10795000D01*
X37465000Y22860000D02*
X37465000Y13970000D01*
%TO.N,/D3*%
X39370000Y4445000D02*
X40640000Y3175000D01*
X39370000Y6985000D02*
X39370000Y4445000D01*
X38100000Y8255000D02*
X39370000Y6985000D01*
X36195000Y8255000D02*
X38100000Y8255000D01*
X32385000Y12065000D02*
X36195000Y8255000D01*
X32385000Y26670000D02*
X32385000Y12065000D01*
%TO.N,/D4*%
X36830000Y4445000D02*
X38100000Y3175000D01*
X36830000Y6350000D02*
X36830000Y4445000D01*
X31115000Y12065000D02*
X36830000Y6350000D01*
X31115000Y28575000D02*
X31115000Y12065000D01*
%TO.N,/D5*%
X29845000Y11430000D02*
X35560000Y5715000D01*
X29210000Y31750000D02*
X29845000Y31115000D01*
X29845000Y31115000D02*
X29845000Y11430000D01*
X26035000Y31750000D02*
X29210000Y31750000D01*
%TO.N,/D6*%
X41910000Y4445000D02*
X43180000Y3175000D01*
X33655000Y30480000D02*
X33655000Y12700000D01*
X29845000Y34290000D02*
X33655000Y30480000D01*
X26035000Y34290000D02*
X29845000Y34290000D01*
X37465000Y8890000D02*
X40640000Y8890000D01*
X33655000Y12700000D02*
X37465000Y8890000D01*
X41910000Y7620000D02*
X41910000Y4445000D01*
X40640000Y8890000D02*
X41910000Y7620000D01*
%TO.N,/D7*%
X31750000Y7620000D02*
X31750000Y4445000D01*
X31750000Y4445000D02*
X33020000Y3175000D01*
X28575000Y10795000D02*
X31750000Y7620000D01*
X28575000Y29845000D02*
X28575000Y10795000D01*
%TO.N,/A6*%
X30480000Y5715000D02*
X30480000Y6985000D01*
X8890000Y10795000D02*
X8890000Y16510000D01*
X30480000Y6985000D02*
X28575000Y8890000D01*
X10795000Y8890000D02*
X8890000Y10795000D01*
X28575000Y8890000D02*
X10795000Y8890000D01*
%TO.N,/A7*%
X27940000Y6350000D02*
X27940000Y5715000D01*
X26670000Y7620000D02*
X27940000Y6350000D01*
X26670000Y7620000D02*
X8255000Y7620000D01*
X6350000Y9525000D02*
X6350000Y16510000D01*
X8255000Y7620000D02*
X6350000Y9525000D01*
D27*
%TO.N,Net-(C3-Pad2)*%
X41275000Y24130000D02*
X44450000Y24130000D01*
X44450000Y26750000D02*
X44450000Y24130000D01*
X44650000Y23930000D02*
X44450000Y24130000D01*
X48895000Y23930000D02*
X44650000Y23930000D01*
D26*
%TO.N,Net-(U1-Pad2)*%
X8890000Y29210000D02*
X8890000Y27305000D01*
X8890000Y27305000D02*
X9525000Y26670000D01*
X9525000Y26670000D02*
X10795000Y26670000D01*
X10795000Y26670000D02*
X11430000Y26035000D01*
X11430000Y24130000D02*
X11430000Y26035000D01*
D27*
%TO.N,Net-(J2-PadT)*%
X65310000Y44370000D02*
X65310000Y41870000D01*
X63460000Y41870000D02*
X65310000Y41870000D01*
X60960000Y39370000D02*
X63460000Y41870000D01*
X59055000Y39370000D02*
X60960000Y39370000D01*
%TO.N,Net-(C4-Pad2)*%
X54055000Y26035000D02*
X54055000Y28495000D01*
X52705000Y29845000D02*
X48895000Y29845000D01*
X54055000Y28495000D02*
X52705000Y29845000D01*
X48895000Y29845000D02*
X48260000Y29845000D01*
X48260000Y29845000D02*
X46990000Y28575000D01*
X43180000Y28575000D02*
X42545000Y29210000D01*
X46990000Y28575000D02*
X43180000Y28575000D01*
X41275000Y29210000D02*
X42545000Y29210000D01*
%TO.N,Net-(C5-Pad2)*%
X67310000Y26035000D02*
X67945000Y25400000D01*
X62230000Y26035000D02*
X67310000Y26035000D01*
X53975000Y33020000D02*
X54055000Y33100000D01*
X48895000Y33020000D02*
X53975000Y33020000D01*
X54055000Y33100000D02*
X54055000Y36195000D01*
X60325000Y27940000D02*
X62230000Y26035000D01*
X57150000Y27940000D02*
X60325000Y27940000D01*
X54055000Y31035000D02*
X57150000Y27940000D01*
X54055000Y33100000D02*
X54055000Y31035000D01*
X41275000Y31750000D02*
X41910000Y31750000D01*
X41910000Y31750000D02*
X43649990Y30010010D01*
X43649990Y30010010D02*
X45885010Y30010010D01*
X45885010Y30010010D02*
X48895000Y33020000D01*
%TO.N,Net-(C5-Pad1)*%
X69215000Y24130000D02*
X69215000Y22225000D01*
X69850000Y21590000D02*
X69850000Y19050000D01*
X69215000Y22225000D02*
X69850000Y21590000D01*
X59055000Y33020000D02*
X60960000Y33020000D01*
X62230000Y31750000D02*
X62230000Y29845000D01*
X60960000Y33020000D02*
X62230000Y31750000D01*
X69215000Y24130000D02*
X69215000Y27940000D01*
X67310000Y29845000D02*
X62230000Y29845000D01*
X69215000Y27940000D02*
X67310000Y29845000D01*
X59055000Y36195000D02*
X59055000Y33020000D01*
%TO.N,Net-(C6-Pad2)*%
X69850000Y14050000D02*
X71835000Y14050000D01*
X73660000Y15875000D02*
X73660000Y19050000D01*
X71835000Y14050000D02*
X73660000Y15875000D01*
X48895000Y39370000D02*
X48895000Y37465000D01*
X48260000Y36830000D02*
X45720000Y36830000D01*
X48895000Y37465000D02*
X48260000Y36830000D01*
%TO.N,Net-(C8-Pad1)*%
X66675000Y24130000D02*
X66675000Y22225000D01*
X66040000Y21590000D02*
X66040000Y19050000D01*
X66675000Y22225000D02*
X66040000Y21590000D01*
X59690000Y12065000D02*
X59690000Y15240000D01*
X60325000Y15875000D02*
X62230000Y15875000D01*
X59690000Y15240000D02*
X60325000Y15875000D01*
X62230000Y18415000D02*
X62865000Y19050000D01*
X62865000Y19050000D02*
X66040000Y19050000D01*
X62230000Y15875000D02*
X62230000Y18415000D01*
D26*
%TO.N,/~IOCTRL*%
X53340000Y3175000D02*
X54610000Y4445000D01*
X54610000Y4445000D02*
X54610000Y8890000D01*
X54610000Y8890000D02*
X53340000Y10160000D01*
%TO.N,Net-(D1-Pad1)*%
X24130000Y13970000D02*
X26035000Y13970000D01*
X23495000Y14605000D02*
X24130000Y13970000D01*
X23495000Y22225000D02*
X23495000Y14605000D01*
X21590000Y24130000D02*
X23495000Y22225000D01*
D27*
%TO.N,Net-(R1-Pad1)*%
X48895000Y19050000D02*
X44450000Y19050000D01*
X44450000Y13970000D02*
X44450000Y19050000D01*
X43815000Y21590000D02*
X44450000Y20955000D01*
X44450000Y19050000D02*
X44450000Y20955000D01*
X43815000Y21590000D02*
X41275000Y21590000D01*
D26*
%TO.N,Net-(U1-Pad4)*%
X13970000Y29210000D02*
X13970000Y31750000D01*
X15240000Y33020000D02*
X18415000Y33020000D01*
X13970000Y31750000D02*
X15240000Y33020000D01*
%TD*%
D28*
%TO.N,GND*%
X75540000Y660000D02*
X660000Y660000D01*
X660000Y2146603D01*
X16931208Y2146603D01*
X17008843Y1897528D01*
X17272883Y1771629D01*
X17556411Y1699661D01*
X17848531Y1684389D01*
X18138019Y1726401D01*
X18413747Y1824081D01*
X18551157Y1897528D01*
X18628792Y2146603D01*
X17780000Y2995395D01*
X16931208Y2146603D01*
X660000Y2146603D01*
X660000Y3106469D01*
X16289389Y3106469D01*
X16331401Y2816981D01*
X16429081Y2541253D01*
X16502528Y2403843D01*
X16751603Y2326208D01*
X17600395Y3175000D01*
X16751603Y4023792D01*
X16502528Y3946157D01*
X16376629Y3682117D01*
X16304661Y3398589D01*
X16289389Y3106469D01*
X660000Y3106469D01*
X660000Y29567298D01*
X2361903Y29567298D01*
X2433486Y29323329D01*
X2688996Y29202429D01*
X2963184Y29133700D01*
X3245512Y29119783D01*
X3525130Y29161213D01*
X3791292Y29256397D01*
X3916514Y29323329D01*
X3988097Y29567298D01*
X3175000Y30380395D01*
X2361903Y29567298D01*
X660000Y29567298D01*
X660000Y30489488D01*
X1734783Y30489488D01*
X1776213Y30209870D01*
X1871397Y29943708D01*
X1938329Y29818486D01*
X2182298Y29746903D01*
X2995395Y30560000D01*
X3354605Y30560000D01*
X4167702Y29746903D01*
X4411671Y29818486D01*
X4532571Y30073996D01*
X4601300Y30348184D01*
X4604347Y30410000D01*
X4911928Y30410000D01*
X4911928Y28010000D01*
X4924188Y27885518D01*
X4960498Y27765820D01*
X5019463Y27655506D01*
X5098815Y27558815D01*
X5195506Y27479463D01*
X5305820Y27420498D01*
X5425518Y27384188D01*
X5550000Y27371928D01*
X7150000Y27371928D01*
X7274482Y27384188D01*
X7394180Y27420498D01*
X7504494Y27479463D01*
X7601185Y27558815D01*
X7680537Y27655506D01*
X7739502Y27765820D01*
X7775812Y27885518D01*
X7777581Y27903483D01*
X7870393Y27790392D01*
X8055001Y27638888D01*
X8055001Y27346028D01*
X8050960Y27305000D01*
X8067082Y27141312D01*
X8114828Y26983914D01*
X8192364Y26838855D01*
X8210968Y26816186D01*
X8296710Y26711709D01*
X8328573Y26685559D01*
X8905562Y26108569D01*
X8931709Y26076709D01*
X8963568Y26050563D01*
X8963570Y26050561D01*
X9038499Y25989069D01*
X9058854Y25972364D01*
X9097962Y25951460D01*
X8890000Y25971943D01*
X8608691Y25944236D01*
X8338192Y25862182D01*
X8088899Y25728932D01*
X7870392Y25549607D01*
X7691068Y25331100D01*
X7620000Y25198142D01*
X7548932Y25331101D01*
X7369607Y25549608D01*
X7151100Y25728932D01*
X6901807Y25862182D01*
X6631308Y25944236D01*
X6350000Y25971943D01*
X6068691Y25944236D01*
X5798192Y25862182D01*
X5548899Y25728932D01*
X5330392Y25549607D01*
X5151068Y25331100D01*
X5017818Y25081807D01*
X4935764Y24811308D01*
X4915000Y24600491D01*
X4915000Y23659508D01*
X4935764Y23448691D01*
X5017818Y23178192D01*
X5151068Y22928899D01*
X5330393Y22710392D01*
X5548900Y22531068D01*
X5798193Y22397818D01*
X6068692Y22315764D01*
X6350000Y22288057D01*
X6631309Y22315764D01*
X6901808Y22397818D01*
X7151101Y22531068D01*
X7369608Y22710392D01*
X7548932Y22928899D01*
X7620000Y23061858D01*
X7691068Y22928899D01*
X7870393Y22710392D01*
X8088900Y22531068D01*
X8338193Y22397818D01*
X8608692Y22315764D01*
X8890000Y22288057D01*
X9171309Y22315764D01*
X9441808Y22397818D01*
X9691101Y22531068D01*
X9909608Y22710392D01*
X10088932Y22928899D01*
X10160000Y23061858D01*
X10231068Y22928899D01*
X10410393Y22710392D01*
X10628900Y22531068D01*
X10878193Y22397818D01*
X11148692Y22315764D01*
X11430000Y22288057D01*
X11711309Y22315764D01*
X11981808Y22397818D01*
X12231101Y22531068D01*
X12449608Y22710392D01*
X12628932Y22928899D01*
X12700000Y23061858D01*
X12771068Y22928899D01*
X12950393Y22710392D01*
X13168900Y22531068D01*
X13418193Y22397818D01*
X13688692Y22315764D01*
X13970000Y22288057D01*
X14251309Y22315764D01*
X14521808Y22397818D01*
X14771101Y22531068D01*
X14989608Y22710392D01*
X15168932Y22928899D01*
X15240000Y23061858D01*
X15311068Y22928899D01*
X15490393Y22710392D01*
X15708900Y22531068D01*
X15958193Y22397818D01*
X16228692Y22315764D01*
X16510000Y22288057D01*
X16791309Y22315764D01*
X17061808Y22397818D01*
X17311101Y22531068D01*
X17529608Y22710392D01*
X17708932Y22928899D01*
X17780000Y23061858D01*
X17851068Y22928899D01*
X18030393Y22710392D01*
X18248900Y22531068D01*
X18498193Y22397818D01*
X18768692Y22315764D01*
X19050000Y22288057D01*
X19331309Y22315764D01*
X19601808Y22397818D01*
X19851101Y22531068D01*
X20069608Y22710392D01*
X20248932Y22928899D01*
X20320000Y23061858D01*
X20391068Y22928899D01*
X20570393Y22710392D01*
X20788900Y22531068D01*
X21038193Y22397818D01*
X21308692Y22315764D01*
X21590000Y22288057D01*
X21871309Y22315764D01*
X22141429Y22397703D01*
X22660000Y21879131D01*
X22660001Y17866492D01*
X22514895Y18014500D01*
X22281646Y18173715D01*
X22021818Y18284367D01*
X21939039Y18301904D01*
X21717000Y18179915D01*
X21717000Y16637000D01*
X21737000Y16637000D01*
X21737000Y16383000D01*
X21717000Y16383000D01*
X21717000Y14840085D01*
X21939039Y14718096D01*
X22021818Y14735633D01*
X22281646Y14846285D01*
X22514895Y15005500D01*
X22660001Y15153509D01*
X22660001Y14646028D01*
X22655960Y14605000D01*
X22672082Y14441312D01*
X22719828Y14283914D01*
X22797364Y14138855D01*
X22819949Y14111335D01*
X22901710Y14011709D01*
X22933573Y13985559D01*
X23510562Y13408569D01*
X23536709Y13376709D01*
X23568568Y13350563D01*
X23568570Y13350561D01*
X23642032Y13290273D01*
X23663854Y13272364D01*
X23808913Y13194828D01*
X23966311Y13147082D01*
X24088981Y13135000D01*
X24088982Y13135000D01*
X24130000Y13130960D01*
X24171018Y13135000D01*
X24463888Y13135000D01*
X24615392Y12950392D01*
X24833899Y12771068D01*
X25083192Y12637818D01*
X25353691Y12555764D01*
X25564508Y12535000D01*
X26505492Y12535000D01*
X26716309Y12555764D01*
X26986808Y12637818D01*
X27236101Y12771068D01*
X27454608Y12950392D01*
X27633932Y13168899D01*
X27740001Y13367340D01*
X27740001Y10836029D01*
X27735960Y10795000D01*
X27752082Y10631312D01*
X27799828Y10473914D01*
X27877364Y10328855D01*
X27899949Y10301335D01*
X27981710Y10201709D01*
X28013574Y10175559D01*
X28464133Y9725000D01*
X11140869Y9725000D01*
X9725000Y11140867D01*
X9725000Y14938888D01*
X9909608Y15090392D01*
X10088932Y15308899D01*
X10160000Y15441858D01*
X10231068Y15308899D01*
X10410393Y15090392D01*
X10628900Y14911068D01*
X10878193Y14777818D01*
X11148692Y14695764D01*
X11430000Y14668057D01*
X11711309Y14695764D01*
X11981808Y14777818D01*
X12231101Y14911068D01*
X12449608Y15090392D01*
X12628932Y15308899D01*
X12700000Y15441858D01*
X12771068Y15308899D01*
X12950393Y15090392D01*
X13168900Y14911068D01*
X13418193Y14777818D01*
X13688692Y14695764D01*
X13970000Y14668057D01*
X14251309Y14695764D01*
X14521808Y14777818D01*
X14771101Y14911068D01*
X14989608Y15090392D01*
X15168932Y15308899D01*
X15240000Y15441858D01*
X15311068Y15308899D01*
X15490393Y15090392D01*
X15708900Y14911068D01*
X15958193Y14777818D01*
X16228692Y14695764D01*
X16510000Y14668057D01*
X16791309Y14695764D01*
X17061808Y14777818D01*
X17311101Y14911068D01*
X17529608Y15090392D01*
X17708932Y15308899D01*
X17780000Y15441858D01*
X17851068Y15308899D01*
X18030393Y15090392D01*
X18248900Y14911068D01*
X18498193Y14777818D01*
X18768692Y14695764D01*
X19050000Y14668057D01*
X19331309Y14695764D01*
X19601808Y14777818D01*
X19851101Y14911068D01*
X20069608Y15090392D01*
X20248932Y15308899D01*
X20317265Y15436741D01*
X20467399Y15207161D01*
X20665105Y15005500D01*
X20898354Y14846285D01*
X21158182Y14735633D01*
X21240961Y14718096D01*
X21463000Y14840085D01*
X21463000Y16383000D01*
X21443000Y16383000D01*
X21443000Y16637000D01*
X21463000Y16637000D01*
X21463000Y18179915D01*
X21240961Y18301904D01*
X21158182Y18284367D01*
X20898354Y18173715D01*
X20665105Y18014500D01*
X20467399Y17812839D01*
X20317265Y17583259D01*
X20248932Y17711101D01*
X20069607Y17929608D01*
X19851100Y18108932D01*
X19601807Y18242182D01*
X19331308Y18324236D01*
X19050000Y18351943D01*
X18768691Y18324236D01*
X18498192Y18242182D01*
X18248899Y18108932D01*
X18030392Y17929607D01*
X17851068Y17711100D01*
X17780000Y17578142D01*
X17708932Y17711101D01*
X17529607Y17929608D01*
X17311100Y18108932D01*
X17061807Y18242182D01*
X16791308Y18324236D01*
X16510000Y18351943D01*
X16228691Y18324236D01*
X15958192Y18242182D01*
X15708899Y18108932D01*
X15490392Y17929607D01*
X15311068Y17711100D01*
X15240000Y17578142D01*
X15168932Y17711101D01*
X14989607Y17929608D01*
X14771100Y18108932D01*
X14521807Y18242182D01*
X14251308Y18324236D01*
X13970000Y18351943D01*
X13688691Y18324236D01*
X13418192Y18242182D01*
X13168899Y18108932D01*
X12950392Y17929607D01*
X12771068Y17711100D01*
X12700000Y17578142D01*
X12628932Y17711101D01*
X12449607Y17929608D01*
X12231100Y18108932D01*
X11981807Y18242182D01*
X11711308Y18324236D01*
X11430000Y18351943D01*
X11148691Y18324236D01*
X10878192Y18242182D01*
X10628899Y18108932D01*
X10410392Y17929607D01*
X10231068Y17711100D01*
X10160000Y17578142D01*
X10088932Y17711101D01*
X9909607Y17929608D01*
X9691100Y18108932D01*
X9441807Y18242182D01*
X9171308Y18324236D01*
X8890000Y18351943D01*
X8608691Y18324236D01*
X8338192Y18242182D01*
X8088899Y18108932D01*
X7870392Y17929607D01*
X7777581Y17816517D01*
X7775812Y17834482D01*
X7739502Y17954180D01*
X7680537Y18064494D01*
X7601185Y18161185D01*
X7504494Y18240537D01*
X7394180Y18299502D01*
X7274482Y18335812D01*
X7150000Y18348072D01*
X5550000Y18348072D01*
X5425518Y18335812D01*
X5305820Y18299502D01*
X5195506Y18240537D01*
X5098815Y18161185D01*
X5019463Y18064494D01*
X4960498Y17954180D01*
X4924188Y17834482D01*
X4911928Y17710000D01*
X4911928Y15310000D01*
X4924188Y15185518D01*
X4960498Y15065820D01*
X5019463Y14955506D01*
X5098815Y14858815D01*
X5195506Y14779463D01*
X5305820Y14720498D01*
X5425518Y14684188D01*
X5515001Y14675375D01*
X5515000Y9566019D01*
X5510960Y9525000D01*
X5515000Y9483982D01*
X5527082Y9361312D01*
X5574828Y9203914D01*
X5652364Y9058855D01*
X5756709Y8931709D01*
X5788579Y8905554D01*
X7635563Y7058568D01*
X7661709Y7026709D01*
X7693568Y7000563D01*
X7693570Y7000561D01*
X7788854Y6922364D01*
X7933913Y6844828D01*
X8091311Y6797082D01*
X8255000Y6780960D01*
X8296018Y6785000D01*
X16749893Y6785000D01*
X16626525Y6661632D01*
X16464010Y6418411D01*
X16352068Y6148158D01*
X16295000Y5861260D01*
X16295000Y5568740D01*
X16352068Y5281842D01*
X16464010Y5011589D01*
X16626525Y4768368D01*
X16833368Y4561525D01*
X17006729Y4445689D01*
X16931208Y4203397D01*
X17780000Y3354605D01*
X18628792Y4203397D01*
X18553271Y4445689D01*
X18726632Y4561525D01*
X18933475Y4768368D01*
X19050000Y4942760D01*
X19166525Y4768368D01*
X19373368Y4561525D01*
X19547760Y4445000D01*
X19373368Y4328475D01*
X19166525Y4121632D01*
X19050689Y3948271D01*
X18808397Y4023792D01*
X17959605Y3175000D01*
X18808397Y2326208D01*
X19050689Y2401729D01*
X19166525Y2228368D01*
X19373368Y2021525D01*
X19616589Y1859010D01*
X19886842Y1747068D01*
X20173740Y1690000D01*
X20466260Y1690000D01*
X20753158Y1747068D01*
X21023411Y1859010D01*
X21266632Y2021525D01*
X21473475Y2228368D01*
X21590000Y2402760D01*
X21706525Y2228368D01*
X21913368Y2021525D01*
X22156589Y1859010D01*
X22426842Y1747068D01*
X22713740Y1690000D01*
X23006260Y1690000D01*
X23293158Y1747068D01*
X23563411Y1859010D01*
X23806632Y2021525D01*
X24013475Y2228368D01*
X24130000Y2402760D01*
X24246525Y2228368D01*
X24453368Y2021525D01*
X24696589Y1859010D01*
X24966842Y1747068D01*
X25253740Y1690000D01*
X25546260Y1690000D01*
X25833158Y1747068D01*
X26103411Y1859010D01*
X26346632Y2021525D01*
X26553475Y2228368D01*
X26670000Y2402760D01*
X26786525Y2228368D01*
X26993368Y2021525D01*
X27236589Y1859010D01*
X27506842Y1747068D01*
X27793740Y1690000D01*
X28086260Y1690000D01*
X28373158Y1747068D01*
X28643411Y1859010D01*
X28886632Y2021525D01*
X29093475Y2228368D01*
X29210000Y2402760D01*
X29326525Y2228368D01*
X29533368Y2021525D01*
X29776589Y1859010D01*
X30046842Y1747068D01*
X30333740Y1690000D01*
X30626260Y1690000D01*
X30913158Y1747068D01*
X31183411Y1859010D01*
X31426632Y2021525D01*
X31633475Y2228368D01*
X31750000Y2402760D01*
X31866525Y2228368D01*
X32073368Y2021525D01*
X32316589Y1859010D01*
X32586842Y1747068D01*
X32873740Y1690000D01*
X33166260Y1690000D01*
X33453158Y1747068D01*
X33723411Y1859010D01*
X33966632Y2021525D01*
X34173475Y2228368D01*
X34290000Y2402760D01*
X34406525Y2228368D01*
X34613368Y2021525D01*
X34856589Y1859010D01*
X35126842Y1747068D01*
X35413740Y1690000D01*
X35706260Y1690000D01*
X35993158Y1747068D01*
X36263411Y1859010D01*
X36506632Y2021525D01*
X36713475Y2228368D01*
X36830000Y2402760D01*
X36946525Y2228368D01*
X37153368Y2021525D01*
X37396589Y1859010D01*
X37666842Y1747068D01*
X37953740Y1690000D01*
X38246260Y1690000D01*
X38533158Y1747068D01*
X38803411Y1859010D01*
X39046632Y2021525D01*
X39253475Y2228368D01*
X39370000Y2402760D01*
X39486525Y2228368D01*
X39693368Y2021525D01*
X39936589Y1859010D01*
X40206842Y1747068D01*
X40493740Y1690000D01*
X40786260Y1690000D01*
X41073158Y1747068D01*
X41343411Y1859010D01*
X41586632Y2021525D01*
X41793475Y2228368D01*
X41910000Y2402760D01*
X42026525Y2228368D01*
X42233368Y2021525D01*
X42476589Y1859010D01*
X42746842Y1747068D01*
X43033740Y1690000D01*
X43326260Y1690000D01*
X43613158Y1747068D01*
X43883411Y1859010D01*
X44126632Y2021525D01*
X44333475Y2228368D01*
X44450000Y2402760D01*
X44566525Y2228368D01*
X44773368Y2021525D01*
X45016589Y1859010D01*
X45286842Y1747068D01*
X45573740Y1690000D01*
X45866260Y1690000D01*
X46153158Y1747068D01*
X46423411Y1859010D01*
X46666632Y2021525D01*
X46873475Y2228368D01*
X46990000Y2402760D01*
X47106525Y2228368D01*
X47313368Y2021525D01*
X47556589Y1859010D01*
X47826842Y1747068D01*
X48113740Y1690000D01*
X48406260Y1690000D01*
X48693158Y1747068D01*
X48963411Y1859010D01*
X49206632Y2021525D01*
X49413475Y2228368D01*
X49530000Y2402760D01*
X49646525Y2228368D01*
X49853368Y2021525D01*
X50096589Y1859010D01*
X50366842Y1747068D01*
X50653740Y1690000D01*
X50946260Y1690000D01*
X51233158Y1747068D01*
X51503411Y1859010D01*
X51746632Y2021525D01*
X51953475Y2228368D01*
X52070000Y2402760D01*
X52186525Y2228368D01*
X52393368Y2021525D01*
X52636589Y1859010D01*
X52906842Y1747068D01*
X53193740Y1690000D01*
X53486260Y1690000D01*
X53773158Y1747068D01*
X54043411Y1859010D01*
X54286632Y2021525D01*
X54493475Y2228368D01*
X54610000Y2402760D01*
X54726525Y2228368D01*
X54933368Y2021525D01*
X55176589Y1859010D01*
X55446842Y1747068D01*
X55733740Y1690000D01*
X56026260Y1690000D01*
X56313158Y1747068D01*
X56583411Y1859010D01*
X56826632Y2021525D01*
X57033475Y2228368D01*
X57150000Y2402760D01*
X57266525Y2228368D01*
X57473368Y2021525D01*
X57716589Y1859010D01*
X57986842Y1747068D01*
X58273740Y1690000D01*
X58566260Y1690000D01*
X58853158Y1747068D01*
X59123411Y1859010D01*
X59366632Y2021525D01*
X59573475Y2228368D01*
X59735990Y2471589D01*
X59847932Y2741842D01*
X59905000Y3028740D01*
X59905000Y3321260D01*
X59847932Y3608158D01*
X59735990Y3878411D01*
X59573475Y4121632D01*
X59386392Y4308715D01*
X59513386Y4376595D01*
X59647962Y4487038D01*
X59758405Y4621614D01*
X59840472Y4775150D01*
X59891008Y4941746D01*
X59908072Y5115000D01*
X59908072Y6315000D01*
X59891008Y6488254D01*
X59861661Y6585000D01*
X61544172Y6585000D01*
X61595000Y6579994D01*
X61645828Y6585000D01*
X61645838Y6585000D01*
X61797895Y6599976D01*
X61992993Y6659159D01*
X62172797Y6755266D01*
X62330396Y6884604D01*
X62362807Y6924097D01*
X63293711Y7855000D01*
X65045604Y7855000D01*
X65125241Y7775363D01*
X65360273Y7618320D01*
X65621426Y7510147D01*
X65898665Y7455000D01*
X66181335Y7455000D01*
X66458574Y7510147D01*
X66719727Y7618320D01*
X66954759Y7775363D01*
X67154637Y7975241D01*
X67311680Y8210273D01*
X67419853Y8471426D01*
X67433684Y8540960D01*
X72268091Y8540960D01*
X72362930Y8276119D01*
X72507615Y8034869D01*
X72696586Y7826481D01*
X72922580Y7658963D01*
X73176913Y7538754D01*
X73310961Y7498096D01*
X73533000Y7620085D01*
X73533000Y8763000D01*
X73787000Y8763000D01*
X73787000Y7620085D01*
X74009039Y7498096D01*
X74143087Y7538754D01*
X74397420Y7658963D01*
X74623414Y7826481D01*
X74812385Y8034869D01*
X74957070Y8276119D01*
X75051909Y8540960D01*
X74930624Y8763000D01*
X73787000Y8763000D01*
X73533000Y8763000D01*
X72389376Y8763000D01*
X72268091Y8540960D01*
X67433684Y8540960D01*
X67475000Y8748665D01*
X67475000Y9031335D01*
X67433685Y9239040D01*
X72268091Y9239040D01*
X72389376Y9017000D01*
X73533000Y9017000D01*
X73533000Y10159915D01*
X73787000Y10159915D01*
X73787000Y9017000D01*
X74930624Y9017000D01*
X75051909Y9239040D01*
X74957070Y9503881D01*
X74812385Y9745131D01*
X74623414Y9953519D01*
X74397420Y10121037D01*
X74143087Y10241246D01*
X74009039Y10281904D01*
X73787000Y10159915D01*
X73533000Y10159915D01*
X73310961Y10281904D01*
X73176913Y10241246D01*
X72922580Y10121037D01*
X72696586Y9953519D01*
X72507615Y9745131D01*
X72362930Y9503881D01*
X72268091Y9239040D01*
X67433685Y9239040D01*
X67419853Y9308574D01*
X67311680Y9569727D01*
X67154637Y9804759D01*
X66954759Y10004637D01*
X66719727Y10161680D01*
X66458574Y10269853D01*
X66181335Y10325000D01*
X65898665Y10325000D01*
X65621426Y10269853D01*
X65360273Y10161680D01*
X65125241Y10004637D01*
X65045604Y9925000D01*
X62915827Y9925000D01*
X62864999Y9930006D01*
X62814171Y9925000D01*
X62814162Y9925000D01*
X62662105Y9910024D01*
X62467007Y9850841D01*
X62383309Y9806104D01*
X62287202Y9754734D01*
X62178071Y9665172D01*
X62129604Y9625396D01*
X62097197Y9585908D01*
X61166290Y8655000D01*
X59964452Y8655000D01*
X60040130Y8666213D01*
X60306292Y8761397D01*
X60431514Y8828329D01*
X60503097Y9072298D01*
X59690000Y9885395D01*
X58876903Y9072298D01*
X58948486Y8828329D01*
X59203996Y8707429D01*
X59413157Y8655000D01*
X58848711Y8655000D01*
X57550000Y9953710D01*
X57550000Y12649173D01*
X57555006Y12700001D01*
X57550000Y12750829D01*
X57550000Y12750838D01*
X57535024Y12902895D01*
X57475841Y13097993D01*
X57382638Y13272364D01*
X57379734Y13277798D01*
X57282803Y13395908D01*
X57250396Y13435396D01*
X57210908Y13467803D01*
X56012807Y14665903D01*
X55980396Y14705396D01*
X55822797Y14834734D01*
X55642993Y14930841D01*
X55447895Y14990024D01*
X55295838Y15005000D01*
X55295828Y15005000D01*
X55245000Y15010006D01*
X55194172Y15005000D01*
X52470000Y15005000D01*
X52470000Y18580000D01*
X52536928Y18580000D01*
X52536928Y16980000D01*
X52549188Y16855518D01*
X52585498Y16735820D01*
X52644463Y16625506D01*
X52723815Y16528815D01*
X52820506Y16449463D01*
X52930820Y16390498D01*
X53050518Y16354188D01*
X53175000Y16341928D01*
X54775000Y16341928D01*
X54899482Y16354188D01*
X55019180Y16390498D01*
X55129494Y16449463D01*
X55226185Y16528815D01*
X55305537Y16625506D01*
X55364502Y16735820D01*
X55400812Y16855518D01*
X55413072Y16980000D01*
X55413072Y18580000D01*
X55400812Y18704482D01*
X55364502Y18824180D01*
X55305537Y18934494D01*
X55226185Y19031185D01*
X55129494Y19110537D01*
X55019180Y19169502D01*
X54899482Y19205812D01*
X54775000Y19218072D01*
X53175000Y19218072D01*
X53050518Y19205812D01*
X52930820Y19169502D01*
X52820506Y19110537D01*
X52723815Y19031185D01*
X52644463Y18934494D01*
X52585498Y18824180D01*
X52549188Y18704482D01*
X52536928Y18580000D01*
X52470000Y18580000D01*
X52470000Y19256290D01*
X53486117Y20272407D01*
X53636426Y20210147D01*
X53913665Y20155000D01*
X54196335Y20155000D01*
X54473574Y20210147D01*
X54734727Y20318320D01*
X54969759Y20475363D01*
X55091694Y20597298D01*
X58241903Y20597298D01*
X58313486Y20353329D01*
X58568996Y20232429D01*
X58843184Y20163700D01*
X59125512Y20149783D01*
X59405130Y20191213D01*
X59671292Y20286397D01*
X59796514Y20353329D01*
X59868097Y20597298D01*
X59055000Y21410395D01*
X58241903Y20597298D01*
X55091694Y20597298D01*
X55169637Y20675241D01*
X55326680Y20910273D01*
X55434853Y21171426D01*
X55490000Y21448665D01*
X55490000Y21519488D01*
X57614783Y21519488D01*
X57656213Y21239870D01*
X57751397Y20973708D01*
X57818329Y20848486D01*
X58062298Y20776903D01*
X58875395Y21590000D01*
X59234605Y21590000D01*
X60047702Y20776903D01*
X60291671Y20848486D01*
X60412571Y21103996D01*
X60481300Y21378184D01*
X60495217Y21660512D01*
X60453787Y21940130D01*
X60358603Y22206292D01*
X60291671Y22331514D01*
X60047702Y22403097D01*
X59234605Y21590000D01*
X58875395Y21590000D01*
X58062298Y22403097D01*
X57818329Y22331514D01*
X57697429Y22076004D01*
X57628700Y21801816D01*
X57614783Y21519488D01*
X55490000Y21519488D01*
X55490000Y21731335D01*
X55434853Y22008574D01*
X55326680Y22269727D01*
X55169637Y22504759D01*
X55091694Y22582702D01*
X58241903Y22582702D01*
X59055000Y21769605D01*
X59868097Y22582702D01*
X59796514Y22826671D01*
X59541004Y22947571D01*
X59266816Y23016300D01*
X58984488Y23030217D01*
X58704870Y22988787D01*
X58438708Y22893603D01*
X58313486Y22826671D01*
X58241903Y22582702D01*
X55091694Y22582702D01*
X54969759Y22704637D01*
X54734727Y22861680D01*
X54473574Y22969853D01*
X54196335Y23025000D01*
X53913665Y23025000D01*
X53636426Y22969853D01*
X53375273Y22861680D01*
X53140241Y22704637D01*
X53005795Y22570191D01*
X52942007Y22550841D01*
X52902126Y22529524D01*
X52762202Y22454734D01*
X52660399Y22371186D01*
X52604604Y22325396D01*
X52572197Y22285908D01*
X50739092Y20452802D01*
X50699605Y20420396D01*
X50667198Y20380908D01*
X50667197Y20380907D01*
X50570266Y20262797D01*
X50474160Y20082993D01*
X50414977Y19887895D01*
X50394994Y19685000D01*
X50400001Y19634162D01*
X50400000Y14398711D01*
X49101290Y13100000D01*
X45594544Y13100000D01*
X45721680Y13290273D01*
X45829853Y13551426D01*
X45885000Y13828665D01*
X45885000Y14111335D01*
X45829853Y14388574D01*
X45721680Y14649727D01*
X45564637Y14884759D01*
X45385000Y15064396D01*
X45385000Y18115000D01*
X47871315Y18115000D01*
X48012114Y17974201D01*
X48238957Y17822629D01*
X48491011Y17718225D01*
X48758589Y17665000D01*
X49031411Y17665000D01*
X49298989Y17718225D01*
X49551043Y17822629D01*
X49777886Y17974201D01*
X49970799Y18167114D01*
X50122371Y18393957D01*
X50226775Y18646011D01*
X50280000Y18913589D01*
X50280000Y19186411D01*
X50226775Y19453989D01*
X50122371Y19706043D01*
X49970799Y19932886D01*
X49777886Y20125799D01*
X49551043Y20277371D01*
X49298989Y20381775D01*
X49031411Y20435000D01*
X48758589Y20435000D01*
X48491011Y20381775D01*
X48238957Y20277371D01*
X48012114Y20125799D01*
X47871315Y19985000D01*
X45385000Y19985000D01*
X45385000Y20909065D01*
X45389524Y20955000D01*
X45371472Y21138292D01*
X45318007Y21314541D01*
X45283989Y21378184D01*
X45231186Y21476972D01*
X45114344Y21619344D01*
X45078659Y21648630D01*
X44508630Y22218659D01*
X44479344Y22254344D01*
X44336972Y22371186D01*
X44174540Y22458007D01*
X43998292Y22511471D01*
X43860932Y22525000D01*
X43815000Y22529524D01*
X43769068Y22525000D01*
X42764044Y22525000D01*
X42694608Y22609608D01*
X42476101Y22788932D01*
X42343142Y22860000D01*
X42476101Y22931068D01*
X42694608Y23110392D01*
X42764044Y23195000D01*
X43355604Y23195000D01*
X43535241Y23015363D01*
X43770273Y22858320D01*
X44031426Y22750147D01*
X44308665Y22695000D01*
X44591335Y22695000D01*
X44868574Y22750147D01*
X45129727Y22858320D01*
X45334284Y22995000D01*
X47871315Y22995000D01*
X48012114Y22854201D01*
X48238957Y22702629D01*
X48491011Y22598225D01*
X48758589Y22545000D01*
X49031411Y22545000D01*
X49298989Y22598225D01*
X49551043Y22702629D01*
X49777886Y22854201D01*
X49970799Y23047114D01*
X50122371Y23273957D01*
X50226775Y23526011D01*
X50280000Y23793589D01*
X50280000Y24066411D01*
X50226775Y24333989D01*
X50122371Y24586043D01*
X49970799Y24812886D01*
X49777886Y25005799D01*
X49551043Y25157371D01*
X49298989Y25261775D01*
X49031411Y25315000D01*
X48758589Y25315000D01*
X48491011Y25261775D01*
X48238957Y25157371D01*
X48012114Y25005799D01*
X47871315Y24865000D01*
X45684748Y24865000D01*
X45564637Y25044759D01*
X45385000Y25224396D01*
X45385000Y25655604D01*
X45564637Y25835241D01*
X45721680Y26070273D01*
X45829853Y26331426D01*
X45885000Y26608665D01*
X45885000Y26891335D01*
X45829853Y27168574D01*
X45721680Y27429727D01*
X45581180Y27640000D01*
X46944068Y27640000D01*
X46990000Y27635476D01*
X47035932Y27640000D01*
X47173292Y27653529D01*
X47349540Y27706993D01*
X47511972Y27793814D01*
X47654344Y27910656D01*
X47683630Y27946341D01*
X48282686Y28545397D01*
X48476426Y28465147D01*
X48753665Y28410000D01*
X49036335Y28410000D01*
X49313574Y28465147D01*
X49574727Y28573320D01*
X49809759Y28730363D01*
X49989396Y28910000D01*
X52317711Y28910000D01*
X53120001Y28107709D01*
X53120000Y27129396D01*
X52940363Y26949759D01*
X52783320Y26714727D01*
X52675147Y26453574D01*
X52620000Y26176335D01*
X52620000Y25893665D01*
X52675147Y25616426D01*
X52783320Y25355273D01*
X52940363Y25120241D01*
X53140241Y24920363D01*
X53375273Y24763320D01*
X53636426Y24655147D01*
X53913665Y24600000D01*
X54196335Y24600000D01*
X54473574Y24655147D01*
X54734727Y24763320D01*
X54969759Y24920363D01*
X55091694Y25042298D01*
X58241903Y25042298D01*
X58313486Y24798329D01*
X58568996Y24677429D01*
X58843184Y24608700D01*
X59125512Y24594783D01*
X59405130Y24636213D01*
X59671292Y24731397D01*
X59796514Y24798329D01*
X59868097Y25042298D01*
X59055000Y25855395D01*
X58241903Y25042298D01*
X55091694Y25042298D01*
X55169637Y25120241D01*
X55326680Y25355273D01*
X55434853Y25616426D01*
X55490000Y25893665D01*
X55490000Y26176335D01*
X55434853Y26453574D01*
X55326680Y26714727D01*
X55169637Y26949759D01*
X54990000Y27129396D01*
X54990000Y28449069D01*
X54994524Y28495001D01*
X54976471Y28678293D01*
X54952203Y28758292D01*
X54927290Y28840421D01*
X56456370Y27311341D01*
X56485656Y27275656D01*
X56628028Y27158814D01*
X56790460Y27071993D01*
X56936469Y27027702D01*
X56966708Y27018529D01*
X57150000Y27000476D01*
X57195932Y27005000D01*
X57986653Y27005000D01*
X57946023Y26964370D01*
X58062296Y26848097D01*
X57818329Y26776514D01*
X57697429Y26521004D01*
X57628700Y26246816D01*
X57614783Y25964488D01*
X57656213Y25684870D01*
X57751397Y25418708D01*
X57818329Y25293486D01*
X58062298Y25221903D01*
X58875395Y26035000D01*
X58861253Y26049142D01*
X59040858Y26228747D01*
X59055000Y26214605D01*
X59069143Y26228747D01*
X59248748Y26049142D01*
X59234605Y26035000D01*
X60047702Y25221903D01*
X60291671Y25293486D01*
X60412571Y25548996D01*
X60481300Y25823184D01*
X60495217Y26105512D01*
X60453787Y26385130D01*
X60396005Y26546706D01*
X60795000Y26147711D01*
X60795000Y25893665D01*
X60850147Y25616426D01*
X60958320Y25355273D01*
X61115363Y25120241D01*
X61315241Y24920363D01*
X61550273Y24763320D01*
X61811426Y24655147D01*
X62088665Y24600000D01*
X62371335Y24600000D01*
X62648574Y24655147D01*
X62909727Y24763320D01*
X63144759Y24920363D01*
X63324396Y25100000D01*
X65476025Y25100000D01*
X65435498Y25024180D01*
X65399188Y24904482D01*
X65386928Y24780000D01*
X65386928Y23480000D01*
X65399188Y23355518D01*
X65435498Y23235820D01*
X65494463Y23125506D01*
X65573815Y23028815D01*
X65670506Y22949463D01*
X65740001Y22912317D01*
X65740001Y22612290D01*
X65411341Y22283630D01*
X65375656Y22254344D01*
X65258814Y22111971D01*
X65171993Y21949539D01*
X65146488Y21865460D01*
X65118529Y21773291D01*
X65100476Y21590000D01*
X65105000Y21544068D01*
X65105001Y20144397D01*
X64945604Y19985000D01*
X62910935Y19985000D01*
X62865000Y19989524D01*
X62681708Y19971472D01*
X62505459Y19918007D01*
X62451266Y19889040D01*
X62343028Y19831186D01*
X62200656Y19714344D01*
X62171370Y19678659D01*
X61601336Y19108625D01*
X61565657Y19079344D01*
X61448815Y18936972D01*
X61388527Y18824180D01*
X61361994Y18774540D01*
X61308529Y18598291D01*
X61290476Y18415000D01*
X61295001Y18369058D01*
X61295000Y16969396D01*
X61135604Y16810000D01*
X60370935Y16810000D01*
X60325000Y16814524D01*
X60141708Y16796472D01*
X59965459Y16743007D01*
X59908880Y16712765D01*
X59803028Y16656186D01*
X59660656Y16539344D01*
X59631370Y16503659D01*
X59061336Y15933625D01*
X59025657Y15904344D01*
X58908815Y15761972D01*
X58821994Y15599540D01*
X58768529Y15423291D01*
X58750476Y15240000D01*
X58755001Y15194058D01*
X58755000Y13487622D01*
X58645820Y13454502D01*
X58535506Y13395537D01*
X58438815Y13316185D01*
X58359463Y13219494D01*
X58300498Y13109180D01*
X58264188Y12989482D01*
X58251928Y12865000D01*
X58251928Y11265000D01*
X58264188Y11140518D01*
X58300498Y11020820D01*
X58359463Y10910506D01*
X58438815Y10813815D01*
X58451758Y10803193D01*
X58332429Y10551004D01*
X58263700Y10276816D01*
X58249783Y9994488D01*
X58291213Y9714870D01*
X58386397Y9448708D01*
X58453329Y9323486D01*
X58697298Y9251903D01*
X59510395Y10065000D01*
X59496253Y10079142D01*
X59675858Y10258747D01*
X59690000Y10244605D01*
X59704143Y10258747D01*
X59883748Y10079142D01*
X59869605Y10065000D01*
X60682702Y9251903D01*
X60926671Y9323486D01*
X61047571Y9578996D01*
X61116300Y9853184D01*
X61130217Y10135512D01*
X61088787Y10415130D01*
X60993603Y10681292D01*
X60928384Y10803309D01*
X60941185Y10813815D01*
X61020537Y10910506D01*
X61079502Y11020820D01*
X61115812Y11140518D01*
X61128072Y11265000D01*
X61128072Y12865000D01*
X61115812Y12989482D01*
X61079502Y13109180D01*
X61020537Y13219494D01*
X60941185Y13316185D01*
X60844494Y13395537D01*
X60734180Y13454502D01*
X60625000Y13487621D01*
X60625000Y14191335D01*
X68415000Y14191335D01*
X68415000Y13908665D01*
X68470147Y13631426D01*
X68578320Y13370273D01*
X68735363Y13135241D01*
X68935241Y12935363D01*
X69170273Y12778320D01*
X69431426Y12670147D01*
X69708665Y12615000D01*
X69991335Y12615000D01*
X70268574Y12670147D01*
X70529727Y12778320D01*
X70764759Y12935363D01*
X70944396Y13115000D01*
X71789068Y13115000D01*
X71835000Y13110476D01*
X71880932Y13115000D01*
X72018292Y13128529D01*
X72194540Y13181993D01*
X72356972Y13268814D01*
X72499344Y13385656D01*
X72528630Y13421341D01*
X74288660Y15181371D01*
X74324344Y15210656D01*
X74441186Y15353028D01*
X74528007Y15515460D01*
X74553512Y15599540D01*
X74581472Y15691708D01*
X74599524Y15875000D01*
X74595000Y15920935D01*
X74595000Y17955604D01*
X74774637Y18135241D01*
X74931680Y18370273D01*
X75039853Y18631426D01*
X75095000Y18908665D01*
X75095000Y19191335D01*
X75039853Y19468574D01*
X74931680Y19729727D01*
X74774637Y19964759D01*
X74574759Y20164637D01*
X74339727Y20321680D01*
X74078574Y20429853D01*
X73801335Y20485000D01*
X73518665Y20485000D01*
X73241426Y20429853D01*
X72980273Y20321680D01*
X72745241Y20164637D01*
X72545363Y19964759D01*
X72388320Y19729727D01*
X72280147Y19468574D01*
X72225000Y19191335D01*
X72225000Y18908665D01*
X72280147Y18631426D01*
X72388320Y18370273D01*
X72545363Y18135241D01*
X72725001Y17955603D01*
X72725000Y16262289D01*
X71447711Y14985000D01*
X70944396Y14985000D01*
X70764759Y15164637D01*
X70529727Y15321680D01*
X70268574Y15429853D01*
X69991335Y15485000D01*
X69708665Y15485000D01*
X69431426Y15429853D01*
X69170273Y15321680D01*
X68935241Y15164637D01*
X68735363Y14964759D01*
X68578320Y14729727D01*
X68470147Y14468574D01*
X68415000Y14191335D01*
X60625000Y14191335D01*
X60625000Y14852711D01*
X60712289Y14940000D01*
X61135604Y14940000D01*
X61315241Y14760363D01*
X61550273Y14603320D01*
X61811426Y14495147D01*
X62088665Y14440000D01*
X62371335Y14440000D01*
X62648574Y14495147D01*
X62909727Y14603320D01*
X63144759Y14760363D01*
X63344637Y14960241D01*
X63501680Y15195273D01*
X63609853Y15456426D01*
X63665000Y15733665D01*
X63665000Y16016335D01*
X63609853Y16293574D01*
X63501680Y16554727D01*
X63344637Y16789759D01*
X63165000Y16969396D01*
X63165000Y18027711D01*
X63252289Y18115000D01*
X64945604Y18115000D01*
X65125241Y17935363D01*
X65360273Y17778320D01*
X65621426Y17670147D01*
X65898665Y17615000D01*
X66181335Y17615000D01*
X66458574Y17670147D01*
X66719727Y17778320D01*
X66954759Y17935363D01*
X67154637Y18135241D01*
X67311680Y18370273D01*
X67419853Y18631426D01*
X67475000Y18908665D01*
X67475000Y19191335D01*
X67419853Y19468574D01*
X67311680Y19729727D01*
X67154637Y19964759D01*
X66975000Y20144396D01*
X66975000Y21202711D01*
X67303659Y21531370D01*
X67339344Y21560656D01*
X67456186Y21703028D01*
X67520316Y21823007D01*
X67543007Y21865459D01*
X67596472Y22041708D01*
X67614524Y22225000D01*
X67610000Y22270935D01*
X67610000Y22912317D01*
X67679494Y22949463D01*
X67776185Y23028815D01*
X67855537Y23125506D01*
X67914502Y23235820D01*
X67950812Y23355518D01*
X67963072Y23480000D01*
X67963072Y23837172D01*
X67979381Y23755179D01*
X68076247Y23521324D01*
X68216875Y23310860D01*
X68280000Y23247735D01*
X68280001Y22270942D01*
X68275476Y22225000D01*
X68293529Y22041709D01*
X68343654Y21876471D01*
X68346994Y21865460D01*
X68433815Y21703028D01*
X68550657Y21560656D01*
X68586336Y21531375D01*
X68915000Y21202711D01*
X68915001Y20144397D01*
X68735363Y19964759D01*
X68578320Y19729727D01*
X68470147Y19468574D01*
X68415000Y19191335D01*
X68415000Y18908665D01*
X68470147Y18631426D01*
X68578320Y18370273D01*
X68735363Y18135241D01*
X68935241Y17935363D01*
X69170273Y17778320D01*
X69431426Y17670147D01*
X69708665Y17615000D01*
X69991335Y17615000D01*
X70268574Y17670147D01*
X70529727Y17778320D01*
X70764759Y17935363D01*
X70964637Y18135241D01*
X71121680Y18370273D01*
X71229853Y18631426D01*
X71285000Y18908665D01*
X71285000Y19191335D01*
X71229853Y19468574D01*
X71121680Y19729727D01*
X70964637Y19964759D01*
X70785000Y20144396D01*
X70785000Y21544065D01*
X70789524Y21590000D01*
X70771472Y21773292D01*
X70718007Y21949541D01*
X70686453Y22008574D01*
X70631186Y22111972D01*
X70514344Y22254344D01*
X70478660Y22283629D01*
X70150000Y22612289D01*
X70150000Y23247735D01*
X70213125Y23310860D01*
X70353753Y23521324D01*
X70450619Y23755179D01*
X70500000Y24003439D01*
X70500000Y24256561D01*
X70450619Y24504821D01*
X70353753Y24738676D01*
X70213125Y24949140D01*
X70150000Y25012265D01*
X70150000Y27894068D01*
X70154524Y27940000D01*
X70136471Y28123292D01*
X70117752Y28185000D01*
X70083007Y28299540D01*
X69996186Y28461972D01*
X69879344Y28604344D01*
X69843659Y28633630D01*
X68981328Y29495961D01*
X70998096Y29495961D01*
X71038754Y29361913D01*
X71158963Y29107580D01*
X71326481Y28881586D01*
X71534869Y28692615D01*
X71776119Y28547930D01*
X72040960Y28453091D01*
X72263000Y28574376D01*
X72263000Y29718000D01*
X72517000Y29718000D01*
X72517000Y28574376D01*
X72739040Y28453091D01*
X73003881Y28547930D01*
X73245131Y28692615D01*
X73453519Y28881586D01*
X73621037Y29107580D01*
X73741246Y29361913D01*
X73781904Y29495961D01*
X73659915Y29718000D01*
X72517000Y29718000D01*
X72263000Y29718000D01*
X71120085Y29718000D01*
X70998096Y29495961D01*
X68981328Y29495961D01*
X68283250Y30194039D01*
X70998096Y30194039D01*
X71120085Y29972000D01*
X72263000Y29972000D01*
X72263000Y31115624D01*
X72517000Y31115624D01*
X72517000Y29972000D01*
X73659915Y29972000D01*
X73781904Y30194039D01*
X73741246Y30328087D01*
X73621037Y30582420D01*
X73453519Y30808414D01*
X73245131Y30997385D01*
X73003881Y31142070D01*
X72739040Y31236909D01*
X72517000Y31115624D01*
X72263000Y31115624D01*
X72040960Y31236909D01*
X71776119Y31142070D01*
X71534869Y30997385D01*
X71326481Y30808414D01*
X71158963Y30582420D01*
X71038754Y30328087D01*
X70998096Y30194039D01*
X68283250Y30194039D01*
X68003630Y30473659D01*
X67974344Y30509344D01*
X67831972Y30626186D01*
X67669540Y30713007D01*
X67493292Y30766471D01*
X67355932Y30780000D01*
X67310000Y30784524D01*
X67264068Y30780000D01*
X63324396Y30780000D01*
X63165000Y30939396D01*
X63165000Y31704069D01*
X63169524Y31750001D01*
X63151471Y31933293D01*
X63121738Y32031309D01*
X63098007Y32109540D01*
X63011186Y32271972D01*
X62894344Y32414344D01*
X62858665Y32443625D01*
X61653630Y33648659D01*
X61624344Y33684344D01*
X61481972Y33801186D01*
X61319540Y33888007D01*
X61143292Y33941471D01*
X61005932Y33955000D01*
X60960000Y33959524D01*
X60914068Y33955000D01*
X60149396Y33955000D01*
X59990000Y34114396D01*
X59990000Y35100604D01*
X60169637Y35280241D01*
X60326680Y35515273D01*
X60434853Y35776426D01*
X60490000Y36053665D01*
X60490000Y36336335D01*
X60434853Y36613574D01*
X60326680Y36874727D01*
X60169637Y37109759D01*
X59969759Y37309637D01*
X59734727Y37466680D01*
X59473574Y37574853D01*
X59196335Y37630000D01*
X58913665Y37630000D01*
X58636426Y37574853D01*
X58375273Y37466680D01*
X58140241Y37309637D01*
X57940363Y37109759D01*
X57783320Y36874727D01*
X57675147Y36613574D01*
X57620000Y36336335D01*
X57620000Y36053665D01*
X57675147Y35776426D01*
X57783320Y35515273D01*
X57940363Y35280241D01*
X58120000Y35100604D01*
X58120001Y34114397D01*
X57940363Y33934759D01*
X57783320Y33699727D01*
X57675147Y33438574D01*
X57620000Y33161335D01*
X57620000Y32878665D01*
X57675147Y32601426D01*
X57783320Y32340273D01*
X57940363Y32105241D01*
X58140241Y31905363D01*
X58375273Y31748320D01*
X58636426Y31640147D01*
X58913665Y31585000D01*
X59196335Y31585000D01*
X59473574Y31640147D01*
X59734727Y31748320D01*
X59969759Y31905363D01*
X60149396Y32085000D01*
X60572711Y32085000D01*
X61295000Y31362710D01*
X61295000Y30939396D01*
X61115363Y30759759D01*
X60958320Y30524727D01*
X60850147Y30263574D01*
X60795000Y29986335D01*
X60795000Y29703665D01*
X60850147Y29426426D01*
X60958320Y29165273D01*
X61115363Y28930241D01*
X61315241Y28730363D01*
X61550273Y28573320D01*
X61811426Y28465147D01*
X62088665Y28410000D01*
X62371335Y28410000D01*
X62648574Y28465147D01*
X62909727Y28573320D01*
X63144759Y28730363D01*
X63324396Y28910000D01*
X66922711Y28910000D01*
X68280001Y27552710D01*
X68280001Y26643540D01*
X68071561Y26685000D01*
X67986116Y26685000D01*
X67974344Y26699344D01*
X67831972Y26816186D01*
X67669540Y26903007D01*
X67493292Y26956471D01*
X67355932Y26970000D01*
X67310000Y26974524D01*
X67264068Y26970000D01*
X63324396Y26970000D01*
X63144759Y27149637D01*
X62909727Y27306680D01*
X62648574Y27414853D01*
X62371335Y27470000D01*
X62117289Y27470000D01*
X61018630Y28568659D01*
X60989344Y28604344D01*
X60846972Y28721186D01*
X60684540Y28808007D01*
X60508292Y28861471D01*
X60370932Y28875000D01*
X60325000Y28879524D01*
X60279068Y28875000D01*
X60114396Y28875000D01*
X60169637Y28930241D01*
X60326680Y29165273D01*
X60434853Y29426426D01*
X60490000Y29703665D01*
X60490000Y29986335D01*
X60434853Y30263574D01*
X60326680Y30524727D01*
X60169637Y30759759D01*
X59969759Y30959637D01*
X59734727Y31116680D01*
X59473574Y31224853D01*
X59196335Y31280000D01*
X58913665Y31280000D01*
X58636426Y31224853D01*
X58375273Y31116680D01*
X58140241Y30959637D01*
X57940363Y30759759D01*
X57783320Y30524727D01*
X57675147Y30263574D01*
X57620000Y29986335D01*
X57620000Y29703665D01*
X57675147Y29426426D01*
X57783320Y29165273D01*
X57940363Y28930241D01*
X57995604Y28875000D01*
X57537289Y28875000D01*
X54990000Y31422289D01*
X54990000Y33054069D01*
X54994524Y33099999D01*
X54990000Y33145932D01*
X54990000Y35100604D01*
X55169637Y35280241D01*
X55326680Y35515273D01*
X55434853Y35776426D01*
X55490000Y36053665D01*
X55490000Y36336335D01*
X55434853Y36613574D01*
X55326680Y36874727D01*
X55169637Y37109759D01*
X54969759Y37309637D01*
X54734727Y37466680D01*
X54473574Y37574853D01*
X54196335Y37630000D01*
X53913665Y37630000D01*
X53636426Y37574853D01*
X53375273Y37466680D01*
X53140241Y37309637D01*
X52940363Y37109759D01*
X52783320Y36874727D01*
X52675147Y36613574D01*
X52620000Y36336335D01*
X52620000Y36053665D01*
X52675147Y35776426D01*
X52783320Y35515273D01*
X52940363Y35280241D01*
X53120001Y35100603D01*
X53120000Y33955000D01*
X49989396Y33955000D01*
X49809759Y34134637D01*
X49574727Y34291680D01*
X49313574Y34399853D01*
X49036335Y34455000D01*
X48753665Y34455000D01*
X48476426Y34399853D01*
X48215273Y34291680D01*
X47980241Y34134637D01*
X47780363Y33934759D01*
X47623320Y33699727D01*
X47515147Y33438574D01*
X47460000Y33161335D01*
X47460000Y32907289D01*
X45799365Y31246654D01*
X45807571Y31263996D01*
X45876300Y31538184D01*
X45890217Y31820512D01*
X45848787Y32100130D01*
X45753603Y32366292D01*
X45686671Y32491514D01*
X45442702Y32563097D01*
X44629605Y31750000D01*
X44643748Y31735857D01*
X44464143Y31556252D01*
X44450000Y31570395D01*
X44435858Y31556252D01*
X44256253Y31735857D01*
X44270395Y31750000D01*
X43457298Y32563097D01*
X43213329Y32491514D01*
X43092429Y32236004D01*
X43062890Y32118161D01*
X43007182Y32301808D01*
X42873932Y32551101D01*
X42716690Y32742702D01*
X43636903Y32742702D01*
X44450000Y31929605D01*
X45263097Y32742702D01*
X45191514Y32986671D01*
X44936004Y33107571D01*
X44661816Y33176300D01*
X44379488Y33190217D01*
X44099870Y33148787D01*
X43833708Y33053603D01*
X43708486Y32986671D01*
X43636903Y32742702D01*
X42716690Y32742702D01*
X42694608Y32769608D01*
X42476101Y32948932D01*
X42343142Y33020000D01*
X42476101Y33091068D01*
X42694608Y33270392D01*
X42873932Y33488899D01*
X43007182Y33738192D01*
X43089236Y34008691D01*
X43116943Y34290000D01*
X43089236Y34571309D01*
X43007182Y34841808D01*
X42873932Y35091101D01*
X42694608Y35309608D01*
X42476101Y35488932D01*
X42343142Y35560000D01*
X42476101Y35631068D01*
X42694608Y35810392D01*
X42873932Y36028899D01*
X43007182Y36278192D01*
X43089236Y36548691D01*
X43116943Y36830000D01*
X43103023Y36971335D01*
X44285000Y36971335D01*
X44285000Y36688665D01*
X44340147Y36411426D01*
X44448320Y36150273D01*
X44605363Y35915241D01*
X44805241Y35715363D01*
X45040273Y35558320D01*
X45301426Y35450147D01*
X45578665Y35395000D01*
X45861335Y35395000D01*
X46138574Y35450147D01*
X46399727Y35558320D01*
X46634759Y35715363D01*
X46814396Y35895000D01*
X48214068Y35895000D01*
X48260000Y35890476D01*
X48305932Y35895000D01*
X48443292Y35908529D01*
X48619540Y35961993D01*
X48781972Y36048814D01*
X48924344Y36165656D01*
X48953630Y36201341D01*
X49523659Y36771370D01*
X49559344Y36800656D01*
X49676186Y36943028D01*
X49740316Y37063007D01*
X49763007Y37105459D01*
X49816472Y37281708D01*
X49834524Y37465000D01*
X49830000Y37510935D01*
X49830000Y38275604D01*
X50009637Y38455241D01*
X50166680Y38690273D01*
X50274853Y38951426D01*
X50330000Y39228665D01*
X50330000Y39511335D01*
X57620000Y39511335D01*
X57620000Y39228665D01*
X57675147Y38951426D01*
X57783320Y38690273D01*
X57940363Y38455241D01*
X58140241Y38255363D01*
X58375273Y38098320D01*
X58636426Y37990147D01*
X58913665Y37935000D01*
X59196335Y37935000D01*
X59473574Y37990147D01*
X59734727Y38098320D01*
X59969759Y38255363D01*
X60149396Y38435000D01*
X60914068Y38435000D01*
X60960000Y38430476D01*
X61005932Y38435000D01*
X61143292Y38448529D01*
X61319540Y38501993D01*
X61481972Y38588814D01*
X61624344Y38705656D01*
X61653630Y38741341D01*
X63789235Y40876946D01*
X63869339Y40779339D01*
X64103073Y40587519D01*
X64369739Y40444983D01*
X64594049Y40376939D01*
X64522733Y40329287D01*
X64350713Y40157267D01*
X64215557Y39954992D01*
X64122460Y39730236D01*
X64075000Y39491637D01*
X64075000Y39248363D01*
X64122460Y39009764D01*
X64215557Y38785008D01*
X64350713Y38582733D01*
X64522733Y38410713D01*
X64594049Y38363061D01*
X64369739Y38295017D01*
X64103073Y38152481D01*
X63869339Y37960661D01*
X63677519Y37726927D01*
X63534983Y37460261D01*
X63447210Y37170913D01*
X63417573Y36870000D01*
X63447210Y36569087D01*
X63534983Y36279739D01*
X63677519Y36013073D01*
X63869339Y35779339D01*
X64063495Y35620000D01*
X63869339Y35460661D01*
X63677519Y35226927D01*
X63534983Y34960261D01*
X63447210Y34670913D01*
X63417573Y34370000D01*
X63447210Y34069087D01*
X63534983Y33779739D01*
X63677519Y33513073D01*
X63869339Y33279339D01*
X64103073Y33087519D01*
X64369739Y32944983D01*
X64659087Y32857210D01*
X64884592Y32835000D01*
X65735408Y32835000D01*
X65960913Y32857210D01*
X66250261Y32944983D01*
X66516927Y33087519D01*
X66750661Y33279339D01*
X66942481Y33513073D01*
X67085017Y33779739D01*
X67172790Y34069087D01*
X67202427Y34370000D01*
X67190447Y34491637D01*
X69075000Y34491637D01*
X69075000Y34248363D01*
X69122460Y34009764D01*
X69215557Y33785008D01*
X69350713Y33582733D01*
X69522733Y33410713D01*
X69725008Y33275557D01*
X69949764Y33182460D01*
X70188363Y33135000D01*
X70431637Y33135000D01*
X70670236Y33182460D01*
X70894992Y33275557D01*
X71097267Y33410713D01*
X71269287Y33582733D01*
X71404443Y33785008D01*
X71497540Y34009764D01*
X71545000Y34248363D01*
X71545000Y34491637D01*
X71575000Y34491637D01*
X71575000Y34248363D01*
X71622460Y34009764D01*
X71715557Y33785008D01*
X71850713Y33582733D01*
X72022733Y33410713D01*
X72225008Y33275557D01*
X72449764Y33182460D01*
X72688363Y33135000D01*
X72931637Y33135000D01*
X73170236Y33182460D01*
X73394992Y33275557D01*
X73597267Y33410713D01*
X73769287Y33582733D01*
X73904443Y33785008D01*
X73997540Y34009764D01*
X74045000Y34248363D01*
X74045000Y34491637D01*
X73997540Y34730236D01*
X73904443Y34954992D01*
X73769287Y35157267D01*
X73597267Y35329287D01*
X73394992Y35464443D01*
X73170236Y35557540D01*
X72931637Y35605000D01*
X72688363Y35605000D01*
X72449764Y35557540D01*
X72225008Y35464443D01*
X72022733Y35329287D01*
X71850713Y35157267D01*
X71715557Y34954992D01*
X71622460Y34730236D01*
X71575000Y34491637D01*
X71545000Y34491637D01*
X71497540Y34730236D01*
X71404443Y34954992D01*
X71269287Y35157267D01*
X71097267Y35329287D01*
X70894992Y35464443D01*
X70670236Y35557540D01*
X70431637Y35605000D01*
X70188363Y35605000D01*
X69949764Y35557540D01*
X69725008Y35464443D01*
X69522733Y35329287D01*
X69350713Y35157267D01*
X69215557Y34954992D01*
X69122460Y34730236D01*
X69075000Y34491637D01*
X67190447Y34491637D01*
X67172790Y34670913D01*
X67085017Y34960261D01*
X66942481Y35226927D01*
X66750661Y35460661D01*
X66556505Y35620000D01*
X66750661Y35779339D01*
X66942481Y36013073D01*
X67085017Y36279739D01*
X67172790Y36569087D01*
X67202427Y36870000D01*
X67172790Y37170913D01*
X67085017Y37460261D01*
X66942481Y37726927D01*
X66750661Y37960661D01*
X66516927Y38152481D01*
X66250261Y38295017D01*
X66025951Y38363061D01*
X66097267Y38410713D01*
X66269287Y38582733D01*
X66404443Y38785008D01*
X66497540Y39009764D01*
X66543933Y39243000D01*
X68775000Y39243000D01*
X68775000Y38893000D01*
X68829271Y38595977D01*
X68940446Y38315249D01*
X69104252Y38061604D01*
X69314394Y37844790D01*
X69562796Y37673138D01*
X69839913Y37553245D01*
X69945260Y37528964D01*
X70183000Y37649622D01*
X70183000Y39243000D01*
X70437000Y39243000D01*
X70437000Y37649622D01*
X70674740Y37528964D01*
X70780087Y37553245D01*
X71057204Y37673138D01*
X71305606Y37844790D01*
X71515748Y38061604D01*
X71679554Y38315249D01*
X71790729Y38595977D01*
X71845000Y38893000D01*
X71845000Y39243000D01*
X70437000Y39243000D01*
X70183000Y39243000D01*
X68775000Y39243000D01*
X66543933Y39243000D01*
X66545000Y39248363D01*
X66545000Y39491637D01*
X66497540Y39730236D01*
X66449175Y39847000D01*
X68775000Y39847000D01*
X68775000Y39497000D01*
X70183000Y39497000D01*
X70183000Y41090378D01*
X70437000Y41090378D01*
X70437000Y39497000D01*
X71845000Y39497000D01*
X71845000Y39847000D01*
X71790729Y40144023D01*
X71679554Y40424751D01*
X71515748Y40678396D01*
X71305606Y40895210D01*
X71057204Y41066862D01*
X70780087Y41186755D01*
X70674740Y41211036D01*
X70437000Y41090378D01*
X70183000Y41090378D01*
X69945260Y41211036D01*
X69839913Y41186755D01*
X69562796Y41066862D01*
X69314394Y40895210D01*
X69104252Y40678396D01*
X68940446Y40424751D01*
X68829271Y40144023D01*
X68775000Y39847000D01*
X66449175Y39847000D01*
X66404443Y39954992D01*
X66269287Y40157267D01*
X66097267Y40329287D01*
X66025951Y40376939D01*
X66250261Y40444983D01*
X66516927Y40587519D01*
X66750661Y40779339D01*
X66942481Y41013073D01*
X67085017Y41279739D01*
X67172790Y41569087D01*
X67202427Y41870000D01*
X67172790Y42170913D01*
X67085017Y42460261D01*
X66942481Y42726927D01*
X66750661Y42960661D01*
X66556505Y43120000D01*
X66750661Y43279339D01*
X66942481Y43513073D01*
X67085017Y43779739D01*
X67172790Y44069087D01*
X67202427Y44370000D01*
X67190447Y44491637D01*
X69075000Y44491637D01*
X69075000Y44248363D01*
X69122460Y44009764D01*
X69215557Y43785008D01*
X69350713Y43582733D01*
X69522733Y43410713D01*
X69725008Y43275557D01*
X69949764Y43182460D01*
X70188363Y43135000D01*
X70431637Y43135000D01*
X70670236Y43182460D01*
X70894992Y43275557D01*
X71097267Y43410713D01*
X71269287Y43582733D01*
X71404443Y43785008D01*
X71497540Y44009764D01*
X71545000Y44248363D01*
X71545000Y44491637D01*
X71575000Y44491637D01*
X71575000Y44248363D01*
X71622460Y44009764D01*
X71715557Y43785008D01*
X71850713Y43582733D01*
X72022733Y43410713D01*
X72225008Y43275557D01*
X72449764Y43182460D01*
X72688363Y43135000D01*
X72931637Y43135000D01*
X73170236Y43182460D01*
X73394992Y43275557D01*
X73597267Y43410713D01*
X73769287Y43582733D01*
X73904443Y43785008D01*
X73997540Y44009764D01*
X74045000Y44248363D01*
X74045000Y44491637D01*
X73997540Y44730236D01*
X73904443Y44954992D01*
X73769287Y45157267D01*
X73597267Y45329287D01*
X73394992Y45464443D01*
X73170236Y45557540D01*
X72931637Y45605000D01*
X72688363Y45605000D01*
X72449764Y45557540D01*
X72225008Y45464443D01*
X72022733Y45329287D01*
X71850713Y45157267D01*
X71715557Y44954992D01*
X71622460Y44730236D01*
X71575000Y44491637D01*
X71545000Y44491637D01*
X71497540Y44730236D01*
X71404443Y44954992D01*
X71269287Y45157267D01*
X71097267Y45329287D01*
X70894992Y45464443D01*
X70670236Y45557540D01*
X70431637Y45605000D01*
X70188363Y45605000D01*
X69949764Y45557540D01*
X69725008Y45464443D01*
X69522733Y45329287D01*
X69350713Y45157267D01*
X69215557Y44954992D01*
X69122460Y44730236D01*
X69075000Y44491637D01*
X67190447Y44491637D01*
X67172790Y44670913D01*
X67085017Y44960261D01*
X66942481Y45226927D01*
X66750661Y45460661D01*
X66516927Y45652481D01*
X66250261Y45795017D01*
X65960913Y45882790D01*
X65735408Y45905000D01*
X64884592Y45905000D01*
X64659087Y45882790D01*
X64369739Y45795017D01*
X64103073Y45652481D01*
X63869339Y45460661D01*
X63677519Y45226927D01*
X63534983Y44960261D01*
X63447210Y44670913D01*
X63417573Y44370000D01*
X63447210Y44069087D01*
X63534983Y43779739D01*
X63677519Y43513073D01*
X63869339Y43279339D01*
X64063495Y43120000D01*
X63869339Y42960661D01*
X63741592Y42805000D01*
X63505932Y42805000D01*
X63460000Y42809524D01*
X63414068Y42805000D01*
X63276708Y42791471D01*
X63100460Y42738007D01*
X62938028Y42651186D01*
X62795656Y42534344D01*
X62766370Y42498659D01*
X60572711Y40305000D01*
X60149396Y40305000D01*
X59969759Y40484637D01*
X59734727Y40641680D01*
X59473574Y40749853D01*
X59196335Y40805000D01*
X58913665Y40805000D01*
X58636426Y40749853D01*
X58375273Y40641680D01*
X58140241Y40484637D01*
X57940363Y40284759D01*
X57783320Y40049727D01*
X57675147Y39788574D01*
X57620000Y39511335D01*
X50330000Y39511335D01*
X50274853Y39788574D01*
X50166680Y40049727D01*
X50009637Y40284759D01*
X49809759Y40484637D01*
X49574727Y40641680D01*
X49313574Y40749853D01*
X49036335Y40805000D01*
X48753665Y40805000D01*
X48476426Y40749853D01*
X48215273Y40641680D01*
X47980241Y40484637D01*
X47780363Y40284759D01*
X47623320Y40049727D01*
X47515147Y39788574D01*
X47460000Y39511335D01*
X47460000Y39228665D01*
X47515147Y38951426D01*
X47623320Y38690273D01*
X47780363Y38455241D01*
X47960001Y38275603D01*
X47960001Y37852290D01*
X47872711Y37765000D01*
X46814396Y37765000D01*
X46634759Y37944637D01*
X46399727Y38101680D01*
X46138574Y38209853D01*
X45861335Y38265000D01*
X45578665Y38265000D01*
X45301426Y38209853D01*
X45040273Y38101680D01*
X44805241Y37944637D01*
X44605363Y37744759D01*
X44448320Y37509727D01*
X44340147Y37248574D01*
X44285000Y36971335D01*
X43103023Y36971335D01*
X43089236Y37111309D01*
X43007182Y37381808D01*
X42873932Y37631101D01*
X42694608Y37849608D01*
X42476101Y38028932D01*
X42348259Y38097265D01*
X42577839Y38247399D01*
X42779500Y38445105D01*
X42938715Y38678354D01*
X43049367Y38938182D01*
X43066904Y39020961D01*
X42944915Y39243000D01*
X41402000Y39243000D01*
X41402000Y39223000D01*
X41148000Y39223000D01*
X41148000Y39243000D01*
X39605085Y39243000D01*
X39483096Y39020961D01*
X39500633Y38938182D01*
X39611285Y38678354D01*
X39770500Y38445105D01*
X39972161Y38247399D01*
X40201741Y38097265D01*
X40073899Y38028932D01*
X39855392Y37849608D01*
X39676068Y37631101D01*
X39542818Y37381808D01*
X39460764Y37111309D01*
X39433057Y36830000D01*
X39460764Y36548691D01*
X39542818Y36278192D01*
X39676068Y36028899D01*
X39855392Y35810392D01*
X40073899Y35631068D01*
X40206858Y35560000D01*
X40073899Y35488932D01*
X39855392Y35309608D01*
X39676068Y35091101D01*
X39542818Y34841808D01*
X39460764Y34571309D01*
X39433057Y34290000D01*
X39460764Y34008691D01*
X39542818Y33738192D01*
X39676068Y33488899D01*
X39855392Y33270392D01*
X40073899Y33091068D01*
X40206858Y33020000D01*
X40073899Y32948932D01*
X39855392Y32769608D01*
X39676068Y32551101D01*
X39542818Y32301808D01*
X39460764Y32031309D01*
X39433057Y31750000D01*
X39460764Y31468691D01*
X39542818Y31198192D01*
X39676068Y30948899D01*
X39855392Y30730392D01*
X40073899Y30551068D01*
X40206858Y30480000D01*
X40073899Y30408932D01*
X39855392Y30229608D01*
X39676068Y30011101D01*
X39542818Y29761808D01*
X39460764Y29491309D01*
X39433057Y29210000D01*
X39460764Y28928691D01*
X39542818Y28658192D01*
X39676068Y28408899D01*
X39855392Y28190392D01*
X40073899Y28011068D01*
X40201741Y27942735D01*
X39972161Y27792601D01*
X39770500Y27594895D01*
X39611285Y27361646D01*
X39500633Y27101818D01*
X39483096Y27019039D01*
X39605085Y26797000D01*
X41148000Y26797000D01*
X41148000Y26817000D01*
X41402000Y26817000D01*
X41402000Y26797000D01*
X41422000Y26797000D01*
X41422000Y26543000D01*
X41402000Y26543000D01*
X41402000Y26523000D01*
X41148000Y26523000D01*
X41148000Y26543000D01*
X39605085Y26543000D01*
X39483096Y26320961D01*
X39500633Y26238182D01*
X39611285Y25978354D01*
X39770500Y25745105D01*
X39972161Y25547399D01*
X40201741Y25397265D01*
X40073899Y25328932D01*
X39855392Y25149608D01*
X39676068Y24931101D01*
X39542818Y24681808D01*
X39460764Y24411309D01*
X39433057Y24130000D01*
X39460764Y23848691D01*
X39542818Y23578192D01*
X39676068Y23328899D01*
X39855392Y23110392D01*
X40073899Y22931068D01*
X40206858Y22860000D01*
X40073899Y22788932D01*
X39855392Y22609608D01*
X39676068Y22391101D01*
X39542818Y22141808D01*
X39460764Y21871309D01*
X39433057Y21590000D01*
X39460764Y21308691D01*
X39542818Y21038192D01*
X39676068Y20788899D01*
X39855392Y20570392D01*
X40073899Y20391068D01*
X40201741Y20322735D01*
X39972161Y20172601D01*
X39770500Y19974895D01*
X39611285Y19741646D01*
X39500633Y19481818D01*
X39483096Y19399039D01*
X39605085Y19177000D01*
X41148000Y19177000D01*
X41148000Y19197000D01*
X41402000Y19197000D01*
X41402000Y19177000D01*
X42944915Y19177000D01*
X43066904Y19399039D01*
X43049367Y19481818D01*
X42938715Y19741646D01*
X42779500Y19974895D01*
X42577839Y20172601D01*
X42348259Y20322735D01*
X42476101Y20391068D01*
X42694608Y20570392D01*
X42764044Y20655000D01*
X43427711Y20655000D01*
X43515001Y20567710D01*
X43515000Y19095933D01*
X43510476Y19050000D01*
X43515001Y19004058D01*
X43515000Y15064396D01*
X43335363Y14884759D01*
X43178320Y14649727D01*
X43070147Y14388574D01*
X43061217Y14343678D01*
X43007182Y14521808D01*
X42873932Y14771101D01*
X42694608Y14989608D01*
X42476101Y15168932D01*
X42343142Y15240000D01*
X42476101Y15311068D01*
X42694608Y15490392D01*
X42873932Y15708899D01*
X43007182Y15958192D01*
X43089236Y16228691D01*
X43116943Y16510000D01*
X43089236Y16791309D01*
X43007182Y17061808D01*
X42873932Y17311101D01*
X42694608Y17529608D01*
X42476101Y17708932D01*
X42348259Y17777265D01*
X42577839Y17927399D01*
X42779500Y18125105D01*
X42938715Y18358354D01*
X43049367Y18618182D01*
X43066904Y18700961D01*
X42944915Y18923000D01*
X41402000Y18923000D01*
X41402000Y18903000D01*
X41148000Y18903000D01*
X41148000Y18923000D01*
X39605085Y18923000D01*
X39483096Y18700961D01*
X39500633Y18618182D01*
X39611285Y18358354D01*
X39770500Y18125105D01*
X39972161Y17927399D01*
X40201741Y17777265D01*
X40073899Y17708932D01*
X39855392Y17529608D01*
X39676068Y17311101D01*
X39542818Y17061808D01*
X39460764Y16791309D01*
X39433057Y16510000D01*
X39460764Y16228691D01*
X39542818Y15958192D01*
X39676068Y15708899D01*
X39855392Y15490392D01*
X40073899Y15311068D01*
X40206858Y15240000D01*
X40073899Y15168932D01*
X39855392Y14989608D01*
X39676068Y14771101D01*
X39542818Y14521808D01*
X39460764Y14251309D01*
X39433057Y13970000D01*
X39460764Y13688691D01*
X39542818Y13418192D01*
X39676068Y13168899D01*
X39855392Y12950392D01*
X40073899Y12771068D01*
X40236558Y12684125D01*
X40254977Y12497105D01*
X40314160Y12302007D01*
X40314504Y12301364D01*
X38300000Y14315867D01*
X38300000Y22818985D01*
X38304040Y22860001D01*
X38298266Y22918623D01*
X38287918Y23023689D01*
X38240172Y23181087D01*
X38162636Y23326146D01*
X38058291Y23453291D01*
X38026428Y23479440D01*
X36814446Y24691421D01*
X36788291Y24723291D01*
X36661146Y24827636D01*
X36516087Y24905172D01*
X36358689Y24952918D01*
X36236019Y24965000D01*
X36236018Y24965000D01*
X36195000Y24969040D01*
X36153982Y24965000D01*
X35907265Y24965000D01*
X35744140Y25128125D01*
X35533676Y25268753D01*
X35299821Y25365619D01*
X35051561Y25415000D01*
X34798439Y25415000D01*
X34550179Y25365619D01*
X34490000Y25340692D01*
X34490000Y30438982D01*
X34494040Y30480000D01*
X34477918Y30643688D01*
X34474736Y30654180D01*
X34430172Y30801087D01*
X34352636Y30946146D01*
X34317411Y30989068D01*
X34274439Y31041430D01*
X34274437Y31041432D01*
X34248291Y31073291D01*
X34216433Y31099436D01*
X30464446Y34851421D01*
X30438291Y34883291D01*
X30311146Y34987636D01*
X30166087Y35065172D01*
X30008689Y35112918D01*
X29886019Y35125000D01*
X29886018Y35125000D01*
X29845000Y35129040D01*
X29803982Y35125000D01*
X27606112Y35125000D01*
X27454608Y35309608D01*
X27236101Y35488932D01*
X27103142Y35560000D01*
X27236101Y35631068D01*
X27454608Y35810392D01*
X27633932Y36028899D01*
X27767182Y36278192D01*
X27849236Y36548691D01*
X27876943Y36830000D01*
X27849236Y37111309D01*
X27767182Y37381808D01*
X27633932Y37631101D01*
X27454608Y37849608D01*
X27236101Y38028932D01*
X27103142Y38100000D01*
X27236101Y38171068D01*
X27454608Y38350392D01*
X27633932Y38568899D01*
X27767182Y38818192D01*
X27849236Y39088691D01*
X27876943Y39370000D01*
X27849236Y39651309D01*
X27767182Y39921808D01*
X27633932Y40171101D01*
X27454608Y40389608D01*
X27341518Y40482419D01*
X27359482Y40484188D01*
X27479180Y40520498D01*
X27589494Y40579463D01*
X27686185Y40658815D01*
X27765537Y40755506D01*
X27824502Y40865820D01*
X27860812Y40985518D01*
X27873072Y41110000D01*
X27870379Y41560961D01*
X39483096Y41560961D01*
X39500633Y41478182D01*
X39611285Y41218354D01*
X39770500Y40985105D01*
X39972161Y40787399D01*
X40197559Y40640000D01*
X39972161Y40492601D01*
X39770500Y40294895D01*
X39611285Y40061646D01*
X39500633Y39801818D01*
X39483096Y39719039D01*
X39605085Y39497000D01*
X41148000Y39497000D01*
X41148000Y41783000D01*
X41402000Y41783000D01*
X41402000Y39497000D01*
X42944915Y39497000D01*
X43066904Y39719039D01*
X43049367Y39801818D01*
X42938715Y40061646D01*
X42779500Y40294895D01*
X42577839Y40492601D01*
X42352441Y40640000D01*
X42577839Y40787399D01*
X42628736Y40837298D01*
X44906903Y40837298D01*
X44978486Y40593329D01*
X45233996Y40472429D01*
X45508184Y40403700D01*
X45790512Y40389783D01*
X46070130Y40431213D01*
X46336292Y40526397D01*
X46461514Y40593329D01*
X46533097Y40837298D01*
X45720000Y41650395D01*
X44906903Y40837298D01*
X42628736Y40837298D01*
X42779500Y40985105D01*
X42938715Y41218354D01*
X43049367Y41478182D01*
X43066904Y41560961D01*
X42957833Y41759488D01*
X44279783Y41759488D01*
X44321213Y41479870D01*
X44416397Y41213708D01*
X44483329Y41088486D01*
X44727298Y41016903D01*
X45540395Y41830000D01*
X45899605Y41830000D01*
X46712702Y41016903D01*
X46956671Y41088486D01*
X47077571Y41343996D01*
X47146300Y41618184D01*
X47160217Y41900512D01*
X47118787Y42180130D01*
X47023603Y42446292D01*
X46956671Y42571514D01*
X46712702Y42643097D01*
X45899605Y41830000D01*
X45540395Y41830000D01*
X44727298Y42643097D01*
X44483329Y42571514D01*
X44362429Y42316004D01*
X44293700Y42041816D01*
X44279783Y41759488D01*
X42957833Y41759488D01*
X42944915Y41783000D01*
X41402000Y41783000D01*
X41148000Y41783000D01*
X39605085Y41783000D01*
X39483096Y41560961D01*
X27870379Y41560961D01*
X27870000Y41624250D01*
X27711250Y41783000D01*
X26162000Y41783000D01*
X26162000Y41763000D01*
X25908000Y41763000D01*
X25908000Y41783000D01*
X24358750Y41783000D01*
X24200000Y41624250D01*
X24196928Y41110000D01*
X24209188Y40985518D01*
X24245498Y40865820D01*
X24304463Y40755506D01*
X24383815Y40658815D01*
X24480506Y40579463D01*
X24590820Y40520498D01*
X24710518Y40484188D01*
X24728482Y40482419D01*
X24615392Y40389608D01*
X24436068Y40171101D01*
X24302818Y39921808D01*
X24220764Y39651309D01*
X24193057Y39370000D01*
X24220764Y39088691D01*
X24302818Y38818192D01*
X24436068Y38568899D01*
X24615392Y38350392D01*
X24833899Y38171068D01*
X24966858Y38100000D01*
X24833899Y38028932D01*
X24615392Y37849608D01*
X24436068Y37631101D01*
X24302818Y37381808D01*
X24220764Y37111309D01*
X24193057Y36830000D01*
X24220764Y36548691D01*
X24302818Y36278192D01*
X24436068Y36028899D01*
X24615392Y35810392D01*
X24833899Y35631068D01*
X24966858Y35560000D01*
X24833899Y35488932D01*
X24615392Y35309608D01*
X24436068Y35091101D01*
X24302818Y34841808D01*
X24220764Y34571309D01*
X24193057Y34290000D01*
X24220764Y34008691D01*
X24302818Y33738192D01*
X24436068Y33488899D01*
X24615392Y33270392D01*
X24833899Y33091068D01*
X24966858Y33020000D01*
X24833899Y32948932D01*
X24615392Y32769608D01*
X24436068Y32551101D01*
X24302818Y32301808D01*
X24220764Y32031309D01*
X24193057Y31750000D01*
X24220764Y31468691D01*
X24302818Y31198192D01*
X24436068Y30948899D01*
X24615392Y30730392D01*
X24833899Y30551068D01*
X24966858Y30480000D01*
X24833899Y30408932D01*
X24615392Y30229608D01*
X24436068Y30011101D01*
X24302818Y29761808D01*
X24220764Y29491309D01*
X24193057Y29210000D01*
X24220764Y28928691D01*
X24302818Y28658192D01*
X24436068Y28408899D01*
X24615392Y28190392D01*
X24833899Y28011068D01*
X24966858Y27940000D01*
X24833899Y27868932D01*
X24615392Y27689608D01*
X24436068Y27471101D01*
X24302818Y27221808D01*
X24220764Y26951309D01*
X24193057Y26670000D01*
X24220764Y26388691D01*
X24302818Y26118192D01*
X24436068Y25868899D01*
X24615392Y25650392D01*
X24833899Y25471068D01*
X24966858Y25400000D01*
X24833899Y25328932D01*
X24615392Y25149608D01*
X24436068Y24931101D01*
X24302818Y24681808D01*
X24220764Y24411309D01*
X24193057Y24130000D01*
X24220764Y23848691D01*
X24302818Y23578192D01*
X24436068Y23328899D01*
X24615392Y23110392D01*
X24833899Y22931068D01*
X24966858Y22860000D01*
X24833899Y22788932D01*
X24615392Y22609608D01*
X24436068Y22391101D01*
X24331048Y22194623D01*
X24334040Y22225000D01*
X24317918Y22388689D01*
X24270172Y22546087D01*
X24192636Y22691146D01*
X24114439Y22786430D01*
X24114437Y22786432D01*
X24088291Y22818291D01*
X24056433Y22844436D01*
X23025000Y23875868D01*
X23025000Y24600492D01*
X23004236Y24811309D01*
X22922182Y25081808D01*
X22788932Y25331101D01*
X22609607Y25549608D01*
X22391100Y25728932D01*
X22141807Y25862182D01*
X21871308Y25944236D01*
X21590000Y25971943D01*
X21308691Y25944236D01*
X21038192Y25862182D01*
X20788899Y25728932D01*
X20570392Y25549607D01*
X20391068Y25331100D01*
X20320000Y25198142D01*
X20248932Y25331101D01*
X20069607Y25549608D01*
X19851100Y25728932D01*
X19601807Y25862182D01*
X19331308Y25944236D01*
X19050000Y25971943D01*
X18768691Y25944236D01*
X18498192Y25862182D01*
X18248899Y25728932D01*
X18030392Y25549607D01*
X17851068Y25331100D01*
X17780000Y25198142D01*
X17708932Y25331101D01*
X17529607Y25549608D01*
X17311100Y25728932D01*
X17061807Y25862182D01*
X16791308Y25944236D01*
X16510000Y25971943D01*
X16228691Y25944236D01*
X15958192Y25862182D01*
X15708899Y25728932D01*
X15490392Y25549607D01*
X15311068Y25331100D01*
X15240000Y25198142D01*
X15168932Y25331101D01*
X14989607Y25549608D01*
X14771100Y25728932D01*
X14521807Y25862182D01*
X14251308Y25944236D01*
X13970000Y25971943D01*
X13688691Y25944236D01*
X13418192Y25862182D01*
X13168899Y25728932D01*
X12950392Y25549607D01*
X12771068Y25331100D01*
X12700000Y25198142D01*
X12628932Y25331101D01*
X12449607Y25549608D01*
X12265000Y25701111D01*
X12265000Y25993982D01*
X12269040Y26035000D01*
X12252918Y26198688D01*
X12246972Y26218292D01*
X12205172Y26356087D01*
X12127636Y26501146D01*
X12096773Y26538753D01*
X12049439Y26596430D01*
X12049437Y26596432D01*
X12023291Y26628291D01*
X11991431Y26654438D01*
X11414445Y27231422D01*
X11388291Y27263291D01*
X11261146Y27367636D01*
X11222038Y27388540D01*
X11430000Y27368057D01*
X11711309Y27395764D01*
X11981808Y27477818D01*
X12231101Y27611068D01*
X12449608Y27790392D01*
X12628932Y28008899D01*
X12700000Y28141858D01*
X12771068Y28008899D01*
X12950393Y27790392D01*
X13168900Y27611068D01*
X13418193Y27477818D01*
X13688692Y27395764D01*
X13970000Y27368057D01*
X14251309Y27395764D01*
X14521808Y27477818D01*
X14771101Y27611068D01*
X14989608Y27790392D01*
X15168932Y28008899D01*
X15240000Y28141858D01*
X15311068Y28008899D01*
X15490393Y27790392D01*
X15708900Y27611068D01*
X15958193Y27477818D01*
X16228692Y27395764D01*
X16510000Y27368057D01*
X16791309Y27395764D01*
X17061808Y27477818D01*
X17311101Y27611068D01*
X17529608Y27790392D01*
X17708932Y28008899D01*
X17780000Y28141858D01*
X17851068Y28008899D01*
X18030393Y27790392D01*
X18248900Y27611068D01*
X18498193Y27477818D01*
X18768692Y27395764D01*
X19050000Y27368057D01*
X19331309Y27395764D01*
X19601808Y27477818D01*
X19851101Y27611068D01*
X20069608Y27790392D01*
X20248932Y28008899D01*
X20317265Y28136741D01*
X20467399Y27907161D01*
X20665105Y27705500D01*
X20898354Y27546285D01*
X21158182Y27435633D01*
X21240961Y27418096D01*
X21463000Y27540085D01*
X21463000Y29083000D01*
X21717000Y29083000D01*
X21717000Y27540085D01*
X21939039Y27418096D01*
X22021818Y27435633D01*
X22281646Y27546285D01*
X22514895Y27705500D01*
X22712601Y27907161D01*
X22867166Y28143517D01*
X22972650Y28405486D01*
X23025000Y28683000D01*
X23025000Y29083000D01*
X21717000Y29083000D01*
X21463000Y29083000D01*
X21443000Y29083000D01*
X21443000Y29337000D01*
X21463000Y29337000D01*
X21463000Y30879915D01*
X21717000Y30879915D01*
X21717000Y29337000D01*
X23025000Y29337000D01*
X23025000Y29737000D01*
X22972650Y30014514D01*
X22867166Y30276483D01*
X22712601Y30512839D01*
X22514895Y30714500D01*
X22281646Y30873715D01*
X22021818Y30984367D01*
X21939039Y31001904D01*
X21717000Y30879915D01*
X21463000Y30879915D01*
X21240961Y31001904D01*
X21158182Y30984367D01*
X20898354Y30873715D01*
X20665105Y30714500D01*
X20467399Y30512839D01*
X20317265Y30283259D01*
X20248932Y30411101D01*
X20069607Y30629608D01*
X19851100Y30808932D01*
X19601807Y30942182D01*
X19331308Y31024236D01*
X19050000Y31051943D01*
X18768691Y31024236D01*
X18498192Y30942182D01*
X18248899Y30808932D01*
X18030392Y30629607D01*
X17851068Y30411100D01*
X17780000Y30278142D01*
X17708932Y30411101D01*
X17529607Y30629608D01*
X17311100Y30808932D01*
X17061807Y30942182D01*
X16791308Y31024236D01*
X16510000Y31051943D01*
X16228691Y31024236D01*
X15958192Y30942182D01*
X15708899Y30808932D01*
X15490392Y30629607D01*
X15311068Y30411100D01*
X15240000Y30278142D01*
X15168932Y30411101D01*
X14989607Y30629608D01*
X14805000Y30781111D01*
X14805000Y31404133D01*
X15585868Y32185000D01*
X17432735Y32185000D01*
X17595860Y32021875D01*
X17806324Y31881247D01*
X18040179Y31784381D01*
X18288439Y31735000D01*
X18541561Y31735000D01*
X18789821Y31784381D01*
X19023676Y31881247D01*
X19234140Y32021875D01*
X19413125Y32200860D01*
X19553753Y32411324D01*
X19650619Y32645179D01*
X19700000Y32893439D01*
X19700000Y33146561D01*
X19650619Y33394821D01*
X19553753Y33628676D01*
X19413125Y33839140D01*
X19234140Y34018125D01*
X19023676Y34158753D01*
X18789821Y34255619D01*
X18541561Y34305000D01*
X18288439Y34305000D01*
X18040179Y34255619D01*
X17806324Y34158753D01*
X17595860Y34018125D01*
X17432735Y33855000D01*
X15281015Y33855000D01*
X15239999Y33859040D01*
X15198983Y33855000D01*
X15198981Y33855000D01*
X15076311Y33842918D01*
X14918913Y33795172D01*
X14773854Y33717636D01*
X14646709Y33613291D01*
X14620558Y33581426D01*
X13408574Y32369441D01*
X13376710Y32343291D01*
X13350562Y32311429D01*
X13272364Y32216145D01*
X13194828Y32071086D01*
X13147082Y31913688D01*
X13130960Y31750000D01*
X13135001Y31708972D01*
X13135001Y30781112D01*
X12950392Y30629607D01*
X12771068Y30411100D01*
X12700000Y30278142D01*
X12628932Y30411101D01*
X12449607Y30629608D01*
X12231100Y30808932D01*
X11981807Y30942182D01*
X11711308Y31024236D01*
X11430000Y31051943D01*
X11148691Y31024236D01*
X10878192Y30942182D01*
X10628899Y30808932D01*
X10410392Y30629607D01*
X10231068Y30411100D01*
X10160000Y30278142D01*
X10088932Y30411101D01*
X9909607Y30629608D01*
X9691100Y30808932D01*
X9441807Y30942182D01*
X9171308Y31024236D01*
X8890000Y31051943D01*
X8608691Y31024236D01*
X8338192Y30942182D01*
X8088899Y30808932D01*
X7870392Y30629607D01*
X7777581Y30516517D01*
X7775812Y30534482D01*
X7739502Y30654180D01*
X7680537Y30764494D01*
X7601185Y30861185D01*
X7504494Y30940537D01*
X7394180Y30999502D01*
X7274482Y31035812D01*
X7150000Y31048072D01*
X5550000Y31048072D01*
X5425518Y31035812D01*
X5305820Y30999502D01*
X5195506Y30940537D01*
X5098815Y30861185D01*
X5019463Y30764494D01*
X4960498Y30654180D01*
X4924188Y30534482D01*
X4911928Y30410000D01*
X4604347Y30410000D01*
X4615217Y30630512D01*
X4573787Y30910130D01*
X4478603Y31176292D01*
X4411671Y31301514D01*
X4167702Y31373097D01*
X3354605Y30560000D01*
X2995395Y30560000D01*
X2182298Y31373097D01*
X1938329Y31301514D01*
X1817429Y31046004D01*
X1748700Y30771816D01*
X1734783Y30489488D01*
X660000Y30489488D01*
X660000Y31552702D01*
X2361903Y31552702D01*
X3175000Y30739605D01*
X3988097Y31552702D01*
X3916514Y31796671D01*
X3661004Y31917571D01*
X3386816Y31986300D01*
X3104488Y32000217D01*
X2824870Y31958787D01*
X2558708Y31863603D01*
X2433486Y31796671D01*
X2361903Y31552702D01*
X660000Y31552702D01*
X660000Y35701335D01*
X1740000Y35701335D01*
X1740000Y35418665D01*
X1795147Y35141426D01*
X1903320Y34880273D01*
X2060363Y34645241D01*
X2260241Y34445363D01*
X2495273Y34288320D01*
X2756426Y34180147D01*
X3033665Y34125000D01*
X3316335Y34125000D01*
X3593574Y34180147D01*
X3854727Y34288320D01*
X4089759Y34445363D01*
X4289637Y34645241D01*
X4446680Y34880273D01*
X4554853Y35141426D01*
X4610000Y35418665D01*
X4610000Y35701335D01*
X4554853Y35978574D01*
X4446680Y36239727D01*
X4289637Y36474759D01*
X4089759Y36674637D01*
X3854727Y36831680D01*
X3593574Y36939853D01*
X3316335Y36995000D01*
X3033665Y36995000D01*
X2756426Y36939853D01*
X2495273Y36831680D01*
X2260241Y36674637D01*
X2060363Y36474759D01*
X1903320Y36239727D01*
X1795147Y35978574D01*
X1740000Y35701335D01*
X660000Y35701335D01*
X660000Y37300491D01*
X4915000Y37300491D01*
X4915000Y36359508D01*
X4935764Y36148691D01*
X5017818Y35878192D01*
X5151068Y35628899D01*
X5330393Y35410392D01*
X5548900Y35231068D01*
X5798193Y35097818D01*
X6068692Y35015764D01*
X6350000Y34988057D01*
X6631309Y35015764D01*
X6901808Y35097818D01*
X7151101Y35231068D01*
X7369608Y35410392D01*
X7548932Y35628899D01*
X7620000Y35761858D01*
X7691068Y35628899D01*
X7870393Y35410392D01*
X8088900Y35231068D01*
X8338193Y35097818D01*
X8608692Y35015764D01*
X8890000Y34988057D01*
X9171309Y35015764D01*
X9441808Y35097818D01*
X9691101Y35231068D01*
X9909608Y35410392D01*
X10088932Y35628899D01*
X10160000Y35761858D01*
X10231068Y35628899D01*
X10410393Y35410392D01*
X10628900Y35231068D01*
X10878193Y35097818D01*
X11148692Y35015764D01*
X11430000Y34988057D01*
X11711309Y35015764D01*
X11981808Y35097818D01*
X12231101Y35231068D01*
X12449608Y35410392D01*
X12628932Y35628899D01*
X12700000Y35761858D01*
X12771068Y35628899D01*
X12950393Y35410392D01*
X13168900Y35231068D01*
X13418193Y35097818D01*
X13688692Y35015764D01*
X13970000Y34988057D01*
X14251309Y35015764D01*
X14521808Y35097818D01*
X14771101Y35231068D01*
X14989608Y35410392D01*
X15168932Y35628899D01*
X15240000Y35761858D01*
X15311068Y35628899D01*
X15490393Y35410392D01*
X15708900Y35231068D01*
X15958193Y35097818D01*
X16228692Y35015764D01*
X16510000Y34988057D01*
X16791309Y35015764D01*
X17061808Y35097818D01*
X17311101Y35231068D01*
X17529608Y35410392D01*
X17708932Y35628899D01*
X17780000Y35761858D01*
X17851068Y35628899D01*
X18030393Y35410392D01*
X18248900Y35231068D01*
X18498193Y35097818D01*
X18768692Y35015764D01*
X19050000Y34988057D01*
X19331309Y35015764D01*
X19601808Y35097818D01*
X19851101Y35231068D01*
X20069608Y35410392D01*
X20248932Y35628899D01*
X20320000Y35761858D01*
X20391068Y35628899D01*
X20570393Y35410392D01*
X20788900Y35231068D01*
X21038193Y35097818D01*
X21308692Y35015764D01*
X21590000Y34988057D01*
X21871309Y35015764D01*
X22141808Y35097818D01*
X22391101Y35231068D01*
X22609608Y35410392D01*
X22788932Y35628899D01*
X22922182Y35878192D01*
X23004236Y36148691D01*
X23025000Y36359509D01*
X23025000Y37300492D01*
X23004236Y37511309D01*
X22922182Y37781808D01*
X22788932Y38031101D01*
X22609607Y38249608D01*
X22391100Y38428932D01*
X22141807Y38562182D01*
X21871308Y38644236D01*
X21590000Y38671943D01*
X21308691Y38644236D01*
X21038192Y38562182D01*
X20788899Y38428932D01*
X20570392Y38249607D01*
X20391068Y38031100D01*
X20320000Y37898142D01*
X20248932Y38031101D01*
X20069607Y38249608D01*
X19851100Y38428932D01*
X19601807Y38562182D01*
X19331308Y38644236D01*
X19050000Y38671943D01*
X18768691Y38644236D01*
X18498192Y38562182D01*
X18248899Y38428932D01*
X18030392Y38249607D01*
X17851068Y38031100D01*
X17780000Y37898142D01*
X17708932Y38031101D01*
X17529607Y38249608D01*
X17311100Y38428932D01*
X17061807Y38562182D01*
X16791308Y38644236D01*
X16510000Y38671943D01*
X16228691Y38644236D01*
X15958192Y38562182D01*
X15708899Y38428932D01*
X15490392Y38249607D01*
X15311068Y38031100D01*
X15240000Y37898142D01*
X15168932Y38031101D01*
X14989607Y38249608D01*
X14771100Y38428932D01*
X14521807Y38562182D01*
X14251308Y38644236D01*
X13970000Y38671943D01*
X13688691Y38644236D01*
X13418192Y38562182D01*
X13168899Y38428932D01*
X12950392Y38249607D01*
X12771068Y38031100D01*
X12700000Y37898142D01*
X12628932Y38031101D01*
X12449607Y38249608D01*
X12231100Y38428932D01*
X11981807Y38562182D01*
X11711308Y38644236D01*
X11430000Y38671943D01*
X11148691Y38644236D01*
X10878192Y38562182D01*
X10628899Y38428932D01*
X10410392Y38249607D01*
X10231068Y38031100D01*
X10160000Y37898142D01*
X10088932Y38031101D01*
X9909607Y38249608D01*
X9691100Y38428932D01*
X9441807Y38562182D01*
X9171308Y38644236D01*
X8890000Y38671943D01*
X8608691Y38644236D01*
X8338192Y38562182D01*
X8088899Y38428932D01*
X7870392Y38249607D01*
X7691068Y38031100D01*
X7620000Y37898142D01*
X7548932Y38031101D01*
X7385000Y38230852D01*
X7385000Y38306290D01*
X8683711Y39605000D01*
X15189172Y39605000D01*
X15240000Y39599994D01*
X15290828Y39605000D01*
X15290838Y39605000D01*
X15442895Y39619976D01*
X15637993Y39679159D01*
X15817797Y39775266D01*
X15975396Y39904604D01*
X16007807Y39944097D01*
X16570903Y40507193D01*
X16610396Y40539604D01*
X16724300Y40678396D01*
X16739734Y40697202D01*
X16835841Y40877006D01*
X16857537Y40948529D01*
X16895024Y41072105D01*
X16910000Y41224162D01*
X16910000Y41224165D01*
X16915007Y41275000D01*
X16910000Y41325835D01*
X16910000Y41787713D01*
X16919180Y41790498D01*
X17029494Y41849463D01*
X17126185Y41928815D01*
X17205537Y42025506D01*
X17264502Y42135820D01*
X17300812Y42255518D01*
X17313072Y42380000D01*
X17313072Y42710000D01*
X24196928Y42710000D01*
X24200000Y42195750D01*
X24358750Y42037000D01*
X25908000Y42037000D01*
X25908000Y43186250D01*
X26162000Y43186250D01*
X26162000Y42037000D01*
X27711250Y42037000D01*
X27870000Y42195750D01*
X27870378Y42259039D01*
X39483096Y42259039D01*
X39605085Y42037000D01*
X41148000Y42037000D01*
X41148000Y43345000D01*
X41402000Y43345000D01*
X41402000Y42037000D01*
X42944915Y42037000D01*
X43066904Y42259039D01*
X43049367Y42341818D01*
X42938715Y42601646D01*
X42787823Y42822702D01*
X44906903Y42822702D01*
X45720000Y42009605D01*
X46533097Y42822702D01*
X46461514Y43066671D01*
X46206004Y43187571D01*
X45931816Y43256300D01*
X45649488Y43270217D01*
X45369870Y43228787D01*
X45103708Y43133603D01*
X44978486Y43066671D01*
X44906903Y42822702D01*
X42787823Y42822702D01*
X42779500Y42834895D01*
X42577839Y43032601D01*
X42341483Y43187166D01*
X42079514Y43292650D01*
X41802000Y43345000D01*
X41402000Y43345000D01*
X41148000Y43345000D01*
X40748000Y43345000D01*
X40470486Y43292650D01*
X40208517Y43187166D01*
X39972161Y43032601D01*
X39770500Y42834895D01*
X39611285Y42601646D01*
X39500633Y42341818D01*
X39483096Y42259039D01*
X27870378Y42259039D01*
X27873072Y42710000D01*
X27860812Y42834482D01*
X27824502Y42954180D01*
X27765537Y43064494D01*
X27686185Y43161185D01*
X27589494Y43240537D01*
X27479180Y43299502D01*
X27359482Y43335812D01*
X27235000Y43348072D01*
X26320750Y43345000D01*
X26162000Y43186250D01*
X25908000Y43186250D01*
X25749250Y43345000D01*
X24835000Y43348072D01*
X24710518Y43335812D01*
X24590820Y43299502D01*
X24480506Y43240537D01*
X24383815Y43161185D01*
X24304463Y43064494D01*
X24245498Y42954180D01*
X24209188Y42834482D01*
X24196928Y42710000D01*
X17313072Y42710000D01*
X17313072Y43980000D01*
X17300812Y44104482D01*
X17264502Y44224180D01*
X17205537Y44334494D01*
X17126185Y44431185D01*
X17029494Y44510537D01*
X16919180Y44569502D01*
X16799482Y44605812D01*
X16675000Y44618072D01*
X15075000Y44618072D01*
X14950518Y44605812D01*
X14830820Y44569502D01*
X14720506Y44510537D01*
X14623815Y44431185D01*
X14613193Y44418242D01*
X14361004Y44537571D01*
X14086816Y44606300D01*
X13804488Y44620217D01*
X13524870Y44578787D01*
X13258708Y44483603D01*
X13133486Y44416671D01*
X13061903Y44172702D01*
X13875000Y43359605D01*
X13889143Y43373747D01*
X14068748Y43194142D01*
X14054605Y43180000D01*
X14068748Y43165857D01*
X13889143Y42986252D01*
X13875000Y43000395D01*
X13061903Y42187298D01*
X13133486Y41943329D01*
X13388996Y41822429D01*
X13663184Y41753700D01*
X13945512Y41739783D01*
X14225130Y41781213D01*
X14491292Y41876397D01*
X14613309Y41941616D01*
X14623815Y41928815D01*
X14720506Y41849463D01*
X14830820Y41790498D01*
X14840001Y41787713D01*
X14840001Y41703711D01*
X14811290Y41675000D01*
X8305835Y41675000D01*
X8255000Y41680007D01*
X8204165Y41675000D01*
X8204162Y41675000D01*
X8052105Y41660024D01*
X7857007Y41600841D01*
X7782397Y41560961D01*
X7677202Y41504734D01*
X7559092Y41407803D01*
X7519604Y41375396D01*
X7487197Y41335908D01*
X5654097Y39502807D01*
X5614604Y39470396D01*
X5485266Y39312797D01*
X5389159Y39132992D01*
X5329976Y38937894D01*
X5315000Y38785837D01*
X5315000Y38785828D01*
X5309994Y38735000D01*
X5315000Y38684172D01*
X5315000Y38230852D01*
X5151068Y38031100D01*
X5017818Y37781807D01*
X4935764Y37511308D01*
X4915000Y37300491D01*
X660000Y37300491D01*
X660000Y43109488D01*
X12434783Y43109488D01*
X12476213Y42829870D01*
X12571397Y42563708D01*
X12638329Y42438486D01*
X12882298Y42366903D01*
X13695395Y43180000D01*
X12882298Y43993097D01*
X12638329Y43921514D01*
X12517429Y43666004D01*
X12448700Y43391816D01*
X12434783Y43109488D01*
X660000Y43109488D01*
X660000Y48870000D01*
X75540001Y48870000D01*
X75540000Y660000D01*
%TA.AperFunction,Conductor*%
D29*
G36*
X75540000Y660000D02*
G01*
X660000Y660000D01*
X660000Y2146603D01*
X16931208Y2146603D01*
X17008843Y1897528D01*
X17272883Y1771629D01*
X17556411Y1699661D01*
X17848531Y1684389D01*
X18138019Y1726401D01*
X18413747Y1824081D01*
X18551157Y1897528D01*
X18628792Y2146603D01*
X17780000Y2995395D01*
X16931208Y2146603D01*
X660000Y2146603D01*
X660000Y3106469D01*
X16289389Y3106469D01*
X16331401Y2816981D01*
X16429081Y2541253D01*
X16502528Y2403843D01*
X16751603Y2326208D01*
X17600395Y3175000D01*
X16751603Y4023792D01*
X16502528Y3946157D01*
X16376629Y3682117D01*
X16304661Y3398589D01*
X16289389Y3106469D01*
X660000Y3106469D01*
X660000Y29567298D01*
X2361903Y29567298D01*
X2433486Y29323329D01*
X2688996Y29202429D01*
X2963184Y29133700D01*
X3245512Y29119783D01*
X3525130Y29161213D01*
X3791292Y29256397D01*
X3916514Y29323329D01*
X3988097Y29567298D01*
X3175000Y30380395D01*
X2361903Y29567298D01*
X660000Y29567298D01*
X660000Y30489488D01*
X1734783Y30489488D01*
X1776213Y30209870D01*
X1871397Y29943708D01*
X1938329Y29818486D01*
X2182298Y29746903D01*
X2995395Y30560000D01*
X3354605Y30560000D01*
X4167702Y29746903D01*
X4411671Y29818486D01*
X4532571Y30073996D01*
X4601300Y30348184D01*
X4604347Y30410000D01*
X4911928Y30410000D01*
X4911928Y28010000D01*
X4924188Y27885518D01*
X4960498Y27765820D01*
X5019463Y27655506D01*
X5098815Y27558815D01*
X5195506Y27479463D01*
X5305820Y27420498D01*
X5425518Y27384188D01*
X5550000Y27371928D01*
X7150000Y27371928D01*
X7274482Y27384188D01*
X7394180Y27420498D01*
X7504494Y27479463D01*
X7601185Y27558815D01*
X7680537Y27655506D01*
X7739502Y27765820D01*
X7775812Y27885518D01*
X7777581Y27903483D01*
X7870393Y27790392D01*
X8055001Y27638888D01*
X8055001Y27346028D01*
X8050960Y27305000D01*
X8067082Y27141312D01*
X8114828Y26983914D01*
X8192364Y26838855D01*
X8210968Y26816186D01*
X8296710Y26711709D01*
X8328573Y26685559D01*
X8905562Y26108569D01*
X8931709Y26076709D01*
X8963568Y26050563D01*
X8963570Y26050561D01*
X9038499Y25989069D01*
X9058854Y25972364D01*
X9097962Y25951460D01*
X8890000Y25971943D01*
X8608691Y25944236D01*
X8338192Y25862182D01*
X8088899Y25728932D01*
X7870392Y25549607D01*
X7691068Y25331100D01*
X7620000Y25198142D01*
X7548932Y25331101D01*
X7369607Y25549608D01*
X7151100Y25728932D01*
X6901807Y25862182D01*
X6631308Y25944236D01*
X6350000Y25971943D01*
X6068691Y25944236D01*
X5798192Y25862182D01*
X5548899Y25728932D01*
X5330392Y25549607D01*
X5151068Y25331100D01*
X5017818Y25081807D01*
X4935764Y24811308D01*
X4915000Y24600491D01*
X4915000Y23659508D01*
X4935764Y23448691D01*
X5017818Y23178192D01*
X5151068Y22928899D01*
X5330393Y22710392D01*
X5548900Y22531068D01*
X5798193Y22397818D01*
X6068692Y22315764D01*
X6350000Y22288057D01*
X6631309Y22315764D01*
X6901808Y22397818D01*
X7151101Y22531068D01*
X7369608Y22710392D01*
X7548932Y22928899D01*
X7620000Y23061858D01*
X7691068Y22928899D01*
X7870393Y22710392D01*
X8088900Y22531068D01*
X8338193Y22397818D01*
X8608692Y22315764D01*
X8890000Y22288057D01*
X9171309Y22315764D01*
X9441808Y22397818D01*
X9691101Y22531068D01*
X9909608Y22710392D01*
X10088932Y22928899D01*
X10160000Y23061858D01*
X10231068Y22928899D01*
X10410393Y22710392D01*
X10628900Y22531068D01*
X10878193Y22397818D01*
X11148692Y22315764D01*
X11430000Y22288057D01*
X11711309Y22315764D01*
X11981808Y22397818D01*
X12231101Y22531068D01*
X12449608Y22710392D01*
X12628932Y22928899D01*
X12700000Y23061858D01*
X12771068Y22928899D01*
X12950393Y22710392D01*
X13168900Y22531068D01*
X13418193Y22397818D01*
X13688692Y22315764D01*
X13970000Y22288057D01*
X14251309Y22315764D01*
X14521808Y22397818D01*
X14771101Y22531068D01*
X14989608Y22710392D01*
X15168932Y22928899D01*
X15240000Y23061858D01*
X15311068Y22928899D01*
X15490393Y22710392D01*
X15708900Y22531068D01*
X15958193Y22397818D01*
X16228692Y22315764D01*
X16510000Y22288057D01*
X16791309Y22315764D01*
X17061808Y22397818D01*
X17311101Y22531068D01*
X17529608Y22710392D01*
X17708932Y22928899D01*
X17780000Y23061858D01*
X17851068Y22928899D01*
X18030393Y22710392D01*
X18248900Y22531068D01*
X18498193Y22397818D01*
X18768692Y22315764D01*
X19050000Y22288057D01*
X19331309Y22315764D01*
X19601808Y22397818D01*
X19851101Y22531068D01*
X20069608Y22710392D01*
X20248932Y22928899D01*
X20320000Y23061858D01*
X20391068Y22928899D01*
X20570393Y22710392D01*
X20788900Y22531068D01*
X21038193Y22397818D01*
X21308692Y22315764D01*
X21590000Y22288057D01*
X21871309Y22315764D01*
X22141429Y22397703D01*
X22660000Y21879131D01*
X22660001Y17866492D01*
X22514895Y18014500D01*
X22281646Y18173715D01*
X22021818Y18284367D01*
X21939039Y18301904D01*
X21717000Y18179915D01*
X21717000Y16637000D01*
X21737000Y16637000D01*
X21737000Y16383000D01*
X21717000Y16383000D01*
X21717000Y14840085D01*
X21939039Y14718096D01*
X22021818Y14735633D01*
X22281646Y14846285D01*
X22514895Y15005500D01*
X22660001Y15153509D01*
X22660001Y14646028D01*
X22655960Y14605000D01*
X22672082Y14441312D01*
X22719828Y14283914D01*
X22797364Y14138855D01*
X22819949Y14111335D01*
X22901710Y14011709D01*
X22933573Y13985559D01*
X23510562Y13408569D01*
X23536709Y13376709D01*
X23568568Y13350563D01*
X23568570Y13350561D01*
X23642032Y13290273D01*
X23663854Y13272364D01*
X23808913Y13194828D01*
X23966311Y13147082D01*
X24088981Y13135000D01*
X24088982Y13135000D01*
X24130000Y13130960D01*
X24171018Y13135000D01*
X24463888Y13135000D01*
X24615392Y12950392D01*
X24833899Y12771068D01*
X25083192Y12637818D01*
X25353691Y12555764D01*
X25564508Y12535000D01*
X26505492Y12535000D01*
X26716309Y12555764D01*
X26986808Y12637818D01*
X27236101Y12771068D01*
X27454608Y12950392D01*
X27633932Y13168899D01*
X27740001Y13367340D01*
X27740001Y10836029D01*
X27735960Y10795000D01*
X27752082Y10631312D01*
X27799828Y10473914D01*
X27877364Y10328855D01*
X27899949Y10301335D01*
X27981710Y10201709D01*
X28013574Y10175559D01*
X28464133Y9725000D01*
X11140869Y9725000D01*
X9725000Y11140867D01*
X9725000Y14938888D01*
X9909608Y15090392D01*
X10088932Y15308899D01*
X10160000Y15441858D01*
X10231068Y15308899D01*
X10410393Y15090392D01*
X10628900Y14911068D01*
X10878193Y14777818D01*
X11148692Y14695764D01*
X11430000Y14668057D01*
X11711309Y14695764D01*
X11981808Y14777818D01*
X12231101Y14911068D01*
X12449608Y15090392D01*
X12628932Y15308899D01*
X12700000Y15441858D01*
X12771068Y15308899D01*
X12950393Y15090392D01*
X13168900Y14911068D01*
X13418193Y14777818D01*
X13688692Y14695764D01*
X13970000Y14668057D01*
X14251309Y14695764D01*
X14521808Y14777818D01*
X14771101Y14911068D01*
X14989608Y15090392D01*
X15168932Y15308899D01*
X15240000Y15441858D01*
X15311068Y15308899D01*
X15490393Y15090392D01*
X15708900Y14911068D01*
X15958193Y14777818D01*
X16228692Y14695764D01*
X16510000Y14668057D01*
X16791309Y14695764D01*
X17061808Y14777818D01*
X17311101Y14911068D01*
X17529608Y15090392D01*
X17708932Y15308899D01*
X17780000Y15441858D01*
X17851068Y15308899D01*
X18030393Y15090392D01*
X18248900Y14911068D01*
X18498193Y14777818D01*
X18768692Y14695764D01*
X19050000Y14668057D01*
X19331309Y14695764D01*
X19601808Y14777818D01*
X19851101Y14911068D01*
X20069608Y15090392D01*
X20248932Y15308899D01*
X20317265Y15436741D01*
X20467399Y15207161D01*
X20665105Y15005500D01*
X20898354Y14846285D01*
X21158182Y14735633D01*
X21240961Y14718096D01*
X21463000Y14840085D01*
X21463000Y16383000D01*
X21443000Y16383000D01*
X21443000Y16637000D01*
X21463000Y16637000D01*
X21463000Y18179915D01*
X21240961Y18301904D01*
X21158182Y18284367D01*
X20898354Y18173715D01*
X20665105Y18014500D01*
X20467399Y17812839D01*
X20317265Y17583259D01*
X20248932Y17711101D01*
X20069607Y17929608D01*
X19851100Y18108932D01*
X19601807Y18242182D01*
X19331308Y18324236D01*
X19050000Y18351943D01*
X18768691Y18324236D01*
X18498192Y18242182D01*
X18248899Y18108932D01*
X18030392Y17929607D01*
X17851068Y17711100D01*
X17780000Y17578142D01*
X17708932Y17711101D01*
X17529607Y17929608D01*
X17311100Y18108932D01*
X17061807Y18242182D01*
X16791308Y18324236D01*
X16510000Y18351943D01*
X16228691Y18324236D01*
X15958192Y18242182D01*
X15708899Y18108932D01*
X15490392Y17929607D01*
X15311068Y17711100D01*
X15240000Y17578142D01*
X15168932Y17711101D01*
X14989607Y17929608D01*
X14771100Y18108932D01*
X14521807Y18242182D01*
X14251308Y18324236D01*
X13970000Y18351943D01*
X13688691Y18324236D01*
X13418192Y18242182D01*
X13168899Y18108932D01*
X12950392Y17929607D01*
X12771068Y17711100D01*
X12700000Y17578142D01*
X12628932Y17711101D01*
X12449607Y17929608D01*
X12231100Y18108932D01*
X11981807Y18242182D01*
X11711308Y18324236D01*
X11430000Y18351943D01*
X11148691Y18324236D01*
X10878192Y18242182D01*
X10628899Y18108932D01*
X10410392Y17929607D01*
X10231068Y17711100D01*
X10160000Y17578142D01*
X10088932Y17711101D01*
X9909607Y17929608D01*
X9691100Y18108932D01*
X9441807Y18242182D01*
X9171308Y18324236D01*
X8890000Y18351943D01*
X8608691Y18324236D01*
X8338192Y18242182D01*
X8088899Y18108932D01*
X7870392Y17929607D01*
X7777581Y17816517D01*
X7775812Y17834482D01*
X7739502Y17954180D01*
X7680537Y18064494D01*
X7601185Y18161185D01*
X7504494Y18240537D01*
X7394180Y18299502D01*
X7274482Y18335812D01*
X7150000Y18348072D01*
X5550000Y18348072D01*
X5425518Y18335812D01*
X5305820Y18299502D01*
X5195506Y18240537D01*
X5098815Y18161185D01*
X5019463Y18064494D01*
X4960498Y17954180D01*
X4924188Y17834482D01*
X4911928Y17710000D01*
X4911928Y15310000D01*
X4924188Y15185518D01*
X4960498Y15065820D01*
X5019463Y14955506D01*
X5098815Y14858815D01*
X5195506Y14779463D01*
X5305820Y14720498D01*
X5425518Y14684188D01*
X5515001Y14675375D01*
X5515000Y9566019D01*
X5510960Y9525000D01*
X5515000Y9483982D01*
X5527082Y9361312D01*
X5574828Y9203914D01*
X5652364Y9058855D01*
X5756709Y8931709D01*
X5788579Y8905554D01*
X7635563Y7058568D01*
X7661709Y7026709D01*
X7693568Y7000563D01*
X7693570Y7000561D01*
X7788854Y6922364D01*
X7933913Y6844828D01*
X8091311Y6797082D01*
X8255000Y6780960D01*
X8296018Y6785000D01*
X16749893Y6785000D01*
X16626525Y6661632D01*
X16464010Y6418411D01*
X16352068Y6148158D01*
X16295000Y5861260D01*
X16295000Y5568740D01*
X16352068Y5281842D01*
X16464010Y5011589D01*
X16626525Y4768368D01*
X16833368Y4561525D01*
X17006729Y4445689D01*
X16931208Y4203397D01*
X17780000Y3354605D01*
X18628792Y4203397D01*
X18553271Y4445689D01*
X18726632Y4561525D01*
X18933475Y4768368D01*
X19050000Y4942760D01*
X19166525Y4768368D01*
X19373368Y4561525D01*
X19547760Y4445000D01*
X19373368Y4328475D01*
X19166525Y4121632D01*
X19050689Y3948271D01*
X18808397Y4023792D01*
X17959605Y3175000D01*
X18808397Y2326208D01*
X19050689Y2401729D01*
X19166525Y2228368D01*
X19373368Y2021525D01*
X19616589Y1859010D01*
X19886842Y1747068D01*
X20173740Y1690000D01*
X20466260Y1690000D01*
X20753158Y1747068D01*
X21023411Y1859010D01*
X21266632Y2021525D01*
X21473475Y2228368D01*
X21590000Y2402760D01*
X21706525Y2228368D01*
X21913368Y2021525D01*
X22156589Y1859010D01*
X22426842Y1747068D01*
X22713740Y1690000D01*
X23006260Y1690000D01*
X23293158Y1747068D01*
X23563411Y1859010D01*
X23806632Y2021525D01*
X24013475Y2228368D01*
X24130000Y2402760D01*
X24246525Y2228368D01*
X24453368Y2021525D01*
X24696589Y1859010D01*
X24966842Y1747068D01*
X25253740Y1690000D01*
X25546260Y1690000D01*
X25833158Y1747068D01*
X26103411Y1859010D01*
X26346632Y2021525D01*
X26553475Y2228368D01*
X26670000Y2402760D01*
X26786525Y2228368D01*
X26993368Y2021525D01*
X27236589Y1859010D01*
X27506842Y1747068D01*
X27793740Y1690000D01*
X28086260Y1690000D01*
X28373158Y1747068D01*
X28643411Y1859010D01*
X28886632Y2021525D01*
X29093475Y2228368D01*
X29210000Y2402760D01*
X29326525Y2228368D01*
X29533368Y2021525D01*
X29776589Y1859010D01*
X30046842Y1747068D01*
X30333740Y1690000D01*
X30626260Y1690000D01*
X30913158Y1747068D01*
X31183411Y1859010D01*
X31426632Y2021525D01*
X31633475Y2228368D01*
X31750000Y2402760D01*
X31866525Y2228368D01*
X32073368Y2021525D01*
X32316589Y1859010D01*
X32586842Y1747068D01*
X32873740Y1690000D01*
X33166260Y1690000D01*
X33453158Y1747068D01*
X33723411Y1859010D01*
X33966632Y2021525D01*
X34173475Y2228368D01*
X34290000Y2402760D01*
X34406525Y2228368D01*
X34613368Y2021525D01*
X34856589Y1859010D01*
X35126842Y1747068D01*
X35413740Y1690000D01*
X35706260Y1690000D01*
X35993158Y1747068D01*
X36263411Y1859010D01*
X36506632Y2021525D01*
X36713475Y2228368D01*
X36830000Y2402760D01*
X36946525Y2228368D01*
X37153368Y2021525D01*
X37396589Y1859010D01*
X37666842Y1747068D01*
X37953740Y1690000D01*
X38246260Y1690000D01*
X38533158Y1747068D01*
X38803411Y1859010D01*
X39046632Y2021525D01*
X39253475Y2228368D01*
X39370000Y2402760D01*
X39486525Y2228368D01*
X39693368Y2021525D01*
X39936589Y1859010D01*
X40206842Y1747068D01*
X40493740Y1690000D01*
X40786260Y1690000D01*
X41073158Y1747068D01*
X41343411Y1859010D01*
X41586632Y2021525D01*
X41793475Y2228368D01*
X41910000Y2402760D01*
X42026525Y2228368D01*
X42233368Y2021525D01*
X42476589Y1859010D01*
X42746842Y1747068D01*
X43033740Y1690000D01*
X43326260Y1690000D01*
X43613158Y1747068D01*
X43883411Y1859010D01*
X44126632Y2021525D01*
X44333475Y2228368D01*
X44450000Y2402760D01*
X44566525Y2228368D01*
X44773368Y2021525D01*
X45016589Y1859010D01*
X45286842Y1747068D01*
X45573740Y1690000D01*
X45866260Y1690000D01*
X46153158Y1747068D01*
X46423411Y1859010D01*
X46666632Y2021525D01*
X46873475Y2228368D01*
X46990000Y2402760D01*
X47106525Y2228368D01*
X47313368Y2021525D01*
X47556589Y1859010D01*
X47826842Y1747068D01*
X48113740Y1690000D01*
X48406260Y1690000D01*
X48693158Y1747068D01*
X48963411Y1859010D01*
X49206632Y2021525D01*
X49413475Y2228368D01*
X49530000Y2402760D01*
X49646525Y2228368D01*
X49853368Y2021525D01*
X50096589Y1859010D01*
X50366842Y1747068D01*
X50653740Y1690000D01*
X50946260Y1690000D01*
X51233158Y1747068D01*
X51503411Y1859010D01*
X51746632Y2021525D01*
X51953475Y2228368D01*
X52070000Y2402760D01*
X52186525Y2228368D01*
X52393368Y2021525D01*
X52636589Y1859010D01*
X52906842Y1747068D01*
X53193740Y1690000D01*
X53486260Y1690000D01*
X53773158Y1747068D01*
X54043411Y1859010D01*
X54286632Y2021525D01*
X54493475Y2228368D01*
X54610000Y2402760D01*
X54726525Y2228368D01*
X54933368Y2021525D01*
X55176589Y1859010D01*
X55446842Y1747068D01*
X55733740Y1690000D01*
X56026260Y1690000D01*
X56313158Y1747068D01*
X56583411Y1859010D01*
X56826632Y2021525D01*
X57033475Y2228368D01*
X57150000Y2402760D01*
X57266525Y2228368D01*
X57473368Y2021525D01*
X57716589Y1859010D01*
X57986842Y1747068D01*
X58273740Y1690000D01*
X58566260Y1690000D01*
X58853158Y1747068D01*
X59123411Y1859010D01*
X59366632Y2021525D01*
X59573475Y2228368D01*
X59735990Y2471589D01*
X59847932Y2741842D01*
X59905000Y3028740D01*
X59905000Y3321260D01*
X59847932Y3608158D01*
X59735990Y3878411D01*
X59573475Y4121632D01*
X59386392Y4308715D01*
X59513386Y4376595D01*
X59647962Y4487038D01*
X59758405Y4621614D01*
X59840472Y4775150D01*
X59891008Y4941746D01*
X59908072Y5115000D01*
X59908072Y6315000D01*
X59891008Y6488254D01*
X59861661Y6585000D01*
X61544172Y6585000D01*
X61595000Y6579994D01*
X61645828Y6585000D01*
X61645838Y6585000D01*
X61797895Y6599976D01*
X61992993Y6659159D01*
X62172797Y6755266D01*
X62330396Y6884604D01*
X62362807Y6924097D01*
X63293711Y7855000D01*
X65045604Y7855000D01*
X65125241Y7775363D01*
X65360273Y7618320D01*
X65621426Y7510147D01*
X65898665Y7455000D01*
X66181335Y7455000D01*
X66458574Y7510147D01*
X66719727Y7618320D01*
X66954759Y7775363D01*
X67154637Y7975241D01*
X67311680Y8210273D01*
X67419853Y8471426D01*
X67433684Y8540960D01*
X72268091Y8540960D01*
X72362930Y8276119D01*
X72507615Y8034869D01*
X72696586Y7826481D01*
X72922580Y7658963D01*
X73176913Y7538754D01*
X73310961Y7498096D01*
X73533000Y7620085D01*
X73533000Y8763000D01*
X73787000Y8763000D01*
X73787000Y7620085D01*
X74009039Y7498096D01*
X74143087Y7538754D01*
X74397420Y7658963D01*
X74623414Y7826481D01*
X74812385Y8034869D01*
X74957070Y8276119D01*
X75051909Y8540960D01*
X74930624Y8763000D01*
X73787000Y8763000D01*
X73533000Y8763000D01*
X72389376Y8763000D01*
X72268091Y8540960D01*
X67433684Y8540960D01*
X67475000Y8748665D01*
X67475000Y9031335D01*
X67433685Y9239040D01*
X72268091Y9239040D01*
X72389376Y9017000D01*
X73533000Y9017000D01*
X73533000Y10159915D01*
X73787000Y10159915D01*
X73787000Y9017000D01*
X74930624Y9017000D01*
X75051909Y9239040D01*
X74957070Y9503881D01*
X74812385Y9745131D01*
X74623414Y9953519D01*
X74397420Y10121037D01*
X74143087Y10241246D01*
X74009039Y10281904D01*
X73787000Y10159915D01*
X73533000Y10159915D01*
X73310961Y10281904D01*
X73176913Y10241246D01*
X72922580Y10121037D01*
X72696586Y9953519D01*
X72507615Y9745131D01*
X72362930Y9503881D01*
X72268091Y9239040D01*
X67433685Y9239040D01*
X67419853Y9308574D01*
X67311680Y9569727D01*
X67154637Y9804759D01*
X66954759Y10004637D01*
X66719727Y10161680D01*
X66458574Y10269853D01*
X66181335Y10325000D01*
X65898665Y10325000D01*
X65621426Y10269853D01*
X65360273Y10161680D01*
X65125241Y10004637D01*
X65045604Y9925000D01*
X62915827Y9925000D01*
X62864999Y9930006D01*
X62814171Y9925000D01*
X62814162Y9925000D01*
X62662105Y9910024D01*
X62467007Y9850841D01*
X62383309Y9806104D01*
X62287202Y9754734D01*
X62178071Y9665172D01*
X62129604Y9625396D01*
X62097197Y9585908D01*
X61166290Y8655000D01*
X59964452Y8655000D01*
X60040130Y8666213D01*
X60306292Y8761397D01*
X60431514Y8828329D01*
X60503097Y9072298D01*
X59690000Y9885395D01*
X58876903Y9072298D01*
X58948486Y8828329D01*
X59203996Y8707429D01*
X59413157Y8655000D01*
X58848711Y8655000D01*
X57550000Y9953710D01*
X57550000Y12649173D01*
X57555006Y12700001D01*
X57550000Y12750829D01*
X57550000Y12750838D01*
X57535024Y12902895D01*
X57475841Y13097993D01*
X57382638Y13272364D01*
X57379734Y13277798D01*
X57282803Y13395908D01*
X57250396Y13435396D01*
X57210908Y13467803D01*
X56012807Y14665903D01*
X55980396Y14705396D01*
X55822797Y14834734D01*
X55642993Y14930841D01*
X55447895Y14990024D01*
X55295838Y15005000D01*
X55295828Y15005000D01*
X55245000Y15010006D01*
X55194172Y15005000D01*
X52470000Y15005000D01*
X52470000Y18580000D01*
X52536928Y18580000D01*
X52536928Y16980000D01*
X52549188Y16855518D01*
X52585498Y16735820D01*
X52644463Y16625506D01*
X52723815Y16528815D01*
X52820506Y16449463D01*
X52930820Y16390498D01*
X53050518Y16354188D01*
X53175000Y16341928D01*
X54775000Y16341928D01*
X54899482Y16354188D01*
X55019180Y16390498D01*
X55129494Y16449463D01*
X55226185Y16528815D01*
X55305537Y16625506D01*
X55364502Y16735820D01*
X55400812Y16855518D01*
X55413072Y16980000D01*
X55413072Y18580000D01*
X55400812Y18704482D01*
X55364502Y18824180D01*
X55305537Y18934494D01*
X55226185Y19031185D01*
X55129494Y19110537D01*
X55019180Y19169502D01*
X54899482Y19205812D01*
X54775000Y19218072D01*
X53175000Y19218072D01*
X53050518Y19205812D01*
X52930820Y19169502D01*
X52820506Y19110537D01*
X52723815Y19031185D01*
X52644463Y18934494D01*
X52585498Y18824180D01*
X52549188Y18704482D01*
X52536928Y18580000D01*
X52470000Y18580000D01*
X52470000Y19256290D01*
X53486117Y20272407D01*
X53636426Y20210147D01*
X53913665Y20155000D01*
X54196335Y20155000D01*
X54473574Y20210147D01*
X54734727Y20318320D01*
X54969759Y20475363D01*
X55091694Y20597298D01*
X58241903Y20597298D01*
X58313486Y20353329D01*
X58568996Y20232429D01*
X58843184Y20163700D01*
X59125512Y20149783D01*
X59405130Y20191213D01*
X59671292Y20286397D01*
X59796514Y20353329D01*
X59868097Y20597298D01*
X59055000Y21410395D01*
X58241903Y20597298D01*
X55091694Y20597298D01*
X55169637Y20675241D01*
X55326680Y20910273D01*
X55434853Y21171426D01*
X55490000Y21448665D01*
X55490000Y21519488D01*
X57614783Y21519488D01*
X57656213Y21239870D01*
X57751397Y20973708D01*
X57818329Y20848486D01*
X58062298Y20776903D01*
X58875395Y21590000D01*
X59234605Y21590000D01*
X60047702Y20776903D01*
X60291671Y20848486D01*
X60412571Y21103996D01*
X60481300Y21378184D01*
X60495217Y21660512D01*
X60453787Y21940130D01*
X60358603Y22206292D01*
X60291671Y22331514D01*
X60047702Y22403097D01*
X59234605Y21590000D01*
X58875395Y21590000D01*
X58062298Y22403097D01*
X57818329Y22331514D01*
X57697429Y22076004D01*
X57628700Y21801816D01*
X57614783Y21519488D01*
X55490000Y21519488D01*
X55490000Y21731335D01*
X55434853Y22008574D01*
X55326680Y22269727D01*
X55169637Y22504759D01*
X55091694Y22582702D01*
X58241903Y22582702D01*
X59055000Y21769605D01*
X59868097Y22582702D01*
X59796514Y22826671D01*
X59541004Y22947571D01*
X59266816Y23016300D01*
X58984488Y23030217D01*
X58704870Y22988787D01*
X58438708Y22893603D01*
X58313486Y22826671D01*
X58241903Y22582702D01*
X55091694Y22582702D01*
X54969759Y22704637D01*
X54734727Y22861680D01*
X54473574Y22969853D01*
X54196335Y23025000D01*
X53913665Y23025000D01*
X53636426Y22969853D01*
X53375273Y22861680D01*
X53140241Y22704637D01*
X53005795Y22570191D01*
X52942007Y22550841D01*
X52902126Y22529524D01*
X52762202Y22454734D01*
X52660399Y22371186D01*
X52604604Y22325396D01*
X52572197Y22285908D01*
X50739092Y20452802D01*
X50699605Y20420396D01*
X50667198Y20380908D01*
X50667197Y20380907D01*
X50570266Y20262797D01*
X50474160Y20082993D01*
X50414977Y19887895D01*
X50394994Y19685000D01*
X50400001Y19634162D01*
X50400000Y14398711D01*
X49101290Y13100000D01*
X45594544Y13100000D01*
X45721680Y13290273D01*
X45829853Y13551426D01*
X45885000Y13828665D01*
X45885000Y14111335D01*
X45829853Y14388574D01*
X45721680Y14649727D01*
X45564637Y14884759D01*
X45385000Y15064396D01*
X45385000Y18115000D01*
X47871315Y18115000D01*
X48012114Y17974201D01*
X48238957Y17822629D01*
X48491011Y17718225D01*
X48758589Y17665000D01*
X49031411Y17665000D01*
X49298989Y17718225D01*
X49551043Y17822629D01*
X49777886Y17974201D01*
X49970799Y18167114D01*
X50122371Y18393957D01*
X50226775Y18646011D01*
X50280000Y18913589D01*
X50280000Y19186411D01*
X50226775Y19453989D01*
X50122371Y19706043D01*
X49970799Y19932886D01*
X49777886Y20125799D01*
X49551043Y20277371D01*
X49298989Y20381775D01*
X49031411Y20435000D01*
X48758589Y20435000D01*
X48491011Y20381775D01*
X48238957Y20277371D01*
X48012114Y20125799D01*
X47871315Y19985000D01*
X45385000Y19985000D01*
X45385000Y20909065D01*
X45389524Y20955000D01*
X45371472Y21138292D01*
X45318007Y21314541D01*
X45283989Y21378184D01*
X45231186Y21476972D01*
X45114344Y21619344D01*
X45078659Y21648630D01*
X44508630Y22218659D01*
X44479344Y22254344D01*
X44336972Y22371186D01*
X44174540Y22458007D01*
X43998292Y22511471D01*
X43860932Y22525000D01*
X43815000Y22529524D01*
X43769068Y22525000D01*
X42764044Y22525000D01*
X42694608Y22609608D01*
X42476101Y22788932D01*
X42343142Y22860000D01*
X42476101Y22931068D01*
X42694608Y23110392D01*
X42764044Y23195000D01*
X43355604Y23195000D01*
X43535241Y23015363D01*
X43770273Y22858320D01*
X44031426Y22750147D01*
X44308665Y22695000D01*
X44591335Y22695000D01*
X44868574Y22750147D01*
X45129727Y22858320D01*
X45334284Y22995000D01*
X47871315Y22995000D01*
X48012114Y22854201D01*
X48238957Y22702629D01*
X48491011Y22598225D01*
X48758589Y22545000D01*
X49031411Y22545000D01*
X49298989Y22598225D01*
X49551043Y22702629D01*
X49777886Y22854201D01*
X49970799Y23047114D01*
X50122371Y23273957D01*
X50226775Y23526011D01*
X50280000Y23793589D01*
X50280000Y24066411D01*
X50226775Y24333989D01*
X50122371Y24586043D01*
X49970799Y24812886D01*
X49777886Y25005799D01*
X49551043Y25157371D01*
X49298989Y25261775D01*
X49031411Y25315000D01*
X48758589Y25315000D01*
X48491011Y25261775D01*
X48238957Y25157371D01*
X48012114Y25005799D01*
X47871315Y24865000D01*
X45684748Y24865000D01*
X45564637Y25044759D01*
X45385000Y25224396D01*
X45385000Y25655604D01*
X45564637Y25835241D01*
X45721680Y26070273D01*
X45829853Y26331426D01*
X45885000Y26608665D01*
X45885000Y26891335D01*
X45829853Y27168574D01*
X45721680Y27429727D01*
X45581180Y27640000D01*
X46944068Y27640000D01*
X46990000Y27635476D01*
X47035932Y27640000D01*
X47173292Y27653529D01*
X47349540Y27706993D01*
X47511972Y27793814D01*
X47654344Y27910656D01*
X47683630Y27946341D01*
X48282686Y28545397D01*
X48476426Y28465147D01*
X48753665Y28410000D01*
X49036335Y28410000D01*
X49313574Y28465147D01*
X49574727Y28573320D01*
X49809759Y28730363D01*
X49989396Y28910000D01*
X52317711Y28910000D01*
X53120001Y28107709D01*
X53120000Y27129396D01*
X52940363Y26949759D01*
X52783320Y26714727D01*
X52675147Y26453574D01*
X52620000Y26176335D01*
X52620000Y25893665D01*
X52675147Y25616426D01*
X52783320Y25355273D01*
X52940363Y25120241D01*
X53140241Y24920363D01*
X53375273Y24763320D01*
X53636426Y24655147D01*
X53913665Y24600000D01*
X54196335Y24600000D01*
X54473574Y24655147D01*
X54734727Y24763320D01*
X54969759Y24920363D01*
X55091694Y25042298D01*
X58241903Y25042298D01*
X58313486Y24798329D01*
X58568996Y24677429D01*
X58843184Y24608700D01*
X59125512Y24594783D01*
X59405130Y24636213D01*
X59671292Y24731397D01*
X59796514Y24798329D01*
X59868097Y25042298D01*
X59055000Y25855395D01*
X58241903Y25042298D01*
X55091694Y25042298D01*
X55169637Y25120241D01*
X55326680Y25355273D01*
X55434853Y25616426D01*
X55490000Y25893665D01*
X55490000Y26176335D01*
X55434853Y26453574D01*
X55326680Y26714727D01*
X55169637Y26949759D01*
X54990000Y27129396D01*
X54990000Y28449069D01*
X54994524Y28495001D01*
X54976471Y28678293D01*
X54952203Y28758292D01*
X54927290Y28840421D01*
X56456370Y27311341D01*
X56485656Y27275656D01*
X56628028Y27158814D01*
X56790460Y27071993D01*
X56936469Y27027702D01*
X56966708Y27018529D01*
X57150000Y27000476D01*
X57195932Y27005000D01*
X57986653Y27005000D01*
X57946023Y26964370D01*
X58062296Y26848097D01*
X57818329Y26776514D01*
X57697429Y26521004D01*
X57628700Y26246816D01*
X57614783Y25964488D01*
X57656213Y25684870D01*
X57751397Y25418708D01*
X57818329Y25293486D01*
X58062298Y25221903D01*
X58875395Y26035000D01*
X58861253Y26049142D01*
X59040858Y26228747D01*
X59055000Y26214605D01*
X59069143Y26228747D01*
X59248748Y26049142D01*
X59234605Y26035000D01*
X60047702Y25221903D01*
X60291671Y25293486D01*
X60412571Y25548996D01*
X60481300Y25823184D01*
X60495217Y26105512D01*
X60453787Y26385130D01*
X60396005Y26546706D01*
X60795000Y26147711D01*
X60795000Y25893665D01*
X60850147Y25616426D01*
X60958320Y25355273D01*
X61115363Y25120241D01*
X61315241Y24920363D01*
X61550273Y24763320D01*
X61811426Y24655147D01*
X62088665Y24600000D01*
X62371335Y24600000D01*
X62648574Y24655147D01*
X62909727Y24763320D01*
X63144759Y24920363D01*
X63324396Y25100000D01*
X65476025Y25100000D01*
X65435498Y25024180D01*
X65399188Y24904482D01*
X65386928Y24780000D01*
X65386928Y23480000D01*
X65399188Y23355518D01*
X65435498Y23235820D01*
X65494463Y23125506D01*
X65573815Y23028815D01*
X65670506Y22949463D01*
X65740001Y22912317D01*
X65740001Y22612290D01*
X65411341Y22283630D01*
X65375656Y22254344D01*
X65258814Y22111971D01*
X65171993Y21949539D01*
X65146488Y21865460D01*
X65118529Y21773291D01*
X65100476Y21590000D01*
X65105000Y21544068D01*
X65105001Y20144397D01*
X64945604Y19985000D01*
X62910935Y19985000D01*
X62865000Y19989524D01*
X62681708Y19971472D01*
X62505459Y19918007D01*
X62451266Y19889040D01*
X62343028Y19831186D01*
X62200656Y19714344D01*
X62171370Y19678659D01*
X61601336Y19108625D01*
X61565657Y19079344D01*
X61448815Y18936972D01*
X61388527Y18824180D01*
X61361994Y18774540D01*
X61308529Y18598291D01*
X61290476Y18415000D01*
X61295001Y18369058D01*
X61295000Y16969396D01*
X61135604Y16810000D01*
X60370935Y16810000D01*
X60325000Y16814524D01*
X60141708Y16796472D01*
X59965459Y16743007D01*
X59908880Y16712765D01*
X59803028Y16656186D01*
X59660656Y16539344D01*
X59631370Y16503659D01*
X59061336Y15933625D01*
X59025657Y15904344D01*
X58908815Y15761972D01*
X58821994Y15599540D01*
X58768529Y15423291D01*
X58750476Y15240000D01*
X58755001Y15194058D01*
X58755000Y13487622D01*
X58645820Y13454502D01*
X58535506Y13395537D01*
X58438815Y13316185D01*
X58359463Y13219494D01*
X58300498Y13109180D01*
X58264188Y12989482D01*
X58251928Y12865000D01*
X58251928Y11265000D01*
X58264188Y11140518D01*
X58300498Y11020820D01*
X58359463Y10910506D01*
X58438815Y10813815D01*
X58451758Y10803193D01*
X58332429Y10551004D01*
X58263700Y10276816D01*
X58249783Y9994488D01*
X58291213Y9714870D01*
X58386397Y9448708D01*
X58453329Y9323486D01*
X58697298Y9251903D01*
X59510395Y10065000D01*
X59496253Y10079142D01*
X59675858Y10258747D01*
X59690000Y10244605D01*
X59704143Y10258747D01*
X59883748Y10079142D01*
X59869605Y10065000D01*
X60682702Y9251903D01*
X60926671Y9323486D01*
X61047571Y9578996D01*
X61116300Y9853184D01*
X61130217Y10135512D01*
X61088787Y10415130D01*
X60993603Y10681292D01*
X60928384Y10803309D01*
X60941185Y10813815D01*
X61020537Y10910506D01*
X61079502Y11020820D01*
X61115812Y11140518D01*
X61128072Y11265000D01*
X61128072Y12865000D01*
X61115812Y12989482D01*
X61079502Y13109180D01*
X61020537Y13219494D01*
X60941185Y13316185D01*
X60844494Y13395537D01*
X60734180Y13454502D01*
X60625000Y13487621D01*
X60625000Y14191335D01*
X68415000Y14191335D01*
X68415000Y13908665D01*
X68470147Y13631426D01*
X68578320Y13370273D01*
X68735363Y13135241D01*
X68935241Y12935363D01*
X69170273Y12778320D01*
X69431426Y12670147D01*
X69708665Y12615000D01*
X69991335Y12615000D01*
X70268574Y12670147D01*
X70529727Y12778320D01*
X70764759Y12935363D01*
X70944396Y13115000D01*
X71789068Y13115000D01*
X71835000Y13110476D01*
X71880932Y13115000D01*
X72018292Y13128529D01*
X72194540Y13181993D01*
X72356972Y13268814D01*
X72499344Y13385656D01*
X72528630Y13421341D01*
X74288660Y15181371D01*
X74324344Y15210656D01*
X74441186Y15353028D01*
X74528007Y15515460D01*
X74553512Y15599540D01*
X74581472Y15691708D01*
X74599524Y15875000D01*
X74595000Y15920935D01*
X74595000Y17955604D01*
X74774637Y18135241D01*
X74931680Y18370273D01*
X75039853Y18631426D01*
X75095000Y18908665D01*
X75095000Y19191335D01*
X75039853Y19468574D01*
X74931680Y19729727D01*
X74774637Y19964759D01*
X74574759Y20164637D01*
X74339727Y20321680D01*
X74078574Y20429853D01*
X73801335Y20485000D01*
X73518665Y20485000D01*
X73241426Y20429853D01*
X72980273Y20321680D01*
X72745241Y20164637D01*
X72545363Y19964759D01*
X72388320Y19729727D01*
X72280147Y19468574D01*
X72225000Y19191335D01*
X72225000Y18908665D01*
X72280147Y18631426D01*
X72388320Y18370273D01*
X72545363Y18135241D01*
X72725001Y17955603D01*
X72725000Y16262289D01*
X71447711Y14985000D01*
X70944396Y14985000D01*
X70764759Y15164637D01*
X70529727Y15321680D01*
X70268574Y15429853D01*
X69991335Y15485000D01*
X69708665Y15485000D01*
X69431426Y15429853D01*
X69170273Y15321680D01*
X68935241Y15164637D01*
X68735363Y14964759D01*
X68578320Y14729727D01*
X68470147Y14468574D01*
X68415000Y14191335D01*
X60625000Y14191335D01*
X60625000Y14852711D01*
X60712289Y14940000D01*
X61135604Y14940000D01*
X61315241Y14760363D01*
X61550273Y14603320D01*
X61811426Y14495147D01*
X62088665Y14440000D01*
X62371335Y14440000D01*
X62648574Y14495147D01*
X62909727Y14603320D01*
X63144759Y14760363D01*
X63344637Y14960241D01*
X63501680Y15195273D01*
X63609853Y15456426D01*
X63665000Y15733665D01*
X63665000Y16016335D01*
X63609853Y16293574D01*
X63501680Y16554727D01*
X63344637Y16789759D01*
X63165000Y16969396D01*
X63165000Y18027711D01*
X63252289Y18115000D01*
X64945604Y18115000D01*
X65125241Y17935363D01*
X65360273Y17778320D01*
X65621426Y17670147D01*
X65898665Y17615000D01*
X66181335Y17615000D01*
X66458574Y17670147D01*
X66719727Y17778320D01*
X66954759Y17935363D01*
X67154637Y18135241D01*
X67311680Y18370273D01*
X67419853Y18631426D01*
X67475000Y18908665D01*
X67475000Y19191335D01*
X67419853Y19468574D01*
X67311680Y19729727D01*
X67154637Y19964759D01*
X66975000Y20144396D01*
X66975000Y21202711D01*
X67303659Y21531370D01*
X67339344Y21560656D01*
X67456186Y21703028D01*
X67520316Y21823007D01*
X67543007Y21865459D01*
X67596472Y22041708D01*
X67614524Y22225000D01*
X67610000Y22270935D01*
X67610000Y22912317D01*
X67679494Y22949463D01*
X67776185Y23028815D01*
X67855537Y23125506D01*
X67914502Y23235820D01*
X67950812Y23355518D01*
X67963072Y23480000D01*
X67963072Y23837172D01*
X67979381Y23755179D01*
X68076247Y23521324D01*
X68216875Y23310860D01*
X68280000Y23247735D01*
X68280001Y22270942D01*
X68275476Y22225000D01*
X68293529Y22041709D01*
X68343654Y21876471D01*
X68346994Y21865460D01*
X68433815Y21703028D01*
X68550657Y21560656D01*
X68586336Y21531375D01*
X68915000Y21202711D01*
X68915001Y20144397D01*
X68735363Y19964759D01*
X68578320Y19729727D01*
X68470147Y19468574D01*
X68415000Y19191335D01*
X68415000Y18908665D01*
X68470147Y18631426D01*
X68578320Y18370273D01*
X68735363Y18135241D01*
X68935241Y17935363D01*
X69170273Y17778320D01*
X69431426Y17670147D01*
X69708665Y17615000D01*
X69991335Y17615000D01*
X70268574Y17670147D01*
X70529727Y17778320D01*
X70764759Y17935363D01*
X70964637Y18135241D01*
X71121680Y18370273D01*
X71229853Y18631426D01*
X71285000Y18908665D01*
X71285000Y19191335D01*
X71229853Y19468574D01*
X71121680Y19729727D01*
X70964637Y19964759D01*
X70785000Y20144396D01*
X70785000Y21544065D01*
X70789524Y21590000D01*
X70771472Y21773292D01*
X70718007Y21949541D01*
X70686453Y22008574D01*
X70631186Y22111972D01*
X70514344Y22254344D01*
X70478660Y22283629D01*
X70150000Y22612289D01*
X70150000Y23247735D01*
X70213125Y23310860D01*
X70353753Y23521324D01*
X70450619Y23755179D01*
X70500000Y24003439D01*
X70500000Y24256561D01*
X70450619Y24504821D01*
X70353753Y24738676D01*
X70213125Y24949140D01*
X70150000Y25012265D01*
X70150000Y27894068D01*
X70154524Y27940000D01*
X70136471Y28123292D01*
X70117752Y28185000D01*
X70083007Y28299540D01*
X69996186Y28461972D01*
X69879344Y28604344D01*
X69843659Y28633630D01*
X68981328Y29495961D01*
X70998096Y29495961D01*
X71038754Y29361913D01*
X71158963Y29107580D01*
X71326481Y28881586D01*
X71534869Y28692615D01*
X71776119Y28547930D01*
X72040960Y28453091D01*
X72263000Y28574376D01*
X72263000Y29718000D01*
X72517000Y29718000D01*
X72517000Y28574376D01*
X72739040Y28453091D01*
X73003881Y28547930D01*
X73245131Y28692615D01*
X73453519Y28881586D01*
X73621037Y29107580D01*
X73741246Y29361913D01*
X73781904Y29495961D01*
X73659915Y29718000D01*
X72517000Y29718000D01*
X72263000Y29718000D01*
X71120085Y29718000D01*
X70998096Y29495961D01*
X68981328Y29495961D01*
X68283250Y30194039D01*
X70998096Y30194039D01*
X71120085Y29972000D01*
X72263000Y29972000D01*
X72263000Y31115624D01*
X72517000Y31115624D01*
X72517000Y29972000D01*
X73659915Y29972000D01*
X73781904Y30194039D01*
X73741246Y30328087D01*
X73621037Y30582420D01*
X73453519Y30808414D01*
X73245131Y30997385D01*
X73003881Y31142070D01*
X72739040Y31236909D01*
X72517000Y31115624D01*
X72263000Y31115624D01*
X72040960Y31236909D01*
X71776119Y31142070D01*
X71534869Y30997385D01*
X71326481Y30808414D01*
X71158963Y30582420D01*
X71038754Y30328087D01*
X70998096Y30194039D01*
X68283250Y30194039D01*
X68003630Y30473659D01*
X67974344Y30509344D01*
X67831972Y30626186D01*
X67669540Y30713007D01*
X67493292Y30766471D01*
X67355932Y30780000D01*
X67310000Y30784524D01*
X67264068Y30780000D01*
X63324396Y30780000D01*
X63165000Y30939396D01*
X63165000Y31704069D01*
X63169524Y31750001D01*
X63151471Y31933293D01*
X63121738Y32031309D01*
X63098007Y32109540D01*
X63011186Y32271972D01*
X62894344Y32414344D01*
X62858665Y32443625D01*
X61653630Y33648659D01*
X61624344Y33684344D01*
X61481972Y33801186D01*
X61319540Y33888007D01*
X61143292Y33941471D01*
X61005932Y33955000D01*
X60960000Y33959524D01*
X60914068Y33955000D01*
X60149396Y33955000D01*
X59990000Y34114396D01*
X59990000Y35100604D01*
X60169637Y35280241D01*
X60326680Y35515273D01*
X60434853Y35776426D01*
X60490000Y36053665D01*
X60490000Y36336335D01*
X60434853Y36613574D01*
X60326680Y36874727D01*
X60169637Y37109759D01*
X59969759Y37309637D01*
X59734727Y37466680D01*
X59473574Y37574853D01*
X59196335Y37630000D01*
X58913665Y37630000D01*
X58636426Y37574853D01*
X58375273Y37466680D01*
X58140241Y37309637D01*
X57940363Y37109759D01*
X57783320Y36874727D01*
X57675147Y36613574D01*
X57620000Y36336335D01*
X57620000Y36053665D01*
X57675147Y35776426D01*
X57783320Y35515273D01*
X57940363Y35280241D01*
X58120000Y35100604D01*
X58120001Y34114397D01*
X57940363Y33934759D01*
X57783320Y33699727D01*
X57675147Y33438574D01*
X57620000Y33161335D01*
X57620000Y32878665D01*
X57675147Y32601426D01*
X57783320Y32340273D01*
X57940363Y32105241D01*
X58140241Y31905363D01*
X58375273Y31748320D01*
X58636426Y31640147D01*
X58913665Y31585000D01*
X59196335Y31585000D01*
X59473574Y31640147D01*
X59734727Y31748320D01*
X59969759Y31905363D01*
X60149396Y32085000D01*
X60572711Y32085000D01*
X61295000Y31362710D01*
X61295000Y30939396D01*
X61115363Y30759759D01*
X60958320Y30524727D01*
X60850147Y30263574D01*
X60795000Y29986335D01*
X60795000Y29703665D01*
X60850147Y29426426D01*
X60958320Y29165273D01*
X61115363Y28930241D01*
X61315241Y28730363D01*
X61550273Y28573320D01*
X61811426Y28465147D01*
X62088665Y28410000D01*
X62371335Y28410000D01*
X62648574Y28465147D01*
X62909727Y28573320D01*
X63144759Y28730363D01*
X63324396Y28910000D01*
X66922711Y28910000D01*
X68280001Y27552710D01*
X68280001Y26643540D01*
X68071561Y26685000D01*
X67986116Y26685000D01*
X67974344Y26699344D01*
X67831972Y26816186D01*
X67669540Y26903007D01*
X67493292Y26956471D01*
X67355932Y26970000D01*
X67310000Y26974524D01*
X67264068Y26970000D01*
X63324396Y26970000D01*
X63144759Y27149637D01*
X62909727Y27306680D01*
X62648574Y27414853D01*
X62371335Y27470000D01*
X62117289Y27470000D01*
X61018630Y28568659D01*
X60989344Y28604344D01*
X60846972Y28721186D01*
X60684540Y28808007D01*
X60508292Y28861471D01*
X60370932Y28875000D01*
X60325000Y28879524D01*
X60279068Y28875000D01*
X60114396Y28875000D01*
X60169637Y28930241D01*
X60326680Y29165273D01*
X60434853Y29426426D01*
X60490000Y29703665D01*
X60490000Y29986335D01*
X60434853Y30263574D01*
X60326680Y30524727D01*
X60169637Y30759759D01*
X59969759Y30959637D01*
X59734727Y31116680D01*
X59473574Y31224853D01*
X59196335Y31280000D01*
X58913665Y31280000D01*
X58636426Y31224853D01*
X58375273Y31116680D01*
X58140241Y30959637D01*
X57940363Y30759759D01*
X57783320Y30524727D01*
X57675147Y30263574D01*
X57620000Y29986335D01*
X57620000Y29703665D01*
X57675147Y29426426D01*
X57783320Y29165273D01*
X57940363Y28930241D01*
X57995604Y28875000D01*
X57537289Y28875000D01*
X54990000Y31422289D01*
X54990000Y33054069D01*
X54994524Y33099999D01*
X54990000Y33145932D01*
X54990000Y35100604D01*
X55169637Y35280241D01*
X55326680Y35515273D01*
X55434853Y35776426D01*
X55490000Y36053665D01*
X55490000Y36336335D01*
X55434853Y36613574D01*
X55326680Y36874727D01*
X55169637Y37109759D01*
X54969759Y37309637D01*
X54734727Y37466680D01*
X54473574Y37574853D01*
X54196335Y37630000D01*
X53913665Y37630000D01*
X53636426Y37574853D01*
X53375273Y37466680D01*
X53140241Y37309637D01*
X52940363Y37109759D01*
X52783320Y36874727D01*
X52675147Y36613574D01*
X52620000Y36336335D01*
X52620000Y36053665D01*
X52675147Y35776426D01*
X52783320Y35515273D01*
X52940363Y35280241D01*
X53120001Y35100603D01*
X53120000Y33955000D01*
X49989396Y33955000D01*
X49809759Y34134637D01*
X49574727Y34291680D01*
X49313574Y34399853D01*
X49036335Y34455000D01*
X48753665Y34455000D01*
X48476426Y34399853D01*
X48215273Y34291680D01*
X47980241Y34134637D01*
X47780363Y33934759D01*
X47623320Y33699727D01*
X47515147Y33438574D01*
X47460000Y33161335D01*
X47460000Y32907289D01*
X45799365Y31246654D01*
X45807571Y31263996D01*
X45876300Y31538184D01*
X45890217Y31820512D01*
X45848787Y32100130D01*
X45753603Y32366292D01*
X45686671Y32491514D01*
X45442702Y32563097D01*
X44629605Y31750000D01*
X44643748Y31735857D01*
X44464143Y31556252D01*
X44450000Y31570395D01*
X44435858Y31556252D01*
X44256253Y31735857D01*
X44270395Y31750000D01*
X43457298Y32563097D01*
X43213329Y32491514D01*
X43092429Y32236004D01*
X43062890Y32118161D01*
X43007182Y32301808D01*
X42873932Y32551101D01*
X42716690Y32742702D01*
X43636903Y32742702D01*
X44450000Y31929605D01*
X45263097Y32742702D01*
X45191514Y32986671D01*
X44936004Y33107571D01*
X44661816Y33176300D01*
X44379488Y33190217D01*
X44099870Y33148787D01*
X43833708Y33053603D01*
X43708486Y32986671D01*
X43636903Y32742702D01*
X42716690Y32742702D01*
X42694608Y32769608D01*
X42476101Y32948932D01*
X42343142Y33020000D01*
X42476101Y33091068D01*
X42694608Y33270392D01*
X42873932Y33488899D01*
X43007182Y33738192D01*
X43089236Y34008691D01*
X43116943Y34290000D01*
X43089236Y34571309D01*
X43007182Y34841808D01*
X42873932Y35091101D01*
X42694608Y35309608D01*
X42476101Y35488932D01*
X42343142Y35560000D01*
X42476101Y35631068D01*
X42694608Y35810392D01*
X42873932Y36028899D01*
X43007182Y36278192D01*
X43089236Y36548691D01*
X43116943Y36830000D01*
X43103023Y36971335D01*
X44285000Y36971335D01*
X44285000Y36688665D01*
X44340147Y36411426D01*
X44448320Y36150273D01*
X44605363Y35915241D01*
X44805241Y35715363D01*
X45040273Y35558320D01*
X45301426Y35450147D01*
X45578665Y35395000D01*
X45861335Y35395000D01*
X46138574Y35450147D01*
X46399727Y35558320D01*
X46634759Y35715363D01*
X46814396Y35895000D01*
X48214068Y35895000D01*
X48260000Y35890476D01*
X48305932Y35895000D01*
X48443292Y35908529D01*
X48619540Y35961993D01*
X48781972Y36048814D01*
X48924344Y36165656D01*
X48953630Y36201341D01*
X49523659Y36771370D01*
X49559344Y36800656D01*
X49676186Y36943028D01*
X49740316Y37063007D01*
X49763007Y37105459D01*
X49816472Y37281708D01*
X49834524Y37465000D01*
X49830000Y37510935D01*
X49830000Y38275604D01*
X50009637Y38455241D01*
X50166680Y38690273D01*
X50274853Y38951426D01*
X50330000Y39228665D01*
X50330000Y39511335D01*
X57620000Y39511335D01*
X57620000Y39228665D01*
X57675147Y38951426D01*
X57783320Y38690273D01*
X57940363Y38455241D01*
X58140241Y38255363D01*
X58375273Y38098320D01*
X58636426Y37990147D01*
X58913665Y37935000D01*
X59196335Y37935000D01*
X59473574Y37990147D01*
X59734727Y38098320D01*
X59969759Y38255363D01*
X60149396Y38435000D01*
X60914068Y38435000D01*
X60960000Y38430476D01*
X61005932Y38435000D01*
X61143292Y38448529D01*
X61319540Y38501993D01*
X61481972Y38588814D01*
X61624344Y38705656D01*
X61653630Y38741341D01*
X63789235Y40876946D01*
X63869339Y40779339D01*
X64103073Y40587519D01*
X64369739Y40444983D01*
X64594049Y40376939D01*
X64522733Y40329287D01*
X64350713Y40157267D01*
X64215557Y39954992D01*
X64122460Y39730236D01*
X64075000Y39491637D01*
X64075000Y39248363D01*
X64122460Y39009764D01*
X64215557Y38785008D01*
X64350713Y38582733D01*
X64522733Y38410713D01*
X64594049Y38363061D01*
X64369739Y38295017D01*
X64103073Y38152481D01*
X63869339Y37960661D01*
X63677519Y37726927D01*
X63534983Y37460261D01*
X63447210Y37170913D01*
X63417573Y36870000D01*
X63447210Y36569087D01*
X63534983Y36279739D01*
X63677519Y36013073D01*
X63869339Y35779339D01*
X64063495Y35620000D01*
X63869339Y35460661D01*
X63677519Y35226927D01*
X63534983Y34960261D01*
X63447210Y34670913D01*
X63417573Y34370000D01*
X63447210Y34069087D01*
X63534983Y33779739D01*
X63677519Y33513073D01*
X63869339Y33279339D01*
X64103073Y33087519D01*
X64369739Y32944983D01*
X64659087Y32857210D01*
X64884592Y32835000D01*
X65735408Y32835000D01*
X65960913Y32857210D01*
X66250261Y32944983D01*
X66516927Y33087519D01*
X66750661Y33279339D01*
X66942481Y33513073D01*
X67085017Y33779739D01*
X67172790Y34069087D01*
X67202427Y34370000D01*
X67190447Y34491637D01*
X69075000Y34491637D01*
X69075000Y34248363D01*
X69122460Y34009764D01*
X69215557Y33785008D01*
X69350713Y33582733D01*
X69522733Y33410713D01*
X69725008Y33275557D01*
X69949764Y33182460D01*
X70188363Y33135000D01*
X70431637Y33135000D01*
X70670236Y33182460D01*
X70894992Y33275557D01*
X71097267Y33410713D01*
X71269287Y33582733D01*
X71404443Y33785008D01*
X71497540Y34009764D01*
X71545000Y34248363D01*
X71545000Y34491637D01*
X71575000Y34491637D01*
X71575000Y34248363D01*
X71622460Y34009764D01*
X71715557Y33785008D01*
X71850713Y33582733D01*
X72022733Y33410713D01*
X72225008Y33275557D01*
X72449764Y33182460D01*
X72688363Y33135000D01*
X72931637Y33135000D01*
X73170236Y33182460D01*
X73394992Y33275557D01*
X73597267Y33410713D01*
X73769287Y33582733D01*
X73904443Y33785008D01*
X73997540Y34009764D01*
X74045000Y34248363D01*
X74045000Y34491637D01*
X73997540Y34730236D01*
X73904443Y34954992D01*
X73769287Y35157267D01*
X73597267Y35329287D01*
X73394992Y35464443D01*
X73170236Y35557540D01*
X72931637Y35605000D01*
X72688363Y35605000D01*
X72449764Y35557540D01*
X72225008Y35464443D01*
X72022733Y35329287D01*
X71850713Y35157267D01*
X71715557Y34954992D01*
X71622460Y34730236D01*
X71575000Y34491637D01*
X71545000Y34491637D01*
X71497540Y34730236D01*
X71404443Y34954992D01*
X71269287Y35157267D01*
X71097267Y35329287D01*
X70894992Y35464443D01*
X70670236Y35557540D01*
X70431637Y35605000D01*
X70188363Y35605000D01*
X69949764Y35557540D01*
X69725008Y35464443D01*
X69522733Y35329287D01*
X69350713Y35157267D01*
X69215557Y34954992D01*
X69122460Y34730236D01*
X69075000Y34491637D01*
X67190447Y34491637D01*
X67172790Y34670913D01*
X67085017Y34960261D01*
X66942481Y35226927D01*
X66750661Y35460661D01*
X66556505Y35620000D01*
X66750661Y35779339D01*
X66942481Y36013073D01*
X67085017Y36279739D01*
X67172790Y36569087D01*
X67202427Y36870000D01*
X67172790Y37170913D01*
X67085017Y37460261D01*
X66942481Y37726927D01*
X66750661Y37960661D01*
X66516927Y38152481D01*
X66250261Y38295017D01*
X66025951Y38363061D01*
X66097267Y38410713D01*
X66269287Y38582733D01*
X66404443Y38785008D01*
X66497540Y39009764D01*
X66543933Y39243000D01*
X68775000Y39243000D01*
X68775000Y38893000D01*
X68829271Y38595977D01*
X68940446Y38315249D01*
X69104252Y38061604D01*
X69314394Y37844790D01*
X69562796Y37673138D01*
X69839913Y37553245D01*
X69945260Y37528964D01*
X70183000Y37649622D01*
X70183000Y39243000D01*
X70437000Y39243000D01*
X70437000Y37649622D01*
X70674740Y37528964D01*
X70780087Y37553245D01*
X71057204Y37673138D01*
X71305606Y37844790D01*
X71515748Y38061604D01*
X71679554Y38315249D01*
X71790729Y38595977D01*
X71845000Y38893000D01*
X71845000Y39243000D01*
X70437000Y39243000D01*
X70183000Y39243000D01*
X68775000Y39243000D01*
X66543933Y39243000D01*
X66545000Y39248363D01*
X66545000Y39491637D01*
X66497540Y39730236D01*
X66449175Y39847000D01*
X68775000Y39847000D01*
X68775000Y39497000D01*
X70183000Y39497000D01*
X70183000Y41090378D01*
X70437000Y41090378D01*
X70437000Y39497000D01*
X71845000Y39497000D01*
X71845000Y39847000D01*
X71790729Y40144023D01*
X71679554Y40424751D01*
X71515748Y40678396D01*
X71305606Y40895210D01*
X71057204Y41066862D01*
X70780087Y41186755D01*
X70674740Y41211036D01*
X70437000Y41090378D01*
X70183000Y41090378D01*
X69945260Y41211036D01*
X69839913Y41186755D01*
X69562796Y41066862D01*
X69314394Y40895210D01*
X69104252Y40678396D01*
X68940446Y40424751D01*
X68829271Y40144023D01*
X68775000Y39847000D01*
X66449175Y39847000D01*
X66404443Y39954992D01*
X66269287Y40157267D01*
X66097267Y40329287D01*
X66025951Y40376939D01*
X66250261Y40444983D01*
X66516927Y40587519D01*
X66750661Y40779339D01*
X66942481Y41013073D01*
X67085017Y41279739D01*
X67172790Y41569087D01*
X67202427Y41870000D01*
X67172790Y42170913D01*
X67085017Y42460261D01*
X66942481Y42726927D01*
X66750661Y42960661D01*
X66556505Y43120000D01*
X66750661Y43279339D01*
X66942481Y43513073D01*
X67085017Y43779739D01*
X67172790Y44069087D01*
X67202427Y44370000D01*
X67190447Y44491637D01*
X69075000Y44491637D01*
X69075000Y44248363D01*
X69122460Y44009764D01*
X69215557Y43785008D01*
X69350713Y43582733D01*
X69522733Y43410713D01*
X69725008Y43275557D01*
X69949764Y43182460D01*
X70188363Y43135000D01*
X70431637Y43135000D01*
X70670236Y43182460D01*
X70894992Y43275557D01*
X71097267Y43410713D01*
X71269287Y43582733D01*
X71404443Y43785008D01*
X71497540Y44009764D01*
X71545000Y44248363D01*
X71545000Y44491637D01*
X71575000Y44491637D01*
X71575000Y44248363D01*
X71622460Y44009764D01*
X71715557Y43785008D01*
X71850713Y43582733D01*
X72022733Y43410713D01*
X72225008Y43275557D01*
X72449764Y43182460D01*
X72688363Y43135000D01*
X72931637Y43135000D01*
X73170236Y43182460D01*
X73394992Y43275557D01*
X73597267Y43410713D01*
X73769287Y43582733D01*
X73904443Y43785008D01*
X73997540Y44009764D01*
X74045000Y44248363D01*
X74045000Y44491637D01*
X73997540Y44730236D01*
X73904443Y44954992D01*
X73769287Y45157267D01*
X73597267Y45329287D01*
X73394992Y45464443D01*
X73170236Y45557540D01*
X72931637Y45605000D01*
X72688363Y45605000D01*
X72449764Y45557540D01*
X72225008Y45464443D01*
X72022733Y45329287D01*
X71850713Y45157267D01*
X71715557Y44954992D01*
X71622460Y44730236D01*
X71575000Y44491637D01*
X71545000Y44491637D01*
X71497540Y44730236D01*
X71404443Y44954992D01*
X71269287Y45157267D01*
X71097267Y45329287D01*
X70894992Y45464443D01*
X70670236Y45557540D01*
X70431637Y45605000D01*
X70188363Y45605000D01*
X69949764Y45557540D01*
X69725008Y45464443D01*
X69522733Y45329287D01*
X69350713Y45157267D01*
X69215557Y44954992D01*
X69122460Y44730236D01*
X69075000Y44491637D01*
X67190447Y44491637D01*
X67172790Y44670913D01*
X67085017Y44960261D01*
X66942481Y45226927D01*
X66750661Y45460661D01*
X66516927Y45652481D01*
X66250261Y45795017D01*
X65960913Y45882790D01*
X65735408Y45905000D01*
X64884592Y45905000D01*
X64659087Y45882790D01*
X64369739Y45795017D01*
X64103073Y45652481D01*
X63869339Y45460661D01*
X63677519Y45226927D01*
X63534983Y44960261D01*
X63447210Y44670913D01*
X63417573Y44370000D01*
X63447210Y44069087D01*
X63534983Y43779739D01*
X63677519Y43513073D01*
X63869339Y43279339D01*
X64063495Y43120000D01*
X63869339Y42960661D01*
X63741592Y42805000D01*
X63505932Y42805000D01*
X63460000Y42809524D01*
X63414068Y42805000D01*
X63276708Y42791471D01*
X63100460Y42738007D01*
X62938028Y42651186D01*
X62795656Y42534344D01*
X62766370Y42498659D01*
X60572711Y40305000D01*
X60149396Y40305000D01*
X59969759Y40484637D01*
X59734727Y40641680D01*
X59473574Y40749853D01*
X59196335Y40805000D01*
X58913665Y40805000D01*
X58636426Y40749853D01*
X58375273Y40641680D01*
X58140241Y40484637D01*
X57940363Y40284759D01*
X57783320Y40049727D01*
X57675147Y39788574D01*
X57620000Y39511335D01*
X50330000Y39511335D01*
X50274853Y39788574D01*
X50166680Y40049727D01*
X50009637Y40284759D01*
X49809759Y40484637D01*
X49574727Y40641680D01*
X49313574Y40749853D01*
X49036335Y40805000D01*
X48753665Y40805000D01*
X48476426Y40749853D01*
X48215273Y40641680D01*
X47980241Y40484637D01*
X47780363Y40284759D01*
X47623320Y40049727D01*
X47515147Y39788574D01*
X47460000Y39511335D01*
X47460000Y39228665D01*
X47515147Y38951426D01*
X47623320Y38690273D01*
X47780363Y38455241D01*
X47960001Y38275603D01*
X47960001Y37852290D01*
X47872711Y37765000D01*
X46814396Y37765000D01*
X46634759Y37944637D01*
X46399727Y38101680D01*
X46138574Y38209853D01*
X45861335Y38265000D01*
X45578665Y38265000D01*
X45301426Y38209853D01*
X45040273Y38101680D01*
X44805241Y37944637D01*
X44605363Y37744759D01*
X44448320Y37509727D01*
X44340147Y37248574D01*
X44285000Y36971335D01*
X43103023Y36971335D01*
X43089236Y37111309D01*
X43007182Y37381808D01*
X42873932Y37631101D01*
X42694608Y37849608D01*
X42476101Y38028932D01*
X42348259Y38097265D01*
X42577839Y38247399D01*
X42779500Y38445105D01*
X42938715Y38678354D01*
X43049367Y38938182D01*
X43066904Y39020961D01*
X42944915Y39243000D01*
X41402000Y39243000D01*
X41402000Y39223000D01*
X41148000Y39223000D01*
X41148000Y39243000D01*
X39605085Y39243000D01*
X39483096Y39020961D01*
X39500633Y38938182D01*
X39611285Y38678354D01*
X39770500Y38445105D01*
X39972161Y38247399D01*
X40201741Y38097265D01*
X40073899Y38028932D01*
X39855392Y37849608D01*
X39676068Y37631101D01*
X39542818Y37381808D01*
X39460764Y37111309D01*
X39433057Y36830000D01*
X39460764Y36548691D01*
X39542818Y36278192D01*
X39676068Y36028899D01*
X39855392Y35810392D01*
X40073899Y35631068D01*
X40206858Y35560000D01*
X40073899Y35488932D01*
X39855392Y35309608D01*
X39676068Y35091101D01*
X39542818Y34841808D01*
X39460764Y34571309D01*
X39433057Y34290000D01*
X39460764Y34008691D01*
X39542818Y33738192D01*
X39676068Y33488899D01*
X39855392Y33270392D01*
X40073899Y33091068D01*
X40206858Y33020000D01*
X40073899Y32948932D01*
X39855392Y32769608D01*
X39676068Y32551101D01*
X39542818Y32301808D01*
X39460764Y32031309D01*
X39433057Y31750000D01*
X39460764Y31468691D01*
X39542818Y31198192D01*
X39676068Y30948899D01*
X39855392Y30730392D01*
X40073899Y30551068D01*
X40206858Y30480000D01*
X40073899Y30408932D01*
X39855392Y30229608D01*
X39676068Y30011101D01*
X39542818Y29761808D01*
X39460764Y29491309D01*
X39433057Y29210000D01*
X39460764Y28928691D01*
X39542818Y28658192D01*
X39676068Y28408899D01*
X39855392Y28190392D01*
X40073899Y28011068D01*
X40201741Y27942735D01*
X39972161Y27792601D01*
X39770500Y27594895D01*
X39611285Y27361646D01*
X39500633Y27101818D01*
X39483096Y27019039D01*
X39605085Y26797000D01*
X41148000Y26797000D01*
X41148000Y26817000D01*
X41402000Y26817000D01*
X41402000Y26797000D01*
X41422000Y26797000D01*
X41422000Y26543000D01*
X41402000Y26543000D01*
X41402000Y26523000D01*
X41148000Y26523000D01*
X41148000Y26543000D01*
X39605085Y26543000D01*
X39483096Y26320961D01*
X39500633Y26238182D01*
X39611285Y25978354D01*
X39770500Y25745105D01*
X39972161Y25547399D01*
X40201741Y25397265D01*
X40073899Y25328932D01*
X39855392Y25149608D01*
X39676068Y24931101D01*
X39542818Y24681808D01*
X39460764Y24411309D01*
X39433057Y24130000D01*
X39460764Y23848691D01*
X39542818Y23578192D01*
X39676068Y23328899D01*
X39855392Y23110392D01*
X40073899Y22931068D01*
X40206858Y22860000D01*
X40073899Y22788932D01*
X39855392Y22609608D01*
X39676068Y22391101D01*
X39542818Y22141808D01*
X39460764Y21871309D01*
X39433057Y21590000D01*
X39460764Y21308691D01*
X39542818Y21038192D01*
X39676068Y20788899D01*
X39855392Y20570392D01*
X40073899Y20391068D01*
X40201741Y20322735D01*
X39972161Y20172601D01*
X39770500Y19974895D01*
X39611285Y19741646D01*
X39500633Y19481818D01*
X39483096Y19399039D01*
X39605085Y19177000D01*
X41148000Y19177000D01*
X41148000Y19197000D01*
X41402000Y19197000D01*
X41402000Y19177000D01*
X42944915Y19177000D01*
X43066904Y19399039D01*
X43049367Y19481818D01*
X42938715Y19741646D01*
X42779500Y19974895D01*
X42577839Y20172601D01*
X42348259Y20322735D01*
X42476101Y20391068D01*
X42694608Y20570392D01*
X42764044Y20655000D01*
X43427711Y20655000D01*
X43515001Y20567710D01*
X43515000Y19095933D01*
X43510476Y19050000D01*
X43515001Y19004058D01*
X43515000Y15064396D01*
X43335363Y14884759D01*
X43178320Y14649727D01*
X43070147Y14388574D01*
X43061217Y14343678D01*
X43007182Y14521808D01*
X42873932Y14771101D01*
X42694608Y14989608D01*
X42476101Y15168932D01*
X42343142Y15240000D01*
X42476101Y15311068D01*
X42694608Y15490392D01*
X42873932Y15708899D01*
X43007182Y15958192D01*
X43089236Y16228691D01*
X43116943Y16510000D01*
X43089236Y16791309D01*
X43007182Y17061808D01*
X42873932Y17311101D01*
X42694608Y17529608D01*
X42476101Y17708932D01*
X42348259Y17777265D01*
X42577839Y17927399D01*
X42779500Y18125105D01*
X42938715Y18358354D01*
X43049367Y18618182D01*
X43066904Y18700961D01*
X42944915Y18923000D01*
X41402000Y18923000D01*
X41402000Y18903000D01*
X41148000Y18903000D01*
X41148000Y18923000D01*
X39605085Y18923000D01*
X39483096Y18700961D01*
X39500633Y18618182D01*
X39611285Y18358354D01*
X39770500Y18125105D01*
X39972161Y17927399D01*
X40201741Y17777265D01*
X40073899Y17708932D01*
X39855392Y17529608D01*
X39676068Y17311101D01*
X39542818Y17061808D01*
X39460764Y16791309D01*
X39433057Y16510000D01*
X39460764Y16228691D01*
X39542818Y15958192D01*
X39676068Y15708899D01*
X39855392Y15490392D01*
X40073899Y15311068D01*
X40206858Y15240000D01*
X40073899Y15168932D01*
X39855392Y14989608D01*
X39676068Y14771101D01*
X39542818Y14521808D01*
X39460764Y14251309D01*
X39433057Y13970000D01*
X39460764Y13688691D01*
X39542818Y13418192D01*
X39676068Y13168899D01*
X39855392Y12950392D01*
X40073899Y12771068D01*
X40236558Y12684125D01*
X40254977Y12497105D01*
X40314160Y12302007D01*
X40314504Y12301364D01*
X38300000Y14315867D01*
X38300000Y22818985D01*
X38304040Y22860001D01*
X38298266Y22918623D01*
X38287918Y23023689D01*
X38240172Y23181087D01*
X38162636Y23326146D01*
X38058291Y23453291D01*
X38026428Y23479440D01*
X36814446Y24691421D01*
X36788291Y24723291D01*
X36661146Y24827636D01*
X36516087Y24905172D01*
X36358689Y24952918D01*
X36236019Y24965000D01*
X36236018Y24965000D01*
X36195000Y24969040D01*
X36153982Y24965000D01*
X35907265Y24965000D01*
X35744140Y25128125D01*
X35533676Y25268753D01*
X35299821Y25365619D01*
X35051561Y25415000D01*
X34798439Y25415000D01*
X34550179Y25365619D01*
X34490000Y25340692D01*
X34490000Y30438982D01*
X34494040Y30480000D01*
X34477918Y30643688D01*
X34474736Y30654180D01*
X34430172Y30801087D01*
X34352636Y30946146D01*
X34317411Y30989068D01*
X34274439Y31041430D01*
X34274437Y31041432D01*
X34248291Y31073291D01*
X34216433Y31099436D01*
X30464446Y34851421D01*
X30438291Y34883291D01*
X30311146Y34987636D01*
X30166087Y35065172D01*
X30008689Y35112918D01*
X29886019Y35125000D01*
X29886018Y35125000D01*
X29845000Y35129040D01*
X29803982Y35125000D01*
X27606112Y35125000D01*
X27454608Y35309608D01*
X27236101Y35488932D01*
X27103142Y35560000D01*
X27236101Y35631068D01*
X27454608Y35810392D01*
X27633932Y36028899D01*
X27767182Y36278192D01*
X27849236Y36548691D01*
X27876943Y36830000D01*
X27849236Y37111309D01*
X27767182Y37381808D01*
X27633932Y37631101D01*
X27454608Y37849608D01*
X27236101Y38028932D01*
X27103142Y38100000D01*
X27236101Y38171068D01*
X27454608Y38350392D01*
X27633932Y38568899D01*
X27767182Y38818192D01*
X27849236Y39088691D01*
X27876943Y39370000D01*
X27849236Y39651309D01*
X27767182Y39921808D01*
X27633932Y40171101D01*
X27454608Y40389608D01*
X27341518Y40482419D01*
X27359482Y40484188D01*
X27479180Y40520498D01*
X27589494Y40579463D01*
X27686185Y40658815D01*
X27765537Y40755506D01*
X27824502Y40865820D01*
X27860812Y40985518D01*
X27873072Y41110000D01*
X27870379Y41560961D01*
X39483096Y41560961D01*
X39500633Y41478182D01*
X39611285Y41218354D01*
X39770500Y40985105D01*
X39972161Y40787399D01*
X40197559Y40640000D01*
X39972161Y40492601D01*
X39770500Y40294895D01*
X39611285Y40061646D01*
X39500633Y39801818D01*
X39483096Y39719039D01*
X39605085Y39497000D01*
X41148000Y39497000D01*
X41148000Y41783000D01*
X41402000Y41783000D01*
X41402000Y39497000D01*
X42944915Y39497000D01*
X43066904Y39719039D01*
X43049367Y39801818D01*
X42938715Y40061646D01*
X42779500Y40294895D01*
X42577839Y40492601D01*
X42352441Y40640000D01*
X42577839Y40787399D01*
X42628736Y40837298D01*
X44906903Y40837298D01*
X44978486Y40593329D01*
X45233996Y40472429D01*
X45508184Y40403700D01*
X45790512Y40389783D01*
X46070130Y40431213D01*
X46336292Y40526397D01*
X46461514Y40593329D01*
X46533097Y40837298D01*
X45720000Y41650395D01*
X44906903Y40837298D01*
X42628736Y40837298D01*
X42779500Y40985105D01*
X42938715Y41218354D01*
X43049367Y41478182D01*
X43066904Y41560961D01*
X42957833Y41759488D01*
X44279783Y41759488D01*
X44321213Y41479870D01*
X44416397Y41213708D01*
X44483329Y41088486D01*
X44727298Y41016903D01*
X45540395Y41830000D01*
X45899605Y41830000D01*
X46712702Y41016903D01*
X46956671Y41088486D01*
X47077571Y41343996D01*
X47146300Y41618184D01*
X47160217Y41900512D01*
X47118787Y42180130D01*
X47023603Y42446292D01*
X46956671Y42571514D01*
X46712702Y42643097D01*
X45899605Y41830000D01*
X45540395Y41830000D01*
X44727298Y42643097D01*
X44483329Y42571514D01*
X44362429Y42316004D01*
X44293700Y42041816D01*
X44279783Y41759488D01*
X42957833Y41759488D01*
X42944915Y41783000D01*
X41402000Y41783000D01*
X41148000Y41783000D01*
X39605085Y41783000D01*
X39483096Y41560961D01*
X27870379Y41560961D01*
X27870000Y41624250D01*
X27711250Y41783000D01*
X26162000Y41783000D01*
X26162000Y41763000D01*
X25908000Y41763000D01*
X25908000Y41783000D01*
X24358750Y41783000D01*
X24200000Y41624250D01*
X24196928Y41110000D01*
X24209188Y40985518D01*
X24245498Y40865820D01*
X24304463Y40755506D01*
X24383815Y40658815D01*
X24480506Y40579463D01*
X24590820Y40520498D01*
X24710518Y40484188D01*
X24728482Y40482419D01*
X24615392Y40389608D01*
X24436068Y40171101D01*
X24302818Y39921808D01*
X24220764Y39651309D01*
X24193057Y39370000D01*
X24220764Y39088691D01*
X24302818Y38818192D01*
X24436068Y38568899D01*
X24615392Y38350392D01*
X24833899Y38171068D01*
X24966858Y38100000D01*
X24833899Y38028932D01*
X24615392Y37849608D01*
X24436068Y37631101D01*
X24302818Y37381808D01*
X24220764Y37111309D01*
X24193057Y36830000D01*
X24220764Y36548691D01*
X24302818Y36278192D01*
X24436068Y36028899D01*
X24615392Y35810392D01*
X24833899Y35631068D01*
X24966858Y35560000D01*
X24833899Y35488932D01*
X24615392Y35309608D01*
X24436068Y35091101D01*
X24302818Y34841808D01*
X24220764Y34571309D01*
X24193057Y34290000D01*
X24220764Y34008691D01*
X24302818Y33738192D01*
X24436068Y33488899D01*
X24615392Y33270392D01*
X24833899Y33091068D01*
X24966858Y33020000D01*
X24833899Y32948932D01*
X24615392Y32769608D01*
X24436068Y32551101D01*
X24302818Y32301808D01*
X24220764Y32031309D01*
X24193057Y31750000D01*
X24220764Y31468691D01*
X24302818Y31198192D01*
X24436068Y30948899D01*
X24615392Y30730392D01*
X24833899Y30551068D01*
X24966858Y30480000D01*
X24833899Y30408932D01*
X24615392Y30229608D01*
X24436068Y30011101D01*
X24302818Y29761808D01*
X24220764Y29491309D01*
X24193057Y29210000D01*
X24220764Y28928691D01*
X24302818Y28658192D01*
X24436068Y28408899D01*
X24615392Y28190392D01*
X24833899Y28011068D01*
X24966858Y27940000D01*
X24833899Y27868932D01*
X24615392Y27689608D01*
X24436068Y27471101D01*
X24302818Y27221808D01*
X24220764Y26951309D01*
X24193057Y26670000D01*
X24220764Y26388691D01*
X24302818Y26118192D01*
X24436068Y25868899D01*
X24615392Y25650392D01*
X24833899Y25471068D01*
X24966858Y25400000D01*
X24833899Y25328932D01*
X24615392Y25149608D01*
X24436068Y24931101D01*
X24302818Y24681808D01*
X24220764Y24411309D01*
X24193057Y24130000D01*
X24220764Y23848691D01*
X24302818Y23578192D01*
X24436068Y23328899D01*
X24615392Y23110392D01*
X24833899Y22931068D01*
X24966858Y22860000D01*
X24833899Y22788932D01*
X24615392Y22609608D01*
X24436068Y22391101D01*
X24331048Y22194623D01*
X24334040Y22225000D01*
X24317918Y22388689D01*
X24270172Y22546087D01*
X24192636Y22691146D01*
X24114439Y22786430D01*
X24114437Y22786432D01*
X24088291Y22818291D01*
X24056433Y22844436D01*
X23025000Y23875868D01*
X23025000Y24600492D01*
X23004236Y24811309D01*
X22922182Y25081808D01*
X22788932Y25331101D01*
X22609607Y25549608D01*
X22391100Y25728932D01*
X22141807Y25862182D01*
X21871308Y25944236D01*
X21590000Y25971943D01*
X21308691Y25944236D01*
X21038192Y25862182D01*
X20788899Y25728932D01*
X20570392Y25549607D01*
X20391068Y25331100D01*
X20320000Y25198142D01*
X20248932Y25331101D01*
X20069607Y25549608D01*
X19851100Y25728932D01*
X19601807Y25862182D01*
X19331308Y25944236D01*
X19050000Y25971943D01*
X18768691Y25944236D01*
X18498192Y25862182D01*
X18248899Y25728932D01*
X18030392Y25549607D01*
X17851068Y25331100D01*
X17780000Y25198142D01*
X17708932Y25331101D01*
X17529607Y25549608D01*
X17311100Y25728932D01*
X17061807Y25862182D01*
X16791308Y25944236D01*
X16510000Y25971943D01*
X16228691Y25944236D01*
X15958192Y25862182D01*
X15708899Y25728932D01*
X15490392Y25549607D01*
X15311068Y25331100D01*
X15240000Y25198142D01*
X15168932Y25331101D01*
X14989607Y25549608D01*
X14771100Y25728932D01*
X14521807Y25862182D01*
X14251308Y25944236D01*
X13970000Y25971943D01*
X13688691Y25944236D01*
X13418192Y25862182D01*
X13168899Y25728932D01*
X12950392Y25549607D01*
X12771068Y25331100D01*
X12700000Y25198142D01*
X12628932Y25331101D01*
X12449607Y25549608D01*
X12265000Y25701111D01*
X12265000Y25993982D01*
X12269040Y26035000D01*
X12252918Y26198688D01*
X12246972Y26218292D01*
X12205172Y26356087D01*
X12127636Y26501146D01*
X12096773Y26538753D01*
X12049439Y26596430D01*
X12049437Y26596432D01*
X12023291Y26628291D01*
X11991431Y26654438D01*
X11414445Y27231422D01*
X11388291Y27263291D01*
X11261146Y27367636D01*
X11222038Y27388540D01*
X11430000Y27368057D01*
X11711309Y27395764D01*
X11981808Y27477818D01*
X12231101Y27611068D01*
X12449608Y27790392D01*
X12628932Y28008899D01*
X12700000Y28141858D01*
X12771068Y28008899D01*
X12950393Y27790392D01*
X13168900Y27611068D01*
X13418193Y27477818D01*
X13688692Y27395764D01*
X13970000Y27368057D01*
X14251309Y27395764D01*
X14521808Y27477818D01*
X14771101Y27611068D01*
X14989608Y27790392D01*
X15168932Y28008899D01*
X15240000Y28141858D01*
X15311068Y28008899D01*
X15490393Y27790392D01*
X15708900Y27611068D01*
X15958193Y27477818D01*
X16228692Y27395764D01*
X16510000Y27368057D01*
X16791309Y27395764D01*
X17061808Y27477818D01*
X17311101Y27611068D01*
X17529608Y27790392D01*
X17708932Y28008899D01*
X17780000Y28141858D01*
X17851068Y28008899D01*
X18030393Y27790392D01*
X18248900Y27611068D01*
X18498193Y27477818D01*
X18768692Y27395764D01*
X19050000Y27368057D01*
X19331309Y27395764D01*
X19601808Y27477818D01*
X19851101Y27611068D01*
X20069608Y27790392D01*
X20248932Y28008899D01*
X20317265Y28136741D01*
X20467399Y27907161D01*
X20665105Y27705500D01*
X20898354Y27546285D01*
X21158182Y27435633D01*
X21240961Y27418096D01*
X21463000Y27540085D01*
X21463000Y29083000D01*
X21717000Y29083000D01*
X21717000Y27540085D01*
X21939039Y27418096D01*
X22021818Y27435633D01*
X22281646Y27546285D01*
X22514895Y27705500D01*
X22712601Y27907161D01*
X22867166Y28143517D01*
X22972650Y28405486D01*
X23025000Y28683000D01*
X23025000Y29083000D01*
X21717000Y29083000D01*
X21463000Y29083000D01*
X21443000Y29083000D01*
X21443000Y29337000D01*
X21463000Y29337000D01*
X21463000Y30879915D01*
X21717000Y30879915D01*
X21717000Y29337000D01*
X23025000Y29337000D01*
X23025000Y29737000D01*
X22972650Y30014514D01*
X22867166Y30276483D01*
X22712601Y30512839D01*
X22514895Y30714500D01*
X22281646Y30873715D01*
X22021818Y30984367D01*
X21939039Y31001904D01*
X21717000Y30879915D01*
X21463000Y30879915D01*
X21240961Y31001904D01*
X21158182Y30984367D01*
X20898354Y30873715D01*
X20665105Y30714500D01*
X20467399Y30512839D01*
X20317265Y30283259D01*
X20248932Y30411101D01*
X20069607Y30629608D01*
X19851100Y30808932D01*
X19601807Y30942182D01*
X19331308Y31024236D01*
X19050000Y31051943D01*
X18768691Y31024236D01*
X18498192Y30942182D01*
X18248899Y30808932D01*
X18030392Y30629607D01*
X17851068Y30411100D01*
X17780000Y30278142D01*
X17708932Y30411101D01*
X17529607Y30629608D01*
X17311100Y30808932D01*
X17061807Y30942182D01*
X16791308Y31024236D01*
X16510000Y31051943D01*
X16228691Y31024236D01*
X15958192Y30942182D01*
X15708899Y30808932D01*
X15490392Y30629607D01*
X15311068Y30411100D01*
X15240000Y30278142D01*
X15168932Y30411101D01*
X14989607Y30629608D01*
X14805000Y30781111D01*
X14805000Y31404133D01*
X15585868Y32185000D01*
X17432735Y32185000D01*
X17595860Y32021875D01*
X17806324Y31881247D01*
X18040179Y31784381D01*
X18288439Y31735000D01*
X18541561Y31735000D01*
X18789821Y31784381D01*
X19023676Y31881247D01*
X19234140Y32021875D01*
X19413125Y32200860D01*
X19553753Y32411324D01*
X19650619Y32645179D01*
X19700000Y32893439D01*
X19700000Y33146561D01*
X19650619Y33394821D01*
X19553753Y33628676D01*
X19413125Y33839140D01*
X19234140Y34018125D01*
X19023676Y34158753D01*
X18789821Y34255619D01*
X18541561Y34305000D01*
X18288439Y34305000D01*
X18040179Y34255619D01*
X17806324Y34158753D01*
X17595860Y34018125D01*
X17432735Y33855000D01*
X15281015Y33855000D01*
X15239999Y33859040D01*
X15198983Y33855000D01*
X15198981Y33855000D01*
X15076311Y33842918D01*
X14918913Y33795172D01*
X14773854Y33717636D01*
X14646709Y33613291D01*
X14620558Y33581426D01*
X13408574Y32369441D01*
X13376710Y32343291D01*
X13350562Y32311429D01*
X13272364Y32216145D01*
X13194828Y32071086D01*
X13147082Y31913688D01*
X13130960Y31750000D01*
X13135001Y31708972D01*
X13135001Y30781112D01*
X12950392Y30629607D01*
X12771068Y30411100D01*
X12700000Y30278142D01*
X12628932Y30411101D01*
X12449607Y30629608D01*
X12231100Y30808932D01*
X11981807Y30942182D01*
X11711308Y31024236D01*
X11430000Y31051943D01*
X11148691Y31024236D01*
X10878192Y30942182D01*
X10628899Y30808932D01*
X10410392Y30629607D01*
X10231068Y30411100D01*
X10160000Y30278142D01*
X10088932Y30411101D01*
X9909607Y30629608D01*
X9691100Y30808932D01*
X9441807Y30942182D01*
X9171308Y31024236D01*
X8890000Y31051943D01*
X8608691Y31024236D01*
X8338192Y30942182D01*
X8088899Y30808932D01*
X7870392Y30629607D01*
X7777581Y30516517D01*
X7775812Y30534482D01*
X7739502Y30654180D01*
X7680537Y30764494D01*
X7601185Y30861185D01*
X7504494Y30940537D01*
X7394180Y30999502D01*
X7274482Y31035812D01*
X7150000Y31048072D01*
X5550000Y31048072D01*
X5425518Y31035812D01*
X5305820Y30999502D01*
X5195506Y30940537D01*
X5098815Y30861185D01*
X5019463Y30764494D01*
X4960498Y30654180D01*
X4924188Y30534482D01*
X4911928Y30410000D01*
X4604347Y30410000D01*
X4615217Y30630512D01*
X4573787Y30910130D01*
X4478603Y31176292D01*
X4411671Y31301514D01*
X4167702Y31373097D01*
X3354605Y30560000D01*
X2995395Y30560000D01*
X2182298Y31373097D01*
X1938329Y31301514D01*
X1817429Y31046004D01*
X1748700Y30771816D01*
X1734783Y30489488D01*
X660000Y30489488D01*
X660000Y31552702D01*
X2361903Y31552702D01*
X3175000Y30739605D01*
X3988097Y31552702D01*
X3916514Y31796671D01*
X3661004Y31917571D01*
X3386816Y31986300D01*
X3104488Y32000217D01*
X2824870Y31958787D01*
X2558708Y31863603D01*
X2433486Y31796671D01*
X2361903Y31552702D01*
X660000Y31552702D01*
X660000Y35701335D01*
X1740000Y35701335D01*
X1740000Y35418665D01*
X1795147Y35141426D01*
X1903320Y34880273D01*
X2060363Y34645241D01*
X2260241Y34445363D01*
X2495273Y34288320D01*
X2756426Y34180147D01*
X3033665Y34125000D01*
X3316335Y34125000D01*
X3593574Y34180147D01*
X3854727Y34288320D01*
X4089759Y34445363D01*
X4289637Y34645241D01*
X4446680Y34880273D01*
X4554853Y35141426D01*
X4610000Y35418665D01*
X4610000Y35701335D01*
X4554853Y35978574D01*
X4446680Y36239727D01*
X4289637Y36474759D01*
X4089759Y36674637D01*
X3854727Y36831680D01*
X3593574Y36939853D01*
X3316335Y36995000D01*
X3033665Y36995000D01*
X2756426Y36939853D01*
X2495273Y36831680D01*
X2260241Y36674637D01*
X2060363Y36474759D01*
X1903320Y36239727D01*
X1795147Y35978574D01*
X1740000Y35701335D01*
X660000Y35701335D01*
X660000Y37300491D01*
X4915000Y37300491D01*
X4915000Y36359508D01*
X4935764Y36148691D01*
X5017818Y35878192D01*
X5151068Y35628899D01*
X5330393Y35410392D01*
X5548900Y35231068D01*
X5798193Y35097818D01*
X6068692Y35015764D01*
X6350000Y34988057D01*
X6631309Y35015764D01*
X6901808Y35097818D01*
X7151101Y35231068D01*
X7369608Y35410392D01*
X7548932Y35628899D01*
X7620000Y35761858D01*
X7691068Y35628899D01*
X7870393Y35410392D01*
X8088900Y35231068D01*
X8338193Y35097818D01*
X8608692Y35015764D01*
X8890000Y34988057D01*
X9171309Y35015764D01*
X9441808Y35097818D01*
X9691101Y35231068D01*
X9909608Y35410392D01*
X10088932Y35628899D01*
X10160000Y35761858D01*
X10231068Y35628899D01*
X10410393Y35410392D01*
X10628900Y35231068D01*
X10878193Y35097818D01*
X11148692Y35015764D01*
X11430000Y34988057D01*
X11711309Y35015764D01*
X11981808Y35097818D01*
X12231101Y35231068D01*
X12449608Y35410392D01*
X12628932Y35628899D01*
X12700000Y35761858D01*
X12771068Y35628899D01*
X12950393Y35410392D01*
X13168900Y35231068D01*
X13418193Y35097818D01*
X13688692Y35015764D01*
X13970000Y34988057D01*
X14251309Y35015764D01*
X14521808Y35097818D01*
X14771101Y35231068D01*
X14989608Y35410392D01*
X15168932Y35628899D01*
X15240000Y35761858D01*
X15311068Y35628899D01*
X15490393Y35410392D01*
X15708900Y35231068D01*
X15958193Y35097818D01*
X16228692Y35015764D01*
X16510000Y34988057D01*
X16791309Y35015764D01*
X17061808Y35097818D01*
X17311101Y35231068D01*
X17529608Y35410392D01*
X17708932Y35628899D01*
X17780000Y35761858D01*
X17851068Y35628899D01*
X18030393Y35410392D01*
X18248900Y35231068D01*
X18498193Y35097818D01*
X18768692Y35015764D01*
X19050000Y34988057D01*
X19331309Y35015764D01*
X19601808Y35097818D01*
X19851101Y35231068D01*
X20069608Y35410392D01*
X20248932Y35628899D01*
X20320000Y35761858D01*
X20391068Y35628899D01*
X20570393Y35410392D01*
X20788900Y35231068D01*
X21038193Y35097818D01*
X21308692Y35015764D01*
X21590000Y34988057D01*
X21871309Y35015764D01*
X22141808Y35097818D01*
X22391101Y35231068D01*
X22609608Y35410392D01*
X22788932Y35628899D01*
X22922182Y35878192D01*
X23004236Y36148691D01*
X23025000Y36359509D01*
X23025000Y37300492D01*
X23004236Y37511309D01*
X22922182Y37781808D01*
X22788932Y38031101D01*
X22609607Y38249608D01*
X22391100Y38428932D01*
X22141807Y38562182D01*
X21871308Y38644236D01*
X21590000Y38671943D01*
X21308691Y38644236D01*
X21038192Y38562182D01*
X20788899Y38428932D01*
X20570392Y38249607D01*
X20391068Y38031100D01*
X20320000Y37898142D01*
X20248932Y38031101D01*
X20069607Y38249608D01*
X19851100Y38428932D01*
X19601807Y38562182D01*
X19331308Y38644236D01*
X19050000Y38671943D01*
X18768691Y38644236D01*
X18498192Y38562182D01*
X18248899Y38428932D01*
X18030392Y38249607D01*
X17851068Y38031100D01*
X17780000Y37898142D01*
X17708932Y38031101D01*
X17529607Y38249608D01*
X17311100Y38428932D01*
X17061807Y38562182D01*
X16791308Y38644236D01*
X16510000Y38671943D01*
X16228691Y38644236D01*
X15958192Y38562182D01*
X15708899Y38428932D01*
X15490392Y38249607D01*
X15311068Y38031100D01*
X15240000Y37898142D01*
X15168932Y38031101D01*
X14989607Y38249608D01*
X14771100Y38428932D01*
X14521807Y38562182D01*
X14251308Y38644236D01*
X13970000Y38671943D01*
X13688691Y38644236D01*
X13418192Y38562182D01*
X13168899Y38428932D01*
X12950392Y38249607D01*
X12771068Y38031100D01*
X12700000Y37898142D01*
X12628932Y38031101D01*
X12449607Y38249608D01*
X12231100Y38428932D01*
X11981807Y38562182D01*
X11711308Y38644236D01*
X11430000Y38671943D01*
X11148691Y38644236D01*
X10878192Y38562182D01*
X10628899Y38428932D01*
X10410392Y38249607D01*
X10231068Y38031100D01*
X10160000Y37898142D01*
X10088932Y38031101D01*
X9909607Y38249608D01*
X9691100Y38428932D01*
X9441807Y38562182D01*
X9171308Y38644236D01*
X8890000Y38671943D01*
X8608691Y38644236D01*
X8338192Y38562182D01*
X8088899Y38428932D01*
X7870392Y38249607D01*
X7691068Y38031100D01*
X7620000Y37898142D01*
X7548932Y38031101D01*
X7385000Y38230852D01*
X7385000Y38306290D01*
X8683711Y39605000D01*
X15189172Y39605000D01*
X15240000Y39599994D01*
X15290828Y39605000D01*
X15290838Y39605000D01*
X15442895Y39619976D01*
X15637993Y39679159D01*
X15817797Y39775266D01*
X15975396Y39904604D01*
X16007807Y39944097D01*
X16570903Y40507193D01*
X16610396Y40539604D01*
X16724300Y40678396D01*
X16739734Y40697202D01*
X16835841Y40877006D01*
X16857537Y40948529D01*
X16895024Y41072105D01*
X16910000Y41224162D01*
X16910000Y41224165D01*
X16915007Y41275000D01*
X16910000Y41325835D01*
X16910000Y41787713D01*
X16919180Y41790498D01*
X17029494Y41849463D01*
X17126185Y41928815D01*
X17205537Y42025506D01*
X17264502Y42135820D01*
X17300812Y42255518D01*
X17313072Y42380000D01*
X17313072Y42710000D01*
X24196928Y42710000D01*
X24200000Y42195750D01*
X24358750Y42037000D01*
X25908000Y42037000D01*
X25908000Y43186250D01*
X26162000Y43186250D01*
X26162000Y42037000D01*
X27711250Y42037000D01*
X27870000Y42195750D01*
X27870378Y42259039D01*
X39483096Y42259039D01*
X39605085Y42037000D01*
X41148000Y42037000D01*
X41148000Y43345000D01*
X41402000Y43345000D01*
X41402000Y42037000D01*
X42944915Y42037000D01*
X43066904Y42259039D01*
X43049367Y42341818D01*
X42938715Y42601646D01*
X42787823Y42822702D01*
X44906903Y42822702D01*
X45720000Y42009605D01*
X46533097Y42822702D01*
X46461514Y43066671D01*
X46206004Y43187571D01*
X45931816Y43256300D01*
X45649488Y43270217D01*
X45369870Y43228787D01*
X45103708Y43133603D01*
X44978486Y43066671D01*
X44906903Y42822702D01*
X42787823Y42822702D01*
X42779500Y42834895D01*
X42577839Y43032601D01*
X42341483Y43187166D01*
X42079514Y43292650D01*
X41802000Y43345000D01*
X41402000Y43345000D01*
X41148000Y43345000D01*
X40748000Y43345000D01*
X40470486Y43292650D01*
X40208517Y43187166D01*
X39972161Y43032601D01*
X39770500Y42834895D01*
X39611285Y42601646D01*
X39500633Y42341818D01*
X39483096Y42259039D01*
X27870378Y42259039D01*
X27873072Y42710000D01*
X27860812Y42834482D01*
X27824502Y42954180D01*
X27765537Y43064494D01*
X27686185Y43161185D01*
X27589494Y43240537D01*
X27479180Y43299502D01*
X27359482Y43335812D01*
X27235000Y43348072D01*
X26320750Y43345000D01*
X26162000Y43186250D01*
X25908000Y43186250D01*
X25749250Y43345000D01*
X24835000Y43348072D01*
X24710518Y43335812D01*
X24590820Y43299502D01*
X24480506Y43240537D01*
X24383815Y43161185D01*
X24304463Y43064494D01*
X24245498Y42954180D01*
X24209188Y42834482D01*
X24196928Y42710000D01*
X17313072Y42710000D01*
X17313072Y43980000D01*
X17300812Y44104482D01*
X17264502Y44224180D01*
X17205537Y44334494D01*
X17126185Y44431185D01*
X17029494Y44510537D01*
X16919180Y44569502D01*
X16799482Y44605812D01*
X16675000Y44618072D01*
X15075000Y44618072D01*
X14950518Y44605812D01*
X14830820Y44569502D01*
X14720506Y44510537D01*
X14623815Y44431185D01*
X14613193Y44418242D01*
X14361004Y44537571D01*
X14086816Y44606300D01*
X13804488Y44620217D01*
X13524870Y44578787D01*
X13258708Y44483603D01*
X13133486Y44416671D01*
X13061903Y44172702D01*
X13875000Y43359605D01*
X13889143Y43373747D01*
X14068748Y43194142D01*
X14054605Y43180000D01*
X14068748Y43165857D01*
X13889143Y42986252D01*
X13875000Y43000395D01*
X13061903Y42187298D01*
X13133486Y41943329D01*
X13388996Y41822429D01*
X13663184Y41753700D01*
X13945512Y41739783D01*
X14225130Y41781213D01*
X14491292Y41876397D01*
X14613309Y41941616D01*
X14623815Y41928815D01*
X14720506Y41849463D01*
X14830820Y41790498D01*
X14840001Y41787713D01*
X14840001Y41703711D01*
X14811290Y41675000D01*
X8305835Y41675000D01*
X8255000Y41680007D01*
X8204165Y41675000D01*
X8204162Y41675000D01*
X8052105Y41660024D01*
X7857007Y41600841D01*
X7782397Y41560961D01*
X7677202Y41504734D01*
X7559092Y41407803D01*
X7519604Y41375396D01*
X7487197Y41335908D01*
X5654097Y39502807D01*
X5614604Y39470396D01*
X5485266Y39312797D01*
X5389159Y39132992D01*
X5329976Y38937894D01*
X5315000Y38785837D01*
X5315000Y38785828D01*
X5309994Y38735000D01*
X5315000Y38684172D01*
X5315000Y38230852D01*
X5151068Y38031100D01*
X5017818Y37781807D01*
X4935764Y37511308D01*
X4915000Y37300491D01*
X660000Y37300491D01*
X660000Y43109488D01*
X12434783Y43109488D01*
X12476213Y42829870D01*
X12571397Y42563708D01*
X12638329Y42438486D01*
X12882298Y42366903D01*
X13695395Y43180000D01*
X12882298Y43993097D01*
X12638329Y43921514D01*
X12517429Y43666004D01*
X12448700Y43391816D01*
X12434783Y43109488D01*
X660000Y43109488D01*
X660000Y48870000D01*
X75540001Y48870000D01*
X75540000Y660000D01*
G37*
%TD.AperFunction*%
%TD*%
M02*
