M48
; DRILL file {KiCad (5.1.10)-1} date 01/30/22 13:18:59
; FORMAT={-:-/ absolute / inch / decimal}
; #@! TF.CreationDate,2022-01-30T13:18:59+01:00
; #@! TF.GenerationSoftware,Kicad,Pcbnew,(5.1.10)-1
; #@! TF.FileFunction,Plated,1,2,PTH
FMAT,2
INCH
T1C0.0197
T2C0.0295
T3C0.0315
T4C0.0354
T5C0.0394
%
G90
G05
T1
X0.725Y1.3
X1.125Y1.175
X1.225Y1.125
X1.275Y1.05
X1.375Y0.95
X1.375Y0.85
X1.425Y0.75
T2
X2.625Y0.95
X2.675Y1.0
X2.725Y0.95
T3
X0.125Y1.4
X0.125Y1.2031
X0.25Y1.45
X0.25Y1.15
X0.25Y0.95
X0.25Y0.65
X0.35Y1.45
X0.35Y1.15
X0.35Y0.95
X0.35Y0.65
X0.45Y1.45
X0.45Y1.15
X0.45Y0.95
X0.45Y0.65
X0.5463Y1.7
X0.55Y1.45
X0.55Y1.15
X0.55Y0.95
X0.55Y0.65
X0.625Y1.7
X0.65Y1.45
X0.65Y1.15
X0.65Y0.95
X0.65Y0.65
X0.75Y1.45
X0.75Y1.15
X0.75Y0.95
X0.75Y0.65
X0.85Y1.45
X0.85Y1.15
X0.85Y0.95
X0.85Y0.65
X1.025Y1.65
X1.025Y1.55
X1.025Y1.45
X1.025Y1.35
X1.025Y1.25
X1.025Y1.15
X1.025Y1.05
X1.025Y0.95
X1.025Y0.85
X1.025Y0.75
X1.025Y0.65
X1.025Y0.55
X1.625Y1.65
X1.625Y1.55
X1.625Y1.45
X1.625Y1.35
X1.625Y1.25
X1.625Y1.15
X1.625Y1.05
X1.625Y0.95
X1.625Y0.85
X1.625Y0.75
X1.625Y0.65
X1.625Y0.55
X1.75Y1.25
X1.75Y1.0531
X1.75Y0.95
X1.75Y0.55
X1.8Y1.6469
X1.8Y1.45
X1.925Y1.55
X1.925Y1.3
X1.925Y1.175
X1.925Y0.9421
X1.925Y0.75
X2.125Y0.7
X2.125Y0.4
X2.1281Y1.425
X2.1281Y1.025
X2.1281Y0.85
X2.325Y1.55
X2.325Y1.425
X2.325Y1.3
X2.325Y1.175
X2.325Y1.025
X2.325Y0.85
X2.35Y0.475
X2.35Y0.3963
X2.45Y1.175
X2.45Y1.025
X2.45Y0.625
X2.6Y0.75
X2.6Y0.35
X2.75Y0.75
X2.75Y0.5531
X2.85Y1.175
X2.9Y0.75
X2.9Y0.35
T5
X0.7Y0.225
X0.7Y0.125
X0.8Y0.225
X0.8Y0.125
X0.9Y0.225
X0.9Y0.125
X1.0Y0.225
X1.0Y0.125
X1.1Y0.225
X1.1Y0.125
X1.2Y0.225
X1.2Y0.125
X1.3Y0.225
X1.3Y0.125
X1.4Y0.225
X1.4Y0.125
X1.5Y0.225
X1.5Y0.125
X1.6Y0.225
X1.6Y0.125
X1.7Y0.225
X1.7Y0.125
X1.8Y0.225
X1.8Y0.125
X1.9Y0.225
X1.9Y0.125
X2.0Y0.225
X2.0Y0.125
X2.1Y0.225
X2.1Y0.125
X2.2Y0.225
X2.2Y0.125
X2.3Y0.225
X2.3Y0.125
T4
G00X2.587Y1.7469
M15
G01X2.5555Y1.7469
M16
G05
G00X2.587Y1.6484
M15
G01X2.5555Y1.6484
M16
G05
G00X2.587Y1.4516
M15
G01X2.5555Y1.4516
M16
G05
G00X2.587Y1.3531
M15
G01X2.5555Y1.3531
M16
G05
G00X2.7681Y1.5657
M15
G01X2.7681Y1.5343
M16
G05
T0
M30
