M48
; DRILL file {KiCad (5.1.12)-1} date 03/04/23 08:28:39
; FORMAT={-:-/ absolute / inch / decimal}
; #@! TF.CreationDate,2023-03-04T08:28:39+01:00
; #@! TF.GenerationSoftware,Kicad,Pcbnew,(5.1.12)-1
; #@! TF.FileFunction,Plated,1,2,PTH
FMAT,2
INCH
T1C0.0157
T2C0.0315
T3C0.0354
T4C0.0394
T5C0.0433
T6C0.0512
%
G90
G05
T1
X1.26Y0.4
X1.36Y0.35
X1.41Y0.575
X1.61Y0.425
X1.685Y0.525
X1.76Y0.65
X1.76Y0.15
X1.82Y0.18
T2
X0.96Y0.6175
X0.96Y0.2625
X1.06Y0.6175
X1.06Y0.2625
X1.16Y0.6175
X1.16Y0.2625
X1.26Y0.6175
X1.26Y0.2625
X1.36Y0.6175
X1.36Y0.2625
X1.46Y0.6175
X1.46Y0.2625
T3
X0.265Y0.5756
X0.265Y0.4772
X0.265Y0.3984
X0.265Y0.3
T4
X0.41Y0.075
X0.51Y0.075
X0.61Y0.075
X0.71Y0.075
X1.06Y0.775
X1.16Y0.775
X1.26Y0.775
X1.36Y0.775
X1.46Y0.775
X1.56Y0.775
T5
X1.8791Y0.7497
X1.8791Y0.5725
X1.8791Y0.3022
X1.8791Y0.125
X2.135Y0.7497
X2.135Y0.5725
X2.135Y0.3022
X2.135Y0.125
T6
G00X0.1469Y0.6965
M15
G01X0.1863Y0.6965
M16
G05
G00X0.1863Y0.1791
M15
G01X0.1469Y0.1791
M16
G05
T0
M30
