%TF.GenerationSoftware,KiCad,Pcbnew,(5.1.12)-1*%
%TF.CreationDate,2023-03-04T08:28:37+01:00*%
%TF.ProjectId,Front_USB,46726f6e-745f-4555-9342-2e6b69636164,rev?*%
%TF.SameCoordinates,PX548a170PY45a45e8*%
%TF.FileFunction,Copper,L2,Bot*%
%TF.FilePolarity,Positive*%
%FSLAX46Y46*%
G04 Gerber Fmt 4.6, Leading zero omitted, Abs format (unit mm)*
G04 Created by KiCad (PCBNEW (5.1.12)-1) date 2023-03-04 08:28:37*
%MOMM*%
%LPD*%
G01*
G04 APERTURE LIST*
%TA.AperFunction,ComponentPad*%
%ADD10O,4.000000X2.500000*%
%TD*%
%TA.AperFunction,ComponentPad*%
%ADD11R,1.600000X1.600000*%
%TD*%
%TA.AperFunction,ComponentPad*%
%ADD12C,1.600000*%
%TD*%
%TA.AperFunction,ComponentPad*%
%ADD13C,1.500000*%
%TD*%
%TA.AperFunction,ComponentPad*%
%ADD14R,1.500000X1.500000*%
%TD*%
%TA.AperFunction,ComponentPad*%
%ADD15O,1.700000X1.700000*%
%TD*%
%TA.AperFunction,ComponentPad*%
%ADD16R,1.700000X1.700000*%
%TD*%
%TA.AperFunction,ComponentPad*%
%ADD17C,2.000000*%
%TD*%
%TA.AperFunction,ViaPad*%
%ADD18C,0.800000*%
%TD*%
%TA.AperFunction,ViaPad*%
%ADD19C,1.200000*%
%TD*%
%TA.AperFunction,Conductor*%
%ADD20C,0.500000*%
%TD*%
%TA.AperFunction,Conductor*%
%ADD21C,1.500000*%
%TD*%
%TA.AperFunction,Conductor*%
%ADD22C,0.250000*%
%TD*%
%TA.AperFunction,Conductor*%
%ADD23C,0.254000*%
%TD*%
%TA.AperFunction,Conductor*%
%ADD24C,0.100000*%
%TD*%
G04 APERTURE END LIST*
D10*
%TO.P,J1,5*%
%TO.N,GND1*%
X4231000Y17690000D03*
X4231000Y4550000D03*
D11*
%TO.P,J1,1*%
%TO.N,Net-(J1-Pad1)*%
X6731000Y14620000D03*
D12*
%TO.P,J1,2*%
%TO.N,Net-(J1-Pad2)*%
X6731000Y12120000D03*
%TO.P,J1,3*%
%TO.N,Net-(J1-Pad3)*%
X6731000Y10120000D03*
D11*
%TO.P,J1,4*%
%TO.N,GND1*%
X6731000Y7620000D03*
%TD*%
D13*
%TO.P,DISP1,12*%
%TO.N,/CA1*%
X24384000Y15684500D03*
%TO.P,DISP1,11*%
%TO.N,Net-(DISP1-Pad11)*%
X26924000Y15684500D03*
%TO.P,DISP1,10*%
%TO.N,Net-(DISP1-Pad10)*%
X29464000Y15684500D03*
%TO.P,DISP1,9*%
%TO.N,/CA2*%
X32004000Y15684500D03*
%TO.P,DISP1,8*%
%TO.N,/CA3*%
X34544000Y15684500D03*
%TO.P,DISP1,7*%
%TO.N,Net-(DISP1-Pad7)*%
X37084000Y15684500D03*
%TO.P,DISP1,6*%
%TO.N,N/C*%
X37084000Y6667500D03*
%TO.P,DISP1,5*%
%TO.N,Net-(DISP1-Pad5)*%
X34544000Y6667500D03*
%TO.P,DISP1,4*%
%TO.N,Net-(DISP1-Pad4)*%
X32004000Y6667500D03*
%TO.P,DISP1,3*%
%TO.N,N/C*%
X29464000Y6667500D03*
%TO.P,DISP1,2*%
%TO.N,Net-(DISP1-Pad2)*%
X26924000Y6667500D03*
D14*
%TO.P,DISP1,1*%
%TO.N,Net-(DISP1-Pad1)*%
X24384000Y6667500D03*
%TD*%
D15*
%TO.P,J3,6*%
%TO.N,Net-(J3-Pad6)*%
X39624000Y19685000D03*
%TO.P,J3,5*%
%TO.N,Net-(J3-Pad5)*%
X37084000Y19685000D03*
%TO.P,J3,4*%
%TO.N,GND*%
X34544000Y19685000D03*
%TO.P,J3,3*%
%TO.N,VCC*%
X32004000Y19685000D03*
%TO.P,J3,2*%
%TO.N,Net-(J3-Pad2)*%
X29464000Y19685000D03*
D16*
%TO.P,J3,1*%
%TO.N,Net-(J3-Pad1)*%
X26924000Y19685000D03*
%TD*%
D15*
%TO.P,J2,4*%
%TO.N,GND1*%
X10414000Y1905000D03*
%TO.P,J2,3*%
%TO.N,Net-(J1-Pad3)*%
X12954000Y1905000D03*
%TO.P,J2,2*%
%TO.N,Net-(J1-Pad2)*%
X15494000Y1905000D03*
D16*
%TO.P,J2,1*%
%TO.N,Net-(J1-Pad1)*%
X18034000Y1905000D03*
%TD*%
%TO.P,U1,16*%
%TO.N,Net-(U1-Pad16)*%
%TA.AperFunction,SMDPad,CuDef*%
G36*
G01*
X40464000Y14755000D02*
X40464000Y14455000D01*
G75*
G02*
X40314000Y14305000I-150000J0D01*
G01*
X38864000Y14305000D01*
G75*
G02*
X38714000Y14455000I0J150000D01*
G01*
X38714000Y14755000D01*
G75*
G02*
X38864000Y14905000I150000J0D01*
G01*
X40314000Y14905000D01*
G75*
G02*
X40464000Y14755000I0J-150000D01*
G01*
G37*
%TD.AperFunction*%
%TO.P,U1,15*%
%TO.N,Net-(J3-Pad2)*%
%TA.AperFunction,SMDPad,CuDef*%
G36*
G01*
X40464000Y13485000D02*
X40464000Y13185000D01*
G75*
G02*
X40314000Y13035000I-150000J0D01*
G01*
X38864000Y13035000D01*
G75*
G02*
X38714000Y13185000I0J150000D01*
G01*
X38714000Y13485000D01*
G75*
G02*
X38864000Y13635000I150000J0D01*
G01*
X40314000Y13635000D01*
G75*
G02*
X40464000Y13485000I0J-150000D01*
G01*
G37*
%TD.AperFunction*%
%TO.P,U1,14*%
%TO.N,Net-(J3-Pad1)*%
%TA.AperFunction,SMDPad,CuDef*%
G36*
G01*
X40464000Y12215000D02*
X40464000Y11915000D01*
G75*
G02*
X40314000Y11765000I-150000J0D01*
G01*
X38864000Y11765000D01*
G75*
G02*
X38714000Y11915000I0J150000D01*
G01*
X38714000Y12215000D01*
G75*
G02*
X38864000Y12365000I150000J0D01*
G01*
X40314000Y12365000D01*
G75*
G02*
X40464000Y12215000I0J-150000D01*
G01*
G37*
%TD.AperFunction*%
%TO.P,U1,13*%
%TO.N,VCC*%
%TA.AperFunction,SMDPad,CuDef*%
G36*
G01*
X40464000Y10945000D02*
X40464000Y10645000D01*
G75*
G02*
X40314000Y10495000I-150000J0D01*
G01*
X38864000Y10495000D01*
G75*
G02*
X38714000Y10645000I0J150000D01*
G01*
X38714000Y10945000D01*
G75*
G02*
X38864000Y11095000I150000J0D01*
G01*
X40314000Y11095000D01*
G75*
G02*
X40464000Y10945000I0J-150000D01*
G01*
G37*
%TD.AperFunction*%
%TO.P,U1,12*%
%TO.N,/CA1*%
%TA.AperFunction,SMDPad,CuDef*%
G36*
G01*
X40464000Y9675000D02*
X40464000Y9375000D01*
G75*
G02*
X40314000Y9225000I-150000J0D01*
G01*
X38864000Y9225000D01*
G75*
G02*
X38714000Y9375000I0J150000D01*
G01*
X38714000Y9675000D01*
G75*
G02*
X38864000Y9825000I150000J0D01*
G01*
X40314000Y9825000D01*
G75*
G02*
X40464000Y9675000I0J-150000D01*
G01*
G37*
%TD.AperFunction*%
%TO.P,U1,11*%
%TO.N,/CA2*%
%TA.AperFunction,SMDPad,CuDef*%
G36*
G01*
X40464000Y8405000D02*
X40464000Y8105000D01*
G75*
G02*
X40314000Y7955000I-150000J0D01*
G01*
X38864000Y7955000D01*
G75*
G02*
X38714000Y8105000I0J150000D01*
G01*
X38714000Y8405000D01*
G75*
G02*
X38864000Y8555000I150000J0D01*
G01*
X40314000Y8555000D01*
G75*
G02*
X40464000Y8405000I0J-150000D01*
G01*
G37*
%TD.AperFunction*%
%TO.P,U1,10*%
%TO.N,/CA3*%
%TA.AperFunction,SMDPad,CuDef*%
G36*
G01*
X40464000Y7135000D02*
X40464000Y6835000D01*
G75*
G02*
X40314000Y6685000I-150000J0D01*
G01*
X38864000Y6685000D01*
G75*
G02*
X38714000Y6835000I0J150000D01*
G01*
X38714000Y7135000D01*
G75*
G02*
X38864000Y7285000I150000J0D01*
G01*
X40314000Y7285000D01*
G75*
G02*
X40464000Y7135000I0J-150000D01*
G01*
G37*
%TD.AperFunction*%
%TO.P,U1,9*%
%TO.N,Net-(U1-Pad9)*%
%TA.AperFunction,SMDPad,CuDef*%
G36*
G01*
X40464000Y5865000D02*
X40464000Y5565000D01*
G75*
G02*
X40314000Y5415000I-150000J0D01*
G01*
X38864000Y5415000D01*
G75*
G02*
X38714000Y5565000I0J150000D01*
G01*
X38714000Y5865000D01*
G75*
G02*
X38864000Y6015000I150000J0D01*
G01*
X40314000Y6015000D01*
G75*
G02*
X40464000Y5865000I0J-150000D01*
G01*
G37*
%TD.AperFunction*%
%TO.P,U1,8*%
%TO.N,Net-(DISP1-Pad5)*%
%TA.AperFunction,SMDPad,CuDef*%
G36*
G01*
X45614000Y5865000D02*
X45614000Y5565000D01*
G75*
G02*
X45464000Y5415000I-150000J0D01*
G01*
X44014000Y5415000D01*
G75*
G02*
X43864000Y5565000I0J150000D01*
G01*
X43864000Y5865000D01*
G75*
G02*
X44014000Y6015000I150000J0D01*
G01*
X45464000Y6015000D01*
G75*
G02*
X45614000Y5865000I0J-150000D01*
G01*
G37*
%TD.AperFunction*%
%TO.P,U1,7*%
%TO.N,Net-(DISP1-Pad10)*%
%TA.AperFunction,SMDPad,CuDef*%
G36*
G01*
X45614000Y7135000D02*
X45614000Y6835000D01*
G75*
G02*
X45464000Y6685000I-150000J0D01*
G01*
X44014000Y6685000D01*
G75*
G02*
X43864000Y6835000I0J150000D01*
G01*
X43864000Y7135000D01*
G75*
G02*
X44014000Y7285000I150000J0D01*
G01*
X45464000Y7285000D01*
G75*
G02*
X45614000Y7135000I0J-150000D01*
G01*
G37*
%TD.AperFunction*%
%TO.P,U1,6*%
%TO.N,Net-(DISP1-Pad1)*%
%TA.AperFunction,SMDPad,CuDef*%
G36*
G01*
X45614000Y8405000D02*
X45614000Y8105000D01*
G75*
G02*
X45464000Y7955000I-150000J0D01*
G01*
X44014000Y7955000D01*
G75*
G02*
X43864000Y8105000I0J150000D01*
G01*
X43864000Y8405000D01*
G75*
G02*
X44014000Y8555000I150000J0D01*
G01*
X45464000Y8555000D01*
G75*
G02*
X45614000Y8405000I0J-150000D01*
G01*
G37*
%TD.AperFunction*%
%TO.P,U1,5*%
%TO.N,Net-(DISP1-Pad2)*%
%TA.AperFunction,SMDPad,CuDef*%
G36*
G01*
X45614000Y9675000D02*
X45614000Y9375000D01*
G75*
G02*
X45464000Y9225000I-150000J0D01*
G01*
X44014000Y9225000D01*
G75*
G02*
X43864000Y9375000I0J150000D01*
G01*
X43864000Y9675000D01*
G75*
G02*
X44014000Y9825000I150000J0D01*
G01*
X45464000Y9825000D01*
G75*
G02*
X45614000Y9675000I0J-150000D01*
G01*
G37*
%TD.AperFunction*%
%TO.P,U1,4*%
%TO.N,Net-(DISP1-Pad4)*%
%TA.AperFunction,SMDPad,CuDef*%
G36*
G01*
X45614000Y10945000D02*
X45614000Y10645000D01*
G75*
G02*
X45464000Y10495000I-150000J0D01*
G01*
X44014000Y10495000D01*
G75*
G02*
X43864000Y10645000I0J150000D01*
G01*
X43864000Y10945000D01*
G75*
G02*
X44014000Y11095000I150000J0D01*
G01*
X45464000Y11095000D01*
G75*
G02*
X45614000Y10945000I0J-150000D01*
G01*
G37*
%TD.AperFunction*%
%TO.P,U1,3*%
%TO.N,Net-(DISP1-Pad7)*%
%TA.AperFunction,SMDPad,CuDef*%
G36*
G01*
X45614000Y12215000D02*
X45614000Y11915000D01*
G75*
G02*
X45464000Y11765000I-150000J0D01*
G01*
X44014000Y11765000D01*
G75*
G02*
X43864000Y11915000I0J150000D01*
G01*
X43864000Y12215000D01*
G75*
G02*
X44014000Y12365000I150000J0D01*
G01*
X45464000Y12365000D01*
G75*
G02*
X45614000Y12215000I0J-150000D01*
G01*
G37*
%TD.AperFunction*%
%TO.P,U1,2*%
%TO.N,Net-(DISP1-Pad11)*%
%TA.AperFunction,SMDPad,CuDef*%
G36*
G01*
X45614000Y13485000D02*
X45614000Y13185000D01*
G75*
G02*
X45464000Y13035000I-150000J0D01*
G01*
X44014000Y13035000D01*
G75*
G02*
X43864000Y13185000I0J150000D01*
G01*
X43864000Y13485000D01*
G75*
G02*
X44014000Y13635000I150000J0D01*
G01*
X45464000Y13635000D01*
G75*
G02*
X45614000Y13485000I0J-150000D01*
G01*
G37*
%TD.AperFunction*%
%TO.P,U1,1*%
%TO.N,GND*%
%TA.AperFunction,SMDPad,CuDef*%
G36*
G01*
X45614000Y14755000D02*
X45614000Y14455000D01*
G75*
G02*
X45464000Y14305000I-150000J0D01*
G01*
X44014000Y14305000D01*
G75*
G02*
X43864000Y14455000I0J150000D01*
G01*
X43864000Y14755000D01*
G75*
G02*
X44014000Y14905000I150000J0D01*
G01*
X45464000Y14905000D01*
G75*
G02*
X45614000Y14755000I0J-150000D01*
G01*
G37*
%TD.AperFunction*%
%TD*%
D17*
%TO.P,SW2,1*%
%TO.N,Net-(J3-Pad5)*%
X47729000Y3175000D03*
%TO.P,SW2,2*%
%TO.N,GND*%
X47729000Y7675000D03*
%TO.P,SW2,1*%
%TO.N,Net-(J3-Pad5)*%
X54229000Y3175000D03*
%TO.P,SW2,2*%
%TO.N,GND*%
X54229000Y7675000D03*
%TD*%
%TO.P,SW1,1*%
%TO.N,Net-(J3-Pad6)*%
X47729000Y14541500D03*
%TO.P,SW1,2*%
%TO.N,GND*%
X47729000Y19041500D03*
%TO.P,SW1,1*%
%TO.N,Net-(J3-Pad6)*%
X54229000Y14541500D03*
%TO.P,SW1,2*%
%TO.N,GND*%
X54229000Y19041500D03*
%TD*%
D18*
%TO.N,/CA2*%
X32004000Y10160000D03*
%TO.N,/CA3*%
X34544000Y8890000D03*
D19*
%TO.N,GND*%
X44704000Y16510000D03*
D18*
%TO.N,VCC*%
X40894000Y10795000D03*
%TO.N,Net-(J3-Pad5)*%
X35814000Y14605000D03*
%TO.N,Net-(DISP1-Pad11)*%
X42799000Y13335000D03*
%TO.N,Net-(DISP1-Pad10)*%
X46228000Y4572000D03*
%TO.N,Net-(DISP1-Pad5)*%
X44704000Y3810000D03*
%TD*%
D20*
%TO.N,Net-(J1-Pad3)*%
X12954000Y1905000D02*
X12954000Y2540000D01*
X12954000Y2540000D02*
X9144000Y6350000D01*
X9144000Y6858000D02*
X9144000Y9271000D01*
X9144000Y6350000D02*
X9144000Y6858000D01*
X8295000Y10120000D02*
X6731000Y10120000D01*
X9144000Y9271000D02*
X8295000Y10120000D01*
%TO.N,Net-(J1-Pad2)*%
X15494000Y1905000D02*
X15494000Y2540000D01*
X15494000Y2540000D02*
X11049000Y6985000D01*
X11049000Y6985000D02*
X11049000Y9906000D01*
X8835000Y12120000D02*
X6731000Y12120000D01*
X11049000Y9906000D02*
X8835000Y12120000D01*
D21*
%TO.N,Net-(J1-Pad1)*%
X18034000Y1905000D02*
X18034000Y3302000D01*
X18034000Y3302000D02*
X19812000Y5080000D01*
X19812000Y5080000D02*
X19812000Y11684000D01*
X16876000Y14620000D02*
X6731000Y14620000D01*
X19812000Y11684000D02*
X16876000Y14620000D01*
D22*
%TO.N,/CA1*%
X24384000Y13335000D02*
X24384000Y16002000D01*
X39589000Y9525000D02*
X37719000Y9525000D01*
X35814000Y11430000D02*
X37719000Y9525000D01*
X26289000Y11430000D02*
X35814000Y11430000D01*
X26289000Y11430000D02*
X24384000Y13335000D01*
%TO.N,/CA2*%
X35814000Y10160000D02*
X37719000Y8255000D01*
X37719000Y8255000D02*
X39589000Y8255000D01*
X32004000Y10160000D02*
X35814000Y10160000D01*
%TO.N,/CA3*%
X39116000Y6985000D02*
X39589000Y6985000D01*
X37338000Y5207000D02*
X39116000Y6985000D01*
X36322000Y5207000D02*
X37338000Y5207000D01*
X35814000Y5715000D02*
X36322000Y5207000D01*
X35814000Y8255000D02*
X35814000Y5715000D01*
X35179000Y8890000D02*
X35814000Y8255000D01*
X34544000Y8890000D02*
X35179000Y8890000D01*
%TO.N,GND*%
X44704000Y14640000D02*
X44739000Y14605000D01*
D20*
X44704000Y16510000D02*
X44704000Y14640000D01*
X34544000Y20193000D02*
X35560000Y21209000D01*
X34544000Y19685000D02*
X34544000Y20193000D01*
X47729000Y7675000D02*
X54229000Y7675000D01*
X54229000Y19041500D02*
X47729000Y19041500D01*
X45561500Y21209000D02*
X47729000Y19041500D01*
X35560000Y21209000D02*
X45561500Y21209000D01*
%TO.N,VCC*%
X40894000Y10795000D02*
X39589000Y10795000D01*
D22*
%TO.N,Net-(J3-Pad2)*%
X39589000Y13335000D02*
X32004000Y13335000D01*
X32004000Y13335000D02*
X30734000Y14605000D01*
X30734000Y14605000D02*
X30734000Y17145000D01*
X29464000Y18415000D02*
X29464000Y19685000D01*
X30734000Y17145000D02*
X29464000Y18415000D01*
%TO.N,Net-(J3-Pad1)*%
X28194000Y14605000D02*
X28194000Y17145000D01*
X26924000Y18415000D02*
X26924000Y19685000D01*
X28194000Y17145000D02*
X26924000Y18415000D01*
X37719000Y12700000D02*
X38354000Y12065000D01*
X30099000Y12700000D02*
X37719000Y12700000D01*
X39589000Y12065000D02*
X38354000Y12065000D01*
X30099000Y12700000D02*
X28194000Y14605000D01*
D20*
%TO.N,Net-(J3-Pad6)*%
X47729000Y16279000D02*
X47729000Y15240000D01*
X44323000Y19685000D02*
X47729000Y16279000D01*
X39624000Y19685000D02*
X44323000Y19685000D01*
X47729000Y14541500D02*
X54229000Y14541500D01*
X47729000Y16279000D02*
X47729000Y14541500D01*
%TO.N,Net-(J3-Pad5)*%
X54229000Y3175000D02*
X47729000Y3175000D01*
D22*
X37084000Y18669000D02*
X37084000Y19685000D01*
X35814000Y17399000D02*
X37084000Y18669000D01*
X35814000Y14605000D02*
X35814000Y17399000D01*
%TO.N,Net-(DISP1-Pad11)*%
X44739000Y13335000D02*
X42799000Y13335000D01*
%TO.N,Net-(DISP1-Pad10)*%
X45847000Y6985000D02*
X44739000Y6985000D01*
X46228000Y6604000D02*
X45847000Y6985000D01*
X46228000Y4572000D02*
X46228000Y6604000D01*
%TO.N,Net-(DISP1-Pad7)*%
X37084000Y16002000D02*
X40132000Y16002000D01*
X41529000Y14605000D02*
X41529000Y12700000D01*
X40132000Y16002000D02*
X41529000Y14605000D01*
X42164000Y12065000D02*
X44739000Y12065000D01*
X41529000Y12700000D02*
X42164000Y12065000D01*
%TO.N,Net-(DISP1-Pad5)*%
X44704000Y5680000D02*
X44739000Y5715000D01*
X44704000Y3810000D02*
X44704000Y5680000D01*
%TO.N,Net-(DISP1-Pad4)*%
X44739000Y10795000D02*
X42799000Y10795000D01*
X42799000Y10795000D02*
X41529000Y9525000D01*
X41529000Y9525000D02*
X41529000Y5080000D01*
X41529000Y5080000D02*
X40894000Y4445000D01*
X40894000Y4445000D02*
X32639000Y4445000D01*
X32004000Y5080000D02*
X32004000Y6985000D01*
X32639000Y4445000D02*
X32004000Y5080000D01*
%TO.N,Net-(DISP1-Pad2)*%
X26924000Y6985000D02*
X26924000Y4445000D01*
X26924000Y4445000D02*
X27559000Y3810000D01*
X27559000Y3810000D02*
X41529000Y3810000D01*
X41529000Y3810000D02*
X42164000Y4445000D01*
X42164000Y4445000D02*
X42164000Y8890000D01*
X42799000Y9525000D02*
X44739000Y9525000D01*
X42164000Y8890000D02*
X42799000Y9525000D01*
%TO.N,Net-(DISP1-Pad1)*%
X44739000Y8255000D02*
X43434000Y8255000D01*
X43434000Y8255000D02*
X42799000Y7620000D01*
X42799000Y7620000D02*
X42799000Y3810000D01*
X42799000Y3810000D02*
X42164000Y3175000D01*
X42164000Y3175000D02*
X25019000Y3175000D01*
X24384000Y3810000D02*
X24384000Y6985000D01*
X25019000Y3175000D02*
X24384000Y3810000D01*
%TD*%
D23*
%TO.N,GND*%
X64999001Y660000D02*
X21971000Y660000D01*
X21971000Y7417500D01*
X22995928Y7417500D01*
X22995928Y5917500D01*
X23008188Y5793018D01*
X23044498Y5673320D01*
X23103463Y5563006D01*
X23182815Y5466315D01*
X23279506Y5386963D01*
X23389820Y5327998D01*
X23509518Y5291688D01*
X23624000Y5280413D01*
X23624000Y3847323D01*
X23620324Y3810000D01*
X23624000Y3772678D01*
X23624000Y3772668D01*
X23634997Y3661015D01*
X23660551Y3576774D01*
X23678454Y3517754D01*
X23749026Y3385724D01*
X23779584Y3348490D01*
X23843999Y3269999D01*
X23873002Y3246197D01*
X24455200Y2663998D01*
X24478999Y2634999D01*
X24507997Y2611201D01*
X24594724Y2540026D01*
X24726753Y2469454D01*
X24870014Y2425997D01*
X25019000Y2411323D01*
X25056333Y2415000D01*
X42126678Y2415000D01*
X42164000Y2411324D01*
X42201322Y2415000D01*
X42201333Y2415000D01*
X42312986Y2425997D01*
X42456247Y2469454D01*
X42588276Y2540026D01*
X42704001Y2634999D01*
X42727803Y2664002D01*
X43310003Y3246201D01*
X43339001Y3269999D01*
X43433974Y3385724D01*
X43504546Y3517753D01*
X43548003Y3661014D01*
X43559000Y3772667D01*
X43559000Y3772668D01*
X43562677Y3810000D01*
X43559000Y3847333D01*
X43559000Y4923834D01*
X43576171Y4909742D01*
X43712418Y4836916D01*
X43860255Y4792071D01*
X43944001Y4783823D01*
X43944000Y4513711D01*
X43900063Y4469774D01*
X43786795Y4300256D01*
X43708774Y4111898D01*
X43669000Y3911939D01*
X43669000Y3708061D01*
X43708774Y3508102D01*
X43786795Y3319744D01*
X43900063Y3150226D01*
X44044226Y3006063D01*
X44213744Y2892795D01*
X44402102Y2814774D01*
X44602061Y2775000D01*
X44805939Y2775000D01*
X45005898Y2814774D01*
X45194256Y2892795D01*
X45363774Y3006063D01*
X45507937Y3150226D01*
X45621205Y3319744D01*
X45699226Y3508102D01*
X45729500Y3660303D01*
X45737744Y3654795D01*
X45926102Y3576774D01*
X46126061Y3537000D01*
X46133975Y3537000D01*
X46094000Y3336033D01*
X46094000Y3013967D01*
X46156832Y2698088D01*
X46280082Y2400537D01*
X46459013Y2132748D01*
X46686748Y1905013D01*
X46954537Y1726082D01*
X47252088Y1602832D01*
X47567967Y1540000D01*
X47890033Y1540000D01*
X48205912Y1602832D01*
X48503463Y1726082D01*
X48771252Y1905013D01*
X48998987Y2132748D01*
X49104059Y2290000D01*
X52853941Y2290000D01*
X52959013Y2132748D01*
X53186748Y1905013D01*
X53454537Y1726082D01*
X53752088Y1602832D01*
X54067967Y1540000D01*
X54390033Y1540000D01*
X54705912Y1602832D01*
X55003463Y1726082D01*
X55271252Y1905013D01*
X55498987Y2132748D01*
X55677918Y2400537D01*
X55801168Y2698088D01*
X55864000Y3013967D01*
X55864000Y3336033D01*
X55801168Y3651912D01*
X55677918Y3949463D01*
X55498987Y4217252D01*
X55271252Y4444987D01*
X55003463Y4623918D01*
X54705912Y4747168D01*
X54390033Y4810000D01*
X54067967Y4810000D01*
X53752088Y4747168D01*
X53454537Y4623918D01*
X53186748Y4444987D01*
X52959013Y4217252D01*
X52853941Y4060000D01*
X49104059Y4060000D01*
X48998987Y4217252D01*
X48771252Y4444987D01*
X48503463Y4623918D01*
X48205912Y4747168D01*
X47890033Y4810000D01*
X47567967Y4810000D01*
X47252088Y4747168D01*
X47248712Y4745770D01*
X47223226Y4873898D01*
X47145205Y5062256D01*
X47031937Y5231774D01*
X46988000Y5275711D01*
X46988000Y6217274D01*
X47158571Y6134296D01*
X47470108Y6052616D01*
X47791595Y6033282D01*
X48110675Y6077039D01*
X48415088Y6182205D01*
X48589044Y6275186D01*
X48684808Y6539587D01*
X53273192Y6539587D01*
X53368956Y6275186D01*
X53658571Y6134296D01*
X53970108Y6052616D01*
X54291595Y6033282D01*
X54610675Y6077039D01*
X54915088Y6182205D01*
X55089044Y6275186D01*
X55184808Y6539587D01*
X54229000Y7495395D01*
X53273192Y6539587D01*
X48684808Y6539587D01*
X47729000Y7495395D01*
X47714858Y7481252D01*
X47535253Y7660857D01*
X47549395Y7675000D01*
X47908605Y7675000D01*
X48864413Y6719192D01*
X49128814Y6814956D01*
X49269704Y7104571D01*
X49351384Y7416108D01*
X49363189Y7612405D01*
X52587282Y7612405D01*
X52631039Y7293325D01*
X52736205Y6988912D01*
X52829186Y6814956D01*
X53093587Y6719192D01*
X54049395Y7675000D01*
X54408605Y7675000D01*
X55364413Y6719192D01*
X55628814Y6814956D01*
X55769704Y7104571D01*
X55851384Y7416108D01*
X55870718Y7737595D01*
X55826961Y8056675D01*
X55721795Y8361088D01*
X55628814Y8535044D01*
X55364413Y8630808D01*
X54408605Y7675000D01*
X54049395Y7675000D01*
X53093587Y8630808D01*
X52829186Y8535044D01*
X52688296Y8245429D01*
X52606616Y7933892D01*
X52587282Y7612405D01*
X49363189Y7612405D01*
X49370718Y7737595D01*
X49326961Y8056675D01*
X49221795Y8361088D01*
X49128814Y8535044D01*
X48864413Y8630808D01*
X47908605Y7675000D01*
X47549395Y7675000D01*
X46593587Y8630808D01*
X46329186Y8535044D01*
X46252072Y8376528D01*
X46252072Y8405000D01*
X46236929Y8558745D01*
X46192084Y8706582D01*
X46136585Y8810413D01*
X46773192Y8810413D01*
X47729000Y7854605D01*
X48684808Y8810413D01*
X53273192Y8810413D01*
X54229000Y7854605D01*
X55184808Y8810413D01*
X55089044Y9074814D01*
X54799429Y9215704D01*
X54511101Y9291299D01*
X58175000Y9291299D01*
X58175000Y8742701D01*
X58282026Y8204646D01*
X58491965Y7697808D01*
X58796750Y7241666D01*
X59184666Y6853750D01*
X59640808Y6548965D01*
X60147646Y6339026D01*
X60685701Y6232000D01*
X61234299Y6232000D01*
X61772354Y6339026D01*
X62279192Y6548965D01*
X62735334Y6853750D01*
X63123250Y7241666D01*
X63428035Y7697808D01*
X63637974Y8204646D01*
X63745000Y8742701D01*
X63745000Y9291299D01*
X63637974Y9829354D01*
X63428035Y10336192D01*
X63123250Y10792334D01*
X62735334Y11180250D01*
X62279192Y11485035D01*
X61772354Y11694974D01*
X61234299Y11802000D01*
X60685701Y11802000D01*
X60147646Y11694974D01*
X59640808Y11485035D01*
X59184666Y11180250D01*
X58796750Y10792334D01*
X58491965Y10336192D01*
X58282026Y9829354D01*
X58175000Y9291299D01*
X54511101Y9291299D01*
X54487892Y9297384D01*
X54166405Y9316718D01*
X53847325Y9272961D01*
X53542912Y9167795D01*
X53368956Y9074814D01*
X53273192Y8810413D01*
X48684808Y8810413D01*
X48589044Y9074814D01*
X48299429Y9215704D01*
X47987892Y9297384D01*
X47666405Y9316718D01*
X47347325Y9272961D01*
X47042912Y9167795D01*
X46868956Y9074814D01*
X46773192Y8810413D01*
X46136585Y8810413D01*
X46119258Y8842829D01*
X46080546Y8890000D01*
X46119258Y8937171D01*
X46192084Y9073418D01*
X46236929Y9221255D01*
X46252072Y9375000D01*
X46252072Y9675000D01*
X46236929Y9828745D01*
X46192084Y9976582D01*
X46119258Y10112829D01*
X46080546Y10160000D01*
X46119258Y10207171D01*
X46192084Y10343418D01*
X46236929Y10491255D01*
X46252072Y10645000D01*
X46252072Y10945000D01*
X46236929Y11098745D01*
X46192084Y11246582D01*
X46172414Y11283383D01*
X49319000Y11283383D01*
X49319000Y10941617D01*
X49385675Y10606419D01*
X49516463Y10290669D01*
X49706337Y10006502D01*
X49948002Y9764837D01*
X50232169Y9574963D01*
X50547919Y9444175D01*
X50883117Y9377500D01*
X51224883Y9377500D01*
X51560081Y9444175D01*
X51875831Y9574963D01*
X52159998Y9764837D01*
X52401663Y10006502D01*
X52591537Y10290669D01*
X52722325Y10606419D01*
X52789000Y10941617D01*
X52789000Y11283383D01*
X52722325Y11618581D01*
X52591537Y11934331D01*
X52401663Y12218498D01*
X52159998Y12460163D01*
X51875831Y12650037D01*
X51560081Y12780825D01*
X51224883Y12847500D01*
X50883117Y12847500D01*
X50547919Y12780825D01*
X50232169Y12650037D01*
X49948002Y12460163D01*
X49706337Y12218498D01*
X49516463Y11934331D01*
X49385675Y11618581D01*
X49319000Y11283383D01*
X46172414Y11283383D01*
X46119258Y11382829D01*
X46080546Y11430000D01*
X46119258Y11477171D01*
X46192084Y11613418D01*
X46236929Y11761255D01*
X46252072Y11915000D01*
X46252072Y12215000D01*
X46236929Y12368745D01*
X46192084Y12516582D01*
X46119258Y12652829D01*
X46080546Y12700000D01*
X46119258Y12747171D01*
X46192084Y12883418D01*
X46236929Y13031255D01*
X46252072Y13185000D01*
X46252072Y13485000D01*
X46236929Y13638745D01*
X46192084Y13786582D01*
X46120270Y13920936D01*
X46144537Y13950506D01*
X46178087Y14013273D01*
X46280082Y13767037D01*
X46459013Y13499248D01*
X46686748Y13271513D01*
X46954537Y13092582D01*
X47252088Y12969332D01*
X47567967Y12906500D01*
X47890033Y12906500D01*
X48205912Y12969332D01*
X48503463Y13092582D01*
X48771252Y13271513D01*
X48998987Y13499248D01*
X49104059Y13656500D01*
X52853941Y13656500D01*
X52959013Y13499248D01*
X53186748Y13271513D01*
X53454537Y13092582D01*
X53752088Y12969332D01*
X54067967Y12906500D01*
X54390033Y12906500D01*
X54705912Y12969332D01*
X55003463Y13092582D01*
X55271252Y13271513D01*
X55498987Y13499248D01*
X55677918Y13767037D01*
X55801168Y14064588D01*
X55864000Y14380467D01*
X55864000Y14702533D01*
X55801168Y15018412D01*
X55677918Y15315963D01*
X55498987Y15583752D01*
X55271252Y15811487D01*
X55003463Y15990418D01*
X54705912Y16113668D01*
X54390033Y16176500D01*
X54067967Y16176500D01*
X53752088Y16113668D01*
X53454537Y15990418D01*
X53186748Y15811487D01*
X52959013Y15583752D01*
X52853941Y15426500D01*
X49104059Y15426500D01*
X48998987Y15583752D01*
X48771252Y15811487D01*
X48614000Y15916559D01*
X48614000Y16235535D01*
X48618281Y16279001D01*
X48614000Y16322467D01*
X48614000Y16322477D01*
X48601195Y16452490D01*
X48550589Y16619313D01*
X48468411Y16773059D01*
X48417412Y16835201D01*
X48385532Y16874047D01*
X48385530Y16874049D01*
X48357817Y16907817D01*
X48324050Y16935529D01*
X47851572Y17408007D01*
X48110675Y17443539D01*
X48415088Y17548705D01*
X48589044Y17641686D01*
X48684808Y17906087D01*
X53273192Y17906087D01*
X53368956Y17641686D01*
X53658571Y17500796D01*
X53970108Y17419116D01*
X54291595Y17399782D01*
X54610675Y17443539D01*
X54915088Y17548705D01*
X55089044Y17641686D01*
X55184808Y17906087D01*
X54229000Y18861895D01*
X53273192Y17906087D01*
X48684808Y17906087D01*
X47729000Y18861895D01*
X47714858Y18847752D01*
X47535253Y19027357D01*
X47549395Y19041500D01*
X47908605Y19041500D01*
X48864413Y18085692D01*
X49128814Y18181456D01*
X49269704Y18471071D01*
X49351384Y18782608D01*
X49363189Y18978905D01*
X52587282Y18978905D01*
X52631039Y18659825D01*
X52736205Y18355412D01*
X52829186Y18181456D01*
X53093587Y18085692D01*
X54049395Y19041500D01*
X54408605Y19041500D01*
X55364413Y18085692D01*
X55628814Y18181456D01*
X55769704Y18471071D01*
X55851384Y18782608D01*
X55870718Y19104095D01*
X55826961Y19423175D01*
X55721795Y19727588D01*
X55628814Y19901544D01*
X55364413Y19997308D01*
X54408605Y19041500D01*
X54049395Y19041500D01*
X53093587Y19997308D01*
X52829186Y19901544D01*
X52688296Y19611929D01*
X52606616Y19300392D01*
X52587282Y18978905D01*
X49363189Y18978905D01*
X49370718Y19104095D01*
X49326961Y19423175D01*
X49221795Y19727588D01*
X49128814Y19901544D01*
X48864413Y19997308D01*
X47908605Y19041500D01*
X47549395Y19041500D01*
X46593587Y19997308D01*
X46329186Y19901544D01*
X46188296Y19611929D01*
X46106616Y19300392D01*
X46098253Y19161326D01*
X45082666Y20176913D01*
X46773192Y20176913D01*
X47729000Y19221105D01*
X48684808Y20176913D01*
X53273192Y20176913D01*
X54229000Y19221105D01*
X55184808Y20176913D01*
X55089044Y20441314D01*
X54799429Y20582204D01*
X54487892Y20663884D01*
X54166405Y20683218D01*
X53847325Y20639461D01*
X53542912Y20534295D01*
X53368956Y20441314D01*
X53273192Y20176913D01*
X48684808Y20176913D01*
X48589044Y20441314D01*
X48299429Y20582204D01*
X47987892Y20663884D01*
X47666405Y20683218D01*
X47347325Y20639461D01*
X47042912Y20534295D01*
X46868956Y20441314D01*
X46773192Y20176913D01*
X45082666Y20176913D01*
X44979534Y20280044D01*
X44951817Y20313817D01*
X44817059Y20424411D01*
X44663313Y20506589D01*
X44496490Y20557195D01*
X44366477Y20570000D01*
X44366469Y20570000D01*
X44323000Y20574281D01*
X44279531Y20570000D01*
X40818656Y20570000D01*
X40777475Y20631632D01*
X40570632Y20838475D01*
X40327411Y21000990D01*
X40057158Y21112932D01*
X39770260Y21170000D01*
X39477740Y21170000D01*
X39190842Y21112932D01*
X38920589Y21000990D01*
X38677368Y20838475D01*
X38470525Y20631632D01*
X38354000Y20457240D01*
X38237475Y20631632D01*
X38030632Y20838475D01*
X37787411Y21000990D01*
X37517158Y21112932D01*
X37230260Y21170000D01*
X36937740Y21170000D01*
X36650842Y21112932D01*
X36380589Y21000990D01*
X36137368Y20838475D01*
X35930525Y20631632D01*
X35808805Y20449466D01*
X35739178Y20566355D01*
X35544269Y20782588D01*
X35310920Y20956641D01*
X35048099Y21081825D01*
X34900890Y21126476D01*
X34671000Y21005155D01*
X34671000Y19812000D01*
X34691000Y19812000D01*
X34691000Y19558000D01*
X34671000Y19558000D01*
X34671000Y18364845D01*
X34900890Y18243524D01*
X35048099Y18288175D01*
X35310920Y18413359D01*
X35544269Y18587412D01*
X35739178Y18803645D01*
X35808805Y18920534D01*
X35930525Y18738368D01*
X36004546Y18664347D01*
X35302998Y17962799D01*
X35274000Y17939001D01*
X35250202Y17910003D01*
X35250201Y17910002D01*
X35179026Y17823276D01*
X35108454Y17691246D01*
X35097764Y17656003D01*
X35071457Y17569277D01*
X35064998Y17547985D01*
X35050324Y17399000D01*
X35054001Y17361668D01*
X35054001Y16972364D01*
X34947989Y17016275D01*
X34680411Y17069500D01*
X34407589Y17069500D01*
X34140011Y17016275D01*
X33887957Y16911871D01*
X33661114Y16760299D01*
X33468201Y16567386D01*
X33316629Y16340543D01*
X33274000Y16237627D01*
X33231371Y16340543D01*
X33079799Y16567386D01*
X32886886Y16760299D01*
X32660043Y16911871D01*
X32407989Y17016275D01*
X32140411Y17069500D01*
X31867589Y17069500D01*
X31600011Y17016275D01*
X31494000Y16972364D01*
X31494000Y17107678D01*
X31497676Y17145001D01*
X31494000Y17182324D01*
X31494000Y17182333D01*
X31483003Y17293986D01*
X31439546Y17437247D01*
X31368974Y17569276D01*
X31274001Y17685001D01*
X31245003Y17708799D01*
X30416454Y18537347D01*
X30617475Y18738368D01*
X30734000Y18912760D01*
X30850525Y18738368D01*
X31057368Y18531525D01*
X31300589Y18369010D01*
X31570842Y18257068D01*
X31857740Y18200000D01*
X32150260Y18200000D01*
X32437158Y18257068D01*
X32707411Y18369010D01*
X32950632Y18531525D01*
X33157475Y18738368D01*
X33279195Y18920534D01*
X33348822Y18803645D01*
X33543731Y18587412D01*
X33777080Y18413359D01*
X34039901Y18288175D01*
X34187110Y18243524D01*
X34417000Y18364845D01*
X34417000Y19558000D01*
X34397000Y19558000D01*
X34397000Y19812000D01*
X34417000Y19812000D01*
X34417000Y21005155D01*
X34187110Y21126476D01*
X34039901Y21081825D01*
X33777080Y20956641D01*
X33543731Y20782588D01*
X33348822Y20566355D01*
X33279195Y20449466D01*
X33157475Y20631632D01*
X32950632Y20838475D01*
X32707411Y21000990D01*
X32437158Y21112932D01*
X32150260Y21170000D01*
X31857740Y21170000D01*
X31570842Y21112932D01*
X31300589Y21000990D01*
X31057368Y20838475D01*
X30850525Y20631632D01*
X30734000Y20457240D01*
X30617475Y20631632D01*
X30410632Y20838475D01*
X30167411Y21000990D01*
X29897158Y21112932D01*
X29610260Y21170000D01*
X29317740Y21170000D01*
X29030842Y21112932D01*
X28760589Y21000990D01*
X28517368Y20838475D01*
X28385513Y20706620D01*
X28363502Y20779180D01*
X28304537Y20889494D01*
X28225185Y20986185D01*
X28128494Y21065537D01*
X28018180Y21124502D01*
X27898482Y21160812D01*
X27774000Y21173072D01*
X26074000Y21173072D01*
X25949518Y21160812D01*
X25829820Y21124502D01*
X25719506Y21065537D01*
X25622815Y20986185D01*
X25543463Y20889494D01*
X25484498Y20779180D01*
X25448188Y20659482D01*
X25435928Y20535000D01*
X25435928Y18835000D01*
X25448188Y18710518D01*
X25484498Y18590820D01*
X25543463Y18480506D01*
X25622815Y18383815D01*
X25719506Y18304463D01*
X25829820Y18245498D01*
X25949518Y18209188D01*
X26074000Y18196928D01*
X26195954Y18196928D01*
X26210795Y18148003D01*
X26218454Y18122754D01*
X26289026Y17990724D01*
X26328871Y17942174D01*
X26383999Y17874999D01*
X26413003Y17851196D01*
X27228043Y17036156D01*
X27060411Y17069500D01*
X26787589Y17069500D01*
X26520011Y17016275D01*
X26267957Y16911871D01*
X26041114Y16760299D01*
X25848201Y16567386D01*
X25696629Y16340543D01*
X25654000Y16237627D01*
X25611371Y16340543D01*
X25459799Y16567386D01*
X25266886Y16760299D01*
X25040043Y16911871D01*
X24787989Y17016275D01*
X24520411Y17069500D01*
X24247589Y17069500D01*
X23980011Y17016275D01*
X23727957Y16911871D01*
X23501114Y16760299D01*
X23308201Y16567386D01*
X23156629Y16340543D01*
X23052225Y16088489D01*
X22999000Y15820911D01*
X22999000Y15548089D01*
X23052225Y15280511D01*
X23156629Y15028457D01*
X23308201Y14801614D01*
X23501114Y14608701D01*
X23624000Y14526591D01*
X23624000Y13372323D01*
X23620324Y13335000D01*
X23624000Y13297678D01*
X23624000Y13297668D01*
X23634997Y13186015D01*
X23663339Y13092582D01*
X23678454Y13042754D01*
X23749026Y12910724D01*
X23752493Y12906500D01*
X23843999Y12794999D01*
X23873003Y12771196D01*
X25725200Y10918998D01*
X25748999Y10889999D01*
X25864724Y10795026D01*
X25996753Y10724454D01*
X26140014Y10680997D01*
X26251667Y10670000D01*
X26251677Y10670000D01*
X26289000Y10666324D01*
X26326323Y10670000D01*
X31099987Y10670000D01*
X31086795Y10650256D01*
X31008774Y10461898D01*
X30969000Y10261939D01*
X30969000Y10058061D01*
X31008774Y9858102D01*
X31086795Y9669744D01*
X31200063Y9500226D01*
X31344226Y9356063D01*
X31513744Y9242795D01*
X31702102Y9164774D01*
X31902061Y9125000D01*
X32105939Y9125000D01*
X32305898Y9164774D01*
X32494256Y9242795D01*
X32663774Y9356063D01*
X32707711Y9400000D01*
X33639987Y9400000D01*
X33626795Y9380256D01*
X33548774Y9191898D01*
X33509000Y8991939D01*
X33509000Y8788061D01*
X33548774Y8588102D01*
X33626795Y8399744D01*
X33740063Y8230226D01*
X33884226Y8086063D01*
X34053744Y7972795D01*
X34064913Y7968169D01*
X33887957Y7894871D01*
X33661114Y7743299D01*
X33468201Y7550386D01*
X33316629Y7323543D01*
X33274000Y7220627D01*
X33231371Y7323543D01*
X33079799Y7550386D01*
X32886886Y7743299D01*
X32660043Y7894871D01*
X32407989Y7999275D01*
X32140411Y8052500D01*
X31867589Y8052500D01*
X31600011Y7999275D01*
X31347957Y7894871D01*
X31121114Y7743299D01*
X30928201Y7550386D01*
X30776629Y7323543D01*
X30734000Y7220627D01*
X30691371Y7323543D01*
X30539799Y7550386D01*
X30346886Y7743299D01*
X30120043Y7894871D01*
X29867989Y7999275D01*
X29600411Y8052500D01*
X29327589Y8052500D01*
X29060011Y7999275D01*
X28807957Y7894871D01*
X28581114Y7743299D01*
X28388201Y7550386D01*
X28236629Y7323543D01*
X28194000Y7220627D01*
X28151371Y7323543D01*
X27999799Y7550386D01*
X27806886Y7743299D01*
X27580043Y7894871D01*
X27327989Y7999275D01*
X27060411Y8052500D01*
X26787589Y8052500D01*
X26520011Y7999275D01*
X26267957Y7894871D01*
X26041114Y7743299D01*
X25848201Y7550386D01*
X25770445Y7434017D01*
X25759812Y7541982D01*
X25723502Y7661680D01*
X25664537Y7771994D01*
X25585185Y7868685D01*
X25488494Y7948037D01*
X25378180Y8007002D01*
X25258482Y8043312D01*
X25134000Y8055572D01*
X23634000Y8055572D01*
X23509518Y8043312D01*
X23389820Y8007002D01*
X23279506Y7948037D01*
X23182815Y7868685D01*
X23103463Y7771994D01*
X23044498Y7661680D01*
X23008188Y7541982D01*
X22995928Y7417500D01*
X21971000Y7417500D01*
X21971000Y21565000D01*
X64999000Y21565000D01*
X64999001Y660000D01*
%TA.AperFunction,Conductor*%
D24*
G36*
X64999001Y660000D02*
G01*
X21971000Y660000D01*
X21971000Y7417500D01*
X22995928Y7417500D01*
X22995928Y5917500D01*
X23008188Y5793018D01*
X23044498Y5673320D01*
X23103463Y5563006D01*
X23182815Y5466315D01*
X23279506Y5386963D01*
X23389820Y5327998D01*
X23509518Y5291688D01*
X23624000Y5280413D01*
X23624000Y3847323D01*
X23620324Y3810000D01*
X23624000Y3772678D01*
X23624000Y3772668D01*
X23634997Y3661015D01*
X23660551Y3576774D01*
X23678454Y3517754D01*
X23749026Y3385724D01*
X23779584Y3348490D01*
X23843999Y3269999D01*
X23873002Y3246197D01*
X24455200Y2663998D01*
X24478999Y2634999D01*
X24507997Y2611201D01*
X24594724Y2540026D01*
X24726753Y2469454D01*
X24870014Y2425997D01*
X25019000Y2411323D01*
X25056333Y2415000D01*
X42126678Y2415000D01*
X42164000Y2411324D01*
X42201322Y2415000D01*
X42201333Y2415000D01*
X42312986Y2425997D01*
X42456247Y2469454D01*
X42588276Y2540026D01*
X42704001Y2634999D01*
X42727803Y2664002D01*
X43310003Y3246201D01*
X43339001Y3269999D01*
X43433974Y3385724D01*
X43504546Y3517753D01*
X43548003Y3661014D01*
X43559000Y3772667D01*
X43559000Y3772668D01*
X43562677Y3810000D01*
X43559000Y3847333D01*
X43559000Y4923834D01*
X43576171Y4909742D01*
X43712418Y4836916D01*
X43860255Y4792071D01*
X43944001Y4783823D01*
X43944000Y4513711D01*
X43900063Y4469774D01*
X43786795Y4300256D01*
X43708774Y4111898D01*
X43669000Y3911939D01*
X43669000Y3708061D01*
X43708774Y3508102D01*
X43786795Y3319744D01*
X43900063Y3150226D01*
X44044226Y3006063D01*
X44213744Y2892795D01*
X44402102Y2814774D01*
X44602061Y2775000D01*
X44805939Y2775000D01*
X45005898Y2814774D01*
X45194256Y2892795D01*
X45363774Y3006063D01*
X45507937Y3150226D01*
X45621205Y3319744D01*
X45699226Y3508102D01*
X45729500Y3660303D01*
X45737744Y3654795D01*
X45926102Y3576774D01*
X46126061Y3537000D01*
X46133975Y3537000D01*
X46094000Y3336033D01*
X46094000Y3013967D01*
X46156832Y2698088D01*
X46280082Y2400537D01*
X46459013Y2132748D01*
X46686748Y1905013D01*
X46954537Y1726082D01*
X47252088Y1602832D01*
X47567967Y1540000D01*
X47890033Y1540000D01*
X48205912Y1602832D01*
X48503463Y1726082D01*
X48771252Y1905013D01*
X48998987Y2132748D01*
X49104059Y2290000D01*
X52853941Y2290000D01*
X52959013Y2132748D01*
X53186748Y1905013D01*
X53454537Y1726082D01*
X53752088Y1602832D01*
X54067967Y1540000D01*
X54390033Y1540000D01*
X54705912Y1602832D01*
X55003463Y1726082D01*
X55271252Y1905013D01*
X55498987Y2132748D01*
X55677918Y2400537D01*
X55801168Y2698088D01*
X55864000Y3013967D01*
X55864000Y3336033D01*
X55801168Y3651912D01*
X55677918Y3949463D01*
X55498987Y4217252D01*
X55271252Y4444987D01*
X55003463Y4623918D01*
X54705912Y4747168D01*
X54390033Y4810000D01*
X54067967Y4810000D01*
X53752088Y4747168D01*
X53454537Y4623918D01*
X53186748Y4444987D01*
X52959013Y4217252D01*
X52853941Y4060000D01*
X49104059Y4060000D01*
X48998987Y4217252D01*
X48771252Y4444987D01*
X48503463Y4623918D01*
X48205912Y4747168D01*
X47890033Y4810000D01*
X47567967Y4810000D01*
X47252088Y4747168D01*
X47248712Y4745770D01*
X47223226Y4873898D01*
X47145205Y5062256D01*
X47031937Y5231774D01*
X46988000Y5275711D01*
X46988000Y6217274D01*
X47158571Y6134296D01*
X47470108Y6052616D01*
X47791595Y6033282D01*
X48110675Y6077039D01*
X48415088Y6182205D01*
X48589044Y6275186D01*
X48684808Y6539587D01*
X53273192Y6539587D01*
X53368956Y6275186D01*
X53658571Y6134296D01*
X53970108Y6052616D01*
X54291595Y6033282D01*
X54610675Y6077039D01*
X54915088Y6182205D01*
X55089044Y6275186D01*
X55184808Y6539587D01*
X54229000Y7495395D01*
X53273192Y6539587D01*
X48684808Y6539587D01*
X47729000Y7495395D01*
X47714858Y7481252D01*
X47535253Y7660857D01*
X47549395Y7675000D01*
X47908605Y7675000D01*
X48864413Y6719192D01*
X49128814Y6814956D01*
X49269704Y7104571D01*
X49351384Y7416108D01*
X49363189Y7612405D01*
X52587282Y7612405D01*
X52631039Y7293325D01*
X52736205Y6988912D01*
X52829186Y6814956D01*
X53093587Y6719192D01*
X54049395Y7675000D01*
X54408605Y7675000D01*
X55364413Y6719192D01*
X55628814Y6814956D01*
X55769704Y7104571D01*
X55851384Y7416108D01*
X55870718Y7737595D01*
X55826961Y8056675D01*
X55721795Y8361088D01*
X55628814Y8535044D01*
X55364413Y8630808D01*
X54408605Y7675000D01*
X54049395Y7675000D01*
X53093587Y8630808D01*
X52829186Y8535044D01*
X52688296Y8245429D01*
X52606616Y7933892D01*
X52587282Y7612405D01*
X49363189Y7612405D01*
X49370718Y7737595D01*
X49326961Y8056675D01*
X49221795Y8361088D01*
X49128814Y8535044D01*
X48864413Y8630808D01*
X47908605Y7675000D01*
X47549395Y7675000D01*
X46593587Y8630808D01*
X46329186Y8535044D01*
X46252072Y8376528D01*
X46252072Y8405000D01*
X46236929Y8558745D01*
X46192084Y8706582D01*
X46136585Y8810413D01*
X46773192Y8810413D01*
X47729000Y7854605D01*
X48684808Y8810413D01*
X53273192Y8810413D01*
X54229000Y7854605D01*
X55184808Y8810413D01*
X55089044Y9074814D01*
X54799429Y9215704D01*
X54511101Y9291299D01*
X58175000Y9291299D01*
X58175000Y8742701D01*
X58282026Y8204646D01*
X58491965Y7697808D01*
X58796750Y7241666D01*
X59184666Y6853750D01*
X59640808Y6548965D01*
X60147646Y6339026D01*
X60685701Y6232000D01*
X61234299Y6232000D01*
X61772354Y6339026D01*
X62279192Y6548965D01*
X62735334Y6853750D01*
X63123250Y7241666D01*
X63428035Y7697808D01*
X63637974Y8204646D01*
X63745000Y8742701D01*
X63745000Y9291299D01*
X63637974Y9829354D01*
X63428035Y10336192D01*
X63123250Y10792334D01*
X62735334Y11180250D01*
X62279192Y11485035D01*
X61772354Y11694974D01*
X61234299Y11802000D01*
X60685701Y11802000D01*
X60147646Y11694974D01*
X59640808Y11485035D01*
X59184666Y11180250D01*
X58796750Y10792334D01*
X58491965Y10336192D01*
X58282026Y9829354D01*
X58175000Y9291299D01*
X54511101Y9291299D01*
X54487892Y9297384D01*
X54166405Y9316718D01*
X53847325Y9272961D01*
X53542912Y9167795D01*
X53368956Y9074814D01*
X53273192Y8810413D01*
X48684808Y8810413D01*
X48589044Y9074814D01*
X48299429Y9215704D01*
X47987892Y9297384D01*
X47666405Y9316718D01*
X47347325Y9272961D01*
X47042912Y9167795D01*
X46868956Y9074814D01*
X46773192Y8810413D01*
X46136585Y8810413D01*
X46119258Y8842829D01*
X46080546Y8890000D01*
X46119258Y8937171D01*
X46192084Y9073418D01*
X46236929Y9221255D01*
X46252072Y9375000D01*
X46252072Y9675000D01*
X46236929Y9828745D01*
X46192084Y9976582D01*
X46119258Y10112829D01*
X46080546Y10160000D01*
X46119258Y10207171D01*
X46192084Y10343418D01*
X46236929Y10491255D01*
X46252072Y10645000D01*
X46252072Y10945000D01*
X46236929Y11098745D01*
X46192084Y11246582D01*
X46172414Y11283383D01*
X49319000Y11283383D01*
X49319000Y10941617D01*
X49385675Y10606419D01*
X49516463Y10290669D01*
X49706337Y10006502D01*
X49948002Y9764837D01*
X50232169Y9574963D01*
X50547919Y9444175D01*
X50883117Y9377500D01*
X51224883Y9377500D01*
X51560081Y9444175D01*
X51875831Y9574963D01*
X52159998Y9764837D01*
X52401663Y10006502D01*
X52591537Y10290669D01*
X52722325Y10606419D01*
X52789000Y10941617D01*
X52789000Y11283383D01*
X52722325Y11618581D01*
X52591537Y11934331D01*
X52401663Y12218498D01*
X52159998Y12460163D01*
X51875831Y12650037D01*
X51560081Y12780825D01*
X51224883Y12847500D01*
X50883117Y12847500D01*
X50547919Y12780825D01*
X50232169Y12650037D01*
X49948002Y12460163D01*
X49706337Y12218498D01*
X49516463Y11934331D01*
X49385675Y11618581D01*
X49319000Y11283383D01*
X46172414Y11283383D01*
X46119258Y11382829D01*
X46080546Y11430000D01*
X46119258Y11477171D01*
X46192084Y11613418D01*
X46236929Y11761255D01*
X46252072Y11915000D01*
X46252072Y12215000D01*
X46236929Y12368745D01*
X46192084Y12516582D01*
X46119258Y12652829D01*
X46080546Y12700000D01*
X46119258Y12747171D01*
X46192084Y12883418D01*
X46236929Y13031255D01*
X46252072Y13185000D01*
X46252072Y13485000D01*
X46236929Y13638745D01*
X46192084Y13786582D01*
X46120270Y13920936D01*
X46144537Y13950506D01*
X46178087Y14013273D01*
X46280082Y13767037D01*
X46459013Y13499248D01*
X46686748Y13271513D01*
X46954537Y13092582D01*
X47252088Y12969332D01*
X47567967Y12906500D01*
X47890033Y12906500D01*
X48205912Y12969332D01*
X48503463Y13092582D01*
X48771252Y13271513D01*
X48998987Y13499248D01*
X49104059Y13656500D01*
X52853941Y13656500D01*
X52959013Y13499248D01*
X53186748Y13271513D01*
X53454537Y13092582D01*
X53752088Y12969332D01*
X54067967Y12906500D01*
X54390033Y12906500D01*
X54705912Y12969332D01*
X55003463Y13092582D01*
X55271252Y13271513D01*
X55498987Y13499248D01*
X55677918Y13767037D01*
X55801168Y14064588D01*
X55864000Y14380467D01*
X55864000Y14702533D01*
X55801168Y15018412D01*
X55677918Y15315963D01*
X55498987Y15583752D01*
X55271252Y15811487D01*
X55003463Y15990418D01*
X54705912Y16113668D01*
X54390033Y16176500D01*
X54067967Y16176500D01*
X53752088Y16113668D01*
X53454537Y15990418D01*
X53186748Y15811487D01*
X52959013Y15583752D01*
X52853941Y15426500D01*
X49104059Y15426500D01*
X48998987Y15583752D01*
X48771252Y15811487D01*
X48614000Y15916559D01*
X48614000Y16235535D01*
X48618281Y16279001D01*
X48614000Y16322467D01*
X48614000Y16322477D01*
X48601195Y16452490D01*
X48550589Y16619313D01*
X48468411Y16773059D01*
X48417412Y16835201D01*
X48385532Y16874047D01*
X48385530Y16874049D01*
X48357817Y16907817D01*
X48324050Y16935529D01*
X47851572Y17408007D01*
X48110675Y17443539D01*
X48415088Y17548705D01*
X48589044Y17641686D01*
X48684808Y17906087D01*
X53273192Y17906087D01*
X53368956Y17641686D01*
X53658571Y17500796D01*
X53970108Y17419116D01*
X54291595Y17399782D01*
X54610675Y17443539D01*
X54915088Y17548705D01*
X55089044Y17641686D01*
X55184808Y17906087D01*
X54229000Y18861895D01*
X53273192Y17906087D01*
X48684808Y17906087D01*
X47729000Y18861895D01*
X47714858Y18847752D01*
X47535253Y19027357D01*
X47549395Y19041500D01*
X47908605Y19041500D01*
X48864413Y18085692D01*
X49128814Y18181456D01*
X49269704Y18471071D01*
X49351384Y18782608D01*
X49363189Y18978905D01*
X52587282Y18978905D01*
X52631039Y18659825D01*
X52736205Y18355412D01*
X52829186Y18181456D01*
X53093587Y18085692D01*
X54049395Y19041500D01*
X54408605Y19041500D01*
X55364413Y18085692D01*
X55628814Y18181456D01*
X55769704Y18471071D01*
X55851384Y18782608D01*
X55870718Y19104095D01*
X55826961Y19423175D01*
X55721795Y19727588D01*
X55628814Y19901544D01*
X55364413Y19997308D01*
X54408605Y19041500D01*
X54049395Y19041500D01*
X53093587Y19997308D01*
X52829186Y19901544D01*
X52688296Y19611929D01*
X52606616Y19300392D01*
X52587282Y18978905D01*
X49363189Y18978905D01*
X49370718Y19104095D01*
X49326961Y19423175D01*
X49221795Y19727588D01*
X49128814Y19901544D01*
X48864413Y19997308D01*
X47908605Y19041500D01*
X47549395Y19041500D01*
X46593587Y19997308D01*
X46329186Y19901544D01*
X46188296Y19611929D01*
X46106616Y19300392D01*
X46098253Y19161326D01*
X45082666Y20176913D01*
X46773192Y20176913D01*
X47729000Y19221105D01*
X48684808Y20176913D01*
X53273192Y20176913D01*
X54229000Y19221105D01*
X55184808Y20176913D01*
X55089044Y20441314D01*
X54799429Y20582204D01*
X54487892Y20663884D01*
X54166405Y20683218D01*
X53847325Y20639461D01*
X53542912Y20534295D01*
X53368956Y20441314D01*
X53273192Y20176913D01*
X48684808Y20176913D01*
X48589044Y20441314D01*
X48299429Y20582204D01*
X47987892Y20663884D01*
X47666405Y20683218D01*
X47347325Y20639461D01*
X47042912Y20534295D01*
X46868956Y20441314D01*
X46773192Y20176913D01*
X45082666Y20176913D01*
X44979534Y20280044D01*
X44951817Y20313817D01*
X44817059Y20424411D01*
X44663313Y20506589D01*
X44496490Y20557195D01*
X44366477Y20570000D01*
X44366469Y20570000D01*
X44323000Y20574281D01*
X44279531Y20570000D01*
X40818656Y20570000D01*
X40777475Y20631632D01*
X40570632Y20838475D01*
X40327411Y21000990D01*
X40057158Y21112932D01*
X39770260Y21170000D01*
X39477740Y21170000D01*
X39190842Y21112932D01*
X38920589Y21000990D01*
X38677368Y20838475D01*
X38470525Y20631632D01*
X38354000Y20457240D01*
X38237475Y20631632D01*
X38030632Y20838475D01*
X37787411Y21000990D01*
X37517158Y21112932D01*
X37230260Y21170000D01*
X36937740Y21170000D01*
X36650842Y21112932D01*
X36380589Y21000990D01*
X36137368Y20838475D01*
X35930525Y20631632D01*
X35808805Y20449466D01*
X35739178Y20566355D01*
X35544269Y20782588D01*
X35310920Y20956641D01*
X35048099Y21081825D01*
X34900890Y21126476D01*
X34671000Y21005155D01*
X34671000Y19812000D01*
X34691000Y19812000D01*
X34691000Y19558000D01*
X34671000Y19558000D01*
X34671000Y18364845D01*
X34900890Y18243524D01*
X35048099Y18288175D01*
X35310920Y18413359D01*
X35544269Y18587412D01*
X35739178Y18803645D01*
X35808805Y18920534D01*
X35930525Y18738368D01*
X36004546Y18664347D01*
X35302998Y17962799D01*
X35274000Y17939001D01*
X35250202Y17910003D01*
X35250201Y17910002D01*
X35179026Y17823276D01*
X35108454Y17691246D01*
X35097764Y17656003D01*
X35071457Y17569277D01*
X35064998Y17547985D01*
X35050324Y17399000D01*
X35054001Y17361668D01*
X35054001Y16972364D01*
X34947989Y17016275D01*
X34680411Y17069500D01*
X34407589Y17069500D01*
X34140011Y17016275D01*
X33887957Y16911871D01*
X33661114Y16760299D01*
X33468201Y16567386D01*
X33316629Y16340543D01*
X33274000Y16237627D01*
X33231371Y16340543D01*
X33079799Y16567386D01*
X32886886Y16760299D01*
X32660043Y16911871D01*
X32407989Y17016275D01*
X32140411Y17069500D01*
X31867589Y17069500D01*
X31600011Y17016275D01*
X31494000Y16972364D01*
X31494000Y17107678D01*
X31497676Y17145001D01*
X31494000Y17182324D01*
X31494000Y17182333D01*
X31483003Y17293986D01*
X31439546Y17437247D01*
X31368974Y17569276D01*
X31274001Y17685001D01*
X31245003Y17708799D01*
X30416454Y18537347D01*
X30617475Y18738368D01*
X30734000Y18912760D01*
X30850525Y18738368D01*
X31057368Y18531525D01*
X31300589Y18369010D01*
X31570842Y18257068D01*
X31857740Y18200000D01*
X32150260Y18200000D01*
X32437158Y18257068D01*
X32707411Y18369010D01*
X32950632Y18531525D01*
X33157475Y18738368D01*
X33279195Y18920534D01*
X33348822Y18803645D01*
X33543731Y18587412D01*
X33777080Y18413359D01*
X34039901Y18288175D01*
X34187110Y18243524D01*
X34417000Y18364845D01*
X34417000Y19558000D01*
X34397000Y19558000D01*
X34397000Y19812000D01*
X34417000Y19812000D01*
X34417000Y21005155D01*
X34187110Y21126476D01*
X34039901Y21081825D01*
X33777080Y20956641D01*
X33543731Y20782588D01*
X33348822Y20566355D01*
X33279195Y20449466D01*
X33157475Y20631632D01*
X32950632Y20838475D01*
X32707411Y21000990D01*
X32437158Y21112932D01*
X32150260Y21170000D01*
X31857740Y21170000D01*
X31570842Y21112932D01*
X31300589Y21000990D01*
X31057368Y20838475D01*
X30850525Y20631632D01*
X30734000Y20457240D01*
X30617475Y20631632D01*
X30410632Y20838475D01*
X30167411Y21000990D01*
X29897158Y21112932D01*
X29610260Y21170000D01*
X29317740Y21170000D01*
X29030842Y21112932D01*
X28760589Y21000990D01*
X28517368Y20838475D01*
X28385513Y20706620D01*
X28363502Y20779180D01*
X28304537Y20889494D01*
X28225185Y20986185D01*
X28128494Y21065537D01*
X28018180Y21124502D01*
X27898482Y21160812D01*
X27774000Y21173072D01*
X26074000Y21173072D01*
X25949518Y21160812D01*
X25829820Y21124502D01*
X25719506Y21065537D01*
X25622815Y20986185D01*
X25543463Y20889494D01*
X25484498Y20779180D01*
X25448188Y20659482D01*
X25435928Y20535000D01*
X25435928Y18835000D01*
X25448188Y18710518D01*
X25484498Y18590820D01*
X25543463Y18480506D01*
X25622815Y18383815D01*
X25719506Y18304463D01*
X25829820Y18245498D01*
X25949518Y18209188D01*
X26074000Y18196928D01*
X26195954Y18196928D01*
X26210795Y18148003D01*
X26218454Y18122754D01*
X26289026Y17990724D01*
X26328871Y17942174D01*
X26383999Y17874999D01*
X26413003Y17851196D01*
X27228043Y17036156D01*
X27060411Y17069500D01*
X26787589Y17069500D01*
X26520011Y17016275D01*
X26267957Y16911871D01*
X26041114Y16760299D01*
X25848201Y16567386D01*
X25696629Y16340543D01*
X25654000Y16237627D01*
X25611371Y16340543D01*
X25459799Y16567386D01*
X25266886Y16760299D01*
X25040043Y16911871D01*
X24787989Y17016275D01*
X24520411Y17069500D01*
X24247589Y17069500D01*
X23980011Y17016275D01*
X23727957Y16911871D01*
X23501114Y16760299D01*
X23308201Y16567386D01*
X23156629Y16340543D01*
X23052225Y16088489D01*
X22999000Y15820911D01*
X22999000Y15548089D01*
X23052225Y15280511D01*
X23156629Y15028457D01*
X23308201Y14801614D01*
X23501114Y14608701D01*
X23624000Y14526591D01*
X23624000Y13372323D01*
X23620324Y13335000D01*
X23624000Y13297678D01*
X23624000Y13297668D01*
X23634997Y13186015D01*
X23663339Y13092582D01*
X23678454Y13042754D01*
X23749026Y12910724D01*
X23752493Y12906500D01*
X23843999Y12794999D01*
X23873003Y12771196D01*
X25725200Y10918998D01*
X25748999Y10889999D01*
X25864724Y10795026D01*
X25996753Y10724454D01*
X26140014Y10680997D01*
X26251667Y10670000D01*
X26251677Y10670000D01*
X26289000Y10666324D01*
X26326323Y10670000D01*
X31099987Y10670000D01*
X31086795Y10650256D01*
X31008774Y10461898D01*
X30969000Y10261939D01*
X30969000Y10058061D01*
X31008774Y9858102D01*
X31086795Y9669744D01*
X31200063Y9500226D01*
X31344226Y9356063D01*
X31513744Y9242795D01*
X31702102Y9164774D01*
X31902061Y9125000D01*
X32105939Y9125000D01*
X32305898Y9164774D01*
X32494256Y9242795D01*
X32663774Y9356063D01*
X32707711Y9400000D01*
X33639987Y9400000D01*
X33626795Y9380256D01*
X33548774Y9191898D01*
X33509000Y8991939D01*
X33509000Y8788061D01*
X33548774Y8588102D01*
X33626795Y8399744D01*
X33740063Y8230226D01*
X33884226Y8086063D01*
X34053744Y7972795D01*
X34064913Y7968169D01*
X33887957Y7894871D01*
X33661114Y7743299D01*
X33468201Y7550386D01*
X33316629Y7323543D01*
X33274000Y7220627D01*
X33231371Y7323543D01*
X33079799Y7550386D01*
X32886886Y7743299D01*
X32660043Y7894871D01*
X32407989Y7999275D01*
X32140411Y8052500D01*
X31867589Y8052500D01*
X31600011Y7999275D01*
X31347957Y7894871D01*
X31121114Y7743299D01*
X30928201Y7550386D01*
X30776629Y7323543D01*
X30734000Y7220627D01*
X30691371Y7323543D01*
X30539799Y7550386D01*
X30346886Y7743299D01*
X30120043Y7894871D01*
X29867989Y7999275D01*
X29600411Y8052500D01*
X29327589Y8052500D01*
X29060011Y7999275D01*
X28807957Y7894871D01*
X28581114Y7743299D01*
X28388201Y7550386D01*
X28236629Y7323543D01*
X28194000Y7220627D01*
X28151371Y7323543D01*
X27999799Y7550386D01*
X27806886Y7743299D01*
X27580043Y7894871D01*
X27327989Y7999275D01*
X27060411Y8052500D01*
X26787589Y8052500D01*
X26520011Y7999275D01*
X26267957Y7894871D01*
X26041114Y7743299D01*
X25848201Y7550386D01*
X25770445Y7434017D01*
X25759812Y7541982D01*
X25723502Y7661680D01*
X25664537Y7771994D01*
X25585185Y7868685D01*
X25488494Y7948037D01*
X25378180Y8007002D01*
X25258482Y8043312D01*
X25134000Y8055572D01*
X23634000Y8055572D01*
X23509518Y8043312D01*
X23389820Y8007002D01*
X23279506Y7948037D01*
X23182815Y7868685D01*
X23103463Y7771994D01*
X23044498Y7661680D01*
X23008188Y7541982D01*
X22995928Y7417500D01*
X21971000Y7417500D01*
X21971000Y21565000D01*
X64999000Y21565000D01*
X64999001Y660000D01*
G37*
%TD.AperFunction*%
D23*
X38470525Y18738368D02*
X38677368Y18531525D01*
X38920589Y18369010D01*
X39190842Y18257068D01*
X39477740Y18200000D01*
X39770260Y18200000D01*
X40057158Y18257068D01*
X40327411Y18369010D01*
X40570632Y18531525D01*
X40777475Y18738368D01*
X40818656Y18800000D01*
X43956422Y18800000D01*
X46841519Y15914902D01*
X46686748Y15811487D01*
X46459013Y15583752D01*
X46280082Y15315963D01*
X46206671Y15138733D01*
X46203502Y15149180D01*
X46144537Y15259494D01*
X46065185Y15356185D01*
X45968494Y15435537D01*
X45858180Y15494502D01*
X45738482Y15530812D01*
X45614000Y15543072D01*
X45024750Y15540000D01*
X44866000Y15381250D01*
X44866000Y14732000D01*
X44886000Y14732000D01*
X44886000Y14478000D01*
X44866000Y14478000D01*
X44866000Y14458000D01*
X44612000Y14458000D01*
X44612000Y14478000D01*
X43387750Y14478000D01*
X43229000Y14319250D01*
X43225928Y14305000D01*
X43228655Y14277307D01*
X43100898Y14330226D01*
X42900939Y14370000D01*
X42697061Y14370000D01*
X42497102Y14330226D01*
X42308744Y14252205D01*
X42289000Y14239013D01*
X42289000Y14567678D01*
X42292676Y14605001D01*
X42289000Y14642324D01*
X42289000Y14642333D01*
X42278003Y14753986D01*
X42234546Y14897247D01*
X42230402Y14905000D01*
X43225928Y14905000D01*
X43229000Y14890750D01*
X43387750Y14732000D01*
X44612000Y14732000D01*
X44612000Y15381250D01*
X44453250Y15540000D01*
X43864000Y15543072D01*
X43739518Y15530812D01*
X43619820Y15494502D01*
X43509506Y15435537D01*
X43412815Y15356185D01*
X43333463Y15259494D01*
X43274498Y15149180D01*
X43238188Y15029482D01*
X43225928Y14905000D01*
X42230402Y14905000D01*
X42163974Y15029276D01*
X42069001Y15145001D01*
X42040003Y15168799D01*
X40695804Y16512997D01*
X40672001Y16542001D01*
X40556276Y16636974D01*
X40424247Y16707546D01*
X40280986Y16751003D01*
X40169333Y16762000D01*
X40169322Y16762000D01*
X40132000Y16765676D01*
X40094678Y16762000D01*
X37964340Y16762000D01*
X37740043Y16911871D01*
X37487989Y17016275D01*
X37220411Y17069500D01*
X36947589Y17069500D01*
X36680011Y17016275D01*
X36574000Y16972364D01*
X36574000Y17084199D01*
X37595004Y18105202D01*
X37624001Y18128999D01*
X37718974Y18244724D01*
X37784837Y18367944D01*
X37787411Y18369010D01*
X38030632Y18531525D01*
X38237475Y18738368D01*
X38354000Y18912760D01*
X38470525Y18738368D01*
%TA.AperFunction,Conductor*%
D24*
G36*
X38470525Y18738368D02*
G01*
X38677368Y18531525D01*
X38920589Y18369010D01*
X39190842Y18257068D01*
X39477740Y18200000D01*
X39770260Y18200000D01*
X40057158Y18257068D01*
X40327411Y18369010D01*
X40570632Y18531525D01*
X40777475Y18738368D01*
X40818656Y18800000D01*
X43956422Y18800000D01*
X46841519Y15914902D01*
X46686748Y15811487D01*
X46459013Y15583752D01*
X46280082Y15315963D01*
X46206671Y15138733D01*
X46203502Y15149180D01*
X46144537Y15259494D01*
X46065185Y15356185D01*
X45968494Y15435537D01*
X45858180Y15494502D01*
X45738482Y15530812D01*
X45614000Y15543072D01*
X45024750Y15540000D01*
X44866000Y15381250D01*
X44866000Y14732000D01*
X44886000Y14732000D01*
X44886000Y14478000D01*
X44866000Y14478000D01*
X44866000Y14458000D01*
X44612000Y14458000D01*
X44612000Y14478000D01*
X43387750Y14478000D01*
X43229000Y14319250D01*
X43225928Y14305000D01*
X43228655Y14277307D01*
X43100898Y14330226D01*
X42900939Y14370000D01*
X42697061Y14370000D01*
X42497102Y14330226D01*
X42308744Y14252205D01*
X42289000Y14239013D01*
X42289000Y14567678D01*
X42292676Y14605001D01*
X42289000Y14642324D01*
X42289000Y14642333D01*
X42278003Y14753986D01*
X42234546Y14897247D01*
X42230402Y14905000D01*
X43225928Y14905000D01*
X43229000Y14890750D01*
X43387750Y14732000D01*
X44612000Y14732000D01*
X44612000Y15381250D01*
X44453250Y15540000D01*
X43864000Y15543072D01*
X43739518Y15530812D01*
X43619820Y15494502D01*
X43509506Y15435537D01*
X43412815Y15356185D01*
X43333463Y15259494D01*
X43274498Y15149180D01*
X43238188Y15029482D01*
X43225928Y14905000D01*
X42230402Y14905000D01*
X42163974Y15029276D01*
X42069001Y15145001D01*
X42040003Y15168799D01*
X40695804Y16512997D01*
X40672001Y16542001D01*
X40556276Y16636974D01*
X40424247Y16707546D01*
X40280986Y16751003D01*
X40169333Y16762000D01*
X40169322Y16762000D01*
X40132000Y16765676D01*
X40094678Y16762000D01*
X37964340Y16762000D01*
X37740043Y16911871D01*
X37487989Y17016275D01*
X37220411Y17069500D01*
X36947589Y17069500D01*
X36680011Y17016275D01*
X36574000Y16972364D01*
X36574000Y17084199D01*
X37595004Y18105202D01*
X37624001Y18128999D01*
X37718974Y18244724D01*
X37784837Y18367944D01*
X37787411Y18369010D01*
X38030632Y18531525D01*
X38237475Y18738368D01*
X38354000Y18912760D01*
X38470525Y18738368D01*
G37*
%TD.AperFunction*%
%TD*%
D23*
%TO.N,GND1*%
X20828000Y12629188D02*
X20796081Y12668081D01*
X20743236Y12711450D01*
X17903454Y15551231D01*
X17860081Y15604081D01*
X17649188Y15777157D01*
X17408581Y15905764D01*
X17147507Y15984960D01*
X16944037Y16005000D01*
X16944029Y16005000D01*
X16876000Y16011700D01*
X16807971Y16005000D01*
X7783603Y16005000D01*
X7775180Y16009502D01*
X7655482Y16045812D01*
X7531000Y16058072D01*
X5931000Y16058072D01*
X5914810Y16056478D01*
X6133847Y16193237D01*
X6403699Y16446906D01*
X6618878Y16748347D01*
X6771114Y17085975D01*
X6818695Y17270355D01*
X6702572Y17563000D01*
X4358000Y17563000D01*
X4358000Y15805000D01*
X5108000Y15805000D01*
X5473305Y15865996D01*
X5476571Y15867232D01*
X5400463Y15774494D01*
X5341498Y15664180D01*
X5305188Y15544482D01*
X5292928Y15420000D01*
X5292928Y13820000D01*
X5305188Y13695518D01*
X5341498Y13575820D01*
X5400463Y13465506D01*
X5479815Y13368815D01*
X5576506Y13289463D01*
X5686820Y13230498D01*
X5782943Y13201339D01*
X5616363Y13034759D01*
X5459320Y12799727D01*
X5351147Y12538574D01*
X5296000Y12261335D01*
X5296000Y11978665D01*
X5351147Y11701426D01*
X5459320Y11440273D01*
X5616363Y11205241D01*
X5701604Y11120000D01*
X5616363Y11034759D01*
X5459320Y10799727D01*
X5351147Y10538574D01*
X5296000Y10261335D01*
X5296000Y9978665D01*
X5351147Y9701426D01*
X5459320Y9440273D01*
X5616363Y9205241D01*
X5782943Y9038661D01*
X5686820Y9009502D01*
X5576506Y8950537D01*
X5479815Y8871185D01*
X5400463Y8774494D01*
X5341498Y8664180D01*
X5305188Y8544482D01*
X5292928Y8420000D01*
X5296000Y7905750D01*
X5454750Y7747000D01*
X6604000Y7747000D01*
X6604000Y7767000D01*
X6858000Y7767000D01*
X6858000Y7747000D01*
X8007250Y7747000D01*
X8166000Y7905750D01*
X8169072Y8420000D01*
X8156812Y8544482D01*
X8120502Y8664180D01*
X8061537Y8774494D01*
X7982185Y8871185D01*
X7885494Y8950537D01*
X7775180Y9009502D01*
X7679057Y9038661D01*
X7845637Y9205241D01*
X7865521Y9235000D01*
X7928422Y9235000D01*
X8259001Y8904420D01*
X8259000Y6901477D01*
X8259000Y6393469D01*
X8254719Y6350000D01*
X8259000Y6306531D01*
X8259000Y6306524D01*
X8271805Y6176511D01*
X8322411Y6009688D01*
X8404589Y5855942D01*
X8515183Y5721183D01*
X8548956Y5693466D01*
X10961058Y3281363D01*
X10918099Y3301825D01*
X10770890Y3346476D01*
X10541000Y3225155D01*
X10541000Y2032000D01*
X10561000Y2032000D01*
X10561000Y1778000D01*
X10541000Y1778000D01*
X10541000Y1758000D01*
X10287000Y1758000D01*
X10287000Y1778000D01*
X9093186Y1778000D01*
X8972519Y1548109D01*
X9069843Y1273748D01*
X9218822Y1023645D01*
X9413731Y807412D01*
X9611363Y660000D01*
X660000Y660000D01*
X660000Y2261891D01*
X8972519Y2261891D01*
X9093186Y2032000D01*
X10287000Y2032000D01*
X10287000Y3225155D01*
X10057110Y3346476D01*
X9909901Y3301825D01*
X9647080Y3176641D01*
X9413731Y3002588D01*
X9218822Y2786355D01*
X9069843Y2536252D01*
X8972519Y2261891D01*
X660000Y2261891D01*
X660000Y4130355D01*
X1643305Y4130355D01*
X1690886Y3945975D01*
X1843122Y3608347D01*
X2058301Y3306906D01*
X2328153Y3053237D01*
X2642309Y2857088D01*
X2988695Y2725996D01*
X3354000Y2665000D01*
X4104000Y2665000D01*
X4104000Y4423000D01*
X4358000Y4423000D01*
X4358000Y2665000D01*
X5108000Y2665000D01*
X5473305Y2725996D01*
X5819691Y2857088D01*
X6133847Y3053237D01*
X6403699Y3306906D01*
X6618878Y3608347D01*
X6771114Y3945975D01*
X6818695Y4130355D01*
X6702572Y4423000D01*
X4358000Y4423000D01*
X4104000Y4423000D01*
X1759428Y4423000D01*
X1643305Y4130355D01*
X660000Y4130355D01*
X660000Y4969645D01*
X1643305Y4969645D01*
X1759428Y4677000D01*
X4104000Y4677000D01*
X4104000Y6435000D01*
X4358000Y6435000D01*
X4358000Y4677000D01*
X6702572Y4677000D01*
X6818695Y4969645D01*
X6771114Y5154025D01*
X6618878Y5491653D01*
X6403699Y5793094D01*
X6133847Y6046763D01*
X5914810Y6183522D01*
X5931000Y6181928D01*
X6445250Y6185000D01*
X6604000Y6343750D01*
X6604000Y7493000D01*
X6858000Y7493000D01*
X6858000Y6343750D01*
X7016750Y6185000D01*
X7531000Y6181928D01*
X7655482Y6194188D01*
X7775180Y6230498D01*
X7885494Y6289463D01*
X7982185Y6368815D01*
X8061537Y6465506D01*
X8120502Y6575820D01*
X8156812Y6695518D01*
X8169072Y6820000D01*
X8166000Y7334250D01*
X8007250Y7493000D01*
X6858000Y7493000D01*
X6604000Y7493000D01*
X5454750Y7493000D01*
X5296000Y7334250D01*
X5292928Y6820000D01*
X5305188Y6695518D01*
X5341498Y6575820D01*
X5400463Y6465506D01*
X5476571Y6372768D01*
X5473305Y6374004D01*
X5108000Y6435000D01*
X4358000Y6435000D01*
X4104000Y6435000D01*
X3354000Y6435000D01*
X2988695Y6374004D01*
X2642309Y6242912D01*
X2328153Y6046763D01*
X2058301Y5793094D01*
X1843122Y5491653D01*
X1690886Y5154025D01*
X1643305Y4969645D01*
X660000Y4969645D01*
X660000Y17270355D01*
X1643305Y17270355D01*
X1690886Y17085975D01*
X1843122Y16748347D01*
X2058301Y16446906D01*
X2328153Y16193237D01*
X2642309Y15997088D01*
X2988695Y15865996D01*
X3354000Y15805000D01*
X4104000Y15805000D01*
X4104000Y17563000D01*
X1759428Y17563000D01*
X1643305Y17270355D01*
X660000Y17270355D01*
X660000Y18109645D01*
X1643305Y18109645D01*
X1759428Y17817000D01*
X4104000Y17817000D01*
X4104000Y19575000D01*
X4358000Y19575000D01*
X4358000Y17817000D01*
X6702572Y17817000D01*
X6818695Y18109645D01*
X6771114Y18294025D01*
X6618878Y18631653D01*
X6403699Y18933094D01*
X6133847Y19186763D01*
X5819691Y19382912D01*
X5473305Y19514004D01*
X5108000Y19575000D01*
X4358000Y19575000D01*
X4104000Y19575000D01*
X3354000Y19575000D01*
X2988695Y19514004D01*
X2642309Y19382912D01*
X2328153Y19186763D01*
X2058301Y18933094D01*
X1843122Y18631653D01*
X1690886Y18294025D01*
X1643305Y18109645D01*
X660000Y18109645D01*
X660000Y21565000D01*
X20828000Y21565000D01*
X20828000Y12629188D01*
%TA.AperFunction,Conductor*%
D24*
G36*
X20828000Y12629188D02*
G01*
X20796081Y12668081D01*
X20743236Y12711450D01*
X17903454Y15551231D01*
X17860081Y15604081D01*
X17649188Y15777157D01*
X17408581Y15905764D01*
X17147507Y15984960D01*
X16944037Y16005000D01*
X16944029Y16005000D01*
X16876000Y16011700D01*
X16807971Y16005000D01*
X7783603Y16005000D01*
X7775180Y16009502D01*
X7655482Y16045812D01*
X7531000Y16058072D01*
X5931000Y16058072D01*
X5914810Y16056478D01*
X6133847Y16193237D01*
X6403699Y16446906D01*
X6618878Y16748347D01*
X6771114Y17085975D01*
X6818695Y17270355D01*
X6702572Y17563000D01*
X4358000Y17563000D01*
X4358000Y15805000D01*
X5108000Y15805000D01*
X5473305Y15865996D01*
X5476571Y15867232D01*
X5400463Y15774494D01*
X5341498Y15664180D01*
X5305188Y15544482D01*
X5292928Y15420000D01*
X5292928Y13820000D01*
X5305188Y13695518D01*
X5341498Y13575820D01*
X5400463Y13465506D01*
X5479815Y13368815D01*
X5576506Y13289463D01*
X5686820Y13230498D01*
X5782943Y13201339D01*
X5616363Y13034759D01*
X5459320Y12799727D01*
X5351147Y12538574D01*
X5296000Y12261335D01*
X5296000Y11978665D01*
X5351147Y11701426D01*
X5459320Y11440273D01*
X5616363Y11205241D01*
X5701604Y11120000D01*
X5616363Y11034759D01*
X5459320Y10799727D01*
X5351147Y10538574D01*
X5296000Y10261335D01*
X5296000Y9978665D01*
X5351147Y9701426D01*
X5459320Y9440273D01*
X5616363Y9205241D01*
X5782943Y9038661D01*
X5686820Y9009502D01*
X5576506Y8950537D01*
X5479815Y8871185D01*
X5400463Y8774494D01*
X5341498Y8664180D01*
X5305188Y8544482D01*
X5292928Y8420000D01*
X5296000Y7905750D01*
X5454750Y7747000D01*
X6604000Y7747000D01*
X6604000Y7767000D01*
X6858000Y7767000D01*
X6858000Y7747000D01*
X8007250Y7747000D01*
X8166000Y7905750D01*
X8169072Y8420000D01*
X8156812Y8544482D01*
X8120502Y8664180D01*
X8061537Y8774494D01*
X7982185Y8871185D01*
X7885494Y8950537D01*
X7775180Y9009502D01*
X7679057Y9038661D01*
X7845637Y9205241D01*
X7865521Y9235000D01*
X7928422Y9235000D01*
X8259001Y8904420D01*
X8259000Y6901477D01*
X8259000Y6393469D01*
X8254719Y6350000D01*
X8259000Y6306531D01*
X8259000Y6306524D01*
X8271805Y6176511D01*
X8322411Y6009688D01*
X8404589Y5855942D01*
X8515183Y5721183D01*
X8548956Y5693466D01*
X10961058Y3281363D01*
X10918099Y3301825D01*
X10770890Y3346476D01*
X10541000Y3225155D01*
X10541000Y2032000D01*
X10561000Y2032000D01*
X10561000Y1778000D01*
X10541000Y1778000D01*
X10541000Y1758000D01*
X10287000Y1758000D01*
X10287000Y1778000D01*
X9093186Y1778000D01*
X8972519Y1548109D01*
X9069843Y1273748D01*
X9218822Y1023645D01*
X9413731Y807412D01*
X9611363Y660000D01*
X660000Y660000D01*
X660000Y2261891D01*
X8972519Y2261891D01*
X9093186Y2032000D01*
X10287000Y2032000D01*
X10287000Y3225155D01*
X10057110Y3346476D01*
X9909901Y3301825D01*
X9647080Y3176641D01*
X9413731Y3002588D01*
X9218822Y2786355D01*
X9069843Y2536252D01*
X8972519Y2261891D01*
X660000Y2261891D01*
X660000Y4130355D01*
X1643305Y4130355D01*
X1690886Y3945975D01*
X1843122Y3608347D01*
X2058301Y3306906D01*
X2328153Y3053237D01*
X2642309Y2857088D01*
X2988695Y2725996D01*
X3354000Y2665000D01*
X4104000Y2665000D01*
X4104000Y4423000D01*
X4358000Y4423000D01*
X4358000Y2665000D01*
X5108000Y2665000D01*
X5473305Y2725996D01*
X5819691Y2857088D01*
X6133847Y3053237D01*
X6403699Y3306906D01*
X6618878Y3608347D01*
X6771114Y3945975D01*
X6818695Y4130355D01*
X6702572Y4423000D01*
X4358000Y4423000D01*
X4104000Y4423000D01*
X1759428Y4423000D01*
X1643305Y4130355D01*
X660000Y4130355D01*
X660000Y4969645D01*
X1643305Y4969645D01*
X1759428Y4677000D01*
X4104000Y4677000D01*
X4104000Y6435000D01*
X4358000Y6435000D01*
X4358000Y4677000D01*
X6702572Y4677000D01*
X6818695Y4969645D01*
X6771114Y5154025D01*
X6618878Y5491653D01*
X6403699Y5793094D01*
X6133847Y6046763D01*
X5914810Y6183522D01*
X5931000Y6181928D01*
X6445250Y6185000D01*
X6604000Y6343750D01*
X6604000Y7493000D01*
X6858000Y7493000D01*
X6858000Y6343750D01*
X7016750Y6185000D01*
X7531000Y6181928D01*
X7655482Y6194188D01*
X7775180Y6230498D01*
X7885494Y6289463D01*
X7982185Y6368815D01*
X8061537Y6465506D01*
X8120502Y6575820D01*
X8156812Y6695518D01*
X8169072Y6820000D01*
X8166000Y7334250D01*
X8007250Y7493000D01*
X6858000Y7493000D01*
X6604000Y7493000D01*
X5454750Y7493000D01*
X5296000Y7334250D01*
X5292928Y6820000D01*
X5305188Y6695518D01*
X5341498Y6575820D01*
X5400463Y6465506D01*
X5476571Y6372768D01*
X5473305Y6374004D01*
X5108000Y6435000D01*
X4358000Y6435000D01*
X4104000Y6435000D01*
X3354000Y6435000D01*
X2988695Y6374004D01*
X2642309Y6242912D01*
X2328153Y6046763D01*
X2058301Y5793094D01*
X1843122Y5491653D01*
X1690886Y5154025D01*
X1643305Y4969645D01*
X660000Y4969645D01*
X660000Y17270355D01*
X1643305Y17270355D01*
X1690886Y17085975D01*
X1843122Y16748347D01*
X2058301Y16446906D01*
X2328153Y16193237D01*
X2642309Y15997088D01*
X2988695Y15865996D01*
X3354000Y15805000D01*
X4104000Y15805000D01*
X4104000Y17563000D01*
X1759428Y17563000D01*
X1643305Y17270355D01*
X660000Y17270355D01*
X660000Y18109645D01*
X1643305Y18109645D01*
X1759428Y17817000D01*
X4104000Y17817000D01*
X4104000Y19575000D01*
X4358000Y19575000D01*
X4358000Y17817000D01*
X6702572Y17817000D01*
X6818695Y18109645D01*
X6771114Y18294025D01*
X6618878Y18631653D01*
X6403699Y18933094D01*
X6133847Y19186763D01*
X5819691Y19382912D01*
X5473305Y19514004D01*
X5108000Y19575000D01*
X4358000Y19575000D01*
X4104000Y19575000D01*
X3354000Y19575000D01*
X2988695Y19514004D01*
X2642309Y19382912D01*
X2328153Y19186763D01*
X2058301Y18933094D01*
X1843122Y18631653D01*
X1690886Y18294025D01*
X1643305Y18109645D01*
X660000Y18109645D01*
X660000Y21565000D01*
X20828000Y21565000D01*
X20828000Y12629188D01*
G37*
%TD.AperFunction*%
%TD*%
M02*
