%TF.GenerationSoftware,KiCad,Pcbnew,(5.1.12)-1*%
%TF.CreationDate,2023-03-04T08:28:37+01:00*%
%TF.ProjectId,Front_USB,46726f6e-745f-4555-9342-2e6b69636164,rev?*%
%TF.SameCoordinates,PX548a170PY45a45e8*%
%TF.FileFunction,Soldermask,Bot*%
%TF.FilePolarity,Negative*%
%FSLAX46Y46*%
G04 Gerber Fmt 4.6, Leading zero omitted, Abs format (unit mm)*
G04 Created by KiCad (PCBNEW (5.1.12)-1) date 2023-03-04 08:28:37*
%MOMM*%
%LPD*%
G01*
G04 APERTURE LIST*
%ADD10O,4.000000X2.500000*%
%ADD11R,1.600000X1.600000*%
%ADD12C,1.600000*%
%ADD13C,2.200000*%
%ADD14C,4.300000*%
%ADD15C,1.500000*%
%ADD16R,1.500000X1.500000*%
%ADD17O,1.700000X1.700000*%
%ADD18R,1.700000X1.700000*%
%ADD19C,2.000000*%
G04 APERTURE END LIST*
D10*
%TO.C,J1*%
X4231000Y17690000D03*
X4231000Y4550000D03*
D11*
X6731000Y14620000D03*
D12*
X6731000Y12120000D03*
X6731000Y10120000D03*
D11*
X6731000Y7620000D03*
%TD*%
D13*
%TO.C,H3*%
X51054000Y11112500D03*
%TD*%
D14*
%TO.C,H2*%
X60960000Y9017000D03*
%TD*%
%TO.C,H1*%
X15494000Y9017000D03*
%TD*%
D15*
%TO.C,DISP1*%
X24384000Y15684500D03*
X26924000Y15684500D03*
X29464000Y15684500D03*
X32004000Y15684500D03*
X34544000Y15684500D03*
X37084000Y15684500D03*
X37084000Y6667500D03*
X34544000Y6667500D03*
X32004000Y6667500D03*
X29464000Y6667500D03*
X26924000Y6667500D03*
D16*
X24384000Y6667500D03*
%TD*%
D17*
%TO.C,J3*%
X39624000Y19685000D03*
X37084000Y19685000D03*
X34544000Y19685000D03*
X32004000Y19685000D03*
X29464000Y19685000D03*
D18*
X26924000Y19685000D03*
%TD*%
D17*
%TO.C,J2*%
X10414000Y1905000D03*
X12954000Y1905000D03*
X15494000Y1905000D03*
D18*
X18034000Y1905000D03*
%TD*%
%TO.C,U1*%
G36*
G01*
X40464000Y14755000D02*
X40464000Y14455000D01*
G75*
G02*
X40314000Y14305000I-150000J0D01*
G01*
X38864000Y14305000D01*
G75*
G02*
X38714000Y14455000I0J150000D01*
G01*
X38714000Y14755000D01*
G75*
G02*
X38864000Y14905000I150000J0D01*
G01*
X40314000Y14905000D01*
G75*
G02*
X40464000Y14755000I0J-150000D01*
G01*
G37*
G36*
G01*
X40464000Y13485000D02*
X40464000Y13185000D01*
G75*
G02*
X40314000Y13035000I-150000J0D01*
G01*
X38864000Y13035000D01*
G75*
G02*
X38714000Y13185000I0J150000D01*
G01*
X38714000Y13485000D01*
G75*
G02*
X38864000Y13635000I150000J0D01*
G01*
X40314000Y13635000D01*
G75*
G02*
X40464000Y13485000I0J-150000D01*
G01*
G37*
G36*
G01*
X40464000Y12215000D02*
X40464000Y11915000D01*
G75*
G02*
X40314000Y11765000I-150000J0D01*
G01*
X38864000Y11765000D01*
G75*
G02*
X38714000Y11915000I0J150000D01*
G01*
X38714000Y12215000D01*
G75*
G02*
X38864000Y12365000I150000J0D01*
G01*
X40314000Y12365000D01*
G75*
G02*
X40464000Y12215000I0J-150000D01*
G01*
G37*
G36*
G01*
X40464000Y10945000D02*
X40464000Y10645000D01*
G75*
G02*
X40314000Y10495000I-150000J0D01*
G01*
X38864000Y10495000D01*
G75*
G02*
X38714000Y10645000I0J150000D01*
G01*
X38714000Y10945000D01*
G75*
G02*
X38864000Y11095000I150000J0D01*
G01*
X40314000Y11095000D01*
G75*
G02*
X40464000Y10945000I0J-150000D01*
G01*
G37*
G36*
G01*
X40464000Y9675000D02*
X40464000Y9375000D01*
G75*
G02*
X40314000Y9225000I-150000J0D01*
G01*
X38864000Y9225000D01*
G75*
G02*
X38714000Y9375000I0J150000D01*
G01*
X38714000Y9675000D01*
G75*
G02*
X38864000Y9825000I150000J0D01*
G01*
X40314000Y9825000D01*
G75*
G02*
X40464000Y9675000I0J-150000D01*
G01*
G37*
G36*
G01*
X40464000Y8405000D02*
X40464000Y8105000D01*
G75*
G02*
X40314000Y7955000I-150000J0D01*
G01*
X38864000Y7955000D01*
G75*
G02*
X38714000Y8105000I0J150000D01*
G01*
X38714000Y8405000D01*
G75*
G02*
X38864000Y8555000I150000J0D01*
G01*
X40314000Y8555000D01*
G75*
G02*
X40464000Y8405000I0J-150000D01*
G01*
G37*
G36*
G01*
X40464000Y7135000D02*
X40464000Y6835000D01*
G75*
G02*
X40314000Y6685000I-150000J0D01*
G01*
X38864000Y6685000D01*
G75*
G02*
X38714000Y6835000I0J150000D01*
G01*
X38714000Y7135000D01*
G75*
G02*
X38864000Y7285000I150000J0D01*
G01*
X40314000Y7285000D01*
G75*
G02*
X40464000Y7135000I0J-150000D01*
G01*
G37*
G36*
G01*
X40464000Y5865000D02*
X40464000Y5565000D01*
G75*
G02*
X40314000Y5415000I-150000J0D01*
G01*
X38864000Y5415000D01*
G75*
G02*
X38714000Y5565000I0J150000D01*
G01*
X38714000Y5865000D01*
G75*
G02*
X38864000Y6015000I150000J0D01*
G01*
X40314000Y6015000D01*
G75*
G02*
X40464000Y5865000I0J-150000D01*
G01*
G37*
G36*
G01*
X45614000Y5865000D02*
X45614000Y5565000D01*
G75*
G02*
X45464000Y5415000I-150000J0D01*
G01*
X44014000Y5415000D01*
G75*
G02*
X43864000Y5565000I0J150000D01*
G01*
X43864000Y5865000D01*
G75*
G02*
X44014000Y6015000I150000J0D01*
G01*
X45464000Y6015000D01*
G75*
G02*
X45614000Y5865000I0J-150000D01*
G01*
G37*
G36*
G01*
X45614000Y7135000D02*
X45614000Y6835000D01*
G75*
G02*
X45464000Y6685000I-150000J0D01*
G01*
X44014000Y6685000D01*
G75*
G02*
X43864000Y6835000I0J150000D01*
G01*
X43864000Y7135000D01*
G75*
G02*
X44014000Y7285000I150000J0D01*
G01*
X45464000Y7285000D01*
G75*
G02*
X45614000Y7135000I0J-150000D01*
G01*
G37*
G36*
G01*
X45614000Y8405000D02*
X45614000Y8105000D01*
G75*
G02*
X45464000Y7955000I-150000J0D01*
G01*
X44014000Y7955000D01*
G75*
G02*
X43864000Y8105000I0J150000D01*
G01*
X43864000Y8405000D01*
G75*
G02*
X44014000Y8555000I150000J0D01*
G01*
X45464000Y8555000D01*
G75*
G02*
X45614000Y8405000I0J-150000D01*
G01*
G37*
G36*
G01*
X45614000Y9675000D02*
X45614000Y9375000D01*
G75*
G02*
X45464000Y9225000I-150000J0D01*
G01*
X44014000Y9225000D01*
G75*
G02*
X43864000Y9375000I0J150000D01*
G01*
X43864000Y9675000D01*
G75*
G02*
X44014000Y9825000I150000J0D01*
G01*
X45464000Y9825000D01*
G75*
G02*
X45614000Y9675000I0J-150000D01*
G01*
G37*
G36*
G01*
X45614000Y10945000D02*
X45614000Y10645000D01*
G75*
G02*
X45464000Y10495000I-150000J0D01*
G01*
X44014000Y10495000D01*
G75*
G02*
X43864000Y10645000I0J150000D01*
G01*
X43864000Y10945000D01*
G75*
G02*
X44014000Y11095000I150000J0D01*
G01*
X45464000Y11095000D01*
G75*
G02*
X45614000Y10945000I0J-150000D01*
G01*
G37*
G36*
G01*
X45614000Y12215000D02*
X45614000Y11915000D01*
G75*
G02*
X45464000Y11765000I-150000J0D01*
G01*
X44014000Y11765000D01*
G75*
G02*
X43864000Y11915000I0J150000D01*
G01*
X43864000Y12215000D01*
G75*
G02*
X44014000Y12365000I150000J0D01*
G01*
X45464000Y12365000D01*
G75*
G02*
X45614000Y12215000I0J-150000D01*
G01*
G37*
G36*
G01*
X45614000Y13485000D02*
X45614000Y13185000D01*
G75*
G02*
X45464000Y13035000I-150000J0D01*
G01*
X44014000Y13035000D01*
G75*
G02*
X43864000Y13185000I0J150000D01*
G01*
X43864000Y13485000D01*
G75*
G02*
X44014000Y13635000I150000J0D01*
G01*
X45464000Y13635000D01*
G75*
G02*
X45614000Y13485000I0J-150000D01*
G01*
G37*
G36*
G01*
X45614000Y14755000D02*
X45614000Y14455000D01*
G75*
G02*
X45464000Y14305000I-150000J0D01*
G01*
X44014000Y14305000D01*
G75*
G02*
X43864000Y14455000I0J150000D01*
G01*
X43864000Y14755000D01*
G75*
G02*
X44014000Y14905000I150000J0D01*
G01*
X45464000Y14905000D01*
G75*
G02*
X45614000Y14755000I0J-150000D01*
G01*
G37*
%TD*%
D19*
%TO.C,SW2*%
X47729000Y3175000D03*
X47729000Y7675000D03*
X54229000Y3175000D03*
X54229000Y7675000D03*
%TD*%
%TO.C,SW1*%
X47729000Y14541500D03*
X47729000Y19041500D03*
X54229000Y14541500D03*
X54229000Y19041500D03*
%TD*%
M02*
