%TF.GenerationSoftware,KiCad,Pcbnew,(5.1.12)-1*%
%TF.CreationDate,2023-03-04T08:28:37+01:00*%
%TF.ProjectId,Front_USB,46726f6e-745f-4555-9342-2e6b69636164,rev?*%
%TF.SameCoordinates,PX548a170PY45a45e8*%
%TF.FileFunction,Legend,Top*%
%TF.FilePolarity,Positive*%
%FSLAX46Y46*%
G04 Gerber Fmt 4.6, Leading zero omitted, Abs format (unit mm)*
G04 Created by KiCad (PCBNEW (5.1.12)-1) date 2023-03-04 08:28:37*
%MOMM*%
%LPD*%
G01*
G04 APERTURE LIST*
%ADD10C,0.250000*%
%ADD11C,0.120000*%
%ADD12C,0.150000*%
G04 APERTURE END LIST*
D10*
X9073428Y19109429D02*
X9930571Y19109429D01*
X9502000Y17609429D02*
X9502000Y19109429D01*
X10430571Y18395143D02*
X10930571Y18395143D01*
X11144857Y17609429D02*
X10430571Y17609429D01*
X10430571Y19109429D01*
X11144857Y19109429D01*
X12502000Y17609429D02*
X11787714Y17609429D01*
X11787714Y19109429D01*
X13002000Y18395143D02*
X13502000Y18395143D01*
X13716285Y17609429D02*
X13002000Y17609429D01*
X13002000Y19109429D01*
X13716285Y19109429D01*
X14287714Y17680858D02*
X14502000Y17609429D01*
X14859142Y17609429D01*
X15002000Y17680858D01*
X15073428Y17752286D01*
X15144857Y17895143D01*
X15144857Y18038000D01*
X15073428Y18180858D01*
X15002000Y18252286D01*
X14859142Y18323715D01*
X14573428Y18395143D01*
X14430571Y18466572D01*
X14359142Y18538000D01*
X14287714Y18680858D01*
X14287714Y18823715D01*
X14359142Y18966572D01*
X14430571Y19038000D01*
X14573428Y19109429D01*
X14930571Y19109429D01*
X15144857Y19038000D01*
X15573428Y19109429D02*
X16430571Y19109429D01*
X16002000Y17609429D02*
X16002000Y19109429D01*
X17787714Y17609429D02*
X17287714Y18323715D01*
X16930571Y17609429D02*
X16930571Y19109429D01*
X17502000Y19109429D01*
X17644857Y19038000D01*
X17716285Y18966572D01*
X17787714Y18823715D01*
X17787714Y18609429D01*
X17716285Y18466572D01*
X17644857Y18395143D01*
X17502000Y18323715D01*
X16930571Y18323715D01*
X18359142Y18038000D02*
X19073428Y18038000D01*
X18216285Y17609429D02*
X18716285Y19109429D01*
X19216285Y17609429D01*
X19502000Y19109429D02*
X20359142Y19109429D01*
X19930571Y17609429D02*
X19930571Y19109429D01*
X22002000Y17609429D02*
X22002000Y19109429D01*
X22716285Y17609429D02*
X22716285Y19109429D01*
X9541714Y20554143D02*
X9041714Y20554143D01*
X9041714Y19768429D02*
X9041714Y21268429D01*
X9756000Y21268429D01*
X11184571Y19768429D02*
X10684571Y20482715D01*
X10327428Y19768429D02*
X10327428Y21268429D01*
X10898857Y21268429D01*
X11041714Y21197000D01*
X11113142Y21125572D01*
X11184571Y20982715D01*
X11184571Y20768429D01*
X11113142Y20625572D01*
X11041714Y20554143D01*
X10898857Y20482715D01*
X10327428Y20482715D01*
X12113142Y21268429D02*
X12398857Y21268429D01*
X12541714Y21197000D01*
X12684571Y21054143D01*
X12756000Y20768429D01*
X12756000Y20268429D01*
X12684571Y19982715D01*
X12541714Y19839858D01*
X12398857Y19768429D01*
X12113142Y19768429D01*
X11970285Y19839858D01*
X11827428Y19982715D01*
X11756000Y20268429D01*
X11756000Y20768429D01*
X11827428Y21054143D01*
X11970285Y21197000D01*
X12113142Y21268429D01*
X13398857Y19768429D02*
X13398857Y21268429D01*
X14256000Y19768429D01*
X14256000Y21268429D01*
X14756000Y21268429D02*
X15613142Y21268429D01*
X15184571Y19768429D02*
X15184571Y21268429D01*
X17256000Y19768429D02*
X17256000Y21268429D01*
X17827428Y21268429D01*
X17970285Y21197000D01*
X18041714Y21125572D01*
X18113142Y20982715D01*
X18113142Y20768429D01*
X18041714Y20625572D01*
X17970285Y20554143D01*
X17827428Y20482715D01*
X17256000Y20482715D01*
X18684571Y20197000D02*
X19398857Y20197000D01*
X18541714Y19768429D02*
X19041714Y21268429D01*
X19541714Y19768429D01*
X20041714Y19768429D02*
X20041714Y21268429D01*
X20898857Y19768429D01*
X20898857Y21268429D01*
X21613142Y20554143D02*
X22113142Y20554143D01*
X22327428Y19768429D02*
X21613142Y19768429D01*
X21613142Y21268429D01*
X22327428Y21268429D01*
X23684571Y19768429D02*
X22970285Y19768429D01*
X22970285Y21268429D01*
D11*
%TO.C,J1*%
X7831000Y17820000D02*
X5831000Y17820000D01*
X7831000Y4420000D02*
X5831000Y4420000D01*
X1831000Y4420000D02*
X1831000Y12870000D01*
X1831000Y4420000D02*
X2631000Y4420000D01*
X1831000Y17820000D02*
X2631000Y17820000D01*
X1831000Y17820000D02*
X1831000Y12870000D01*
X7831000Y17820000D02*
X7831000Y4420000D01*
%TO.C,DISP1*%
X20193000Y5524500D02*
X20193000Y16700500D01*
X20193000Y5524500D02*
X41275000Y5524500D01*
X41275000Y5524500D02*
X41275000Y16700500D01*
X41275000Y16700500D02*
X20193000Y16700500D01*
%TO.C,C1*%
X43969000Y19626252D02*
X43969000Y19103748D01*
X45439000Y19626252D02*
X45439000Y19103748D01*
%TO.C,SW2*%
X53229000Y8675000D02*
X48729000Y8675000D01*
X54479000Y4675000D02*
X54479000Y6175000D01*
X48729000Y2175000D02*
X53229000Y2175000D01*
X47479000Y6175000D02*
X47479000Y4675000D01*
%TO.C,SW1*%
X53229000Y20041500D02*
X48729000Y20041500D01*
X54479000Y16041500D02*
X54479000Y17541500D01*
X48729000Y13541500D02*
X53229000Y13541500D01*
X47479000Y17541500D02*
X47479000Y16041500D01*
%TO.C,J1*%
D12*
X722380Y11477667D02*
X1436666Y11477667D01*
X1579523Y11430048D01*
X1674761Y11334810D01*
X1722380Y11191953D01*
X1722380Y11096715D01*
X1722380Y12477667D02*
X1722380Y11906239D01*
X1722380Y12191953D02*
X722380Y12191953D01*
X865238Y12096715D01*
X960476Y12001477D01*
X1008095Y11906239D01*
D10*
X8559095Y9479524D02*
X9611476Y9479524D01*
X9735285Y9541429D01*
X9797190Y9603334D01*
X9859095Y9727143D01*
X9859095Y9974762D01*
X9797190Y10098572D01*
X9735285Y10160477D01*
X9611476Y10222381D01*
X8559095Y10222381D01*
X9797190Y10779524D02*
X9859095Y10965239D01*
X9859095Y11274762D01*
X9797190Y11398572D01*
X9735285Y11460477D01*
X9611476Y11522381D01*
X9487666Y11522381D01*
X9363857Y11460477D01*
X9301952Y11398572D01*
X9240047Y11274762D01*
X9178142Y11027143D01*
X9116238Y10903334D01*
X9054333Y10841429D01*
X8930523Y10779524D01*
X8806714Y10779524D01*
X8682904Y10841429D01*
X8621000Y10903334D01*
X8559095Y11027143D01*
X8559095Y11336667D01*
X8621000Y11522381D01*
X9178142Y12512858D02*
X9240047Y12698572D01*
X9301952Y12760477D01*
X9425761Y12822381D01*
X9611476Y12822381D01*
X9735285Y12760477D01*
X9797190Y12698572D01*
X9859095Y12574762D01*
X9859095Y12079524D01*
X8559095Y12079524D01*
X8559095Y12512858D01*
X8621000Y12636667D01*
X8682904Y12698572D01*
X8806714Y12760477D01*
X8930523Y12760477D01*
X9054333Y12698572D01*
X9116238Y12636667D01*
X9178142Y12512858D01*
X9178142Y12079524D01*
%TO.C,DISP1*%
D12*
X22558619Y9390120D02*
X22558619Y10390120D01*
X22796714Y10390120D01*
X22939571Y10342500D01*
X23034809Y10247262D01*
X23082428Y10152024D01*
X23130047Y9961548D01*
X23130047Y9818691D01*
X23082428Y9628215D01*
X23034809Y9532977D01*
X22939571Y9437739D01*
X22796714Y9390120D01*
X22558619Y9390120D01*
X23558619Y9390120D02*
X23558619Y10390120D01*
X23987190Y9437739D02*
X24130047Y9390120D01*
X24368142Y9390120D01*
X24463380Y9437739D01*
X24511000Y9485358D01*
X24558619Y9580596D01*
X24558619Y9675834D01*
X24511000Y9771072D01*
X24463380Y9818691D01*
X24368142Y9866310D01*
X24177666Y9913929D01*
X24082428Y9961548D01*
X24034809Y10009167D01*
X23987190Y10104405D01*
X23987190Y10199643D01*
X24034809Y10294881D01*
X24082428Y10342500D01*
X24177666Y10390120D01*
X24415761Y10390120D01*
X24558619Y10342500D01*
X24987190Y9390120D02*
X24987190Y10390120D01*
X25368142Y10390120D01*
X25463380Y10342500D01*
X25511000Y10294881D01*
X25558619Y10199643D01*
X25558619Y10056786D01*
X25511000Y9961548D01*
X25463380Y9913929D01*
X25368142Y9866310D01*
X24987190Y9866310D01*
X26511000Y9390120D02*
X25939571Y9390120D01*
X26225285Y9390120D02*
X26225285Y10390120D01*
X26130047Y10247262D01*
X26034809Y10152024D01*
X25939571Y10104405D01*
%TO.C,C1*%
X42013142Y19264334D02*
X42060761Y19216715D01*
X42108380Y19073858D01*
X42108380Y18978620D01*
X42060761Y18835762D01*
X41965523Y18740524D01*
X41870285Y18692905D01*
X41679809Y18645286D01*
X41536952Y18645286D01*
X41346476Y18692905D01*
X41251238Y18740524D01*
X41156000Y18835762D01*
X41108380Y18978620D01*
X41108380Y19073858D01*
X41156000Y19216715D01*
X41203619Y19264334D01*
X42108380Y20216715D02*
X42108380Y19645286D01*
X42108380Y19931000D02*
X41108380Y19931000D01*
X41251238Y19835762D01*
X41346476Y19740524D01*
X41394095Y19645286D01*
X43505380Y17883381D02*
X43505380Y17311953D01*
X43505380Y17597667D02*
X42505380Y17597667D01*
X42648238Y17502429D01*
X42743476Y17407191D01*
X42791095Y17311953D01*
X42505380Y18502429D02*
X42505380Y18597667D01*
X42553000Y18692905D01*
X42600619Y18740524D01*
X42695857Y18788143D01*
X42886333Y18835762D01*
X43124428Y18835762D01*
X43314904Y18788143D01*
X43410142Y18740524D01*
X43457761Y18692905D01*
X43505380Y18597667D01*
X43505380Y18502429D01*
X43457761Y18407191D01*
X43410142Y18359572D01*
X43314904Y18311953D01*
X43124428Y18264334D01*
X42886333Y18264334D01*
X42695857Y18311953D01*
X42600619Y18359572D01*
X42553000Y18407191D01*
X42505380Y18502429D01*
X42505380Y19454810D02*
X42505380Y19550048D01*
X42553000Y19645286D01*
X42600619Y19692905D01*
X42695857Y19740524D01*
X42886333Y19788143D01*
X43124428Y19788143D01*
X43314904Y19740524D01*
X43410142Y19692905D01*
X43457761Y19645286D01*
X43505380Y19550048D01*
X43505380Y19454810D01*
X43457761Y19359572D01*
X43410142Y19311953D01*
X43314904Y19264334D01*
X43124428Y19216715D01*
X42886333Y19216715D01*
X42695857Y19264334D01*
X42600619Y19311953D01*
X42553000Y19359572D01*
X42505380Y19454810D01*
X42838714Y20216715D02*
X43505380Y20216715D01*
X42933952Y20216715D02*
X42886333Y20264334D01*
X42838714Y20359572D01*
X42838714Y20502429D01*
X42886333Y20597667D01*
X42981571Y20645286D01*
X43505380Y20645286D01*
X42981571Y21454810D02*
X42981571Y21121477D01*
X43505380Y21121477D02*
X42505380Y21121477D01*
X42505380Y21597667D01*
%TO.C,SW2*%
X49593666Y484239D02*
X49736523Y436620D01*
X49974619Y436620D01*
X50069857Y484239D01*
X50117476Y531858D01*
X50165095Y627096D01*
X50165095Y722334D01*
X50117476Y817572D01*
X50069857Y865191D01*
X49974619Y912810D01*
X49784142Y960429D01*
X49688904Y1008048D01*
X49641285Y1055667D01*
X49593666Y1150905D01*
X49593666Y1246143D01*
X49641285Y1341381D01*
X49688904Y1389000D01*
X49784142Y1436620D01*
X50022238Y1436620D01*
X50165095Y1389000D01*
X50498428Y1436620D02*
X50736523Y436620D01*
X50927000Y1150905D01*
X51117476Y436620D01*
X51355571Y1436620D01*
X51688904Y1341381D02*
X51736523Y1389000D01*
X51831761Y1436620D01*
X52069857Y1436620D01*
X52165095Y1389000D01*
X52212714Y1341381D01*
X52260333Y1246143D01*
X52260333Y1150905D01*
X52212714Y1008048D01*
X51641285Y436620D01*
X52260333Y436620D01*
D10*
X56167666Y2496429D02*
X56167666Y3996429D01*
X56501000Y3996429D01*
X56701000Y3925000D01*
X56834333Y3782143D01*
X56901000Y3639286D01*
X56967666Y3353572D01*
X56967666Y3139286D01*
X56901000Y2853572D01*
X56834333Y2710715D01*
X56701000Y2567858D01*
X56501000Y2496429D01*
X56167666Y2496429D01*
X57834333Y3996429D02*
X58101000Y3996429D01*
X58234333Y3925000D01*
X58367666Y3782143D01*
X58434333Y3496429D01*
X58434333Y2996429D01*
X58367666Y2710715D01*
X58234333Y2567858D01*
X58101000Y2496429D01*
X57834333Y2496429D01*
X57701000Y2567858D01*
X57567666Y2710715D01*
X57501000Y2996429D01*
X57501000Y3496429D01*
X57567666Y3782143D01*
X57701000Y3925000D01*
X57834333Y3996429D01*
X58901000Y3996429D02*
X59234333Y2496429D01*
X59501000Y3567858D01*
X59767666Y2496429D01*
X60101000Y3996429D01*
X60634333Y2496429D02*
X60634333Y3996429D01*
X61434333Y2496429D01*
X61434333Y3996429D01*
%TO.C,SW1*%
D12*
X49593666Y20677239D02*
X49736523Y20629620D01*
X49974619Y20629620D01*
X50069857Y20677239D01*
X50117476Y20724858D01*
X50165095Y20820096D01*
X50165095Y20915334D01*
X50117476Y21010572D01*
X50069857Y21058191D01*
X49974619Y21105810D01*
X49784142Y21153429D01*
X49688904Y21201048D01*
X49641285Y21248667D01*
X49593666Y21343905D01*
X49593666Y21439143D01*
X49641285Y21534381D01*
X49688904Y21582000D01*
X49784142Y21629620D01*
X50022238Y21629620D01*
X50165095Y21582000D01*
X50498428Y21629620D02*
X50736523Y20629620D01*
X50927000Y21343905D01*
X51117476Y20629620D01*
X51355571Y21629620D01*
X52260333Y20629620D02*
X51688904Y20629620D01*
X51974619Y20629620D02*
X51974619Y21629620D01*
X51879380Y21486762D01*
X51784142Y21391524D01*
X51688904Y21343905D01*
D10*
X56431000Y19816667D02*
X56431000Y18683334D01*
X56497666Y18550000D01*
X56564333Y18483334D01*
X56697666Y18416667D01*
X56964333Y18416667D01*
X57097666Y18483334D01*
X57164333Y18550000D01*
X57231000Y18683334D01*
X57231000Y19816667D01*
X57897666Y18416667D02*
X57897666Y19816667D01*
X58431000Y19816667D01*
X58564333Y19750000D01*
X58631000Y19683334D01*
X58697666Y19550000D01*
X58697666Y19350000D01*
X58631000Y19216667D01*
X58564333Y19150000D01*
X58431000Y19083334D01*
X57897666Y19083334D01*
%TD*%
M02*
