M48
; DRILL file {KiCad (5.1.10)-1} date 01/30/22 10:28:45
; FORMAT={-:-/ absolute / inch / decimal}
; #@! TF.CreationDate,2022-01-30T10:28:45+01:00
; #@! TF.GenerationSoftware,Kicad,Pcbnew,(5.1.10)-1
; #@! TF.FileFunction,Plated,1,2,PTH
FMAT,2
INCH
T1C0.0315
T2C0.0390
T3C0.0394
T4C0.0512
%
G90
G05
T1
X0.7Y2.7
X0.7Y2.6213
X0.7Y2.0
X0.7Y1.9213
X0.7Y1.3
X0.7Y1.2213
X0.7Y0.625
X0.7Y0.5463
T2
X2.775Y2.1022
X2.775Y1.925
T3
X0.15Y1.25
X0.25Y1.25
X0.35Y1.25
X0.7Y3.575
X0.7Y3.475
X0.7Y3.05
X0.7Y2.95
X0.7Y2.35
X0.7Y2.25
X0.7Y1.65
X0.7Y1.55
X0.7Y0.95
X0.7Y0.85
X0.7Y0.25
X0.7Y0.15
X0.8Y3.575
X0.8Y3.475
X0.8Y3.05
X0.8Y2.95
X0.8Y2.35
X0.8Y2.25
X0.8Y1.65
X0.8Y1.55
X0.8Y0.95
X0.8Y0.85
X0.8Y0.25
X0.8Y0.15
X0.9Y3.575
X0.9Y3.475
X0.9Y3.05
X0.9Y2.95
X0.9Y2.35
X0.9Y2.25
X0.9Y1.65
X0.9Y1.55
X0.9Y0.95
X0.9Y0.85
X0.9Y0.25
X0.9Y0.15
X1.0Y3.575
X1.0Y3.475
X1.0Y3.05
X1.0Y2.95
X1.0Y2.35
X1.0Y2.25
X1.0Y1.65
X1.0Y1.55
X1.0Y0.95
X1.0Y0.85
X1.0Y0.25
X1.0Y0.15
X1.1Y3.575
X1.1Y3.475
X1.1Y3.05
X1.1Y2.95
X1.1Y2.35
X1.1Y2.25
X1.1Y1.65
X1.1Y1.55
X1.1Y0.95
X1.1Y0.85
X1.1Y0.25
X1.1Y0.15
X1.2Y3.575
X1.2Y3.475
X1.2Y3.05
X1.2Y2.95
X1.2Y2.35
X1.2Y2.25
X1.2Y1.65
X1.2Y1.55
X1.2Y0.95
X1.2Y0.85
X1.2Y0.25
X1.2Y0.15
X1.3Y3.575
X1.3Y3.475
X1.3Y3.05
X1.3Y2.95
X1.3Y2.35
X1.3Y2.25
X1.3Y1.65
X1.3Y1.55
X1.3Y0.95
X1.3Y0.85
X1.3Y0.25
X1.3Y0.15
X1.4Y3.575
X1.4Y3.475
X1.4Y3.05
X1.4Y2.95
X1.4Y2.35
X1.4Y2.25
X1.4Y1.65
X1.4Y1.55
X1.4Y0.95
X1.4Y0.85
X1.4Y0.25
X1.4Y0.15
X1.5Y3.575
X1.5Y3.475
X1.5Y3.05
X1.5Y2.95
X1.5Y2.35
X1.5Y2.25
X1.5Y1.65
X1.5Y1.55
X1.5Y0.95
X1.5Y0.85
X1.5Y0.25
X1.5Y0.15
X1.6Y3.575
X1.6Y3.475
X1.6Y3.05
X1.6Y2.95
X1.6Y2.35
X1.6Y2.25
X1.6Y1.65
X1.6Y1.55
X1.6Y0.95
X1.6Y0.85
X1.6Y0.25
X1.6Y0.15
X1.7Y3.575
X1.7Y3.475
X1.7Y3.05
X1.7Y2.95
X1.7Y2.35
X1.7Y2.25
X1.7Y1.65
X1.7Y1.55
X1.7Y0.95
X1.7Y0.85
X1.7Y0.25
X1.7Y0.15
X1.8Y3.575
X1.8Y3.475
X1.8Y3.05
X1.8Y2.95
X1.8Y2.35
X1.8Y2.25
X1.8Y1.65
X1.8Y1.55
X1.8Y0.95
X1.8Y0.85
X1.8Y0.25
X1.8Y0.15
X1.9Y3.575
X1.9Y3.475
X1.9Y3.05
X1.9Y2.95
X1.9Y2.35
X1.9Y2.25
X1.9Y1.65
X1.9Y1.55
X1.9Y0.95
X1.9Y0.85
X1.9Y0.25
X1.9Y0.15
X2.0Y3.575
X2.0Y3.475
X2.0Y3.05
X2.0Y2.95
X2.0Y2.35
X2.0Y2.25
X2.0Y1.65
X2.0Y1.55
X2.0Y0.95
X2.0Y0.85
X2.0Y0.25
X2.0Y0.15
X2.1Y3.575
X2.1Y3.475
X2.1Y3.05
X2.1Y2.95
X2.1Y2.35
X2.1Y2.25
X2.1Y1.65
X2.1Y1.55
X2.1Y0.95
X2.1Y0.85
X2.1Y0.25
X2.1Y0.15
X2.2Y3.575
X2.2Y3.475
X2.2Y3.05
X2.2Y2.95
X2.2Y2.35
X2.2Y2.25
X2.2Y1.65
X2.2Y1.55
X2.2Y0.95
X2.2Y0.85
X2.2Y0.25
X2.2Y0.15
X2.3Y3.575
X2.3Y3.475
X2.3Y3.05
X2.3Y2.95
X2.3Y2.35
X2.3Y2.25
X2.3Y1.65
X2.3Y1.55
X2.3Y0.95
X2.3Y0.85
X2.3Y0.25
X2.3Y0.15
T4
X2.677Y2.1518
X2.677Y1.8758
T3
G00X2.525Y1.2106
M15
G01X2.525Y1.2894
M16
G05
G00X2.6825Y1.065
M15
G01X2.6037Y1.065
M16
G05
G00X2.7612Y1.2106
M15
G01X2.7612Y1.2894
M16
G05
T0
M30
