%TF.GenerationSoftware,KiCad,Pcbnew,(5.1.10)-1*%
%TF.CreationDate,2022-01-30T10:28:43+01:00*%
%TF.ProjectId,Oric_BUS,4f726963-5f42-4555-932e-6b696361645f,1.0*%
%TF.SameCoordinates,PX6049a88PY791ddc0*%
%TF.FileFunction,Copper,L2,Bot*%
%TF.FilePolarity,Positive*%
%FSLAX46Y46*%
G04 Gerber Fmt 4.6, Leading zero omitted, Abs format (unit mm)*
G04 Created by KiCad (PCBNEW (5.1.10)-1) date 2022-01-30 10:28:43*
%MOMM*%
%LPD*%
G01*
G04 APERTURE LIST*
%TA.AperFunction,ComponentPad*%
%ADD10C,1.600000*%
%TD*%
%TA.AperFunction,ComponentPad*%
%ADD11R,1.600000X1.600000*%
%TD*%
%TA.AperFunction,ComponentPad*%
%ADD12C,1.700000*%
%TD*%
%TA.AperFunction,ComponentPad*%
%ADD13O,1.700000X1.700000*%
%TD*%
%TA.AperFunction,ComponentPad*%
%ADD14R,1.700000X1.700000*%
%TD*%
%TA.AperFunction,ComponentPad*%
%ADD15C,2.100000*%
%TD*%
%TA.AperFunction,ComponentPad*%
%ADD16C,1.750000*%
%TD*%
%TA.AperFunction,ComponentPad*%
%ADD17R,3.500000X3.500000*%
%TD*%
%TA.AperFunction,ComponentPad*%
%ADD18O,1.700000X2.400000*%
%TD*%
%TA.AperFunction,Conductor*%
%ADD19C,0.400000*%
%TD*%
%TA.AperFunction,Conductor*%
%ADD20C,1.000000*%
%TD*%
%TA.AperFunction,Conductor*%
%ADD21C,0.254000*%
%TD*%
%TA.AperFunction,Conductor*%
%ADD22C,0.100000*%
%TD*%
G04 APERTURE END LIST*
D10*
%TO.P,C4,2*%
%TO.N,GND*%
X17780000Y66580000D03*
D11*
%TO.P,C4,1*%
%TO.N,+5VA*%
X17780000Y68580000D03*
%TD*%
D10*
%TO.P,C3,2*%
%TO.N,GND*%
X17780000Y48800000D03*
D11*
%TO.P,C3,1*%
%TO.N,+5VA*%
X17780000Y50800000D03*
%TD*%
D12*
%TO.P,J5,34*%
%TO.N,GND*%
X17780000Y88265000D03*
%TO.P,J5,32*%
%TO.N,/A11*%
X20320000Y88265000D03*
%TO.P,J5,30*%
%TO.N,/A12*%
X22860000Y88265000D03*
%TO.P,J5,28*%
%TO.N,/A13*%
X25400000Y88265000D03*
%TO.P,J5,26*%
%TO.N,/A14*%
X27940000Y88265000D03*
%TO.P,J5,24*%
%TO.N,/A15*%
X30480000Y88265000D03*
%TO.P,J5,22*%
%TO.N,/D7*%
X33020000Y88265000D03*
%TO.P,J5,20*%
%TO.N,/A4*%
X35560000Y88265000D03*
%TO.P,J5,18*%
%TO.N,/D4*%
X38100000Y88265000D03*
%TO.P,J5,16*%
%TO.N,/D3*%
X40640000Y88265000D03*
%TO.P,J5,14*%
%TO.N,/D6*%
X43180000Y88265000D03*
%TO.P,J5,12*%
%TO.N,/D1*%
X45720000Y88265000D03*
%TO.P,J5,10*%
%TO.N,/D0*%
X48260000Y88265000D03*
%TO.P,J5,8*%
%TO.N,/~IRQ*%
X50800000Y88265000D03*
%TO.P,J5,6*%
%TO.N,/~IOCTRL*%
X53340000Y88265000D03*
%TO.P,J5,4*%
%TO.N,/~RESET*%
X55880000Y88265000D03*
%TO.P,J5,2*%
%TO.N,/~ROMDIS*%
X58420000Y88265000D03*
%TO.P,J5,33*%
%TO.N,+5V*%
X17780000Y90805000D03*
%TO.P,J5,31*%
%TO.N,/A10*%
X20320000Y90805000D03*
%TO.P,J5,29*%
%TO.N,/A9*%
X22860000Y90805000D03*
%TO.P,J5,27*%
%TO.N,/A8*%
X25400000Y90805000D03*
%TO.P,J5,25*%
%TO.N,/A7*%
X27940000Y90805000D03*
%TO.P,J5,23*%
%TO.N,/A6*%
X30480000Y90805000D03*
%TO.P,J5,21*%
%TO.N,/A5*%
X33020000Y90805000D03*
%TO.P,J5,19*%
%TO.N,/D5*%
X35560000Y90805000D03*
%TO.P,J5,17*%
%TO.N,/A2*%
X38100000Y90805000D03*
%TO.P,J5,15*%
%TO.N,/A1*%
X40640000Y90805000D03*
%TO.P,J5,13*%
%TO.N,/A0*%
X43180000Y90805000D03*
%TO.P,J5,11*%
%TO.N,/A3*%
X45720000Y90805000D03*
%TO.P,J5,9*%
%TO.N,/D2*%
X48260000Y90805000D03*
%TO.P,J5,7*%
%TO.N,/R_~W*%
X50800000Y90805000D03*
%TO.P,J5,5*%
%TO.N,/~IO*%
X53340000Y90805000D03*
%TO.P,J5,3*%
%TO.N,/PHI2*%
X55880000Y90805000D03*
%TO.P,J5,1*%
%TO.N,/~MAP*%
%TA.AperFunction,ComponentPad*%
G36*
G01*
X57820000Y91655000D02*
X59020000Y91655000D01*
G75*
G02*
X59270000Y91405000I0J-250000D01*
G01*
X59270000Y90205000D01*
G75*
G02*
X59020000Y89955000I-250000J0D01*
G01*
X57820000Y89955000D01*
G75*
G02*
X57570000Y90205000I0J250000D01*
G01*
X57570000Y91405000D01*
G75*
G02*
X57820000Y91655000I250000J0D01*
G01*
G37*
%TD.AperFunction*%
%TD*%
D13*
%TO.P,J7,34*%
%TO.N,GND*%
X17780000Y77470000D03*
%TO.P,J7,33*%
%TO.N,+5VA*%
X17780000Y74930000D03*
%TO.P,J7,32*%
%TO.N,/A11*%
X20320000Y77470000D03*
%TO.P,J7,31*%
%TO.N,/A10*%
X20320000Y74930000D03*
%TO.P,J7,30*%
%TO.N,/A12*%
X22860000Y77470000D03*
%TO.P,J7,29*%
%TO.N,/A9*%
X22860000Y74930000D03*
%TO.P,J7,28*%
%TO.N,/A13*%
X25400000Y77470000D03*
%TO.P,J7,27*%
%TO.N,/A8*%
X25400000Y74930000D03*
%TO.P,J7,26*%
%TO.N,/A14*%
X27940000Y77470000D03*
%TO.P,J7,25*%
%TO.N,/A7*%
X27940000Y74930000D03*
%TO.P,J7,24*%
%TO.N,/A15*%
X30480000Y77470000D03*
%TO.P,J7,23*%
%TO.N,/A6*%
X30480000Y74930000D03*
%TO.P,J7,22*%
%TO.N,/D7*%
X33020000Y77470000D03*
%TO.P,J7,21*%
%TO.N,/A5*%
X33020000Y74930000D03*
%TO.P,J7,20*%
%TO.N,/A4*%
X35560000Y77470000D03*
%TO.P,J7,19*%
%TO.N,/D5*%
X35560000Y74930000D03*
%TO.P,J7,18*%
%TO.N,/D4*%
X38100000Y77470000D03*
%TO.P,J7,17*%
%TO.N,/A2*%
X38100000Y74930000D03*
%TO.P,J7,16*%
%TO.N,/D3*%
X40640000Y77470000D03*
%TO.P,J7,15*%
%TO.N,/A1*%
X40640000Y74930000D03*
%TO.P,J7,14*%
%TO.N,/D6*%
X43180000Y77470000D03*
%TO.P,J7,13*%
%TO.N,/A0*%
X43180000Y74930000D03*
%TO.P,J7,12*%
%TO.N,/D1*%
X45720000Y77470000D03*
%TO.P,J7,11*%
%TO.N,/A3*%
X45720000Y74930000D03*
%TO.P,J7,10*%
%TO.N,/D0*%
X48260000Y77470000D03*
%TO.P,J7,9*%
%TO.N,/D2*%
X48260000Y74930000D03*
%TO.P,J7,8*%
%TO.N,/~IRQ*%
X50800000Y77470000D03*
%TO.P,J7,7*%
%TO.N,/R_~W*%
X50800000Y74930000D03*
%TO.P,J7,6*%
%TO.N,/~IOCTRL*%
X53340000Y77470000D03*
%TO.P,J7,5*%
%TO.N,/~IO*%
X53340000Y74930000D03*
%TO.P,J7,4*%
%TO.N,/~RESET*%
X55880000Y77470000D03*
%TO.P,J7,3*%
%TO.N,/PHI2*%
X55880000Y74930000D03*
%TO.P,J7,2*%
%TO.N,/~ROMDIS*%
X58420000Y77470000D03*
D14*
%TO.P,J7,1*%
%TO.N,/~MAP*%
X58420000Y74930000D03*
%TD*%
D10*
%TO.P,C1,2*%
%TO.N,GND*%
X17780000Y13875000D03*
D11*
%TO.P,C1,1*%
%TO.N,+5VA*%
X17780000Y15875000D03*
%TD*%
D10*
%TO.P,C2,2*%
%TO.N,GND*%
X17780000Y31020000D03*
D11*
%TO.P,C2,1*%
%TO.N,+5VA*%
X17780000Y33020000D03*
%TD*%
D15*
%TO.P,SW1,*%
%TO.N,*%
X67995000Y47645000D03*
D16*
%TO.P,SW1,1*%
%TO.N,GND*%
X70485000Y48895000D03*
%TO.P,SW1,2*%
%TO.N,/~RESET*%
X70485000Y53395000D03*
D15*
%TO.P,SW1,*%
%TO.N,*%
X67995000Y54655000D03*
%TD*%
D13*
%TO.P,J4,34*%
%TO.N,GND*%
X17780000Y59690000D03*
%TO.P,J4,33*%
%TO.N,+5VA*%
X17780000Y57150000D03*
%TO.P,J4,32*%
%TO.N,/A11*%
X20320000Y59690000D03*
%TO.P,J4,31*%
%TO.N,/A10*%
X20320000Y57150000D03*
%TO.P,J4,30*%
%TO.N,/A12*%
X22860000Y59690000D03*
%TO.P,J4,29*%
%TO.N,/A9*%
X22860000Y57150000D03*
%TO.P,J4,28*%
%TO.N,/A13*%
X25400000Y59690000D03*
%TO.P,J4,27*%
%TO.N,/A8*%
X25400000Y57150000D03*
%TO.P,J4,26*%
%TO.N,/A14*%
X27940000Y59690000D03*
%TO.P,J4,25*%
%TO.N,/A7*%
X27940000Y57150000D03*
%TO.P,J4,24*%
%TO.N,/A15*%
X30480000Y59690000D03*
%TO.P,J4,23*%
%TO.N,/A6*%
X30480000Y57150000D03*
%TO.P,J4,22*%
%TO.N,/D7*%
X33020000Y59690000D03*
%TO.P,J4,21*%
%TO.N,/A5*%
X33020000Y57150000D03*
%TO.P,J4,20*%
%TO.N,/A4*%
X35560000Y59690000D03*
%TO.P,J4,19*%
%TO.N,/D5*%
X35560000Y57150000D03*
%TO.P,J4,18*%
%TO.N,/D4*%
X38100000Y59690000D03*
%TO.P,J4,17*%
%TO.N,/A2*%
X38100000Y57150000D03*
%TO.P,J4,16*%
%TO.N,/D3*%
X40640000Y59690000D03*
%TO.P,J4,15*%
%TO.N,/A1*%
X40640000Y57150000D03*
%TO.P,J4,14*%
%TO.N,/D6*%
X43180000Y59690000D03*
%TO.P,J4,13*%
%TO.N,/A0*%
X43180000Y57150000D03*
%TO.P,J4,12*%
%TO.N,/D1*%
X45720000Y59690000D03*
%TO.P,J4,11*%
%TO.N,/A3*%
X45720000Y57150000D03*
%TO.P,J4,10*%
%TO.N,/D0*%
X48260000Y59690000D03*
%TO.P,J4,9*%
%TO.N,/D2*%
X48260000Y57150000D03*
%TO.P,J4,8*%
%TO.N,/~IRQ*%
X50800000Y59690000D03*
%TO.P,J4,7*%
%TO.N,/R_~W*%
X50800000Y57150000D03*
%TO.P,J4,6*%
%TO.N,/~IOCTRL*%
X53340000Y59690000D03*
%TO.P,J4,5*%
%TO.N,/~IO*%
X53340000Y57150000D03*
%TO.P,J4,4*%
%TO.N,/~RESET*%
X55880000Y59690000D03*
%TO.P,J4,3*%
%TO.N,/PHI2*%
X55880000Y57150000D03*
%TO.P,J4,2*%
%TO.N,/~ROMDIS*%
X58420000Y59690000D03*
D14*
%TO.P,J4,1*%
%TO.N,/~MAP*%
X58420000Y57150000D03*
%TD*%
D13*
%TO.P,J3,34*%
%TO.N,GND*%
X17780000Y41910000D03*
%TO.P,J3,33*%
%TO.N,+5VA*%
X17780000Y39370000D03*
%TO.P,J3,32*%
%TO.N,/A11*%
X20320000Y41910000D03*
%TO.P,J3,31*%
%TO.N,/A10*%
X20320000Y39370000D03*
%TO.P,J3,30*%
%TO.N,/A12*%
X22860000Y41910000D03*
%TO.P,J3,29*%
%TO.N,/A9*%
X22860000Y39370000D03*
%TO.P,J3,28*%
%TO.N,/A13*%
X25400000Y41910000D03*
%TO.P,J3,27*%
%TO.N,/A8*%
X25400000Y39370000D03*
%TO.P,J3,26*%
%TO.N,/A14*%
X27940000Y41910000D03*
%TO.P,J3,25*%
%TO.N,/A7*%
X27940000Y39370000D03*
%TO.P,J3,24*%
%TO.N,/A15*%
X30480000Y41910000D03*
%TO.P,J3,23*%
%TO.N,/A6*%
X30480000Y39370000D03*
%TO.P,J3,22*%
%TO.N,/D7*%
X33020000Y41910000D03*
%TO.P,J3,21*%
%TO.N,/A5*%
X33020000Y39370000D03*
%TO.P,J3,20*%
%TO.N,/A4*%
X35560000Y41910000D03*
%TO.P,J3,19*%
%TO.N,/D5*%
X35560000Y39370000D03*
%TO.P,J3,18*%
%TO.N,/D4*%
X38100000Y41910000D03*
%TO.P,J3,17*%
%TO.N,/A2*%
X38100000Y39370000D03*
%TO.P,J3,16*%
%TO.N,/D3*%
X40640000Y41910000D03*
%TO.P,J3,15*%
%TO.N,/A1*%
X40640000Y39370000D03*
%TO.P,J3,14*%
%TO.N,/D6*%
X43180000Y41910000D03*
%TO.P,J3,13*%
%TO.N,/A0*%
X43180000Y39370000D03*
%TO.P,J3,12*%
%TO.N,/D1*%
X45720000Y41910000D03*
%TO.P,J3,11*%
%TO.N,/A3*%
X45720000Y39370000D03*
%TO.P,J3,10*%
%TO.N,/D0*%
X48260000Y41910000D03*
%TO.P,J3,9*%
%TO.N,/D2*%
X48260000Y39370000D03*
%TO.P,J3,8*%
%TO.N,/~IRQ*%
X50800000Y41910000D03*
%TO.P,J3,7*%
%TO.N,/R_~W*%
X50800000Y39370000D03*
%TO.P,J3,6*%
%TO.N,/~IOCTRL*%
X53340000Y41910000D03*
%TO.P,J3,5*%
%TO.N,/~IO*%
X53340000Y39370000D03*
%TO.P,J3,4*%
%TO.N,/~RESET*%
X55880000Y41910000D03*
%TO.P,J3,3*%
%TO.N,/PHI2*%
X55880000Y39370000D03*
%TO.P,J3,2*%
%TO.N,/~ROMDIS*%
X58420000Y41910000D03*
D14*
%TO.P,J3,1*%
%TO.N,/~MAP*%
X58420000Y39370000D03*
%TD*%
D13*
%TO.P,J2,34*%
%TO.N,GND*%
X17780000Y24130000D03*
%TO.P,J2,33*%
%TO.N,+5VA*%
X17780000Y21590000D03*
%TO.P,J2,32*%
%TO.N,/A11*%
X20320000Y24130000D03*
%TO.P,J2,31*%
%TO.N,/A10*%
X20320000Y21590000D03*
%TO.P,J2,30*%
%TO.N,/A12*%
X22860000Y24130000D03*
%TO.P,J2,29*%
%TO.N,/A9*%
X22860000Y21590000D03*
%TO.P,J2,28*%
%TO.N,/A13*%
X25400000Y24130000D03*
%TO.P,J2,27*%
%TO.N,/A8*%
X25400000Y21590000D03*
%TO.P,J2,26*%
%TO.N,/A14*%
X27940000Y24130000D03*
%TO.P,J2,25*%
%TO.N,/A7*%
X27940000Y21590000D03*
%TO.P,J2,24*%
%TO.N,/A15*%
X30480000Y24130000D03*
%TO.P,J2,23*%
%TO.N,/A6*%
X30480000Y21590000D03*
%TO.P,J2,22*%
%TO.N,/D7*%
X33020000Y24130000D03*
%TO.P,J2,21*%
%TO.N,/A5*%
X33020000Y21590000D03*
%TO.P,J2,20*%
%TO.N,/A4*%
X35560000Y24130000D03*
%TO.P,J2,19*%
%TO.N,/D5*%
X35560000Y21590000D03*
%TO.P,J2,18*%
%TO.N,/D4*%
X38100000Y24130000D03*
%TO.P,J2,17*%
%TO.N,/A2*%
X38100000Y21590000D03*
%TO.P,J2,16*%
%TO.N,/D3*%
X40640000Y24130000D03*
%TO.P,J2,15*%
%TO.N,/A1*%
X40640000Y21590000D03*
%TO.P,J2,14*%
%TO.N,/D6*%
X43180000Y24130000D03*
%TO.P,J2,13*%
%TO.N,/A0*%
X43180000Y21590000D03*
%TO.P,J2,12*%
%TO.N,/D1*%
X45720000Y24130000D03*
%TO.P,J2,11*%
%TO.N,/A3*%
X45720000Y21590000D03*
%TO.P,J2,10*%
%TO.N,/D0*%
X48260000Y24130000D03*
%TO.P,J2,9*%
%TO.N,/D2*%
X48260000Y21590000D03*
%TO.P,J2,8*%
%TO.N,/~IRQ*%
X50800000Y24130000D03*
%TO.P,J2,7*%
%TO.N,/R_~W*%
X50800000Y21590000D03*
%TO.P,J2,6*%
%TO.N,/~IOCTRL*%
X53340000Y24130000D03*
%TO.P,J2,5*%
%TO.N,/~IO*%
X53340000Y21590000D03*
%TO.P,J2,4*%
%TO.N,/~RESET*%
X55880000Y24130000D03*
%TO.P,J2,3*%
%TO.N,/PHI2*%
X55880000Y21590000D03*
%TO.P,J2,2*%
%TO.N,/~ROMDIS*%
X58420000Y24130000D03*
D14*
%TO.P,J2,1*%
%TO.N,/~MAP*%
X58420000Y21590000D03*
%TD*%
%TO.P,J6,3*%
%TO.N,N/C*%
%TA.AperFunction,ComponentPad*%
G36*
G01*
X68885000Y27925000D02*
X68885000Y26175000D01*
G75*
G02*
X68010000Y25300000I-875000J0D01*
G01*
X66260000Y25300000D01*
G75*
G02*
X65385000Y26175000I0J875000D01*
G01*
X65385000Y27925000D01*
G75*
G02*
X66260000Y28800000I875000J0D01*
G01*
X68010000Y28800000D01*
G75*
G02*
X68885000Y27925000I0J-875000D01*
G01*
G37*
%TD.AperFunction*%
%TO.P,J6,2*%
%TO.N,GND*%
%TA.AperFunction,ComponentPad*%
G36*
G01*
X71635000Y32750000D02*
X71635000Y30750000D01*
G75*
G02*
X70885000Y30000000I-750000J0D01*
G01*
X69385000Y30000000D01*
G75*
G02*
X68635000Y30750000I0J750000D01*
G01*
X68635000Y32750000D01*
G75*
G02*
X69385000Y33500000I750000J0D01*
G01*
X70885000Y33500000D01*
G75*
G02*
X71635000Y32750000I0J-750000D01*
G01*
G37*
%TD.AperFunction*%
D17*
%TO.P,J6,1*%
%TO.N,Net-(J6-Pad1)*%
X64135000Y31750000D03*
%TD*%
D18*
%TO.P,JP1,3*%
%TO.N,+5V*%
X3810000Y31750000D03*
%TO.P,JP1,2*%
%TO.N,+5VA*%
X6350000Y31750000D03*
%TO.P,JP1,1*%
%TO.N,Net-(J6-Pad1)*%
X8890000Y31750000D03*
%TD*%
D12*
%TO.P,J1,34*%
%TO.N,GND*%
X17780000Y3810000D03*
%TO.P,J1,32*%
%TO.N,/A11*%
X20320000Y3810000D03*
%TO.P,J1,30*%
%TO.N,/A12*%
X22860000Y3810000D03*
%TO.P,J1,28*%
%TO.N,/A13*%
X25400000Y3810000D03*
%TO.P,J1,26*%
%TO.N,/A14*%
X27940000Y3810000D03*
%TO.P,J1,24*%
%TO.N,/A15*%
X30480000Y3810000D03*
%TO.P,J1,22*%
%TO.N,/D7*%
X33020000Y3810000D03*
%TO.P,J1,20*%
%TO.N,/A4*%
X35560000Y3810000D03*
%TO.P,J1,18*%
%TO.N,/D4*%
X38100000Y3810000D03*
%TO.P,J1,16*%
%TO.N,/D3*%
X40640000Y3810000D03*
%TO.P,J1,14*%
%TO.N,/D6*%
X43180000Y3810000D03*
%TO.P,J1,12*%
%TO.N,/D1*%
X45720000Y3810000D03*
%TO.P,J1,10*%
%TO.N,/D0*%
X48260000Y3810000D03*
%TO.P,J1,8*%
%TO.N,/~IRQ*%
X50800000Y3810000D03*
%TO.P,J1,6*%
%TO.N,/~IOCTRL*%
X53340000Y3810000D03*
%TO.P,J1,4*%
%TO.N,/~RESET*%
X55880000Y3810000D03*
%TO.P,J1,2*%
%TO.N,/~ROMDIS*%
X58420000Y3810000D03*
%TO.P,J1,33*%
%TO.N,+5V*%
X17780000Y6350000D03*
%TO.P,J1,31*%
%TO.N,/A10*%
X20320000Y6350000D03*
%TO.P,J1,29*%
%TO.N,/A9*%
X22860000Y6350000D03*
%TO.P,J1,27*%
%TO.N,/A8*%
X25400000Y6350000D03*
%TO.P,J1,25*%
%TO.N,/A7*%
X27940000Y6350000D03*
%TO.P,J1,23*%
%TO.N,/A6*%
X30480000Y6350000D03*
%TO.P,J1,21*%
%TO.N,/A5*%
X33020000Y6350000D03*
%TO.P,J1,19*%
%TO.N,/D5*%
X35560000Y6350000D03*
%TO.P,J1,17*%
%TO.N,/A2*%
X38100000Y6350000D03*
%TO.P,J1,15*%
%TO.N,/A1*%
X40640000Y6350000D03*
%TO.P,J1,13*%
%TO.N,/A0*%
X43180000Y6350000D03*
%TO.P,J1,11*%
%TO.N,/A3*%
X45720000Y6350000D03*
%TO.P,J1,9*%
%TO.N,/D2*%
X48260000Y6350000D03*
%TO.P,J1,7*%
%TO.N,/R_~W*%
X50800000Y6350000D03*
%TO.P,J1,5*%
%TO.N,/~IO*%
X53340000Y6350000D03*
%TO.P,J1,3*%
%TO.N,/PHI2*%
X55880000Y6350000D03*
%TO.P,J1,1*%
%TO.N,/~MAP*%
%TA.AperFunction,ComponentPad*%
G36*
G01*
X57820000Y7200000D02*
X59020000Y7200000D01*
G75*
G02*
X59270000Y6950000I0J-250000D01*
G01*
X59270000Y5750000D01*
G75*
G02*
X59020000Y5500000I-250000J0D01*
G01*
X57820000Y5500000D01*
G75*
G02*
X57570000Y5750000I0J250000D01*
G01*
X57570000Y6950000D01*
G75*
G02*
X57820000Y7200000I250000J0D01*
G01*
G37*
%TD.AperFunction*%
%TD*%
D19*
%TO.N,/A11*%
X20320000Y88265000D02*
X20320000Y77470000D01*
X20320000Y3810000D02*
X19050000Y5080000D01*
X19050000Y5080000D02*
X19050000Y22860000D01*
X19050000Y22860000D02*
X20320000Y24130000D01*
%TO.N,/A12*%
X22860000Y88265000D02*
X22860000Y77470000D01*
X22860000Y24130000D02*
X21590000Y22860000D01*
X21590000Y22860000D02*
X21590000Y5080000D01*
X21590000Y5080000D02*
X22860000Y3810000D01*
%TO.N,/A13*%
X25400000Y88265000D02*
X25400000Y77470000D01*
X24130000Y22860000D02*
X25400000Y24130000D01*
X24130000Y5080000D02*
X24130000Y22860000D01*
X25400000Y3810000D02*
X24130000Y5080000D01*
%TO.N,/A14*%
X27940000Y88265000D02*
X27940000Y77470000D01*
X27940000Y24130000D02*
X26670000Y22860000D01*
X26670000Y22860000D02*
X26670000Y5080000D01*
X26670000Y5080000D02*
X27940000Y3810000D01*
%TO.N,/A15*%
X30480000Y88265000D02*
X30480000Y77470000D01*
X30480000Y3810000D02*
X29210000Y5080000D01*
X29210000Y5080000D02*
X29210000Y22860000D01*
X29210000Y22860000D02*
X30480000Y24130000D01*
%TO.N,/D7*%
X33020000Y88265000D02*
X33020000Y77470000D01*
X33020000Y24130000D02*
X31750000Y22860000D01*
X31750000Y22860000D02*
X31750000Y5080000D01*
X31750000Y5080000D02*
X33020000Y3810000D01*
%TO.N,/A4*%
X35560000Y77470000D02*
X35560000Y88265000D01*
X35560000Y24130000D02*
X34290000Y22860000D01*
X34290000Y22860000D02*
X34290000Y5080000D01*
X34290000Y5080000D02*
X35560000Y3810000D01*
%TO.N,/D4*%
X38100000Y88265000D02*
X38100000Y77470000D01*
X36830000Y5080000D02*
X38100000Y3810000D01*
X36830000Y22860000D02*
X36830000Y5080000D01*
X38100000Y24130000D02*
X36830000Y22860000D01*
%TO.N,/D3*%
X40640000Y77470000D02*
X40640000Y88265000D01*
X40640000Y3810000D02*
X39370000Y5080000D01*
X39370000Y5080000D02*
X39370000Y22860000D01*
X39370000Y22860000D02*
X40640000Y24130000D01*
%TO.N,/D6*%
X43180000Y88265000D02*
X43180000Y77470000D01*
X41910000Y5080000D02*
X43180000Y3810000D01*
X41910000Y22860000D02*
X41910000Y5080000D01*
X43180000Y24130000D02*
X41910000Y22860000D01*
%TO.N,/D1*%
X45720000Y77470000D02*
X45720000Y88265000D01*
X45720000Y24130000D02*
X44450000Y22860000D01*
X44450000Y22860000D02*
X44450000Y5080000D01*
X44450000Y5080000D02*
X45720000Y3810000D01*
%TO.N,/D0*%
X48260000Y88265000D02*
X48260000Y77470000D01*
X46990000Y5080000D02*
X48260000Y3810000D01*
X46990000Y22860000D02*
X46990000Y5080000D01*
X48260000Y24130000D02*
X46990000Y22860000D01*
%TO.N,/~IRQ*%
X50800000Y77470000D02*
X50800000Y88265000D01*
X50800000Y3810000D02*
X49530000Y5080000D01*
X49530000Y5080000D02*
X49530000Y22860000D01*
X49530000Y22860000D02*
X50800000Y24130000D01*
%TO.N,/~IOCTRL*%
X53340000Y88265000D02*
X53340000Y77470000D01*
X53340000Y24130000D02*
X52070000Y22860000D01*
X52070000Y22860000D02*
X52070000Y5080000D01*
X52070000Y5080000D02*
X53340000Y3810000D01*
%TO.N,/~RESET*%
X55880000Y77470000D02*
X55880000Y88265000D01*
X55880000Y3810000D02*
X54610000Y5080000D01*
X54610000Y5080000D02*
X54610000Y22860000D01*
X54610000Y22860000D02*
X55880000Y24130000D01*
%TO.N,/~ROMDIS*%
X58420000Y88265000D02*
X58420000Y77470000D01*
X58420000Y24130000D02*
X57150000Y22860000D01*
X57150000Y22860000D02*
X57150000Y5080000D01*
X57150000Y5080000D02*
X57785000Y4445000D01*
X57785000Y4445000D02*
X58420000Y3810000D01*
X58420000Y59690000D02*
X58420000Y60325000D01*
X58420000Y60325000D02*
X59690000Y61595000D01*
X59690000Y76200000D02*
X59055000Y76835000D01*
X59690000Y61595000D02*
X59690000Y76200000D01*
X58420000Y77470000D02*
X59055000Y76835000D01*
%TO.N,/A10*%
X19050000Y40640000D02*
X20320000Y39370000D01*
X20320000Y74930000D02*
X20320000Y62865000D01*
X20320000Y62865000D02*
X19050000Y61595000D01*
X19050000Y58420000D02*
X20320000Y57150000D01*
X19050000Y61595000D02*
X19050000Y58420000D01*
X20320000Y46355000D02*
X19050000Y45085000D01*
X20320000Y57150000D02*
X20320000Y46355000D01*
X19050000Y45085000D02*
X19050000Y40640000D01*
X20320000Y90805000D02*
X19050000Y89535000D01*
X19050000Y89535000D02*
X19050000Y76200000D01*
X19050000Y76200000D02*
X20320000Y74930000D01*
%TO.N,/A9*%
X22860000Y39370000D02*
X22225000Y39370000D01*
X22860000Y39370000D02*
X21590000Y40640000D01*
X21590000Y40640000D02*
X21590000Y55880000D01*
X21590000Y55880000D02*
X22860000Y57150000D01*
X22860000Y74930000D02*
X22860000Y74295000D01*
X22860000Y74930000D02*
X21590000Y73660000D01*
X21590000Y73660000D02*
X21590000Y58420000D01*
X21590000Y58420000D02*
X22860000Y57150000D01*
X22860000Y74930000D02*
X21590000Y76200000D01*
X21590000Y76200000D02*
X21590000Y89535000D01*
X21590000Y89535000D02*
X22860000Y90805000D01*
%TO.N,/A8*%
X25400000Y57150000D02*
X24130000Y55880000D01*
X24130000Y55880000D02*
X24130000Y40640000D01*
X24130000Y40640000D02*
X25400000Y39370000D01*
X25400000Y57150000D02*
X24765000Y57150000D01*
X24765000Y57150000D02*
X24130000Y57785000D01*
X24130000Y73660000D02*
X25400000Y74930000D01*
X24130000Y57785000D02*
X24130000Y73660000D01*
X25400000Y90805000D02*
X24130000Y89535000D01*
X24130000Y89535000D02*
X24130000Y76200000D01*
X24130000Y76200000D02*
X25400000Y74930000D01*
%TO.N,/A7*%
X26670000Y55880000D02*
X27940000Y57150000D01*
X26670000Y40640000D02*
X26670000Y55880000D01*
X27940000Y39370000D02*
X26670000Y40640000D01*
X27940000Y57150000D02*
X26670000Y58420000D01*
X26670000Y58420000D02*
X26670000Y73660000D01*
X26670000Y73660000D02*
X27940000Y74930000D01*
X27940000Y74930000D02*
X26670000Y76200000D01*
X26670000Y76200000D02*
X26670000Y89535000D01*
X26670000Y89535000D02*
X27940000Y90805000D01*
%TO.N,/A6*%
X30480000Y39370000D02*
X29210000Y40640000D01*
X29210000Y40640000D02*
X29210000Y55880000D01*
X29210000Y55880000D02*
X30480000Y57150000D01*
X29210000Y73660000D02*
X30480000Y74930000D01*
X29210000Y58420000D02*
X29210000Y73660000D01*
X30480000Y57150000D02*
X29210000Y58420000D01*
X30480000Y74930000D02*
X29845000Y74930000D01*
X30480000Y74930000D02*
X29210000Y76200000D01*
X29210000Y76200000D02*
X29210000Y89535000D01*
X29210000Y89535000D02*
X30480000Y90805000D01*
%TO.N,/A5*%
X33020000Y39370000D02*
X31750000Y40640000D01*
X31750000Y40640000D02*
X31750000Y55880000D01*
X31750000Y55880000D02*
X33020000Y57150000D01*
X33020000Y74930000D02*
X31750000Y73660000D01*
X31750000Y73660000D02*
X31750000Y58420000D01*
X31750000Y58420000D02*
X33020000Y57150000D01*
X33020000Y90805000D02*
X31750000Y89535000D01*
X31750000Y89535000D02*
X31750000Y76200000D01*
X31750000Y76200000D02*
X33020000Y74930000D01*
%TO.N,/D5*%
X35560000Y57150000D02*
X34290000Y55880000D01*
X34290000Y55880000D02*
X34290000Y40640000D01*
X34290000Y40640000D02*
X35560000Y39370000D01*
X35560000Y57150000D02*
X35560000Y57785000D01*
X35560000Y57150000D02*
X34290000Y58420000D01*
X34290000Y58420000D02*
X34290000Y73660000D01*
X34290000Y73660000D02*
X35560000Y74930000D01*
X35560000Y74930000D02*
X34925000Y74930000D01*
X35560000Y74930000D02*
X34290000Y76200000D01*
X34290000Y76200000D02*
X34290000Y89535000D01*
X34290000Y89535000D02*
X35560000Y90805000D01*
%TO.N,/A2*%
X38100000Y57150000D02*
X36830000Y55880000D01*
X36830000Y55880000D02*
X36830000Y40640000D01*
X36830000Y40640000D02*
X38100000Y39370000D01*
X38100000Y74930000D02*
X36830000Y73660000D01*
X36830000Y73660000D02*
X36830000Y58420000D01*
X36830000Y58420000D02*
X38100000Y57150000D01*
X38100000Y90805000D02*
X36830000Y89535000D01*
X36830000Y89535000D02*
X36830000Y76200000D01*
X36830000Y76200000D02*
X38100000Y74930000D01*
%TO.N,/A1*%
X40640000Y39370000D02*
X39370000Y40640000D01*
X39370000Y40640000D02*
X39370000Y55880000D01*
X39370000Y55880000D02*
X40640000Y57150000D01*
X40640000Y57150000D02*
X39370000Y58420000D01*
X39370000Y58420000D02*
X39370000Y73660000D01*
X39370000Y73660000D02*
X40640000Y74930000D01*
X39370000Y89535000D02*
X40640000Y90805000D01*
X39370000Y76200000D02*
X39370000Y89535000D01*
X40640000Y74930000D02*
X39370000Y76200000D01*
%TO.N,/A0*%
X43180000Y57150000D02*
X41910000Y55880000D01*
X41910000Y55880000D02*
X41910000Y40640000D01*
X41910000Y40640000D02*
X43180000Y39370000D01*
X43180000Y74930000D02*
X41910000Y73660000D01*
X41910000Y73660000D02*
X41910000Y58420000D01*
X41910000Y58420000D02*
X43180000Y57150000D01*
X43180000Y90805000D02*
X41910000Y89535000D01*
X41910000Y89535000D02*
X41910000Y76200000D01*
X41910000Y76200000D02*
X43180000Y74930000D01*
%TO.N,/A3*%
X45720000Y39370000D02*
X44450000Y40640000D01*
X44450000Y40640000D02*
X44450000Y55880000D01*
X44450000Y55880000D02*
X45720000Y57150000D01*
X45720000Y57150000D02*
X44450000Y58420000D01*
X44450000Y58420000D02*
X44450000Y73660000D01*
X44450000Y73660000D02*
X45720000Y74930000D01*
X45720000Y74930000D02*
X44450000Y76200000D01*
X44450000Y76200000D02*
X44450000Y89535000D01*
X44450000Y89535000D02*
X45720000Y90805000D01*
%TO.N,/D2*%
X48260000Y57150000D02*
X46990000Y55880000D01*
X46990000Y55880000D02*
X46990000Y40640000D01*
X46990000Y40640000D02*
X48260000Y39370000D01*
X48260000Y74930000D02*
X46990000Y73660000D01*
X46990000Y73660000D02*
X46990000Y58420000D01*
X46990000Y58420000D02*
X48260000Y57150000D01*
X48260000Y90805000D02*
X46990000Y89535000D01*
X46990000Y89535000D02*
X46990000Y76200000D01*
X46990000Y76200000D02*
X48260000Y74930000D01*
%TO.N,/R_~W*%
X50800000Y21590000D02*
X50165000Y21590000D01*
X50800000Y39370000D02*
X49530000Y40640000D01*
X49530000Y40640000D02*
X49530000Y55880000D01*
X49530000Y55880000D02*
X50800000Y57150000D01*
X50800000Y57150000D02*
X49530000Y58420000D01*
X49530000Y58420000D02*
X49530000Y73660000D01*
X49530000Y73660000D02*
X50800000Y74930000D01*
X50800000Y74930000D02*
X49530000Y76200000D01*
X49530000Y76200000D02*
X49530000Y89535000D01*
X49530000Y89535000D02*
X50800000Y90805000D01*
%TO.N,/~IO*%
X53340000Y57150000D02*
X52070000Y55880000D01*
X52070000Y55880000D02*
X52070000Y40640000D01*
X52070000Y40640000D02*
X53340000Y39370000D01*
X53340000Y74930000D02*
X52070000Y73660000D01*
X52070000Y73660000D02*
X52070000Y58420000D01*
X52070000Y58420000D02*
X53340000Y57150000D01*
X53340000Y90805000D02*
X52070000Y89535000D01*
X52070000Y89535000D02*
X52070000Y76200000D01*
X52070000Y76200000D02*
X53340000Y74930000D01*
%TO.N,/PHI2*%
X55880000Y39370000D02*
X54610000Y40640000D01*
X54610000Y40640000D02*
X54610000Y55880000D01*
X54610000Y55880000D02*
X55880000Y57150000D01*
X55880000Y57150000D02*
X54610000Y58420000D01*
X54610000Y58420000D02*
X54610000Y73660000D01*
X54610000Y73660000D02*
X55880000Y74930000D01*
X55880000Y74930000D02*
X54610000Y76200000D01*
X54610000Y76200000D02*
X54610000Y89535000D01*
X54610000Y89535000D02*
X55880000Y90805000D01*
%TO.N,/~MAP*%
X58420000Y57150000D02*
X57150000Y55880000D01*
X57150000Y55880000D02*
X57150000Y40640000D01*
X57150000Y40640000D02*
X58420000Y39370000D01*
X58420000Y74930000D02*
X57150000Y73660000D01*
X57150000Y73660000D02*
X57150000Y58420000D01*
X57150000Y58420000D02*
X58420000Y57150000D01*
X58420000Y90805000D02*
X57150000Y89535000D01*
X57150000Y89535000D02*
X57150000Y76200000D01*
X57150000Y76200000D02*
X58420000Y74930000D01*
D20*
%TO.N,Net-(J6-Pad1)*%
X64135000Y31750000D02*
X34290000Y31750000D01*
X34290000Y31750000D02*
X30480000Y27940000D01*
X30480000Y27940000D02*
X14605000Y27940000D01*
X10795000Y31750000D02*
X8890000Y31750000D01*
X14605000Y27940000D02*
X10795000Y31750000D01*
%TD*%
D21*
%TO.N,GND*%
X75540001Y660000D02*
X660000Y660000D01*
X660000Y2781603D01*
X16931208Y2781603D01*
X17008843Y2532528D01*
X17272883Y2406629D01*
X17556411Y2334661D01*
X17848531Y2319389D01*
X18138019Y2361401D01*
X18413747Y2459081D01*
X18551157Y2532528D01*
X18628792Y2781603D01*
X17780000Y3630395D01*
X16931208Y2781603D01*
X660000Y2781603D01*
X660000Y3741469D01*
X16289389Y3741469D01*
X16331401Y3451981D01*
X16429081Y3176253D01*
X16502528Y3038843D01*
X16751603Y2961208D01*
X17600395Y3810000D01*
X16751603Y4658792D01*
X16502528Y4581157D01*
X16376629Y4317117D01*
X16304661Y4033589D01*
X16289389Y3741469D01*
X660000Y3741469D01*
X660000Y16095128D01*
X5385000Y16095128D01*
X5385000Y15654872D01*
X5470890Y15223075D01*
X5639369Y14816331D01*
X5883962Y14450271D01*
X6195271Y14138962D01*
X6561331Y13894369D01*
X6968075Y13725890D01*
X7399872Y13640000D01*
X7840128Y13640000D01*
X8271925Y13725890D01*
X8678669Y13894369D01*
X9044729Y14138962D01*
X9356038Y14450271D01*
X9600631Y14816331D01*
X9769110Y15223075D01*
X9855000Y15654872D01*
X9855000Y16095128D01*
X9769110Y16526925D01*
X9600631Y16933669D01*
X9356038Y17299729D01*
X9044729Y17611038D01*
X8678669Y17855631D01*
X8271925Y18024110D01*
X7840128Y18110000D01*
X7399872Y18110000D01*
X6968075Y18024110D01*
X6561331Y17855631D01*
X6195271Y17611038D01*
X5883962Y17299729D01*
X5639369Y16933669D01*
X5470890Y16526925D01*
X5385000Y16095128D01*
X660000Y16095128D01*
X660000Y21736260D01*
X16295000Y21736260D01*
X16295000Y21443740D01*
X16352068Y21156842D01*
X16464010Y20886589D01*
X16626525Y20643368D01*
X16833368Y20436525D01*
X17076589Y20274010D01*
X17346842Y20162068D01*
X17633740Y20105000D01*
X17926260Y20105000D01*
X18213158Y20162068D01*
X18215001Y20162831D01*
X18215001Y17313072D01*
X16980000Y17313072D01*
X16855518Y17300812D01*
X16735820Y17264502D01*
X16625506Y17205537D01*
X16528815Y17126185D01*
X16449463Y17029494D01*
X16390498Y16919180D01*
X16354188Y16799482D01*
X16341928Y16675000D01*
X16341928Y15075000D01*
X16354188Y14950518D01*
X16390498Y14830820D01*
X16449463Y14720506D01*
X16528815Y14623815D01*
X16541758Y14613193D01*
X16422429Y14361004D01*
X16353700Y14086816D01*
X16339783Y13804488D01*
X16381213Y13524870D01*
X16476397Y13258708D01*
X16543329Y13133486D01*
X16787298Y13061903D01*
X17600395Y13875000D01*
X17586253Y13889142D01*
X17765858Y14068747D01*
X17780000Y14054605D01*
X17794143Y14068747D01*
X17973748Y13889142D01*
X17959605Y13875000D01*
X17973748Y13860857D01*
X17794143Y13681252D01*
X17780000Y13695395D01*
X16966903Y12882298D01*
X17038486Y12638329D01*
X17293996Y12517429D01*
X17568184Y12448700D01*
X17850512Y12434783D01*
X18130130Y12476213D01*
X18215000Y12506564D01*
X18215000Y7777169D01*
X18213158Y7777932D01*
X17926260Y7835000D01*
X17633740Y7835000D01*
X17346842Y7777932D01*
X17076589Y7665990D01*
X16833368Y7503475D01*
X16626525Y7296632D01*
X16464010Y7053411D01*
X16352068Y6783158D01*
X16295000Y6496260D01*
X16295000Y6203740D01*
X16352068Y5916842D01*
X16464010Y5646589D01*
X16626525Y5403368D01*
X16833368Y5196525D01*
X17006729Y5080689D01*
X16931208Y4838397D01*
X17780000Y3989605D01*
X17794143Y4003747D01*
X17973748Y3824142D01*
X17959605Y3810000D01*
X18808397Y2961208D01*
X19050689Y3036729D01*
X19166525Y2863368D01*
X19373368Y2656525D01*
X19616589Y2494010D01*
X19886842Y2382068D01*
X20173740Y2325000D01*
X20466260Y2325000D01*
X20753158Y2382068D01*
X21023411Y2494010D01*
X21266632Y2656525D01*
X21473475Y2863368D01*
X21590000Y3037760D01*
X21706525Y2863368D01*
X21913368Y2656525D01*
X22156589Y2494010D01*
X22426842Y2382068D01*
X22713740Y2325000D01*
X23006260Y2325000D01*
X23293158Y2382068D01*
X23563411Y2494010D01*
X23806632Y2656525D01*
X24013475Y2863368D01*
X24130000Y3037760D01*
X24246525Y2863368D01*
X24453368Y2656525D01*
X24696589Y2494010D01*
X24966842Y2382068D01*
X25253740Y2325000D01*
X25546260Y2325000D01*
X25833158Y2382068D01*
X26103411Y2494010D01*
X26346632Y2656525D01*
X26553475Y2863368D01*
X26670000Y3037760D01*
X26786525Y2863368D01*
X26993368Y2656525D01*
X27236589Y2494010D01*
X27506842Y2382068D01*
X27793740Y2325000D01*
X28086260Y2325000D01*
X28373158Y2382068D01*
X28643411Y2494010D01*
X28886632Y2656525D01*
X29093475Y2863368D01*
X29210000Y3037760D01*
X29326525Y2863368D01*
X29533368Y2656525D01*
X29776589Y2494010D01*
X30046842Y2382068D01*
X30333740Y2325000D01*
X30626260Y2325000D01*
X30913158Y2382068D01*
X31183411Y2494010D01*
X31426632Y2656525D01*
X31633475Y2863368D01*
X31750000Y3037760D01*
X31866525Y2863368D01*
X32073368Y2656525D01*
X32316589Y2494010D01*
X32586842Y2382068D01*
X32873740Y2325000D01*
X33166260Y2325000D01*
X33453158Y2382068D01*
X33723411Y2494010D01*
X33966632Y2656525D01*
X34173475Y2863368D01*
X34290000Y3037760D01*
X34406525Y2863368D01*
X34613368Y2656525D01*
X34856589Y2494010D01*
X35126842Y2382068D01*
X35413740Y2325000D01*
X35706260Y2325000D01*
X35993158Y2382068D01*
X36263411Y2494010D01*
X36506632Y2656525D01*
X36713475Y2863368D01*
X36830000Y3037760D01*
X36946525Y2863368D01*
X37153368Y2656525D01*
X37396589Y2494010D01*
X37666842Y2382068D01*
X37953740Y2325000D01*
X38246260Y2325000D01*
X38533158Y2382068D01*
X38803411Y2494010D01*
X39046632Y2656525D01*
X39253475Y2863368D01*
X39370000Y3037760D01*
X39486525Y2863368D01*
X39693368Y2656525D01*
X39936589Y2494010D01*
X40206842Y2382068D01*
X40493740Y2325000D01*
X40786260Y2325000D01*
X41073158Y2382068D01*
X41343411Y2494010D01*
X41586632Y2656525D01*
X41793475Y2863368D01*
X41910000Y3037760D01*
X42026525Y2863368D01*
X42233368Y2656525D01*
X42476589Y2494010D01*
X42746842Y2382068D01*
X43033740Y2325000D01*
X43326260Y2325000D01*
X43613158Y2382068D01*
X43883411Y2494010D01*
X44126632Y2656525D01*
X44333475Y2863368D01*
X44450000Y3037760D01*
X44566525Y2863368D01*
X44773368Y2656525D01*
X45016589Y2494010D01*
X45286842Y2382068D01*
X45573740Y2325000D01*
X45866260Y2325000D01*
X46153158Y2382068D01*
X46423411Y2494010D01*
X46666632Y2656525D01*
X46873475Y2863368D01*
X46990000Y3037760D01*
X47106525Y2863368D01*
X47313368Y2656525D01*
X47556589Y2494010D01*
X47826842Y2382068D01*
X48113740Y2325000D01*
X48406260Y2325000D01*
X48693158Y2382068D01*
X48963411Y2494010D01*
X49206632Y2656525D01*
X49413475Y2863368D01*
X49530000Y3037760D01*
X49646525Y2863368D01*
X49853368Y2656525D01*
X50096589Y2494010D01*
X50366842Y2382068D01*
X50653740Y2325000D01*
X50946260Y2325000D01*
X51233158Y2382068D01*
X51503411Y2494010D01*
X51746632Y2656525D01*
X51953475Y2863368D01*
X52070000Y3037760D01*
X52186525Y2863368D01*
X52393368Y2656525D01*
X52636589Y2494010D01*
X52906842Y2382068D01*
X53193740Y2325000D01*
X53486260Y2325000D01*
X53773158Y2382068D01*
X54043411Y2494010D01*
X54286632Y2656525D01*
X54493475Y2863368D01*
X54610000Y3037760D01*
X54726525Y2863368D01*
X54933368Y2656525D01*
X55176589Y2494010D01*
X55446842Y2382068D01*
X55733740Y2325000D01*
X56026260Y2325000D01*
X56313158Y2382068D01*
X56583411Y2494010D01*
X56826632Y2656525D01*
X57033475Y2863368D01*
X57150000Y3037760D01*
X57266525Y2863368D01*
X57473368Y2656525D01*
X57716589Y2494010D01*
X57986842Y2382068D01*
X58273740Y2325000D01*
X58566260Y2325000D01*
X58853158Y2382068D01*
X59123411Y2494010D01*
X59366632Y2656525D01*
X59573475Y2863368D01*
X59735990Y3106589D01*
X59847932Y3376842D01*
X59905000Y3663740D01*
X59905000Y3956260D01*
X59847932Y4243158D01*
X59735990Y4513411D01*
X59573475Y4756632D01*
X59386392Y4943715D01*
X59513386Y5011595D01*
X59647962Y5122038D01*
X59758405Y5256614D01*
X59840472Y5410150D01*
X59891008Y5576746D01*
X59908072Y5750000D01*
X59908072Y6950000D01*
X59891008Y7123254D01*
X59840472Y7289850D01*
X59758405Y7443386D01*
X59647962Y7577962D01*
X59513386Y7688405D01*
X59359850Y7770472D01*
X59193254Y7821008D01*
X59020000Y7838072D01*
X57985000Y7838072D01*
X57985000Y16095128D01*
X66345000Y16095128D01*
X66345000Y15654872D01*
X66430890Y15223075D01*
X66599369Y14816331D01*
X66843962Y14450271D01*
X67155271Y14138962D01*
X67521331Y13894369D01*
X67928075Y13725890D01*
X68359872Y13640000D01*
X68800128Y13640000D01*
X69231925Y13725890D01*
X69638669Y13894369D01*
X70004729Y14138962D01*
X70316038Y14450271D01*
X70560631Y14816331D01*
X70729110Y15223075D01*
X70815000Y15654872D01*
X70815000Y16095128D01*
X70729110Y16526925D01*
X70560631Y16933669D01*
X70316038Y17299729D01*
X70004729Y17611038D01*
X69638669Y17855631D01*
X69231925Y18024110D01*
X68800128Y18110000D01*
X68359872Y18110000D01*
X67928075Y18024110D01*
X67521331Y17855631D01*
X67155271Y17611038D01*
X66843962Y17299729D01*
X66599369Y16933669D01*
X66430890Y16526925D01*
X66345000Y16095128D01*
X57985000Y16095128D01*
X57985000Y20101928D01*
X59270000Y20101928D01*
X59394482Y20114188D01*
X59514180Y20150498D01*
X59624494Y20209463D01*
X59721185Y20288815D01*
X59800537Y20385506D01*
X59859502Y20495820D01*
X59895812Y20615518D01*
X59908072Y20740000D01*
X59908072Y22440000D01*
X59895812Y22564482D01*
X59859502Y22684180D01*
X59800537Y22794494D01*
X59721185Y22891185D01*
X59624494Y22970537D01*
X59514180Y23029502D01*
X59441620Y23051513D01*
X59573475Y23183368D01*
X59735990Y23426589D01*
X59847932Y23696842D01*
X59905000Y23983740D01*
X59905000Y24276260D01*
X59847932Y24563158D01*
X59735990Y24833411D01*
X59573475Y25076632D01*
X59366632Y25283475D01*
X59123411Y25445990D01*
X58853158Y25557932D01*
X58566260Y25615000D01*
X58273740Y25615000D01*
X57986842Y25557932D01*
X57716589Y25445990D01*
X57473368Y25283475D01*
X57266525Y25076632D01*
X57150000Y24902240D01*
X57033475Y25076632D01*
X56826632Y25283475D01*
X56583411Y25445990D01*
X56313158Y25557932D01*
X56026260Y25615000D01*
X55733740Y25615000D01*
X55446842Y25557932D01*
X55176589Y25445990D01*
X54933368Y25283475D01*
X54726525Y25076632D01*
X54610000Y24902240D01*
X54493475Y25076632D01*
X54286632Y25283475D01*
X54043411Y25445990D01*
X53773158Y25557932D01*
X53486260Y25615000D01*
X53193740Y25615000D01*
X52906842Y25557932D01*
X52636589Y25445990D01*
X52393368Y25283475D01*
X52186525Y25076632D01*
X52070000Y24902240D01*
X51953475Y25076632D01*
X51746632Y25283475D01*
X51503411Y25445990D01*
X51233158Y25557932D01*
X50946260Y25615000D01*
X50653740Y25615000D01*
X50366842Y25557932D01*
X50096589Y25445990D01*
X49853368Y25283475D01*
X49646525Y25076632D01*
X49530000Y24902240D01*
X49413475Y25076632D01*
X49206632Y25283475D01*
X48963411Y25445990D01*
X48693158Y25557932D01*
X48406260Y25615000D01*
X48113740Y25615000D01*
X47826842Y25557932D01*
X47556589Y25445990D01*
X47313368Y25283475D01*
X47106525Y25076632D01*
X46990000Y24902240D01*
X46873475Y25076632D01*
X46666632Y25283475D01*
X46423411Y25445990D01*
X46153158Y25557932D01*
X45866260Y25615000D01*
X45573740Y25615000D01*
X45286842Y25557932D01*
X45016589Y25445990D01*
X44773368Y25283475D01*
X44566525Y25076632D01*
X44450000Y24902240D01*
X44333475Y25076632D01*
X44126632Y25283475D01*
X43883411Y25445990D01*
X43613158Y25557932D01*
X43326260Y25615000D01*
X43033740Y25615000D01*
X42746842Y25557932D01*
X42476589Y25445990D01*
X42233368Y25283475D01*
X42026525Y25076632D01*
X41910000Y24902240D01*
X41793475Y25076632D01*
X41586632Y25283475D01*
X41343411Y25445990D01*
X41073158Y25557932D01*
X40786260Y25615000D01*
X40493740Y25615000D01*
X40206842Y25557932D01*
X39936589Y25445990D01*
X39693368Y25283475D01*
X39486525Y25076632D01*
X39370000Y24902240D01*
X39253475Y25076632D01*
X39046632Y25283475D01*
X38803411Y25445990D01*
X38533158Y25557932D01*
X38246260Y25615000D01*
X37953740Y25615000D01*
X37666842Y25557932D01*
X37396589Y25445990D01*
X37153368Y25283475D01*
X36946525Y25076632D01*
X36830000Y24902240D01*
X36713475Y25076632D01*
X36506632Y25283475D01*
X36263411Y25445990D01*
X35993158Y25557932D01*
X35706260Y25615000D01*
X35413740Y25615000D01*
X35126842Y25557932D01*
X34856589Y25445990D01*
X34613368Y25283475D01*
X34406525Y25076632D01*
X34290000Y24902240D01*
X34173475Y25076632D01*
X33966632Y25283475D01*
X33723411Y25445990D01*
X33453158Y25557932D01*
X33166260Y25615000D01*
X32873740Y25615000D01*
X32586842Y25557932D01*
X32316589Y25445990D01*
X32073368Y25283475D01*
X31866525Y25076632D01*
X31750000Y24902240D01*
X31633475Y25076632D01*
X31426632Y25283475D01*
X31183411Y25445990D01*
X30913158Y25557932D01*
X30626260Y25615000D01*
X30333740Y25615000D01*
X30046842Y25557932D01*
X29776589Y25445990D01*
X29533368Y25283475D01*
X29326525Y25076632D01*
X29210000Y24902240D01*
X29093475Y25076632D01*
X28886632Y25283475D01*
X28643411Y25445990D01*
X28373158Y25557932D01*
X28086260Y25615000D01*
X27793740Y25615000D01*
X27506842Y25557932D01*
X27236589Y25445990D01*
X26993368Y25283475D01*
X26786525Y25076632D01*
X26670000Y24902240D01*
X26553475Y25076632D01*
X26346632Y25283475D01*
X26103411Y25445990D01*
X25833158Y25557932D01*
X25546260Y25615000D01*
X25253740Y25615000D01*
X24966842Y25557932D01*
X24696589Y25445990D01*
X24453368Y25283475D01*
X24246525Y25076632D01*
X24130000Y24902240D01*
X24013475Y25076632D01*
X23806632Y25283475D01*
X23563411Y25445990D01*
X23293158Y25557932D01*
X23006260Y25615000D01*
X22713740Y25615000D01*
X22426842Y25557932D01*
X22156589Y25445990D01*
X21913368Y25283475D01*
X21706525Y25076632D01*
X21590000Y24902240D01*
X21473475Y25076632D01*
X21266632Y25283475D01*
X21023411Y25445990D01*
X20753158Y25557932D01*
X20466260Y25615000D01*
X20173740Y25615000D01*
X19886842Y25557932D01*
X19616589Y25445990D01*
X19373368Y25283475D01*
X19166525Y25076632D01*
X19044805Y24894466D01*
X18975178Y25011355D01*
X18780269Y25227588D01*
X18546920Y25401641D01*
X18284099Y25526825D01*
X18136890Y25571476D01*
X17907000Y25450155D01*
X17907000Y24257000D01*
X17927000Y24257000D01*
X17927000Y24003000D01*
X17907000Y24003000D01*
X17907000Y23983000D01*
X17653000Y23983000D01*
X17653000Y24003000D01*
X16459186Y24003000D01*
X16338519Y23773109D01*
X16435843Y23498748D01*
X16584822Y23248645D01*
X16779731Y23032412D01*
X17009406Y22861100D01*
X16833368Y22743475D01*
X16626525Y22536632D01*
X16464010Y22293411D01*
X16352068Y22023158D01*
X16295000Y21736260D01*
X660000Y21736260D01*
X660000Y24486891D01*
X16338519Y24486891D01*
X16459186Y24257000D01*
X17653000Y24257000D01*
X17653000Y25450155D01*
X17423110Y25571476D01*
X17275901Y25526825D01*
X17013080Y25401641D01*
X16779731Y25227588D01*
X16584822Y25011355D01*
X16435843Y24761252D01*
X16338519Y24486891D01*
X660000Y24486891D01*
X660000Y32172950D01*
X2325000Y32172950D01*
X2325000Y31327051D01*
X2346487Y31108890D01*
X2431401Y30828967D01*
X2569294Y30570987D01*
X2754866Y30344866D01*
X2980986Y30159294D01*
X3238966Y30021401D01*
X3518889Y29936487D01*
X3810000Y29907815D01*
X4101110Y29936487D01*
X4381033Y30021401D01*
X4639013Y30159294D01*
X4865134Y30344866D01*
X5050706Y30570986D01*
X5080000Y30625792D01*
X5109294Y30570987D01*
X5294866Y30344866D01*
X5520986Y30159294D01*
X5778966Y30021401D01*
X6058889Y29936487D01*
X6350000Y29907815D01*
X6641110Y29936487D01*
X6921033Y30021401D01*
X7179013Y30159294D01*
X7405134Y30344866D01*
X7590706Y30570986D01*
X7620000Y30625792D01*
X7649294Y30570987D01*
X7834866Y30344866D01*
X8060986Y30159294D01*
X8318966Y30021401D01*
X8598889Y29936487D01*
X8890000Y29907815D01*
X9181110Y29936487D01*
X9461033Y30021401D01*
X9719013Y30159294D01*
X9945134Y30344866D01*
X10130706Y30570986D01*
X10154232Y30615000D01*
X10324869Y30615000D01*
X13763013Y27176854D01*
X13798551Y27133551D01*
X13841854Y27098013D01*
X13841856Y27098011D01*
X13971377Y26991716D01*
X14168553Y26886324D01*
X14382501Y26821423D01*
X14605000Y26799509D01*
X14660752Y26805000D01*
X30424249Y26805000D01*
X30480000Y26799509D01*
X30535751Y26805000D01*
X30535752Y26805000D01*
X30702499Y26821423D01*
X30916447Y26886324D01*
X31113623Y26991716D01*
X31286449Y27133551D01*
X31321996Y27176865D01*
X34760133Y30615000D01*
X61746928Y30615000D01*
X61746928Y30000000D01*
X61759188Y29875518D01*
X61795498Y29755820D01*
X61854463Y29645506D01*
X61933815Y29548815D01*
X62030506Y29469463D01*
X62140820Y29410498D01*
X62260518Y29374188D01*
X62385000Y29361928D01*
X65809643Y29361928D01*
X65680972Y29322896D01*
X65419382Y29183073D01*
X65190097Y28994903D01*
X65001927Y28765618D01*
X64862104Y28504028D01*
X64776001Y28220186D01*
X64746928Y27925000D01*
X64746928Y26175000D01*
X64776001Y25879814D01*
X64862104Y25595972D01*
X65001927Y25334382D01*
X65190097Y25105097D01*
X65419382Y24916927D01*
X65680972Y24777104D01*
X65964814Y24691001D01*
X66260000Y24661928D01*
X68010000Y24661928D01*
X68305186Y24691001D01*
X68589028Y24777104D01*
X68850618Y24916927D01*
X69079903Y25105097D01*
X69268073Y25334382D01*
X69407896Y25595972D01*
X69493999Y25879814D01*
X69523072Y26175000D01*
X69523072Y27925000D01*
X69493999Y28220186D01*
X69407896Y28504028D01*
X69268073Y28765618D01*
X69079903Y28994903D01*
X68850618Y29183073D01*
X68589028Y29322896D01*
X68305186Y29408999D01*
X68010000Y29438072D01*
X66260000Y29438072D01*
X66162869Y29428506D01*
X66239494Y29469463D01*
X66336185Y29548815D01*
X66415537Y29645506D01*
X66474502Y29755820D01*
X66510812Y29875518D01*
X66523072Y30000000D01*
X67996928Y30000000D01*
X68009188Y29875518D01*
X68045498Y29755820D01*
X68104463Y29645506D01*
X68183815Y29548815D01*
X68280506Y29469463D01*
X68390820Y29410498D01*
X68510518Y29374188D01*
X68635000Y29361928D01*
X69849250Y29365000D01*
X70008000Y29523750D01*
X70008000Y31623000D01*
X70262000Y31623000D01*
X70262000Y29523750D01*
X70420750Y29365000D01*
X71635000Y29361928D01*
X71759482Y29374188D01*
X71879180Y29410498D01*
X71989494Y29469463D01*
X72086185Y29548815D01*
X72165537Y29645506D01*
X72224502Y29755820D01*
X72260812Y29875518D01*
X72273072Y30000000D01*
X72270000Y31464250D01*
X72111250Y31623000D01*
X70262000Y31623000D01*
X70008000Y31623000D01*
X68158750Y31623000D01*
X68000000Y31464250D01*
X67996928Y30000000D01*
X66523072Y30000000D01*
X66523072Y33500000D01*
X67996928Y33500000D01*
X68000000Y32035750D01*
X68158750Y31877000D01*
X70008000Y31877000D01*
X70008000Y33976250D01*
X70262000Y33976250D01*
X70262000Y31877000D01*
X72111250Y31877000D01*
X72270000Y32035750D01*
X72273072Y33500000D01*
X72260812Y33624482D01*
X72224502Y33744180D01*
X72165537Y33854494D01*
X72086185Y33951185D01*
X71989494Y34030537D01*
X71879180Y34089502D01*
X71759482Y34125812D01*
X71635000Y34138072D01*
X70420750Y34135000D01*
X70262000Y33976250D01*
X70008000Y33976250D01*
X69849250Y34135000D01*
X68635000Y34138072D01*
X68510518Y34125812D01*
X68390820Y34089502D01*
X68280506Y34030537D01*
X68183815Y33951185D01*
X68104463Y33854494D01*
X68045498Y33744180D01*
X68009188Y33624482D01*
X67996928Y33500000D01*
X66523072Y33500000D01*
X66510812Y33624482D01*
X66474502Y33744180D01*
X66415537Y33854494D01*
X66336185Y33951185D01*
X66239494Y34030537D01*
X66129180Y34089502D01*
X66009482Y34125812D01*
X65885000Y34138072D01*
X62385000Y34138072D01*
X62260518Y34125812D01*
X62140820Y34089502D01*
X62030506Y34030537D01*
X61933815Y33951185D01*
X61854463Y33854494D01*
X61795498Y33744180D01*
X61759188Y33624482D01*
X61746928Y33500000D01*
X61746928Y32885000D01*
X34345752Y32885000D01*
X34290000Y32890491D01*
X34067501Y32868577D01*
X33853553Y32803676D01*
X33656377Y32698284D01*
X33526856Y32591989D01*
X33526855Y32591988D01*
X33483551Y32556449D01*
X33448013Y32513146D01*
X30009869Y29075000D01*
X15075133Y29075000D01*
X14122835Y30027298D01*
X16966903Y30027298D01*
X17038486Y29783329D01*
X17293996Y29662429D01*
X17568184Y29593700D01*
X17850512Y29579783D01*
X18130130Y29621213D01*
X18396292Y29716397D01*
X18521514Y29783329D01*
X18593097Y30027298D01*
X17780000Y30840395D01*
X16966903Y30027298D01*
X14122835Y30027298D01*
X13200644Y30949488D01*
X16339783Y30949488D01*
X16381213Y30669870D01*
X16476397Y30403708D01*
X16543329Y30278486D01*
X16787298Y30206903D01*
X17600395Y31020000D01*
X17586253Y31034142D01*
X17765858Y31213747D01*
X17780000Y31199605D01*
X17794143Y31213747D01*
X17973748Y31034142D01*
X17959605Y31020000D01*
X18772702Y30206903D01*
X19016671Y30278486D01*
X19137571Y30533996D01*
X19206300Y30808184D01*
X19220217Y31090512D01*
X19178787Y31370130D01*
X19083603Y31636292D01*
X19018384Y31758309D01*
X19031185Y31768815D01*
X19110537Y31865506D01*
X19169502Y31975820D01*
X19205812Y32095518D01*
X19218072Y32220000D01*
X19218072Y33820000D01*
X19205812Y33944482D01*
X19169502Y34064180D01*
X19110537Y34174494D01*
X19031185Y34271185D01*
X18934494Y34350537D01*
X18824180Y34409502D01*
X18704482Y34445812D01*
X18580000Y34458072D01*
X16980000Y34458072D01*
X16855518Y34445812D01*
X16735820Y34409502D01*
X16625506Y34350537D01*
X16528815Y34271185D01*
X16449463Y34174494D01*
X16390498Y34064180D01*
X16354188Y33944482D01*
X16341928Y33820000D01*
X16341928Y32220000D01*
X16354188Y32095518D01*
X16390498Y31975820D01*
X16449463Y31865506D01*
X16528815Y31768815D01*
X16541758Y31758193D01*
X16422429Y31506004D01*
X16353700Y31231816D01*
X16339783Y30949488D01*
X13200644Y30949488D01*
X11636996Y32513135D01*
X11601449Y32556449D01*
X11428623Y32698284D01*
X11231447Y32803676D01*
X11017499Y32868577D01*
X10850752Y32885000D01*
X10850751Y32885000D01*
X10795000Y32890491D01*
X10739249Y32885000D01*
X10154232Y32885000D01*
X10130706Y32929014D01*
X9945134Y33155134D01*
X9719014Y33340706D01*
X9461034Y33478599D01*
X9181111Y33563513D01*
X8890000Y33592185D01*
X8598890Y33563513D01*
X8318967Y33478599D01*
X8060987Y33340706D01*
X7834866Y33155134D01*
X7649294Y32929014D01*
X7620000Y32874209D01*
X7590706Y32929014D01*
X7405134Y33155134D01*
X7179014Y33340706D01*
X6921034Y33478599D01*
X6641111Y33563513D01*
X6350000Y33592185D01*
X6058890Y33563513D01*
X5778967Y33478599D01*
X5520987Y33340706D01*
X5294866Y33155134D01*
X5109294Y32929014D01*
X5080000Y32874209D01*
X5050706Y32929014D01*
X4865134Y33155134D01*
X4639014Y33340706D01*
X4381034Y33478599D01*
X4101111Y33563513D01*
X3810000Y33592185D01*
X3518890Y33563513D01*
X3238967Y33478599D01*
X2980987Y33340706D01*
X2754866Y33155134D01*
X2569294Y32929014D01*
X2431401Y32671034D01*
X2346487Y32391111D01*
X2325000Y32172950D01*
X660000Y32172950D01*
X660000Y42266891D01*
X16338519Y42266891D01*
X16459186Y42037000D01*
X17653000Y42037000D01*
X17653000Y43230155D01*
X17423110Y43351476D01*
X17275901Y43306825D01*
X17013080Y43181641D01*
X16779731Y43007588D01*
X16584822Y42791355D01*
X16435843Y42541252D01*
X16338519Y42266891D01*
X660000Y42266891D01*
X660000Y47807298D01*
X16966903Y47807298D01*
X17038486Y47563329D01*
X17293996Y47442429D01*
X17568184Y47373700D01*
X17850512Y47359783D01*
X18130130Y47401213D01*
X18396292Y47496397D01*
X18521514Y47563329D01*
X18593097Y47807298D01*
X17780000Y48620395D01*
X16966903Y47807298D01*
X660000Y47807298D01*
X660000Y48729488D01*
X16339783Y48729488D01*
X16381213Y48449870D01*
X16476397Y48183708D01*
X16543329Y48058486D01*
X16787298Y47986903D01*
X17600395Y48800000D01*
X17586253Y48814142D01*
X17765858Y48993747D01*
X17780000Y48979605D01*
X17794143Y48993747D01*
X17973748Y48814142D01*
X17959605Y48800000D01*
X18772702Y47986903D01*
X19016671Y48058486D01*
X19137571Y48313996D01*
X19206300Y48588184D01*
X19220217Y48870512D01*
X19178787Y49150130D01*
X19083603Y49416292D01*
X19018384Y49538309D01*
X19031185Y49548815D01*
X19110537Y49645506D01*
X19169502Y49755820D01*
X19205812Y49875518D01*
X19218072Y50000000D01*
X19218072Y51600000D01*
X19205812Y51724482D01*
X19169502Y51844180D01*
X19110537Y51954494D01*
X19031185Y52051185D01*
X18934494Y52130537D01*
X18824180Y52189502D01*
X18704482Y52225812D01*
X18580000Y52238072D01*
X16980000Y52238072D01*
X16855518Y52225812D01*
X16735820Y52189502D01*
X16625506Y52130537D01*
X16528815Y52051185D01*
X16449463Y51954494D01*
X16390498Y51844180D01*
X16354188Y51724482D01*
X16341928Y51600000D01*
X16341928Y50000000D01*
X16354188Y49875518D01*
X16390498Y49755820D01*
X16449463Y49645506D01*
X16528815Y49548815D01*
X16541758Y49538193D01*
X16422429Y49286004D01*
X16353700Y49011816D01*
X16339783Y48729488D01*
X660000Y48729488D01*
X660000Y60046891D01*
X16338519Y60046891D01*
X16459186Y59817000D01*
X17653000Y59817000D01*
X17653000Y61010155D01*
X17423110Y61131476D01*
X17275901Y61086825D01*
X17013080Y60961641D01*
X16779731Y60787588D01*
X16584822Y60571355D01*
X16435843Y60321252D01*
X16338519Y60046891D01*
X660000Y60046891D01*
X660000Y65587298D01*
X16966903Y65587298D01*
X17038486Y65343329D01*
X17293996Y65222429D01*
X17568184Y65153700D01*
X17850512Y65139783D01*
X18130130Y65181213D01*
X18396292Y65276397D01*
X18521514Y65343329D01*
X18593097Y65587298D01*
X17780000Y66400395D01*
X16966903Y65587298D01*
X660000Y65587298D01*
X660000Y66509488D01*
X16339783Y66509488D01*
X16381213Y66229870D01*
X16476397Y65963708D01*
X16543329Y65838486D01*
X16787298Y65766903D01*
X17600395Y66580000D01*
X17586253Y66594142D01*
X17765858Y66773747D01*
X17780000Y66759605D01*
X17794143Y66773747D01*
X17973748Y66594142D01*
X17959605Y66580000D01*
X18772702Y65766903D01*
X19016671Y65838486D01*
X19137571Y66093996D01*
X19206300Y66368184D01*
X19220217Y66650512D01*
X19178787Y66930130D01*
X19083603Y67196292D01*
X19018384Y67318309D01*
X19031185Y67328815D01*
X19110537Y67425506D01*
X19169502Y67535820D01*
X19205812Y67655518D01*
X19218072Y67780000D01*
X19218072Y69380000D01*
X19205812Y69504482D01*
X19169502Y69624180D01*
X19110537Y69734494D01*
X19031185Y69831185D01*
X18934494Y69910537D01*
X18824180Y69969502D01*
X18704482Y70005812D01*
X18580000Y70018072D01*
X16980000Y70018072D01*
X16855518Y70005812D01*
X16735820Y69969502D01*
X16625506Y69910537D01*
X16528815Y69831185D01*
X16449463Y69734494D01*
X16390498Y69624180D01*
X16354188Y69504482D01*
X16341928Y69380000D01*
X16341928Y67780000D01*
X16354188Y67655518D01*
X16390498Y67535820D01*
X16449463Y67425506D01*
X16528815Y67328815D01*
X16541758Y67318193D01*
X16422429Y67066004D01*
X16353700Y66791816D01*
X16339783Y66509488D01*
X660000Y66509488D01*
X660000Y77826891D01*
X16338519Y77826891D01*
X16459186Y77597000D01*
X17653000Y77597000D01*
X17653000Y78790155D01*
X17423110Y78911476D01*
X17275901Y78866825D01*
X17013080Y78741641D01*
X16779731Y78567588D01*
X16584822Y78351355D01*
X16435843Y78101252D01*
X16338519Y77826891D01*
X660000Y77826891D01*
X660000Y81500128D01*
X5385000Y81500128D01*
X5385000Y81059872D01*
X5470890Y80628075D01*
X5639369Y80221331D01*
X5883962Y79855271D01*
X6195271Y79543962D01*
X6561331Y79299369D01*
X6968075Y79130890D01*
X7399872Y79045000D01*
X7840128Y79045000D01*
X8271925Y79130890D01*
X8678669Y79299369D01*
X9044729Y79543962D01*
X9356038Y79855271D01*
X9600631Y80221331D01*
X9769110Y80628075D01*
X9855000Y81059872D01*
X9855000Y81500128D01*
X9769110Y81931925D01*
X9600631Y82338669D01*
X9356038Y82704729D01*
X9044729Y83016038D01*
X8678669Y83260631D01*
X8271925Y83429110D01*
X7840128Y83515000D01*
X7399872Y83515000D01*
X6968075Y83429110D01*
X6561331Y83260631D01*
X6195271Y83016038D01*
X5883962Y82704729D01*
X5639369Y82338669D01*
X5470890Y81931925D01*
X5385000Y81500128D01*
X660000Y81500128D01*
X660000Y88196469D01*
X16289389Y88196469D01*
X16331401Y87906981D01*
X16429081Y87631253D01*
X16502528Y87493843D01*
X16751603Y87416208D01*
X17600395Y88265000D01*
X16751603Y89113792D01*
X16502528Y89036157D01*
X16376629Y88772117D01*
X16304661Y88488589D01*
X16289389Y88196469D01*
X660000Y88196469D01*
X660000Y90951260D01*
X16295000Y90951260D01*
X16295000Y90658740D01*
X16352068Y90371842D01*
X16464010Y90101589D01*
X16626525Y89858368D01*
X16833368Y89651525D01*
X17006729Y89535689D01*
X16931208Y89293397D01*
X17780000Y88444605D01*
X17794143Y88458747D01*
X17973748Y88279142D01*
X17959605Y88265000D01*
X17973748Y88250857D01*
X17794143Y88071252D01*
X17780000Y88085395D01*
X16931208Y87236603D01*
X17008843Y86987528D01*
X17272883Y86861629D01*
X17556411Y86789661D01*
X17848531Y86774389D01*
X18138019Y86816401D01*
X18215000Y86843673D01*
X18215001Y78887784D01*
X18136890Y78911476D01*
X17907000Y78790155D01*
X17907000Y77597000D01*
X17927000Y77597000D01*
X17927000Y77343000D01*
X17907000Y77343000D01*
X17907000Y77323000D01*
X17653000Y77323000D01*
X17653000Y77343000D01*
X16459186Y77343000D01*
X16338519Y77113109D01*
X16435843Y76838748D01*
X16584822Y76588645D01*
X16779731Y76372412D01*
X17009406Y76201100D01*
X16833368Y76083475D01*
X16626525Y75876632D01*
X16464010Y75633411D01*
X16352068Y75363158D01*
X16295000Y75076260D01*
X16295000Y74783740D01*
X16352068Y74496842D01*
X16464010Y74226589D01*
X16626525Y73983368D01*
X16833368Y73776525D01*
X17076589Y73614010D01*
X17346842Y73502068D01*
X17633740Y73445000D01*
X17926260Y73445000D01*
X18213158Y73502068D01*
X18483411Y73614010D01*
X18726632Y73776525D01*
X18933475Y73983368D01*
X19050000Y74157760D01*
X19166525Y73983368D01*
X19373368Y73776525D01*
X19485000Y73701935D01*
X19485001Y63210869D01*
X18488579Y62214446D01*
X18456709Y62188291D01*
X18352365Y62061146D01*
X18352364Y62061145D01*
X18274828Y61916086D01*
X18227082Y61758688D01*
X18210960Y61595000D01*
X18215000Y61553982D01*
X18215000Y61107784D01*
X18136890Y61131476D01*
X17907000Y61010155D01*
X17907000Y59817000D01*
X17927000Y59817000D01*
X17927000Y59563000D01*
X17907000Y59563000D01*
X17907000Y59543000D01*
X17653000Y59543000D01*
X17653000Y59563000D01*
X16459186Y59563000D01*
X16338519Y59333109D01*
X16435843Y59058748D01*
X16584822Y58808645D01*
X16779731Y58592412D01*
X17009406Y58421100D01*
X16833368Y58303475D01*
X16626525Y58096632D01*
X16464010Y57853411D01*
X16352068Y57583158D01*
X16295000Y57296260D01*
X16295000Y57003740D01*
X16352068Y56716842D01*
X16464010Y56446589D01*
X16626525Y56203368D01*
X16833368Y55996525D01*
X17076589Y55834010D01*
X17346842Y55722068D01*
X17633740Y55665000D01*
X17926260Y55665000D01*
X18213158Y55722068D01*
X18483411Y55834010D01*
X18726632Y55996525D01*
X18933475Y56203368D01*
X19050000Y56377760D01*
X19166525Y56203368D01*
X19373368Y55996525D01*
X19485000Y55921935D01*
X19485001Y46700869D01*
X18488579Y45704446D01*
X18456709Y45678291D01*
X18352365Y45551146D01*
X18352364Y45551145D01*
X18274828Y45406086D01*
X18227082Y45248688D01*
X18210960Y45085000D01*
X18215000Y45043981D01*
X18215000Y43327784D01*
X18136890Y43351476D01*
X17907000Y43230155D01*
X17907000Y42037000D01*
X17927000Y42037000D01*
X17927000Y41783000D01*
X17907000Y41783000D01*
X17907000Y41763000D01*
X17653000Y41763000D01*
X17653000Y41783000D01*
X16459186Y41783000D01*
X16338519Y41553109D01*
X16435843Y41278748D01*
X16584822Y41028645D01*
X16779731Y40812412D01*
X17009406Y40641100D01*
X16833368Y40523475D01*
X16626525Y40316632D01*
X16464010Y40073411D01*
X16352068Y39803158D01*
X16295000Y39516260D01*
X16295000Y39223740D01*
X16352068Y38936842D01*
X16464010Y38666589D01*
X16626525Y38423368D01*
X16833368Y38216525D01*
X17076589Y38054010D01*
X17346842Y37942068D01*
X17633740Y37885000D01*
X17926260Y37885000D01*
X18213158Y37942068D01*
X18483411Y38054010D01*
X18726632Y38216525D01*
X18933475Y38423368D01*
X19050000Y38597760D01*
X19166525Y38423368D01*
X19373368Y38216525D01*
X19616589Y38054010D01*
X19886842Y37942068D01*
X20173740Y37885000D01*
X20466260Y37885000D01*
X20753158Y37942068D01*
X21023411Y38054010D01*
X21266632Y38216525D01*
X21473475Y38423368D01*
X21590000Y38597760D01*
X21706525Y38423368D01*
X21913368Y38216525D01*
X22156589Y38054010D01*
X22426842Y37942068D01*
X22713740Y37885000D01*
X23006260Y37885000D01*
X23293158Y37942068D01*
X23563411Y38054010D01*
X23806632Y38216525D01*
X24013475Y38423368D01*
X24130000Y38597760D01*
X24246525Y38423368D01*
X24453368Y38216525D01*
X24696589Y38054010D01*
X24966842Y37942068D01*
X25253740Y37885000D01*
X25546260Y37885000D01*
X25833158Y37942068D01*
X26103411Y38054010D01*
X26346632Y38216525D01*
X26553475Y38423368D01*
X26670000Y38597760D01*
X26786525Y38423368D01*
X26993368Y38216525D01*
X27236589Y38054010D01*
X27506842Y37942068D01*
X27793740Y37885000D01*
X28086260Y37885000D01*
X28373158Y37942068D01*
X28643411Y38054010D01*
X28886632Y38216525D01*
X29093475Y38423368D01*
X29210000Y38597760D01*
X29326525Y38423368D01*
X29533368Y38216525D01*
X29776589Y38054010D01*
X30046842Y37942068D01*
X30333740Y37885000D01*
X30626260Y37885000D01*
X30913158Y37942068D01*
X31183411Y38054010D01*
X31426632Y38216525D01*
X31633475Y38423368D01*
X31750000Y38597760D01*
X31866525Y38423368D01*
X32073368Y38216525D01*
X32316589Y38054010D01*
X32586842Y37942068D01*
X32873740Y37885000D01*
X33166260Y37885000D01*
X33453158Y37942068D01*
X33723411Y38054010D01*
X33966632Y38216525D01*
X34173475Y38423368D01*
X34290000Y38597760D01*
X34406525Y38423368D01*
X34613368Y38216525D01*
X34856589Y38054010D01*
X35126842Y37942068D01*
X35413740Y37885000D01*
X35706260Y37885000D01*
X35993158Y37942068D01*
X36263411Y38054010D01*
X36506632Y38216525D01*
X36713475Y38423368D01*
X36830000Y38597760D01*
X36946525Y38423368D01*
X37153368Y38216525D01*
X37396589Y38054010D01*
X37666842Y37942068D01*
X37953740Y37885000D01*
X38246260Y37885000D01*
X38533158Y37942068D01*
X38803411Y38054010D01*
X39046632Y38216525D01*
X39253475Y38423368D01*
X39370000Y38597760D01*
X39486525Y38423368D01*
X39693368Y38216525D01*
X39936589Y38054010D01*
X40206842Y37942068D01*
X40493740Y37885000D01*
X40786260Y37885000D01*
X41073158Y37942068D01*
X41343411Y38054010D01*
X41586632Y38216525D01*
X41793475Y38423368D01*
X41910000Y38597760D01*
X42026525Y38423368D01*
X42233368Y38216525D01*
X42476589Y38054010D01*
X42746842Y37942068D01*
X43033740Y37885000D01*
X43326260Y37885000D01*
X43613158Y37942068D01*
X43883411Y38054010D01*
X44126632Y38216525D01*
X44333475Y38423368D01*
X44450000Y38597760D01*
X44566525Y38423368D01*
X44773368Y38216525D01*
X45016589Y38054010D01*
X45286842Y37942068D01*
X45573740Y37885000D01*
X45866260Y37885000D01*
X46153158Y37942068D01*
X46423411Y38054010D01*
X46666632Y38216525D01*
X46873475Y38423368D01*
X46990000Y38597760D01*
X47106525Y38423368D01*
X47313368Y38216525D01*
X47556589Y38054010D01*
X47826842Y37942068D01*
X48113740Y37885000D01*
X48406260Y37885000D01*
X48693158Y37942068D01*
X48963411Y38054010D01*
X49206632Y38216525D01*
X49413475Y38423368D01*
X49530000Y38597760D01*
X49646525Y38423368D01*
X49853368Y38216525D01*
X50096589Y38054010D01*
X50366842Y37942068D01*
X50653740Y37885000D01*
X50946260Y37885000D01*
X51233158Y37942068D01*
X51503411Y38054010D01*
X51746632Y38216525D01*
X51953475Y38423368D01*
X52070000Y38597760D01*
X52186525Y38423368D01*
X52393368Y38216525D01*
X52636589Y38054010D01*
X52906842Y37942068D01*
X53193740Y37885000D01*
X53486260Y37885000D01*
X53773158Y37942068D01*
X54043411Y38054010D01*
X54286632Y38216525D01*
X54493475Y38423368D01*
X54610000Y38597760D01*
X54726525Y38423368D01*
X54933368Y38216525D01*
X55176589Y38054010D01*
X55446842Y37942068D01*
X55733740Y37885000D01*
X56026260Y37885000D01*
X56313158Y37942068D01*
X56583411Y38054010D01*
X56826632Y38216525D01*
X56958487Y38348380D01*
X56980498Y38275820D01*
X57039463Y38165506D01*
X57118815Y38068815D01*
X57215506Y37989463D01*
X57325820Y37930498D01*
X57445518Y37894188D01*
X57570000Y37881928D01*
X59270000Y37881928D01*
X59394482Y37894188D01*
X59514180Y37930498D01*
X59624494Y37989463D01*
X59721185Y38068815D01*
X59800537Y38165506D01*
X59859502Y38275820D01*
X59895812Y38395518D01*
X59908072Y38520000D01*
X59908072Y40220000D01*
X59895812Y40344482D01*
X59859502Y40464180D01*
X59800537Y40574494D01*
X59721185Y40671185D01*
X59624494Y40750537D01*
X59514180Y40809502D01*
X59441620Y40831513D01*
X59573475Y40963368D01*
X59735990Y41206589D01*
X59847932Y41476842D01*
X59905000Y41763740D01*
X59905000Y42056260D01*
X59847932Y42343158D01*
X59735990Y42613411D01*
X59573475Y42856632D01*
X59366632Y43063475D01*
X59123411Y43225990D01*
X58853158Y43337932D01*
X58566260Y43395000D01*
X58273740Y43395000D01*
X57986842Y43337932D01*
X57985000Y43337169D01*
X57985000Y47810958D01*
X66310000Y47810958D01*
X66310000Y47479042D01*
X66374754Y47153504D01*
X66501772Y46846853D01*
X66686175Y46570875D01*
X66920875Y46336175D01*
X67196853Y46151772D01*
X67503504Y46024754D01*
X67829042Y45960000D01*
X68160958Y45960000D01*
X68486496Y46024754D01*
X68793147Y46151772D01*
X69069125Y46336175D01*
X69303825Y46570875D01*
X69488228Y46846853D01*
X69615246Y47153504D01*
X69680000Y47479042D01*
X69680000Y47656483D01*
X69699025Y47597132D01*
X69967329Y47468733D01*
X70255526Y47395145D01*
X70552543Y47379196D01*
X70846963Y47421499D01*
X71127474Y47520428D01*
X71270975Y47597132D01*
X71351635Y47848760D01*
X70485000Y48715395D01*
X70470858Y48701252D01*
X70291253Y48880857D01*
X70305395Y48895000D01*
X70664605Y48895000D01*
X71531240Y48028365D01*
X71782868Y48109025D01*
X71911267Y48377329D01*
X71984855Y48665526D01*
X72000804Y48962543D01*
X71958501Y49256963D01*
X71859572Y49537474D01*
X71782868Y49680975D01*
X71531240Y49761635D01*
X70664605Y48895000D01*
X70305395Y48895000D01*
X69438760Y49761635D01*
X69187132Y49680975D01*
X69058733Y49412671D01*
X68985145Y49124474D01*
X68979208Y49013906D01*
X68793147Y49138228D01*
X68486496Y49265246D01*
X68160958Y49330000D01*
X67829042Y49330000D01*
X67503504Y49265246D01*
X67196853Y49138228D01*
X66920875Y48953825D01*
X66686175Y48719125D01*
X66501772Y48443147D01*
X66374754Y48136496D01*
X66310000Y47810958D01*
X57985000Y47810958D01*
X57985000Y49941240D01*
X69618365Y49941240D01*
X70485000Y49074605D01*
X71351635Y49941240D01*
X71270975Y50192868D01*
X71002671Y50321267D01*
X70714474Y50394855D01*
X70417457Y50410804D01*
X70123037Y50368501D01*
X69842526Y50269572D01*
X69699025Y50192868D01*
X69618365Y49941240D01*
X57985000Y49941240D01*
X57985000Y54820958D01*
X66310000Y54820958D01*
X66310000Y54489042D01*
X66374754Y54163504D01*
X66501772Y53856853D01*
X66686175Y53580875D01*
X66920875Y53346175D01*
X67196853Y53161772D01*
X67503504Y53034754D01*
X67829042Y52970000D01*
X68160958Y52970000D01*
X68486496Y53034754D01*
X68793147Y53161772D01*
X68975000Y53283283D01*
X68975000Y53246278D01*
X69033029Y52954549D01*
X69146856Y52679747D01*
X69312107Y52432431D01*
X69522431Y52222107D01*
X69769747Y52056856D01*
X70044549Y51943029D01*
X70336278Y51885000D01*
X70633722Y51885000D01*
X70925451Y51943029D01*
X71200253Y52056856D01*
X71447569Y52222107D01*
X71657893Y52432431D01*
X71823144Y52679747D01*
X71936971Y52954549D01*
X71995000Y53246278D01*
X71995000Y53543722D01*
X71936971Y53835451D01*
X71823144Y54110253D01*
X71657893Y54357569D01*
X71447569Y54567893D01*
X71200253Y54733144D01*
X70925451Y54846971D01*
X70633722Y54905000D01*
X70336278Y54905000D01*
X70044549Y54846971D01*
X69769747Y54733144D01*
X69680000Y54673177D01*
X69680000Y54820958D01*
X69615246Y55146496D01*
X69488228Y55453147D01*
X69303825Y55729125D01*
X69069125Y55963825D01*
X68793147Y56148228D01*
X68486496Y56275246D01*
X68160958Y56340000D01*
X67829042Y56340000D01*
X67503504Y56275246D01*
X67196853Y56148228D01*
X66920875Y55963825D01*
X66686175Y55729125D01*
X66501772Y55453147D01*
X66374754Y55146496D01*
X66310000Y54820958D01*
X57985000Y54820958D01*
X57985000Y55534133D01*
X58112795Y55661928D01*
X59270000Y55661928D01*
X59394482Y55674188D01*
X59514180Y55710498D01*
X59624494Y55769463D01*
X59721185Y55848815D01*
X59800537Y55945506D01*
X59859502Y56055820D01*
X59895812Y56175518D01*
X59908072Y56300000D01*
X59908072Y58000000D01*
X59895812Y58124482D01*
X59859502Y58244180D01*
X59800537Y58354494D01*
X59721185Y58451185D01*
X59624494Y58530537D01*
X59514180Y58589502D01*
X59441620Y58611513D01*
X59573475Y58743368D01*
X59735990Y58986589D01*
X59847932Y59256842D01*
X59905000Y59543740D01*
X59905000Y59836260D01*
X59847932Y60123158D01*
X59735990Y60393411D01*
X59709269Y60433402D01*
X60251430Y60975562D01*
X60283291Y61001709D01*
X60387636Y61128854D01*
X60465172Y61273913D01*
X60512918Y61431311D01*
X60525000Y61553981D01*
X60525000Y61553983D01*
X60529040Y61594999D01*
X60525000Y61636019D01*
X60525000Y76158982D01*
X60529040Y76200000D01*
X60512918Y76363688D01*
X60511155Y76369502D01*
X60465172Y76521087D01*
X60387636Y76666146D01*
X60283291Y76793291D01*
X60251431Y76819438D01*
X59878807Y77192061D01*
X59905000Y77323740D01*
X59905000Y77616260D01*
X59847932Y77903158D01*
X59735990Y78173411D01*
X59573475Y78416632D01*
X59366632Y78623475D01*
X59255000Y78698065D01*
X59255000Y81500128D01*
X66345000Y81500128D01*
X66345000Y81059872D01*
X66430890Y80628075D01*
X66599369Y80221331D01*
X66843962Y79855271D01*
X67155271Y79543962D01*
X67521331Y79299369D01*
X67928075Y79130890D01*
X68359872Y79045000D01*
X68800128Y79045000D01*
X69231925Y79130890D01*
X69638669Y79299369D01*
X70004729Y79543962D01*
X70316038Y79855271D01*
X70560631Y80221331D01*
X70729110Y80628075D01*
X70815000Y81059872D01*
X70815000Y81500128D01*
X70729110Y81931925D01*
X70560631Y82338669D01*
X70316038Y82704729D01*
X70004729Y83016038D01*
X69638669Y83260631D01*
X69231925Y83429110D01*
X68800128Y83515000D01*
X68359872Y83515000D01*
X67928075Y83429110D01*
X67521331Y83260631D01*
X67155271Y83016038D01*
X66843962Y82704729D01*
X66599369Y82338669D01*
X66430890Y81931925D01*
X66345000Y81500128D01*
X59255000Y81500128D01*
X59255000Y87036935D01*
X59366632Y87111525D01*
X59573475Y87318368D01*
X59735990Y87561589D01*
X59847932Y87831842D01*
X59905000Y88118740D01*
X59905000Y88411260D01*
X59847932Y88698158D01*
X59735990Y88968411D01*
X59573475Y89211632D01*
X59386392Y89398715D01*
X59513386Y89466595D01*
X59647962Y89577038D01*
X59758405Y89711614D01*
X59840472Y89865150D01*
X59891008Y90031746D01*
X59908072Y90205000D01*
X59908072Y91405000D01*
X59891008Y91578254D01*
X59840472Y91744850D01*
X59758405Y91898386D01*
X59647962Y92032962D01*
X59513386Y92143405D01*
X59359850Y92225472D01*
X59193254Y92276008D01*
X59020000Y92293072D01*
X57820000Y92293072D01*
X57646746Y92276008D01*
X57480150Y92225472D01*
X57326614Y92143405D01*
X57192038Y92032962D01*
X57081595Y91898386D01*
X57013715Y91771392D01*
X56826632Y91958475D01*
X56583411Y92120990D01*
X56313158Y92232932D01*
X56026260Y92290000D01*
X55733740Y92290000D01*
X55446842Y92232932D01*
X55176589Y92120990D01*
X54933368Y91958475D01*
X54726525Y91751632D01*
X54610000Y91577240D01*
X54493475Y91751632D01*
X54286632Y91958475D01*
X54043411Y92120990D01*
X53773158Y92232932D01*
X53486260Y92290000D01*
X53193740Y92290000D01*
X52906842Y92232932D01*
X52636589Y92120990D01*
X52393368Y91958475D01*
X52186525Y91751632D01*
X52070000Y91577240D01*
X51953475Y91751632D01*
X51746632Y91958475D01*
X51503411Y92120990D01*
X51233158Y92232932D01*
X50946260Y92290000D01*
X50653740Y92290000D01*
X50366842Y92232932D01*
X50096589Y92120990D01*
X49853368Y91958475D01*
X49646525Y91751632D01*
X49530000Y91577240D01*
X49413475Y91751632D01*
X49206632Y91958475D01*
X48963411Y92120990D01*
X48693158Y92232932D01*
X48406260Y92290000D01*
X48113740Y92290000D01*
X47826842Y92232932D01*
X47556589Y92120990D01*
X47313368Y91958475D01*
X47106525Y91751632D01*
X46990000Y91577240D01*
X46873475Y91751632D01*
X46666632Y91958475D01*
X46423411Y92120990D01*
X46153158Y92232932D01*
X45866260Y92290000D01*
X45573740Y92290000D01*
X45286842Y92232932D01*
X45016589Y92120990D01*
X44773368Y91958475D01*
X44566525Y91751632D01*
X44450000Y91577240D01*
X44333475Y91751632D01*
X44126632Y91958475D01*
X43883411Y92120990D01*
X43613158Y92232932D01*
X43326260Y92290000D01*
X43033740Y92290000D01*
X42746842Y92232932D01*
X42476589Y92120990D01*
X42233368Y91958475D01*
X42026525Y91751632D01*
X41910000Y91577240D01*
X41793475Y91751632D01*
X41586632Y91958475D01*
X41343411Y92120990D01*
X41073158Y92232932D01*
X40786260Y92290000D01*
X40493740Y92290000D01*
X40206842Y92232932D01*
X39936589Y92120990D01*
X39693368Y91958475D01*
X39486525Y91751632D01*
X39370000Y91577240D01*
X39253475Y91751632D01*
X39046632Y91958475D01*
X38803411Y92120990D01*
X38533158Y92232932D01*
X38246260Y92290000D01*
X37953740Y92290000D01*
X37666842Y92232932D01*
X37396589Y92120990D01*
X37153368Y91958475D01*
X36946525Y91751632D01*
X36830000Y91577240D01*
X36713475Y91751632D01*
X36506632Y91958475D01*
X36263411Y92120990D01*
X35993158Y92232932D01*
X35706260Y92290000D01*
X35413740Y92290000D01*
X35126842Y92232932D01*
X34856589Y92120990D01*
X34613368Y91958475D01*
X34406525Y91751632D01*
X34290000Y91577240D01*
X34173475Y91751632D01*
X33966632Y91958475D01*
X33723411Y92120990D01*
X33453158Y92232932D01*
X33166260Y92290000D01*
X32873740Y92290000D01*
X32586842Y92232932D01*
X32316589Y92120990D01*
X32073368Y91958475D01*
X31866525Y91751632D01*
X31750000Y91577240D01*
X31633475Y91751632D01*
X31426632Y91958475D01*
X31183411Y92120990D01*
X30913158Y92232932D01*
X30626260Y92290000D01*
X30333740Y92290000D01*
X30046842Y92232932D01*
X29776589Y92120990D01*
X29533368Y91958475D01*
X29326525Y91751632D01*
X29210000Y91577240D01*
X29093475Y91751632D01*
X28886632Y91958475D01*
X28643411Y92120990D01*
X28373158Y92232932D01*
X28086260Y92290000D01*
X27793740Y92290000D01*
X27506842Y92232932D01*
X27236589Y92120990D01*
X26993368Y91958475D01*
X26786525Y91751632D01*
X26670000Y91577240D01*
X26553475Y91751632D01*
X26346632Y91958475D01*
X26103411Y92120990D01*
X25833158Y92232932D01*
X25546260Y92290000D01*
X25253740Y92290000D01*
X24966842Y92232932D01*
X24696589Y92120990D01*
X24453368Y91958475D01*
X24246525Y91751632D01*
X24130000Y91577240D01*
X24013475Y91751632D01*
X23806632Y91958475D01*
X23563411Y92120990D01*
X23293158Y92232932D01*
X23006260Y92290000D01*
X22713740Y92290000D01*
X22426842Y92232932D01*
X22156589Y92120990D01*
X21913368Y91958475D01*
X21706525Y91751632D01*
X21590000Y91577240D01*
X21473475Y91751632D01*
X21266632Y91958475D01*
X21023411Y92120990D01*
X20753158Y92232932D01*
X20466260Y92290000D01*
X20173740Y92290000D01*
X19886842Y92232932D01*
X19616589Y92120990D01*
X19373368Y91958475D01*
X19166525Y91751632D01*
X19050000Y91577240D01*
X18933475Y91751632D01*
X18726632Y91958475D01*
X18483411Y92120990D01*
X18213158Y92232932D01*
X17926260Y92290000D01*
X17633740Y92290000D01*
X17346842Y92232932D01*
X17076589Y92120990D01*
X16833368Y91958475D01*
X16626525Y91751632D01*
X16464010Y91508411D01*
X16352068Y91238158D01*
X16295000Y90951260D01*
X660000Y90951260D01*
X660000Y93955000D01*
X75540000Y93955000D01*
X75540001Y660000D01*
%TA.AperFunction,Conductor*%
D22*
G36*
X75540001Y660000D02*
G01*
X660000Y660000D01*
X660000Y2781603D01*
X16931208Y2781603D01*
X17008843Y2532528D01*
X17272883Y2406629D01*
X17556411Y2334661D01*
X17848531Y2319389D01*
X18138019Y2361401D01*
X18413747Y2459081D01*
X18551157Y2532528D01*
X18628792Y2781603D01*
X17780000Y3630395D01*
X16931208Y2781603D01*
X660000Y2781603D01*
X660000Y3741469D01*
X16289389Y3741469D01*
X16331401Y3451981D01*
X16429081Y3176253D01*
X16502528Y3038843D01*
X16751603Y2961208D01*
X17600395Y3810000D01*
X16751603Y4658792D01*
X16502528Y4581157D01*
X16376629Y4317117D01*
X16304661Y4033589D01*
X16289389Y3741469D01*
X660000Y3741469D01*
X660000Y16095128D01*
X5385000Y16095128D01*
X5385000Y15654872D01*
X5470890Y15223075D01*
X5639369Y14816331D01*
X5883962Y14450271D01*
X6195271Y14138962D01*
X6561331Y13894369D01*
X6968075Y13725890D01*
X7399872Y13640000D01*
X7840128Y13640000D01*
X8271925Y13725890D01*
X8678669Y13894369D01*
X9044729Y14138962D01*
X9356038Y14450271D01*
X9600631Y14816331D01*
X9769110Y15223075D01*
X9855000Y15654872D01*
X9855000Y16095128D01*
X9769110Y16526925D01*
X9600631Y16933669D01*
X9356038Y17299729D01*
X9044729Y17611038D01*
X8678669Y17855631D01*
X8271925Y18024110D01*
X7840128Y18110000D01*
X7399872Y18110000D01*
X6968075Y18024110D01*
X6561331Y17855631D01*
X6195271Y17611038D01*
X5883962Y17299729D01*
X5639369Y16933669D01*
X5470890Y16526925D01*
X5385000Y16095128D01*
X660000Y16095128D01*
X660000Y21736260D01*
X16295000Y21736260D01*
X16295000Y21443740D01*
X16352068Y21156842D01*
X16464010Y20886589D01*
X16626525Y20643368D01*
X16833368Y20436525D01*
X17076589Y20274010D01*
X17346842Y20162068D01*
X17633740Y20105000D01*
X17926260Y20105000D01*
X18213158Y20162068D01*
X18215001Y20162831D01*
X18215001Y17313072D01*
X16980000Y17313072D01*
X16855518Y17300812D01*
X16735820Y17264502D01*
X16625506Y17205537D01*
X16528815Y17126185D01*
X16449463Y17029494D01*
X16390498Y16919180D01*
X16354188Y16799482D01*
X16341928Y16675000D01*
X16341928Y15075000D01*
X16354188Y14950518D01*
X16390498Y14830820D01*
X16449463Y14720506D01*
X16528815Y14623815D01*
X16541758Y14613193D01*
X16422429Y14361004D01*
X16353700Y14086816D01*
X16339783Y13804488D01*
X16381213Y13524870D01*
X16476397Y13258708D01*
X16543329Y13133486D01*
X16787298Y13061903D01*
X17600395Y13875000D01*
X17586253Y13889142D01*
X17765858Y14068747D01*
X17780000Y14054605D01*
X17794143Y14068747D01*
X17973748Y13889142D01*
X17959605Y13875000D01*
X17973748Y13860857D01*
X17794143Y13681252D01*
X17780000Y13695395D01*
X16966903Y12882298D01*
X17038486Y12638329D01*
X17293996Y12517429D01*
X17568184Y12448700D01*
X17850512Y12434783D01*
X18130130Y12476213D01*
X18215000Y12506564D01*
X18215000Y7777169D01*
X18213158Y7777932D01*
X17926260Y7835000D01*
X17633740Y7835000D01*
X17346842Y7777932D01*
X17076589Y7665990D01*
X16833368Y7503475D01*
X16626525Y7296632D01*
X16464010Y7053411D01*
X16352068Y6783158D01*
X16295000Y6496260D01*
X16295000Y6203740D01*
X16352068Y5916842D01*
X16464010Y5646589D01*
X16626525Y5403368D01*
X16833368Y5196525D01*
X17006729Y5080689D01*
X16931208Y4838397D01*
X17780000Y3989605D01*
X17794143Y4003747D01*
X17973748Y3824142D01*
X17959605Y3810000D01*
X18808397Y2961208D01*
X19050689Y3036729D01*
X19166525Y2863368D01*
X19373368Y2656525D01*
X19616589Y2494010D01*
X19886842Y2382068D01*
X20173740Y2325000D01*
X20466260Y2325000D01*
X20753158Y2382068D01*
X21023411Y2494010D01*
X21266632Y2656525D01*
X21473475Y2863368D01*
X21590000Y3037760D01*
X21706525Y2863368D01*
X21913368Y2656525D01*
X22156589Y2494010D01*
X22426842Y2382068D01*
X22713740Y2325000D01*
X23006260Y2325000D01*
X23293158Y2382068D01*
X23563411Y2494010D01*
X23806632Y2656525D01*
X24013475Y2863368D01*
X24130000Y3037760D01*
X24246525Y2863368D01*
X24453368Y2656525D01*
X24696589Y2494010D01*
X24966842Y2382068D01*
X25253740Y2325000D01*
X25546260Y2325000D01*
X25833158Y2382068D01*
X26103411Y2494010D01*
X26346632Y2656525D01*
X26553475Y2863368D01*
X26670000Y3037760D01*
X26786525Y2863368D01*
X26993368Y2656525D01*
X27236589Y2494010D01*
X27506842Y2382068D01*
X27793740Y2325000D01*
X28086260Y2325000D01*
X28373158Y2382068D01*
X28643411Y2494010D01*
X28886632Y2656525D01*
X29093475Y2863368D01*
X29210000Y3037760D01*
X29326525Y2863368D01*
X29533368Y2656525D01*
X29776589Y2494010D01*
X30046842Y2382068D01*
X30333740Y2325000D01*
X30626260Y2325000D01*
X30913158Y2382068D01*
X31183411Y2494010D01*
X31426632Y2656525D01*
X31633475Y2863368D01*
X31750000Y3037760D01*
X31866525Y2863368D01*
X32073368Y2656525D01*
X32316589Y2494010D01*
X32586842Y2382068D01*
X32873740Y2325000D01*
X33166260Y2325000D01*
X33453158Y2382068D01*
X33723411Y2494010D01*
X33966632Y2656525D01*
X34173475Y2863368D01*
X34290000Y3037760D01*
X34406525Y2863368D01*
X34613368Y2656525D01*
X34856589Y2494010D01*
X35126842Y2382068D01*
X35413740Y2325000D01*
X35706260Y2325000D01*
X35993158Y2382068D01*
X36263411Y2494010D01*
X36506632Y2656525D01*
X36713475Y2863368D01*
X36830000Y3037760D01*
X36946525Y2863368D01*
X37153368Y2656525D01*
X37396589Y2494010D01*
X37666842Y2382068D01*
X37953740Y2325000D01*
X38246260Y2325000D01*
X38533158Y2382068D01*
X38803411Y2494010D01*
X39046632Y2656525D01*
X39253475Y2863368D01*
X39370000Y3037760D01*
X39486525Y2863368D01*
X39693368Y2656525D01*
X39936589Y2494010D01*
X40206842Y2382068D01*
X40493740Y2325000D01*
X40786260Y2325000D01*
X41073158Y2382068D01*
X41343411Y2494010D01*
X41586632Y2656525D01*
X41793475Y2863368D01*
X41910000Y3037760D01*
X42026525Y2863368D01*
X42233368Y2656525D01*
X42476589Y2494010D01*
X42746842Y2382068D01*
X43033740Y2325000D01*
X43326260Y2325000D01*
X43613158Y2382068D01*
X43883411Y2494010D01*
X44126632Y2656525D01*
X44333475Y2863368D01*
X44450000Y3037760D01*
X44566525Y2863368D01*
X44773368Y2656525D01*
X45016589Y2494010D01*
X45286842Y2382068D01*
X45573740Y2325000D01*
X45866260Y2325000D01*
X46153158Y2382068D01*
X46423411Y2494010D01*
X46666632Y2656525D01*
X46873475Y2863368D01*
X46990000Y3037760D01*
X47106525Y2863368D01*
X47313368Y2656525D01*
X47556589Y2494010D01*
X47826842Y2382068D01*
X48113740Y2325000D01*
X48406260Y2325000D01*
X48693158Y2382068D01*
X48963411Y2494010D01*
X49206632Y2656525D01*
X49413475Y2863368D01*
X49530000Y3037760D01*
X49646525Y2863368D01*
X49853368Y2656525D01*
X50096589Y2494010D01*
X50366842Y2382068D01*
X50653740Y2325000D01*
X50946260Y2325000D01*
X51233158Y2382068D01*
X51503411Y2494010D01*
X51746632Y2656525D01*
X51953475Y2863368D01*
X52070000Y3037760D01*
X52186525Y2863368D01*
X52393368Y2656525D01*
X52636589Y2494010D01*
X52906842Y2382068D01*
X53193740Y2325000D01*
X53486260Y2325000D01*
X53773158Y2382068D01*
X54043411Y2494010D01*
X54286632Y2656525D01*
X54493475Y2863368D01*
X54610000Y3037760D01*
X54726525Y2863368D01*
X54933368Y2656525D01*
X55176589Y2494010D01*
X55446842Y2382068D01*
X55733740Y2325000D01*
X56026260Y2325000D01*
X56313158Y2382068D01*
X56583411Y2494010D01*
X56826632Y2656525D01*
X57033475Y2863368D01*
X57150000Y3037760D01*
X57266525Y2863368D01*
X57473368Y2656525D01*
X57716589Y2494010D01*
X57986842Y2382068D01*
X58273740Y2325000D01*
X58566260Y2325000D01*
X58853158Y2382068D01*
X59123411Y2494010D01*
X59366632Y2656525D01*
X59573475Y2863368D01*
X59735990Y3106589D01*
X59847932Y3376842D01*
X59905000Y3663740D01*
X59905000Y3956260D01*
X59847932Y4243158D01*
X59735990Y4513411D01*
X59573475Y4756632D01*
X59386392Y4943715D01*
X59513386Y5011595D01*
X59647962Y5122038D01*
X59758405Y5256614D01*
X59840472Y5410150D01*
X59891008Y5576746D01*
X59908072Y5750000D01*
X59908072Y6950000D01*
X59891008Y7123254D01*
X59840472Y7289850D01*
X59758405Y7443386D01*
X59647962Y7577962D01*
X59513386Y7688405D01*
X59359850Y7770472D01*
X59193254Y7821008D01*
X59020000Y7838072D01*
X57985000Y7838072D01*
X57985000Y16095128D01*
X66345000Y16095128D01*
X66345000Y15654872D01*
X66430890Y15223075D01*
X66599369Y14816331D01*
X66843962Y14450271D01*
X67155271Y14138962D01*
X67521331Y13894369D01*
X67928075Y13725890D01*
X68359872Y13640000D01*
X68800128Y13640000D01*
X69231925Y13725890D01*
X69638669Y13894369D01*
X70004729Y14138962D01*
X70316038Y14450271D01*
X70560631Y14816331D01*
X70729110Y15223075D01*
X70815000Y15654872D01*
X70815000Y16095128D01*
X70729110Y16526925D01*
X70560631Y16933669D01*
X70316038Y17299729D01*
X70004729Y17611038D01*
X69638669Y17855631D01*
X69231925Y18024110D01*
X68800128Y18110000D01*
X68359872Y18110000D01*
X67928075Y18024110D01*
X67521331Y17855631D01*
X67155271Y17611038D01*
X66843962Y17299729D01*
X66599369Y16933669D01*
X66430890Y16526925D01*
X66345000Y16095128D01*
X57985000Y16095128D01*
X57985000Y20101928D01*
X59270000Y20101928D01*
X59394482Y20114188D01*
X59514180Y20150498D01*
X59624494Y20209463D01*
X59721185Y20288815D01*
X59800537Y20385506D01*
X59859502Y20495820D01*
X59895812Y20615518D01*
X59908072Y20740000D01*
X59908072Y22440000D01*
X59895812Y22564482D01*
X59859502Y22684180D01*
X59800537Y22794494D01*
X59721185Y22891185D01*
X59624494Y22970537D01*
X59514180Y23029502D01*
X59441620Y23051513D01*
X59573475Y23183368D01*
X59735990Y23426589D01*
X59847932Y23696842D01*
X59905000Y23983740D01*
X59905000Y24276260D01*
X59847932Y24563158D01*
X59735990Y24833411D01*
X59573475Y25076632D01*
X59366632Y25283475D01*
X59123411Y25445990D01*
X58853158Y25557932D01*
X58566260Y25615000D01*
X58273740Y25615000D01*
X57986842Y25557932D01*
X57716589Y25445990D01*
X57473368Y25283475D01*
X57266525Y25076632D01*
X57150000Y24902240D01*
X57033475Y25076632D01*
X56826632Y25283475D01*
X56583411Y25445990D01*
X56313158Y25557932D01*
X56026260Y25615000D01*
X55733740Y25615000D01*
X55446842Y25557932D01*
X55176589Y25445990D01*
X54933368Y25283475D01*
X54726525Y25076632D01*
X54610000Y24902240D01*
X54493475Y25076632D01*
X54286632Y25283475D01*
X54043411Y25445990D01*
X53773158Y25557932D01*
X53486260Y25615000D01*
X53193740Y25615000D01*
X52906842Y25557932D01*
X52636589Y25445990D01*
X52393368Y25283475D01*
X52186525Y25076632D01*
X52070000Y24902240D01*
X51953475Y25076632D01*
X51746632Y25283475D01*
X51503411Y25445990D01*
X51233158Y25557932D01*
X50946260Y25615000D01*
X50653740Y25615000D01*
X50366842Y25557932D01*
X50096589Y25445990D01*
X49853368Y25283475D01*
X49646525Y25076632D01*
X49530000Y24902240D01*
X49413475Y25076632D01*
X49206632Y25283475D01*
X48963411Y25445990D01*
X48693158Y25557932D01*
X48406260Y25615000D01*
X48113740Y25615000D01*
X47826842Y25557932D01*
X47556589Y25445990D01*
X47313368Y25283475D01*
X47106525Y25076632D01*
X46990000Y24902240D01*
X46873475Y25076632D01*
X46666632Y25283475D01*
X46423411Y25445990D01*
X46153158Y25557932D01*
X45866260Y25615000D01*
X45573740Y25615000D01*
X45286842Y25557932D01*
X45016589Y25445990D01*
X44773368Y25283475D01*
X44566525Y25076632D01*
X44450000Y24902240D01*
X44333475Y25076632D01*
X44126632Y25283475D01*
X43883411Y25445990D01*
X43613158Y25557932D01*
X43326260Y25615000D01*
X43033740Y25615000D01*
X42746842Y25557932D01*
X42476589Y25445990D01*
X42233368Y25283475D01*
X42026525Y25076632D01*
X41910000Y24902240D01*
X41793475Y25076632D01*
X41586632Y25283475D01*
X41343411Y25445990D01*
X41073158Y25557932D01*
X40786260Y25615000D01*
X40493740Y25615000D01*
X40206842Y25557932D01*
X39936589Y25445990D01*
X39693368Y25283475D01*
X39486525Y25076632D01*
X39370000Y24902240D01*
X39253475Y25076632D01*
X39046632Y25283475D01*
X38803411Y25445990D01*
X38533158Y25557932D01*
X38246260Y25615000D01*
X37953740Y25615000D01*
X37666842Y25557932D01*
X37396589Y25445990D01*
X37153368Y25283475D01*
X36946525Y25076632D01*
X36830000Y24902240D01*
X36713475Y25076632D01*
X36506632Y25283475D01*
X36263411Y25445990D01*
X35993158Y25557932D01*
X35706260Y25615000D01*
X35413740Y25615000D01*
X35126842Y25557932D01*
X34856589Y25445990D01*
X34613368Y25283475D01*
X34406525Y25076632D01*
X34290000Y24902240D01*
X34173475Y25076632D01*
X33966632Y25283475D01*
X33723411Y25445990D01*
X33453158Y25557932D01*
X33166260Y25615000D01*
X32873740Y25615000D01*
X32586842Y25557932D01*
X32316589Y25445990D01*
X32073368Y25283475D01*
X31866525Y25076632D01*
X31750000Y24902240D01*
X31633475Y25076632D01*
X31426632Y25283475D01*
X31183411Y25445990D01*
X30913158Y25557932D01*
X30626260Y25615000D01*
X30333740Y25615000D01*
X30046842Y25557932D01*
X29776589Y25445990D01*
X29533368Y25283475D01*
X29326525Y25076632D01*
X29210000Y24902240D01*
X29093475Y25076632D01*
X28886632Y25283475D01*
X28643411Y25445990D01*
X28373158Y25557932D01*
X28086260Y25615000D01*
X27793740Y25615000D01*
X27506842Y25557932D01*
X27236589Y25445990D01*
X26993368Y25283475D01*
X26786525Y25076632D01*
X26670000Y24902240D01*
X26553475Y25076632D01*
X26346632Y25283475D01*
X26103411Y25445990D01*
X25833158Y25557932D01*
X25546260Y25615000D01*
X25253740Y25615000D01*
X24966842Y25557932D01*
X24696589Y25445990D01*
X24453368Y25283475D01*
X24246525Y25076632D01*
X24130000Y24902240D01*
X24013475Y25076632D01*
X23806632Y25283475D01*
X23563411Y25445990D01*
X23293158Y25557932D01*
X23006260Y25615000D01*
X22713740Y25615000D01*
X22426842Y25557932D01*
X22156589Y25445990D01*
X21913368Y25283475D01*
X21706525Y25076632D01*
X21590000Y24902240D01*
X21473475Y25076632D01*
X21266632Y25283475D01*
X21023411Y25445990D01*
X20753158Y25557932D01*
X20466260Y25615000D01*
X20173740Y25615000D01*
X19886842Y25557932D01*
X19616589Y25445990D01*
X19373368Y25283475D01*
X19166525Y25076632D01*
X19044805Y24894466D01*
X18975178Y25011355D01*
X18780269Y25227588D01*
X18546920Y25401641D01*
X18284099Y25526825D01*
X18136890Y25571476D01*
X17907000Y25450155D01*
X17907000Y24257000D01*
X17927000Y24257000D01*
X17927000Y24003000D01*
X17907000Y24003000D01*
X17907000Y23983000D01*
X17653000Y23983000D01*
X17653000Y24003000D01*
X16459186Y24003000D01*
X16338519Y23773109D01*
X16435843Y23498748D01*
X16584822Y23248645D01*
X16779731Y23032412D01*
X17009406Y22861100D01*
X16833368Y22743475D01*
X16626525Y22536632D01*
X16464010Y22293411D01*
X16352068Y22023158D01*
X16295000Y21736260D01*
X660000Y21736260D01*
X660000Y24486891D01*
X16338519Y24486891D01*
X16459186Y24257000D01*
X17653000Y24257000D01*
X17653000Y25450155D01*
X17423110Y25571476D01*
X17275901Y25526825D01*
X17013080Y25401641D01*
X16779731Y25227588D01*
X16584822Y25011355D01*
X16435843Y24761252D01*
X16338519Y24486891D01*
X660000Y24486891D01*
X660000Y32172950D01*
X2325000Y32172950D01*
X2325000Y31327051D01*
X2346487Y31108890D01*
X2431401Y30828967D01*
X2569294Y30570987D01*
X2754866Y30344866D01*
X2980986Y30159294D01*
X3238966Y30021401D01*
X3518889Y29936487D01*
X3810000Y29907815D01*
X4101110Y29936487D01*
X4381033Y30021401D01*
X4639013Y30159294D01*
X4865134Y30344866D01*
X5050706Y30570986D01*
X5080000Y30625792D01*
X5109294Y30570987D01*
X5294866Y30344866D01*
X5520986Y30159294D01*
X5778966Y30021401D01*
X6058889Y29936487D01*
X6350000Y29907815D01*
X6641110Y29936487D01*
X6921033Y30021401D01*
X7179013Y30159294D01*
X7405134Y30344866D01*
X7590706Y30570986D01*
X7620000Y30625792D01*
X7649294Y30570987D01*
X7834866Y30344866D01*
X8060986Y30159294D01*
X8318966Y30021401D01*
X8598889Y29936487D01*
X8890000Y29907815D01*
X9181110Y29936487D01*
X9461033Y30021401D01*
X9719013Y30159294D01*
X9945134Y30344866D01*
X10130706Y30570986D01*
X10154232Y30615000D01*
X10324869Y30615000D01*
X13763013Y27176854D01*
X13798551Y27133551D01*
X13841854Y27098013D01*
X13841856Y27098011D01*
X13971377Y26991716D01*
X14168553Y26886324D01*
X14382501Y26821423D01*
X14605000Y26799509D01*
X14660752Y26805000D01*
X30424249Y26805000D01*
X30480000Y26799509D01*
X30535751Y26805000D01*
X30535752Y26805000D01*
X30702499Y26821423D01*
X30916447Y26886324D01*
X31113623Y26991716D01*
X31286449Y27133551D01*
X31321996Y27176865D01*
X34760133Y30615000D01*
X61746928Y30615000D01*
X61746928Y30000000D01*
X61759188Y29875518D01*
X61795498Y29755820D01*
X61854463Y29645506D01*
X61933815Y29548815D01*
X62030506Y29469463D01*
X62140820Y29410498D01*
X62260518Y29374188D01*
X62385000Y29361928D01*
X65809643Y29361928D01*
X65680972Y29322896D01*
X65419382Y29183073D01*
X65190097Y28994903D01*
X65001927Y28765618D01*
X64862104Y28504028D01*
X64776001Y28220186D01*
X64746928Y27925000D01*
X64746928Y26175000D01*
X64776001Y25879814D01*
X64862104Y25595972D01*
X65001927Y25334382D01*
X65190097Y25105097D01*
X65419382Y24916927D01*
X65680972Y24777104D01*
X65964814Y24691001D01*
X66260000Y24661928D01*
X68010000Y24661928D01*
X68305186Y24691001D01*
X68589028Y24777104D01*
X68850618Y24916927D01*
X69079903Y25105097D01*
X69268073Y25334382D01*
X69407896Y25595972D01*
X69493999Y25879814D01*
X69523072Y26175000D01*
X69523072Y27925000D01*
X69493999Y28220186D01*
X69407896Y28504028D01*
X69268073Y28765618D01*
X69079903Y28994903D01*
X68850618Y29183073D01*
X68589028Y29322896D01*
X68305186Y29408999D01*
X68010000Y29438072D01*
X66260000Y29438072D01*
X66162869Y29428506D01*
X66239494Y29469463D01*
X66336185Y29548815D01*
X66415537Y29645506D01*
X66474502Y29755820D01*
X66510812Y29875518D01*
X66523072Y30000000D01*
X67996928Y30000000D01*
X68009188Y29875518D01*
X68045498Y29755820D01*
X68104463Y29645506D01*
X68183815Y29548815D01*
X68280506Y29469463D01*
X68390820Y29410498D01*
X68510518Y29374188D01*
X68635000Y29361928D01*
X69849250Y29365000D01*
X70008000Y29523750D01*
X70008000Y31623000D01*
X70262000Y31623000D01*
X70262000Y29523750D01*
X70420750Y29365000D01*
X71635000Y29361928D01*
X71759482Y29374188D01*
X71879180Y29410498D01*
X71989494Y29469463D01*
X72086185Y29548815D01*
X72165537Y29645506D01*
X72224502Y29755820D01*
X72260812Y29875518D01*
X72273072Y30000000D01*
X72270000Y31464250D01*
X72111250Y31623000D01*
X70262000Y31623000D01*
X70008000Y31623000D01*
X68158750Y31623000D01*
X68000000Y31464250D01*
X67996928Y30000000D01*
X66523072Y30000000D01*
X66523072Y33500000D01*
X67996928Y33500000D01*
X68000000Y32035750D01*
X68158750Y31877000D01*
X70008000Y31877000D01*
X70008000Y33976250D01*
X70262000Y33976250D01*
X70262000Y31877000D01*
X72111250Y31877000D01*
X72270000Y32035750D01*
X72273072Y33500000D01*
X72260812Y33624482D01*
X72224502Y33744180D01*
X72165537Y33854494D01*
X72086185Y33951185D01*
X71989494Y34030537D01*
X71879180Y34089502D01*
X71759482Y34125812D01*
X71635000Y34138072D01*
X70420750Y34135000D01*
X70262000Y33976250D01*
X70008000Y33976250D01*
X69849250Y34135000D01*
X68635000Y34138072D01*
X68510518Y34125812D01*
X68390820Y34089502D01*
X68280506Y34030537D01*
X68183815Y33951185D01*
X68104463Y33854494D01*
X68045498Y33744180D01*
X68009188Y33624482D01*
X67996928Y33500000D01*
X66523072Y33500000D01*
X66510812Y33624482D01*
X66474502Y33744180D01*
X66415537Y33854494D01*
X66336185Y33951185D01*
X66239494Y34030537D01*
X66129180Y34089502D01*
X66009482Y34125812D01*
X65885000Y34138072D01*
X62385000Y34138072D01*
X62260518Y34125812D01*
X62140820Y34089502D01*
X62030506Y34030537D01*
X61933815Y33951185D01*
X61854463Y33854494D01*
X61795498Y33744180D01*
X61759188Y33624482D01*
X61746928Y33500000D01*
X61746928Y32885000D01*
X34345752Y32885000D01*
X34290000Y32890491D01*
X34067501Y32868577D01*
X33853553Y32803676D01*
X33656377Y32698284D01*
X33526856Y32591989D01*
X33526855Y32591988D01*
X33483551Y32556449D01*
X33448013Y32513146D01*
X30009869Y29075000D01*
X15075133Y29075000D01*
X14122835Y30027298D01*
X16966903Y30027298D01*
X17038486Y29783329D01*
X17293996Y29662429D01*
X17568184Y29593700D01*
X17850512Y29579783D01*
X18130130Y29621213D01*
X18396292Y29716397D01*
X18521514Y29783329D01*
X18593097Y30027298D01*
X17780000Y30840395D01*
X16966903Y30027298D01*
X14122835Y30027298D01*
X13200644Y30949488D01*
X16339783Y30949488D01*
X16381213Y30669870D01*
X16476397Y30403708D01*
X16543329Y30278486D01*
X16787298Y30206903D01*
X17600395Y31020000D01*
X17586253Y31034142D01*
X17765858Y31213747D01*
X17780000Y31199605D01*
X17794143Y31213747D01*
X17973748Y31034142D01*
X17959605Y31020000D01*
X18772702Y30206903D01*
X19016671Y30278486D01*
X19137571Y30533996D01*
X19206300Y30808184D01*
X19220217Y31090512D01*
X19178787Y31370130D01*
X19083603Y31636292D01*
X19018384Y31758309D01*
X19031185Y31768815D01*
X19110537Y31865506D01*
X19169502Y31975820D01*
X19205812Y32095518D01*
X19218072Y32220000D01*
X19218072Y33820000D01*
X19205812Y33944482D01*
X19169502Y34064180D01*
X19110537Y34174494D01*
X19031185Y34271185D01*
X18934494Y34350537D01*
X18824180Y34409502D01*
X18704482Y34445812D01*
X18580000Y34458072D01*
X16980000Y34458072D01*
X16855518Y34445812D01*
X16735820Y34409502D01*
X16625506Y34350537D01*
X16528815Y34271185D01*
X16449463Y34174494D01*
X16390498Y34064180D01*
X16354188Y33944482D01*
X16341928Y33820000D01*
X16341928Y32220000D01*
X16354188Y32095518D01*
X16390498Y31975820D01*
X16449463Y31865506D01*
X16528815Y31768815D01*
X16541758Y31758193D01*
X16422429Y31506004D01*
X16353700Y31231816D01*
X16339783Y30949488D01*
X13200644Y30949488D01*
X11636996Y32513135D01*
X11601449Y32556449D01*
X11428623Y32698284D01*
X11231447Y32803676D01*
X11017499Y32868577D01*
X10850752Y32885000D01*
X10850751Y32885000D01*
X10795000Y32890491D01*
X10739249Y32885000D01*
X10154232Y32885000D01*
X10130706Y32929014D01*
X9945134Y33155134D01*
X9719014Y33340706D01*
X9461034Y33478599D01*
X9181111Y33563513D01*
X8890000Y33592185D01*
X8598890Y33563513D01*
X8318967Y33478599D01*
X8060987Y33340706D01*
X7834866Y33155134D01*
X7649294Y32929014D01*
X7620000Y32874209D01*
X7590706Y32929014D01*
X7405134Y33155134D01*
X7179014Y33340706D01*
X6921034Y33478599D01*
X6641111Y33563513D01*
X6350000Y33592185D01*
X6058890Y33563513D01*
X5778967Y33478599D01*
X5520987Y33340706D01*
X5294866Y33155134D01*
X5109294Y32929014D01*
X5080000Y32874209D01*
X5050706Y32929014D01*
X4865134Y33155134D01*
X4639014Y33340706D01*
X4381034Y33478599D01*
X4101111Y33563513D01*
X3810000Y33592185D01*
X3518890Y33563513D01*
X3238967Y33478599D01*
X2980987Y33340706D01*
X2754866Y33155134D01*
X2569294Y32929014D01*
X2431401Y32671034D01*
X2346487Y32391111D01*
X2325000Y32172950D01*
X660000Y32172950D01*
X660000Y42266891D01*
X16338519Y42266891D01*
X16459186Y42037000D01*
X17653000Y42037000D01*
X17653000Y43230155D01*
X17423110Y43351476D01*
X17275901Y43306825D01*
X17013080Y43181641D01*
X16779731Y43007588D01*
X16584822Y42791355D01*
X16435843Y42541252D01*
X16338519Y42266891D01*
X660000Y42266891D01*
X660000Y47807298D01*
X16966903Y47807298D01*
X17038486Y47563329D01*
X17293996Y47442429D01*
X17568184Y47373700D01*
X17850512Y47359783D01*
X18130130Y47401213D01*
X18396292Y47496397D01*
X18521514Y47563329D01*
X18593097Y47807298D01*
X17780000Y48620395D01*
X16966903Y47807298D01*
X660000Y47807298D01*
X660000Y48729488D01*
X16339783Y48729488D01*
X16381213Y48449870D01*
X16476397Y48183708D01*
X16543329Y48058486D01*
X16787298Y47986903D01*
X17600395Y48800000D01*
X17586253Y48814142D01*
X17765858Y48993747D01*
X17780000Y48979605D01*
X17794143Y48993747D01*
X17973748Y48814142D01*
X17959605Y48800000D01*
X18772702Y47986903D01*
X19016671Y48058486D01*
X19137571Y48313996D01*
X19206300Y48588184D01*
X19220217Y48870512D01*
X19178787Y49150130D01*
X19083603Y49416292D01*
X19018384Y49538309D01*
X19031185Y49548815D01*
X19110537Y49645506D01*
X19169502Y49755820D01*
X19205812Y49875518D01*
X19218072Y50000000D01*
X19218072Y51600000D01*
X19205812Y51724482D01*
X19169502Y51844180D01*
X19110537Y51954494D01*
X19031185Y52051185D01*
X18934494Y52130537D01*
X18824180Y52189502D01*
X18704482Y52225812D01*
X18580000Y52238072D01*
X16980000Y52238072D01*
X16855518Y52225812D01*
X16735820Y52189502D01*
X16625506Y52130537D01*
X16528815Y52051185D01*
X16449463Y51954494D01*
X16390498Y51844180D01*
X16354188Y51724482D01*
X16341928Y51600000D01*
X16341928Y50000000D01*
X16354188Y49875518D01*
X16390498Y49755820D01*
X16449463Y49645506D01*
X16528815Y49548815D01*
X16541758Y49538193D01*
X16422429Y49286004D01*
X16353700Y49011816D01*
X16339783Y48729488D01*
X660000Y48729488D01*
X660000Y60046891D01*
X16338519Y60046891D01*
X16459186Y59817000D01*
X17653000Y59817000D01*
X17653000Y61010155D01*
X17423110Y61131476D01*
X17275901Y61086825D01*
X17013080Y60961641D01*
X16779731Y60787588D01*
X16584822Y60571355D01*
X16435843Y60321252D01*
X16338519Y60046891D01*
X660000Y60046891D01*
X660000Y65587298D01*
X16966903Y65587298D01*
X17038486Y65343329D01*
X17293996Y65222429D01*
X17568184Y65153700D01*
X17850512Y65139783D01*
X18130130Y65181213D01*
X18396292Y65276397D01*
X18521514Y65343329D01*
X18593097Y65587298D01*
X17780000Y66400395D01*
X16966903Y65587298D01*
X660000Y65587298D01*
X660000Y66509488D01*
X16339783Y66509488D01*
X16381213Y66229870D01*
X16476397Y65963708D01*
X16543329Y65838486D01*
X16787298Y65766903D01*
X17600395Y66580000D01*
X17586253Y66594142D01*
X17765858Y66773747D01*
X17780000Y66759605D01*
X17794143Y66773747D01*
X17973748Y66594142D01*
X17959605Y66580000D01*
X18772702Y65766903D01*
X19016671Y65838486D01*
X19137571Y66093996D01*
X19206300Y66368184D01*
X19220217Y66650512D01*
X19178787Y66930130D01*
X19083603Y67196292D01*
X19018384Y67318309D01*
X19031185Y67328815D01*
X19110537Y67425506D01*
X19169502Y67535820D01*
X19205812Y67655518D01*
X19218072Y67780000D01*
X19218072Y69380000D01*
X19205812Y69504482D01*
X19169502Y69624180D01*
X19110537Y69734494D01*
X19031185Y69831185D01*
X18934494Y69910537D01*
X18824180Y69969502D01*
X18704482Y70005812D01*
X18580000Y70018072D01*
X16980000Y70018072D01*
X16855518Y70005812D01*
X16735820Y69969502D01*
X16625506Y69910537D01*
X16528815Y69831185D01*
X16449463Y69734494D01*
X16390498Y69624180D01*
X16354188Y69504482D01*
X16341928Y69380000D01*
X16341928Y67780000D01*
X16354188Y67655518D01*
X16390498Y67535820D01*
X16449463Y67425506D01*
X16528815Y67328815D01*
X16541758Y67318193D01*
X16422429Y67066004D01*
X16353700Y66791816D01*
X16339783Y66509488D01*
X660000Y66509488D01*
X660000Y77826891D01*
X16338519Y77826891D01*
X16459186Y77597000D01*
X17653000Y77597000D01*
X17653000Y78790155D01*
X17423110Y78911476D01*
X17275901Y78866825D01*
X17013080Y78741641D01*
X16779731Y78567588D01*
X16584822Y78351355D01*
X16435843Y78101252D01*
X16338519Y77826891D01*
X660000Y77826891D01*
X660000Y81500128D01*
X5385000Y81500128D01*
X5385000Y81059872D01*
X5470890Y80628075D01*
X5639369Y80221331D01*
X5883962Y79855271D01*
X6195271Y79543962D01*
X6561331Y79299369D01*
X6968075Y79130890D01*
X7399872Y79045000D01*
X7840128Y79045000D01*
X8271925Y79130890D01*
X8678669Y79299369D01*
X9044729Y79543962D01*
X9356038Y79855271D01*
X9600631Y80221331D01*
X9769110Y80628075D01*
X9855000Y81059872D01*
X9855000Y81500128D01*
X9769110Y81931925D01*
X9600631Y82338669D01*
X9356038Y82704729D01*
X9044729Y83016038D01*
X8678669Y83260631D01*
X8271925Y83429110D01*
X7840128Y83515000D01*
X7399872Y83515000D01*
X6968075Y83429110D01*
X6561331Y83260631D01*
X6195271Y83016038D01*
X5883962Y82704729D01*
X5639369Y82338669D01*
X5470890Y81931925D01*
X5385000Y81500128D01*
X660000Y81500128D01*
X660000Y88196469D01*
X16289389Y88196469D01*
X16331401Y87906981D01*
X16429081Y87631253D01*
X16502528Y87493843D01*
X16751603Y87416208D01*
X17600395Y88265000D01*
X16751603Y89113792D01*
X16502528Y89036157D01*
X16376629Y88772117D01*
X16304661Y88488589D01*
X16289389Y88196469D01*
X660000Y88196469D01*
X660000Y90951260D01*
X16295000Y90951260D01*
X16295000Y90658740D01*
X16352068Y90371842D01*
X16464010Y90101589D01*
X16626525Y89858368D01*
X16833368Y89651525D01*
X17006729Y89535689D01*
X16931208Y89293397D01*
X17780000Y88444605D01*
X17794143Y88458747D01*
X17973748Y88279142D01*
X17959605Y88265000D01*
X17973748Y88250857D01*
X17794143Y88071252D01*
X17780000Y88085395D01*
X16931208Y87236603D01*
X17008843Y86987528D01*
X17272883Y86861629D01*
X17556411Y86789661D01*
X17848531Y86774389D01*
X18138019Y86816401D01*
X18215000Y86843673D01*
X18215001Y78887784D01*
X18136890Y78911476D01*
X17907000Y78790155D01*
X17907000Y77597000D01*
X17927000Y77597000D01*
X17927000Y77343000D01*
X17907000Y77343000D01*
X17907000Y77323000D01*
X17653000Y77323000D01*
X17653000Y77343000D01*
X16459186Y77343000D01*
X16338519Y77113109D01*
X16435843Y76838748D01*
X16584822Y76588645D01*
X16779731Y76372412D01*
X17009406Y76201100D01*
X16833368Y76083475D01*
X16626525Y75876632D01*
X16464010Y75633411D01*
X16352068Y75363158D01*
X16295000Y75076260D01*
X16295000Y74783740D01*
X16352068Y74496842D01*
X16464010Y74226589D01*
X16626525Y73983368D01*
X16833368Y73776525D01*
X17076589Y73614010D01*
X17346842Y73502068D01*
X17633740Y73445000D01*
X17926260Y73445000D01*
X18213158Y73502068D01*
X18483411Y73614010D01*
X18726632Y73776525D01*
X18933475Y73983368D01*
X19050000Y74157760D01*
X19166525Y73983368D01*
X19373368Y73776525D01*
X19485000Y73701935D01*
X19485001Y63210869D01*
X18488579Y62214446D01*
X18456709Y62188291D01*
X18352365Y62061146D01*
X18352364Y62061145D01*
X18274828Y61916086D01*
X18227082Y61758688D01*
X18210960Y61595000D01*
X18215000Y61553982D01*
X18215000Y61107784D01*
X18136890Y61131476D01*
X17907000Y61010155D01*
X17907000Y59817000D01*
X17927000Y59817000D01*
X17927000Y59563000D01*
X17907000Y59563000D01*
X17907000Y59543000D01*
X17653000Y59543000D01*
X17653000Y59563000D01*
X16459186Y59563000D01*
X16338519Y59333109D01*
X16435843Y59058748D01*
X16584822Y58808645D01*
X16779731Y58592412D01*
X17009406Y58421100D01*
X16833368Y58303475D01*
X16626525Y58096632D01*
X16464010Y57853411D01*
X16352068Y57583158D01*
X16295000Y57296260D01*
X16295000Y57003740D01*
X16352068Y56716842D01*
X16464010Y56446589D01*
X16626525Y56203368D01*
X16833368Y55996525D01*
X17076589Y55834010D01*
X17346842Y55722068D01*
X17633740Y55665000D01*
X17926260Y55665000D01*
X18213158Y55722068D01*
X18483411Y55834010D01*
X18726632Y55996525D01*
X18933475Y56203368D01*
X19050000Y56377760D01*
X19166525Y56203368D01*
X19373368Y55996525D01*
X19485000Y55921935D01*
X19485001Y46700869D01*
X18488579Y45704446D01*
X18456709Y45678291D01*
X18352365Y45551146D01*
X18352364Y45551145D01*
X18274828Y45406086D01*
X18227082Y45248688D01*
X18210960Y45085000D01*
X18215000Y45043981D01*
X18215000Y43327784D01*
X18136890Y43351476D01*
X17907000Y43230155D01*
X17907000Y42037000D01*
X17927000Y42037000D01*
X17927000Y41783000D01*
X17907000Y41783000D01*
X17907000Y41763000D01*
X17653000Y41763000D01*
X17653000Y41783000D01*
X16459186Y41783000D01*
X16338519Y41553109D01*
X16435843Y41278748D01*
X16584822Y41028645D01*
X16779731Y40812412D01*
X17009406Y40641100D01*
X16833368Y40523475D01*
X16626525Y40316632D01*
X16464010Y40073411D01*
X16352068Y39803158D01*
X16295000Y39516260D01*
X16295000Y39223740D01*
X16352068Y38936842D01*
X16464010Y38666589D01*
X16626525Y38423368D01*
X16833368Y38216525D01*
X17076589Y38054010D01*
X17346842Y37942068D01*
X17633740Y37885000D01*
X17926260Y37885000D01*
X18213158Y37942068D01*
X18483411Y38054010D01*
X18726632Y38216525D01*
X18933475Y38423368D01*
X19050000Y38597760D01*
X19166525Y38423368D01*
X19373368Y38216525D01*
X19616589Y38054010D01*
X19886842Y37942068D01*
X20173740Y37885000D01*
X20466260Y37885000D01*
X20753158Y37942068D01*
X21023411Y38054010D01*
X21266632Y38216525D01*
X21473475Y38423368D01*
X21590000Y38597760D01*
X21706525Y38423368D01*
X21913368Y38216525D01*
X22156589Y38054010D01*
X22426842Y37942068D01*
X22713740Y37885000D01*
X23006260Y37885000D01*
X23293158Y37942068D01*
X23563411Y38054010D01*
X23806632Y38216525D01*
X24013475Y38423368D01*
X24130000Y38597760D01*
X24246525Y38423368D01*
X24453368Y38216525D01*
X24696589Y38054010D01*
X24966842Y37942068D01*
X25253740Y37885000D01*
X25546260Y37885000D01*
X25833158Y37942068D01*
X26103411Y38054010D01*
X26346632Y38216525D01*
X26553475Y38423368D01*
X26670000Y38597760D01*
X26786525Y38423368D01*
X26993368Y38216525D01*
X27236589Y38054010D01*
X27506842Y37942068D01*
X27793740Y37885000D01*
X28086260Y37885000D01*
X28373158Y37942068D01*
X28643411Y38054010D01*
X28886632Y38216525D01*
X29093475Y38423368D01*
X29210000Y38597760D01*
X29326525Y38423368D01*
X29533368Y38216525D01*
X29776589Y38054010D01*
X30046842Y37942068D01*
X30333740Y37885000D01*
X30626260Y37885000D01*
X30913158Y37942068D01*
X31183411Y38054010D01*
X31426632Y38216525D01*
X31633475Y38423368D01*
X31750000Y38597760D01*
X31866525Y38423368D01*
X32073368Y38216525D01*
X32316589Y38054010D01*
X32586842Y37942068D01*
X32873740Y37885000D01*
X33166260Y37885000D01*
X33453158Y37942068D01*
X33723411Y38054010D01*
X33966632Y38216525D01*
X34173475Y38423368D01*
X34290000Y38597760D01*
X34406525Y38423368D01*
X34613368Y38216525D01*
X34856589Y38054010D01*
X35126842Y37942068D01*
X35413740Y37885000D01*
X35706260Y37885000D01*
X35993158Y37942068D01*
X36263411Y38054010D01*
X36506632Y38216525D01*
X36713475Y38423368D01*
X36830000Y38597760D01*
X36946525Y38423368D01*
X37153368Y38216525D01*
X37396589Y38054010D01*
X37666842Y37942068D01*
X37953740Y37885000D01*
X38246260Y37885000D01*
X38533158Y37942068D01*
X38803411Y38054010D01*
X39046632Y38216525D01*
X39253475Y38423368D01*
X39370000Y38597760D01*
X39486525Y38423368D01*
X39693368Y38216525D01*
X39936589Y38054010D01*
X40206842Y37942068D01*
X40493740Y37885000D01*
X40786260Y37885000D01*
X41073158Y37942068D01*
X41343411Y38054010D01*
X41586632Y38216525D01*
X41793475Y38423368D01*
X41910000Y38597760D01*
X42026525Y38423368D01*
X42233368Y38216525D01*
X42476589Y38054010D01*
X42746842Y37942068D01*
X43033740Y37885000D01*
X43326260Y37885000D01*
X43613158Y37942068D01*
X43883411Y38054010D01*
X44126632Y38216525D01*
X44333475Y38423368D01*
X44450000Y38597760D01*
X44566525Y38423368D01*
X44773368Y38216525D01*
X45016589Y38054010D01*
X45286842Y37942068D01*
X45573740Y37885000D01*
X45866260Y37885000D01*
X46153158Y37942068D01*
X46423411Y38054010D01*
X46666632Y38216525D01*
X46873475Y38423368D01*
X46990000Y38597760D01*
X47106525Y38423368D01*
X47313368Y38216525D01*
X47556589Y38054010D01*
X47826842Y37942068D01*
X48113740Y37885000D01*
X48406260Y37885000D01*
X48693158Y37942068D01*
X48963411Y38054010D01*
X49206632Y38216525D01*
X49413475Y38423368D01*
X49530000Y38597760D01*
X49646525Y38423368D01*
X49853368Y38216525D01*
X50096589Y38054010D01*
X50366842Y37942068D01*
X50653740Y37885000D01*
X50946260Y37885000D01*
X51233158Y37942068D01*
X51503411Y38054010D01*
X51746632Y38216525D01*
X51953475Y38423368D01*
X52070000Y38597760D01*
X52186525Y38423368D01*
X52393368Y38216525D01*
X52636589Y38054010D01*
X52906842Y37942068D01*
X53193740Y37885000D01*
X53486260Y37885000D01*
X53773158Y37942068D01*
X54043411Y38054010D01*
X54286632Y38216525D01*
X54493475Y38423368D01*
X54610000Y38597760D01*
X54726525Y38423368D01*
X54933368Y38216525D01*
X55176589Y38054010D01*
X55446842Y37942068D01*
X55733740Y37885000D01*
X56026260Y37885000D01*
X56313158Y37942068D01*
X56583411Y38054010D01*
X56826632Y38216525D01*
X56958487Y38348380D01*
X56980498Y38275820D01*
X57039463Y38165506D01*
X57118815Y38068815D01*
X57215506Y37989463D01*
X57325820Y37930498D01*
X57445518Y37894188D01*
X57570000Y37881928D01*
X59270000Y37881928D01*
X59394482Y37894188D01*
X59514180Y37930498D01*
X59624494Y37989463D01*
X59721185Y38068815D01*
X59800537Y38165506D01*
X59859502Y38275820D01*
X59895812Y38395518D01*
X59908072Y38520000D01*
X59908072Y40220000D01*
X59895812Y40344482D01*
X59859502Y40464180D01*
X59800537Y40574494D01*
X59721185Y40671185D01*
X59624494Y40750537D01*
X59514180Y40809502D01*
X59441620Y40831513D01*
X59573475Y40963368D01*
X59735990Y41206589D01*
X59847932Y41476842D01*
X59905000Y41763740D01*
X59905000Y42056260D01*
X59847932Y42343158D01*
X59735990Y42613411D01*
X59573475Y42856632D01*
X59366632Y43063475D01*
X59123411Y43225990D01*
X58853158Y43337932D01*
X58566260Y43395000D01*
X58273740Y43395000D01*
X57986842Y43337932D01*
X57985000Y43337169D01*
X57985000Y47810958D01*
X66310000Y47810958D01*
X66310000Y47479042D01*
X66374754Y47153504D01*
X66501772Y46846853D01*
X66686175Y46570875D01*
X66920875Y46336175D01*
X67196853Y46151772D01*
X67503504Y46024754D01*
X67829042Y45960000D01*
X68160958Y45960000D01*
X68486496Y46024754D01*
X68793147Y46151772D01*
X69069125Y46336175D01*
X69303825Y46570875D01*
X69488228Y46846853D01*
X69615246Y47153504D01*
X69680000Y47479042D01*
X69680000Y47656483D01*
X69699025Y47597132D01*
X69967329Y47468733D01*
X70255526Y47395145D01*
X70552543Y47379196D01*
X70846963Y47421499D01*
X71127474Y47520428D01*
X71270975Y47597132D01*
X71351635Y47848760D01*
X70485000Y48715395D01*
X70470858Y48701252D01*
X70291253Y48880857D01*
X70305395Y48895000D01*
X70664605Y48895000D01*
X71531240Y48028365D01*
X71782868Y48109025D01*
X71911267Y48377329D01*
X71984855Y48665526D01*
X72000804Y48962543D01*
X71958501Y49256963D01*
X71859572Y49537474D01*
X71782868Y49680975D01*
X71531240Y49761635D01*
X70664605Y48895000D01*
X70305395Y48895000D01*
X69438760Y49761635D01*
X69187132Y49680975D01*
X69058733Y49412671D01*
X68985145Y49124474D01*
X68979208Y49013906D01*
X68793147Y49138228D01*
X68486496Y49265246D01*
X68160958Y49330000D01*
X67829042Y49330000D01*
X67503504Y49265246D01*
X67196853Y49138228D01*
X66920875Y48953825D01*
X66686175Y48719125D01*
X66501772Y48443147D01*
X66374754Y48136496D01*
X66310000Y47810958D01*
X57985000Y47810958D01*
X57985000Y49941240D01*
X69618365Y49941240D01*
X70485000Y49074605D01*
X71351635Y49941240D01*
X71270975Y50192868D01*
X71002671Y50321267D01*
X70714474Y50394855D01*
X70417457Y50410804D01*
X70123037Y50368501D01*
X69842526Y50269572D01*
X69699025Y50192868D01*
X69618365Y49941240D01*
X57985000Y49941240D01*
X57985000Y54820958D01*
X66310000Y54820958D01*
X66310000Y54489042D01*
X66374754Y54163504D01*
X66501772Y53856853D01*
X66686175Y53580875D01*
X66920875Y53346175D01*
X67196853Y53161772D01*
X67503504Y53034754D01*
X67829042Y52970000D01*
X68160958Y52970000D01*
X68486496Y53034754D01*
X68793147Y53161772D01*
X68975000Y53283283D01*
X68975000Y53246278D01*
X69033029Y52954549D01*
X69146856Y52679747D01*
X69312107Y52432431D01*
X69522431Y52222107D01*
X69769747Y52056856D01*
X70044549Y51943029D01*
X70336278Y51885000D01*
X70633722Y51885000D01*
X70925451Y51943029D01*
X71200253Y52056856D01*
X71447569Y52222107D01*
X71657893Y52432431D01*
X71823144Y52679747D01*
X71936971Y52954549D01*
X71995000Y53246278D01*
X71995000Y53543722D01*
X71936971Y53835451D01*
X71823144Y54110253D01*
X71657893Y54357569D01*
X71447569Y54567893D01*
X71200253Y54733144D01*
X70925451Y54846971D01*
X70633722Y54905000D01*
X70336278Y54905000D01*
X70044549Y54846971D01*
X69769747Y54733144D01*
X69680000Y54673177D01*
X69680000Y54820958D01*
X69615246Y55146496D01*
X69488228Y55453147D01*
X69303825Y55729125D01*
X69069125Y55963825D01*
X68793147Y56148228D01*
X68486496Y56275246D01*
X68160958Y56340000D01*
X67829042Y56340000D01*
X67503504Y56275246D01*
X67196853Y56148228D01*
X66920875Y55963825D01*
X66686175Y55729125D01*
X66501772Y55453147D01*
X66374754Y55146496D01*
X66310000Y54820958D01*
X57985000Y54820958D01*
X57985000Y55534133D01*
X58112795Y55661928D01*
X59270000Y55661928D01*
X59394482Y55674188D01*
X59514180Y55710498D01*
X59624494Y55769463D01*
X59721185Y55848815D01*
X59800537Y55945506D01*
X59859502Y56055820D01*
X59895812Y56175518D01*
X59908072Y56300000D01*
X59908072Y58000000D01*
X59895812Y58124482D01*
X59859502Y58244180D01*
X59800537Y58354494D01*
X59721185Y58451185D01*
X59624494Y58530537D01*
X59514180Y58589502D01*
X59441620Y58611513D01*
X59573475Y58743368D01*
X59735990Y58986589D01*
X59847932Y59256842D01*
X59905000Y59543740D01*
X59905000Y59836260D01*
X59847932Y60123158D01*
X59735990Y60393411D01*
X59709269Y60433402D01*
X60251430Y60975562D01*
X60283291Y61001709D01*
X60387636Y61128854D01*
X60465172Y61273913D01*
X60512918Y61431311D01*
X60525000Y61553981D01*
X60525000Y61553983D01*
X60529040Y61594999D01*
X60525000Y61636019D01*
X60525000Y76158982D01*
X60529040Y76200000D01*
X60512918Y76363688D01*
X60511155Y76369502D01*
X60465172Y76521087D01*
X60387636Y76666146D01*
X60283291Y76793291D01*
X60251431Y76819438D01*
X59878807Y77192061D01*
X59905000Y77323740D01*
X59905000Y77616260D01*
X59847932Y77903158D01*
X59735990Y78173411D01*
X59573475Y78416632D01*
X59366632Y78623475D01*
X59255000Y78698065D01*
X59255000Y81500128D01*
X66345000Y81500128D01*
X66345000Y81059872D01*
X66430890Y80628075D01*
X66599369Y80221331D01*
X66843962Y79855271D01*
X67155271Y79543962D01*
X67521331Y79299369D01*
X67928075Y79130890D01*
X68359872Y79045000D01*
X68800128Y79045000D01*
X69231925Y79130890D01*
X69638669Y79299369D01*
X70004729Y79543962D01*
X70316038Y79855271D01*
X70560631Y80221331D01*
X70729110Y80628075D01*
X70815000Y81059872D01*
X70815000Y81500128D01*
X70729110Y81931925D01*
X70560631Y82338669D01*
X70316038Y82704729D01*
X70004729Y83016038D01*
X69638669Y83260631D01*
X69231925Y83429110D01*
X68800128Y83515000D01*
X68359872Y83515000D01*
X67928075Y83429110D01*
X67521331Y83260631D01*
X67155271Y83016038D01*
X66843962Y82704729D01*
X66599369Y82338669D01*
X66430890Y81931925D01*
X66345000Y81500128D01*
X59255000Y81500128D01*
X59255000Y87036935D01*
X59366632Y87111525D01*
X59573475Y87318368D01*
X59735990Y87561589D01*
X59847932Y87831842D01*
X59905000Y88118740D01*
X59905000Y88411260D01*
X59847932Y88698158D01*
X59735990Y88968411D01*
X59573475Y89211632D01*
X59386392Y89398715D01*
X59513386Y89466595D01*
X59647962Y89577038D01*
X59758405Y89711614D01*
X59840472Y89865150D01*
X59891008Y90031746D01*
X59908072Y90205000D01*
X59908072Y91405000D01*
X59891008Y91578254D01*
X59840472Y91744850D01*
X59758405Y91898386D01*
X59647962Y92032962D01*
X59513386Y92143405D01*
X59359850Y92225472D01*
X59193254Y92276008D01*
X59020000Y92293072D01*
X57820000Y92293072D01*
X57646746Y92276008D01*
X57480150Y92225472D01*
X57326614Y92143405D01*
X57192038Y92032962D01*
X57081595Y91898386D01*
X57013715Y91771392D01*
X56826632Y91958475D01*
X56583411Y92120990D01*
X56313158Y92232932D01*
X56026260Y92290000D01*
X55733740Y92290000D01*
X55446842Y92232932D01*
X55176589Y92120990D01*
X54933368Y91958475D01*
X54726525Y91751632D01*
X54610000Y91577240D01*
X54493475Y91751632D01*
X54286632Y91958475D01*
X54043411Y92120990D01*
X53773158Y92232932D01*
X53486260Y92290000D01*
X53193740Y92290000D01*
X52906842Y92232932D01*
X52636589Y92120990D01*
X52393368Y91958475D01*
X52186525Y91751632D01*
X52070000Y91577240D01*
X51953475Y91751632D01*
X51746632Y91958475D01*
X51503411Y92120990D01*
X51233158Y92232932D01*
X50946260Y92290000D01*
X50653740Y92290000D01*
X50366842Y92232932D01*
X50096589Y92120990D01*
X49853368Y91958475D01*
X49646525Y91751632D01*
X49530000Y91577240D01*
X49413475Y91751632D01*
X49206632Y91958475D01*
X48963411Y92120990D01*
X48693158Y92232932D01*
X48406260Y92290000D01*
X48113740Y92290000D01*
X47826842Y92232932D01*
X47556589Y92120990D01*
X47313368Y91958475D01*
X47106525Y91751632D01*
X46990000Y91577240D01*
X46873475Y91751632D01*
X46666632Y91958475D01*
X46423411Y92120990D01*
X46153158Y92232932D01*
X45866260Y92290000D01*
X45573740Y92290000D01*
X45286842Y92232932D01*
X45016589Y92120990D01*
X44773368Y91958475D01*
X44566525Y91751632D01*
X44450000Y91577240D01*
X44333475Y91751632D01*
X44126632Y91958475D01*
X43883411Y92120990D01*
X43613158Y92232932D01*
X43326260Y92290000D01*
X43033740Y92290000D01*
X42746842Y92232932D01*
X42476589Y92120990D01*
X42233368Y91958475D01*
X42026525Y91751632D01*
X41910000Y91577240D01*
X41793475Y91751632D01*
X41586632Y91958475D01*
X41343411Y92120990D01*
X41073158Y92232932D01*
X40786260Y92290000D01*
X40493740Y92290000D01*
X40206842Y92232932D01*
X39936589Y92120990D01*
X39693368Y91958475D01*
X39486525Y91751632D01*
X39370000Y91577240D01*
X39253475Y91751632D01*
X39046632Y91958475D01*
X38803411Y92120990D01*
X38533158Y92232932D01*
X38246260Y92290000D01*
X37953740Y92290000D01*
X37666842Y92232932D01*
X37396589Y92120990D01*
X37153368Y91958475D01*
X36946525Y91751632D01*
X36830000Y91577240D01*
X36713475Y91751632D01*
X36506632Y91958475D01*
X36263411Y92120990D01*
X35993158Y92232932D01*
X35706260Y92290000D01*
X35413740Y92290000D01*
X35126842Y92232932D01*
X34856589Y92120990D01*
X34613368Y91958475D01*
X34406525Y91751632D01*
X34290000Y91577240D01*
X34173475Y91751632D01*
X33966632Y91958475D01*
X33723411Y92120990D01*
X33453158Y92232932D01*
X33166260Y92290000D01*
X32873740Y92290000D01*
X32586842Y92232932D01*
X32316589Y92120990D01*
X32073368Y91958475D01*
X31866525Y91751632D01*
X31750000Y91577240D01*
X31633475Y91751632D01*
X31426632Y91958475D01*
X31183411Y92120990D01*
X30913158Y92232932D01*
X30626260Y92290000D01*
X30333740Y92290000D01*
X30046842Y92232932D01*
X29776589Y92120990D01*
X29533368Y91958475D01*
X29326525Y91751632D01*
X29210000Y91577240D01*
X29093475Y91751632D01*
X28886632Y91958475D01*
X28643411Y92120990D01*
X28373158Y92232932D01*
X28086260Y92290000D01*
X27793740Y92290000D01*
X27506842Y92232932D01*
X27236589Y92120990D01*
X26993368Y91958475D01*
X26786525Y91751632D01*
X26670000Y91577240D01*
X26553475Y91751632D01*
X26346632Y91958475D01*
X26103411Y92120990D01*
X25833158Y92232932D01*
X25546260Y92290000D01*
X25253740Y92290000D01*
X24966842Y92232932D01*
X24696589Y92120990D01*
X24453368Y91958475D01*
X24246525Y91751632D01*
X24130000Y91577240D01*
X24013475Y91751632D01*
X23806632Y91958475D01*
X23563411Y92120990D01*
X23293158Y92232932D01*
X23006260Y92290000D01*
X22713740Y92290000D01*
X22426842Y92232932D01*
X22156589Y92120990D01*
X21913368Y91958475D01*
X21706525Y91751632D01*
X21590000Y91577240D01*
X21473475Y91751632D01*
X21266632Y91958475D01*
X21023411Y92120990D01*
X20753158Y92232932D01*
X20466260Y92290000D01*
X20173740Y92290000D01*
X19886842Y92232932D01*
X19616589Y92120990D01*
X19373368Y91958475D01*
X19166525Y91751632D01*
X19050000Y91577240D01*
X18933475Y91751632D01*
X18726632Y91958475D01*
X18483411Y92120990D01*
X18213158Y92232932D01*
X17926260Y92290000D01*
X17633740Y92290000D01*
X17346842Y92232932D01*
X17076589Y92120990D01*
X16833368Y91958475D01*
X16626525Y91751632D01*
X16464010Y91508411D01*
X16352068Y91238158D01*
X16295000Y90951260D01*
X660000Y90951260D01*
X660000Y93955000D01*
X75540000Y93955000D01*
X75540001Y660000D01*
G37*
%TD.AperFunction*%
%TD*%
M02*
