%TF.GenerationSoftware,KiCad,Pcbnew,(5.1.10)-1*%
%TF.CreationDate,2022-01-30T10:28:43+01:00*%
%TF.ProjectId,Oric_BUS,4f726963-5f42-4555-932e-6b696361645f,1.0*%
%TF.SameCoordinates,PX6049a88PY791ddc0*%
%TF.FileFunction,Legend,Bot*%
%TF.FilePolarity,Positive*%
%FSLAX46Y46*%
G04 Gerber Fmt 4.6, Leading zero omitted, Abs format (unit mm)*
G04 Created by KiCad (PCBNEW (5.1.10)-1) date 2022-01-30 10:28:43*
%MOMM*%
%LPD*%
G01*
G04 APERTURE LIST*
%ADD10C,0.200000*%
%ADD11C,0.120000*%
%ADD12C,0.150000*%
G04 APERTURE END LIST*
D10*
X1783571Y73412858D02*
X1783571Y73912858D01*
X2674047Y73912858D02*
X974047Y73912858D01*
X974047Y73198572D01*
X2674047Y72627143D02*
X1540714Y72627143D01*
X1864523Y72627143D02*
X1702619Y72555715D01*
X1621666Y72484286D01*
X1540714Y72341429D01*
X1540714Y72198572D01*
X2593095Y71127143D02*
X2674047Y71270000D01*
X2674047Y71555715D01*
X2593095Y71698572D01*
X2431190Y71770000D01*
X1783571Y71770000D01*
X1621666Y71698572D01*
X1540714Y71555715D01*
X1540714Y71270000D01*
X1621666Y71127143D01*
X1783571Y71055715D01*
X1945476Y71055715D01*
X2107380Y71770000D01*
X2674047Y69770000D02*
X974047Y69770000D01*
X2593095Y69770000D02*
X2674047Y69912858D01*
X2674047Y70198572D01*
X2593095Y70341429D01*
X2512142Y70412858D01*
X2350238Y70484286D01*
X1864523Y70484286D01*
X1702619Y70412858D01*
X1621666Y70341429D01*
X1540714Y70198572D01*
X1540714Y69912858D01*
X1621666Y69770000D01*
X974047Y69198572D02*
X974047Y68198572D01*
X2674047Y68841429D01*
X1135952Y67698572D02*
X1055000Y67627143D01*
X974047Y67484286D01*
X974047Y67127143D01*
X1055000Y66984286D01*
X1135952Y66912858D01*
X1297857Y66841429D01*
X1459761Y66841429D01*
X1702619Y66912858D01*
X2674047Y67770000D01*
X2674047Y66841429D01*
X2835952Y66555715D02*
X2835952Y65412858D01*
X2674047Y64270000D02*
X2674047Y65127143D01*
X2674047Y64698572D02*
X974047Y64698572D01*
X1216904Y64841429D01*
X1378809Y64984286D01*
X1459761Y65127143D01*
X1135952Y63698572D02*
X1055000Y63627143D01*
X974047Y63484286D01*
X974047Y63127143D01*
X1055000Y62984286D01*
X1135952Y62912858D01*
X1297857Y62841429D01*
X1459761Y62841429D01*
X1702619Y62912858D01*
X2674047Y63770000D01*
X2674047Y62841429D01*
X893095Y61127143D02*
X3078809Y62412858D01*
X1135952Y60698572D02*
X1055000Y60627143D01*
X974047Y60484286D01*
X974047Y60127143D01*
X1055000Y59984286D01*
X1135952Y59912858D01*
X1297857Y59841429D01*
X1459761Y59841429D01*
X1702619Y59912858D01*
X2674047Y60770000D01*
X2674047Y59841429D01*
X974047Y58912858D02*
X974047Y58770000D01*
X1055000Y58627143D01*
X1135952Y58555715D01*
X1297857Y58484286D01*
X1621666Y58412858D01*
X2026428Y58412858D01*
X2350238Y58484286D01*
X2512142Y58555715D01*
X2593095Y58627143D01*
X2674047Y58770000D01*
X2674047Y58912858D01*
X2593095Y59055715D01*
X2512142Y59127143D01*
X2350238Y59198572D01*
X2026428Y59270000D01*
X1621666Y59270000D01*
X1297857Y59198572D01*
X1135952Y59127143D01*
X1055000Y59055715D01*
X974047Y58912858D01*
X1135952Y57841429D02*
X1055000Y57770000D01*
X974047Y57627143D01*
X974047Y57270000D01*
X1055000Y57127143D01*
X1135952Y57055715D01*
X1297857Y56984286D01*
X1459761Y56984286D01*
X1702619Y57055715D01*
X2674047Y57912858D01*
X2674047Y56984286D01*
X2674047Y55555715D02*
X2674047Y56412858D01*
X2674047Y55984286D02*
X974047Y55984286D01*
X1216904Y56127143D01*
X1378809Y56270000D01*
X1459761Y56412858D01*
D11*
%TO.C,SW1*%
X69515000Y49445000D02*
X69515000Y52845000D01*
X69515000Y47805000D02*
X69515000Y48345000D01*
X66685000Y55005000D02*
X66175000Y55005000D01*
X66175000Y54485000D02*
X66175000Y55005000D01*
X66685000Y54485000D02*
X66175000Y54485000D01*
X69515000Y53945000D02*
X69515000Y54485000D01*
X66685000Y47285000D02*
X66175000Y47285000D01*
X66685000Y47805000D02*
X66175000Y47805000D01*
X69515000Y54485000D02*
X69285000Y54485000D01*
X73185000Y47285000D02*
X69285000Y47285000D01*
X66175000Y47285000D02*
X66175000Y47805000D01*
X73185000Y55005000D02*
X69285000Y55005000D01*
X73185000Y47285000D02*
X73185000Y55005000D01*
X69515000Y47805000D02*
X69285000Y47805000D01*
%TO.C,J6*%
X63235000Y36350000D02*
X63235000Y33750000D01*
X77935000Y36350000D02*
X63235000Y36350000D01*
X63235000Y27150000D02*
X65135000Y27150000D01*
X63235000Y29850000D02*
X63235000Y27150000D01*
X77935000Y27150000D02*
X77935000Y36350000D01*
X69135000Y27150000D02*
X77935000Y27150000D01*
X64085000Y36550000D02*
X63035000Y36550000D01*
X63035000Y35500000D02*
X63035000Y36550000D01*
%TO.C,SW1*%
D12*
X66905238Y49811667D02*
X66857619Y49954524D01*
X66857619Y50192620D01*
X66905238Y50287858D01*
X66952857Y50335477D01*
X67048095Y50383096D01*
X67143333Y50383096D01*
X67238571Y50335477D01*
X67286190Y50287858D01*
X67333809Y50192620D01*
X67381428Y50002143D01*
X67429047Y49906905D01*
X67476666Y49859286D01*
X67571904Y49811667D01*
X67667142Y49811667D01*
X67762380Y49859286D01*
X67810000Y49906905D01*
X67857619Y50002143D01*
X67857619Y50240239D01*
X67810000Y50383096D01*
X67857619Y50716429D02*
X66857619Y50954524D01*
X67571904Y51145000D01*
X66857619Y51335477D01*
X67857619Y51573572D01*
X66857619Y52478334D02*
X66857619Y51906905D01*
X66857619Y52192620D02*
X67857619Y52192620D01*
X67714761Y52097381D01*
X67619523Y52002143D01*
X67571904Y51906905D01*
%TO.C,J6*%
X72918333Y26547620D02*
X72918333Y25833334D01*
X72965952Y25690477D01*
X73061190Y25595239D01*
X73204047Y25547620D01*
X73299285Y25547620D01*
X72013571Y26547620D02*
X72204047Y26547620D01*
X72299285Y26500000D01*
X72346904Y26452381D01*
X72442142Y26309524D01*
X72489761Y26119048D01*
X72489761Y25738096D01*
X72442142Y25642858D01*
X72394523Y25595239D01*
X72299285Y25547620D01*
X72108809Y25547620D01*
X72013571Y25595239D01*
X71965952Y25642858D01*
X71918333Y25738096D01*
X71918333Y25976191D01*
X71965952Y26071429D01*
X72013571Y26119048D01*
X72108809Y26166667D01*
X72299285Y26166667D01*
X72394523Y26119048D01*
X72442142Y26071429D01*
X72489761Y25976191D01*
%TD*%
M02*
