%TF.GenerationSoftware,KiCad,Pcbnew,(5.1.10)-1*%
%TF.CreationDate,2022-01-30T10:28:43+01:00*%
%TF.ProjectId,Oric_BUS,4f726963-5f42-4555-932e-6b696361645f,1.0*%
%TF.SameCoordinates,PX6049a88PY791ddc0*%
%TF.FileFunction,Copper,L1,Top*%
%TF.FilePolarity,Positive*%
%FSLAX46Y46*%
G04 Gerber Fmt 4.6, Leading zero omitted, Abs format (unit mm)*
G04 Created by KiCad (PCBNEW (5.1.10)-1) date 2022-01-30 10:28:43*
%MOMM*%
%LPD*%
G01*
G04 APERTURE LIST*
%TA.AperFunction,ComponentPad*%
%ADD10C,1.600000*%
%TD*%
%TA.AperFunction,ComponentPad*%
%ADD11R,1.600000X1.600000*%
%TD*%
%TA.AperFunction,ComponentPad*%
%ADD12C,1.700000*%
%TD*%
%TA.AperFunction,ComponentPad*%
%ADD13O,1.700000X1.700000*%
%TD*%
%TA.AperFunction,ComponentPad*%
%ADD14R,1.700000X1.700000*%
%TD*%
%TA.AperFunction,ComponentPad*%
%ADD15C,2.100000*%
%TD*%
%TA.AperFunction,ComponentPad*%
%ADD16C,1.750000*%
%TD*%
%TA.AperFunction,ComponentPad*%
%ADD17R,3.500000X3.500000*%
%TD*%
%TA.AperFunction,ComponentPad*%
%ADD18O,1.700000X2.400000*%
%TD*%
%TA.AperFunction,Conductor*%
%ADD19C,0.400000*%
%TD*%
%TA.AperFunction,Conductor*%
%ADD20C,1.000000*%
%TD*%
%TA.AperFunction,Conductor*%
%ADD21C,0.254000*%
%TD*%
%TA.AperFunction,Conductor*%
%ADD22C,0.100000*%
%TD*%
G04 APERTURE END LIST*
D10*
%TO.P,C4,2*%
%TO.N,GND*%
X17780000Y66580000D03*
D11*
%TO.P,C4,1*%
%TO.N,+5VA*%
X17780000Y68580000D03*
%TD*%
D10*
%TO.P,C3,2*%
%TO.N,GND*%
X17780000Y48800000D03*
D11*
%TO.P,C3,1*%
%TO.N,+5VA*%
X17780000Y50800000D03*
%TD*%
D12*
%TO.P,J5,34*%
%TO.N,GND*%
X17780000Y88265000D03*
%TO.P,J5,32*%
%TO.N,/A11*%
X20320000Y88265000D03*
%TO.P,J5,30*%
%TO.N,/A12*%
X22860000Y88265000D03*
%TO.P,J5,28*%
%TO.N,/A13*%
X25400000Y88265000D03*
%TO.P,J5,26*%
%TO.N,/A14*%
X27940000Y88265000D03*
%TO.P,J5,24*%
%TO.N,/A15*%
X30480000Y88265000D03*
%TO.P,J5,22*%
%TO.N,/D7*%
X33020000Y88265000D03*
%TO.P,J5,20*%
%TO.N,/A4*%
X35560000Y88265000D03*
%TO.P,J5,18*%
%TO.N,/D4*%
X38100000Y88265000D03*
%TO.P,J5,16*%
%TO.N,/D3*%
X40640000Y88265000D03*
%TO.P,J5,14*%
%TO.N,/D6*%
X43180000Y88265000D03*
%TO.P,J5,12*%
%TO.N,/D1*%
X45720000Y88265000D03*
%TO.P,J5,10*%
%TO.N,/D0*%
X48260000Y88265000D03*
%TO.P,J5,8*%
%TO.N,/~IRQ*%
X50800000Y88265000D03*
%TO.P,J5,6*%
%TO.N,/~IOCTRL*%
X53340000Y88265000D03*
%TO.P,J5,4*%
%TO.N,/~RESET*%
X55880000Y88265000D03*
%TO.P,J5,2*%
%TO.N,/~ROMDIS*%
X58420000Y88265000D03*
%TO.P,J5,33*%
%TO.N,+5V*%
X17780000Y90805000D03*
%TO.P,J5,31*%
%TO.N,/A10*%
X20320000Y90805000D03*
%TO.P,J5,29*%
%TO.N,/A9*%
X22860000Y90805000D03*
%TO.P,J5,27*%
%TO.N,/A8*%
X25400000Y90805000D03*
%TO.P,J5,25*%
%TO.N,/A7*%
X27940000Y90805000D03*
%TO.P,J5,23*%
%TO.N,/A6*%
X30480000Y90805000D03*
%TO.P,J5,21*%
%TO.N,/A5*%
X33020000Y90805000D03*
%TO.P,J5,19*%
%TO.N,/D5*%
X35560000Y90805000D03*
%TO.P,J5,17*%
%TO.N,/A2*%
X38100000Y90805000D03*
%TO.P,J5,15*%
%TO.N,/A1*%
X40640000Y90805000D03*
%TO.P,J5,13*%
%TO.N,/A0*%
X43180000Y90805000D03*
%TO.P,J5,11*%
%TO.N,/A3*%
X45720000Y90805000D03*
%TO.P,J5,9*%
%TO.N,/D2*%
X48260000Y90805000D03*
%TO.P,J5,7*%
%TO.N,/R_~W*%
X50800000Y90805000D03*
%TO.P,J5,5*%
%TO.N,/~IO*%
X53340000Y90805000D03*
%TO.P,J5,3*%
%TO.N,/PHI2*%
X55880000Y90805000D03*
%TO.P,J5,1*%
%TO.N,/~MAP*%
%TA.AperFunction,ComponentPad*%
G36*
G01*
X57820000Y91655000D02*
X59020000Y91655000D01*
G75*
G02*
X59270000Y91405000I0J-250000D01*
G01*
X59270000Y90205000D01*
G75*
G02*
X59020000Y89955000I-250000J0D01*
G01*
X57820000Y89955000D01*
G75*
G02*
X57570000Y90205000I0J250000D01*
G01*
X57570000Y91405000D01*
G75*
G02*
X57820000Y91655000I250000J0D01*
G01*
G37*
%TD.AperFunction*%
%TD*%
D13*
%TO.P,J7,34*%
%TO.N,GND*%
X17780000Y77470000D03*
%TO.P,J7,33*%
%TO.N,+5VA*%
X17780000Y74930000D03*
%TO.P,J7,32*%
%TO.N,/A11*%
X20320000Y77470000D03*
%TO.P,J7,31*%
%TO.N,/A10*%
X20320000Y74930000D03*
%TO.P,J7,30*%
%TO.N,/A12*%
X22860000Y77470000D03*
%TO.P,J7,29*%
%TO.N,/A9*%
X22860000Y74930000D03*
%TO.P,J7,28*%
%TO.N,/A13*%
X25400000Y77470000D03*
%TO.P,J7,27*%
%TO.N,/A8*%
X25400000Y74930000D03*
%TO.P,J7,26*%
%TO.N,/A14*%
X27940000Y77470000D03*
%TO.P,J7,25*%
%TO.N,/A7*%
X27940000Y74930000D03*
%TO.P,J7,24*%
%TO.N,/A15*%
X30480000Y77470000D03*
%TO.P,J7,23*%
%TO.N,/A6*%
X30480000Y74930000D03*
%TO.P,J7,22*%
%TO.N,/D7*%
X33020000Y77470000D03*
%TO.P,J7,21*%
%TO.N,/A5*%
X33020000Y74930000D03*
%TO.P,J7,20*%
%TO.N,/A4*%
X35560000Y77470000D03*
%TO.P,J7,19*%
%TO.N,/D5*%
X35560000Y74930000D03*
%TO.P,J7,18*%
%TO.N,/D4*%
X38100000Y77470000D03*
%TO.P,J7,17*%
%TO.N,/A2*%
X38100000Y74930000D03*
%TO.P,J7,16*%
%TO.N,/D3*%
X40640000Y77470000D03*
%TO.P,J7,15*%
%TO.N,/A1*%
X40640000Y74930000D03*
%TO.P,J7,14*%
%TO.N,/D6*%
X43180000Y77470000D03*
%TO.P,J7,13*%
%TO.N,/A0*%
X43180000Y74930000D03*
%TO.P,J7,12*%
%TO.N,/D1*%
X45720000Y77470000D03*
%TO.P,J7,11*%
%TO.N,/A3*%
X45720000Y74930000D03*
%TO.P,J7,10*%
%TO.N,/D0*%
X48260000Y77470000D03*
%TO.P,J7,9*%
%TO.N,/D2*%
X48260000Y74930000D03*
%TO.P,J7,8*%
%TO.N,/~IRQ*%
X50800000Y77470000D03*
%TO.P,J7,7*%
%TO.N,/R_~W*%
X50800000Y74930000D03*
%TO.P,J7,6*%
%TO.N,/~IOCTRL*%
X53340000Y77470000D03*
%TO.P,J7,5*%
%TO.N,/~IO*%
X53340000Y74930000D03*
%TO.P,J7,4*%
%TO.N,/~RESET*%
X55880000Y77470000D03*
%TO.P,J7,3*%
%TO.N,/PHI2*%
X55880000Y74930000D03*
%TO.P,J7,2*%
%TO.N,/~ROMDIS*%
X58420000Y77470000D03*
D14*
%TO.P,J7,1*%
%TO.N,/~MAP*%
X58420000Y74930000D03*
%TD*%
D10*
%TO.P,C1,2*%
%TO.N,GND*%
X17780000Y13875000D03*
D11*
%TO.P,C1,1*%
%TO.N,+5VA*%
X17780000Y15875000D03*
%TD*%
D10*
%TO.P,C2,2*%
%TO.N,GND*%
X17780000Y31020000D03*
D11*
%TO.P,C2,1*%
%TO.N,+5VA*%
X17780000Y33020000D03*
%TD*%
D15*
%TO.P,SW1,*%
%TO.N,*%
X67995000Y47645000D03*
D16*
%TO.P,SW1,1*%
%TO.N,GND*%
X70485000Y48895000D03*
%TO.P,SW1,2*%
%TO.N,/~RESET*%
X70485000Y53395000D03*
D15*
%TO.P,SW1,*%
%TO.N,*%
X67995000Y54655000D03*
%TD*%
D13*
%TO.P,J4,34*%
%TO.N,GND*%
X17780000Y59690000D03*
%TO.P,J4,33*%
%TO.N,+5VA*%
X17780000Y57150000D03*
%TO.P,J4,32*%
%TO.N,/A11*%
X20320000Y59690000D03*
%TO.P,J4,31*%
%TO.N,/A10*%
X20320000Y57150000D03*
%TO.P,J4,30*%
%TO.N,/A12*%
X22860000Y59690000D03*
%TO.P,J4,29*%
%TO.N,/A9*%
X22860000Y57150000D03*
%TO.P,J4,28*%
%TO.N,/A13*%
X25400000Y59690000D03*
%TO.P,J4,27*%
%TO.N,/A8*%
X25400000Y57150000D03*
%TO.P,J4,26*%
%TO.N,/A14*%
X27940000Y59690000D03*
%TO.P,J4,25*%
%TO.N,/A7*%
X27940000Y57150000D03*
%TO.P,J4,24*%
%TO.N,/A15*%
X30480000Y59690000D03*
%TO.P,J4,23*%
%TO.N,/A6*%
X30480000Y57150000D03*
%TO.P,J4,22*%
%TO.N,/D7*%
X33020000Y59690000D03*
%TO.P,J4,21*%
%TO.N,/A5*%
X33020000Y57150000D03*
%TO.P,J4,20*%
%TO.N,/A4*%
X35560000Y59690000D03*
%TO.P,J4,19*%
%TO.N,/D5*%
X35560000Y57150000D03*
%TO.P,J4,18*%
%TO.N,/D4*%
X38100000Y59690000D03*
%TO.P,J4,17*%
%TO.N,/A2*%
X38100000Y57150000D03*
%TO.P,J4,16*%
%TO.N,/D3*%
X40640000Y59690000D03*
%TO.P,J4,15*%
%TO.N,/A1*%
X40640000Y57150000D03*
%TO.P,J4,14*%
%TO.N,/D6*%
X43180000Y59690000D03*
%TO.P,J4,13*%
%TO.N,/A0*%
X43180000Y57150000D03*
%TO.P,J4,12*%
%TO.N,/D1*%
X45720000Y59690000D03*
%TO.P,J4,11*%
%TO.N,/A3*%
X45720000Y57150000D03*
%TO.P,J4,10*%
%TO.N,/D0*%
X48260000Y59690000D03*
%TO.P,J4,9*%
%TO.N,/D2*%
X48260000Y57150000D03*
%TO.P,J4,8*%
%TO.N,/~IRQ*%
X50800000Y59690000D03*
%TO.P,J4,7*%
%TO.N,/R_~W*%
X50800000Y57150000D03*
%TO.P,J4,6*%
%TO.N,/~IOCTRL*%
X53340000Y59690000D03*
%TO.P,J4,5*%
%TO.N,/~IO*%
X53340000Y57150000D03*
%TO.P,J4,4*%
%TO.N,/~RESET*%
X55880000Y59690000D03*
%TO.P,J4,3*%
%TO.N,/PHI2*%
X55880000Y57150000D03*
%TO.P,J4,2*%
%TO.N,/~ROMDIS*%
X58420000Y59690000D03*
D14*
%TO.P,J4,1*%
%TO.N,/~MAP*%
X58420000Y57150000D03*
%TD*%
D13*
%TO.P,J3,34*%
%TO.N,GND*%
X17780000Y41910000D03*
%TO.P,J3,33*%
%TO.N,+5VA*%
X17780000Y39370000D03*
%TO.P,J3,32*%
%TO.N,/A11*%
X20320000Y41910000D03*
%TO.P,J3,31*%
%TO.N,/A10*%
X20320000Y39370000D03*
%TO.P,J3,30*%
%TO.N,/A12*%
X22860000Y41910000D03*
%TO.P,J3,29*%
%TO.N,/A9*%
X22860000Y39370000D03*
%TO.P,J3,28*%
%TO.N,/A13*%
X25400000Y41910000D03*
%TO.P,J3,27*%
%TO.N,/A8*%
X25400000Y39370000D03*
%TO.P,J3,26*%
%TO.N,/A14*%
X27940000Y41910000D03*
%TO.P,J3,25*%
%TO.N,/A7*%
X27940000Y39370000D03*
%TO.P,J3,24*%
%TO.N,/A15*%
X30480000Y41910000D03*
%TO.P,J3,23*%
%TO.N,/A6*%
X30480000Y39370000D03*
%TO.P,J3,22*%
%TO.N,/D7*%
X33020000Y41910000D03*
%TO.P,J3,21*%
%TO.N,/A5*%
X33020000Y39370000D03*
%TO.P,J3,20*%
%TO.N,/A4*%
X35560000Y41910000D03*
%TO.P,J3,19*%
%TO.N,/D5*%
X35560000Y39370000D03*
%TO.P,J3,18*%
%TO.N,/D4*%
X38100000Y41910000D03*
%TO.P,J3,17*%
%TO.N,/A2*%
X38100000Y39370000D03*
%TO.P,J3,16*%
%TO.N,/D3*%
X40640000Y41910000D03*
%TO.P,J3,15*%
%TO.N,/A1*%
X40640000Y39370000D03*
%TO.P,J3,14*%
%TO.N,/D6*%
X43180000Y41910000D03*
%TO.P,J3,13*%
%TO.N,/A0*%
X43180000Y39370000D03*
%TO.P,J3,12*%
%TO.N,/D1*%
X45720000Y41910000D03*
%TO.P,J3,11*%
%TO.N,/A3*%
X45720000Y39370000D03*
%TO.P,J3,10*%
%TO.N,/D0*%
X48260000Y41910000D03*
%TO.P,J3,9*%
%TO.N,/D2*%
X48260000Y39370000D03*
%TO.P,J3,8*%
%TO.N,/~IRQ*%
X50800000Y41910000D03*
%TO.P,J3,7*%
%TO.N,/R_~W*%
X50800000Y39370000D03*
%TO.P,J3,6*%
%TO.N,/~IOCTRL*%
X53340000Y41910000D03*
%TO.P,J3,5*%
%TO.N,/~IO*%
X53340000Y39370000D03*
%TO.P,J3,4*%
%TO.N,/~RESET*%
X55880000Y41910000D03*
%TO.P,J3,3*%
%TO.N,/PHI2*%
X55880000Y39370000D03*
%TO.P,J3,2*%
%TO.N,/~ROMDIS*%
X58420000Y41910000D03*
D14*
%TO.P,J3,1*%
%TO.N,/~MAP*%
X58420000Y39370000D03*
%TD*%
D13*
%TO.P,J2,34*%
%TO.N,GND*%
X17780000Y24130000D03*
%TO.P,J2,33*%
%TO.N,+5VA*%
X17780000Y21590000D03*
%TO.P,J2,32*%
%TO.N,/A11*%
X20320000Y24130000D03*
%TO.P,J2,31*%
%TO.N,/A10*%
X20320000Y21590000D03*
%TO.P,J2,30*%
%TO.N,/A12*%
X22860000Y24130000D03*
%TO.P,J2,29*%
%TO.N,/A9*%
X22860000Y21590000D03*
%TO.P,J2,28*%
%TO.N,/A13*%
X25400000Y24130000D03*
%TO.P,J2,27*%
%TO.N,/A8*%
X25400000Y21590000D03*
%TO.P,J2,26*%
%TO.N,/A14*%
X27940000Y24130000D03*
%TO.P,J2,25*%
%TO.N,/A7*%
X27940000Y21590000D03*
%TO.P,J2,24*%
%TO.N,/A15*%
X30480000Y24130000D03*
%TO.P,J2,23*%
%TO.N,/A6*%
X30480000Y21590000D03*
%TO.P,J2,22*%
%TO.N,/D7*%
X33020000Y24130000D03*
%TO.P,J2,21*%
%TO.N,/A5*%
X33020000Y21590000D03*
%TO.P,J2,20*%
%TO.N,/A4*%
X35560000Y24130000D03*
%TO.P,J2,19*%
%TO.N,/D5*%
X35560000Y21590000D03*
%TO.P,J2,18*%
%TO.N,/D4*%
X38100000Y24130000D03*
%TO.P,J2,17*%
%TO.N,/A2*%
X38100000Y21590000D03*
%TO.P,J2,16*%
%TO.N,/D3*%
X40640000Y24130000D03*
%TO.P,J2,15*%
%TO.N,/A1*%
X40640000Y21590000D03*
%TO.P,J2,14*%
%TO.N,/D6*%
X43180000Y24130000D03*
%TO.P,J2,13*%
%TO.N,/A0*%
X43180000Y21590000D03*
%TO.P,J2,12*%
%TO.N,/D1*%
X45720000Y24130000D03*
%TO.P,J2,11*%
%TO.N,/A3*%
X45720000Y21590000D03*
%TO.P,J2,10*%
%TO.N,/D0*%
X48260000Y24130000D03*
%TO.P,J2,9*%
%TO.N,/D2*%
X48260000Y21590000D03*
%TO.P,J2,8*%
%TO.N,/~IRQ*%
X50800000Y24130000D03*
%TO.P,J2,7*%
%TO.N,/R_~W*%
X50800000Y21590000D03*
%TO.P,J2,6*%
%TO.N,/~IOCTRL*%
X53340000Y24130000D03*
%TO.P,J2,5*%
%TO.N,/~IO*%
X53340000Y21590000D03*
%TO.P,J2,4*%
%TO.N,/~RESET*%
X55880000Y24130000D03*
%TO.P,J2,3*%
%TO.N,/PHI2*%
X55880000Y21590000D03*
%TO.P,J2,2*%
%TO.N,/~ROMDIS*%
X58420000Y24130000D03*
D14*
%TO.P,J2,1*%
%TO.N,/~MAP*%
X58420000Y21590000D03*
%TD*%
%TO.P,J6,3*%
%TO.N,N/C*%
%TA.AperFunction,ComponentPad*%
G36*
G01*
X68885000Y27925000D02*
X68885000Y26175000D01*
G75*
G02*
X68010000Y25300000I-875000J0D01*
G01*
X66260000Y25300000D01*
G75*
G02*
X65385000Y26175000I0J875000D01*
G01*
X65385000Y27925000D01*
G75*
G02*
X66260000Y28800000I875000J0D01*
G01*
X68010000Y28800000D01*
G75*
G02*
X68885000Y27925000I0J-875000D01*
G01*
G37*
%TD.AperFunction*%
%TO.P,J6,2*%
%TO.N,GND*%
%TA.AperFunction,ComponentPad*%
G36*
G01*
X71635000Y32750000D02*
X71635000Y30750000D01*
G75*
G02*
X70885000Y30000000I-750000J0D01*
G01*
X69385000Y30000000D01*
G75*
G02*
X68635000Y30750000I0J750000D01*
G01*
X68635000Y32750000D01*
G75*
G02*
X69385000Y33500000I750000J0D01*
G01*
X70885000Y33500000D01*
G75*
G02*
X71635000Y32750000I0J-750000D01*
G01*
G37*
%TD.AperFunction*%
D17*
%TO.P,J6,1*%
%TO.N,Net-(J6-Pad1)*%
X64135000Y31750000D03*
%TD*%
D18*
%TO.P,JP1,3*%
%TO.N,+5V*%
X3810000Y31750000D03*
%TO.P,JP1,2*%
%TO.N,+5VA*%
X6350000Y31750000D03*
%TO.P,JP1,1*%
%TO.N,Net-(J6-Pad1)*%
X8890000Y31750000D03*
%TD*%
D12*
%TO.P,J1,34*%
%TO.N,GND*%
X17780000Y3810000D03*
%TO.P,J1,32*%
%TO.N,/A11*%
X20320000Y3810000D03*
%TO.P,J1,30*%
%TO.N,/A12*%
X22860000Y3810000D03*
%TO.P,J1,28*%
%TO.N,/A13*%
X25400000Y3810000D03*
%TO.P,J1,26*%
%TO.N,/A14*%
X27940000Y3810000D03*
%TO.P,J1,24*%
%TO.N,/A15*%
X30480000Y3810000D03*
%TO.P,J1,22*%
%TO.N,/D7*%
X33020000Y3810000D03*
%TO.P,J1,20*%
%TO.N,/A4*%
X35560000Y3810000D03*
%TO.P,J1,18*%
%TO.N,/D4*%
X38100000Y3810000D03*
%TO.P,J1,16*%
%TO.N,/D3*%
X40640000Y3810000D03*
%TO.P,J1,14*%
%TO.N,/D6*%
X43180000Y3810000D03*
%TO.P,J1,12*%
%TO.N,/D1*%
X45720000Y3810000D03*
%TO.P,J1,10*%
%TO.N,/D0*%
X48260000Y3810000D03*
%TO.P,J1,8*%
%TO.N,/~IRQ*%
X50800000Y3810000D03*
%TO.P,J1,6*%
%TO.N,/~IOCTRL*%
X53340000Y3810000D03*
%TO.P,J1,4*%
%TO.N,/~RESET*%
X55880000Y3810000D03*
%TO.P,J1,2*%
%TO.N,/~ROMDIS*%
X58420000Y3810000D03*
%TO.P,J1,33*%
%TO.N,+5V*%
X17780000Y6350000D03*
%TO.P,J1,31*%
%TO.N,/A10*%
X20320000Y6350000D03*
%TO.P,J1,29*%
%TO.N,/A9*%
X22860000Y6350000D03*
%TO.P,J1,27*%
%TO.N,/A8*%
X25400000Y6350000D03*
%TO.P,J1,25*%
%TO.N,/A7*%
X27940000Y6350000D03*
%TO.P,J1,23*%
%TO.N,/A6*%
X30480000Y6350000D03*
%TO.P,J1,21*%
%TO.N,/A5*%
X33020000Y6350000D03*
%TO.P,J1,19*%
%TO.N,/D5*%
X35560000Y6350000D03*
%TO.P,J1,17*%
%TO.N,/A2*%
X38100000Y6350000D03*
%TO.P,J1,15*%
%TO.N,/A1*%
X40640000Y6350000D03*
%TO.P,J1,13*%
%TO.N,/A0*%
X43180000Y6350000D03*
%TO.P,J1,11*%
%TO.N,/A3*%
X45720000Y6350000D03*
%TO.P,J1,9*%
%TO.N,/D2*%
X48260000Y6350000D03*
%TO.P,J1,7*%
%TO.N,/R_~W*%
X50800000Y6350000D03*
%TO.P,J1,5*%
%TO.N,/~IO*%
X53340000Y6350000D03*
%TO.P,J1,3*%
%TO.N,/PHI2*%
X55880000Y6350000D03*
%TO.P,J1,1*%
%TO.N,/~MAP*%
%TA.AperFunction,ComponentPad*%
G36*
G01*
X57820000Y7200000D02*
X59020000Y7200000D01*
G75*
G02*
X59270000Y6950000I0J-250000D01*
G01*
X59270000Y5750000D01*
G75*
G02*
X59020000Y5500000I-250000J0D01*
G01*
X57820000Y5500000D01*
G75*
G02*
X57570000Y5750000I0J250000D01*
G01*
X57570000Y6950000D01*
G75*
G02*
X57820000Y7200000I250000J0D01*
G01*
G37*
%TD.AperFunction*%
%TD*%
D19*
%TO.N,/A11*%
X20320000Y77470000D02*
X19050000Y76200000D01*
X19050000Y76200000D02*
X19050000Y60960000D01*
X19050000Y60960000D02*
X20320000Y59690000D01*
X20320000Y41910000D02*
X19050000Y43180000D01*
X19050000Y43180000D02*
X19050000Y58420000D01*
X19050000Y58420000D02*
X20320000Y59690000D01*
X19685000Y29210000D02*
X20320000Y28575000D01*
X19685000Y36830000D02*
X19685000Y29210000D01*
X19050000Y37465000D02*
X19685000Y36830000D01*
X19050000Y40640000D02*
X19050000Y37465000D01*
X20320000Y28575000D02*
X20320000Y24130000D01*
X20320000Y41910000D02*
X19050000Y40640000D01*
%TO.N,/A12*%
X22860000Y59690000D02*
X21590000Y60960000D01*
X21590000Y60960000D02*
X21590000Y76200000D01*
X21590000Y76200000D02*
X22860000Y77470000D01*
X21590000Y40640000D02*
X22860000Y41910000D01*
X22860000Y59690000D02*
X21590000Y58420000D01*
X21590000Y58420000D02*
X21590000Y43180000D01*
X21590000Y43180000D02*
X22860000Y41910000D01*
X21590000Y30480000D02*
X22860000Y29210000D01*
X21590000Y30480000D02*
X21590000Y40640000D01*
X22860000Y29210000D02*
X22860000Y24130000D01*
%TO.N,/A13*%
X25400000Y77470000D02*
X24130000Y76200000D01*
X24130000Y76200000D02*
X24130000Y60960000D01*
X24130000Y60960000D02*
X25400000Y59690000D01*
X24130000Y40640000D02*
X25400000Y41910000D01*
X25400000Y41910000D02*
X24130000Y43180000D01*
X24130000Y43180000D02*
X24130000Y58420000D01*
X24130000Y58420000D02*
X25400000Y59690000D01*
X24130000Y30480000D02*
X25400000Y29210000D01*
X24130000Y30480000D02*
X24130000Y40640000D01*
X25400000Y29210000D02*
X25400000Y24130000D01*
%TO.N,/A14*%
X27940000Y77470000D02*
X26670000Y76200000D01*
X26670000Y76200000D02*
X26670000Y60960000D01*
X26670000Y60960000D02*
X27940000Y59690000D01*
X27940000Y59690000D02*
X26670000Y58420000D01*
X26670000Y58420000D02*
X26670000Y43180000D01*
X26670000Y43180000D02*
X27940000Y41910000D01*
X27940000Y41910000D02*
X26670000Y40640000D01*
X26670000Y40640000D02*
X26670000Y30480000D01*
X26670000Y30480000D02*
X27940000Y29210000D01*
X27940000Y29210000D02*
X27940000Y24130000D01*
%TO.N,/A15*%
X30480000Y59690000D02*
X29210000Y60960000D01*
X29210000Y60960000D02*
X29210000Y76200000D01*
X29210000Y76200000D02*
X30480000Y77470000D01*
X30480000Y41910000D02*
X29210000Y40640000D01*
X29210000Y58420000D02*
X30480000Y59690000D01*
X29210000Y43180000D02*
X29210000Y58420000D01*
X30480000Y41910000D02*
X29210000Y43180000D01*
X29210000Y30480000D02*
X30480000Y29210000D01*
X29210000Y40640000D02*
X29210000Y30480000D01*
X30480000Y29210000D02*
X30480000Y24130000D01*
%TO.N,/D7*%
X31750000Y40640000D02*
X33020000Y41910000D01*
X33020000Y59690000D02*
X31750000Y58420000D01*
X31750000Y58420000D02*
X31750000Y43180000D01*
X31750000Y43180000D02*
X33020000Y41910000D01*
X33020000Y77470000D02*
X31750000Y76200000D01*
X31750000Y76200000D02*
X31750000Y60960000D01*
X31750000Y60960000D02*
X33020000Y59690000D01*
X31750000Y30480000D02*
X33020000Y29210000D01*
X31750000Y30480000D02*
X31750000Y40640000D01*
X33020000Y29210000D02*
X33020000Y24130000D01*
%TO.N,/A4*%
X35560000Y77470000D02*
X34290000Y76200000D01*
X34290000Y76200000D02*
X34290000Y60960000D01*
X34290000Y60960000D02*
X35560000Y59690000D01*
X35560000Y59690000D02*
X34290000Y58420000D01*
X34290000Y58420000D02*
X34290000Y43180000D01*
X34290000Y43180000D02*
X35560000Y41910000D01*
X35560000Y41910000D02*
X34290000Y40640000D01*
X34290000Y30480000D02*
X35560000Y29210000D01*
X34290000Y40640000D02*
X34290000Y30480000D01*
X35560000Y29210000D02*
X35560000Y24130000D01*
%TO.N,/D4*%
X38100000Y59690000D02*
X36830000Y60960000D01*
X36830000Y60960000D02*
X36830000Y76200000D01*
X36830000Y76200000D02*
X38100000Y77470000D01*
X38100000Y59690000D02*
X36830000Y58420000D01*
X36830000Y58420000D02*
X36830000Y43180000D01*
X36830000Y43180000D02*
X38100000Y41910000D01*
X38100000Y41910000D02*
X36830000Y40640000D01*
X36830000Y40640000D02*
X36830000Y30480000D01*
X36830000Y30480000D02*
X38100000Y29210000D01*
X38100000Y29210000D02*
X38100000Y24130000D01*
%TO.N,/D3*%
X40640000Y77470000D02*
X39370000Y76200000D01*
X39370000Y76200000D02*
X39370000Y60960000D01*
X39370000Y60960000D02*
X40640000Y59690000D01*
X40640000Y41910000D02*
X39370000Y43180000D01*
X39370000Y43180000D02*
X39370000Y58420000D01*
X39370000Y58420000D02*
X40640000Y59690000D01*
X40640000Y41910000D02*
X39370000Y40640000D01*
X40640000Y29210000D02*
X39370000Y30480000D01*
X40640000Y24130000D02*
X40640000Y29210000D01*
X39370000Y40640000D02*
X39370000Y30480000D01*
%TO.N,/D6*%
X43180000Y59690000D02*
X41910000Y60960000D01*
X41910000Y60960000D02*
X41910000Y76200000D01*
X41910000Y76200000D02*
X43180000Y77470000D01*
X43180000Y59690000D02*
X41910000Y58420000D01*
X41910000Y58420000D02*
X41910000Y43180000D01*
X41910000Y43180000D02*
X43180000Y41910000D01*
X43180000Y29210000D02*
X43180000Y24130000D01*
X41910000Y40640000D02*
X41910000Y30480000D01*
X41910000Y30480000D02*
X43180000Y29210000D01*
X43180000Y41910000D02*
X41910000Y40640000D01*
%TO.N,/D1*%
X45720000Y77470000D02*
X44450000Y76200000D01*
X44450000Y76200000D02*
X44450000Y60960000D01*
X44450000Y60960000D02*
X45720000Y59690000D01*
X45720000Y41910000D02*
X44450000Y43180000D01*
X44450000Y43180000D02*
X44450000Y58420000D01*
X44450000Y58420000D02*
X45720000Y59690000D01*
X45720000Y24130000D02*
X45720000Y29210000D01*
X45720000Y29210000D02*
X44450000Y30480000D01*
X44450000Y40640000D02*
X45720000Y41910000D01*
X44450000Y30480000D02*
X44450000Y40640000D01*
%TO.N,/D0*%
X46990000Y76200000D02*
X48260000Y77470000D01*
X46990000Y60960000D02*
X46990000Y76200000D01*
X48260000Y59690000D02*
X46990000Y60960000D01*
X46990000Y40640000D02*
X48260000Y41910000D01*
X48260000Y59690000D02*
X46990000Y58420000D01*
X46990000Y58420000D02*
X46990000Y43180000D01*
X46990000Y43180000D02*
X48260000Y41910000D01*
X46990000Y30480000D02*
X48260000Y29210000D01*
X46990000Y30480000D02*
X46990000Y40640000D01*
X48260000Y29210000D02*
X48260000Y24130000D01*
%TO.N,/~IRQ*%
X50800000Y41910000D02*
X49530000Y40640000D01*
X50800000Y41910000D02*
X49530000Y43180000D01*
X49530000Y43180000D02*
X49530000Y58420000D01*
X49530000Y58420000D02*
X50800000Y59690000D01*
X50800000Y77470000D02*
X49530000Y76200000D01*
X49530000Y76200000D02*
X49530000Y60960000D01*
X49530000Y60960000D02*
X50800000Y59690000D01*
X49530000Y30480000D02*
X50800000Y29210000D01*
X49530000Y40640000D02*
X49530000Y30480000D01*
X50800000Y29210000D02*
X50800000Y24130000D01*
%TO.N,/~IOCTRL*%
X52070000Y40640000D02*
X53340000Y41910000D01*
X53340000Y59690000D02*
X52070000Y58420000D01*
X52070000Y58420000D02*
X52070000Y43180000D01*
X52070000Y43180000D02*
X53340000Y41910000D01*
X52070000Y76200000D02*
X53340000Y77470000D01*
X52070000Y60960000D02*
X52070000Y76200000D01*
X53340000Y59690000D02*
X52070000Y60960000D01*
X52070000Y30480000D02*
X53340000Y29210000D01*
X52070000Y30480000D02*
X52070000Y40640000D01*
X53340000Y29210000D02*
X53340000Y24130000D01*
%TO.N,/~RESET*%
X55880000Y3810000D02*
X55880000Y4445000D01*
X55880000Y41910000D02*
X54610000Y40640000D01*
X55880000Y41910000D02*
X54610000Y43180000D01*
X54610000Y43180000D02*
X54610000Y58420000D01*
X54610000Y58420000D02*
X55880000Y59690000D01*
X55880000Y77470000D02*
X54610000Y76200000D01*
X54610000Y40640000D02*
X54610000Y30480000D01*
X54610000Y30480000D02*
X55880000Y29210000D01*
X55880000Y29210000D02*
X55880000Y24130000D01*
X55880000Y64135000D02*
X54610000Y65405000D01*
X55880000Y59690000D02*
X55880000Y64135000D01*
X54610000Y76200000D02*
X54610000Y65405000D01*
X55880000Y64135000D02*
X64770000Y64135000D01*
X70485000Y58420000D02*
X70485000Y53395000D01*
X64770000Y64135000D02*
X70485000Y58420000D01*
%TO.N,/~ROMDIS*%
X57150000Y40640000D02*
X58420000Y41910000D01*
X58420000Y59690000D02*
X57150000Y58420000D01*
X57150000Y58420000D02*
X57150000Y43180000D01*
X57150000Y43180000D02*
X58420000Y41910000D01*
X57150000Y30480000D02*
X58420000Y29210000D01*
X57150000Y30480000D02*
X57150000Y40640000D01*
X58420000Y29210000D02*
X58420000Y24130000D01*
%TO.N,/A10*%
X20320000Y21590000D02*
X21590000Y22860000D01*
X21590000Y22860000D02*
X21590000Y29210000D01*
X21590000Y29210000D02*
X20320000Y30480000D01*
X20320000Y30480000D02*
X20320000Y39370000D01*
X20320000Y21590000D02*
X20320000Y6350000D01*
%TO.N,/A9*%
X22860000Y39370000D02*
X22860000Y30480000D01*
X22860000Y30480000D02*
X24130000Y29210000D01*
X24130000Y22860000D02*
X22860000Y21590000D01*
X24130000Y29210000D02*
X24130000Y22860000D01*
X22860000Y6350000D02*
X22860000Y21590000D01*
%TO.N,/A8*%
X25400000Y21590000D02*
X26670000Y22860000D01*
X26670000Y22860000D02*
X26670000Y29210000D01*
X26670000Y29210000D02*
X25400000Y30480000D01*
X25400000Y30480000D02*
X25400000Y39370000D01*
X25400000Y21590000D02*
X25400000Y6350000D01*
%TO.N,/A7*%
X27940000Y39370000D02*
X27940000Y30480000D01*
X27940000Y30480000D02*
X29210000Y29210000D01*
X29210000Y22860000D02*
X27940000Y21590000D01*
X29210000Y29210000D02*
X29210000Y22860000D01*
X27940000Y21590000D02*
X27940000Y6350000D01*
%TO.N,/A6*%
X30480000Y39370000D02*
X30480000Y30480000D01*
X30480000Y30480000D02*
X31750000Y29210000D01*
X31750000Y22860000D02*
X30480000Y21590000D01*
X31750000Y29210000D02*
X31750000Y22860000D01*
X30480000Y21590000D02*
X30480000Y6350000D01*
%TO.N,/A5*%
X33020000Y39370000D02*
X33020000Y30480000D01*
X33020000Y30480000D02*
X34290000Y29210000D01*
X34290000Y22860000D02*
X33020000Y21590000D01*
X34290000Y29210000D02*
X34290000Y22860000D01*
X33020000Y21590000D02*
X33020000Y6350000D01*
%TO.N,/D5*%
X35560000Y21590000D02*
X36830000Y22860000D01*
X36830000Y22860000D02*
X36830000Y29210000D01*
X36830000Y29210000D02*
X35560000Y30480000D01*
X35560000Y30480000D02*
X35560000Y39370000D01*
X35560000Y21590000D02*
X35560000Y6350000D01*
%TO.N,/A2*%
X38100000Y21590000D02*
X39370000Y22860000D01*
X39370000Y22860000D02*
X39370000Y29210000D01*
X39370000Y29210000D02*
X38100000Y30480000D01*
X38100000Y30480000D02*
X38100000Y39370000D01*
X38100000Y21590000D02*
X38100000Y6350000D01*
%TO.N,/A1*%
X41910000Y22860000D02*
X40640000Y21590000D01*
X41910000Y29210000D02*
X41910000Y22860000D01*
X40640000Y30480000D02*
X41910000Y29210000D01*
X40640000Y39370000D02*
X40640000Y30480000D01*
X40640000Y21590000D02*
X40640000Y6350000D01*
%TO.N,/A0*%
X43180000Y39370000D02*
X43180000Y30480000D01*
X43180000Y30480000D02*
X44450000Y29210000D01*
X44450000Y22860000D02*
X43180000Y21590000D01*
X44450000Y29210000D02*
X44450000Y22860000D01*
X43180000Y21590000D02*
X43180000Y6350000D01*
%TO.N,/A3*%
X45720000Y39370000D02*
X45720000Y30480000D01*
X45720000Y30480000D02*
X46990000Y29210000D01*
X46990000Y22860000D02*
X45720000Y21590000D01*
X46990000Y29210000D02*
X46990000Y22860000D01*
X45720000Y6350000D02*
X45720000Y21590000D01*
%TO.N,/D2*%
X48260000Y21590000D02*
X49530000Y22860000D01*
X49530000Y22860000D02*
X49530000Y29210000D01*
X49530000Y29210000D02*
X48260000Y30480000D01*
X48260000Y30480000D02*
X48260000Y39370000D01*
X48260000Y21590000D02*
X48260000Y6350000D01*
%TO.N,/R_~W*%
X50800000Y39370000D02*
X50800000Y30480000D01*
X50800000Y30480000D02*
X52070000Y29210000D01*
X52070000Y22860000D02*
X50800000Y21590000D01*
X52070000Y29210000D02*
X52070000Y22860000D01*
X50800000Y21590000D02*
X50800000Y6350000D01*
%TO.N,/~IO*%
X53340000Y39370000D02*
X53340000Y30480000D01*
X53340000Y30480000D02*
X54610000Y29210000D01*
X54610000Y22860000D02*
X53340000Y21590000D01*
X54610000Y29210000D02*
X54610000Y22860000D01*
X53340000Y21590000D02*
X53340000Y6350000D01*
%TO.N,/PHI2*%
X55880000Y39370000D02*
X55880000Y30480000D01*
X55880000Y30480000D02*
X57150000Y29210000D01*
X57150000Y22860000D02*
X55880000Y21590000D01*
X57150000Y29210000D02*
X57150000Y22860000D01*
X55880000Y6350000D02*
X55880000Y21590000D01*
%TO.N,/~MAP*%
X58420000Y39370000D02*
X58420000Y30480000D01*
X58420000Y30480000D02*
X59690000Y29210000D01*
X59690000Y22860000D02*
X58420000Y21590000D01*
X59690000Y29210000D02*
X59690000Y22860000D01*
X58420000Y21590000D02*
X58420000Y6350000D01*
D20*
%TO.N,+5VA*%
X17780000Y21590000D02*
X15875000Y21590000D01*
X15875000Y21590000D02*
X13970000Y23495000D01*
X17780000Y33115000D02*
X14065000Y33115000D01*
X13970000Y33020000D02*
X13970000Y38100000D01*
X14065000Y33115000D02*
X13970000Y33020000D01*
X13970000Y23495000D02*
X13970000Y33020000D01*
X6350000Y31750000D02*
X6350000Y34925000D01*
X9525000Y38100000D02*
X13970000Y38100000D01*
X6350000Y34925000D02*
X9525000Y38100000D01*
X17780000Y39370000D02*
X13970000Y39370000D01*
X13970000Y39370000D02*
X13970000Y38100000D01*
X17780000Y57150000D02*
X17780000Y50800000D01*
X13970000Y39370000D02*
X13970000Y50800000D01*
X17780000Y50800000D02*
X13970000Y50800000D01*
X17780000Y74930000D02*
X17780000Y68580000D01*
X13970000Y50800000D02*
X13970000Y66675000D01*
X15875000Y68580000D02*
X17780000Y68580000D01*
X13970000Y66675000D02*
X15875000Y68580000D01*
X17780000Y21590000D02*
X17780000Y15875000D01*
%TO.N,+5V*%
X15240000Y6350000D02*
X17780000Y6350000D01*
X13335000Y8255000D02*
X15240000Y6350000D01*
X13335000Y17780000D02*
X13335000Y8255000D01*
X6985000Y24130000D02*
X13335000Y17780000D01*
X5080000Y24130000D02*
X6985000Y24130000D01*
X3810000Y25400000D02*
X5080000Y24130000D01*
X3810000Y31750000D02*
X3810000Y25400000D01*
X17780000Y90805000D02*
X15875000Y90805000D01*
X15875000Y90805000D02*
X14605000Y89535000D01*
X14605000Y89535000D02*
X14605000Y74930000D01*
X3810000Y64135000D02*
X3810000Y31750000D01*
X14605000Y74930000D02*
X3810000Y64135000D01*
%TD*%
D21*
%TO.N,GND*%
X75540001Y660000D02*
X660000Y660000D01*
X660000Y2781603D01*
X16931208Y2781603D01*
X17008843Y2532528D01*
X17272883Y2406629D01*
X17556411Y2334661D01*
X17848531Y2319389D01*
X18138019Y2361401D01*
X18413747Y2459081D01*
X18551157Y2532528D01*
X18628792Y2781603D01*
X17780000Y3630395D01*
X16931208Y2781603D01*
X660000Y2781603D01*
X660000Y3741469D01*
X16289389Y3741469D01*
X16331401Y3451981D01*
X16429081Y3176253D01*
X16502528Y3038843D01*
X16751603Y2961208D01*
X17600395Y3810000D01*
X16751603Y4658792D01*
X16502528Y4581157D01*
X16376629Y4317117D01*
X16304661Y4033589D01*
X16289389Y3741469D01*
X660000Y3741469D01*
X660000Y16095128D01*
X5385000Y16095128D01*
X5385000Y15654872D01*
X5470890Y15223075D01*
X5639369Y14816331D01*
X5883962Y14450271D01*
X6195271Y14138962D01*
X6561331Y13894369D01*
X6968075Y13725890D01*
X7399872Y13640000D01*
X7840128Y13640000D01*
X8271925Y13725890D01*
X8678669Y13894369D01*
X9044729Y14138962D01*
X9356038Y14450271D01*
X9600631Y14816331D01*
X9769110Y15223075D01*
X9855000Y15654872D01*
X9855000Y16095128D01*
X9769110Y16526925D01*
X9600631Y16933669D01*
X9356038Y17299729D01*
X9044729Y17611038D01*
X8678669Y17855631D01*
X8271925Y18024110D01*
X7840128Y18110000D01*
X7399872Y18110000D01*
X6968075Y18024110D01*
X6561331Y17855631D01*
X6195271Y17611038D01*
X5883962Y17299729D01*
X5639369Y16933669D01*
X5470890Y16526925D01*
X5385000Y16095128D01*
X660000Y16095128D01*
X660000Y32172950D01*
X2325000Y32172950D01*
X2325000Y31327051D01*
X2346487Y31108890D01*
X2431401Y30828967D01*
X2569294Y30570987D01*
X2675000Y30442183D01*
X2675001Y25455761D01*
X2669509Y25400000D01*
X2691423Y25177502D01*
X2756324Y24963554D01*
X2781247Y24916927D01*
X2861717Y24766377D01*
X3003552Y24593551D01*
X3046860Y24558009D01*
X4238008Y23366860D01*
X4273551Y23323551D01*
X4446377Y23181716D01*
X4643553Y23076324D01*
X4797903Y23029502D01*
X4857500Y23011423D01*
X4878493Y23009356D01*
X5024248Y22995000D01*
X5024255Y22995000D01*
X5079999Y22989510D01*
X5135743Y22995000D01*
X6514869Y22995000D01*
X12200000Y17309868D01*
X12200001Y8310761D01*
X12194509Y8255000D01*
X12216423Y8032502D01*
X12281324Y7818554D01*
X12330384Y7726770D01*
X12386717Y7621377D01*
X12528552Y7448551D01*
X12571860Y7413009D01*
X14398009Y5586859D01*
X14433551Y5543551D01*
X14606377Y5401716D01*
X14803553Y5296324D01*
X15017501Y5231423D01*
X15131736Y5220172D01*
X15240000Y5209509D01*
X15295752Y5215000D01*
X16814893Y5215000D01*
X16833368Y5196525D01*
X17006729Y5080689D01*
X16931208Y4838397D01*
X17780000Y3989605D01*
X18628792Y4838397D01*
X18553271Y5080689D01*
X18726632Y5196525D01*
X18933475Y5403368D01*
X19050000Y5577760D01*
X19166525Y5403368D01*
X19373368Y5196525D01*
X19547760Y5080000D01*
X19373368Y4963475D01*
X19166525Y4756632D01*
X19050689Y4583271D01*
X18808397Y4658792D01*
X17959605Y3810000D01*
X18808397Y2961208D01*
X19050689Y3036729D01*
X19166525Y2863368D01*
X19373368Y2656525D01*
X19616589Y2494010D01*
X19886842Y2382068D01*
X20173740Y2325000D01*
X20466260Y2325000D01*
X20753158Y2382068D01*
X21023411Y2494010D01*
X21266632Y2656525D01*
X21473475Y2863368D01*
X21590000Y3037760D01*
X21706525Y2863368D01*
X21913368Y2656525D01*
X22156589Y2494010D01*
X22426842Y2382068D01*
X22713740Y2325000D01*
X23006260Y2325000D01*
X23293158Y2382068D01*
X23563411Y2494010D01*
X23806632Y2656525D01*
X24013475Y2863368D01*
X24130000Y3037760D01*
X24246525Y2863368D01*
X24453368Y2656525D01*
X24696589Y2494010D01*
X24966842Y2382068D01*
X25253740Y2325000D01*
X25546260Y2325000D01*
X25833158Y2382068D01*
X26103411Y2494010D01*
X26346632Y2656525D01*
X26553475Y2863368D01*
X26670000Y3037760D01*
X26786525Y2863368D01*
X26993368Y2656525D01*
X27236589Y2494010D01*
X27506842Y2382068D01*
X27793740Y2325000D01*
X28086260Y2325000D01*
X28373158Y2382068D01*
X28643411Y2494010D01*
X28886632Y2656525D01*
X29093475Y2863368D01*
X29210000Y3037760D01*
X29326525Y2863368D01*
X29533368Y2656525D01*
X29776589Y2494010D01*
X30046842Y2382068D01*
X30333740Y2325000D01*
X30626260Y2325000D01*
X30913158Y2382068D01*
X31183411Y2494010D01*
X31426632Y2656525D01*
X31633475Y2863368D01*
X31750000Y3037760D01*
X31866525Y2863368D01*
X32073368Y2656525D01*
X32316589Y2494010D01*
X32586842Y2382068D01*
X32873740Y2325000D01*
X33166260Y2325000D01*
X33453158Y2382068D01*
X33723411Y2494010D01*
X33966632Y2656525D01*
X34173475Y2863368D01*
X34290000Y3037760D01*
X34406525Y2863368D01*
X34613368Y2656525D01*
X34856589Y2494010D01*
X35126842Y2382068D01*
X35413740Y2325000D01*
X35706260Y2325000D01*
X35993158Y2382068D01*
X36263411Y2494010D01*
X36506632Y2656525D01*
X36713475Y2863368D01*
X36830000Y3037760D01*
X36946525Y2863368D01*
X37153368Y2656525D01*
X37396589Y2494010D01*
X37666842Y2382068D01*
X37953740Y2325000D01*
X38246260Y2325000D01*
X38533158Y2382068D01*
X38803411Y2494010D01*
X39046632Y2656525D01*
X39253475Y2863368D01*
X39370000Y3037760D01*
X39486525Y2863368D01*
X39693368Y2656525D01*
X39936589Y2494010D01*
X40206842Y2382068D01*
X40493740Y2325000D01*
X40786260Y2325000D01*
X41073158Y2382068D01*
X41343411Y2494010D01*
X41586632Y2656525D01*
X41793475Y2863368D01*
X41910000Y3037760D01*
X42026525Y2863368D01*
X42233368Y2656525D01*
X42476589Y2494010D01*
X42746842Y2382068D01*
X43033740Y2325000D01*
X43326260Y2325000D01*
X43613158Y2382068D01*
X43883411Y2494010D01*
X44126632Y2656525D01*
X44333475Y2863368D01*
X44450000Y3037760D01*
X44566525Y2863368D01*
X44773368Y2656525D01*
X45016589Y2494010D01*
X45286842Y2382068D01*
X45573740Y2325000D01*
X45866260Y2325000D01*
X46153158Y2382068D01*
X46423411Y2494010D01*
X46666632Y2656525D01*
X46873475Y2863368D01*
X46990000Y3037760D01*
X47106525Y2863368D01*
X47313368Y2656525D01*
X47556589Y2494010D01*
X47826842Y2382068D01*
X48113740Y2325000D01*
X48406260Y2325000D01*
X48693158Y2382068D01*
X48963411Y2494010D01*
X49206632Y2656525D01*
X49413475Y2863368D01*
X49530000Y3037760D01*
X49646525Y2863368D01*
X49853368Y2656525D01*
X50096589Y2494010D01*
X50366842Y2382068D01*
X50653740Y2325000D01*
X50946260Y2325000D01*
X51233158Y2382068D01*
X51503411Y2494010D01*
X51746632Y2656525D01*
X51953475Y2863368D01*
X52070000Y3037760D01*
X52186525Y2863368D01*
X52393368Y2656525D01*
X52636589Y2494010D01*
X52906842Y2382068D01*
X53193740Y2325000D01*
X53486260Y2325000D01*
X53773158Y2382068D01*
X54043411Y2494010D01*
X54286632Y2656525D01*
X54493475Y2863368D01*
X54610000Y3037760D01*
X54726525Y2863368D01*
X54933368Y2656525D01*
X55176589Y2494010D01*
X55446842Y2382068D01*
X55733740Y2325000D01*
X56026260Y2325000D01*
X56313158Y2382068D01*
X56583411Y2494010D01*
X56826632Y2656525D01*
X57033475Y2863368D01*
X57150000Y3037760D01*
X57266525Y2863368D01*
X57473368Y2656525D01*
X57716589Y2494010D01*
X57986842Y2382068D01*
X58273740Y2325000D01*
X58566260Y2325000D01*
X58853158Y2382068D01*
X59123411Y2494010D01*
X59366632Y2656525D01*
X59573475Y2863368D01*
X59735990Y3106589D01*
X59847932Y3376842D01*
X59905000Y3663740D01*
X59905000Y3956260D01*
X59847932Y4243158D01*
X59735990Y4513411D01*
X59573475Y4756632D01*
X59386392Y4943715D01*
X59513386Y5011595D01*
X59647962Y5122038D01*
X59758405Y5256614D01*
X59840472Y5410150D01*
X59891008Y5576746D01*
X59908072Y5750000D01*
X59908072Y6950000D01*
X59891008Y7123254D01*
X59840472Y7289850D01*
X59758405Y7443386D01*
X59647962Y7577962D01*
X59513386Y7688405D01*
X59359850Y7770472D01*
X59255000Y7802278D01*
X59255000Y16095128D01*
X66345000Y16095128D01*
X66345000Y15654872D01*
X66430890Y15223075D01*
X66599369Y14816331D01*
X66843962Y14450271D01*
X67155271Y14138962D01*
X67521331Y13894369D01*
X67928075Y13725890D01*
X68359872Y13640000D01*
X68800128Y13640000D01*
X69231925Y13725890D01*
X69638669Y13894369D01*
X70004729Y14138962D01*
X70316038Y14450271D01*
X70560631Y14816331D01*
X70729110Y15223075D01*
X70815000Y15654872D01*
X70815000Y16095128D01*
X70729110Y16526925D01*
X70560631Y16933669D01*
X70316038Y17299729D01*
X70004729Y17611038D01*
X69638669Y17855631D01*
X69231925Y18024110D01*
X68800128Y18110000D01*
X68359872Y18110000D01*
X67928075Y18024110D01*
X67521331Y17855631D01*
X67155271Y17611038D01*
X66843962Y17299729D01*
X66599369Y16933669D01*
X66430890Y16526925D01*
X66345000Y16095128D01*
X59255000Y16095128D01*
X59255000Y20101928D01*
X59270000Y20101928D01*
X59394482Y20114188D01*
X59514180Y20150498D01*
X59624494Y20209463D01*
X59721185Y20288815D01*
X59800537Y20385506D01*
X59859502Y20495820D01*
X59895812Y20615518D01*
X59908072Y20740000D01*
X59908072Y21897204D01*
X60251426Y22240558D01*
X60283291Y22266709D01*
X60387636Y22393854D01*
X60465172Y22538913D01*
X60512918Y22696311D01*
X60525000Y22818981D01*
X60525000Y22818983D01*
X60529040Y22859999D01*
X60525000Y22901015D01*
X60525000Y29168985D01*
X60529040Y29210001D01*
X60522871Y29272636D01*
X60512918Y29373689D01*
X60465172Y29531087D01*
X60387636Y29676146D01*
X60283291Y29803291D01*
X60251428Y29829440D01*
X59255000Y30825867D01*
X59255000Y33500000D01*
X61746928Y33500000D01*
X61746928Y30000000D01*
X61759188Y29875518D01*
X61795498Y29755820D01*
X61854463Y29645506D01*
X61933815Y29548815D01*
X62030506Y29469463D01*
X62140820Y29410498D01*
X62260518Y29374188D01*
X62385000Y29361928D01*
X65809643Y29361928D01*
X65680972Y29322896D01*
X65419382Y29183073D01*
X65190097Y28994903D01*
X65001927Y28765618D01*
X64862104Y28504028D01*
X64776001Y28220186D01*
X64746928Y27925000D01*
X64746928Y26175000D01*
X64776001Y25879814D01*
X64862104Y25595972D01*
X65001927Y25334382D01*
X65190097Y25105097D01*
X65419382Y24916927D01*
X65680972Y24777104D01*
X65964814Y24691001D01*
X66260000Y24661928D01*
X68010000Y24661928D01*
X68305186Y24691001D01*
X68589028Y24777104D01*
X68850618Y24916927D01*
X69079903Y25105097D01*
X69268073Y25334382D01*
X69407896Y25595972D01*
X69493999Y25879814D01*
X69523072Y26175000D01*
X69523072Y27925000D01*
X69493999Y28220186D01*
X69407896Y28504028D01*
X69268073Y28765618D01*
X69079903Y28994903D01*
X68850618Y29183073D01*
X68589028Y29322896D01*
X68305186Y29408999D01*
X68010000Y29438072D01*
X66260000Y29438072D01*
X66162869Y29428506D01*
X66239494Y29469463D01*
X66336185Y29548815D01*
X66415537Y29645506D01*
X66474502Y29755820D01*
X66510812Y29875518D01*
X66523072Y30000000D01*
X67996928Y30000000D01*
X68009188Y29875518D01*
X68045498Y29755820D01*
X68104463Y29645506D01*
X68183815Y29548815D01*
X68280506Y29469463D01*
X68390820Y29410498D01*
X68510518Y29374188D01*
X68635000Y29361928D01*
X69849250Y29365000D01*
X70008000Y29523750D01*
X70008000Y31623000D01*
X70262000Y31623000D01*
X70262000Y29523750D01*
X70420750Y29365000D01*
X71635000Y29361928D01*
X71759482Y29374188D01*
X71879180Y29410498D01*
X71989494Y29469463D01*
X72086185Y29548815D01*
X72165537Y29645506D01*
X72224502Y29755820D01*
X72260812Y29875518D01*
X72273072Y30000000D01*
X72270000Y31464250D01*
X72111250Y31623000D01*
X70262000Y31623000D01*
X70008000Y31623000D01*
X68158750Y31623000D01*
X68000000Y31464250D01*
X67996928Y30000000D01*
X66523072Y30000000D01*
X66523072Y33500000D01*
X67996928Y33500000D01*
X68000000Y32035750D01*
X68158750Y31877000D01*
X70008000Y31877000D01*
X70008000Y33976250D01*
X70262000Y33976250D01*
X70262000Y31877000D01*
X72111250Y31877000D01*
X72270000Y32035750D01*
X72273072Y33500000D01*
X72260812Y33624482D01*
X72224502Y33744180D01*
X72165537Y33854494D01*
X72086185Y33951185D01*
X71989494Y34030537D01*
X71879180Y34089502D01*
X71759482Y34125812D01*
X71635000Y34138072D01*
X70420750Y34135000D01*
X70262000Y33976250D01*
X70008000Y33976250D01*
X69849250Y34135000D01*
X68635000Y34138072D01*
X68510518Y34125812D01*
X68390820Y34089502D01*
X68280506Y34030537D01*
X68183815Y33951185D01*
X68104463Y33854494D01*
X68045498Y33744180D01*
X68009188Y33624482D01*
X67996928Y33500000D01*
X66523072Y33500000D01*
X66510812Y33624482D01*
X66474502Y33744180D01*
X66415537Y33854494D01*
X66336185Y33951185D01*
X66239494Y34030537D01*
X66129180Y34089502D01*
X66009482Y34125812D01*
X65885000Y34138072D01*
X62385000Y34138072D01*
X62260518Y34125812D01*
X62140820Y34089502D01*
X62030506Y34030537D01*
X61933815Y33951185D01*
X61854463Y33854494D01*
X61795498Y33744180D01*
X61759188Y33624482D01*
X61746928Y33500000D01*
X59255000Y33500000D01*
X59255000Y37881928D01*
X59270000Y37881928D01*
X59394482Y37894188D01*
X59514180Y37930498D01*
X59624494Y37989463D01*
X59721185Y38068815D01*
X59800537Y38165506D01*
X59859502Y38275820D01*
X59895812Y38395518D01*
X59908072Y38520000D01*
X59908072Y40220000D01*
X59895812Y40344482D01*
X59859502Y40464180D01*
X59800537Y40574494D01*
X59721185Y40671185D01*
X59624494Y40750537D01*
X59514180Y40809502D01*
X59441620Y40831513D01*
X59573475Y40963368D01*
X59735990Y41206589D01*
X59847932Y41476842D01*
X59905000Y41763740D01*
X59905000Y42056260D01*
X59847932Y42343158D01*
X59735990Y42613411D01*
X59573475Y42856632D01*
X59366632Y43063475D01*
X59123411Y43225990D01*
X58853158Y43337932D01*
X58566260Y43395000D01*
X58273740Y43395000D01*
X58142060Y43368807D01*
X57985000Y43525867D01*
X57985000Y47810958D01*
X66310000Y47810958D01*
X66310000Y47479042D01*
X66374754Y47153504D01*
X66501772Y46846853D01*
X66686175Y46570875D01*
X66920875Y46336175D01*
X67196853Y46151772D01*
X67503504Y46024754D01*
X67829042Y45960000D01*
X68160958Y45960000D01*
X68486496Y46024754D01*
X68793147Y46151772D01*
X69069125Y46336175D01*
X69303825Y46570875D01*
X69488228Y46846853D01*
X69615246Y47153504D01*
X69680000Y47479042D01*
X69680000Y47656483D01*
X69699025Y47597132D01*
X69967329Y47468733D01*
X70255526Y47395145D01*
X70552543Y47379196D01*
X70846963Y47421499D01*
X71127474Y47520428D01*
X71270975Y47597132D01*
X71351635Y47848760D01*
X70485000Y48715395D01*
X70470858Y48701252D01*
X70291253Y48880857D01*
X70305395Y48895000D01*
X70664605Y48895000D01*
X71531240Y48028365D01*
X71782868Y48109025D01*
X71911267Y48377329D01*
X71984855Y48665526D01*
X72000804Y48962543D01*
X71958501Y49256963D01*
X71859572Y49537474D01*
X71782868Y49680975D01*
X71531240Y49761635D01*
X70664605Y48895000D01*
X70305395Y48895000D01*
X69438760Y49761635D01*
X69187132Y49680975D01*
X69058733Y49412671D01*
X68985145Y49124474D01*
X68979208Y49013906D01*
X68793147Y49138228D01*
X68486496Y49265246D01*
X68160958Y49330000D01*
X67829042Y49330000D01*
X67503504Y49265246D01*
X67196853Y49138228D01*
X66920875Y48953825D01*
X66686175Y48719125D01*
X66501772Y48443147D01*
X66374754Y48136496D01*
X66310000Y47810958D01*
X57985000Y47810958D01*
X57985000Y49941240D01*
X69618365Y49941240D01*
X70485000Y49074605D01*
X71351635Y49941240D01*
X71270975Y50192868D01*
X71002671Y50321267D01*
X70714474Y50394855D01*
X70417457Y50410804D01*
X70123037Y50368501D01*
X69842526Y50269572D01*
X69699025Y50192868D01*
X69618365Y49941240D01*
X57985000Y49941240D01*
X57985000Y55661928D01*
X59270000Y55661928D01*
X59394482Y55674188D01*
X59514180Y55710498D01*
X59624494Y55769463D01*
X59721185Y55848815D01*
X59800537Y55945506D01*
X59859502Y56055820D01*
X59895812Y56175518D01*
X59908072Y56300000D01*
X59908072Y58000000D01*
X59895812Y58124482D01*
X59859502Y58244180D01*
X59800537Y58354494D01*
X59721185Y58451185D01*
X59624494Y58530537D01*
X59514180Y58589502D01*
X59441620Y58611513D01*
X59573475Y58743368D01*
X59735990Y58986589D01*
X59847932Y59256842D01*
X59905000Y59543740D01*
X59905000Y59836260D01*
X59847932Y60123158D01*
X59735990Y60393411D01*
X59573475Y60636632D01*
X59366632Y60843475D01*
X59123411Y61005990D01*
X58853158Y61117932D01*
X58566260Y61175000D01*
X58273740Y61175000D01*
X57986842Y61117932D01*
X57716589Y61005990D01*
X57473368Y60843475D01*
X57266525Y60636632D01*
X57150000Y60462240D01*
X57033475Y60636632D01*
X56826632Y60843475D01*
X56715000Y60918065D01*
X56715000Y63300000D01*
X64424133Y63300000D01*
X69650000Y58074131D01*
X69650001Y54971774D01*
X69615246Y55146496D01*
X69488228Y55453147D01*
X69303825Y55729125D01*
X69069125Y55963825D01*
X68793147Y56148228D01*
X68486496Y56275246D01*
X68160958Y56340000D01*
X67829042Y56340000D01*
X67503504Y56275246D01*
X67196853Y56148228D01*
X66920875Y55963825D01*
X66686175Y55729125D01*
X66501772Y55453147D01*
X66374754Y55146496D01*
X66310000Y54820958D01*
X66310000Y54489042D01*
X66374754Y54163504D01*
X66501772Y53856853D01*
X66686175Y53580875D01*
X66920875Y53346175D01*
X67196853Y53161772D01*
X67503504Y53034754D01*
X67829042Y52970000D01*
X68160958Y52970000D01*
X68486496Y53034754D01*
X68793147Y53161772D01*
X68975000Y53283283D01*
X68975000Y53246278D01*
X69033029Y52954549D01*
X69146856Y52679747D01*
X69312107Y52432431D01*
X69522431Y52222107D01*
X69769747Y52056856D01*
X70044549Y51943029D01*
X70336278Y51885000D01*
X70633722Y51885000D01*
X70925451Y51943029D01*
X71200253Y52056856D01*
X71447569Y52222107D01*
X71657893Y52432431D01*
X71823144Y52679747D01*
X71936971Y52954549D01*
X71995000Y53246278D01*
X71995000Y53543722D01*
X71936971Y53835451D01*
X71823144Y54110253D01*
X71657893Y54357569D01*
X71447569Y54567893D01*
X71320000Y54653132D01*
X71320000Y58378982D01*
X71324040Y58420000D01*
X71307918Y58583688D01*
X71306155Y58589502D01*
X71260172Y58741087D01*
X71182636Y58886146D01*
X71130251Y58949977D01*
X71104439Y58981430D01*
X71104437Y58981432D01*
X71078291Y59013291D01*
X71046433Y59039436D01*
X65389446Y64696421D01*
X65363291Y64728291D01*
X65236146Y64832636D01*
X65091087Y64910172D01*
X64933689Y64957918D01*
X64811019Y64970000D01*
X64811018Y64970000D01*
X64770000Y64974040D01*
X64728982Y64970000D01*
X56225868Y64970000D01*
X55445000Y65750867D01*
X55445000Y73502831D01*
X55446842Y73502068D01*
X55733740Y73445000D01*
X56026260Y73445000D01*
X56313158Y73502068D01*
X56583411Y73614010D01*
X56826632Y73776525D01*
X56958487Y73908380D01*
X56980498Y73835820D01*
X57039463Y73725506D01*
X57118815Y73628815D01*
X57215506Y73549463D01*
X57325820Y73490498D01*
X57445518Y73454188D01*
X57570000Y73441928D01*
X59270000Y73441928D01*
X59394482Y73454188D01*
X59514180Y73490498D01*
X59624494Y73549463D01*
X59721185Y73628815D01*
X59800537Y73725506D01*
X59859502Y73835820D01*
X59895812Y73955518D01*
X59908072Y74080000D01*
X59908072Y75780000D01*
X59895812Y75904482D01*
X59859502Y76024180D01*
X59800537Y76134494D01*
X59721185Y76231185D01*
X59624494Y76310537D01*
X59514180Y76369502D01*
X59441620Y76391513D01*
X59573475Y76523368D01*
X59735990Y76766589D01*
X59847932Y77036842D01*
X59905000Y77323740D01*
X59905000Y77616260D01*
X59847932Y77903158D01*
X59735990Y78173411D01*
X59573475Y78416632D01*
X59366632Y78623475D01*
X59123411Y78785990D01*
X58853158Y78897932D01*
X58566260Y78955000D01*
X58273740Y78955000D01*
X57986842Y78897932D01*
X57716589Y78785990D01*
X57473368Y78623475D01*
X57266525Y78416632D01*
X57150000Y78242240D01*
X57033475Y78416632D01*
X56826632Y78623475D01*
X56583411Y78785990D01*
X56313158Y78897932D01*
X56026260Y78955000D01*
X55733740Y78955000D01*
X55446842Y78897932D01*
X55176589Y78785990D01*
X54933368Y78623475D01*
X54726525Y78416632D01*
X54610000Y78242240D01*
X54493475Y78416632D01*
X54286632Y78623475D01*
X54043411Y78785990D01*
X53773158Y78897932D01*
X53486260Y78955000D01*
X53193740Y78955000D01*
X52906842Y78897932D01*
X52636589Y78785990D01*
X52393368Y78623475D01*
X52186525Y78416632D01*
X52070000Y78242240D01*
X51953475Y78416632D01*
X51746632Y78623475D01*
X51503411Y78785990D01*
X51233158Y78897932D01*
X50946260Y78955000D01*
X50653740Y78955000D01*
X50366842Y78897932D01*
X50096589Y78785990D01*
X49853368Y78623475D01*
X49646525Y78416632D01*
X49530000Y78242240D01*
X49413475Y78416632D01*
X49206632Y78623475D01*
X48963411Y78785990D01*
X48693158Y78897932D01*
X48406260Y78955000D01*
X48113740Y78955000D01*
X47826842Y78897932D01*
X47556589Y78785990D01*
X47313368Y78623475D01*
X47106525Y78416632D01*
X46990000Y78242240D01*
X46873475Y78416632D01*
X46666632Y78623475D01*
X46423411Y78785990D01*
X46153158Y78897932D01*
X45866260Y78955000D01*
X45573740Y78955000D01*
X45286842Y78897932D01*
X45016589Y78785990D01*
X44773368Y78623475D01*
X44566525Y78416632D01*
X44450000Y78242240D01*
X44333475Y78416632D01*
X44126632Y78623475D01*
X43883411Y78785990D01*
X43613158Y78897932D01*
X43326260Y78955000D01*
X43033740Y78955000D01*
X42746842Y78897932D01*
X42476589Y78785990D01*
X42233368Y78623475D01*
X42026525Y78416632D01*
X41910000Y78242240D01*
X41793475Y78416632D01*
X41586632Y78623475D01*
X41343411Y78785990D01*
X41073158Y78897932D01*
X40786260Y78955000D01*
X40493740Y78955000D01*
X40206842Y78897932D01*
X39936589Y78785990D01*
X39693368Y78623475D01*
X39486525Y78416632D01*
X39370000Y78242240D01*
X39253475Y78416632D01*
X39046632Y78623475D01*
X38803411Y78785990D01*
X38533158Y78897932D01*
X38246260Y78955000D01*
X37953740Y78955000D01*
X37666842Y78897932D01*
X37396589Y78785990D01*
X37153368Y78623475D01*
X36946525Y78416632D01*
X36830000Y78242240D01*
X36713475Y78416632D01*
X36506632Y78623475D01*
X36263411Y78785990D01*
X35993158Y78897932D01*
X35706260Y78955000D01*
X35413740Y78955000D01*
X35126842Y78897932D01*
X34856589Y78785990D01*
X34613368Y78623475D01*
X34406525Y78416632D01*
X34290000Y78242240D01*
X34173475Y78416632D01*
X33966632Y78623475D01*
X33723411Y78785990D01*
X33453158Y78897932D01*
X33166260Y78955000D01*
X32873740Y78955000D01*
X32586842Y78897932D01*
X32316589Y78785990D01*
X32073368Y78623475D01*
X31866525Y78416632D01*
X31750000Y78242240D01*
X31633475Y78416632D01*
X31426632Y78623475D01*
X31183411Y78785990D01*
X30913158Y78897932D01*
X30626260Y78955000D01*
X30333740Y78955000D01*
X30046842Y78897932D01*
X29776589Y78785990D01*
X29533368Y78623475D01*
X29326525Y78416632D01*
X29210000Y78242240D01*
X29093475Y78416632D01*
X28886632Y78623475D01*
X28643411Y78785990D01*
X28373158Y78897932D01*
X28086260Y78955000D01*
X27793740Y78955000D01*
X27506842Y78897932D01*
X27236589Y78785990D01*
X26993368Y78623475D01*
X26786525Y78416632D01*
X26670000Y78242240D01*
X26553475Y78416632D01*
X26346632Y78623475D01*
X26103411Y78785990D01*
X25833158Y78897932D01*
X25546260Y78955000D01*
X25253740Y78955000D01*
X24966842Y78897932D01*
X24696589Y78785990D01*
X24453368Y78623475D01*
X24246525Y78416632D01*
X24130000Y78242240D01*
X24013475Y78416632D01*
X23806632Y78623475D01*
X23563411Y78785990D01*
X23293158Y78897932D01*
X23006260Y78955000D01*
X22713740Y78955000D01*
X22426842Y78897932D01*
X22156589Y78785990D01*
X21913368Y78623475D01*
X21706525Y78416632D01*
X21590000Y78242240D01*
X21473475Y78416632D01*
X21266632Y78623475D01*
X21023411Y78785990D01*
X20753158Y78897932D01*
X20466260Y78955000D01*
X20173740Y78955000D01*
X19886842Y78897932D01*
X19616589Y78785990D01*
X19373368Y78623475D01*
X19166525Y78416632D01*
X19044805Y78234466D01*
X18975178Y78351355D01*
X18780269Y78567588D01*
X18546920Y78741641D01*
X18284099Y78866825D01*
X18136890Y78911476D01*
X17907000Y78790155D01*
X17907000Y77597000D01*
X17927000Y77597000D01*
X17927000Y77343000D01*
X17907000Y77343000D01*
X17907000Y77323000D01*
X17653000Y77323000D01*
X17653000Y77343000D01*
X16459186Y77343000D01*
X16338519Y77113109D01*
X16435843Y76838748D01*
X16584822Y76588645D01*
X16779731Y76372412D01*
X17009406Y76201100D01*
X16833368Y76083475D01*
X16626525Y75876632D01*
X16464010Y75633411D01*
X16352068Y75363158D01*
X16295000Y75076260D01*
X16295000Y74783740D01*
X16352068Y74496842D01*
X16464010Y74226589D01*
X16626525Y73983368D01*
X16645000Y73964893D01*
X16645001Y69920957D01*
X16625506Y69910537D01*
X16528815Y69831185D01*
X16449463Y69734494D01*
X16439043Y69715000D01*
X15930752Y69715000D01*
X15875000Y69720491D01*
X15819248Y69715000D01*
X15652501Y69698577D01*
X15438553Y69633676D01*
X15241377Y69528284D01*
X15068551Y69386449D01*
X15033009Y69343141D01*
X13206860Y67516991D01*
X13163552Y67481449D01*
X13021717Y67308623D01*
X12990096Y67249463D01*
X12916324Y67111446D01*
X12851423Y66897498D01*
X12829509Y66675000D01*
X12835001Y66619239D01*
X12835000Y50855752D01*
X12829509Y50800000D01*
X12835001Y50744238D01*
X12835000Y39425752D01*
X12829509Y39370000D01*
X12835000Y39314249D01*
X12835000Y39235000D01*
X9580751Y39235000D01*
X9524999Y39240491D01*
X9469248Y39235000D01*
X9302501Y39218577D01*
X9088553Y39153676D01*
X8891377Y39048284D01*
X8718551Y38906449D01*
X8683009Y38863141D01*
X5586860Y35766991D01*
X5543552Y35731449D01*
X5401717Y35558623D01*
X5345384Y35453230D01*
X5296324Y35361446D01*
X5231423Y35147498D01*
X5209509Y34925000D01*
X5215001Y34869239D01*
X5215000Y33057818D01*
X5109294Y32929014D01*
X5080000Y32874209D01*
X5050706Y32929014D01*
X4945000Y33057817D01*
X4945000Y63664869D01*
X15368141Y74088009D01*
X15411449Y74123551D01*
X15553284Y74296377D01*
X15658676Y74493553D01*
X15723577Y74707501D01*
X15740000Y74874248D01*
X15740000Y74874257D01*
X15745490Y74929999D01*
X15740000Y74985741D01*
X15740000Y77826891D01*
X16338519Y77826891D01*
X16459186Y77597000D01*
X17653000Y77597000D01*
X17653000Y78790155D01*
X17423110Y78911476D01*
X17275901Y78866825D01*
X17013080Y78741641D01*
X16779731Y78567588D01*
X16584822Y78351355D01*
X16435843Y78101252D01*
X16338519Y77826891D01*
X15740000Y77826891D01*
X15740000Y81500128D01*
X66345000Y81500128D01*
X66345000Y81059872D01*
X66430890Y80628075D01*
X66599369Y80221331D01*
X66843962Y79855271D01*
X67155271Y79543962D01*
X67521331Y79299369D01*
X67928075Y79130890D01*
X68359872Y79045000D01*
X68800128Y79045000D01*
X69231925Y79130890D01*
X69638669Y79299369D01*
X70004729Y79543962D01*
X70316038Y79855271D01*
X70560631Y80221331D01*
X70729110Y80628075D01*
X70815000Y81059872D01*
X70815000Y81500128D01*
X70729110Y81931925D01*
X70560631Y82338669D01*
X70316038Y82704729D01*
X70004729Y83016038D01*
X69638669Y83260631D01*
X69231925Y83429110D01*
X68800128Y83515000D01*
X68359872Y83515000D01*
X67928075Y83429110D01*
X67521331Y83260631D01*
X67155271Y83016038D01*
X66843962Y82704729D01*
X66599369Y82338669D01*
X66430890Y81931925D01*
X66345000Y81500128D01*
X15740000Y81500128D01*
X15740000Y87236603D01*
X16931208Y87236603D01*
X17008843Y86987528D01*
X17272883Y86861629D01*
X17556411Y86789661D01*
X17848531Y86774389D01*
X18138019Y86816401D01*
X18413747Y86914081D01*
X18551157Y86987528D01*
X18628792Y87236603D01*
X17780000Y88085395D01*
X16931208Y87236603D01*
X15740000Y87236603D01*
X15740000Y88196469D01*
X16289389Y88196469D01*
X16331401Y87906981D01*
X16429081Y87631253D01*
X16502528Y87493843D01*
X16751603Y87416208D01*
X17600395Y88265000D01*
X16751603Y89113792D01*
X16502528Y89036157D01*
X16376629Y88772117D01*
X16304661Y88488589D01*
X16289389Y88196469D01*
X15740000Y88196469D01*
X15740000Y89064869D01*
X16345132Y89670000D01*
X16814893Y89670000D01*
X16833368Y89651525D01*
X17006729Y89535689D01*
X16931208Y89293397D01*
X17780000Y88444605D01*
X18628792Y89293397D01*
X18553271Y89535689D01*
X18726632Y89651525D01*
X18933475Y89858368D01*
X19050000Y90032760D01*
X19166525Y89858368D01*
X19373368Y89651525D01*
X19547760Y89535000D01*
X19373368Y89418475D01*
X19166525Y89211632D01*
X19050689Y89038271D01*
X18808397Y89113792D01*
X17959605Y88265000D01*
X18808397Y87416208D01*
X19050689Y87491729D01*
X19166525Y87318368D01*
X19373368Y87111525D01*
X19616589Y86949010D01*
X19886842Y86837068D01*
X20173740Y86780000D01*
X20466260Y86780000D01*
X20753158Y86837068D01*
X21023411Y86949010D01*
X21266632Y87111525D01*
X21473475Y87318368D01*
X21590000Y87492760D01*
X21706525Y87318368D01*
X21913368Y87111525D01*
X22156589Y86949010D01*
X22426842Y86837068D01*
X22713740Y86780000D01*
X23006260Y86780000D01*
X23293158Y86837068D01*
X23563411Y86949010D01*
X23806632Y87111525D01*
X24013475Y87318368D01*
X24130000Y87492760D01*
X24246525Y87318368D01*
X24453368Y87111525D01*
X24696589Y86949010D01*
X24966842Y86837068D01*
X25253740Y86780000D01*
X25546260Y86780000D01*
X25833158Y86837068D01*
X26103411Y86949010D01*
X26346632Y87111525D01*
X26553475Y87318368D01*
X26670000Y87492760D01*
X26786525Y87318368D01*
X26993368Y87111525D01*
X27236589Y86949010D01*
X27506842Y86837068D01*
X27793740Y86780000D01*
X28086260Y86780000D01*
X28373158Y86837068D01*
X28643411Y86949010D01*
X28886632Y87111525D01*
X29093475Y87318368D01*
X29210000Y87492760D01*
X29326525Y87318368D01*
X29533368Y87111525D01*
X29776589Y86949010D01*
X30046842Y86837068D01*
X30333740Y86780000D01*
X30626260Y86780000D01*
X30913158Y86837068D01*
X31183411Y86949010D01*
X31426632Y87111525D01*
X31633475Y87318368D01*
X31750000Y87492760D01*
X31866525Y87318368D01*
X32073368Y87111525D01*
X32316589Y86949010D01*
X32586842Y86837068D01*
X32873740Y86780000D01*
X33166260Y86780000D01*
X33453158Y86837068D01*
X33723411Y86949010D01*
X33966632Y87111525D01*
X34173475Y87318368D01*
X34290000Y87492760D01*
X34406525Y87318368D01*
X34613368Y87111525D01*
X34856589Y86949010D01*
X35126842Y86837068D01*
X35413740Y86780000D01*
X35706260Y86780000D01*
X35993158Y86837068D01*
X36263411Y86949010D01*
X36506632Y87111525D01*
X36713475Y87318368D01*
X36830000Y87492760D01*
X36946525Y87318368D01*
X37153368Y87111525D01*
X37396589Y86949010D01*
X37666842Y86837068D01*
X37953740Y86780000D01*
X38246260Y86780000D01*
X38533158Y86837068D01*
X38803411Y86949010D01*
X39046632Y87111525D01*
X39253475Y87318368D01*
X39370000Y87492760D01*
X39486525Y87318368D01*
X39693368Y87111525D01*
X39936589Y86949010D01*
X40206842Y86837068D01*
X40493740Y86780000D01*
X40786260Y86780000D01*
X41073158Y86837068D01*
X41343411Y86949010D01*
X41586632Y87111525D01*
X41793475Y87318368D01*
X41910000Y87492760D01*
X42026525Y87318368D01*
X42233368Y87111525D01*
X42476589Y86949010D01*
X42746842Y86837068D01*
X43033740Y86780000D01*
X43326260Y86780000D01*
X43613158Y86837068D01*
X43883411Y86949010D01*
X44126632Y87111525D01*
X44333475Y87318368D01*
X44450000Y87492760D01*
X44566525Y87318368D01*
X44773368Y87111525D01*
X45016589Y86949010D01*
X45286842Y86837068D01*
X45573740Y86780000D01*
X45866260Y86780000D01*
X46153158Y86837068D01*
X46423411Y86949010D01*
X46666632Y87111525D01*
X46873475Y87318368D01*
X46990000Y87492760D01*
X47106525Y87318368D01*
X47313368Y87111525D01*
X47556589Y86949010D01*
X47826842Y86837068D01*
X48113740Y86780000D01*
X48406260Y86780000D01*
X48693158Y86837068D01*
X48963411Y86949010D01*
X49206632Y87111525D01*
X49413475Y87318368D01*
X49530000Y87492760D01*
X49646525Y87318368D01*
X49853368Y87111525D01*
X50096589Y86949010D01*
X50366842Y86837068D01*
X50653740Y86780000D01*
X50946260Y86780000D01*
X51233158Y86837068D01*
X51503411Y86949010D01*
X51746632Y87111525D01*
X51953475Y87318368D01*
X52070000Y87492760D01*
X52186525Y87318368D01*
X52393368Y87111525D01*
X52636589Y86949010D01*
X52906842Y86837068D01*
X53193740Y86780000D01*
X53486260Y86780000D01*
X53773158Y86837068D01*
X54043411Y86949010D01*
X54286632Y87111525D01*
X54493475Y87318368D01*
X54610000Y87492760D01*
X54726525Y87318368D01*
X54933368Y87111525D01*
X55176589Y86949010D01*
X55446842Y86837068D01*
X55733740Y86780000D01*
X56026260Y86780000D01*
X56313158Y86837068D01*
X56583411Y86949010D01*
X56826632Y87111525D01*
X57033475Y87318368D01*
X57150000Y87492760D01*
X57266525Y87318368D01*
X57473368Y87111525D01*
X57716589Y86949010D01*
X57986842Y86837068D01*
X58273740Y86780000D01*
X58566260Y86780000D01*
X58853158Y86837068D01*
X59123411Y86949010D01*
X59366632Y87111525D01*
X59573475Y87318368D01*
X59735990Y87561589D01*
X59847932Y87831842D01*
X59905000Y88118740D01*
X59905000Y88411260D01*
X59847932Y88698158D01*
X59735990Y88968411D01*
X59573475Y89211632D01*
X59386392Y89398715D01*
X59513386Y89466595D01*
X59647962Y89577038D01*
X59758405Y89711614D01*
X59840472Y89865150D01*
X59891008Y90031746D01*
X59908072Y90205000D01*
X59908072Y91405000D01*
X59891008Y91578254D01*
X59840472Y91744850D01*
X59758405Y91898386D01*
X59647962Y92032962D01*
X59513386Y92143405D01*
X59359850Y92225472D01*
X59193254Y92276008D01*
X59020000Y92293072D01*
X57820000Y92293072D01*
X57646746Y92276008D01*
X57480150Y92225472D01*
X57326614Y92143405D01*
X57192038Y92032962D01*
X57081595Y91898386D01*
X57013715Y91771392D01*
X56826632Y91958475D01*
X56583411Y92120990D01*
X56313158Y92232932D01*
X56026260Y92290000D01*
X55733740Y92290000D01*
X55446842Y92232932D01*
X55176589Y92120990D01*
X54933368Y91958475D01*
X54726525Y91751632D01*
X54610000Y91577240D01*
X54493475Y91751632D01*
X54286632Y91958475D01*
X54043411Y92120990D01*
X53773158Y92232932D01*
X53486260Y92290000D01*
X53193740Y92290000D01*
X52906842Y92232932D01*
X52636589Y92120990D01*
X52393368Y91958475D01*
X52186525Y91751632D01*
X52070000Y91577240D01*
X51953475Y91751632D01*
X51746632Y91958475D01*
X51503411Y92120990D01*
X51233158Y92232932D01*
X50946260Y92290000D01*
X50653740Y92290000D01*
X50366842Y92232932D01*
X50096589Y92120990D01*
X49853368Y91958475D01*
X49646525Y91751632D01*
X49530000Y91577240D01*
X49413475Y91751632D01*
X49206632Y91958475D01*
X48963411Y92120990D01*
X48693158Y92232932D01*
X48406260Y92290000D01*
X48113740Y92290000D01*
X47826842Y92232932D01*
X47556589Y92120990D01*
X47313368Y91958475D01*
X47106525Y91751632D01*
X46990000Y91577240D01*
X46873475Y91751632D01*
X46666632Y91958475D01*
X46423411Y92120990D01*
X46153158Y92232932D01*
X45866260Y92290000D01*
X45573740Y92290000D01*
X45286842Y92232932D01*
X45016589Y92120990D01*
X44773368Y91958475D01*
X44566525Y91751632D01*
X44450000Y91577240D01*
X44333475Y91751632D01*
X44126632Y91958475D01*
X43883411Y92120990D01*
X43613158Y92232932D01*
X43326260Y92290000D01*
X43033740Y92290000D01*
X42746842Y92232932D01*
X42476589Y92120990D01*
X42233368Y91958475D01*
X42026525Y91751632D01*
X41910000Y91577240D01*
X41793475Y91751632D01*
X41586632Y91958475D01*
X41343411Y92120990D01*
X41073158Y92232932D01*
X40786260Y92290000D01*
X40493740Y92290000D01*
X40206842Y92232932D01*
X39936589Y92120990D01*
X39693368Y91958475D01*
X39486525Y91751632D01*
X39370000Y91577240D01*
X39253475Y91751632D01*
X39046632Y91958475D01*
X38803411Y92120990D01*
X38533158Y92232932D01*
X38246260Y92290000D01*
X37953740Y92290000D01*
X37666842Y92232932D01*
X37396589Y92120990D01*
X37153368Y91958475D01*
X36946525Y91751632D01*
X36830000Y91577240D01*
X36713475Y91751632D01*
X36506632Y91958475D01*
X36263411Y92120990D01*
X35993158Y92232932D01*
X35706260Y92290000D01*
X35413740Y92290000D01*
X35126842Y92232932D01*
X34856589Y92120990D01*
X34613368Y91958475D01*
X34406525Y91751632D01*
X34290000Y91577240D01*
X34173475Y91751632D01*
X33966632Y91958475D01*
X33723411Y92120990D01*
X33453158Y92232932D01*
X33166260Y92290000D01*
X32873740Y92290000D01*
X32586842Y92232932D01*
X32316589Y92120990D01*
X32073368Y91958475D01*
X31866525Y91751632D01*
X31750000Y91577240D01*
X31633475Y91751632D01*
X31426632Y91958475D01*
X31183411Y92120990D01*
X30913158Y92232932D01*
X30626260Y92290000D01*
X30333740Y92290000D01*
X30046842Y92232932D01*
X29776589Y92120990D01*
X29533368Y91958475D01*
X29326525Y91751632D01*
X29210000Y91577240D01*
X29093475Y91751632D01*
X28886632Y91958475D01*
X28643411Y92120990D01*
X28373158Y92232932D01*
X28086260Y92290000D01*
X27793740Y92290000D01*
X27506842Y92232932D01*
X27236589Y92120990D01*
X26993368Y91958475D01*
X26786525Y91751632D01*
X26670000Y91577240D01*
X26553475Y91751632D01*
X26346632Y91958475D01*
X26103411Y92120990D01*
X25833158Y92232932D01*
X25546260Y92290000D01*
X25253740Y92290000D01*
X24966842Y92232932D01*
X24696589Y92120990D01*
X24453368Y91958475D01*
X24246525Y91751632D01*
X24130000Y91577240D01*
X24013475Y91751632D01*
X23806632Y91958475D01*
X23563411Y92120990D01*
X23293158Y92232932D01*
X23006260Y92290000D01*
X22713740Y92290000D01*
X22426842Y92232932D01*
X22156589Y92120990D01*
X21913368Y91958475D01*
X21706525Y91751632D01*
X21590000Y91577240D01*
X21473475Y91751632D01*
X21266632Y91958475D01*
X21023411Y92120990D01*
X20753158Y92232932D01*
X20466260Y92290000D01*
X20173740Y92290000D01*
X19886842Y92232932D01*
X19616589Y92120990D01*
X19373368Y91958475D01*
X19166525Y91751632D01*
X19050000Y91577240D01*
X18933475Y91751632D01*
X18726632Y91958475D01*
X18483411Y92120990D01*
X18213158Y92232932D01*
X17926260Y92290000D01*
X17633740Y92290000D01*
X17346842Y92232932D01*
X17076589Y92120990D01*
X16833368Y91958475D01*
X16814893Y91940000D01*
X15930743Y91940000D01*
X15874999Y91945490D01*
X15819255Y91940000D01*
X15819248Y91940000D01*
X15673493Y91925644D01*
X15652500Y91923577D01*
X15602705Y91908471D01*
X15438553Y91858676D01*
X15241377Y91753284D01*
X15068551Y91611449D01*
X15033008Y91568140D01*
X13841865Y90376996D01*
X13798551Y90341449D01*
X13656716Y90168623D01*
X13583555Y90031746D01*
X13551324Y89971446D01*
X13486423Y89757498D01*
X13464509Y89535000D01*
X13470000Y89479249D01*
X13470001Y75400133D01*
X3046865Y64976996D01*
X3003551Y64941449D01*
X2861716Y64768623D01*
X2772199Y64601146D01*
X2756324Y64571446D01*
X2691423Y64357498D01*
X2669509Y64135000D01*
X2675000Y64079249D01*
X2675001Y33057818D01*
X2569294Y32929014D01*
X2431401Y32671034D01*
X2346487Y32391111D01*
X2325000Y32172950D01*
X660000Y32172950D01*
X660000Y81500128D01*
X5385000Y81500128D01*
X5385000Y81059872D01*
X5470890Y80628075D01*
X5639369Y80221331D01*
X5883962Y79855271D01*
X6195271Y79543962D01*
X6561331Y79299369D01*
X6968075Y79130890D01*
X7399872Y79045000D01*
X7840128Y79045000D01*
X8271925Y79130890D01*
X8678669Y79299369D01*
X9044729Y79543962D01*
X9356038Y79855271D01*
X9600631Y80221331D01*
X9769110Y80628075D01*
X9855000Y81059872D01*
X9855000Y81500128D01*
X9769110Y81931925D01*
X9600631Y82338669D01*
X9356038Y82704729D01*
X9044729Y83016038D01*
X8678669Y83260631D01*
X8271925Y83429110D01*
X7840128Y83515000D01*
X7399872Y83515000D01*
X6968075Y83429110D01*
X6561331Y83260631D01*
X6195271Y83016038D01*
X5883962Y82704729D01*
X5639369Y82338669D01*
X5470890Y81931925D01*
X5385000Y81500128D01*
X660000Y81500128D01*
X660000Y93955000D01*
X75540000Y93955000D01*
X75540001Y660000D01*
%TA.AperFunction,Conductor*%
D22*
G36*
X75540001Y660000D02*
G01*
X660000Y660000D01*
X660000Y2781603D01*
X16931208Y2781603D01*
X17008843Y2532528D01*
X17272883Y2406629D01*
X17556411Y2334661D01*
X17848531Y2319389D01*
X18138019Y2361401D01*
X18413747Y2459081D01*
X18551157Y2532528D01*
X18628792Y2781603D01*
X17780000Y3630395D01*
X16931208Y2781603D01*
X660000Y2781603D01*
X660000Y3741469D01*
X16289389Y3741469D01*
X16331401Y3451981D01*
X16429081Y3176253D01*
X16502528Y3038843D01*
X16751603Y2961208D01*
X17600395Y3810000D01*
X16751603Y4658792D01*
X16502528Y4581157D01*
X16376629Y4317117D01*
X16304661Y4033589D01*
X16289389Y3741469D01*
X660000Y3741469D01*
X660000Y16095128D01*
X5385000Y16095128D01*
X5385000Y15654872D01*
X5470890Y15223075D01*
X5639369Y14816331D01*
X5883962Y14450271D01*
X6195271Y14138962D01*
X6561331Y13894369D01*
X6968075Y13725890D01*
X7399872Y13640000D01*
X7840128Y13640000D01*
X8271925Y13725890D01*
X8678669Y13894369D01*
X9044729Y14138962D01*
X9356038Y14450271D01*
X9600631Y14816331D01*
X9769110Y15223075D01*
X9855000Y15654872D01*
X9855000Y16095128D01*
X9769110Y16526925D01*
X9600631Y16933669D01*
X9356038Y17299729D01*
X9044729Y17611038D01*
X8678669Y17855631D01*
X8271925Y18024110D01*
X7840128Y18110000D01*
X7399872Y18110000D01*
X6968075Y18024110D01*
X6561331Y17855631D01*
X6195271Y17611038D01*
X5883962Y17299729D01*
X5639369Y16933669D01*
X5470890Y16526925D01*
X5385000Y16095128D01*
X660000Y16095128D01*
X660000Y32172950D01*
X2325000Y32172950D01*
X2325000Y31327051D01*
X2346487Y31108890D01*
X2431401Y30828967D01*
X2569294Y30570987D01*
X2675000Y30442183D01*
X2675001Y25455761D01*
X2669509Y25400000D01*
X2691423Y25177502D01*
X2756324Y24963554D01*
X2781247Y24916927D01*
X2861717Y24766377D01*
X3003552Y24593551D01*
X3046860Y24558009D01*
X4238008Y23366860D01*
X4273551Y23323551D01*
X4446377Y23181716D01*
X4643553Y23076324D01*
X4797903Y23029502D01*
X4857500Y23011423D01*
X4878493Y23009356D01*
X5024248Y22995000D01*
X5024255Y22995000D01*
X5079999Y22989510D01*
X5135743Y22995000D01*
X6514869Y22995000D01*
X12200000Y17309868D01*
X12200001Y8310761D01*
X12194509Y8255000D01*
X12216423Y8032502D01*
X12281324Y7818554D01*
X12330384Y7726770D01*
X12386717Y7621377D01*
X12528552Y7448551D01*
X12571860Y7413009D01*
X14398009Y5586859D01*
X14433551Y5543551D01*
X14606377Y5401716D01*
X14803553Y5296324D01*
X15017501Y5231423D01*
X15131736Y5220172D01*
X15240000Y5209509D01*
X15295752Y5215000D01*
X16814893Y5215000D01*
X16833368Y5196525D01*
X17006729Y5080689D01*
X16931208Y4838397D01*
X17780000Y3989605D01*
X18628792Y4838397D01*
X18553271Y5080689D01*
X18726632Y5196525D01*
X18933475Y5403368D01*
X19050000Y5577760D01*
X19166525Y5403368D01*
X19373368Y5196525D01*
X19547760Y5080000D01*
X19373368Y4963475D01*
X19166525Y4756632D01*
X19050689Y4583271D01*
X18808397Y4658792D01*
X17959605Y3810000D01*
X18808397Y2961208D01*
X19050689Y3036729D01*
X19166525Y2863368D01*
X19373368Y2656525D01*
X19616589Y2494010D01*
X19886842Y2382068D01*
X20173740Y2325000D01*
X20466260Y2325000D01*
X20753158Y2382068D01*
X21023411Y2494010D01*
X21266632Y2656525D01*
X21473475Y2863368D01*
X21590000Y3037760D01*
X21706525Y2863368D01*
X21913368Y2656525D01*
X22156589Y2494010D01*
X22426842Y2382068D01*
X22713740Y2325000D01*
X23006260Y2325000D01*
X23293158Y2382068D01*
X23563411Y2494010D01*
X23806632Y2656525D01*
X24013475Y2863368D01*
X24130000Y3037760D01*
X24246525Y2863368D01*
X24453368Y2656525D01*
X24696589Y2494010D01*
X24966842Y2382068D01*
X25253740Y2325000D01*
X25546260Y2325000D01*
X25833158Y2382068D01*
X26103411Y2494010D01*
X26346632Y2656525D01*
X26553475Y2863368D01*
X26670000Y3037760D01*
X26786525Y2863368D01*
X26993368Y2656525D01*
X27236589Y2494010D01*
X27506842Y2382068D01*
X27793740Y2325000D01*
X28086260Y2325000D01*
X28373158Y2382068D01*
X28643411Y2494010D01*
X28886632Y2656525D01*
X29093475Y2863368D01*
X29210000Y3037760D01*
X29326525Y2863368D01*
X29533368Y2656525D01*
X29776589Y2494010D01*
X30046842Y2382068D01*
X30333740Y2325000D01*
X30626260Y2325000D01*
X30913158Y2382068D01*
X31183411Y2494010D01*
X31426632Y2656525D01*
X31633475Y2863368D01*
X31750000Y3037760D01*
X31866525Y2863368D01*
X32073368Y2656525D01*
X32316589Y2494010D01*
X32586842Y2382068D01*
X32873740Y2325000D01*
X33166260Y2325000D01*
X33453158Y2382068D01*
X33723411Y2494010D01*
X33966632Y2656525D01*
X34173475Y2863368D01*
X34290000Y3037760D01*
X34406525Y2863368D01*
X34613368Y2656525D01*
X34856589Y2494010D01*
X35126842Y2382068D01*
X35413740Y2325000D01*
X35706260Y2325000D01*
X35993158Y2382068D01*
X36263411Y2494010D01*
X36506632Y2656525D01*
X36713475Y2863368D01*
X36830000Y3037760D01*
X36946525Y2863368D01*
X37153368Y2656525D01*
X37396589Y2494010D01*
X37666842Y2382068D01*
X37953740Y2325000D01*
X38246260Y2325000D01*
X38533158Y2382068D01*
X38803411Y2494010D01*
X39046632Y2656525D01*
X39253475Y2863368D01*
X39370000Y3037760D01*
X39486525Y2863368D01*
X39693368Y2656525D01*
X39936589Y2494010D01*
X40206842Y2382068D01*
X40493740Y2325000D01*
X40786260Y2325000D01*
X41073158Y2382068D01*
X41343411Y2494010D01*
X41586632Y2656525D01*
X41793475Y2863368D01*
X41910000Y3037760D01*
X42026525Y2863368D01*
X42233368Y2656525D01*
X42476589Y2494010D01*
X42746842Y2382068D01*
X43033740Y2325000D01*
X43326260Y2325000D01*
X43613158Y2382068D01*
X43883411Y2494010D01*
X44126632Y2656525D01*
X44333475Y2863368D01*
X44450000Y3037760D01*
X44566525Y2863368D01*
X44773368Y2656525D01*
X45016589Y2494010D01*
X45286842Y2382068D01*
X45573740Y2325000D01*
X45866260Y2325000D01*
X46153158Y2382068D01*
X46423411Y2494010D01*
X46666632Y2656525D01*
X46873475Y2863368D01*
X46990000Y3037760D01*
X47106525Y2863368D01*
X47313368Y2656525D01*
X47556589Y2494010D01*
X47826842Y2382068D01*
X48113740Y2325000D01*
X48406260Y2325000D01*
X48693158Y2382068D01*
X48963411Y2494010D01*
X49206632Y2656525D01*
X49413475Y2863368D01*
X49530000Y3037760D01*
X49646525Y2863368D01*
X49853368Y2656525D01*
X50096589Y2494010D01*
X50366842Y2382068D01*
X50653740Y2325000D01*
X50946260Y2325000D01*
X51233158Y2382068D01*
X51503411Y2494010D01*
X51746632Y2656525D01*
X51953475Y2863368D01*
X52070000Y3037760D01*
X52186525Y2863368D01*
X52393368Y2656525D01*
X52636589Y2494010D01*
X52906842Y2382068D01*
X53193740Y2325000D01*
X53486260Y2325000D01*
X53773158Y2382068D01*
X54043411Y2494010D01*
X54286632Y2656525D01*
X54493475Y2863368D01*
X54610000Y3037760D01*
X54726525Y2863368D01*
X54933368Y2656525D01*
X55176589Y2494010D01*
X55446842Y2382068D01*
X55733740Y2325000D01*
X56026260Y2325000D01*
X56313158Y2382068D01*
X56583411Y2494010D01*
X56826632Y2656525D01*
X57033475Y2863368D01*
X57150000Y3037760D01*
X57266525Y2863368D01*
X57473368Y2656525D01*
X57716589Y2494010D01*
X57986842Y2382068D01*
X58273740Y2325000D01*
X58566260Y2325000D01*
X58853158Y2382068D01*
X59123411Y2494010D01*
X59366632Y2656525D01*
X59573475Y2863368D01*
X59735990Y3106589D01*
X59847932Y3376842D01*
X59905000Y3663740D01*
X59905000Y3956260D01*
X59847932Y4243158D01*
X59735990Y4513411D01*
X59573475Y4756632D01*
X59386392Y4943715D01*
X59513386Y5011595D01*
X59647962Y5122038D01*
X59758405Y5256614D01*
X59840472Y5410150D01*
X59891008Y5576746D01*
X59908072Y5750000D01*
X59908072Y6950000D01*
X59891008Y7123254D01*
X59840472Y7289850D01*
X59758405Y7443386D01*
X59647962Y7577962D01*
X59513386Y7688405D01*
X59359850Y7770472D01*
X59255000Y7802278D01*
X59255000Y16095128D01*
X66345000Y16095128D01*
X66345000Y15654872D01*
X66430890Y15223075D01*
X66599369Y14816331D01*
X66843962Y14450271D01*
X67155271Y14138962D01*
X67521331Y13894369D01*
X67928075Y13725890D01*
X68359872Y13640000D01*
X68800128Y13640000D01*
X69231925Y13725890D01*
X69638669Y13894369D01*
X70004729Y14138962D01*
X70316038Y14450271D01*
X70560631Y14816331D01*
X70729110Y15223075D01*
X70815000Y15654872D01*
X70815000Y16095128D01*
X70729110Y16526925D01*
X70560631Y16933669D01*
X70316038Y17299729D01*
X70004729Y17611038D01*
X69638669Y17855631D01*
X69231925Y18024110D01*
X68800128Y18110000D01*
X68359872Y18110000D01*
X67928075Y18024110D01*
X67521331Y17855631D01*
X67155271Y17611038D01*
X66843962Y17299729D01*
X66599369Y16933669D01*
X66430890Y16526925D01*
X66345000Y16095128D01*
X59255000Y16095128D01*
X59255000Y20101928D01*
X59270000Y20101928D01*
X59394482Y20114188D01*
X59514180Y20150498D01*
X59624494Y20209463D01*
X59721185Y20288815D01*
X59800537Y20385506D01*
X59859502Y20495820D01*
X59895812Y20615518D01*
X59908072Y20740000D01*
X59908072Y21897204D01*
X60251426Y22240558D01*
X60283291Y22266709D01*
X60387636Y22393854D01*
X60465172Y22538913D01*
X60512918Y22696311D01*
X60525000Y22818981D01*
X60525000Y22818983D01*
X60529040Y22859999D01*
X60525000Y22901015D01*
X60525000Y29168985D01*
X60529040Y29210001D01*
X60522871Y29272636D01*
X60512918Y29373689D01*
X60465172Y29531087D01*
X60387636Y29676146D01*
X60283291Y29803291D01*
X60251428Y29829440D01*
X59255000Y30825867D01*
X59255000Y33500000D01*
X61746928Y33500000D01*
X61746928Y30000000D01*
X61759188Y29875518D01*
X61795498Y29755820D01*
X61854463Y29645506D01*
X61933815Y29548815D01*
X62030506Y29469463D01*
X62140820Y29410498D01*
X62260518Y29374188D01*
X62385000Y29361928D01*
X65809643Y29361928D01*
X65680972Y29322896D01*
X65419382Y29183073D01*
X65190097Y28994903D01*
X65001927Y28765618D01*
X64862104Y28504028D01*
X64776001Y28220186D01*
X64746928Y27925000D01*
X64746928Y26175000D01*
X64776001Y25879814D01*
X64862104Y25595972D01*
X65001927Y25334382D01*
X65190097Y25105097D01*
X65419382Y24916927D01*
X65680972Y24777104D01*
X65964814Y24691001D01*
X66260000Y24661928D01*
X68010000Y24661928D01*
X68305186Y24691001D01*
X68589028Y24777104D01*
X68850618Y24916927D01*
X69079903Y25105097D01*
X69268073Y25334382D01*
X69407896Y25595972D01*
X69493999Y25879814D01*
X69523072Y26175000D01*
X69523072Y27925000D01*
X69493999Y28220186D01*
X69407896Y28504028D01*
X69268073Y28765618D01*
X69079903Y28994903D01*
X68850618Y29183073D01*
X68589028Y29322896D01*
X68305186Y29408999D01*
X68010000Y29438072D01*
X66260000Y29438072D01*
X66162869Y29428506D01*
X66239494Y29469463D01*
X66336185Y29548815D01*
X66415537Y29645506D01*
X66474502Y29755820D01*
X66510812Y29875518D01*
X66523072Y30000000D01*
X67996928Y30000000D01*
X68009188Y29875518D01*
X68045498Y29755820D01*
X68104463Y29645506D01*
X68183815Y29548815D01*
X68280506Y29469463D01*
X68390820Y29410498D01*
X68510518Y29374188D01*
X68635000Y29361928D01*
X69849250Y29365000D01*
X70008000Y29523750D01*
X70008000Y31623000D01*
X70262000Y31623000D01*
X70262000Y29523750D01*
X70420750Y29365000D01*
X71635000Y29361928D01*
X71759482Y29374188D01*
X71879180Y29410498D01*
X71989494Y29469463D01*
X72086185Y29548815D01*
X72165537Y29645506D01*
X72224502Y29755820D01*
X72260812Y29875518D01*
X72273072Y30000000D01*
X72270000Y31464250D01*
X72111250Y31623000D01*
X70262000Y31623000D01*
X70008000Y31623000D01*
X68158750Y31623000D01*
X68000000Y31464250D01*
X67996928Y30000000D01*
X66523072Y30000000D01*
X66523072Y33500000D01*
X67996928Y33500000D01*
X68000000Y32035750D01*
X68158750Y31877000D01*
X70008000Y31877000D01*
X70008000Y33976250D01*
X70262000Y33976250D01*
X70262000Y31877000D01*
X72111250Y31877000D01*
X72270000Y32035750D01*
X72273072Y33500000D01*
X72260812Y33624482D01*
X72224502Y33744180D01*
X72165537Y33854494D01*
X72086185Y33951185D01*
X71989494Y34030537D01*
X71879180Y34089502D01*
X71759482Y34125812D01*
X71635000Y34138072D01*
X70420750Y34135000D01*
X70262000Y33976250D01*
X70008000Y33976250D01*
X69849250Y34135000D01*
X68635000Y34138072D01*
X68510518Y34125812D01*
X68390820Y34089502D01*
X68280506Y34030537D01*
X68183815Y33951185D01*
X68104463Y33854494D01*
X68045498Y33744180D01*
X68009188Y33624482D01*
X67996928Y33500000D01*
X66523072Y33500000D01*
X66510812Y33624482D01*
X66474502Y33744180D01*
X66415537Y33854494D01*
X66336185Y33951185D01*
X66239494Y34030537D01*
X66129180Y34089502D01*
X66009482Y34125812D01*
X65885000Y34138072D01*
X62385000Y34138072D01*
X62260518Y34125812D01*
X62140820Y34089502D01*
X62030506Y34030537D01*
X61933815Y33951185D01*
X61854463Y33854494D01*
X61795498Y33744180D01*
X61759188Y33624482D01*
X61746928Y33500000D01*
X59255000Y33500000D01*
X59255000Y37881928D01*
X59270000Y37881928D01*
X59394482Y37894188D01*
X59514180Y37930498D01*
X59624494Y37989463D01*
X59721185Y38068815D01*
X59800537Y38165506D01*
X59859502Y38275820D01*
X59895812Y38395518D01*
X59908072Y38520000D01*
X59908072Y40220000D01*
X59895812Y40344482D01*
X59859502Y40464180D01*
X59800537Y40574494D01*
X59721185Y40671185D01*
X59624494Y40750537D01*
X59514180Y40809502D01*
X59441620Y40831513D01*
X59573475Y40963368D01*
X59735990Y41206589D01*
X59847932Y41476842D01*
X59905000Y41763740D01*
X59905000Y42056260D01*
X59847932Y42343158D01*
X59735990Y42613411D01*
X59573475Y42856632D01*
X59366632Y43063475D01*
X59123411Y43225990D01*
X58853158Y43337932D01*
X58566260Y43395000D01*
X58273740Y43395000D01*
X58142060Y43368807D01*
X57985000Y43525867D01*
X57985000Y47810958D01*
X66310000Y47810958D01*
X66310000Y47479042D01*
X66374754Y47153504D01*
X66501772Y46846853D01*
X66686175Y46570875D01*
X66920875Y46336175D01*
X67196853Y46151772D01*
X67503504Y46024754D01*
X67829042Y45960000D01*
X68160958Y45960000D01*
X68486496Y46024754D01*
X68793147Y46151772D01*
X69069125Y46336175D01*
X69303825Y46570875D01*
X69488228Y46846853D01*
X69615246Y47153504D01*
X69680000Y47479042D01*
X69680000Y47656483D01*
X69699025Y47597132D01*
X69967329Y47468733D01*
X70255526Y47395145D01*
X70552543Y47379196D01*
X70846963Y47421499D01*
X71127474Y47520428D01*
X71270975Y47597132D01*
X71351635Y47848760D01*
X70485000Y48715395D01*
X70470858Y48701252D01*
X70291253Y48880857D01*
X70305395Y48895000D01*
X70664605Y48895000D01*
X71531240Y48028365D01*
X71782868Y48109025D01*
X71911267Y48377329D01*
X71984855Y48665526D01*
X72000804Y48962543D01*
X71958501Y49256963D01*
X71859572Y49537474D01*
X71782868Y49680975D01*
X71531240Y49761635D01*
X70664605Y48895000D01*
X70305395Y48895000D01*
X69438760Y49761635D01*
X69187132Y49680975D01*
X69058733Y49412671D01*
X68985145Y49124474D01*
X68979208Y49013906D01*
X68793147Y49138228D01*
X68486496Y49265246D01*
X68160958Y49330000D01*
X67829042Y49330000D01*
X67503504Y49265246D01*
X67196853Y49138228D01*
X66920875Y48953825D01*
X66686175Y48719125D01*
X66501772Y48443147D01*
X66374754Y48136496D01*
X66310000Y47810958D01*
X57985000Y47810958D01*
X57985000Y49941240D01*
X69618365Y49941240D01*
X70485000Y49074605D01*
X71351635Y49941240D01*
X71270975Y50192868D01*
X71002671Y50321267D01*
X70714474Y50394855D01*
X70417457Y50410804D01*
X70123037Y50368501D01*
X69842526Y50269572D01*
X69699025Y50192868D01*
X69618365Y49941240D01*
X57985000Y49941240D01*
X57985000Y55661928D01*
X59270000Y55661928D01*
X59394482Y55674188D01*
X59514180Y55710498D01*
X59624494Y55769463D01*
X59721185Y55848815D01*
X59800537Y55945506D01*
X59859502Y56055820D01*
X59895812Y56175518D01*
X59908072Y56300000D01*
X59908072Y58000000D01*
X59895812Y58124482D01*
X59859502Y58244180D01*
X59800537Y58354494D01*
X59721185Y58451185D01*
X59624494Y58530537D01*
X59514180Y58589502D01*
X59441620Y58611513D01*
X59573475Y58743368D01*
X59735990Y58986589D01*
X59847932Y59256842D01*
X59905000Y59543740D01*
X59905000Y59836260D01*
X59847932Y60123158D01*
X59735990Y60393411D01*
X59573475Y60636632D01*
X59366632Y60843475D01*
X59123411Y61005990D01*
X58853158Y61117932D01*
X58566260Y61175000D01*
X58273740Y61175000D01*
X57986842Y61117932D01*
X57716589Y61005990D01*
X57473368Y60843475D01*
X57266525Y60636632D01*
X57150000Y60462240D01*
X57033475Y60636632D01*
X56826632Y60843475D01*
X56715000Y60918065D01*
X56715000Y63300000D01*
X64424133Y63300000D01*
X69650000Y58074131D01*
X69650001Y54971774D01*
X69615246Y55146496D01*
X69488228Y55453147D01*
X69303825Y55729125D01*
X69069125Y55963825D01*
X68793147Y56148228D01*
X68486496Y56275246D01*
X68160958Y56340000D01*
X67829042Y56340000D01*
X67503504Y56275246D01*
X67196853Y56148228D01*
X66920875Y55963825D01*
X66686175Y55729125D01*
X66501772Y55453147D01*
X66374754Y55146496D01*
X66310000Y54820958D01*
X66310000Y54489042D01*
X66374754Y54163504D01*
X66501772Y53856853D01*
X66686175Y53580875D01*
X66920875Y53346175D01*
X67196853Y53161772D01*
X67503504Y53034754D01*
X67829042Y52970000D01*
X68160958Y52970000D01*
X68486496Y53034754D01*
X68793147Y53161772D01*
X68975000Y53283283D01*
X68975000Y53246278D01*
X69033029Y52954549D01*
X69146856Y52679747D01*
X69312107Y52432431D01*
X69522431Y52222107D01*
X69769747Y52056856D01*
X70044549Y51943029D01*
X70336278Y51885000D01*
X70633722Y51885000D01*
X70925451Y51943029D01*
X71200253Y52056856D01*
X71447569Y52222107D01*
X71657893Y52432431D01*
X71823144Y52679747D01*
X71936971Y52954549D01*
X71995000Y53246278D01*
X71995000Y53543722D01*
X71936971Y53835451D01*
X71823144Y54110253D01*
X71657893Y54357569D01*
X71447569Y54567893D01*
X71320000Y54653132D01*
X71320000Y58378982D01*
X71324040Y58420000D01*
X71307918Y58583688D01*
X71306155Y58589502D01*
X71260172Y58741087D01*
X71182636Y58886146D01*
X71130251Y58949977D01*
X71104439Y58981430D01*
X71104437Y58981432D01*
X71078291Y59013291D01*
X71046433Y59039436D01*
X65389446Y64696421D01*
X65363291Y64728291D01*
X65236146Y64832636D01*
X65091087Y64910172D01*
X64933689Y64957918D01*
X64811019Y64970000D01*
X64811018Y64970000D01*
X64770000Y64974040D01*
X64728982Y64970000D01*
X56225868Y64970000D01*
X55445000Y65750867D01*
X55445000Y73502831D01*
X55446842Y73502068D01*
X55733740Y73445000D01*
X56026260Y73445000D01*
X56313158Y73502068D01*
X56583411Y73614010D01*
X56826632Y73776525D01*
X56958487Y73908380D01*
X56980498Y73835820D01*
X57039463Y73725506D01*
X57118815Y73628815D01*
X57215506Y73549463D01*
X57325820Y73490498D01*
X57445518Y73454188D01*
X57570000Y73441928D01*
X59270000Y73441928D01*
X59394482Y73454188D01*
X59514180Y73490498D01*
X59624494Y73549463D01*
X59721185Y73628815D01*
X59800537Y73725506D01*
X59859502Y73835820D01*
X59895812Y73955518D01*
X59908072Y74080000D01*
X59908072Y75780000D01*
X59895812Y75904482D01*
X59859502Y76024180D01*
X59800537Y76134494D01*
X59721185Y76231185D01*
X59624494Y76310537D01*
X59514180Y76369502D01*
X59441620Y76391513D01*
X59573475Y76523368D01*
X59735990Y76766589D01*
X59847932Y77036842D01*
X59905000Y77323740D01*
X59905000Y77616260D01*
X59847932Y77903158D01*
X59735990Y78173411D01*
X59573475Y78416632D01*
X59366632Y78623475D01*
X59123411Y78785990D01*
X58853158Y78897932D01*
X58566260Y78955000D01*
X58273740Y78955000D01*
X57986842Y78897932D01*
X57716589Y78785990D01*
X57473368Y78623475D01*
X57266525Y78416632D01*
X57150000Y78242240D01*
X57033475Y78416632D01*
X56826632Y78623475D01*
X56583411Y78785990D01*
X56313158Y78897932D01*
X56026260Y78955000D01*
X55733740Y78955000D01*
X55446842Y78897932D01*
X55176589Y78785990D01*
X54933368Y78623475D01*
X54726525Y78416632D01*
X54610000Y78242240D01*
X54493475Y78416632D01*
X54286632Y78623475D01*
X54043411Y78785990D01*
X53773158Y78897932D01*
X53486260Y78955000D01*
X53193740Y78955000D01*
X52906842Y78897932D01*
X52636589Y78785990D01*
X52393368Y78623475D01*
X52186525Y78416632D01*
X52070000Y78242240D01*
X51953475Y78416632D01*
X51746632Y78623475D01*
X51503411Y78785990D01*
X51233158Y78897932D01*
X50946260Y78955000D01*
X50653740Y78955000D01*
X50366842Y78897932D01*
X50096589Y78785990D01*
X49853368Y78623475D01*
X49646525Y78416632D01*
X49530000Y78242240D01*
X49413475Y78416632D01*
X49206632Y78623475D01*
X48963411Y78785990D01*
X48693158Y78897932D01*
X48406260Y78955000D01*
X48113740Y78955000D01*
X47826842Y78897932D01*
X47556589Y78785990D01*
X47313368Y78623475D01*
X47106525Y78416632D01*
X46990000Y78242240D01*
X46873475Y78416632D01*
X46666632Y78623475D01*
X46423411Y78785990D01*
X46153158Y78897932D01*
X45866260Y78955000D01*
X45573740Y78955000D01*
X45286842Y78897932D01*
X45016589Y78785990D01*
X44773368Y78623475D01*
X44566525Y78416632D01*
X44450000Y78242240D01*
X44333475Y78416632D01*
X44126632Y78623475D01*
X43883411Y78785990D01*
X43613158Y78897932D01*
X43326260Y78955000D01*
X43033740Y78955000D01*
X42746842Y78897932D01*
X42476589Y78785990D01*
X42233368Y78623475D01*
X42026525Y78416632D01*
X41910000Y78242240D01*
X41793475Y78416632D01*
X41586632Y78623475D01*
X41343411Y78785990D01*
X41073158Y78897932D01*
X40786260Y78955000D01*
X40493740Y78955000D01*
X40206842Y78897932D01*
X39936589Y78785990D01*
X39693368Y78623475D01*
X39486525Y78416632D01*
X39370000Y78242240D01*
X39253475Y78416632D01*
X39046632Y78623475D01*
X38803411Y78785990D01*
X38533158Y78897932D01*
X38246260Y78955000D01*
X37953740Y78955000D01*
X37666842Y78897932D01*
X37396589Y78785990D01*
X37153368Y78623475D01*
X36946525Y78416632D01*
X36830000Y78242240D01*
X36713475Y78416632D01*
X36506632Y78623475D01*
X36263411Y78785990D01*
X35993158Y78897932D01*
X35706260Y78955000D01*
X35413740Y78955000D01*
X35126842Y78897932D01*
X34856589Y78785990D01*
X34613368Y78623475D01*
X34406525Y78416632D01*
X34290000Y78242240D01*
X34173475Y78416632D01*
X33966632Y78623475D01*
X33723411Y78785990D01*
X33453158Y78897932D01*
X33166260Y78955000D01*
X32873740Y78955000D01*
X32586842Y78897932D01*
X32316589Y78785990D01*
X32073368Y78623475D01*
X31866525Y78416632D01*
X31750000Y78242240D01*
X31633475Y78416632D01*
X31426632Y78623475D01*
X31183411Y78785990D01*
X30913158Y78897932D01*
X30626260Y78955000D01*
X30333740Y78955000D01*
X30046842Y78897932D01*
X29776589Y78785990D01*
X29533368Y78623475D01*
X29326525Y78416632D01*
X29210000Y78242240D01*
X29093475Y78416632D01*
X28886632Y78623475D01*
X28643411Y78785990D01*
X28373158Y78897932D01*
X28086260Y78955000D01*
X27793740Y78955000D01*
X27506842Y78897932D01*
X27236589Y78785990D01*
X26993368Y78623475D01*
X26786525Y78416632D01*
X26670000Y78242240D01*
X26553475Y78416632D01*
X26346632Y78623475D01*
X26103411Y78785990D01*
X25833158Y78897932D01*
X25546260Y78955000D01*
X25253740Y78955000D01*
X24966842Y78897932D01*
X24696589Y78785990D01*
X24453368Y78623475D01*
X24246525Y78416632D01*
X24130000Y78242240D01*
X24013475Y78416632D01*
X23806632Y78623475D01*
X23563411Y78785990D01*
X23293158Y78897932D01*
X23006260Y78955000D01*
X22713740Y78955000D01*
X22426842Y78897932D01*
X22156589Y78785990D01*
X21913368Y78623475D01*
X21706525Y78416632D01*
X21590000Y78242240D01*
X21473475Y78416632D01*
X21266632Y78623475D01*
X21023411Y78785990D01*
X20753158Y78897932D01*
X20466260Y78955000D01*
X20173740Y78955000D01*
X19886842Y78897932D01*
X19616589Y78785990D01*
X19373368Y78623475D01*
X19166525Y78416632D01*
X19044805Y78234466D01*
X18975178Y78351355D01*
X18780269Y78567588D01*
X18546920Y78741641D01*
X18284099Y78866825D01*
X18136890Y78911476D01*
X17907000Y78790155D01*
X17907000Y77597000D01*
X17927000Y77597000D01*
X17927000Y77343000D01*
X17907000Y77343000D01*
X17907000Y77323000D01*
X17653000Y77323000D01*
X17653000Y77343000D01*
X16459186Y77343000D01*
X16338519Y77113109D01*
X16435843Y76838748D01*
X16584822Y76588645D01*
X16779731Y76372412D01*
X17009406Y76201100D01*
X16833368Y76083475D01*
X16626525Y75876632D01*
X16464010Y75633411D01*
X16352068Y75363158D01*
X16295000Y75076260D01*
X16295000Y74783740D01*
X16352068Y74496842D01*
X16464010Y74226589D01*
X16626525Y73983368D01*
X16645000Y73964893D01*
X16645001Y69920957D01*
X16625506Y69910537D01*
X16528815Y69831185D01*
X16449463Y69734494D01*
X16439043Y69715000D01*
X15930752Y69715000D01*
X15875000Y69720491D01*
X15819248Y69715000D01*
X15652501Y69698577D01*
X15438553Y69633676D01*
X15241377Y69528284D01*
X15068551Y69386449D01*
X15033009Y69343141D01*
X13206860Y67516991D01*
X13163552Y67481449D01*
X13021717Y67308623D01*
X12990096Y67249463D01*
X12916324Y67111446D01*
X12851423Y66897498D01*
X12829509Y66675000D01*
X12835001Y66619239D01*
X12835000Y50855752D01*
X12829509Y50800000D01*
X12835001Y50744238D01*
X12835000Y39425752D01*
X12829509Y39370000D01*
X12835000Y39314249D01*
X12835000Y39235000D01*
X9580751Y39235000D01*
X9524999Y39240491D01*
X9469248Y39235000D01*
X9302501Y39218577D01*
X9088553Y39153676D01*
X8891377Y39048284D01*
X8718551Y38906449D01*
X8683009Y38863141D01*
X5586860Y35766991D01*
X5543552Y35731449D01*
X5401717Y35558623D01*
X5345384Y35453230D01*
X5296324Y35361446D01*
X5231423Y35147498D01*
X5209509Y34925000D01*
X5215001Y34869239D01*
X5215000Y33057818D01*
X5109294Y32929014D01*
X5080000Y32874209D01*
X5050706Y32929014D01*
X4945000Y33057817D01*
X4945000Y63664869D01*
X15368141Y74088009D01*
X15411449Y74123551D01*
X15553284Y74296377D01*
X15658676Y74493553D01*
X15723577Y74707501D01*
X15740000Y74874248D01*
X15740000Y74874257D01*
X15745490Y74929999D01*
X15740000Y74985741D01*
X15740000Y77826891D01*
X16338519Y77826891D01*
X16459186Y77597000D01*
X17653000Y77597000D01*
X17653000Y78790155D01*
X17423110Y78911476D01*
X17275901Y78866825D01*
X17013080Y78741641D01*
X16779731Y78567588D01*
X16584822Y78351355D01*
X16435843Y78101252D01*
X16338519Y77826891D01*
X15740000Y77826891D01*
X15740000Y81500128D01*
X66345000Y81500128D01*
X66345000Y81059872D01*
X66430890Y80628075D01*
X66599369Y80221331D01*
X66843962Y79855271D01*
X67155271Y79543962D01*
X67521331Y79299369D01*
X67928075Y79130890D01*
X68359872Y79045000D01*
X68800128Y79045000D01*
X69231925Y79130890D01*
X69638669Y79299369D01*
X70004729Y79543962D01*
X70316038Y79855271D01*
X70560631Y80221331D01*
X70729110Y80628075D01*
X70815000Y81059872D01*
X70815000Y81500128D01*
X70729110Y81931925D01*
X70560631Y82338669D01*
X70316038Y82704729D01*
X70004729Y83016038D01*
X69638669Y83260631D01*
X69231925Y83429110D01*
X68800128Y83515000D01*
X68359872Y83515000D01*
X67928075Y83429110D01*
X67521331Y83260631D01*
X67155271Y83016038D01*
X66843962Y82704729D01*
X66599369Y82338669D01*
X66430890Y81931925D01*
X66345000Y81500128D01*
X15740000Y81500128D01*
X15740000Y87236603D01*
X16931208Y87236603D01*
X17008843Y86987528D01*
X17272883Y86861629D01*
X17556411Y86789661D01*
X17848531Y86774389D01*
X18138019Y86816401D01*
X18413747Y86914081D01*
X18551157Y86987528D01*
X18628792Y87236603D01*
X17780000Y88085395D01*
X16931208Y87236603D01*
X15740000Y87236603D01*
X15740000Y88196469D01*
X16289389Y88196469D01*
X16331401Y87906981D01*
X16429081Y87631253D01*
X16502528Y87493843D01*
X16751603Y87416208D01*
X17600395Y88265000D01*
X16751603Y89113792D01*
X16502528Y89036157D01*
X16376629Y88772117D01*
X16304661Y88488589D01*
X16289389Y88196469D01*
X15740000Y88196469D01*
X15740000Y89064869D01*
X16345132Y89670000D01*
X16814893Y89670000D01*
X16833368Y89651525D01*
X17006729Y89535689D01*
X16931208Y89293397D01*
X17780000Y88444605D01*
X18628792Y89293397D01*
X18553271Y89535689D01*
X18726632Y89651525D01*
X18933475Y89858368D01*
X19050000Y90032760D01*
X19166525Y89858368D01*
X19373368Y89651525D01*
X19547760Y89535000D01*
X19373368Y89418475D01*
X19166525Y89211632D01*
X19050689Y89038271D01*
X18808397Y89113792D01*
X17959605Y88265000D01*
X18808397Y87416208D01*
X19050689Y87491729D01*
X19166525Y87318368D01*
X19373368Y87111525D01*
X19616589Y86949010D01*
X19886842Y86837068D01*
X20173740Y86780000D01*
X20466260Y86780000D01*
X20753158Y86837068D01*
X21023411Y86949010D01*
X21266632Y87111525D01*
X21473475Y87318368D01*
X21590000Y87492760D01*
X21706525Y87318368D01*
X21913368Y87111525D01*
X22156589Y86949010D01*
X22426842Y86837068D01*
X22713740Y86780000D01*
X23006260Y86780000D01*
X23293158Y86837068D01*
X23563411Y86949010D01*
X23806632Y87111525D01*
X24013475Y87318368D01*
X24130000Y87492760D01*
X24246525Y87318368D01*
X24453368Y87111525D01*
X24696589Y86949010D01*
X24966842Y86837068D01*
X25253740Y86780000D01*
X25546260Y86780000D01*
X25833158Y86837068D01*
X26103411Y86949010D01*
X26346632Y87111525D01*
X26553475Y87318368D01*
X26670000Y87492760D01*
X26786525Y87318368D01*
X26993368Y87111525D01*
X27236589Y86949010D01*
X27506842Y86837068D01*
X27793740Y86780000D01*
X28086260Y86780000D01*
X28373158Y86837068D01*
X28643411Y86949010D01*
X28886632Y87111525D01*
X29093475Y87318368D01*
X29210000Y87492760D01*
X29326525Y87318368D01*
X29533368Y87111525D01*
X29776589Y86949010D01*
X30046842Y86837068D01*
X30333740Y86780000D01*
X30626260Y86780000D01*
X30913158Y86837068D01*
X31183411Y86949010D01*
X31426632Y87111525D01*
X31633475Y87318368D01*
X31750000Y87492760D01*
X31866525Y87318368D01*
X32073368Y87111525D01*
X32316589Y86949010D01*
X32586842Y86837068D01*
X32873740Y86780000D01*
X33166260Y86780000D01*
X33453158Y86837068D01*
X33723411Y86949010D01*
X33966632Y87111525D01*
X34173475Y87318368D01*
X34290000Y87492760D01*
X34406525Y87318368D01*
X34613368Y87111525D01*
X34856589Y86949010D01*
X35126842Y86837068D01*
X35413740Y86780000D01*
X35706260Y86780000D01*
X35993158Y86837068D01*
X36263411Y86949010D01*
X36506632Y87111525D01*
X36713475Y87318368D01*
X36830000Y87492760D01*
X36946525Y87318368D01*
X37153368Y87111525D01*
X37396589Y86949010D01*
X37666842Y86837068D01*
X37953740Y86780000D01*
X38246260Y86780000D01*
X38533158Y86837068D01*
X38803411Y86949010D01*
X39046632Y87111525D01*
X39253475Y87318368D01*
X39370000Y87492760D01*
X39486525Y87318368D01*
X39693368Y87111525D01*
X39936589Y86949010D01*
X40206842Y86837068D01*
X40493740Y86780000D01*
X40786260Y86780000D01*
X41073158Y86837068D01*
X41343411Y86949010D01*
X41586632Y87111525D01*
X41793475Y87318368D01*
X41910000Y87492760D01*
X42026525Y87318368D01*
X42233368Y87111525D01*
X42476589Y86949010D01*
X42746842Y86837068D01*
X43033740Y86780000D01*
X43326260Y86780000D01*
X43613158Y86837068D01*
X43883411Y86949010D01*
X44126632Y87111525D01*
X44333475Y87318368D01*
X44450000Y87492760D01*
X44566525Y87318368D01*
X44773368Y87111525D01*
X45016589Y86949010D01*
X45286842Y86837068D01*
X45573740Y86780000D01*
X45866260Y86780000D01*
X46153158Y86837068D01*
X46423411Y86949010D01*
X46666632Y87111525D01*
X46873475Y87318368D01*
X46990000Y87492760D01*
X47106525Y87318368D01*
X47313368Y87111525D01*
X47556589Y86949010D01*
X47826842Y86837068D01*
X48113740Y86780000D01*
X48406260Y86780000D01*
X48693158Y86837068D01*
X48963411Y86949010D01*
X49206632Y87111525D01*
X49413475Y87318368D01*
X49530000Y87492760D01*
X49646525Y87318368D01*
X49853368Y87111525D01*
X50096589Y86949010D01*
X50366842Y86837068D01*
X50653740Y86780000D01*
X50946260Y86780000D01*
X51233158Y86837068D01*
X51503411Y86949010D01*
X51746632Y87111525D01*
X51953475Y87318368D01*
X52070000Y87492760D01*
X52186525Y87318368D01*
X52393368Y87111525D01*
X52636589Y86949010D01*
X52906842Y86837068D01*
X53193740Y86780000D01*
X53486260Y86780000D01*
X53773158Y86837068D01*
X54043411Y86949010D01*
X54286632Y87111525D01*
X54493475Y87318368D01*
X54610000Y87492760D01*
X54726525Y87318368D01*
X54933368Y87111525D01*
X55176589Y86949010D01*
X55446842Y86837068D01*
X55733740Y86780000D01*
X56026260Y86780000D01*
X56313158Y86837068D01*
X56583411Y86949010D01*
X56826632Y87111525D01*
X57033475Y87318368D01*
X57150000Y87492760D01*
X57266525Y87318368D01*
X57473368Y87111525D01*
X57716589Y86949010D01*
X57986842Y86837068D01*
X58273740Y86780000D01*
X58566260Y86780000D01*
X58853158Y86837068D01*
X59123411Y86949010D01*
X59366632Y87111525D01*
X59573475Y87318368D01*
X59735990Y87561589D01*
X59847932Y87831842D01*
X59905000Y88118740D01*
X59905000Y88411260D01*
X59847932Y88698158D01*
X59735990Y88968411D01*
X59573475Y89211632D01*
X59386392Y89398715D01*
X59513386Y89466595D01*
X59647962Y89577038D01*
X59758405Y89711614D01*
X59840472Y89865150D01*
X59891008Y90031746D01*
X59908072Y90205000D01*
X59908072Y91405000D01*
X59891008Y91578254D01*
X59840472Y91744850D01*
X59758405Y91898386D01*
X59647962Y92032962D01*
X59513386Y92143405D01*
X59359850Y92225472D01*
X59193254Y92276008D01*
X59020000Y92293072D01*
X57820000Y92293072D01*
X57646746Y92276008D01*
X57480150Y92225472D01*
X57326614Y92143405D01*
X57192038Y92032962D01*
X57081595Y91898386D01*
X57013715Y91771392D01*
X56826632Y91958475D01*
X56583411Y92120990D01*
X56313158Y92232932D01*
X56026260Y92290000D01*
X55733740Y92290000D01*
X55446842Y92232932D01*
X55176589Y92120990D01*
X54933368Y91958475D01*
X54726525Y91751632D01*
X54610000Y91577240D01*
X54493475Y91751632D01*
X54286632Y91958475D01*
X54043411Y92120990D01*
X53773158Y92232932D01*
X53486260Y92290000D01*
X53193740Y92290000D01*
X52906842Y92232932D01*
X52636589Y92120990D01*
X52393368Y91958475D01*
X52186525Y91751632D01*
X52070000Y91577240D01*
X51953475Y91751632D01*
X51746632Y91958475D01*
X51503411Y92120990D01*
X51233158Y92232932D01*
X50946260Y92290000D01*
X50653740Y92290000D01*
X50366842Y92232932D01*
X50096589Y92120990D01*
X49853368Y91958475D01*
X49646525Y91751632D01*
X49530000Y91577240D01*
X49413475Y91751632D01*
X49206632Y91958475D01*
X48963411Y92120990D01*
X48693158Y92232932D01*
X48406260Y92290000D01*
X48113740Y92290000D01*
X47826842Y92232932D01*
X47556589Y92120990D01*
X47313368Y91958475D01*
X47106525Y91751632D01*
X46990000Y91577240D01*
X46873475Y91751632D01*
X46666632Y91958475D01*
X46423411Y92120990D01*
X46153158Y92232932D01*
X45866260Y92290000D01*
X45573740Y92290000D01*
X45286842Y92232932D01*
X45016589Y92120990D01*
X44773368Y91958475D01*
X44566525Y91751632D01*
X44450000Y91577240D01*
X44333475Y91751632D01*
X44126632Y91958475D01*
X43883411Y92120990D01*
X43613158Y92232932D01*
X43326260Y92290000D01*
X43033740Y92290000D01*
X42746842Y92232932D01*
X42476589Y92120990D01*
X42233368Y91958475D01*
X42026525Y91751632D01*
X41910000Y91577240D01*
X41793475Y91751632D01*
X41586632Y91958475D01*
X41343411Y92120990D01*
X41073158Y92232932D01*
X40786260Y92290000D01*
X40493740Y92290000D01*
X40206842Y92232932D01*
X39936589Y92120990D01*
X39693368Y91958475D01*
X39486525Y91751632D01*
X39370000Y91577240D01*
X39253475Y91751632D01*
X39046632Y91958475D01*
X38803411Y92120990D01*
X38533158Y92232932D01*
X38246260Y92290000D01*
X37953740Y92290000D01*
X37666842Y92232932D01*
X37396589Y92120990D01*
X37153368Y91958475D01*
X36946525Y91751632D01*
X36830000Y91577240D01*
X36713475Y91751632D01*
X36506632Y91958475D01*
X36263411Y92120990D01*
X35993158Y92232932D01*
X35706260Y92290000D01*
X35413740Y92290000D01*
X35126842Y92232932D01*
X34856589Y92120990D01*
X34613368Y91958475D01*
X34406525Y91751632D01*
X34290000Y91577240D01*
X34173475Y91751632D01*
X33966632Y91958475D01*
X33723411Y92120990D01*
X33453158Y92232932D01*
X33166260Y92290000D01*
X32873740Y92290000D01*
X32586842Y92232932D01*
X32316589Y92120990D01*
X32073368Y91958475D01*
X31866525Y91751632D01*
X31750000Y91577240D01*
X31633475Y91751632D01*
X31426632Y91958475D01*
X31183411Y92120990D01*
X30913158Y92232932D01*
X30626260Y92290000D01*
X30333740Y92290000D01*
X30046842Y92232932D01*
X29776589Y92120990D01*
X29533368Y91958475D01*
X29326525Y91751632D01*
X29210000Y91577240D01*
X29093475Y91751632D01*
X28886632Y91958475D01*
X28643411Y92120990D01*
X28373158Y92232932D01*
X28086260Y92290000D01*
X27793740Y92290000D01*
X27506842Y92232932D01*
X27236589Y92120990D01*
X26993368Y91958475D01*
X26786525Y91751632D01*
X26670000Y91577240D01*
X26553475Y91751632D01*
X26346632Y91958475D01*
X26103411Y92120990D01*
X25833158Y92232932D01*
X25546260Y92290000D01*
X25253740Y92290000D01*
X24966842Y92232932D01*
X24696589Y92120990D01*
X24453368Y91958475D01*
X24246525Y91751632D01*
X24130000Y91577240D01*
X24013475Y91751632D01*
X23806632Y91958475D01*
X23563411Y92120990D01*
X23293158Y92232932D01*
X23006260Y92290000D01*
X22713740Y92290000D01*
X22426842Y92232932D01*
X22156589Y92120990D01*
X21913368Y91958475D01*
X21706525Y91751632D01*
X21590000Y91577240D01*
X21473475Y91751632D01*
X21266632Y91958475D01*
X21023411Y92120990D01*
X20753158Y92232932D01*
X20466260Y92290000D01*
X20173740Y92290000D01*
X19886842Y92232932D01*
X19616589Y92120990D01*
X19373368Y91958475D01*
X19166525Y91751632D01*
X19050000Y91577240D01*
X18933475Y91751632D01*
X18726632Y91958475D01*
X18483411Y92120990D01*
X18213158Y92232932D01*
X17926260Y92290000D01*
X17633740Y92290000D01*
X17346842Y92232932D01*
X17076589Y92120990D01*
X16833368Y91958475D01*
X16814893Y91940000D01*
X15930743Y91940000D01*
X15874999Y91945490D01*
X15819255Y91940000D01*
X15819248Y91940000D01*
X15673493Y91925644D01*
X15652500Y91923577D01*
X15602705Y91908471D01*
X15438553Y91858676D01*
X15241377Y91753284D01*
X15068551Y91611449D01*
X15033008Y91568140D01*
X13841865Y90376996D01*
X13798551Y90341449D01*
X13656716Y90168623D01*
X13583555Y90031746D01*
X13551324Y89971446D01*
X13486423Y89757498D01*
X13464509Y89535000D01*
X13470000Y89479249D01*
X13470001Y75400133D01*
X3046865Y64976996D01*
X3003551Y64941449D01*
X2861716Y64768623D01*
X2772199Y64601146D01*
X2756324Y64571446D01*
X2691423Y64357498D01*
X2669509Y64135000D01*
X2675000Y64079249D01*
X2675001Y33057818D01*
X2569294Y32929014D01*
X2431401Y32671034D01*
X2346487Y32391111D01*
X2325000Y32172950D01*
X660000Y32172950D01*
X660000Y81500128D01*
X5385000Y81500128D01*
X5385000Y81059872D01*
X5470890Y80628075D01*
X5639369Y80221331D01*
X5883962Y79855271D01*
X6195271Y79543962D01*
X6561331Y79299369D01*
X6968075Y79130890D01*
X7399872Y79045000D01*
X7840128Y79045000D01*
X8271925Y79130890D01*
X8678669Y79299369D01*
X9044729Y79543962D01*
X9356038Y79855271D01*
X9600631Y80221331D01*
X9769110Y80628075D01*
X9855000Y81059872D01*
X9855000Y81500128D01*
X9769110Y81931925D01*
X9600631Y82338669D01*
X9356038Y82704729D01*
X9044729Y83016038D01*
X8678669Y83260631D01*
X8271925Y83429110D01*
X7840128Y83515000D01*
X7399872Y83515000D01*
X6968075Y83429110D01*
X6561331Y83260631D01*
X6195271Y83016038D01*
X5883962Y82704729D01*
X5639369Y82338669D01*
X5470890Y81931925D01*
X5385000Y81500128D01*
X660000Y81500128D01*
X660000Y93955000D01*
X75540000Y93955000D01*
X75540001Y660000D01*
G37*
%TD.AperFunction*%
D21*
X12835000Y33075752D02*
X12829509Y33020000D01*
X12835000Y32964249D01*
X12835001Y32964239D01*
X12835000Y23550752D01*
X12829509Y23495000D01*
X12835000Y23439249D01*
X12851423Y23272502D01*
X12916324Y23058554D01*
X13021716Y22861377D01*
X13163551Y22688551D01*
X13206865Y22653004D01*
X15033009Y20826859D01*
X15068551Y20783551D01*
X15239364Y20643368D01*
X15241377Y20641716D01*
X15438553Y20536324D01*
X15652501Y20471423D01*
X15875000Y20449509D01*
X15930752Y20455000D01*
X16645000Y20455000D01*
X16645001Y17215957D01*
X16625506Y17205537D01*
X16528815Y17126185D01*
X16449463Y17029494D01*
X16390498Y16919180D01*
X16354188Y16799482D01*
X16341928Y16675000D01*
X16341928Y15075000D01*
X16354188Y14950518D01*
X16390498Y14830820D01*
X16449463Y14720506D01*
X16528815Y14623815D01*
X16541758Y14613193D01*
X16422429Y14361004D01*
X16353700Y14086816D01*
X16339783Y13804488D01*
X16381213Y13524870D01*
X16476397Y13258708D01*
X16543329Y13133486D01*
X16787298Y13061903D01*
X17600395Y13875000D01*
X17586253Y13889142D01*
X17765858Y14068747D01*
X17780000Y14054605D01*
X17794143Y14068747D01*
X17973748Y13889142D01*
X17959605Y13875000D01*
X18772702Y13061903D01*
X19016671Y13133486D01*
X19137571Y13388996D01*
X19206300Y13663184D01*
X19220217Y13945512D01*
X19178787Y14225130D01*
X19083603Y14491292D01*
X19018384Y14613309D01*
X19031185Y14623815D01*
X19110537Y14720506D01*
X19169502Y14830820D01*
X19205812Y14950518D01*
X19218072Y15075000D01*
X19218072Y16675000D01*
X19205812Y16799482D01*
X19169502Y16919180D01*
X19110537Y17029494D01*
X19031185Y17126185D01*
X18934494Y17205537D01*
X18915000Y17215957D01*
X18915000Y20624893D01*
X18933475Y20643368D01*
X19050000Y20817760D01*
X19166525Y20643368D01*
X19373368Y20436525D01*
X19485000Y20361935D01*
X19485001Y7578066D01*
X19373368Y7503475D01*
X19166525Y7296632D01*
X19050000Y7122240D01*
X18933475Y7296632D01*
X18726632Y7503475D01*
X18483411Y7665990D01*
X18213158Y7777932D01*
X17926260Y7835000D01*
X17633740Y7835000D01*
X17346842Y7777932D01*
X17076589Y7665990D01*
X16833368Y7503475D01*
X16814893Y7485000D01*
X15710132Y7485000D01*
X14470000Y8725131D01*
X14470000Y12882298D01*
X16966903Y12882298D01*
X17038486Y12638329D01*
X17293996Y12517429D01*
X17568184Y12448700D01*
X17850512Y12434783D01*
X18130130Y12476213D01*
X18396292Y12571397D01*
X18521514Y12638329D01*
X18593097Y12882298D01*
X17780000Y13695395D01*
X16966903Y12882298D01*
X14470000Y12882298D01*
X14470000Y17724249D01*
X14475491Y17780001D01*
X14453577Y18002500D01*
X14438471Y18052295D01*
X14388676Y18216447D01*
X14283284Y18413623D01*
X14141449Y18586449D01*
X14098141Y18621991D01*
X7826996Y24893135D01*
X7791449Y24936449D01*
X7618623Y25078284D01*
X7421447Y25183676D01*
X7207499Y25248577D01*
X7040752Y25265000D01*
X7040751Y25265000D01*
X6985000Y25270491D01*
X6929249Y25265000D01*
X5550132Y25265000D01*
X4945000Y25870131D01*
X4945000Y30442183D01*
X5050706Y30570986D01*
X5080000Y30625792D01*
X5109294Y30570987D01*
X5294866Y30344866D01*
X5520986Y30159294D01*
X5778966Y30021401D01*
X6058889Y29936487D01*
X6350000Y29907815D01*
X6641110Y29936487D01*
X6921033Y30021401D01*
X7179013Y30159294D01*
X7405134Y30344866D01*
X7590706Y30570986D01*
X7620000Y30625792D01*
X7649294Y30570987D01*
X7834866Y30344866D01*
X8060986Y30159294D01*
X8318966Y30021401D01*
X8598889Y29936487D01*
X8890000Y29907815D01*
X9181110Y29936487D01*
X9461033Y30021401D01*
X9719013Y30159294D01*
X9945134Y30344866D01*
X10130706Y30570986D01*
X10268599Y30828966D01*
X10353513Y31108889D01*
X10375000Y31327050D01*
X10375000Y32172949D01*
X10353513Y32391110D01*
X10268599Y32671034D01*
X10130706Y32929014D01*
X9945134Y33155134D01*
X9719014Y33340706D01*
X9461034Y33478599D01*
X9181111Y33563513D01*
X8890000Y33592185D01*
X8598890Y33563513D01*
X8318967Y33478599D01*
X8060987Y33340706D01*
X7834866Y33155134D01*
X7649294Y32929014D01*
X7620000Y32874209D01*
X7590706Y32929014D01*
X7485000Y33057817D01*
X7485000Y34454869D01*
X9995132Y36965000D01*
X12835001Y36965000D01*
X12835000Y33075752D01*
%TA.AperFunction,Conductor*%
D22*
G36*
X12835000Y33075752D02*
G01*
X12829509Y33020000D01*
X12835000Y32964249D01*
X12835001Y32964239D01*
X12835000Y23550752D01*
X12829509Y23495000D01*
X12835000Y23439249D01*
X12851423Y23272502D01*
X12916324Y23058554D01*
X13021716Y22861377D01*
X13163551Y22688551D01*
X13206865Y22653004D01*
X15033009Y20826859D01*
X15068551Y20783551D01*
X15239364Y20643368D01*
X15241377Y20641716D01*
X15438553Y20536324D01*
X15652501Y20471423D01*
X15875000Y20449509D01*
X15930752Y20455000D01*
X16645000Y20455000D01*
X16645001Y17215957D01*
X16625506Y17205537D01*
X16528815Y17126185D01*
X16449463Y17029494D01*
X16390498Y16919180D01*
X16354188Y16799482D01*
X16341928Y16675000D01*
X16341928Y15075000D01*
X16354188Y14950518D01*
X16390498Y14830820D01*
X16449463Y14720506D01*
X16528815Y14623815D01*
X16541758Y14613193D01*
X16422429Y14361004D01*
X16353700Y14086816D01*
X16339783Y13804488D01*
X16381213Y13524870D01*
X16476397Y13258708D01*
X16543329Y13133486D01*
X16787298Y13061903D01*
X17600395Y13875000D01*
X17586253Y13889142D01*
X17765858Y14068747D01*
X17780000Y14054605D01*
X17794143Y14068747D01*
X17973748Y13889142D01*
X17959605Y13875000D01*
X18772702Y13061903D01*
X19016671Y13133486D01*
X19137571Y13388996D01*
X19206300Y13663184D01*
X19220217Y13945512D01*
X19178787Y14225130D01*
X19083603Y14491292D01*
X19018384Y14613309D01*
X19031185Y14623815D01*
X19110537Y14720506D01*
X19169502Y14830820D01*
X19205812Y14950518D01*
X19218072Y15075000D01*
X19218072Y16675000D01*
X19205812Y16799482D01*
X19169502Y16919180D01*
X19110537Y17029494D01*
X19031185Y17126185D01*
X18934494Y17205537D01*
X18915000Y17215957D01*
X18915000Y20624893D01*
X18933475Y20643368D01*
X19050000Y20817760D01*
X19166525Y20643368D01*
X19373368Y20436525D01*
X19485000Y20361935D01*
X19485001Y7578066D01*
X19373368Y7503475D01*
X19166525Y7296632D01*
X19050000Y7122240D01*
X18933475Y7296632D01*
X18726632Y7503475D01*
X18483411Y7665990D01*
X18213158Y7777932D01*
X17926260Y7835000D01*
X17633740Y7835000D01*
X17346842Y7777932D01*
X17076589Y7665990D01*
X16833368Y7503475D01*
X16814893Y7485000D01*
X15710132Y7485000D01*
X14470000Y8725131D01*
X14470000Y12882298D01*
X16966903Y12882298D01*
X17038486Y12638329D01*
X17293996Y12517429D01*
X17568184Y12448700D01*
X17850512Y12434783D01*
X18130130Y12476213D01*
X18396292Y12571397D01*
X18521514Y12638329D01*
X18593097Y12882298D01*
X17780000Y13695395D01*
X16966903Y12882298D01*
X14470000Y12882298D01*
X14470000Y17724249D01*
X14475491Y17780001D01*
X14453577Y18002500D01*
X14438471Y18052295D01*
X14388676Y18216447D01*
X14283284Y18413623D01*
X14141449Y18586449D01*
X14098141Y18621991D01*
X7826996Y24893135D01*
X7791449Y24936449D01*
X7618623Y25078284D01*
X7421447Y25183676D01*
X7207499Y25248577D01*
X7040752Y25265000D01*
X7040751Y25265000D01*
X6985000Y25270491D01*
X6929249Y25265000D01*
X5550132Y25265000D01*
X4945000Y25870131D01*
X4945000Y30442183D01*
X5050706Y30570986D01*
X5080000Y30625792D01*
X5109294Y30570987D01*
X5294866Y30344866D01*
X5520986Y30159294D01*
X5778966Y30021401D01*
X6058889Y29936487D01*
X6350000Y29907815D01*
X6641110Y29936487D01*
X6921033Y30021401D01*
X7179013Y30159294D01*
X7405134Y30344866D01*
X7590706Y30570986D01*
X7620000Y30625792D01*
X7649294Y30570987D01*
X7834866Y30344866D01*
X8060986Y30159294D01*
X8318966Y30021401D01*
X8598889Y29936487D01*
X8890000Y29907815D01*
X9181110Y29936487D01*
X9461033Y30021401D01*
X9719013Y30159294D01*
X9945134Y30344866D01*
X10130706Y30570986D01*
X10268599Y30828966D01*
X10353513Y31108889D01*
X10375000Y31327050D01*
X10375000Y32172949D01*
X10353513Y32391110D01*
X10268599Y32671034D01*
X10130706Y32929014D01*
X9945134Y33155134D01*
X9719014Y33340706D01*
X9461034Y33478599D01*
X9181111Y33563513D01*
X8890000Y33592185D01*
X8598890Y33563513D01*
X8318967Y33478599D01*
X8060987Y33340706D01*
X7834866Y33155134D01*
X7649294Y32929014D01*
X7620000Y32874209D01*
X7590706Y32929014D01*
X7485000Y33057817D01*
X7485000Y34454869D01*
X9995132Y36965000D01*
X12835001Y36965000D01*
X12835000Y33075752D01*
G37*
%TD.AperFunction*%
D21*
X16390498Y31975820D02*
X16449463Y31865506D01*
X16528815Y31768815D01*
X16541758Y31758193D01*
X16422429Y31506004D01*
X16353700Y31231816D01*
X16339783Y30949488D01*
X16381213Y30669870D01*
X16476397Y30403708D01*
X16543329Y30278486D01*
X16787298Y30206903D01*
X17600395Y31020000D01*
X17586253Y31034142D01*
X17765858Y31213747D01*
X17780000Y31199605D01*
X17794143Y31213747D01*
X17973748Y31034142D01*
X17959605Y31020000D01*
X18772702Y30206903D01*
X18850001Y30229583D01*
X18850001Y29251028D01*
X18845960Y29210000D01*
X18862082Y29046312D01*
X18909828Y28888914D01*
X18987364Y28743855D01*
X19010907Y28715168D01*
X19091710Y28616709D01*
X19123573Y28590559D01*
X19485000Y28229132D01*
X19485001Y25358066D01*
X19373368Y25283475D01*
X19166525Y25076632D01*
X19044805Y24894466D01*
X18975178Y25011355D01*
X18780269Y25227588D01*
X18546920Y25401641D01*
X18284099Y25526825D01*
X18136890Y25571476D01*
X17907000Y25450155D01*
X17907000Y24257000D01*
X17927000Y24257000D01*
X17927000Y24003000D01*
X17907000Y24003000D01*
X17907000Y23983000D01*
X17653000Y23983000D01*
X17653000Y24003000D01*
X16459186Y24003000D01*
X16338519Y23773109D01*
X16435843Y23498748D01*
X16584822Y23248645D01*
X16779731Y23032412D01*
X17009406Y22861100D01*
X16833368Y22743475D01*
X16814893Y22725000D01*
X16345132Y22725000D01*
X15105000Y23965131D01*
X15105000Y24486891D01*
X16338519Y24486891D01*
X16459186Y24257000D01*
X17653000Y24257000D01*
X17653000Y25450155D01*
X17423110Y25571476D01*
X17275901Y25526825D01*
X17013080Y25401641D01*
X16779731Y25227588D01*
X16584822Y25011355D01*
X16435843Y24761252D01*
X16338519Y24486891D01*
X15105000Y24486891D01*
X15105000Y30027298D01*
X16966903Y30027298D01*
X17038486Y29783329D01*
X17293996Y29662429D01*
X17568184Y29593700D01*
X17850512Y29579783D01*
X18130130Y29621213D01*
X18396292Y29716397D01*
X18521514Y29783329D01*
X18593097Y30027298D01*
X17780000Y30840395D01*
X16966903Y30027298D01*
X15105000Y30027298D01*
X15105000Y31980000D01*
X16389230Y31980000D01*
X16390498Y31975820D01*
%TA.AperFunction,Conductor*%
D22*
G36*
X16390498Y31975820D02*
G01*
X16449463Y31865506D01*
X16528815Y31768815D01*
X16541758Y31758193D01*
X16422429Y31506004D01*
X16353700Y31231816D01*
X16339783Y30949488D01*
X16381213Y30669870D01*
X16476397Y30403708D01*
X16543329Y30278486D01*
X16787298Y30206903D01*
X17600395Y31020000D01*
X17586253Y31034142D01*
X17765858Y31213747D01*
X17780000Y31199605D01*
X17794143Y31213747D01*
X17973748Y31034142D01*
X17959605Y31020000D01*
X18772702Y30206903D01*
X18850001Y30229583D01*
X18850001Y29251028D01*
X18845960Y29210000D01*
X18862082Y29046312D01*
X18909828Y28888914D01*
X18987364Y28743855D01*
X19010907Y28715168D01*
X19091710Y28616709D01*
X19123573Y28590559D01*
X19485000Y28229132D01*
X19485001Y25358066D01*
X19373368Y25283475D01*
X19166525Y25076632D01*
X19044805Y24894466D01*
X18975178Y25011355D01*
X18780269Y25227588D01*
X18546920Y25401641D01*
X18284099Y25526825D01*
X18136890Y25571476D01*
X17907000Y25450155D01*
X17907000Y24257000D01*
X17927000Y24257000D01*
X17927000Y24003000D01*
X17907000Y24003000D01*
X17907000Y23983000D01*
X17653000Y23983000D01*
X17653000Y24003000D01*
X16459186Y24003000D01*
X16338519Y23773109D01*
X16435843Y23498748D01*
X16584822Y23248645D01*
X16779731Y23032412D01*
X17009406Y22861100D01*
X16833368Y22743475D01*
X16814893Y22725000D01*
X16345132Y22725000D01*
X15105000Y23965131D01*
X15105000Y24486891D01*
X16338519Y24486891D01*
X16459186Y24257000D01*
X17653000Y24257000D01*
X17653000Y25450155D01*
X17423110Y25571476D01*
X17275901Y25526825D01*
X17013080Y25401641D01*
X16779731Y25227588D01*
X16584822Y25011355D01*
X16435843Y24761252D01*
X16338519Y24486891D01*
X15105000Y24486891D01*
X15105000Y30027298D01*
X16966903Y30027298D01*
X17038486Y29783329D01*
X17293996Y29662429D01*
X17568184Y29593700D01*
X17850512Y29579783D01*
X18130130Y29621213D01*
X18396292Y29716397D01*
X18521514Y29783329D01*
X18593097Y30027298D01*
X17780000Y30840395D01*
X16966903Y30027298D01*
X15105000Y30027298D01*
X15105000Y31980000D01*
X16389230Y31980000D01*
X16390498Y31975820D01*
G37*
%TD.AperFunction*%
D21*
X16449463Y49645506D02*
X16528815Y49548815D01*
X16541758Y49538193D01*
X16422429Y49286004D01*
X16353700Y49011816D01*
X16339783Y48729488D01*
X16381213Y48449870D01*
X16476397Y48183708D01*
X16543329Y48058486D01*
X16787298Y47986903D01*
X17600395Y48800000D01*
X17586253Y48814142D01*
X17765858Y48993747D01*
X17780000Y48979605D01*
X17794143Y48993747D01*
X17973748Y48814142D01*
X17959605Y48800000D01*
X17973748Y48785857D01*
X17794143Y48606252D01*
X17780000Y48620395D01*
X16966903Y47807298D01*
X17038486Y47563329D01*
X17293996Y47442429D01*
X17568184Y47373700D01*
X17850512Y47359783D01*
X18130130Y47401213D01*
X18215000Y47431564D01*
X18215000Y43327784D01*
X18136890Y43351476D01*
X17907000Y43230155D01*
X17907000Y42037000D01*
X17927000Y42037000D01*
X17927000Y41783000D01*
X17907000Y41783000D01*
X17907000Y41763000D01*
X17653000Y41763000D01*
X17653000Y41783000D01*
X16459186Y41783000D01*
X16338519Y41553109D01*
X16435843Y41278748D01*
X16584822Y41028645D01*
X16779731Y40812412D01*
X17009406Y40641100D01*
X16833368Y40523475D01*
X16814893Y40505000D01*
X15105000Y40505000D01*
X15105000Y42266891D01*
X16338519Y42266891D01*
X16459186Y42037000D01*
X17653000Y42037000D01*
X17653000Y43230155D01*
X17423110Y43351476D01*
X17275901Y43306825D01*
X17013080Y43181641D01*
X16779731Y43007588D01*
X16584822Y42791355D01*
X16435843Y42541252D01*
X16338519Y42266891D01*
X15105000Y42266891D01*
X15105000Y49665000D01*
X16439043Y49665000D01*
X16449463Y49645506D01*
%TA.AperFunction,Conductor*%
D22*
G36*
X16449463Y49645506D02*
G01*
X16528815Y49548815D01*
X16541758Y49538193D01*
X16422429Y49286004D01*
X16353700Y49011816D01*
X16339783Y48729488D01*
X16381213Y48449870D01*
X16476397Y48183708D01*
X16543329Y48058486D01*
X16787298Y47986903D01*
X17600395Y48800000D01*
X17586253Y48814142D01*
X17765858Y48993747D01*
X17780000Y48979605D01*
X17794143Y48993747D01*
X17973748Y48814142D01*
X17959605Y48800000D01*
X17973748Y48785857D01*
X17794143Y48606252D01*
X17780000Y48620395D01*
X16966903Y47807298D01*
X17038486Y47563329D01*
X17293996Y47442429D01*
X17568184Y47373700D01*
X17850512Y47359783D01*
X18130130Y47401213D01*
X18215000Y47431564D01*
X18215000Y43327784D01*
X18136890Y43351476D01*
X17907000Y43230155D01*
X17907000Y42037000D01*
X17927000Y42037000D01*
X17927000Y41783000D01*
X17907000Y41783000D01*
X17907000Y41763000D01*
X17653000Y41763000D01*
X17653000Y41783000D01*
X16459186Y41783000D01*
X16338519Y41553109D01*
X16435843Y41278748D01*
X16584822Y41028645D01*
X16779731Y40812412D01*
X17009406Y40641100D01*
X16833368Y40523475D01*
X16814893Y40505000D01*
X15105000Y40505000D01*
X15105000Y42266891D01*
X16338519Y42266891D01*
X16459186Y42037000D01*
X17653000Y42037000D01*
X17653000Y43230155D01*
X17423110Y43351476D01*
X17275901Y43306825D01*
X17013080Y43181641D01*
X16779731Y43007588D01*
X16584822Y42791355D01*
X16435843Y42541252D01*
X16338519Y42266891D01*
X15105000Y42266891D01*
X15105000Y49665000D01*
X16439043Y49665000D01*
X16449463Y49645506D01*
G37*
%TD.AperFunction*%
D21*
X16449463Y67425506D02*
X16528815Y67328815D01*
X16541758Y67318193D01*
X16422429Y67066004D01*
X16353700Y66791816D01*
X16339783Y66509488D01*
X16381213Y66229870D01*
X16476397Y65963708D01*
X16543329Y65838486D01*
X16787298Y65766903D01*
X17600395Y66580000D01*
X17586253Y66594142D01*
X17765858Y66773747D01*
X17780000Y66759605D01*
X17794143Y66773747D01*
X17973748Y66594142D01*
X17959605Y66580000D01*
X17973748Y66565857D01*
X17794143Y66386252D01*
X17780000Y66400395D01*
X16966903Y65587298D01*
X17038486Y65343329D01*
X17293996Y65222429D01*
X17568184Y65153700D01*
X17850512Y65139783D01*
X18130130Y65181213D01*
X18215001Y65211564D01*
X18215001Y61107784D01*
X18136890Y61131476D01*
X17907000Y61010155D01*
X17907000Y59817000D01*
X17927000Y59817000D01*
X17927000Y59563000D01*
X17907000Y59563000D01*
X17907000Y59543000D01*
X17653000Y59543000D01*
X17653000Y59563000D01*
X16459186Y59563000D01*
X16338519Y59333109D01*
X16435843Y59058748D01*
X16584822Y58808645D01*
X16779731Y58592412D01*
X17009406Y58421100D01*
X16833368Y58303475D01*
X16626525Y58096632D01*
X16464010Y57853411D01*
X16352068Y57583158D01*
X16295000Y57296260D01*
X16295000Y57003740D01*
X16352068Y56716842D01*
X16464010Y56446589D01*
X16626525Y56203368D01*
X16645000Y56184893D01*
X16645001Y52140957D01*
X16625506Y52130537D01*
X16528815Y52051185D01*
X16449463Y51954494D01*
X16439043Y51935000D01*
X15105000Y51935000D01*
X15105000Y60046891D01*
X16338519Y60046891D01*
X16459186Y59817000D01*
X17653000Y59817000D01*
X17653000Y61010155D01*
X17423110Y61131476D01*
X17275901Y61086825D01*
X17013080Y60961641D01*
X16779731Y60787588D01*
X16584822Y60571355D01*
X16435843Y60321252D01*
X16338519Y60046891D01*
X15105000Y60046891D01*
X15105000Y66204869D01*
X16345132Y67445000D01*
X16439043Y67445000D01*
X16449463Y67425506D01*
%TA.AperFunction,Conductor*%
D22*
G36*
X16449463Y67425506D02*
G01*
X16528815Y67328815D01*
X16541758Y67318193D01*
X16422429Y67066004D01*
X16353700Y66791816D01*
X16339783Y66509488D01*
X16381213Y66229870D01*
X16476397Y65963708D01*
X16543329Y65838486D01*
X16787298Y65766903D01*
X17600395Y66580000D01*
X17586253Y66594142D01*
X17765858Y66773747D01*
X17780000Y66759605D01*
X17794143Y66773747D01*
X17973748Y66594142D01*
X17959605Y66580000D01*
X17973748Y66565857D01*
X17794143Y66386252D01*
X17780000Y66400395D01*
X16966903Y65587298D01*
X17038486Y65343329D01*
X17293996Y65222429D01*
X17568184Y65153700D01*
X17850512Y65139783D01*
X18130130Y65181213D01*
X18215001Y65211564D01*
X18215001Y61107784D01*
X18136890Y61131476D01*
X17907000Y61010155D01*
X17907000Y59817000D01*
X17927000Y59817000D01*
X17927000Y59563000D01*
X17907000Y59563000D01*
X17907000Y59543000D01*
X17653000Y59543000D01*
X17653000Y59563000D01*
X16459186Y59563000D01*
X16338519Y59333109D01*
X16435843Y59058748D01*
X16584822Y58808645D01*
X16779731Y58592412D01*
X17009406Y58421100D01*
X16833368Y58303475D01*
X16626525Y58096632D01*
X16464010Y57853411D01*
X16352068Y57583158D01*
X16295000Y57296260D01*
X16295000Y57003740D01*
X16352068Y56716842D01*
X16464010Y56446589D01*
X16626525Y56203368D01*
X16645000Y56184893D01*
X16645001Y52140957D01*
X16625506Y52130537D01*
X16528815Y52051185D01*
X16449463Y51954494D01*
X16439043Y51935000D01*
X15105000Y51935000D01*
X15105000Y60046891D01*
X16338519Y60046891D01*
X16459186Y59817000D01*
X17653000Y59817000D01*
X17653000Y61010155D01*
X17423110Y61131476D01*
X17275901Y61086825D01*
X17013080Y60961641D01*
X16779731Y60787588D01*
X16584822Y60571355D01*
X16435843Y60321252D01*
X16338519Y60046891D01*
X15105000Y60046891D01*
X15105000Y66204869D01*
X16345132Y67445000D01*
X16439043Y67445000D01*
X16449463Y67425506D01*
G37*
%TD.AperFunction*%
%TD*%
M02*
